<svg xmlns="http://www.w3.org/2000/svg" viewBox="0 0 1174.99 900"><defs><style>.cls-1{fill:#efefef;}.cls-2{fill:#b8b8b8;}.cls-3{isolation:isolate;}.cls-4{fill:#ff3a00;}.cls-5{fill:#a8f9ff;}.cls-6{opacity:0.3;}</style></defs><g id="base"><rect class="cls-1" x="878.05" y="157.77" width="210.47" height="603.28"/><rect class="cls-1" x="95.85" y="157.76" width="286.17" height="603.28"/><path class="cls-2" d="M180.72,761.35a.3.3,0,0,1-.3-.3V157.77a.29.29,0,0,1,.3-.3.3.3,0,0,1,.3.3V761.05A.31.31,0,0,1,180.72,761.35Z"/><path class="cls-2" d="M257,761.35a.3.3,0,0,1-.3-.3V157.77a.29.29,0,0,1,.3-.3.3.3,0,0,1,.3.3V761.05A.31.31,0,0,1,257,761.35Z"/><path class="cls-2" d="M341.52,761.35a.3.3,0,0,1-.3-.3V157.77a.29.29,0,0,1,.3-.3.3.3,0,0,1,.3.3V761.05A.31.31,0,0,1,341.52,761.35Z"/><path class="cls-2" d="M423.28,761.35a.3.3,0,0,1-.3-.3V157.77a.29.29,0,0,1,.3-.3.3.3,0,0,1,.3.3V761.05A.31.31,0,0,1,423.28,761.35Z"/><path class="cls-2" d="M507.76,761.35a.31.31,0,0,1-.3-.3V157.77a.3.3,0,0,1,.3-.3.29.29,0,0,1,.3.3V761.05A.3.3,0,0,1,507.76,761.35Z"/><path class="cls-2" d="M589.53,761.35a.3.3,0,0,1-.3-.3V157.77a.29.29,0,0,1,.3-.3.3.3,0,0,1,.3.3V761.05A.31.31,0,0,1,589.53,761.35Z"/><path class="cls-2" d="M674,761.35a.31.31,0,0,1-.3-.3V157.77a.3.3,0,0,1,.3-.3.29.29,0,0,1,.3.3V761.05A.3.3,0,0,1,674,761.35Z"/><path class="cls-2" d="M758.5,761.35a.3.3,0,0,1-.3-.3V157.77a.29.29,0,0,1,.3-.3.3.3,0,0,1,.3.3V761.05A.31.31,0,0,1,758.5,761.35Z"/><path class="cls-2" d="M840.26,761.35a.3.3,0,0,1-.3-.3V157.77a.3.3,0,1,1,.6,0V761.05A.3.3,0,0,1,840.26,761.35Z"/><path class="cls-2" d="M924.75,761.35a.3.3,0,0,1-.3-.3V157.77a.29.29,0,0,1,.3-.3.3.3,0,0,1,.3.3V761.05A.31.31,0,0,1,924.75,761.35Z"/><path class="cls-2" d="M1006.51,761.35a.3.3,0,0,1-.3-.3V157.77a.29.29,0,0,1,.3-.3.3.3,0,0,1,.3.3V761.05A.31.31,0,0,1,1006.51,761.35Z"/><path class="cls-2" d="M96.23,761.35a.31.31,0,0,1-.3-.3V157.77a.3.3,0,0,1,.3-.3.29.29,0,0,1,.3.3V761.05A.3.3,0,0,1,96.23,761.35Z"/><path class="cls-2" d="M1088.27,761.35a.3.3,0,0,1-.3-.3V157.77a.3.3,0,0,1,.6,0V761.05A.3.3,0,0,1,1088.27,761.35Z"/><g class="cls-3"><path d="M206.41,773.62h6.78v1.19h-5.42v3.69h4.29v1.19h-4.29v4.17h-1.36Z"/><path d="M215,773.62h6.9v1.19h-5.53v3.25h4.4v1.19h-4.4v3.42H222v1.19h-7Z"/><path d="M224,773.62h4.23c2.22,0,3.27,1,3.27,2.68a2.16,2.16,0,0,1-1.61,2.14v.06a2.32,2.32,0,0,1,2,2.32c0,1.75-1.18,3-3.39,3H224Zm1.37,1.19V778h2.86a1.67,1.67,0,0,0,1.9-1.68c0-.9-.53-1.48-1.9-1.48Zm0,4.35v3.51h3.16a1.77,1.77,0,0,0,2-1.83c0-1-.66-1.68-2-1.68Z"/></g><g class="cls-3"><path d="M131.84,782.37h-.05a3.6,3.6,0,0,1-3.34,1.67,5.3,5.3,0,0,1,.05-10.59,4.29,4.29,0,0,1,4.47,3.21h-1.43a2.9,2.9,0,0,0-3-2c-2.21,0-3.63,1.72-3.63,4s1.48,4,3.58,4c1.71,0,3.27-1,3.27-2.86v-.3H128.5v-1.19H133v5.42h-.89Z"/><path d="M135.41,773.62h6.9v1.19h-5.53v3.25h4.4v1.19h-4.4v3.42h5.65v1.19h-7Z"/><path d="M144.52,773.62h1.31l5.65,7.92h.06l-.06-7.92h1.37v10.24h-1.31L145.89,776h-.06l.06,7.86h-1.37Z"/></g><g class="cls-3"><path d="M284.21,773.62h1.67l3.76,8.39h0l3.71-8.39H295v10.24h-1.36l.12-8.09h-.06l-3.57,8.09h-1.08l-3.57-7.92h-.06l.12,7.92h-1.37Z"/><path d="M300.34,773.62H302l3.81,10.24h-1.43l-1-2.68h-4.49l-1,2.68h-1.36Zm.75,1.43L299.3,780h3.63l-1.78-4.94Z"/><path d="M307.25,773.62h3.87c2.33,0,3.57,1.12,3.57,3a2.94,2.94,0,0,1-2.25,3.05l2.6,4.15h-1.48l-2.55-4h-2.39v4h-1.37Zm1.37,1.19v3.87h2.56a1.94,1.94,0,0,0,2.14-2c0-1.13-.77-1.85-2.14-1.85Z"/></g><g class="cls-3"><path d="M372,773.62h1.61l3.8,10.24H376l-1-2.68h-4.49l-1,2.68H368.2Zm.74,1.43L371,780h3.63l-1.79-4.94Z"/><path d="M378.91,773.62h3.87c2.34,0,3.63,1.36,3.63,3.28a3.3,3.3,0,0,1-3.63,3.39h-2.5v3.57h-1.37Zm1.37,1.19v4.29h2.56a2.06,2.06,0,0,0,2.2-2.2,2,2,0,0,0-2.2-2.09Z"/><path d="M388.38,773.62h3.87c2.33,0,3.57,1.12,3.57,3a2.94,2.94,0,0,1-2.25,3.05l2.6,4.15h-1.48l-2.55-4h-2.39v4h-1.37Zm1.37,1.19v3.87h2.56a1.94,1.94,0,0,0,2.14-2c0-1.13-.78-1.85-2.14-1.85Z"/></g><g class="cls-3"><path d="M449.81,773.62h1.66l3.77,8.39h0l3.7-8.39h1.67v10.24h-1.37l.12-8.09h-.06l-3.57,8.09h-1.07l-3.57-7.92h-.06l.12,7.92h-1.37Z"/><path d="M465.94,773.62h1.6l3.81,10.24h-1.43l-1-2.68h-4.5l-1,2.68h-1.37Zm.74,1.43L464.9,780h3.63l-1.79-4.94Z"/><path d="M480.28,782.37h0a3.6,3.6,0,0,1-3.35,1.67,5.3,5.3,0,0,1,.06-10.59,4.28,4.28,0,0,1,4.46,3.21H480a2.89,2.89,0,0,0-3-2c-2.22,0-3.63,1.72-3.63,4s1.47,4,3.57,4c1.71,0,3.27-1,3.27-2.86v-.3H477v-1.19h4.46v5.42h-.89Z"/></g><g class="cls-3"><path d="M544.86,782.37h0a3.6,3.6,0,0,1-3.35,1.67,5.3,5.3,0,0,1,.06-10.59,4.28,4.28,0,0,1,4.46,3.21h-1.42a2.91,2.91,0,0,0-3-2c-2.22,0-3.63,1.72-3.63,4s1.47,4,3.57,4c1.71,0,3.27-1,3.27-2.86v-.3h-3.21v-1.19H546v5.42h-.89Z"/><path d="M548.44,773.62h1.36v10.24h-1.36Z"/><path d="M552.19,773.62h1.36v6.19c0,1.88.88,3,2.74,3s2.74-1.1,2.74-3v-6.19h1.37v6.19c0,3-1.68,4.23-4.11,4.23s-4.1-1.19-4.1-4.23Z"/></g><g class="cls-3"><path d="M618.26,773.62h1.37v9h5v1.19h-6.36Z"/><path d="M625.88,773.62h1.36v6.19c0,1.88.88,3,2.74,3s2.74-1.1,2.74-3v-6.19h1.37v6.19c0,3-1.68,4.23-4.11,4.23s-4.1-1.19-4.1-4.23Z"/><path d="M644.33,782.37h-.05a3.6,3.6,0,0,1-3.35,1.67,5.3,5.3,0,0,1,.06-10.59,4.29,4.29,0,0,1,4.47,3.21H644a2.91,2.91,0,0,0-3-2c-2.21,0-3.63,1.72-3.63,4s1.48,4,3.57,4c1.71,0,3.28-1,3.28-2.86v-.3H641v-1.19h4.47v5.42h-.9Z"/></g><g class="cls-3"><path d="M704.29,773.62h1.61l3.81,10.24h-1.43l-1-2.68h-4.49l-1,2.68h-1.37Zm.75,1.43L703.25,780h3.63l-1.78-4.94Z"/><path d="M718.64,782.37h0a3.6,3.6,0,0,1-3.35,1.67,5.3,5.3,0,0,1,.06-10.59,4.29,4.29,0,0,1,4.47,3.21h-1.43a2.91,2.91,0,0,0-3-2c-2.21,0-3.63,1.72-3.63,4s1.48,4,3.57,4c1.71,0,3.28-1,3.28-2.86v-.3H715.3v-1.19h4.47v5.42h-.9Z"/><path d="M726.55,773.45a5.3,5.3,0,0,1,0,10.59c-3,0-5-2.25-5-5.3S723.56,773.45,726.55,773.45Zm0,9.34c2.16,0,3.57-1.73,3.57-4s-1.41-4-3.57-4-3.57,1.72-3.57,4S724.4,782.79,726.55,782.79Z"/></g><g class="cls-3"><path d="M787.83,780.94c0,1.12,1,2,2.56,2s2.62-.7,2.62-1.91c0-2.71-6.4-.65-6.4-4.58,0-1.74,1.51-3,3.78-3s3.75,1.08,3.75,2.91h-1.37c0-1.13-1-1.78-2.38-1.78s-2.38.58-2.38,1.72c0,2.68,6.43.57,6.43,4.64,0,1.85-1.49,3.1-4.05,3.1s-3.93-1.25-3.93-3.1Z"/><path d="M796.58,773.62h6.91v1.19H798v3.25h4.41v1.19H798v3.42h5.66v1.19h-7Z"/><path d="M804.5,773.62H813v1.16h-3.57v9.08h-1.37v-9.08H804.5Z"/></g><g class="cls-3"><path d="M874,773.45A5.3,5.3,0,0,1,874,784c-3,0-5-2.25-5-5.3S871,773.45,874,773.45Zm0,9.34c2.16,0,3.57-1.73,3.57-4s-1.41-4-3.57-4-3.57,1.72-3.57,4S871.87,782.79,874,782.79Z"/><path d="M879.26,773.62h8.51v1.16H884.2v9.08h-1.37v-9.08h-3.57Z"/><path d="M888,773.62h8.51v1.16H893v9.08h-1.37v-9.08H888Z"/></g><g class="cls-3"><path d="M951.34,773.62h1.31l5.66,7.92h.06l-.06-7.92h1.37v10.24h-1.31L952.71,776h-.06l.06,7.86h-1.37Z"/><path d="M966.64,773.45a5.3,5.3,0,0,1,0,10.59c-3,0-5-2.25-5-5.3S963.65,773.45,966.64,773.45Zm0,9.34c2.16,0,3.57-1.73,3.57-4s-1.41-4-3.57-4-3.57,1.72-3.57,4S964.48,782.79,966.64,782.79Z"/><path d="M972.12,773.62h1.43l3.06,8.81h.06l3.06-8.81h1.37l-3.75,10.24h-1.51Z"/></g><g class="cls-3"><path d="M1036.17,773.62h3.15c3.53,0,5.36,2.13,5.36,5.12s-1.83,5.12-5.36,5.12h-3.15Zm1.37,1.19v7.86h1.78a3.93,3.93,0,0,0,0-7.86Z"/><path d="M1046.65,773.62H1048v10.24h-1.37Z"/><path d="M1054.92,773.45a4.13,4.13,0,0,1,4.34,3.39h-1.41a2.75,2.75,0,0,0-2.93-2.14c-2.1,0-3.51,1.66-3.51,4s1.41,4,3.45,4a2.74,2.74,0,0,0,3-2.14h1.41a4.19,4.19,0,0,1-4.4,3.39c-2.87,0-4.88-2.19-4.88-5.3S1052,773.45,1054.92,773.45Z"/></g><g class="cls-3"><path class="cls-2" d="M67.9,760.8c0-3,1-5.29,3.57-5.29S75,757.83,75,760.8s-1,5.3-3.57,5.3S67.9,763.78,67.9,760.8Zm5.77,0c0-2.62-.71-4.1-2.2-4.1s-2.2,1.48-2.2,4.1.71,4.11,2.2,4.11S73.67,763.42,73.67,760.8Z"/></g><g class="cls-3"><path class="cls-2" d="M59.69,699.66,63,697.4h1v9.11h2.44v1.13H60v-1.13h2.62V699l-2.38,1.65Z"/><path class="cls-2" d="M67.9,702.52c0-3,1-5.3,3.57-5.3s3.57,2.32,3.57,5.3-1,5.3-3.57,5.3S67.9,705.49,67.9,702.52Zm5.77,0c0-2.62-.71-4.11-2.2-4.11s-2.2,1.49-2.2,4.11.71,4.11,2.2,4.11S73.67,705.14,73.67,702.52Z"/></g><g class="cls-3"><path class="cls-2" d="M62.13,645l1.13-.77c1.05-.73,1.72-1.13,1.72-2.32a1.75,1.75,0,0,0-1.9-1.79c-1.31,0-2,.72-2.08,2.09H59.81a3,3,0,0,1,3.27-3.22,2.89,2.89,0,0,1,3.21,2.92c0,1.78-1.14,2.42-2.2,3.15l-1.13.78c-1.55,1.05-1.79,1.79-1.85,2.43h5.3v1.14H59.63A4.83,4.83,0,0,1,62.13,645Z"/><path class="cls-2" d="M67.9,644.24c0-3,1-5.3,3.57-5.3s3.57,2.32,3.57,5.3-1,5.29-3.57,5.29S67.9,647.21,67.9,644.24Zm5.77,0c0-2.62-.71-4.11-2.2-4.11s-2.2,1.49-2.2,4.11.71,4.1,2.2,4.1S73.67,646.86,73.67,644.24Z"/></g><g class="cls-3"><path class="cls-2" d="M60.76,588a2,2,0,0,0,2.2,2.14c1.28,0,2.2-.68,2.2-1.89a2,2,0,0,0-2.2-1.89h-.77v-1.13H63a1.76,1.76,0,0,0,1.84-1.77A1.67,1.67,0,0,0,63,581.79a1.71,1.71,0,0,0-1.85,1.84H59.92a3.07,3.07,0,0,1,6.13-.2,2.61,2.61,0,0,1-1.48,2.29v.06a2.61,2.61,0,0,1,1.9,2.55c0,1.84-1.56,2.92-3.51,2.92s-3.45-1.07-3.45-3.27Z"/><path class="cls-2" d="M67.9,586c0-3,1-5.29,3.57-5.29S75,583,75,586s-1,5.3-3.57,5.3S67.9,588.93,67.9,586Zm5.77,0c0-2.61-.71-4.1-2.2-4.1s-2.2,1.49-2.2,4.1.71,4.11,2.2,4.11S73.67,588.57,73.67,586Z"/></g><g class="cls-3"><path class="cls-2" d="M59.27,529.28l4.94-6.72h1.07v6.54h1.49v1.13H65.28v2.56H64v-2.56h-4.7Zm4.7-.18v-4.51l-3.36,4.51Z"/><path class="cls-2" d="M67.9,527.67c0-3,1-5.29,3.57-5.29S75,524.7,75,527.67s-1,5.3-3.57,5.3S67.9,530.65,67.9,527.67Zm5.77,0c0-2.62-.71-4.1-2.2-4.1s-2.2,1.48-2.2,4.1.71,4.11,2.2,4.11S73.67,530.29,73.67,527.67Z"/></g><g class="cls-3"><path class="cls-2" d="M60.82,471.77a2,2,0,0,0,2.2,1.79,2.24,2.24,0,0,0,0-4.47,2.47,2.47,0,0,0-2,1l-1.19-.06.29-5.78h5.78v1.19H61.35l-.18,3.22h.06a2.72,2.72,0,0,1,2-.72,3.16,3.16,0,0,1,3.33,3.28A3.32,3.32,0,0,1,63,474.69a3.17,3.17,0,0,1-3.51-2.92Z"/><path class="cls-2" d="M67.9,469.39c0-3,1-5.29,3.57-5.29S75,466.42,75,469.39s-1,5.3-3.57,5.3S67.9,472.37,67.9,469.39Zm5.77,0c0-2.62-.71-4.1-2.2-4.1s-2.2,1.48-2.2,4.1.71,4.11,2.2,4.11S73.67,472,73.67,469.39Z"/></g><g class="cls-3"><path class="cls-2" d="M63.38,405.81a2.83,2.83,0,0,1,3.09,2.74H65.16a1.64,1.64,0,0,0-1.78-1.6C62.17,407,61,408,60.88,411a2.93,2.93,0,0,1,2.62-1.36A3.09,3.09,0,0,1,66.71,413a3.31,3.31,0,0,1-3.45,3.4c-2,0-3.75-1.3-3.75-5.06C59.51,407.23,61.43,405.81,63.38,405.81ZM61.06,413a2.14,2.14,0,0,0,2.14,2.25,2.24,2.24,0,0,0,.12-4.47A2.2,2.2,0,0,0,61.06,413Z"/><path class="cls-2" d="M67.9,411.11c0-3,1-5.3,3.57-5.3s3.57,2.33,3.57,5.3-1,5.3-3.57,5.3S67.9,414.09,67.9,411.11Zm5.77,0c0-2.62-.71-4.11-2.2-4.11s-2.2,1.49-2.2,4.11.71,4.11,2.2,4.11S73.67,413.73,73.67,411.11Z"/></g><g class="cls-3"><path class="cls-2" d="M65.16,348.9H59.57v-1.19h7v1L62.25,358H60.88Z"/><path class="cls-2" d="M67.9,352.83c0-3,1-5.3,3.57-5.3s3.57,2.32,3.57,5.3-1,5.3-3.57,5.3S67.9,355.8,67.9,352.83Zm5.77,0c0-2.62-.71-4.11-2.2-4.11s-2.2,1.49-2.2,4.11.71,4.1,2.2,4.1S73.67,355.45,73.67,352.83Z"/></g><g class="cls-3"><path class="cls-2" d="M61.35,294.37v-.06A2.49,2.49,0,0,1,59.87,292c0-1.61,1.22-2.77,3.15-2.77s3.15,1.16,3.15,2.77a2.49,2.49,0,0,1-1.48,2.29v.06a2.62,2.62,0,0,1,1.9,2.56c0,1.83-1.44,2.91-3.57,2.91s-3.57-1.08-3.57-2.91A2.62,2.62,0,0,1,61.35,294.37ZM63,298.71c1.32,0,2.26-.68,2.26-1.89a2.3,2.3,0,0,0-4.52,0C60.76,298,61.7,298.71,63,298.71Zm1.9-6.68a1.92,1.92,0,0,0-3.81,0,1.91,1.91,0,0,0,3.81,0Z"/><path class="cls-2" d="M67.9,294.54c0-3,1-5.29,3.57-5.29S75,291.57,75,294.54s-1,5.3-3.57,5.3S67.9,297.52,67.9,294.54Zm5.77,0c0-2.61-.71-4.1-2.2-4.1s-2.2,1.49-2.2,4.1.71,4.11,2.2,4.11S73.67,297.16,73.67,294.54Z"/></g><g class="cls-3"><path class="cls-2" d="M62.78,241.56a2.94,2.94,0,0,1-3.21-2.74h1.31a1.79,1.79,0,0,0,1.9,1.61c1.38,0,2.32-1.06,2.38-4.08a3,3,0,0,1-2.62,1.34,3.09,3.09,0,0,1-3.21-3.33A3.3,3.3,0,0,1,62.78,231c2,0,3.75,1.29,3.75,5.06C66.53,240.15,64.91,241.56,62.78,241.56Zm2.2-7.22a2.17,2.17,0,1,0-4.34,0,2.1,2.1,0,0,0,2.08,2.2A2.19,2.19,0,0,0,65,234.34Z"/><path class="cls-2" d="M67.9,236.26c0-3,1-5.29,3.57-5.29S75,233.29,75,236.26s-1,5.3-3.57,5.3S67.9,239.24,67.9,236.26Zm5.77,0c0-2.61-.71-4.1-2.2-4.1s-2.2,1.49-2.2,4.1.71,4.11,2.2,4.11S73.67,238.88,73.67,236.26Z"/></g><g class="cls-3"><path class="cls-2" d="M51.23,175.13l3.28-2.27h1V182H58v1.13H51.59V182h2.62v-7.48l-2.38,1.65Z"/><path class="cls-2" d="M59.45,178c0-3,1-5.29,3.57-5.29S66.59,175,66.59,178s-1,5.3-3.57,5.3S59.45,181,59.45,178Zm5.77,0c0-2.62-.71-4.1-2.2-4.1s-2.2,1.48-2.2,4.1.71,4.11,2.2,4.11S65.22,180.6,65.22,178Z"/><path class="cls-2" d="M67.9,178c0-3,1-5.29,3.57-5.29S75,175,75,178s-1,5.3-3.57,5.3S67.9,181,67.9,178Zm5.77,0c0-2.62-.71-4.1-2.2-4.1s-2.2,1.48-2.2,4.1.71,4.11,2.2,4.11S73.67,180.6,73.67,178Z"/></g><g class="cls-3"><path d="M1107.23,760.8c0-3,1-5.29,3.57-5.29s3.57,2.32,3.57,5.29-1,5.3-3.57,5.3S1107.23,763.78,1107.23,760.8Zm5.77,0c0-2.62-.71-4.1-2.2-4.1s-2.2,1.48-2.2,4.1.71,4.11,2.2,4.11S1113,763.42,1113,760.8Z"/></g><g class="cls-3"><path d="M1107.47,699.66l3.27-2.26h1v9.11h2.44v1.13h-6.36v-1.13h2.61V699l-2.38,1.65Z"/><path d="M1115.68,702.52c0-3,1-5.3,3.57-5.3s3.57,2.32,3.57,5.3-1,5.3-3.57,5.3S1115.68,705.49,1115.68,702.52Zm5.78,0c0-2.62-.72-4.11-2.21-4.11s-2.2,1.49-2.2,4.11.72,4.11,2.2,4.11S1121.46,705.14,1121.46,702.52Z"/></g><g class="cls-3"><path d="M1109.91,645l1.13-.77c1.06-.73,1.72-1.13,1.72-2.32a1.75,1.75,0,0,0-1.9-1.79c-1.31,0-2,.72-2.08,2.09h-1.19a3,3,0,0,1,3.27-3.22c1.88,0,3.21,1.09,3.21,2.92s-1.14,2.42-2.2,3.15l-1.13.78c-1.55,1.05-1.78,1.79-1.84,2.43h5.29v1.14h-6.78A4.85,4.85,0,0,1,1109.91,645Z"/><path d="M1115.68,644.24c0-3,1-5.3,3.57-5.3s3.57,2.32,3.57,5.3-1,5.29-3.57,5.29S1115.68,647.21,1115.68,644.24Zm5.78,0c0-2.62-.72-4.11-2.21-4.11s-2.2,1.49-2.2,4.11.72,4.1,2.2,4.1S1121.46,646.86,1121.46,644.24Z"/></g><g class="cls-3"><path d="M1108.54,588a2,2,0,0,0,2.2,2.14c1.28,0,2.2-.68,2.2-1.89a2,2,0,0,0-2.2-1.89H1110v-1.13h.77a1.77,1.77,0,0,0,1.85-1.77,1.67,1.67,0,0,0-1.85-1.65,1.7,1.7,0,0,0-1.84,1.84h-1.19a3.07,3.07,0,0,1,6.13-.2,2.62,2.62,0,0,1-1.49,2.29v.06a2.61,2.61,0,0,1,1.9,2.55c0,1.84-1.56,2.92-3.51,2.92s-3.45-1.07-3.45-3.27Z"/><path d="M1115.68,586c0-3,1-5.29,3.57-5.29s3.57,2.32,3.57,5.29-1,5.3-3.57,5.3S1115.68,588.93,1115.68,586Zm5.78,0c0-2.61-.72-4.1-2.21-4.1s-2.2,1.49-2.2,4.1.72,4.11,2.2,4.11S1121.46,588.57,1121.46,586Z"/></g><g class="cls-3"><path d="M1107.05,529.28l4.94-6.72h1.07v6.54h1.49v1.13h-1.49v2.56h-1.31v-2.56h-4.7Zm4.7-.18v-4.51l-3.36,4.51Z"/><path d="M1115.68,527.67c0-3,1-5.29,3.57-5.29s3.57,2.32,3.57,5.29-1,5.3-3.57,5.3S1115.68,530.65,1115.68,527.67Zm5.78,0c0-2.62-.72-4.1-2.21-4.1s-2.2,1.48-2.2,4.1.72,4.11,2.2,4.11S1121.46,530.29,1121.46,527.67Z"/></g><g class="cls-3"><path d="M1108.6,471.77a2,2,0,0,0,2.2,1.79,2.24,2.24,0,0,0,0-4.47,2.47,2.47,0,0,0-2,1l-1.19-.06.29-5.78h5.78v1.19h-4.58l-.18,3.22h.06a2.67,2.67,0,0,1,2-.72,3.16,3.16,0,0,1,3.33,3.28,3.32,3.32,0,0,1-3.51,3.45,3.17,3.17,0,0,1-3.51-2.92Z"/><path d="M1115.68,469.39c0-3,1-5.29,3.57-5.29s3.57,2.32,3.57,5.29-1,5.3-3.57,5.3S1115.68,472.37,1115.68,469.39Zm5.78,0c0-2.62-.72-4.1-2.21-4.1s-2.2,1.48-2.2,4.1.72,4.11,2.2,4.11S1121.46,472,1121.46,469.39Z"/></g><g class="cls-3"><path d="M1111.16,405.81a2.83,2.83,0,0,1,3.09,2.74h-1.31a1.64,1.64,0,0,0-1.78-1.6c-1.21,0-2.43,1.05-2.5,4.09a3,3,0,0,1,2.62-1.36,3.09,3.09,0,0,1,3.21,3.33,3.31,3.31,0,0,1-3.45,3.4c-2,0-3.75-1.3-3.75-5.06C1107.29,407.23,1109.21,405.81,1111.16,405.81Zm-2.32,7.22a2.14,2.14,0,0,0,2.14,2.25,2.24,2.24,0,0,0,.12-4.47A2.2,2.2,0,0,0,1108.84,413Z"/><path d="M1115.68,411.11c0-3,1-5.3,3.57-5.3s3.57,2.33,3.57,5.3-1,5.3-3.57,5.3S1115.68,414.09,1115.68,411.11Zm5.78,0c0-2.62-.72-4.11-2.21-4.11s-2.2,1.49-2.2,4.11.72,4.11,2.2,4.11S1121.46,413.73,1121.46,411.11Z"/></g><g class="cls-3"><path d="M1112.94,348.9h-5.59v-1.19h7v1L1110,358h-1.37Z"/><path d="M1115.68,352.83c0-3,1-5.3,3.57-5.3s3.57,2.32,3.57,5.3-1,5.3-3.57,5.3S1115.68,355.8,1115.68,352.83Zm5.78,0c0-2.62-.72-4.11-2.21-4.11s-2.2,1.49-2.2,4.11.72,4.1,2.2,4.1S1121.46,355.45,1121.46,352.83Z"/></g><g class="cls-3"><path d="M1109.14,294.37v-.06a2.48,2.48,0,0,1-1.49-2.29c0-1.61,1.22-2.77,3.15-2.77s3.16,1.16,3.16,2.77a2.5,2.5,0,0,1-1.49,2.29v.06a2.62,2.62,0,0,1,1.9,2.56c0,1.83-1.44,2.91-3.57,2.91s-3.57-1.08-3.57-2.91A2.61,2.61,0,0,1,1109.14,294.37Zm1.66,4.34c1.33,0,2.26-.68,2.26-1.89a2.3,2.3,0,0,0-4.52,0C1108.54,298,1109.48,298.71,1110.8,298.71Zm1.91-6.68a1.92,1.92,0,0,0-3.81,0,1.91,1.91,0,0,0,3.81,0Z"/><path d="M1115.68,294.54c0-3,1-5.29,3.57-5.29s3.57,2.32,3.57,5.29-1,5.3-3.57,5.3S1115.68,297.52,1115.68,294.54Zm5.78,0c0-2.61-.72-4.1-2.21-4.1s-2.2,1.49-2.2,4.1.72,4.11,2.2,4.11S1121.46,297.16,1121.46,294.54Z"/></g><g class="cls-3"><path d="M1110.56,241.56a2.94,2.94,0,0,1-3.21-2.74h1.31a1.79,1.79,0,0,0,1.9,1.61c1.39,0,2.32-1.06,2.38-4.08a3,3,0,0,1-2.62,1.34,3.09,3.09,0,0,1-3.21-3.33,3.3,3.3,0,0,1,3.45-3.39c2,0,3.75,1.29,3.75,5.06C1114.31,240.15,1112.69,241.56,1110.56,241.56Zm2.2-7.22a2.17,2.17,0,1,0-4.34,0,2.1,2.1,0,0,0,2.08,2.2A2.19,2.19,0,0,0,1112.76,234.34Z"/><path d="M1115.68,236.26c0-3,1-5.29,3.57-5.29s3.57,2.32,3.57,5.29-1,5.3-3.57,5.3S1115.68,239.24,1115.68,236.26Zm5.78,0c0-2.61-.72-4.1-2.21-4.1s-2.2,1.49-2.2,4.1.72,4.11,2.2,4.11S1121.46,238.88,1121.46,236.26Z"/></g><g class="cls-3"><path d="M1107.47,175.13l3.27-2.27h1V182h2.44v1.13h-6.36V182h2.61v-7.48l-2.38,1.65Z"/><path d="M1115.68,178c0-3,1-5.29,3.57-5.29s3.57,2.32,3.57,5.29-1,5.3-3.57,5.3S1115.68,181,1115.68,178Zm5.78,0c0-2.62-.72-4.1-2.21-4.1s-2.2,1.48-2.2,4.1.72,4.11,2.2,4.11S1121.46,180.6,1121.46,178Z"/><path d="M1124.14,178c0-3,1-5.29,3.57-5.29s3.57,2.32,3.57,5.29-1,5.3-3.57,5.3S1124.14,181,1124.14,178Zm5.77,0c0-2.62-.72-4.1-2.2-4.1s-2.21,1.48-2.21,4.1.72,4.11,2.21,4.11S1129.91,180.6,1129.91,178Z"/></g><circle cx="101.68" cy="539.6" r="2.97"/><circle cx="107.13" cy="481.32" r="2.97"/><circle cx="109.86" cy="498.8" r="2.97"/><circle cx="128.94" cy="475.49" r="2.97"/><circle cx="131.66" cy="638.68" r="2.97"/><circle cx="134.39" cy="615.37" r="2.97"/><circle cx="137.11" cy="726.1" r="2.97"/><circle cx="139.84" cy="667.82" r="2.97"/><circle cx="142.56" cy="586.23" r="2.97"/><circle cx="145.29" cy="498.8" r="2.97"/><circle cx="148.01" cy="539.6" r="2.97"/><circle cx="150.74" cy="615.37" r="2.97"/><circle cx="153.46" cy="615.37" r="2.97"/><circle cx="156.19" cy="492.97" r="2.97"/><circle cx="158.91" cy="539.6" r="2.97"/><circle cx="161.64" cy="516.29" r="2.97"/><circle cx="180.72" cy="551.26" r="2.97"/><circle cx="183.44" cy="627.02" r="2.97"/><circle cx="186.17" cy="656.16" r="2.97"/><circle cx="188.89" cy="586.23" r="2.97"/><circle cx="194.34" cy="527.94" r="2.97"/><circle cx="197.07" cy="533.77" r="2.97"/><circle cx="199.8" cy="527.94" r="2.97"/><circle cx="202.52" cy="574.57" r="2.97"/><circle cx="205.25" cy="562.91" r="2.97"/><circle cx="207.97" cy="656.16" r="2.97"/><circle cx="210.7" cy="574.57" r="2.97"/><circle cx="224.32" cy="510.46" r="2.97"/><circle cx="235.23" cy="661.99" r="2.97"/><circle cx="237.95" cy="638.68" r="2.97"/><circle cx="240.68" cy="557.08" r="2.97"/><circle cx="243.4" cy="603.71" r="2.97"/><circle cx="248.85" cy="551.26" r="2.97"/><circle cx="251.58" cy="551.26" r="2.97"/><circle cx="254.3" cy="522.12" r="2.97"/><circle cx="273.38" cy="562.91" r="2.97"/><circle cx="278.83" cy="632.85" r="2.97"/><circle cx="281.56" cy="696.96" r="2.97"/><circle cx="284.28" cy="621.2" r="2.97"/><circle cx="287.01" cy="551.26" r="2.97"/><circle cx="289.73" cy="661.99" r="2.97"/><circle cx="292.46" cy="661.99" r="2.97"/><circle cx="295.18" cy="551.26" r="2.97"/><circle cx="303.36" cy="627.02" r="2.97"/><circle cx="306.09" cy="632.85" r="2.97"/><circle cx="308.81" cy="568.74" r="2.97"/><circle cx="311.54" cy="592.05" r="2.97"/><circle cx="314.26" cy="522.12" r="2.97"/><circle cx="319.71" cy="627.02" r="2.97"/><circle cx="322.44" cy="632.85" r="2.97"/><circle cx="325.16" cy="527.94" r="2.97"/><circle cx="336.06" cy="592.05" r="2.97"/><circle cx="338.79" cy="702.79" r="2.97"/><circle cx="341.52" cy="656.16" r="2.97"/><circle cx="344.24" cy="615.37" r="2.97"/><circle cx="346.97" cy="557.08" r="2.97"/><circle cx="349.69" cy="557.08" r="2.97"/><circle cx="352.42" cy="644.51" r="2.97"/><circle cx="355.14" cy="557.08" r="2.97"/><circle cx="357.87" cy="580.4" r="2.97"/><circle cx="360.59" cy="516.29" r="2.97"/><circle cx="363.32" cy="498.8" r="2.97"/><circle cx="366.04" cy="487.15" r="2.97"/><circle cx="368.77" cy="533.77" r="2.97"/><circle cx="371.49" cy="615.37" r="2.97"/><circle cx="374.22" cy="580.4" r="2.97"/><circle cx="376.95" cy="580.4" r="2.97"/><circle cx="379.67" cy="475.49" r="2.97"/><circle cx="382.4" cy="510.46" r="2.97"/><circle cx="385.12" cy="539.6" r="2.97"/><circle cx="387.85" cy="516.29" r="2.97"/><circle cx="390.57" cy="516.29" r="2.97"/><circle cx="393.3" cy="498.8" r="2.97"/><circle cx="396.02" cy="603.71" r="2.97"/><circle cx="398.75" cy="644.51" r="2.97"/><circle cx="401.47" cy="568.74" r="2.97"/><circle cx="404.2" cy="568.74" r="2.97"/><circle cx="406.92" cy="586.23" r="2.97"/><circle cx="409.65" cy="557.08" r="2.97"/><circle cx="412.38" cy="533.77" r="2.97"/><circle cx="415.1" cy="661.99" r="2.97"/><circle cx="417.83" cy="475.49" r="2.97"/><circle cx="434.18" cy="527.94" r="2.97"/><circle cx="436.9" cy="603.71" r="2.97"/><circle cx="439.63" cy="592.05" r="2.97"/><circle cx="442.35" cy="574.57" r="2.97"/><circle cx="445.08" cy="621.2" r="2.97"/><circle cx="447.81" cy="592.05" r="2.97"/><circle cx="450.53" cy="621.2" r="2.97"/><circle cx="453.26" cy="644.51" r="2.97"/><circle cx="455.98" cy="638.68" r="2.97"/><circle cx="458.71" cy="597.88" r="2.97"/><circle cx="461.43" cy="586.23" r="2.97"/><circle cx="466.88" cy="621.2" r="2.97"/><circle cx="469.61" cy="632.85" r="2.97"/><circle cx="472.33" cy="656.16" r="2.97"/><circle cx="475.06" cy="656.16" r="2.97"/><circle cx="477.78" cy="696.96" r="2.97"/><circle cx="480.51" cy="656.16" r="2.97"/><circle cx="483.24" cy="667.82" r="2.97"/><circle cx="485.96" cy="702.79" r="2.97"/><circle cx="488.69" cy="691.13" r="2.97"/><circle cx="491.41" cy="691.13" r="2.97"/><circle cx="494.14" cy="661.99" r="2.97"/><circle cx="496.86" cy="661.99" r="2.97"/><circle cx="499.59" cy="714.45" r="2.97"/><circle cx="502.31" cy="720.28" r="2.97"/><circle cx="505.04" cy="702.79" r="2.97"/><circle cx="507.76" cy="644.51" r="2.97"/><circle cx="510.49" cy="592.05" r="2.97"/><circle cx="513.21" cy="650.34" r="2.97" transform="translate(-171.87 1116.16) rotate(-85.93)"/><circle cx="515.94" cy="656.16" r="2.97"/><circle cx="518.67" cy="644.51" r="2.97"/><circle cx="521.39" cy="656.16" r="2.97"/><circle cx="524.12" cy="667.82" r="2.97"/><circle cx="526.84" cy="679.48" r="2.97"/><circle cx="529.57" cy="685.31" r="2.97"/><circle cx="532.29" cy="696.96" r="2.97"/><circle cx="535.02" cy="667.82" r="2.97"/><circle cx="537.74" cy="615.37" r="2.97"/><circle cx="540.47" cy="638.68" r="2.97"/><circle cx="543.19" cy="632.85" r="2.97"/><circle cx="545.92" cy="650.34" r="2.97"/><circle cx="548.64" cy="661.99" r="2.97"/><circle cx="551.37" cy="650.34" r="2.97"/><circle cx="556.82" cy="562.91" r="2.97"/><circle cx="559.55" cy="627.02" r="2.97"/><circle cx="562.27" cy="644.51" r="2.97"/><circle cx="565" cy="673.65" r="2.97"/><circle cx="567.72" cy="696.96" r="2.97"/><circle cx="570.45" cy="673.65" r="2.97"/><circle cx="573.17" cy="685.31" r="2.97"/><circle cx="575.9" cy="661.99" r="2.97"/><circle cx="578.62" cy="656.16" r="2.97"/><circle cx="581.35" cy="650.34" r="2.97"/><circle cx="584.07" cy="656.16" r="2.97"/><circle cx="586.8" cy="679.48" r="2.97" transform="translate(-95.06 1263.51) rotate(-89.77)"/><circle cx="589.53" cy="656.16" r="2.97"/><circle cx="592.25" cy="679.48" r="2.97"/><circle cx="594.98" cy="691.13" r="2.97"/><circle cx="597.7" cy="638.68" r="2.97" transform="translate(-2.63 2.48) rotate(-0.24)"/><circle cx="600.43" cy="609.54" r="2.97"/><circle cx="603.15" cy="638.68" r="2.97"/><circle cx="605.88" cy="627.02" r="2.97"/><circle cx="608.6" cy="621.2" r="2.97"/><circle cx="611.33" cy="597.88" r="2.97"/><circle cx="614.05" cy="592.05" r="2.97"/><circle cx="616.78" cy="545.43" r="2.97"/><circle cx="619.5" cy="597.88" r="2.97"/><circle cx="622.23" cy="562.91" r="2.97"/><circle cx="624.96" cy="650.34" r="2.97"/><circle cx="627.68" cy="609.54" r="2.97"/><circle cx="630.41" cy="580.4" r="2.97"/><circle cx="633.13" cy="597.88" r="2.97"/><circle cx="635.86" cy="615.37" r="2.97"/><circle cx="638.58" cy="615.37" r="2.97"/><circle cx="641.31" cy="615.37" r="2.97"/><circle cx="644.03" cy="603.71" r="2.97"/><circle cx="652.21" cy="557.08" r="2.97"/><circle cx="654.93" cy="568.74" r="2.97"/><circle cx="657.66" cy="510.46" r="2.97"/><circle cx="660.39" cy="592.05" r="2.97"/><circle cx="663.11" cy="644.51" r="2.97"/><circle cx="665.84" cy="527.94" r="2.97"/><circle cx="668.56" cy="679.48" r="2.97"/><circle cx="671.29" cy="656.16" r="2.97"/><circle cx="674.01" cy="650.34" r="2.97"/><circle cx="676.74" cy="650.34" r="2.97"/><circle cx="679.46" cy="632.85" r="2.97"/><circle cx="682.19" cy="673.65" r="2.97"/><circle cx="684.91" cy="621.2" r="2.97"/><circle cx="687.64" cy="615.37" r="2.97"/><circle cx="690.36" cy="597.88" r="2.97"/><circle cx="693.09" cy="545.43" r="2.97"/><circle cx="695.82" cy="650.34" r="2.97"/><circle cx="698.54" cy="656.16" r="2.97"/><circle cx="701.27" cy="667.82" r="2.97"/><circle cx="703.99" cy="661.99" r="2.97"/><circle cx="706.72" cy="667.82" r="2.97"/><circle cx="709.44" cy="632.85" r="2.97"/><circle cx="712.17" cy="667.82" r="2.97"/><circle cx="714.89" cy="661.99" r="2.97"/><circle cx="717.62" cy="656.16" r="2.97"/><circle cx="720.34" cy="673.65" r="2.97"/><circle cx="723.07" cy="661.99" r="2.97"/><circle cx="725.79" cy="708.62" r="2.97"/><circle cx="728.52" cy="685.31" r="2.97"/><circle cx="731.25" cy="638.68" r="2.97"/><circle cx="733.97" cy="627.02" r="2.97"/><circle cx="736.7" cy="656.16" r="2.97"/><circle cx="739.42" cy="702.79" r="2.97"/><circle cx="742.15" cy="667.82" r="2.97"/><circle cx="744.87" cy="644.51" r="2.97"/><circle cx="747.6" cy="644.51" r="2.97"/><circle cx="750.32" cy="650.34" r="2.97"/><circle cx="753.05" cy="644.51" r="2.97"/><circle cx="755.77" cy="650.34" r="2.97"/><circle cx="758.5" cy="644.51" r="2.97"/><circle cx="761.22" cy="632.85" r="2.97"/><circle cx="763.95" cy="621.2" r="2.97"/><circle cx="766.68" cy="603.71" r="2.97"/><circle cx="769.4" cy="627.02" r="2.97"/><circle cx="772.13" cy="603.71" r="2.97"/><circle cx="774.85" cy="615.37" r="2.97"/><circle cx="777.58" cy="650.34" r="2.97"/><circle cx="780.3" cy="656.16" r="2.97"/><circle cx="783.03" cy="644.51" r="2.97"/><circle cx="785.75" cy="656.16" r="2.97"/><circle cx="788.48" cy="638.68" r="2.97"/><circle cx="791.2" cy="656.16" r="2.97"/><circle cx="793.93" cy="650.34" r="2.97"/><circle cx="796.65" cy="673.65" r="2.97"/><circle cx="799.38" cy="702.79" r="2.97"/><circle cx="802.11" cy="702.79" r="2.97"/><circle cx="804.83" cy="644.51" r="2.97"/><circle cx="807.56" cy="568.74" r="2.97"/><circle cx="810.28" cy="574.57" r="2.97"/><circle cx="813.01" cy="574.57" r="2.97"/><circle cx="815.73" cy="644.51" r="2.97"/><circle cx="818.46" cy="574.57" r="2.97"/><circle cx="821.18" cy="632.85" r="2.97"/><circle cx="823.91" cy="650.34" r="2.97"/><circle cx="826.63" cy="644.51" r="2.97"/><circle cx="829.36" cy="632.85" r="2.97"/><circle cx="832.08" cy="603.71" r="2.97"/><circle cx="834.81" cy="685.31" r="2.97"/><circle cx="837.54" cy="679.48" r="2.97"/><circle cx="840.26" cy="673.65" r="2.97"/><circle cx="842.99" cy="586.23" r="2.97"/><circle cx="845.71" cy="551.26" r="2.97"/><circle cx="848.44" cy="557.08" r="2.97"/><circle cx="851.16" cy="574.57" r="2.97"/><circle cx="853.89" cy="673.65" r="2.97"/><circle cx="856.61" cy="638.68" r="2.97"/><circle cx="864.79" cy="685.31" r="2.97"/><circle cx="867.51" cy="714.45" r="2.97"/><circle cx="870.24" cy="667.82" r="2.97"/><circle cx="872.97" cy="627.02" r="2.97"/><circle cx="875.69" cy="516.29" r="2.97"/><circle cx="881.14" cy="522.12" r="2.97"/><circle cx="883.87" cy="545.43" r="2.97"/><circle cx="900.22" cy="586.23" r="2.97"/><circle cx="902.94" cy="627.02" r="2.97"/><circle cx="911.12" cy="597.88" r="2.97"/><circle cx="913.85" cy="609.54" r="2.97"/><circle cx="916.57" cy="586.23" r="2.97"/><circle cx="919.3" cy="492.97" r="2.97"/><circle cx="922.02" cy="621.2" r="2.97"/><circle cx="924.75" cy="597.88" r="2.97"/><circle cx="932.92" cy="545.43" r="2.97"/><circle cx="935.65" cy="597.88" r="2.97"/><circle cx="938.37" cy="592.05" r="2.97"/><circle cx="946.55" cy="492.97" r="2.97"/><circle cx="949.28" cy="597.88" r="2.97"/><circle cx="952" cy="644.51" r="2.97"/><circle cx="954.73" cy="592.05" r="2.97"/><circle cx="957.45" cy="545.43" r="2.97"/><circle cx="960.18" cy="557.08" r="2.97"/><circle cx="962.9" cy="661.99" r="2.97"/><circle cx="965.63" cy="609.54" r="2.97"/><circle cx="968.35" cy="522.12" r="2.97"/><circle cx="973.8" cy="533.77" r="2.97"/><circle cx="976.53" cy="661.99" r="2.97"/><circle cx="979.26" cy="749.42" r="2.97"/><circle cx="981.98" cy="661.99" r="2.97"/><circle cx="984.71" cy="673.65" r="2.97"/><circle cx="987.43" cy="627.02" r="2.97"/><circle cx="990.16" cy="615.37" r="2.97"/><circle cx="992.88" cy="574.57" r="2.97"/><circle cx="995.61" cy="568.74" r="2.97"/><circle cx="998.33" cy="539.6" r="2.97"/><circle cx="1001.06" cy="545.43" r="2.97"/><circle cx="1006.51" cy="492.97" r="2.97"/><circle cx="1009.23" cy="527.94" r="2.97"/><circle cx="1011.96" cy="557.08" r="2.97"/><circle cx="1014.69" cy="551.26" r="2.97"/><circle cx="1017.41" cy="539.6" r="2.97"/><circle cx="1069.19" cy="603.71" r="2.97"/><circle cx="1071.92" cy="731.93" r="2.97"/><circle cx="1074.64" cy="743.59" r="2.97"/><circle cx="1077.37" cy="667.82" r="2.97"/><circle cx="1080.09" cy="632.85" r="2.97"/><circle cx="1082.82" cy="580.4" r="2.97"/><circle cx="1085.55" cy="586.23" r="2.97"/><circle cx="1088.27" cy="609.54" r="2.97"/><circle class="cls-4" cx="98.96" cy="353.1" r="2.97"/><circle class="cls-4" cx="104.41" cy="393.89" r="2.97"/><circle class="cls-4" cx="112.58" cy="335.61" r="2.97"/><circle class="cls-4" cx="115.31" cy="370.58" r="2.97"/><circle class="cls-4" cx="118.03" cy="382.24" r="2.97"/><circle class="cls-4" cx="120.76" cy="440.52" r="2.97"/><circle class="cls-4" cx="96.23" cy="440.52" r="2.97"/><circle class="cls-4" cx="123.48" cy="434.69" r="2.97"/><circle class="cls-4" cx="126.21" cy="446.35" r="2.97"/><circle class="cls-4" cx="164.37" cy="463.83" r="2.97"/><circle class="cls-4" cx="167.09" cy="463.83" r="2.97"/><circle class="cls-4" cx="169.82" cy="335.61" r="2.97"/><circle class="cls-4" cx="172.54" cy="458.01" r="2.97"/><circle class="cls-4" cx="175.27" cy="452.18" r="2.97"/><circle class="cls-4" cx="177.99" cy="458.01" r="2.97"/><circle class="cls-4" cx="191.62" cy="364.75" r="2.97"/><circle class="cls-4" cx="213.42" cy="411.38" r="2.97"/><circle class="cls-4" cx="216.15" cy="463.83" r="2.97"/><circle class="cls-4" cx="218.87" cy="341.44" r="2.97"/><circle class="cls-4" cx="221.6" cy="405.55" r="2.97"/><circle class="cls-4" cx="227.05" cy="446.35" r="2.97"/><circle class="cls-4" cx="229.77" cy="446.35" r="2.97"/><circle class="cls-4" cx="232.5" cy="347.27" r="2.97"/><circle class="cls-4" cx="246.13" cy="370.58" r="2.97"/><circle class="cls-4" cx="276.11" cy="469.66" r="2.97"/><circle class="cls-4" cx="297.91" cy="469.66" r="2.97"/><circle class="cls-4" cx="300.63" cy="469.66" r="2.97"/><circle class="cls-4" cx="316.99" cy="434.69" r="2.97"/><circle class="cls-4" cx="327.89" cy="428.86" r="2.97"/><circle class="cls-4" cx="330.61" cy="405.55" r="2.97"/><circle class="cls-4" cx="333.34" cy="364.75" r="2.97"/><circle class="cls-4" cx="420.55" cy="341.44" r="2.97"/><circle class="cls-4" cx="423.28" cy="370.58" r="2.97"/><circle class="cls-4" cx="426" cy="329.78" r="2.97"/><circle class="cls-4" cx="428.73" cy="347.27" r="2.97"/><circle class="cls-4" cx="431.45" cy="423.04" r="2.97"/><circle class="cls-4" cx="859.34" cy="469.66" r="2.97"/><circle class="cls-4" cx="862.06" cy="440.52" r="2.97"/><circle class="cls-4" cx="878.42" cy="463.83" r="2.97"/><circle class="cls-4" cx="886.59" cy="388.07" r="2.97"/><circle class="cls-4" cx="889.32" cy="254.02" r="2.97"/><circle class="cls-4" cx="892.04" cy="248.19" r="2.97"/><circle class="cls-4" cx="894.77" cy="399.72" r="2.97"/><circle class="cls-4" cx="897.49" cy="417.21" r="2.97"/><circle class="cls-4" cx="905.67" cy="463.83" r="2.97"/><circle class="cls-4" cx="908.4" cy="446.35" r="2.97"/><circle class="cls-4" cx="927.47" cy="452.18" r="2.97"/><circle class="cls-4" cx="930.2" cy="434.69" r="2.97"/><circle class="cls-4" cx="941.1" cy="434.69" r="2.97"/><circle class="cls-4" cx="943.83" cy="405.55" r="2.97"/><circle class="cls-4" cx="971.08" cy="469.66" r="2.97"/><circle class="cls-4" cx="1003.78" cy="417.21" r="2.97"/><circle class="cls-4" cx="1020.14" cy="434.69" r="2.97"/><circle class="cls-4" cx="1022.86" cy="446.35" r="2.97"/><circle class="cls-4" cx="1025.59" cy="411.38" r="2.97"/><circle class="cls-4" cx="1028.31" cy="312.3" r="2.97"/><circle class="cls-4" cx="1031.04" cy="294.81" r="2.97"/><circle class="cls-4" cx="1055.57" cy="312.3" r="2.97"/><circle class="cls-4" cx="1058.29" cy="201.56" r="2.97"/><circle class="cls-4" cx="1061.02" cy="376.41" r="2.97"/><circle class="cls-4" cx="1063.74" cy="399.72" r="2.97"/><circle class="cls-4" cx="1066.47" cy="434.69" r="2.97"/><path d="M1104.52,124.3h1.57v1.34h.07a2.86,2.86,0,0,1,2.75-1.56,2.79,2.79,0,0,1,2.83,1.84,3,3,0,0,1,3-1.84c1.71,0,3.13,1,3.13,3.64v5.66h-1.64v-5.44c0-1.78-.6-2.45-1.86-2.45s-2.38,1.21-2.38,3.16v4.73h-1.64v-5.44c0-1.78-.67-2.45-1.86-2.45s-2.38,1.21-2.38,3.18v4.71h-1.64Z"/><path d="M1120.59,124.3h1.57v1.34h.07a2.86,2.86,0,0,1,2.75-1.56,2.79,2.79,0,0,1,2.83,1.84,3,3,0,0,1,3-1.84c1.71,0,3.13,1,3.13,3.64v5.66h-1.64v-5.44c0-1.78-.6-2.45-1.86-2.45s-2.38,1.21-2.38,3.16v4.73h-1.64v-5.44c0-1.78-.67-2.45-1.86-2.45s-2.38,1.21-2.38,3.18v4.71h-1.64Z"/><path d="M287.3,180.36c0,1.06.91,1.79,2.38,1.79s2.44-.64,2.44-1.73c0-2.53-6.32-.52-6.32-4.52,0-1.76,1.52-3,3.9-3s3.84,1.12,3.84,2.93h-1.66c0-1-.93-1.62-2.18-1.62s-2.22.54-2.22,1.56c0,2.52,6.37.48,6.37,4.56,0,1.89-1.52,3.17-4.17,3.17s-4-1.22-4-3.1Z"/><path d="M297.33,186.55h-1.61V176h1.55v1.08h.06a2.51,2.51,0,0,1,2.41-1.26c1.83,0,3.24,1.34,3.24,3.75s-1.5,3.87-3.36,3.87a2.36,2.36,0,0,1-2.29-1.27h-.06c.06.95.06,1.95.06,2.44Zm2-9.42c-1.1,0-1.94.88-2,2.4v.12c0,1.59.86,2.51,2,2.51s2-1,2-2.57S300.47,177.13,299.32,177.13Z"/><path d="M307.84,175.84a3.21,3.21,0,0,1,3.39,3.54v.53h-5.34c.09,1.42.85,2.28,2,2.28a1.57,1.57,0,0,0,1.68-1.12h1.57a3.07,3.07,0,0,1-3.27,2.39c-2.32,0-3.64-1.42-3.64-3.8A3.54,3.54,0,0,1,307.84,175.84Zm-1.88,3h3.63c-.13-1.21-.74-1.74-1.75-1.74A1.93,1.93,0,0,0,306,178.83Z"/><path d="M314.22,184.17c0,.8.77,1.29,1.83,1.29,1.29,0,2.17-.65,2.17-2.56v-.71h-.06a2.5,2.5,0,0,1-2.41,1.27c-1.83,0-3.24-1.34-3.24-3.75s1.5-3.87,3.36-3.87a2.35,2.35,0,0,1,2.29,1.26h.06V176h1.53v6.88c0,2.74-1.57,3.77-3.7,3.77-1.93,0-3.32-.84-3.35-2.5Zm1.93-2c1.15,0,2-.92,2-2.51v-.12c0-1.52-.88-2.4-2-2.4s-2,1-2,2.58S315,182.16,316.15,182.16Z"/><path d="M321.94,176h1.55v1h.06a2.32,2.32,0,0,1,2.25-1.23c1.44,0,2.72.77,2.72,3v4.41h-1.61v-4.2c0-1.44-.61-1.93-1.54-1.93s-1.82.87-1.82,2.33v3.8h-1.61Z"/><path d="M330.53,172.39h1.72V174h-1.72Zm.06,3.63h1.61v7.26h-1.61Z"/><path d="M334.38,176h1.55v1H336a2.58,2.58,0,0,1,4.51.21,2.48,2.48,0,0,1,2.44-1.44c1.41,0,2.57.77,2.57,2.94v4.5H343.9V179c0-1.36-.47-1.83-1.39-1.83s-1.76.86-1.76,2.3v3.83h-1.61V179c0-1.36-.52-1.83-1.39-1.83S336,178,336,179.47v3.81h-1.61Z"/><path d="M350.66,175.84a3.21,3.21,0,0,1,3.39,3.54v.53h-5.34c.09,1.42.85,2.28,2,2.28a1.57,1.57,0,0,0,1.68-1.12H354a3.08,3.08,0,0,1-3.27,2.39c-2.32,0-3.65-1.42-3.65-3.8A3.55,3.55,0,0,1,350.66,175.84Zm-1.87,3h3.63c-.14-1.21-.75-1.74-1.76-1.74A1.92,1.92,0,0,0,348.79,178.83Z"/><path d="M355.68,176h1.54v1h.06a2.32,2.32,0,0,1,2.25-1.23c1.44,0,2.72.77,2.72,3v4.41h-1.6v-4.2c0-1.44-.61-1.93-1.55-1.93s-1.82.87-1.82,2.33v3.8h-1.6Z"/><path d="M364.47,177.27H363.1V176h1.37v-2.21h1.61V176h1.86v1.25h-1.86v3.6c0,.77.27,1.07,1,1.07h.85v1.34h-1.12c-1.66,0-2.35-.7-2.35-2.32Z"/><path d="M372.58,175.84a3.49,3.49,0,0,1,3.7,3.81,3.55,3.55,0,0,1-3.7,3.81,3.5,3.5,0,0,1-3.7-3.81A3.56,3.56,0,0,1,372.58,175.84Zm0,6.32c1.22,0,2-1,2-2.51s-.82-2.52-2-2.52-2,1-2,2.52S371.36,182.16,372.58,182.16Z"/><path d="M285.93,194.62h1.55v1h0a2,2,0,0,1,1.91-1.23,1.69,1.69,0,0,1,1,.3l-.42,1.42a2,2,0,0,0-.89-.23c-1.09,0-1.61,1-1.61,2.32v3.63h-1.61Z"/><path d="M291.48,191h1.73v1.63h-1.73Zm.06,3.63h1.61v7.26h-1.61Z"/><path d="M296.33,199.79c0,.81.82,1.13,1.61,1.13,1.12,0,1.67-.38,1.67-1s-.37-.76-1.1-.88l-1.34-.24c-1.12-.18-2.19-.62-2.19-2s1.32-2.32,3-2.32,3,.68,3,2.2h-1.5c0-.71-.64-1.07-1.5-1.07s-1.49.36-1.49,1,.34.74,1.2.89l1.34.22c1.15.2,2.14.64,2.14,2,0,1.6-1.34,2.39-3.27,2.39s-3.14-.75-3.14-2.27Z"/><path d="M306,194.44a3,3,0,0,1,3.3,2.66h-1.59a1.6,1.6,0,0,0-1.71-1.37c-1.13,0-1.95,1-1.95,2.52s.82,2.51,1.95,2.51a1.58,1.58,0,0,0,1.71-1.37h1.59a3,3,0,0,1-3.3,2.67c-2.24,0-3.62-1.43-3.62-3.81A3.52,3.52,0,0,1,306,194.44Z"/><path d="M313,197.8l1.41-.24c.71-.12.94-.21.94-.49a1.28,1.28,0,0,0-1.43-1.43,1.35,1.35,0,0,0-1.53,1.28h-1.54c.09-1.5,1.25-2.48,3.07-2.48,2,0,3,1,3,2.66v4.78h-1.53V201h-.07a2.61,2.61,0,0,1-2.33,1.09c-1.59,0-2.45-.82-2.45-2S311.27,198.08,313,197.8Zm2.35.43a1.22,1.22,0,0,1-.75.34l-1.25.21c-.85.14-1.17.51-1.17,1.07s.41,1,1.23,1a1.83,1.83,0,0,0,1.94-1.95Z"/><path d="M319,191h1.6v10.89H319Z"/><path d="M325.68,194.44A2.37,2.37,0,0,1,328,195.7H328c-.08-.95-.08-1.95-.08-2.44V191h1.61v10.89H328v-1.09H328a2.51,2.51,0,0,1-2.41,1.27c-1.83,0-3.24-1.34-3.24-3.75S323.82,194.44,325.68,194.44Zm.28,6.32c1.15,0,2-.92,2-2.51s-.84-2.52-2-2.52-2,1-2,2.58S324.83,200.76,326,200.76Z"/><path d="M333.76,197.8l1.41-.24c.72-.12.94-.21.94-.49a1.27,1.27,0,0,0-1.43-1.43,1.35,1.35,0,0,0-1.53,1.28h-1.53c.08-1.5,1.25-2.48,3.06-2.48,2,0,3,1,3,2.66v4.78h-1.54V201h-.07a2.6,2.6,0,0,1-2.32,1.09c-1.59,0-2.46-.82-2.46-2S332.05,198.08,333.76,197.8Zm2.35.43a1.2,1.2,0,0,1-.75.34l-1.24.21c-.85.14-1.18.51-1.18,1.07s.42,1,1.23,1a1.83,1.83,0,0,0,1.94-1.95Z"/><path d="M339.8,194.62h1.55v1h.06a2.57,2.57,0,0,1,4.5.21,2.49,2.49,0,0,1,2.44-1.44c1.42,0,2.58.77,2.58,2.94v4.5h-1.61v-4.3c0-1.36-.47-1.83-1.4-1.83s-1.75.86-1.75,2.3v3.83h-1.61v-4.3c0-1.36-.52-1.83-1.4-1.83s-1.75.86-1.75,2.32v3.81H339.8Z"/><path d="M356.08,194.44a3.21,3.21,0,0,1,3.39,3.54v.53h-5.34c.09,1.42.85,2.28,2,2.28a1.57,1.57,0,0,0,1.68-1.12h1.58a3.09,3.09,0,0,1-3.28,2.39c-2.32,0-3.64-1.42-3.64-3.8A3.55,3.55,0,0,1,356.08,194.44Zm-1.88,3h3.63c-.13-1.21-.74-1.74-1.75-1.74A1.93,1.93,0,0,0,354.2,197.43Z"/><path d="M361.09,194.62h1.55v1h.06a2.32,2.32,0,0,1,2.25-1.23c1.44,0,2.72.77,2.72,3v4.41h-1.61v-4.2c0-1.44-.61-1.93-1.54-1.93s-1.82.88-1.82,2.33v3.8h-1.61Z"/><path d="M369.89,195.87h-1.37v-1.25h1.37v-2.2h1.6v2.2h1.86v1.25h-1.86v3.6c0,.77.27,1.07,1,1.07h.84v1.34h-1.11c-1.67,0-2.35-.7-2.35-2.32Z"/><path d="M374.74,191h1.72v1.63h-1.72Zm.06,3.63h1.61v7.26H374.8Z"/><path d="M886.46,173h2l3.81,10.24h-1.77l-.88-2.49h-4.37l-.88,2.49h-1.69Zm.94,1.67-1.67,4.68h3.38l-1.65-4.68Z"/><path d="M896.75,175.84a3,3,0,0,1,3.3,2.66h-1.59a1.6,1.6,0,0,0-1.71-1.37c-1.13,0-2,1-2,2.52s.82,2.51,2,2.51a1.58,1.58,0,0,0,1.71-1.37h1.59a3,3,0,0,1-3.3,2.67c-2.24,0-3.62-1.43-3.62-3.81A3.52,3.52,0,0,1,896.75,175.84Z"/><path d="M904.86,175.84a3,3,0,0,1,3.3,2.66h-1.59a1.6,1.6,0,0,0-1.71-1.37c-1.14,0-2,1-2,2.52s.81,2.51,2,2.51a1.58,1.58,0,0,0,1.71-1.37h1.59a3,3,0,0,1-3.3,2.67c-2.24,0-3.62-1.43-3.62-3.81A3.52,3.52,0,0,1,904.86,175.84Z"/><path d="M913,175.84a3.21,3.21,0,0,1,3.39,3.54v.53H911c.09,1.42.85,2.28,2,2.28a1.57,1.57,0,0,0,1.68-1.12h1.58a3.09,3.09,0,0,1-3.28,2.39c-2.32,0-3.64-1.42-3.64-3.8A3.55,3.55,0,0,1,913,175.84Zm-1.87,3h3.63c-.14-1.21-.75-1.74-1.76-1.74A1.92,1.92,0,0,0,911.08,178.83Z"/><path d="M918,176h1.54v1h.06a2.32,2.32,0,0,1,2.25-1.23c1.44,0,2.72.77,2.72,3v4.41h-1.61v-4.2c0-1.44-.61-1.93-1.54-1.93s-1.82.87-1.82,2.33v3.8H918Z"/><path d="M927.61,181.19c0,.81.82,1.13,1.6,1.13,1.12,0,1.67-.38,1.67-1s-.37-.76-1.1-.88l-1.34-.24c-1.12-.18-2.19-.62-2.19-2s1.33-2.32,3-2.32,3,.68,3,2.2h-1.5c0-.71-.64-1.07-1.5-1.07s-1.49.36-1.49,1,.34.75,1.21.9l1.34.22c1.14.19,2.14.64,2.14,2,0,1.6-1.34,2.39-3.28,2.39s-3.14-.75-3.14-2.27Z"/><path d="M934.13,172.39h1.72V174h-1.72Zm0,3.63h1.61v7.26h-1.61Z"/><path d="M941.18,175.84a3.49,3.49,0,0,1,3.7,3.81,3.55,3.55,0,0,1-3.7,3.81,3.5,3.5,0,0,1-3.71-3.81A3.56,3.56,0,0,1,941.18,175.84Zm0,6.32c1.22,0,2-1,2-2.51s-.82-2.52-2-2.52-2,1-2,2.52S940,182.16,941.18,182.16Z"/><path d="M946.57,176h1.54v1h.06a2.32,2.32,0,0,1,2.25-1.23c1.44,0,2.72.77,2.72,3v4.41h-1.61v-4.2c0-1.44-.61-1.93-1.54-1.93s-1.82.87-1.82,2.33v3.8h-1.6Z"/><path d="M958.29,175.84a3.21,3.21,0,0,1,3.39,3.54v.53h-5.34c.09,1.42.85,2.28,2,2.28a1.57,1.57,0,0,0,1.68-1.12h1.58a3.09,3.09,0,0,1-3.27,2.39c-2.33,0-3.65-1.42-3.65-3.8A3.55,3.55,0,0,1,958.29,175.84Zm-1.87,3h3.63c-.14-1.21-.75-1.74-1.76-1.74A1.92,1.92,0,0,0,956.42,178.83Z"/><path d="M883.59,194.62h1.55v1h0a2,2,0,0,1,1.92-1.23,1.69,1.69,0,0,1,1,.3l-.42,1.42a2,2,0,0,0-.89-.23c-1.09,0-1.61,1-1.61,2.32v3.63h-1.61Z"/><path d="M889.14,191h1.73v1.63h-1.73Zm.06,3.63h1.61v7.26H889.2Z"/><path d="M894,199.79c0,.81.82,1.13,1.61,1.13,1.12,0,1.67-.38,1.67-1s-.38-.76-1.1-.88l-1.34-.24c-1.12-.18-2.19-.62-2.19-2s1.32-2.32,3-2.32,3,.68,3,2.2h-1.5c0-.71-.64-1.07-1.51-1.07s-1.48.36-1.48,1,.34.74,1.2.89l1.34.22c1.15.2,2.14.64,2.14,2,0,1.6-1.34,2.39-3.27,2.39s-3.14-.75-3.14-2.27Z"/><path d="M903.67,194.44a3,3,0,0,1,3.3,2.66h-1.59a1.6,1.6,0,0,0-1.71-1.37c-1.14,0-1.95,1-1.95,2.52s.81,2.51,1.95,2.51a1.58,1.58,0,0,0,1.71-1.37H907a3,3,0,0,1-3.3,2.67c-2.24,0-3.62-1.43-3.62-3.81A3.52,3.52,0,0,1,903.67,194.44Z"/><path d="M910.64,197.8l1.42-.24c.71-.12.93-.21.93-.49a1.27,1.27,0,0,0-1.42-1.43,1.36,1.36,0,0,0-1.54,1.28H908.5c.09-1.5,1.25-2.48,3.07-2.48,2,0,3,1,3,2.66v4.78h-1.53V201H913a2.59,2.59,0,0,1-2.32,1.09c-1.59,0-2.45-.82-2.45-2S908.93,198.08,910.64,197.8Zm2.35.43a1.17,1.17,0,0,1-.74.34l-1.25.21c-.85.14-1.17.51-1.17,1.07s.41,1,1.23,1A1.82,1.82,0,0,0,913,198.9Z"/><path d="M916.69,191h1.6v10.89h-1.6Z"/><path d="M923.34,194.44a2.37,2.37,0,0,1,2.29,1.26h.06c-.08-.95-.08-1.95-.08-2.44V191h1.61v10.89h-1.53v-1.09h-.06a2.51,2.51,0,0,1-2.41,1.27c-1.83,0-3.25-1.34-3.25-3.75S921.48,194.44,923.34,194.44Zm.28,6.32c1.14,0,2-.92,2-2.51s-.85-2.52-2-2.52-2,1-2,2.58S922.49,200.76,923.62,200.76Z"/><path d="M931.42,197.8l1.41-.24c.71-.12.94-.21.94-.49a1.27,1.27,0,0,0-1.43-1.43,1.35,1.35,0,0,0-1.53,1.28h-1.54c.09-1.5,1.25-2.48,3.07-2.48,2,0,3,1,3,2.66v4.78h-1.53V201h-.07a2.6,2.6,0,0,1-2.32,1.09c-1.6,0-2.46-.82-2.46-2S929.71,198.08,931.42,197.8Zm2.35.43a1.2,1.2,0,0,1-.75.34l-1.25.21c-.84.14-1.17.51-1.17,1.07s.42,1,1.23,1a1.83,1.83,0,0,0,1.94-1.95Z"/><path d="M937.46,194.62H939v1h.06a2.57,2.57,0,0,1,4.5.21,2.49,2.49,0,0,1,2.44-1.44c1.42,0,2.58.77,2.58,2.94v4.5H947v-4.3c0-1.36-.48-1.83-1.4-1.83s-1.75.86-1.75,2.3v3.83h-1.61v-4.3c0-1.36-.52-1.83-1.4-1.83s-1.75.86-1.75,2.32v3.81h-1.61Z"/><path d="M953.74,194.44a3.21,3.21,0,0,1,3.39,3.54v.53h-5.34c.09,1.42.85,2.28,2,2.28a1.57,1.57,0,0,0,1.68-1.12h1.57a3.07,3.07,0,0,1-3.27,2.39c-2.32,0-3.64-1.42-3.64-3.8A3.54,3.54,0,0,1,953.74,194.44Zm-1.88,3h3.63c-.13-1.21-.74-1.74-1.75-1.74A1.93,1.93,0,0,0,951.86,197.43Z"/><path d="M958.75,194.62h1.55v1h.06a2.32,2.32,0,0,1,2.25-1.23c1.44,0,2.72.77,2.72,3v4.41h-1.61v-4.2c0-1.44-.61-1.93-1.55-1.93s-1.81.88-1.81,2.33v3.8h-1.61Z"/><path d="M967.55,195.87h-1.37v-1.25h1.37v-2.2h1.6v2.2H971v1.25h-1.86v3.6c0,.77.27,1.07,1,1.07H971v1.34H969.9c-1.67,0-2.35-.7-2.35-2.32Z"/><path d="M972.4,191h1.72v1.63H972.4Zm.06,3.63h1.6v7.26h-1.6Z"/><path class="cls-2" d="M42.79,136.05v1.42H41.15V124.3h1.64v5.28c0,1.94.74,2.61,2.08,2.61s2.38-1.27,2.38-3.2V124.3h1.64v9.08H47.33V132h-.08a2.79,2.79,0,0,1-2.75,1.56,3.23,3.23,0,0,1-1.82-.52h-.12A20.43,20.43,0,0,1,42.79,136.05Z"/><path class="cls-2" d="M52.83,134.49c0,1.12,1,1.79,2.46,1.79,1.6,0,2.9-.8,2.9-3.35v-1h-.08a3.17,3.17,0,0,1-3,1.64c-2.3,0-4-1.71-4-4.69s1.86-4.83,4.16-4.83a3,3,0,0,1,2.9,1.63h.08V124.3h1.56v8.63c0,3.44-2,4.69-4.46,4.69-2.27,0-4-1.08-4-3.13Zm2.61-2.3c1.48,0,2.67-1.19,2.67-3.35s-1.19-3.35-2.67-3.35-2.68,1.26-2.68,3.42S54,132.19,55.44,132.19Z"/><path class="cls-2" d="M67,120.36h1.42L62.73,133.6H61.31Z"/><path class="cls-2" d="M68.68,124.3h1.56v1.34h.08a2.86,2.86,0,0,1,2.75-1.56,2.8,2.8,0,0,1,2.83,1.84,3,3,0,0,1,3-1.84c1.71,0,3.12,1,3.12,3.64v5.66H80.44v-5.44c0-1.78-.6-2.45-1.86-2.45s-2.39,1.21-2.39,3.16v4.73H74.56v-5.44c0-1.78-.67-2.45-1.86-2.45s-2.38,1.21-2.38,3.18v4.71H68.68Z"/><path class="cls-2" d="M84.77,124.92a1.46,1.46,0,0,0,1.61,1.57c.93,0,1.6-.5,1.6-1.38a1.45,1.45,0,0,0-1.6-1.38h-.57v-.82h.57a1.29,1.29,0,0,0,1.34-1.29,1.22,1.22,0,0,0-1.34-1.21A1.25,1.25,0,0,0,85,121.76h-.87a2.06,2.06,0,0,1,2.22-2.17,2,2,0,0,1,2.25,2,1.91,1.91,0,0,1-1.08,1.67v0a1.92,1.92,0,0,1,1.39,1.87c0,1.33-1.14,2.12-2.56,2.12a2.24,2.24,0,0,1-2.52-2.39Z"/><path class="cls-5" d="M1088.27,760.73c-.44,0-.82-1.61-1.06-2.68-.4-1.68-.74-3.13-1.65-3.13s-1.26,1.45-1.65,3.13c-.25,1.06-.63,2.68-1.08,2.68h-2.71c-.45,0-.83-1.62-1.08-2.69-.39-1.67-.73-3.12-1.62-3.12h0c-.46-.24-.84-3.43-1.08-5.55-.51-4.32-.8-6.07-1.66-6.07s-1.16,1.76-1.67,6.09c-.24,2.11-.62,5.29-1,5.53-.92,0-1.26,1.45-1.65,3.13-.25,1.06-.63,2.68-1.08,2.68h-76.1c-.49-.45-.85-5.07-1.12-8.45-.5-6.49-.78-8.69-1.49-9-.57-1.55-.91-19-1.22-34.5-.55-28.48-.82-34.26-1.44-35.16h0c-.63-1.58-1-45-1.29-87-.17-21.45-.34-43.62-.55-60-.36-27.56-.64-27.56-1.11-27.56s-.75,0-1.11,35.86c-.22,21.34-.39,50.24-.56,78.18-.32,54-.66,109.9-1.28,112.77-.64.5-.91,3.53-1.43,14.74-.28,6-.63,13.4-1.15,14.25-.86.1-1.19,1.51-1.57,3.14-.25,1.07-.62,2.67-1,2.68-.46-.24-.83-3.43-1.08-5.54-.51-4.34-.8-6.1-1.67-6.1s-1.15,1.76-1.65,6.08c-.25,2.12-.62,5.32-1.06,5.55h-2.56c-.58-2-.92-23.93-1.22-43.3-.58-37.42-.85-43.32-1.54-43.85h0c-.56-.7-.92-9.88-1.21-17.27-.58-14.85-.84-17.66-1.65-17.66-.47,0-.75,0-1.11,19.36-.21,11.45-.38,27-.55,42-.3,27.32-.65,58.21-1.24,60.75h-2.52c-.46-.24-.83-3.43-1.08-5.54-.48-4.09-.77-5.89-1.52-6.08-.57-1.31-.9-14.36-1.2-25.89-.62-23.85-.89-26.45-1.66-26.45s-1,3.16-1.66,32.16c-.3,14.16-.64,30.17-1.21,31.79H938.77c-.52-.87-.87-8.25-1.15-14.2-.58-12.5-.85-14.87-1.67-14.87s-1.07,2.36-1.65,14.82c-.28,6-.63,13.38-1.15,14.25H906.09c-.58-1.93-.92-22.35-1.22-40.41-.62-37-.88-41-1.66-41s-1.05,4-1.67,41.14c-.3,18-.64,38.33-1.22,40.26h-2.41c-.57-1.63-.91-17.58-1.21-31.69-.61-29.09-.88-32.26-1.65-32.26s-1,3.16-1.66,32.16c-.3,14.16-.64,30.17-1.21,31.79H881.51c-.5-.45-.86-5-1.12-8.42-.55-7-.83-9-1.67-9s-1.11,2-1.65,9c-.27,3.4-.63,8.05-1.06,8.44H865.22c-.53-.87-.88-8.3-1.16-14.3-.54-11.59-.81-14.41-1.5-14.73-.57-1.32-.91-15.86-1.21-28.72-.56-23.88-.83-28.62-1.45-29.34-.62-1.66-1-36.19-1.27-66.68-.65-64.1-.92-67.16-1.66-67.16s-1,4.3-1.66,43.75c-.31,19.88-.66,42.41-1.27,43.57a.27.27,0,0,1,.11-.08c-.72.42-1,6.42-1.56,49.69-.31,22.21-.65,47.34-1.25,49.17-.67.4-.94,3.34-1.48,14.82-.28,6-.62,13.36-1.15,14.2-.84.1-1.17,1.51-1.55,3.13-.25,1.07-.63,2.68-1.07,2.68h-5.27c-.59-2.21-.93-27.1-1.23-49.12-.62-45.13-.87-49.71-1.66-49.71s-1,2.31-1.66,23.47c-.28,9.81-.64,22-1.21,23.08-.67.39-.93,4.1-1.51,26.42-.3,11.48-.64,24.46-1.19,25.86H802.62c-.49-.45-.85-5.07-1.11-8.45-.55-7-.83-9-1.66-9s-1.11,2-1.65,9c-.27,3.41-.64,8.09-1.08,8.47H742.79c-.49-.45-.85-5-1.12-8.42-.54-7-.83-9-1.66-9s-1.12,2-1.66,9c-.26,3.4-.63,8.05-1.06,8.44h-8c-.61-2.93-.94-41-1.26-77.9-.16-19.35-.34-39.36-.55-54.14-.36-24.92-.65-24.92-1.12-24.92s-.74,0-1.1,24.82c-.21,14.71-.39,34.66-.55,54-.31,35.29-.65,75.19-1.26,78.18H699.21c-.44,0-.82-1.62-1.07-2.68-.4-1.68-.74-3.13-1.65-3.13s-1.26,1.45-1.65,3.13c-.25,1.07-.62,2.68-1.06,2.68H672c-.46-.24-.83-3.43-1.08-5.54-.51-4.34-.8-6.1-1.67-6.1s-1.15,1.76-1.65,6.08c-.25,2.12-.62,5.32-1.06,5.55h-38c-.49-.45-.85-5-1.11-8.42-.55-7-.84-9-1.67-9s-1.12,2-1.66,9c-.26,3.4-.62,8.05-1.06,8.44H604c-.44,0-.82-1.62-1.07-2.68-.4-1.68-.74-3.13-1.65-3.13s-1.26,1.45-1.65,3.13c-.25,1.07-.62,2.68-1.06,2.68H585.06c-.53-.87-.87-8.3-1.15-14.3-.59-12.42-.85-14.77-1.66-14.77s-1.08,2-1.66,11.91c-.25,4.42-.6,10.4-1.1,11.3-.43-.47-.79-3.49-1-5.52-.51-4.3-.8-6.05-1.63-6.05h0c-.45-.23-.83-3.42-1.08-5.54-.5-4.33-.8-6.1-1.66-6.1S573,734,572.43,746.48c-.28,6-.62,13.38-1.15,14.25H536c-.44,0-.82-1.61-1.07-2.68-.39-1.68-.73-3.13-1.65-3.13h-2.72c-.92,0-1.26,1.45-1.65,3.13-.25,1.07-.62,2.68-1.06,2.68h-2.73c-.44,0-.82-1.61-1.06-2.68-.4-1.68-.74-3.13-1.65-3.13h-2.61c-.54-1.17-.89-11.59-1.17-20-.61-18.27-.89-20.7-1.67-20.7s-1,2.31-1.66,23.55c-.28,9.68-.63,21.66-1.18,23h-5.26c-.5-.44-.86-5.08-1.12-8.48-.55-6.94-.83-9-1.66-9s-1.11,2-1.65,9c-.27,3.4-.63,8.05-1.06,8.44h-8c-.6-2.69-1-36.47-1.25-66.33-.17-16.49-.34-33.53-.56-46.11C493.24,627,493,627,492.49,627s-.75,0-1.11,16.64c-.21,9.82-.38,23.12-.55,36-.3,23.45-.64,50-1.24,52.05-.72.25-1,2.07-1.48,6.08-.23,2-.58,4.93-1,5.46-.52-1.3-.86-10-1.14-17.09-.58-14.91-.84-17.73-1.65-17.73s-1,2.61-1.67,26.55c-.3,11.44-.64,24.37-1.19,25.77h-5.3c-.44,0-.82-1.6-1.07-2.66-.39-1.69-.74-3.15-1.66-3.15s-1.26,1.45-1.65,3.13c-.25,1.07-.62,2.68-1.06,2.68s-.83-1.62-1.08-2.68c-.37-1.58-.69-2.95-1.48-3.12-.58-1.73-.92-20.71-1.22-37.5-.62-34.35-.88-38.1-1.66-38.1s-1.05,4-1.67,41.13c-.3,18-.64,38.34-1.22,40.27h-2.49c-.51-.71-.87-6.84-1.13-11.34-.58-9.91-.86-11.91-1.65-11.91s-1.08,2-1.66,11.87c-.26,4.43-.61,10.44-1.11,11.33-.43-.47-.78-3.48-1-5.5-.5-4.32-.79-6.08-1.65-6.08s-1.16,1.77-1.67,6.1c-.25,2.11-.62,5.3-1.06,5.53h-5.44c-.43,0-.81-1.6-1.06-2.66-.37-1.58-.69-3-1.47-3.13-.6-2.23-.94-30.21-1.25-55-.16-13.58-.34-27.62-.55-38-.36-17.56-.64-17.56-1.1-17.56s-.75,0-1.11,18.39c-.21,10.86-.38,25.59-.55,39.84-.31,26.09-.65,55.59-1.25,58.05H421.77c-.44,0-.82-1.61-1.07-2.68-.39-1.68-.73-3.13-1.64-3.13h-2.73c-.92,0-1.25,1.45-1.65,3.13-.25,1.07-.62,2.68-1.06,2.68h-8c-.57-1.73-.91-19.1-1.21-34.46-.62-31.84-.89-35.3-1.67-35.3s-1.08,2-1.66,11.9c-.25,4.41-.6,10.39-1.1,11.3-.43-.48-.78-3.47-1-5.48-.51-4.33-.8-6.09-1.67-6.09s-1,2.88-1.66,29.36c-.29,12.79-.63,27.25-1.19,28.77h-27c-.46-.24-.84-3.43-1.08-5.54-.51-4.33-.8-6.1-1.67-6.1s-1.15,1.76-1.65,6.08c-.25,2.12-.62,5.32-1.06,5.55h-2.67c-.49-.45-.85-5.07-1.12-8.45-.49-6.33-.77-8.58-1.44-8.94-.62-2.78-1-48.69-1.28-93.1-.17-22.8-.34-46.38-.55-63.75-.36-29.25-.62-29.25-1.11-29.25s-.75,0-1.1,32.09c-.21,19.08-.39,44.95-.55,70-.32,48.18-.66,98-1.27,101.43h-2.33c-.59-2.46-.94-31.74-1.24-57.64-.17-14.33-.34-29.15-.56-40.1-.36-18.54-.64-18.54-1.11-18.54s-.75,0-1.11,16.64c-.21,9.82-.38,23.12-.55,36-.27,20.89-.57,44.21-1.05,50.54-.48-6.31-.79-29.55-1.06-50.36-.17-12.9-.34-26.24-.55-36.09-.37-16.71-.67-16.71-1.12-16.71-.79,0-1,4.59-1.65,49.71-.31,22.13-.65,47.16-1.24,49.17-.73.24-1,2-1.49,6.06-.25,2.11-.62,5.29-1.06,5.53-.91,0-1.25,1.45-1.64,3.13-.25,1.07-.63,2.68-1,2.69-.46-.23-.84-3.45-1.09-5.58-.51-4.31-.8-6.06-1.65-6.06s-1.23,1.46-1.6,3.15a8.23,8.23,0,0,1-.85,2.59c-.58-2.66-.92-27.35-1.22-49.22-.62-45-.87-49.54-1.66-49.54s-1.25,1.45-1.65,3.13c-.25,1.07-.63,2.69-1.08,2.69-.79,0-1,4.58-1.65,49.71-.3,22-.65,46.91-1.23,49.12H316c-.56-1.63-.9-17.57-1.2-31.68-.62-29.1-.88-32.27-1.66-32.27s-1,3.18-1.67,32.38c-.26,12.51-.56,26.46-1,30.53-.5-5.37-.81-27.93-1.09-48.08-.62-45.13-.87-49.71-1.65-49.71s-1.05,3.18-1.67,32.38c-.31,14.21-.65,30.28-1.23,31.62-.68.41-.95,3.82-1.49,17.62-.28,7.23-.63,16.19-1.17,17.21h-2.49c-.54-1.16-.89-11.58-1.17-20-.62-18.27-.89-20.71-1.67-20.71s-1.15,1.76-1.66,6.08c-.24,2-.59,5.12-1,5.53-.49-.63-.84-5.14-1.1-8.45-.54-7-.82-9-1.65-9s-1,2.31-1.66,23.54c-.26,9-.58,20.11-1.08,22.58-.47-2-.78-10.16-1-16.82-.58-14.86-.85-17.67-1.66-17.67s-1.25,1.45-1.65,3.13c-.25,1.07-.63,2.68-1.05,2.69-.46-.24-.84-3.44-1.08-5.56-.51-4.32-.8-6.08-1.66-6.08s-1.07,2.81-1.65,17.67c-.26,6.5-.57,14.4-1,16.67-.51-3.65-.83-21.26-1.11-37-.62-34.33-.88-38.08-1.66-38.08s-1.16,1.77-1.66,6.11c-.25,2.11-.62,5.3-1.06,5.53-.78,0-1,3.45-1.66,35.17-.3,15.43-.64,32.86-1.21,34.59H258.69c-1.17,0-1.79-1.32-2.44-2.73s-1.45-3.08-3-3.08c-.92,0-1.26,1.45-1.65,3.14-.25,1.06-.62,2.67-1.06,2.67s-.83-1.62-1.08-2.68c-.37-1.6-.7-3-1.51-3.12-.56-1.34-.9-14.32-1.2-25.8-.56-21.63-.83-25.84-1.45-26.44-.61-1.78-1-33.15-1.27-60.85-.17-15-.34-30.52-.55-42-.36-19.37-.64-19.37-1.11-19.37s-.74,0-1.1,23.82c-.21,14.12-.39,33.28-.55,51.81-.29,31.71-.61,67.27-1.14,74.42-.44-3.65-.73-14.77-1-24.76-.57-22.21-.84-26-1.5-26.41-.58-1.15-.92-14.34-1.23-26-.61-23.77-.88-26.36-1.65-26.36s-1,3.05-1.66,67.16c-.3,30-.64,63.85-1.24,66.55h-2.54c-.44,0-.81-1.6-1.06-2.66-.4-1.69-.74-3.15-1.66-3.15s-1.26,1.45-1.65,3.13c-.25,1.07-.63,2.68-1.07,2.68H217.9c-.45,0-.83-1.62-1.08-2.68-.4-1.68-.74-3.13-1.65-3.13-.44,0-.82-1.62-1.06-2.68-.38-1.6-.7-3-1.51-3.13-.57-1.34-.91-14.41-1.21-26-.62-23.77-.89-26.36-1.66-26.36s-1,2.88-1.65,29.26c-.31,12.88-.65,27.44-1.22,28.89-.81.15-1.13,1.53-1.5,3.12-.25,1.07-.63,2.68-1.07,2.68h-8.1c-.49-.45-.85-5.07-1.12-8.45-.54-7-.82-9-1.65-9s-1.13,2-1.67,9c-.27,3.39-.63,8-1.06,8.41h-2.52c-.61-3.21-.94-47.22-1.26-89.82-.17-22.15-.34-45-.55-61.95-.36-28.46-.64-28.46-1.11-28.46s-.74,0-1.1,28.34c-.21,16.83-.38,39.67-.55,61.76-.33,42.75-.66,86.93-1.28,90.13h-7.87c-.52-.7-.88-6.86-1.14-11.38-.58-9.87-.86-11.87-1.66-11.87h-2.72c-.8,0-1.08,2-1.66,11.91-.26,4.5-.62,10.63-1.13,11.34h-2.63c-.46-.24-.83-3.44-1.08-5.56-.5-4.32-.79-6.08-1.63-6.08h0c-.47-.23-.85-3.44-1.1-5.56-.5-4.31-.79-6.06-1.65-6.06s-1.08,2-1.66,11.91c-.26,4.48-.61,10.57-1.12,11.33-.42-.14-.77-1.66-1-2.67-.38-1.61-.7-3-1.53-3.13-.54-1.11-.89-11.57-1.17-20-.58-17.2-.86-20.37-1.54-20.68-.55-1-.91-11.57-1.19-20.08-.61-18.2-.88-20.63-1.66-20.63s-1,2.88-1.65,29.26c-.3,12.54-.63,26.67-1.17,28.74-.41-.67-.73-3.49-1-5.42-.47-4.07-.76-5.87-1.51-6.06-.57-1.31-.91-14.4-1.21-26-.62-23.77-.89-26.35-1.66-26.35s-1.08,2-1.66,11.9c-.26,4.52-.62,10.68-1.13,11.35-.76.16-1,2.77-1.59,14.87-.25,5.36-.56,11.87-1,13.75-.51-3.25-.83-19.53-1.11-34-.62-31.83-.89-35.3-1.67-35.3-.47,0-.75,0-1.11,17.55-.21,10.36-.38,24.4-.55,38-.3,24.67-.64,52.56-1.24,54.94H103.79c-.56-1.4-.9-14.43-1.2-26-.62-23.78-.89-26.37-1.66-26.37s-1.05,2.43-1.65,20.64c-.29,8.46-.64,19-1.18,20.06-.78.17-1,2-1.18,6.09-.11,2.1-.28,5.26-.69,5.53h0a.31.31,0,0,0-.31.31.3.3,0,0,0,.31.3h992a.3.3,0,0,0,.31-.3A.31.31,0,0,0,1088.27,760.73Z"/></g><g id="Info_1"><g class="cls-6"><circle class="cls-4" cx="96.23" cy="440.52" r="10.4"/></g></g></svg>