<svg id="Livello_1" data-name="Livello 1" xmlns="http://www.w3.org/2000/svg" viewBox="0 0 1174.99 900"><defs><style>.cls-1{fill:#efefef;}.cls-2{fill:#b8b8b8;}.cls-3{isolation:isolate;}.cls-4{fill:#ff3a00;}.cls-5{opacity:0.2;}.cls-6{opacity:0.7;}.cls-7{fill:#fff;}</style></defs><rect class="cls-1" x="878.05" y="157.77" width="210.47" height="603.28"/><rect class="cls-1" x="95.85" y="157.76" width="286.17" height="603.28"/><path class="cls-2" d="M180.72,761.35a.3.3,0,0,1-.3-.3V157.77a.29.29,0,0,1,.3-.3.3.3,0,0,1,.3.3V761.05A.31.31,0,0,1,180.72,761.35Z"/><path class="cls-2" d="M257,761.35a.3.3,0,0,1-.3-.3V157.77a.29.29,0,0,1,.3-.3.3.3,0,0,1,.3.3V761.05A.31.31,0,0,1,257,761.35Z"/><path class="cls-2" d="M341.52,761.35a.3.3,0,0,1-.3-.3V157.77a.29.29,0,0,1,.3-.3.3.3,0,0,1,.3.3V761.05A.31.31,0,0,1,341.52,761.35Z"/><path class="cls-2" d="M423.28,761.35a.3.3,0,0,1-.3-.3V157.77a.29.29,0,0,1,.3-.3.3.3,0,0,1,.3.3V761.05A.31.31,0,0,1,423.28,761.35Z"/><path class="cls-2" d="M507.76,761.35a.31.31,0,0,1-.3-.3V157.77a.3.3,0,0,1,.3-.3.29.29,0,0,1,.3.3V761.05A.3.3,0,0,1,507.76,761.35Z"/><path class="cls-2" d="M589.53,761.35a.3.3,0,0,1-.3-.3V157.77a.29.29,0,0,1,.3-.3.3.3,0,0,1,.3.3V761.05A.31.31,0,0,1,589.53,761.35Z"/><path class="cls-2" d="M674,761.35a.31.31,0,0,1-.3-.3V157.77a.3.3,0,0,1,.3-.3.29.29,0,0,1,.3.3V761.05A.3.3,0,0,1,674,761.35Z"/><path class="cls-2" d="M758.5,761.35a.3.3,0,0,1-.3-.3V157.77a.29.29,0,0,1,.3-.3.3.3,0,0,1,.3.3V761.05A.31.31,0,0,1,758.5,761.35Z"/><path class="cls-2" d="M840.26,761.35a.31.31,0,0,1-.3-.3V157.77a.3.3,0,0,1,.3-.3.29.29,0,0,1,.3.3V761.05A.3.3,0,0,1,840.26,761.35Z"/><path class="cls-2" d="M924.75,761.35a.3.3,0,0,1-.3-.3V157.77a.29.29,0,0,1,.3-.3.3.3,0,0,1,.3.3V761.05A.31.31,0,0,1,924.75,761.35Z"/><path class="cls-2" d="M1006.51,761.35a.3.3,0,0,1-.3-.3V157.77a.29.29,0,0,1,.3-.3.3.3,0,0,1,.3.3V761.05A.31.31,0,0,1,1006.51,761.35Z"/><path class="cls-2" d="M96.23,761.35a.31.31,0,0,1-.3-.3V157.77a.3.3,0,0,1,.3-.3.29.29,0,0,1,.3.3V761.05A.3.3,0,0,1,96.23,761.35Z"/><path class="cls-2" d="M1088.27,761.35a.3.3,0,0,1-.3-.3V157.77a.3.3,0,0,1,.6,0V761.05A.3.3,0,0,1,1088.27,761.35Z"/><g class="cls-3"><path d="M206.4,773.62h6.79v1.19h-5.42v3.69h4.29v1.19h-4.29v4.17H206.4Z"/><path d="M215,773.62h6.9v1.19h-5.54v3.25h4.41v1.19h-4.41v3.42H222v1.19h-7Z"/><path d="M224,773.62h4.23c2.22,0,3.27,1,3.27,2.68a2.16,2.16,0,0,1-1.61,2.14v.06a2.32,2.32,0,0,1,2,2.32c0,1.75-1.18,3-3.39,3H224Zm1.37,1.19V778h2.86a1.67,1.67,0,0,0,1.9-1.68c0-.9-.53-1.48-1.9-1.48Zm0,4.35v3.51h3.16a1.77,1.77,0,0,0,2-1.83c0-1-.66-1.68-2-1.68Z"/></g><g class="cls-3"><path d="M131.84,782.37h-.05a3.6,3.6,0,0,1-3.34,1.67,5.31,5.31,0,0,1,.05-10.6,4.29,4.29,0,0,1,4.47,3.22h-1.43a2.91,2.91,0,0,0-3-2c-2.21,0-3.63,1.73-3.63,4s1.48,4,3.58,4c1.71,0,3.27-1,3.27-2.86v-.3H128.5v-1.19H133v5.42h-.89Z"/><path d="M135.41,773.62h6.9v1.19h-5.53v3.25h4.4v1.19h-4.4v3.42h5.65v1.19h-7Z"/><path d="M144.52,773.62h1.31l5.65,7.92h.06l-.06-7.92h1.37v10.24h-1.31L145.89,776h-.06l.06,7.86h-1.37Z"/></g><g class="cls-3"><path d="M284.21,773.62h1.67l3.76,8.39h0l3.71-8.39H295v10.24h-1.36l.11-8.09h-.05l-3.57,8.09h-1.08l-3.57-7.92h-.06l.12,7.92h-1.37Z"/><path d="M300.34,773.62H302l3.81,10.24h-1.43l-1-2.68h-4.49l-1,2.68h-1.36Zm.75,1.43L299.3,780h3.63l-1.78-4.94Z"/><path d="M307.25,773.62h3.87c2.33,0,3.57,1.12,3.57,3a3,3,0,0,1-2.25,3.05l2.6,4.15h-1.48l-2.55-4h-2.39v4h-1.37Zm1.37,1.19v3.87h2.56a1.94,1.94,0,0,0,2.14-2c0-1.13-.77-1.85-2.14-1.85Z"/></g><g class="cls-3"><path d="M372,773.62h1.61l3.8,10.24H376l-1-2.68h-4.49l-1,2.68H368.2Zm.74,1.43L371,780h3.63l-1.79-4.94Z"/><path d="M378.91,773.62h3.87c2.34,0,3.63,1.36,3.63,3.28a3.3,3.3,0,0,1-3.63,3.39h-2.5v3.57h-1.37Zm1.37,1.19v4.29h2.56a2.06,2.06,0,0,0,2.2-2.2,2,2,0,0,0-2.2-2.09Z"/><path d="M388.38,773.62h3.87c2.33,0,3.57,1.12,3.57,3a3,3,0,0,1-2.25,3.05l2.6,4.15h-1.48l-2.55-4h-2.39v4h-1.37Zm1.37,1.19v3.87h2.56a1.94,1.94,0,0,0,2.14-2c0-1.13-.78-1.85-2.14-1.85Z"/></g><g class="cls-3"><path d="M449.81,773.62h1.66l3.77,8.39h0l3.7-8.39h1.67v10.24h-1.37l.12-8.09h-.06l-3.57,8.09h-1.07l-3.57-7.92h-.06l.12,7.92h-1.37Z"/><path d="M465.94,773.62h1.6l3.81,10.24h-1.43l-1-2.68h-4.5l-1,2.68h-1.37Zm.74,1.43L464.9,780h3.63l-1.79-4.94Z"/><path d="M480.28,782.37h0a3.6,3.6,0,0,1-3.35,1.67,5.31,5.31,0,0,1,.06-10.6,4.28,4.28,0,0,1,4.46,3.22H480a2.9,2.9,0,0,0-3-2c-2.22,0-3.63,1.73-3.63,4s1.47,4,3.57,4c1.71,0,3.27-1,3.27-2.86v-.3H477v-1.19h4.46v5.42h-.89Z"/></g><g class="cls-3"><path d="M544.86,782.37h0a3.6,3.6,0,0,1-3.35,1.67,5.31,5.31,0,0,1,.06-10.6,4.28,4.28,0,0,1,4.46,3.22h-1.42a2.92,2.92,0,0,0-3-2c-2.22,0-3.63,1.73-3.63,4s1.47,4,3.57,4c1.71,0,3.27-1,3.27-2.86v-.3h-3.21v-1.19H546v5.42h-.89Z"/><path d="M548.44,773.62h1.36v10.24h-1.36Z"/><path d="M552.19,773.62h1.36v6.19c0,1.88.88,3,2.74,3s2.74-1.1,2.74-3v-6.19h1.37v6.19c0,3-1.68,4.23-4.11,4.23s-4.1-1.19-4.1-4.23Z"/></g><g class="cls-3"><path d="M618.26,773.62h1.37v9h5v1.19h-6.36Z"/><path d="M625.88,773.62h1.36v6.19c0,1.88.88,3,2.74,3s2.74-1.1,2.74-3v-6.19h1.37v6.19c0,3-1.68,4.23-4.11,4.23s-4.1-1.19-4.1-4.23Z"/><path d="M644.33,782.37h-.05a3.6,3.6,0,0,1-3.35,1.67,5.31,5.31,0,0,1,.06-10.6,4.29,4.29,0,0,1,4.47,3.22H644a2.92,2.92,0,0,0-3-2c-2.21,0-3.63,1.73-3.63,4s1.48,4,3.57,4c1.71,0,3.28-1,3.28-2.86v-.3H641v-1.19h4.47v5.42h-.9Z"/></g><g class="cls-3"><path d="M704.29,773.62h1.61l3.81,10.24h-1.43l-1-2.68h-4.49l-1,2.68h-1.37Zm.75,1.43L703.25,780h3.63l-1.78-4.94Z"/><path d="M718.64,782.37h0a3.6,3.6,0,0,1-3.35,1.67,5.31,5.31,0,0,1,.06-10.6,4.29,4.29,0,0,1,4.47,3.22h-1.43a2.92,2.92,0,0,0-3-2c-2.21,0-3.63,1.73-3.63,4s1.48,4,3.57,4c1.71,0,3.28-1,3.28-2.86v-.3H715.3v-1.19h4.47v5.42h-.9Z"/><path d="M726.55,773.44a5.31,5.31,0,0,1,0,10.6c-3,0-5-2.25-5-5.3S723.56,773.44,726.55,773.44Zm0,9.35c2.16,0,3.57-1.73,3.57-4s-1.41-4-3.57-4-3.57,1.73-3.57,4S724.4,782.79,726.55,782.79Z"/></g><g class="cls-3"><path d="M787.83,780.94c0,1.12,1,2,2.56,2s2.62-.7,2.62-1.91c0-2.71-6.4-.65-6.4-4.58,0-1.74,1.51-3,3.78-3s3.75,1.09,3.75,2.92h-1.37c0-1.13-1-1.78-2.38-1.78s-2.38.58-2.38,1.72c0,2.68,6.43.57,6.43,4.64,0,1.85-1.49,3.1-4.05,3.1s-3.93-1.25-3.93-3.1Z"/><path d="M796.58,773.62h6.91v1.19H798v3.25h4.41v1.19H798v3.42h5.66v1.19h-7Z"/><path d="M804.5,773.62H813v1.16h-3.57v9.08h-1.37v-9.08H804.5Z"/></g><g class="cls-3"><path d="M874,773.44a5.31,5.31,0,0,1,0,10.6c-3,0-5-2.25-5-5.3S871,773.44,874,773.44Zm0,9.35c2.16,0,3.57-1.73,3.57-4s-1.41-4-3.57-4-3.57,1.73-3.57,4S871.87,782.79,874,782.79Z"/><path d="M879.26,773.62h8.51v1.16H884.2v9.08h-1.37v-9.08h-3.57Z"/><path d="M888,773.62h8.51v1.16H893v9.08h-1.37v-9.08H888Z"/></g><g class="cls-3"><path d="M951.34,773.62h1.31l5.66,7.92h.06l-.06-7.92h1.37v10.24h-1.31L952.71,776h-.06l.06,7.86h-1.37Z"/><path d="M966.64,773.44a5.31,5.31,0,0,1,0,10.6c-3,0-5-2.25-5-5.3S963.65,773.44,966.64,773.44Zm0,9.35c2.16,0,3.57-1.73,3.57-4s-1.41-4-3.57-4-3.57,1.73-3.57,4S964.48,782.79,966.64,782.79Z"/><path d="M972.12,773.62h1.43l3.06,8.81h.06l3.06-8.81h1.37l-3.75,10.24h-1.51Z"/></g><g class="cls-3"><path d="M1036.17,773.62h3.16c3.52,0,5.35,2.13,5.35,5.12s-1.83,5.12-5.35,5.12h-3.16Zm1.37,1.19v7.86h1.79a3.93,3.93,0,0,0,0-7.86Z"/><path d="M1046.65,773.62H1048v10.24h-1.37Z"/><path d="M1054.92,773.44a4.13,4.13,0,0,1,4.34,3.4h-1.41a2.75,2.75,0,0,0-2.93-2.15c-2.1,0-3.51,1.67-3.51,4s1.41,4,3.45,4a2.74,2.74,0,0,0,3-2.14h1.41a4.19,4.19,0,0,1-4.4,3.39c-2.87,0-4.88-2.19-4.88-5.3S1052,773.44,1054.92,773.44Z"/></g><g class="cls-3"><path d="M71.9,766.07a3.25,3.25,0,0,1-2-.65,4,4,0,0,1-1.28-1.9,10.26,10.26,0,0,1,0-6,4.12,4.12,0,0,1,1.29-1.9,3.44,3.44,0,0,1,4,0,4.12,4.12,0,0,1,1.29,1.9,10.26,10.26,0,0,1,0,6,4,4,0,0,1-1.28,1.9A3.24,3.24,0,0,1,71.9,766.07Zm0-1.16a2,2,0,0,0,1.83-1.15,6.55,6.55,0,0,0,.66-3.25,8.36,8.36,0,0,0-.3-2.4,3.33,3.33,0,0,0-.85-1.5,1.9,1.9,0,0,0-1.34-.52,2,2,0,0,0-1.84,1.16,6.59,6.59,0,0,0-.66,3.26,8.28,8.28,0,0,0,.3,2.39,3.29,3.29,0,0,0,.85,1.49A1.93,1.93,0,0,0,71.9,764.91Z"/></g><g class="cls-3"><path d="M65.26,696.81v10.83H64v-9.45h-.06l-2.65,1.75v-1.33l2.71-1.8Z"/><path d="M71.9,707.78a3.19,3.19,0,0,1-2-.65,4,4,0,0,1-1.28-1.89,10.26,10.26,0,0,1,0-6,4.15,4.15,0,0,1,1.29-1.91,3.48,3.48,0,0,1,4,0,4.15,4.15,0,0,1,1.29,1.91,10.26,10.26,0,0,1,0,6,4,4,0,0,1-1.28,1.89A3.19,3.19,0,0,1,71.9,707.78Zm0-1.16a2,2,0,0,0,1.83-1.14,6.57,6.57,0,0,0,.66-3.25,8.36,8.36,0,0,0-.3-2.4,3.28,3.28,0,0,0-.85-1.5,1.9,1.9,0,0,0-1.34-.52A2,2,0,0,0,70.06,699a6.66,6.66,0,0,0-.66,3.27,8.21,8.21,0,0,0,.3,2.38,3.19,3.19,0,0,0,.85,1.5A1.92,1.92,0,0,0,71.9,706.62Z"/></g><g class="cls-3"><path d="M59.36,649.35v-1l3.57-3.91c.42-.45.77-.85,1-1.19a4.38,4.38,0,0,0,.6-1,2.25,2.25,0,0,0,.2-1,1.79,1.79,0,0,0-.27-1,1.87,1.87,0,0,0-.74-.65,2.45,2.45,0,0,0-1.06-.22,2.18,2.18,0,0,0-1.08.25,1.78,1.78,0,0,0-.72.72,2.21,2.21,0,0,0-.25,1.08H59.4a3.15,3.15,0,0,1,.44-1.67,3,3,0,0,1,1.2-1.12,3.53,3.53,0,0,1,1.7-.4,3.43,3.43,0,0,1,1.69.4,3,3,0,0,1,1.15,1.08,2.83,2.83,0,0,1,.42,1.52,3.14,3.14,0,0,1-.22,1.16,4.76,4.76,0,0,1-.74,1.26,21.75,21.75,0,0,1-1.45,1.7l-2.43,2.6v.08h5v1.16Z"/><path d="M71.9,649.5a3.19,3.19,0,0,1-2-.65,4,4,0,0,1-1.28-1.9,10.26,10.26,0,0,1,0-6,4.17,4.17,0,0,1,1.29-1.9,3.48,3.48,0,0,1,4,0,4.17,4.17,0,0,1,1.29,1.9,10.26,10.26,0,0,1,0,6,4,4,0,0,1-1.28,1.9A3.19,3.19,0,0,1,71.9,649.5Zm0-1.16a2,2,0,0,0,1.83-1.14,6.59,6.59,0,0,0,.66-3.26,8.33,8.33,0,0,0-.3-2.39,3.37,3.37,0,0,0-.85-1.51,1.93,1.93,0,0,0-1.34-.51,2,2,0,0,0-1.84,1.15,6.64,6.64,0,0,0-.66,3.26,8.23,8.23,0,0,0,.3,2.39,3.19,3.19,0,0,0,.85,1.5A1.92,1.92,0,0,0,71.9,648.34Z"/></g><g class="cls-3"><path d="M62.55,591.22a4.61,4.61,0,0,1-1.86-.36,3.17,3.17,0,0,1-1.29-1,2.61,2.61,0,0,1-.52-1.49h1.33a1.6,1.6,0,0,0,.36.9,2,2,0,0,0,.83.58,3,3,0,0,0,1.13.21,2.86,2.86,0,0,0,1.24-.25,2,2,0,0,0,.84-.67,1.68,1.68,0,0,0,.31-1,2,2,0,0,0-.29-1,2,2,0,0,0-.87-.72,3.43,3.43,0,0,0-1.4-.26H61.5v-1.16h.86a2.73,2.73,0,0,0,1.14-.23,1.81,1.81,0,0,0,.76-.66,1.72,1.72,0,0,0,.28-1,1.87,1.87,0,0,0-.24-1,1.62,1.62,0,0,0-.69-.63,2.25,2.25,0,0,0-1-.23,2.66,2.66,0,0,0-1,.21,2,2,0,0,0-.81.58,1.57,1.57,0,0,0-.33.93H59.11a2.6,2.6,0,0,1,.51-1.5,3.21,3.21,0,0,1,1.26-1,4,4,0,0,1,1.72-.36,3.45,3.45,0,0,1,1.72.41A2.83,2.83,0,0,1,65.81,583a2.54,2.54,0,0,1-.48,1.56,2.47,2.47,0,0,1-1.3.89v.08a2.55,2.55,0,0,1,1.6.87,2.62,2.62,0,0,1,.58,1.73,2.76,2.76,0,0,1-.48,1.59,3.35,3.35,0,0,1-1.3,1.1A4.22,4.22,0,0,1,62.55,591.22Z"/><path d="M71.9,591.22a3.25,3.25,0,0,1-2-.65,4,4,0,0,1-1.28-1.9,10.26,10.26,0,0,1,0-6,4.12,4.12,0,0,1,1.29-1.9,3.44,3.44,0,0,1,4,0,4.12,4.12,0,0,1,1.29,1.9,10.26,10.26,0,0,1,0,6,4,4,0,0,1-1.28,1.9A3.24,3.24,0,0,1,71.9,591.22Zm0-1.16a2,2,0,0,0,1.83-1.14,6.59,6.59,0,0,0,.66-3.26,8.23,8.23,0,0,0-.3-2.39,3.37,3.37,0,0,0-.85-1.51,1.94,1.94,0,0,0-1.34-.52,2,2,0,0,0-1.84,1.16,6.64,6.64,0,0,0-.66,3.26,8.28,8.28,0,0,0,.3,2.39,3.29,3.29,0,0,0,.85,1.49A1.89,1.89,0,0,0,71.9,590.06Z"/></g><g class="cls-3"><path d="M58.56,530.57v-1.08L63.31,522h.79v1.67h-.53L60,529.32v.09h6.41v1.16Zm5.09,2.22V522H64.9v10.82Z"/><path d="M71.9,532.94a3.25,3.25,0,0,1-2-.65,4,4,0,0,1-1.28-1.9,10.26,10.26,0,0,1,0-6,4.12,4.12,0,0,1,1.29-1.9,3.44,3.44,0,0,1,4,0,4.12,4.12,0,0,1,1.29,1.9,10.26,10.26,0,0,1,0,6,4,4,0,0,1-1.28,1.9A3.24,3.24,0,0,1,71.9,532.94Zm0-1.16a2,2,0,0,0,1.83-1.15,6.55,6.55,0,0,0,.66-3.25,8.23,8.23,0,0,0-.3-2.39,3.37,3.37,0,0,0-.85-1.51A1.9,1.9,0,0,0,71.9,523a2,2,0,0,0-1.84,1.16,6.62,6.62,0,0,0-.66,3.26,8.28,8.28,0,0,0,.3,2.39,3.29,3.29,0,0,0,.85,1.49A1.93,1.93,0,0,0,71.9,531.78Z"/></g><g class="cls-3"><path d="M62.7,474.66a3.76,3.76,0,0,1-1.67-.37,3.15,3.15,0,0,1-1.2-1,2.78,2.78,0,0,1-.49-1.47h1.27a1.73,1.73,0,0,0,.67,1.22,2.18,2.18,0,0,0,1.42.48,2.26,2.26,0,0,0,2-1.17,2.56,2.56,0,0,0,.3-1.24,2.62,2.62,0,0,0-.31-1.27,2.39,2.39,0,0,0-.85-.88,2.51,2.51,0,0,0-1.23-.33,3.71,3.71,0,0,0-1,.15,3,3,0,0,0-.86.4L59.51,469l.66-5.32h5.62v1.16H61.26L60.88,468H61a2.83,2.83,0,0,1,.83-.44,3.48,3.48,0,0,1,2.82.3,3.46,3.46,0,0,1,1.23,1.29,3.94,3.94,0,0,1,.44,1.87,3.63,3.63,0,0,1-.46,1.85,3.39,3.39,0,0,1-1.27,1.28A3.62,3.62,0,0,1,62.7,474.66Z"/><path d="M71.9,474.66a3.25,3.25,0,0,1-2-.65,4,4,0,0,1-1.28-1.9,10.26,10.26,0,0,1,0-6,4.12,4.12,0,0,1,1.29-1.9,3.44,3.44,0,0,1,4,0,4.12,4.12,0,0,1,1.29,1.9,10.26,10.26,0,0,1,0,6,4,4,0,0,1-1.28,1.9A3.24,3.24,0,0,1,71.9,474.66Zm0-1.16a2,2,0,0,0,1.83-1.15,6.55,6.55,0,0,0,.66-3.25,8.36,8.36,0,0,0-.3-2.4,3.33,3.33,0,0,0-.85-1.5,1.9,1.9,0,0,0-1.34-.52,2,2,0,0,0-1.84,1.16,6.59,6.59,0,0,0-.66,3.26,8.28,8.28,0,0,0,.3,2.39,3.29,3.29,0,0,0,.85,1.49A1.93,1.93,0,0,0,71.9,473.5Z"/></g><g class="cls-3"><path d="M62.68,416.38a4.18,4.18,0,0,1-1.33-.26,3.1,3.1,0,0,1-1.22-.82,4.2,4.2,0,0,1-.88-1.57,8,8,0,0,1-.33-2.49,10.84,10.84,0,0,1,.27-2.55,5.88,5.88,0,0,1,.78-1.88,3.6,3.6,0,0,1,1.24-1.16,3.4,3.4,0,0,1,1.64-.39,3.51,3.51,0,0,1,1.62.36,3.14,3.14,0,0,1,1.16,1,3.51,3.51,0,0,1,.58,1.48H64.92a2.38,2.38,0,0,0-.7-1.21,1.92,1.92,0,0,0-1.37-.48,2.25,2.25,0,0,0-2,1.09,5.67,5.67,0,0,0-.73,3.08h.09a3.05,3.05,0,0,1,.7-.77,3.24,3.24,0,0,1,.91-.5,3.3,3.3,0,0,1,1-.17,3.21,3.21,0,0,1,1.7.46,3.44,3.44,0,0,1,1.24,1.27,3.67,3.67,0,0,1,.46,1.86,3.82,3.82,0,0,1-.44,1.84,3.47,3.47,0,0,1-1.26,1.32A3.71,3.71,0,0,1,62.68,416.38Zm0-1.17a2.26,2.26,0,0,0,1.2-.33,2.48,2.48,0,0,0,.84-.89,2.63,2.63,0,0,0,.31-1.25,2.51,2.51,0,0,0-.3-1.22,2.31,2.31,0,0,0-.82-.88,2.17,2.17,0,0,0-1.19-.33,2.25,2.25,0,0,0-.93.2,2.4,2.4,0,0,0-.76.54,2.44,2.44,0,0,0-.51.79,2.4,2.4,0,0,0-.19.92,2.56,2.56,0,0,0,.31,1.21,2.47,2.47,0,0,0,.83.9A2.19,2.19,0,0,0,62.68,415.21Z"/><path d="M71.9,416.38a3.2,3.2,0,0,1-2-.66,4,4,0,0,1-1.28-1.89,10.26,10.26,0,0,1,0-6,4.07,4.07,0,0,1,1.29-1.9,3.44,3.44,0,0,1,4,0,4.07,4.07,0,0,1,1.29,1.9,10.26,10.26,0,0,1,0,6,4,4,0,0,1-1.28,1.89A3.19,3.19,0,0,1,71.9,416.38Zm0-1.17a2,2,0,0,0,1.83-1.14,6.55,6.55,0,0,0,.66-3.25,8.36,8.36,0,0,0-.3-2.4,3.28,3.28,0,0,0-.85-1.5,1.9,1.9,0,0,0-1.34-.52,2,2,0,0,0-1.84,1.15,6.66,6.66,0,0,0-.66,3.27,8.28,8.28,0,0,0,.3,2.39,3.29,3.29,0,0,0,.85,1.49A1.92,1.92,0,0,0,71.9,415.21Z"/></g><g class="cls-3"><path d="M60.44,358l4.84-9.58v-.08H59.7v-1.17h6.93v1.23L61.81,358Z"/><path d="M71.9,358.09a3.19,3.19,0,0,1-2-.65,4,4,0,0,1-1.28-1.9,10.22,10.22,0,0,1,0-6,4.15,4.15,0,0,1,1.29-1.91,3.48,3.48,0,0,1,4,0,4.15,4.15,0,0,1,1.29,1.91,10.22,10.22,0,0,1,0,6,4,4,0,0,1-1.28,1.9A3.19,3.19,0,0,1,71.9,358.09Zm0-1.16a2,2,0,0,0,1.83-1.14,6.59,6.59,0,0,0,.66-3.26,8.33,8.33,0,0,0-.3-2.39,3.28,3.28,0,0,0-.85-1.5,1.9,1.9,0,0,0-1.34-.52,2,2,0,0,0-1.84,1.15,6.64,6.64,0,0,0-.66,3.26,8.23,8.23,0,0,0,.3,2.39,3.19,3.19,0,0,0,.85,1.5A1.92,1.92,0,0,0,71.9,356.93Z"/></g><g class="cls-3"><path d="M62.66,299.81a4.45,4.45,0,0,1-1.92-.39,3.07,3.07,0,0,1-1.3-1.07,2.72,2.72,0,0,1-.46-1.56,3,3,0,0,1,.27-1.27,2.7,2.7,0,0,1,.75-1,2.34,2.34,0,0,1,1.07-.5V294a2.11,2.11,0,0,1-1.23-.88,2.63,2.63,0,0,1-.46-1.53,2.69,2.69,0,0,1,.42-1.48,2.92,2.92,0,0,1,1.17-1,3.93,3.93,0,0,1,3.37,0,3,3,0,0,1,1.16,1,2.72,2.72,0,0,1,0,3,2.14,2.14,0,0,1-1.23.88V294a2.22,2.22,0,0,1,1.06.5,2.94,2.94,0,0,1,.75,1,3,3,0,0,1,.29,1.27,2.74,2.74,0,0,1-.48,1.56,3.1,3.1,0,0,1-1.29,1.07A4.43,4.43,0,0,1,62.66,299.81Zm0-1.16a3.09,3.09,0,0,0,1.27-.24,1.89,1.89,0,0,0,.82-.67,1.83,1.83,0,0,0,.3-1,2,2,0,0,0-.32-1.08,2.19,2.19,0,0,0-.85-.74,2.67,2.67,0,0,0-1.22-.27,2.71,2.71,0,0,0-1.23.27,2.15,2.15,0,0,0-.86.74,2,2,0,0,0-.3,1.08,1.82,1.82,0,0,0,.28,1,1.92,1.92,0,0,0,.83.67A3.14,3.14,0,0,0,62.66,298.65Zm0-5.14a2.26,2.26,0,0,0,1-.23,1.78,1.78,0,0,0,.71-.65,1.87,1.87,0,0,0,.27-1,1.91,1.91,0,0,0-.26-1,1.78,1.78,0,0,0-.7-.63,2.53,2.53,0,0,0-2.11,0,1.68,1.68,0,0,0-.71.63,1.9,1.9,0,0,0-.24,1,1.86,1.86,0,0,0,.25,1,1.78,1.78,0,0,0,.71.65A2.35,2.35,0,0,0,62.66,293.51Z"/><path d="M71.9,299.81a3.25,3.25,0,0,1-2-.65,4,4,0,0,1-1.28-1.9,10.26,10.26,0,0,1,0-6,4.12,4.12,0,0,1,1.29-1.9,3.44,3.44,0,0,1,4,0,4.12,4.12,0,0,1,1.29,1.9,10.26,10.26,0,0,1,0,6,4,4,0,0,1-1.28,1.9A3.24,3.24,0,0,1,71.9,299.81Zm0-1.16a2,2,0,0,0,1.83-1.14,6.59,6.59,0,0,0,.66-3.26,8.28,8.28,0,0,0-.3-2.39,3.37,3.37,0,0,0-.85-1.51,1.94,1.94,0,0,0-1.34-.52A2,2,0,0,0,70.06,291a6.64,6.64,0,0,0-.66,3.26,8.23,8.23,0,0,0,.3,2.39,3.24,3.24,0,0,0,.85,1.5A1.92,1.92,0,0,0,71.9,298.65Z"/></g><g class="cls-3"><path d="M62.53,230.41a3.88,3.88,0,0,1,1.33.26,3.1,3.1,0,0,1,1.22.82,4,4,0,0,1,.88,1.56,7.92,7.92,0,0,1,.33,2.48,11,11,0,0,1-.27,2.56,5.88,5.88,0,0,1-.78,1.88A3.42,3.42,0,0,1,64,241.13a3.29,3.29,0,0,1-1.64.4,3.57,3.57,0,0,1-1.62-.36,3.14,3.14,0,0,1-1.16-1,3.54,3.54,0,0,1-.58-1.5h1.29a2.37,2.37,0,0,0,.7,1.22,1.89,1.89,0,0,0,1.37.49,2.26,2.26,0,0,0,2-1.1,5.52,5.52,0,0,0,.73-3.09H65a3.22,3.22,0,0,1-.7.77,3,3,0,0,1-.9.49,3.11,3.11,0,0,1-1.06.18,3.21,3.21,0,0,1-1.7-.46,3.46,3.46,0,0,1-1.24-1.28,3.65,3.65,0,0,1-.46-1.85,3.83,3.83,0,0,1,.44-1.82,3.33,3.33,0,0,1,1.26-1.32A3.5,3.5,0,0,1,62.53,230.41Zm0,1.16a2.2,2.2,0,0,0-1.19.33,2.32,2.32,0,0,0-.84.89,2.48,2.48,0,0,0-.31,1.24,2.66,2.66,0,0,0,.29,1.23,2.37,2.37,0,0,0,.82.87,2.2,2.2,0,0,0,1.19.33,2.3,2.3,0,0,0,.94-.2,2.39,2.39,0,0,0,.75-.55,2.51,2.51,0,0,0,.51-.78,2.26,2.26,0,0,0,.19-.92,2.32,2.32,0,0,0-.31-1.19,2.47,2.47,0,0,0-.83-.9A2.17,2.17,0,0,0,62.53,231.57Z"/><path d="M71.9,241.53a3.25,3.25,0,0,1-2-.65,4,4,0,0,1-1.28-1.9,10.26,10.26,0,0,1,0-6,4.12,4.12,0,0,1,1.29-1.9,3.44,3.44,0,0,1,4,0,4.12,4.12,0,0,1,1.29,1.9,10.26,10.26,0,0,1,0,6,4,4,0,0,1-1.28,1.9A3.24,3.24,0,0,1,71.9,241.53Zm0-1.16a2,2,0,0,0,1.83-1.14,6.62,6.62,0,0,0,.66-3.26,8.28,8.28,0,0,0-.3-2.39,3.37,3.37,0,0,0-.85-1.51,1.94,1.94,0,0,0-1.34-.52,2,2,0,0,0-1.84,1.16A6.64,6.64,0,0,0,69.4,236a8.28,8.28,0,0,0,.3,2.39,3.29,3.29,0,0,0,.85,1.49A1.89,1.89,0,0,0,71.9,240.37Z"/></g><g class="cls-3"><path d="M56,172.28V183.1H54.65v-9.45h-.07l-2.64,1.76v-1.34l2.71-1.79Z"/><path d="M62.6,183.25a3.2,3.2,0,0,1-2-.66,4,4,0,0,1-1.28-1.89,10.26,10.26,0,0,1,0-6,4.12,4.12,0,0,1,1.29-1.9,3.44,3.44,0,0,1,4.05,0,4.12,4.12,0,0,1,1.29,1.9,10.26,10.26,0,0,1,0,6,4,4,0,0,1-1.28,1.89A3.19,3.19,0,0,1,62.6,183.25Zm0-1.16a2,2,0,0,0,1.83-1.15,6.55,6.55,0,0,0,.66-3.25,8.36,8.36,0,0,0-.3-2.4,3.33,3.33,0,0,0-.85-1.5,1.9,1.9,0,0,0-1.34-.52,2,2,0,0,0-1.84,1.15,6.66,6.66,0,0,0-.66,3.27,8.28,8.28,0,0,0,.3,2.39,3.2,3.2,0,0,0,.85,1.49A1.93,1.93,0,0,0,62.6,182.09Z"/><path d="M71.9,183.25a3.2,3.2,0,0,1-2-.66,4,4,0,0,1-1.28-1.89,10.26,10.26,0,0,1,0-6,4.12,4.12,0,0,1,1.29-1.9,3.44,3.44,0,0,1,4,0,4.12,4.12,0,0,1,1.29,1.9,10.26,10.26,0,0,1,0,6,4,4,0,0,1-1.28,1.89A3.19,3.19,0,0,1,71.9,183.25Zm0-1.16a2,2,0,0,0,1.83-1.15,6.55,6.55,0,0,0,.66-3.25,8.36,8.36,0,0,0-.3-2.4,3.33,3.33,0,0,0-.85-1.5,1.9,1.9,0,0,0-1.34-.52,2,2,0,0,0-1.84,1.15,6.66,6.66,0,0,0-.66,3.27,8.28,8.28,0,0,0,.3,2.39,3.29,3.29,0,0,0,.85,1.49A1.93,1.93,0,0,0,71.9,182.09Z"/></g><circle cx="101.68" cy="539.6" r="2.97"/><circle cx="107.13" cy="481.32" r="2.97"/><circle cx="109.86" cy="498.8" r="2.97"/><circle cx="128.94" cy="475.49" r="2.97"/><circle cx="131.66" cy="638.68" r="2.97"/><circle cx="134.39" cy="615.37" r="2.97"/><circle cx="137.11" cy="726.1" r="2.97"/><circle cx="139.84" cy="667.82" r="2.97"/><circle cx="142.56" cy="586.23" r="2.97"/><circle cx="145.29" cy="498.8" r="2.97"/><circle cx="148.01" cy="539.6" r="2.97"/><circle cx="150.74" cy="615.37" r="2.97"/><circle cx="153.46" cy="615.37" r="2.97"/><circle cx="156.19" cy="492.97" r="2.97"/><circle cx="158.91" cy="539.6" r="2.97"/><circle cx="161.64" cy="516.29" r="2.97"/><circle cx="180.72" cy="551.26" r="2.97"/><circle cx="183.44" cy="627.02" r="2.97"/><circle cx="186.17" cy="656.16" r="2.97"/><circle cx="188.89" cy="586.23" r="2.97"/><circle cx="194.34" cy="527.94" r="2.97"/><circle cx="197.07" cy="533.77" r="2.97"/><circle cx="199.8" cy="527.94" r="2.97"/><circle cx="202.52" cy="574.57" r="2.97"/><circle cx="205.25" cy="562.91" r="2.97"/><circle cx="207.97" cy="656.16" r="2.97"/><circle cx="210.7" cy="574.57" r="2.97"/><circle cx="224.32" cy="510.46" r="2.97"/><circle cx="235.23" cy="661.99" r="2.97"/><circle cx="237.95" cy="638.68" r="2.97"/><circle cx="240.68" cy="557.08" r="2.97"/><circle cx="243.4" cy="603.71" r="2.97"/><circle cx="248.85" cy="551.26" r="2.97"/><circle cx="251.58" cy="551.26" r="2.97"/><circle cx="254.3" cy="522.12" r="2.97"/><circle cx="273.38" cy="562.91" r="2.97"/><circle cx="278.83" cy="632.85" r="2.97"/><circle cx="281.56" cy="696.96" r="2.97"/><circle cx="284.28" cy="621.2" r="2.97"/><circle cx="287.01" cy="551.26" r="2.97"/><circle cx="289.73" cy="661.99" r="2.97"/><circle cx="292.46" cy="661.99" r="2.97"/><circle cx="295.18" cy="551.26" r="2.97"/><circle cx="303.36" cy="627.02" r="2.97"/><circle cx="306.09" cy="632.85" r="2.97"/><circle cx="308.81" cy="568.74" r="2.97"/><circle cx="311.54" cy="592.05" r="2.97"/><circle cx="314.26" cy="522.12" r="2.97"/><circle cx="319.71" cy="627.02" r="2.97"/><circle cx="322.44" cy="632.85" r="2.97"/><circle cx="325.16" cy="527.94" r="2.97"/><circle cx="336.06" cy="592.05" r="2.97"/><circle cx="338.79" cy="702.79" r="2.97"/><circle cx="341.52" cy="656.16" r="2.97"/><circle cx="344.24" cy="615.37" r="2.97"/><circle cx="346.97" cy="557.08" r="2.97"/><circle cx="349.69" cy="557.08" r="2.97"/><circle cx="352.42" cy="644.51" r="2.97"/><circle cx="355.14" cy="557.08" r="2.97"/><circle cx="357.87" cy="580.4" r="2.97"/><circle cx="360.59" cy="516.29" r="2.97"/><circle cx="363.32" cy="498.8" r="2.97"/><circle cx="366.04" cy="487.15" r="2.97"/><circle cx="368.77" cy="533.77" r="2.97"/><circle cx="371.49" cy="615.37" r="2.97"/><circle cx="374.22" cy="580.4" r="2.97"/><circle cx="376.95" cy="580.4" r="2.97"/><circle cx="379.67" cy="475.49" r="2.97"/><circle cx="382.4" cy="510.46" r="2.97"/><circle cx="385.12" cy="539.6" r="2.97"/><circle cx="387.85" cy="516.29" r="2.97"/><circle cx="390.57" cy="516.29" r="2.97"/><circle cx="393.3" cy="498.8" r="2.97"/><circle cx="396.02" cy="603.71" r="2.97"/><circle cx="398.75" cy="644.51" r="2.97"/><circle cx="401.47" cy="568.74" r="2.97"/><circle cx="404.2" cy="568.74" r="2.97"/><circle cx="406.92" cy="586.23" r="2.97"/><circle cx="409.65" cy="557.08" r="2.97"/><circle cx="412.38" cy="533.77" r="2.97"/><circle cx="415.1" cy="661.99" r="2.97"/><circle cx="417.83" cy="475.49" r="2.97"/><circle cx="434.18" cy="527.94" r="2.97"/><circle cx="436.9" cy="603.71" r="2.97"/><circle cx="439.63" cy="592.05" r="2.97"/><circle cx="442.35" cy="574.57" r="2.97"/><circle cx="445.08" cy="621.2" r="2.97"/><circle cx="447.81" cy="592.05" r="2.97"/><circle cx="450.53" cy="621.2" r="2.97"/><circle cx="453.26" cy="644.51" r="2.97"/><circle cx="455.98" cy="638.68" r="2.97"/><circle cx="458.71" cy="597.88" r="2.97"/><circle cx="461.43" cy="586.23" r="2.97"/><circle cx="466.88" cy="621.2" r="2.97"/><circle cx="469.61" cy="632.85" r="2.97"/><circle cx="472.33" cy="656.16" r="2.97"/><circle cx="475.06" cy="656.16" r="2.97"/><circle cx="477.78" cy="696.96" r="2.97"/><circle cx="480.51" cy="656.16" r="2.97"/><circle cx="483.24" cy="667.82" r="2.97"/><circle cx="485.96" cy="702.79" r="2.97"/><circle cx="488.69" cy="691.13" r="2.97"/><circle cx="491.41" cy="691.13" r="2.97"/><circle cx="494.14" cy="661.99" r="2.97"/><circle cx="496.86" cy="661.99" r="2.97"/><circle cx="499.59" cy="714.45" r="2.97"/><circle cx="502.31" cy="720.28" r="2.97"/><circle cx="505.04" cy="702.79" r="2.97"/><circle cx="507.76" cy="644.51" r="2.97"/><circle cx="510.49" cy="592.05" r="2.97"/><circle cx="513.21" cy="650.34" r="2.97" transform="translate(-171.87 1116.16) rotate(-85.93)"/><circle cx="515.94" cy="656.16" r="2.97"/><circle cx="518.67" cy="644.51" r="2.97"/><circle cx="521.39" cy="656.16" r="2.97"/><circle cx="524.12" cy="667.82" r="2.97"/><circle cx="526.84" cy="679.48" r="2.97"/><circle cx="529.57" cy="685.31" r="2.97"/><circle cx="532.29" cy="696.96" r="2.97"/><circle cx="535.02" cy="667.82" r="2.97"/><circle cx="537.74" cy="615.37" r="2.97"/><circle cx="540.47" cy="638.68" r="2.97"/><circle cx="543.19" cy="632.85" r="2.97"/><circle cx="545.92" cy="650.34" r="2.97"/><circle cx="548.64" cy="661.99" r="2.97"/><circle cx="551.37" cy="650.34" r="2.97"/><circle cx="556.82" cy="562.91" r="2.97"/><circle cx="559.55" cy="627.02" r="2.97"/><circle cx="562.27" cy="644.51" r="2.97"/><circle cx="565" cy="673.65" r="2.97"/><circle cx="567.72" cy="696.96" r="2.97"/><circle cx="570.45" cy="673.65" r="2.97"/><circle cx="573.17" cy="685.31" r="2.97"/><circle cx="575.9" cy="661.99" r="2.97"/><circle cx="578.62" cy="656.16" r="2.97"/><circle cx="581.35" cy="650.34" r="2.97"/><circle cx="584.07" cy="656.16" r="2.97"/><circle cx="586.8" cy="679.48" r="2.97" transform="translate(-95.06 1263.51) rotate(-89.77)"/><circle cx="589.53" cy="656.16" r="2.97"/><circle cx="592.25" cy="679.48" r="2.97"/><circle cx="594.98" cy="691.13" r="2.97"/><circle cx="597.7" cy="638.68" r="2.97" transform="translate(-2.63 2.48) rotate(-0.24)"/><circle cx="600.43" cy="609.54" r="2.97"/><circle cx="603.15" cy="638.68" r="2.97"/><circle cx="605.88" cy="627.02" r="2.97"/><circle cx="608.6" cy="621.2" r="2.97"/><circle cx="611.33" cy="597.88" r="2.97"/><circle cx="614.05" cy="592.05" r="2.97"/><circle cx="616.78" cy="545.43" r="2.97"/><circle cx="619.5" cy="597.88" r="2.97"/><circle cx="622.23" cy="562.91" r="2.97"/><circle cx="624.96" cy="650.34" r="2.97"/><circle cx="627.68" cy="609.54" r="2.97"/><circle cx="630.41" cy="580.4" r="2.97"/><circle cx="633.13" cy="597.88" r="2.97"/><circle cx="635.86" cy="615.37" r="2.97"/><circle cx="638.58" cy="615.37" r="2.97"/><circle cx="641.31" cy="615.37" r="2.97"/><circle cx="644.03" cy="603.71" r="2.97"/><circle cx="652.21" cy="557.08" r="2.97"/><circle cx="654.93" cy="568.74" r="2.97"/><circle cx="657.66" cy="510.46" r="2.97"/><circle cx="660.39" cy="592.05" r="2.97"/><circle cx="663.11" cy="644.51" r="2.97"/><circle cx="665.84" cy="527.94" r="2.97"/><circle cx="668.56" cy="679.48" r="2.97"/><circle cx="671.29" cy="656.16" r="2.97"/><circle cx="674.01" cy="650.34" r="2.97"/><circle cx="676.74" cy="650.34" r="2.97"/><circle cx="679.46" cy="632.85" r="2.97"/><circle cx="682.19" cy="673.65" r="2.97"/><circle cx="684.91" cy="621.2" r="2.97"/><circle cx="687.64" cy="615.37" r="2.97"/><circle cx="690.36" cy="597.88" r="2.97"/><circle cx="693.09" cy="545.43" r="2.97"/><circle cx="695.82" cy="650.34" r="2.97"/><circle cx="698.54" cy="656.16" r="2.97"/><circle cx="701.27" cy="667.82" r="2.97"/><circle cx="703.99" cy="661.99" r="2.97"/><circle cx="706.72" cy="667.82" r="2.97"/><circle cx="709.44" cy="632.85" r="2.97"/><circle cx="712.17" cy="667.82" r="2.97"/><circle cx="714.89" cy="661.99" r="2.97"/><circle cx="717.62" cy="656.16" r="2.97"/><circle cx="720.34" cy="673.65" r="2.97"/><circle cx="723.07" cy="661.99" r="2.97"/><circle cx="725.79" cy="708.62" r="2.97"/><circle cx="728.52" cy="685.31" r="2.97"/><circle cx="731.25" cy="638.68" r="2.97"/><circle cx="733.97" cy="627.02" r="2.97"/><circle cx="736.7" cy="656.16" r="2.97"/><circle cx="739.42" cy="702.79" r="2.97"/><circle cx="742.15" cy="667.82" r="2.97"/><circle cx="744.87" cy="644.51" r="2.97"/><circle cx="747.6" cy="644.51" r="2.97"/><circle cx="750.32" cy="650.34" r="2.97"/><circle cx="753.05" cy="644.51" r="2.97"/><circle cx="755.77" cy="650.34" r="2.97"/><circle cx="758.5" cy="644.51" r="2.97"/><circle cx="761.22" cy="632.85" r="2.97"/><circle cx="763.95" cy="621.2" r="2.97"/><circle cx="766.68" cy="603.71" r="2.97"/><circle cx="769.4" cy="627.02" r="2.97"/><circle cx="772.13" cy="603.71" r="2.97"/><circle cx="774.85" cy="615.37" r="2.97"/><circle cx="777.58" cy="650.34" r="2.97"/><circle cx="780.3" cy="656.16" r="2.97"/><circle cx="783.03" cy="644.51" r="2.97"/><circle cx="785.75" cy="656.16" r="2.97"/><circle cx="788.48" cy="638.68" r="2.97"/><circle cx="791.2" cy="656.16" r="2.97"/><circle cx="793.93" cy="650.34" r="2.97"/><circle cx="796.65" cy="673.65" r="2.97"/><circle cx="799.38" cy="702.79" r="2.97"/><circle cx="802.11" cy="702.79" r="2.97"/><circle cx="804.83" cy="644.51" r="2.97"/><circle cx="807.56" cy="568.74" r="2.97"/><circle cx="810.28" cy="574.57" r="2.97"/><circle cx="813.01" cy="574.57" r="2.97"/><circle cx="815.73" cy="644.51" r="2.97"/><circle cx="818.46" cy="574.57" r="2.97"/><circle cx="821.18" cy="632.85" r="2.97"/><circle cx="823.91" cy="650.34" r="2.97"/><circle cx="826.63" cy="644.51" r="2.97"/><circle cx="829.36" cy="632.85" r="2.97"/><circle cx="832.08" cy="603.71" r="2.97"/><circle cx="834.81" cy="685.31" r="2.97"/><circle cx="837.54" cy="679.48" r="2.97"/><circle cx="840.26" cy="673.65" r="2.97"/><circle cx="842.99" cy="586.23" r="2.97"/><circle cx="845.71" cy="551.26" r="2.97"/><circle cx="848.44" cy="557.08" r="2.97"/><circle cx="851.16" cy="574.57" r="2.97"/><circle cx="853.89" cy="673.65" r="2.97"/><circle cx="856.61" cy="638.68" r="2.97"/><circle cx="864.79" cy="685.31" r="2.97"/><circle cx="867.51" cy="714.45" r="2.97"/><circle cx="870.24" cy="667.82" r="2.97"/><circle cx="872.97" cy="627.02" r="2.97"/><circle cx="875.69" cy="516.29" r="2.97"/><circle cx="881.14" cy="522.12" r="2.97"/><circle cx="883.87" cy="545.43" r="2.97"/><circle cx="900.22" cy="586.23" r="2.97"/><circle cx="902.94" cy="627.02" r="2.97"/><circle cx="911.12" cy="597.88" r="2.97"/><circle cx="913.85" cy="609.54" r="2.97"/><circle cx="916.57" cy="586.23" r="2.97"/><circle cx="919.3" cy="492.97" r="2.97"/><circle cx="922.02" cy="621.2" r="2.97"/><circle cx="924.75" cy="597.88" r="2.97"/><circle cx="932.92" cy="545.43" r="2.97"/><circle cx="935.65" cy="597.88" r="2.97"/><circle cx="938.37" cy="592.05" r="2.97"/><circle cx="946.55" cy="492.97" r="2.97"/><circle cx="949.28" cy="597.88" r="2.97"/><circle cx="952" cy="644.51" r="2.97"/><circle cx="954.73" cy="592.05" r="2.97"/><circle cx="957.45" cy="545.43" r="2.97"/><circle cx="960.18" cy="557.08" r="2.97"/><circle cx="962.9" cy="661.99" r="2.97"/><circle cx="965.63" cy="609.54" r="2.97"/><circle cx="968.35" cy="522.12" r="2.97"/><circle cx="973.8" cy="533.77" r="2.97"/><circle cx="976.53" cy="661.99" r="2.97"/><circle cx="979.26" cy="749.42" r="2.97"/><circle cx="981.98" cy="661.99" r="2.97"/><circle cx="984.71" cy="673.65" r="2.97"/><circle cx="987.43" cy="627.02" r="2.97"/><circle cx="990.16" cy="615.37" r="2.97"/><circle cx="992.88" cy="574.57" r="2.97"/><circle cx="995.61" cy="568.74" r="2.97"/><circle cx="998.33" cy="539.6" r="2.97"/><circle cx="1001.06" cy="545.43" r="2.97"/><circle cx="1006.51" cy="492.97" r="2.97"/><circle cx="1009.23" cy="527.94" r="2.97"/><circle cx="1011.96" cy="557.08" r="2.97"/><circle cx="1014.69" cy="551.26" r="2.97"/><circle cx="1017.41" cy="539.6" r="2.97"/><circle cx="1069.19" cy="603.71" r="2.97"/><circle cx="1071.92" cy="731.93" r="2.97"/><circle cx="1074.64" cy="743.59" r="2.97"/><circle cx="1077.37" cy="667.82" r="2.97"/><circle cx="1080.09" cy="632.85" r="2.97"/><circle cx="1082.82" cy="580.4" r="2.97"/><circle cx="1085.55" cy="586.23" r="2.97"/><circle cx="1088.27" cy="609.54" r="2.97"/><circle class="cls-4" cx="96.23" cy="440.52" r="2.97"/><circle class="cls-4" cx="98.96" cy="353.1" r="2.97"/><circle class="cls-4" cx="104.41" cy="393.89" r="2.97"/><circle class="cls-4" cx="112.58" cy="335.61" r="2.97"/><circle class="cls-4" cx="115.31" cy="370.58" r="2.97"/><circle class="cls-4" cx="118.03" cy="382.24" r="2.97"/><circle class="cls-4" cx="120.76" cy="440.52" r="2.97"/><circle class="cls-4" cx="123.48" cy="434.69" r="2.97"/><circle class="cls-4" cx="126.21" cy="446.35" r="2.97"/><circle class="cls-4" cx="164.37" cy="463.83" r="2.97"/><circle class="cls-4" cx="167.09" cy="463.83" r="2.97"/><circle class="cls-4" cx="169.82" cy="335.61" r="2.97"/><circle class="cls-4" cx="172.54" cy="458.01" r="2.97"/><circle class="cls-4" cx="175.27" cy="452.18" r="2.97"/><circle class="cls-4" cx="177.99" cy="458.01" r="2.97"/><circle class="cls-4" cx="191.62" cy="364.75" r="2.97"/><circle class="cls-4" cx="213.42" cy="411.38" r="2.97"/><circle class="cls-4" cx="216.15" cy="463.83" r="2.97"/><circle class="cls-4" cx="218.87" cy="341.44" r="2.97"/><circle class="cls-4" cx="221.6" cy="405.55" r="2.97"/><circle class="cls-4" cx="227.05" cy="446.35" r="2.97"/><circle class="cls-4" cx="229.77" cy="446.35" r="2.97"/><circle class="cls-4" cx="232.5" cy="347.27" r="2.97"/><circle class="cls-4" cx="246.13" cy="370.58" r="2.97"/><circle class="cls-4" cx="276.11" cy="469.66" r="2.97"/><circle class="cls-4" cx="297.91" cy="469.66" r="2.97"/><circle class="cls-4" cx="300.63" cy="469.66" r="2.97"/><circle class="cls-4" cx="316.99" cy="434.69" r="2.97"/><circle class="cls-4" cx="327.89" cy="428.86" r="2.97"/><circle class="cls-4" cx="330.61" cy="405.55" r="2.97"/><circle class="cls-4" cx="333.34" cy="364.75" r="2.97"/><circle class="cls-4" cx="420.55" cy="341.44" r="2.97"/><circle class="cls-4" cx="423.28" cy="370.58" r="2.97"/><circle class="cls-4" cx="426" cy="329.78" r="2.97"/><circle class="cls-4" cx="428.73" cy="347.27" r="2.97"/><circle class="cls-4" cx="431.45" cy="423.04" r="2.97"/><circle class="cls-4" cx="859.34" cy="469.66" r="2.97"/><circle class="cls-4" cx="862.06" cy="440.52" r="2.97"/><circle class="cls-4" cx="878.42" cy="463.83" r="2.97"/><circle class="cls-4" cx="886.59" cy="388.07" r="2.97"/><circle class="cls-4" cx="889.32" cy="254.02" r="2.97"/><circle class="cls-4" cx="892.04" cy="248.19" r="2.97"/><circle class="cls-4" cx="894.77" cy="399.72" r="2.97"/><circle class="cls-4" cx="897.49" cy="417.21" r="2.97"/><circle class="cls-4" cx="905.67" cy="463.83" r="2.97"/><circle class="cls-4" cx="908.4" cy="446.35" r="2.97"/><circle class="cls-4" cx="927.47" cy="452.18" r="2.97"/><circle class="cls-4" cx="930.2" cy="434.69" r="2.97"/><circle class="cls-4" cx="941.1" cy="434.69" r="2.97"/><circle class="cls-4" cx="943.83" cy="405.55" r="2.97"/><circle class="cls-4" cx="971.08" cy="469.66" r="2.97"/><circle class="cls-4" cx="1003.78" cy="417.21" r="2.97"/><circle class="cls-4" cx="1020.14" cy="434.69" r="2.97"/><circle class="cls-4" cx="1022.86" cy="446.35" r="2.97"/><circle class="cls-4" cx="1025.59" cy="411.38" r="2.97"/><circle class="cls-4" cx="1028.31" cy="312.3" r="2.97"/><circle class="cls-4" cx="1031.04" cy="294.81" r="2.97"/><circle class="cls-4" cx="1055.57" cy="312.3" r="2.97"/><circle class="cls-4" cx="1058.29" cy="201.56" r="2.97"/><circle class="cls-4" cx="1061.02" cy="376.41" r="2.97"/><circle class="cls-4" cx="1063.74" cy="399.72" r="2.97"/><circle class="cls-4" cx="1066.47" cy="434.69" r="2.97"/><path d="M41.16,137.18v-14h1.56v6a3,3,0,0,0,.35,1.45,2.47,2.47,0,0,0,1,1,2.91,2.91,0,0,0,1.47.35,3,3,0,0,0,1.48-.35,2.5,2.5,0,0,0,1-1,2.92,2.92,0,0,0,.34-1.44v-6h1.56v10.15H48.32v-1.51h-.07a3,3,0,0,1-1.15,1.22,3.11,3.11,0,0,1-1.58.42,3.08,3.08,0,0,1-1.57-.42,3,3,0,0,1-1.15-1.22h-.08v5.31Z"/><path d="M56.83,137.39a5.62,5.62,0,0,1-1.94-.29,4.12,4.12,0,0,1-2.21-1.74l1.25-.87c.14.18.31.39.53.63a2.82,2.82,0,0,0,.89.63,3.46,3.46,0,0,0,1.48.27,3.28,3.28,0,0,0,2-.6,2.16,2.16,0,0,0,.8-1.86V131.5h-.13c-.12.18-.28.41-.49.68a2.8,2.8,0,0,1-.9.72,3.31,3.31,0,0,1-1.57.32,4.31,4.31,0,0,1-2.21-.58,4,4,0,0,1-1.53-1.7,5.81,5.81,0,0,1-.57-2.69,6.23,6.23,0,0,1,.55-2.72,4.19,4.19,0,0,1,1.52-1.79,4,4,0,0,1,2.26-.64,3.35,3.35,0,0,1,1.58.32,2.85,2.85,0,0,1,.9.75c.21.27.37.5.48.67h.16v-1.61h1.51v10.44A3.29,3.29,0,0,1,59,137,6.21,6.21,0,0,1,56.83,137.39Zm0-5.57a2.85,2.85,0,0,0,1.58-.43,2.68,2.68,0,0,0,1-1.24,5.08,5.08,0,0,0,.34-1.93,5.24,5.24,0,0,0-.33-1.93,3,3,0,0,0-1-1.32,3,3,0,0,0-3.25,0,3,3,0,0,0-1,1.35,5.1,5.1,0,0,0-.33,1.87,4.92,4.92,0,0,0,.33,1.87,2.94,2.94,0,0,0,1,1.27A2.86,2.86,0,0,0,56.78,131.82Z"/><path d="M68.85,119.21l-4.36,16.2H63.07l4.36-16.2Z"/><path d="M70.7,133.38V123.23h1.51v1.59h.13a2.53,2.53,0,0,1,1-1.27,3.13,3.13,0,0,1,1.7-.45,3,3,0,0,1,1.68.45,3,3,0,0,1,1,1.27h.11a3,3,0,0,1,1.17-1.26,3.58,3.58,0,0,1,1.87-.46,3,3,0,0,1,2.22.85,3.53,3.53,0,0,1,.87,2.64v6.79H82.46v-6.79a1.92,1.92,0,0,0-.61-1.61,2.3,2.3,0,0,0-1.45-.48,2.13,2.13,0,0,0-1.66.64,2.33,2.33,0,0,0-.59,1.63v6.61H76.57v-6.95A1.84,1.84,0,0,0,76,125a2,2,0,0,0-1.45-.53,2.17,2.17,0,0,0-1.13.32,2.54,2.54,0,0,0-.85.9,2.67,2.67,0,0,0-.32,1.31v6.35Z"/><path d="M88.93,127.29a3.44,3.44,0,0,1-1.36-.26,2.32,2.32,0,0,1-.94-.73,1.89,1.89,0,0,1-.38-1.09h1a1.2,1.2,0,0,0,.26.66,1.48,1.48,0,0,0,.6.42,2.23,2.23,0,0,0,.83.15,2.13,2.13,0,0,0,.9-.18,1.45,1.45,0,0,0,.62-.49,1.21,1.21,0,0,0,.22-.73,1.41,1.41,0,0,0-.21-.77,1.55,1.55,0,0,0-.63-.52,2.41,2.41,0,0,0-1-.19h-.63v-.85h.63a1.77,1.77,0,0,0,.82-.17,1.3,1.3,0,0,0,.56-.47,1.39,1.39,0,0,0,0-1.42,1.26,1.26,0,0,0-.5-.47,1.67,1.67,0,0,0-.76-.16,2,2,0,0,0-.77.15,1.38,1.38,0,0,0-.58.42,1.15,1.15,0,0,0-.25.68h-.92a1.86,1.86,0,0,1,.37-1.09,2.3,2.3,0,0,1,.92-.73,2.86,2.86,0,0,1,1.25-.26,2.46,2.46,0,0,1,1.25.29,2.17,2.17,0,0,1,.81.78,2,2,0,0,1,.28,1,1.85,1.85,0,0,1-.35,1.13,1.75,1.75,0,0,1-.94.65v.07a1.83,1.83,0,0,1,1.16.63,2.08,2.08,0,0,1,.07,2.41,2.44,2.44,0,0,1-.95.81A3.12,3.12,0,0,1,88.93,127.29Z"/><path d="M288.84,175.3a1.57,1.57,0,0,0-.69-1.17,2.69,2.69,0,0,0-1.55-.41,3.07,3.07,0,0,0-1.15.2,1.86,1.86,0,0,0-.75.58,1.32,1.32,0,0,0-.27.82,1.16,1.16,0,0,0,.18.66,1.44,1.44,0,0,0,.48.47,3,3,0,0,0,.65.31,5.6,5.6,0,0,0,.66.21l1.05.27a7.72,7.72,0,0,1,1.06.35,3.87,3.87,0,0,1,1,.57,2.66,2.66,0,0,1,.76.87,2.59,2.59,0,0,1,.29,1.25,2.87,2.87,0,0,1-.48,1.64,3.14,3.14,0,0,1-1.37,1.12,5,5,0,0,1-2.16.42,5.18,5.18,0,0,1-2.1-.39,3.1,3.1,0,0,1-1.95-2.79h1.64a1.66,1.66,0,0,0,.38,1,2.08,2.08,0,0,0,.86.58,3.62,3.62,0,0,0,1.16.18,3.17,3.17,0,0,0,1.23-.22,2,2,0,0,0,.86-.61,1.48,1.48,0,0,0,.31-.92,1.17,1.17,0,0,0-.27-.79,2.31,2.31,0,0,0-.74-.51,7.43,7.43,0,0,0-1-.35l-1.28-.35a4.87,4.87,0,0,1-2.06-1,2.35,2.35,0,0,1-.76-1.82,2.7,2.7,0,0,1,.51-1.63,3.46,3.46,0,0,1,1.37-1.09,4.73,4.73,0,0,1,2-.38,4.57,4.57,0,0,1,1.94.38,3.29,3.29,0,0,1,1.33,1.06,2.79,2.79,0,0,1,.51,1.55Z"/><path d="M292.39,186.32V175.16h1.54v1.32h.13a5.63,5.63,0,0,1,.4-.59,2.28,2.28,0,0,1,.72-.59,2.59,2.59,0,0,1,1.21-.25,3.2,3.2,0,0,1,1.76.5,3.36,3.36,0,0,1,1.21,1.43,6,6,0,0,1,0,4.51,3.43,3.43,0,0,1-1.2,1.44,3.07,3.07,0,0,1-1.75.5,2.66,2.66,0,0,1-1.21-.24,2.31,2.31,0,0,1-.73-.59,4,4,0,0,1-.41-.59H294v4.31Zm1.55-7.1a4.07,4.07,0,0,0,.25,1.5,2.29,2.29,0,0,0,.71,1,2,2,0,0,0,2.34,0,2.29,2.29,0,0,0,.72-1,4.18,4.18,0,0,0,.25-1.46,4.12,4.12,0,0,0-.24-1.45,2.28,2.28,0,0,0-.72-1,1.93,1.93,0,0,0-1.19-.36,1.84,1.84,0,0,0-1.16.35,2.17,2.17,0,0,0-.72,1A4.14,4.14,0,0,0,293.94,179.22Z"/><path d="M305.07,183.44a3.87,3.87,0,0,1-2.06-.52,3.34,3.34,0,0,1-1.33-1.45,4.76,4.76,0,0,1-.47-2.2,4.84,4.84,0,0,1,.47-2.2,3.49,3.49,0,0,1,1.31-1.48,3.57,3.57,0,0,1,2-.54,4,4,0,0,1,1.33.23,3.25,3.25,0,0,1,1.16.71,3.47,3.47,0,0,1,.81,1.27,5.4,5.4,0,0,1,.29,1.87v.56H302.1v-1.18H307a2.36,2.36,0,0,0-.25-1.11,1.92,1.92,0,0,0-.71-.76,2,2,0,0,0-1.07-.28,2.12,2.12,0,0,0-1.16.32,2.22,2.22,0,0,0-.76.85,2.42,2.42,0,0,0-.27,1.13v.92a3.1,3.1,0,0,0,.29,1.39,2,2,0,0,0,.81.87,2.46,2.46,0,0,0,1.21.29,2.66,2.66,0,0,0,.82-.12,1.76,1.76,0,0,0,.63-.39A1.87,1.87,0,0,0,307,181l1.49.27a2.67,2.67,0,0,1-.64,1.15,3.06,3.06,0,0,1-1.16.77A4.33,4.33,0,0,1,305.07,183.44Z"/><path d="M313.72,186.49a5.15,5.15,0,0,1-1.67-.25,3.21,3.21,0,0,1-1.13-.68,2.68,2.68,0,0,1-.65-.91l1.35-.56a3.21,3.21,0,0,0,.39.49,1.88,1.88,0,0,0,.65.45,2.7,2.7,0,0,0,1.07.19,2.44,2.44,0,0,0,1.49-.44,1.61,1.61,0,0,0,.58-1.39V181.8h-.1a3.29,3.29,0,0,1-.41.57,2.12,2.12,0,0,1-.73.55,2.63,2.63,0,0,1-1.21.24,3.36,3.36,0,0,1-1.73-.46,3.08,3.08,0,0,1-1.21-1.33,4.78,4.78,0,0,1-.45-2.18,5.14,5.14,0,0,1,.44-2.22,3.33,3.33,0,0,1,1.21-1.42,3.19,3.19,0,0,1,1.75-.5,2.64,2.64,0,0,1,1.22.25,2.45,2.45,0,0,1,.73.59,4.41,4.41,0,0,1,.4.59h.12v-1.32h1.55v8.3a2.79,2.79,0,0,1-.49,1.71,2.87,2.87,0,0,1-1.31,1A5.18,5.18,0,0,1,313.72,186.49Zm0-4.65a2,2,0,0,0,1.15-.32,1.87,1.87,0,0,0,.72-.92,3.62,3.62,0,0,0,.25-1.43,4,4,0,0,0-.24-1.45,2.18,2.18,0,0,0-.72-1,1.84,1.84,0,0,0-1.16-.35,1.91,1.91,0,0,0-1.19.36,2.33,2.33,0,0,0-.72,1,3.93,3.93,0,0,0-.24,1.41,3.8,3.8,0,0,0,.25,1.4,2.07,2.07,0,0,0,.72.94A2,2,0,0,0,313.7,181.84Z"/><path d="M321.08,178.46v4.82H319.5v-8.12H321v1.32h.1a2.4,2.4,0,0,1,.88-1,2.75,2.75,0,0,1,1.52-.39,3,3,0,0,1,1.45.35,2.31,2.31,0,0,1,1,1,3.67,3.67,0,0,1,.34,1.68v5.17h-1.58v-5a2,2,0,0,0-.46-1.38,1.63,1.63,0,0,0-1.26-.5,2,2,0,0,0-1,.24,1.78,1.78,0,0,0-.67.69A2.39,2.39,0,0,0,321.08,178.46Z"/><path d="M329.18,173.91a1,1,0,0,1-.7-.28.88.88,0,0,1-.3-.66.87.87,0,0,1,.3-.67,1,1,0,0,1,.7-.28,1,1,0,0,1,.71.28.9.9,0,0,1,.29.67.91.91,0,0,1-.29.66A1,1,0,0,1,329.18,173.91Zm-.8,9.37v-8.12H330v8.12Z"/><path d="M332.09,183.28v-8.12h1.52v1.32h.1a2,2,0,0,1,.83-1,2.45,2.45,0,0,1,1.37-.38,2.38,2.38,0,0,1,1.37.38,2.32,2.32,0,0,1,.82,1h.08a2.33,2.33,0,0,1,.93-1,2.8,2.8,0,0,1,1.51-.39,2.42,2.42,0,0,1,1.8.7,2.78,2.78,0,0,1,.7,2.08v5.45h-1.58V178a1.44,1.44,0,0,0-.45-1.19,1.6,1.6,0,0,0-1.07-.37,1.57,1.57,0,0,0-1.2.47,1.77,1.77,0,0,0-.43,1.21v5.18h-1.57v-5.4a1.43,1.43,0,0,0-.41-1.06,1.49,1.49,0,0,0-1.08-.4,1.56,1.56,0,0,0-.82.23,1.73,1.73,0,0,0-.61.65,2,2,0,0,0-.23,1v5Z"/><path d="M348.73,183.44a3.89,3.89,0,0,1-2.06-.52,3.34,3.34,0,0,1-1.33-1.45,4.89,4.89,0,0,1-.47-2.2,5,5,0,0,1,.47-2.2,3.52,3.52,0,0,1,3.28-2,4,4,0,0,1,1.33.23,3.25,3.25,0,0,1,1.16.71,3.47,3.47,0,0,1,.81,1.27,5.16,5.16,0,0,1,.3,1.87v.56h-6.46v-1.18h4.91a2.36,2.36,0,0,0-.26-1.11,1.85,1.85,0,0,0-.71-.76,2,2,0,0,0-1.07-.28,2.12,2.12,0,0,0-1.16.32,2.22,2.22,0,0,0-.76.85,2.41,2.41,0,0,0-.26,1.13v.92a3.11,3.11,0,0,0,.28,1.39,2.07,2.07,0,0,0,.81.87,2.49,2.49,0,0,0,1.21.29,2.66,2.66,0,0,0,.82-.12,1.81,1.81,0,0,0,.64-.39,1.72,1.72,0,0,0,.41-.64l1.5.27a2.69,2.69,0,0,1-.65,1.15,3,3,0,0,1-1.15.77A4.38,4.38,0,0,1,348.73,183.44Z"/><path d="M355.56,178.46v4.82H354v-8.12h1.51v1.32h.1a2.4,2.4,0,0,1,.88-1,2.75,2.75,0,0,1,1.52-.39,3,3,0,0,1,1.45.35,2.31,2.31,0,0,1,1,1,3.67,3.67,0,0,1,.34,1.68v5.17h-1.58v-5a2,2,0,0,0-.46-1.38,1.65,1.65,0,0,0-1.26-.5,2,2,0,0,0-1,.24,1.78,1.78,0,0,0-.67.69A2.39,2.39,0,0,0,355.56,178.46Z"/><path d="M366.65,175.16v1.27h-4.43v-1.27Zm-3.24-1.95H365v7.68a1.27,1.27,0,0,0,.14.69.65.65,0,0,0,.35.31,1.28,1.28,0,0,0,.48.09,1.55,1.55,0,0,0,.33,0l.23,0,.28,1.3a2.47,2.47,0,0,1-.39.11,2.8,2.8,0,0,1-.63.06,2.68,2.68,0,0,1-1.17-.22,2,2,0,0,1-.87-.72,2.11,2.11,0,0,1-.33-1.22Z"/><path d="M371.73,183.44a3.81,3.81,0,0,1-2-.52,3.49,3.49,0,0,1-1.32-1.47,4.74,4.74,0,0,1-.47-2.19,4.8,4.8,0,0,1,.47-2.21,3.43,3.43,0,0,1,1.32-1.47,4,4,0,0,1,4,0,3.43,3.43,0,0,1,1.32,1.47,4.8,4.8,0,0,1,.47,2.21,4.74,4.74,0,0,1-.47,2.19,3.49,3.49,0,0,1-1.32,1.47A3.78,3.78,0,0,1,371.73,183.44Zm0-1.33a1.88,1.88,0,0,0,1.22-.39,2.22,2.22,0,0,0,.72-1,4.38,4.38,0,0,0,0-2.86,2.25,2.25,0,0,0-.72-1,1.88,1.88,0,0,0-1.22-.4,1.94,1.94,0,0,0-1.24.4,2.41,2.41,0,0,0-.72,1,4.38,4.38,0,0,0,0,2.86,2.38,2.38,0,0,0,.72,1A1.94,1.94,0,0,0,371.74,182.11Z"/><path d="M282.81,201.88v-8.12h1.53v1.29h.08a1.94,1.94,0,0,1,.79-1,2.17,2.17,0,0,1,1.28-.38h.35l.32,0v1.52l-.34-.06a2.7,2.7,0,0,0-.49,0,2,2,0,0,0-1,.24,1.73,1.73,0,0,0-.69.65,1.75,1.75,0,0,0-.26.94v5Z"/><path d="M289.33,192.51a1,1,0,0,1-.71-.28.91.91,0,0,1,0-1.33,1,1,0,0,1,.71-.28,1,1,0,0,1,.7.28.89.89,0,0,1,0,1.33A1,1,0,0,1,289.33,192.51Zm-.8,9.37v-8.12h1.58v8.12Z"/><path d="M298.32,195.74l-1.43.26a1.73,1.73,0,0,0-.29-.53,1.42,1.42,0,0,0-.52-.4,1.82,1.82,0,0,0-.82-.16,2.07,2.07,0,0,0-1.12.29.9.9,0,0,0-.45.77.81.81,0,0,0,.3.66,2.68,2.68,0,0,0,1,.41l1.29.29a3.57,3.57,0,0,1,1.67.8,1.91,1.91,0,0,1,.55,1.4,2.13,2.13,0,0,1-.42,1.3,2.81,2.81,0,0,1-1.17.89,4.45,4.45,0,0,1-1.73.32,4,4,0,0,1-2.23-.58,2.47,2.47,0,0,1-1.05-1.67l1.52-.23a1.44,1.44,0,0,0,.59.9,2,2,0,0,0,1.16.31,2.12,2.12,0,0,0,1.24-.33.93.93,0,0,0,.46-.79.81.81,0,0,0-.28-.64,1.86,1.86,0,0,0-.86-.39l-1.38-.3a3.32,3.32,0,0,1-1.67-.83,2,2,0,0,1-.55-1.43,2,2,0,0,1,.41-1.26,2.55,2.55,0,0,1,1.1-.84,4.19,4.19,0,0,1,1.63-.31,3.39,3.39,0,0,1,2.07.57A2.7,2.7,0,0,1,298.32,195.74Z"/><path d="M303.63,202a3.79,3.79,0,0,1-2-.53,3.56,3.56,0,0,1-1.3-1.49,5,5,0,0,1-.46-2.17,4.89,4.89,0,0,1,.47-2.18,3.56,3.56,0,0,1,1.31-1.48,3.62,3.62,0,0,1,2-.54,3.77,3.77,0,0,1,1.65.35,3,3,0,0,1,1.17.95,2.82,2.82,0,0,1,.53,1.43h-1.54a1.79,1.79,0,0,0-.57-1,1.72,1.72,0,0,0-1.21-.41,2,2,0,0,0-1.16.34,2.29,2.29,0,0,0-.77,1,3.79,3.79,0,0,0-.27,1.5,4,4,0,0,0,.27,1.53,2.28,2.28,0,0,0,.76,1,2.13,2.13,0,0,0,2,.19,1.55,1.55,0,0,0,.62-.48,1.73,1.73,0,0,0,.35-.75H307a3,3,0,0,1-.51,1.4,3,3,0,0,1-1.14,1A3.85,3.85,0,0,1,303.63,202Z"/><path d="M311,202.06a3.29,3.29,0,0,1-1.39-.29,2.26,2.26,0,0,1-1-.84,2.43,2.43,0,0,1-.36-1.35,2.28,2.28,0,0,1,.26-1.13,2,2,0,0,1,.72-.7,3.72,3.72,0,0,1,1-.39,8.62,8.62,0,0,1,1.13-.2l1.18-.14a1.77,1.77,0,0,0,.66-.18.46.46,0,0,0,.21-.42v0a1.44,1.44,0,0,0-.39-1.08,1.59,1.59,0,0,0-1.15-.38,1.89,1.89,0,0,0-1.89,1.13l-1.48-.33a2.74,2.74,0,0,1,.77-1.2,3.07,3.07,0,0,1,1.18-.67,4.61,4.61,0,0,1,1.4-.21,4.87,4.87,0,0,1,1,.12,2.92,2.92,0,0,1,1,.41,2.27,2.27,0,0,1,.79.86,3.06,3.06,0,0,1,.31,1.45v5.39h-1.55v-1.11h-.06a2.41,2.41,0,0,1-.46.6,2.36,2.36,0,0,1-.79.49A3,3,0,0,1,311,202.06Zm.34-1.27a2.33,2.33,0,0,0,1.13-.26,1.81,1.81,0,0,0,1-1.58v-1a.84.84,0,0,1-.33.16,3.49,3.49,0,0,1-.55.12l-.59.09-.49.07a3.56,3.56,0,0,0-.84.19,1.53,1.53,0,0,0-.6.39,1,1,0,0,0-.22.68,1,1,0,0,0,.43.89A1.9,1.9,0,0,0,311.36,200.79Z"/><path d="M318.71,191.05v10.83h-1.58V191.05Z"/><path d="M323.87,202a3.09,3.09,0,0,1-1.75-.5,3.43,3.43,0,0,1-1.2-1.44,5.21,5.21,0,0,1-.44-2.26,5.34,5.34,0,0,1,.44-2.25,3.36,3.36,0,0,1,1.21-1.43,3.19,3.19,0,0,1,1.75-.5,2.51,2.51,0,0,1,1.22.26,2.14,2.14,0,0,1,.72.58,5.63,5.63,0,0,1,.4.59h.09v-4h1.58v10.83h-1.54v-1.27h-.13a4.62,4.62,0,0,1-.41.6,2.43,2.43,0,0,1-.73.58A2.63,2.63,0,0,1,323.87,202Zm.35-1.34a1.86,1.86,0,0,0,1.16-.36,2.23,2.23,0,0,0,.71-1,4.07,4.07,0,0,0,.25-1.5,4.18,4.18,0,0,0-.24-1.48,2.24,2.24,0,0,0-.72-1,1.84,1.84,0,0,0-1.16-.35,1.88,1.88,0,0,0-1.19.37,2.16,2.16,0,0,0-.71,1,4,4,0,0,0-.24,1.44,4.18,4.18,0,0,0,.24,1.46,2.24,2.24,0,0,0,.72,1A1.85,1.85,0,0,0,324.22,200.69Z"/><path d="M332.51,202.06a3.34,3.34,0,0,1-1.4-.29,2.29,2.29,0,0,1-1-.84,2.35,2.35,0,0,1-.37-1.35,2.17,2.17,0,0,1,.27-1.13,1.91,1.91,0,0,1,.71-.7,3.93,3.93,0,0,1,1-.39,8.34,8.34,0,0,1,1.13-.2l1.18-.14a1.9,1.9,0,0,0,.66-.18.46.46,0,0,0,.21-.42v0a1.44,1.44,0,0,0-.39-1.08,1.62,1.62,0,0,0-1.16-.38,2,2,0,0,0-1.25.35,1.88,1.88,0,0,0-.63.78l-1.49-.33a2.85,2.85,0,0,1,.78-1.2,3.11,3.11,0,0,1,1.17-.67,4.65,4.65,0,0,1,1.4-.21,4.89,4.89,0,0,1,1,.12,3,3,0,0,1,1,.41,2.35,2.35,0,0,1,.79.86,3.06,3.06,0,0,1,.3,1.45v5.39H335v-1.11h-.06a2.67,2.67,0,0,1-.46.6,2.47,2.47,0,0,1-.79.49A3.07,3.07,0,0,1,332.51,202.06Zm.34-1.27a2.29,2.29,0,0,0,1.12-.26,1.89,1.89,0,0,0,.72-.68,1.78,1.78,0,0,0,.24-.9v-1a.72.72,0,0,1-.32.16,3.76,3.76,0,0,1-.55.12l-.6.09-.48.07a3.45,3.45,0,0,0-.84.19,1.53,1.53,0,0,0-.6.39,1,1,0,0,0-.23.68,1,1,0,0,0,.44.89A1.86,1.86,0,0,0,332.85,200.79Z"/><path d="M338.62,201.88v-8.12h1.51v1.32h.1a2.12,2.12,0,0,1,.83-1.05,2.5,2.5,0,0,1,1.38-.38,2.4,2.4,0,0,1,1.37.38,2.3,2.3,0,0,1,.81,1.05h.09a2.31,2.31,0,0,1,.92-1,2.85,2.85,0,0,1,1.51-.39,2.48,2.48,0,0,1,1.81.7,2.78,2.78,0,0,1,.7,2.08v5.45h-1.58v-5.3a1.44,1.44,0,0,0-.45-1.19,1.62,1.62,0,0,0-1.07-.37,1.5,1.5,0,0,0-1.2.47,1.72,1.72,0,0,0-.43,1.21v5.18h-1.58v-5.4a1.39,1.39,0,0,0-.41-1.06,1.45,1.45,0,0,0-1.07-.4,1.6,1.6,0,0,0-.83.23,1.85,1.85,0,0,0-.61.66,2,2,0,0,0-.23,1v5Z"/><path d="M355.26,202a3.87,3.87,0,0,1-2.06-.52,3.34,3.34,0,0,1-1.33-1.45,4.76,4.76,0,0,1-.47-2.2,4.84,4.84,0,0,1,.47-2.2,3.49,3.49,0,0,1,1.31-1.48,3.57,3.57,0,0,1,2-.54,4,4,0,0,1,1.33.23,3.25,3.25,0,0,1,1.16.71,3.51,3.51,0,0,1,.81,1.26,5.5,5.5,0,0,1,.29,1.88v.56h-6.45v-1.18h4.9a2.36,2.36,0,0,0-.25-1.11,2,2,0,0,0-.71-.76,2,2,0,0,0-1.07-.28,2.12,2.12,0,0,0-1.16.32,2.22,2.22,0,0,0-.76.85,2.42,2.42,0,0,0-.27,1.13v.92a3.07,3.07,0,0,0,.29,1.39,2,2,0,0,0,.81.87,2.34,2.34,0,0,0,1.21.3,2.66,2.66,0,0,0,.82-.13,1.86,1.86,0,0,0,.63-.39,1.87,1.87,0,0,0,.42-.64l1.49.27A2.67,2.67,0,0,1,358,201a3.06,3.06,0,0,1-1.16.77A4.33,4.33,0,0,1,355.26,202Z"/><path d="M362.08,197.06v4.82H360.5v-8.12H362v1.32h.1a2.32,2.32,0,0,1,.88-1,2.63,2.63,0,0,1,1.51-.4A3,3,0,0,1,366,194a2.34,2.34,0,0,1,1,1,3.67,3.67,0,0,1,.35,1.68v5.17H365.7v-5a2,2,0,0,0-.46-1.38A1.66,1.66,0,0,0,364,195a1.94,1.94,0,0,0-1,.24,1.68,1.68,0,0,0-.67.7A2.21,2.21,0,0,0,362.08,197.06Z"/><path d="M373.18,193.76V195h-4.43v-1.27Zm-3.25-1.94h1.58v7.67a1.37,1.37,0,0,0,.14.69.7.7,0,0,0,.36.32,1.42,1.42,0,0,0,.48.08,1.69,1.69,0,0,0,.33,0l.22,0,.29,1.3a2.47,2.47,0,0,1-.39.11,2.84,2.84,0,0,1-.64.06,2.67,2.67,0,0,1-1.16-.22,2,2,0,0,1-.87-.72,2.12,2.12,0,0,1-.34-1.22Z"/><path d="M375.72,192.51a1,1,0,0,1-.7-.28.89.89,0,0,1,0-1.33,1,1,0,0,1,.7-.28,1,1,0,0,1,.71.28.91.91,0,0,1,0,1.33A1,1,0,0,1,375.72,192.51Zm-.8,9.37v-8.12h1.58v8.12Z"/><g class="cls-5"><circle class="cls-4" cx="96.2" cy="440.49" r="9.75"/></g><path d="M885.32,183.28h-1.73l3.9-10.83h1.88l3.9,10.83h-1.74l-3.06-8.86h-.08Zm.3-4.24h5.62v1.37h-5.62Z"/><path d="M898,183.44a3.73,3.73,0,0,1-2-.54,3.54,3.54,0,0,1-1.3-1.48,5,5,0,0,1-.45-2.16,4.9,4.9,0,0,1,.46-2.19,3.56,3.56,0,0,1,1.31-1.48,3.65,3.65,0,0,1,2-.54,3.91,3.91,0,0,1,1.64.34,2.94,2.94,0,0,1,1.71,2.39h-1.54a1.87,1.87,0,0,0-.58-1,1.69,1.69,0,0,0-1.21-.41,2,2,0,0,0-1.15.34,2.24,2.24,0,0,0-.77,1,3.7,3.7,0,0,0-.28,1.51,4,4,0,0,0,.27,1.53,2.3,2.3,0,0,0,.77,1,1.9,1.9,0,0,0,1.16.35,2,2,0,0,0,.82-.16,1.7,1.7,0,0,0,.62-.48,2,2,0,0,0,.35-.75h1.54a3,3,0,0,1-.52,1.4,2.87,2.87,0,0,1-1.14,1A3.85,3.85,0,0,1,898,183.44Z"/><path d="M906.44,183.44a3.73,3.73,0,0,1-2-.54,3.47,3.47,0,0,1-1.3-1.48,5,5,0,0,1-.45-2.16,4.9,4.9,0,0,1,.46-2.19,3.56,3.56,0,0,1,1.31-1.48,3.65,3.65,0,0,1,2-.54,3.91,3.91,0,0,1,1.64.34,2.94,2.94,0,0,1,1.71,2.39h-1.54a1.87,1.87,0,0,0-.58-1,1.69,1.69,0,0,0-1.21-.41,2,2,0,0,0-1.15.34,2.24,2.24,0,0,0-.77,1,3.7,3.7,0,0,0-.28,1.51,4,4,0,0,0,.27,1.53,2.3,2.3,0,0,0,.77,1,1.9,1.9,0,0,0,1.16.35,2,2,0,0,0,.82-.16,1.7,1.7,0,0,0,.62-.48,2,2,0,0,0,.35-.75h1.54a3,3,0,0,1-.52,1.4,2.87,2.87,0,0,1-1.14,1A3.85,3.85,0,0,1,906.44,183.44Z"/><path d="M915,183.44a3.87,3.87,0,0,1-2.06-.52,3.42,3.42,0,0,1-1.34-1.45,4.89,4.89,0,0,1-.46-2.2,5,5,0,0,1,.46-2.2,3.52,3.52,0,0,1,3.29-2,4,4,0,0,1,1.33.23,3.25,3.25,0,0,1,1.16.71,3.47,3.47,0,0,1,.81,1.27,5.4,5.4,0,0,1,.29,1.87v.56H912v-1.18h4.9a2.36,2.36,0,0,0-.25-1.11,1.93,1.93,0,0,0-1.78-1,2.12,2.12,0,0,0-1.16.32,2.22,2.22,0,0,0-.76.85,2.42,2.42,0,0,0-.27,1.13v.92A3.1,3.1,0,0,0,913,181a2,2,0,0,0,.81.87,2.43,2.43,0,0,0,1.21.29,2.6,2.6,0,0,0,.81-.12,1.81,1.81,0,0,0,.64-.39,1.87,1.87,0,0,0,.42-.64l1.49.27a2.67,2.67,0,0,1-.64,1.15,3.06,3.06,0,0,1-1.16.77A4.33,4.33,0,0,1,915,183.44Z"/><path d="M921.79,178.46v4.82h-1.58v-8.12h1.52v1.32h.1a2.33,2.33,0,0,1,.88-1,2.71,2.71,0,0,1,1.51-.39,3,3,0,0,1,1.46.35,2.34,2.34,0,0,1,1,1,3.67,3.67,0,0,1,.35,1.68v5.17h-1.58v-5a2,2,0,0,0-.46-1.38,1.66,1.66,0,0,0-1.27-.5,1.94,1.94,0,0,0-1,.24,1.65,1.65,0,0,0-.67.69A2.28,2.28,0,0,0,921.79,178.46Z"/><path d="M935.18,177.14l-1.43.25a1.76,1.76,0,0,0-.28-.52,1.66,1.66,0,0,0-.52-.41,2,2,0,0,0-.82-.15,2,2,0,0,0-1.12.29.9.9,0,0,0-.45.77.81.81,0,0,0,.3.66,2.41,2.41,0,0,0,1,.4l1.29.3a3.43,3.43,0,0,1,1.67.8,1.87,1.87,0,0,1,.55,1.4,2.13,2.13,0,0,1-.42,1.3,2.81,2.81,0,0,1-1.17.89,4.41,4.41,0,0,1-1.73.32,3.85,3.85,0,0,1-2.22-.58,2.45,2.45,0,0,1-1.06-1.67l1.53-.23a1.43,1.43,0,0,0,.58.9,2,2,0,0,0,1.16.31,2.09,2.09,0,0,0,1.24-.33,1,1,0,0,0,.47-.79.85.85,0,0,0-.28-.64,1.86,1.86,0,0,0-.87-.4l-1.37-.3a3.23,3.23,0,0,1-1.68-.82,2,2,0,0,1-.54-1.43,2,2,0,0,1,.4-1.26,2.65,2.65,0,0,1,1.11-.84,4.1,4.1,0,0,1,1.62-.31,3.35,3.35,0,0,1,2.07.57A2.65,2.65,0,0,1,935.18,177.14Z"/><path d="M937.87,173.91a1,1,0,0,1-.7-.28.88.88,0,0,1-.3-.66.87.87,0,0,1,.3-.67,1,1,0,0,1,.7-.28,1,1,0,0,1,.71.28.9.9,0,0,1,.29.67.91.91,0,0,1-.29.66A1,1,0,0,1,937.87,173.91Zm-.8,9.37v-8.12h1.58v8.12Z"/><path d="M944.2,183.44a3.84,3.84,0,0,1-2-.52,3.63,3.63,0,0,1-1.32-1.47,4.87,4.87,0,0,1-.47-2.19,4.93,4.93,0,0,1,.47-2.21,3.56,3.56,0,0,1,1.32-1.47,4,4,0,0,1,4,0,3.43,3.43,0,0,1,1.32,1.47,4.93,4.93,0,0,1,.47,2.21,4.87,4.87,0,0,1-.47,2.19,3.49,3.49,0,0,1-1.32,1.47A3.81,3.81,0,0,1,944.2,183.44Zm0-1.33a1.91,1.91,0,0,0,1.23-.39,2.38,2.38,0,0,0,.72-1,4.56,4.56,0,0,0,0-2.86,2.41,2.41,0,0,0-.72-1,2.09,2.09,0,0,0-2.46,0,2.35,2.35,0,0,0-.73,1,4.38,4.38,0,0,0-.23,1.43,4.33,4.33,0,0,0,.23,1.43,2.32,2.32,0,0,0,.73,1A1.91,1.91,0,0,0,944.2,182.11Z"/><path d="M951.32,178.46v4.82h-1.58v-8.12h1.52v1.32h.1a2.33,2.33,0,0,1,.88-1,2.71,2.71,0,0,1,1.51-.39,2.94,2.94,0,0,1,1.45.35,2.31,2.31,0,0,1,1,1,3.67,3.67,0,0,1,.34,1.68v5.17h-1.58v-5a2,2,0,0,0-.46-1.38,1.62,1.62,0,0,0-1.26-.5,1.94,1.94,0,0,0-1,.24,1.65,1.65,0,0,0-.67.69A2.28,2.28,0,0,0,951.32,178.46Z"/><path d="M962.13,183.44a3.93,3.93,0,0,1-2.07-.52,3.4,3.4,0,0,1-1.33-1.45,4.89,4.89,0,0,1-.47-2.2,5,5,0,0,1,.47-2.2,3.52,3.52,0,0,1,3.28-2,4.06,4.06,0,0,1,1.34.23,3.2,3.2,0,0,1,2,2,5.16,5.16,0,0,1,.3,1.87v.56h-6.45v-1.18h4.9a2.36,2.36,0,0,0-.25-1.11,1.93,1.93,0,0,0-1.78-1,2.1,2.1,0,0,0-1.16.32,2.25,2.25,0,0,0-.77.85,2.54,2.54,0,0,0-.26,1.13v.92a3,3,0,0,0,.29,1.39,2,2,0,0,0,.8.87,2.49,2.49,0,0,0,1.21.29A2.66,2.66,0,0,0,963,182a1.81,1.81,0,0,0,.64-.39A1.72,1.72,0,0,0,964,181l1.5.27a2.78,2.78,0,0,1-.64,1.15,3.15,3.15,0,0,1-1.16.77A4.33,4.33,0,0,1,962.13,183.44Z"/><path d="M884.28,201.88v-8.12h1.53v1.29h.09a1.88,1.88,0,0,1,.78-1,2.19,2.19,0,0,1,1.28-.38h.35l.32,0v1.52l-.34-.06a2.63,2.63,0,0,0-.49,0,2,2,0,0,0-1,.24,1.73,1.73,0,0,0-.69.65,1.75,1.75,0,0,0-.26.94v5Z"/><path d="M890.8,192.51a1,1,0,0,1-.71-.28.91.91,0,0,1,0-1.33,1,1,0,0,1,.71-.28,1,1,0,0,1,.7.28.89.89,0,0,1,0,1.33A1,1,0,0,1,890.8,192.51Zm-.8,9.37v-8.12h1.58v8.12Z"/><path d="M899.79,195.74l-1.43.26a1.73,1.73,0,0,0-.29-.53,1.42,1.42,0,0,0-.52-.4,1.82,1.82,0,0,0-.82-.16,2.07,2.07,0,0,0-1.12.29.9.9,0,0,0-.45.77.79.79,0,0,0,.31.66,2.55,2.55,0,0,0,1,.41l1.29.29a3.57,3.57,0,0,1,1.67.8,1.91,1.91,0,0,1,.55,1.4,2.13,2.13,0,0,1-.42,1.3,2.81,2.81,0,0,1-1.17.89,4.45,4.45,0,0,1-1.73.32,4,4,0,0,1-2.23-.58,2.47,2.47,0,0,1-1-1.67l1.52-.23a1.44,1.44,0,0,0,.59.9,2,2,0,0,0,1.16.31,2.09,2.09,0,0,0,1.24-.33.93.93,0,0,0,.46-.79A.81.81,0,0,0,898,199a1.86,1.86,0,0,0-.86-.39l-1.38-.3a3.32,3.32,0,0,1-1.67-.83,2,2,0,0,1-.55-1.43,2,2,0,0,1,.41-1.26,2.53,2.53,0,0,1,1.11-.84,4.1,4.1,0,0,1,1.62-.31,3.39,3.39,0,0,1,2.07.57A2.7,2.7,0,0,1,899.79,195.74Z"/><path d="M905.1,202a3.79,3.79,0,0,1-2-.53,3.56,3.56,0,0,1-1.3-1.49,5,5,0,0,1-.46-2.17,4.89,4.89,0,0,1,.47-2.18,3.56,3.56,0,0,1,1.31-1.48,3.62,3.62,0,0,1,2-.54,3.77,3.77,0,0,1,1.65.35,3,3,0,0,1,1.17.95,2.82,2.82,0,0,1,.53,1.43h-1.54a1.79,1.79,0,0,0-.57-1,1.72,1.72,0,0,0-1.21-.41,2,2,0,0,0-1.16.34,2.2,2.2,0,0,0-.76,1,3.62,3.62,0,0,0-.28,1.5,4,4,0,0,0,.27,1.53,2.28,2.28,0,0,0,.76,1,1.93,1.93,0,0,0,1.17.35,2,2,0,0,0,.82-.16,1.59,1.59,0,0,0,.61-.48,1.73,1.73,0,0,0,.35-.75h1.54a2.86,2.86,0,0,1-.51,1.4,3,3,0,0,1-1.14,1A3.85,3.85,0,0,1,905.1,202Z"/><path d="M912.49,202.06a3.29,3.29,0,0,1-1.39-.29,2.26,2.26,0,0,1-1-.84,2.43,2.43,0,0,1-.36-1.35,2.28,2.28,0,0,1,.26-1.13,2,2,0,0,1,.72-.7,3.86,3.86,0,0,1,1-.39,8.62,8.62,0,0,1,1.13-.2L914,197a1.77,1.77,0,0,0,.66-.18.46.46,0,0,0,.21-.42v0a1.44,1.44,0,0,0-.39-1.08,1.59,1.59,0,0,0-1.15-.38,1.89,1.89,0,0,0-1.89,1.13l-1.48-.33a2.74,2.74,0,0,1,.77-1.2,3.07,3.07,0,0,1,1.18-.67,4.61,4.61,0,0,1,1.4-.21,4.8,4.8,0,0,1,1,.12,3,3,0,0,1,1,.41,2.33,2.33,0,0,1,.78.86,3.06,3.06,0,0,1,.31,1.45v5.39H915v-1.11h-.06a2.41,2.41,0,0,1-.46.6,2.36,2.36,0,0,1-.79.49A3,3,0,0,1,912.49,202.06Zm.34-1.27a2.33,2.33,0,0,0,1.13-.26,1.81,1.81,0,0,0,1-1.58v-1a.84.84,0,0,1-.33.16,3.49,3.49,0,0,1-.55.12l-.59.09-.49.07a3.56,3.56,0,0,0-.84.19,1.53,1.53,0,0,0-.6.39,1,1,0,0,0-.22.68,1,1,0,0,0,.43.89A1.9,1.9,0,0,0,912.83,200.79Z"/><path d="M920.18,191.05v10.83H918.6V191.05Z"/><path d="M925.34,202a3.09,3.09,0,0,1-1.75-.5,3.43,3.43,0,0,1-1.2-1.44,6,6,0,0,1,0-4.51,3.36,3.36,0,0,1,1.21-1.43,3.19,3.19,0,0,1,1.75-.5,2.51,2.51,0,0,1,1.22.26,2.14,2.14,0,0,1,.72.58,5.63,5.63,0,0,1,.4.59h.09v-4h1.58v10.83h-1.54v-1.27h-.13a4.62,4.62,0,0,1-.41.6,2.43,2.43,0,0,1-.73.58A2.63,2.63,0,0,1,925.34,202Zm.35-1.34a1.86,1.86,0,0,0,1.16-.36,2.23,2.23,0,0,0,.71-1,4.07,4.07,0,0,0,.25-1.5,4.18,4.18,0,0,0-.24-1.48,2.24,2.24,0,0,0-.72-1,1.84,1.84,0,0,0-1.16-.35,1.88,1.88,0,0,0-1.19.37,2.16,2.16,0,0,0-.71,1,4,4,0,0,0-.24,1.44,4.18,4.18,0,0,0,.24,1.46,2.24,2.24,0,0,0,.72,1A1.85,1.85,0,0,0,925.69,200.69Z"/><path d="M934,202.06a3.34,3.34,0,0,1-1.4-.29,2.29,2.29,0,0,1-1-.84,2.35,2.35,0,0,1-.37-1.35,2.17,2.17,0,0,1,.27-1.13,1.91,1.91,0,0,1,.71-.7,3.93,3.93,0,0,1,1-.39,8.34,8.34,0,0,1,1.13-.2l1.18-.14a1.9,1.9,0,0,0,.66-.18.46.46,0,0,0,.21-.42v0a1.44,1.44,0,0,0-.39-1.08,1.62,1.62,0,0,0-1.16-.38,2,2,0,0,0-1.25.35,1.88,1.88,0,0,0-.63.78l-1.49-.33a2.85,2.85,0,0,1,.78-1.2,3.11,3.11,0,0,1,1.17-.67,4.65,4.65,0,0,1,1.4-.21,4.89,4.89,0,0,1,1,.12,3,3,0,0,1,1,.41,2.35,2.35,0,0,1,.79.86,3.06,3.06,0,0,1,.3,1.45v5.39h-1.54v-1.11h-.06a2.67,2.67,0,0,1-.46.6,2.47,2.47,0,0,1-.79.49A3.07,3.07,0,0,1,934,202.06Zm.34-1.27a2.29,2.29,0,0,0,1.12-.26,1.82,1.82,0,0,0,.72-.68,1.78,1.78,0,0,0,.24-.9v-1a.72.72,0,0,1-.32.16,3.76,3.76,0,0,1-.55.12l-.6.09-.48.07a3.45,3.45,0,0,0-.84.19,1.53,1.53,0,0,0-.6.39,1,1,0,0,0-.23.68,1,1,0,0,0,.44.89A1.86,1.86,0,0,0,934.32,200.79Z"/><path d="M940.09,201.88v-8.12h1.51v1.32h.1a2.12,2.12,0,0,1,.83-1.05,2.5,2.5,0,0,1,1.38-.38,2.4,2.4,0,0,1,1.37.38,2.23,2.23,0,0,1,.81,1.05h.09a2.31,2.31,0,0,1,.92-1,2.85,2.85,0,0,1,1.51-.39,2.48,2.48,0,0,1,1.81.7,2.78,2.78,0,0,1,.7,2.08v5.45h-1.58v-5.3a1.44,1.44,0,0,0-.45-1.19A1.62,1.62,0,0,0,948,195a1.5,1.5,0,0,0-1.2.47,1.72,1.72,0,0,0-.43,1.21v5.18h-1.58v-5.4a1.39,1.39,0,0,0-.41-1.06,1.45,1.45,0,0,0-1.07-.4,1.6,1.6,0,0,0-.83.23,1.74,1.74,0,0,0-.6.66,1.87,1.87,0,0,0-.23,1v5Z"/><path d="M956.73,202a3.87,3.87,0,0,1-2.06-.52,3.34,3.34,0,0,1-1.33-1.45,4.76,4.76,0,0,1-.47-2.2,4.84,4.84,0,0,1,.47-2.2,3.49,3.49,0,0,1,1.31-1.48,3.57,3.57,0,0,1,2-.54,4,4,0,0,1,1.33.23,3.25,3.25,0,0,1,1.16.71,3.51,3.51,0,0,1,.81,1.26,5.5,5.5,0,0,1,.29,1.88v.56h-6.45v-1.18h4.9a2.36,2.36,0,0,0-.25-1.11,2,2,0,0,0-.71-.76,2,2,0,0,0-1.07-.28,2.12,2.12,0,0,0-1.16.32,2.22,2.22,0,0,0-.76.85,2.42,2.42,0,0,0-.27,1.13v.92a3.07,3.07,0,0,0,.29,1.39,2,2,0,0,0,.81.87,2.34,2.34,0,0,0,1.21.3,2.66,2.66,0,0,0,.82-.13,1.76,1.76,0,0,0,.63-.39,1.87,1.87,0,0,0,.42-.64l1.49.27a2.67,2.67,0,0,1-.64,1.15,3.06,3.06,0,0,1-1.16.77A4.33,4.33,0,0,1,956.73,202Z"/><path d="M963.55,197.06v4.82H962v-8.12h1.52v1.32h.1a2.32,2.32,0,0,1,.88-1,2.63,2.63,0,0,1,1.51-.4,3,3,0,0,1,1.46.35,2.34,2.34,0,0,1,1,1,3.67,3.67,0,0,1,.35,1.68v5.17h-1.58v-5a2,2,0,0,0-.46-1.38,1.66,1.66,0,0,0-1.27-.5,1.94,1.94,0,0,0-1,.24,1.68,1.68,0,0,0-.67.7A2.21,2.21,0,0,0,963.55,197.06Z"/><path d="M974.65,193.76V195h-4.43v-1.27Zm-3.24-1.94H973v7.67a1.38,1.38,0,0,0,.13.69.7.7,0,0,0,.36.32,1.46,1.46,0,0,0,.48.08,1.61,1.61,0,0,0,.33,0l.22,0,.29,1.3a2.47,2.47,0,0,1-.39.11,2.84,2.84,0,0,1-.64.06,2.67,2.67,0,0,1-1.16-.22,2,2,0,0,1-.87-.72,2.11,2.11,0,0,1-.33-1.22Z"/><path d="M977.19,192.51a1,1,0,0,1-.7-.28.89.89,0,0,1,0-1.33,1,1,0,0,1,.7-.28,1,1,0,0,1,.71.28.91.91,0,0,1,0,1.33A1,1,0,0,1,977.19,192.51Zm-.8,9.37v-8.12H978v8.12Z"/><path class="cls-4" d="M97.22,439.62a.13.13,0,0,1-.1,0,.14.14,0,0,1,0-.21l28.57-28.57a.15.15,0,1,1,.21.21L97.33,439.58A.15.15,0,0,1,97.22,439.62Z"/><g class="cls-6"><rect class="cls-7" x="125.79" y="380.22" width="86.79" height="50.65" rx="1.58"/></g><path class="cls-4" d="M211,431H127.37a1.74,1.74,0,0,1-1.73-1.73V381.8a1.74,1.74,0,0,1,1.73-1.73H211a1.73,1.73,0,0,1,1.72,1.73v47.5A1.73,1.73,0,0,1,211,431Zm-83.64-50.65a1.42,1.42,0,0,0-1.43,1.42v47.5a1.43,1.43,0,0,0,1.43,1.43H211a1.43,1.43,0,0,0,1.42-1.43V381.8a1.42,1.42,0,0,0-1.42-1.42Z"/><path d="M132.93,384.42V391h-1.18v-5.39h0l-1.53,1v-1.08l1.62-1.05Z"/><path d="M141.28,386.51a1.78,1.78,0,0,0-.22-.46,1.23,1.23,0,0,0-.33-.35,1.42,1.42,0,0,0-.44-.23,1.93,1.93,0,0,0-.55-.07,1.64,1.64,0,0,0-1.58,1,2.93,2.93,0,0,0-.24,1.25,3.19,3.19,0,0,0,.23,1.26,1.87,1.87,0,0,0,.65.78,1.74,1.74,0,0,0,1,.26,1.79,1.79,0,0,0,.86-.19,1.35,1.35,0,0,0,.57-.54,1.7,1.7,0,0,0,.2-.83l.26,0h-1.77v-.93h2.65v.79a2.81,2.81,0,0,1-.36,1.45,2.36,2.36,0,0,1-1,1,3.06,3.06,0,0,1-1.44.33,3,3,0,0,1-1.58-.41,2.8,2.8,0,0,1-1.07-1.16,4,4,0,0,1-.38-1.79,4.09,4.09,0,0,1,.22-1.41,3,3,0,0,1,.64-1.06,2.78,2.78,0,0,1,.95-.67,3.08,3.08,0,0,1,1.19-.23,3.29,3.29,0,0,1,1,.16,3.08,3.08,0,0,1,.84.45,2.64,2.64,0,0,1,.6.69,2.43,2.43,0,0,1,.31.88Z"/><path d="M145.81,391.06a2.56,2.56,0,0,1-1.27-.3,2.05,2.05,0,0,1-.82-.88,3.22,3.22,0,0,1,0-2.67,2.12,2.12,0,0,1,.81-.89,2.2,2.2,0,0,1,1.22-.32,2.46,2.46,0,0,1,.86.14,2.08,2.08,0,0,1,.72.45,2.21,2.21,0,0,1,.49.77,3.13,3.13,0,0,1,.18,1.12v.35h-4v-.78h2.92a1.26,1.26,0,0,0-.15-.59,1,1,0,0,0-.39-.41,1.22,1.22,0,0,0-1.21,0,1.19,1.19,0,0,0-.41.45,1.21,1.21,0,0,0-.15.6v.68a1.68,1.68,0,0,0,.15.74,1.15,1.15,0,0,0,.44.46,1.29,1.29,0,0,0,.66.16,1.35,1.35,0,0,0,.46-.07,1.13,1.13,0,0,0,.35-.21.86.86,0,0,0,.23-.35l1.08.12a1.69,1.69,0,0,1-.39.75,2,2,0,0,1-.73.49A2.73,2.73,0,0,1,145.81,391.06Z"/><path d="M150.13,388.09V391H149v-4.91h1.11v.83h.06a1.37,1.37,0,0,1,.54-.65,1.66,1.66,0,0,1,.92-.24,1.83,1.83,0,0,1,.89.21,1.56,1.56,0,0,1,.59.63,2.35,2.35,0,0,1,.2,1V391h-1.16v-3a1.1,1.1,0,0,0-.25-.77.92.92,0,0,0-.7-.28,1.09,1.09,0,0,0-.54.14.85.85,0,0,0-.37.38A1.24,1.24,0,0,0,150.13,388.09Z"/><path d="M155.62,388.09V391h-1.16v-4.91h1.11v.83h.05a1.45,1.45,0,0,1,.55-.65,1.63,1.63,0,0,1,.92-.24,1.76,1.76,0,0,1,.88.21,1.5,1.5,0,0,1,.59.63,2.2,2.2,0,0,1,.21,1V391h-1.16v-3a1.1,1.1,0,0,0-.25-.77.93.93,0,0,0-.7-.28,1,1,0,0,0-.54.14.85.85,0,0,0-.37.38A1.24,1.24,0,0,0,155.62,388.09Z"/><path d="M161.36,391.07a2.07,2.07,0,0,1-.84-.17,1.37,1.37,0,0,1-.59-.5,1.48,1.48,0,0,1-.21-.81,1.44,1.44,0,0,1,.15-.69,1.15,1.15,0,0,1,.42-.43,2.3,2.3,0,0,1,.6-.25,5,5,0,0,1,.69-.12l.7-.08a1.12,1.12,0,0,0,.39-.12.27.27,0,0,0,.13-.24v0a.74.74,0,0,0-.22-.56.88.88,0,0,0-.61-.2,1.08,1.08,0,0,0-.68.19,1,1,0,0,0-.33.43l-1.08-.15a1.63,1.63,0,0,1,.42-.75,1.91,1.91,0,0,1,.72-.45A2.81,2.81,0,0,1,162,386a2.74,2.74,0,0,1,.7.08,2.08,2.08,0,0,1,.65.27,1.48,1.48,0,0,1,.47.52,1.8,1.8,0,0,1,.17.81V391h-1.11v-.68h0a1.52,1.52,0,0,1-.29.39,1.41,1.41,0,0,1-.48.28A1.92,1.92,0,0,1,161.36,391.07Zm.3-.85a1.31,1.31,0,0,0,.61-.14,1,1,0,0,0,.39-.37,1,1,0,0,0,.14-.5v-.58a.51.51,0,0,1-.18.08l-.29.07-.32.05-.27,0a2.16,2.16,0,0,0-.47.11.85.85,0,0,0-.32.23.6.6,0,0,0,.12.84A1,1,0,0,0,161.66,390.22Z"/><path d="M165.7,385.36a.67.67,0,0,1-.47-.18.6.6,0,0,1,0-.89.67.67,0,0,1,.47-.18.7.7,0,0,1,.48.18.58.58,0,0,1,.19.45.58.58,0,0,1-.19.44A.7.7,0,0,1,165.7,385.36Zm-.58,5.61v-4.91h1.16V391Z"/><path d="M169.61,391.06a2.39,2.39,0,0,1-1.25-.31,2.21,2.21,0,0,1-.82-.89,2.93,2.93,0,0,1-.29-1.33,3,3,0,0,1,.29-1.33,2.21,2.21,0,0,1,.82-.89,2.39,2.39,0,0,1,1.25-.31,2.35,2.35,0,0,1,1.24.31,2.14,2.14,0,0,1,.82.89,3,3,0,0,1,.29,1.33,2.93,2.93,0,0,1-.29,1.33,2.14,2.14,0,0,1-.82.89A2.35,2.35,0,0,1,169.61,391.06Zm0-.92a1,1,0,0,0,.65-.22,1.24,1.24,0,0,0,.4-.58,2.55,2.55,0,0,0,.13-.81,2.66,2.66,0,0,0-.13-.82,1.34,1.34,0,0,0-.4-.58,1,1,0,0,0-.65-.22,1,1,0,0,0-.66.22,1.25,1.25,0,0,0-.39.58,2.39,2.39,0,0,0-.13.82,2.3,2.3,0,0,0,.13.81,1.15,1.15,0,0,0,.39.58A1,1,0,0,0,169.61,390.14Z"/><path d="M130.48,402.63v-6.54h4v.7h-3.16V399h3v.71h-3v2.22h3.21v.7Z"/><path d="M139.24,398.82l-.68.19a1.12,1.12,0,0,0-.19-.33,1,1,0,0,0-.33-.26,1.2,1.2,0,0,0-.54-.11,1.28,1.28,0,0,0-.75.21.61.61,0,0,0-.3.52.51.51,0,0,0,.21.44,1.76,1.76,0,0,0,.64.28l.72.18a2,2,0,0,1,1,.48,1.17,1.17,0,0,1,.32.84,1.25,1.25,0,0,1-.24.76,1.57,1.57,0,0,1-.68.52,2.38,2.38,0,0,1-1,.2,2.16,2.16,0,0,1-1.24-.33,1.48,1.48,0,0,1-.63-1l.72-.18a1,1,0,0,0,.39.59,1.3,1.3,0,0,0,.75.2,1.35,1.35,0,0,0,.84-.23.67.67,0,0,0,.31-.54.58.58,0,0,0-.18-.43,1.23,1.23,0,0,0-.55-.26l-.82-.19a1.92,1.92,0,0,1-1-.5,1.16,1.16,0,0,1-.31-.84,1.27,1.27,0,0,1,.23-.74,1.61,1.61,0,0,1,.64-.5,2.3,2.3,0,0,1,.93-.18,1.87,1.87,0,0,1,1.15.32A1.77,1.77,0,0,1,139.24,398.82Z"/><path d="M140.47,404.47v-6.75h.72v.78h.09l.24-.32a1.16,1.16,0,0,1,.42-.36,1.51,1.51,0,0,1,.76-.16,1.94,1.94,0,0,1,1.1.31,2.05,2.05,0,0,1,.73.88,3.49,3.49,0,0,1,0,2.69,2,2,0,0,1-.73.88,1.91,1.91,0,0,1-1.08.32,1.62,1.62,0,0,1-.76-.16,1.49,1.49,0,0,1-.44-.36l-.24-.34h-.06v2.59Zm.74-4.29a2.69,2.69,0,0,0,.16,1,1.49,1.49,0,0,0,.48.66,1.19,1.19,0,0,0,.76.24,1.26,1.26,0,0,0,.79-.25,1.46,1.46,0,0,0,.48-.68,2.63,2.63,0,0,0,.17-.95,2.76,2.76,0,0,0-.16-.94,1.61,1.61,0,0,0-.48-.66,1.43,1.43,0,0,0-1.57,0,1.33,1.33,0,0,0-.47.65A2.54,2.54,0,0,0,141.21,400.18Z"/><path d="M146.7,396.09v6.54H146v-6.54Z"/><path d="M150.08,402.74a2.08,2.08,0,0,1-2-1.21,3.07,3.07,0,0,1-.28-1.33,3.14,3.14,0,0,1,.28-1.34,2.16,2.16,0,0,1,.78-.88,2.18,2.18,0,0,1,1.17-.32,2.12,2.12,0,0,1,1.16.32,2,2,0,0,1,.78.88,3,3,0,0,1,.28,1.34,2.93,2.93,0,0,1-.28,1.33,2.05,2.05,0,0,1-.78.89A2.12,2.12,0,0,1,150.08,402.74Zm0-.68a1.31,1.31,0,0,0,.83-.26,1.46,1.46,0,0,0,.48-.68,2.7,2.7,0,0,0,0-1.83,1.44,1.44,0,0,0-.48-.69,1.45,1.45,0,0,0-1.66,0,1.44,1.44,0,0,0-.48.69,2.7,2.7,0,0,0,0,1.83,1.46,1.46,0,0,0,.48.68A1.31,1.31,0,0,0,150.08,402.06Z"/><path d="M156.93,398.82l-.68.19a1.35,1.35,0,0,0-.18-.33,1.14,1.14,0,0,0-.34-.26,1.2,1.2,0,0,0-.54-.11,1.28,1.28,0,0,0-.75.21.61.61,0,0,0-.3.52.51.51,0,0,0,.21.44,1.84,1.84,0,0,0,.64.28l.73.18a2,2,0,0,1,1,.48,1.17,1.17,0,0,1,.32.84,1.25,1.25,0,0,1-.24.76,1.6,1.6,0,0,1-.67.52,2.46,2.46,0,0,1-1,.2,2.18,2.18,0,0,1-1.24-.33,1.43,1.43,0,0,1-.62-1l.71-.18a1,1,0,0,0,.39.59,1.3,1.3,0,0,0,.75.2,1.35,1.35,0,0,0,.84-.23.65.65,0,0,0,.31-.54.58.58,0,0,0-.18-.43,1.23,1.23,0,0,0-.55-.26l-.82-.19a1.85,1.85,0,0,1-1-.5,1.17,1.17,0,0,1-.32-.84,1.21,1.21,0,0,1,.24-.74,1.54,1.54,0,0,1,.64-.5,2.25,2.25,0,0,1,.92-.18,1.87,1.87,0,0,1,1.15.32A1.7,1.7,0,0,1,156.93,398.82Z"/><path d="M158.54,396.91a.55.55,0,0,1-.38-.15.5.5,0,0,1-.15-.37.49.49,0,0,1,.15-.36.55.55,0,0,1,.38-.15.52.52,0,0,1,.38.15.46.46,0,0,1,.16.36.47.47,0,0,1-.16.37A.52.52,0,0,1,158.54,396.91Zm-.38,5.72v-4.91h.75v4.91Z"/><path d="M162.29,402.74a2.16,2.16,0,0,1-1.17-.32,2.19,2.19,0,0,1-.78-.89,3.07,3.07,0,0,1-.28-1.33,3.14,3.14,0,0,1,.28-1.34,2.09,2.09,0,0,1,1.95-1.2,2.12,2.12,0,0,1,1.16.32,2,2,0,0,1,.78.88,3,3,0,0,1,.28,1.34,2.93,2.93,0,0,1-.28,1.33,2.05,2.05,0,0,1-.78.89A2.12,2.12,0,0,1,162.29,402.74Zm0-.68a1.33,1.33,0,0,0,.83-.26,1.46,1.46,0,0,0,.48-.68,2.7,2.7,0,0,0,0-1.83,1.44,1.44,0,0,0-.48-.69,1.27,1.27,0,0,0-.83-.26,1.23,1.23,0,0,0-.83.26,1.53,1.53,0,0,0-.49.69,2.87,2.87,0,0,0,0,1.83,1.55,1.55,0,0,0,.49.68A1.29,1.29,0,0,0,162.29,402.06Z"/><path d="M166.42,399.68v2.95h-.76v-4.91h.73v.77h.07a1.37,1.37,0,0,1,.52-.6,1.66,1.66,0,0,1,.91-.23,1.86,1.86,0,0,1,.87.2,1.4,1.4,0,0,1,.58.62,2.25,2.25,0,0,1,.21,1v3.12h-.76v-3.07a1.29,1.29,0,0,0-.3-.9,1.08,1.08,0,0,0-.82-.32,1.32,1.32,0,0,0-.64.15,1.17,1.17,0,0,0-.45.46A1.49,1.49,0,0,0,166.42,399.68Z"/><path d="M173,402.74a2.26,2.26,0,0,1-1.22-.32,2,2,0,0,1-.79-.88,3.28,3.28,0,0,1,0-2.65,2.15,2.15,0,0,1,.77-.91,2.12,2.12,0,0,1,1.16-.32,2.21,2.21,0,0,1,.76.13,1.85,1.85,0,0,1,.68.41,2,2,0,0,1,.49.76,3.23,3.23,0,0,1,.18,1.15v.32h-3.78v-.65h3a1.64,1.64,0,0,0-.16-.74,1.22,1.22,0,0,0-.47-.51,1.28,1.28,0,0,0-.71-.19,1.35,1.35,0,0,0-.78.22,1.48,1.48,0,0,0-.5.58,1.64,1.64,0,0,0-.18.76v.43a2,2,0,0,0,.2.94,1.41,1.41,0,0,0,.54.59,1.58,1.58,0,0,0,.8.2,1.53,1.53,0,0,0,.54-.09,1,1,0,0,0,.41-.25,1.28,1.28,0,0,0,.28-.43l.72.21a1.59,1.59,0,0,1-.38.65,1.93,1.93,0,0,1-.67.43A2.57,2.57,0,0,1,173,402.74Z"/><path d="M180.89,397.72v.64h-2.65v-.64ZM179,402.63v-5.58a1.22,1.22,0,0,1,.2-.71,1.33,1.33,0,0,1,.52-.42,1.67,1.67,0,0,1,.67-.14,1.87,1.87,0,0,1,.45.05,1.37,1.37,0,0,1,.26.08l-.22.65-.15-.05a1,1,0,0,0-.27,0,.7.7,0,0,0-.54.19.83.83,0,0,0-.16.56v5.4Z"/><path d="M185,400.63v-2.91h.76v4.91H185v-.83h0a1.62,1.62,0,0,1-.53.64,1.6,1.6,0,0,1-.93.26,1.58,1.58,0,0,1-.81-.21,1.41,1.41,0,0,1-.57-.61,2.41,2.41,0,0,1-.2-1v-3.12h.75v3.07a1.16,1.16,0,0,0,.31.86,1,1,0,0,0,.77.32,1.21,1.21,0,0,0,.57-.15,1.15,1.15,0,0,0,.49-.44A1.27,1.27,0,0,0,185,400.63Z"/><path d="M189.17,402.74a2.12,2.12,0,0,1-1.16-.32,2.05,2.05,0,0,1-.78-.89,2.93,2.93,0,0,1-.28-1.33,3,3,0,0,1,.28-1.34A2,2,0,0,1,188,398a2.12,2.12,0,0,1,1.16-.32,2.09,2.09,0,0,1,2,1.2,3.14,3.14,0,0,1,.28,1.34,3.07,3.07,0,0,1-.28,1.33,2.19,2.19,0,0,1-.78.89A2.16,2.16,0,0,1,189.17,402.74Zm0-.68a1.29,1.29,0,0,0,.83-.26,1.55,1.55,0,0,0,.49-.68,2.87,2.87,0,0,0,0-1.83,1.53,1.53,0,0,0-.49-.69,1.23,1.23,0,0,0-.83-.26,1.27,1.27,0,0,0-.83.26,1.44,1.44,0,0,0-.48.69,2.7,2.7,0,0,0,0,1.83,1.46,1.46,0,0,0,.48.68A1.33,1.33,0,0,0,189.17,402.06Z"/><path d="M194.54,402.74a2.13,2.13,0,0,1-1.19-.33,2.09,2.09,0,0,1-.76-.9,3,3,0,0,1-.27-1.31,3.08,3.08,0,0,1,.27-1.32,2.28,2.28,0,0,1,.78-.9,2.12,2.12,0,0,1,1.16-.32,2.15,2.15,0,0,1,.93.19,1.74,1.74,0,0,1,.68.54,1.63,1.63,0,0,1,.33.8h-.75a1.23,1.23,0,0,0-.38-.59,1.15,1.15,0,0,0-.8-.26,1.27,1.27,0,0,0-.77.23,1.43,1.43,0,0,0-.51.64,2.24,2.24,0,0,0-.19,1,2.5,2.5,0,0,0,.18,1,1.46,1.46,0,0,0,.51.65,1.29,1.29,0,0,0,.78.24,1.53,1.53,0,0,0,.54-.1,1.08,1.08,0,0,0,.4-.3,1.19,1.19,0,0,0,.24-.46h.75a1.67,1.67,0,0,1-.31.78,1.77,1.77,0,0,1-.66.55A2.12,2.12,0,0,1,194.54,402.74Z"/><path d="M198.33,399.68v2.95h-.76v-6.54h.76v2.4h.06a1.46,1.46,0,0,1,.52-.61,1.76,1.76,0,0,1,.92-.22,1.87,1.87,0,0,1,.88.2,1.39,1.39,0,0,1,.59.61,2.26,2.26,0,0,1,.21,1v3.12h-.76v-3.07a1.25,1.25,0,0,0-.3-.9,1.06,1.06,0,0,0-.83-.32,1.47,1.47,0,0,0-.67.15,1.27,1.27,0,0,0-.46.46A1.49,1.49,0,0,0,198.33,399.68Z"/><path d="M203.27,396.91a.55.55,0,0,1-.38-.15.5.5,0,0,1-.15-.37.49.49,0,0,1,.15-.36.55.55,0,0,1,.38-.15.52.52,0,0,1,.38.15.46.46,0,0,1,.16.36.47.47,0,0,1-.16.37A.52.52,0,0,1,203.27,396.91Zm-.38,5.72v-4.91h.75v4.91Z"/><path d="M132.23,414.4a1.88,1.88,0,0,1-1.08-.31,2.15,2.15,0,0,1-.74-.88,3.63,3.63,0,0,1,0-2.7,2.15,2.15,0,0,1,.74-.88,2,2,0,0,1,1.1-.3,1.56,1.56,0,0,1,.75.15,1.44,1.44,0,0,1,.43.36,2.94,2.94,0,0,1,.23.33h.07v-2.42h.75v6.55h-.73v-.76h-.09a2.92,2.92,0,0,1-.23.34,1.24,1.24,0,0,1-.44.36A1.51,1.51,0,0,1,132.23,414.4Zm.11-.68a1.21,1.21,0,0,0,.76-.24,1.39,1.39,0,0,0,.48-.66,2.69,2.69,0,0,0,.16-1,2.61,2.61,0,0,0-.16-1,1.44,1.44,0,0,0-.47-.65,1.3,1.3,0,0,0-.77-.23,1.23,1.23,0,0,0-.8.25,1.49,1.49,0,0,0-.48.66,2.75,2.75,0,0,0-.16.93,2.82,2.82,0,0,0,.16,1,1.56,1.56,0,0,0,.48.68A1.25,1.25,0,0,0,132.34,413.72Z"/><path d="M136.63,407.75v.58a2,2,0,0,1-.09.56,3,3,0,0,1-.28.57,2.18,2.18,0,0,1-.43.48l-.41-.33a5.2,5.2,0,0,0,.35-.6,1.52,1.52,0,0,0,.14-.67v-.59Z"/><path d="M138.56,414.41a2.15,2.15,0,0,1-.85-.17,1.4,1.4,0,0,1-.82-1.34,1.25,1.25,0,0,1,.16-.68,1.21,1.21,0,0,1,.45-.42,2.75,2.75,0,0,1,.61-.22c.23-.05.45-.09.68-.12l.73-.09a1.16,1.16,0,0,0,.41-.1.29.29,0,0,0,.13-.26v0a1,1,0,0,0-.26-.74A1.06,1.06,0,0,0,139,410a1.36,1.36,0,0,0-.85.24,1.42,1.42,0,0,0-.43.5l-.71-.25a1.64,1.64,0,0,1,.51-.7,1.78,1.78,0,0,1,.7-.35,2.89,2.89,0,0,1,.76-.1,2.84,2.84,0,0,1,.54.05,1.7,1.7,0,0,1,.6.23,1.35,1.35,0,0,1,.48.52,1.89,1.89,0,0,1,.19.93v3.24h-.75v-.67h0a1.23,1.23,0,0,1-.26.34,1.5,1.5,0,0,1-.47.32A2,2,0,0,1,138.56,414.41Zm.12-.67a1.46,1.46,0,0,0,.75-.18,1.27,1.27,0,0,0,.47-.45,1.24,1.24,0,0,0,.16-.59v-.69a.51.51,0,0,1-.21.1,1.85,1.85,0,0,1-.37.08l-.41.06-.32,0a4.44,4.44,0,0,0-.55.12,1,1,0,0,0-.4.26.61.61,0,0,0-.16.45.69.69,0,0,0,.29.6A1.35,1.35,0,0,0,138.68,413.74Z"/><path d="M142.19,414.3v-4.91h.73v.74H143a1.17,1.17,0,0,1,.49-.59,1.43,1.43,0,0,1,.79-.23h.4v.76l-.18,0-.28,0a1.32,1.32,0,0,0-.64.15,1,1,0,0,0-.44.41,1.07,1.07,0,0,0-.16.59v3.11Z"/><path d="M148,409.39V410h-2.54v-.64Zm-1.8-1.18h.75v4.68a1,1,0,0,0,.1.48.44.44,0,0,0,.24.21.86.86,0,0,0,.32.05h.2l.13,0,.15.68-.21.06a1.69,1.69,0,0,1-.35,0,1.44,1.44,0,0,1-.63-.14,1.15,1.15,0,0,1-.7-1.12Z"/><path d="M149.5,408.57a.51.51,0,0,1-.37-.15.49.49,0,0,1,0-.72.51.51,0,0,1,.37-.15.52.52,0,0,1,.38.15.48.48,0,0,1,0,.72A.52.52,0,0,1,149.5,408.57Zm-.38,5.73v-4.91h.75v4.91Z"/><path d="M153.44,409.39V410h-2.65v-.64Zm-1.85,4.91v-5.59a1.14,1.14,0,0,1,.2-.7,1.16,1.16,0,0,1,.51-.42,1.52,1.52,0,0,1,.67-.14,1.92,1.92,0,0,1,.45,0l.26.08-.21.66-.16-.05a1,1,0,0,0-.27,0,.66.66,0,0,0-.53.19.8.8,0,0,0-.17.55v5.41Z"/><path d="M154.89,408.57a.52.52,0,0,1-.38-.15.49.49,0,0,1,0-.72.52.52,0,0,1,.38-.15.51.51,0,0,1,.37.15.48.48,0,0,1,0,.72A.51.51,0,0,1,154.89,408.57Zm-.39,5.73v-4.91h.76v4.91Z"/><path d="M158.63,414.4a2.1,2.1,0,0,1-1.19-.33,2,2,0,0,1-.76-.89,3.34,3.34,0,0,1,0-2.63,2.28,2.28,0,0,1,.78-.9,2,2,0,0,1,1.16-.32,2.18,2.18,0,0,1,.93.19,1.68,1.68,0,0,1,1,1.34h-.75a1.26,1.26,0,0,0-.38-.6,1.2,1.2,0,0,0-.8-.26,1.34,1.34,0,0,0-.77.23,1.49,1.49,0,0,0-.51.64,2.27,2.27,0,0,0-.19,1,2.5,2.5,0,0,0,.18,1,1.49,1.49,0,0,0,.51.66,1.35,1.35,0,0,0,.78.23,1.33,1.33,0,0,0,.54-.1,1.1,1.1,0,0,0,.64-.75h.75a1.78,1.78,0,0,1-.31.78,1.87,1.87,0,0,1-.66.55A2.26,2.26,0,0,1,158.63,414.4Z"/><path d="M162,408.57a.51.51,0,0,1-.37-.15.49.49,0,0,1,0-.72.51.51,0,0,1,.37-.15.52.52,0,0,1,.38.15.49.49,0,0,1,0,.72A.52.52,0,0,1,162,408.57Zm-.38,5.73v-4.91h.76v4.91Z"/><path d="M165.79,414.4a2.09,2.09,0,0,1-1.94-1.2,2.93,2.93,0,0,1-.28-1.33,3,3,0,0,1,.28-1.34,2.05,2.05,0,0,1,.78-.89,2.12,2.12,0,0,1,1.16-.31,2.05,2.05,0,0,1,2,1.2,3.11,3.11,0,0,1,.27,1.34,3.07,3.07,0,0,1-.27,1.33,2.16,2.16,0,0,1-.78.88A2.1,2.1,0,0,1,165.79,414.4Zm0-.68a1.25,1.25,0,0,0,.83-.26,1.46,1.46,0,0,0,.48-.68,2.45,2.45,0,0,0,.16-.91,2.54,2.54,0,0,0-.16-.92,1.54,1.54,0,0,0-.48-.69,1.45,1.45,0,0,0-1.66,0,1.54,1.54,0,0,0-.48.69,2.54,2.54,0,0,0-.16.92,2.45,2.45,0,0,0,.16.91,1.46,1.46,0,0,0,.48.68A1.25,1.25,0,0,0,165.79,413.72Z"/><path d="M171.7,416.14v-6.75h.73v.78h.08l.24-.33a1.52,1.52,0,0,1,.42-.36,1.63,1.63,0,0,1,.76-.15,2,2,0,0,1,1.1.3,2.05,2.05,0,0,1,.73.88,3.51,3.51,0,0,1,0,2.7,2.05,2.05,0,0,1-.73.88,1.88,1.88,0,0,1-1.08.31,1.51,1.51,0,0,1-.76-.16,1.24,1.24,0,0,1-.44-.36c-.1-.13-.18-.25-.24-.34h-.06v2.6Zm.74-4.3a2.69,2.69,0,0,0,.16,1,1.39,1.39,0,0,0,.48.66,1.21,1.21,0,0,0,.76.24,1.25,1.25,0,0,0,.8-.25,1.46,1.46,0,0,0,.47-.68,2.59,2.59,0,0,0,.17-1,2.75,2.75,0,0,0-.16-.93,1.49,1.49,0,0,0-.48-.66,1.23,1.23,0,0,0-.8-.25,1.3,1.3,0,0,0-.77.23,1.37,1.37,0,0,0-.47.65A2.61,2.61,0,0,0,172.44,411.84Z"/><path d="M179.24,414.4a2.28,2.28,0,0,1-1.22-.31,2,2,0,0,1-.79-.89,2.88,2.88,0,0,1-.28-1.32,3,3,0,0,1,.28-1.33,2.19,2.19,0,0,1,.77-.9,2,2,0,0,1,1.16-.32,2.46,2.46,0,0,1,.76.12,1.95,1.95,0,0,1,1.17,1.17,3.29,3.29,0,0,1,.18,1.16v.32h-3.78v-.65h3a1.58,1.58,0,0,0-.16-.74,1.24,1.24,0,0,0-.47-.52,1.34,1.34,0,0,0-.71-.19,1.43,1.43,0,0,0-.78.22,1.56,1.56,0,0,0-.5.58,1.66,1.66,0,0,0-.17.76V412a2.07,2.07,0,0,0,.19.94,1.38,1.38,0,0,0,.54.58,1.49,1.49,0,0,0,.8.2,1.8,1.8,0,0,0,.54-.08,1,1,0,0,0,.41-.26,1.15,1.15,0,0,0,.28-.42l.73.2a1.66,1.66,0,0,1-.39.65,2,2,0,0,1-.67.44A2.57,2.57,0,0,1,179.24,414.4Z"/><path d="M182.42,414.3v-4.91h.73v.74h0a1.17,1.17,0,0,1,.49-.59,1.43,1.43,0,0,1,.79-.23h.4v.76l-.18,0-.28,0a1.34,1.34,0,0,0-.64.15,1.09,1.09,0,0,0-.44.41,1.07,1.07,0,0,0-.16.59v3.11Z"/><path d="M190.49,409.39V410h-2.65v-.64Zm-1.85,4.91v-5.59a1.2,1.2,0,0,1,.19-.7,1.25,1.25,0,0,1,.52-.42,1.52,1.52,0,0,1,.67-.14,1.92,1.92,0,0,1,.45,0l.26.08-.22.66a.86.86,0,0,0-.15-.05,1,1,0,0,0-.27,0,.67.67,0,0,0-.54.19.8.8,0,0,0-.16.55v5.41Z"/><path d="M193.4,414.4a2.28,2.28,0,0,1-1.22-.31,2.14,2.14,0,0,1-.79-.89,3,3,0,0,1-.27-1.32,3.13,3.13,0,0,1,.27-1.33,2.21,2.21,0,0,1,.78-.9,2,2,0,0,1,1.16-.32,2.4,2.4,0,0,1,.75.12,2.07,2.07,0,0,1,.69.42,2,2,0,0,1,.48.75,3.06,3.06,0,0,1,.19,1.16v.32h-3.79v-.65h3a1.72,1.72,0,0,0-.16-.74,1.31,1.31,0,0,0-.47-.52,1.37,1.37,0,0,0-.71-.19,1.43,1.43,0,0,0-.78.22,1.4,1.4,0,0,0-.5.58,1.67,1.67,0,0,0-.18.76V412a2.07,2.07,0,0,0,.19.94,1.38,1.38,0,0,0,.54.58,1.51,1.51,0,0,0,.8.2,1.8,1.8,0,0,0,.54-.08,1.14,1.14,0,0,0,.42-.26,1,1,0,0,0,.27-.42l.73.2a1.66,1.66,0,0,1-.39.65,1.86,1.86,0,0,1-.67.44A2.5,2.5,0,0,1,193.4,414.4Z"/><path d="M200.06,410.49l-.67.19a1.86,1.86,0,0,0-.19-.33.89.89,0,0,0-.33-.27,1.21,1.21,0,0,0-.54-.1,1.35,1.35,0,0,0-.75.2.62.62,0,0,0-.3.53.56.56,0,0,0,.2.44,1.68,1.68,0,0,0,.64.27l.73.18a2,2,0,0,1,1,.49,1.13,1.13,0,0,1,.32.84,1.24,1.24,0,0,1-.24.75,1.56,1.56,0,0,1-.67.53,2.41,2.41,0,0,1-1,.19,2.22,2.22,0,0,1-1.25-.33,1.42,1.42,0,0,1-.62-.95l.72-.18a.94.94,0,0,0,.38.6,1.3,1.3,0,0,0,.75.2,1.4,1.4,0,0,0,.84-.23.65.65,0,0,0,.31-.54.6.6,0,0,0-.17-.43,1.18,1.18,0,0,0-.55-.26l-.82-.19a2,2,0,0,1-1-.5,1.21,1.21,0,0,1-.32-.85,1.18,1.18,0,0,1,.24-.73,1.54,1.54,0,0,1,.64-.5,2.27,2.27,0,0,1,.93-.18,1.86,1.86,0,0,1,1.14.31A1.71,1.71,0,0,1,200.06,410.49Z"/><path d="M203.43,409.39V410h-2.55v-.64Zm-1.81-1.18h.76v4.68a1,1,0,0,0,.09.48.5.5,0,0,0,.25.21.78.78,0,0,0,.31.05h.2l.13,0,.16.68-.22.06a1.69,1.69,0,0,1-.35,0,1.37,1.37,0,0,1-.62-.14,1.34,1.34,0,0,1-.51-.41,1.24,1.24,0,0,1-.2-.71Z"/><path d="M206,414.41a2.15,2.15,0,0,1-.85-.17,1.43,1.43,0,0,1-.83-1.34,1.24,1.24,0,0,1,.17-.68,1.26,1.26,0,0,1,.44-.42,3,3,0,0,1,.62-.22c.22-.05.45-.09.68-.12l.73-.09a1.16,1.16,0,0,0,.41-.1.29.29,0,0,0,.12-.26v0a1,1,0,0,0-.25-.74,1.06,1.06,0,0,0-.78-.26,1.36,1.36,0,0,0-.85.24,1.33,1.33,0,0,0-.43.5l-.72-.25a1.65,1.65,0,0,1,.52-.7,1.78,1.78,0,0,1,.7-.35,2.94,2.94,0,0,1,1.3-.05,1.85,1.85,0,0,1,.6.23,1.35,1.35,0,0,1,.48.52,1.89,1.89,0,0,1,.19.93v3.24h-.76v-.67h0a1.23,1.23,0,0,1-.26.34,1.44,1.44,0,0,1-.48.32A1.9,1.9,0,0,1,206,414.41Zm.11-.67a1.5,1.5,0,0,0,.76-.18,1.27,1.27,0,0,0,.47-.45,1.23,1.23,0,0,0,.15-.59v-.69a.41.41,0,0,1-.2.1,2,2,0,0,1-.38.08l-.4.06-.32,0a4.07,4.07,0,0,0-.55.12,1.07,1.07,0,0,0-.41.26.64.64,0,0,0-.15.45.69.69,0,0,0,.29.6A1.32,1.32,0,0,0,206.12,413.74Z"/><path d="M132.23,426.06a1.88,1.88,0,0,1-1.08-.31,2.08,2.08,0,0,1-.74-.88,3.61,3.61,0,0,1,0-2.69,2.15,2.15,0,0,1,.74-.88,1.94,1.94,0,0,1,1.1-.31,1.44,1.44,0,0,1,.75.16,1.2,1.2,0,0,1,.43.36c.1.13.18.24.23.32h.07v-2.41h.75V426h-.73v-.75h-.09c0,.09-.13.2-.23.34a1.49,1.49,0,0,1-.44.36A1.63,1.63,0,0,1,132.23,426.06Zm.11-.67a1.21,1.21,0,0,0,.76-.24,1.49,1.49,0,0,0,.48-.66,2.69,2.69,0,0,0,.16-1,2.63,2.63,0,0,0-.16-1,1.41,1.41,0,0,0-.47-.64,1.23,1.23,0,0,0-.77-.23,1.29,1.29,0,0,0-.8.24,1.55,1.55,0,0,0-.48.66,2.76,2.76,0,0,0-.16.94,2.87,2.87,0,0,0,.16.95,1.62,1.62,0,0,0,.48.68A1.31,1.31,0,0,0,132.34,425.39Z"/><path d="M136.35,420.23a.54.54,0,0,1-.38-.15.49.49,0,0,1,0-.72.56.56,0,0,1,.76,0,.49.49,0,0,1,0,.72A.54.54,0,0,1,136.35,420.23ZM136,426v-4.91h.75V426Z"/><path d="M142.63,426.06a2,2,0,0,1-2-1.22,3,3,0,0,1-.27-1.31,2.91,2.91,0,0,1,.28-1.32,2.19,2.19,0,0,1,.77-.9,2.12,2.12,0,0,1,1.16-.32,2.19,2.19,0,0,1,.94.19,1.9,1.9,0,0,1,.68.54,1.84,1.84,0,0,1,.33.8h-.76a1.16,1.16,0,0,0-.38-.59,1.13,1.13,0,0,0-.79-.26,1.35,1.35,0,0,0-.78.22,1.52,1.52,0,0,0-.51.65,2.4,2.4,0,0,0-.18,1,2.5,2.5,0,0,0,.18,1,1.46,1.46,0,0,0,.51.65,1.29,1.29,0,0,0,.78.24,1.32,1.32,0,0,0,.53-.11,1,1,0,0,0,.64-.75h.76a1.8,1.8,0,0,1-.32.78,1.77,1.77,0,0,1-.66.55A2,2,0,0,1,142.63,426.06Z"/><path d="M147.1,426.08a2,2,0,0,1-.85-.18,1.44,1.44,0,0,1-.6-.52,1.4,1.4,0,0,1-.22-.81,1.31,1.31,0,0,1,.16-.69,1.19,1.19,0,0,1,.45-.41,2.34,2.34,0,0,1,.61-.23c.23-.05.45-.09.68-.12l.73-.08a1.14,1.14,0,0,0,.41-.11.27.27,0,0,0,.13-.25v0a1,1,0,0,0-.26-.73,1,1,0,0,0-.78-.27,1.36,1.36,0,0,0-.85.24,1.54,1.54,0,0,0-.43.51l-.71-.26a1.7,1.7,0,0,1,.51-.7,1.92,1.92,0,0,1,.7-.35,2.87,2.87,0,0,1,.75-.1,3,3,0,0,1,.55.06,1.75,1.75,0,0,1,.6.22,1.43,1.43,0,0,1,.48.52,2,2,0,0,1,.19.94V426h-.75v-.66h0a1.4,1.4,0,0,1-.26.34,1.67,1.67,0,0,1-.47.31A2,2,0,0,1,147.1,426.08Zm.12-.68a1.46,1.46,0,0,0,.75-.18,1.14,1.14,0,0,0,.47-.45,1.24,1.24,0,0,0,.16-.59v-.69a.51.51,0,0,1-.21.11,3,3,0,0,1-.37.08l-.41.06-.32,0a2.44,2.44,0,0,0-.55.12,1.05,1.05,0,0,0-.41.25.76.76,0,0,0,.14,1.05A1.33,1.33,0,0,0,147.22,425.4Z"/><path d="M150.73,427.8v-6.75h.73v.78h.09c0-.08.13-.19.23-.32a1.2,1.2,0,0,1,.43-.36A1.51,1.51,0,0,1,153,421a1.91,1.91,0,0,1,1.09.31,2.07,2.07,0,0,1,.74.88,3.61,3.61,0,0,1,0,2.69,2,2,0,0,1-.74.88,1.88,1.88,0,0,1-1.08.31,1.66,1.66,0,0,1-.76-.15,1.44,1.44,0,0,1-.43-.36,2.81,2.81,0,0,1-.24-.34h-.06v2.59Zm.74-4.29a2.68,2.68,0,0,0,.17,1,1.4,1.4,0,0,0,.47.66,1.24,1.24,0,0,0,.77.24,1.28,1.28,0,0,0,.79-.25,1.62,1.62,0,0,0,.48-.68,2.63,2.63,0,0,0,.16-.95,2.54,2.54,0,0,0-.16-.94,1.45,1.45,0,0,0-.47-.66,1.31,1.31,0,0,0-.8-.24,1.2,1.2,0,0,0-.77.23,1.43,1.43,0,0,0-.48.64A2.86,2.86,0,0,0,151.47,423.51Z"/><path d="M158.21,426.06a2.05,2.05,0,0,1-2-1.2,3.07,3.07,0,0,1-.27-1.33,3.14,3.14,0,0,1,.27-1.34,2.16,2.16,0,0,1,.78-.88,2.1,2.1,0,0,1,1.17-.32,2.09,2.09,0,0,1,1.94,1.2,3,3,0,0,1,.28,1.34,2.93,2.93,0,0,1-.28,1.33,2.05,2.05,0,0,1-.78.89A2.12,2.12,0,0,1,158.21,426.06Zm0-.67a1.31,1.31,0,0,0,.83-.26,1.46,1.46,0,0,0,.48-.68,2.7,2.7,0,0,0,0-1.83,1.44,1.44,0,0,0-.48-.69,1.45,1.45,0,0,0-1.66,0,1.44,1.44,0,0,0-.48.69,2.7,2.7,0,0,0,0,1.83,1.46,1.46,0,0,0,.48.68A1.31,1.31,0,0,0,158.21,425.39Z"/><path d="M163.44,426.06a1.93,1.93,0,0,1-1.09-.31,2.06,2.06,0,0,1-.73-.88,3.49,3.49,0,0,1,0-2.69,2.07,2.07,0,0,1,.74-.88,1.91,1.91,0,0,1,1.09-.31,1.51,1.51,0,0,1,.76.16,1.2,1.2,0,0,1,.43.36l.23.32h.06v-2.41h.76V426H165v-.75h-.09c-.06.09-.13.2-.24.34a1.44,1.44,0,0,1-.43.36A1.66,1.66,0,0,1,163.44,426.06Zm.1-.67a1.24,1.24,0,0,0,.77-.24,1.4,1.4,0,0,0,.47-.66,2.68,2.68,0,0,0,.17-1,2.86,2.86,0,0,0-.16-1,1.43,1.43,0,0,0-.48-.64,1.2,1.2,0,0,0-.77-.23,1.31,1.31,0,0,0-.8.24,1.45,1.45,0,0,0-.47.66,2.54,2.54,0,0,0-.16.94,2.63,2.63,0,0,0,.16.95,1.62,1.62,0,0,0,.48.68A1.28,1.28,0,0,0,163.54,425.39Z"/><path d="M168.62,426.08a1.93,1.93,0,0,1-.85-.18,1.39,1.39,0,0,1-.83-1.33,1.31,1.31,0,0,1,.17-.69,1.24,1.24,0,0,1,.44-.41,2.41,2.41,0,0,1,.62-.23c.22-.05.45-.09.68-.12l.72-.08a1,1,0,0,0,.41-.11.26.26,0,0,0,.13-.25v0a1,1,0,0,0-.26-.73,1,1,0,0,0-.77-.27,1.32,1.32,0,0,0-1.28.75l-.72-.26a1.79,1.79,0,0,1,.51-.7,2,2,0,0,1,.71-.35,2.76,2.76,0,0,1,.75-.1,3,3,0,0,1,.55.06,1.7,1.7,0,0,1,.59.22,1.28,1.28,0,0,1,.48.52,2,2,0,0,1,.2.94V426h-.76v-.66h0a1.33,1.33,0,0,1-.25.34,1.59,1.59,0,0,1-.48.31A1.93,1.93,0,0,1,168.62,426.08Zm.11-.68a1.5,1.5,0,0,0,.76-.18,1.11,1.11,0,0,0,.46-.45,1.14,1.14,0,0,0,.16-.59v-.69a.4.4,0,0,1-.21.11,3,3,0,0,1-.37.08l-.4.06-.32,0a2.33,2.33,0,0,0-.55.12,1,1,0,0,0-.41.25.67.67,0,0,0-.15.46.65.65,0,0,0,.29.59A1.29,1.29,0,0,0,168.73,425.4Z"/><path d="M173,423V426h-.75v-4.91H173v.77H173a1.37,1.37,0,0,1,.52-.6,1.68,1.68,0,0,1,.91-.23,1.86,1.86,0,0,1,.87.2,1.42,1.42,0,0,1,.59.62,2.36,2.36,0,0,1,.2,1V426h-.75v-3.07a1.29,1.29,0,0,0-.3-.9,1.06,1.06,0,0,0-.83-.32,1.34,1.34,0,0,0-.64.15,1.17,1.17,0,0,0-.45.46A1.49,1.49,0,0,0,173,423Z"/><path d="M178.27,423V426h-.76v-4.91h.73v.77h.07a1.37,1.37,0,0,1,.52-.6,1.66,1.66,0,0,1,.91-.23,1.86,1.86,0,0,1,.87.2,1.4,1.4,0,0,1,.58.62,2.22,2.22,0,0,1,.21,1V426h-.75v-3.07a1.29,1.29,0,0,0-.3-.9,1.08,1.08,0,0,0-.83-.32,1.34,1.34,0,0,0-.64.15,1.17,1.17,0,0,0-.45.46A1.49,1.49,0,0,0,178.27,423Z"/><path d="M184.77,426.06a2.12,2.12,0,0,1-1.16-.31,2.19,2.19,0,0,1-.78-.89,2.93,2.93,0,0,1-.28-1.33,3,3,0,0,1,.28-1.34,2.16,2.16,0,0,1,.78-.88,2.28,2.28,0,0,1,2.33,0,2.16,2.16,0,0,1,.78.88,3,3,0,0,1,.28,1.34,2.93,2.93,0,0,1-.28,1.33,2.19,2.19,0,0,1-.78.89A2.13,2.13,0,0,1,184.77,426.06Zm0-.67a1.34,1.34,0,0,0,.84-.26,1.62,1.62,0,0,0,.48-.68,2.87,2.87,0,0,0,0-1.83,1.59,1.59,0,0,0-.48-.69,1.47,1.47,0,0,0-1.67,0,1.59,1.59,0,0,0-.48.69,2.7,2.7,0,0,0,0,1.83,1.62,1.62,0,0,0,.48.68A1.33,1.33,0,0,0,184.77,425.39Z"/><circle cx="287.67" cy="833.07" r="3.45"/><path d="M300.69,838.78V827.87h3.69a4.24,4.24,0,0,1,2.1.46,3,3,0,0,1,1.21,1.24,4,4,0,0,1,0,3.5,2.91,2.91,0,0,1-1.2,1.26,4.2,4.2,0,0,1-2.09.46h-2.64v-1.17h2.6a2.89,2.89,0,0,0,1.41-.3,1.82,1.82,0,0,0,.77-.83,2.86,2.86,0,0,0,0-2.34,1.7,1.7,0,0,0-.78-.81,2.92,2.92,0,0,0-1.43-.3H302v9.74Z"/><path d="M310.22,827.87h1.57l3.71,9h.13l3.7-9h1.58v10.91h-1.23v-8.29h-.11l-3.41,8.29H315l-3.41-8.29h-.11v8.29h-1.23Z"/><path d="M327.2,827.87v10.91h-1.32v-9.53h-.07L323.15,831v-1.34l2.73-1.81Z"/><path d="M333.89,838.93a3.21,3.21,0,0,1-2.05-.66,4.09,4.09,0,0,1-1.3-1.91,10.43,10.43,0,0,1,0-6.06,4.15,4.15,0,0,1,1.3-1.92,3.5,3.5,0,0,1,4.09,0,4.07,4.07,0,0,1,1.3,1.92,10.43,10.43,0,0,1,0,6.06,4.15,4.15,0,0,1-1.29,1.91A3.25,3.25,0,0,1,333.89,838.93Zm0-1.17a2.05,2.05,0,0,0,1.85-1.16,6.65,6.65,0,0,0,.66-3.28,8.43,8.43,0,0,0-.3-2.41,3.42,3.42,0,0,0-.86-1.52,1.92,1.92,0,0,0-1.35-.52A2.05,2.05,0,0,0,332,830a6.65,6.65,0,0,0-.67,3.29,8.38,8.38,0,0,0,.3,2.41,3.38,3.38,0,0,0,.86,1.51A2,2,0,0,0,333.89,837.76Z"/><path d="M340.09,833.92v-.85l6.86-3.5v1.37l-5.26,2.53,0-.08v.21l0-.09,5.26,2.54v1.36Z"/><path d="M353,838.93a3.72,3.72,0,0,1-1.69-.38,3.15,3.15,0,0,1-1.2-1,2.74,2.74,0,0,1-.5-1.48h1.28a1.73,1.73,0,0,0,.67,1.22,2.37,2.37,0,0,0,2.63.17,2.28,2.28,0,0,0,.83-.86,2.6,2.6,0,0,0,.3-1.25,2.55,2.55,0,0,0-.31-1.28,2.35,2.35,0,0,0-.85-.89,2.58,2.58,0,0,0-1.25-.33,3.71,3.71,0,0,0-1,.15,2.71,2.71,0,0,0-.87.41l-1.24-.15.66-5.37h5.67V829h-4.56l-.38,3.22h.06a2.56,2.56,0,0,1,.84-.44,3.15,3.15,0,0,1,1.06-.18,3.34,3.34,0,0,1,1.78.48,3.3,3.3,0,0,1,1.24,1.3,3.87,3.87,0,0,1,.45,1.88,3.74,3.74,0,0,1-.47,1.87,3.44,3.44,0,0,1-1.28,1.29A3.66,3.66,0,0,1,353,838.93Z"/><path d="M362.27,838.93a3.21,3.21,0,0,1-2-.66,4.09,4.09,0,0,1-1.3-1.91,10.43,10.43,0,0,1,0-6.06,4.15,4.15,0,0,1,1.3-1.92,3.5,3.5,0,0,1,4.09,0,4.07,4.07,0,0,1,1.3,1.92,10.43,10.43,0,0,1,0,6.06,4.15,4.15,0,0,1-1.29,1.91A3.25,3.25,0,0,1,362.27,838.93Zm0-1.17a2.05,2.05,0,0,0,1.85-1.16,6.65,6.65,0,0,0,.66-3.28,8.43,8.43,0,0,0-.3-2.41,3.42,3.42,0,0,0-.86-1.52,1.92,1.92,0,0,0-1.35-.52,2.05,2.05,0,0,0-1.85,1.16,6.76,6.76,0,0,0-.67,3.29,8.38,8.38,0,0,0,.3,2.41,3.38,3.38,0,0,0,.86,1.51A2,2,0,0,0,362.27,837.76Z"/><path d="M368,841.44v-9.75H369v4.19a2.07,2.07,0,0,0,.24,1,1.74,1.74,0,0,0,.69.68,2,2,0,0,0,1,.25,2.12,2.12,0,0,0,1-.25,1.71,1.71,0,0,0,.68-.68,2,2,0,0,0,.25-1v-4.19h1.09v7.09H373v-1.06h-.06a2,2,0,0,1-.8.86,2.23,2.23,0,0,1-2.2,0,2,2,0,0,1-.8-.86H369v3.72Z"/><path d="M378.9,841.58a4,4,0,0,1-1.36-.2,3,3,0,0,1-.94-.52,3,3,0,0,1-.6-.7l.87-.61c.1.13.22.28.37.45a2.06,2.06,0,0,0,.63.44,2.47,2.47,0,0,0,1,.18,2.3,2.3,0,0,0,1.42-.41,1.52,1.52,0,0,0,.56-1.3v-1.44h-.09a5.76,5.76,0,0,1-.34.47,2.07,2.07,0,0,1-.63.51,2.41,2.41,0,0,1-1.1.22,3,3,0,0,1-1.54-.41,2.82,2.82,0,0,1-1.08-1.18,4.18,4.18,0,0,1-.39-1.88,4.47,4.47,0,0,1,.38-1.9,3,3,0,0,1,1.07-1.26,2.79,2.79,0,0,1,1.58-.45,2.31,2.31,0,0,1,1.1.23,1.92,1.92,0,0,1,.62.52c.15.19.26.35.34.47h.11v-1.12H382V839a2.46,2.46,0,0,1-.42,1.49,2.38,2.38,0,0,1-1.1.84A4.27,4.27,0,0,1,378.9,841.58Zm0-3.89a2,2,0,0,0,1.1-.3,1.89,1.89,0,0,0,.69-.87,3.38,3.38,0,0,0,.24-1.34,3.84,3.84,0,0,0-.23-1.36,2.07,2.07,0,0,0-.69-.91,1.77,1.77,0,0,0-1.11-.34,1.88,1.88,0,0,0-1.16.35,2.15,2.15,0,0,0-.68,1,3.43,3.43,0,0,0-.23,1.31,3.31,3.31,0,0,0,.23,1.3,2.06,2.06,0,0,0,.69.89A2,2,0,0,0,378.87,837.69Z"/><path d="M387.3,828.88l-3,11.32h-1l3.05-11.32Z"/><path d="M388.6,838.78v-7.09h1v1.1h.09a1.84,1.84,0,0,1,.72-.88,2.15,2.15,0,0,1,1.18-.32,2,2,0,0,1,1.17.32,2.14,2.14,0,0,1,.74.88h.07a2.08,2.08,0,0,1,.82-.87,2.46,2.46,0,0,1,1.3-.33,2.11,2.11,0,0,1,1.56.6,2.48,2.48,0,0,1,.6,1.84v4.75h-1.09V834a1.33,1.33,0,0,0-.43-1.12,1.6,1.6,0,0,0-1-.34,1.51,1.51,0,0,0-1.16.45,1.64,1.64,0,0,0-.41,1.14v4.62h-1.1v-4.86a1.27,1.27,0,0,0-.4-1,1.44,1.44,0,0,0-1-.37,1.51,1.51,0,0,0-.79.23,1.76,1.76,0,0,0-.59.62,1.88,1.88,0,0,0-.22.93v4.43Z"/><path d="M401.33,834.52a2.4,2.4,0,0,1-.95-.18,1.58,1.58,0,0,1-.65-.51,1.28,1.28,0,0,1-.27-.76h.68a.75.75,0,0,0,.18.46,1.08,1.08,0,0,0,.42.3,1.57,1.57,0,0,0,.58.1,1.54,1.54,0,0,0,.63-.12.94.94,0,0,0,.43-.35.8.8,0,0,0,.16-.51.94.94,0,0,0-.15-.53,1,1,0,0,0-.44-.37,1.7,1.7,0,0,0-.71-.13h-.44v-.59h.44a1.26,1.26,0,0,0,.57-.12.87.87,0,0,0,.39-.34.84.84,0,0,0,.15-.5,1,1,0,0,0-.13-.49.78.78,0,0,0-.35-.32,1.09,1.09,0,0,0-.53-.12,1.36,1.36,0,0,0-.53.11,1,1,0,0,0-.41.29.78.78,0,0,0-.18.47h-.64a1.36,1.36,0,0,1,.26-.76,1.81,1.81,0,0,1,.64-.51,2.13,2.13,0,0,1,.88-.18,1.7,1.7,0,0,1,.87.21,1.45,1.45,0,0,1,.76,1.27,1.3,1.3,0,0,1-.24.79,1.26,1.26,0,0,1-.66.46v0a1.25,1.25,0,0,1,.81.44,1.32,1.32,0,0,1,.3.88,1.44,1.44,0,0,1-.25.81,1.65,1.65,0,0,1-.66.56A2.12,2.12,0,0,1,401.33,834.52Z"/><circle class="cls-4" cx="554.07" cy="833.07" r="3.45"/><path class="cls-4" d="M567.1,838.78V827.87h3.68a4.26,4.26,0,0,1,2.11.46,3,3,0,0,1,1.21,1.24,4.12,4.12,0,0,1,0,3.5,2.88,2.88,0,0,1-1.21,1.26,4.16,4.16,0,0,1-2.08.46h-2.65v-1.17h2.6a2.84,2.84,0,0,0,1.41-.3,1.79,1.79,0,0,0,.78-.83,3,3,0,0,0,0-2.34,1.7,1.7,0,0,0-.78-.81,3,3,0,0,0-1.43-.3h-2.32v9.74Z"/><path class="cls-4" d="M576.62,827.87h1.58l3.71,9H582l3.71-9h1.58v10.91h-1.24v-8.29H586l-3.41,8.29h-1.2L578,830.49h-.1v8.29h-1.24Z"/><path class="cls-4" d="M593.6,827.87v10.91h-1.32v-9.53h-.06L589.55,831v-1.34l2.73-1.81Z"/><path class="cls-4" d="M600.29,838.93a3.25,3.25,0,0,1-2-.66,4.15,4.15,0,0,1-1.29-1.91,10.43,10.43,0,0,1,0-6.06,4.07,4.07,0,0,1,1.3-1.92,3.5,3.5,0,0,1,4.09,0,4.15,4.15,0,0,1,1.3,1.92,10.43,10.43,0,0,1,0,6.06,4.09,4.09,0,0,1-1.3,1.91A3.21,3.21,0,0,1,600.29,838.93Zm0-1.17a2.05,2.05,0,0,0,1.86-1.16,6.65,6.65,0,0,0,.66-3.28,8.43,8.43,0,0,0-.3-2.41,3.34,3.34,0,0,0-.87-1.52,1.89,1.89,0,0,0-1.35-.52,2,2,0,0,0-1.84,1.16,6.65,6.65,0,0,0-.67,3.29,8.38,8.38,0,0,0,.3,2.41,3.29,3.29,0,0,0,.86,1.51A1.93,1.93,0,0,0,600.29,837.76Z"/><path class="cls-4" d="M613.35,833.92l-6.86,3.49v-1.36l5.27-2.54,0,.09v-.21l0,.08-5.27-2.53v-1.37l6.86,3.5Z"/><path class="cls-4" d="M619.41,838.93a3.72,3.72,0,0,1-1.69-.38,3.26,3.26,0,0,1-1.21-1,2.81,2.81,0,0,1-.49-1.48h1.28a1.73,1.73,0,0,0,.67,1.22,2.24,2.24,0,0,0,1.44.49,2.27,2.27,0,0,0,2-1.18,2.6,2.6,0,0,0,.3-1.25,2.66,2.66,0,0,0-.31-1.28,2.37,2.37,0,0,0-.86-.89,2.52,2.52,0,0,0-1.24-.33,3.77,3.77,0,0,0-1,.15,2.93,2.93,0,0,0-.87.41l-1.23-.15.66-5.37h5.67V829H618l-.39,3.22h.07a2.56,2.56,0,0,1,.84-.44,3.13,3.13,0,0,1,1-.18,3.38,3.38,0,0,1,3,1.78,3.87,3.87,0,0,1,.45,1.88,3.74,3.74,0,0,1-.47,1.87,3.52,3.52,0,0,1-1.28,1.29A3.66,3.66,0,0,1,619.41,838.93Z"/><path class="cls-4" d="M628.67,838.93a3.25,3.25,0,0,1-2-.66,4.15,4.15,0,0,1-1.29-1.91,10.43,10.43,0,0,1,0-6.06,4.07,4.07,0,0,1,1.3-1.92,3.5,3.5,0,0,1,4.09,0,4.15,4.15,0,0,1,1.3,1.92,10.43,10.43,0,0,1,0,6.06,4.09,4.09,0,0,1-1.3,1.91A3.21,3.21,0,0,1,628.67,838.93Zm0-1.17a2.05,2.05,0,0,0,1.86-1.16,6.65,6.65,0,0,0,.66-3.28,8.43,8.43,0,0,0-.3-2.41,3.34,3.34,0,0,0-.87-1.52,1.89,1.89,0,0,0-1.35-.52,2,2,0,0,0-1.84,1.16,6.65,6.65,0,0,0-.67,3.29,8.38,8.38,0,0,0,.3,2.41,3.29,3.29,0,0,0,.86,1.51A1.93,1.93,0,0,0,628.67,837.76Z"/><path class="cls-4" d="M634.36,841.44v-9.75h1.09v4.19a2.07,2.07,0,0,0,.24,1,1.71,1.71,0,0,0,.68.68,2.05,2.05,0,0,0,1,.25,2.15,2.15,0,0,0,1-.25,1.71,1.71,0,0,0,.68-.68,2.07,2.07,0,0,0,.24-1v-4.19h1.09v7.09h-1.09v-1.06h-.05a2,2,0,0,1-.8.86,2.25,2.25,0,0,1-2.21,0,2.08,2.08,0,0,1-.8-.86h0v3.72Z"/><path class="cls-4" d="M645.31,841.58a3.94,3.94,0,0,1-1.36-.2,2.91,2.91,0,0,1-.94-.52,3,3,0,0,1-.6-.7l.87-.61c.1.13.22.28.37.45a2,2,0,0,0,.62.44,2.56,2.56,0,0,0,1,.18,2.32,2.32,0,0,0,1.42-.41,1.52,1.52,0,0,0,.55-1.3v-1.44h-.09a4.05,4.05,0,0,1-.34.47,1.85,1.85,0,0,1-.63.51,2.38,2.38,0,0,1-1.1.22,3,3,0,0,1-1.54-.41,2.8,2.8,0,0,1-1.07-1.18,4.17,4.17,0,0,1-.4-1.88,4.33,4.33,0,0,1,.39-1.9,3,3,0,0,1,1.06-1.26,2.84,2.84,0,0,1,1.58-.45,2.28,2.28,0,0,1,1.1.23,1.87,1.87,0,0,1,.63.52c.15.19.26.35.34.47h.11v-1.12h1V839a2.46,2.46,0,0,1-.41,1.49,2.36,2.36,0,0,1-1.11.84A4.22,4.22,0,0,1,645.31,841.58Zm0-3.89a2,2,0,0,0,1.11-.3,1.89,1.89,0,0,0,.69-.87,3.57,3.57,0,0,0,.23-1.34,3.63,3.63,0,0,0-.23-1.36,2,2,0,0,0-.68-.91,1.8,1.8,0,0,0-1.12-.34,1.87,1.87,0,0,0-1.15.35,2.1,2.1,0,0,0-.69,1,3.64,3.64,0,0,0-.23,1.31,3.31,3.31,0,0,0,.24,1.3,1.92,1.92,0,0,0,.69.89A2,2,0,0,0,645.27,837.69Z"/><path class="cls-4" d="M653.71,828.88l-3.05,11.32h-1l3-11.32Z"/><path class="cls-4" d="M655,838.78v-7.09h1.06v1.1h.09a1.82,1.82,0,0,1,.71-.88,2.18,2.18,0,0,1,1.19-.32,2,2,0,0,1,1.17.32,2.11,2.11,0,0,1,.73.88H660a2.12,2.12,0,0,1,.81-.87,2.5,2.5,0,0,1,1.31-.33,2.1,2.1,0,0,1,1.55.6,2.45,2.45,0,0,1,.61,1.84v4.75h-1.09V834a1.33,1.33,0,0,0-.43-1.12,1.62,1.62,0,0,0-1-.34,1.5,1.5,0,0,0-1.16.45,1.64,1.64,0,0,0-.41,1.14v4.62H659.1v-4.86a1.3,1.3,0,0,0-.39-1,1.44,1.44,0,0,0-1-.37,1.48,1.48,0,0,0-.79.23,1.67,1.67,0,0,0-.59.62,1.89,1.89,0,0,0-.23.93v4.43Z"/><path class="cls-4" d="M667.74,834.52a2.37,2.37,0,0,1-1-.18,1.55,1.55,0,0,1-.66-.51,1.34,1.34,0,0,1-.26-.76h.67a.83.83,0,0,0,.19.46,1.08,1.08,0,0,0,.42.3,1.72,1.72,0,0,0,1.21,0,1,1,0,0,0,.43-.35A.86.86,0,0,0,669,833a.88.88,0,0,0-.16-.53,1,1,0,0,0-.44-.37,1.67,1.67,0,0,0-.71-.13h-.44v-.59h.44a1.34,1.34,0,0,0,.58-.12.87.87,0,0,0,.39-.34.92.92,0,0,0,.14-.5,1,1,0,0,0-.12-.49.78.78,0,0,0-.35-.32,1.12,1.12,0,0,0-.53-.12,1.41,1.41,0,0,0-.54.11,1.22,1.22,0,0,0-.41.29.84.84,0,0,0-.17.47H666a1.29,1.29,0,0,1,.26-.76,1.73,1.73,0,0,1,.64-.51,2.05,2.05,0,0,1,.87-.18,1.76,1.76,0,0,1,.88.21,1.39,1.39,0,0,1,.56.54,1.43,1.43,0,0,1,.2.73,1.24,1.24,0,0,1-.25.79,1.26,1.26,0,0,1-.66.46v0a1.3,1.3,0,0,1,.82.44,1.37,1.37,0,0,1,.29.88,1.43,1.43,0,0,1-.24.81,1.65,1.65,0,0,1-.66.56A2.12,2.12,0,0,1,667.74,834.52Z"/><g class="cls-5"><circle class="cls-4" cx="826.78" cy="833.07" r="9.75"/></g><circle class="cls-4" cx="826.78" cy="833.07" r="3.45"/><path d="M839.78,838.78V827.87h6.58V829H841.1v3.69H846v1.17H841.1v3.71h5.35v1.17Z"/><path d="M849.2,827.87l3.24,9.18h.12l3.24-9.18h1.39l-4,10.91h-1.36l-4-10.91Z"/><path d="M858.89,838.78V827.87h6.59V829h-5.27v3.69h4.92v1.17h-4.92v3.71h5.35v1.17Z"/><path d="M876.51,827.87v10.91h-1.28l-5.94-8.57h-.11v8.57h-1.32V827.87h1.28l6,8.59h.1v-8.59Z"/><path d="M878.56,829v-1.17h8.18V829h-3.43v9.74H882V829Z"/><path d="M897.54,833.32a6.76,6.76,0,0,1-.62,3,4.83,4.83,0,0,1-1.71,1.94,4.88,4.88,0,0,1-5,0,4.83,4.83,0,0,1-1.71-1.94,7.5,7.5,0,0,1,0-6,4.77,4.77,0,0,1,1.71-1.94,4.88,4.88,0,0,1,5,0,4.77,4.77,0,0,1,1.71,1.94A6.72,6.72,0,0,1,897.54,833.32Zm-1.28,0a5.39,5.39,0,0,0-.47-2.39,3.41,3.41,0,0,0-1.27-1.47,3.24,3.24,0,0,0-1.79-.5,3.3,3.3,0,0,0-1.8.5,3.48,3.48,0,0,0-1.27,1.47,6.34,6.34,0,0,0,0,4.79,3.54,3.54,0,0,0,1.27,1.47,3.39,3.39,0,0,0,1.8.5,3.33,3.33,0,0,0,1.79-.5,3.47,3.47,0,0,0,1.27-1.47A5.44,5.44,0,0,0,896.26,833.32Z"/></svg>