<?xml version="1.0" encoding="utf-8"?>
<!-- Generator: Adobe Illustrator 24.0.1, SVG Export Plug-In . SVG Version: 6.00 Build 0)  -->
<svg version="1.1" id="Layer_1" xmlns="http://www.w3.org/2000/svg" xmlns:xlink="http://www.w3.org/1999/xlink" x="0px" y="0px"
	 viewBox="0 0 1125 1815" style="enable-background:new 0 0 1125 1815;" xml:space="preserve">
<style type="text/css">
	.st0{fill:none;}
	.st1{fill:#FE5000;}
	.st2{font-family:'KareliaWeb-Outtakes';}
	.st3{font-size:57px;}
	.st4{fill:#A2A2A2;}
	.st5{fill:#B6B6B6;}
	.st6{fill:#EFEFEF;}
	.st7{fill:#B8B8B8;}
	.st8{enable-background:new    ;}
	.st9{opacity:0.3;}
	.st10{fill:#FF3A00;}
</style>
<g>
	<rect x="161.3" y="1578.8" class="st0" width="663.9" height="194.6"/>
	<text transform="matrix(1 0 0 1 161.2578 1619.517)"><tspan x="0" y="0" class="st1 st2 st3">PM10&gt;50ug/m3</tspan><tspan x="0" y="68.4" class="st2 st3">PM10&lt;50ug/m3</tspan><tspan x="0.1" y="136.8" class="st4 st2 st3">riscaldamenti</tspan></text>
	<circle class="st1" cx="104.3" cy="1601.2" r="20"/>
	<circle cx="104.3" cy="1666.2" r="20"/>
	<rect x="86.8" y="1719.7" class="st5" width="35" height="35"/>
</g>
<g>
	<g>
		<path class="st5" d="M163.9,1455.4c0-4.1,1.4-7.2,4.9-7.2c3.5,0,4.9,3.2,4.9,7.2c0,4.1-1.4,7.2-4.9,7.2
			C165.2,1462.6,163.9,1459.4,163.9,1455.4z M171.7,1455.4c0-3.6-1-5.6-3-5.6c-2,0-3,2-3,5.6c0,3.6,1,5.6,3,5.6
			C170.7,1461,171.7,1458.9,171.7,1455.4z"/>
	</g>
	<g>
		<path class="st5" d="M237.6,1451.5l4.5-3.1l1.4,0l0,12.4l3.4,0l0,1.5l-8.8,0l0-1.5l3.6,0l0-10.1l-3.2,2.2L237.6,1451.5z"/>
		<path class="st5" d="M248.8,1455.4c0-4.1,1.4-7.2,4.9-7.2c3.5,0,4.8,3.2,4.8,7.2c0,4.1-1.4,7.2-4.8,7.2S248.8,1459.4,248.8,1455.4
			z M256.7,1455.4c0-3.6-1-5.6-3-5.6c-2,0-3,2-3,5.6c0,3.6,1,5.6,3,5.6C255.7,1461,256.6,1458.9,256.7,1455.4L256.7,1455.4z"/>
	</g>
	<g>
		<path class="st5" d="M320.3,1456.4l1.5-1.1c1.4-1,2.3-1.5,2.3-3.2c0-1.3-1-2.4-2.3-2.4c-0.1,0-0.2,0-0.3,0c-1.8,0-2.7,1-2.8,2.8
			l-1.7,0c-0.1-2.3,1.6-4.2,3.8-4.4c0.2,0,0.4,0,0.6,0c2.2-0.2,4.1,1.3,4.3,3.5c0,0.2,0,0.3,0,0.5c0,2.4-1.6,3.4-3,4.3l-1.4,1
			c-2.1,1.4-2.4,2.4-2.5,3.4l7.2,0l0,1.5l-9.2,0C316.8,1459.9,318.1,1457.6,320.3,1456.4z"/>
		<path class="st5" d="M328.2,1455.4c0-4.1,1.4-7.2,4.9-7.2c3.5,0,4.8,3.2,4.8,7.2c0,4.1-1.4,7.2-4.8,7.2S328.2,1459.4,328.2,1455.4
			z M336,1455.4c0-3.6-1-5.6-3-5.6c-2,0-3,2-3,5.6c0,3.6,1,5.6,3,5.6C335.1,1461,336,1459,336,1455.4L336,1455.4z"/>
	</g>
	<g>
		<path class="st5" d="M397.8,1458.1c-0.1,1.5,1,2.8,2.4,2.9c0.2,0,0.4,0,0.6,0c1.7,0,3-0.9,3-2.6c-0.1-1.5-1.4-2.7-2.9-2.6
			c0,0-0.1,0-0.1,0l-1,0l0-1.5l1,0c1.3,0.1,2.4-1,2.5-2.3c0,0,0-0.1,0-0.1c0-1.3-1-2.3-2.3-2.3c-0.1,0-0.2,0-0.2,0
			c-1.3-0.1-2.4,0.8-2.5,2.1c0,0.1,0,0.3,0,0.4l-1.6,0c-0.1-2.1,1.5-3.9,3.6-4.1c0.2,0,0.3,0,0.5,0c2.1-0.2,4,1.3,4.2,3.4
			c0,0.1,0,0.2,0,0.3c0,1.3-0.8,2.5-2,3.1v0.1c1.5,0.4,2.6,1.9,2.6,3.5c0,2.5-2.1,4-4.8,4c-2.3,0.3-4.4-1.3-4.7-3.6
			c0-0.3,0-0.6,0-0.9L397.8,1458.1z"/>
		<path class="st5" d="M407.6,1455.4c0-4.1,1.4-7.2,4.9-7.2c3.5,0,4.8,3.2,4.8,7.2c0,4.1-1.4,7.2-4.8,7.2
			C408.9,1462.6,407.6,1459.4,407.6,1455.4z M415.4,1455.4c0-3.6-1-5.6-3-5.6c-2,0-3,2-3,5.6c0,3.6,1,5.6,3,5.6
			C414.4,1461,415.3,1458.9,415.4,1455.4L415.4,1455.4z"/>
	</g>
	<g>
		<path class="st5" d="M475.2,1457.6l6.8-9.1l1.5,0l0,8.9l2,0l0,1.6l-2,0l0,3.5l-1.8,0l0-3.5l-6.4,0L475.2,1457.6z M481.6,1457.3
			l0-6.1l-4.6,6.1L481.6,1457.3z"/>
		<path class="st5" d="M487.1,1455.4c0-4.1,1.4-7.2,4.9-7.2c3.5,0,4.8,3.2,4.8,7.2c0,4.1-1.4,7.2-4.8,7.2
			C488.4,1462.6,487.1,1459.4,487.1,1455.4z M494.9,1455.4c0-3.6-1-5.6-3-5.6c-2,0-3,2-3,5.6c0,3.6,1,5.6,3,5.6
			C493.9,1461,494.9,1458.9,494.9,1455.4L494.9,1455.4z"/>
	</g>
	<g>
		<path class="st5" d="M556.5,1458.6c0.2,1.5,1.5,2.5,3,2.4c1.7,0,3-1.4,3-3c0-1.7-1.4-3-3-3c-1.1,0-2,0.5-2.7,1.4l-1.7-0.1l0.4-7.8
			l7.8,0l0,1.7l-6.1,0l-0.3,4.4l0.1,0c0.7-0.7,1.7-1,2.7-1c2.4-0.1,4.4,1.7,4.5,4.1c0,0.1,0,0.3,0,0.4c0.1,2.5-1.9,4.6-4.4,4.6
			c-0.2,0-0.3,0-0.5,0c-2.4,0.3-4.5-1.4-4.8-3.8c0-0.1,0-0.1,0-0.2L556.5,1458.6z"/>
		<path class="st5" d="M566.2,1455.4c0-4.1,1.4-7.2,4.9-7.2c3.5,0,4.8,3.2,4.8,7.2c0,4.1-1.4,7.2-4.8,7.2S566.2,1459.4,566.2,1455.4
			z M574.1,1455.4c0-3.6-1-5.6-3-5.6c-2,0-3,2-3,5.6c0,3.6,1,5.6,3,5.6C573.1,1461,574,1458.9,574.1,1455.4L574.1,1455.4z"/>
	</g>
	<g>
		<path class="st5" d="M639.3,1448.2c2.1-0.2,4,1.3,4.2,3.4c0,0.1,0,0.2,0,0.3l-1.7,0c0-1.2-1-2.2-2.3-2.2c0,0-0.1,0-0.1,0
			c-1.7,0-3.4,1.5-3.4,5.6c0.8-1.2,2.1-1.9,3.6-1.8c2.3,0,4.2,1.8,4.3,4.1c0,0.1,0,0.3,0,0.4c0.1,2.5-1.9,4.5-4.4,4.6
			c-0.1,0-0.2,0-0.3,0c-2.8,0-5.1-1.7-5.1-6.9C634,1450.1,636.7,1448.2,639.3,1448.2z M636.2,1458c-0.1,1.6,1.1,3,2.7,3.1
			c0.1,0,0.1,0,0.2,0c1.7,0,3.1-1.3,3.1-3c0-1.7-1.3-3.1-3-3.1c-1.6,0-3,1.3-3.1,2.9C636.2,1457.9,636.2,1458,636.2,1458L636.2,1458
			z"/>
		<path class="st5" d="M645.5,1455.4c0-4.1,1.4-7.2,4.9-7.2c3.5,0,4.8,3.2,4.8,7.2c0,4.1-1.4,7.2-4.8,7.2
			C646.9,1462.6,645.5,1459.4,645.5,1455.4z M653.4,1455.4c0-3.6-1-5.6-3-5.6c-2,0-3,2-3,5.6c0,3.6,1,5.6,3,5.6
			C652.4,1461,653.3,1458.9,653.4,1455.4L653.4,1455.4z"/>
	</g>
	<g>
		<path class="st5" d="M721,1450l-7.6,0l0-1.7l9.6,0l0,1.3l-5.9,12.6l-1.9,0L721,1450z"/>
		<path class="st5" d="M724.8,1455.4c0-4,1.4-7.2,4.9-7.2c3.5,0,4.8,3.2,4.8,7.2c0,4-1.4,7.2-4.8,7.2
			C726.2,1462.6,724.8,1459.4,724.8,1455.4z M732.7,1455.4c0-3.6-1-5.6-3-5.6s-3,2-3,5.6s1,5.6,3,5.6
			C731.7,1461,732.6,1458.9,732.7,1455.4L732.7,1455.4z"/>
	</g>
	<g>
		<path class="st5" d="M795.3,1455.2L795.3,1455.2c-1.2-0.5-2-1.8-2-3.1c0-2.1,1.7-3.9,3.8-3.9c0.1,0,0.3,0,0.4,0
			c2.1-0.2,4,1.3,4.3,3.4c0,0.1,0,0.3,0,0.4c0,1.3-0.8,2.6-2,3.1l0,0c1.6,0.4,2.6,1.9,2.6,3.5c0,2.5-2,4-4.9,4c-2.9,0-4.9-1.5-4.9-4
			C792.7,1456.9,793.8,1455.6,795.3,1455.2z M797.6,1461.1c1.8,0,3.1-0.9,3.1-2.6c-0.1-1.5-1.4-2.7-2.9-2.6c-0.1,0-0.1,0-0.2,0
			c-1.5-0.2-2.9,0.9-3.1,2.4c0,0.1,0,0.1,0,0.2C794.5,1460.1,795.8,1461.1,797.6,1461.1L797.6,1461.1z M800.2,1452
			c0-1.3-1.1-2.4-2.4-2.3c-0.1,0-0.2,0-0.2,0c-1.3-0.1-2.5,0.8-2.6,2.1c0,0.1,0,0.1,0,0.2c0.2,1.4,1.5,2.5,2.9,2.3
			C799,1454.1,800,1453.2,800.2,1452L800.2,1452z"/>
		<path class="st5" d="M804.3,1455.4c0-4,1.4-7.2,4.9-7.2c3.5,0,4.8,3.2,4.8,7.2s-1.4,7.2-4.8,7.2
			C805.6,1462.6,804.3,1459.4,804.3,1455.4z M812.1,1455.4c0-3.6-1-5.6-3-5.6c-2,0-3,2-3,5.6c0,3.6,1,5.6,3,5.6
			C811.1,1461,812.1,1459,812.1,1455.4L812.1,1455.4z"/>
	</g>
	<g>
		<path class="st5" d="M876.6,1462.6c-2.2,0.2-4.1-1.4-4.4-3.6c0,0,0-0.1,0-0.1l1.8,0c0.1,1.3,1.3,2.3,2.6,2.2
			c1.9,0,3.2-1.4,3.2-5.5c-0.8,1.2-2.1,1.9-3.6,1.8c-2.3,0.1-4.3-1.7-4.4-4c0-0.2,0-0.3,0-0.5c-0.1-2.5,1.9-4.6,4.4-4.6
			c0.1,0,0.2,0,0.3,0c2.8,0,5.1,1.7,5.1,6.9C881.7,1460.7,879.5,1462.6,876.6,1462.6z M879.6,1452.8c0-1.6-1.3-3-3-3s-3,1.3-3,3
			c-0.1,1.6,1.2,2.9,2.7,3c0,0,0.1,0,0.1,0c1.6,0.1,3-1.2,3.1-2.9C879.6,1452.8,879.6,1452.8,879.6,1452.8z"/>
		<path class="st5" d="M883.6,1455.4c0-4,1.4-7.2,4.9-7.2c3.5,0,4.8,3.2,4.8,7.2c0,4-1.4,7.2-4.8,7.2
			C885,1462.6,883.6,1459.4,883.6,1455.4z M891.5,1455.4c0-3.6-1-5.6-3-5.6c-2,0-3,2-3,5.6s1,5.6,3,5.6
			C890.5,1461,891.4,1458.9,891.5,1455.4L891.5,1455.4z"/>
	</g>
	<g>
		<path class="st5" d="M945.7,1451.5l4.5-3.1l1.4,0l0,12.4l3.4,0l0,1.5l-8.8,0l0-1.5l3.6,0l0-10.1l-3.2,2.2L945.7,1451.5z"/>
		<path class="st5" d="M957,1455.4c0-4,1.4-7.2,4.9-7.2c3.5,0,4.8,3.2,4.8,7.2s-1.4,7.2-4.8,7.2C958.4,1462.6,957,1459.4,957,1455.4
			z M964.8,1455.4c0-3.6-1-5.6-3-5.6c-2,0-3,2-3,5.6c0,3.6,1,5.6,3,5.6C963.9,1461,964.8,1458.9,964.8,1455.4L964.8,1455.4z"/>
		<path class="st5" d="M968.4,1455.4c0-4,1.4-7.2,4.9-7.2c3.5,0,4.9,3.2,4.9,7.2s-1.4,7.2-4.9,7.2
			C969.8,1462.6,968.4,1459.4,968.4,1455.4z M976.3,1455.4c0-3.6-1-5.6-3-5.6c-2,0-3,2-3,5.6s1,5.6,3,5.6
			C975.3,1461,976.3,1458.9,976.3,1455.4z"/>
	</g>
	<g>
		<path class="st5" d="M926.5,1508.4l0,1.9l-2.2,0l0-18l2.2,0l0,7.2c0,2.6,1,3.5,2.8,3.5c1.8,0,3.2-1.7,3.2-4.4l0-6.4l2.2,0l0,12.4
			l-2.1,0l0-1.8h-0.1c-0.7,1.4-2.2,2.3-3.7,2.1c-0.9,0-1.7-0.2-2.5-0.7h-0.2C926.4,1505.6,926.5,1507,926.5,1508.4z"/>
		<path class="st5" d="M940,1506c0,1.5,1.4,2.4,3.4,2.4c2,0,3.9-1.1,3.9-4.6l0-1.3h-0.1c-0.8,1.5-2.5,2.4-4.2,2.2
			c-3.1,0-5.5-2.3-5.5-6.4c0-4.1,2.5-6.6,5.7-6.6c1.6-0.1,3.2,0.7,3.9,2.2h0.1l0-1.9l2.1,0l0,11.8c0,4.7-2.8,6.4-6.1,6.4
			c-3.3,0-5.5-1.5-5.5-4.3L940,1506z M943.5,1502.9c2,0,3.6-1.7,3.6-4.6c0-2.9-1.7-4.6-3.6-4.6c-2,0-3.6,1.7-3.6,4.7
			C939.9,1501.4,941.5,1502.9,943.5,1502.9z"/>
		<path class="st5" d="M959.3,1486.8l1.9,0l-7.8,18l-2,0L959.3,1486.8z"/>
		<path class="st5" d="M961.6,1492.2l2.1,0l0,1.8h0.1c0.7-1.4,2.2-2.2,3.7-2.1c1.7-0.2,3.3,0.9,3.9,2.5c0.7-1.6,2.4-2.7,4.2-2.5
			c2.3,0,4.3,1.3,4.3,5l0,7.7l-2.2,0l0-7.4c0-2.4-0.8-3.4-2.5-3.4s-3.2,1.7-3.2,4.3l0,6.4l-2.2,0l0-7.4c0-2.4-0.9-3.4-2.5-3.4
			s-3.2,1.7-3.2,4.3l0,6.4l-2.2,0L961.6,1492.2z"/>
		<path class="st5" d="M983.5,1493c-0.1,1.1,0.7,2,1.8,2.1c0.1,0,0.2,0,0.4,0c1.3,0,2.2-0.7,2.2-1.9c0-1.1-0.9-2-2-2
			c-0.1,0-0.1,0-0.2,0l-0.8,0l0-1.1l0.8,0c0.9,0.1,1.7-0.6,1.8-1.5c0,0,0-0.1,0-0.1c0-0.9-0.7-1.7-1.7-1.7c0,0-0.1,0-0.1,0
			c-0.9-0.1-1.7,0.7-1.8,1.6c0,0.1,0,0.2,0,0.3l-1.2,0c0.1-1.7,1.6-3,3.2-2.9c1.5,0.1,2.6,1.2,2.8,2.6c0,1-0.6,1.9-1.5,2.3l0,0
			c1.1,0.3,1.9,1.4,1.9,2.5c-0.1,1.7-1.6,3-3.3,2.9c-0.1,0-0.1,0-0.2,0c-1.7,0.2-3.2-0.9-3.4-2.6c0-0.2,0-0.4,0-0.6L983.5,1493z"/>
	</g>
	<g>
		
			<rect x="434" y="869.2" transform="matrix(-1.836970e-16 1 -1 -1.836970e-16 1858.1045 701.7992)" class="st6" width="288.3" height="821.6"/>
	</g>
	<g>
		
			<rect x="382.1" y="-150.5" transform="matrix(-1.836970e-16 1 -1 -1.836970e-16 838.4148 -317.912)" class="st6" width="392" height="821.6"/>
	</g>
	<g>
		<path class="st7" d="M167,180.5c0-0.2,0.2-0.4,0.4-0.4h821.2c0.2,0,0.4,0.2,0.4,0.4s-0.2,0.4-0.4,0.4H167.4
			C167.1,180.9,167,180.7,167,180.5z"/>
	</g>
	<g>
		<path class="st7" d="M167,285c0-0.2,0.2-0.4,0.4-0.4h821.2c0.2,0,0.4,0.2,0.4,0.4s-0.2,0.4-0.4,0.4H167.4
			C167.1,285.4,167,285.3,167,285z"/>
	</g>
	<g>
		<path class="st7" d="M167,400.8c0-0.2,0.2-0.4,0.4-0.4h821.2c0.2,0,0.4,0.2,0.4,0.4c0,0.2-0.2,0.4-0.4,0.4H167.4
			C167.1,401.2,167,401,167,400.8z"/>
	</g>
	<g>
		<path class="st7" d="M167,512.8c0-0.2,0.2-0.4,0.4-0.4h821.2c0.2,0,0.4,0.2,0.4,0.4c0,0.2-0.2,0.4-0.4,0.4H167.4
			C167.1,513.2,167,513,167,512.8z"/>
	</g>
	<g>
		<path class="st7" d="M167,628.5c0-0.2,0.2-0.4,0.4-0.4h821.2c0.2,0,0.4,0.2,0.4,0.4s-0.2,0.4-0.4,0.4H167.4
			C167.1,628.9,167,628.8,167,628.5z"/>
	</g>
	<g>
		<path class="st7" d="M167,740.5c0-0.2,0.2-0.4,0.4-0.4h821.2c0.2,0,0.4,0.2,0.4,0.4s-0.2,0.4-0.4,0.4H167.4
			C167.1,740.9,167,740.8,167,740.5z"/>
	</g>
	<g>
		<path class="st7" d="M167,856.3c0-0.2,0.2-0.4,0.4-0.4h821.2c0.2,0,0.4,0.2,0.4,0.4s-0.2,0.4-0.4,0.4H167.4
			C167.1,856.7,167,856.5,167,856.3z"/>
	</g>
	<g>
		<path class="st7" d="M167,972c0-0.2,0.2-0.4,0.4-0.4h821.2c0.2,0,0.4,0.2,0.4,0.4s-0.2,0.4-0.4,0.4H167.4
			C167.1,972.4,167,972.2,167,972z"/>
	</g>
	<g>
		<path class="st7" d="M167,1084c0-0.2,0.2-0.4,0.4-0.4h821.2c0.2,0,0.4,0.2,0.4,0.4c0,0.2-0.2,0.4-0.4,0.4H167.4
			C167.1,1084.4,167,1084.3,167,1084z"/>
	</g>
	<g>
		<path class="st7" d="M167,1199.8c0-0.2,0.2-0.4,0.4-0.4h821.2c0.2,0,0.4,0.2,0.4,0.4c0,0.2-0.2,0.4-0.4,0.4H167.4
			C167.1,1200.2,167,1200,167,1199.8z"/>
	</g>
	<g>
		<path class="st7" d="M167,1311.8c0-0.2,0.2-0.4,0.4-0.4h821.2c0.2,0,0.4,0.2,0.4,0.4c0,0.2-0.2,0.4-0.4,0.4H167.4
			C167.1,1312.2,167,1312,167,1311.8z"/>
	</g>
	<g>
		<path class="st7" d="M167,64.6c0-0.2,0.2-0.4,0.4-0.4h821.2c0.2,0,0.4,0.2,0.4,0.4s-0.2,0.4-0.4,0.4H167.4
			C167.1,65,167,64.8,167,64.6z"/>
	</g>
	<g>
		<path class="st7" d="M167,1423.8c0-0.2,0.2-0.4,0.4-0.4h821.2c0.2,0,0.4,0.2,0.4,0.4c0,0.2-0.2,0.4-0.4,0.4H167.4
			C167.1,1424.2,167,1424,167,1423.8z"/>
	</g>
	<g>
		<g class="st8">
			<path d="M150.1,215.7v9.3h-1.6v-7.4h-5.1v5.9h-1.6v-5.9h-5.7v-1.9H150.1z"/>
			<path d="M150.1,227.4v9.5h-1.6v-7.6h-4.4v6h-1.6v-6h-4.7v7.7h-1.6v-9.6H150.1z"/>
			<path d="M150.1,239.8v5.8c0,3-1.4,4.5-3.7,4.5c-1.3,0-2.5-0.7-2.9-2.2h-0.1c-0.3,1.7-1.5,2.8-3.2,2.8c-2.4,0-4.2-1.6-4.2-4.6
				v-6.2H150.1z M148.5,241.7h-4.3v3.9c0,1.7,1,2.6,2.3,2.6c1.2,0,2-0.7,2-2.6V241.7z M142.6,241.7h-4.8v4.3c0,1.9,1,2.8,2.5,2.8
				c1.3,0,2.3-0.9,2.3-2.8V241.7z"/>
		</g>
	</g>
	<g>
		<g class="st8">
			<path d="M138.2,113.5L138.2,113.5c-1.6-1.1-2.3-2.5-2.3-4.6c0-4,3.1-6.8,7.3-6.8c4.2,0,7.3,2.8,7.3,6.9c0,3.3-1.9,5.5-4.4,6.1v-2
				c1.4-0.4,2.7-1.8,2.7-4.2c0-3-2.4-5-5.5-5c-3.2,0-5.5,2-5.5,4.9c0,2.3,1.4,4.5,3.9,4.5h0.4V109h1.6v6.1h-7.4v-1.2L138.2,113.5z"
				/>
			<path d="M150.1,118.4v9.5h-1.6v-7.6h-4.4v6h-1.6v-6h-4.7v7.7h-1.6v-9.6H150.1z"/>
			<path d="M150.1,130.9v1.8l-10.8,7.7v0.1l10.8-0.1v1.9h-14v-1.8l10.8-7.7v-0.1l-10.8,0.1v-1.9H150.1z"/>
		</g>
	</g>
	<g>
		<g class="st8">
			<path d="M150.1,322.3v2.3l-11.5,5.2v0l11.5,5.1v2.3h-14v-1.9l11.1,0.2v-0.1l-11.1-4.9V329l10.8-4.9V324l-10.8,0.2v-1.9H150.1z"/>
			<path d="M150.1,344.4v2.2l-14,5.2v-2l3.7-1.3v-6.2l-3.7-1.3v-1.9L150.1,344.4z M148.2,345.4l-6.8-2.4v5L148.2,345.4L148.2,345.4z
				"/>
			<path d="M150.1,353.8v5.3c0,3.2-1.5,4.9-4.2,4.9c-2.1,0-3.6-1.1-4.2-3.1l-5.7,3.6v-2l5.5-3.5v-3.3h-5.5v-1.9H150.1z M148.5,355.7
				h-5.3v3.5c0,2,1.2,2.9,2.8,2.9c1.5,0,2.5-1.1,2.5-2.9V355.7z"/>
		</g>
	</g>
	<g>
		<g class="st8">
			<path d="M150.1,442.5v2.2l-14,5.2v-2l3.7-1.3v-6.2l-3.7-1.3v-1.9L150.1,442.5z M148.2,443.6l-6.8-2.4v5L148.2,443.6L148.2,443.6z
				"/>
			<path d="M150.1,452v5.3c0,3.2-1.9,5-4.5,5c-2.6,0-4.6-1.8-4.6-5v-3.4h-4.9V452H150.1z M148.5,453.9h-5.9v3.5c0,2,1.4,3,3,3
				c1.6,0,2.9-1,2.9-3V453.9z"/>
			<path d="M150.1,465v5.3c0,3.2-1.5,4.9-4.2,4.9c-2.1,0-3.6-1.1-4.2-3.1l-5.7,3.6v-2l5.5-3.5v-3.3h-5.5V465H150.1z M148.5,466.8
				h-5.3v3.5c0,2,1.2,2.9,2.8,2.9c1.5,0,2.5-1.1,2.5-2.9V466.8z"/>
		</g>
	</g>
	<g>
		<g class="st8">
			<path d="M150.1,549.1v2.3l-11.5,5.2v0l11.5,5.1v2.3h-14v-1.9l11.1,0.2v-0.1l-11.1-4.9v-1.5l10.8-4.9v-0.1l-10.8,0.2v-1.9H150.1z"
				/>
			<path d="M150.1,571.2v2.2l-14,5.2v-2l3.7-1.3v-6.2l-3.7-1.3V566L150.1,571.2z M148.2,572.2l-6.8-2.4v5L148.2,572.2L148.2,572.2z"
				/>
			<path d="M138.2,590.9L138.2,590.9c-1.6-1.1-2.3-2.5-2.3-4.6c0-4,3.1-6.8,7.3-6.8c4.2,0,7.3,2.8,7.3,6.9c0,3.3-1.9,5.5-4.4,6.1v-2
				c1.4-0.4,2.7-1.8,2.7-4.2c0-3-2.4-5-5.5-5c-3.2,0-5.5,2-5.5,4.9c0,2.3,1.4,4.5,3.9,4.5h0.4v-4.4h1.6v6.1h-7.4v-1.2L138.2,590.9z"
				/>
		</g>
	</g>
	<g>
		<g class="st8">
			<path d="M138.2,679.3L138.2,679.3c-1.6-1.1-2.3-2.5-2.3-4.6c0-4,3.1-6.8,7.3-6.8c4.2,0,7.3,2.8,7.3,6.9c0,3.3-1.9,5.5-4.4,6.1v-2
				c1.4-0.4,2.7-1.8,2.7-4.2c0-3-2.4-5-5.5-5c-3.2,0-5.5,2-5.5,4.9c0,2.3,1.4,4.5,3.9,4.5h0.4v-4.4h1.6v6.1h-7.4v-1.2L138.2,679.3z"
				/>
			<path d="M150.1,684.2v1.9h-14v-1.9H150.1z"/>
			<path d="M150.1,689.4v1.9h-8.5c-2.6,0-4.1,1.2-4.1,3.7c0,2.5,1.5,3.7,4.1,3.7h8.5v1.9h-8.5c-4.2,0-5.8-2.3-5.8-5.6
				c0-3.3,1.6-5.6,5.8-5.6H150.1z"/>
		</g>
	</g>
	<g>
		<g class="st8">
			<path d="M150.1,779.9v1.9h-12.4v6.8h-1.6v-8.7H150.1z"/>
			<path d="M150.1,790.3v1.9h-8.5c-2.6,0-4.1,1.2-4.1,3.7c0,2.5,1.5,3.7,4.1,3.7h8.5v1.9h-8.5c-4.2,0-5.8-2.3-5.8-5.6
				c0-3.3,1.6-5.6,5.8-5.6H150.1z"/>
			<path d="M138.2,815.6L138.2,815.6c-1.6-1.1-2.3-2.5-2.3-4.6c0-4,3.1-6.8,7.3-6.8c4.2,0,7.3,2.8,7.3,6.9c0,3.3-1.9,5.5-4.4,6.1v-2
				c1.4-0.4,2.7-1.8,2.7-4.2c0-3-2.4-5-5.5-5c-3.2,0-5.5,2-5.5,4.9c0,2.3,1.4,4.5,3.9,4.5h0.4V811h1.6v6.1h-7.4v-1.2L138.2,815.6z"
				/>
		</g>
	</g>
	<g>
		<g class="st8">
			<path d="M150.1,897.8v2.2l-14,5.2v-2l3.7-1.3v-6.2l-3.7-1.3v-1.9L150.1,897.8z M148.2,898.8l-6.8-2.4v5L148.2,898.8L148.2,898.8z
				"/>
			<path d="M138.2,917.4L138.2,917.4c-1.6-1.1-2.3-2.5-2.3-4.6c0-4,3.1-6.8,7.3-6.8c4.2,0,7.3,2.8,7.3,6.9c0,3.3-1.9,5.5-4.4,6.1v-2
				c1.4-0.4,2.7-1.8,2.7-4.2c0-3-2.4-5-5.5-5c-3.2,0-5.5,2-5.5,4.9c0,2.3,1.4,4.5,3.9,4.5h0.4v-4.4h1.6v6.1h-7.4v-1.2L138.2,917.4z"
				/>
			<path d="M150.4,928.3c0,4-3.1,6.8-7.3,6.8c-4.2,0-7.3-2.8-7.3-6.8c0-4.1,3.1-6.8,7.3-6.8C147.3,921.4,150.4,924.2,150.4,928.3z
				 M137.6,928.3c0,3,2.4,4.9,5.5,4.9c3.2,0,5.5-1.9,5.5-4.9s-2.4-4.9-5.5-4.9C139.9,923.4,137.6,925.3,137.6,928.3z"/>
		</g>
	</g>
	<g>
		<g class="st8">
			<path d="M140.1,1012.2c-1.5,0-2.7,1.3-2.7,3.5c0,2.3,1,3.6,2.6,3.6c3.7,0,0.9-8.8,6.3-8.8c2.4,0,4.1,2.1,4.1,5.2
				c0,3-1.5,5.1-4,5.1v-1.9c1.5,0,2.4-1.4,2.4-3.3c0-1.8-0.8-3.3-2.4-3.3c-3.7,0-0.8,8.8-6.4,8.8c-2.5,0-4.2-2-4.2-5.5
				c0-3.4,1.7-5.4,4.2-5.4V1012.2z"/>
			<path d="M150.1,1024.2v9.5h-1.6v-7.6h-4.4v6h-1.6v-6h-4.7v7.7h-1.6v-9.6H150.1z"/>
			<path d="M150.1,1035v11.7h-1.6v-4.9h-12.4v-1.9h12.4v-4.9H150.1z"/>
		</g>
	</g>
	<g>
		<g class="st8">
			<path d="M150.4,1130.3c0,4-3.1,6.8-7.3,6.8c-4.2,0-7.3-2.8-7.3-6.8c0-4.1,3.1-6.8,7.3-6.8
				C147.3,1123.4,150.4,1126.2,150.4,1130.3z M137.6,1130.3c0,3,2.4,4.9,5.5,4.9c3.2,0,5.5-1.9,5.5-4.9c0-3-2.4-4.9-5.5-4.9
				C139.9,1125.4,137.6,1127.3,137.6,1130.3z"/>
			<path d="M150.1,1137.5v11.7h-1.6v-4.9h-12.4v-1.9h12.4v-4.9H150.1z"/>
			<path d="M150.1,1149.4v11.7h-1.6v-4.9h-12.4v-1.9h12.4v-4.9H150.1z"/>
		</g>
	</g>
	<g>
		<g class="st8">
			<path d="M150.1,1236.2v1.8l-10.8,7.7v0.1l10.8-0.1v1.9h-14v-1.8l10.8-7.7v-0.1l-10.8,0.1v-1.9H150.1z"/>
			<path d="M150.4,1257.2c0,4-3.1,6.8-7.3,6.8c-4.2,0-7.3-2.8-7.3-6.8c0-4.1,3.1-6.8,7.3-6.8
				C147.3,1250.3,150.4,1253.1,150.4,1257.2z M137.6,1257.2c0,3,2.4,4.9,5.5,4.9c3.2,0,5.5-1.9,5.5-4.9c0-3-2.4-4.9-5.5-4.9
				C139.9,1252.3,137.6,1254.2,137.6,1257.2z"/>
			<path d="M150.1,1264.7v2l-12.1,4.2v0.1l12.1,4.2v1.9l-14-5.1v-2.1L150.1,1264.7z"/>
		</g>
	</g>
	<g>
		<g class="st8">
			<path d="M150.1,1352.4v4.3c0,4.8-2.9,7.3-7,7.3c-4.1,0-7-2.5-7-7.3v-4.3H150.1z M148.5,1354.3h-10.8v2.4c0,3.9,2.5,5.4,5.4,5.4
				c2.9,0,5.4-1.4,5.4-5.4V1354.3z"/>
			<path d="M150.1,1366.8v1.9h-14v-1.9H150.1z"/>
			<path d="M150.4,1378.1c0,3.3-1.9,5.4-4.6,6v-1.9c1.9-0.5,2.9-1.9,2.9-4c0-2.9-2.3-4.8-5.5-4.8c-3.2,0-5.5,1.9-5.5,4.7
				c0,2.3,1,3.6,2.9,4.1v1.9c-2.8-0.6-4.6-2.8-4.6-6c0-3.9,3-6.7,7.3-6.7C147.3,1371.3,150.4,1374.1,150.4,1378.1z"/>
		</g>
	</g>
	<g>
		<circle cx="470.7" cy="72.2" r="4.1"/>
	</g>
	<g>
		<circle cx="550.6" cy="79.7" r="4.1"/>
	</g>
	<g>
		<circle cx="526.6" cy="83.4" r="4.1"/>
	</g>
	<g>
		<circle cx="558.6" cy="109.6" r="4.1"/>
	</g>
	<g>
		<circle cx="335" cy="113.3" r="4.1"/>
	</g>
	<g>
		<circle cx="366.9" cy="117" r="4.1"/>
	</g>
	<g>
		<circle cx="215.2" cy="120.8" r="4.1"/>
	</g>
	<g>
		<circle cx="295.1" cy="124.5" r="4.1"/>
	</g>
	<g>
		<circle cx="406.9" cy="128.2" r="4.1"/>
	</g>
	<g>
		<circle cx="526.6" cy="132" r="4.1"/>
	</g>
	<g>
		<circle cx="470.7" cy="135.7" r="4.1"/>
	</g>
	<g>
		<circle cx="366.9" cy="139.4" r="4.1"/>
	</g>
	<g>
		<circle cx="366.9" cy="143.2" r="4.1"/>
	</g>
	<g>
		<circle cx="534.6" cy="146.9" r="4.1"/>
	</g>
	<g>
		<circle cx="470.7" cy="150.6" r="4.1"/>
	</g>
	<g>
		<circle cx="502.7" cy="154.4" r="4.1"/>
	</g>
	<g>
		<circle cx="454.8" cy="180.5" r="4.1"/>
	</g>
	<g>
		<circle cx="351" cy="184.2" r="4.1"/>
	</g>
	<g>
		<circle cx="311" cy="188" r="4.1"/>
	</g>
	<g>
		<circle cx="406.9" cy="191.7" r="4.1"/>
	</g>
	<g>
		<circle cx="486.7" cy="199.2" r="4.1"/>
	</g>
	<g>
		<circle cx="478.7" cy="202.9" r="4.1"/>
	</g>
	<g>
		<circle cx="486.7" cy="206.6" r="4.1"/>
	</g>
	<g>
		<circle cx="422.8" cy="210.4" r="4.1"/>
	</g>
	<g>
		<circle cx="438.8" cy="214.1" r="4.1"/>
	</g>
	<g>
		<circle cx="311" cy="217.8" r="4.1"/>
	</g>
	<g>
		<circle cx="422.8" cy="221.6" r="4.1"/>
	</g>
	<g>
		<circle cx="510.7" cy="240.2" r="4.1"/>
	</g>
	<g>
		<circle cx="303.1" cy="255.2" r="4.1"/>
	</g>
	<g>
		<circle cx="335" cy="258.9" r="4.1"/>
	</g>
	<g>
		<circle cx="446.8" cy="262.6" r="4.1"/>
	</g>
	<g>
		<circle cx="382.9" cy="266.4" r="4.1"/>
	</g>
	<g>
		<circle cx="454.8" cy="273.8" r="4.1"/>
	</g>
	<g>
		<circle cx="454.8" cy="277.6" r="4.1"/>
	</g>
	<g>
		<circle cx="494.7" cy="281.3" r="4.1"/>
	</g>
	<g>
		<circle cx="438.8" cy="307.4" r="4.1"/>
	</g>
	<g>
		<circle cx="343" cy="314.9" r="4.1"/>
	</g>
	<g>
		<circle cx="255.2" cy="318.6" r="4.1"/>
	</g>
	<g>
		<circle cx="359" cy="322.4" r="4.1"/>
	</g>
	<g>
		<circle cx="454.8" cy="326.1" r="4.1"/>
	</g>
	<g>
		<circle cx="303.1" cy="329.8" r="4.1"/>
	</g>
	<g>
		<circle cx="303.1" cy="333.6" r="4.1"/>
	</g>
	<g>
		<circle cx="454.8" cy="337.3" r="4.1"/>
	</g>
	<g>
		<circle cx="351" cy="348.5" r="4.1"/>
	</g>
	<g>
		<circle cx="343" cy="352.2" r="4.1"/>
	</g>
	<g>
		<circle cx="430.8" cy="356" r="4.1"/>
	</g>
	<g>
		<circle cx="398.9" cy="359.7" r="4.1"/>
	</g>
	<g>
		<circle cx="494.7" cy="363.4" r="4.1"/>
	</g>
	<g>
		<circle cx="351" cy="370.9" r="4.1"/>
	</g>
	<g>
		<circle cx="343" cy="374.6" r="4.1"/>
	</g>
	<g>
		<circle cx="486.7" cy="378.4" r="4.1"/>
	</g>
	<g>
		<circle cx="398.9" cy="393.3" r="4.1"/>
	</g>
	<g>
		<circle cx="247.2" cy="397" r="4.1"/>
	</g>
	<g>
		<circle cx="311" cy="400.8" r="4.1"/>
	</g>
	<g>
		<circle cx="366.9" cy="404.5" r="4.1"/>
	</g>
	<g>
		<circle cx="446.8" cy="408.2" r="4.1"/>
	</g>
	<g>
		<circle cx="446.8" cy="412" r="4.1"/>
	</g>
	<g>
		<circle cx="327" cy="415.7" r="4.1"/>
	</g>
	<g>
		<circle cx="446.8" cy="419.4" r="4.1"/>
	</g>
	<g>
		<circle cx="414.8" cy="423.2" r="4.1"/>
	</g>
	<g>
		<circle cx="502.7" cy="426.9" r="4.1"/>
	</g>
	<g>
		<circle cx="526.6" cy="430.6" r="4.1"/>
	</g>
	<g>
		<circle cx="542.6" cy="434.4" r="4.1"/>
	</g>
	<g>
		<circle cx="478.7" cy="438.1" r="4.1"/>
	</g>
	<g>
		<circle cx="366.9" cy="441.8" r="4.1"/>
	</g>
	<g>
		<circle cx="414.8" cy="445.6" r="4.1"/>
	</g>
	<g>
		<circle cx="414.8" cy="449.3" r="4.1"/>
	</g>
	<g>
		<circle cx="558.6" cy="453" r="4.1"/>
	</g>
	<g>
		<circle cx="510.7" cy="456.8" r="4.1"/>
	</g>
	<g>
		<circle cx="470.7" cy="460.5" r="4.1"/>
	</g>
	<g>
		<circle cx="502.7" cy="464.2" r="4.1"/>
	</g>
	<g>
		<circle cx="502.7" cy="468" r="4.1"/>
	</g>
	<g>
		<circle cx="526.6" cy="471.7" r="4.1"/>
	</g>
	<g>
		<circle cx="382.9" cy="475.4" r="4.1"/>
	</g>
	<g>
		<circle cx="327" cy="479.2" r="4.1"/>
	</g>
	<g>
		<circle cx="430.8" cy="482.9" r="4.1"/>
	</g>
	<g>
		<circle cx="430.8" cy="486.6" r="4.1"/>
	</g>
	<g>
		<circle cx="406.9" cy="490.4" r="4.1"/>
	</g>
	<g>
		<circle cx="446.8" cy="494.1" r="4.1"/>
	</g>
	<g>
		<circle cx="478.7" cy="497.8" r="4.1"/>
	</g>
	<g>
		<circle cx="303.1" cy="501.6" r="4.1"/>
	</g>
	<g>
		<circle cx="558.6" cy="505.3" r="4.1"/>
	</g>
	<g>
		<circle cx="486.7" cy="527.7" r="4.1"/>
	</g>
	<g>
		<circle cx="382.9" cy="531.5" r="4.1"/>
	</g>
	<g>
		<circle cx="398.9" cy="535.2" r="4.1"/>
	</g>
	<g>
		<circle cx="422.8" cy="538.9" r="4.1"/>
	</g>
	<g>
		<circle cx="359" cy="542.7" r="4.1"/>
	</g>
	<g>
		<circle cx="398.9" cy="546.4" r="4.1"/>
	</g>
	<g>
		<circle cx="359" cy="550.1" r="4.1"/>
	</g>
	<g>
		<circle cx="327" cy="553.9" r="4.1"/>
	</g>
	<g>
		<circle cx="335" cy="557.6" r="4.1"/>
	</g>
	<g>
		<circle cx="390.9" cy="561.3" r="4.1"/>
	</g>
	<g>
		<circle cx="406.9" cy="565.1" r="4.1"/>
	</g>
	<g>
		<circle cx="359" cy="572.5" r="4.1"/>
	</g>
	<g>
		<circle cx="343" cy="576.3" r="4.1"/>
	</g>
	<g>
		<circle cx="311" cy="580" r="4.1"/>
	</g>
	<g>
		<circle cx="311" cy="583.7" r="4.1"/>
	</g>
	<g>
		<circle cx="255.2" cy="587.5" r="4.1"/>
	</g>
	<g>
		<circle cx="311" cy="591.2" r="4.1"/>
	</g>
	<g>
		<circle cx="295.1" cy="594.9" r="4.1"/>
	</g>
	<g>
		<circle cx="247.2" cy="598.7" r="4.1"/>
	</g>
	<g>
		<circle cx="263.1" cy="602.4" r="4.1"/>
	</g>
	<g>
		<circle cx="263.1" cy="606.1" r="4.1"/>
	</g>
	<g>
		<circle cx="303.1" cy="609.9" r="4.1"/>
	</g>
	<g>
		<circle cx="303.1" cy="613.6" r="4.1"/>
	</g>
	<g>
		<circle cx="231.2" cy="617.3" r="4.1"/>
	</g>
	<g>
		<circle cx="223.2" cy="621.1" r="4.1"/>
	</g>
	<g>
		<circle cx="247.2" cy="624.8" r="4.1"/>
	</g>
	<g>
		<circle cx="327" cy="628.5" r="4.1"/>
	</g>
	<g>
		<circle cx="398.9" cy="632.3" r="4.1"/>
	</g>
	<g>
		<ellipse transform="matrix(7.088889e-02 -0.9975 0.9975 7.088889e-02 -337.9761 909.1356)" cx="319" cy="636" rx="4.1" ry="4.1"/>
	</g>
	<g>
		<circle cx="311" cy="639.7" r="4.1"/>
	</g>
	<g>
		<circle cx="327" cy="643.5" r="4.1"/>
	</g>
	<g>
		<circle cx="311" cy="647.2" r="4.1"/>
	</g>
	<g>
		<circle cx="295.1" cy="650.9" r="4.1"/>
	</g>
	<g>
		<circle cx="279.1" cy="654.7" r="4.1"/>
	</g>
	<g>
		<circle cx="271.1" cy="658.4" r="4.1"/>
	</g>
	<g>
		<circle cx="255.2" cy="662.1" r="4.1"/>
	</g>
	<g>
		<circle cx="295.1" cy="665.9" r="4.1"/>
	</g>
	<g>
		<circle cx="366.9" cy="669.6" r="4.1"/>
	</g>
	<g>
		<circle cx="335" cy="673.3" r="4.1"/>
	</g>
	<g>
		<circle cx="343" cy="677.1" r="4.1"/>
	</g>
	<g>
		<circle cx="319" cy="680.8" r="4.1"/>
	</g>
	<g>
		<circle cx="303.1" cy="684.5" r="4.1"/>
	</g>
	<g>
		<circle cx="319" cy="688.3" r="4.1"/>
	</g>
	<g>
		<circle cx="438.8" cy="695.7" r="4.1"/>
	</g>
	<g>
		<circle cx="351" cy="699.5" r="4.1"/>
	</g>
	<g>
		<circle cx="327" cy="703.2" r="4.1"/>
	</g>
	<g>
		<circle cx="287.1" cy="706.9" r="4.1"/>
	</g>
	<g>
		<circle cx="255.2" cy="710.7" r="4.1"/>
	</g>
	<g>
		<circle cx="287.1" cy="714.4" r="4.1"/>
	</g>
	<g>
		<circle cx="271.1" cy="718.1" r="4.1"/>
	</g>
	<g>
		<circle cx="303.1" cy="721.9" r="4.1"/>
	</g>
	<g>
		<circle cx="311" cy="725.6" r="4.1"/>
	</g>
	<g>
		<circle cx="319" cy="729.3" r="4.1"/>
	</g>
	<g>
		<circle cx="311" cy="733.1" r="4.1"/>
	</g>
	<g>
		<ellipse transform="matrix(4.064585e-03 -1 1 4.064585e-03 -458.8178 1012.9117)" cx="279.1" cy="736.8" rx="4.1" ry="4.1"/>
	</g>
	<g>
		<circle cx="311" cy="740.5" r="4.1"/>
	</g>
	<g>
		<circle cx="279.1" cy="744.3" r="4.1"/>
	</g>
	<g>
		<circle cx="263.1" cy="748" r="4.1"/>
	</g>
	<g>
		<ellipse transform="matrix(1 -4.132211e-03 4.132211e-03 1 -3.1035 1.3907)" cx="335" cy="751.7" rx="4.1" ry="4.1"/>
	</g>
	<g>
		<circle cx="374.9" cy="755.5" r="4.1"/>
	</g>
	<g>
		<circle cx="335" cy="759.2" r="4.1"/>
	</g>
	<g>
		<circle cx="351" cy="762.9" r="4.1"/>
	</g>
	<g>
		<circle cx="359" cy="766.7" r="4.1"/>
	</g>
	<g>
		<circle cx="390.9" cy="770.4" r="4.1"/>
	</g>
	<g>
		<circle cx="398.9" cy="774.1" r="4.1"/>
	</g>
	<g>
		<circle cx="462.7" cy="777.9" r="4.1"/>
	</g>
	<g>
		<circle cx="390.9" cy="781.6" r="4.1"/>
	</g>
	<g>
		<circle cx="438.8" cy="785.3" r="4.1"/>
	</g>
	<g>
		<circle cx="319" cy="789.1" r="4.1"/>
	</g>
	<g>
		<circle cx="374.9" cy="792.8" r="4.1"/>
	</g>
	<g>
		<circle cx="414.8" cy="796.5" r="4.1"/>
	</g>
	<g>
		<circle cx="390.9" cy="800.3" r="4.1"/>
	</g>
	<g>
		<circle cx="366.9" cy="804" r="4.1"/>
	</g>
	<g>
		<circle cx="366.9" cy="807.7" r="4.1"/>
	</g>
	<g>
		<circle cx="366.9" cy="811.5" r="4.1"/>
	</g>
	<g>
		<circle cx="382.9" cy="815.2" r="4.1"/>
	</g>
	<g>
		<circle cx="446.8" cy="826.4" r="4.1"/>
	</g>
	<g>
		<circle cx="430.8" cy="830.1" r="4.1"/>
	</g>
	<g>
		<circle cx="510.7" cy="833.9" r="4.1"/>
	</g>
	<g>
		<circle cx="398.9" cy="837.6" r="4.1"/>
	</g>
	<g>
		<circle cx="327" cy="841.3" r="4.1"/>
	</g>
	<g>
		<circle cx="486.7" cy="845.1" r="4.1"/>
	</g>
	<g>
		<circle cx="279.1" cy="848.8" r="4.1"/>
	</g>
	<g>
		<ellipse transform="matrix(0.9951 -9.853774e-02 9.853774e-02 0.9951 -82.4937 34.7989)" cx="311" cy="852.5" rx="4.1" ry="4.1"/>
	</g>
	<g>
		<circle cx="319" cy="856.3" r="4.1"/>
	</g>
	<g>
		<circle cx="319" cy="860" r="4.1"/>
	</g>
	<g>
		<circle cx="343" cy="863.7" r="4.1"/>
	</g>
	<g>
		<circle cx="287.1" cy="867.5" r="4.1"/>
	</g>
	<g>
		<circle cx="359" cy="871.2" r="4.1"/>
	</g>
	<g>
		<circle cx="366.9" cy="874.9" r="4.1"/>
	</g>
	<g>
		<circle cx="390.9" cy="878.7" r="4.1"/>
	</g>
	<g>
		<circle cx="462.7" cy="882.4" r="4.1"/>
	</g>
	<g>
		<circle cx="319" cy="886.1" r="4.1"/>
	</g>
	<g>
		<circle cx="311" cy="889.9" r="4.1"/>
	</g>
	<g>
		<circle cx="295.1" cy="893.6" r="4.1"/>
	</g>
	<g>
		<circle cx="303.1" cy="897.3" r="4.1"/>
	</g>
	<g>
		<circle cx="295.1" cy="901.1" r="4.1"/>
	</g>
	<g>
		<circle cx="343" cy="904.8" r="4.1"/>
	</g>
	<g>
		<circle cx="295.1" cy="908.5" r="4.1"/>
	</g>
	<g>
		<circle cx="303.1" cy="912.3" r="4.1"/>
	</g>
	<g>
		<circle cx="311" cy="916" r="4.1"/>
	</g>
	<g>
		<circle cx="287.1" cy="919.7" r="4.1"/>
	</g>
	<g>
		<circle cx="303.1" cy="923.5" r="4.1"/>
	</g>
	<g>
		<circle cx="239.2" cy="927.2" r="4.1"/>
	</g>
	<g>
		<circle cx="271.1" cy="930.9" r="4.1"/>
	</g>
	<g>
		<circle cx="335" cy="934.7" r="4.1"/>
	</g>
	<g>
		<circle cx="351" cy="938.4" r="4.1"/>
	</g>
	<g>
		<circle cx="311" cy="942.1" r="4.1"/>
	</g>
	<g>
		<circle cx="247.2" cy="945.9" r="4.1"/>
	</g>
	<g>
		<circle cx="295.1" cy="949.6" r="4.1"/>
	</g>
	<g>
		<circle cx="327" cy="953.3" r="4.1"/>
	</g>
	<g>
		<circle cx="327" cy="957.1" r="4.1"/>
	</g>
	<g>
		<circle cx="319" cy="960.8" r="4.1"/>
	</g>
	<g>
		<circle cx="327" cy="964.5" r="4.1"/>
	</g>
	<g>
		<circle cx="319" cy="968.3" r="4.1"/>
	</g>
	<g>
		<circle cx="327" cy="972" r="4.1"/>
	</g>
	<g>
		<circle cx="343" cy="975.8" r="4.1"/>
	</g>
	<g>
		<circle cx="359" cy="979.5" r="4.1"/>
	</g>
	<g>
		<circle cx="382.9" cy="983.2" r="4.1"/>
	</g>
	<g>
		<circle cx="351" cy="987" r="4.1"/>
	</g>
	<g>
		<circle cx="382.9" cy="990.7" r="4.1"/>
	</g>
	<g>
		<circle cx="366.9" cy="994.4" r="4.1"/>
	</g>
	<g>
		<circle cx="319" cy="998.2" r="4.1"/>
	</g>
	<g>
		<circle cx="311" cy="1001.9" r="4.1"/>
	</g>
	<g>
		<circle cx="327" cy="1005.6" r="4.1"/>
	</g>
	<g>
		<circle cx="311" cy="1009.4" r="4.1"/>
	</g>
	<g>
		<circle cx="335" cy="1013.1" r="4.1"/>
	</g>
	<g>
		<circle cx="311" cy="1016.8" r="4.1"/>
	</g>
	<g>
		<circle cx="319" cy="1020.6" r="4.1"/>
	</g>
	<g>
		<circle cx="287.1" cy="1024.3" r="4.1"/>
	</g>
	<g>
		<circle cx="247.2" cy="1028" r="4.1"/>
	</g>
	<g>
		<circle cx="247.2" cy="1031.8" r="4.1"/>
	</g>
	<g>
		<circle cx="327" cy="1035.5" r="4.1"/>
	</g>
	<g>
		<circle cx="430.8" cy="1039.2" r="4.1"/>
	</g>
	<g>
		<circle cx="422.8" cy="1043" r="4.1"/>
	</g>
	<g>
		<circle cx="422.8" cy="1046.7" r="4.1"/>
	</g>
	<g>
		<circle cx="327" cy="1050.4" r="4.1"/>
	</g>
	<g>
		<circle cx="422.8" cy="1054.2" r="4.1"/>
	</g>
	<g>
		<circle cx="343" cy="1057.9" r="4.1"/>
	</g>
	<g>
		<circle cx="319" cy="1061.6" r="4.1"/>
	</g>
	<g>
		<circle cx="327" cy="1065.4" r="4.1"/>
	</g>
	<g>
		<circle cx="343" cy="1069.1" r="4.1"/>
	</g>
	<g>
		<circle cx="382.9" cy="1072.8" r="4.1"/>
	</g>
	<g>
		<circle cx="271.1" cy="1076.6" r="4.1"/>
	</g>
	<g>
		<circle cx="279.1" cy="1080.3" r="4.1"/>
	</g>
	<g>
		<circle cx="287.1" cy="1084" r="4.1"/>
	</g>
	<g>
		<circle cx="406.9" cy="1087.8" r="4.1"/>
	</g>
	<g>
		<circle cx="454.8" cy="1091.5" r="4.1"/>
	</g>
	<g>
		<circle cx="446.8" cy="1095.2" r="4.1"/>
	</g>
	<g>
		<circle cx="422.8" cy="1099" r="4.1"/>
	</g>
	<g>
		<circle cx="287.1" cy="1102.7" r="4.1"/>
	</g>
	<g>
		<circle cx="335" cy="1106.4" r="4.1"/>
	</g>
	<g>
		<circle cx="271.1" cy="1117.6" r="4.1"/>
	</g>
	<g>
		<circle cx="231.2" cy="1121.4" r="4.1"/>
	</g>
	<g>
		<circle cx="295.1" cy="1125.1" r="4.1"/>
	</g>
	<g>
		<circle cx="351" cy="1128.8" r="4.1"/>
	</g>
	<g>
		<circle cx="502.7" cy="1132.6" r="4.1"/>
	</g>
	<g>
		<circle cx="494.7" cy="1140" r="4.1"/>
	</g>
	<g>
		<circle cx="462.7" cy="1143.8" r="4.1"/>
	</g>
	<g>
		<circle cx="406.9" cy="1166.2" r="4.1"/>
	</g>
	<g>
		<circle cx="351" cy="1169.9" r="4.1"/>
	</g>
	<g>
		<circle cx="390.9" cy="1181.1" r="4.1"/>
	</g>
	<g>
		<circle cx="374.9" cy="1184.8" r="4.1"/>
	</g>
	<g>
		<circle cx="406.9" cy="1188.6" r="4.1"/>
	</g>
	<g>
		<circle cx="534.6" cy="1192.3" r="4.1"/>
	</g>
	<g>
		<circle cx="359" cy="1196" r="4.1"/>
	</g>
	<g>
		<circle cx="390.9" cy="1199.8" r="4.1"/>
	</g>
	<g>
		<circle cx="462.7" cy="1211" r="4.1"/>
	</g>
	<g>
		<circle cx="390.9" cy="1214.7" r="4.1"/>
	</g>
	<g>
		<circle cx="398.9" cy="1218.4" r="4.1"/>
	</g>
	<g>
		<circle cx="534.6" cy="1229.6" r="4.1"/>
	</g>
	<g>
		<circle cx="390.9" cy="1233.4" r="4.1"/>
	</g>
	<g>
		<circle cx="327" cy="1237.1" r="4.1"/>
	</g>
	<g>
		<circle cx="398.9" cy="1240.8" r="4.1"/>
	</g>
	<g>
		<circle cx="462.7" cy="1244.6" r="4.1"/>
	</g>
	<g>
		<circle cx="446.8" cy="1248.3" r="4.1"/>
	</g>
	<g>
		<circle cx="303.1" cy="1252" r="4.1"/>
	</g>
	<g>
		<circle cx="374.9" cy="1255.8" r="4.1"/>
	</g>
	<g>
		<circle cx="494.7" cy="1259.5" r="4.1"/>
	</g>
	<g>
		<circle cx="478.7" cy="1267" r="4.1"/>
	</g>
	<g>
		<circle cx="303.1" cy="1270.7" r="4.1"/>
	</g>
	<g>
		<circle cx="183.3" cy="1274.4" r="4.1"/>
	</g>
	<g>
		<circle cx="303.1" cy="1278.2" r="4.1"/>
	</g>
	<g>
		<circle cx="287.1" cy="1281.9" r="4.1"/>
	</g>
	<g>
		<circle cx="351" cy="1285.6" r="4.1"/>
	</g>
	<g>
		<circle cx="366.9" cy="1289.4" r="4.1"/>
	</g>
	<g>
		<circle cx="422.8" cy="1293.1" r="4.1"/>
	</g>
	<g>
		<circle cx="430.8" cy="1296.8" r="4.1"/>
	</g>
	<g>
		<circle cx="470.7" cy="1300.6" r="4.1"/>
	</g>
	<g>
		<circle cx="462.7" cy="1304.3" r="4.1"/>
	</g>
	<g>
		<circle cx="534.6" cy="1311.8" r="4.1"/>
	</g>
	<g>
		<circle cx="486.7" cy="1315.5" r="4.1"/>
	</g>
	<g>
		<circle cx="446.8" cy="1319.2" r="4.1"/>
	</g>
	<g>
		<circle cx="454.8" cy="1323" r="4.1"/>
	</g>
	<g>
		<circle cx="470.7" cy="1326.7" r="4.1"/>
	</g>
	<g>
		<circle cx="382.9" cy="1397.6" r="4.1"/>
	</g>
	<g>
		<circle cx="207.3" cy="1401.4" r="4.1"/>
	</g>
	<g>
		<circle cx="191.3" cy="1405.1" r="4.1"/>
	</g>
	<g>
		<circle cx="295.1" cy="1408.8" r="4.1"/>
	</g>
	<g>
		<circle cx="343" cy="1412.6" r="4.1"/>
	</g>
	<g>
		<circle cx="414.8" cy="1416.3" r="4.1"/>
	</g>
	<g>
		<circle cx="406.9" cy="1420" r="4.1"/>
	</g>
	<g>
		<circle cx="374.9" cy="1423.8" r="4.1"/>
	</g>
	<g>
		<g>
			<circle class="st1" cx="606.5" cy="64.7" r="4.1"/>
		</g>
		<g>
			<circle class="st1" cx="726.2" cy="68.5" r="4.1"/>
		</g>
		<g>
			<circle class="st1" cx="670.3" cy="76" r="4.1"/>
		</g>
		<g>
			<circle class="st1" cx="750.2" cy="87.2" r="4.1"/>
		</g>
		<g>
			<circle class="st1" cx="702.3" cy="90.9" r="4.1"/>
		</g>
		<g>
			<circle class="st1" cx="686.3" cy="94.6" r="4.1"/>
		</g>
		<g>
			<circle class="st1" cx="606.5" cy="98.4" r="4.1"/>
		</g>
		<g>
			<circle class="st1" cx="614.5" cy="102.1" r="4.1"/>
		</g>
		<g>
			<circle class="st1" cx="598.5" cy="105.8" r="4.1"/>
		</g>
		<g>
			<circle class="st1" cx="574.5" cy="158.1" r="4.1"/>
		</g>
		<g>
			<circle class="st1" cx="574.5" cy="161.8" r="4.1"/>
		</g>
		<g>
			<circle class="st1" cx="750.2" cy="165.6" r="4.1"/>
		</g>
		<g>
			<circle class="st1" cx="582.5" cy="169.3" r="4.1"/>
		</g>
		<g>
			<circle class="st1" cx="590.5" cy="173" r="4.1"/>
		</g>
		<g>
			<circle class="st1" cx="582.5" cy="176.8" r="4.1"/>
		</g>
		<g>
			<circle class="st1" cx="710.3" cy="195.4" r="4.1"/>
		</g>
		<g>
			<circle class="st1" cx="646.4" cy="225.3" r="4.1"/>
		</g>
		<g>
			<circle class="st1" cx="574.5" cy="229" r="4.1"/>
		</g>
		<g>
			<circle class="st1" cx="742.2" cy="232.8" r="4.1"/>
		</g>
		<g>
			<circle class="st1" cx="654.4" cy="236.5" r="4.1"/>
		</g>
		<g>
			<circle class="st1" cx="598.5" cy="244" r="4.1"/>
		</g>
		<g>
			<circle class="st1" cx="598.5" cy="247.7" r="4.1"/>
		</g>
		<g>
			<circle class="st1" cx="734.2" cy="251.4" r="4.1"/>
		</g>
		<g>
			<circle class="st1" cx="702.3" cy="270.1" r="4.1"/>
		</g>
		<g>
			
				<ellipse transform="matrix(0.3827 -0.9239 0.9239 0.3827 62.2565 715.5087)" class="st1" cx="566.5" cy="311.2" rx="4.1" ry="4.1"/>
		</g>
		<g>
			<circle class="st1" cx="566.5" cy="341" r="4.1"/>
		</g>
		<g>
			<circle class="st1" cx="566.5" cy="344.8" r="4.1"/>
		</g>
		<g>
			<circle class="st1" cx="614.5" cy="367.2" r="4.1"/>
		</g>
		<g>
			<circle class="st1" cx="622.4" cy="382.1" r="4.1"/>
		</g>
		<g>
			<circle class="st1" cx="654.4" cy="385.8" r="4.1"/>
		</g>
		<g>
			<circle class="st1" cx="710.3" cy="389.6" r="4.1"/>
		</g>
		<g>
			<circle class="st1" cx="742.2" cy="509" r="4.1"/>
		</g>
		<g>
			<circle class="st1" cx="702.3" cy="512.8" r="4.1"/>
		</g>
		<g>
			<circle class="st1" cx="758.2" cy="516.5" r="4.1"/>
		</g>
		<g>
			<circle class="st1" cx="734.2" cy="520.2" r="4.1"/>
		</g>
		<g>
			<circle class="st1" cx="630.4" cy="524" r="4.1"/>
		</g>
		<g>
			<circle class="st1" cx="566.5" cy="1110.2" r="4.1"/>
		</g>
		<g>
			<circle class="st1" cx="606.5" cy="1113.9" r="4.1"/>
		</g>
		<g>
			<circle class="st1" cx="574.5" cy="1136.3" r="4.1"/>
		</g>
		<g>
			<circle class="st1" cx="678.3" cy="1147.5" r="4.1"/>
		</g>
		<g>
			<circle class="st1" cx="862" cy="1151.2" r="4.1"/>
		</g>
		<g>
			<circle class="st1" cx="869.9" cy="1155" r="4.1"/>
		</g>
		<g>
			<circle class="st1" cx="662.4" cy="1158.7" r="4.1"/>
		</g>
		<g>
			<circle class="st1" cx="638.4" cy="1162.4" r="4.1"/>
		</g>
		<g>
			<circle class="st1" cx="574.5" cy="1173.6" r="4.1"/>
		</g>
		<g>
			
				<ellipse transform="matrix(0.3686 -0.9296 0.9296 0.3686 -716.5887 1299.6647)" class="st1" cx="598.5" cy="1177.4" rx="4.1" ry="4.1"/>
		</g>
		<g>
			<circle class="st1" cx="590.5" cy="1203.5" r="4.1"/>
		</g>
		<g>
			<circle class="st1" cx="614.5" cy="1207.2" r="4.1"/>
		</g>
		<g>
			<circle class="st1" cx="614.5" cy="1222.2" r="4.1"/>
		</g>
		<g>
			<circle class="st1" cx="654.4" cy="1225.9" r="4.1"/>
		</g>
		<g>
			<circle class="st1" cx="566.5" cy="1263.2" r="4.1"/>
		</g>
		<g>
			<circle class="st1" cx="638.4" cy="1308" r="4.1"/>
		</g>
		<g>
			<circle class="st1" cx="614.5" cy="1330.4" r="4.1"/>
		</g>
		<g>
			<circle class="st1" cx="598.5" cy="1334.2" r="4.1"/>
		</g>
		<g>
			<circle class="st1" cx="646.4" cy="1337.9" r="4.1"/>
		</g>
		<g>
			<circle class="st1" cx="782.1" cy="1341.6" r="4.1"/>
		</g>
		<g>
			<circle class="st1" cx="806.1" cy="1345.4" r="4.1"/>
		</g>
		<g>
			<circle class="st1" cx="782.1" cy="1379" r="4.1"/>
		</g>
		<g>
			<circle class="st1" cx="933.8" cy="1382.7" r="4.1"/>
		</g>
		<g>
			<circle class="st1" cx="694.3" cy="1386.4" r="4.1"/>
		</g>
		<g>
			<circle class="st1" cx="662.4" cy="1390.2" r="4.1"/>
		</g>
		<g>
			<circle class="st1" cx="614.5" cy="1393.9" r="4.1"/>
		</g>
	</g>
	<g class="st9">
		<circle class="st10" cx="606.5" cy="64.7" r="14.2"/>
	</g>
</g>
</svg>
