<svg id="Livello_1" data-name="Livello 1" xmlns="http://www.w3.org/2000/svg" viewBox="0 0 1174.99 900"><defs><style>.cls-1{fill:#efefef;}.cls-2{fill:#b8b8b8;}.cls-3{fill:#ff3a00;}.cls-4{opacity:0.2;}.cls-5{isolation:isolate;}.cls-6{opacity:0.7;}.cls-7{fill:#fff;}</style></defs><rect class="cls-1" x="878.04" y="157.78" width="210.47" height="603.26"/><rect class="cls-1" x="96.58" y="157.78" width="285.42" height="603.26"/><path class="cls-2" d="M180.7,761.34a.29.29,0,0,1-.3-.3V157.78a.29.29,0,0,1,.3-.3.3.3,0,0,1,.3.3V761A.3.3,0,0,1,180.7,761.34Z"/><path class="cls-2" d="M257,761.34a.3.3,0,0,1-.3-.3V157.78a.3.3,0,0,1,.3-.3.29.29,0,0,1,.3.3V761A.29.29,0,0,1,257,761.34Z"/><path class="cls-2" d="M341.49,761.34a.29.29,0,0,1-.3-.3V157.78a.3.3,0,1,1,.6,0V761A.29.29,0,0,1,341.49,761.34Z"/><path class="cls-2" d="M423.25,761.34a.29.29,0,0,1-.3-.3V157.78a.3.3,0,1,1,.6,0V761A.29.29,0,0,1,423.25,761.34Z"/><path class="cls-2" d="M507.74,761.34a.29.29,0,0,1-.3-.3V157.78a.29.29,0,0,1,.3-.3.3.3,0,0,1,.3.3V761A.3.3,0,0,1,507.74,761.34Z"/><path class="cls-2" d="M589.49,761.34a.3.3,0,0,1-.3-.3V157.78a.31.31,0,0,1,.61,0V761A.3.3,0,0,1,589.49,761.34Z"/><path class="cls-2" d="M674,761.34a.29.29,0,0,1-.3-.3V157.78a.3.3,0,0,1,.6,0V761A.29.29,0,0,1,674,761.34Z"/><path class="cls-2" d="M758.47,761.34a.29.29,0,0,1-.3-.3V157.78a.29.29,0,0,1,.3-.3.3.3,0,0,1,.3.3V761A.3.3,0,0,1,758.47,761.34Z"/><path class="cls-2" d="M840.23,761.34a.29.29,0,0,1-.3-.3V157.78a.29.29,0,0,1,.3-.3.3.3,0,0,1,.3.3V761A.3.3,0,0,1,840.23,761.34Z"/><path class="cls-2" d="M924.71,761.34a.29.29,0,0,1-.3-.3V157.78a.3.3,0,0,1,.6,0V761A.29.29,0,0,1,924.71,761.34Z"/><path class="cls-2" d="M1006.47,761.34a.29.29,0,0,1-.3-.3V157.78a.3.3,0,0,1,.6,0V761A.29.29,0,0,1,1006.47,761.34Z"/><path class="cls-2" d="M96.21,761.34a.29.29,0,0,1-.3-.3V157.78a.3.3,0,1,1,.6,0V761A.29.29,0,0,1,96.21,761.34Z"/><path class="cls-2" d="M1088.23,761.34a.29.29,0,0,1-.3-.3V157.78a.3.3,0,0,1,.6,0V761A.29.29,0,0,1,1088.23,761.34Z"/><circle cx="96.21" cy="508.63" r="2.97"/><circle cx="257" cy="482.72" r="2.97"/><circle cx="423.25" cy="664.04" r="2.97"/><circle cx="507.74" cy="618.71" r="2.97"/><circle cx="589.49" cy="560.43" r="2.97"/><circle cx="673.98" cy="534.53" r="2.97"/><circle cx="758.47" cy="489.2" r="2.97"/><circle cx="840.23" cy="482.72" r="2.97"/><circle cx="131.64" cy="547.48" r="2.97"/><circle cx="134.36" cy="599.29" r="2.97"/><circle cx="137.09" cy="508.63" r="2.97"/><circle cx="139.82" cy="547.48" r="2.97"/><circle cx="142.54" cy="644.62" r="2.97"/><circle cx="145.27" cy="664.04" r="2.97"/><circle cx="147.99" cy="586.33" r="2.97"/><circle cx="150.72" cy="579.86" r="2.97"/><circle cx="153.44" cy="605.76" r="2.97"/><circle cx="156.17" cy="625.19" r="2.97"/><circle cx="158.89" cy="664.04" r="2.97"/><circle cx="161.62" cy="651.09" r="2.97"/><circle cx="164.34" cy="657.57" r="2.97"/><circle cx="167.07" cy="521.58" r="2.97"/><circle cx="169.79" cy="702.9" r="2.97"/><circle cx="172.52" cy="592.81" r="2.97"/><circle cx="175.24" cy="631.66" r="2.97"/><circle cx="177.97" cy="618.71" r="2.97"/><circle cx="98.94" cy="618.71" r="2.97"/><circle cx="183.42" cy="605.76" r="2.97"/><circle cx="259.73" cy="651.09" r="2.97"/><circle cx="344.22" cy="612.24" r="2.97"/><circle cx="425.98" cy="579.86" r="2.97"/><circle cx="510.46" cy="638.14" r="2.97"/><circle cx="592.22" cy="657.57" r="2.97"/><circle cx="676.71" cy="638.14" r="2.97"/><circle cx="761.19" cy="676.99" r="2.97"/><circle cx="842.95" cy="670.52" r="2.97"/><circle cx="927.44" cy="638.14" r="2.97"/><circle cx="1009.2" cy="605.76" r="2.97"/><circle cx="213.4" cy="631.66" r="2.97"/><circle cx="216.12" cy="541" r="2.97"/><circle cx="227.03" cy="521.58" r="2.97"/><circle cx="229.75" cy="476.25" r="2.97"/><circle cx="232.48" cy="651.09" r="2.97"/><circle cx="235.2" cy="612.24" r="2.97"/><circle cx="237.93" cy="670.52" r="2.97"/><circle cx="240.65" cy="664.04" r="2.97"/><circle cx="243.38" cy="631.66" r="2.97"/><circle cx="246.1" cy="612.24" r="2.97"/><circle cx="248.83" cy="670.52" r="2.97"/><circle cx="251.55" cy="573.38" r="2.97"/><circle cx="254.28" cy="728.8" r="2.97"/><circle cx="101.66" cy="683.47" r="2.97"/><circle cx="186.15" cy="715.85" r="2.97"/><circle cx="262.46" cy="638.14" r="2.97"/><circle cx="346.94" cy="664.04" r="2.97"/><circle cx="428.7" cy="592.81" r="2.97"/><circle cx="513.19" cy="573.38" r="2.97"/><circle cx="594.95" cy="534.53" r="2.97"/><circle cx="679.43" cy="521.58" r="2.97"/><circle cx="763.92" cy="566.91" r="2.97"/><circle cx="845.68" cy="508.63" r="2.97"/><circle cx="930.16" cy="508.63" r="2.97"/><circle cx="1011.92" cy="521.58" r="2.97"/><circle cx="295.16" cy="502.15" r="2.97"/><circle cx="306.06" cy="482.72" r="2.97"/><circle cx="314.24" cy="625.19" r="2.97"/><circle cx="316.96" cy="735.28" r="2.97"/><circle cx="319.69" cy="722.32" r="2.97"/><circle cx="322.41" cy="670.52" r="2.97"/><circle cx="325.14" cy="644.62" r="2.97"/><circle cx="327.86" cy="579.86" r="2.97"/><circle cx="330.59" cy="547.48" r="2.97"/><circle cx="333.31" cy="579.86" r="2.97"/><circle cx="336.04" cy="573.38" r="2.97"/><circle cx="338.76" cy="573.38" r="2.97"/><circle cx="104.39" cy="631.66" r="2.97"/><circle cx="188.87" cy="560.43" r="2.97"/><circle cx="265.18" cy="502.15" r="2.97"/><circle cx="349.67" cy="599.29" r="2.97"/><circle cx="431.43" cy="586.33" r="2.97"/><circle cx="515.91" cy="579.86" r="2.97"/><circle cx="597.67" cy="553.96" r="2.97"/><circle cx="682.16" cy="605.76" r="2.97"/><circle cx="766.64" cy="657.57" r="2.97"/><circle cx="848.4" cy="664.04" r="2.97"/><circle cx="932.89" cy="605.76" r="2.97"/><circle cx="1014.65" cy="612.24" r="2.97"/><circle cx="374.19" cy="605.76" r="2.97"/><circle cx="376.92" cy="638.14" r="2.97"/><circle cx="379.64" cy="651.09" r="2.97"/><circle cx="382.37" cy="683.47" r="2.97"/><circle cx="385.1" cy="676.99" r="2.97"/><circle cx="387.82" cy="657.57" r="2.97"/><circle cx="390.55" cy="651.09" r="2.97"/><circle cx="393.27" cy="676.99" r="2.97"/><circle cx="396" cy="612.24" r="2.97"/><circle cx="398.72" cy="566.91" r="2.97"/><circle cx="401.45" cy="625.19" r="2.97"/><circle cx="404.17" cy="638.14" r="2.97"/><circle cx="406.9" cy="676.99" r="2.97"/><circle cx="409.62" cy="683.47" r="2.97"/><circle cx="412.35" cy="670.52" r="2.97"/><circle cx="415.07" cy="696.42" r="2.97"/><circle cx="417.8" cy="689.95" r="2.97"/><circle cx="420.52" cy="676.99" r="2.97"/><circle cx="107.11" cy="696.42" r="2.97"/><circle cx="191.6" cy="657.57" r="2.97"/><circle cx="267.91" cy="683.47" r="2.97"/><circle cx="352.39" cy="689.95" r="2.97"/><circle cx="434.15" cy="644.62" r="2.97"/><circle cx="518.64" cy="644.62" r="2.97"/><circle cx="600.4" cy="676.99" r="2.97"/><circle cx="684.88" cy="676.99" r="2.97"/><circle cx="769.37" cy="670.52" r="2.97"/><circle cx="851.13" cy="670.52" r="2.97"/><circle cx="935.61" cy="689.95" r="2.97"/><circle cx="1017.37" cy="676.99" r="2.97"/><circle cx="455.95" cy="689.95" r="2.97"/><circle cx="458.68" cy="689.95" r="2.97"/><circle cx="461.4" cy="696.42" r="2.97"/><circle cx="464.13" cy="683.47" r="2.97"/><circle cx="466.86" cy="696.42" r="2.97"/><circle cx="469.58" cy="709.37" r="2.97"/><circle cx="472.31" cy="664.04" r="2.97"/><circle cx="475.03" cy="625.19" r="2.97"/><circle cx="477.76" cy="631.66" r="2.97"/><circle cx="480.48" cy="547.48" r="2.97"/><circle cx="483.21" cy="599.29" r="2.97"/><circle cx="485.93" cy="689.95" r="2.97"/><circle cx="488.66" cy="676.99" r="2.97"/><circle cx="491.38" cy="638.14" r="2.97"/><circle cx="494.11" cy="696.42" r="2.97"/><circle cx="496.83" cy="702.9" r="2.97"/><circle cx="499.56" cy="683.47" r="2.97"/><circle cx="502.28" cy="670.52" r="2.97"/><circle cx="505.01" cy="689.95" r="2.97"/><circle cx="109.84" cy="696.42" r="2.97"/><circle cx="194.32" cy="689.95" r="2.97"/><circle cx="270.63" cy="676.99" r="2.97"/><circle cx="355.12" cy="683.47" r="2.97"/><circle cx="436.88" cy="676.99" r="2.97"/><circle cx="521.36" cy="644.62" r="2.97"/><circle cx="603.12" cy="631.66" r="2.97"/><circle cx="551.34" cy="651.09" r="2.97"/><circle cx="554.07" cy="638.14" r="2.97"/><circle cx="556.79" cy="631.66" r="2.97"/><circle cx="559.52" cy="651.09" r="2.97"/><circle cx="562.24" cy="631.66" r="2.97"/><circle cx="564.97" cy="651.09" r="2.97"/><circle cx="567.69" cy="657.57" r="2.97"/><circle cx="570.42" cy="605.76" r="2.97"/><circle cx="573.14" cy="631.66" r="2.97"/><circle cx="575.87" cy="657.57" r="2.97"/><circle cx="578.59" cy="657.57" r="2.97"/><circle cx="112.56" cy="651.09" r="2.97"/><circle cx="197.05" cy="644.62" r="2.97"/><circle cx="273.36" cy="631.66" r="2.97"/><circle cx="357.84" cy="638.14" r="2.97"/><circle cx="439.6" cy="631.66" r="2.97"/><circle cx="524.09" cy="670.52" r="2.97"/><circle cx="605.85" cy="683.47" r="2.97"/><circle cx="690.33" cy="696.42" r="2.97"/><circle cx="774.82" cy="702.9" r="2.97"/><circle cx="856.58" cy="702.9" r="2.97"/><circle cx="941.06" cy="670.52" r="2.97"/><circle cx="1022.82" cy="676.99" r="2.97"/><circle cx="622.2" cy="696.42" r="2.97"/><circle cx="624.92" cy="657.57" r="2.97"/><circle cx="627.65" cy="664.04" r="2.97"/><circle cx="630.37" cy="644.62" r="2.97"/><circle cx="633.1" cy="638.14" r="2.97"/><circle cx="635.83" cy="631.66" r="2.97"/><circle cx="638.55" cy="631.66" r="2.97"/><circle cx="641.28" cy="676.99" r="2.97"/><circle cx="644" cy="689.95" r="2.97"/><circle cx="646.73" cy="683.47" r="2.97"/><circle cx="649.45" cy="638.14" r="2.97"/><circle cx="652.18" cy="657.57" r="2.97"/><circle cx="654.9" cy="625.19" r="2.97"/><circle cx="657.63" cy="631.66" r="2.97"/><circle cx="660.35" cy="696.42" r="2.97"/><circle cx="663.08" cy="689.95" r="2.97"/><circle cx="665.8" cy="664.04" r="2.97"/><circle cx="668.53" cy="715.85" r="2.97"/><circle cx="671.25" cy="683.47" r="2.97"/><circle cx="115.29" cy="651.09" r="2.97"/><circle cx="199.77" cy="644.62" r="2.97"/><circle cx="276.08" cy="670.52" r="2.97"/><circle cx="360.57" cy="657.57" r="2.97"/><circle cx="442.33" cy="670.52" r="2.97"/><circle cx="526.81" cy="689.95" r="2.97"/><circle cx="608.57" cy="651.09" r="2.97"/><circle cx="693.06" cy="612.24" r="2.97"/><circle cx="777.54" cy="644.62" r="2.97"/><circle cx="859.3" cy="657.57" r="2.97"/><circle cx="943.79" cy="664.04" r="2.97"/><circle cx="1025.55" cy="657.57" r="2.97"/><circle cx="706.68" cy="651.09" r="2.97"/><circle cx="709.41" cy="683.47" r="2.97"/><circle cx="712.13" cy="664.04" r="2.97"/><circle cx="714.86" cy="683.47" r="2.97"/><circle cx="717.59" cy="696.42" r="2.97"/><circle cx="720.31" cy="702.9" r="2.97"/><circle cx="723.04" cy="664.04" r="2.97"/><circle cx="725.76" cy="657.57" r="2.97"/><circle cx="728.49" cy="664.04" r="2.97"/><circle cx="731.21" cy="670.52" r="2.97"/><circle cx="733.94" cy="676.99" r="2.97"/><circle cx="736.66" cy="670.52" r="2.97"/><circle cx="739.39" cy="670.52" r="2.97"/><circle cx="742.11" cy="651.09" r="2.97"/><circle cx="744.84" cy="599.29" r="2.97"/><circle cx="747.56" cy="618.71" r="2.97"/><circle cx="750.29" cy="631.66" r="2.97"/><circle cx="753.01" cy="644.62" r="2.97"/><circle cx="755.74" cy="664.04" r="2.97"/><circle cx="118.01" cy="696.42" r="2.97"/><circle cx="202.5" cy="689.95" r="2.97"/><circle cx="278.81" cy="683.47" r="2.97"/><circle cx="363.29" cy="605.76" r="2.97"/><circle cx="445.05" cy="592.81" r="2.97"/><circle cx="529.54" cy="586.33" r="2.97"/><circle cx="611.3" cy="631.66" r="2.97"/><circle cx="695.78" cy="605.76" r="2.97"/><circle cx="780.27" cy="534.53" r="2.97"/><circle cx="862.03" cy="651.09" r="2.97"/><circle cx="946.51" cy="676.99" r="2.97"/><circle cx="1028.27" cy="676.99" r="2.97"/><circle cx="791.17" cy="657.57" r="2.97"/><circle cx="793.89" cy="657.57" r="2.97"/><circle cx="799.35" cy="631.66" r="2.97"/><circle cx="802.07" cy="625.19" r="2.97"/><circle cx="804.8" cy="579.86" r="2.97"/><circle cx="812.97" cy="612.24" r="2.97"/><circle cx="815.7" cy="657.57" r="2.97"/><circle cx="818.42" cy="638.14" r="2.97"/><circle cx="821.15" cy="657.57" r="2.97"/><circle cx="823.87" cy="592.81" r="2.97"/><circle cx="826.6" cy="625.19" r="2.97"/><circle cx="829.32" cy="573.38" r="2.97"/><circle cx="832.05" cy="625.19" r="2.97"/><circle cx="834.77" cy="618.71" r="2.97"/><circle cx="837.5" cy="631.66" r="2.97"/><circle cx="120.74" cy="521.58" r="2.97"/><circle cx="205.22" cy="560.43" r="2.97"/><circle cx="281.53" cy="638.14" r="2.97"/><circle cx="366.02" cy="651.09" r="2.97"/><circle cx="447.78" cy="657.57" r="2.97"/><circle cx="532.26" cy="599.29" r="2.97"/><circle cx="614.02" cy="553.96" r="2.97"/><circle cx="949.24" cy="495.68" r="2.97"/><circle cx="1031" cy="625.19" r="2.97"/><circle cx="872.93" cy="579.86" r="2.97"/><circle cx="875.65" cy="618.71" r="2.97"/><circle cx="878.38" cy="553.96" r="2.97"/><circle cx="881.11" cy="605.76" r="2.97"/><circle cx="883.83" cy="515.1" r="2.97"/><circle cx="886.56" cy="482.72" r="2.97"/><circle cx="889.28" cy="508.63" r="2.97"/><circle cx="892.01" cy="534.53" r="2.97"/><circle cx="894.73" cy="625.19" r="2.97"/><circle cx="902.91" cy="631.66" r="2.97"/><circle cx="905.63" cy="612.24" r="2.97"/><circle cx="908.36" cy="618.71" r="2.97" transform="translate(152.13 1416.24) rotate(-80.78)"/><circle cx="911.08" cy="579.86" r="2.97"/><circle cx="913.81" cy="528.05" r="2.97"/><circle cx="916.53" cy="502.15" r="2.97"/><circle cx="207.95" cy="566.91" r="2.97"/><circle cx="284.26" cy="664.04" r="2.97"/><circle cx="368.74" cy="683.47" r="2.97"/><circle cx="450.5" cy="657.57" r="2.97"/><circle cx="534.99" cy="664.04" r="2.97"/><circle cx="616.75" cy="605.76" r="2.97"/><circle cx="701.23" cy="528.05" r="2.97"/><circle cx="785.72" cy="541" r="2.97"/><circle cx="867.48" cy="625.19" r="2.97"/><circle cx="951.96" cy="566.91" r="2.97"/><circle cx="1033.72" cy="566.91" r="2.97"/><circle cx="957.41" cy="664.04" r="2.97"/><circle cx="960.14" cy="599.29" r="2.97"/><circle cx="962.87" cy="644.62" r="2.97"/><circle cx="965.59" cy="709.37" r="2.97"/><circle cx="968.32" cy="709.37" r="2.97"/><circle cx="971.04" cy="631.66" r="2.97"/><circle cx="973.77" cy="541" r="2.97"/><circle cx="976.49" cy="573.38" r="2.97"/><circle cx="992.84" cy="541" r="2.97"/><circle cx="995.57" cy="489.2" r="2.97"/><circle cx="998.29" cy="586.33" r="2.97"/><circle cx="1001.02" cy="541" r="2.97"/><circle cx="1003.75" cy="553.96" r="2.97"/><circle cx="126.19" cy="560.43" r="2.97"/><circle cx="210.67" cy="560.43" r="2.97"/><circle cx="286.98" cy="670.52" r="2.97"/><circle cx="371.47" cy="638.14" r="2.97"/><circle cx="453.23" cy="592.81" r="2.97"/><circle cx="537.71" cy="547.48" r="2.97"/><circle cx="619.47" cy="676.99" r="2.97"/><circle cx="703.96" cy="651.09" r="2.97"/><circle cx="788.44" cy="612.24" r="2.97"/><circle cx="870.2" cy="592.81" r="2.97"/><circle cx="954.69" cy="573.38" r="2.97"/><circle cx="1036.45" cy="547.48" r="2.97"/><circle cx="1050.08" cy="573.38" r="2.97"/><circle cx="1052.8" cy="508.63" r="2.97"/><circle class="cls-3" cx="180.7" cy="353.21" r="2.97"/><circle class="cls-3" cx="341.49" cy="437.39" r="2.97"/><circle class="cls-3" cx="924.71" cy="385.59" r="2.97"/><circle class="cls-3" cx="1006.47" cy="463.3" r="2.97"/><circle class="cls-3" cx="128.91" cy="469.77" r="2.97"/><circle class="cls-3" cx="218.85" cy="469.77" r="2.97"/><circle class="cls-3" cx="221.58" cy="340.26" r="2.97"/><circle class="cls-3" cx="224.3" cy="359.69" r="2.97"/><circle class="cls-3" cx="289.71" cy="463.3" r="2.97"/><circle class="cls-3" cx="292.43" cy="417.97" r="2.97"/><circle class="cls-3" cx="297.88" cy="269.03" r="2.97"/><circle class="cls-3" cx="300.61" cy="430.92" r="2.97"/><circle class="cls-3" cx="303.34" cy="346.73" r="2.97"/><circle class="cls-3" cx="308.79" cy="411.49" r="2.97"/><circle class="cls-3" cx="311.51" cy="320.83" r="2.97"/><circle class="cls-3" cx="807.52" cy="417.97" r="2.97"/><circle class="cls-3" cx="810.25" cy="469.77" r="2.97"/><circle class="cls-3" cx="698.51" cy="340.26" r="2.97"/><circle class="cls-3" cx="782.99" cy="333.78" r="2.97"/><circle class="cls-3" cx="864.75" cy="320.83" r="2.97"/><circle class="cls-3" cx="919.26" cy="469.77" r="2.97"/><circle class="cls-3" cx="921.99" cy="340.26" r="2.97"/><circle class="cls-3" cx="123.46" cy="392.06" r="2.97"/><circle class="cls-3" cx="979.22" cy="469.77" r="2.97"/><circle class="cls-3" cx="981.94" cy="275.5" r="2.97"/><circle class="cls-3" cx="984.67" cy="294.93" r="2.97"/><circle class="cls-3" cx="987.39" cy="256.07" r="2.97"/><circle class="cls-3" cx="990.12" cy="269.03" r="2.97"/><circle class="cls-3" cx="1039.17" cy="333.78" r="2.97"/><circle class="cls-3" cx="1041.9" cy="243.12" r="2.97"/><circle class="cls-3" cx="1044.63" cy="230.17" r="2.97"/><g class="cls-4"><circle class="cls-3" cx="1044.63" cy="230.17" r="9.75"/></g><circle class="cls-3" cx="1047.35" cy="463.3" r="2.97"/><circle class="cls-3" cx="1055.53" cy="443.87" r="2.97"/><circle cx="1058.25" cy="495.68" r="2.97"/><circle cx="1060.98" cy="560.43" r="2.97"/><circle cx="1063.7" cy="553.96" r="2.97"/><circle cx="1066.43" cy="553.96" r="2.97"/><circle cx="1069.15" cy="605.76" r="2.97"/><circle cx="1071.88" cy="495.68" r="2.97"/><circle cx="1074.6" cy="489.2" r="2.97"/><circle cx="1077.33" cy="702.9" r="2.97"/><circle cx="1080.05" cy="638.14" r="2.97"/><circle cx="1082.78" cy="573.38" r="2.97"/><circle cx="1085.51" cy="534.53" r="2.97"/><circle cx="1088.23" cy="534.53" r="2.97"/><path d="M288.73,175.32a1.54,1.54,0,0,0-.7-1.16,2.66,2.66,0,0,0-1.54-.42,2.85,2.85,0,0,0-1.15.21,1.8,1.8,0,0,0-.76.57,1.34,1.34,0,0,0-.26.83,1.21,1.21,0,0,0,.18.66,1.54,1.54,0,0,0,.48.47,3.44,3.44,0,0,0,.64.31c.23.08.45.15.66.2l1.06.28a8.1,8.1,0,0,1,1.06.34,4.77,4.77,0,0,1,1,.57,2.77,2.77,0,0,1,.75.88,2.59,2.59,0,0,1,.29,1.25,2.89,2.89,0,0,1-.47,1.63,3.15,3.15,0,0,1-1.37,1.13,5.08,5.08,0,0,1-2.16.41,5.37,5.37,0,0,1-2.11-.38A3.33,3.33,0,0,1,283,182a3.15,3.15,0,0,1-.55-1.69H284a1.68,1.68,0,0,0,.38,1,1.92,1.92,0,0,0,.86.57,3.3,3.3,0,0,0,1.15.19,3.19,3.19,0,0,0,1.24-.22,2.09,2.09,0,0,0,.85-.61,1.42,1.42,0,0,0,.31-.92,1.15,1.15,0,0,0-.27-.79,2.15,2.15,0,0,0-.73-.51,7.59,7.59,0,0,0-1.05-.35l-1.28-.35a5,5,0,0,1-2.05-1,2.33,2.33,0,0,1-.76-1.82,2.68,2.68,0,0,1,.51-1.63,3.25,3.25,0,0,1,1.37-1.09,4.72,4.72,0,0,1,1.95-.39,4.62,4.62,0,0,1,2,.39,3.36,3.36,0,0,1,1.33,1.06,2.67,2.67,0,0,1,.5,1.54Z"/><path d="M292.27,186.35V175.19h1.55v1.31H294a3.59,3.59,0,0,1,.4-.58,2.22,2.22,0,0,1,.71-.59,2.54,2.54,0,0,1,1.22-.25,3.15,3.15,0,0,1,1.75.5,3.38,3.38,0,0,1,1.22,1.43,6,6,0,0,1,0,4.5A3.35,3.35,0,0,1,298,183a3.14,3.14,0,0,1-1.74.5,2.5,2.5,0,0,1-1.21-.25,2.18,2.18,0,0,1-.73-.58A3.77,3.77,0,0,1,294,182h-.1v4.31Zm1.55-7.11a4.3,4.3,0,0,0,.25,1.51,2.29,2.29,0,0,0,.72,1,1.84,1.84,0,0,0,1.15.36,1.88,1.88,0,0,0,1.19-.37,2.52,2.52,0,0,0,.72-1,4.24,4.24,0,0,0,.24-1.47,4.1,4.1,0,0,0-.24-1.44,2.28,2.28,0,0,0-.72-1,1.92,1.92,0,0,0-1.19-.37,1.86,1.86,0,0,0-1.16.36,2.14,2.14,0,0,0-.71,1A4,4,0,0,0,293.82,179.24Z"/><path d="M305,183.47a3.93,3.93,0,0,1-2.07-.52,3.46,3.46,0,0,1-1.33-1.45,5.38,5.38,0,0,1,0-4.4,3.48,3.48,0,0,1,3.29-2,4,4,0,0,1,1.33.23,3.21,3.21,0,0,1,1.15.71,3.26,3.26,0,0,1,.81,1.26,5.22,5.22,0,0,1,.3,1.88v.56H302v-1.18h4.9a2.33,2.33,0,0,0-.25-1.11,1.93,1.93,0,0,0-.71-.76,2.22,2.22,0,0,0-2.23,0,2.14,2.14,0,0,0-.76.85,2.38,2.38,0,0,0-.27,1.12v.93A2.93,2.93,0,0,0,303,181a2,2,0,0,0,.8.87,2.61,2.61,0,0,0,2,.17,1.68,1.68,0,0,0,1-1l1.5.27a2.82,2.82,0,0,1-.64,1.16,3.12,3.12,0,0,1-1.16.76A4.12,4.12,0,0,1,305,183.47Z"/><path d="M313.6,186.52a4.82,4.82,0,0,1-1.66-.26,3.2,3.2,0,0,1-1.13-.67,2.82,2.82,0,0,1-.66-.91l1.36-.56a3,3,0,0,0,.38.49,2,2,0,0,0,.66.45,2.68,2.68,0,0,0,1.07.18,2.4,2.4,0,0,0,1.48-.43,1.63,1.63,0,0,0,.59-1.39v-1.6h-.1a3.49,3.49,0,0,1-.41.58,2.37,2.37,0,0,1-.73.55,2.81,2.81,0,0,1-1.21.23,3.36,3.36,0,0,1-1.73-.45,3.12,3.12,0,0,1-1.22-1.34,4.76,4.76,0,0,1-.45-2.18,5.05,5.05,0,0,1,.45-2.22,3.32,3.32,0,0,1,1.21-1.42,3.25,3.25,0,0,1,1.75-.49,2.54,2.54,0,0,1,1.22.25,2.31,2.31,0,0,1,.73.59,5.62,5.62,0,0,1,.4.58h.12v-1.31h1.54v8.29a2.89,2.89,0,0,1-.48,1.72,2.81,2.81,0,0,1-1.32,1A5,5,0,0,1,313.6,186.52Zm0-4.65a2,2,0,0,0,1.15-.32,1.92,1.92,0,0,0,.72-.92,3.87,3.87,0,0,0,.25-1.44,4,4,0,0,0-.25-1.44,2.19,2.19,0,0,0-.71-1,2.1,2.1,0,0,0-2.35,0,2.25,2.25,0,0,0-.72,1,3.88,3.88,0,0,0-.24,1.4,3.77,3.77,0,0,0,.24,1.4,2.1,2.1,0,0,0,.73.94A1.94,1.94,0,0,0,313.59,181.87Z"/><path d="M321,178.48v4.82h-1.58v-8.11h1.52v1.32h.1a2.34,2.34,0,0,1,.88-1,2.71,2.71,0,0,1,1.51-.39,3,3,0,0,1,1.46.35,2.32,2.32,0,0,1,1,1,3.74,3.74,0,0,1,.35,1.69v5.16h-1.58v-5a2,2,0,0,0-.46-1.38,1.66,1.66,0,0,0-1.27-.5,1.94,1.94,0,0,0-1,.24,1.71,1.71,0,0,0-.67.69A2.35,2.35,0,0,0,321,178.48Z"/><path d="M329.07,173.93a1,1,0,0,1-.71-.27.92.92,0,0,1,0-1.34,1,1,0,0,1,.71-.27,1,1,0,0,1,.7.27.9.9,0,0,1,0,1.34A1,1,0,0,1,329.07,173.93Zm-.8,9.37v-8.11h1.58v8.11Z"/><path d="M332,183.3v-8.11h1.51v1.32h.1a2.12,2.12,0,0,1,.83-1,2.5,2.5,0,0,1,1.38-.38,2.4,2.4,0,0,1,1.37.38,2.19,2.19,0,0,1,.81,1h.09a2.26,2.26,0,0,1,.92-1,2.85,2.85,0,0,1,1.51-.39,2.47,2.47,0,0,1,1.81.69,2.81,2.81,0,0,1,.7,2.09v5.44h-1.58V178a1.48,1.48,0,0,0-.45-1.2,1.67,1.67,0,0,0-1.07-.37,1.51,1.51,0,0,0-1.2.48,1.71,1.71,0,0,0-.43,1.21v5.17H336.7v-5.39a1.38,1.38,0,0,0-.41-1.06,1.46,1.46,0,0,0-1.07-.41,1.52,1.52,0,0,0-.83.24,1.71,1.71,0,0,0-.6.65,1.91,1.91,0,0,0-.23,1v5Z"/><path d="M348.62,183.47a3.87,3.87,0,0,1-2.06-.52,3.4,3.4,0,0,1-1.33-1.45,5.38,5.38,0,0,1,0-4.4,3.58,3.58,0,0,1,1.31-1.49,3.65,3.65,0,0,1,2-.53,4,4,0,0,1,1.33.23A3.25,3.25,0,0,1,351,176a3.51,3.51,0,0,1,.81,1.26,5.46,5.46,0,0,1,.29,1.88v.56h-6.45v-1.18h4.91a2.33,2.33,0,0,0-.26-1.11,1.86,1.86,0,0,0-.71-.76,2,2,0,0,0-1.07-.28,2,2,0,0,0-1.16.32,2.22,2.22,0,0,0-.76.85,2.38,2.38,0,0,0-.27,1.12v.93a3.06,3.06,0,0,0,.29,1.38,2,2,0,0,0,.81.87,2.36,2.36,0,0,0,1.21.3,2.39,2.39,0,0,0,.82-.13,1.63,1.63,0,0,0,.64-.39,1.68,1.68,0,0,0,.41-.64l1.49.27a2.71,2.71,0,0,1-.64,1.16,3,3,0,0,1-1.16.76A4.12,4.12,0,0,1,348.62,183.47Z"/><path d="M355.44,178.48v4.82h-1.58v-8.11h1.52v1.32h.1a2.34,2.34,0,0,1,.88-1,2.71,2.71,0,0,1,1.51-.39,3,3,0,0,1,1.46.35,2.32,2.32,0,0,1,1,1,3.74,3.74,0,0,1,.35,1.69v5.16h-1.58v-5a2,2,0,0,0-.46-1.38,1.65,1.65,0,0,0-1.26-.5,2,2,0,0,0-1,.24,1.71,1.71,0,0,0-.67.69A2.35,2.35,0,0,0,355.44,178.48Z"/><path d="M366.54,175.19v1.26h-4.43v-1.26Zm-3.24-1.95h1.58v7.68a1.38,1.38,0,0,0,.13.69.68.68,0,0,0,.36.31,1.27,1.27,0,0,0,.48.08l.33,0,.22,0,.29,1.31-.39.11a3.26,3.26,0,0,1-1.8-.16,2,2,0,0,1-.87-.72,2.14,2.14,0,0,1-.33-1.22Z"/><path d="M371.62,183.47a3.7,3.7,0,0,1-2-.53,3.41,3.41,0,0,1-1.32-1.46,5.3,5.3,0,0,1,0-4.41,3.49,3.49,0,0,1,1.32-1.47,4.07,4.07,0,0,1,4,0,3.49,3.49,0,0,1,1.32,1.47,5.41,5.41,0,0,1,0,4.41,3.41,3.41,0,0,1-1.32,1.46A3.72,3.72,0,0,1,371.62,183.47Zm0-1.33a1.89,1.89,0,0,0,1.23-.39,2.38,2.38,0,0,0,.72-1,4.38,4.38,0,0,0,0-2.86,2.35,2.35,0,0,0-.72-1,1.84,1.84,0,0,0-1.23-.4,1.88,1.88,0,0,0-1.23.4,2.2,2.2,0,0,0-.72,1,4.38,4.38,0,0,0,0,2.86,2.22,2.22,0,0,0,.72,1A1.93,1.93,0,0,0,371.62,182.14Z"/><path d="M282.7,201.9v-8.11h1.53v1.29h.08a2,2,0,0,1,.79-1,2.23,2.23,0,0,1,1.27-.37h.35l.32,0v1.51l-.34-.06a3.87,3.87,0,0,0-.48,0,2.14,2.14,0,0,0-1,.23,1.88,1.88,0,0,0-.69.65,1.8,1.8,0,0,0-.25.95v5Z"/><path d="M289.21,192.53a1,1,0,0,1-.7-.27.88.88,0,0,1-.29-.67.84.84,0,0,1,.29-.66,1,1,0,0,1,.7-.28,1,1,0,0,1,.71.28.84.84,0,0,1,.29.66.88.88,0,0,1-.29.67A1,1,0,0,1,289.21,192.53Zm-.79,9.37v-8.11H290v8.11Z"/><path d="M298.2,195.77l-1.43.25a1.65,1.65,0,0,0-.28-.52,1.44,1.44,0,0,0-.52-.41,2.22,2.22,0,0,0-1.94.14.9.9,0,0,0-.45.77.83.83,0,0,0,.3.66,2.48,2.48,0,0,0,1,.4l1.29.3a3.39,3.39,0,0,1,1.67.8,1.85,1.85,0,0,1,.55,1.4,2.15,2.15,0,0,1-.42,1.3,2.89,2.89,0,0,1-1.17.89,4.38,4.38,0,0,1-1.73.32,3.86,3.86,0,0,1-2.22-.59,2.4,2.4,0,0,1-1.06-1.66l1.53-.23a1.41,1.41,0,0,0,.59.9,2,2,0,0,0,1.15.31,2.09,2.09,0,0,0,1.24-.33,1,1,0,0,0,.47-.79.81.81,0,0,0-.28-.64,1.86,1.86,0,0,0-.87-.4l-1.37-.3a3.31,3.31,0,0,1-1.68-.82,2,2,0,0,1-.54-1.43,2,2,0,0,1,.4-1.26,2.75,2.75,0,0,1,1.11-.85,4.11,4.11,0,0,1,1.62-.3,3.35,3.35,0,0,1,2.07.57A2.62,2.62,0,0,1,298.2,195.77Z"/><path d="M303.51,202.07a3.67,3.67,0,0,1-2-.54,3.55,3.55,0,0,1-1.31-1.48,5,5,0,0,1-.45-2.17,4.89,4.89,0,0,1,.47-2.18,3.44,3.44,0,0,1,1.31-1.48,3.59,3.59,0,0,1,2-.54,4,4,0,0,1,1.65.34,3.06,3.06,0,0,1,1.17,1,3,3,0,0,1,.53,1.43h-1.54a1.81,1.81,0,0,0-.58-1,1.7,1.7,0,0,0-1.21-.42,2,2,0,0,0-1.15.35,2.24,2.24,0,0,0-.77,1,3.88,3.88,0,0,0-.27,1.51,4,4,0,0,0,.27,1.53,2.28,2.28,0,0,0,.76,1,2,2,0,0,0,1.16.35,1.83,1.83,0,0,0,.82-.17,1.7,1.7,0,0,0,.62-.47,1.86,1.86,0,0,0,.35-.75h1.54a3.07,3.07,0,0,1-.51,1.4,3,3,0,0,1-1.15,1A3.68,3.68,0,0,1,303.51,202.07Z"/><path d="M310.91,202.08a3.33,3.33,0,0,1-1.4-.28,2.3,2.3,0,0,1-1.35-2.19,2.15,2.15,0,0,1,.27-1.13,1.84,1.84,0,0,1,.71-.7,3.32,3.32,0,0,1,1-.39,10.25,10.25,0,0,1,1.13-.21l1.18-.14a1.54,1.54,0,0,0,.66-.18.44.44,0,0,0,.21-.41v0a1.42,1.42,0,0,0-.39-1.07,1.62,1.62,0,0,0-1.16-.38,2,2,0,0,0-1.25.35,1.88,1.88,0,0,0-.63.78l-1.49-.34a2.88,2.88,0,0,1,.78-1.19,3.11,3.11,0,0,1,1.17-.67,4.65,4.65,0,0,1,1.4-.21,4.89,4.89,0,0,1,1,.12,3,3,0,0,1,1,.41,2.35,2.35,0,0,1,.79.86,3,3,0,0,1,.3,1.44v5.39h-1.54v-1.1h-.06a2.67,2.67,0,0,1-.46.6,2.47,2.47,0,0,1-.79.49A3.08,3.08,0,0,1,310.91,202.08Zm.34-1.26a2.29,2.29,0,0,0,1.12-.26,2,2,0,0,0,.72-.68,1.78,1.78,0,0,0,.24-.9v-1a.72.72,0,0,1-.32.16l-.55.12-.6.09-.48.06a4,4,0,0,0-.84.2,1.42,1.42,0,0,0-.6.39,1,1,0,0,0-.23.68,1,1,0,0,0,.44.89A1.86,1.86,0,0,0,311.25,200.82Z"/><path d="M318.6,191.08V201.9H317V191.08Z"/><path d="M323.76,202.06a3.15,3.15,0,0,1-1.75-.5,3.37,3.37,0,0,1-1.21-1.44,5.36,5.36,0,0,1-.43-2.26,5.13,5.13,0,0,1,.44-2.25,3.36,3.36,0,0,1,1.21-1.43,3.17,3.17,0,0,1,1.75-.5,2.54,2.54,0,0,1,1.22.25,2.26,2.26,0,0,1,.72.59,4.2,4.2,0,0,1,.39.58h.1v-4h1.58V201.9h-1.54v-1.26h-.14a4.41,4.41,0,0,1-.4.59,2.2,2.2,0,0,1-.74.58A2.49,2.49,0,0,1,323.76,202.06Zm.35-1.34a1.78,1.78,0,0,0,1.15-.37,2.14,2.14,0,0,0,.72-1,4.28,4.28,0,0,0,.25-1.5,3.92,3.92,0,0,0-.25-1.48,2.12,2.12,0,0,0-.71-1,1.84,1.84,0,0,0-1.16-.36,1.92,1.92,0,0,0-1.19.37,2.28,2.28,0,0,0-.72,1,4.12,4.12,0,0,0-.24,1.45,4.18,4.18,0,0,0,.24,1.46,2.39,2.39,0,0,0,.73,1A1.84,1.84,0,0,0,324.11,200.72Z"/><path d="M332.39,202.08a3.29,3.29,0,0,1-1.39-.28,2.33,2.33,0,0,1-1-.84,2.43,2.43,0,0,1-.36-1.35,2.25,2.25,0,0,1,.26-1.13,1.93,1.93,0,0,1,.72-.7,3.26,3.26,0,0,1,1-.39,10.71,10.71,0,0,1,1.13-.21L334,197a1.54,1.54,0,0,0,.66-.18.45.45,0,0,0,.2-.41v0a1.42,1.42,0,0,0-.39-1.07,1.58,1.58,0,0,0-1.15-.38,1.89,1.89,0,0,0-1.89,1.13l-1.48-.34a2.77,2.77,0,0,1,.77-1.19,3.07,3.07,0,0,1,1.18-.67,4.61,4.61,0,0,1,1.4-.21,4.8,4.8,0,0,1,1,.12,3,3,0,0,1,1,.41,2.25,2.25,0,0,1,.78.86,2.9,2.9,0,0,1,.31,1.44v5.39h-1.54v-1.1h-.07a2.19,2.19,0,0,1-.46.6,2.27,2.27,0,0,1-.79.49A3,3,0,0,1,332.39,202.08Zm.35-1.26a2.32,2.32,0,0,0,1.12-.26,1.86,1.86,0,0,0,.71-.68,1.7,1.7,0,0,0,.25-.9v-1a.84.84,0,0,1-.33.16l-.54.12-.6.09-.49.06a4,4,0,0,0-.83.2,1.4,1.4,0,0,0-.61.39,1,1,0,0,0-.22.68,1,1,0,0,0,.43.89A1.91,1.91,0,0,0,332.74,200.82Z"/><path d="M338.5,201.9v-8.11H340v1.32h.1a2.07,2.07,0,0,1,.83-1.05,2.46,2.46,0,0,1,1.38-.38,2.35,2.35,0,0,1,1.36.38,2.27,2.27,0,0,1,.82,1.05h.08a2.39,2.39,0,0,1,.93-1,2.83,2.83,0,0,1,1.51-.39,2.47,2.47,0,0,1,1.81.69,2.87,2.87,0,0,1,.7,2.09v5.44H348v-5.29a1.48,1.48,0,0,0-.45-1.2,1.68,1.68,0,0,0-1.08-.37,1.54,1.54,0,0,0-1.2.48,1.75,1.75,0,0,0-.42,1.21v5.17h-1.58v-5.39a1.42,1.42,0,0,0-.41-1.06,1.47,1.47,0,0,0-1.07-.41,1.52,1.52,0,0,0-.83.24,1.74,1.74,0,0,0-.61.65,2,2,0,0,0-.23,1v5Z"/><path d="M355.15,202.07a3.93,3.93,0,0,1-2.07-.52,3.46,3.46,0,0,1-1.33-1.45,5.38,5.38,0,0,1,0-4.4,3.52,3.52,0,0,1,3.29-2,4,4,0,0,1,1.33.23,3.16,3.16,0,0,1,2,2,5.22,5.22,0,0,1,.3,1.88v.56h-6.45v-1.18h4.9a2.33,2.33,0,0,0-.25-1.11,1.93,1.93,0,0,0-.71-.76,2,2,0,0,0-1.07-.28,2.1,2.1,0,0,0-1.16.32,2.14,2.14,0,0,0-.76.85,2.39,2.39,0,0,0-.27,1.13v.92a3.1,3.1,0,0,0,.29,1.39,2,2,0,0,0,.8.86,2.39,2.39,0,0,0,1.21.3,2.35,2.35,0,0,0,.82-.13,1.65,1.65,0,0,0,.64-.38,1.72,1.72,0,0,0,.41-.64l1.5.27a2.67,2.67,0,0,1-.64,1.15,3.27,3.27,0,0,1-1.16.77A4.33,4.33,0,0,1,355.15,202.07Z"/><path d="M362,197.08v4.82h-1.58v-8.11h1.52v1.32h.1a2.28,2.28,0,0,1,.88-1,2.71,2.71,0,0,1,1.51-.39,2.94,2.94,0,0,1,1.45.35,2.31,2.31,0,0,1,1,1,3.67,3.67,0,0,1,.34,1.68v5.16h-1.58v-5a1.93,1.93,0,0,0-.46-1.38,1.62,1.62,0,0,0-1.26-.5,1.91,1.91,0,0,0-1,.24,1.65,1.65,0,0,0-.67.69A2.24,2.24,0,0,0,362,197.08Z"/><path d="M373.07,193.79v1.27h-4.44v-1.27Zm-3.25-1.95h1.58v7.68a1.37,1.37,0,0,0,.14.69.68.68,0,0,0,.36.31,1.19,1.19,0,0,0,.47.08,1.78,1.78,0,0,0,.34,0l.22,0,.28,1.3a2.47,2.47,0,0,1-.39.11,3.22,3.22,0,0,1-1.79-.16,2,2,0,0,1-1.21-1.94Z"/><path d="M375.61,192.53a1,1,0,0,1-.71-.27.92.92,0,0,1-.29-.67.88.88,0,0,1,.29-.66,1,1,0,0,1,.71-.28,1,1,0,0,1,.7.28.85.85,0,0,1,.3.66.89.89,0,0,1-.3.67A1,1,0,0,1,375.61,192.53Zm-.8,9.37v-8.11h1.58v8.11Z"/><g class="cls-5"><path d="M206.41,783.86V773h6.49v1.16h-5.18v3.66h4.69V779h-4.69v4.84Z"/><path d="M215.14,783.86V773h6.53v1.16h-5.22v3.66h4.88V779h-4.88v3.68h5.3v1.16Z"/><path d="M224,783.86V773h3.79a3.94,3.94,0,0,1,1.86.39,2.52,2.52,0,0,1,1.1,1,2.9,2.9,0,0,1,.36,1.44,2.42,2.42,0,0,1-.25,1.15,1.87,1.87,0,0,1-.64.72,2.84,2.84,0,0,1-.87.39v.11a2.12,2.12,0,0,1,1,.35,2.39,2.39,0,0,1,.84.91,2.79,2.79,0,0,1,.34,1.44,2.87,2.87,0,0,1-.37,1.47,2.59,2.59,0,0,1-1.17,1,4.88,4.88,0,0,1-2.07.38Zm1.32-6.07h2.43a2.36,2.36,0,0,0,1.07-.23,1.92,1.92,0,0,0,.76-.65,1.77,1.77,0,0,0,.28-1,1.66,1.66,0,0,0-.5-1.21,2.14,2.14,0,0,0-1.57-.5h-2.47Zm0,4.91H228a2.68,2.68,0,0,0,1.82-.5,1.61,1.61,0,0,0,.54-1.22,1.9,1.9,0,0,0-.28-1,2,2,0,0,0-.8-.75,2.47,2.47,0,0,0-1.22-.29h-2.66Z"/></g><g class="cls-5"><path d="M131.5,776.42a3.88,3.88,0,0,0-.46-1,3.12,3.12,0,0,0-.67-.73,3,3,0,0,0-.88-.46,3.66,3.66,0,0,0-1.08-.15,3.18,3.18,0,0,0-1.74.49,3.4,3.4,0,0,0-1.26,1.47,5.41,5.41,0,0,0-.46,2.37,5.27,5.27,0,0,0,.47,2.37,3.39,3.39,0,0,0,1.27,1.46,3.31,3.31,0,0,0,1.81.5,3.24,3.24,0,0,0,1.64-.4,2.81,2.81,0,0,0,1.11-1.13,3.5,3.5,0,0,0,.4-1.72l.4.08h-3.26v-1.16h4.13v1.16a4.6,4.6,0,0,1-.57,2.33,4,4,0,0,1-1.57,1.53,5,5,0,0,1-4.8-.14,4.55,4.55,0,0,1-1.7-1.92,6.77,6.77,0,0,1-.6-3,7.19,7.19,0,0,1,.35-2.31,4.89,4.89,0,0,1,1-1.75,4.08,4.08,0,0,1,1.5-1.11,4.92,4.92,0,0,1,3.5-.13,4.38,4.38,0,0,1,1.33.72,4.13,4.13,0,0,1,1,1.11,4.38,4.38,0,0,1,.54,1.44Z"/><path d="M135.16,783.86V773h6.53v1.16h-5.22v3.66h4.88V779h-4.88v3.68h5.3v1.16Z"/><path d="M152.64,773v10.82h-1.27l-5.9-8.5h-.1v8.5h-1.31V773h1.26l5.92,8.52h.11V773Z"/></g><g class="cls-5"><path d="M284.22,773h1.56l3.68,9h.12l3.68-9h1.57v10.82H293.6v-8.22h-.11l-3.38,8.22h-1.18l-3.38-8.22h-.11v8.22h-1.22Z"/><path d="M297.89,783.86h-1.37l4-10.82h1.35l4,10.82h-1.38l-3.23-9.11h-.09Zm.51-4.23h5.54v1.17H298.4Z"/><path d="M307.51,783.86V773h3.66a4.43,4.43,0,0,1,2.08.43,2.79,2.79,0,0,1,1.2,1.18,3.65,3.65,0,0,1,.39,1.71,3.57,3.57,0,0,1-.39,1.69,2.7,2.7,0,0,1-1.2,1.16,4.47,4.47,0,0,1-2.06.42h-3v-1.18h2.91a3.24,3.24,0,0,0,1.4-.26,1.51,1.51,0,0,0,.77-.72,2.39,2.39,0,0,0,.24-1.11,2.52,2.52,0,0,0-.24-1.14,1.63,1.63,0,0,0-.78-.75,3.1,3.1,0,0,0-1.41-.27h-2.3v9.66ZM312.6,779l2.67,4.86h-1.53L311.12,779Z"/></g><g class="cls-5"><path d="M369.78,783.86H368.4l4-10.82h1.35l4,10.82h-1.37l-3.23-9.11H373Zm.5-4.23h5.54v1.17h-5.54Z"/><path d="M379.39,783.86V773h3.66a4.31,4.31,0,0,1,2.09.45,2.92,2.92,0,0,1,1.2,1.24,3.79,3.79,0,0,1,.39,1.73,3.84,3.84,0,0,1-.39,1.74,2.87,2.87,0,0,1-1.2,1.24,4.12,4.12,0,0,1-2.07.47h-2.62v-1.17H383a2.82,2.82,0,0,0,1.4-.3,1.82,1.82,0,0,0,.77-.81,2.78,2.78,0,0,0,.24-1.17,2.7,2.7,0,0,0-.24-1.16,1.79,1.79,0,0,0-.78-.81,3,3,0,0,0-1.41-.29H380.7v9.66Z"/><path d="M388.84,783.86V773h3.66a4.4,4.4,0,0,1,2.08.43,2.82,2.82,0,0,1,1.21,1.18,3.65,3.65,0,0,1,.39,1.71,3.57,3.57,0,0,1-.39,1.69,2.7,2.7,0,0,1-1.2,1.16,4.48,4.48,0,0,1-2.07.42h-3v-1.18h2.92a3.27,3.27,0,0,0,1.4-.26,1.55,1.55,0,0,0,.77-.72,2.71,2.71,0,0,0,0-2.25,1.65,1.65,0,0,0-.77-.75,3.16,3.16,0,0,0-1.41-.27h-2.31v9.66Zm5.1-4.86,2.66,4.86h-1.52L392.46,779Z"/></g><g class="cls-5"><path d="M449.81,773h1.56l3.68,9h.13l3.67-9h1.57v10.82h-1.23v-8.22h-.1l-3.38,8.22h-1.19l-3.38-8.22H451v8.22h-1.22Z"/><path d="M463.48,783.86h-1.37l4-10.82h1.36l4,10.82H470l-3.24-9.11h-.08Zm.51-4.23h5.54v1.17H464Z"/><path d="M480,776.42a3.56,3.56,0,0,0-.46-1,2.92,2.92,0,0,0-.67-.73,3,3,0,0,0-.88-.46,3.59,3.59,0,0,0-1.07-.15,3.19,3.19,0,0,0-1.75.49,3.4,3.4,0,0,0-1.26,1.47,6.27,6.27,0,0,0,0,4.74,3.39,3.39,0,0,0,1.27,1.46,3.31,3.31,0,0,0,1.81.5,3.24,3.24,0,0,0,1.64-.4,2.75,2.75,0,0,0,1.11-1.13,3.5,3.5,0,0,0,.4-1.72l.4.08h-3.25v-1.16h4.12v1.16a4.6,4.6,0,0,1-.57,2.33,4,4,0,0,1-1.56,1.53A4.75,4.75,0,0,1,477,784a4.66,4.66,0,0,1-2.52-.68,4.46,4.46,0,0,1-1.69-1.92,6.63,6.63,0,0,1-.61-3,7.19,7.19,0,0,1,.35-2.31,4.89,4.89,0,0,1,1-1.75,4.08,4.08,0,0,1,1.5-1.11,4.93,4.93,0,0,1,3.5-.13,4.38,4.38,0,0,1,1.33.72,4.09,4.09,0,0,1,1.51,2.55Z"/></g><g class="cls-5"><path d="M544.53,776.42a3.88,3.88,0,0,0-.46-1,3.12,3.12,0,0,0-.67-.73,3,3,0,0,0-.88-.46,3.71,3.71,0,0,0-1.08-.15,3.23,3.23,0,0,0-1.75.49,3.44,3.44,0,0,0-1.25,1.47,6.21,6.21,0,0,0,0,4.74,3.41,3.41,0,0,0,1.28,1.46,3.54,3.54,0,0,0,3.45.1,2.81,2.81,0,0,0,1.11-1.13,3.61,3.61,0,0,0,.39-1.72l.41.08h-3.26v-1.16h4.12v1.16a4.6,4.6,0,0,1-.57,2.33,4,4,0,0,1-1.56,1.53,5.06,5.06,0,0,1-4.81-.14,4.53,4.53,0,0,1-1.69-1.92,6.77,6.77,0,0,1-.6-3,7.19,7.19,0,0,1,.34-2.31,5,5,0,0,1,1-1.75,4.08,4.08,0,0,1,1.5-1.11,5,5,0,0,1,3.51-.13,4.32,4.32,0,0,1,1.32.72,4.17,4.17,0,0,1,1,1.11,4.38,4.38,0,0,1,.54,1.44Z"/><path d="M549.49,773v10.82h-1.31V773Z"/><path d="M559.22,773h1.31v7.16a3.85,3.85,0,0,1-.52,2,3.67,3.67,0,0,1-1.47,1.37,5.18,5.18,0,0,1-4.44,0,3.67,3.67,0,0,1-1.47-1.37,3.85,3.85,0,0,1-.52-2V773h1.31v7.06a2.83,2.83,0,0,0,.35,1.41,2.5,2.5,0,0,0,1,1,3.61,3.61,0,0,0,3.1,0,2.38,2.38,0,0,0,1-1,2.83,2.83,0,0,0,.35-1.41Z"/></g><g class="cls-5"><path d="M618.26,783.86V773h1.31v9.66h5v1.16Z"/><path d="M633.73,773H635v7.16a3.75,3.75,0,0,1-.52,2,3.67,3.67,0,0,1-1.47,1.37,4.72,4.72,0,0,1-2.22.5,4.78,4.78,0,0,1-2.22-.5,3.64,3.64,0,0,1-1.46-1.37,3.75,3.75,0,0,1-.52-2V773h1.31v7.06a2.73,2.73,0,0,0,.35,1.41,2.41,2.41,0,0,0,1,1,3.63,3.63,0,0,0,3.11,0,2.41,2.41,0,0,0,1-1,2.83,2.83,0,0,0,.35-1.41Z"/><path d="M645.06,776.42a3.88,3.88,0,0,0-.46-1,3.12,3.12,0,0,0-.67-.73,3,3,0,0,0-.88-.46,3.71,3.71,0,0,0-1.08-.15,3.23,3.23,0,0,0-1.75.49,3.44,3.44,0,0,0-1.25,1.47,5.41,5.41,0,0,0-.46,2.37,5.27,5.27,0,0,0,.47,2.37,3.39,3.39,0,0,0,1.27,1.46,3.31,3.31,0,0,0,1.81.5,3.24,3.24,0,0,0,1.64-.4,2.81,2.81,0,0,0,1.11-1.13,3.61,3.61,0,0,0,.4-1.72l.4.08h-3.26v-1.16h4.13v1.16a4.6,4.6,0,0,1-.57,2.33,4,4,0,0,1-1.57,1.53,5.06,5.06,0,0,1-4.81-.14,4.6,4.6,0,0,1-1.69-1.92,6.77,6.77,0,0,1-.6-3,6.92,6.92,0,0,1,.35-2.31,4.89,4.89,0,0,1,1-1.75,4.08,4.08,0,0,1,1.5-1.11,4.55,4.55,0,0,1,1.9-.39,4.63,4.63,0,0,1,1.6.26,4.38,4.38,0,0,1,1.33.72,4.13,4.13,0,0,1,1,1.11,4.38,4.38,0,0,1,.54,1.44Z"/></g><g class="cls-5"><path d="M702.06,783.86h-1.37l4-10.82H706l4,10.82h-1.38l-3.23-9.11h-.09Zm.51-4.23h5.53v1.17h-5.53Z"/><path d="M718.57,776.42a3.88,3.88,0,0,0-.46-1,3.12,3.12,0,0,0-.67-.73,3,3,0,0,0-.88-.46,3.71,3.71,0,0,0-1.08-.15,3.23,3.23,0,0,0-1.75.49,3.44,3.44,0,0,0-1.25,1.47,5.41,5.41,0,0,0-.47,2.37,5.27,5.27,0,0,0,.48,2.37,3.32,3.32,0,0,0,1.27,1.46,3.54,3.54,0,0,0,3.45.1,2.81,2.81,0,0,0,1.11-1.13,3.61,3.61,0,0,0,.4-1.72l.4.08h-3.26v-1.16H720v1.16a4.7,4.7,0,0,1-.56,2.33,4,4,0,0,1-1.57,1.53,5.06,5.06,0,0,1-4.81-.14,4.6,4.6,0,0,1-1.69-1.92,6.77,6.77,0,0,1-.6-3,7.19,7.19,0,0,1,.34-2.31,5,5,0,0,1,1-1.75,4.25,4.25,0,0,1,1.5-1.11,5,5,0,0,1,3.51-.13,4.5,4.5,0,0,1,1.33.72,4.13,4.13,0,0,1,1,1.11,4.38,4.38,0,0,1,.54,1.44Z"/><path d="M731.36,778.45a6.63,6.63,0,0,1-.62,3,4.69,4.69,0,0,1-1.7,1.92,4.79,4.79,0,0,1-4.92,0,4.62,4.62,0,0,1-1.7-1.92,7.38,7.38,0,0,1,0-5.92,4.62,4.62,0,0,1,1.7-1.92,4.79,4.79,0,0,1,4.92,0,4.69,4.69,0,0,1,1.7,1.92A6.63,6.63,0,0,1,731.36,778.45Zm-1.27,0a5.41,5.41,0,0,0-.47-2.37,3.4,3.4,0,0,0-1.26-1.47,3.48,3.48,0,0,0-3.56,0,3.4,3.4,0,0,0-1.26,1.47,6.21,6.21,0,0,0,0,4.74,3.37,3.37,0,0,0,1.26,1.46,3.42,3.42,0,0,0,3.56,0,3.37,3.37,0,0,0,1.26-1.46A5.41,5.41,0,0,0,730.09,778.45Z"/></g><g class="cls-5"><path d="M792.86,775.74a1.64,1.64,0,0,0-.77-1.24,2.92,2.92,0,0,0-1.66-.45,3.26,3.26,0,0,0-1.26.23,2.08,2.08,0,0,0-.83.64,1.54,1.54,0,0,0-.3.93,1.27,1.27,0,0,0,.21.74,1.65,1.65,0,0,0,.54.51,3.32,3.32,0,0,0,.68.34l.66.21,1.1.29c.28.08.6.18.95.31a4.82,4.82,0,0,1,1,.53,2.84,2.84,0,0,1,.79.86,2.53,2.53,0,0,1,.31,1.28,2.92,2.92,0,0,1-.46,1.59,3.21,3.21,0,0,1-1.33,1.12,4.86,4.86,0,0,1-2.12.42,4.91,4.91,0,0,1-2-.37,3.22,3.22,0,0,1-1.34-1,3,3,0,0,1-.54-1.56h1.35a1.62,1.62,0,0,0,.41,1,2.12,2.12,0,0,0,.92.59,3.7,3.7,0,0,0,1.21.2,3.52,3.52,0,0,0,1.34-.25,2.19,2.19,0,0,0,.95-.69,1.6,1.6,0,0,0,.35-1,1.29,1.29,0,0,0-.3-.88,2.27,2.27,0,0,0-.8-.55,8.74,8.74,0,0,0-1.06-.37l-1.33-.38a5,5,0,0,1-2-1,2.29,2.29,0,0,1-.74-1.77,2.66,2.66,0,0,1,.5-1.59,3.25,3.25,0,0,1,1.33-1.05,4.53,4.53,0,0,1,1.87-.38,4.38,4.38,0,0,1,1.86.37,3.23,3.23,0,0,1,1.29,1,2.56,2.56,0,0,1,.51,1.46Z"/><path d="M796.43,783.86V773H803v1.16h-5.22v3.66h4.89V779h-4.89v3.68h5.31v1.16Z"/><path d="M804.74,774.2V773h8.12v1.16h-3.41v9.66h-1.31V774.2Z"/></g><g class="cls-5"><path d="M878.81,778.45a6.49,6.49,0,0,1-.62,3A4.47,4.47,0,0,1,874,784a4.55,4.55,0,0,1-2.46-.68,4.6,4.6,0,0,1-1.69-1.92,7.38,7.38,0,0,1,0-5.92,4.6,4.6,0,0,1,1.69-1.92,4.81,4.81,0,0,1,4.93,0,4.6,4.6,0,0,1,1.69,1.92A6.49,6.49,0,0,1,878.81,778.45Zm-1.27,0a5.41,5.41,0,0,0-.46-2.37,3.48,3.48,0,0,0-1.27-1.47,3.46,3.46,0,0,0-3.55,0,3.48,3.48,0,0,0-1.27,1.47,6.34,6.34,0,0,0,0,4.74,3.45,3.45,0,0,0,1.27,1.46,3.4,3.4,0,0,0,3.55,0,3.45,3.45,0,0,0,1.27-1.46A5.41,5.41,0,0,0,877.54,778.45Z"/><path d="M880,774.2V773h8.12v1.16h-3.4v9.66h-1.31V774.2Z"/><path d="M889.53,774.2V773h8.11v1.16h-3.4v9.66h-1.31V774.2Z"/></g><g class="cls-5"><path d="M959.93,773v10.82h-1.27l-5.9-8.5h-.1v8.5h-1.32V773h1.27l5.92,8.52h.11V773Z"/><path d="M971.68,778.45a6.63,6.63,0,0,1-.62,3,4.62,4.62,0,0,1-1.7,1.92,4.79,4.79,0,0,1-4.92,0,4.69,4.69,0,0,1-1.7-1.92,7.38,7.38,0,0,1,0-5.92,4.69,4.69,0,0,1,1.7-1.92,4.79,4.79,0,0,1,4.92,0,4.62,4.62,0,0,1,1.7,1.92A6.63,6.63,0,0,1,971.68,778.45Zm-1.27,0a5.41,5.41,0,0,0-.47-2.37,3.4,3.4,0,0,0-1.26-1.47,3.48,3.48,0,0,0-3.56,0,3.4,3.4,0,0,0-1.26,1.47,6.21,6.21,0,0,0,0,4.74,3.37,3.37,0,0,0,1.26,1.46,3.42,3.42,0,0,0,3.56,0,3.37,3.37,0,0,0,1.26-1.46A5.41,5.41,0,0,0,970.41,778.45Z"/><path d="M973.81,773l3.22,9.11h.12l3.22-9.11h1.37l-4,10.82h-1.36l-4-10.82Z"/></g><g class="cls-5"><path d="M1039.51,783.86h-3.34V773h3.49a5.28,5.28,0,0,1,2.69.64,4.3,4.3,0,0,1,1.72,1.86,6.45,6.45,0,0,1,.6,2.89,6.54,6.54,0,0,1-.6,2.91,4.3,4.3,0,0,1-1.76,1.87A5.66,5.66,0,0,1,1039.51,783.86Zm-2-1.16h2a4.39,4.39,0,0,0,2.22-.52,3.25,3.25,0,0,0,1.32-1.47,5.49,5.49,0,0,0,.43-2.28,5.36,5.36,0,0,0-.43-2.26,3.15,3.15,0,0,0-1.28-1.46,4,4,0,0,0-2.12-.51h-2.09Z"/><path d="M1048.18,773v10.82h-1.31V773Z"/><path d="M1059.51,776.42h-1.31a2.76,2.76,0,0,0-.41-1,2.83,2.83,0,0,0-.69-.73,3.33,3.33,0,0,0-.91-.44,3.58,3.58,0,0,0-1-.14,3.28,3.28,0,0,0-1.77.49,3.35,3.35,0,0,0-1.27,1.47,6.21,6.21,0,0,0,0,4.74,3.32,3.32,0,0,0,1.27,1.46,3.2,3.2,0,0,0,1.77.5,3.58,3.58,0,0,0,1-.15,2.84,2.84,0,0,0,.91-.44,2.63,2.63,0,0,0,.69-.72,2.92,2.92,0,0,0,.41-1h1.31A4.35,4.35,0,0,1,1059,782a4,4,0,0,1-1,1.11,4.24,4.24,0,0,1-1.31.7,4.82,4.82,0,0,1-1.54.24,4.55,4.55,0,0,1-2.46-.68,4.69,4.69,0,0,1-1.7-1.92,7.49,7.49,0,0,1,0-5.92,4.69,4.69,0,0,1,1.7-1.92,4.46,4.46,0,0,1,2.46-.68,4.82,4.82,0,0,1,1.54.24,4.44,4.44,0,0,1,1.31.69,4.31,4.31,0,0,1,1,1.11A4.41,4.41,0,0,1,1059.51,776.42Z"/></g><g class="cls-5"><path d="M71.9,766.07a3.25,3.25,0,0,1-2-.65,4,4,0,0,1-1.28-1.9,10.26,10.26,0,0,1,0-6,4.12,4.12,0,0,1,1.29-1.9,3.44,3.44,0,0,1,4,0,4.12,4.12,0,0,1,1.29,1.9,10.26,10.26,0,0,1,0,6,4,4,0,0,1-1.28,1.9A3.24,3.24,0,0,1,71.9,766.07Zm0-1.16a2,2,0,0,0,1.84-1.15,6.67,6.67,0,0,0,.65-3.25,8.23,8.23,0,0,0-.3-2.39,3.31,3.31,0,0,0-.85-1.51,1.9,1.9,0,0,0-1.34-.52,2,2,0,0,0-1.84,1.16,6.62,6.62,0,0,0-.66,3.26,8.28,8.28,0,0,0,.3,2.39,3.29,3.29,0,0,0,.85,1.49A1.93,1.93,0,0,0,71.9,764.91Z"/></g><g class="cls-5"><path d="M65.26,696.81v10.83H64v-9.45h-.06l-2.65,1.75v-1.33l2.71-1.8Z"/><path d="M71.9,707.79a3.2,3.2,0,0,1-2-.66,4,4,0,0,1-1.28-1.89,10.26,10.26,0,0,1,0-6,4.15,4.15,0,0,1,1.29-1.91,3.48,3.48,0,0,1,4,0,4.15,4.15,0,0,1,1.29,1.91,10.26,10.26,0,0,1,0,6,4,4,0,0,1-1.28,1.89A3.19,3.19,0,0,1,71.9,707.79Zm0-1.17a2,2,0,0,0,1.83-1.14,6.55,6.55,0,0,0,.66-3.25,8.36,8.36,0,0,0-.3-2.4,3.28,3.28,0,0,0-.85-1.5,1.9,1.9,0,0,0-1.34-.52A2,2,0,0,0,70.06,699a6.66,6.66,0,0,0-.66,3.27,8.21,8.21,0,0,0,.3,2.38,3.28,3.28,0,0,0,.85,1.5A1.92,1.92,0,0,0,71.9,706.62Z"/></g><g class="cls-5"><path d="M59.36,649.36v-1l3.57-3.91c.42-.45.77-.85,1-1.19a4.38,4.38,0,0,0,.6-1,2.25,2.25,0,0,0,.2-1,1.79,1.79,0,0,0-.27-1,1.87,1.87,0,0,0-.74-.65,2.45,2.45,0,0,0-1.06-.22,2.18,2.18,0,0,0-1.08.25,1.78,1.78,0,0,0-.72.72,2.21,2.21,0,0,0-.25,1.08H59.4a3.15,3.15,0,0,1,.44-1.67,3.08,3.08,0,0,1,1.2-1.12,3.55,3.55,0,0,1,1.7-.4,3.43,3.43,0,0,1,1.69.4,3.07,3.07,0,0,1,1.15,1.08,2.83,2.83,0,0,1,.42,1.52,3.3,3.3,0,0,1-.21,1.16,5.38,5.38,0,0,1-.74,1.26c-.36.47-.84,1-1.46,1.7l-2.43,2.6v.08h5v1.17Z"/><path d="M71.9,649.5a3.19,3.19,0,0,1-2-.65,4,4,0,0,1-1.28-1.9,10.22,10.22,0,0,1,0-6A4.15,4.15,0,0,1,69.87,639a3.48,3.48,0,0,1,4,0A4.15,4.15,0,0,1,75.21,641a10.22,10.22,0,0,1,0,6,4,4,0,0,1-1.28,1.9A3.19,3.19,0,0,1,71.9,649.5Zm0-1.16a2,2,0,0,0,1.83-1.14,6.59,6.59,0,0,0,.66-3.26,8.33,8.33,0,0,0-.3-2.39,3.28,3.28,0,0,0-.85-1.5,1.9,1.9,0,0,0-1.34-.52,2,2,0,0,0-1.84,1.15,6.64,6.64,0,0,0-.66,3.26,8.23,8.23,0,0,0,.3,2.39,3.28,3.28,0,0,0,.85,1.5A1.92,1.92,0,0,0,71.9,648.34Z"/></g><g class="cls-5"><path d="M62.55,591.22a4.61,4.61,0,0,1-1.86-.36,3.17,3.17,0,0,1-1.29-1,2.61,2.61,0,0,1-.52-1.49h1.33a1.57,1.57,0,0,0,.36.9,2,2,0,0,0,.83.58,3,3,0,0,0,1.13.21,2.86,2.86,0,0,0,1.24-.25,2,2,0,0,0,.84-.67,1.66,1.66,0,0,0,.31-1,2,2,0,0,0-.29-1,2.09,2.09,0,0,0-.87-.72,3.44,3.44,0,0,0-1.4-.25H61.5v-1.17h.86a2.58,2.58,0,0,0,1.14-.23,1.79,1.79,0,0,0,.76-.65,1.77,1.77,0,0,0,.28-1,1.9,1.9,0,0,0-.24-1,1.62,1.62,0,0,0-.69-.63,2.25,2.25,0,0,0-1-.23,2.66,2.66,0,0,0-1,.21,2,2,0,0,0-.81.58,1.57,1.57,0,0,0-.33.93H59.11a2.6,2.6,0,0,1,.51-1.5,3.3,3.3,0,0,1,1.26-1,4,4,0,0,1,1.72-.36,3.45,3.45,0,0,1,1.72.41,2.81,2.81,0,0,1,1.1,1.06,2.77,2.77,0,0,1,.39,1.43,2.54,2.54,0,0,1-.48,1.56,2.47,2.47,0,0,1-1.3.89v.08a2.55,2.55,0,0,1,1.6.87,2.62,2.62,0,0,1,.58,1.73,2.76,2.76,0,0,1-.48,1.59,3.35,3.35,0,0,1-1.3,1.1A4.22,4.22,0,0,1,62.55,591.22Z"/><path d="M71.9,591.22a3.25,3.25,0,0,1-2-.65,4,4,0,0,1-1.28-1.9,10.26,10.26,0,0,1,0-6,4.12,4.12,0,0,1,1.29-1.9,3.44,3.44,0,0,1,4,0,4.12,4.12,0,0,1,1.29,1.9,10.26,10.26,0,0,1,0,6,4,4,0,0,1-1.28,1.9A3.24,3.24,0,0,1,71.9,591.22Zm0-1.16a2,2,0,0,0,1.84-1.14,6.71,6.71,0,0,0,.65-3.26,8.28,8.28,0,0,0-.3-2.39,3.37,3.37,0,0,0-.85-1.51,1.94,1.94,0,0,0-1.34-.52,2,2,0,0,0-1.84,1.16,6.64,6.64,0,0,0-.66,3.26,8.28,8.28,0,0,0,.3,2.39,3.33,3.33,0,0,0,.85,1.5A1.92,1.92,0,0,0,71.9,590.06Z"/></g><g class="cls-5"><path d="M58.56,530.57v-1.08L63.31,522h.79v1.67h-.53L60,529.32v.09h6.41v1.16Zm5.09,2.22V522H64.9v10.82Z"/><path d="M71.9,532.94a3.25,3.25,0,0,1-2-.65,4,4,0,0,1-1.28-1.9,10.26,10.26,0,0,1,0-6,4.12,4.12,0,0,1,1.29-1.9,3.44,3.44,0,0,1,4,0,4.12,4.12,0,0,1,1.29,1.9,10.26,10.26,0,0,1,0,6,4,4,0,0,1-1.28,1.9A3.24,3.24,0,0,1,71.9,532.94Zm0-1.16a2,2,0,0,0,1.84-1.14,6.74,6.74,0,0,0,.65-3.26,8.23,8.23,0,0,0-.3-2.39,3.37,3.37,0,0,0-.85-1.51A1.94,1.94,0,0,0,71.9,523a2,2,0,0,0-1.84,1.16,6.62,6.62,0,0,0-.66,3.26,8.28,8.28,0,0,0,.3,2.39,3.29,3.29,0,0,0,.85,1.49A1.89,1.89,0,0,0,71.9,531.78Z"/></g><g class="cls-5"><path d="M62.7,474.66a3.76,3.76,0,0,1-1.67-.37,3.15,3.15,0,0,1-1.2-1,2.77,2.77,0,0,1-.49-1.46h1.27a1.73,1.73,0,0,0,.67,1.21,2.18,2.18,0,0,0,1.42.48,2.26,2.26,0,0,0,2-1.17,2.56,2.56,0,0,0,.3-1.24,2.62,2.62,0,0,0-.31-1.27,2.39,2.39,0,0,0-.85-.88,2.51,2.51,0,0,0-1.23-.33,3.71,3.71,0,0,0-1,.15,3,3,0,0,0-.86.4L59.51,469l.66-5.32h5.62v1.16H61.26L60.88,468H61a3.08,3.08,0,0,1,.83-.44,3.48,3.48,0,0,1,2.82.3,3.46,3.46,0,0,1,1.23,1.29,3.94,3.94,0,0,1,.44,1.87,3.63,3.63,0,0,1-.46,1.85,3.39,3.39,0,0,1-1.27,1.28A3.62,3.62,0,0,1,62.7,474.66Z"/><path d="M71.9,474.66a3.25,3.25,0,0,1-2-.65,4,4,0,0,1-1.28-1.9,10.26,10.26,0,0,1,0-6,4.12,4.12,0,0,1,1.29-1.9,3.44,3.44,0,0,1,4,0,4.12,4.12,0,0,1,1.29,1.9,10.26,10.26,0,0,1,0,6,4,4,0,0,1-1.28,1.9A3.24,3.24,0,0,1,71.9,474.66Zm0-1.16a2,2,0,0,0,1.84-1.15,6.67,6.67,0,0,0,.65-3.25,8.23,8.23,0,0,0-.3-2.39,3.31,3.31,0,0,0-.85-1.51,1.9,1.9,0,0,0-1.34-.52,2,2,0,0,0-1.84,1.16,6.62,6.62,0,0,0-.66,3.26,8.28,8.28,0,0,0,.3,2.39,3.29,3.29,0,0,0,.85,1.49A1.93,1.93,0,0,0,71.9,473.5Z"/></g><g class="cls-5"><path d="M62.68,416.38a3.93,3.93,0,0,1-1.33-.26,3.17,3.17,0,0,1-1.22-.82,4.2,4.2,0,0,1-.88-1.57,8,8,0,0,1-.33-2.49,10.84,10.84,0,0,1,.27-2.55,5.88,5.88,0,0,1,.78-1.88,3.6,3.6,0,0,1,1.24-1.16,3.4,3.4,0,0,1,1.64-.39,3.51,3.51,0,0,1,1.62.36,3.14,3.14,0,0,1,1.16,1,3.51,3.51,0,0,1,.58,1.48H64.92a2.38,2.38,0,0,0-.7-1.21,1.92,1.92,0,0,0-1.37-.48,2.26,2.26,0,0,0-2,1.1,5.61,5.61,0,0,0-.73,3.07h.09a3.16,3.16,0,0,1,1.61-1.27,3.3,3.3,0,0,1,1-.17,3.21,3.21,0,0,1,1.7.46,3.44,3.44,0,0,1,1.24,1.27,3.67,3.67,0,0,1,.47,1.86,3.83,3.83,0,0,1-.45,1.84,3.47,3.47,0,0,1-1.26,1.32A3.71,3.71,0,0,1,62.68,416.38Zm0-1.17a2.26,2.26,0,0,0,1.2-.33,2.48,2.48,0,0,0,.84-.89,2.63,2.63,0,0,0,.31-1.25,2.51,2.51,0,0,0-.3-1.22,2.31,2.31,0,0,0-.82-.88,2.17,2.17,0,0,0-1.19-.33,2.25,2.25,0,0,0-.93.2,2.4,2.4,0,0,0-.76.54,2.44,2.44,0,0,0-.51.79,2.4,2.4,0,0,0-.19.92,2.56,2.56,0,0,0,.31,1.21,2.47,2.47,0,0,0,.83.9A2.19,2.19,0,0,0,62.68,415.21Z"/><path d="M71.9,416.38a3.2,3.2,0,0,1-2-.66,4,4,0,0,1-1.28-1.89,10.26,10.26,0,0,1,0-6,4.07,4.07,0,0,1,1.29-1.9,3.44,3.44,0,0,1,4,0,4.07,4.07,0,0,1,1.29,1.9,10.26,10.26,0,0,1,0,6,4,4,0,0,1-1.28,1.89A3.19,3.19,0,0,1,71.9,416.38Zm0-1.17a2,2,0,0,0,1.84-1.14,6.67,6.67,0,0,0,.65-3.25,8.36,8.36,0,0,0-.3-2.4,3.33,3.33,0,0,0-.85-1.5,1.9,1.9,0,0,0-1.34-.52,2,2,0,0,0-1.84,1.16,6.59,6.59,0,0,0-.66,3.26,8.28,8.28,0,0,0,.3,2.39,3.29,3.29,0,0,0,.85,1.49A1.92,1.92,0,0,0,71.9,415.21Z"/></g><g class="cls-5"><path d="M60.44,358l4.84-9.58v-.08H59.7v-1.17h6.93v1.23L61.81,358Z"/><path d="M71.9,358.1a3.2,3.2,0,0,1-2-.66,4,4,0,0,1-1.28-1.89,10.26,10.26,0,0,1,0-6,4.15,4.15,0,0,1,1.29-1.91,3.48,3.48,0,0,1,4,0,4.15,4.15,0,0,1,1.29,1.91,10.26,10.26,0,0,1,0,6,4,4,0,0,1-1.28,1.89A3.19,3.19,0,0,1,71.9,358.1Zm0-1.17a2,2,0,0,0,1.83-1.14,6.57,6.57,0,0,0,.66-3.25,8.36,8.36,0,0,0-.3-2.4,3.28,3.28,0,0,0-.85-1.5,1.9,1.9,0,0,0-1.34-.52,2,2,0,0,0-1.84,1.15,6.66,6.66,0,0,0-.66,3.27,8.21,8.21,0,0,0,.3,2.38,3.28,3.28,0,0,0,.85,1.5A1.92,1.92,0,0,0,71.9,356.93Z"/></g><g class="cls-5"><path d="M62.66,299.81a4.45,4.45,0,0,1-1.92-.39,3.07,3.07,0,0,1-1.3-1.07,2.72,2.72,0,0,1-.46-1.56,3,3,0,0,1,.27-1.27,2.82,2.82,0,0,1,.75-1,2.34,2.34,0,0,1,1.07-.5V294a2.11,2.11,0,0,1-1.23-.88,2.63,2.63,0,0,1-.46-1.53,2.69,2.69,0,0,1,.42-1.48,2.92,2.92,0,0,1,1.17-1,3.69,3.69,0,0,1,1.69-.38,3.65,3.65,0,0,1,1.68.38,3,3,0,0,1,1.16,1,2.72,2.72,0,0,1,0,3,2.14,2.14,0,0,1-1.23.88V294a2.22,2.22,0,0,1,1.06.5,2.94,2.94,0,0,1,.75,1,3,3,0,0,1,.29,1.27,2.74,2.74,0,0,1-.48,1.56,3.1,3.1,0,0,1-1.29,1.07A4.43,4.43,0,0,1,62.66,299.81Zm0-1.16a3.09,3.09,0,0,0,1.27-.24,1.89,1.89,0,0,0,.82-.67,1.83,1.83,0,0,0,.3-1,2,2,0,0,0-.32-1.08,2.19,2.19,0,0,0-.85-.74,2.67,2.67,0,0,0-1.22-.27,2.71,2.71,0,0,0-1.23.27,2.15,2.15,0,0,0-.86.74,2,2,0,0,0-.3,1.08,1.82,1.82,0,0,0,.28,1,1.92,1.92,0,0,0,.83.67A3.14,3.14,0,0,0,62.66,298.65Zm0-5.14a2.26,2.26,0,0,0,1-.23,1.72,1.72,0,0,0,.71-.65,1.84,1.84,0,0,0,.27-1,1.91,1.91,0,0,0-.26-1,1.78,1.78,0,0,0-.7-.63,2.53,2.53,0,0,0-2.11,0,1.68,1.68,0,0,0-.71.63,1.9,1.9,0,0,0-.24,1,1.83,1.83,0,0,0,.25,1,1.72,1.72,0,0,0,.71.65A2.35,2.35,0,0,0,62.66,293.51Z"/><path d="M71.9,299.81a3.25,3.25,0,0,1-2-.65,4,4,0,0,1-1.28-1.9,10.26,10.26,0,0,1,0-6,4.12,4.12,0,0,1,1.29-1.9,3.44,3.44,0,0,1,4,0,4.12,4.12,0,0,1,1.29,1.9,10.26,10.26,0,0,1,0,6,4,4,0,0,1-1.28,1.9A3.24,3.24,0,0,1,71.9,299.81Zm0-1.16a2,2,0,0,0,1.83-1.14,6.59,6.59,0,0,0,.66-3.26,8.28,8.28,0,0,0-.3-2.39,3.37,3.37,0,0,0-.85-1.51,1.94,1.94,0,0,0-1.34-.52A2,2,0,0,0,70.06,291a6.64,6.64,0,0,0-.66,3.26,8.23,8.23,0,0,0,.3,2.39,3.33,3.33,0,0,0,.85,1.5A1.92,1.92,0,0,0,71.9,298.65Z"/></g><g class="cls-5"><path d="M62.53,230.41a3.88,3.88,0,0,1,1.33.26,3.1,3.1,0,0,1,1.22.82,4,4,0,0,1,.88,1.56,7.89,7.89,0,0,1,.34,2.48,11,11,0,0,1-.28,2.56,5.88,5.88,0,0,1-.78,1.88A3.42,3.42,0,0,1,64,241.13a3.29,3.29,0,0,1-1.64.4,3.57,3.57,0,0,1-1.62-.36,3.14,3.14,0,0,1-1.16-1,3.54,3.54,0,0,1-.58-1.5h1.29a2.37,2.37,0,0,0,.7,1.22,1.89,1.89,0,0,0,1.37.49,2.26,2.26,0,0,0,2-1.1,5.52,5.52,0,0,0,.73-3.09H65a3.22,3.22,0,0,1-.7.77,3.3,3.3,0,0,1-.9.5,3.36,3.36,0,0,1-1.06.17,3.21,3.21,0,0,1-1.7-.46,3.39,3.39,0,0,1-1.24-1.28,3.65,3.65,0,0,1-.46-1.85,3.83,3.83,0,0,1,.44-1.82,3.4,3.4,0,0,1,1.26-1.32A3.5,3.5,0,0,1,62.53,230.41Zm0,1.16a2.2,2.2,0,0,0-1.19.33,2.39,2.39,0,0,0-.84.89,2.48,2.48,0,0,0-.31,1.24,2.54,2.54,0,0,0,.3,1.23,2.26,2.26,0,0,0,.81.87,2.2,2.2,0,0,0,1.19.33,2.3,2.3,0,0,0,.94-.2,2.36,2.36,0,0,0,.75-.54,2.67,2.67,0,0,0,.51-.79,2.26,2.26,0,0,0,.19-.92,2.35,2.35,0,0,0-.31-1.19,2.47,2.47,0,0,0-.83-.9A2.17,2.17,0,0,0,62.53,231.57Z"/><path d="M71.9,241.53a3.25,3.25,0,0,1-2-.65,4,4,0,0,1-1.28-1.9,10.26,10.26,0,0,1,0-6,4.12,4.12,0,0,1,1.29-1.9,3.44,3.44,0,0,1,4,0,4.12,4.12,0,0,1,1.29,1.9,10.26,10.26,0,0,1,0,6,4,4,0,0,1-1.28,1.9A3.24,3.24,0,0,1,71.9,241.53Zm0-1.16a2,2,0,0,0,1.84-1.14,6.71,6.71,0,0,0,.65-3.26,8.28,8.28,0,0,0-.3-2.39,3.37,3.37,0,0,0-.85-1.51,1.94,1.94,0,0,0-1.34-.52,2,2,0,0,0-1.84,1.16A6.64,6.64,0,0,0,69.4,236a8.28,8.28,0,0,0,.3,2.39,3.24,3.24,0,0,0,.85,1.49A1.89,1.89,0,0,0,71.9,240.37Z"/></g><g class="cls-5"><path d="M56,172.28V183.1H54.65v-9.45h-.07l-2.64,1.76v-1.34l2.71-1.79Z"/><path d="M62.6,183.25a3.25,3.25,0,0,1-2-.65,4,4,0,0,1-1.28-1.9,10.26,10.26,0,0,1,0-6,4.12,4.12,0,0,1,1.29-1.9,3.44,3.44,0,0,1,4.05,0,4.12,4.12,0,0,1,1.29,1.9,10.26,10.26,0,0,1,0,6,4,4,0,0,1-1.28,1.9A3.24,3.24,0,0,1,62.6,183.25Zm0-1.16a2,2,0,0,0,1.83-1.15,6.55,6.55,0,0,0,.66-3.25,8.23,8.23,0,0,0-.3-2.39,3.31,3.31,0,0,0-.85-1.51,1.9,1.9,0,0,0-1.34-.52,2,2,0,0,0-1.84,1.16,6.62,6.62,0,0,0-.66,3.26,8.28,8.28,0,0,0,.3,2.39,3.2,3.2,0,0,0,.85,1.49A1.93,1.93,0,0,0,62.6,182.09Z"/><path d="M71.9,183.25a3.25,3.25,0,0,1-2-.65,4,4,0,0,1-1.28-1.9,10.26,10.26,0,0,1,0-6,4.12,4.12,0,0,1,1.29-1.9,3.44,3.44,0,0,1,4,0,4.12,4.12,0,0,1,1.29,1.9,10.26,10.26,0,0,1,0,6,4,4,0,0,1-1.28,1.9A3.24,3.24,0,0,1,71.9,183.25Zm0-1.16a2,2,0,0,0,1.84-1.15,6.67,6.67,0,0,0,.65-3.25,8.23,8.23,0,0,0-.3-2.39,3.31,3.31,0,0,0-.85-1.51,1.9,1.9,0,0,0-1.34-.52,2,2,0,0,0-1.84,1.16,6.62,6.62,0,0,0-.66,3.26,8.28,8.28,0,0,0,.3,2.39,3.29,3.29,0,0,0,.85,1.49A1.93,1.93,0,0,0,71.9,182.09Z"/></g><path d="M41.16,137.18v-14h1.56v6a3,3,0,0,0,.35,1.45,2.47,2.47,0,0,0,1,1,3.28,3.28,0,0,0,3,0,2.5,2.5,0,0,0,1-1,2.92,2.92,0,0,0,.34-1.44v-6h1.56v10.15H48.32v-1.51h-.07a3,3,0,0,1-1.15,1.22,3.16,3.16,0,0,1-3.15,0,3,3,0,0,1-1.15-1.22h-.08v5.31Z"/><path d="M56.83,137.39a5.62,5.62,0,0,1-1.94-.29,4.16,4.16,0,0,1-1.35-.75,4.36,4.36,0,0,1-.86-1l1.25-.87c.14.18.31.39.53.63a2.82,2.82,0,0,0,.89.63,3.46,3.46,0,0,0,1.48.27,3.28,3.28,0,0,0,2-.6,2.16,2.16,0,0,0,.8-1.86V131.5h-.13c-.12.18-.28.41-.49.68a2.8,2.8,0,0,1-.9.72,3.31,3.31,0,0,1-1.57.32,4.31,4.31,0,0,1-2.21-.58A4.12,4.12,0,0,1,52.83,131a5.86,5.86,0,0,1-.57-2.7,6.26,6.26,0,0,1,.55-2.72,4.19,4.19,0,0,1,1.52-1.79,4,4,0,0,1,2.26-.64,3.23,3.23,0,0,1,1.58.33,2.71,2.71,0,0,1,.9.74c.21.27.37.5.48.67h.16v-1.61h1.51v10.44a3.6,3.6,0,0,1-.59,2.13A3.5,3.5,0,0,1,59,137,6.21,6.21,0,0,1,56.83,137.39Zm0-5.57a2.85,2.85,0,0,0,1.58-.43,2.68,2.68,0,0,0,1-1.24,5,5,0,0,0,.34-1.93,5.24,5.24,0,0,0-.33-1.93,3,3,0,0,0-1-1.32,3,3,0,0,0-3.25,0,3,3,0,0,0-1,1.35,5.1,5.1,0,0,0-.33,1.87,4.92,4.92,0,0,0,.33,1.87,2.94,2.94,0,0,0,1,1.27A2.86,2.86,0,0,0,56.78,131.82Z"/><path d="M68.85,119.21l-4.36,16.2H63.07l4.36-16.2Z"/><path d="M70.7,133.38V123.23h1.51v1.59h.13a2.53,2.53,0,0,1,1-1.27,3.13,3.13,0,0,1,1.7-.45,3,3,0,0,1,1.68.45,3,3,0,0,1,1,1.27h.11a3,3,0,0,1,1.17-1.26,3.58,3.58,0,0,1,1.87-.46,3,3,0,0,1,2.22.85,3.53,3.53,0,0,1,.87,2.64v6.79H82.46v-6.79a1.92,1.92,0,0,0-.61-1.61,2.3,2.3,0,0,0-1.45-.48,2.13,2.13,0,0,0-1.66.64,2.33,2.33,0,0,0-.59,1.63v6.61H76.57v-6.95A1.86,1.86,0,0,0,76,125a2.05,2.05,0,0,0-1.45-.53,2.17,2.17,0,0,0-1.13.32,2.54,2.54,0,0,0-.85.9,2.69,2.69,0,0,0-.32,1.32v6.34Z"/><path d="M88.93,127.29a3.44,3.44,0,0,1-1.36-.26,2.32,2.32,0,0,1-.94-.73,1.89,1.89,0,0,1-.38-1.09h1a1.2,1.2,0,0,0,.26.66,1.48,1.48,0,0,0,.6.42,2.23,2.23,0,0,0,.83.15,2.29,2.29,0,0,0,.9-.17,1.55,1.55,0,0,0,.62-.5,1.21,1.21,0,0,0,.22-.73,1.41,1.41,0,0,0-.21-.77,1.55,1.55,0,0,0-.63-.52,2.58,2.58,0,0,0-1-.19h-.63v-.84h.63a1.9,1.9,0,0,0,.82-.17,1.39,1.39,0,0,0,.56-.48,1.28,1.28,0,0,0,.21-.73,1.31,1.31,0,0,0-.18-.69,1.33,1.33,0,0,0-.5-.47,1.64,1.64,0,0,0-.76-.16,2,2,0,0,0-.77.15,1.4,1.4,0,0,0-.58.43,1.1,1.1,0,0,0-.25.67h-.92a1.86,1.86,0,0,1,.37-1.09,2.3,2.3,0,0,1,.92-.73,2.86,2.86,0,0,1,1.25-.26,2.57,2.57,0,0,1,1.25.29,2.17,2.17,0,0,1,.81.78,2,2,0,0,1,.28,1,1.85,1.85,0,0,1-.35,1.13,1.75,1.75,0,0,1-.94.65v.07a1.83,1.83,0,0,1,1.16.63,2.08,2.08,0,0,1,.07,2.41,2.44,2.44,0,0,1-.95.81A3.12,3.12,0,0,1,88.93,127.29Z"/><path class="cls-3" d="M1044.63,230.92a.15.15,0,0,1-.15-.15V214.88a.15.15,0,0,1,.15-.15.15.15,0,0,1,.15.15v15.89A.15.15,0,0,1,1044.63,230.92Z"/><path d="M885.31,183.3h-1.74l3.9-10.82h1.89l3.89,10.82h-1.73l-3.06-8.85h-.09Zm.29-4.24h5.62v1.38H885.6Z"/><path d="M898,183.47a3.67,3.67,0,0,1-2-.54,3.47,3.47,0,0,1-1.3-1.48,5.32,5.32,0,0,1,0-4.35,3.52,3.52,0,0,1,1.31-1.49,3.67,3.67,0,0,1,2-.53,3.84,3.84,0,0,1,1.65.34,3.13,3.13,0,0,1,1.17,1,2.92,2.92,0,0,1,.53,1.44h-1.54a1.87,1.87,0,0,0-.58-1,1.74,1.74,0,0,0-1.21-.41,2,2,0,0,0-1.15.35,2.24,2.24,0,0,0-.77,1,3.83,3.83,0,0,0-.27,1.5,4,4,0,0,0,.27,1.54,2.2,2.2,0,0,0,.76,1,1.93,1.93,0,0,0,1.16.36,2,2,0,0,0,.82-.17,1.62,1.62,0,0,0,.62-.48,1.74,1.74,0,0,0,.35-.75h1.54a3.07,3.07,0,0,1-.51,1.41,3,3,0,0,1-1.15,1A3.68,3.68,0,0,1,898,183.47Z"/><path d="M906.42,183.47a3.67,3.67,0,0,1-2-.54,3.55,3.55,0,0,1-1.31-1.48,5,5,0,0,1-.45-2.17,4.89,4.89,0,0,1,.47-2.18,3.52,3.52,0,0,1,1.31-1.49,3.67,3.67,0,0,1,2-.53,3.84,3.84,0,0,1,1.65.34,3.13,3.13,0,0,1,1.17,1,2.92,2.92,0,0,1,.53,1.44h-1.54a1.87,1.87,0,0,0-.58-1,1.73,1.73,0,0,0-1.2-.41,2,2,0,0,0-1.16.35,2.24,2.24,0,0,0-.77,1,3.83,3.83,0,0,0-.27,1.5,4,4,0,0,0,.27,1.54,2.2,2.2,0,0,0,.76,1,1.94,1.94,0,0,0,1.17.36,2,2,0,0,0,.81-.17,1.62,1.62,0,0,0,.62-.48,1.74,1.74,0,0,0,.35-.75h1.54a3.07,3.07,0,0,1-.51,1.41,3,3,0,0,1-1.15,1A3.68,3.68,0,0,1,906.42,183.47Z"/><path d="M915,183.47a4,4,0,0,1-2.06-.52,3.4,3.4,0,0,1-1.33-1.45,5.38,5.38,0,0,1,0-4.4,3.59,3.59,0,0,1,1.31-1.49,3.65,3.65,0,0,1,2-.53,3.76,3.76,0,0,1,1.33.23,3.25,3.25,0,0,1,1.16.71,3.35,3.35,0,0,1,.81,1.26,5.22,5.22,0,0,1,.3,1.88v.56H912v-1.19h4.91a2.32,2.32,0,0,0-.26-1.1,2,2,0,0,0-.71-.77,2.19,2.19,0,0,0-2.23.05,2.27,2.27,0,0,0-.76.84,2.44,2.44,0,0,0-.26,1.13v.93A3.06,3.06,0,0,0,913,181a2.07,2.07,0,0,0,.81.87,2.36,2.36,0,0,0,1.21.3,2.39,2.39,0,0,0,.82-.13,1.75,1.75,0,0,0,.64-.39,1.68,1.68,0,0,0,.41-.64l1.49.27a2.71,2.71,0,0,1-.64,1.16,3.08,3.08,0,0,1-1.15.76A4.42,4.42,0,0,1,915,183.47Z"/><path d="M921.77,178.48v4.82h-1.58v-8.11h1.52v1.32h.1a2.34,2.34,0,0,1,.88-1,2.75,2.75,0,0,1,1.52-.39,2.86,2.86,0,0,1,1.45.35,2.39,2.39,0,0,1,1,1,3.88,3.88,0,0,1,.34,1.69v5.16h-1.58v-5a1.93,1.93,0,0,0-.46-1.38,1.61,1.61,0,0,0-1.26-.5,2,2,0,0,0-1,.24,1.65,1.65,0,0,0-.67.69A2.35,2.35,0,0,0,921.77,178.48Z"/><path d="M935.17,177.17l-1.44.25a1.65,1.65,0,0,0-.28-.52,1.44,1.44,0,0,0-.52-.41,1.82,1.82,0,0,0-.82-.16,2,2,0,0,0-1.12.3.9.9,0,0,0-.45.77.79.79,0,0,0,.3.65,2.32,2.32,0,0,0,1,.41l1.28.3a3.39,3.39,0,0,1,1.67.8,1.83,1.83,0,0,1,.55,1.39,2.13,2.13,0,0,1-.42,1.3,2.76,2.76,0,0,1-1.16.89,4.27,4.27,0,0,1-1.73.33,3.91,3.91,0,0,1-2.23-.59,2.46,2.46,0,0,1-1.06-1.66l1.53-.23a1.44,1.44,0,0,0,.59.9,2,2,0,0,0,1.16.3,2.19,2.19,0,0,0,1.24-.32,1,1,0,0,0,.46-.8.84.84,0,0,0-.28-.64,2,2,0,0,0-.86-.39l-1.38-.3a3.31,3.31,0,0,1-1.68-.82,2,2,0,0,1-.54-1.44,2.05,2.05,0,0,1,.4-1.25,2.75,2.75,0,0,1,1.11-.85,4.19,4.19,0,0,1,1.63-.3,3.39,3.39,0,0,1,2.07.57A2.71,2.71,0,0,1,935.17,177.17Z"/><path d="M937.85,173.93a1,1,0,0,1-.7-.28.84.84,0,0,1-.29-.66.88.88,0,0,1,.29-.67,1.06,1.06,0,0,1,1.41,0,.88.88,0,0,1,.29.67.84.84,0,0,1-.29.66A1,1,0,0,1,937.85,173.93Zm-.79,9.37v-8.11h1.58v8.11Z"/><path d="M944.18,183.47a3.72,3.72,0,0,1-2-.53,3.46,3.46,0,0,1-1.32-1.46,5.41,5.41,0,0,1,0-4.41,3.49,3.49,0,0,1,1.32-1.47,4.07,4.07,0,0,1,4,0,3.49,3.49,0,0,1,1.32,1.47,5.41,5.41,0,0,1,0,4.41,3.46,3.46,0,0,1-1.32,1.46A3.7,3.7,0,0,1,944.18,183.47Zm0-1.33a1.88,1.88,0,0,0,1.22-.39,2.22,2.22,0,0,0,.72-1,4.38,4.38,0,0,0,0-2.86,2.2,2.2,0,0,0-.72-1,1.83,1.83,0,0,0-1.22-.4,1.88,1.88,0,0,0-1.24.4,2.28,2.28,0,0,0-.72,1,4.38,4.38,0,0,0,0,2.86,2.3,2.3,0,0,0,.72,1A1.94,1.94,0,0,0,944.19,182.14Z"/><path d="M951.3,178.48v4.82h-1.58v-8.11h1.52v1.32h.1a2.34,2.34,0,0,1,.88-1,2.71,2.71,0,0,1,1.51-.39,2.87,2.87,0,0,1,1.46.35,2.39,2.39,0,0,1,1,1,3.88,3.88,0,0,1,.34,1.69v5.16h-1.58v-5a1.93,1.93,0,0,0-.46-1.38,1.61,1.61,0,0,0-1.26-.5,2,2,0,0,0-1,.24,1.65,1.65,0,0,0-.67.69A2.35,2.35,0,0,0,951.3,178.48Z"/><path d="M962.11,183.47a4,4,0,0,1-2.06-.52,3.4,3.4,0,0,1-1.33-1.45,5.38,5.38,0,0,1,0-4.4,3.52,3.52,0,0,1,1.31-1.49,3.65,3.65,0,0,1,2-.53,3.76,3.76,0,0,1,1.33.23,3.25,3.25,0,0,1,1.16.71,3.35,3.35,0,0,1,.81,1.26,5.46,5.46,0,0,1,.29,1.88v.56h-6.45v-1.19H964a2.32,2.32,0,0,0-.25-1.1,2,2,0,0,0-.71-.77,2.19,2.19,0,0,0-2.23.05,2.27,2.27,0,0,0-.76.84,2.44,2.44,0,0,0-.27,1.13v.93a3.06,3.06,0,0,0,.29,1.38,2,2,0,0,0,.81.87,2.36,2.36,0,0,0,1.21.3A2.39,2.39,0,0,0,963,182a1.64,1.64,0,0,0,.63-.39A1.7,1.7,0,0,0,964,181l1.49.27a2.71,2.71,0,0,1-.64,1.16,3,3,0,0,1-1.16.76A4.32,4.32,0,0,1,962.11,183.47Z"/><path d="M884.27,201.9v-8.11h1.52v1.28h.09a2,2,0,0,1,.78-1,2.27,2.27,0,0,1,1.28-.38h.35l.32,0v1.51l-.34-.06a3.87,3.87,0,0,0-.48,0,2.14,2.14,0,0,0-1,.23,1.88,1.88,0,0,0-.69.65,1.77,1.77,0,0,0-.25.95v5Z"/><path d="M890.78,192.53a1,1,0,0,1-.7-.27.9.9,0,0,1,0-1.34,1,1,0,0,1,.7-.27,1,1,0,0,1,.71.27.92.92,0,0,1,0,1.34A1,1,0,0,1,890.78,192.53Zm-.8,9.37v-8.11h1.58v8.11Z"/><path d="M899.77,195.77l-1.43.25a1.88,1.88,0,0,0-.28-.52,1.53,1.53,0,0,0-.52-.41,2,2,0,0,0-.82-.16,2,2,0,0,0-1.12.3.9.9,0,0,0-.45.77.79.79,0,0,0,.3.65,2.27,2.27,0,0,0,1,.41l1.29.3a3.43,3.43,0,0,1,1.67.8,1.84,1.84,0,0,1,.55,1.4,2.1,2.1,0,0,1-.42,1.29,2.73,2.73,0,0,1-1.17.89,4.24,4.24,0,0,1-1.73.33,3.86,3.86,0,0,1-2.22-.59,2.43,2.43,0,0,1-1.06-1.66l1.53-.23a1.43,1.43,0,0,0,.58.9,2,2,0,0,0,1.16.3,2.09,2.09,0,0,0,1.24-.32,1,1,0,0,0,.47-.8A.85.85,0,0,0,898,199a1.86,1.86,0,0,0-.86-.39l-1.37-.3a3.31,3.31,0,0,1-1.68-.82,2.17,2.17,0,0,1-.14-2.69,2.75,2.75,0,0,1,1.11-.85,4.11,4.11,0,0,1,1.62-.3,3.35,3.35,0,0,1,2.07.57A2.62,2.62,0,0,1,899.77,195.77Z"/><path d="M905.08,202.07a3.73,3.73,0,0,1-2-.54,3.6,3.6,0,0,1-1.3-1.48,5,5,0,0,1-.45-2.17,4.89,4.89,0,0,1,.46-2.18,3.59,3.59,0,0,1,1.31-1.49,4.08,4.08,0,0,1,3.64-.19,3,3,0,0,1,1.17.95,2.93,2.93,0,0,1,.54,1.44h-1.54a1.94,1.94,0,0,0-.58-1,1.74,1.74,0,0,0-1.21-.41,2,2,0,0,0-1.15.35,2.24,2.24,0,0,0-.77,1,3.68,3.68,0,0,0-.28,1.5,4,4,0,0,0,.27,1.54,2.3,2.3,0,0,0,.77,1,2,2,0,0,0,1.16.35,2,2,0,0,0,.82-.17,1.79,1.79,0,0,0,.62-.47,2,2,0,0,0,.35-.76h1.54a3,3,0,0,1-.52,1.41,2.85,2.85,0,0,1-1.14,1A3.71,3.71,0,0,1,905.08,202.07Z"/><path d="M912.47,202.08a3.18,3.18,0,0,1-1.39-.29,2.31,2.31,0,0,1-1-.83,2.43,2.43,0,0,1-.36-1.35,2.15,2.15,0,0,1,.27-1.13,1.84,1.84,0,0,1,.71-.7,3.55,3.55,0,0,1,1-.4c.37-.08.75-.15,1.13-.2L914,197a1.54,1.54,0,0,0,.66-.18.43.43,0,0,0,.2-.41v0a1.42,1.42,0,0,0-.38-1.07,1.62,1.62,0,0,0-1.16-.38,2,2,0,0,0-1.25.35,1.76,1.76,0,0,0-.63.78l-1.49-.34a3,3,0,0,1,.77-1.2,3.27,3.27,0,0,1,1.18-.66,4.61,4.61,0,0,1,1.4-.21,5.48,5.48,0,0,1,1,.11,3.2,3.2,0,0,1,1,.42,2.25,2.25,0,0,1,.78.86,2.9,2.9,0,0,1,.31,1.44v5.39h-1.54v-1.11h-.07a2.08,2.08,0,0,1-.46.61,2.48,2.48,0,0,1-.78.49A3.1,3.1,0,0,1,912.47,202.08Zm.35-1.27a2.32,2.32,0,0,0,1.12-.25,1.86,1.86,0,0,0,.71-.68,1.7,1.7,0,0,0,.25-.9v-1a.68.68,0,0,1-.32.15l-.55.13-.6.09-.49.06a4,4,0,0,0-.83.2,1.46,1.46,0,0,0-.61.39,1,1,0,0,0-.22.68,1,1,0,0,0,.43.89A2,2,0,0,0,912.82,200.81Z"/><path d="M920.16,191.08V201.9h-1.58V191.08Z"/><path d="M925.33,202.06a3.2,3.2,0,0,1-1.76-.5,3.4,3.4,0,0,1-1.2-1.45,6,6,0,0,1,0-4.5,3.38,3.38,0,0,1,1.22-1.43,3.15,3.15,0,0,1,1.75-.5,2.47,2.47,0,0,1,1.21.25,2.26,2.26,0,0,1,.72.58,5.16,5.16,0,0,1,.4.59h.1v-4h1.58V201.9H927.8v-1.26h-.13a3.77,3.77,0,0,1-.41.59,2.28,2.28,0,0,1-.73.58A2.49,2.49,0,0,1,925.33,202.06Zm.34-1.35a1.86,1.86,0,0,0,1.16-.36,2.29,2.29,0,0,0,.72-1,4.35,4.35,0,0,0,.24-1.51,4.21,4.21,0,0,0-.24-1.48,2.14,2.14,0,0,0-.71-1,2.07,2.07,0,0,0-2.35,0,2.28,2.28,0,0,0-.72,1,4.1,4.1,0,0,0-.24,1.44,4.24,4.24,0,0,0,.24,1.47,2.34,2.34,0,0,0,.72,1A1.87,1.87,0,0,0,925.67,200.71Z"/><path d="M934,202.08a3.15,3.15,0,0,1-1.39-.29,2.31,2.31,0,0,1-1-.83,2.43,2.43,0,0,1-.36-1.35,2.25,2.25,0,0,1,.26-1.13,1.93,1.93,0,0,1,.72-.7,3.55,3.55,0,0,1,1-.4c.37-.08.75-.15,1.13-.2l1.18-.14a1.46,1.46,0,0,0,.66-.18.44.44,0,0,0,.21-.41v0a1.42,1.42,0,0,0-.39-1.07,1.59,1.59,0,0,0-1.15-.38,2.07,2.07,0,0,0-1.26.35,1.91,1.91,0,0,0-.63.78l-1.48-.34a2.86,2.86,0,0,1,.77-1.2,3.19,3.19,0,0,1,1.18-.66,4.61,4.61,0,0,1,1.4-.21,5.48,5.48,0,0,1,1,.11,3.14,3.14,0,0,1,1,.42,2.27,2.27,0,0,1,.79.86,3,3,0,0,1,.31,1.44v5.39h-1.55v-1.11h-.06a2.28,2.28,0,0,1-.46.61,2.54,2.54,0,0,1-.79.49A3,3,0,0,1,934,202.08Zm.34-1.27a2.33,2.33,0,0,0,1.13-.25,1.86,1.86,0,0,0,.71-.68,1.79,1.79,0,0,0,.25-.9v-1a.73.73,0,0,1-.33.15,5,5,0,0,1-.55.13l-.59.09-.49.06a4.13,4.13,0,0,0-.84.2,1.42,1.42,0,0,0-.6.39,1,1,0,0,0-.22.68,1,1,0,0,0,.43.89A2,2,0,0,0,934.3,200.81Z"/><path d="M940.07,201.9v-8.11h1.52v1.32h.1a2.07,2.07,0,0,1,.83-1.05,2.46,2.46,0,0,1,1.38-.38,2.37,2.37,0,0,1,1.36.38,2.22,2.22,0,0,1,.82,1.05h.08a2.28,2.28,0,0,1,.93-1,2.8,2.8,0,0,1,1.51-.39,2.45,2.45,0,0,1,1.8.69,2.81,2.81,0,0,1,.7,2.09v5.44h-1.58v-5.29a1.48,1.48,0,0,0-.45-1.2A1.66,1.66,0,0,0,948,195a1.54,1.54,0,0,0-1.2.48,1.75,1.75,0,0,0-.43,1.21v5.17H944.8v-5.39a1.42,1.42,0,0,0-.41-1.06,1.58,1.58,0,0,0-1.9-.17,1.74,1.74,0,0,0-.61.65,2,2,0,0,0-.23,1v5Z"/><path d="M956.72,202.07a3.93,3.93,0,0,1-2.07-.52,3.46,3.46,0,0,1-1.33-1.45,5.38,5.38,0,0,1,0-4.4,3.59,3.59,0,0,1,1.31-1.49,3.65,3.65,0,0,1,2-.53,4.06,4.06,0,0,1,1.34.23,3.21,3.21,0,0,1,1.15.71,3.35,3.35,0,0,1,.81,1.26,5.22,5.22,0,0,1,.3,1.88v.56h-6.45v-1.18h4.9a2.45,2.45,0,0,0-.25-1.11,1.88,1.88,0,0,0-.72-.76,2,2,0,0,0-1.07-.28,2,2,0,0,0-1.16.32,2.36,2.36,0,0,0-.76.84,2.57,2.57,0,0,0-.26,1.13v.93a3.06,3.06,0,0,0,.28,1.38,2.13,2.13,0,0,0,.81.87,2.61,2.61,0,0,0,2,.17,1.68,1.68,0,0,0,1.05-1l1.5.27a2.82,2.82,0,0,1-.64,1.16,3.12,3.12,0,0,1-1.16.76A4.16,4.16,0,0,1,956.72,202.07Z"/><path d="M963.54,197.08v4.82H962v-8.11h1.51v1.32h.1a2.34,2.34,0,0,1,.88-1,2.75,2.75,0,0,1,1.52-.39,2.83,2.83,0,0,1,1.45.35,2.34,2.34,0,0,1,1,1,3.74,3.74,0,0,1,.34,1.69v5.16h-1.58v-5a1.93,1.93,0,0,0-.46-1.38,1.6,1.6,0,0,0-1.26-.5,2,2,0,0,0-1,.24,1.78,1.78,0,0,0-.67.69A2.35,2.35,0,0,0,963.54,197.08Z"/><path d="M974.63,193.79v1.26H970.2v-1.26Zm-3.24-1.95H973v7.68a1.37,1.37,0,0,0,.14.69.69.69,0,0,0,.35.31,1.27,1.27,0,0,0,.48.08l.33,0,.23-.05.28,1.31-.39.11a2.8,2.8,0,0,1-.63.06,2.84,2.84,0,0,1-1.17-.22,2.1,2.1,0,0,1-.87-.72,2.14,2.14,0,0,1-.33-1.22Z"/><path d="M977.18,192.53a1,1,0,0,1-.71-.27.92.92,0,0,1,0-1.34,1,1,0,0,1,.71-.27,1,1,0,0,1,.7.27.9.9,0,0,1,0,1.34A1,1,0,0,1,977.18,192.53Zm-.8,9.37v-8.11H978v8.11Z"/><g class="cls-6"><rect class="cls-7" x="1003.41" y="164.23" width="81.62" height="50.65" rx="1.58"/></g><path class="cls-3" d="M1083.46,215H1005a1.72,1.72,0,0,1-1.73-1.72v-47.5a1.73,1.73,0,0,1,1.73-1.73h78.47a1.73,1.73,0,0,1,1.72,1.73v47.5A1.72,1.72,0,0,1,1083.46,215ZM1005,164.38a1.43,1.43,0,0,0-1.43,1.43v47.5a1.43,1.43,0,0,0,1.43,1.42h78.47a1.43,1.43,0,0,0,1.42-1.42v-47.5a1.43,1.43,0,0,0-1.42-1.43Z"/><path d="M1009.25,169v6.55h-1.19v-5.39h0l-1.53,1V170l1.62-1.05Z"/><path d="M1013.31,175.62a2.58,2.58,0,0,1-.91-.17,2.08,2.08,0,0,1-.81-.52,2.59,2.59,0,0,1-.57-1,4.66,4.66,0,0,1-.21-1.51,5.71,5.71,0,0,1,.18-1.5,3.17,3.17,0,0,1,.52-1.11,2.17,2.17,0,0,1,.81-.7,2.3,2.3,0,0,1,1.06-.24,2.25,2.25,0,0,1,1.09.25,2.09,2.09,0,0,1,.78.66,2.24,2.24,0,0,1,.36.95h-1.17a1.15,1.15,0,0,0-.36-.61,1.09,1.09,0,0,0-.7-.22,1.19,1.19,0,0,0-1,.59,3.21,3.21,0,0,0-.37,1.62h0a1.83,1.83,0,0,1,.4-.48,2,2,0,0,1,.57-.31,2.08,2.08,0,0,1,.66-.11,2,2,0,0,1,1,.27,2.13,2.13,0,0,1,.73.76,2.32,2.32,0,0,1,.26,1.1,2.16,2.16,0,0,1-1.12,2A2.58,2.58,0,0,1,1013.31,175.62Zm0-1a1.18,1.18,0,0,0,.62-.17,1.19,1.19,0,0,0,.43-.46,1.24,1.24,0,0,0,.16-.64,1.34,1.34,0,0,0-.15-.64,1.16,1.16,0,0,0-.43-.45,1.18,1.18,0,0,0-.62-.17,1.29,1.29,0,0,0-.48.1,1.29,1.29,0,0,0-.65.68,1.3,1.3,0,0,0-.1.49,1.4,1.4,0,0,0,.16.63,1.35,1.35,0,0,0,.43.46A1.21,1.21,0,0,0,1013.31,174.66Z"/><path d="M1021.26,175.53h-2.21V169h2.26a3.35,3.35,0,0,1,1.67.39,2.68,2.68,0,0,1,1.08,1.13,3.68,3.68,0,0,1,.38,1.75,3.84,3.84,0,0,1-.38,1.76,2.64,2.64,0,0,1-1.09,1.13A3.49,3.49,0,0,1,1021.26,175.53Zm-1-1h1a2.34,2.34,0,0,0,1.14-.25,1.6,1.6,0,0,0,.68-.75,3.51,3.51,0,0,0,0-2.5,1.56,1.56,0,0,0-.67-.74,2.26,2.26,0,0,0-1.12-.25h-1Z"/><path d="M1026.1,169.92a.7.7,0,0,1-.48-.18.58.58,0,0,1-.19-.44.58.58,0,0,1,.19-.45.7.7,0,0,1,.48-.18.67.67,0,0,1,.47.18.6.6,0,0,1,0,.89A.67.67,0,0,1,1026.1,169.92Zm-.59,5.61v-4.91h1.16v4.91Z"/><path d="M1030,175.62a2.32,2.32,0,0,1-1.26-.32,2.12,2.12,0,0,1-.81-.89,3.2,3.2,0,0,1,0-2.64,2.12,2.12,0,0,1,.81-.89,2.3,2.3,0,0,1,1.25-.32,2.49,2.49,0,0,1,1,.21,1.88,1.88,0,0,1,.74.62,1.84,1.84,0,0,1,.31.93H1031a1.07,1.07,0,0,0-.32-.59.93.93,0,0,0-.67-.24,1,1,0,0,0-.62.19,1.27,1.27,0,0,0-.42.54,2.51,2.51,0,0,0,0,1.71,1.28,1.28,0,0,0,.41.56,1,1,0,0,0,.63.19,1,1,0,0,0,.46-.1.77.77,0,0,0,.34-.28,1.16,1.16,0,0,0,.19-.45h1.1a1.86,1.86,0,0,1-.3.92,1.83,1.83,0,0,1-.72.63A2.45,2.45,0,0,1,1030,175.62Z"/><path d="M1035.23,175.62a2.54,2.54,0,0,1-1.27-.3,2.14,2.14,0,0,1-.83-.88,2.94,2.94,0,0,1-.28-1.34,2.83,2.83,0,0,1,.29-1.33,2.12,2.12,0,0,1,.81-.89,2.2,2.2,0,0,1,1.22-.32,2.46,2.46,0,0,1,.86.14,2,2,0,0,1,.71.45,2.08,2.08,0,0,1,.49.77,3.09,3.09,0,0,1,.18,1.12v.35h-4v-.78h2.91a1.25,1.25,0,0,0-.14-.59,1,1,0,0,0-.39-.41,1.22,1.22,0,0,0-1.21,0,1,1,0,0,0-.41.45,1.34,1.34,0,0,0-.16.6v.68a1.68,1.68,0,0,0,.16.74,1.09,1.09,0,0,0,.44.46,1.27,1.27,0,0,0,.66.16,1.29,1.29,0,0,0,.45-.07,1.07,1.07,0,0,0,.36-.21,1,1,0,0,0,.23-.35l1.08.12a1.69,1.69,0,0,1-.39.75,2,2,0,0,1-.73.49A2.73,2.73,0,0,1,1035.23,175.62Z"/><path d="M1038.39,175.53v-4.91h1.11v.83h0a1.41,1.41,0,0,1,.51-.66,1.56,1.56,0,0,1,.85-.23,1.43,1.43,0,0,1,.84.24,1.33,1.33,0,0,1,.49.65h0a1.34,1.34,0,0,1,.55-.65,1.7,1.7,0,0,1,.92-.24,1.53,1.53,0,0,1,1.11.42,1.73,1.73,0,0,1,.42,1.25v3.3h-1.16v-3.12a.86.86,0,0,0-.24-.67,1,1,0,0,0-1.25,0,1,1,0,0,0-.23.68v3.06h-1.14v-3.17a.81.81,0,0,0-.22-.6.85.85,0,0,0-.6-.23.77.77,0,0,0-.45.13.86.86,0,0,0-.33.35,1.12,1.12,0,0,0-.12.53v3Z"/><path d="M1046.52,175.53V169h1.16v2.45h0a1.9,1.9,0,0,1,.25-.38,1.31,1.31,0,0,1,.44-.35,1.5,1.5,0,0,1,.71-.14,1.84,1.84,0,0,1,1,.29,2,2,0,0,1,.73.85,3.64,3.64,0,0,1,0,2.75,2.09,2.09,0,0,1-.72.87,1.85,1.85,0,0,1-1,.29,1.48,1.48,0,0,1-.7-.14,1.27,1.27,0,0,1-.44-.34,2.31,2.31,0,0,1-.26-.37h-.07v.77Zm1.14-2.46a2.39,2.39,0,0,0,.13.84,1.23,1.23,0,0,0,.4.56,1,1,0,0,0,.62.2,1,1,0,0,0,.64-.21,1.17,1.17,0,0,0,.39-.57,2.31,2.31,0,0,0,.14-.82,2.55,2.55,0,0,0-.13-.81,1.25,1.25,0,0,0-.39-.55,1.1,1.1,0,0,0-1.28,0,1.2,1.2,0,0,0-.39.55A2.28,2.28,0,0,0,1047.66,173.07Z"/><path d="M1052.14,175.53v-4.91h1.13v.82h0a1.19,1.19,0,0,1,.46-.66,1.3,1.3,0,0,1,.75-.23h.21l.2,0v1.06l-.23,0-.3,0a1.2,1.2,0,0,0-.57.13,1.12,1.12,0,0,0-.4.38,1.1,1.1,0,0,0-.14.55v2.89Z"/><path d="M1057.68,175.62a2.56,2.56,0,0,1-1.27-.3,2.05,2.05,0,0,1-.82-.88,3.22,3.22,0,0,1,0-2.67,2.12,2.12,0,0,1,.81-.89,2.2,2.2,0,0,1,1.22-.32,2.46,2.46,0,0,1,.86.14,2.08,2.08,0,0,1,.72.45,2.21,2.21,0,0,1,.49.77,3.09,3.09,0,0,1,.18,1.12v.35h-4v-.78h2.92a1.26,1.26,0,0,0-.15-.59,1,1,0,0,0-.39-.41,1.22,1.22,0,0,0-1.21,0,1.19,1.19,0,0,0-.41.45,1.21,1.21,0,0,0-.15.6v.68a1.68,1.68,0,0,0,.15.74,1.15,1.15,0,0,0,.44.46,1.29,1.29,0,0,0,.66.16,1.35,1.35,0,0,0,.46-.07,1.13,1.13,0,0,0,.35-.21.86.86,0,0,0,.23-.35l1.08.12a1.69,1.69,0,0,1-.39.75,2,2,0,0,1-.73.49A2.73,2.73,0,0,1,1057.68,175.62Z"/><path d="M1006.8,187.19v-6.54h4v.7h-3.16v2.21h2.95v.71h-2.95v2.22h3.21v.7Z"/><path d="M1015.56,183.38l-.68.2a1.28,1.28,0,0,0-.19-.34,1,1,0,0,0-.33-.26,1.2,1.2,0,0,0-.54-.11,1.28,1.28,0,0,0-.75.21.61.61,0,0,0-.3.52.56.56,0,0,0,.2.45,2.07,2.07,0,0,0,.64.27l.73.18a2,2,0,0,1,1,.48,1.15,1.15,0,0,1,.33.85,1.19,1.19,0,0,1-.25.75,1.54,1.54,0,0,1-.67.52,2.41,2.41,0,0,1-1,.2,2.22,2.22,0,0,1-1.25-.33,1.5,1.5,0,0,1-.62-.95l.72-.18a1,1,0,0,0,.39.59,1.3,1.3,0,0,0,.75.2,1.36,1.36,0,0,0,.83-.22.68.68,0,0,0,.32-.55.58.58,0,0,0-.18-.43,1.28,1.28,0,0,0-.55-.26l-.82-.19a1.92,1.92,0,0,1-1-.5,1.17,1.17,0,0,1-.32-.84,1.21,1.21,0,0,1,.24-.74,1.61,1.61,0,0,1,.64-.5,2.27,2.27,0,0,1,.93-.18,1.84,1.84,0,0,1,1.14.32A1.72,1.72,0,0,1,1015.56,183.38Z"/><path d="M1016.78,189v-6.75h.73v.78h.09l.23-.32a1.2,1.2,0,0,1,.43-.36,1.51,1.51,0,0,1,.76-.16,1.91,1.91,0,0,1,1.09.31,2.07,2.07,0,0,1,.74.88,3.49,3.49,0,0,1,0,2.69,2.06,2.06,0,0,1-.73.88,1.94,1.94,0,0,1-1.09.32,1.61,1.61,0,0,1-.75-.16,1.49,1.49,0,0,1-.44-.36l-.24-.34h-.06V189Zm.74-4.29a2.68,2.68,0,0,0,.17,1,1.56,1.56,0,0,0,.47.66,1.24,1.24,0,0,0,.77.24,1.26,1.26,0,0,0,.79-.25,1.62,1.62,0,0,0,.48-.68,2.63,2.63,0,0,0,.16-.95,2.54,2.54,0,0,0-.16-.94,1.51,1.51,0,0,0-.47-.66,1.29,1.29,0,0,0-.8-.24,1.21,1.21,0,0,0-.77.23,1.43,1.43,0,0,0-.48.64A2.86,2.86,0,0,0,1017.52,184.74Z"/><path d="M1023,180.65v6.54h-.75v-6.54Z"/><path d="M1026.4,187.3a2.16,2.16,0,0,1-1.17-.32,2.19,2.19,0,0,1-.78-.89,3.3,3.3,0,0,1,0-2.66,2.13,2.13,0,0,1,.78-.89,2.16,2.16,0,0,1,1.17-.32,2.12,2.12,0,0,1,1.16.32,2,2,0,0,1,.78.89,3.3,3.3,0,0,1,0,2.66,2.05,2.05,0,0,1-.78.89A2.12,2.12,0,0,1,1026.4,187.3Zm0-.68a1.33,1.33,0,0,0,.83-.26,1.46,1.46,0,0,0,.48-.68,2.7,2.7,0,0,0,0-1.83,1.44,1.44,0,0,0-.48-.69,1.27,1.27,0,0,0-.83-.26,1.23,1.23,0,0,0-.83.26,1.53,1.53,0,0,0-.49.69,2.87,2.87,0,0,0,0,1.83,1.55,1.55,0,0,0,.49.68A1.29,1.29,0,0,0,1026.4,186.62Z"/><path d="M1033.25,183.38l-.68.2a1.05,1.05,0,0,0-.19-.34,1,1,0,0,0-.33-.26,1.2,1.2,0,0,0-.54-.11,1.28,1.28,0,0,0-.75.21.61.61,0,0,0-.3.52.54.54,0,0,0,.21.45,2,2,0,0,0,.64.27l.72.18a2.09,2.09,0,0,1,1,.48,1.18,1.18,0,0,1,.32.85,1.24,1.24,0,0,1-.24.75,1.57,1.57,0,0,1-.68.52,2.38,2.38,0,0,1-1,.2,2.18,2.18,0,0,1-1.24-.33,1.48,1.48,0,0,1-.63-.95l.72-.18a1,1,0,0,0,.39.59,1.3,1.3,0,0,0,.75.2,1.42,1.42,0,0,0,.84-.22.69.69,0,0,0,.31-.55.58.58,0,0,0-.18-.43,1.23,1.23,0,0,0-.55-.26L1031,185a1.92,1.92,0,0,1-1-.5,1.16,1.16,0,0,1-.31-.84,1.27,1.27,0,0,1,.23-.74,1.58,1.58,0,0,1,.65-.5,2.25,2.25,0,0,1,.92-.18,1.87,1.87,0,0,1,1.15.32A1.77,1.77,0,0,1,1033.25,183.38Z"/><path d="M1034.86,181.47a.54.54,0,0,1-.38-.15.51.51,0,0,1-.16-.37.5.5,0,0,1,.16-.36.56.56,0,0,1,.76,0,.5.5,0,0,1,.16.36.51.51,0,0,1-.16.37A.54.54,0,0,1,1034.86,181.47Zm-.38,5.72v-4.91h.75v4.91Z"/><path d="M1038.61,187.3a2.14,2.14,0,0,1-1.17-.32,2.19,2.19,0,0,1-.78-.89,3.3,3.3,0,0,1,0-2.66,2.15,2.15,0,0,1,3.89,0,3.3,3.3,0,0,1,0,2.66,2.19,2.19,0,0,1-.78.89A2.12,2.12,0,0,1,1038.61,187.3Zm0-.68a1.33,1.33,0,0,0,.83-.26,1.62,1.62,0,0,0,.48-.68,2.7,2.7,0,0,0,0-1.83,1.59,1.59,0,0,0-.48-.69,1.47,1.47,0,0,0-1.67,0,1.59,1.59,0,0,0-.48.69,2.87,2.87,0,0,0,0,1.83,1.62,1.62,0,0,0,.48.68A1.34,1.34,0,0,0,1038.61,186.62Z"/><path d="M1042.73,184.24v2.95H1042v-4.91h.73v.77h.06a1.4,1.4,0,0,1,.53-.6,1.62,1.62,0,0,1,.9-.23,1.87,1.87,0,0,1,.88.2,1.4,1.4,0,0,1,.58.62,2.25,2.25,0,0,1,.21,1v3.12h-.76v-3.07a1.29,1.29,0,0,0-.3-.9,1.08,1.08,0,0,0-.82-.32,1.38,1.38,0,0,0-.65.15,1.22,1.22,0,0,0-.44.46A1.49,1.49,0,0,0,1042.73,184.24Z"/><path d="M1049.31,187.3a2.32,2.32,0,0,1-1.23-.32,2.11,2.11,0,0,1-.79-.88,3.39,3.39,0,0,1,0-2.65,2.25,2.25,0,0,1,.78-.91,2.12,2.12,0,0,1,1.16-.32,2.25,2.25,0,0,1,.76.13,1.85,1.85,0,0,1,.68.41,2.13,2.13,0,0,1,.49.76,3.23,3.23,0,0,1,.18,1.15V185h-3.79v-.65h3a1.61,1.61,0,0,0-.16-.74,1.22,1.22,0,0,0-.47-.51,1.28,1.28,0,0,0-.71-.19,1.35,1.35,0,0,0-.78.22,1.4,1.4,0,0,0-.5.58,1.64,1.64,0,0,0-.18.76v.43a2.18,2.18,0,0,0,.19.94,1.41,1.41,0,0,0,.54.59,1.62,1.62,0,0,0,.81.2,1.51,1.51,0,0,0,.53-.09,1,1,0,0,0,.42-.25,1.12,1.12,0,0,0,.27-.43l.73.21a1.62,1.62,0,0,1-.39.65,1.84,1.84,0,0,1-.67.43A2.48,2.48,0,0,1,1049.31,187.3Z"/><path d="M1056.87,187.3a1.88,1.88,0,0,1-1.08-.32,2,2,0,0,1-.73-.88,3.49,3.49,0,0,1,0-2.69,2.05,2.05,0,0,1,.73-.88,1.94,1.94,0,0,1,1.1-.31,1.51,1.51,0,0,1,.76.16,1.25,1.25,0,0,1,.42.36l.24.32h.06v-2.41h.75v6.54h-.72v-.75h-.09l-.24.34a1.49,1.49,0,0,1-.44.36A1.62,1.62,0,0,1,1056.87,187.3Zm.11-.68a1.21,1.21,0,0,0,.76-.24,1.49,1.49,0,0,0,.48-.66,2.69,2.69,0,0,0,.16-1,2.63,2.63,0,0,0-.16-1,1.34,1.34,0,0,0-.47-.64,1.23,1.23,0,0,0-.77-.23,1.29,1.29,0,0,0-.8.24,1.61,1.61,0,0,0-.48.66,2.76,2.76,0,0,0-.16.94,2.63,2.63,0,0,0,.17.95,1.46,1.46,0,0,0,.48.68A1.26,1.26,0,0,0,1057,186.62Z"/><path d="M1061,181.47a.54.54,0,0,1-.38-.15.51.51,0,0,1-.16-.37.5.5,0,0,1,.16-.36.56.56,0,0,1,.76,0,.5.5,0,0,1,.16.36.51.51,0,0,1-.16.37A.54.54,0,0,1,1061,181.47Zm-.38,5.72v-4.91h.75v4.91Z"/><path d="M1068.37,185.19v-2.91h.75v4.91h-.75v-.83h0a1.73,1.73,0,0,1-.54.64,1.56,1.56,0,0,1-.92.26,1.59,1.59,0,0,1-.82-.21,1.33,1.33,0,0,1-.56-.61,2.26,2.26,0,0,1-.21-1v-3.12h.76v3.07a1.2,1.2,0,0,0,.3.86,1,1,0,0,0,.77.32,1.21,1.21,0,0,0,.57-.15,1.23,1.23,0,0,0,.5-.44A1.33,1.33,0,0,0,1068.37,185.19Z"/><path d="M1071.26,184.24v2.95h-.76v-4.91h.73v.77h.06a1.4,1.4,0,0,1,.53-.6,1.63,1.63,0,0,1,.91-.23,1.86,1.86,0,0,1,.87.2,1.4,1.4,0,0,1,.58.62,2.25,2.25,0,0,1,.21,1v3.12h-.76v-3.07a1.29,1.29,0,0,0-.3-.9,1.08,1.08,0,0,0-.82-.32,1.38,1.38,0,0,0-.65.15,1.22,1.22,0,0,0-.44.46A1.49,1.49,0,0,0,1071.26,184.24Z"/><path d="M1077.21,187.31a1.92,1.92,0,0,1-.84-.18,1.36,1.36,0,0,1-.83-1.33,1.31,1.31,0,0,1,.16-.69,1.27,1.27,0,0,1,.45-.41,2.34,2.34,0,0,1,.61-.23l.68-.12.73-.08a1.08,1.08,0,0,0,.41-.11.26.26,0,0,0,.13-.25v0a1,1,0,0,0-.26-.73,1,1,0,0,0-.78-.26,1.31,1.31,0,0,0-.84.23,1.47,1.47,0,0,0-.44.51l-.71-.26a1.79,1.79,0,0,1,.51-.7,2.14,2.14,0,0,1,.71-.35,2.68,2.68,0,0,1,1.29,0,1.68,1.68,0,0,1,.6.22,1.38,1.38,0,0,1,.48.53,1.89,1.89,0,0,1,.19.93v3.23h-.75v-.66h0a1.23,1.23,0,0,1-.26.34,1.28,1.28,0,0,1-.47.31A1.77,1.77,0,0,1,1077.21,187.31Zm.12-.68a1.44,1.44,0,0,0,.75-.18,1.08,1.08,0,0,0,.47-.45,1.1,1.1,0,0,0,.16-.58v-.69a.5.5,0,0,1-.21.1,3,3,0,0,1-.37.08l-.41.06-.32,0a2.36,2.36,0,0,0-.54.12,1,1,0,0,0-.41.25.63.63,0,0,0-.16.46.67.67,0,0,0,.29.59A1.35,1.35,0,0,0,1077.33,186.63Z"/><path d="M1008.88,194v.64h-2.64V194Zm-1.85,4.91v-5.59a1.2,1.2,0,0,1,.2-.7,1.16,1.16,0,0,1,.51-.42,1.55,1.55,0,0,1,.67-.14,1.82,1.82,0,0,1,.45,0l.27.08-.22.66-.16,0a.93.93,0,0,0-.26,0,.67.67,0,0,0-.54.19.8.8,0,0,0-.17.55v5.41Z"/><path d="M1011.25,199a2.11,2.11,0,0,1-.85-.17,1.43,1.43,0,0,1-.83-1.34,1.24,1.24,0,0,1,.17-.68,1.26,1.26,0,0,1,.44-.42,2.39,2.39,0,0,1,.62-.22c.22,0,.45-.09.68-.12l.73-.09a1,1,0,0,0,.4-.1.27.27,0,0,0,.13-.26v0a1,1,0,0,0-.25-.74,1.08,1.08,0,0,0-.78-.26,1.36,1.36,0,0,0-.85.24,1.33,1.33,0,0,0-.43.5l-.72-.25a1.65,1.65,0,0,1,.52-.7,2,2,0,0,1,.7-.36,3.29,3.29,0,0,1,.75-.1,3,3,0,0,1,.55.06,1.85,1.85,0,0,1,.6.23,1.35,1.35,0,0,1,.48.52,2,2,0,0,1,.19.93v3.24h-.76v-.67h0a1.47,1.47,0,0,1-.26.34,1.44,1.44,0,0,1-.48.32A1.9,1.9,0,0,1,1011.25,199Zm.11-.67a1.5,1.5,0,0,0,.76-.18,1.36,1.36,0,0,0,.47-.45,1.23,1.23,0,0,0,.15-.59v-.69a.4.4,0,0,1-.21.1,2.61,2.61,0,0,1-.37.08l-.4.06-.32,0a4.07,4.07,0,0,0-.55.12,1,1,0,0,0-.41.26.64.64,0,0,0-.15.45.68.68,0,0,0,.29.6A1.29,1.29,0,0,0,1011.36,198.3Z"/><path d="M1015,198.86v-6.55h.75v2.42h.07a2.94,2.94,0,0,1,.23-.33,1.44,1.44,0,0,1,.43-.36,1.62,1.62,0,0,1,.76-.16,2,2,0,0,1,1.09.31,2.07,2.07,0,0,1,.74.88,3.63,3.63,0,0,1,0,2.7,2.07,2.07,0,0,1-.74.88,1.88,1.88,0,0,1-1.08.31,1.53,1.53,0,0,1-.76-.16,1.2,1.2,0,0,1-.43-.36,2.2,2.2,0,0,1-.24-.34h-.09v.76Zm.74-2.46a2.68,2.68,0,0,0,.17,1,1.31,1.31,0,0,0,.47.66,1.24,1.24,0,0,0,.77.24,1.22,1.22,0,0,0,.79-.25,1.56,1.56,0,0,0,.48-.68,2.59,2.59,0,0,0,.16-.95,2.52,2.52,0,0,0-.16-.93,1.4,1.4,0,0,0-.47-.66,1.25,1.25,0,0,0-.8-.25,1.31,1.31,0,0,0-.78.23,1.52,1.52,0,0,0-.47.65A2.84,2.84,0,0,0,1015.72,196.4Z"/><path d="M1020.57,198.86v-6.55h.75v2.42h.07a2.94,2.94,0,0,1,.23-.33,1.44,1.44,0,0,1,.43-.36,1.55,1.55,0,0,1,.75-.16,2,2,0,0,1,1.1.31,2.15,2.15,0,0,1,.74.88,3.63,3.63,0,0,1,0,2.7,2.15,2.15,0,0,1-.74.88,1.88,1.88,0,0,1-1.08.31,1.51,1.51,0,0,1-.76-.16,1.24,1.24,0,0,1-.44-.36,2.92,2.92,0,0,1-.23-.34h-.09v.76Zm.74-2.46a2.69,2.69,0,0,0,.16,1,1.39,1.39,0,0,0,.48.66,1.21,1.21,0,0,0,.76.24,1.25,1.25,0,0,0,.8-.25,1.56,1.56,0,0,0,.48-.68,2.82,2.82,0,0,0,.16-.95,2.75,2.75,0,0,0-.16-.93,1.49,1.49,0,0,0-.48-.66,1.23,1.23,0,0,0-.8-.25,1.3,1.3,0,0,0-.77.23,1.44,1.44,0,0,0-.47.65A2.61,2.61,0,0,0,1021.31,196.4Z"/><path d="M1026.05,198.86V194h.73v.74h0a1.17,1.17,0,0,1,.49-.59,1.43,1.43,0,0,1,.79-.23h.4v.77l-.18,0-.28,0a1.32,1.32,0,0,0-.64.15,1,1,0,0,0-.44.41,1.07,1.07,0,0,0-.16.59v3.11Z"/><path d="M1029.78,193.13a.51.51,0,0,1-.37-.15.49.49,0,0,1,0-.72.51.51,0,0,1,.37-.15.52.52,0,0,1,.38.15.48.48,0,0,1,0,.72A.52.52,0,0,1,1029.78,193.13Zm-.38,5.73V194h.76v4.91Z"/><path d="M1033.53,199a2.08,2.08,0,0,1-2-1.22,3.22,3.22,0,0,1-.26-1.31,3.05,3.05,0,0,1,.27-1.32,2.15,2.15,0,0,1,.78-.9,2,2,0,0,1,1.16-.33,2.18,2.18,0,0,1,.93.2,1.7,1.7,0,0,1,.68.53,1.62,1.62,0,0,1,.33.81h-.75a1.21,1.21,0,0,0-.39-.6,1.16,1.16,0,0,0-.79-.26,1.34,1.34,0,0,0-.77.23,1.58,1.58,0,0,0-.52.64,2.43,2.43,0,0,0-.18,1,2.5,2.5,0,0,0,.18,1,1.49,1.49,0,0,0,.51.66,1.35,1.35,0,0,0,.78.23,1.29,1.29,0,0,0,.53-.1,1.22,1.22,0,0,0,.41-.29,1.26,1.26,0,0,0,.24-.46h.75a1.78,1.78,0,0,1-.31.78,1.82,1.82,0,0,1-.67.55A2.18,2.18,0,0,1,1033.53,199Z"/><path d="M1038,199a2.07,2.07,0,0,1-.84-.17,1.41,1.41,0,0,1-.61-.52,1.44,1.44,0,0,1-.22-.82,1.24,1.24,0,0,1,.17-.68,1.18,1.18,0,0,1,.44-.42,2.39,2.39,0,0,1,.62-.22c.22,0,.45-.09.67-.12l.73-.09a1.11,1.11,0,0,0,.41-.1.27.27,0,0,0,.13-.26v0a1,1,0,0,0-.26-.74,1.06,1.06,0,0,0-.78-.26,1.31,1.31,0,0,0-.84.24,1.24,1.24,0,0,0-.43.5l-.72-.25a1.72,1.72,0,0,1,.51-.7,2,2,0,0,1,.71-.36,3.22,3.22,0,0,1,.75-.1,2.78,2.78,0,0,1,.54.06,1.7,1.7,0,0,1,.6.23,1.35,1.35,0,0,1,.48.52,1.89,1.89,0,0,1,.19.93v3.24h-.75v-.67h0a1.18,1.18,0,0,1-.25.34,1.44,1.44,0,0,1-.48.32A2,2,0,0,1,1038,199Zm.12-.67a1.5,1.5,0,0,0,.76-.18,1.24,1.24,0,0,0,.46-.45,1.14,1.14,0,0,0,.16-.59v-.69a.4.4,0,0,1-.21.1,3,3,0,0,1-.37.08,2.9,2.9,0,0,1-.41.06l-.31,0a4.07,4.07,0,0,0-.55.12.91.91,0,0,0-.41.26.65.65,0,0,0-.16.45.69.69,0,0,0,.3.6A1.29,1.29,0,0,0,1038.12,198.3Z"/><path d="M1046,199a1.88,1.88,0,0,1-1.08-.31,2.07,2.07,0,0,1-.74-.88,3.63,3.63,0,0,1,0-2.7,2.07,2.07,0,0,1,.74-.88,2,2,0,0,1,1.09-.31,1.59,1.59,0,0,1,.76.16,1.44,1.44,0,0,1,.43.36,2.94,2.94,0,0,1,.23.33h.07v-2.42h.75v6.55h-.73v-.76h-.09a2.92,2.92,0,0,1-.23.34,1.33,1.33,0,0,1-.44.36A1.51,1.51,0,0,1,1046,199Zm.1-.68a1.24,1.24,0,0,0,.77-.24,1.39,1.39,0,0,0,.48-.66,2.92,2.92,0,0,0,.16-1,2.61,2.61,0,0,0-.16-1,1.52,1.52,0,0,0-.47-.65,1.31,1.31,0,0,0-.78-.23,1.25,1.25,0,0,0-.8.25,1.4,1.4,0,0,0-.47.66,2.52,2.52,0,0,0-.16.93,2.59,2.59,0,0,0,.16.95,1.56,1.56,0,0,0,.48.68A1.22,1.22,0,0,0,1046.12,198.28Z"/><path d="M1050.14,193.13a.52.52,0,0,1-.38-.15.49.49,0,0,1,0-.72.52.52,0,0,1,.38-.15.55.55,0,0,1,.38.15.51.51,0,0,1,0,.72A.55.55,0,0,1,1050.14,193.13Zm-.39,5.73V194h.76v4.91Z"/><path d="M1056.61,194v.64H1054V194Zm-1.86,4.91v-5.59a1.2,1.2,0,0,1,.2-.7,1.16,1.16,0,0,1,.51-.42,1.58,1.58,0,0,1,.67-.14,2,2,0,0,1,.46,0l.26.08-.22.66-.16,0a.88.88,0,0,0-.26,0,.67.67,0,0,0-.54.19.8.8,0,0,0-.16.55v5.41Z"/><path d="M1060.76,196.85V194h.75v4.91h-.75V198h0a1.63,1.63,0,0,1-.54.63,1.56,1.56,0,0,1-.92.26,1.69,1.69,0,0,1-.82-.2,1.41,1.41,0,0,1-.56-.62,2.23,2.23,0,0,1-.2-1V194h.75V197a1.19,1.19,0,0,0,.3.85,1,1,0,0,0,.77.32,1.41,1.41,0,0,0,.58-.14,1.28,1.28,0,0,0,.49-.44A1.36,1.36,0,0,0,1060.76,196.85Z"/><path d="M1064.89,199a2.18,2.18,0,0,1-1.17-.32,2.16,2.16,0,0,1-.78-.88,3.07,3.07,0,0,1-.28-1.33,3.11,3.11,0,0,1,.28-1.34,2.08,2.08,0,0,1,2-1.21,2.12,2.12,0,0,1,1.16.32,2.05,2.05,0,0,1,.78.89,3,3,0,0,1,.28,1.34,2.93,2.93,0,0,1-.28,1.33,2,2,0,0,1-.78.88A2.12,2.12,0,0,1,1064.89,199Zm0-.68a1.25,1.25,0,0,0,.83-.26,1.46,1.46,0,0,0,.48-.68,2.45,2.45,0,0,0,.16-.91,2.51,2.51,0,0,0-.16-.92,1.54,1.54,0,0,0-.48-.69,1.45,1.45,0,0,0-1.66,0,1.54,1.54,0,0,0-.48.69,2.51,2.51,0,0,0-.16.92,2.45,2.45,0,0,0,.16.91,1.46,1.46,0,0,0,.48.68A1.25,1.25,0,0,0,1064.89,198.28Z"/><path d="M1070.26,199a2.08,2.08,0,0,1-2-1.22,3.28,3.28,0,0,1,0-2.63,2.12,2.12,0,0,1,.77-.9,2.08,2.08,0,0,1,1.17-.33,2.18,2.18,0,0,1,.93.2,1.7,1.7,0,0,1,.68.53,1.62,1.62,0,0,1,.33.81h-.76a1.12,1.12,0,0,0-.38-.6,1.16,1.16,0,0,0-.79-.26,1.32,1.32,0,0,0-.77.23,1.51,1.51,0,0,0-.52.64,2.43,2.43,0,0,0-.18,1,2.5,2.5,0,0,0,.18,1,1.49,1.49,0,0,0,.51.66,1.35,1.35,0,0,0,.78.23,1.32,1.32,0,0,0,.53-.1,1.22,1.22,0,0,0,.41-.29,1.11,1.11,0,0,0,.23-.46h.76a1.68,1.68,0,0,1-.32.78,1.71,1.71,0,0,1-.66.55A2.18,2.18,0,0,1,1070.26,199Z"/><path d="M1074,195.9v3h-.75v-6.55h.75v2.41h.07a1.29,1.29,0,0,1,.52-.61,1.67,1.67,0,0,1,.92-.23,1.87,1.87,0,0,1,.88.2,1.45,1.45,0,0,1,.59.61,2.34,2.34,0,0,1,.21,1.05v3.12h-.76v-3.07a1.3,1.3,0,0,0-.3-.91,1.11,1.11,0,0,0-.84-.32,1.34,1.34,0,0,0-.66.16,1.13,1.13,0,0,0-.46.46A1.47,1.47,0,0,0,1074,195.9Z"/><path d="M1079,193.13a.54.54,0,0,1-.38-.15.49.49,0,0,1,0-.72.56.56,0,0,1,.76,0,.49.49,0,0,1,0,.72A.54.54,0,0,1,1079,193.13Zm-.38,5.73V194h.75v4.91Z"/><path d="M1008.55,210.62a1.88,1.88,0,0,1-1.08-.31,2.07,2.07,0,0,1-.74-.88,3.13,3.13,0,0,1-.26-1.35,3.08,3.08,0,0,1,.26-1.34,2.07,2.07,0,0,1,.74-.88,1.93,1.93,0,0,1,1.09-.31,1.48,1.48,0,0,1,.76.16,1.29,1.29,0,0,1,.43.35l.23.33h.07V204h.75v6.54h-.73v-.75H1010a2.94,2.94,0,0,1-.23.33,1.49,1.49,0,0,1-.44.37A1.63,1.63,0,0,1,1008.55,210.62Zm.1-.67a1.22,1.22,0,0,0,.77-.24,1.49,1.49,0,0,0,.48-.66,2.92,2.92,0,0,0,.16-1,2.63,2.63,0,0,0-.16-1,1.49,1.49,0,0,0-.47-.64,1.24,1.24,0,0,0-.78-.23,1.26,1.26,0,0,0-.79.24,1.36,1.36,0,0,0-.48.66,2.54,2.54,0,0,0-.16.94,2.63,2.63,0,0,0,.16,1,1.62,1.62,0,0,0,.48.68A1.28,1.28,0,0,0,1008.65,210Z"/><path d="M1013,204v.57a1.66,1.66,0,0,1-.1.56,2.12,2.12,0,0,1-.27.57,1.84,1.84,0,0,1-.44.48l-.41-.33a3.61,3.61,0,0,0,.35-.6,1.53,1.53,0,0,0,.15-.67V204Z"/><path d="M1014.88,210.64a2,2,0,0,1-.85-.18,1.49,1.49,0,0,1-.6-.51,1.46,1.46,0,0,1-.23-.82,1.31,1.31,0,0,1,.17-.69,1.24,1.24,0,0,1,.44-.41,2.41,2.41,0,0,1,.62-.23c.22-.05.45-.09.68-.12l.73-.08a1,1,0,0,0,.4-.11.26.26,0,0,0,.13-.25v0a1,1,0,0,0-.25-.73,1,1,0,0,0-.78-.27,1.36,1.36,0,0,0-.85.24,1.43,1.43,0,0,0-.43.51l-.72-.26a1.72,1.72,0,0,1,.52-.7,1.92,1.92,0,0,1,.7-.35,2.82,2.82,0,0,1,.75-.1,4,4,0,0,1,.55,0,2.12,2.12,0,0,1,.6.23,1.43,1.43,0,0,1,.48.52,2.09,2.09,0,0,1,.19.94v3.23h-.76v-.66h0a1.71,1.71,0,0,1-.26.34,1.59,1.59,0,0,1-.48.31A1.89,1.89,0,0,1,1014.88,210.64Zm.11-.68a1.5,1.5,0,0,0,.76-.18,1.2,1.2,0,0,0,.47-.45,1.22,1.22,0,0,0,.15-.58v-.69a.5.5,0,0,1-.21.1,2.61,2.61,0,0,1-.37.08l-.4.06-.32,0a2.33,2.33,0,0,0-.55.12,1.05,1.05,0,0,0-.41.25.65.65,0,0,0-.15.46.67.67,0,0,0,.29.59A1.32,1.32,0,0,0,1015,210Z"/><path d="M1018.51,210.52v-4.91h.73v.74h0a1.2,1.2,0,0,1,.48-.59,1.46,1.46,0,0,1,.8-.22h.39v.77l-.17,0a1.37,1.37,0,0,0-.29,0,1.27,1.27,0,0,0-.63.14,1.09,1.09,0,0,0-.61,1v3.1Z"/><path d="M1024.3,205.61v.64h-2.54v-.64Zm-1.8-1.17h.75v4.68a.84.84,0,0,0,.1.47.46.46,0,0,0,.24.22,1.06,1.06,0,0,0,.31.05l.21,0,.13,0,.15.68-.21.06a1.75,1.75,0,0,1-.35,0,1.56,1.56,0,0,1-.63-.14,1.19,1.19,0,0,1-.5-.42,1.15,1.15,0,0,1-.2-.71Z"/><path d="M1025.82,204.8a.55.55,0,0,1-.38-.16.49.49,0,0,1,0-.72.56.56,0,0,1,.76,0,.48.48,0,0,1,0,.72A.55.55,0,0,1,1025.82,204.8Zm-.38,5.72v-4.91h.75v4.91Z"/><path d="M1029.76,205.61v.64h-2.65v-.64Zm-1.85,4.91v-5.58a1.21,1.21,0,0,1,.19-.71,1.33,1.33,0,0,1,.52-.42,1.67,1.67,0,0,1,.67-.14,1.92,1.92,0,0,1,.45,0,1.26,1.26,0,0,1,.26.09l-.22.65-.15,0a1,1,0,0,0-.27,0,.7.7,0,0,0-.54.19.82.82,0,0,0-.16.55v5.41Z"/><path d="M1031.2,204.8a.57.57,0,0,1-.38-.16.51.51,0,0,1,0-.72.55.55,0,0,1,.38-.15.52.52,0,0,1,.38.15.49.49,0,0,1,0,.72A.53.53,0,0,1,1031.2,204.8Zm-.38,5.72v-4.91h.75v4.91Z"/><path d="M1035,210.62a2.1,2.1,0,0,1-1.19-.32,2.19,2.19,0,0,1-.77-.9,3.28,3.28,0,0,1,0-2.63,2.26,2.26,0,0,1,.77-.9,2.33,2.33,0,0,1,2.1-.13,1.81,1.81,0,0,1,.68.54,1.63,1.63,0,0,1,.33.8h-.75a1.18,1.18,0,0,0-.39-.59,1.11,1.11,0,0,0-.79-.26,1.27,1.27,0,0,0-.77.23,1.52,1.52,0,0,0-.52.64,2.4,2.4,0,0,0-.18,1,2.5,2.5,0,0,0,.18,1,1.46,1.46,0,0,0,.51.65,1.37,1.37,0,0,0,1.31.13,1,1,0,0,0,.41-.29,1.19,1.19,0,0,0,.24-.46h.75a1.68,1.68,0,0,1-.32.78,1.63,1.63,0,0,1-.66.55A2,2,0,0,1,1035,210.62Z"/><path d="M1038.36,204.8a.57.57,0,0,1-.38-.16.51.51,0,0,1,0-.72.55.55,0,0,1,.38-.15.52.52,0,0,1,.38.15.49.49,0,0,1,0,.72A.53.53,0,0,1,1038.36,204.8Zm-.38,5.72v-4.91h.75v4.91Z"/><path d="M1042.11,210.62a2.15,2.15,0,0,1-1.17-.31,2.19,2.19,0,0,1-.78-.89,3.07,3.07,0,0,1-.28-1.33,3.14,3.14,0,0,1,.28-1.34,2.16,2.16,0,0,1,.78-.88,2.08,2.08,0,0,1,1.17-.32,2.09,2.09,0,0,1,1.94,1.2,3,3,0,0,1,.28,1.34,2.93,2.93,0,0,1-.28,1.33,2.05,2.05,0,0,1-.78.89A2.12,2.12,0,0,1,1042.11,210.62Zm0-.67a1.33,1.33,0,0,0,.83-.26,1.46,1.46,0,0,0,.48-.68,2.7,2.7,0,0,0,0-1.83,1.44,1.44,0,0,0-.48-.69,1.27,1.27,0,0,0-.83-.26,1.23,1.23,0,0,0-.83.26,1.53,1.53,0,0,0-.49.69,2.87,2.87,0,0,0,0,1.83,1.55,1.55,0,0,0,.49.68A1.29,1.29,0,0,0,1042.11,210Z"/><circle cx="287.67" cy="833.07" r="3.45"/><path d="M300.69,838.78V827.87h3.69a4.24,4.24,0,0,1,2.1.46,3,3,0,0,1,1.21,1.24,4.12,4.12,0,0,1,0,3.5,2.91,2.91,0,0,1-1.2,1.26,4.2,4.2,0,0,1-2.09.46h-2.64v-1.17h2.6a2.89,2.89,0,0,0,1.41-.3,1.82,1.82,0,0,0,.77-.83,2.86,2.86,0,0,0,0-2.34,1.7,1.7,0,0,0-.78-.81,2.92,2.92,0,0,0-1.43-.3H302v9.74Z"/><path d="M310.22,827.87h1.57l3.71,9h.13l3.7-9h1.58v10.91h-1.23v-8.29h-.11l-3.41,8.29H315l-3.41-8.29h-.11v8.29h-1.23Z"/><path d="M327.2,827.87v10.91h-1.32v-9.53h-.07L323.15,831v-1.34l2.73-1.81Z"/><path d="M333.89,838.93a3.21,3.21,0,0,1-2.05-.66,4.09,4.09,0,0,1-1.3-1.91,10.43,10.43,0,0,1,0-6.06,4.15,4.15,0,0,1,1.3-1.92,3.5,3.5,0,0,1,4.09,0,4.07,4.07,0,0,1,1.3,1.92,10.43,10.43,0,0,1,0,6.06,4.15,4.15,0,0,1-1.29,1.91A3.25,3.25,0,0,1,333.89,838.93Zm0-1.17a2.05,2.05,0,0,0,1.85-1.16,6.65,6.65,0,0,0,.66-3.28,8.43,8.43,0,0,0-.3-2.41,3.42,3.42,0,0,0-.86-1.52,1.92,1.92,0,0,0-1.35-.52A2.05,2.05,0,0,0,332,830a6.65,6.65,0,0,0-.67,3.29,8.38,8.38,0,0,0,.3,2.41,3.38,3.38,0,0,0,.86,1.51A2,2,0,0,0,333.89,837.76Z"/><path d="M340.09,833.92v-.85l6.86-3.5v1.37l-5.26,2.53,0-.08v.21l0-.09,5.26,2.54v1.36Z"/><path d="M353,838.93a3.72,3.72,0,0,1-1.69-.38,3.15,3.15,0,0,1-1.2-1,2.74,2.74,0,0,1-.5-1.48h1.28a1.73,1.73,0,0,0,.67,1.22,2.37,2.37,0,0,0,2.63.17,2.28,2.28,0,0,0,.83-.86,2.6,2.6,0,0,0,.3-1.25,2.55,2.55,0,0,0-.31-1.28,2.35,2.35,0,0,0-.85-.89,2.58,2.58,0,0,0-1.25-.33,3.71,3.71,0,0,0-1,.15,2.71,2.71,0,0,0-.87.41l-1.24-.15.66-5.37h5.67V829h-4.56l-.38,3.22h.06a2.56,2.56,0,0,1,.84-.44,3.15,3.15,0,0,1,1.06-.18,3.34,3.34,0,0,1,1.78.48,3.3,3.3,0,0,1,1.24,1.3,3.87,3.87,0,0,1,.45,1.88,3.74,3.74,0,0,1-.47,1.87,3.44,3.44,0,0,1-1.28,1.29A3.66,3.66,0,0,1,353,838.93Z"/><path d="M362.27,838.93a3.21,3.21,0,0,1-2-.66,4.09,4.09,0,0,1-1.3-1.91,10.43,10.43,0,0,1,0-6.06,4.15,4.15,0,0,1,1.3-1.92,3.5,3.5,0,0,1,4.09,0,4.07,4.07,0,0,1,1.3,1.92,10.43,10.43,0,0,1,0,6.06,4.15,4.15,0,0,1-1.29,1.91A3.25,3.25,0,0,1,362.27,838.93Zm0-1.17a2.05,2.05,0,0,0,1.85-1.16,6.65,6.65,0,0,0,.66-3.28,8.43,8.43,0,0,0-.3-2.41,3.42,3.42,0,0,0-.86-1.52,1.92,1.92,0,0,0-1.35-.52,2.05,2.05,0,0,0-1.85,1.16,6.76,6.76,0,0,0-.67,3.29,8.38,8.38,0,0,0,.3,2.41,3.38,3.38,0,0,0,.86,1.51A2,2,0,0,0,362.27,837.76Z"/><path d="M368,841.44v-9.75H369v4.19a2.07,2.07,0,0,0,.24,1,1.74,1.74,0,0,0,.69.68,2,2,0,0,0,1,.25,2.12,2.12,0,0,0,1-.25,1.71,1.71,0,0,0,.68-.68,2,2,0,0,0,.25-1v-4.19h1.09v7.09H373v-1.06h-.06a2,2,0,0,1-.8.86,2.23,2.23,0,0,1-2.2,0,2,2,0,0,1-.8-.86H369v3.72Z"/><path d="M378.9,841.58a4,4,0,0,1-1.36-.2,3,3,0,0,1-.94-.52,3,3,0,0,1-.6-.7l.87-.61c.1.13.22.28.37.45a2.06,2.06,0,0,0,.63.44,2.47,2.47,0,0,0,1,.18,2.3,2.3,0,0,0,1.42-.41,1.52,1.52,0,0,0,.56-1.3v-1.44h-.09a5.76,5.76,0,0,1-.34.47,2.07,2.07,0,0,1-.63.51,2.41,2.41,0,0,1-1.1.22,3,3,0,0,1-1.54-.41,2.82,2.82,0,0,1-1.08-1.18,4.18,4.18,0,0,1-.39-1.88,4.47,4.47,0,0,1,.38-1.9,3,3,0,0,1,1.07-1.26,2.79,2.79,0,0,1,1.58-.45,2.31,2.31,0,0,1,1.1.23,1.92,1.92,0,0,1,.62.52c.15.19.26.35.34.47h.11v-1.12H382V839a2.46,2.46,0,0,1-.42,1.49,2.38,2.38,0,0,1-1.1.84A4.27,4.27,0,0,1,378.9,841.58Zm0-3.89a2,2,0,0,0,1.1-.3,1.89,1.89,0,0,0,.69-.87,3.38,3.38,0,0,0,.24-1.34,3.84,3.84,0,0,0-.23-1.36,2.07,2.07,0,0,0-.69-.91,1.77,1.77,0,0,0-1.11-.34,1.88,1.88,0,0,0-1.16.35,2.15,2.15,0,0,0-.68,1,3.43,3.43,0,0,0-.23,1.31,3.31,3.31,0,0,0,.23,1.3,2.06,2.06,0,0,0,.69.89A2,2,0,0,0,378.87,837.69Z"/><path d="M387.3,828.88l-3,11.32h-1l3.05-11.32Z"/><path d="M388.6,838.78v-7.09h1v1.1h.09a1.84,1.84,0,0,1,.72-.88,2.15,2.15,0,0,1,1.18-.32,2,2,0,0,1,1.17.32,2.14,2.14,0,0,1,.74.88h.07a2.08,2.08,0,0,1,.82-.87,2.46,2.46,0,0,1,1.3-.33,2.11,2.11,0,0,1,1.56.6,2.48,2.48,0,0,1,.6,1.84v4.75h-1.09V834a1.33,1.33,0,0,0-.43-1.12,1.6,1.6,0,0,0-1-.34,1.51,1.51,0,0,0-1.16.45,1.64,1.64,0,0,0-.41,1.14v4.62h-1.1v-4.86a1.27,1.27,0,0,0-.4-1,1.44,1.44,0,0,0-1-.37,1.51,1.51,0,0,0-.79.23,1.76,1.76,0,0,0-.59.62,1.88,1.88,0,0,0-.22.93v4.43Z"/><path d="M401.33,834.52a2.4,2.4,0,0,1-.95-.18,1.58,1.58,0,0,1-.65-.51,1.28,1.28,0,0,1-.27-.76h.68a.75.75,0,0,0,.18.46,1.08,1.08,0,0,0,.42.3,1.57,1.57,0,0,0,.58.1,1.54,1.54,0,0,0,.63-.12.94.94,0,0,0,.43-.35.8.8,0,0,0,.16-.51.94.94,0,0,0-.15-.53,1,1,0,0,0-.44-.37,1.7,1.7,0,0,0-.71-.13h-.44v-.59h.44a1.26,1.26,0,0,0,.57-.12.87.87,0,0,0,.39-.34.84.84,0,0,0,.15-.5,1,1,0,0,0-.13-.49.78.78,0,0,0-.35-.32,1.09,1.09,0,0,0-.53-.12,1.36,1.36,0,0,0-.53.11,1,1,0,0,0-.41.29.78.78,0,0,0-.18.47h-.64a1.36,1.36,0,0,1,.26-.76,1.81,1.81,0,0,1,.64-.51,2.13,2.13,0,0,1,.88-.18,1.7,1.7,0,0,1,.87.21,1.45,1.45,0,0,1,.76,1.27,1.3,1.3,0,0,1-.24.79,1.26,1.26,0,0,1-.66.46v0a1.25,1.25,0,0,1,.81.44,1.32,1.32,0,0,1,.3.88,1.44,1.44,0,0,1-.25.81,1.65,1.65,0,0,1-.66.56A2.12,2.12,0,0,1,401.33,834.52Z"/><circle class="cls-3" cx="554.07" cy="833.07" r="3.45"/><path class="cls-3" d="M567.1,838.78V827.87h3.68a4.26,4.26,0,0,1,2.11.46,3,3,0,0,1,1.21,1.24,4.12,4.12,0,0,1,0,3.5,2.88,2.88,0,0,1-1.21,1.26,4.16,4.16,0,0,1-2.08.46h-2.65v-1.17h2.6a2.84,2.84,0,0,0,1.41-.3,1.79,1.79,0,0,0,.78-.83,3,3,0,0,0,0-2.34,1.7,1.7,0,0,0-.78-.81,3,3,0,0,0-1.43-.3h-2.32v9.74Z"/><path class="cls-3" d="M576.62,827.87h1.58l3.71,9H582l3.71-9h1.58v10.91h-1.24v-8.29H586l-3.41,8.29h-1.2L578,830.49h-.1v8.29h-1.24Z"/><path class="cls-3" d="M593.6,827.87v10.91h-1.32v-9.53h-.06L589.55,831v-1.34l2.73-1.81Z"/><path class="cls-3" d="M600.29,838.93a3.25,3.25,0,0,1-2-.66,4.15,4.15,0,0,1-1.29-1.91,10.43,10.43,0,0,1,0-6.06,4.07,4.07,0,0,1,1.3-1.92,3.5,3.5,0,0,1,4.09,0,4.15,4.15,0,0,1,1.3,1.92,10.43,10.43,0,0,1,0,6.06,4.09,4.09,0,0,1-1.3,1.91A3.21,3.21,0,0,1,600.29,838.93Zm0-1.17a2.05,2.05,0,0,0,1.86-1.16,6.65,6.65,0,0,0,.66-3.28,8.43,8.43,0,0,0-.3-2.41,3.34,3.34,0,0,0-.87-1.52,1.89,1.89,0,0,0-1.35-.52,2,2,0,0,0-1.84,1.16,6.65,6.65,0,0,0-.67,3.29,8.38,8.38,0,0,0,.3,2.41,3.29,3.29,0,0,0,.86,1.51A1.93,1.93,0,0,0,600.29,837.76Z"/><path class="cls-3" d="M613.35,833.92l-6.86,3.49v-1.36l5.27-2.54,0,.09v-.21l0,.08-5.27-2.53v-1.37l6.86,3.5Z"/><path class="cls-3" d="M619.41,838.93a3.72,3.72,0,0,1-1.69-.38,3.26,3.26,0,0,1-1.21-1,2.81,2.81,0,0,1-.49-1.48h1.28a1.73,1.73,0,0,0,.67,1.22,2.24,2.24,0,0,0,1.44.49,2.27,2.27,0,0,0,2-1.18,2.6,2.6,0,0,0,.3-1.25,2.66,2.66,0,0,0-.31-1.28,2.37,2.37,0,0,0-.86-.89,2.52,2.52,0,0,0-1.24-.33,3.77,3.77,0,0,0-1,.15,2.93,2.93,0,0,0-.87.41l-1.23-.15.66-5.37h5.67V829H618l-.39,3.22h.07a2.56,2.56,0,0,1,.84-.44,3.13,3.13,0,0,1,1-.18,3.38,3.38,0,0,1,3,1.78,3.87,3.87,0,0,1,.45,1.88,3.74,3.74,0,0,1-.47,1.87,3.52,3.52,0,0,1-1.28,1.29A3.66,3.66,0,0,1,619.41,838.93Z"/><path class="cls-3" d="M628.67,838.93a3.25,3.25,0,0,1-2-.66,4.15,4.15,0,0,1-1.29-1.91,10.43,10.43,0,0,1,0-6.06,4.07,4.07,0,0,1,1.3-1.92,3.5,3.5,0,0,1,4.09,0,4.15,4.15,0,0,1,1.3,1.92,10.43,10.43,0,0,1,0,6.06,4.09,4.09,0,0,1-1.3,1.91A3.21,3.21,0,0,1,628.67,838.93Zm0-1.17a2.05,2.05,0,0,0,1.86-1.16,6.65,6.65,0,0,0,.66-3.28,8.43,8.43,0,0,0-.3-2.41,3.34,3.34,0,0,0-.87-1.52,1.89,1.89,0,0,0-1.35-.52,2,2,0,0,0-1.84,1.16,6.65,6.65,0,0,0-.67,3.29,8.38,8.38,0,0,0,.3,2.41,3.29,3.29,0,0,0,.86,1.51A1.93,1.93,0,0,0,628.67,837.76Z"/><path class="cls-3" d="M634.36,841.44v-9.75h1.09v4.19a2.07,2.07,0,0,0,.24,1,1.71,1.71,0,0,0,.68.68,2.05,2.05,0,0,0,1,.25,2.15,2.15,0,0,0,1-.25,1.71,1.71,0,0,0,.68-.68,2.07,2.07,0,0,0,.24-1v-4.19h1.09v7.09h-1.09v-1.06h-.05a2,2,0,0,1-.8.86,2.25,2.25,0,0,1-2.21,0,2.08,2.08,0,0,1-.8-.86h0v3.72Z"/><path class="cls-3" d="M645.31,841.58a3.94,3.94,0,0,1-1.36-.2,2.91,2.91,0,0,1-.94-.52,3,3,0,0,1-.6-.7l.87-.61c.1.13.22.28.37.45a2,2,0,0,0,.62.44,2.56,2.56,0,0,0,1,.18,2.32,2.32,0,0,0,1.42-.41,1.52,1.52,0,0,0,.55-1.3v-1.44h-.09a4.05,4.05,0,0,1-.34.47,1.85,1.85,0,0,1-.63.51,2.38,2.38,0,0,1-1.1.22,3,3,0,0,1-1.54-.41,2.8,2.8,0,0,1-1.07-1.18,4.17,4.17,0,0,1-.4-1.88,4.33,4.33,0,0,1,.39-1.9,3,3,0,0,1,1.06-1.26,2.84,2.84,0,0,1,1.58-.45,2.28,2.28,0,0,1,1.1.23,1.87,1.87,0,0,1,.63.52c.15.19.26.35.34.47h.11v-1.12h1V839a2.46,2.46,0,0,1-.41,1.49,2.36,2.36,0,0,1-1.11.84A4.22,4.22,0,0,1,645.31,841.58Zm0-3.89a2,2,0,0,0,1.11-.3,1.89,1.89,0,0,0,.69-.87,3.57,3.57,0,0,0,.23-1.34,3.63,3.63,0,0,0-.23-1.36,2,2,0,0,0-.68-.91,1.78,1.78,0,0,0-1.12-.34,1.87,1.87,0,0,0-1.15.35,2.1,2.1,0,0,0-.69,1,3.64,3.64,0,0,0-.23,1.31,3.31,3.31,0,0,0,.24,1.3,1.92,1.92,0,0,0,.69.89A2,2,0,0,0,645.27,837.69Z"/><path class="cls-3" d="M653.71,828.88l-3.05,11.32h-1l3-11.32Z"/><path class="cls-3" d="M655,838.78v-7.09h1.06v1.1h.09a1.82,1.82,0,0,1,.71-.88,2.18,2.18,0,0,1,1.19-.32,2,2,0,0,1,1.17.32,2.11,2.11,0,0,1,.73.88H660a2.12,2.12,0,0,1,.81-.87,2.5,2.5,0,0,1,1.31-.33,2.14,2.14,0,0,1,1.56.6,2.48,2.48,0,0,1,.6,1.84v4.75h-1.09V834a1.33,1.33,0,0,0-.43-1.12,1.6,1.6,0,0,0-1-.34,1.5,1.5,0,0,0-1.16.45,1.64,1.64,0,0,0-.41,1.14v4.62H659.1v-4.86a1.3,1.3,0,0,0-.39-1,1.44,1.44,0,0,0-1-.37,1.48,1.48,0,0,0-.79.23,1.67,1.67,0,0,0-.59.62,1.89,1.89,0,0,0-.23.93v4.43Z"/><path class="cls-3" d="M667.74,834.52a2.4,2.4,0,0,1-1-.18,1.55,1.55,0,0,1-.66-.51,1.34,1.34,0,0,1-.26-.76h.68a.75.75,0,0,0,.18.46,1.08,1.08,0,0,0,.42.3,1.72,1.72,0,0,0,1.21,0,1,1,0,0,0,.43-.35A.86.86,0,0,0,669,833a.94.94,0,0,0-.15-.53,1,1,0,0,0-.45-.37,1.67,1.67,0,0,0-.71-.13h-.44v-.59h.44a1.34,1.34,0,0,0,.58-.12.87.87,0,0,0,.39-.34.92.92,0,0,0,.14-.5,1,1,0,0,0-.12-.49.78.78,0,0,0-.35-.32,1.12,1.12,0,0,0-.53-.12,1.41,1.41,0,0,0-.54.11,1.22,1.22,0,0,0-.41.29.84.84,0,0,0-.17.47H666a1.29,1.29,0,0,1,.26-.76,1.73,1.73,0,0,1,.64-.51,2.05,2.05,0,0,1,.87-.18,1.76,1.76,0,0,1,.88.21,1.39,1.39,0,0,1,.56.54,1.43,1.43,0,0,1,.2.73,1.24,1.24,0,0,1-.25.79,1.26,1.26,0,0,1-.66.46v0a1.3,1.3,0,0,1,.82.44,1.37,1.37,0,0,1,.29.88,1.43,1.43,0,0,1-.24.81,1.65,1.65,0,0,1-.66.56A2.12,2.12,0,0,1,667.74,834.52Z"/><g class="cls-4"><circle class="cls-3" cx="826.78" cy="833.07" r="9.75"/></g><circle class="cls-3" cx="826.78" cy="833.07" r="3.45"/><path d="M839.78,838.78V827.87h6.58V829H841.1v3.69H846v1.17H841.1v3.71h5.35v1.17Z"/><path d="M849.2,827.87l3.24,9.18h.12l3.24-9.18h1.39l-4,10.91h-1.36l-4-10.91Z"/><path d="M858.89,838.78V827.87h6.59V829h-5.27v3.69h4.92v1.17h-4.92v3.71h5.35v1.17Z"/><path d="M876.51,827.87v10.91h-1.28l-5.94-8.57h-.11v8.57h-1.32V827.87h1.28l6,8.59h.1v-8.59Z"/><path d="M878.56,829v-1.17h8.18V829h-3.43v9.74H882V829Z"/><path d="M897.54,833.32a6.76,6.76,0,0,1-.62,3,4.83,4.83,0,0,1-1.71,1.94,4.88,4.88,0,0,1-5,0,4.83,4.83,0,0,1-1.71-1.94,7.5,7.5,0,0,1,0-6,4.77,4.77,0,0,1,1.71-1.94,4.88,4.88,0,0,1,5,0,4.77,4.77,0,0,1,1.71,1.94A6.72,6.72,0,0,1,897.54,833.32Zm-1.28,0a5.39,5.39,0,0,0-.47-2.39,3.41,3.41,0,0,0-1.27-1.47,3.24,3.24,0,0,0-1.79-.5,3.3,3.3,0,0,0-1.8.5,3.48,3.48,0,0,0-1.27,1.47,6.34,6.34,0,0,0,0,4.79,3.54,3.54,0,0,0,1.27,1.47,3.39,3.39,0,0,0,1.8.5,3.33,3.33,0,0,0,1.79-.5,3.47,3.47,0,0,0,1.27-1.47A5.44,5.44,0,0,0,896.26,833.32Z"/></svg>