<svg xmlns="http://www.w3.org/2000/svg" viewBox="0 0 1174.99 900"><defs><style>.cls-1{fill:#efefef;}.cls-2{fill:#b8b8b8;}.cls-3{fill:#ff3a00;}.cls-4{isolation:isolate;}.cls-5{opacity:0.3;}</style></defs><g id="base"><rect class="cls-1" x="878.04" y="157.78" width="210.47" height="603.26"/><rect class="cls-1" x="96.58" y="157.78" width="285.42" height="603.26"/><path class="cls-2" d="M180.7,761.34a.29.29,0,0,1-.3-.3V157.78a.29.29,0,0,1,.3-.3.3.3,0,0,1,.3.3V761A.3.3,0,0,1,180.7,761.34Z"/><path class="cls-2" d="M257,761.34a.3.3,0,0,1-.3-.3V157.78a.3.3,0,0,1,.3-.3.29.29,0,0,1,.3.3V761A.29.29,0,0,1,257,761.34Z"/><path class="cls-2" d="M341.49,761.34a.29.29,0,0,1-.3-.3V157.78a.3.3,0,1,1,.6,0V761A.29.29,0,0,1,341.49,761.34Z"/><path class="cls-2" d="M423.25,761.34a.29.29,0,0,1-.3-.3V157.78a.3.3,0,1,1,.6,0V761A.29.29,0,0,1,423.25,761.34Z"/><path class="cls-2" d="M507.74,761.34a.29.29,0,0,1-.3-.3V157.78a.29.29,0,0,1,.3-.3.3.3,0,0,1,.3.3V761A.3.3,0,0,1,507.74,761.34Z"/><path class="cls-2" d="M589.49,761.34a.3.3,0,0,1-.3-.3V157.78a.31.31,0,0,1,.61,0V761A.3.3,0,0,1,589.49,761.34Z"/><path class="cls-2" d="M674,761.34a.29.29,0,0,1-.3-.3V157.78a.3.3,0,0,1,.6,0V761A.29.29,0,0,1,674,761.34Z"/><path class="cls-2" d="M758.47,761.34a.29.29,0,0,1-.3-.3V157.78a.29.29,0,0,1,.3-.3.3.3,0,0,1,.3.3V761A.3.3,0,0,1,758.47,761.34Z"/><path class="cls-2" d="M840.23,761.34a.29.29,0,0,1-.3-.3V157.78a.29.29,0,0,1,.3-.3.3.3,0,0,1,.3.3V761A.3.3,0,0,1,840.23,761.34Z"/><path class="cls-2" d="M924.71,761.34a.29.29,0,0,1-.3-.3V157.78a.3.3,0,0,1,.6,0V761A.29.29,0,0,1,924.71,761.34Z"/><path class="cls-2" d="M1006.47,761.34a.29.29,0,0,1-.3-.3V157.78a.3.3,0,0,1,.6,0V761A.29.29,0,0,1,1006.47,761.34Z"/><path class="cls-2" d="M96.21,761.34a.29.29,0,0,1-.3-.3V157.78a.3.3,0,1,1,.6,0V761A.29.29,0,0,1,96.21,761.34Z"/><path class="cls-2" d="M1088.23,761.34a.29.29,0,0,1-.3-.3V157.78a.3.3,0,0,1,.6,0V761A.29.29,0,0,1,1088.23,761.34Z"/><circle cx="96.21" cy="508.63" r="2.97"/><circle cx="257" cy="482.72" r="2.97"/><circle cx="423.25" cy="664.04" r="2.97"/><circle cx="507.74" cy="618.71" r="2.97"/><circle cx="589.49" cy="560.43" r="2.97"/><circle cx="673.98" cy="534.53" r="2.97"/><circle cx="758.47" cy="489.2" r="2.97"/><circle cx="840.23" cy="482.72" r="2.97"/><circle cx="131.64" cy="547.48" r="2.97"/><circle cx="134.36" cy="599.29" r="2.97"/><circle cx="137.09" cy="508.63" r="2.97"/><circle cx="139.82" cy="547.48" r="2.97"/><circle cx="142.54" cy="644.62" r="2.97"/><circle cx="145.27" cy="664.04" r="2.97"/><circle cx="147.99" cy="586.33" r="2.97"/><circle cx="150.72" cy="579.86" r="2.97"/><circle cx="153.44" cy="605.76" r="2.97"/><circle cx="156.17" cy="625.19" r="2.97"/><circle cx="158.89" cy="664.04" r="2.97"/><circle cx="161.62" cy="651.09" r="2.97"/><circle cx="164.34" cy="657.57" r="2.97"/><circle cx="167.07" cy="521.58" r="2.97"/><circle cx="169.79" cy="702.9" r="2.97"/><circle cx="172.52" cy="592.81" r="2.97"/><circle cx="175.24" cy="631.66" r="2.97"/><circle cx="177.97" cy="618.71" r="2.97"/><circle cx="98.94" cy="618.71" r="2.97"/><circle cx="183.42" cy="605.76" r="2.97"/><circle cx="259.73" cy="651.09" r="2.97"/><circle cx="344.22" cy="612.24" r="2.97"/><circle cx="425.98" cy="579.86" r="2.97"/><circle cx="510.46" cy="638.14" r="2.97"/><circle cx="592.22" cy="657.57" r="2.97"/><circle cx="676.71" cy="638.14" r="2.97"/><circle cx="761.19" cy="676.99" r="2.97"/><circle cx="842.95" cy="670.52" r="2.97"/><circle cx="927.44" cy="638.14" r="2.97"/><circle cx="1009.2" cy="605.76" r="2.97"/><circle cx="213.4" cy="631.66" r="2.97"/><circle cx="216.12" cy="541" r="2.97"/><circle cx="227.03" cy="521.58" r="2.97"/><circle cx="229.75" cy="476.25" r="2.97"/><circle cx="232.48" cy="651.09" r="2.97"/><circle cx="235.2" cy="612.24" r="2.97"/><circle cx="237.93" cy="670.52" r="2.97"/><circle cx="240.65" cy="664.04" r="2.97"/><circle cx="243.38" cy="631.66" r="2.97"/><circle cx="246.1" cy="612.24" r="2.97"/><circle cx="248.83" cy="670.52" r="2.97"/><circle cx="251.55" cy="573.38" r="2.97"/><circle cx="254.28" cy="728.8" r="2.97"/><circle cx="101.66" cy="683.47" r="2.97"/><circle cx="186.15" cy="715.85" r="2.97"/><circle cx="262.46" cy="638.14" r="2.97"/><circle cx="346.94" cy="664.04" r="2.97"/><circle cx="428.7" cy="592.81" r="2.97"/><circle cx="513.19" cy="573.38" r="2.97"/><circle cx="594.95" cy="534.53" r="2.97"/><circle cx="679.43" cy="521.58" r="2.97"/><circle cx="763.92" cy="566.91" r="2.97"/><circle cx="845.68" cy="508.63" r="2.97"/><circle cx="930.16" cy="508.63" r="2.97"/><circle cx="1011.92" cy="521.58" r="2.97"/><circle cx="295.16" cy="502.15" r="2.97"/><circle cx="306.06" cy="482.72" r="2.97"/><circle cx="314.24" cy="625.19" r="2.97"/><circle cx="316.96" cy="735.28" r="2.97"/><circle cx="319.69" cy="722.32" r="2.97"/><circle cx="322.41" cy="670.52" r="2.97"/><circle cx="325.14" cy="644.62" r="2.97"/><circle cx="327.86" cy="579.86" r="2.97"/><circle cx="330.59" cy="547.48" r="2.97"/><circle cx="333.31" cy="579.86" r="2.97"/><circle cx="336.04" cy="573.38" r="2.97"/><circle cx="338.76" cy="573.38" r="2.97"/><circle cx="104.39" cy="631.66" r="2.97"/><circle cx="188.87" cy="560.43" r="2.97"/><circle cx="265.18" cy="502.15" r="2.97"/><circle cx="349.67" cy="599.29" r="2.97"/><circle cx="431.43" cy="586.33" r="2.97"/><circle cx="515.91" cy="579.86" r="2.97"/><circle cx="597.67" cy="553.96" r="2.97"/><circle cx="682.16" cy="605.76" r="2.97"/><circle cx="766.64" cy="657.57" r="2.97"/><circle cx="848.4" cy="664.04" r="2.97"/><circle cx="932.89" cy="605.76" r="2.97"/><circle cx="1014.65" cy="612.24" r="2.97"/><circle cx="374.19" cy="605.76" r="2.97"/><circle cx="376.92" cy="638.14" r="2.97"/><circle cx="379.64" cy="651.09" r="2.97"/><circle cx="382.37" cy="683.47" r="2.97"/><circle cx="385.1" cy="676.99" r="2.97"/><circle cx="387.82" cy="657.57" r="2.97"/><circle cx="390.55" cy="651.09" r="2.97"/><circle cx="393.27" cy="676.99" r="2.97"/><circle cx="396" cy="612.24" r="2.97"/><circle cx="398.72" cy="566.91" r="2.97"/><circle cx="401.45" cy="625.19" r="2.97"/><circle cx="404.17" cy="638.14" r="2.97"/><circle cx="406.9" cy="676.99" r="2.97"/><circle cx="409.62" cy="683.47" r="2.97"/><circle cx="412.35" cy="670.52" r="2.97"/><circle cx="415.07" cy="696.42" r="2.97"/><circle cx="417.8" cy="689.95" r="2.97"/><circle cx="420.52" cy="676.99" r="2.97"/><circle cx="107.11" cy="696.42" r="2.97"/><circle cx="191.6" cy="657.57" r="2.97"/><circle cx="267.91" cy="683.47" r="2.97"/><circle cx="352.39" cy="689.95" r="2.97"/><circle cx="434.15" cy="644.62" r="2.97"/><circle cx="518.64" cy="644.62" r="2.97"/><circle cx="600.4" cy="676.99" r="2.97"/><circle cx="684.88" cy="676.99" r="2.97"/><circle cx="769.37" cy="670.52" r="2.97"/><circle cx="851.13" cy="670.52" r="2.97"/><circle cx="935.61" cy="689.95" r="2.97"/><circle cx="1017.37" cy="676.99" r="2.97"/><circle cx="455.95" cy="689.95" r="2.97"/><circle cx="458.68" cy="689.95" r="2.97"/><circle cx="461.4" cy="696.42" r="2.97"/><circle cx="464.13" cy="683.47" r="2.97"/><circle cx="466.86" cy="696.42" r="2.97"/><circle cx="469.58" cy="709.37" r="2.97"/><circle cx="472.31" cy="664.04" r="2.97"/><circle cx="475.03" cy="625.19" r="2.97"/><circle cx="477.76" cy="631.66" r="2.97"/><circle cx="480.48" cy="547.48" r="2.97"/><circle cx="483.21" cy="599.29" r="2.97"/><circle cx="485.93" cy="689.95" r="2.97"/><circle cx="488.66" cy="676.99" r="2.97"/><circle cx="491.38" cy="638.14" r="2.97"/><circle cx="494.11" cy="696.42" r="2.97"/><circle cx="496.83" cy="702.9" r="2.97"/><circle cx="499.56" cy="683.47" r="2.97"/><circle cx="502.28" cy="670.52" r="2.97"/><circle cx="505.01" cy="689.95" r="2.97"/><circle cx="109.84" cy="696.42" r="2.97"/><circle cx="194.32" cy="689.95" r="2.97"/><circle cx="270.63" cy="676.99" r="2.97"/><circle cx="355.12" cy="683.47" r="2.97"/><circle cx="436.88" cy="676.99" r="2.97"/><circle cx="521.36" cy="644.62" r="2.97"/><circle cx="603.12" cy="631.66" r="2.97"/><circle cx="551.34" cy="651.09" r="2.97"/><circle cx="554.07" cy="638.14" r="2.97"/><circle cx="556.79" cy="631.66" r="2.97"/><circle cx="559.52" cy="651.09" r="2.97"/><circle cx="562.24" cy="631.66" r="2.97"/><circle cx="564.97" cy="651.09" r="2.97"/><circle cx="567.69" cy="657.57" r="2.97"/><circle cx="570.42" cy="605.76" r="2.97"/><circle cx="573.14" cy="631.66" r="2.97"/><circle cx="575.87" cy="657.57" r="2.97"/><circle cx="578.59" cy="657.57" r="2.97"/><circle cx="112.56" cy="651.09" r="2.97"/><circle cx="197.05" cy="644.62" r="2.97"/><circle cx="273.36" cy="631.66" r="2.97"/><circle cx="357.84" cy="638.14" r="2.97"/><circle cx="439.6" cy="631.66" r="2.97"/><circle cx="524.09" cy="670.52" r="2.97"/><circle cx="605.85" cy="683.47" r="2.97"/><circle cx="690.33" cy="696.42" r="2.97"/><circle cx="774.82" cy="702.9" r="2.97"/><circle cx="856.58" cy="702.9" r="2.97"/><circle cx="941.06" cy="670.52" r="2.97"/><circle cx="1022.82" cy="676.99" r="2.97"/><circle cx="622.2" cy="696.42" r="2.97"/><circle cx="624.92" cy="657.57" r="2.97"/><circle cx="627.65" cy="664.04" r="2.97"/><circle cx="630.37" cy="644.62" r="2.97"/><circle cx="633.1" cy="638.14" r="2.97"/><circle cx="635.83" cy="631.66" r="2.97"/><circle cx="638.55" cy="631.66" r="2.97"/><circle cx="641.28" cy="676.99" r="2.97"/><circle cx="644" cy="689.95" r="2.97"/><circle cx="646.73" cy="683.47" r="2.97"/><circle cx="649.45" cy="638.14" r="2.97"/><circle cx="652.18" cy="657.57" r="2.97"/><circle cx="654.9" cy="625.19" r="2.97"/><circle cx="657.63" cy="631.66" r="2.97"/><circle cx="660.35" cy="696.42" r="2.97"/><circle cx="663.08" cy="689.95" r="2.97"/><circle cx="665.8" cy="664.04" r="2.97"/><circle cx="668.53" cy="715.85" r="2.97"/><circle cx="671.25" cy="683.47" r="2.97"/><circle cx="115.29" cy="651.09" r="2.97"/><circle cx="199.77" cy="644.62" r="2.97"/><circle cx="276.08" cy="670.52" r="2.97"/><circle cx="360.57" cy="657.57" r="2.97"/><circle cx="442.33" cy="670.52" r="2.97"/><circle cx="526.81" cy="689.95" r="2.97"/><circle cx="608.57" cy="651.09" r="2.97"/><circle cx="693.06" cy="612.24" r="2.97"/><circle cx="777.54" cy="644.62" r="2.97"/><circle cx="859.3" cy="657.57" r="2.97"/><circle cx="943.79" cy="664.04" r="2.97"/><circle cx="1025.55" cy="657.57" r="2.97"/><circle cx="706.68" cy="651.09" r="2.97"/><circle cx="709.41" cy="683.47" r="2.97"/><circle cx="712.13" cy="664.04" r="2.97"/><circle cx="714.86" cy="683.47" r="2.97"/><circle cx="717.59" cy="696.42" r="2.97"/><circle cx="720.31" cy="702.9" r="2.97"/><circle cx="723.04" cy="664.04" r="2.97"/><circle cx="725.76" cy="657.57" r="2.97"/><circle cx="728.49" cy="664.04" r="2.97"/><circle cx="731.21" cy="670.52" r="2.97"/><circle cx="733.94" cy="676.99" r="2.97"/><circle cx="736.66" cy="670.52" r="2.97"/><circle cx="739.39" cy="670.52" r="2.97"/><circle cx="742.11" cy="651.09" r="2.97"/><circle cx="744.84" cy="599.29" r="2.97"/><circle cx="747.56" cy="618.71" r="2.97"/><circle cx="750.29" cy="631.66" r="2.97"/><circle cx="753.01" cy="644.62" r="2.97"/><circle cx="755.74" cy="664.04" r="2.97"/><circle cx="118.01" cy="696.42" r="2.97"/><circle cx="202.5" cy="689.95" r="2.97"/><circle cx="278.81" cy="683.47" r="2.97"/><circle cx="363.29" cy="605.76" r="2.97"/><circle cx="445.05" cy="592.81" r="2.97"/><circle cx="529.54" cy="586.33" r="2.97"/><circle cx="611.3" cy="631.66" r="2.97"/><circle cx="695.78" cy="605.76" r="2.97"/><circle cx="780.27" cy="534.53" r="2.97"/><circle cx="862.03" cy="651.09" r="2.97"/><circle cx="946.51" cy="676.99" r="2.97"/><circle cx="1028.27" cy="676.99" r="2.97"/><circle cx="791.17" cy="657.57" r="2.97"/><circle cx="793.89" cy="657.57" r="2.97"/><circle cx="799.35" cy="631.66" r="2.97"/><circle cx="802.07" cy="625.19" r="2.97"/><circle cx="804.8" cy="579.86" r="2.97"/><circle cx="812.97" cy="612.24" r="2.97"/><circle cx="815.7" cy="657.57" r="2.97"/><circle cx="818.42" cy="638.14" r="2.97"/><circle cx="821.15" cy="657.57" r="2.97"/><circle cx="823.87" cy="592.81" r="2.97"/><circle cx="826.6" cy="625.19" r="2.97"/><circle cx="829.32" cy="573.38" r="2.97"/><circle cx="832.05" cy="625.19" r="2.97"/><circle cx="834.77" cy="618.71" r="2.97"/><circle cx="837.5" cy="631.66" r="2.97"/><circle cx="120.74" cy="521.58" r="2.97"/><circle cx="205.22" cy="560.43" r="2.97"/><circle cx="281.53" cy="638.14" r="2.97"/><circle cx="366.02" cy="651.09" r="2.97"/><circle cx="447.78" cy="657.57" r="2.97"/><circle cx="532.26" cy="599.29" r="2.97"/><circle cx="614.02" cy="553.96" r="2.97"/><circle cx="949.24" cy="495.68" r="2.97"/><circle cx="1031" cy="625.19" r="2.97"/><circle cx="872.93" cy="579.86" r="2.97"/><circle cx="875.65" cy="618.71" r="2.97"/><circle cx="878.38" cy="553.96" r="2.97"/><circle cx="881.11" cy="605.76" r="2.97"/><circle cx="883.83" cy="515.1" r="2.97"/><circle cx="886.56" cy="482.72" r="2.97"/><circle cx="889.28" cy="508.63" r="2.97"/><circle cx="892.01" cy="534.53" r="2.97"/><circle cx="894.73" cy="625.19" r="2.97"/><circle cx="902.91" cy="631.66" r="2.97"/><circle cx="905.63" cy="612.24" r="2.97"/><circle cx="908.36" cy="618.71" r="2.97" transform="translate(152.13 1416.24) rotate(-80.78)"/><circle cx="911.08" cy="579.86" r="2.97"/><circle cx="913.81" cy="528.05" r="2.97"/><circle cx="916.53" cy="502.15" r="2.97"/><circle cx="207.95" cy="566.91" r="2.97"/><circle cx="284.26" cy="664.04" r="2.97"/><circle cx="368.74" cy="683.47" r="2.97"/><circle cx="450.5" cy="657.57" r="2.97"/><circle cx="534.99" cy="664.04" r="2.97"/><circle cx="616.75" cy="605.76" r="2.97"/><circle cx="701.23" cy="528.05" r="2.97"/><circle cx="785.72" cy="541" r="2.97"/><circle cx="867.48" cy="625.19" r="2.97"/><circle cx="951.96" cy="566.91" r="2.97"/><circle cx="1033.72" cy="566.91" r="2.97"/><circle cx="957.41" cy="664.04" r="2.97"/><circle cx="960.14" cy="599.29" r="2.97"/><circle cx="962.87" cy="644.62" r="2.97"/><circle cx="965.59" cy="709.37" r="2.97"/><circle cx="968.32" cy="709.37" r="2.97"/><circle cx="971.04" cy="631.66" r="2.97"/><circle cx="973.77" cy="541" r="2.97"/><circle cx="976.49" cy="573.38" r="2.97"/><circle cx="992.84" cy="541" r="2.97"/><circle cx="995.57" cy="489.2" r="2.97"/><circle cx="998.29" cy="586.33" r="2.97"/><circle cx="1001.02" cy="541" r="2.97"/><circle cx="1003.75" cy="553.96" r="2.97"/><circle cx="126.19" cy="560.43" r="2.97"/><circle cx="210.67" cy="560.43" r="2.97"/><circle cx="286.98" cy="670.52" r="2.97"/><circle cx="371.47" cy="638.14" r="2.97"/><circle cx="453.23" cy="592.81" r="2.97"/><circle cx="537.71" cy="547.48" r="2.97"/><circle cx="619.47" cy="676.99" r="2.97"/><circle cx="703.96" cy="651.09" r="2.97"/><circle cx="788.44" cy="612.24" r="2.97"/><circle cx="870.2" cy="592.81" r="2.97"/><circle cx="954.69" cy="573.38" r="2.97"/><circle cx="1036.45" cy="547.48" r="2.97"/><circle cx="1050.08" cy="573.38" r="2.97"/><circle cx="1052.8" cy="508.63" r="2.97"/><circle class="cls-3" cx="180.7" cy="353.21" r="2.97"/><circle class="cls-3" cx="341.49" cy="437.39" r="2.97"/><circle class="cls-3" cx="924.71" cy="385.59" r="2.97"/><circle class="cls-3" cx="1006.47" cy="463.3" r="2.97"/><circle class="cls-3" cx="128.91" cy="469.77" r="2.97"/><circle class="cls-3" cx="218.85" cy="469.77" r="2.97"/><circle class="cls-3" cx="221.58" cy="340.26" r="2.97"/><circle class="cls-3" cx="224.3" cy="359.69" r="2.97"/><circle class="cls-3" cx="289.71" cy="463.3" r="2.97"/><circle class="cls-3" cx="292.43" cy="417.97" r="2.97"/><circle class="cls-3" cx="297.88" cy="269.03" r="2.97"/><circle class="cls-3" cx="300.61" cy="430.92" r="2.97"/><circle class="cls-3" cx="303.34" cy="346.73" r="2.97"/><circle class="cls-3" cx="308.79" cy="411.49" r="2.97"/><circle class="cls-3" cx="311.51" cy="320.83" r="2.97"/><circle class="cls-3" cx="807.52" cy="417.97" r="2.97"/><circle class="cls-3" cx="810.25" cy="469.77" r="2.97"/><circle class="cls-3" cx="698.51" cy="340.26" r="2.97"/><circle class="cls-3" cx="782.99" cy="333.78" r="2.97"/><circle class="cls-3" cx="864.75" cy="320.83" r="2.97"/><circle class="cls-3" cx="919.26" cy="469.77" r="2.97"/><circle class="cls-3" cx="921.99" cy="340.26" r="2.97"/><circle class="cls-3" cx="123.46" cy="392.06" r="2.97"/><circle class="cls-3" cx="979.22" cy="469.77" r="2.97"/><circle class="cls-3" cx="981.94" cy="275.5" r="2.97"/><circle class="cls-3" cx="984.67" cy="294.93" r="2.97"/><circle class="cls-3" cx="987.39" cy="256.07" r="2.97"/><circle class="cls-3" cx="990.12" cy="269.03" r="2.97"/><circle class="cls-3" cx="1039.17" cy="333.78" r="2.97"/><circle class="cls-3" cx="1041.9" cy="243.12" r="2.97"/><circle class="cls-3" cx="1044.63" cy="230.17" r="2.97"/><circle class="cls-3" cx="1047.35" cy="463.3" r="2.97"/><circle class="cls-3" cx="1055.53" cy="443.87" r="2.97"/><circle cx="1058.25" cy="495.68" r="2.97"/><circle cx="1060.98" cy="560.43" r="2.97"/><circle cx="1063.7" cy="553.96" r="2.97"/><circle cx="1066.43" cy="553.96" r="2.97"/><circle cx="1069.15" cy="605.76" r="2.97"/><circle cx="1071.88" cy="495.68" r="2.97"/><circle cx="1074.6" cy="489.2" r="2.97"/><circle cx="1077.33" cy="702.9" r="2.97"/><circle cx="1080.05" cy="638.14" r="2.97"/><circle cx="1082.78" cy="573.38" r="2.97"/><circle cx="1085.51" cy="534.53" r="2.97"/><circle cx="1088.23" cy="534.53" r="2.97"/><path d="M287.34,179.78c0,1.06.9,1.79,2.38,1.79s2.44-.64,2.44-1.73c0-2.53-6.33-.52-6.33-4.52,0-1.76,1.52-3,3.9-3s3.84,1.12,3.84,2.93h-1.65c0-1-.94-1.62-2.19-1.62s-2.21.54-2.21,1.56c0,2.52,6.36.48,6.36,4.56,0,1.89-1.51,3.16-4.16,3.16s-4.05-1.21-4.05-3.09Z"/><path d="M297.37,186h-1.61V175.44h1.55v1.08h.06a2.5,2.5,0,0,1,2.41-1.26c1.83,0,3.24,1.34,3.24,3.75s-1.5,3.86-3.36,3.86a2.35,2.35,0,0,1-2.29-1.26h-.06c.06.95.06,1.95.06,2.44Zm2-9.42c-1.1,0-1.95.88-2,2.4v.12c0,1.59.86,2.51,2,2.51s2-1,2-2.57S300.51,176.55,299.36,176.55Z"/><path d="M307.87,175.26a3.21,3.21,0,0,1,3.39,3.54v.53h-5.34c.09,1.42.85,2.28,2,2.28a1.57,1.57,0,0,0,1.68-1.12h1.58a3.08,3.08,0,0,1-3.27,2.38c-2.32,0-3.65-1.41-3.65-3.79A3.55,3.55,0,0,1,307.87,175.26Zm-1.87,3h3.63c-.14-1.21-.75-1.74-1.76-1.74A1.92,1.92,0,0,0,306,178.25Z"/><path d="M314.26,183.59c0,.8.77,1.29,1.83,1.29,1.29,0,2.17-.65,2.17-2.56v-.71h-.06a2.51,2.51,0,0,1-2.41,1.26c-1.83,0-3.25-1.33-3.25-3.74s1.51-3.87,3.37-3.87a2.35,2.35,0,0,1,2.29,1.26h.06v-1.08h1.53v6.88c0,2.74-1.58,3.77-3.7,3.77-1.94,0-3.32-.84-3.35-2.5Zm1.93-2c1.14,0,2-.92,2-2.51V179c0-1.52-.87-2.4-2-2.4s-2,1-2,2.58S315.06,181.58,316.19,181.58Z"/><path d="M322,175.44h1.55v1.05h.06a2.31,2.31,0,0,1,2.24-1.23c1.45,0,2.72.77,2.72,3v4.41H327v-4.2c0-1.44-.61-1.93-1.55-1.93s-1.81.87-1.81,2.33v3.8H322Z"/><path d="M330.56,171.81h1.73v1.63h-1.73Zm.06,3.63h1.61v7.26h-1.61Z"/><path d="M334.42,175.44H336v1.05H336a2.57,2.57,0,0,1,4.5.21,2.49,2.49,0,0,1,2.44-1.44c1.42,0,2.58.77,2.58,2.94v4.5h-1.61v-4.3c0-1.36-.48-1.83-1.4-1.83s-1.75.86-1.75,2.3v3.83h-1.61v-4.3c0-1.36-.52-1.83-1.4-1.83s-1.75.86-1.75,2.32v3.81h-1.61Z"/><path d="M350.7,175.26a3.21,3.21,0,0,1,3.39,3.54v.53h-5.34c.09,1.42.85,2.28,2,2.28a1.57,1.57,0,0,0,1.68-1.12H354a3.09,3.09,0,0,1-3.28,2.38c-2.32,0-3.64-1.41-3.64-3.79A3.54,3.54,0,0,1,350.7,175.26Zm-1.88,3h3.63c-.13-1.21-.74-1.74-1.75-1.74A1.93,1.93,0,0,0,348.82,178.25Z"/><path d="M355.71,175.44h1.55v1.05h.06a2.32,2.32,0,0,1,2.25-1.23c1.44,0,2.72.77,2.72,3v4.41h-1.61v-4.2c0-1.44-.61-1.93-1.55-1.93s-1.81.87-1.81,2.33v3.8h-1.61Z"/><path d="M364.51,176.69h-1.37v-1.25h1.37v-2.21h1.6v2.21H368v1.25h-1.86v3.6c0,.77.27,1.07,1,1.07H368v1.34h-1.11c-1.67,0-2.35-.7-2.35-2.33Z"/><path d="M372.62,175.26a3.49,3.49,0,0,1,3.7,3.81,3.54,3.54,0,0,1-3.7,3.8,3.5,3.5,0,0,1-3.71-3.8A3.56,3.56,0,0,1,372.62,175.26Zm0,6.32c1.22,0,2-1,2-2.51s-.82-2.52-2-2.52-2,1-2,2.52S371.4,181.58,372.62,181.58Z"/><path d="M286,194h1.55v1.05h0a2,2,0,0,1,1.92-1.23,1.64,1.64,0,0,1,1,.3l-.42,1.42a2,2,0,0,0-.89-.23c-1.08,0-1.61,1.05-1.61,2.32v3.63H286Z"/><path d="M291.52,190.41h1.72V192h-1.72Zm.06,3.63h1.6v7.26h-1.6Z"/><path d="M296.37,199.21c0,.81.82,1.14,1.61,1.14,1.11,0,1.66-.39,1.66-1.06s-.37-.76-1.1-.88l-1.34-.24c-1.11-.18-2.18-.62-2.18-2s1.32-2.32,3-2.32,3,.68,3,2.2h-1.51c0-.71-.64-1.07-1.5-1.07s-1.49.36-1.49,1c0,.49.34.74,1.21.89l1.34.22c1.14.19,2.14.64,2.14,2,0,1.59-1.34,2.38-3.27,2.38s-3.14-.75-3.14-2.27Z"/><path d="M306,193.86a3,3,0,0,1,3.3,2.66h-1.59a1.59,1.59,0,0,0-1.71-1.37c-1.13,0-2,1-2,2.52s.82,2.51,2,2.51a1.58,1.58,0,0,0,1.71-1.37h1.59a3,3,0,0,1-3.3,2.67c-2.23,0-3.61-1.43-3.61-3.81A3.51,3.51,0,0,1,306,193.86Z"/><path d="M313,197.22l1.41-.24c.72-.12.94-.21.94-.49a1.27,1.27,0,0,0-1.43-1.43,1.36,1.36,0,0,0-1.53,1.28h-1.53c.09-1.5,1.25-2.48,3.06-2.48,2,0,3,1,3,2.66v4.78h-1.53v-.91h-.08a2.59,2.59,0,0,1-2.32,1.09c-1.59,0-2.45-.82-2.45-2S311.31,197.5,313,197.22Zm2.35.43a1.19,1.19,0,0,1-.74.34l-1.25.21c-.85.14-1.18.51-1.18,1.07s.42,1,1.24,1a1.83,1.83,0,0,0,1.93-2Z"/><path d="M319.06,190.41h1.61V201.3h-1.61Z"/><path d="M325.71,193.86a2.36,2.36,0,0,1,2.29,1.26h.06c-.07-1-.07-2-.07-2.44v-2.27h1.61V201.3h-1.54v-1.09H328a2.5,2.5,0,0,1-2.41,1.27c-1.83,0-3.24-1.34-3.24-3.75S323.85,193.86,325.71,193.86Zm.29,6.32c1.14,0,2-.92,2-2.51s-.85-2.52-2-2.52-2,1-2,2.58S324.87,200.18,326,200.18Z"/><path d="M333.79,197.22l1.42-.24c.71-.12.93-.21.93-.49a1.27,1.27,0,0,0-1.42-1.43,1.36,1.36,0,0,0-1.54,1.28h-1.53c.09-1.5,1.25-2.48,3.07-2.48,2,0,3,1,3,2.66v4.78h-1.53v-.91h-.08a2.59,2.59,0,0,1-2.32,1.09c-1.59,0-2.45-.82-2.45-2S332.08,197.5,333.79,197.22Zm2.35.43a1.17,1.17,0,0,1-.74.34l-1.25.21c-.85.14-1.17.51-1.17,1.07s.41,1,1.23,1a1.82,1.82,0,0,0,1.93-2Z"/><path d="M339.84,194h1.54v1.05h.06a2.58,2.58,0,0,1,4.51.21,2.49,2.49,0,0,1,2.44-1.44c1.41,0,2.57.77,2.57,2.94v4.5h-1.6V197c0-1.36-.48-1.83-1.4-1.83s-1.76.86-1.76,2.3v3.83h-1.6V197c0-1.36-.52-1.83-1.4-1.83s-1.76.86-1.76,2.32v3.81h-1.6Z"/><path d="M356.11,193.86a3.22,3.22,0,0,1,3.4,3.54v.53h-5.34c.08,1.42.84,2.28,2,2.28a1.56,1.56,0,0,0,1.68-1.11h1.58a3.08,3.08,0,0,1-3.27,2.38c-2.32,0-3.65-1.42-3.65-3.8A3.55,3.55,0,0,1,356.11,193.86Zm-1.87,3h3.63c-.13-1.21-.74-1.74-1.76-1.74A1.92,1.92,0,0,0,354.24,196.85Z"/><path d="M361.13,194h1.55v1.05h.06a2.31,2.31,0,0,1,2.24-1.23c1.45,0,2.73.77,2.73,3v4.41H366.1v-4.2c0-1.44-.61-1.93-1.55-1.93s-1.81.87-1.81,2.33v3.8h-1.61Z"/><path d="M369.92,195.29h-1.36V194h1.36v-2.21h1.61V194h1.86v1.25h-1.86v3.6c0,.77.27,1.07,1,1.07h.85v1.34h-1.11c-1.67,0-2.36-.7-2.36-2.32Z"/><path d="M374.78,190.41h1.72V192h-1.72Zm.05,3.63h1.61v7.26h-1.61Z"/><path d="M887.42,172.46h2l3.81,10.24h-1.77l-.88-2.49h-4.37l-.88,2.49h-1.7Zm.94,1.67-1.67,4.68h3.38l-1.65-4.68Z"/><path d="M897.71,175.26a3,3,0,0,1,3.3,2.66h-1.59a1.6,1.6,0,0,0-1.71-1.37c-1.14,0-2,1-2,2.52s.81,2.51,2,2.51a1.58,1.58,0,0,0,1.71-1.37H901a3,3,0,0,1-3.3,2.66c-2.24,0-3.62-1.42-3.62-3.8A3.52,3.52,0,0,1,897.71,175.26Z"/><path d="M905.82,175.26a3,3,0,0,1,3.3,2.66h-1.59a1.6,1.6,0,0,0-1.71-1.37c-1.14,0-2,1-2,2.52s.81,2.51,2,2.51a1.58,1.58,0,0,0,1.71-1.37h1.59a3,3,0,0,1-3.3,2.66c-2.24,0-3.62-1.42-3.62-3.8A3.52,3.52,0,0,1,905.82,175.26Z"/><path d="M913.91,175.26a3.21,3.21,0,0,1,3.39,3.54v.53H912c.09,1.42.85,2.28,2,2.28a1.57,1.57,0,0,0,1.68-1.12h1.58a3.08,3.08,0,0,1-3.27,2.38c-2.33,0-3.65-1.41-3.65-3.79A3.55,3.55,0,0,1,913.91,175.26Zm-1.87,3h3.63c-.14-1.21-.75-1.74-1.76-1.74A1.92,1.92,0,0,0,912,178.25Z"/><path d="M918.93,175.44h1.54v1.05h.06a2.32,2.32,0,0,1,2.25-1.23c1.44,0,2.72.77,2.72,3v4.41h-1.61v-4.2c0-1.44-.61-1.93-1.54-1.93s-1.82.87-1.82,2.33v3.8h-1.6Z"/><path d="M928.57,180.61c0,.81.82,1.13,1.6,1.13,1.12,0,1.67-.38,1.67-1.05s-.37-.76-1.1-.88l-1.34-.24c-1.11-.18-2.19-.62-2.19-2s1.33-2.32,3-2.32,3,.68,3,2.2h-1.5c0-.71-.64-1.07-1.5-1.07s-1.49.36-1.49,1,.34.75,1.21.9l1.34.22c1.14.19,2.14.64,2.14,2,0,1.6-1.34,2.38-3.28,2.38s-3.13-.74-3.13-2.26Z"/><path d="M935.09,171.81h1.72v1.63h-1.72Zm.06,3.63h1.6v7.26h-1.6Z"/><path d="M942.14,175.26a3.49,3.49,0,0,1,3.7,3.81,3.54,3.54,0,0,1-3.7,3.8,3.5,3.5,0,0,1-3.71-3.8A3.56,3.56,0,0,1,942.14,175.26Zm0,6.32c1.22,0,2-1,2-2.51s-.82-2.52-2-2.52-2,1-2,2.52S940.92,181.58,942.14,181.58Z"/><path d="M947.53,175.44h1.54v1.05h.06a2.32,2.32,0,0,1,2.25-1.23c1.44,0,2.72.77,2.72,3v4.41h-1.6v-4.2c0-1.44-.61-1.93-1.55-1.93s-1.82.87-1.82,2.33v3.8h-1.6Z"/><path d="M959.25,175.26a3.21,3.21,0,0,1,3.39,3.54v.53H957.3c.09,1.42.85,2.28,2,2.28a1.57,1.57,0,0,0,1.68-1.12h1.58a3.08,3.08,0,0,1-3.27,2.38c-2.32,0-3.65-1.41-3.65-3.79A3.55,3.55,0,0,1,959.25,175.26Zm-1.87,3H961c-.14-1.21-.75-1.74-1.76-1.74A1.92,1.92,0,0,0,957.38,178.25Z"/><path d="M884.55,194h1.55v1.05h0a2,2,0,0,1,1.92-1.23,1.64,1.64,0,0,1,1,.3l-.41,1.42a2,2,0,0,0-.89-.23c-1.09,0-1.61,1.05-1.61,2.32v3.63h-1.61Z"/><path d="M890.1,190.41h1.73V192H890.1Zm.06,3.63h1.61v7.26h-1.61Z"/><path d="M895,199.21c0,.81.82,1.14,1.61,1.14,1.12,0,1.67-.39,1.67-1.06s-.38-.76-1.11-.88l-1.33-.24c-1.12-.18-2.19-.62-2.19-2s1.32-2.32,3-2.32,3,.68,3,2.2h-1.5c0-.71-.64-1.07-1.51-1.07s-1.48.36-1.48,1c0,.49.34.74,1.2.89l1.34.22c1.15.19,2.14.64,2.14,2,0,1.59-1.34,2.38-3.27,2.38s-3.14-.75-3.14-2.27Z"/><path d="M904.62,193.86a3,3,0,0,1,3.31,2.66h-1.59a1.61,1.61,0,0,0-1.72-1.37c-1.13,0-1.94,1-1.94,2.52s.81,2.51,1.94,2.51a1.59,1.59,0,0,0,1.72-1.37h1.59a3,3,0,0,1-3.31,2.67c-2.23,0-3.61-1.43-3.61-3.81A3.52,3.52,0,0,1,904.62,193.86Z"/><path d="M911.6,197.22,913,197c.71-.12.94-.21.94-.49a1.28,1.28,0,0,0-1.43-1.43,1.36,1.36,0,0,0-1.54,1.28h-1.53c.09-1.5,1.25-2.48,3.07-2.48,2,0,3,1,3,2.66v4.78H914v-.91H914a2.61,2.61,0,0,1-2.33,1.09c-1.59,0-2.45-.82-2.45-2S909.89,197.5,911.6,197.22Zm2.36.43a1.22,1.22,0,0,1-.75.34l-1.25.21c-.85.14-1.17.51-1.17,1.07s.41,1,1.23,1a1.83,1.83,0,0,0,1.94-2Z"/><path d="M917.65,190.41h1.6V201.3h-1.6Z"/><path d="M924.3,193.86a2.37,2.37,0,0,1,2.29,1.26h.06c-.08-1-.08-2-.08-2.44v-2.27h1.61V201.3h-1.53v-1.09h-.06a2.51,2.51,0,0,1-2.41,1.27c-1.83,0-3.25-1.34-3.25-3.75S922.44,193.86,924.3,193.86Zm.28,6.32c1.15,0,2-.92,2-2.51s-.84-2.52-2-2.52-2,1-2,2.58S923.45,200.18,924.58,200.18Z"/><path d="M932.38,197.22l1.41-.24c.72-.12.94-.21.94-.49a1.27,1.27,0,0,0-1.43-1.43,1.35,1.35,0,0,0-1.53,1.28h-1.53c.08-1.5,1.24-2.48,3.06-2.48,2,0,3,1,3,2.66v4.78H934.8v-.91h-.07a2.6,2.6,0,0,1-2.32,1.09c-1.59,0-2.46-.82-2.46-2S930.67,197.5,932.38,197.22Zm2.35.43a1.2,1.2,0,0,1-.75.34l-1.25.21c-.84.14-1.17.51-1.17,1.07s.42,1,1.23,1a1.83,1.83,0,0,0,1.94-2Z"/><path d="M938.42,194H940v1.05H940a2.57,2.57,0,0,1,4.5.21,2.49,2.49,0,0,1,2.44-1.44c1.42,0,2.58.77,2.58,2.94v4.5h-1.61V197c0-1.36-.48-1.83-1.4-1.83s-1.75.86-1.75,2.3v3.83h-1.61V197c0-1.36-.52-1.83-1.4-1.83S940,196,940,197.49v3.81h-1.61Z"/><path d="M954.7,193.86a3.21,3.21,0,0,1,3.39,3.54v.53h-5.34c.09,1.42.85,2.28,2,2.28a1.58,1.58,0,0,0,1.68-1.11H958a3.1,3.1,0,0,1-3.28,2.38c-2.32,0-3.64-1.42-3.64-3.8A3.55,3.55,0,0,1,954.7,193.86Zm-1.88,3h3.63c-.13-1.21-.74-1.74-1.75-1.74A1.93,1.93,0,0,0,952.82,196.85Z"/><path d="M959.71,194h1.55v1.05h.06a2.32,2.32,0,0,1,2.25-1.23c1.44,0,2.72.77,2.72,3v4.41h-1.61v-4.2c0-1.44-.61-1.93-1.54-1.93s-1.82.87-1.82,2.33v3.8h-1.61Z"/><path d="M968.51,195.29h-1.37V194h1.37v-2.21h1.6V194H972v1.25h-1.86v3.6c0,.77.27,1.07,1,1.07H972v1.34h-1.11c-1.67,0-2.35-.7-2.35-2.32Z"/><path d="M973.36,190.41h1.72V192h-1.72Zm.06,3.63H975v7.26h-1.61Z"/><g class="cls-4"><path d="M206.41,773.62h6.78v1.19h-5.42v3.69h4.29v1.19h-4.29v4.17h-1.36Z"/><path d="M215,773.62h6.9v1.19h-5.54v3.25h4.41v1.19h-4.41v3.42H222v1.19h-7Z"/><path d="M224,773.62h4.23c2.22,0,3.27,1,3.27,2.68a2.16,2.16,0,0,1-1.6,2.14v.06a2.32,2.32,0,0,1,2,2.32c0,1.75-1.18,3-3.39,3H224Zm1.37,1.19V778h2.86a1.67,1.67,0,0,0,1.9-1.68c0-.9-.53-1.48-1.9-1.48Zm0,4.35v3.51h3.16a1.76,1.76,0,0,0,2-1.83c0-1-.65-1.68-2-1.68Z"/></g><g class="cls-4"><path d="M131.84,782.37h-.05a3.6,3.6,0,0,1-3.34,1.67,5.3,5.3,0,0,1,.05-10.59,4.29,4.29,0,0,1,4.47,3.21h-1.43a2.9,2.9,0,0,0-3-2c-2.21,0-3.63,1.72-3.63,4s1.48,4,3.58,4c1.71,0,3.27-1,3.27-2.86v-.3H128.5v-1.19H133v5.42h-.89Z"/><path d="M135.41,773.62h6.9v1.19h-5.53v3.25h4.4v1.19h-4.4v3.42h5.65v1.19h-7Z"/><path d="M144.52,773.62h1.31l5.65,7.92h.06l-.06-7.92h1.37v10.24h-1.31L145.89,776h-.06l.06,7.86h-1.37Z"/></g><g class="cls-4"><path d="M284.21,773.62h1.67l3.76,8.39h0l3.71-8.39H295v10.24h-1.36l.12-8.09h-.06l-3.57,8.09h-1.08l-3.57-7.92h-.06l.12,7.92h-1.37Z"/><path d="M300.34,773.62H302l3.81,10.24h-1.43l-1-2.68h-4.49l-1,2.68h-1.36Zm.75,1.43L299.3,780h3.63l-1.78-4.94Z"/><path d="M307.25,773.62h3.87c2.33,0,3.57,1.12,3.57,3a2.94,2.94,0,0,1-2.25,3.05l2.6,4.15h-1.48l-2.55-4h-2.39v4h-1.37Zm1.37,1.19v3.87h2.56a1.94,1.94,0,0,0,2.14-2c0-1.13-.77-1.85-2.14-1.85Z"/></g><g class="cls-4"><path d="M372,773.62h1.61l3.8,10.24H376l-1-2.68h-4.49l-1,2.68H368.2Zm.74,1.43L371,780h3.63l-1.79-4.94Z"/><path d="M378.91,773.62h3.87c2.34,0,3.63,1.36,3.63,3.28a3.3,3.3,0,0,1-3.63,3.39h-2.5v3.57h-1.37Zm1.37,1.19v4.29h2.56a2.06,2.06,0,0,0,2.2-2.2,2,2,0,0,0-2.2-2.09Z"/><path d="M388.38,773.62h3.87c2.33,0,3.57,1.12,3.57,3a2.94,2.94,0,0,1-2.25,3.05l2.6,4.15h-1.48l-2.55-4h-2.39v4h-1.37Zm1.37,1.19v3.87h2.56a1.94,1.94,0,0,0,2.14-2c0-1.13-.78-1.85-2.14-1.85Z"/></g><g class="cls-4"><path d="M449.81,773.62h1.66l3.77,8.39h0l3.7-8.39h1.67v10.24h-1.37l.12-8.09h-.06l-3.57,8.09h-1.07l-3.57-7.92h-.06l.12,7.92h-1.37Z"/><path d="M465.94,773.62h1.6l3.81,10.24h-1.43l-1-2.68h-4.5l-1,2.68h-1.37Zm.74,1.43L464.9,780h3.63l-1.79-4.94Z"/><path d="M480.28,782.37h0a3.6,3.6,0,0,1-3.35,1.67,5.3,5.3,0,0,1,.06-10.59,4.28,4.28,0,0,1,4.46,3.21H480a2.89,2.89,0,0,0-3-2c-2.22,0-3.63,1.72-3.63,4s1.47,4,3.57,4c1.71,0,3.27-1,3.27-2.86v-.3H477v-1.19h4.46v5.42h-.89Z"/></g><g class="cls-4"><path d="M544.86,782.37h0a3.6,3.6,0,0,1-3.35,1.67,5.3,5.3,0,0,1,.06-10.59,4.28,4.28,0,0,1,4.46,3.21h-1.42a2.91,2.91,0,0,0-3-2c-2.22,0-3.63,1.72-3.63,4s1.47,4,3.57,4c1.71,0,3.27-1,3.27-2.86v-.3h-3.21v-1.19H546v5.42h-.89Z"/><path d="M548.44,773.62h1.36v10.24h-1.36Z"/><path d="M552.19,773.62h1.36v6.19c0,1.88.88,3,2.74,3s2.74-1.1,2.74-3v-6.19h1.37v6.19c0,3-1.68,4.23-4.11,4.23s-4.1-1.19-4.1-4.23Z"/></g><g class="cls-4"><path d="M618.26,773.62h1.37v9h5v1.19h-6.36Z"/><path d="M625.88,773.62h1.36v6.19c0,1.88.88,3,2.74,3s2.74-1.1,2.74-3v-6.19h1.37v6.19c0,3-1.68,4.23-4.11,4.23s-4.1-1.19-4.1-4.23Z"/><path d="M644.33,782.37h-.05a3.6,3.6,0,0,1-3.35,1.67,5.3,5.3,0,0,1,.06-10.59,4.29,4.29,0,0,1,4.47,3.21H644a2.91,2.91,0,0,0-3-2c-2.21,0-3.63,1.72-3.63,4s1.48,4,3.57,4c1.71,0,3.28-1,3.28-2.86v-.3H641v-1.19h4.47v5.42h-.9Z"/></g><g class="cls-4"><path d="M704.29,773.62h1.61l3.81,10.24h-1.43l-1-2.68h-4.49l-1,2.68h-1.37Zm.75,1.43L703.25,780h3.63l-1.78-4.94Z"/><path d="M718.64,782.37h0a3.6,3.6,0,0,1-3.35,1.67,5.3,5.3,0,0,1,.06-10.59,4.29,4.29,0,0,1,4.47,3.21h-1.43a2.91,2.91,0,0,0-3-2c-2.21,0-3.63,1.72-3.63,4s1.48,4,3.57,4c1.71,0,3.28-1,3.28-2.86v-.3H715.3v-1.19h4.47v5.42h-.9Z"/><path d="M726.55,773.45a5.3,5.3,0,0,1,0,10.59c-3,0-5-2.25-5-5.3S723.56,773.45,726.55,773.45Zm0,9.34c2.16,0,3.57-1.73,3.57-4s-1.41-4-3.57-4-3.57,1.72-3.57,4S724.4,782.79,726.55,782.79Z"/></g><g class="cls-4"><path d="M787.83,780.94c0,1.12,1,2,2.56,2s2.62-.7,2.62-1.91c0-2.7-6.4-.65-6.4-4.58,0-1.74,1.51-3,3.78-3s3.75,1.08,3.75,2.91h-1.37c0-1.13-1-1.78-2.38-1.78s-2.38.58-2.38,1.72c0,2.68,6.43.57,6.43,4.64,0,1.85-1.49,3.1-4.05,3.1s-3.93-1.25-3.93-3.1Z"/><path d="M796.58,773.62h6.91v1.19H798v3.25h4.41v1.19H798v3.42h5.66v1.19h-7Z"/><path d="M804.5,773.62H813v1.16h-3.57v9.08h-1.37v-9.08H804.5Z"/></g><g class="cls-4"><path d="M874,773.45A5.3,5.3,0,0,1,874,784c-3,0-5-2.25-5-5.3S871,773.45,874,773.45Zm0,9.34c2.16,0,3.57-1.73,3.57-4s-1.41-4-3.57-4-3.57,1.72-3.57,4S871.87,782.79,874,782.79Z"/><path d="M879.26,773.62h8.51v1.16H884.2v9.08h-1.37v-9.08h-3.57Z"/><path d="M888,773.62h8.51v1.16H893v9.08h-1.37v-9.08H888Z"/></g><g class="cls-4"><path d="M951.34,773.62h1.31l5.66,7.92h.06l-.06-7.92h1.37v10.24h-1.31L952.71,776h-.06l.06,7.86h-1.37Z"/><path d="M966.64,773.45a5.3,5.3,0,0,1,0,10.59c-3,0-5-2.25-5-5.3S963.65,773.45,966.64,773.45Zm0,9.34c2.16,0,3.57-1.73,3.57-4s-1.41-4-3.57-4-3.57,1.72-3.57,4S964.48,782.79,966.64,782.79Z"/><path d="M972.12,773.62h1.43l3.06,8.81h.06l3.06-8.81h1.37l-3.75,10.24h-1.51Z"/></g><g class="cls-4"><path d="M1036.17,773.62h3.15c3.53,0,5.36,2.13,5.36,5.12s-1.83,5.12-5.36,5.12h-3.15Zm1.37,1.19v7.86h1.78a3.93,3.93,0,0,0,0-7.86Z"/><path d="M1046.65,773.62H1048v10.24h-1.37Z"/><path d="M1054.92,773.45a4.13,4.13,0,0,1,4.34,3.39h-1.41a2.75,2.75,0,0,0-2.93-2.14c-2.1,0-3.51,1.66-3.51,4s1.41,4,3.45,4a2.74,2.74,0,0,0,3-2.14h1.41a4.19,4.19,0,0,1-4.4,3.39c-2.87,0-4.88-2.19-4.88-5.3S1052,773.45,1054.92,773.45Z"/></g><g class="cls-4"><path d="M67.9,760.8c0-3,1-5.29,3.57-5.29S75,757.83,75,760.8s-1,5.3-3.57,5.3S67.9,763.78,67.9,760.8Zm5.77,0c0-2.62-.71-4.1-2.2-4.1s-2.2,1.48-2.2,4.1.71,4.11,2.2,4.11S73.67,763.42,73.67,760.8Z"/></g><g class="cls-4"><path d="M59.69,699.66,63,697.4h1v9.11h2.44v1.13H60v-1.13h2.62V699l-2.38,1.65Z"/><path d="M67.9,702.52c0-3,1-5.3,3.57-5.3s3.57,2.32,3.57,5.3-1,5.3-3.57,5.3S67.9,705.49,67.9,702.52Zm5.77,0c0-2.62-.71-4.11-2.2-4.11s-2.2,1.49-2.2,4.11.71,4.11,2.2,4.11S73.67,705.14,73.67,702.52Z"/></g><g class="cls-4"><path d="M62.13,645l1.13-.77c1.05-.73,1.72-1.13,1.72-2.32a1.75,1.75,0,0,0-1.9-1.79c-1.31,0-2,.72-2.08,2.09H59.81a3,3,0,0,1,3.27-3.22,2.89,2.89,0,0,1,3.21,2.92c0,1.78-1.14,2.42-2.2,3.15l-1.13.78c-1.55,1.05-1.79,1.8-1.85,2.43h5.3v1.14H59.63A4.83,4.83,0,0,1,62.13,645Z"/><path d="M67.9,644.24c0-3,1-5.3,3.57-5.3s3.57,2.32,3.57,5.3-1,5.29-3.57,5.29S67.9,647.21,67.9,644.24Zm5.77,0c0-2.62-.71-4.11-2.2-4.11s-2.2,1.49-2.2,4.11.71,4.1,2.2,4.1S73.67,646.86,73.67,644.24Z"/></g><g class="cls-4"><path d="M60.76,588a2,2,0,0,0,2.2,2.14c1.28,0,2.2-.68,2.2-1.89a2,2,0,0,0-2.2-1.89h-.77v-1.13H63a1.76,1.76,0,0,0,1.84-1.77A1.67,1.67,0,0,0,63,581.79a1.71,1.71,0,0,0-1.85,1.84H59.92a3.07,3.07,0,0,1,6.13-.2,2.61,2.61,0,0,1-1.48,2.29v.06a2.62,2.62,0,0,1,1.9,2.56c0,1.83-1.56,2.91-3.51,2.91s-3.45-1.07-3.45-3.27Z"/><path d="M67.9,586c0-3,1-5.29,3.57-5.29S75,583,75,586s-1,5.3-3.57,5.3S67.9,588.93,67.9,586Zm5.77,0c0-2.61-.71-4.1-2.2-4.1s-2.2,1.49-2.2,4.1.71,4.11,2.2,4.11S73.67,588.57,73.67,586Z"/></g><g class="cls-4"><path d="M59.27,529.28l4.94-6.72h1.07v6.54h1.49v1.13H65.28v2.56H64v-2.56h-4.7Zm4.7-.18v-4.51l-3.36,4.51Z"/><path d="M67.9,527.67c0-3,1-5.29,3.57-5.29S75,524.7,75,527.67s-1,5.3-3.57,5.3S67.9,530.65,67.9,527.67Zm5.77,0c0-2.62-.71-4.1-2.2-4.1s-2.2,1.48-2.2,4.1.71,4.11,2.2,4.11S73.67,530.29,73.67,527.67Z"/></g><g class="cls-4"><path d="M60.82,471.77a2,2,0,0,0,2.2,1.79,2.24,2.24,0,0,0,0-4.47,2.47,2.47,0,0,0-2,1l-1.19-.06.29-5.78h5.78v1.19H61.35l-.18,3.22h.06a2.72,2.72,0,0,1,2-.72,3.16,3.16,0,0,1,3.33,3.28A3.32,3.32,0,0,1,63,474.69a3.17,3.17,0,0,1-3.51-2.92Z"/><path d="M67.9,469.39c0-3,1-5.29,3.57-5.29S75,466.42,75,469.39s-1,5.3-3.57,5.3S67.9,472.37,67.9,469.39Zm5.77,0c0-2.62-.71-4.1-2.2-4.1s-2.2,1.48-2.2,4.1.71,4.11,2.2,4.11S73.67,472,73.67,469.39Z"/></g><g class="cls-4"><path d="M63.38,405.81a2.83,2.83,0,0,1,3.09,2.74H65.16a1.64,1.64,0,0,0-1.78-1.6C62.17,407,61,408,60.88,411a2.93,2.93,0,0,1,2.62-1.36A3.09,3.09,0,0,1,66.71,413a3.31,3.31,0,0,1-3.45,3.4c-2,0-3.75-1.3-3.75-5.06C59.51,407.23,61.43,405.81,63.38,405.81ZM61.06,413a2.14,2.14,0,0,0,2.14,2.25,2.24,2.24,0,0,0,.12-4.47A2.2,2.2,0,0,0,61.06,413Z"/><path d="M67.9,411.11c0-3,1-5.3,3.57-5.3s3.57,2.33,3.57,5.3-1,5.3-3.57,5.3S67.9,414.09,67.9,411.11Zm5.77,0c0-2.62-.71-4.11-2.2-4.11s-2.2,1.49-2.2,4.11.71,4.11,2.2,4.11S73.67,413.73,73.67,411.11Z"/></g><g class="cls-4"><path d="M65.16,348.9H59.57v-1.19h7v1L62.25,358H60.88Z"/><path d="M67.9,352.83c0-3,1-5.3,3.57-5.3s3.57,2.32,3.57,5.3-1,5.3-3.57,5.3S67.9,355.8,67.9,352.83Zm5.77,0c0-2.62-.71-4.11-2.2-4.11s-2.2,1.49-2.2,4.11.71,4.1,2.2,4.1S73.67,355.45,73.67,352.83Z"/></g><g class="cls-4"><path d="M61.35,294.37v-.06A2.49,2.49,0,0,1,59.87,292c0-1.61,1.22-2.77,3.15-2.77s3.15,1.16,3.15,2.77a2.49,2.49,0,0,1-1.48,2.29v.06a2.62,2.62,0,0,1,1.9,2.56c0,1.83-1.44,2.91-3.57,2.91s-3.57-1.08-3.57-2.91A2.62,2.62,0,0,1,61.35,294.37ZM63,298.71c1.32,0,2.26-.68,2.26-1.89a2.3,2.3,0,0,0-4.52,0C60.76,298,61.7,298.71,63,298.71Zm1.9-6.68a1.92,1.92,0,0,0-3.81,0,1.91,1.91,0,0,0,3.81,0Z"/><path d="M67.9,294.55c0-3,1-5.3,3.57-5.3s3.57,2.32,3.57,5.3-1,5.29-3.57,5.29S67.9,297.52,67.9,294.55Zm5.77,0c0-2.62-.71-4.11-2.2-4.11s-2.2,1.49-2.2,4.11.71,4.1,2.2,4.1S73.67,297.16,73.67,294.55Z"/></g><g class="cls-4"><path d="M62.78,241.56a2.94,2.94,0,0,1-3.21-2.74h1.31a1.79,1.79,0,0,0,1.9,1.61c1.38,0,2.32-1.06,2.38-4.08a3,3,0,0,1-2.62,1.34,3.09,3.09,0,0,1-3.21-3.33A3.3,3.3,0,0,1,62.78,231c2,0,3.75,1.29,3.75,5.06C66.53,240.15,64.91,241.56,62.78,241.56Zm2.2-7.22a2.17,2.17,0,1,0-4.34,0,2.1,2.1,0,0,0,2.08,2.2A2.19,2.19,0,0,0,65,234.34Z"/><path d="M67.9,236.26c0-3,1-5.29,3.57-5.29S75,233.29,75,236.26s-1,5.3-3.57,5.3S67.9,239.24,67.9,236.26Zm5.77,0c0-2.61-.71-4.1-2.2-4.1s-2.2,1.49-2.2,4.1.71,4.11,2.2,4.11S73.67,238.88,73.67,236.26Z"/></g><g class="cls-4"><path d="M51.23,175.13l3.28-2.27h1V182H58v1.13H51.59V182h2.62v-7.48l-2.38,1.65Z"/><path d="M59.45,178c0-3,1-5.29,3.57-5.29S66.59,175,66.59,178s-1,5.3-3.57,5.3S59.45,181,59.45,178Zm5.77,0c0-2.62-.71-4.1-2.2-4.1s-2.2,1.48-2.2,4.1.71,4.11,2.2,4.11S65.22,180.6,65.22,178Z"/><path d="M67.9,178c0-3,1-5.29,3.57-5.29S75,175,75,178s-1,5.3-3.57,5.3S67.9,181,67.9,178Zm5.77,0c0-2.62-.71-4.1-2.2-4.1s-2.2,1.48-2.2,4.1.71,4.11,2.2,4.11S73.67,180.6,73.67,178Z"/></g><g class="cls-4"><path class="cls-2" d="M1107.23,760.8c0-3,1-5.29,3.57-5.29s3.57,2.32,3.57,5.29-1,5.3-3.57,5.3S1107.23,763.78,1107.23,760.8Zm5.77,0c0-2.62-.71-4.1-2.2-4.1s-2.2,1.48-2.2,4.1.71,4.11,2.2,4.11S1113,763.42,1113,760.8Z"/></g><g class="cls-4"><path class="cls-2" d="M1107.47,699.66l3.27-2.26h1v9.11h2.44v1.13h-6.36v-1.13h2.61V699l-2.38,1.65Z"/><path class="cls-2" d="M1115.68,702.52c0-3,1-5.3,3.57-5.3s3.57,2.32,3.57,5.3-1,5.3-3.57,5.3S1115.68,705.49,1115.68,702.52Zm5.78,0c0-2.62-.72-4.11-2.21-4.11s-2.2,1.49-2.2,4.11.72,4.11,2.2,4.11S1121.46,705.14,1121.46,702.52Z"/></g><g class="cls-4"><path class="cls-2" d="M1109.91,645l1.13-.77c1.06-.73,1.72-1.13,1.72-2.32a1.75,1.75,0,0,0-1.9-1.79c-1.31,0-2,.72-2.08,2.09h-1.19a3,3,0,0,1,3.27-3.22c1.88,0,3.21,1.09,3.21,2.92s-1.14,2.42-2.2,3.15l-1.13.78c-1.55,1.05-1.78,1.8-1.84,2.43h5.29v1.14h-6.78A4.85,4.85,0,0,1,1109.91,645Z"/><path class="cls-2" d="M1115.68,644.24c0-3,1-5.3,3.57-5.3s3.57,2.32,3.57,5.3-1,5.29-3.57,5.29S1115.68,647.21,1115.68,644.24Zm5.78,0c0-2.62-.72-4.11-2.21-4.11s-2.2,1.49-2.2,4.11.72,4.1,2.2,4.1S1121.46,646.86,1121.46,644.24Z"/></g><g class="cls-4"><path class="cls-2" d="M1108.54,588a2,2,0,0,0,2.2,2.14c1.28,0,2.2-.68,2.2-1.89a2,2,0,0,0-2.2-1.89H1110v-1.13h.77a1.77,1.77,0,0,0,1.85-1.77,1.67,1.67,0,0,0-1.85-1.65,1.7,1.7,0,0,0-1.84,1.84h-1.19a3.07,3.07,0,0,1,6.13-.2,2.62,2.62,0,0,1-1.49,2.29v.06a2.62,2.62,0,0,1,1.9,2.56c0,1.83-1.56,2.91-3.51,2.91s-3.45-1.07-3.45-3.27Z"/><path class="cls-2" d="M1115.68,586c0-3,1-5.29,3.57-5.29s3.57,2.32,3.57,5.29-1,5.3-3.57,5.3S1115.68,588.93,1115.68,586Zm5.78,0c0-2.61-.72-4.1-2.21-4.1s-2.2,1.49-2.2,4.1.72,4.11,2.2,4.11S1121.46,588.57,1121.46,586Z"/></g><g class="cls-4"><path class="cls-2" d="M1107.05,529.28l4.94-6.72h1.07v6.54h1.49v1.13h-1.49v2.56h-1.31v-2.56h-4.7Zm4.7-.18v-4.51l-3.36,4.51Z"/><path class="cls-2" d="M1115.68,527.67c0-3,1-5.29,3.57-5.29s3.57,2.32,3.57,5.29-1,5.3-3.57,5.3S1115.68,530.65,1115.68,527.67Zm5.78,0c0-2.62-.72-4.1-2.21-4.1s-2.2,1.48-2.2,4.1.72,4.11,2.2,4.11S1121.46,530.29,1121.46,527.67Z"/></g><g class="cls-4"><path class="cls-2" d="M1108.6,471.77a2,2,0,0,0,2.2,1.79,2.24,2.24,0,0,0,0-4.47,2.47,2.47,0,0,0-2,1l-1.19-.06.29-5.78h5.78v1.19h-4.59l-.17,3.22h.06a2.67,2.67,0,0,1,2-.72,3.16,3.16,0,0,1,3.33,3.28,3.32,3.32,0,0,1-3.51,3.45,3.17,3.17,0,0,1-3.51-2.92Z"/><path class="cls-2" d="M1115.68,469.39c0-3,1-5.29,3.57-5.29s3.57,2.32,3.57,5.29-1,5.3-3.57,5.3S1115.68,472.37,1115.68,469.39Zm5.78,0c0-2.62-.72-4.1-2.21-4.1s-2.2,1.48-2.2,4.1.72,4.11,2.2,4.11S1121.46,472,1121.46,469.39Z"/></g><g class="cls-4"><path class="cls-2" d="M1111.16,405.81a2.83,2.83,0,0,1,3.09,2.74h-1.31a1.64,1.64,0,0,0-1.78-1.6c-1.21,0-2.43,1.05-2.5,4.09a3,3,0,0,1,2.62-1.36,3.09,3.09,0,0,1,3.21,3.33,3.31,3.31,0,0,1-3.45,3.4c-2,0-3.75-1.3-3.75-5.06C1107.29,407.23,1109.21,405.81,1111.16,405.81Zm-2.32,7.22a2.14,2.14,0,0,0,2.14,2.25,2.24,2.24,0,0,0,.12-4.47A2.2,2.2,0,0,0,1108.84,413Z"/><path class="cls-2" d="M1115.68,411.11c0-3,1-5.3,3.57-5.3s3.57,2.33,3.57,5.3-1,5.3-3.57,5.3S1115.68,414.09,1115.68,411.11Zm5.78,0c0-2.62-.72-4.11-2.21-4.11s-2.2,1.49-2.2,4.11.72,4.11,2.2,4.11S1121.46,413.73,1121.46,411.11Z"/></g><g class="cls-4"><path class="cls-2" d="M1112.94,348.9h-5.59v-1.19h7v1L1110,358h-1.37Z"/><path class="cls-2" d="M1115.68,352.83c0-3,1-5.3,3.57-5.3s3.57,2.32,3.57,5.3-1,5.3-3.57,5.3S1115.68,355.8,1115.68,352.83Zm5.78,0c0-2.62-.72-4.11-2.21-4.11s-2.2,1.49-2.2,4.11.72,4.1,2.2,4.1S1121.46,355.45,1121.46,352.83Z"/></g><g class="cls-4"><path class="cls-2" d="M1109.13,294.37v-.06a2.49,2.49,0,0,1-1.48-2.29c0-1.61,1.22-2.77,3.15-2.77s3.16,1.16,3.16,2.77a2.5,2.5,0,0,1-1.49,2.29v.06a2.62,2.62,0,0,1,1.9,2.56c0,1.83-1.44,2.91-3.57,2.91s-3.57-1.08-3.57-2.91A2.62,2.62,0,0,1,1109.13,294.37Zm1.67,4.34c1.33,0,2.26-.68,2.26-1.89a2.3,2.3,0,0,0-4.52,0C1108.54,298,1109.48,298.71,1110.8,298.71Zm1.91-6.68a1.92,1.92,0,0,0-3.81,0,1.91,1.91,0,0,0,3.81,0Z"/><path class="cls-2" d="M1115.68,294.55c0-3,1-5.3,3.57-5.3s3.57,2.32,3.57,5.3-1,5.29-3.57,5.29S1115.68,297.52,1115.68,294.55Zm5.78,0c0-2.62-.72-4.11-2.21-4.11s-2.2,1.49-2.2,4.11.72,4.1,2.2,4.1S1121.46,297.16,1121.46,294.55Z"/></g><g class="cls-4"><path class="cls-2" d="M1110.56,241.56a2.94,2.94,0,0,1-3.21-2.74h1.31a1.79,1.79,0,0,0,1.9,1.61c1.39,0,2.32-1.06,2.38-4.08a3,3,0,0,1-2.62,1.34,3.09,3.09,0,0,1-3.21-3.33,3.3,3.3,0,0,1,3.45-3.39c2,0,3.75,1.29,3.75,5.06C1114.31,240.15,1112.69,241.56,1110.56,241.56Zm2.2-7.22a2.17,2.17,0,1,0-4.34,0,2.1,2.1,0,0,0,2.08,2.2A2.19,2.19,0,0,0,1112.76,234.34Z"/><path class="cls-2" d="M1115.68,236.26c0-3,1-5.29,3.57-5.29s3.57,2.32,3.57,5.29-1,5.3-3.57,5.3S1115.68,239.24,1115.68,236.26Zm5.78,0c0-2.61-.72-4.1-2.21-4.1s-2.2,1.49-2.2,4.1.72,4.11,2.2,4.11S1121.46,238.88,1121.46,236.26Z"/></g><g class="cls-4"><path class="cls-2" d="M1107.47,175.13l3.27-2.27h1V182h2.44v1.13h-6.36V182h2.61v-7.48l-2.38,1.65Z"/><path class="cls-2" d="M1115.68,178c0-3,1-5.29,3.57-5.29s3.57,2.32,3.57,5.29-1,5.3-3.57,5.3S1115.68,181,1115.68,178Zm5.78,0c0-2.62-.72-4.1-2.21-4.1s-2.2,1.48-2.2,4.1.72,4.11,2.2,4.11S1121.46,180.6,1121.46,178Z"/><path class="cls-2" d="M1124.13,178c0-3,1-5.29,3.58-5.29s3.57,2.32,3.57,5.29-1,5.3-3.57,5.3S1124.13,181,1124.13,178Zm5.78,0c0-2.62-.72-4.1-2.2-4.1s-2.21,1.48-2.21,4.1.72,4.11,2.21,4.11S1129.91,180.6,1129.91,178Z"/></g><path class="cls-2" d="M1104.52,124.3h1.57v1.34h.07a2.86,2.86,0,0,1,2.75-1.56,2.79,2.79,0,0,1,2.83,1.84,3,3,0,0,1,3-1.84c1.71,0,3.13,1,3.13,3.64v5.66h-1.64v-5.44c0-1.78-.6-2.45-1.86-2.45s-2.38,1.21-2.38,3.16v4.73h-1.64v-5.44c0-1.78-.67-2.45-1.86-2.45s-2.38,1.21-2.38,3.18v4.71h-1.64Z"/><path class="cls-2" d="M1120.59,124.3h1.57v1.34h.07a2.86,2.86,0,0,1,2.75-1.56,2.79,2.79,0,0,1,2.83,1.84,3,3,0,0,1,3-1.84c1.71,0,3.13,1,3.13,3.64v5.66h-1.64v-5.44c0-1.78-.6-2.45-1.86-2.45s-2.38,1.21-2.38,3.16v4.73h-1.64v-5.44c0-1.78-.67-2.45-1.86-2.45s-2.38,1.21-2.38,3.18v4.71h-1.64Z"/><path d="M42.79,136.05v1.42H41.15V124.3h1.64v5.28c0,1.94.74,2.61,2.08,2.61s2.38-1.27,2.38-3.2V124.3h1.64v9.08H47.33V132h-.08a2.79,2.79,0,0,1-2.75,1.56,3.23,3.23,0,0,1-1.82-.52h-.12A20.43,20.43,0,0,1,42.79,136.05Z"/><path d="M52.83,134.49c0,1.12,1,1.79,2.46,1.79,1.6,0,2.9-.8,2.9-3.35v-1h-.08a3.17,3.17,0,0,1-3,1.64c-2.3,0-4-1.71-4-4.69s1.86-4.83,4.16-4.83a3,3,0,0,1,2.9,1.63h.08V124.3h1.56v8.63c0,3.44-2,4.69-4.46,4.69-2.27,0-4-1.08-4-3.13Zm2.61-2.3c1.48,0,2.67-1.19,2.67-3.35s-1.19-3.35-2.67-3.35-2.68,1.26-2.68,3.42S54,132.19,55.44,132.19Z"/><path d="M67,120.36h1.42L62.73,133.6H61.31Z"/><path d="M68.68,124.3h1.56v1.34h.08a2.86,2.86,0,0,1,2.75-1.56,2.79,2.79,0,0,1,2.83,1.84,3,3,0,0,1,3-1.84c1.71,0,3.12,1,3.12,3.64v5.66H80.44v-5.44c0-1.78-.6-2.45-1.86-2.45s-2.39,1.21-2.39,3.16v4.73H74.56v-5.44c0-1.78-.67-2.45-1.86-2.45s-2.38,1.21-2.38,3.18v4.71H68.68Z"/><path d="M84.77,124.92a1.46,1.46,0,0,0,1.61,1.57c.93,0,1.6-.5,1.6-1.38a1.45,1.45,0,0,0-1.6-1.38h-.57v-.82h.57a1.29,1.29,0,0,0,1.34-1.29,1.22,1.22,0,0,0-1.34-1.21A1.25,1.25,0,0,0,85,121.76h-.87a2.06,2.06,0,0,1,2.22-2.17,2,2,0,0,1,2.25,2,1.91,1.91,0,0,1-1.08,1.67v0a1.92,1.92,0,0,1,1.39,1.87c0,1.33-1.14,2.12-2.56,2.12a2.24,2.24,0,0,1-2.52-2.39Z"/></g><g id="info_1"><g class="cls-5"><circle class="cls-3" cx="1044.63" cy="230.17" r="10.4"/></g></g></svg>