<?xml version="1.0" encoding="utf-8"?>
<!-- Generator: Adobe Illustrator 26.2.1, SVG Export Plug-In . SVG Version: 6.00 Build 0)  -->
<svg version="1.1" id="Livello_1" xmlns="http://www.w3.org/2000/svg" xmlns:xlink="http://www.w3.org/1999/xlink" x="0px" y="0px"
	 viewBox="0 0 999.1 1710.8" style="enable-background:new 0 0 999.1 1710.8;" xml:space="preserve">
<style type="text/css">
	.st0{fill:#EEEEEE;}
	.st1{fill:#B7B7B7;}
	.st2{fill:#EA4D27;}
	.st3{fill:#B9F6FC;}
	.st4{opacity:0.2;}
	.st5{opacity:0.7;fill:#FFFFFF;enable-background:new    ;}
	.st6{fill:none;stroke:#E84D27;stroke-miterlimit:10;}
	.st7{fill:#FF3A00;}
</style>
<g id="Layer_1">
	<rect x="52.7" y="1134.6" class="st0" width="934.1" height="282.3"/>
	<rect x="52.7" y="86.5" class="st0" width="934.1" height="382.8"/>
	<path class="st1" d="M52.3,199.3c0-0.2,0.2-0.4,0.4-0.4c0,0,0,0,0,0l0,0h934.1c0.2,0,0.4,0.1,0.5,0.4c0,0,0,0,0,0l0,0
		c0,0.2-0.2,0.4-0.5,0.4c0,0,0,0,0,0h-934C52.6,199.7,52.3,199.6,52.3,199.3L52.3,199.3z"/>
	<path class="st1" d="M52.3,301.6c0-0.2,0.2-0.4,0.4-0.4c0,0,0,0,0,0h934.1c0.2,0,0.4,0.2,0.5,0.4c0,0,0,0,0,0
		c0,0.2-0.2,0.4-0.4,0.4c0,0,0,0,0,0h-934C52.6,302.1,52.4,301.9,52.3,301.6C52.3,301.7,52.3,301.7,52.3,301.6z"/>
	<path class="st1" d="M52.3,415c0-0.2,0.2-0.4,0.4-0.4c0,0,0,0,0,0h934.1c0.2,0,0.4,0.2,0.4,0.4c0,0.2-0.2,0.4-0.4,0.4c0,0,0,0,0,0
		h-934C52.6,415.4,52.3,415.3,52.3,415C52.3,415.1,52.3,415,52.3,415z"/>
	<path class="st1" d="M52.3,524.6c0-0.2,0.2-0.4,0.4-0.4c0,0,0,0,0,0h934.1c0.2,0,0.4,0.2,0.4,0.4c0,0.2-0.2,0.4-0.4,0.4
		c0,0,0,0,0,0h-934C52.6,525.1,52.3,524.9,52.3,524.6C52.3,524.7,52.3,524.7,52.3,524.6z"/>
	<path class="st1" d="M52.3,638c0-0.2,0.2-0.4,0.4-0.4c0,0,0,0,0,0h934.1c0.2,0,0.4,0.1,0.5,0.4c0,0,0,0,0,0l0,0
		c0,0.2-0.2,0.4-0.5,0.4c0,0,0,0,0,0h-934C52.6,638.4,52.3,638.3,52.3,638L52.3,638z"/>
	<path class="st1" d="M52.3,747.6c0-0.2,0.2-0.4,0.5-0.4c0,0,0,0,0,0h934.1c0.2,0,0.4,0.2,0.5,0.4c0,0,0,0,0,0
		c0,0.2-0.2,0.4-0.4,0.4c0,0,0,0,0,0h-934C52.6,748,52.4,747.9,52.3,747.6C52.3,747.7,52.3,747.6,52.3,747.6z"/>
	<path class="st1" d="M52.3,860.9c0-0.2,0.2-0.4,0.4-0.4c0,0,0,0,0,0h934.1c0.2,0,0.4,0.2,0.5,0.4c0,0.2-0.2,0.4-0.5,0.4h-934
		C52.6,861.4,52.4,861.3,52.3,860.9C52.3,861,52.3,861,52.3,860.9z"/>
	<path class="st1" d="M52.3,974.2c0-0.2,0.2-0.4,0.4-0.4c0,0,0,0,0,0h934.1c0.2,0,0.4,0.1,0.5,0.4c0,0,0,0,0,0l0,0
		c0,0.2-0.2,0.4-0.5,0.4c0,0,0,0,0,0h-934C52.6,974.7,52.3,974.5,52.3,974.2L52.3,974.2z"/>
	<path class="st1" d="M52.3,1083.9c0-0.2,0.2-0.4,0.4-0.4c0,0,0,0,0,0h934.1c0.2,0,0.4,0.1,0.5,0.4c0,0,0,0,0,0l0,0
		c0,0.2-0.2,0.4-0.5,0.4c0,0,0,0,0,0h-934C52.6,1084.3,52.3,1084.2,52.3,1083.9L52.3,1083.9z"/>
	<path class="st1" d="M52.3,1197.2c0-0.2,0.2-0.4,0.4-0.4c0,0,0,0,0,0h934.1c0.2,0,0.4,0.2,0.5,0.4c0,0,0,0,0,0
		c0,0.2-0.2,0.4-0.5,0.4h-934C52.6,1197.7,52.4,1197.5,52.3,1197.2C52.3,1197.3,52.3,1197.2,52.3,1197.2z"/>
	<path class="st1" d="M52.3,1306.9c0-0.2,0.2-0.4,0.4-0.4c0,0,0,0,0,0h934.1c0.2,0,0.4,0.2,0.5,0.4c0,0.2-0.2,0.4-0.5,0.4h-934
		C52.6,1307.3,52.4,1307.2,52.3,1306.9C52.3,1306.9,52.3,1306.9,52.3,1306.9z"/>
	<path class="st1" d="M52.3,86c0-0.2,0.2-0.4,0.4-0.4c0,0,0,0,0,0h934.1c0.2,0,0.4,0.2,0.5,0.4c0,0.2-0.2,0.4-0.5,0.4c0,0,0,0,0,0
		h-934C52.6,86.4,52.4,86.3,52.3,86C52.3,86.1,52.3,86,52.3,86z"/>
	<path class="st1" d="M52.3,1416.5c0-0.2,0.2-0.4,0.4-0.4c0,0,0,0,0,0h934.1c0.2,0,0.4,0.2,0.5,0.4c0,0.2-0.2,0.4-0.5,0.4h-934
		C52.6,1417,52.3,1416.8,52.3,1416.5C52.3,1416.6,52.3,1416.6,52.3,1416.5z"/>
	<ellipse cx="443.5" cy="86" rx="4.6" ry="4"/>
	<ellipse cx="483.7" cy="301.6" rx="4.6" ry="4"/>
	<ellipse cx="202.9" cy="524.6" rx="4.6" ry="4"/>
	<ellipse cx="273.1" cy="638" rx="4.6" ry="4"/>
	<ellipse cx="363.4" cy="747.6" rx="4.6" ry="4"/>
	<ellipse cx="403.5" cy="860.9" rx="4.6" ry="4"/>
	<ellipse cx="473.6" cy="974.2" rx="4.6" ry="4"/>
	<ellipse cx="483.7" cy="1083.9" rx="4.6" ry="4"/>
	<ellipse cx="383.4" cy="133.5" rx="4.6" ry="4"/>
	<ellipse cx="303.2" cy="137.1" rx="4.6" ry="4"/>
	<ellipse cx="443.5" cy="140.8" rx="4.6" ry="4"/>
	<ellipse cx="383.4" cy="144.5" rx="4.6" ry="4"/>
	<ellipse cx="233" cy="148.1" rx="4.6" ry="4"/>
	<ellipse cx="202.9" cy="151.8" rx="4.6" ry="4"/>
	<ellipse cx="323.2" cy="155.4" rx="4.6" ry="4"/>
	<ellipse cx="333.3" cy="159.1" rx="4.6" ry="4"/>
	<ellipse cx="293.2" cy="162.7" rx="4.6" ry="4"/>
	<ellipse cx="263.1" cy="166.4" rx="4.6" ry="4"/>
	<ellipse cx="202.9" cy="170" rx="4.6" ry="4"/>
	<ellipse cx="223" cy="173.7" rx="4.6" ry="4"/>
	<ellipse cx="212.9" cy="177.3" rx="4.6" ry="4"/>
	<ellipse cx="423.5" cy="181" rx="4.6" ry="4"/>
	<ellipse cx="142.8" cy="184.7" rx="4.6" ry="4"/>
	<ellipse cx="313.2" cy="188.3" rx="4.6" ry="4"/>
	<ellipse cx="253.1" cy="192" rx="4.6" ry="4"/>
	<ellipse cx="273.1" cy="195.6" rx="4.6" ry="4"/>
	<ellipse cx="273.1" cy="89.6" rx="4.6" ry="4"/>
	<ellipse cx="293.2" cy="202.9" rx="4.6" ry="4"/>
	<ellipse cx="223" cy="305.3" rx="4.6" ry="4"/>
	<ellipse cx="283.1" cy="418.6" rx="4.6" ry="4"/>
	<ellipse cx="333.3" cy="528.3" rx="4.6" ry="4"/>
	<ellipse cx="243" cy="641.6" rx="4.6" ry="4"/>
	<ellipse cx="212.9" cy="751.3" rx="4.6" ry="4"/>
	<ellipse cx="243" cy="864.6" rx="4.6" ry="4"/>
	<ellipse cx="182.9" cy="977.9" rx="4.6" ry="4"/>
	<ellipse cx="192.9" cy="1087.6" rx="4.6" ry="4"/>
	<ellipse cx="243" cy="1200.9" rx="4.6" ry="4"/>
	<ellipse cx="293.2" cy="1310.5" rx="4.6" ry="4"/>
	<ellipse cx="253.1" cy="243.2" rx="4.6" ry="4"/>
	<ellipse cx="393.4" cy="246.8" rx="4.6" ry="4"/>
	<ellipse cx="423.5" cy="261.4" rx="4.6" ry="4"/>
	<ellipse cx="493.7" cy="265.1" rx="4.6" ry="4"/>
	<ellipse cx="223" cy="268.8" rx="4.6" ry="4"/>
	<ellipse cx="283.1" cy="272.4" rx="4.6" ry="4"/>
	<ellipse cx="192.9" cy="276.1" rx="4.6" ry="4"/>
	<ellipse cx="202.9" cy="279.7" rx="4.6" ry="4"/>
	<ellipse cx="253.1" cy="283.4" rx="4.6" ry="4"/>
	<ellipse cx="283.1" cy="287" rx="4.6" ry="4"/>
	<ellipse cx="192.9" cy="290.7" rx="4.6" ry="4"/>
	<ellipse cx="343.3" cy="294.3" rx="4.6" ry="4"/>
	<ellipse cx="102.7" cy="298" rx="4.6" ry="4"/>
	<ellipse cx="172.8" cy="93.3" rx="4.6" ry="4"/>
	<ellipse cx="122.7" cy="206.6" rx="4.6" ry="4"/>
	<ellipse cx="243" cy="309" rx="4.6" ry="4"/>
	<ellipse cx="202.9" cy="422.3" rx="4.6" ry="4"/>
	<ellipse cx="313.2" cy="531.9" rx="4.6" ry="4"/>
	<ellipse cx="343.3" cy="645.2" rx="4.6" ry="4"/>
	<ellipse cx="403.5" cy="754.9" rx="4.6" ry="4"/>
	<ellipse cx="423.5" cy="868.2" rx="4.6" ry="4"/>
	<ellipse cx="353.3" cy="981.5" rx="4.6" ry="4"/>
	<ellipse cx="443.5" cy="1091.2" rx="4.6" ry="4"/>
	<ellipse cx="443.5" cy="1204.5" rx="4.6" ry="4"/>
	<ellipse cx="423.5" cy="1314.2" rx="4.6" ry="4"/>
	<ellipse cx="453.6" cy="352.8" rx="4.6" ry="4"/>
	<ellipse cx="483.7" cy="367.4" rx="4.6" ry="4"/>
	<ellipse cx="263.1" cy="378.4" rx="4.6" ry="4"/>
	<ellipse cx="92.6" cy="382.1" rx="4.6" ry="4"/>
	<ellipse cx="112.7" cy="385.7" rx="4.6" ry="4"/>
	<ellipse cx="192.9" cy="389.4" rx="4.6" ry="4"/>
	<ellipse cx="233" cy="393" rx="4.6" ry="4"/>
	<ellipse cx="333.3" cy="396.7" rx="4.6" ry="4"/>
	<ellipse cx="383.4" cy="400.3" rx="4.6" ry="4"/>
	<ellipse cx="333.3" cy="404" rx="4.6" ry="4"/>
	<ellipse cx="343.3" cy="407.6" rx="4.6" ry="4"/>
	<ellipse cx="343.3" cy="411.3" rx="4.6" ry="4"/>
	<ellipse cx="253.1" cy="96.9" rx="4.6" ry="4"/>
	<ellipse cx="363.4" cy="210.3" rx="4.6" ry="4"/>
	<ellipse cx="453.6" cy="312.6" rx="4.6" ry="4"/>
	<ellipse cx="303.2" cy="425.9" rx="4.6" ry="4"/>
	<ellipse cx="323.2" cy="535.6" rx="4.6" ry="4"/>
	<ellipse cx="333.3" cy="648.9" rx="4.6" ry="4"/>
	<ellipse cx="373.4" cy="758.6" rx="4.6" ry="4"/>
	<ellipse cx="293.2" cy="871.9" rx="4.6" ry="4"/>
	<ellipse cx="212.9" cy="985.2" rx="4.6" ry="4"/>
	<ellipse cx="202.9" cy="1094.9" rx="4.6" ry="4"/>
	<ellipse cx="293.2" cy="1208.2" rx="4.6" ry="4"/>
	<ellipse cx="283.1" cy="1317.8" rx="4.6" ry="4"/>
	<ellipse cx="293.2" cy="458.8" rx="4.6" ry="4"/>
	<ellipse cx="243" cy="462.5" rx="4.6" ry="4"/>
	<ellipse cx="223" cy="466.1" rx="4.6" ry="4"/>
	<ellipse cx="172.8" cy="469.8" rx="4.6" ry="4"/>
	<ellipse cx="182.9" cy="473.5" rx="4.6" ry="4"/>
	<ellipse cx="212.9" cy="477.1" rx="4.6" ry="4"/>
	<ellipse cx="223" cy="480.8" rx="4.6" ry="4"/>
	<ellipse cx="182.9" cy="484.4" rx="4.6" ry="4"/>
	<ellipse cx="283.1" cy="488.1" rx="4.6" ry="4"/>
	<ellipse cx="353.3" cy="491.7" rx="4.6" ry="4"/>
	<ellipse cx="263.1" cy="495.4" rx="4.6" ry="4"/>
	<ellipse cx="243" cy="499" rx="4.6" ry="4"/>
	<ellipse cx="182.9" cy="502.7" rx="4.6" ry="4"/>
	<ellipse cx="172.8" cy="506.3" rx="4.6" ry="4"/>
	<ellipse cx="192.9" cy="510" rx="4.6" ry="4"/>
	<ellipse cx="152.8" cy="513.7" rx="4.6" ry="4"/>
	<ellipse cx="162.8" cy="517.3" rx="4.6" ry="4"/>
	<ellipse cx="182.9" cy="521" rx="4.6" ry="4"/>
	<ellipse cx="152.8" cy="100.6" rx="4.6" ry="4"/>
	<ellipse cx="212.9" cy="213.9" rx="4.6" ry="4"/>
	<ellipse cx="172.8" cy="316.3" rx="4.6" ry="4"/>
	<ellipse cx="162.8" cy="429.6" rx="4.6" ry="4"/>
	<ellipse cx="233" cy="539.2" rx="4.6" ry="4"/>
	<ellipse cx="233" cy="652.6" rx="4.6" ry="4"/>
	<ellipse cx="182.9" cy="762.2" rx="4.6" ry="4"/>
	<ellipse cx="182.9" cy="875.5" rx="4.6" ry="4"/>
	<ellipse cx="192.9" cy="988.9" rx="4.6" ry="4"/>
	<ellipse cx="192.9" cy="1098.5" rx="4.6" ry="4"/>
	<ellipse cx="162.8" cy="1211.8" rx="4.6" ry="4"/>
	<ellipse cx="182.9" cy="1321.5" rx="4.6" ry="4"/>
	<ellipse cx="162.8" cy="568.5" rx="4.6" ry="4"/>
	<ellipse cx="162.8" cy="572.1" rx="4.6" ry="4"/>
	<ellipse cx="152.8" cy="575.8" rx="4.6" ry="4"/>
	<ellipse cx="172.8" cy="579.5" rx="4.6" ry="4"/>
	<ellipse cx="152.8" cy="583.1" rx="4.6" ry="4"/>
	<ellipse cx="132.7" cy="586.8" rx="4.6" ry="4"/>
	<ellipse cx="202.9" cy="590.4" rx="4.6" ry="4"/>
	<ellipse cx="263.1" cy="594.1" rx="4.6" ry="4"/>
	<ellipse cx="253.1" cy="597.7" rx="4.6" ry="4"/>
	<ellipse cx="383.4" cy="601.4" rx="4.6" ry="4"/>
	<ellipse cx="303.2" cy="605" rx="4.6" ry="4"/>
	<ellipse cx="162.8" cy="608.7" rx="4.6" ry="4"/>
	<ellipse cx="182.9" cy="612.3" rx="4.6" ry="4"/>
	<ellipse cx="243" cy="616" rx="4.6" ry="4"/>
	<ellipse cx="152.8" cy="619.7" rx="4.6" ry="4"/>
	<ellipse cx="142.8" cy="623.3" rx="4.6" ry="4"/>
	<ellipse cx="172.8" cy="627" rx="4.6" ry="4"/>
	<ellipse cx="192.9" cy="630.6" rx="4.6" ry="4"/>
	<ellipse cx="162.8" cy="634.3" rx="4.6" ry="4"/>
	<ellipse cx="152.8" cy="104.3" rx="4.6" ry="4"/>
	<ellipse cx="162.8" cy="217.6" rx="4.6" ry="4"/>
	<ellipse cx="182.9" cy="319.9" rx="4.6" ry="4"/>
	<ellipse cx="172.8" cy="433.2" rx="4.6" ry="4"/>
	<ellipse cx="182.9" cy="542.9" rx="4.6" ry="4"/>
	<ellipse cx="233" cy="656.2" rx="4.6" ry="4"/>
	<ellipse cx="253.1" cy="765.9" rx="4.6" ry="4"/>
	<ellipse cx="223" cy="696.4" rx="4.6" ry="4"/>
	<ellipse cx="243" cy="700.1" rx="4.6" ry="4"/>
	<ellipse cx="253.1" cy="703.7" rx="4.6" ry="4"/>
	<ellipse cx="223" cy="707.4" rx="4.6" ry="4"/>
	<ellipse cx="253.1" cy="711" rx="4.6" ry="4"/>
	<ellipse cx="223" cy="714.7" rx="4.6" ry="4"/>
	<ellipse cx="212.9" cy="718.3" rx="4.6" ry="4"/>
	<ellipse cx="293.2" cy="722" rx="4.6" ry="4"/>
	<ellipse cx="253.1" cy="725.7" rx="4.6" ry="4"/>
	<ellipse cx="212.9" cy="729.3" rx="4.6" ry="4"/>
	<ellipse cx="212.9" cy="733" rx="4.6" ry="4"/>
	<ellipse cx="223" cy="107.9" rx="4.6" ry="4"/>
	<ellipse cx="233" cy="221.2" rx="4.6" ry="4"/>
	<ellipse cx="253.1" cy="323.6" rx="4.6" ry="4"/>
	<ellipse cx="243" cy="436.9" rx="4.6" ry="4"/>
	<ellipse cx="253.1" cy="546.5" rx="4.6" ry="4"/>
	<ellipse cx="192.9" cy="659.9" rx="4.6" ry="4"/>
	<ellipse cx="172.8" cy="769.5" rx="4.6" ry="4"/>
	<ellipse cx="152.8" cy="882.8" rx="4.6" ry="4"/>
	<ellipse cx="142.8" cy="996.2" rx="4.6" ry="4"/>
	<ellipse cx="142.8" cy="1105.8" rx="4.6" ry="4"/>
	<ellipse cx="192.9" cy="1219.1" rx="4.6" ry="4"/>
	<path d="M187.5,1328.8c0,2.2-2.1,4-4.6,4s-4.6-1.8-4.6-4s2.1-4,4.6-4S187.5,1326.6,187.5,1328.8z"/>
	<ellipse cx="152.8" cy="791.5" rx="4.6" ry="4"/>
	<ellipse cx="212.9" cy="795.1" rx="4.6" ry="4"/>
	<ellipse cx="202.9" cy="798.8" rx="4.6" ry="4"/>
	<ellipse cx="233" cy="802.4" rx="4.6" ry="4"/>
	<ellipse cx="243" cy="806.1" rx="4.6" ry="4"/>
	<ellipse cx="253.1" cy="809.8" rx="4.6" ry="4"/>
	<ellipse cx="253.1" cy="813.4" rx="4.6" ry="4"/>
	<ellipse cx="182.9" cy="817.1" rx="4.6" ry="4"/>
	<ellipse cx="162.8" cy="820.7" rx="4.6" ry="4"/>
	<ellipse cx="172.8" cy="824.4" rx="4.6" ry="4"/>
	<ellipse cx="243" cy="828" rx="4.6" ry="4"/>
	<ellipse cx="212.9" cy="831.7" rx="4.6" ry="4"/>
	<ellipse cx="263.1" cy="835.3" rx="4.6" ry="4"/>
	<ellipse cx="253.1" cy="839" rx="4.6" ry="4"/>
	<ellipse cx="152.8" cy="842.6" rx="4.6" ry="4"/>
	<ellipse cx="162.8" cy="846.3" rx="4.6" ry="4"/>
	<ellipse cx="202.9" cy="850" rx="4.6" ry="4"/>
	<ellipse cx="122.7" cy="853.6" rx="4.6" ry="4"/>
	<ellipse cx="172.8" cy="857.3" rx="4.6" ry="4"/>
	<ellipse cx="223" cy="111.6" rx="4.6" ry="4"/>
	<ellipse cx="233" cy="224.9" rx="4.6" ry="4"/>
	<ellipse cx="192.9" cy="327.2" rx="4.6" ry="4"/>
	<ellipse cx="212.9" cy="440.5" rx="4.6" ry="4"/>
	<ellipse cx="192.9" cy="550.2" rx="4.6" ry="4"/>
	<ellipse cx="162.8" cy="663.5" rx="4.6" ry="4"/>
	<ellipse cx="223" cy="773.2" rx="4.6" ry="4"/>
	<ellipse cx="283.1" cy="886.5" rx="4.6" ry="4"/>
	<ellipse cx="233" cy="999.8" rx="4.6" ry="4"/>
	<ellipse cx="212.9" cy="1109.5" rx="4.6" ry="4"/>
	<ellipse cx="202.9" cy="1222.8" rx="4.6" ry="4"/>
	<ellipse cx="212.9" cy="1332.5" rx="4.6" ry="4"/>
	<ellipse cx="223" cy="904.8" rx="4.6" ry="4"/>
	<ellipse cx="172.8" cy="908.4" rx="4.6" ry="4"/>
	<ellipse cx="202.9" cy="912.1" rx="4.6" ry="4"/>
	<ellipse cx="172.8" cy="915.8" rx="4.6" ry="4"/>
	<ellipse cx="152.8" cy="919.4" rx="4.6" ry="4"/>
	<ellipse cx="142.8" cy="923.1" rx="4.6" ry="4"/>
	<ellipse cx="202.9" cy="926.7" rx="4.6" ry="4"/>
	<ellipse cx="212.9" cy="930.4" rx="4.6" ry="4"/>
	<ellipse cx="202.9" cy="934" rx="4.6" ry="4"/>
	<ellipse cx="192.9" cy="937.7" rx="4.6" ry="4"/>
	<ellipse cx="182.9" cy="941.3" rx="4.6" ry="4"/>
	<ellipse cx="192.9" cy="945" rx="4.6" ry="4"/>
	<ellipse cx="192.9" cy="948.7" rx="4.6" ry="4"/>
	<ellipse cx="223" cy="952.3" rx="4.6" ry="4"/>
	<ellipse cx="303.2" cy="956" rx="4.6" ry="4"/>
	<ellipse cx="273.1" cy="959.6" rx="4.6" ry="4"/>
	<ellipse cx="253.1" cy="963.3" rx="4.6" ry="4"/>
	<ellipse cx="233" cy="966.9" rx="4.6" ry="4"/>
	<ellipse cx="202.9" cy="970.6" rx="4.6" ry="4"/>
	<ellipse cx="152.8" cy="115.2" rx="4.6" ry="4"/>
	<ellipse cx="162.8" cy="228.5" rx="4.6" ry="4"/>
	<ellipse cx="172.8" cy="330.9" rx="4.6" ry="4"/>
	<ellipse cx="293.2" cy="444.2" rx="4.6" ry="4"/>
	<ellipse cx="313.2" cy="553.9" rx="4.6" ry="4"/>
	<ellipse cx="323.2" cy="667.2" rx="4.6" ry="4"/>
	<ellipse cx="253.1" cy="776.8" rx="4.6" ry="4"/>
	<ellipse cx="293.2" cy="890.2" rx="4.6" ry="4"/>
	<ellipse cx="403.5" cy="1003.5" rx="4.6" ry="4"/>
	<ellipse cx="223" cy="1113.1" rx="4.6" ry="4"/>
	<ellipse cx="182.9" cy="1226.4" rx="4.6" ry="4"/>
	<ellipse cx="182.9" cy="1336.1" rx="4.6" ry="4"/>
	<ellipse cx="212.9" cy="1018.1" rx="4.6" ry="4"/>
	<ellipse cx="212.9" cy="1021.8" rx="4.6" ry="4"/>
	<ellipse cx="253.1" cy="1029.1" rx="4.6" ry="4"/>
	<ellipse cx="263.1" cy="1032.7" rx="4.6" ry="4"/>
	<ellipse cx="333.3" cy="1036.4" rx="4.6" ry="4"/>
	<ellipse cx="283.1" cy="1047.3" rx="4.6" ry="4"/>
	<ellipse cx="212.9" cy="1051" rx="4.6" ry="4"/>
	<ellipse cx="243" cy="1054.7" rx="4.6" ry="4"/>
	<ellipse cx="212.9" cy="1058.3" rx="4.6" ry="4"/>
	<ellipse cx="313.2" cy="1062" rx="4.6" ry="4"/>
	<ellipse cx="263.1" cy="1065.6" rx="4.6" ry="4"/>
	<ellipse cx="343.3" cy="1069.3" rx="4.6" ry="4"/>
	<ellipse cx="263.1" cy="1072.9" rx="4.6" ry="4"/>
	<ellipse cx="273.1" cy="1076.6" rx="4.6" ry="4"/>
	<ellipse cx="253.1" cy="1080.2" rx="4.6" ry="4"/>
	<ellipse cx="423.5" cy="118.9" rx="4.6" ry="4"/>
	<ellipse cx="363.4" cy="232.2" rx="4.6" ry="4"/>
	<ellipse cx="243" cy="334.5" rx="4.6" ry="4"/>
	<ellipse cx="223" cy="447.9" rx="4.6" ry="4"/>
	<ellipse cx="212.9" cy="557.5" rx="4.6" ry="4"/>
	<ellipse cx="303.2" cy="670.8" rx="4.6" ry="4"/>
	<ellipse cx="373.4" cy="780.5" rx="4.6" ry="4"/>
	<ellipse cx="463.6" cy="1230.1" rx="4.6" ry="4"/>
	<ellipse cx="263.1" cy="1339.8" rx="4.6" ry="4"/>
	<ellipse cx="333.3" cy="1127.8" rx="4.6" ry="4"/>
	<ellipse cx="273.1" cy="1131.4" rx="4.6" ry="4"/>
	<ellipse cx="373.4" cy="1135.1" rx="4.6" ry="4"/>
	<ellipse cx="293.2" cy="1138.7" rx="4.6" ry="4"/>
	<ellipse cx="433.5" cy="1142.4" rx="4.6" ry="4"/>
	<ellipse cx="483.7" cy="1146" rx="4.6" ry="4"/>
	<ellipse cx="443.5" cy="1149.7" rx="4.6" ry="4"/>
	<ellipse cx="403.5" cy="1153.3" rx="4.6" ry="4"/>
	<ellipse cx="263.1" cy="1157" rx="4.6" ry="4"/>
	<ellipse cx="253.1" cy="1168" rx="4.6" ry="4"/>
	<ellipse cx="283.1" cy="1171.6" rx="4.6" ry="4"/>
	<ellipse cx="273" cy="1175.3" rx="4.6" ry="4"/>
	<ellipse cx="333.3" cy="1178.9" rx="4.6" ry="4"/>
	<ellipse cx="413.5" cy="1182.6" rx="4.6" ry="4"/>
	<ellipse cx="453.6" cy="1186.2" rx="4.6" ry="4"/>
	<ellipse cx="353.3" cy="235.8" rx="4.6" ry="4"/>
	<ellipse cx="202.9" cy="338.2" rx="4.6" ry="4"/>
	<ellipse cx="172.8" cy="451.5" rx="4.6" ry="4"/>
	<ellipse cx="212.9" cy="561.2" rx="4.6" ry="4"/>
	<ellipse cx="202.9" cy="674.5" rx="4.6" ry="4"/>
	<ellipse cx="293.2" cy="784.2" rx="4.6" ry="4"/>
	<ellipse cx="413.5" cy="897.5" rx="4.6" ry="4"/>
	<ellipse cx="393.4" cy="1010.8" rx="4.6" ry="4"/>
	<ellipse cx="263.1" cy="1120.4" rx="4.6" ry="4"/>
	<ellipse cx="353.3" cy="1233.8" rx="4.6" ry="4"/>
	<ellipse cx="353.3" cy="1343.4" rx="4.6" ry="4"/>
	<ellipse cx="202.9" cy="1241.1" rx="4.6" ry="4"/>
	<ellipse cx="303.2" cy="1244.7" rx="4.6" ry="4"/>
	<ellipse cx="233" cy="1248.4" rx="4.6" ry="4"/>
	<ellipse cx="132.7" cy="1252" rx="4.6" ry="4"/>
	<ellipse cx="132.7" cy="1255.7" rx="4.6" ry="4"/>
	<ellipse cx="253.1" cy="1259.3" rx="4.6" ry="4"/>
	<ellipse cx="393.4" cy="1263" rx="4.6" ry="4"/>
	<ellipse cx="343.3" cy="1266.7" rx="4.6" ry="4"/>
	<ellipse cx="393.4" cy="1288.6" rx="4.6" ry="4"/>
	<ellipse cx="473.6" cy="1292.2" rx="4.6" ry="4"/>
	<ellipse cx="323.2" cy="1295.9" rx="4.6" ry="4"/>
	<ellipse cx="393.4" cy="1299.6" rx="4.6" ry="4"/>
	<ellipse cx="373.4" cy="1303.2" rx="4.6" ry="4"/>
	<ellipse cx="363.4" cy="126.2" rx="4.6" ry="4"/>
	<ellipse cx="363.4" cy="239.5" rx="4.6" ry="4"/>
	<ellipse cx="192.9" cy="341.9" rx="4.6" ry="4"/>
	<ellipse cx="243" cy="455.2" rx="4.6" ry="4"/>
	<ellipse cx="313.2" cy="564.8" rx="4.6" ry="4"/>
	<ellipse cx="383.4" cy="678.1" rx="4.6" ry="4"/>
	<ellipse cx="182.9" cy="787.8" rx="4.6" ry="4"/>
	<ellipse cx="223" cy="901.1" rx="4.6" ry="4"/>
	<ellipse cx="283.1" cy="1014.4" rx="4.6" ry="4"/>
	<ellipse cx="313.2" cy="1124.1" rx="4.6" ry="4"/>
	<ellipse cx="343.3" cy="1237.4" rx="4.6" ry="4"/>
	<ellipse cx="383.4" cy="1347.1" rx="4.6" ry="4"/>
	<ellipse cx="343.3" cy="1365.4" rx="4.6" ry="4"/>
	<ellipse cx="443.5" cy="1369" rx="4.6" ry="4"/>
	<ellipse class="st2" cx="684.2" cy="199.3" rx="4.6" ry="4"/>
	<ellipse class="st2" cx="553.9" cy="415" rx="4.6" ry="4"/>
	<ellipse class="st2" cx="634.1" cy="1197.2" rx="4.6" ry="4"/>
	<ellipse class="st2" cx="513.7" cy="1306.9" rx="4.6" ry="4"/>
	<ellipse class="st2" cx="503.7" cy="129.8" rx="4.6" ry="4"/>
	<ellipse class="st2" cx="503.7" cy="250.5" rx="4.6" ry="4"/>
	<ellipse class="st2" cx="704.2" cy="254.1" rx="4.6" ry="4"/>
	<ellipse class="st2" cx="674.2" cy="257.8" rx="4.6" ry="4"/>
	<ellipse class="st2" cx="513.7" cy="345.5" rx="4.6" ry="4"/>
	<ellipse class="st2" cx="583.9" cy="349.2" rx="4.6" ry="4"/>
	<ellipse class="st2" cx="814.5" cy="356.5" rx="4.6" ry="4"/>
	<ellipse class="st2" cx="563.9" cy="360.1" rx="4.6" ry="4"/>
	<ellipse class="st2" cx="694.2" cy="363.8" rx="4.6" ry="4"/>
	<ellipse class="st2" cx="594" cy="371.1" rx="4.6" ry="4"/>
	<ellipse class="st2" cx="734.3" cy="374.8" rx="4.6" ry="4"/>
	<ellipse class="st2" cx="583.9" cy="1040" rx="4.6" ry="4"/>
	<ellipse class="st2" cx="503.7" cy="1043.7" rx="4.6" ry="4"/>
	<ellipse class="st2" cx="704.2" cy="893.8" rx="4.6" ry="4"/>
	<ellipse class="st2" cx="714.3" cy="1007.1" rx="4.6" ry="4"/>
	<ellipse class="st2" cx="734.3" cy="1116.8" rx="4.6" ry="4"/>
	<ellipse class="st2" cx="503.7" cy="1189.9" rx="4.6" ry="4"/>
	<ellipse class="st2" cx="704.2" cy="1193.6" rx="4.6" ry="4"/>
	<ellipse class="st2" cx="624" cy="122.5" rx="4.6" ry="4"/>
	<ellipse class="st2" cx="503.7" cy="1270.3" rx="4.6" ry="4"/>
	<ellipse class="st2" cx="804.5" cy="1274" rx="4.6" ry="4"/>
	<ellipse class="st2" cx="774.4" cy="1277.6" rx="4.6" ry="4"/>
	<ellipse class="st2" cx="834.6" cy="1281.3" rx="4.6" ry="4"/>
	<ellipse class="st2" cx="814.5" cy="1284.9" rx="4.6" ry="4"/>
	<ellipse class="st2" cx="714.3" cy="1350.7" rx="4.6" ry="4"/>
	<ellipse class="st2" cx="854.7" cy="1354.4" rx="4.6" ry="4"/>
	<ellipse class="st2" cx="874.7" cy="1358.1" rx="4.6" ry="4"/>
	<ellipse class="st2" cx="513.7" cy="1361.7" rx="4.6" ry="4"/>
	<ellipse class="st2" cx="543.8" cy="1372.7" rx="4.6" ry="4"/>
	<ellipse cx="463.6" cy="1376.3" rx="4.6" ry="4"/>
	<ellipse cx="363.4" cy="1380" rx="4.6" ry="4"/>
	<ellipse cx="373.4" cy="1383.6" rx="4.6" ry="4"/>
	<ellipse cx="373.4" cy="1387.3" rx="4.6" ry="4"/>
	<ellipse cx="293.2" cy="1390.9" rx="4.6" ry="4"/>
	<ellipse cx="463.6" cy="1394.6" rx="4.6" ry="4"/>
	<ellipse cx="473.6" cy="1398.2" rx="4.6" ry="4"/>
	<ellipse cx="142.8" cy="1401.9" rx="4.6" ry="4"/>
	<ellipse cx="243" cy="1405.6" rx="4.6" ry="4"/>
	<ellipse cx="343.3" cy="1409.2" rx="4.6" ry="4"/>
	<ellipse cx="403.5" cy="1412.9" rx="4.6" ry="4"/>
	<ellipse cx="403.5" cy="1416.5" rx="4.6" ry="4"/>
	<path class="st3" d="M151.6,314.5L151.6,314.5C151.6,314.5,151.6,314.5,151.6,314.5z"/>
	<g class="st4">
		<ellipse class="st2" cx="874.7" cy="1358.1" rx="15.1" ry="13.1"/>
	</g>
	<path class="st5" d="M543.6,1223.7h183.8c1.6,0,3,1.3,3,2.9V1336c0,1.6-1.3,2.9-3,2.9H543.6c-1.6,0-3-1.3-3-2.9v-109.4
		C540.7,1225.1,542,1223.7,543.6,1223.7z"/>
	<path class="st6" d="M543.6,1223.7h183.8c1.6,0,3,1.3,3,2.9V1336c0,1.6-1.3,2.9-3,2.9H543.6c-1.6,0-3-1.3-3-2.9v-109.4
		C540.7,1225.1,542,1223.7,543.6,1223.7z"/>
	<path d="M558.6,1238.2v14.5h-2.2v-12.3h-0.1l-3.5,2.3v-2.1l3.6-2.4L558.6,1238.2z"/>
	<path d="M567.7,1253c-0.7,0-1.3-0.1-1.9-0.4c-0.7-0.2-1.2-0.6-1.7-1.1c-0.6-0.6-1-1.3-1.2-2.1c-0.3-1.1-0.5-2.2-0.5-3.3
		c0-1.1,0.1-2.3,0.4-3.4c0.2-0.9,0.6-1.7,1.1-2.5c0.4-0.7,1-1.2,1.7-1.6c0.7-0.4,1.5-0.5,2.3-0.5c0.8,0,1.6,0.2,2.3,0.5
		c0.7,0.3,1.2,0.8,1.6,1.4c0.4,0.6,0.7,1.3,0.8,2h-2.2c-0.1-0.6-0.4-1.1-0.9-1.5c-0.5-0.4-1.1-0.6-1.7-0.6c-1,0-2,0.5-2.5,1.4
		c-0.7,1.2-1,2.5-0.9,3.9h0.1c0.2-0.4,0.6-0.8,0.9-1.1c0.4-0.3,0.8-0.5,1.2-0.7c0.5-0.2,0.9-0.2,1.4-0.2c0.8,0,1.6,0.2,2.3,0.6
		c0.7,0.4,1.3,1,1.6,1.7c0.4,0.8,0.6,1.6,0.6,2.5c0,0.9-0.2,1.7-0.6,2.5c-0.4,0.7-1,1.4-1.8,1.8C569.5,1252.8,568.6,1253,567.7,1253
		z M567.7,1251.2c0.5,0,1.1-0.1,1.5-0.4c0.4-0.3,0.8-0.7,1-1.1c0.3-0.5,0.4-1,0.4-1.6c0-0.5-0.1-1.1-0.4-1.5c-0.2-0.4-0.6-0.8-1-1.1
		c-0.4-0.3-1-0.4-1.5-0.4c-0.4,0-0.8,0.1-1.2,0.2c-0.4,0.2-0.7,0.4-1,0.7c-0.3,0.3-0.5,0.6-0.6,1c-0.2,0.4-0.2,0.8-0.2,1.2
		c0,0.5,0.1,1,0.4,1.5c0.2,0.5,0.6,0.8,1,1.1C566.6,1251,567.1,1251.2,567.7,1251.2L567.7,1251.2z"/>
	<path d="M585.5,1252.8h-4.7v-14.5h4.9c1.3,0,2.5,0.3,3.7,0.9c1,0.6,1.8,1.4,2.4,2.5c1.1,2.5,1.1,5.3,0,7.8
		c-0.5,1.1-1.4,1.9-2.4,2.5C588.1,1252.5,586.8,1252.8,585.5,1252.8z M583,1250.9h2.4c1,0,1.9-0.2,2.8-0.6c0.7-0.4,1.3-1,1.7-1.8
		c0.7-1.9,0.7-4,0-5.8c-0.3-0.8-0.9-1.4-1.6-1.8c-0.8-0.4-1.7-0.6-2.7-0.6H583L583,1250.9z"/>
	<path d="M596.1,1240.2c-0.4,0-0.7-0.1-1-0.4c-0.3-0.2-0.4-0.6-0.4-0.9c0-0.3,0.1-0.7,0.4-0.9c0.3-0.3,0.6-0.4,1-0.4
		c0.4,0,0.7,0.1,0.9,0.4c0.3,0.2,0.4,0.5,0.4,0.9c0,0.3-0.1,0.7-0.4,0.9C596.8,1240.1,596.5,1240.2,596.1,1240.2z M595,1252.8v-10.9
		h2.1v10.9H595z"/>
	<path d="M604.6,1253c-1,0-1.9-0.2-2.7-0.7c-0.8-0.5-1.4-1.2-1.8-2c-0.4-0.9-0.6-1.9-0.6-2.9c0-1,0.2-2,0.6-2.9c0.4-0.8,1-1.5,1.8-2
		c0.8-0.5,1.7-0.7,2.7-0.7c0.8,0,1.5,0.1,2.2,0.5c0.6,0.3,1.2,0.7,1.6,1.3c0.4,0.6,0.7,1.2,0.7,1.9H607c-0.1-0.5-0.4-1-0.8-1.3
		c-0.4-0.4-1-0.6-1.6-0.6c-0.6,0-1.1,0.1-1.5,0.5c-0.4,0.3-0.8,0.8-1,1.3c-0.3,0.6-0.4,1.3-0.4,2c0,0.7,0.1,1.4,0.4,2.1
		c0.2,0.5,0.5,1,1,1.3c0.5,0.3,1,0.5,1.6,0.5c0.4,0,0.8-0.1,1.1-0.2c0.3-0.1,0.6-0.4,0.8-0.6c0.2-0.3,0.4-0.6,0.5-1h2.1
		c-0.1,0.7-0.3,1.3-0.7,1.9c-0.4,0.6-0.9,1-1.5,1.3C606.1,1252.8,605.4,1253,604.6,1253z"/>
	<path d="M616.1,1253c-1,0-1.9-0.2-2.8-0.7c-0.8-0.5-1.4-1.2-1.8-2c-0.4-0.9-0.7-2-0.6-3c0-1,0.2-2.1,0.6-3c0.8-1.7,2.5-2.8,4.4-2.7
		c0.6,0,1.2,0.1,1.8,0.3c0.6,0.2,1.1,0.6,1.6,1c0.5,0.5,0.9,1.1,1.1,1.7c0.3,0.8,0.4,1.7,0.4,2.5v0.8h-8.7v-1.6h6.6
		c0-0.5-0.1-1-0.3-1.5c-0.2-0.4-0.6-0.8-1-1c-0.4-0.3-0.9-0.4-1.4-0.4c-0.5,0-1.1,0.1-1.5,0.4c-0.4,0.3-0.8,0.7-1,1.1
		c-0.2,0.5-0.4,1-0.4,1.5v1.2c0,0.6,0.1,1.3,0.4,1.9c0.2,0.5,0.6,0.9,1.1,1.2c0.8,0.4,1.8,0.5,2.7,0.2c0.3-0.1,0.6-0.3,0.9-0.5
		c0.2-0.2,0.4-0.5,0.6-0.9l2,0.4c-0.2,0.6-0.5,1.1-0.9,1.6c-0.4,0.4-1,0.8-1.5,1C617.5,1252.8,616.8,1253,616.1,1253z"/>
	<path d="M623.1,1252.8v-10.9h2v1.8h0.1c0.2-0.6,0.6-1.1,1.1-1.4c0.6-0.4,1.2-0.5,1.9-0.5c0.6,0,1.3,0.2,1.8,0.5
		c0.5,0.3,0.9,0.8,1.1,1.4h0.1c0.3-0.6,0.7-1.1,1.2-1.4c0.6-0.4,1.3-0.5,2-0.5c0.9,0,1.8,0.3,2.4,0.9c0.7,0.8,1,1.8,0.9,2.8v7.3
		h-2.1v-7.1c0-0.6-0.2-1.2-0.6-1.6c-0.4-0.3-0.9-0.5-1.4-0.5c-0.6,0-1.2,0.2-1.6,0.6c-0.4,0.5-0.6,1-0.6,1.6v7h-2.1v-7.2
		c0-0.5-0.2-1.1-0.5-1.4c-0.4-0.4-0.9-0.6-1.4-0.5c-0.4,0-0.8,0.1-1.1,0.3c-0.3,0.2-0.6,0.5-0.8,0.9c-0.2,0.4-0.3,0.8-0.3,1.3v6.7
		L623.1,1252.8z"/>
	<path d="M641,1252.8v-14.5h2.1v5.4h0.1c0.2-0.3,0.3-0.5,0.5-0.8c0.3-0.3,0.6-0.6,1-0.8c0.5-0.2,1.1-0.4,1.6-0.3
		c0.8,0,1.7,0.2,2.4,0.7c0.7,0.5,1.3,1.1,1.6,1.9c0.8,1.9,0.8,4.1,0,6.1c-0.3,0.8-0.9,1.5-1.6,1.9c-0.7,0.5-1.5,0.7-2.3,0.7
		c-0.6,0-1.1-0.1-1.6-0.3c-0.4-0.2-0.7-0.5-1-0.8c-0.2-0.3-0.4-0.5-0.5-0.8H643v1.7H641z M643.1,1247.3c0,0.7,0.1,1.4,0.3,2
		c0.2,0.5,0.5,1,1,1.4c0.4,0.3,1,0.5,1.5,0.5c0.6,0,1.1-0.2,1.6-0.5c0.5-0.4,0.8-0.8,1-1.4c0.2-0.6,0.4-1.3,0.3-2
		c0-0.7-0.1-1.3-0.3-1.9c-0.2-0.5-0.5-1-1-1.4c-0.5-0.3-1-0.5-1.6-0.5c-0.6,0-1.1,0.2-1.6,0.5c-0.5,0.3-0.8,0.8-1,1.3
		C643.2,1246,643,1246.6,643.1,1247.3L643.1,1247.3z"/>
	<path d="M653.3,1252.8v-10.9h2v1.7h0.1c0.2-0.6,0.5-1,1-1.4c0.5-0.3,1.1-0.5,1.7-0.5h0.5h0.4v2l-0.5-0.1c-0.2,0-0.4,0-0.7,0
		c-0.5,0-0.9,0.1-1.3,0.3c-0.4,0.2-0.7,0.5-0.9,0.9c-0.2,0.4-0.3,0.8-0.3,1.3v6.7L653.3,1252.8z"/>
	<path d="M665.3,1253c-1,0-1.9-0.2-2.8-0.7c-0.8-0.5-1.4-1.2-1.8-2c-0.4-0.9-0.7-2-0.6-3c0-1,0.2-2.1,0.6-3c0.4-0.8,1-1.5,1.8-2
		c0.8-0.5,1.7-0.7,2.7-0.7c0.6,0,1.2,0.1,1.8,0.3c0.6,0.2,1.1,0.6,1.5,1c0.5,0.5,0.9,1.1,1.1,1.7c0.3,0.8,0.4,1.7,0.4,2.5v0.8h-8.7
		v-1.6h6.6c0-0.5-0.1-1-0.3-1.5c-0.2-0.4-0.6-0.8-1-1c-0.4-0.3-0.9-0.4-1.4-0.4c-0.6,0-1.1,0.1-1.6,0.4c-0.4,0.3-0.8,0.7-1,1.1
		c-0.2,0.5-0.4,1-0.4,1.5v1.2c0,0.6,0.1,1.3,0.4,1.9c0.2,0.5,0.6,0.9,1.1,1.2c0.5,0.3,1.1,0.4,1.6,0.4c0.4,0,0.7-0.1,1.1-0.2
		c0.3-0.1,0.6-0.3,0.9-0.5c0.2-0.2,0.4-0.5,0.5-0.9l2,0.4c-0.2,0.6-0.4,1.1-0.9,1.6c-0.4,0.4-1,0.8-1.5,1
		C666.7,1252.8,666,1253,665.3,1253z"/>
	<path d="M553.5,1276.8v-14.5h8.8v1.6h-7v4.9h6.6v1.6h-6.6v4.9h7.1v1.6H553.5z"/>
	<path d="M572.9,1268.3l-1.5,0.4c-0.1-0.3-0.2-0.5-0.4-0.7c-0.2-0.3-0.5-0.5-0.7-0.6c-0.4-0.2-0.8-0.2-1.2-0.2
		c-0.6,0-1.2,0.1-1.7,0.5c-0.4,0.2-0.7,0.7-0.7,1.2c0,0.4,0.2,0.8,0.5,1c0.4,0.3,0.9,0.5,1.4,0.6l1.6,0.4c0.8,0.1,1.6,0.5,2.2,1.1
		c0.5,0.5,0.7,1.2,0.7,1.9c0,0.6-0.2,1.2-0.5,1.7c-0.4,0.5-0.9,0.9-1.5,1.2c-0.7,0.3-1.5,0.4-2.2,0.4c-1,0-1.9-0.2-2.8-0.7
		c-0.7-0.5-1.2-1.2-1.4-2.1l1.6-0.4c0.1,0.5,0.4,1,0.9,1.3c0.5,0.3,1.1,0.5,1.7,0.4c0.7,0,1.3-0.1,1.9-0.5c0.4-0.3,0.7-0.7,0.7-1.2
		c0-0.4-0.1-0.7-0.4-1c-0.3-0.3-0.8-0.5-1.2-0.6l-1.8-0.4c-0.8-0.1-1.6-0.5-2.2-1.1c-0.5-0.5-0.7-1.2-0.7-1.9c0-0.6,0.2-1.2,0.5-1.6
		c0.4-0.5,0.9-0.9,1.4-1.1c0.7-0.3,1.4-0.4,2.1-0.4c0.9-0.1,1.8,0.2,2.5,0.7C572.2,1266.9,572.7,1267.6,572.9,1268.3z"/>
	<path d="M575.7,1280.9v-15h1.6v1.7h0.2c0.1-0.2,0.3-0.4,0.5-0.7c0.3-0.3,0.6-0.6,1-0.8c0.5-0.3,1.1-0.4,1.7-0.3
		c0.9,0,1.7,0.2,2.4,0.7c0.7,0.5,1.3,1.2,1.6,2c0.4,0.9,0.6,2,0.6,3c0,1-0.2,2.1-0.6,3c-0.3,0.8-0.9,1.5-1.6,2
		c-0.7,0.5-1.6,0.7-2.4,0.7c-0.6,0-1.2-0.1-1.7-0.3c-0.4-0.2-0.7-0.5-1-0.8c-0.2-0.2-0.4-0.5-0.5-0.8h-0.2v5.8L575.7,1280.9z
		 M577.3,1271.3c0,0.7,0.1,1.5,0.4,2.2c0.2,0.6,0.6,1.1,1.1,1.5c0.5,0.4,1.1,0.6,1.7,0.5c0.6,0,1.3-0.2,1.8-0.6
		c0.5-0.4,0.9-0.9,1.1-1.5c0.2-0.7,0.4-1.4,0.4-2.1c0-0.7-0.1-1.4-0.3-2.1c-0.2-0.6-0.6-1.1-1.1-1.5c-1.1-0.7-2.4-0.7-3.5,0
		c-0.5,0.4-0.8,0.9-1,1.4C577.4,1269.9,577.3,1270.6,577.3,1271.3z"/>
	<path d="M589.5,1262.2v14.5h-1.7v-14.5H589.5z"/>
	<path d="M597,1277c-0.9,0-1.8-0.2-2.6-0.7c-0.8-0.5-1.4-1.2-1.7-2c-0.8-1.9-0.8-4,0-5.9c1.1-2.4,4-3.4,6.3-2.3
		c1,0.5,1.8,1.3,2.3,2.3c0.8,1.9,0.8,4,0,5.9c-0.4,0.8-1,1.5-1.7,2C598.8,1276.8,597.9,1277,597,1277z M597,1275.5
		c0.7,0,1.3-0.2,1.8-0.6c0.5-0.4,0.9-0.9,1.1-1.5c0.2-0.6,0.4-1.3,0.3-2c0-0.7-0.1-1.4-0.3-2c-0.2-0.6-0.6-1.1-1.1-1.5
		c-0.5-0.4-1.2-0.6-1.8-0.6c-0.7,0-1.3,0.2-1.8,0.6c-0.5,0.4-0.9,0.9-1.1,1.5c-0.2,0.6-0.3,1.3-0.3,2c0,0.7,0.1,1.4,0.3,2
		c0.2,0.6,0.6,1.1,1.1,1.5C595.7,1275.3,596.3,1275.5,597,1275.5L597,1275.5z"/>
	<path d="M612.3,1268.3l-1.5,0.4c-0.1-0.3-0.2-0.5-0.4-0.7c-0.2-0.3-0.5-0.5-0.7-0.6c-0.9-0.4-2-0.3-2.9,0.2
		c-0.4,0.2-0.7,0.7-0.7,1.2c0,0.4,0.2,0.8,0.5,1c0.4,0.3,0.9,0.5,1.4,0.6l1.6,0.4c0.8,0.1,1.6,0.5,2.2,1.1c0.5,0.5,0.7,1.2,0.7,1.9
		c0,0.6-0.2,1.2-0.5,1.7c-0.4,0.5-0.9,0.9-1.5,1.2c-0.7,0.3-1.5,0.4-2.2,0.4c-1,0-1.9-0.2-2.8-0.7c-0.7-0.5-1.2-1.2-1.4-2.1l1.6-0.4
		c0.1,0.5,0.4,1,0.9,1.3c0.5,0.3,1.1,0.5,1.7,0.4c0.7,0,1.3-0.1,1.9-0.5c0.4-0.3,0.7-0.7,0.7-1.2c0-0.4-0.1-0.7-0.4-1
		c-0.3-0.3-0.8-0.5-1.2-0.6l-1.8-0.4c-0.8-0.1-1.6-0.5-2.2-1.1c-0.5-0.5-0.7-1.2-0.7-1.9c0-0.6,0.2-1.2,0.5-1.6
		c0.4-0.5,0.9-0.9,1.4-1.1c0.7-0.3,1.4-0.4,2.1-0.4c0.9,0,1.8,0.2,2.5,0.7C611.6,1266.9,612,1267.6,612.3,1268.3z"/>
	<path d="M615.8,1264.1c-0.3,0-0.6-0.1-0.8-0.3c-0.2-0.2-0.4-0.5-0.3-0.8c0-0.3,0.1-0.6,0.3-0.8c0.2-0.2,0.5-0.3,0.8-0.3
		c0.3,0,0.6,0.1,0.8,0.3c0.2,0.2,0.4,0.5,0.3,0.8c0,0.3-0.1,0.6-0.3,0.8C616.5,1263.9,616.2,1264.1,615.8,1264.1z M615,1276.8v-10.9
		h1.7v10.9H615z"/>
	<path d="M624.2,1277c-0.9,0-1.8-0.2-2.6-0.7c-0.8-0.5-1.4-1.2-1.7-2c-0.8-1.9-0.8-4,0-5.9c1.1-2.4,4-3.4,6.3-2.3
		c1,0.5,1.8,1.3,2.3,2.3c0.8,1.9,0.8,4,0,5.9c-0.4,0.8-1,1.5-1.7,2C626,1276.8,625.1,1277,624.2,1277z M624.2,1275.5
		c0.7,0,1.3-0.2,1.8-0.6c0.5-0.4,0.9-0.9,1.1-1.5c0.2-0.6,0.4-1.3,0.3-2c0-0.7-0.1-1.4-0.3-2c-0.2-0.6-0.6-1.1-1.1-1.5
		c-0.5-0.4-1.2-0.6-1.8-0.6c-0.7,0-1.3,0.2-1.8,0.6c-0.5,0.4-0.9,0.9-1.1,1.5c-0.2,0.6-0.3,1.3-0.3,2c0,0.7,0.1,1.4,0.3,2
		c0.2,0.6,0.6,1.1,1.1,1.5C622.8,1275.3,623.5,1275.5,624.2,1275.5L624.2,1275.5z"/>
	<path d="M633.3,1270.2v6.6h-1.7v-10.9h1.6v1.7h0.1c0.3-0.5,0.7-1,1.2-1.3c0.6-0.4,1.3-0.5,2-0.5c0.7,0,1.3,0.1,1.9,0.4
		c0.6,0.3,1,0.8,1.3,1.4c0.3,0.7,0.5,1.5,0.5,2.3v6.9h-1.7v-6.8c0-0.7-0.2-1.4-0.7-2c-0.5-0.5-1.1-0.8-1.8-0.7c-0.5,0-1,0.1-1.4,0.3
		c-0.4,0.2-0.8,0.6-1,1C633.4,1269.1,633.3,1269.7,633.3,1270.2z"/>
	<path d="M647.9,1277c-1,0-1.9-0.2-2.7-0.7c-0.8-0.5-1.4-1.2-1.8-2c-0.4-0.9-0.6-1.9-0.6-2.9c0-1,0.2-2.1,0.6-3c0.4-0.8,1-1.5,1.7-2
		c0.8-0.5,1.7-0.7,2.6-0.7c0.6,0,1.1,0.1,1.7,0.3c0.6,0.2,1.1,0.5,1.5,0.9c0.5,0.5,0.8,1,1.1,1.7c0.3,0.8,0.4,1.7,0.4,2.6v0.7h-8.4
		v-1.4h6.7c0-0.6-0.1-1.1-0.4-1.7c-0.2-0.5-0.6-0.9-1-1.2c-1-0.6-2.3-0.5-3.3,0.1c-0.5,0.3-0.9,0.8-1.1,1.3
		c-0.3,0.5-0.4,1.1-0.4,1.7v1c0,0.7,0.1,1.4,0.4,2.1c0.3,0.5,0.7,1,1.2,1.3c0.9,0.5,2,0.6,3,0.2c0.3-0.1,0.7-0.3,0.9-0.6
		c0.3-0.3,0.5-0.6,0.6-1l1.6,0.4c-0.2,0.5-0.5,1-0.9,1.4c-0.4,0.4-0.9,0.8-1.5,1C649.3,1276.9,648.6,1277,647.9,1277z"/>
	<path d="M664.8,1277c-0.9,0-1.7-0.2-2.4-0.7c-0.7-0.5-1.3-1.2-1.6-2c-0.4-0.9-0.6-2-0.6-3c0-1,0.2-2.1,0.6-3c0.3-0.8,0.9-1.5,1.6-2
		c0.7-0.5,1.6-0.7,2.4-0.7c0.6,0,1.2,0.1,1.7,0.3c0.4,0.2,0.7,0.5,1,0.8c0.2,0.3,0.4,0.5,0.5,0.7h0.1v-5.4h1.7v14.5h-1.6v-1.7h-0.2
		c-0.2,0.3-0.3,0.5-0.5,0.8c-0.3,0.3-0.6,0.6-1,0.8C665.9,1276.8,665.3,1277,664.8,1277z M665,1275.5c0.6,0,1.2-0.2,1.7-0.5
		c0.5-0.4,0.9-0.9,1.1-1.5c0.3-0.7,0.4-1.4,0.4-2.2c0-0.7-0.1-1.5-0.4-2.1c-0.2-0.6-0.5-1.1-1-1.4c-0.5-0.4-1.1-0.5-1.7-0.5
		c-0.6,0-1.3,0.2-1.8,0.5c-0.5,0.4-0.9,0.9-1.1,1.5c-0.5,1.4-0.5,2.8,0,4.2c0.2,0.6,0.6,1.1,1.1,1.5
		C663.8,1275.3,664.4,1275.5,665,1275.5L665,1275.5z"/>
	<path d="M673.9,1264.1c-0.3,0-0.6-0.1-0.8-0.3c-0.2-0.2-0.4-0.5-0.3-0.8c0-0.3,0.1-0.6,0.3-0.8c0.5-0.5,1.2-0.5,1.7,0
		c0.2,0.2,0.4,0.5,0.3,0.8c0,0.3-0.1,0.6-0.3,0.8C674.5,1263.9,674.2,1264.1,673.9,1264.1z M673.1,1276.8v-10.9h1.7v10.9H673.1z"/>
	<path d="M690.3,1272.3v-6.4h1.7v10.9h-1.7v-1.8h-0.1c-0.6,1.3-1.9,2.1-3.2,2c-0.6,0-1.3-0.1-1.8-0.4c-0.5-0.3-1-0.8-1.2-1.4
		c-0.3-0.7-0.5-1.5-0.5-2.3v-6.9h1.7v6.8c0,0.7,0.2,1.4,0.7,1.9c0.4,0.5,1.1,0.7,1.7,0.7c0.4,0,0.9-0.1,1.3-0.3
		c0.4-0.2,0.8-0.6,1.1-1C690.2,1273.5,690.3,1272.9,690.3,1272.3z"/>
	<path d="M696.7,1270.2v6.6H695v-10.9h1.6v1.7h0.1c0.3-0.5,0.7-1,1.2-1.3c0.6-0.4,1.3-0.5,2-0.5c0.7,0,1.3,0.1,1.9,0.4
		c0.6,0.3,1,0.8,1.3,1.4c0.3,0.7,0.5,1.5,0.5,2.3v6.9H702v-6.8c0-0.7-0.2-1.4-0.7-2c-0.5-0.5-1.1-0.8-1.8-0.7c-0.5,0-1,0.1-1.4,0.3
		c-0.4,0.2-0.8,0.6-1,1C696.8,1269.1,696.7,1269.7,696.7,1270.2z"/>
	<path d="M710,1277.1c-0.6,0-1.3-0.1-1.9-0.4c-0.5-0.2-1-0.6-1.3-1.1c-0.3-0.5-0.5-1.2-0.5-1.8c0-0.5,0.1-1.1,0.4-1.5
		c0.2-0.4,0.6-0.7,1-0.9c0.4-0.2,0.9-0.4,1.4-0.5c0.5-0.1,1-0.2,1.5-0.3l1.6-0.2c0.3,0,0.6-0.1,0.9-0.2c0.2-0.1,0.3-0.3,0.3-0.6
		v-0.1c0-0.6-0.2-1.2-0.6-1.6c-0.5-0.4-1.1-0.6-1.7-0.6c-0.7,0-1.3,0.1-1.9,0.5c-0.4,0.3-0.8,0.7-1,1.1l-1.6-0.6
		c0.2-0.6,0.6-1.1,1.1-1.6c0.5-0.4,1-0.6,1.6-0.8c0.5-0.1,1.1-0.2,1.7-0.2c0.4,0,0.8,0,1.2,0.1c0.5,0.1,0.9,0.3,1.3,0.5
		c0.5,0.3,0.8,0.7,1.1,1.2c0.3,0.6,0.5,1.4,0.4,2.1v7.2h-1.7v-1.5h-0.1c-0.1,0.3-0.3,0.5-0.6,0.8c-0.3,0.3-0.7,0.5-1.1,0.7
		C711.1,1277,710.5,1277.1,710,1277.1z M710.3,1275.5c0.6,0,1.2-0.1,1.7-0.4c0.4-0.2,0.8-0.6,1-1c0.2-0.4,0.3-0.8,0.3-1.3v-1.5
		c-0.1,0.1-0.3,0.2-0.5,0.2c-0.3,0.1-0.5,0.1-0.8,0.2l-0.9,0.1l-0.7,0.1c-0.4,0.1-0.8,0.1-1.2,0.3c-0.3,0.1-0.7,0.3-0.9,0.6
		c-0.2,0.3-0.4,0.6-0.3,1c0,0.5,0.2,1,0.7,1.3C709.1,1275.4,709.6,1275.6,710.3,1275.5L710.3,1275.5z"/>
	<path d="M558.1,1289.9v1.4h-5.9v-1.4H558.1z M554,1300.8v-12.4c0-0.6,0.1-1.1,0.4-1.6c0.3-0.4,0.7-0.7,1.2-0.9
		c0.5-0.2,1-0.3,1.5-0.3c0.3,0,0.7,0,1,0.1c0.2,0,0.4,0.1,0.6,0.2l-0.5,1.4l-0.3-0.1c-0.2,0-0.4-0.1-0.6-0.1c-0.4,0-0.9,0.1-1.2,0.4
		c-0.3,0.3-0.4,0.8-0.4,1.2v12L554,1300.8z"/>
	<path d="M563.4,1301.1c-0.6,0-1.3-0.1-1.9-0.4c-0.5-0.2-1-0.6-1.3-1.1c-0.3-0.5-0.5-1.2-0.5-1.8c0-0.5,0.1-1.1,0.4-1.5
		c0.2-0.4,0.6-0.7,1-0.9c0.4-0.2,0.9-0.4,1.4-0.5c0.5-0.1,1-0.2,1.5-0.3l1.6-0.2c0.3,0,0.6-0.1,0.9-0.2c0.2-0.1,0.3-0.3,0.3-0.6
		v-0.1c0-0.6-0.2-1.2-0.6-1.6c-0.5-0.4-1.1-0.6-1.7-0.6c-0.7,0-1.3,0.1-1.9,0.5c-0.4,0.3-0.8,0.7-1,1.1l-1.6-0.6
		c0.2-0.6,0.6-1.1,1.1-1.6c0.5-0.4,1-0.6,1.6-0.8c0.5-0.1,1.1-0.2,1.7-0.2c0.4,0,0.8,0,1.2,0.1c0.5,0.1,0.9,0.3,1.3,0.5
		c0.5,0.3,0.8,0.7,1.1,1.2c0.3,0.6,0.5,1.4,0.4,2.1v7.2h-1.7v-1.5h-0.1c-0.2,0.3-0.3,0.5-0.6,0.8c-0.3,0.3-0.7,0.5-1.1,0.7
		C564.5,1301,563.9,1301.1,563.4,1301.1z M563.6,1299.5c0.6,0,1.2-0.1,1.7-0.4c0.4-0.2,0.8-0.6,1-1c0.2-0.4,0.3-0.8,0.3-1.3v-1.5
		c-0.1,0.1-0.3,0.2-0.5,0.2c-0.3,0.1-0.5,0.1-0.8,0.2l-0.9,0.1l-0.7,0.1c-0.4,0.1-0.8,0.1-1.2,0.3c-0.3,0.1-0.7,0.3-0.9,0.6
		c-0.2,0.3-0.4,0.6-0.3,1c0,0.5,0.2,1,0.7,1.3C562.4,1299.4,563,1299.6,563.6,1299.5z"/>
	<path d="M571.7,1300.8v-14.5h1.7v5.4h0.1c0.1-0.2,0.3-0.4,0.5-0.7c0.3-0.3,0.6-0.6,1-0.8c0.5-0.3,1.1-0.4,1.7-0.3
		c0.9,0,1.7,0.2,2.4,0.7c0.7,0.5,1.3,1.2,1.6,2c0.4,0.9,0.6,2,0.6,3c0,1-0.2,2.1-0.6,3c-0.3,0.8-0.9,1.5-1.6,2
		c-0.7,0.5-1.6,0.7-2.4,0.7c-0.6,0-1.2-0.1-1.7-0.3c-0.4-0.2-0.7-0.5-1-0.8c-0.2-0.2-0.4-0.5-0.5-0.8h-0.2v1.7L571.7,1300.8z
		 M573.3,1295.3c0,0.7,0.1,1.5,0.4,2.2c0.2,0.6,0.6,1.1,1.1,1.5c0.5,0.4,1.1,0.6,1.7,0.5c0.6,0,1.2-0.2,1.8-0.6
		c0.5-0.4,0.9-0.9,1.1-1.5c0.5-1.4,0.5-2.8,0-4.2c-0.2-0.6-0.6-1.1-1.1-1.5c-1.1-0.7-2.4-0.7-3.5,0c-0.5,0.4-0.9,0.9-1,1.4
		C573.4,1293.9,573.3,1294.6,573.3,1295.3L573.3,1295.3z"/>
	<path d="M584.1,1300.8v-14.5h1.7v5.4h0.2c0.1-0.2,0.3-0.4,0.5-0.7c0.3-0.3,0.6-0.6,1-0.8c0.5-0.3,1.1-0.4,1.7-0.3
		c0.9,0,1.7,0.2,2.4,0.7c0.7,0.5,1.3,1.2,1.6,2c0.4,0.9,0.6,2,0.6,3c0,1-0.2,2.1-0.6,3c-0.3,0.8-0.9,1.5-1.6,2
		c-0.7,0.5-1.6,0.7-2.4,0.7c-0.6,0-1.2-0.1-1.7-0.3c-0.4-0.2-0.7-0.5-1-0.8c-0.2-0.2-0.4-0.5-0.5-0.8h-0.2v1.7L584.1,1300.8z
		 M585.7,1295.3c0,0.7,0.1,1.5,0.4,2.2c0.2,0.6,0.6,1.1,1.1,1.5c0.5,0.4,1.1,0.6,1.7,0.5c0.6,0,1.3-0.2,1.8-0.6
		c0.5-0.4,0.9-0.9,1.1-1.5c0.2-0.7,0.4-1.4,0.4-2.1c0-0.7-0.1-1.4-0.3-2.1c-0.2-0.6-0.6-1.1-1.1-1.5c-1.1-0.7-2.4-0.7-3.5,0
		c-0.5,0.4-0.8,0.9-1,1.4C585.9,1293.9,585.7,1294.6,585.7,1295.3L585.7,1295.3z"/>
	<path d="M596.3,1300.8v-10.9h1.6v1.7h0.1c0.2-0.5,0.6-1,1.1-1.3c0.5-0.3,1.1-0.5,1.8-0.5h0.5h0.4v1.7l-0.4-0.1
		c-0.2,0-0.4,0-0.6-0.1c-0.5,0-1,0.1-1.4,0.3c-0.4,0.2-0.8,0.5-1,0.9c-0.2,0.4-0.4,0.9-0.4,1.3v6.9L596.3,1300.8z"/>
	<path d="M604.6,1288.1c-0.3,0-0.6-0.1-0.8-0.3c-0.2-0.2-0.4-0.5-0.3-0.8c0-0.3,0.1-0.6,0.3-0.8c0.5-0.5,1.2-0.5,1.7,0
		c0.2,0.2,0.4,0.5,0.3,0.8c0,0.3-0.1,0.6-0.3,0.8C605.2,1287.9,604.9,1288.1,604.6,1288.1z M603.7,1300.8v-10.9h1.7v10.9H603.7z"/>
	<path d="M612.9,1301c-1.9,0.1-3.6-1-4.3-2.7c-0.4-0.9-0.6-1.9-0.6-2.9c0-1,0.2-2,0.6-2.9c0.4-0.8,1-1.5,1.7-2
		c0.8-0.5,1.7-0.7,2.6-0.7c0.7,0,1.4,0.1,2.1,0.4c0.6,0.3,1.1,0.7,1.5,1.2c0.4,0.5,0.7,1.1,0.7,1.8h-1.7c-0.1-0.5-0.4-1-0.8-1.3
		c-0.5-0.4-1.1-0.6-1.8-0.6c-0.6,0-1.2,0.2-1.7,0.5c-0.5,0.4-0.9,0.9-1.1,1.4c-0.3,0.7-0.4,1.4-0.4,2.2c0,0.8,0.1,1.5,0.4,2.2
		c0.2,0.6,0.6,1.1,1.1,1.4c0.5,0.4,1.1,0.5,1.7,0.5c0.4,0,0.8-0.1,1.2-0.2c0.3-0.1,0.7-0.4,0.9-0.7c0.3-0.3,0.4-0.6,0.5-1h1.7
		c-0.1,0.6-0.3,1.2-0.7,1.7c-0.4,0.5-0.9,0.9-1.5,1.2C614.3,1300.9,613.6,1301,612.9,1301z"/>
	<path d="M622.8,1301.1c-0.7,0-1.3-0.1-1.9-0.4c-0.5-0.2-1-0.6-1.3-1.1c-0.3-0.5-0.5-1.2-0.5-1.8c0-0.5,0.1-1.1,0.4-1.5
		c0.2-0.4,0.6-0.7,1-0.9c0.4-0.2,0.9-0.4,1.4-0.5c0.5-0.1,1-0.2,1.5-0.3l1.6-0.2c0.3,0,0.6-0.1,0.9-0.2c0.2-0.1,0.3-0.3,0.3-0.6
		v-0.1c0-0.6-0.2-1.2-0.6-1.6c-0.5-0.4-1.1-0.6-1.7-0.6c-0.7,0-1.3,0.1-1.9,0.5c-0.4,0.3-0.8,0.7-1,1.1l-1.6-0.6
		c0.2-0.6,0.6-1.1,1.1-1.6c0.5-0.4,1-0.6,1.6-0.8c0.5-0.1,1.1-0.2,1.7-0.2c0.4,0,0.8,0,1.2,0.1c0.5,0.1,0.9,0.3,1.3,0.5
		c0.5,0.3,0.8,0.7,1.1,1.2c0.3,0.6,0.5,1.4,0.4,2.1v7.2h-1.7v-1.5H626c-0.2,0.3-0.3,0.5-0.6,0.8c-0.3,0.3-0.7,0.5-1.1,0.7
		C623.9,1301,623.4,1301.1,622.8,1301.1z M623.1,1299.5c0.6,0,1.2-0.1,1.7-0.4c0.4-0.2,0.8-0.6,1-1c0.2-0.4,0.3-0.8,0.3-1.3v-1.5
		c-0.1,0.1-0.3,0.2-0.5,0.2c-0.3,0.1-0.5,0.1-0.8,0.2l-0.9,0.1l-0.7,0.1c-0.4,0.1-0.8,0.1-1.2,0.3c-0.3,0.1-0.7,0.3-0.9,0.6
		c-0.2,0.3-0.4,0.6-0.3,1c0,0.5,0.2,1,0.7,1.3C621.9,1299.4,622.5,1299.6,623.1,1299.5z"/>
	<path d="M640.6,1301c-0.9,0-1.7-0.2-2.4-0.7c-0.7-0.5-1.3-1.2-1.6-2c-0.4-0.9-0.6-2-0.6-3c0-1,0.2-2.1,0.6-3c0.3-0.8,0.9-1.5,1.6-2
		c0.7-0.5,1.6-0.7,2.4-0.7c0.6,0,1.2,0.1,1.7,0.3c0.4,0.2,0.7,0.5,1,0.8c0.2,0.3,0.4,0.5,0.5,0.7h0.1v-5.4h1.7v14.5H644v-1.7h-0.2
		c-0.1,0.2-0.3,0.4-0.5,0.8c-0.3,0.3-0.6,0.6-1,0.8C641.8,1300.8,641.2,1301,640.6,1301z M640.9,1299.5c0.6,0,1.2-0.2,1.7-0.5
		c0.5-0.4,0.9-0.9,1.1-1.5c0.5-1.4,0.5-2.9,0-4.3c-0.2-0.6-0.5-1.1-1-1.4c-1.1-0.7-2.4-0.7-3.5,0c-0.5,0.4-0.8,0.9-1,1.5
		c-0.2,0.7-0.4,1.4-0.3,2.1c0,0.7,0.1,1.4,0.3,2.1c0.2,0.6,0.6,1.1,1.1,1.5C639.6,1299.3,640.2,1299.5,640.9,1299.5L640.9,1299.5z"
		/>
	<path d="M649.8,1288.1c-0.3,0-0.6-0.1-0.8-0.3c-0.2-0.2-0.4-0.5-0.4-0.8c0-0.3,0.1-0.6,0.4-0.8c0.2-0.2,0.5-0.3,0.8-0.3
		c0.3,0,0.6,0.1,0.8,0.3c0.2,0.2,0.4,0.5,0.3,0.8c0,0.3-0.1,0.6-0.3,0.8C650.4,1287.9,650.1,1288.1,649.8,1288.1z M648.9,1300.8
		v-10.9h1.7v10.9H648.9z"/>
	<path d="M664.2,1289.9v1.4h-5.9v-1.4H664.2z M660,1300.8v-12.4c0-0.6,0.1-1.1,0.4-1.6c0.3-0.4,0.7-0.7,1.2-0.9
		c0.5-0.2,1-0.3,1.5-0.3c0.3,0,0.7,0,1,0.1c0.2,0,0.4,0.1,0.6,0.2l-0.5,1.4l-0.3-0.1c-0.2,0-0.4-0.1-0.6-0.1c-0.4,0-0.9,0.1-1.2,0.4
		c-0.3,0.3-0.4,0.8-0.4,1.2v12L660,1300.8z"/>
	<path d="M673.4,1296.3v-6.4h1.7v10.9h-1.7v-1.8h-0.1c-0.6,1.3-1.9,2.1-3.2,2c-0.6,0-1.3-0.1-1.8-0.4c-0.5-0.3-1-0.8-1.2-1.4
		c-0.3-0.7-0.5-1.5-0.5-2.3v-6.9h1.7v6.8c0,0.7,0.2,1.4,0.7,1.9c0.4,0.5,1.1,0.7,1.7,0.7c1,0,1.9-0.5,2.4-1.3
		C673.3,1297.5,673.4,1296.9,673.4,1296.3z"/>
	<path d="M682.6,1301c-0.9,0-1.8-0.2-2.6-0.7c-0.8-0.5-1.4-1.2-1.7-2c-0.8-1.9-0.8-4,0-5.9c1.1-2.4,4-3.4,6.3-2.3
		c1,0.5,1.8,1.3,2.3,2.3c0.8,1.9,0.8,4,0,5.9c-0.4,0.8-1,1.5-1.7,2C684.4,1300.8,683.5,1301,682.6,1301z M682.6,1299.5
		c0.7,0,1.3-0.2,1.8-0.6c0.5-0.4,0.9-0.9,1.1-1.5c0.2-0.6,0.4-1.3,0.3-2c0-0.7-0.1-1.4-0.3-2c-0.2-0.6-0.6-1.1-1.1-1.5
		c-1.1-0.8-2.6-0.8-3.7,0c-0.5,0.4-0.9,0.9-1.1,1.5c-0.2,0.6-0.3,1.3-0.3,2c0,0.7,0.1,1.4,0.3,2c0.2,0.6,0.6,1.1,1.1,1.5
		C681.3,1299.3,681.9,1299.5,682.6,1299.5L682.6,1299.5z"/>
	<path d="M694.5,1301c-0.9,0-1.9-0.2-2.6-0.7c-0.7-0.5-1.3-1.2-1.7-2c-0.4-0.9-0.6-1.9-0.6-2.9c0-1,0.2-2,0.6-2.9
		c0.4-0.8,1-1.5,1.7-2c0.8-0.5,1.7-0.7,2.6-0.7c0.7,0,1.4,0.1,2.1,0.4c0.6,0.3,1.1,0.7,1.5,1.2c0.4,0.5,0.6,1.1,0.7,1.8h-1.7
		c-0.1-0.5-0.4-1-0.8-1.3c-0.5-0.4-1.1-0.6-1.8-0.6c-0.6,0-1.2,0.2-1.7,0.5c-0.5,0.4-0.9,0.9-1.2,1.4c-0.3,0.7-0.4,1.4-0.4,2.2
		c0,0.8,0.1,1.5,0.4,2.2c0.2,0.6,0.6,1.1,1.1,1.4c0.5,0.4,1.1,0.5,1.7,0.5c0.4,0,0.8-0.1,1.2-0.2c0.3-0.2,0.7-0.4,0.9-0.7
		c0.3-0.3,0.4-0.6,0.5-1h1.7c-0.2,1.3-1,2.4-2.2,3C696,1300.9,695.2,1301,694.5,1301z"/>
	<path d="M702.9,1294.2v6.6h-1.7v-14.5h1.7v5.3h0.1c0.2-0.6,0.6-1,1.2-1.3c0.6-0.4,1.3-0.5,2-0.5c0.7,0,1.4,0.1,2,0.4
		c0.6,0.3,1,0.8,1.3,1.4c0.3,0.7,0.5,1.5,0.5,2.3v6.9h-1.7v-6.8c0-0.7-0.2-1.4-0.7-2c-0.5-0.5-1.2-0.8-1.9-0.7c-0.5,0-1,0.1-1.5,0.3
		c-0.4,0.2-0.8,0.6-1,1C703,1293.1,702.9,1293.7,702.9,1294.2z"/>
	<path d="M713.9,1288.1c-0.3,0-0.6-0.1-0.8-0.3c-0.2-0.2-0.4-0.5-0.4-0.8c0-0.3,0.1-0.6,0.4-0.8c0.2-0.2,0.5-0.3,0.8-0.3
		c0.3,0,0.6,0.1,0.8,0.3c0.2,0.2,0.4,0.5,0.3,0.8c0,0.3-0.1,0.6-0.3,0.8C714.5,1287.9,714.2,1288.1,713.9,1288.1z M713,1300.8v-10.9
		h1.7v10.9H713z"/>
	<path d="M557.4,1325c-0.9,0-1.7-0.2-2.4-0.7c-0.7-0.5-1.3-1.2-1.6-2c-0.4-0.9-0.6-2-0.6-3c0-1,0.2-2.1,0.6-3c0.3-0.8,0.9-1.5,1.6-2
		c0.7-0.5,1.6-0.7,2.4-0.7c0.6,0,1.2,0.1,1.7,0.3c0.4,0.2,0.7,0.5,1,0.8c0.2,0.3,0.4,0.5,0.5,0.7h0.1v-5.4h1.7v14.5h-1.6v-1.7h-0.2
		c-0.1,0.2-0.3,0.4-0.5,0.8c-0.3,0.3-0.6,0.6-1,0.8C558.5,1324.8,558,1325,557.4,1325z M557.6,1323.5c0.6,0,1.2-0.2,1.7-0.5
		c0.5-0.4,0.8-0.9,1-1.5c0.5-1.4,0.5-2.9,0-4.3c-0.2-0.6-0.5-1.1-1-1.4c-1.1-0.7-2.4-0.7-3.5,0c-0.5,0.4-0.9,0.9-1.1,1.5
		c-0.5,1.4-0.5,2.8,0,4.2c0.2,0.6,0.6,1.1,1.1,1.5C556.4,1323.3,557,1323.5,557.6,1323.5L557.6,1323.5z"/>
	<path d="M567.2,1310.2v1.3c0,0.4-0.1,0.8-0.2,1.2c-0.1,0.4-0.4,0.9-0.6,1.3c-0.3,0.4-0.6,0.8-1,1.1l-0.9-0.7
		c0.3-0.4,0.6-0.9,0.8-1.3c0.2-0.5,0.3-1,0.3-1.5v-1.3H567.2z"/>
	<path d="M571.4,1325.1c-0.6,0-1.3-0.1-1.9-0.4c-0.5-0.2-1-0.6-1.3-1.1c-0.3-0.5-0.5-1.2-0.5-1.8c0-0.5,0.1-1.1,0.4-1.5
		c0.2-0.4,0.6-0.7,1-0.9c0.4-0.2,0.9-0.4,1.4-0.5c0.5-0.1,1-0.2,1.5-0.3l1.6-0.2c0.3,0,0.6-0.1,0.9-0.2c0.2-0.1,0.3-0.3,0.3-0.6
		v-0.1c0-0.6-0.2-1.2-0.6-1.6c-0.5-0.4-1.1-0.6-1.7-0.6c-0.7,0-1.3,0.1-1.9,0.5c-0.4,0.3-0.8,0.7-1,1.1l-1.6-0.6
		c0.2-0.6,0.6-1.1,1.1-1.6c0.5-0.4,1-0.6,1.6-0.8c0.5-0.1,1.1-0.2,1.7-0.2c0.4,0,0.8,0,1.2,0.1c0.5,0.1,0.9,0.3,1.3,0.5
		c0.5,0.3,0.8,0.7,1.1,1.2c0.3,0.6,0.5,1.4,0.4,2.1v7.2h-1.7v-1.5h-0.1c-0.2,0.3-0.3,0.5-0.6,0.8c-0.3,0.3-0.7,0.5-1.1,0.7
		C572.5,1325,572,1325.1,571.4,1325.1z M571.7,1323.5c0.6,0,1.2-0.1,1.7-0.4c0.4-0.2,0.8-0.6,1-1c0.2-0.4,0.3-0.8,0.3-1.3v-1.5
		c-0.1,0.1-0.3,0.2-0.5,0.2c-0.3,0.1-0.5,0.1-0.8,0.2l-0.9,0.1l-0.7,0.1c-0.4,0.1-0.8,0.1-1.2,0.3c-0.3,0.1-0.7,0.3-0.9,0.6
		c-0.2,0.3-0.4,0.6-0.3,1c0,0.5,0.2,1,0.7,1.3C570.5,1323.4,571.1,1323.6,571.7,1323.5z"/>
	<path d="M579.5,1324.8v-10.9h1.6v1.7h0.1c0.2-0.5,0.6-1,1.1-1.3c0.5-0.3,1.1-0.5,1.8-0.5h0.5h0.4v1.7l-0.4-0.1
		c-0.2,0-0.4,0-0.6-0.1c-0.5,0-1,0.1-1.4,0.3c-0.4,0.2-0.8,0.5-1,0.9c-0.2,0.4-0.4,0.9-0.4,1.3v6.9L579.5,1324.8z"/>
	<path d="M592.4,1313.9v1.4h-5.7v-1.4H592.4z M588.4,1311.3h1.7v10.4c0,0.4,0,0.7,0.2,1.1c0.1,0.2,0.3,0.4,0.5,0.5
		c0.2,0.1,0.5,0.1,0.7,0.1c0.2,0,0.3,0,0.5,0h0.3l0.3,1.5c-0.2,0.1-0.3,0.1-0.5,0.1c-0.3,0-0.5,0.1-0.8,0.1c-0.5,0-0.9-0.1-1.4-0.3
		c-0.5-0.2-0.8-0.5-1.1-0.9c-0.3-0.5-0.5-1-0.4-1.6L588.4,1311.3z"/>
	<path d="M595.8,1312.1c-0.3,0-0.6-0.1-0.8-0.3c-0.2-0.2-0.4-0.5-0.3-0.8c0-0.3,0.1-0.6,0.3-0.8c0.5-0.5,1.2-0.5,1.7,0
		c0.2,0.2,0.4,0.5,0.3,0.8c0,0.3-0.1,0.6-0.3,0.8C596.4,1311.9,596.1,1312.1,595.8,1312.1z M594.9,1324.8v-10.9h1.7v10.9H594.9z"/>
	<path d="M604.5,1313.9v1.4h-5.9v-1.4H604.5z M600.4,1324.8v-12.4c0-0.6,0.1-1.1,0.4-1.6c0.3-0.4,0.7-0.7,1.1-0.9
		c0.5-0.2,1-0.3,1.5-0.3c0.3,0,0.7,0,1,0.1c0.2,0,0.4,0.1,0.6,0.2l-0.5,1.4l-0.3-0.1c-0.2,0-0.4-0.1-0.6-0.1c-0.4,0-0.9,0.1-1.2,0.4
		c-0.3,0.3-0.4,0.8-0.4,1.2v12L600.4,1324.8z"/>
	<path d="M607.7,1312.1c-0.3,0-0.6-0.1-0.8-0.3c-0.2-0.2-0.4-0.5-0.3-0.8c0-0.3,0.1-0.6,0.3-0.8c0.5-0.5,1.2-0.5,1.7,0
		c0.2,0.2,0.4,0.5,0.3,0.8c0,0.3-0.1,0.6-0.3,0.8C608.3,1311.9,608,1312.1,607.7,1312.1z M606.9,1324.8v-10.9h1.7v10.9H606.9z"/>
	<path d="M616,1325c-1.9,0.1-3.6-1-4.3-2.7c-0.4-0.9-0.6-1.9-0.6-2.9c0-1,0.2-2,0.6-2.9c0.4-0.8,1-1.5,1.7-2
		c0.8-0.5,1.7-0.7,2.6-0.7c0.7,0,1.4,0.1,2.1,0.4c0.6,0.3,1.1,0.7,1.5,1.2c0.4,0.5,0.6,1.1,0.7,1.8h-1.7c-0.3-1.2-1.4-2-2.6-1.9
		c-0.6,0-1.2,0.2-1.7,0.5c-0.5,0.4-0.9,0.9-1.1,1.4c-0.3,0.7-0.4,1.4-0.4,2.2c0,0.8,0.1,1.5,0.4,2.2c0.2,0.6,0.6,1.1,1.1,1.4
		c0.5,0.4,1.1,0.5,1.7,0.5c0.4,0,0.8-0.1,1.2-0.2c0.3-0.2,0.7-0.4,0.9-0.7c0.2-0.3,0.4-0.6,0.5-1h1.7c-0.1,0.6-0.3,1.2-0.7,1.7
		c-0.4,0.5-0.9,0.9-1.5,1.2C617.5,1324.9,616.7,1325,616,1325z"/>
	<path d="M623.6,1312.1c-0.3,0-0.6-0.1-0.8-0.3c-0.2-0.2-0.4-0.5-0.3-0.8c0-0.3,0.1-0.6,0.3-0.8c0.5-0.5,1.2-0.5,1.7,0
		c0.2,0.2,0.4,0.5,0.3,0.8c0,0.3-0.1,0.6-0.3,0.8C624.2,1311.9,623.9,1312.1,623.6,1312.1z M622.8,1324.8v-10.9h1.7v10.9H622.8z"/>
	<path d="M632,1325c-0.9,0-1.8-0.2-2.6-0.7c-0.8-0.5-1.4-1.2-1.7-2c-0.8-1.9-0.8-4,0-5.9c1.1-2.4,4-3.4,6.3-2.3
		c1,0.5,1.8,1.3,2.3,2.3c0.8,1.9,0.8,4,0,5.9c-0.4,0.8-1,1.5-1.7,2C633.8,1324.8,632.9,1325,632,1325z M632,1323.5
		c0.7,0,1.3-0.2,1.8-0.6c0.5-0.4,0.9-0.9,1.1-1.5c0.2-0.6,0.4-1.3,0.3-2c0-0.7-0.1-1.4-0.3-2c-0.2-0.6-0.6-1.1-1.1-1.5
		c-0.5-0.4-1.2-0.6-1.8-0.6c-0.7,0-1.3,0.2-1.8,0.6c-0.5,0.4-0.9,0.9-1.1,1.5c-0.2,0.6-0.3,1.3-0.3,2c0,0.7,0.1,1.4,0.3,2
		c0.2,0.6,0.6,1.1,1.1,1.5C630.7,1323.3,631.3,1323.5,632,1323.5L632,1323.5z"/>
	<line class="st6" x1="874.7" y1="1357.8" x2="730.5" y2="1274.5"/>
</g>
<g id="no_piogge">
	<path d="M52.5,1447.1c0-5,1.7-8.8,6-8.8s6,3.9,6,8.8s-1.7,8.8-6,8.8S52.5,1452,52.5,1447.1z M62.1,1447.1c0-4.4-1.2-6.8-3.7-6.8
		s-3.7,2.4-3.7,6.8s1.3,6.9,3.7,6.9S62,1451.4,62.1,1447.1z"/>
	<path d="M129.7,1442.4l5.5-3.8h1.7v15.1h4.1v1.8h-10.7v-1.8h4.4v-12.3l-3.9,2.7L129.7,1442.4z"/>
	<path d="M143.4,1447.1c0-5,1.7-8.8,6-8.8s5.9,3.9,5.9,8.8s-1.7,8.8-5.9,8.8S143.4,1452,143.4,1447.1z M153,1447.1
		c0-4.4-1.2-6.8-3.7-6.8s-3.7,2.4-3.7,6.8s1.2,6.8,3.7,6.8S152.9,1451.4,153,1447.1z"/>
	<path d="M224.6,1448.4l1.8-1.3c1.7-1.2,2.8-1.8,2.8-3.9c0-1.6-1.2-2.9-2.8-2.9c0,0,0,0,0,0h-0.4c-2.2,0-3.3,1.2-3.4,3.4h-2.1
		c-0.1-2.7,1.9-5.1,4.6-5.4h0.8c2.6-0.3,4.9,1.6,5.2,4.2c0,0,0,0.1,0,0.1v0.6c0,2.9-1.9,4.2-3.7,5.2l-1.7,1.2
		c-2.6,1.7-2.9,2.9-3.1,4.2h8.8v1.8h-11.2C220.4,1452.6,222,1449.8,224.6,1448.4z"/>
	<path d="M234.3,1447.1c0-5,1.7-8.8,6-8.8s5.9,3.9,5.9,8.8s-1.7,8.8-5.9,8.8S234.3,1452,234.3,1447.1z M243.8,1447.1
		c0-4.4-1.2-6.8-3.7-6.8s-3.7,2.4-3.7,6.8s1.2,6.8,3.7,6.8S243.8,1451.5,243.8,1447.1z"/>
	<path d="M313.4,1450.4c-0.2,1.8,1.2,3.4,2.9,3.5h0.7c2.1,0,3.7-1.1,3.7-3.2c-0.1-1.8-1.7-3.3-3.5-3.2h-1.3v-1.8h1.2
		c1.6,0,2.9-1.2,3-2.8v-0.1c0-1.5-1.2-2.8-2.7-2.8c0,0-0.1,0-0.1,0H317c-1.5-0.2-2.9,1-3,2.5c0,0,0,0,0,0.1v0.5h-2
		c-0.1-2.6,1.8-4.8,4.4-5h0.6c2.6-0.3,4.9,1.6,5.1,4.2v0.4c0,1.6-1,3.1-2.4,3.8v0.1c1.9,0.6,3.2,2.3,3.2,4.3c0,3-2.6,4.9-5.9,4.9
		c-2.8,0.4-5.3-1.6-5.7-4.4c0,0,0,0,0,0v-1.1L313.4,1450.4z"/>
	<path d="M325.3,1447.1c0-5,1.7-8.8,6-8.8s5.9,3.9,5.9,8.8s-1.7,8.8-5.9,8.8C326.9,1455.9,325.3,1452,325.3,1447.1z M334.9,1447.1
		c0-4.4-1.2-6.8-3.7-6.8s-3.7,2.4-3.7,6.8s1.2,6.8,3.7,6.8S334.7,1451.4,334.9,1447.1z"/>
	<path d="M402.4,1449.8l8.3-11.1h1.8v10.9h2.4v2h-2.4v4.3h-2.2v-4.3h-7.8L402.4,1449.8z M410.2,1449.5v-7.5l-5.6,7.4L410.2,1449.5z"
		/>
	<path d="M416.9,1447.1c0-5,1.7-8.8,6-8.8s5.9,3.9,5.9,8.8s-1.7,8.8-5.9,8.8C418.5,1455.9,416.9,1452,416.9,1447.1z M426.4,1447.1
		c0-4.4-1.2-6.8-3.7-6.8s-3.7,2.4-3.7,6.8s1.2,6.8,3.7,6.8S426.4,1451.4,426.4,1447.1z"/>
	<path d="M496.4,1451c0.2,1.8,1.8,3.2,3.6,3c2,0,3.7-1.6,3.7-3.6c0-2-1.6-3.7-3.6-3.7c0,0,0,0,0,0c-1.3,0-2.5,0.6-3.3,1.7l-2.1-0.1
		l0.5-9.5h9.5v2.1h-7.4l-0.4,5.4h0.2c0.9-0.8,2.1-1.3,3.3-1.2c2.9-0.2,5.3,2.1,5.5,4.9c0,0,0,0,0,0.1v0.5c0.1,3-2.2,5.5-5.2,5.6
		c-0.1,0-0.1,0-0.2,0h-0.6c-2.9,0.4-5.5-1.7-5.8-4.6c0,0,0-0.1,0-0.1v-0.2L496.4,1451z"/>
	<path d="M508.2,1447.1c0-5,1.7-8.8,6-8.8c4.3,0,5.9,3.9,5.9,8.8s-1.7,8.8-5.9,8.8S508.2,1452,508.2,1447.1z M517.8,1447.1
		c0-4.4-1.2-6.8-3.7-6.8s-3.7,2.4-3.7,6.8s1.2,6.8,3.7,6.8S517.7,1451.4,517.8,1447.1z"/>
	<path d="M591.6,1438.3c2.6-0.3,4.9,1.6,5.1,4.1c0,0,0,0,0,0v0.4h-2.1c0-1.5-1.3-2.7-2.8-2.7c0,0,0,0,0,0h-0.1
		c-2.1,0-4.2,1.8-4.2,6.8c0.9-1.5,2.6-2.3,4.4-2.2c2.8,0,5.1,2.2,5.2,5v0.5c0.1,3-2.3,5.5-5.3,5.6c0,0,0,0,0,0h-0.4
		c-3.4,0-6.2-2.1-6.2-8.4C585.1,1440.7,588.4,1438.3,591.6,1438.3z M587.8,1450.3c-0.1,2,1.3,3.6,3.3,3.8h0.2c2.1,0,3.7-1.6,3.8-3.7
		c0-2.1-1.6-3.7-3.7-3.8c-2,0-3.6,1.6-3.8,3.5C587.7,1450.2,587.8,1450.3,587.8,1450.3L587.8,1450.3z"/>
	<path d="M599.1,1447.1c0-5,1.7-8.8,6-8.8s5.9,3.9,5.9,8.8s-1.7,8.8-5.9,8.8S599.1,1452,599.1,1447.1z M608.8,1447.1
		c0-4.4-1.2-6.8-3.7-6.8s-3.7,2.4-3.7,6.8s1.2,6.8,3.7,6.8S608.6,1451.4,608.8,1447.1z"/>
	<path d="M685.4,1440.6h-9.3v-2.1h11.7v1.6l-7.2,15.4h-2.3L685.4,1440.6z"/>
	<path d="M690.1,1447.1c0-4.9,1.7-8.8,6-8.8s5.9,3.9,5.9,8.8s-1.7,8.8-5.9,8.8S690.1,1452,690.1,1447.1z M699.7,1447.1
		c0-4.4-1.2-6.8-3.7-6.8s-3.7,2.4-3.7,6.8s1.2,6.8,3.7,6.8S699.6,1451.4,699.7,1447.1z"/>
	<path d="M770.4,1446.9L770.4,1446.9c-1.5-0.7-2.4-2.2-2.4-3.8c0-2.6,2.1-4.7,4.6-4.8h0.5c2.6-0.2,4.9,1.6,5.2,4.2v0.5
		c0,1.6-1,3.1-2.5,3.8l0,0c1.9,0.5,3.2,2.3,3.1,4.2c0,3-2.4,4.9-6,4.9s-6-1.8-6-4.9C767.1,1449,768.5,1447.4,770.4,1446.9z
		 M773.2,1454.1c2.2,0,3.8-1.1,3.8-3.2c-0.1-1.8-1.7-3.3-3.5-3.2h-0.2c-1.9-0.2-3.5,1.1-3.8,2.9v0.2
		C769.4,1452.9,771,1454.1,773.2,1454.1L773.2,1454.1z M776.3,1443c0-1.5-1.2-2.8-2.8-2.8c-0.1,0-0.1,0-0.2,0h-0.2
		c-1.6-0.2-3,1-3.2,2.6v0.2c0.2,1.7,1.8,3,3.5,2.8C775,1445.5,776.1,1444.4,776.3,1443L776.3,1443z"/>
	<path d="M781.4,1447.1c0-4.9,1.7-8.8,6-8.8s5.9,3.9,5.9,8.8s-1.7,8.8-5.9,8.8C782.9,1455.9,781.4,1452,781.4,1447.1z M790.9,1447.1
		c0-4.4-1.2-6.8-3.7-6.8s-3.7,2.4-3.7,6.8s1.2,6.8,3.7,6.8S790.9,1451.5,790.9,1447.1z"/>
	<path d="M864.2,1455.9c-2.7,0.2-5.1-1.7-5.4-4.4v-0.1h2.2c0.2,1.6,1.6,2.8,3.2,2.7c2.3,0,3.9-1.7,3.9-6.7c-1,1.5-2.6,2.3-4.4,2.2
		c-2.8,0.1-5.2-2.1-5.4-4.9v-0.6c-0.1-3,2.2-5.5,5.2-5.6c0.1,0,0.1,0,0.2,0h0.4c3.4,0,6.2,2.1,6.2,8.4
		C870.5,1453.6,867.8,1455.9,864.2,1455.9z M867.9,1443.9c0-2-1.6-3.7-3.7-3.7l0,0c-2,0-3.6,1.5-3.7,3.5c0,0,0,0.1,0,0.1
		c-0.1,1.9,1.4,3.5,3.3,3.7h0.1c2,0.1,3.7-1.5,3.8-3.5L867.9,1443.9z"/>
	<path d="M872.8,1447.1c0-4.9,1.7-8.8,6-8.8s5.9,3.9,5.9,8.8s-1.7,8.8-5.9,8.8S872.8,1452,872.8,1447.1z M882.4,1447.1
		c0-4.4-1.2-6.8-3.7-6.8s-3.7,2.4-3.7,6.8s1.2,6.8,3.7,6.8S882.3,1451.4,882.4,1447.1z"/>
	<path d="M949.8,1442.4l5.5-3.8h1.7v15.1h4.1v1.8h-10.7v-1.8h4.4v-12.3l-3.9,2.7L949.8,1442.4z"/>
	<path d="M963.6,1447.1c0-4.9,1.7-8.8,6-8.8s5.9,3.9,5.9,8.8s-1.7,8.8-5.9,8.8S963.6,1452,963.6,1447.1z M973.1,1447.1
		c0-4.4-1.2-6.8-3.7-6.8s-3.7,2.4-3.7,6.8s1.2,6.8,3.7,6.8S973.1,1451.4,973.1,1447.1z"/>
	<path d="M977.5,1447.1c0-4.9,1.7-8.8,6-8.8s6,3.9,6,8.8s-1.7,8.8-6,8.8S977.5,1452,977.5,1447.1z M987.1,1447.1
		c0-4.4-1.2-6.8-3.7-6.8s-3.7,2.4-3.7,6.8s1.2,6.8,3.7,6.8S987.1,1451.4,987.1,1447.1z"/>
	<path d="M936.5,1501.8v1.9h-2.2v-18h2.2v7.2c0,2.6,1,3.5,2.8,3.5s3.2-1.7,3.2-4.4v-6.4h2.2v12.5h-2.1v-1.8h-0.1
		c-0.7,1.4-2.1,2.2-3.7,2.1c-0.9,0-1.8-0.2-2.5-0.7h-0.2C936.4,1499,936.5,1500.4,936.5,1501.8z"/>
	<path d="M950,1499.3c0,1.5,1.4,2.4,3.4,2.4s3.9-1.1,3.9-4.6v-1.3h-0.1c-0.8,1.5-2.5,2.4-4.2,2.2c-3.1,0-5.5-2.3-5.5-6.4
		s2.5-6.6,5.7-6.6c1.6-0.1,3.2,0.7,3.9,2.2h0.1v-1.9h2.1v11.8c0,4.7-2.8,6.4-6.1,6.4s-5.5-1.5-5.5-4.3L950,1499.3z M953.5,1496.2
		c2,0,3.6-1.7,3.6-4.6s-1.7-4.6-3.6-4.6s-3.6,1.7-3.6,4.7S951.5,1496.2,953.5,1496.2L953.5,1496.2z"/>
	<path d="M969.3,1480.2h1.9l-7.8,18h-2L969.3,1480.2z"/>
	<path d="M971.6,1485.6h2.1v1.8h0.1c0.7-1.4,2.2-2.2,3.7-2.1c1.7-0.2,3.3,0.9,3.9,2.5c0.7-1.7,2.4-2.7,4.2-2.5c2.3,0,4.3,1.3,4.3,5
		v7.7h-2.2v-7.4c0-2.4-0.8-3.4-2.5-3.4s-3.2,1.7-3.2,4.3v6.4h-2.2v-7.4c0-2.4-0.9-3.4-2.5-3.4s-3.2,1.7-3.2,4.3v6.4h-2.2
		L971.6,1485.6z"/>
	<path d="M993.5,1486.3c-0.1,1.1,0.7,2,1.7,2.1c0,0,0,0,0.1,0h0.4c1.3,0,2.2-0.7,2.2-1.9c0-1.1-0.9-2-2-2h-1v-1.1h0.8
		c0.9,0.1,1.7-0.6,1.8-1.5v-0.1c0-0.9-0.7-1.7-1.7-1.7c0,0,0,0,0,0h-0.1c-0.9,0-1.7,0.7-1.8,1.6v0.3h-1.2c0.1-1.7,1.5-3,3.2-2.9
		c1.4,0.1,2.6,1.2,2.8,2.6c0,1-0.6,1.9-1.5,2.3l0,0c1.1,0.3,1.9,1.3,1.9,2.5c-0.1,1.7-1.6,3-3.3,2.9h-0.2c-1.6,0.2-3.2-0.9-3.4-2.5
		c0,0,0,0,0-0.1v-0.6L993.5,1486.3z"/>
</g>
<g id="Livello_2_00000162323716151584168100000013929489847303044284_">
	<g>
		<path d="M18.5,231.6v12h-2.1V234H9.8v7.6H7.8V234H0.4v-2.5L18.5,231.6z"/>
		<path d="M18.5,246.7V259h-2.1v-9.8h-5.7v7.8H8.7v-7.8H2.6v10H0.5v-12.5H18.5z"/>
		<path d="M18.5,262.7v7.5c0,3.9-1.8,5.8-4.8,5.8c-1.8,0-3.3-1.1-3.7-2.9H9.8c-0.2,2.1-2,3.7-4.1,3.6c-3.1,0-5.4-2.1-5.4-5.9v-8
			h18.2V262.7z M16.4,265.2h-5.6v5c0,2.2,1.3,3.4,3,3.4s2.6-0.9,2.6-3.4L16.4,265.2z M8.8,265.2H2.6v5.6c0,2.5,1.3,3.6,3.2,3.6
			c1.7,0,3-1.2,3-3.6L8.8,265.2z"/>
	</g>
	<g>
		<path d="M3.1,132.8L3.1,132.8c-2-1.3-3.2-3.6-3-5.9c0-5.2,4-8.8,9.4-8.8s9.5,3.6,9.5,8.9c0,4.3-2.5,7.1-5.7,7.9v-2.6
			c1.8-0.5,3.5-2.3,3.5-5.4c0-3.9-3.1-6.5-7.1-6.5s-7.1,2.6-7.1,6.3c0,3,1.8,5.8,5,5.8h0.5V127h2.1v7.9H0.6v-1.6L3.1,132.8z"/>
		<path d="M18.5,139.1v12.3h-2.1v-9.8h-5.7v7.8H8.7v-7.8H2.6v10H0.5v-12.4L18.5,139.1z"/>
		<path d="M18.5,155.3v2.3l-14,10v0.1l14-0.1v2.4H0.4v-2.3l14-10v-0.1l-14,0.1v-2.4H18.5z"/>
	</g>
	<g>
		<path d="M18.5,338.4v3L3.6,348l0,0l14.9,6.6v3H0.4v-2.5l14.3,0.3v-0.1L0.4,349v-2l14-6.3v-0.1l-14,0.3v-2.5L18.5,338.4z"/>
		<path d="M18.5,366.9v2.9l-18.1,6.7v-2.6l4.8-1.7v-8l-4.8-1.7v-2.5L18.5,366.9z M16,368.2l-8.8-3.1v6.5L16,368.2z"/>
		<path d="M18.5,379.1v6.9c0,4.1-1.9,6.3-5.4,6.3c-2.5,0.1-4.8-1.5-5.4-4l-7.4,4.6v-2.6l7.1-4.5v-4.3H0.3v-2.5L18.5,379.1z
			 M16.4,381.5H9.6v4.5c0,2.6,1.6,3.8,3.6,3.8s3.2-1.4,3.2-3.8V381.5z"/>
	</g>
	<g>
		<path d="M18.5,461.3v2.8l-18.1,6.7v-2.6l4.8-1.7v-8l-4.8-1.7v-2.5L18.5,461.3z M16,462.7l-8.8-3.1v6.5L16,462.7z"/>
		<path d="M18.5,473.6v6.9c0,4.1-2.5,6.5-5.8,6.5s-5.9-2.3-5.9-6.5V476H0.4v-2.5L18.5,473.6z M16.4,476H8.8v4.5
			c-0.1,2,1.4,3.8,3.4,3.9c0.2,0,0.3,0,0.5,0c2,0.1,3.6-1.4,3.7-3.4c0-0.2,0-0.3,0-0.5V476z"/>
		<path d="M18.5,490.4v6.9c0,4.1-1.9,6.3-5.4,6.3c-2.5,0.1-4.8-1.5-5.4-4l-7.4,4.6v-2.6l7.1-4.5v-4.3H0.3v-2.5L18.5,490.4z
			 M16.4,492.7H9.6v4.5c0,2.6,1.6,3.8,3.6,3.8s3.2-1.4,3.2-3.8V492.7z"/>
	</g>
	<g>
		<path d="M18.5,565.7v3l-14.9,6.7l0,0l14.9,6.6v3H0.4v-2.5l14.3,0.3v-0.1l-14.3-6.3v-1.9l14-6.3v-0.1l-14,0.2v-2.5H18.5z"/>
		<path d="M18.5,594.3v2.8l-18.1,6.7v-2.6l4.8-1.7v-8l-4.8-1.7v-2.3L18.5,594.3z M16,595.6l-8.8-3.1v6.5L16,595.6z"/>
		<path d="M3.1,619.8L3.1,619.8c-2-1.3-3.2-3.6-3-6c0-5.2,4-8.8,9.4-8.8s9.5,3.7,9.5,9c0,4.3-2.5,7.1-5.7,7.9v-2.6
			c1.8-0.5,3.5-2.3,3.5-5.4c0-3.9-3.1-6.5-7.1-6.5s-7.1,2.6-7.1,6.3c0,3,1.8,5.8,5,5.8h0.5v-5.7h2.1v7.9H0.6v-1.5L3.1,619.8z"/>
	</g>
	<g>
		<path d="M3.1,698.1L3.1,698.1c-2-1.3-3.2-3.6-3-6c0-5.2,4-8.8,9.4-8.8s9.5,3.7,9.5,9c0,4.3-2.5,7.1-5.7,7.9v-2.6
			c1.8-0.5,3.5-2.3,3.5-5.4c0-3.9-3.1-6.5-7.1-6.5s-7.1,2.6-7.1,6.3c0,3,1.8,5.8,5,5.8h0.5v-5.7h2.1v7.8H0.6v-1.5L3.1,698.1z"/>
		<path d="M18.5,704.4v2.5H0.4v-2.5H18.5z"/>
		<path d="M18.5,711.2v2.5h-11c-3.4,0-5.3,1.5-5.3,4.8s1.9,4.8,5.3,4.8h11v2.5h-11c-5.4,0-7.5-3-7.5-7.2s2.1-7.2,7.5-7.2L18.5,711.2
			z"/>
	</g>
	<g>
		<path d="M18.5,787.2v2.5h-16v8.8H0.4v-11.2H18.5z"/>
		<path d="M18.5,800.6v2.5h-11c-3.4,0-5.3,1.5-5.3,4.8s1.9,4.8,5.3,4.8h11v2.5h-11c-5.4,0-7.5-3-7.5-7.2s2.1-7.2,7.5-7.2L18.5,800.6
			z"/>
		<path d="M3.1,833.3L3.1,833.3c-2-1.3-3.2-3.6-3-6c0-5.2,4-8.8,9.4-8.8s9.5,3.6,9.5,8.9c0,4.3-2.5,7.1-5.7,7.9v-2.6
			c1.8-0.5,3.5-2.3,3.5-5.4c0-3.9-3.1-6.5-7.1-6.5s-7.1,2.6-7.1,6.3c0,3,1.8,5.8,5,5.8h0.5v-5.7h2.1v7.9H0.6v-1.5L3.1,833.3z"/>
	</g>
	<g>
		<path d="M18.5,903.8v2.8l-18.1,6.7v-2.6l4.8-1.7v-8l-4.8-1.7v-2.5L18.5,903.8z M16,905l-8.8-3v6.5L16,905z"/>
		<path d="M3.1,929.1L3.1,929.1c-2-1.3-3.2-3.6-3-5.9c0-5.2,4-8.8,9.4-8.8s9.5,3.6,9.5,8.9c0,4.3-2.5,7.1-5.7,7.9v-2.6
			c1.8-0.5,3.5-2.3,3.5-5.4c0-3.9-3.1-6.5-7.1-6.5s-7.1,2.6-7.1,6.3c0,3,1.8,5.8,5,5.8h0.5v-5.7h2.1v7.8H0.6v-1.5L3.1,929.1z"/>
		<path d="M18.9,943.2c0,5.2-4,8.8-9.4,8.8S0,948.3,0,943.2s4-8.8,9.4-8.8S18.9,937.9,18.9,943.2z M2.3,943.2c0,3.9,3.1,6.3,7.1,6.3
			s7.1-2.5,7.1-6.3s-3.1-6.3-7.1-6.3S2.3,939.3,2.3,943.2z"/>
	</g>
	<g>
		<path d="M5.6,1016.1c-1.9,0-3.5,1.7-3.5,4.5s1.3,4.6,3.4,4.6c4.8,0,1.2-11.4,8.1-11.4c3.1,0,5.3,2.7,5.3,6.7c0,4-1.9,6.6-5.2,6.6
			v-2.5c1.9,0,3.1-1.8,3.1-4.3s-1-4.3-3.1-4.3c-4.8,0-1,11.4-8.3,11.4c-3.2,0-5.4-2.6-5.4-7.1s2.2-7,5.4-7v2.6L5.6,1016.1z"/>
		<path d="M18.5,1031.6v12.3h-2.1v-9.8h-5.7v7.8H8.7v-7.8H2.6v10H0.5v-12.5H18.5z"/>
		<path d="M18.5,1045.6v15.1h-2.1v-6.3h-16v-2.4h16v-6.3L18.5,1045.6z"/>
	</g>
	<g>
		<path d="M18.9,1131c0,5.2-4,8.8-9.4,8.8S0,1136.2,0,1131s4-8.8,9.4-8.8S18.9,1125.7,18.9,1131z M2.3,1131c0,3.9,3.1,6.3,7.1,6.3
			s7.1-2.5,7.1-6.3s-3.1-6.3-7.1-6.3S2.3,1127.1,2.3,1131z"/>
		<path d="M18.5,1140.3v15.1h-2.1v-6.3h-16v-2.5h16v-6.3L18.5,1140.3z"/>
		<path d="M18.5,1155.7v15.1h-2.1v-6.3h-16v-2.5h16v-6.3L18.5,1155.7z"/>
	</g>
	<g>
		<path d="M18.5,1232.4v2.3l-14,10v0.1l14-0.1v2.5H0.4v-2.3l14-10v-0.1l-14,0.1v-2.5H18.5z"/>
		<path d="M18.9,1259.5c0,5.2-4,8.8-9.4,8.8s-9.4-3.6-9.4-8.8s4-8.8,9.4-8.8S18.9,1254.2,18.9,1259.5z M2.3,1259.5
			c0,3.9,3.1,6.3,7.1,6.3s7.1-2.5,7.1-6.3s-3.1-6.3-7.1-6.3S2.3,1255.6,2.3,1259.5z"/>
		<path d="M18.5,1269.2v2.6l-15.6,5.4v0.1l15.6,5.4v2.4l-18.1-6.6v-2.7L18.5,1269.2z"/>
	</g>
	<g>
		<path d="M18.5,1346.8v5.6c0,6.2-3.8,9.4-9,9.4s-9-3.2-9-9.4v-5.6H18.5z M16.4,1349.2H2.5v3.1c0,5,3.2,7,7,7s7-1.8,7-7L16.4,1349.2
			L16.4,1349.2z"/>
		<path d="M18.5,1365.4v2.5H0.4v-2.5H18.5z"/>
		<path d="M18.9,1380c0,4.3-2.5,7-5.9,7.8v-2.4c2.4-0.7,3.7-2.5,3.7-5.2c0-3.8-3-6.2-7.1-6.2s-7.1,2.5-7.1,6.1c0,3,1.3,4.7,3.7,5.3
			v2.4c-3.6-0.8-5.9-3.6-5.9-7.8c0-5,3.9-8.7,9.4-8.7C14.9,1371.2,18.9,1374.8,18.9,1380z"/>
	</g>
	<path d="M790.3,410.8c-0.1-0.8-0.5-1.4-1.1-1.8c-0.7-0.5-1.6-0.7-2.5-0.7c-0.6,0-1.3,0.1-1.8,0.3c-0.5,0.2-0.9,0.5-1.2,1
		c-0.3,0.4-0.4,0.9-0.4,1.4c0,0.4,0.1,0.8,0.3,1.1c0.2,0.3,0.5,0.6,0.8,0.8c0.3,0.2,0.7,0.4,1,0.5c0.3,0.1,0.7,0.2,1,0.3l1.6,0.4
		c0.4,0.1,0.9,0.3,1.4,0.5c0.5,0.2,1,0.5,1.5,0.8c0.5,0.3,0.9,0.8,1.2,1.3c0.3,0.6,0.5,1.2,0.5,1.9c0,0.8-0.2,1.6-0.7,2.3
		c-0.5,0.7-1.2,1.3-2,1.7c-2,0.8-4.1,0.8-6.1,0.1c-0.8-0.3-1.5-0.9-2-1.5c-0.5-0.7-0.8-1.5-0.8-2.3h2c0,0.6,0.2,1.1,0.6,1.5
		c0.4,0.4,0.8,0.7,1.4,0.9c0.6,0.2,1.2,0.3,1.8,0.3c0.7,0,1.4-0.1,2-0.4c0.5-0.2,1-0.5,1.4-1c0.3-0.4,0.5-1,0.5-1.5
		c0-0.5-0.1-0.9-0.5-1.3c-0.3-0.4-0.7-0.6-1.2-0.8c-0.5-0.2-1-0.4-1.6-0.5l-2-0.6c-1.1-0.3-2.1-0.8-3-1.5c-0.7-0.7-1.1-1.6-1.1-2.6
		c0-0.8,0.2-1.7,0.7-2.4c0.5-0.7,1.2-1.2,2-1.6c1.8-0.7,3.8-0.7,5.5,0c0.8,0.3,1.4,0.9,1.9,1.5c0.5,0.6,0.7,1.4,0.7,2.2L790.3,410.8
		z"/>
	<path d="M795.3,427.3v-16.5h1.8v1.9h0.2c0.2-0.3,0.4-0.5,0.6-0.8c0.3-0.4,0.6-0.7,1-0.9c0.6-0.3,1.2-0.4,1.9-0.4
		c0.9,0,1.9,0.2,2.7,0.8c0.8,0.5,1.4,1.3,1.8,2.1c0.9,2.1,0.9,4.5,0,6.6c-0.4,0.9-1,1.6-1.8,2.2c-0.8,0.5-1.7,0.8-2.7,0.8
		c-0.6,0-1.3-0.1-1.8-0.4c-0.4-0.2-0.8-0.5-1.1-0.9c-0.2-0.3-0.5-0.6-0.6-0.8h-0.2v6.3L795.3,427.3z M797.1,416.8
		c0,0.8,0.1,1.6,0.4,2.4c0.2,0.6,0.6,1.2,1.2,1.6c1.1,0.8,2.7,0.8,3.8,0c0.5-0.4,0.9-1,1.2-1.7c0.5-1.5,0.5-3.1,0-4.6
		c-0.2-0.6-0.6-1.2-1.2-1.6c-1.2-0.8-2.7-0.8-3.8,0c-0.5,0.4-0.9,0.9-1.2,1.6C797.2,415.2,797.1,416,797.1,416.8z"/>
	<path d="M813.8,423c-1.1,0-2.1-0.2-3-0.8c-0.8-0.5-1.5-1.3-1.9-2.2c-0.5-1-0.7-2.1-0.7-3.2c0-1.1,0.2-2.2,0.7-3.2
		c0.4-0.9,1.1-1.7,1.9-2.2c0.8-0.5,1.8-0.8,2.8-0.8c0.6,0,1.3,0.1,1.8,0.3c0.6,0.2,1.2,0.6,1.7,1c0.5,0.5,0.9,1.1,1.2,1.9
		c0.3,0.9,0.5,1.9,0.5,2.8v0.8h-9.2v-1.6h7.4c0-0.6-0.1-1.2-0.4-1.8c-0.3-0.5-0.7-1-1.1-1.3c-0.5-0.3-1.1-0.5-1.7-0.5
		c-0.7,0-1.3,0.2-1.9,0.5c-0.5,0.4-1,0.8-1.2,1.4c-0.3,0.6-0.4,1.2-0.4,1.9v1.1c0,0.8,0.1,1.6,0.5,2.3c0.3,0.6,0.7,1.1,1.3,1.4
		c0.6,0.3,1.3,0.5,2,0.5c0.4,0,0.9-0.1,1.3-0.2c0.4-0.1,0.7-0.3,1-0.6c0.3-0.3,0.5-0.6,0.7-1l1.8,0.5c-0.2,0.6-0.5,1.1-1,1.6
		c-0.5,0.5-1,0.8-1.6,1.1C815.3,423,814.5,423.1,813.8,423z"/>
	<path d="M826.4,427.5c-0.8,0-1.6-0.1-2.3-0.3c-0.6-0.2-1.1-0.5-1.6-0.9c-0.4-0.3-0.7-0.7-1-1.2l1.5-1c0.2,0.2,0.4,0.5,0.6,0.8
		c0.3,0.3,0.6,0.6,1,0.7c0.6,0.2,1.2,0.3,1.8,0.3c0.9,0,1.7-0.2,2.4-0.7c0.7-0.5,1.1-1.3,1-2.2v-2.4h-0.2c-0.1,0.2-0.3,0.5-0.6,0.8
		c-0.3,0.4-0.7,0.6-1.1,0.9c-0.6,0.3-1.2,0.4-1.9,0.4c-0.9,0-1.8-0.2-2.6-0.7c-0.8-0.5-1.4-1.2-1.8-2c-0.5-1-0.7-2.1-0.7-3.2
		c0-1.1,0.2-2.2,0.6-3.2c0.4-0.9,1-1.6,1.8-2.1c0.8-0.5,1.7-0.8,2.7-0.8c0.6-0.1,1.3,0.1,1.9,0.3c0.4,0.2,0.8,0.5,1.1,0.9
		c0.2,0.3,0.4,0.6,0.6,0.8h0.2v-1.9h1.8v12.3c0,0.9-0.2,1.8-0.7,2.5c-0.5,0.7-1.1,1.2-1.9,1.4C828.2,427.4,827.3,427.6,826.4,427.5z
		 M826.3,421c0.7,0,1.3-0.2,1.9-0.5c0.5-0.4,0.9-0.9,1.2-1.5c0.3-0.7,0.4-1.5,0.4-2.3c0-0.8-0.1-1.6-0.4-2.3
		c-0.2-0.6-0.6-1.2-1.2-1.6c-1.2-0.8-2.7-0.8-3.8,0c-0.5,0.4-0.9,1-1.2,1.6c-0.3,0.7-0.4,1.5-0.4,2.2c0,0.8,0.1,1.5,0.4,2.2
		c0.2,0.6,0.6,1.1,1.2,1.5C825,420.8,825.6,421,826.3,421L826.3,421z"/>
	<path d="M836.8,415.6v7.2h-1.8v-12h1.8v1.9h0.2c0.3-0.6,0.7-1.1,1.3-1.5c0.7-0.4,1.4-0.6,2.2-0.6c0.7,0,1.5,0.2,2.1,0.5
		c0.6,0.3,1.1,0.9,1.4,1.5c0.4,0.8,0.5,1.7,0.5,2.5v7.6h-1.8v-7.5c0-0.8-0.2-1.6-0.7-2.2c-0.5-0.5-1.3-0.8-2-0.8
		c-0.5,0-1.1,0.1-1.6,0.4c-0.5,0.3-0.8,0.6-1.1,1.1C836.9,414.3,836.8,415,836.8,415.6z"/>
	<path d="M848.8,408.8c-0.3,0-0.7-0.1-0.9-0.4c-0.5-0.4-0.5-1.2-0.1-1.7c0,0,0.1-0.1,0.1-0.1c0.2-0.2,0.6-0.4,0.9-0.4
		c0.3,0,0.7,0.1,0.9,0.4c0.5,0.4,0.5,1.2,0.1,1.7c0,0-0.1,0.1-0.1,0.1C849.4,408.7,849.1,408.8,848.8,408.8z M847.8,422.8v-12h1.8
		v12H847.8z"/>
	<path d="M853,422.8v-12h1.8v1.9h0.2c0.2-0.6,0.7-1.1,1.2-1.5c0.6-0.4,1.3-0.6,2-0.5c0.7,0,1.4,0.2,2,0.5c0.5,0.4,1,0.9,1.2,1.5h0.1
		c0.3-0.6,0.8-1.1,1.4-1.5c0.7-0.4,1.4-0.6,2.2-0.6c1,0,1.9,0.3,2.6,1c0.7,0.9,1.1,2,1,3.1v8H867v-8c0.1-0.7-0.2-1.4-0.7-1.9
		c-0.5-0.4-1.1-0.6-1.7-0.6c-0.7-0.1-1.5,0.2-2,0.8c-0.5,0.5-0.7,1.2-0.7,1.9v7.8H860v-8.2c0-0.6-0.2-1.2-0.7-1.6
		c-0.5-0.4-1.1-0.7-1.7-0.6c-0.5,0-0.9,0.1-1.3,0.4c-0.4,0.3-0.8,0.6-1,1.1c-0.3,0.5-0.4,1-0.4,1.6v7.5L853,422.8z"/>
	<path d="M877.2,423c-1.1,0-2.1-0.2-3-0.8c-0.8-0.5-1.5-1.3-1.9-2.2c-0.5-1-0.7-2.1-0.7-3.2c0-1.1,0.2-2.2,0.7-3.2
		c0.4-0.9,1.1-1.7,1.9-2.2c0.8-0.5,1.8-0.8,2.8-0.8c0.6,0,1.3,0.1,1.8,0.3c0.6,0.2,1.2,0.6,1.7,1c0.5,0.5,0.9,1.1,1.2,1.9
		c0.3,0.9,0.5,1.9,0.4,2.8v0.8h-9.2v-1.6h7.4c0-0.6-0.1-1.2-0.4-1.8c-0.3-0.5-0.7-1-1.2-1.3c-0.5-0.3-1.1-0.5-1.7-0.5
		c-0.7,0-1.3,0.2-1.9,0.5c-0.5,0.4-0.9,0.8-1.2,1.4c-0.3,0.6-0.4,1.2-0.4,1.9v1.1c0,0.8,0.1,1.6,0.5,2.3c0.3,0.6,0.7,1.1,1.3,1.4
		c0.6,0.3,1.3,0.5,2,0.5c0.4,0,0.9-0.1,1.3-0.2c0.4-0.1,0.7-0.4,1-0.6c0.3-0.3,0.5-0.6,0.7-1l1.8,0.5c-0.2,0.6-0.5,1.1-1,1.6
		c-0.5,0.5-1,0.8-1.6,1.1C878.7,422.9,877.9,423.1,877.2,423z"/>
	<path d="M886.8,415.6v7.2H885v-12h1.8v1.9h0.2c0.3-0.6,0.7-1.1,1.3-1.5c0.7-0.4,1.4-0.6,2.2-0.6c0.7,0,1.5,0.2,2.1,0.5
		c0.6,0.3,1.1,0.9,1.4,1.5c0.4,0.8,0.5,1.7,0.5,2.5v7.6h-1.8v-7.5c0-0.8-0.2-1.6-0.7-2.2c-0.5-0.5-1.3-0.8-2-0.8
		c-0.5,0-1.1,0.1-1.6,0.4c-0.5,0.3-0.8,0.6-1.1,1.1C887,414.3,886.8,415,886.8,415.6z"/>
	<path d="M903.1,410.8v1.6h-6.2v-1.6H903.1z M898.7,407.9h1.8v11.4c0,0.4,0.1,0.8,0.2,1.2c0.1,0.2,0.3,0.4,0.6,0.5
		c0.2,0.1,0.5,0.1,0.8,0.1c0.2,0,0.3,0,0.5,0l0.3-0.1l0.4,1.7c-0.1,0-0.3,0.1-0.5,0.1c-0.3,0.1-0.6,0.1-0.8,0.1
		c-0.5,0-1-0.1-1.5-0.3c-0.5-0.2-0.9-0.6-1.2-1c-0.3-0.5-0.5-1.1-0.5-1.7V407.9z"/>
	<path d="M910.6,423c-1,0-2-0.2-2.8-0.8c-0.8-0.5-1.5-1.3-1.9-2.2c-0.5-1-0.7-2.1-0.7-3.2c0-1.1,0.2-2.2,0.7-3.3
		c1.2-2.6,4.4-3.7,7-2.5c1.1,0.5,2,1.4,2.5,2.5c0.5,1,0.7,2.1,0.7,3.3c0,1.1-0.2,2.2-0.7,3.2c-0.4,0.9-1.1,1.6-1.9,2.2
		C912.6,422.8,911.6,423.1,910.6,423z M910.6,421.4c0.7,0,1.4-0.2,2-0.6c0.5-0.4,0.9-1,1.2-1.7c0.5-1.5,0.5-3,0-4.5
		c-0.2-0.7-0.6-1.2-1.2-1.7c-1.2-0.9-2.8-0.9-4.1,0c-0.5,0.4-0.9,1-1.2,1.7c-0.5,1.5-0.5,3,0,4.5c0.2,0.7,0.6,1.2,1.2,1.7
		C909.1,421.2,909.9,421.4,910.6,421.4L910.6,421.4z"/>
	<path d="M781.3,449.2v-12h1.8v1.8h0.1c0.2-0.6,0.6-1.1,1.2-1.5c0.6-0.4,1.3-0.6,1.9-0.5h0.5h0.5v1.9l-0.4-0.1c-0.2,0-0.5,0-0.7,0
		c-0.5,0-1.1,0.1-1.6,0.4c-0.4,0.2-0.8,0.6-1.1,1c-0.3,0.4-0.4,0.9-0.4,1.5v7.6L781.3,449.2z"/>
	<path d="M790.4,435.2c-0.3,0-0.7-0.1-0.9-0.4c-0.3-0.2-0.4-0.5-0.4-0.9c0-0.3,0.1-0.7,0.4-0.9c0.2-0.2,0.6-0.4,0.9-0.4
		c0.3,0,0.7,0.1,0.9,0.4c0.3,0.2,0.4,0.6,0.4,0.9c0,0.3-0.1,0.7-0.4,0.9C791.1,435.1,790.8,435.2,790.4,435.2z M789.5,449.2v-12h1.8
		v12H789.5z"/>
	<path d="M803.2,439.9l-1.7,0.5c-0.1-0.3-0.3-0.6-0.5-0.8c-0.2-0.3-0.5-0.5-0.8-0.6c-0.4-0.2-0.9-0.3-1.3-0.3
		c-0.6,0-1.3,0.2-1.8,0.5c-0.5,0.3-0.7,0.8-0.7,1.3c0,0.4,0.2,0.8,0.5,1.1c0.5,0.3,1,0.6,1.6,0.7l1.8,0.4c0.9,0.2,1.7,0.6,2.4,1.2
		c0.5,0.5,0.8,1.3,0.8,2.1c0,0.7-0.2,1.3-0.6,1.9c-0.4,0.6-1,1-1.6,1.3c-0.8,0.3-1.6,0.5-2.5,0.5c-1.1,0-2.1-0.2-3-0.8
		c-0.8-0.5-1.4-1.4-1.5-2.3l1.8-0.4c0.1,0.6,0.5,1.1,1,1.5c0.5,0.3,1.2,0.5,1.8,0.5c0.7,0,1.4-0.2,2-0.5c0.5-0.3,0.8-0.8,0.8-1.3
		c0-0.4-0.2-0.8-0.4-1.1c-0.4-0.3-0.8-0.5-1.3-0.6l-2-0.5c-0.9-0.2-1.8-0.6-2.4-1.2c-0.5-0.6-0.8-1.3-0.8-2.1c0-0.6,0.2-1.3,0.6-1.8
		c0.4-0.5,0.9-1,1.6-1.2c0.7-0.3,1.5-0.5,2.3-0.5c1-0.1,2,0.2,2.8,0.8C802.4,438.3,802.9,439.1,803.2,439.9z"/>
	<path d="M811.1,449.4c-2.1,0.1-4-1.1-4.8-3c-0.9-2-0.9-4.4,0-6.4c0.4-0.9,1.1-1.7,1.9-2.2c0.8-0.5,1.8-0.8,2.8-0.8
		c0.8,0,1.6,0.2,2.3,0.5c0.7,0.3,1.2,0.7,1.7,1.3c0.4,0.6,0.7,1.3,0.8,2h-1.8c-0.2-0.6-0.5-1.1-0.9-1.5c-0.5-0.4-1.2-0.7-1.9-0.6
		c-0.7,0-1.3,0.2-1.9,0.6c-0.6,0.4-1,0.9-1.3,1.6c-0.3,0.8-0.5,1.6-0.4,2.4c0,0.8,0.1,1.7,0.4,2.4c0.3,0.6,0.7,1.2,1.2,1.6
		c0.9,0.6,2.1,0.7,3.2,0.3c0.4-0.2,0.7-0.4,1-0.7c0.3-0.3,0.5-0.7,0.6-1.1h1.8c-0.2,1.4-1.1,2.7-2.3,3.3
		C812.7,449.3,811.9,449.5,811.1,449.4z"/>
	<path d="M822,449.5c-0.7,0-1.4-0.1-2.1-0.4c-1.3-0.6-2.1-1.9-2-3.2c0-0.6,0.1-1.2,0.4-1.7c0.3-0.4,0.6-0.8,1.1-1
		c0.5-0.3,1-0.4,1.5-0.5c0.5-0.1,1.1-0.2,1.7-0.3l1.8-0.2c0.3,0,0.7-0.1,1-0.2c0.2-0.1,0.3-0.4,0.3-0.6v-0.1c0-0.7-0.2-1.3-0.6-1.8
		c-0.5-0.5-1.2-0.7-1.9-0.6c-0.7,0-1.5,0.2-2.1,0.6c-0.4,0.3-0.8,0.8-1,1.2l-1.8-0.6c0.3-0.7,0.7-1.3,1.2-1.7
		c0.5-0.4,1.1-0.7,1.7-0.9c0.6-0.2,1.2-0.2,1.8-0.2c0.4,0,0.9,0.1,1.3,0.1c0.5,0.1,1,0.3,1.5,0.6c0.5,0.3,0.8,0.7,1.1,1.2
		c0.3,0.7,0.5,1.5,0.5,2.3v7.9h-1.8v-1.6h-0.1c-0.2,0.3-0.4,0.6-0.6,0.8c-0.3,0.3-0.7,0.6-1.2,0.8
		C823.2,449.4,822.6,449.5,822,449.5z M822.3,447.8c0.6,0,1.3-0.1,1.8-0.4c0.5-0.3,0.9-0.6,1.1-1.1c0.2-0.4,0.4-0.9,0.4-1.4v-1.7
		c-0.1,0.1-0.3,0.2-0.5,0.3c-0.3,0.1-0.6,0.1-0.9,0.2c-0.3,0.1-0.7,0.1-1,0.1l-0.8,0.1c-0.5,0.1-0.9,0.2-1.3,0.3
		c-0.4,0.1-0.7,0.3-1,0.6c-0.3,0.3-0.4,0.7-0.4,1.1c0,0.6,0.2,1.1,0.7,1.5C821,447.7,821.6,447.9,822.3,447.8L822.3,447.8z"/>
	<path d="M832.7,433.2v16h-1.8v-16H832.7z"/>
	<path d="M840.6,449.4c-0.9,0-1.9-0.2-2.7-0.8c-0.8-0.5-1.4-1.3-1.8-2.1c-0.5-1-0.7-2.2-0.7-3.3c0-1.1,0.2-2.2,0.7-3.3
		c0.4-0.9,1-1.6,1.8-2.1c0.8-0.5,1.7-0.8,2.7-0.8c0.6,0,1.3,0.1,1.9,0.4c0.4,0.2,0.7,0.5,1,0.9c0.2,0.3,0.4,0.6,0.6,0.8h0.2v-5.9
		h1.8v16h-1.8v-1.8h-0.2c-0.2,0.3-0.4,0.6-0.6,0.8c-0.3,0.4-0.7,0.7-1.1,0.9C841.9,449.3,841.3,449.5,840.6,449.4z M840.9,447.8
		c0.7,0,1.3-0.2,1.9-0.6c0.5-0.4,0.9-1,1.2-1.6c0.5-1.5,0.5-3.2,0-4.8c-0.2-0.6-0.6-1.2-1.2-1.6c-1.2-0.8-2.7-0.8-3.8,0
		c-0.5,0.4-0.9,1-1.2,1.6c-0.5,1.5-0.5,3.1,0,4.6c0.2,0.7,0.6,1.2,1.2,1.7C839.5,447.6,840.2,447.8,840.9,447.8z"/>
	<path d="M853.3,449.5c-0.7,0-1.4-0.1-2.1-0.4c-1.3-0.6-2.1-1.9-2-3.2c0-0.6,0.1-1.2,0.4-1.7c0.3-0.4,0.6-0.8,1.1-1
		c0.5-0.3,1-0.4,1.5-0.5c0.5-0.1,1.1-0.2,1.7-0.3l1.8-0.2c0.3,0,0.7-0.1,1-0.2c0.2-0.1,0.3-0.4,0.3-0.6v-0.1c0-0.7-0.2-1.3-0.6-1.8
		c-0.5-0.5-1.2-0.7-1.9-0.6c-0.7,0-1.5,0.2-2.1,0.6c-0.4,0.3-0.8,0.7-1,1.2l-1.8-0.6c0.3-0.7,0.7-1.3,1.2-1.7
		c0.5-0.4,1.1-0.7,1.7-0.9c0.6-0.2,1.2-0.2,1.8-0.2c0.4,0,0.9,0.1,1.3,0.1c0.5,0.1,1,0.3,1.5,0.6c0.5,0.3,0.9,0.7,1.2,1.3
		c0.3,0.7,0.5,1.5,0.5,2.3v7.9H857v-1.6h-0.1c-0.2,0.3-0.4,0.6-0.6,0.8c-0.3,0.3-0.7,0.6-1.2,0.8
		C854.5,449.4,853.9,449.5,853.3,449.5z M853.6,447.8c0.6,0,1.3-0.1,1.8-0.4c0.5-0.3,0.9-0.6,1.1-1.1c0.2-0.4,0.4-0.9,0.4-1.4v-1.7
		c-0.1,0.1-0.3,0.2-0.5,0.3c-0.3,0.1-0.6,0.1-0.9,0.2c-0.3,0.1-0.7,0.1-1,0.1l-0.8,0.1c-0.5,0.1-0.9,0.2-1.3,0.3
		c-0.4,0.1-0.7,0.3-1,0.6c-0.3,0.3-0.4,0.7-0.4,1.1c0,0.6,0.2,1.1,0.7,1.5C852.3,447.7,852.9,447.8,853.6,447.8z"/>
	<path d="M862.2,449.2v-12h1.8v1.9h0.2c0.2-0.6,0.7-1.1,1.2-1.5c0.6-0.4,1.3-0.6,2-0.5c0.7,0,1.4,0.2,2,0.5c0.5,0.4,1,0.9,1.2,1.5
		h0.1c0.3-0.6,0.8-1.1,1.4-1.5c0.7-0.4,1.4-0.6,2.2-0.5c1,0,1.9,0.3,2.6,1c0.7,0.9,1.1,2,1,3.1v8h-1.8v-8c0.1-0.7-0.2-1.4-0.7-1.9
		c-0.5-0.4-1.1-0.6-1.7-0.6c-0.7-0.1-1.5,0.2-2,0.8c-0.5,0.5-0.7,1.2-0.7,1.9v7.8h-1.8V441c0-0.6-0.2-1.2-0.7-1.6
		c-0.5-0.4-1.1-0.7-1.7-0.6c-0.5,0-0.9,0.1-1.3,0.4c-0.4,0.3-0.8,0.6-1,1.1c-0.3,0.5-0.4,1-0.4,1.6v7.5L862.2,449.2z"/>
	<path d="M886.3,449.4c-1.1,0-2.1-0.2-3-0.8c-0.8-0.5-1.5-1.3-1.9-2.2c-0.5-1-0.7-2.1-0.7-3.2c0-1.1,0.2-2.2,0.7-3.2
		c0.4-0.9,1.1-1.7,1.9-2.2c0.8-0.5,1.8-0.8,2.8-0.8c0.6,0,1.3,0.1,1.8,0.3c0.6,0.2,1.2,0.6,1.7,1c0.5,0.5,0.9,1.2,1.2,1.9
		c0.3,0.9,0.5,1.9,0.5,2.8v0.8H882v-1.6h7.4c0-0.6-0.1-1.2-0.4-1.8c-0.3-0.5-0.6-1-1.1-1.3c-0.5-0.3-1.1-0.5-1.7-0.5
		c-0.7,0-1.3,0.2-1.9,0.5c-0.5,0.3-1,0.8-1.2,1.4c-0.3,0.6-0.4,1.2-0.4,1.9v1.1c0,0.8,0.1,1.6,0.5,2.3c0.3,0.6,0.7,1.1,1.3,1.4
		c0.6,0.3,1.3,0.5,2,0.5c0.4,0,0.9-0.1,1.3-0.2c0.4-0.1,0.7-0.3,1-0.6c0.3-0.3,0.5-0.6,0.7-1l1.8,0.5c-0.2,0.6-0.5,1.2-1,1.6
		c-0.5,0.5-1,0.8-1.6,1.1C887.8,449.3,887,449.5,886.3,449.4z"/>
	<path d="M895.9,442v7.2h-1.8v-12h1.8v1.9h0.1c0.3-0.6,0.7-1.1,1.3-1.5c0.7-0.4,1.4-0.6,2.2-0.6c0.7,0,1.5,0.2,2.1,0.5
		c0.6,0.3,1.1,0.9,1.4,1.5c0.4,0.8,0.5,1.7,0.5,2.5v7.6h-1.8v-7.5c0-0.8-0.2-1.6-0.7-2.2c-0.5-0.5-1.3-0.8-2-0.8
		c-0.6,0-1.1,0.1-1.6,0.4c-0.5,0.3-0.8,0.6-1.1,1.1C896,440.8,895.9,441.4,895.9,442z"/>
	<path d="M912.2,437.2v1.6H906v-1.6H912.2z M907.8,434.3h1.8v11.4c0,0.4,0.1,0.8,0.2,1.2c0.1,0.2,0.3,0.4,0.6,0.5
		c0.2,0.1,0.5,0.1,0.8,0.1c0.2,0,0.3,0,0.5,0l0.3-0.1l0.4,1.6c-0.2,0.1-0.3,0.1-0.5,0.1c-0.3,0.1-0.6,0.1-0.8,0.1
		c-0.5,0-1-0.1-1.5-0.3c-0.5-0.2-0.9-0.6-1.2-1c-0.3-0.5-0.5-1.1-0.5-1.7V434.3z"/>
	<path d="M915.9,435.2c-0.3,0-0.7-0.1-0.9-0.4c-0.3-0.2-0.4-0.5-0.4-0.9c0-0.3,0.1-0.7,0.4-0.9c0.2-0.2,0.6-0.4,0.9-0.4
		c0.3,0,0.7,0.1,0.9,0.4c0.3,0.2,0.4,0.6,0.4,0.9c0,0.3-0.1,0.7-0.4,0.9C916.6,435.1,916.3,435.2,915.9,435.2z M915,449.2v-12h1.8
		v12H915z"/>
	<path d="M782.9,1171.7h-2l5.9-16h2l5.9,16h-2l-4.8-13.5h-0.1L782.9,1171.7z M783.6,1165.5h8.2v1.7h-8.2V1165.5z"/>
	<path d="M801.7,1172c-2.1,0.1-4-1.1-4.8-3c-0.4-1-0.7-2.1-0.7-3.2c0-1.1,0.2-2.2,0.7-3.2c0.4-0.9,1.1-1.6,1.9-2.2
		c0.8-0.5,1.8-0.8,2.8-0.8c0.8,0,1.6,0.1,2.3,0.5c0.7,0.3,1.2,0.7,1.7,1.3c0.4,0.6,0.7,1.3,0.8,2h-1.8c-0.2-0.6-0.5-1.1-0.9-1.4
		c-0.5-0.5-1.2-0.7-1.9-0.6c-0.7,0-1.3,0.2-1.9,0.6c-0.6,0.4-1,0.9-1.3,1.6c-0.3,0.7-0.5,1.6-0.5,2.4c0,0.8,0.1,1.7,0.4,2.4
		c0.3,0.6,0.7,1.2,1.2,1.6c1,0.6,2.2,0.7,3.2,0.3c0.4-0.2,0.7-0.4,1-0.7c0.3-0.3,0.5-0.7,0.6-1.1h1.8c-0.2,1.4-1.1,2.6-2.4,3.2
		C803.3,1171.9,802.5,1172,801.7,1172z"/>
	<path d="M814,1172c-1,0-2-0.3-2.9-0.8c-0.8-0.5-1.5-1.3-1.9-2.2c-0.9-2.1-0.9-4.4,0-6.4c0.4-0.9,1.1-1.6,1.9-2.2
		c0.8-0.5,1.8-0.8,2.8-0.8c0.8,0,1.6,0.2,2.3,0.5c0.7,0.3,1.2,0.7,1.7,1.3c0.4,0.6,0.7,1.3,0.8,2h-1.8c-0.2-0.6-0.5-1.1-0.9-1.4
		c-0.5-0.5-1.2-0.7-1.9-0.6c-0.7,0-1.3,0.2-1.9,0.6c-0.6,0.4-1,0.9-1.3,1.6c-0.3,0.7-0.5,1.6-0.5,2.4c0,0.8,0.1,1.7,0.4,2.4
		c0.3,0.6,0.7,1.2,1.2,1.6c0.6,0.4,1.2,0.6,1.9,0.6c0.4,0,0.9-0.1,1.3-0.2c0.4-0.2,0.7-0.4,1-0.7c0.3-0.3,0.5-0.7,0.6-1.1h1.8
		c-0.1,0.7-0.4,1.3-0.8,1.9c-0.4,0.6-1,1-1.6,1.3C815.6,1171.9,814.8,1172,814,1172z"/>
	<path d="M826.4,1172c-1.1,0-2.1-0.2-3-0.8c-0.8-0.5-1.5-1.3-1.9-2.2c-0.5-1-0.7-2.1-0.7-3.2c0-1.1,0.2-2.2,0.7-3.2
		c0.4-0.9,1.1-1.7,1.9-2.2c0.8-0.5,1.8-0.8,2.8-0.8c0.6,0,1.3,0.1,1.8,0.3c0.6,0.2,1.2,0.5,1.7,1c0.5,0.5,0.9,1.1,1.2,1.8
		c0.3,0.9,0.5,1.9,0.4,2.8v0.8h-9.2v-1.6h7.4c0-0.6-0.1-1.2-0.4-1.8c-0.3-0.5-0.7-1-1.2-1.3c-0.5-0.3-1.1-0.5-1.7-0.5
		c-0.7,0-1.3,0.2-1.9,0.5c-0.5,0.4-0.9,0.8-1.2,1.4c-0.3,0.6-0.4,1.2-0.4,1.9v1.1c0,0.8,0.1,1.6,0.5,2.3c0.3,0.6,0.7,1.1,1.3,1.4
		c0.6,0.3,1.3,0.5,2,0.5c0.4,0,0.9-0.1,1.3-0.2c0.4-0.1,0.7-0.3,1-0.6c0.3-0.3,0.5-0.6,0.7-1l1.8,0.5c-0.2,0.6-0.5,1.1-1,1.6
		c-0.5,0.5-1,0.8-1.6,1.1C827.9,1171.9,827.2,1172,826.4,1172z"/>
	<path d="M836.1,1164.5v7.2h-1.8v-12h1.8v1.9h0.2c0.3-0.6,0.7-1.1,1.3-1.5c0.7-0.4,1.4-0.6,2.2-0.6c0.7,0,1.5,0.2,2.1,0.5
		c0.6,0.3,1.1,0.9,1.4,1.5c0.4,0.8,0.5,1.7,0.5,2.5v7.6h-1.8v-7.5c0-0.8-0.2-1.6-0.7-2.2c-0.5-0.5-1.3-0.8-2-0.8
		c-0.5,0-1.1,0.1-1.6,0.4c-0.5,0.3-0.8,0.6-1.1,1.1C836.2,1163.3,836.1,1163.9,836.1,1164.5z"/>
	<path d="M855.6,1162.4l-1.7,0.5c-0.1-0.3-0.3-0.6-0.5-0.8c-0.2-0.3-0.5-0.5-0.8-0.7c-0.4-0.2-0.9-0.3-1.3-0.2
		c-0.6,0-1.3,0.2-1.8,0.5c-0.5,0.3-0.7,0.8-0.7,1.3c0,0.4,0.2,0.8,0.5,1.1c0.5,0.3,1,0.6,1.6,0.7l1.8,0.4c0.9,0.2,1.7,0.6,2.4,1.2
		c0.5,0.5,0.8,1.3,0.8,2.1c0,0.7-0.2,1.3-0.6,1.8c-0.4,0.6-1,1-1.7,1.3c-0.8,0.3-1.6,0.5-2.5,0.5c-1.1,0-2.1-0.2-3-0.8
		c-0.8-0.5-1.4-1.4-1.5-2.3l1.8-0.4c0.1,0.6,0.5,1.1,1,1.4c0.5,0.3,1.2,0.5,1.8,0.5c0.7,0,1.4-0.2,2-0.6c0.5-0.3,0.7-0.8,0.8-1.3
		c0-0.4-0.2-0.7-0.4-1c-0.4-0.3-0.9-0.6-1.3-0.6l-2-0.5c-0.9-0.2-1.7-0.6-2.4-1.2c-0.5-0.6-0.8-1.3-0.8-2.1c0-0.6,0.2-1.3,0.6-1.8
		c0.4-0.5,0.9-1,1.6-1.2c0.7-0.3,1.5-0.5,2.3-0.4c1-0.1,2,0.2,2.8,0.8C854.8,1160.9,855.3,1161.6,855.6,1162.4z"/>
	<path d="M859.5,1157.7c-0.3,0-0.7-0.1-0.9-0.4c-0.5-0.5-0.5-1.2,0-1.7c0,0,0,0,0,0c0.2-0.2,0.6-0.4,0.9-0.4c0.3,0,0.7,0.1,0.9,0.4
		c0.5,0.4,0.5,1.2,0.1,1.7c0,0-0.1,0.1-0.1,0.1C860.2,1157.6,859.9,1157.7,859.5,1157.7z M858.6,1171.7v-12h1.8v12H858.6z"/>
	<path d="M868.7,1172c-2,0-3.9-1.1-4.8-2.9c-0.9-2.1-0.9-4.4,0-6.5c1.2-2.6,4.4-3.7,7-2.5c1.1,0.5,2,1.4,2.5,2.5
		c0.9,2.1,0.9,4.4,0,6.5C872.6,1170.9,870.7,1172.1,868.7,1172z M868.7,1170.3c0.7,0,1.4-0.2,2-0.6c0.5-0.4,0.9-1,1.2-1.7
		c0.5-1.4,0.5-3,0-4.5c-0.2-0.7-0.6-1.2-1.2-1.7c-1.2-0.9-2.8-0.9-4.1,0c-0.5,0.4-0.9,1-1.2,1.7c-0.5,1.5-0.5,3,0,4.5
		c0.2,0.7,0.6,1.2,1.2,1.7C867.2,1170.2,867.9,1170.4,868.7,1170.3L868.7,1170.3z"/>
	<path d="M878.8,1164.5v7.2h-1.8v-12h1.8v1.9h0.2c0.3-0.6,0.7-1.1,1.3-1.5c0.7-0.4,1.4-0.6,2.2-0.6c0.7,0,1.5,0.2,2.1,0.5
		c0.6,0.3,1.1,0.9,1.4,1.5c0.4,0.8,0.5,1.7,0.5,2.5v7.6h-1.8v-7.5c0-0.8-0.2-1.6-0.7-2.2c-0.5-0.5-1.3-0.8-2-0.8
		c-0.5,0-1.1,0.1-1.6,0.4c-0.5,0.3-0.8,0.6-1.1,1.1C878.9,1163.3,878.8,1163.9,878.8,1164.5z"/>
	<path d="M894.8,1172c-1.1,0-2.1-0.2-3-0.8c-0.8-0.5-1.5-1.3-1.9-2.2c-0.5-1-0.7-2.1-0.7-3.2c0-1.1,0.2-2.2,0.7-3.2
		c0.4-0.9,1.1-1.7,1.9-2.2c0.8-0.5,1.8-0.8,2.8-0.8c0.6,0,1.3,0.1,1.8,0.3c0.6,0.2,1.2,0.5,1.7,1c0.5,0.5,0.9,1.1,1.2,1.8
		c0.3,0.9,0.5,1.9,0.5,2.8v0.8h-9.2v-1.6h7.4c0-0.6-0.1-1.2-0.4-1.8c-0.5-1.1-1.7-1.8-2.9-1.7c-0.7,0-1.3,0.2-1.9,0.5
		c-0.5,0.4-0.9,0.8-1.2,1.4c-0.3,0.6-0.4,1.2-0.4,1.9v1.1c0,0.8,0.1,1.6,0.5,2.3c0.3,0.6,0.7,1.1,1.3,1.4c0.6,0.3,1.3,0.5,2,0.5
		c0.4,0,0.9-0.1,1.3-0.2c0.4-0.1,0.7-0.3,1-0.6c0.3-0.3,0.5-0.6,0.7-1l1.8,0.5c-0.2,0.6-0.5,1.1-0.9,1.6c-0.5,0.5-1,0.8-1.6,1.1
		C896.4,1171.9,895.6,1172,894.8,1172z"/>
	<path d="M782,1198.1v-12h1.8v1.9h0.1c0.2-0.6,0.6-1.1,1.2-1.4c0.6-0.4,1.2-0.6,1.9-0.6h0.5h0.5v1.9l-0.4-0.1c-0.2,0-0.5,0-0.7,0
		c-0.5,0-1.1,0.1-1.6,0.4c-0.4,0.2-0.8,0.6-1.1,1c-0.3,0.4-0.4,0.9-0.4,1.4v7.6L782,1198.1z"/>
	<path d="M791.1,1184.1c-0.3,0-0.7-0.1-0.9-0.4c-0.5-0.5-0.5-1.2,0-1.7c0,0,0,0,0,0c0.5-0.5,1.3-0.5,1.9,0c0.5,0.5,0.5,1.2,0,1.7
		c0,0,0,0,0,0C791.8,1184,791.4,1184.1,791.1,1184.1z M790.2,1198.1v-12h1.8v12H790.2z"/>
	<path d="M803.9,1188.8l-1.7,0.5c-0.1-0.3-0.3-0.6-0.5-0.8c-0.2-0.3-0.5-0.5-0.8-0.7c-0.4-0.2-0.9-0.3-1.3-0.3
		c-0.6,0-1.3,0.2-1.8,0.5c-0.5,0.3-0.7,0.7-0.7,1.3c0,0.4,0.2,0.8,0.5,1.1c0.5,0.3,1,0.6,1.6,0.7l1.8,0.4c0.9,0.2,1.7,0.6,2.4,1.2
		c0.5,0.5,0.8,1.3,0.8,2.1c0,0.7-0.2,1.3-0.6,1.8c-0.4,0.6-1,1-1.6,1.3c-0.8,0.3-1.6,0.5-2.5,0.5c-1.1,0-2.1-0.2-3-0.8
		c-0.8-0.5-1.4-1.4-1.5-2.3l1.8-0.4c0.1,0.6,0.5,1.1,1,1.4c0.5,0.3,1.2,0.5,1.8,0.5c0.7,0,1.4-0.2,2-0.6c0.5-0.3,0.7-0.8,0.8-1.3
		c0-0.4-0.1-0.8-0.4-1.1c-0.4-0.3-0.9-0.5-1.3-0.6l-2-0.5c-0.9-0.2-1.7-0.6-2.4-1.2c-0.5-0.6-0.8-1.3-0.8-2.1c0-0.6,0.2-1.3,0.6-1.8
		c0.4-0.5,0.9-1,1.6-1.2c0.7-0.3,1.5-0.5,2.3-0.4c1-0.1,2,0.2,2.8,0.8C803.1,1187.3,803.6,1188,803.9,1188.8z"/>
	<path d="M811.8,1198.4c-2.1,0.1-4-1.1-4.8-3c-0.9-2-0.9-4.4,0-6.4c0.4-0.9,1.1-1.7,1.9-2.2c0.8-0.5,1.8-0.8,2.8-0.8
		c0.8,0,1.6,0.2,2.3,0.5c0.7,0.3,1.2,0.7,1.7,1.3c0.4,0.6,0.7,1.3,0.8,2h-1.8c-0.2-0.6-0.5-1.1-0.9-1.5c-0.5-0.4-1.2-0.7-1.9-0.6
		c-0.7,0-1.3,0.2-1.9,0.6c-0.6,0.4-1,0.9-1.3,1.6c-0.3,0.8-0.5,1.6-0.5,2.4c0,0.8,0.1,1.7,0.4,2.4c0.3,0.6,0.7,1.2,1.2,1.6
		c0.6,0.4,1.2,0.6,1.9,0.6c0.4,0,0.9-0.1,1.3-0.2c0.4-0.2,0.7-0.4,1-0.7c0.3-0.3,0.5-0.7,0.6-1.1h1.8c-0.1,0.7-0.4,1.3-0.8,1.9
		c-0.4,0.6-1,1-1.6,1.3C813.4,1198.2,812.6,1198.4,811.8,1198.4z"/>
	<path d="M822.7,1198.4c-0.7,0-1.4-0.1-2.1-0.4c-1.3-0.6-2.1-1.9-2-3.2c0-0.6,0.1-1.2,0.4-1.7c0.3-0.4,0.6-0.8,1.1-1
		c0.5-0.3,1-0.4,1.5-0.6c0.5-0.1,1.1-0.2,1.7-0.3l1.7-0.2c0.3,0,0.7-0.1,1-0.2c0.2-0.1,0.3-0.4,0.3-0.6v-0.1c0-0.7-0.2-1.3-0.6-1.8
		c-0.5-0.5-1.2-0.7-1.9-0.6c-0.7,0-1.5,0.2-2.1,0.6c-0.4,0.3-0.8,0.7-1.1,1.2l-1.8-0.6c0.3-0.7,0.7-1.3,1.3-1.7
		c0.5-0.4,1.1-0.7,1.7-0.8c0.6-0.2,1.2-0.2,1.8-0.2c0.4,0,0.9,0.1,1.3,0.1c0.5,0.1,1,0.3,1.5,0.6c0.5,0.3,0.9,0.8,1.2,1.3
		c0.3,0.7,0.5,1.5,0.5,2.3v7.9h-1.8v-1.6h-0.1c-0.2,0.3-0.4,0.6-0.6,0.8c-0.3,0.3-0.7,0.6-1.2,0.8
		C823.9,1198.3,823.3,1198.4,822.7,1198.4z M823,1196.8c0.6,0,1.3-0.1,1.8-0.4c0.5-0.3,0.9-0.6,1.1-1.1c0.3-0.4,0.4-0.9,0.4-1.4
		v-1.7c-0.1,0.1-0.3,0.2-0.5,0.3c-0.3,0.1-0.6,0.1-0.9,0.2c-0.3,0.1-0.7,0.1-1,0.1l-0.8,0.1c-0.5,0.1-0.9,0.2-1.3,0.3
		c-0.4,0.1-0.7,0.3-1,0.6c-0.3,0.3-0.4,0.7-0.4,1.1c0,0.6,0.2,1.1,0.7,1.4C821.7,1196.6,822.3,1196.8,823,1196.8L823,1196.8z"/>
	<path d="M833.4,1182.1v16h-1.8v-16H833.4z"/>
	<path d="M841.3,1198.4c-0.9,0-1.9-0.2-2.7-0.8c-0.8-0.5-1.4-1.3-1.8-2.2c-0.5-1-0.7-2.2-0.6-3.3c0-1.1,0.2-2.2,0.6-3.3
		c0.4-0.9,1-1.6,1.8-2.2c0.8-0.5,1.7-0.8,2.7-0.8c0.6,0,1.3,0.1,1.9,0.4c0.4,0.2,0.7,0.5,1,0.9c0.2,0.3,0.4,0.6,0.6,0.8h0.2v-5.9
		h1.8v16H845v-1.8h-0.2c-0.1,0.2-0.3,0.5-0.6,0.8c-0.3,0.4-0.7,0.7-1.1,0.9C842.6,1198.3,841.9,1198.4,841.3,1198.4z M841.6,1196.7
		c0.7,0,1.3-0.2,1.9-0.6c0.5-0.4,0.9-1,1.2-1.6c0.3-0.8,0.4-1.6,0.4-2.4c0-0.8-0.1-1.6-0.4-2.3c-0.2-0.6-0.6-1.2-1.2-1.6
		c-1.2-0.8-2.7-0.8-3.8,0c-0.5,0.4-0.9,1-1.2,1.6c-0.3,0.7-0.4,1.5-0.4,2.3c0,0.8,0.1,1.6,0.4,2.3c0.2,0.6,0.6,1.2,1.2,1.7
		C840.2,1196.5,840.9,1196.7,841.6,1196.7z"/>
	<path d="M854,1198.4c-0.7,0-1.4-0.1-2.1-0.4c-1.3-0.6-2.1-1.9-2-3.2c0-0.6,0.1-1.2,0.4-1.7c0.3-0.4,0.6-0.8,1.1-1
		c0.5-0.3,1-0.4,1.5-0.6c0.5-0.1,1.1-0.2,1.7-0.3l1.8-0.2c0.3,0,0.7-0.1,1-0.2c0.2-0.1,0.3-0.4,0.3-0.6v-0.1c0-0.7-0.2-1.3-0.6-1.8
		c-0.5-0.5-1.2-0.7-1.9-0.6c-0.7,0-1.5,0.2-2.1,0.6c-0.4,0.3-0.8,0.8-1,1.2l-1.8-0.6c0.3-0.7,0.7-1.3,1.2-1.7
		c0.5-0.4,1.1-0.7,1.7-0.8c0.6-0.1,1.1-0.2,1.7-0.2c0.4,0,0.9,0.1,1.3,0.1c0.5,0.1,1,0.3,1.5,0.6c0.5,0.3,0.9,0.8,1.2,1.3
		c0.3,0.7,0.5,1.5,0.5,2.3v7.9h-1.8v-1.6h-0.1c-0.2,0.3-0.4,0.6-0.6,0.8c-0.3,0.3-0.7,0.6-1.2,0.8
		C855.2,1198.4,854.6,1198.4,854,1198.4z M854.3,1196.8c0.6,0,1.3-0.1,1.8-0.4c0.5-0.3,0.9-0.6,1.1-1.1c0.3-0.4,0.4-0.9,0.4-1.4
		v-1.7c-0.1,0.1-0.3,0.2-0.5,0.3c-0.3,0.1-0.6,0.1-0.9,0.2c-0.3,0.1-0.7,0.1-1,0.1l-0.8,0.1c-0.5,0.1-0.9,0.2-1.3,0.3
		c-0.4,0.1-0.7,0.3-1,0.6c-0.3,0.3-0.4,0.7-0.4,1.1c0,0.6,0.2,1.1,0.7,1.4C853,1196.6,853.6,1196.8,854.3,1196.8L854.3,1196.8z"/>
	<path d="M862.8,1198.1v-12h1.8v1.9h0.2c0.2-0.6,0.7-1.1,1.2-1.5c0.6-0.4,1.3-0.5,2-0.5c0.7,0,1.4,0.2,2,0.5c0.5,0.4,1,0.9,1.2,1.5
		h0.1c0.3-0.6,0.8-1.1,1.4-1.5c0.7-0.4,1.4-0.6,2.2-0.6c1,0,1.9,0.3,2.6,1c0.7,0.9,1.1,2,1,3.1v8h-1.8v-8c0.1-0.7-0.2-1.4-0.7-1.9
		c-0.5-0.4-1.1-0.6-1.7-0.6c-0.7-0.1-1.5,0.2-2,0.8c-0.5,0.5-0.7,1.2-0.7,1.9v7.8h-1.9v-8.2c0-0.6-0.2-1.2-0.7-1.7
		c-0.5-0.4-1.1-0.6-1.7-0.6c-0.5,0-0.9,0.1-1.3,0.4c-0.4,0.3-0.8,0.6-1,1.1c-0.3,0.5-0.4,1-0.4,1.6v7.5L862.8,1198.1z"/>
	<path d="M887,1198.4c-1.1,0-2.1-0.2-3-0.8c-0.8-0.5-1.5-1.3-1.9-2.2c-0.5-1-0.7-2.1-0.7-3.2c0-1.1,0.2-2.2,0.7-3.2
		c0.4-0.9,1.1-1.7,1.9-2.2c0.8-0.5,1.8-0.8,2.8-0.8c0.6,0,1.3,0.1,1.8,0.3c0.6,0.2,1.2,0.6,1.7,1c0.5,0.5,0.9,1.2,1.2,1.8
		c0.3,0.9,0.5,1.9,0.5,2.9v0.8h-9.2v-1.6h7.4c0-0.6-0.1-1.3-0.4-1.8c-0.3-0.5-0.7-0.9-1.1-1.2c-0.5-0.3-1.1-0.5-1.7-0.5
		c-0.7,0-1.3,0.2-1.9,0.5c-0.5,0.3-1,0.8-1.2,1.4c-0.3,0.6-0.4,1.2-0.4,1.9v1.1c0,0.8,0.1,1.6,0.5,2.3c0.3,0.6,0.7,1.1,1.3,1.4
		c0.6,0.3,1.3,0.5,2,0.5c0.4,0,0.9-0.1,1.3-0.2c0.4-0.1,0.7-0.3,1-0.6c0.3-0.3,0.5-0.7,0.7-1.1l1.8,0.5c-0.2,0.6-0.5,1.1-1,1.6
		c-0.5,0.5-1,0.8-1.6,1.1C888.5,1198.3,887.8,1198.4,887,1198.4z"/>
	<path d="M896.6,1190.9v7.2h-1.8v-12h1.8v1.9h0.2c0.3-0.6,0.7-1.1,1.3-1.5c0.7-0.4,1.4-0.6,2.2-0.6c0.7,0,1.5,0.2,2.1,0.5
		c0.6,0.3,1.1,0.9,1.4,1.5c0.4,0.8,0.5,1.7,0.5,2.5v7.6h-1.8v-7.5c0.1-0.8-0.2-1.6-0.7-2.2c-0.5-0.5-1.3-0.8-2-0.8
		c-0.5,0-1.1,0.1-1.6,0.4c-0.5,0.3-0.8,0.6-1.1,1.1C896.8,1189.7,896.6,1190.3,896.6,1190.9z"/>
	<path d="M912.9,1186.1v1.6h-6.2v-1.6H912.9z M908.5,1183.3h1.8v11.4c0,0.4,0.1,0.8,0.2,1.2c0.1,0.2,0.3,0.4,0.6,0.5
		c0.2,0.1,0.5,0.1,0.8,0.1c0.2,0,0.3,0,0.5,0h0.3l0.4,1.7c-0.2,0.1-0.3,0.1-0.5,0.2c-0.3,0.1-0.6,0.1-0.8,0.1
		c-0.5,0-1.1-0.1-1.5-0.3c-0.5-0.2-0.9-0.6-1.2-1c-0.3-0.5-0.5-1.1-0.5-1.7L908.5,1183.3z"/>
	<path d="M916.6,1184.1c-0.3,0-0.7-0.1-0.9-0.4c-0.5-0.5-0.5-1.2,0-1.7c0,0,0,0,0,0c0.5-0.5,1.3-0.5,1.9,0c0.5,0.5,0.5,1.2,0,1.7
		c0,0,0,0,0,0C917.3,1184,916.9,1184.1,916.6,1184.1z M915.7,1198.1v-12h1.8v12H915.7z"/>
</g>
<g>
	<circle cx="267.9" cy="1552.4" r="14.3"/>
	<path d="M322,1576.1v-45.3h15.3c3-0.1,6,0.5,8.7,1.9c2.1,1.2,3.9,3,5,5.2c2.2,4.6,2.2,9.9,0,14.5c-1.1,2.2-2.8,4-5,5.2
		c-2.7,1.4-5.7,2-8.7,1.9h-11v-4.8h10.8c2,0.1,4-0.3,5.9-1.2c1.4-0.8,2.5-2,3.2-3.4c1.4-3.1,1.4-6.6,0-9.7c-0.7-1.5-1.8-2.6-3.2-3.4
		c-1.8-0.9-3.9-1.3-5.9-1.2h-9.7v40.4L322,1576.1z"/>
	<path d="M361.5,1530.8h6.5l15.4,37.4h0.5l15.4-37.4h6.6v45.3h-5.1v-34.4h-0.4l-14.2,34.4h-4.8l-14.2-34.4h-0.5v34.4h-5.1
		L361.5,1530.8z"/>
	<path d="M432,1530.8v45.3h-5.5v-39.6h-0.3l-11,7.3v-5.6l11.3-7.5L432,1530.8z"/>
	<path d="M459.8,1576.7c-3.1,0.1-6.1-0.9-8.5-2.7c-2.5-2.1-4.4-4.8-5.4-7.9c-2.5-8.2-2.5-17,0-25.2c1-3.1,2.9-5.9,5.4-8
		c5.1-3.7,11.9-3.7,17,0c2.5,2.1,4.4,4.9,5.4,8c2.5,8.2,2.5,17,0,25.2c-1,3.1-2.9,5.8-5.4,7.9
		C465.8,1575.8,462.8,1576.8,459.8,1576.7z M459.8,1571.9c3.3,0,6.3-1.9,7.7-4.8c2.1-4.2,3-8.9,2.7-13.6c0.1-3.4-0.4-6.7-1.2-10
		c-0.6-2.4-1.9-4.6-3.6-6.3c-1.5-1.4-3.5-2.2-5.6-2.2c-3.3-0.1-6.4,1.7-7.9,4.7c-2.1,4.2-3,8.9-2.8,13.7c-0.1,3.4,0.4,6.7,1.2,10
		c0.6,2.4,1.8,4.5,3.6,6.3C455.5,1571.1,457.6,1571.9,459.8,1571.9z"/>
	<path d="M485.5,1555.9v-3.5l28.5-14.5v5.7l-21.8,10.5v0.2l21.8,10.5v5.7L485.5,1555.9z"/>
	<path d="M539.1,1576.7c-2.4,0-4.8-0.5-7-1.6c-2-0.9-3.7-2.4-5-4.2c-1.3-1.8-2-3.9-2.1-6.1h5.3c0.2,2,1.2,3.8,2.8,5.1
		c3.2,2.4,7.5,2.7,10.9,0.7c1.4-0.9,2.6-2.1,3.5-3.6c0.8-1.6,1.3-3.4,1.2-5.2c0-1.9-0.4-3.7-1.3-5.3c-0.8-1.5-2-2.8-3.5-3.7
		c-1.6-0.9-3.4-1.4-5.2-1.4c-1.4,0-2.8,0.2-4.1,0.6c-1.3,0.3-2.5,0.9-3.6,1.7l-5.2-0.6l2.7-22.3h23.5v4.6h-18.9l-1.6,13.4h0.2
		c1-0.8,2.2-1.4,3.5-1.8c1.4-0.5,2.9-0.8,4.4-0.8c2.6,0,5.2,0.7,7.4,2c2.2,1.3,4,3.2,5.1,5.4c1.3,2.4,1.9,5.1,1.9,7.8
		c0,2.7-0.7,5.4-2,7.8c-1.3,2.2-3.1,4.1-5.3,5.3C544.5,1576,541.8,1576.7,539.1,1576.7z"/>
	<path d="M577.6,1576.7c-3,0-5.9-0.9-8.3-2.7c-2.5-2.1-4.4-4.8-5.4-7.9c-2.5-8.2-2.5-17,0-25.2c1-3.1,2.9-5.9,5.4-8
		c5.1-3.7,11.9-3.7,17,0c2.5,2.1,4.4,4.9,5.4,8c2.5,8.2,2.5,17,0,25.2c-1,3.1-2.9,5.8-5.4,7.9
		C583.8,1575.9,580.7,1576.9,577.6,1576.7z M577.6,1571.9c3.3,0,6.3-1.9,7.7-4.8c2.1-4.2,3-8.9,2.7-13.6c0.1-3.4-0.3-6.7-1.2-10
		c-0.6-2.4-1.9-4.5-3.6-6.3c-1.5-1.4-3.5-2.2-5.6-2.2c-3.3,0-6.3,1.9-7.7,4.8c-2.1,4.2-3,8.9-2.8,13.7c-0.1,3.4,0.4,6.7,1.2,10
		c0.6,2.4,1.9,4.5,3.6,6.3C573.5,1571.1,575.5,1571.9,577.6,1571.9z"/>
	<path d="M601.4,1587.2v-40.5h4.2v17.4c0,1.4,0.3,2.9,1,4.2c0.7,1.2,1.7,2.2,2.9,2.8c1.3,0.7,2.7,1,4.1,1c1.4,0,2.9-0.3,4.2-1
		c1.2-0.7,2.2-1.6,2.8-2.8c0.7-1.3,1-2.7,1-4.2v-17.4h4.5v29.4h-4v-4.4h-0.2c-0.7,1.5-1.9,2.7-3.3,3.6c-2.8,1.6-6.3,1.6-9.1,0
		c-1.4-0.8-2.6-2.1-3.3-3.6h-0.6v15.4H601.4z"/>
	<path d="M646.6,1587.7c-1.9,0.1-3.8-0.2-5.6-0.8c-1.4-0.5-2.7-1.2-3.9-2.2c-1-0.8-1.8-1.8-2.5-2.9l3.6-2.5c0.4,0.5,0.9,1.2,1.5,1.9
		c0.8,0.8,1.6,1.4,2.6,1.8c1.3,0.5,2.7,0.8,4.1,0.7c2.1,0.1,4.2-0.5,5.9-1.7c1.6-1.3,2.5-3.3,2.3-5.4v-6h-0.4
		c-0.4,0.7-0.9,1.3-1.4,1.9c-0.7,0.9-1.6,1.6-2.6,2.1c-1.4,0.7-3,1-4.6,0.9c-2.2,0-4.5-0.6-6.4-1.7c-1.9-1.2-3.5-2.9-4.5-4.9
		c-1.1-2.4-1.7-5.1-1.6-7.8c-0.1-2.7,0.5-5.4,1.6-7.9c1-2.1,2.5-3.9,4.4-5.2c1.9-1.3,4.2-1.9,6.6-1.9c1.6,0,3.1,0.3,4.6,1
		c1,0.5,1.9,1.3,2.6,2.2c0.6,0.8,1.1,1.5,1.4,2h0.5v-4.6h4.6v30.3c0.1,2.2-0.5,4.4-1.7,6.2c-1.1,1.6-2.7,2.8-4.6,3.5
		C651,1587.4,648.8,1587.8,646.6,1587.7z M646.6,1571.6c1.6,0,3.2-0.4,4.6-1.2c1.3-0.9,2.3-2.1,2.9-3.6c0.7-1.8,1-3.7,1-5.6
		c0-1.9-0.3-3.8-1-5.6c-0.6-1.5-1.6-2.8-2.9-3.8c-1.3-1-3-1.5-4.6-1.4c-1.7-0.1-3.4,0.5-4.8,1.4c-1.3,1.1-2.3,2.5-2.8,4.2
		c-0.7,1.7-1,3.6-1,5.4c0,1.8,0.3,3.7,1,5.4c0.6,1.5,1.6,2.8,2.9,3.7c1.4,0.8,3,1.2,4.6,1.1L646.6,1571.6z"/>
	<path d="M681.5,1535l-12.5,47h-4.2l12.7-47H681.5z"/>
	<path d="M686.9,1576.1v-29.4h4.2v4.6h0.4c0.6-1.5,1.6-2.8,3-3.7c1.5-0.9,3.2-1.4,4.9-1.3c1.7-0.1,3.4,0.4,4.9,1.3
		c1.3,0.9,2.4,2.2,3.1,3.7h0.2c0.8-1.5,1.9-2.8,3.4-3.6c1.6-0.9,3.5-1.4,5.4-1.4c2.4-0.1,4.7,0.8,6.5,2.5c1.8,2.1,2.7,4.9,2.5,7.6
		v19.7h-4.5v-19.8c0.2-1.7-0.5-3.5-1.8-4.6c-1.2-0.9-2.7-1.4-4.2-1.4c-1.8-0.1-3.5,0.6-4.8,1.9c-1.1,1.3-1.8,3-1.7,4.7v19.2h-4.6
		v-20.2c0.1-1.6-0.5-3.1-1.7-4.2c-1.1-1-2.6-1.6-4.1-1.5c-1.2,0-2.3,0.4-3.3,1c-1,0.6-1.9,1.5-2.5,2.6c-0.6,1.2-0.9,2.5-0.9,3.9
		v18.4L686.9,1576.1z"/>
	<path d="M739.7,1558.4c-1.3,0-2.7-0.2-3.9-0.7c-1.1-0.5-2-1.2-2.7-2.1c-0.7-0.9-1.1-2-1.1-3.2h2.8c0,0.7,0.3,1.4,0.8,1.9
		c0.5,0.6,1.1,1,1.7,1.2c1.6,0.6,3.4,0.5,5-0.1c0.7-0.3,1.4-0.8,1.8-1.5c0.5-0.6,0.7-1.4,0.7-2.1c0-0.8-0.2-1.5-0.6-2.2
		c-0.4-0.7-1.1-1.2-1.8-1.5c-0.9-0.4-1.9-0.6-2.9-0.5h-1.8v-2.4h1.8c0.8,0,1.6-0.2,2.4-0.5c0.7-0.3,1.2-0.8,1.6-1.4
		c0.4-0.6,0.6-1.3,0.6-2.1c0-0.7-0.2-1.4-0.5-2c-0.3-0.6-0.8-1-1.5-1.3c-0.7-0.3-1.4-0.5-2.2-0.5c-0.8,0-1.5,0.2-2.2,0.4
		c-0.7,0.3-1.2,0.7-1.7,1.2c-0.5,0.6-0.7,1.3-0.8,2h-2.6c0-1.1,0.4-2.2,1.1-3.2c0.7-0.9,1.6-1.6,2.7-2.1c1.2-0.5,2.4-0.8,3.7-0.8
		c1.3,0,2.5,0.3,3.6,0.9c1.9,1,3.1,3.1,3.2,5.3c0,1.2-0.3,2.3-1,3.3c-0.7,0.9-1.6,1.6-2.7,1.9l0,0c1.3,0.2,2.5,0.8,3.4,1.8
		c0.8,1,1.3,2.3,1.2,3.7c0,1.2-0.3,2.4-1,3.4c-0.7,1-1.6,1.8-2.7,2.3C742.5,1558.1,741.1,1558.4,739.7,1558.4z"/>
	<circle class="st7" cx="267.9" cy="1622.1" r="14.3"/>
	<path class="st7" d="M322,1645.8v-45.3h15.3c3-0.1,6,0.5,8.8,1.9c2.1,1.2,3.9,3,5,5.1c2.2,4.6,2.2,9.9,0,14.5c-1.1,2.2-2.8,4-5,5.2
		c-2.7,1.4-5.6,2-8.6,1.9h-11v-4.8h10.8c2,0.1,4-0.3,5.9-1.2c1.4-0.8,2.6-2,3.2-3.4c1.3-3.1,1.3-6.6,0-9.7c-0.7-1.5-1.8-2.6-3.2-3.4
		c-1.8-0.9-3.9-1.3-5.9-1.2h-9.6v40.4L322,1645.8z"/>
	<path class="st7" d="M361.5,1600.6h6.6l15.4,37.4h0.4l15.4-37.4h6.6v45.3h-5.1v-34.4h-0.2l-14.2,34.4h-5l-14.1-34.4h-0.4v34.4h-5.1
		L361.5,1600.6z"/>
	<path class="st7" d="M432,1600.6v45.3h-5.5v-39.6h-0.2l-11.1,7.3v-5.5l11.3-7.5L432,1600.6z"/>
	<path class="st7" d="M459.8,1646.5c-3,0-5.9-0.9-8.3-2.7c-2.5-2.1-4.3-4.8-5.4-7.9c-2.5-8.2-2.5-17,0-25.2c1-3.1,2.9-5.9,5.4-8
		c5.1-3.7,11.9-3.7,17,0c2.5,2.1,4.4,4.9,5.4,8c2.5,8.2,2.5,17,0,25.2c-1,3.1-2.9,5.9-5.4,7.9C466,1645.6,462.9,1646.6,459.8,1646.5
		z M459.8,1641.6c3.3,0,6.3-1.8,7.7-4.8c2.1-4.2,3-8.9,2.7-13.6c0.1-3.4-0.4-6.7-1.2-10c-0.6-2.4-1.9-4.6-3.6-6.3
		c-1.5-1.4-3.5-2.2-5.6-2.2c-3.3,0-6.3,1.8-7.6,4.8c-2.1,4.2-3,8.9-2.8,13.7c-0.1,3.4,0.3,6.7,1.2,10c0.6,2.4,1.8,4.5,3.6,6.3
		C455.7,1640.9,457.7,1641.6,459.8,1641.6z"/>
	<path class="st7" d="M514,1625.7l-28.5,14.5v-5.7l21.9-10.5v-0.2l-21.9-10.5v-5.7l28.5,14.5V1625.7z"/>
	<path class="st7" d="M539.1,1646.5c-2.4,0-4.8-0.5-7-1.6c-2-1-3.7-2.4-5-4.2c-1.2-1.8-1.9-3.9-2-6.1h5.3c0.2,2,1.2,3.8,2.8,5.1
		c1.7,1.3,3.8,2.1,6,2c3.5,0,6.6-1.9,8.3-4.9c0.8-1.6,1.3-3.4,1.2-5.2c0-1.9-0.4-3.7-1.3-5.3c-0.8-1.5-2.1-2.8-3.6-3.7
		c-1.6-0.9-3.3-1.4-5.1-1.4c-1.4,0-2.8,0.2-4.2,0.6c-1.3,0.4-2.5,0.9-3.6,1.7l-5.1-0.6l2.7-22.3h23.5v4.6h-18.9l-1.6,13.4h0.3
		c1-0.8,2.2-1.4,3.5-1.8c1.3-0.5,2.7-0.7,4.1-0.8c5.2,0,10,2.8,12.5,7.4c1.3,2.4,1.9,5.1,1.9,7.8c0,2.7-0.6,5.4-2,7.8
		c-1.3,2.2-3.1,4.1-5.3,5.3C544.4,1645.7,541.8,1646.4,539.1,1646.5z"/>
	<path class="st7" d="M577.6,1646.5c-3,0-5.9-0.9-8.3-2.7c-2.5-2.1-4.3-4.8-5.4-7.9c-2.5-8.2-2.5-17,0-25.2c1-3.1,2.9-5.9,5.4-8
		c5.1-3.7,11.9-3.7,17,0c2.5,2.1,4.4,4.9,5.4,8c2.5,8.2,2.5,17,0,25.2c-1,3.1-2.9,5.9-5.4,7.9
		C583.8,1645.6,580.7,1646.6,577.6,1646.5z M577.6,1641.6c3.3,0,6.3-1.8,7.7-4.8c2.1-4.2,3-8.9,2.7-13.6c0.1-3.4-0.3-6.7-1.2-10
		c-0.6-2.4-1.9-4.6-3.6-6.3c-1.5-1.4-3.5-2.2-5.6-2.2c-3.3,0-6.3,1.8-7.6,4.8c-2.1,4.2-3,8.9-2.8,13.7c-0.1,3.4,0.4,6.7,1.2,10
		c0.6,2.4,1.8,4.5,3.6,6.3C573.5,1640.9,575.5,1641.6,577.6,1641.6z"/>
	<path class="st7" d="M601.2,1656.9v-40.5h4.5v17.4c0,1.4,0.3,2.9,1,4.2c0.7,1.2,1.6,2.2,2.8,2.8c1.3,0.7,2.7,1,4.1,1
		c1.4,0,2.9-0.3,4.2-1c1.2-0.7,2.2-1.6,2.8-2.8c0.7-1.3,1-2.7,1-4.2v-17.4h4.5v29.4h-4.5v-4.4h-0.2c-0.7,1.5-1.9,2.7-3.3,3.6
		c-2.8,1.6-6.3,1.6-9.2,0c-1.4-0.8-2.6-2.1-3.3-3.6l0,0v15.4H601.2z"/>
	<path class="st7" d="M646.7,1657.5c-1.9,0.1-3.8-0.2-5.7-0.8c-1.4-0.5-2.7-1.2-3.9-2.2c-1-0.8-1.8-1.8-2.5-2.9l3.6-2.5
		c0.4,0.5,0.9,1.2,1.5,1.9c0.7,0.8,1.6,1.4,2.6,1.8c1.3,0.5,2.7,0.8,4.2,0.7c2.1,0.1,4.2-0.5,5.9-1.7c1.6-1.3,2.5-3.3,2.3-5.4v-6
		h-0.4c-0.4,0.7-0.9,1.3-1.4,1.9c-0.7,0.9-1.6,1.6-2.6,2.1c-1.4,0.7-3,1-4.6,0.9c-2.2,0-4.5-0.6-6.4-1.7c-1.9-1.2-3.5-2.9-4.4-4.9
		c-1.2-2.4-1.7-5.1-1.7-7.8c-0.1-2.7,0.5-5.4,1.6-7.9c0.9-2.1,2.5-3.9,4.4-5.2c2-1.3,4.2-1.9,6.6-1.9c1.6-0.1,3.1,0.3,4.6,1
		c1,0.5,1.9,1.3,2.6,2.2c0.6,0.8,1.1,1.4,1.4,2h0.5v-4.7h4.2v30.3c0.1,2.2-0.5,4.4-1.7,6.2c-1.1,1.6-2.8,2.8-4.6,3.5
		C650.7,1657.2,648.7,1657.5,646.7,1657.5z M646.7,1641.3c1.6,0,3.2-0.4,4.6-1.2c1.3-0.9,2.3-2.1,2.9-3.6c0.7-1.8,1-3.7,1-5.6
		c0.1-1.9-0.3-3.8-1-5.6c-0.6-1.5-1.5-2.8-2.8-3.8c-1.3-1-3-1.5-4.7-1.4c-1.7-0.1-3.4,0.5-4.8,1.4c-1.3,1.1-2.3,2.5-2.9,4.2
		c-0.7,1.7-1,3.6-1,5.4c0,1.8,0.3,3.7,1,5.4c0.6,1.5,1.6,2.8,2.9,3.7c1.4,0.8,3,1.2,4.6,1.1L646.7,1641.3z"/>
	<path class="st7" d="M681.5,1604.7l-12.7,47h-4.1l12.5-47H681.5z"/>
	<path class="st7" d="M686.9,1645.8v-29.4h4.4v4.6h0.4c0.6-1.5,1.6-2.8,2.9-3.7c1.5-0.9,3.2-1.4,4.9-1.3c1.7-0.1,3.4,0.4,4.9,1.3
		c1.3,0.9,2.4,2.2,3,3.7h0.2c0.8-1.5,1.9-2.8,3.4-3.6c1.7-1,3.6-1.4,5.5-1.4c2.4-0.1,4.7,0.8,6.4,2.5c1.9,2.1,2.8,4.9,2.5,7.6v19.7
		h-4.5V1626c0.2-1.7-0.5-3.5-1.8-4.7c-1.2-0.9-2.6-1.4-4.2-1.4c-1.8-0.1-3.6,0.6-4.8,1.9c-1.1,1.3-1.8,3-1.7,4.7v19.2h-4.5v-20.2
		c0.1-1.6-0.5-3.1-1.6-4.2c-1.1-1-2.6-1.6-4.1-1.5c-1.2,0-2.3,0.4-3.3,1c-1,0.6-1.9,1.5-2.5,2.6c-0.6,1.2-1,2.5-1,3.9v18.4
		L686.9,1645.8z"/>
	<path class="st7" d="M739.8,1627.2c-1.4,0.1-2.8-0.2-4.2-0.8c-1.1-0.4-2-1.2-2.7-2.1c-0.7-0.9-1.1-2-1.1-3.2h2.8
		c0.1,0.7,0.3,1.4,0.8,1.9c0.5,0.6,1.1,1,1.7,1.2c1.6,0.6,3.4,0.6,5,0c0.7-0.3,1.3-0.8,1.8-1.5c1.3-1.1,1.4-2.9,0.4-4.2
		c-0.4-0.7-1.1-1.2-1.8-1.5c-0.9-0.4-1.9-0.6-3-0.5h-1.8v-2.4h1.8c0.8,0,1.7-0.2,2.4-0.5c0.7-0.3,1.2-0.8,1.6-1.4
		c0.4-0.6,0.6-1.3,0.6-2.1c0-0.7-0.2-1.4-0.5-2c-0.3-0.6-0.8-1-1.5-1.3c-0.7-0.3-1.4-0.5-2.2-0.5c-0.8,0-1.5,0.2-2.2,0.5
		c-0.6,0.3-1.2,0.7-1.7,1.2c-0.4,0.6-0.7,1.3-0.7,2h-2.8c0-1.1,0.4-2.2,1.1-3.2c0.7-0.9,1.6-1.6,2.7-2.1c1.1-0.5,2.4-0.8,3.6-0.8
		c1.3,0,2.5,0.3,3.7,0.9c1,0.5,1.8,1.3,2.3,2.2c0.5,0.9,0.8,1.9,0.8,3c0,1.2-0.3,2.3-1,3.3c-0.7,0.9-1.6,1.6-2.7,1.9l0,0
		c1.3,0.2,2.5,0.8,3.4,1.8c0.8,1,1.2,2.3,1.2,3.7c0,1.2-0.3,2.4-1,3.4c-0.7,1-1.6,1.8-2.7,2.3C742.5,1627,741.2,1627.2,739.8,1627.2
		z"/>
	<g class="st4">
		
			<ellipse transform="matrix(1 -9.432686e-03 9.432686e-03 1 -15.9258 2.583)" class="st7" cx="265.9" cy="1689.6" rx="14.3" ry="14.3"/>
	</g>
	
		<ellipse transform="matrix(8.473616e-03 -1 1 8.473616e-03 -1425.9481 1941.1572)" class="st7" cx="265.9" cy="1689.6" rx="5.1" ry="5.1"/>
	<path d="M322,1708.2v-37.8h22.8v4.1h-18.2v12.8h17.1v4.1h-17.1v12.8h18.5v4.1L322,1708.2z"/>
	<path d="M375.7,1679.9l-10.5,28.4h-4.4l-10.5-28.4h4.7l7.8,22.6h0.3l7.8-22.6H375.7z"/>
	<path d="M392.3,1708.8c-2.5,0.1-4.9-0.6-7.1-1.8c-2-1.2-3.6-3-4.6-5.1c-1.1-2.4-1.6-5-1.6-7.6c-0.1-2.7,0.5-5.3,1.6-7.7
		c1-2.1,2.5-3.9,4.5-5.2c2-1.3,4.3-1.9,6.7-1.9c1.5,0,3,0.3,4.4,0.7c1.5,0.5,2.8,1.3,3.9,2.4c1.3,1.2,2.2,2.7,2.8,4.4
		c0.7,2.1,1.1,4.4,1,6.7v1.8h-21.8v-3.8h17.4c0-1.5-0.3-2.9-1-4.3c-0.6-1.2-1.5-2.3-2.7-3c-1.2-0.7-2.7-1.1-4.1-1.1
		c-1.6,0-3.2,0.4-4.5,1.3c-1.2,0.8-2.3,2-2.9,3.3c-0.7,1.4-1,2.9-1,4.4v2.5c-0.1,1.9,0.3,3.7,1.1,5.4c0.7,1.4,1.8,2.6,3.1,3.4
		c1.4,0.8,3,1.2,4.6,1.2c1.1,0,2.1-0.2,3.1-0.5c0.9-0.3,1.7-0.8,2.4-1.5c0.7-0.7,1.2-1.5,1.6-2.5l4.2,1.2c-0.4,1.4-1.2,2.7-2.2,3.8
		c-1.1,1.1-2.4,2-3.9,2.5C395.9,1708.5,394.1,1708.8,392.3,1708.8z"/>
	<path d="M415.1,1691.2v17.1h-4.4v-28.4h4.2v4.4h0.4c0.6-1.4,1.7-2.6,3-3.5c1.6-0.9,3.4-1.4,5.2-1.3c1.7,0,3.5,0.4,5,1.2
		c1.5,0.8,2.6,2,3.4,3.6c0.9,1.9,1.3,3.9,1.2,6v18h-4.4v-17.7c0.1-1.9-0.5-3.8-1.7-5.2c-1.2-1.3-3-2-4.8-1.9c-1.3,0-2.6,0.3-3.7,0.9
		c-1.1,0.6-2,1.5-2.6,2.6C415.3,1688.3,415,1689.7,415.1,1691.2z"/>
	<path d="M453.5,1679.9v3.7h-14.7v-3.7H453.5z M443,1673.1h4.4v27c-0.1,1,0.1,1.9,0.5,2.8c0.3,0.6,0.8,1,1.4,1.2
		c0.6,0.2,1.2,0.3,1.8,0.3c0.4,0,0.8,0,1.2-0.1l0.7-0.1l0.9,3.9c-0.4,0.1-0.8,0.3-1.2,0.3c-0.7,0.1-1.3,0.2-2,0.2
		c-1.2,0-2.5-0.3-3.6-0.8c-1.2-0.5-2.2-1.4-2.9-2.4c-0.8-1.2-1.2-2.6-1.1-4.1L443,1673.1z"/>
	<path d="M471.3,1708.8c-4.8,0.1-9.2-2.6-11.2-6.9c-1.1-2.4-1.7-5-1.6-7.7c-0.1-2.7,0.5-5.3,1.6-7.7c2.9-6.2,10.3-8.9,16.6-5.9
		c2.6,1.2,4.7,3.3,5.9,5.9c1.1,2.4,1.7,5.1,1.6,7.7c0.1,2.7-0.5,5.3-1.6,7.7C480.5,1706.2,476.1,1709,471.3,1708.8z M471.3,1704.9
		c1.7,0.1,3.4-0.5,4.8-1.5c1.3-1,2.2-2.4,2.8-3.9c0.6-1.7,0.9-3.5,0.9-5.3c0-1.8-0.3-3.6-0.9-5.3c-0.5-1.6-1.5-2.9-2.8-4
		c-2.9-2-6.7-2-9.6,0c-1.3,1-2.3,2.4-2.8,4c-0.6,1.7-0.9,3.5-0.9,5.3c0,1.8,0.3,3.6,0.9,5.3c0.5,1.5,1.5,2.9,2.8,3.9
		C467.9,1704.5,469.5,1705,471.3,1704.9L471.3,1704.9z"/>
</g>
</svg>
