<?xml version="1.0" encoding="utf-8"?>
<!-- Generator: Adobe Illustrator 26.2.1, SVG Export Plug-In . SVG Version: 6.00 Build 0)  -->
<svg version="1.1" id="Livello_1" xmlns="http://www.w3.org/2000/svg" xmlns:xlink="http://www.w3.org/1999/xlink" x="0px" y="0px"
	 viewBox="0 0 999.1 1710.8" style="enable-background:new 0 0 999.1 1710.8;" xml:space="preserve">
<style type="text/css">
	.st0{fill:#EEEEEE;}
	.st1{fill:#B7B7B7;}
	.st2{fill:#EA4D27;}
	.st3{fill:#B9F6FC;}
	.st4{fill:#B8B8B8;}
	.st5{fill:#FF3A00;}
	.st6{opacity:0.2;}
</style>
<g id="Layer_1">
	<rect x="52.8" y="86" class="st0" width="934" height="383.3"/>
	<rect x="53.1" y="1138.7" class="st0" width="933.7" height="277.5"/>
	<path class="st1" d="M52.3,199.3c0-0.2,0.2-0.4,0.4-0.4l0,0h934.1c0.2,0,0.5,0.2,0.5,0.4l0,0l0,0c0,0.2-0.2,0.4-0.5,0.4h-934
		C52.6,199.7,52.3,199.6,52.3,199.3L52.3,199.3z"/>
	<path class="st1" d="M52.3,301.7c0-0.2,0.2-0.4,0.5-0.4h934c0.2,0,0.4,0.2,0.5,0.4c0,0.2-0.2,0.4-0.5,0.4l0,0h-934
		C52.5,302.1,52.3,301.9,52.3,301.7L52.3,301.7z"/>
	<path class="st1" d="M52.3,414.9c0-0.2,0.2-0.4,0.4-0.4l0,0h934.1c0.2,0,0.4,0.1,0.5,0.3c0,0.2-0.1,0.4-0.3,0.5h-0.1h-934
		C52.6,415.3,52.4,415.2,52.3,414.9L52.3,414.9L52.3,414.9z"/>
	<path class="st1" d="M52.3,524.5c0-0.2,0.2-0.4,0.5-0.4h934c0.2,0,0.4,0.2,0.5,0.4c0,0.2-0.2,0.4-0.5,0.4h-934
		C52.5,525,52.3,524.8,52.3,524.5L52.3,524.5z"/>
	<path class="st1" d="M52.3,637.8c0-0.2,0.2-0.4,0.4-0.4l0,0h934.1c0.2,0,0.4,0.2,0.5,0.4c0,0.2-0.2,0.4-0.5,0.4h-934
		C52.6,638.3,52.3,638.1,52.3,637.8C52.3,637.9,52.3,637.9,52.3,637.8z"/>
	<path class="st1" d="M52.3,747.5c0-0.2,0.2-0.4,0.5-0.4h934c0.2,0,0.4,0.2,0.5,0.4c0,0.2-0.2,0.4-0.5,0.4l0,0h-934
		C52.5,747.9,52.3,747.7,52.3,747.5L52.3,747.5z"/>
	<path class="st1" d="M52.3,860.8c0-0.2,0.2-0.4,0.4-0.4l0,0h934.1c0.2,0,0.4,0.2,0.5,0.4c0,0.2-0.2,0.4-0.5,0.4h-934
		C52.6,861.2,52.3,861,52.3,860.8L52.3,860.8z"/>
	<path class="st1" d="M52.3,974.1c0-0.2,0.2-0.4,0.5-0.4h934c0.2,0,0.4,0.2,0.5,0.4c0,0.2-0.2,0.4-0.5,0.4l0,0h-934
		C52.5,974.5,52.3,974.3,52.3,974.1L52.3,974.1z"/>
	<path class="st1" d="M52.3,1083.7c0-0.2,0.2-0.4,0.4-0.4l0,0h934.1c0.2,0,0.4,0.2,0.5,0.4c0,0.2-0.2,0.4-0.5,0.4h-934
		C52.6,1084.1,52.3,1084,52.3,1083.7L52.3,1083.7z"/>
	<path class="st1" d="M52.3,1197c0-0.2,0.2-0.4,0.5-0.4h934c0.2,0,0.4,0.2,0.5,0.4c0,0.2-0.2,0.4-0.5,0.4h-934
		C52.5,1197.4,52.3,1197.3,52.3,1197L52.3,1197L52.3,1197z"/>
	<path class="st1" d="M52.3,1306.6c0-0.2,0.2-0.4,0.4-0.4l0,0h934.1c0.2,0,0.4,0.2,0.5,0.4c0,0.2-0.2,0.4-0.5,0.4h-934
		C52.6,1307.1,52.3,1306.9,52.3,1306.6C52.3,1306.7,52.3,1306.7,52.3,1306.6z"/>
	<path class="st1" d="M52.3,86c0-0.2,0.2-0.4,0.5-0.4h934c0.2,0,0.4,0.2,0.5,0.4c0,0.2-0.2,0.4-0.5,0.4h-934
		C52.5,86.4,52.3,86.3,52.3,86L52.3,86z"/>
	<path class="st1" d="M52.3,1416.3c0-0.2,0.2-0.4,0.4-0.4l0,0h934.1c0.2,0,0.4,0.2,0.5,0.4l0,0c0,0.2-0.2,0.4-0.5,0.4h-934
		C52.6,1416.7,52.4,1416.5,52.3,1416.3L52.3,1416.3z"/>
	<ellipse cx="414" cy="86.1" rx="4.6" ry="4"/>
	<ellipse cx="405" cy="89.7" rx="4.6" ry="4"/>
	<ellipse cx="468.2" cy="93.4" rx="4.6" ry="4"/>
	<ellipse cx="251.6" cy="100.7" rx="4.6" ry="4"/>
	<ellipse cx="215.5" cy="126.3" rx="4.6" ry="4"/>
	<ellipse cx="206.5" cy="144.6" rx="4.6" ry="4"/>
	<ellipse cx="296.7" cy="148.2" rx="4.6" ry="4"/>
	<ellipse cx="414" cy="151.9" rx="4.6" ry="4"/>
	<ellipse cx="359.9" cy="162.8" rx="4.6" ry="4"/>
	<ellipse cx="323.8" cy="166.5" rx="4.6" ry="4"/>
	<ellipse cx="359.9" cy="170.1" rx="4.6" ry="4"/>
	<ellipse cx="341.9" cy="173.8" rx="4.6" ry="4"/>
	<ellipse cx="269.7" cy="177.5" rx="4.6" ry="4"/>
	<ellipse cx="323.8" cy="184.7" rx="4.6" ry="4"/>
	<ellipse cx="323.8" cy="188.4" rx="4.6" ry="4"/>
	<ellipse cx="296.7" cy="192.1" rx="4.6" ry="4"/>
	<ellipse cx="350.9" cy="195.7" rx="4.6" ry="4"/>
	<ellipse cx="387" cy="199.4" rx="4.6" ry="4"/>
	<ellipse cx="341.9" cy="203" rx="4.6" ry="4"/>
	<ellipse cx="377.9" cy="210.3" rx="4.6" ry="4"/>
	<ellipse cx="179.4" cy="214" rx="4.6" ry="4"/>
	<ellipse cx="197.5" cy="217.6" rx="4.6" ry="4"/>
	<ellipse cx="341.9" cy="221.3" rx="4.6" ry="4"/>
	<ellipse cx="405" cy="225" rx="4.6" ry="4"/>
	<ellipse cx="405" cy="228.6" rx="4.6" ry="4"/>
	<ellipse cx="432.1" cy="232.3" rx="4.6" ry="4"/>
	<ellipse cx="441.1" cy="250.5" rx="4.6" ry="4"/>
	<ellipse cx="359.9" cy="254.2" rx="4.6" ry="4"/>
	<ellipse cx="495.2" cy="265.2" rx="4.6" ry="4"/>
	<ellipse cx="405" cy="268.8" rx="4.6" ry="4"/>
	<ellipse cx="224.5" cy="272.5" rx="4.6" ry="4"/>
	<ellipse cx="188.4" cy="276.1" rx="4.6" ry="4"/>
	<ellipse cx="224.5" cy="279.8" rx="4.6" ry="4"/>
	<ellipse cx="350.9" cy="283.4" rx="4.6" ry="4"/>
	<ellipse cx="197.5" cy="287.1" rx="4.6" ry="4"/>
	<ellipse cx="332.8" cy="290.7" rx="4.6" ry="4"/>
	<ellipse cx="341.9" cy="294.4" rx="4.6" ry="4"/>
	<ellipse cx="387" cy="298" rx="4.6" ry="4"/>
	<ellipse cx="432.1" cy="301.7" rx="4.6" ry="4"/>
	<ellipse cx="423.1" cy="305.4" rx="4.6" ry="4"/>
	<ellipse cx="224.5" cy="316.3" rx="4.6" ry="4"/>
	<ellipse cx="278.7" cy="320" rx="4.6" ry="4"/>
	<ellipse cx="287.7" cy="323.6" rx="4.6" ry="4"/>
	<ellipse cx="278.7" cy="327.3" rx="4.6" ry="4"/>
	<ellipse cx="341.9" cy="331" rx="4.6" ry="4"/>
	<ellipse cx="432.1" cy="334.6" rx="4.6" ry="4"/>
	<ellipse cx="387" cy="338.3" rx="4.6" ry="4"/>
	<ellipse cx="314.8" cy="341.9" rx="4.6" ry="4"/>
	<ellipse cx="269.7" cy="345.6" rx="4.6" ry="4"/>
	<ellipse cx="377.9" cy="349.2" rx="4.6" ry="4"/>
	<ellipse cx="323.8" cy="352.9" rx="4.6" ry="4"/>
	<ellipse cx="287.7" cy="356.5" rx="4.6" ry="4"/>
	<ellipse cx="414" cy="360.2" rx="4.6" ry="4"/>
	<ellipse cx="432.1" cy="367.5" rx="4.6" ry="4"/>
	<ellipse cx="486.2" cy="371.1" rx="4.6" ry="4"/>
	<ellipse cx="495.2" cy="374.8" rx="4.6" ry="4"/>
	<ellipse cx="323.8" cy="378.5" rx="4.6" ry="4"/>
	<ellipse cx="414" cy="382.1" rx="4.6" ry="4"/>
	<ellipse cx="495.2" cy="385.8" rx="4.6" ry="4"/>
	<ellipse cx="197.5" cy="389.4" rx="4.6" ry="4"/>
	<ellipse cx="179.4" cy="393.1" rx="4.6" ry="4"/>
	<ellipse cx="197.5" cy="396.7" rx="4.6" ry="4"/>
	<ellipse cx="161.4" cy="400.4" rx="4.6" ry="4"/>
	<ellipse cx="179.4" cy="404" rx="4.6" ry="4"/>
	<ellipse cx="233.6" cy="407.7" rx="4.6" ry="4"/>
	<ellipse cx="215.5" cy="411.4" rx="4.6" ry="4"/>
	<ellipse cx="206.5" cy="415" rx="4.6" ry="4"/>
	<ellipse cx="188.4" cy="418.7" rx="4.6" ry="4"/>
	<ellipse cx="260.6" cy="422.3" rx="4.6" ry="4"/>
	<ellipse cx="170.4" cy="426" rx="4.6" ry="4"/>
	<ellipse cx="161.4" cy="429.6" rx="4.6" ry="4"/>
	<ellipse cx="161.4" cy="433.3" rx="4.6" ry="4"/>
	<ellipse cx="188.4" cy="436.9" rx="4.6" ry="4"/>
	<ellipse cx="233.6" cy="440.6" rx="4.6" ry="4"/>
	<ellipse cx="305.8" cy="444.2" rx="4.6" ry="4"/>
	<ellipse cx="332.8" cy="447.9" rx="4.6" ry="4"/>
	<ellipse cx="251.6" cy="451.5" rx="4.6" ry="4"/>
	<ellipse cx="278.7" cy="455.2" rx="4.6" ry="4"/>
	<ellipse cx="233.6" cy="458.9" rx="4.6" ry="4"/>
	<ellipse cx="341.9" cy="462.5" rx="4.6" ry="4"/>
	<ellipse cx="287.7" cy="466.2" rx="4.6" ry="4"/>
	<ellipse cx="197.5" cy="469.8" rx="4.6" ry="4"/>
	<ellipse cx="260.6" cy="473.5" rx="4.6" ry="4"/>
	<ellipse cx="287.7" cy="477.1" rx="4.6" ry="4"/>
	<ellipse cx="179.4" cy="480.8" rx="4.6" ry="4"/>
	<ellipse cx="215.5" cy="484.4" rx="4.6" ry="4"/>
	<ellipse cx="188.4" cy="491.8" rx="4.6" ry="4"/>
	<ellipse cx="161.4" cy="495.4" rx="4.6" ry="4"/>
	<ellipse cx="251.6" cy="499.1" rx="4.6" ry="4"/>
	<ellipse cx="359.9" cy="502.7" rx="4.6" ry="4"/>
	<ellipse cx="278.7" cy="506.4" rx="4.6" ry="4"/>
	<ellipse cx="215.5" cy="510" rx="4.6" ry="4"/>
	<ellipse cx="206.5" cy="521" rx="4.6" ry="4"/>
	<ellipse cx="152.4" cy="524.6" rx="4.6" ry="4"/>
	<ellipse cx="170.4" cy="528.3" rx="4.6" ry="4"/>
	<ellipse cx="224.5" cy="531.9" rx="4.6" ry="4"/>
	<ellipse cx="305.8" cy="535.6" rx="4.6" ry="4"/>
	<ellipse cx="377.9" cy="539.3" rx="4.6" ry="4"/>
	<ellipse cx="405" cy="542.9" rx="4.6" ry="4"/>
	<ellipse cx="314.8" cy="546.6" rx="4.6" ry="4"/>
	<ellipse cx="251.6" cy="550.2" rx="4.6" ry="4"/>
	<ellipse cx="233.6" cy="553.9" rx="4.6" ry="4"/>
	<ellipse cx="188.4" cy="557.5" rx="4.6" ry="4"/>
	<ellipse cx="233.6" cy="561.2" rx="4.6" ry="4"/>
	<ellipse cx="251.6" cy="564.8" rx="4.6" ry="4"/>
	<ellipse cx="206.5" cy="568.5" rx="4.6" ry="4"/>
	<ellipse cx="224.5" cy="572.2" rx="4.6" ry="4"/>
	<ellipse cx="296.7" cy="575.8" rx="4.6" ry="4"/>
	<ellipse cx="215.5" cy="579.5" rx="4.6" ry="4"/>
	<ellipse cx="269.7" cy="583.1" rx="4.6" ry="4"/>
	<ellipse cx="287.7" cy="586.8" rx="4.6" ry="4"/>
	<ellipse cx="224.5" cy="590.4" rx="4.6" ry="4"/>
	<ellipse cx="152.4" cy="594.1" rx="4.6" ry="4"/>
	<ellipse cx="197.5" cy="597.7" rx="4.6" ry="4"/>
	<ellipse cx="170.4" cy="601.4" rx="4.6" ry="4"/>
	<ellipse cx="170.4" cy="605" rx="4.6" ry="4"/>
	<ellipse cx="134.3" cy="608.7" rx="4.6" ry="4"/>
	<ellipse cx="116.3" cy="612.3" rx="4.6" ry="4"/>
	<ellipse cx="179.4" cy="616" rx="4.6" ry="4"/>
	<ellipse cx="134.3" cy="619.7" rx="4.6" ry="4"/>
	<ellipse cx="170.4" cy="623.3" rx="4.6" ry="4"/>
	<ellipse cx="215.5" cy="627" rx="4.6" ry="4"/>
	<ellipse cx="206.5" cy="630.6" rx="4.6" ry="4"/>
	<ellipse cx="206.5" cy="634.3" rx="4.6" ry="4"/>
	<ellipse cx="206.5" cy="637.9" rx="4.6" ry="4"/>
	<ellipse cx="179.4" cy="641.6" rx="4.6" ry="4"/>
	<ellipse cx="224.4" cy="645.3" rx="4.6" ry="4"/>
	<ellipse cx="269.7" cy="648.9" rx="4.6" ry="4"/>
	<ellipse cx="269.7" cy="652.5" rx="4.6" ry="4"/>
	<ellipse cx="233.6" cy="656.2" rx="4.6" ry="4"/>
	<ellipse cx="215.5" cy="659.9" rx="4.6" ry="4"/>
	<ellipse cx="278.7" cy="663.5" rx="4.6" ry="4"/>
	<ellipse cx="242.6" cy="667.2" rx="4.6" ry="4"/>
	<ellipse cx="269.7" cy="670.8" rx="4.6" ry="4"/>
	<ellipse cx="287.7" cy="674.5" rx="4.6" ry="4"/>
	<ellipse cx="260.6" cy="678.1" rx="4.6" ry="4"/>
	<ellipse cx="215.5" cy="681.8" rx="4.6" ry="4"/>
	<ellipse cx="197.5" cy="685.4" rx="4.6" ry="4"/>
	<ellipse cx="206.5" cy="689.1" rx="4.6" ry="4"/>
	<ellipse cx="197.5" cy="692.8" rx="4.6" ry="4"/>
	<ellipse cx="188.4" cy="696.4" rx="4.6" ry="4"/>
	<ellipse cx="197.5" cy="700.1" rx="4.6" ry="4"/>
	<ellipse cx="215.5" cy="703.7" rx="4.6" ry="4"/>
	<ellipse cx="161.4" cy="707.4" rx="4.6" ry="4"/>
	<ellipse cx="134.3" cy="711" rx="4.6" ry="4"/>
	<ellipse cx="179.4" cy="714.7" rx="4.6" ry="4"/>
	<ellipse cx="197.5" cy="718.3" rx="4.6" ry="4"/>
	<ellipse cx="143.3" cy="722" rx="4.6" ry="4"/>
	<ellipse cx="152.4" cy="725.6" rx="4.6" ry="4"/>
	<ellipse cx="179.4" cy="729.3" rx="4.6" ry="4"/>
	<ellipse cx="179.4" cy="733" rx="4.6" ry="4"/>
	<ellipse cx="170.4" cy="736.6" rx="4.6" ry="4"/>
	<ellipse cx="197.5" cy="740.2" rx="4.6" ry="4"/>
	<ellipse cx="215.6" cy="743.9" rx="4.6" ry="4"/>
	<ellipse cx="242.6" cy="747.6" rx="4.6" ry="4"/>
	<ellipse cx="287.7" cy="751.2" rx="4.6" ry="4"/>
	<ellipse cx="296.7" cy="754.9" rx="4.6" ry="4"/>
	<ellipse cx="260.7" cy="758.6" rx="4.6" ry="4"/>
	<ellipse cx="260.6" cy="762.2" rx="4.6" ry="4"/>
	<ellipse cx="332.8" cy="765.8" rx="4.6" ry="4"/>
	<ellipse cx="296.7" cy="769.5" rx="4.6" ry="4"/>
	<ellipse cx="287.7" cy="773.2" rx="4.6" ry="4"/>
	<ellipse cx="269.7" cy="776.8" rx="4.6" ry="4"/>
	<ellipse cx="233.6" cy="780.5" rx="4.6" ry="4"/>
	<ellipse cx="206.5" cy="784.1" rx="4.6" ry="4"/>
	<ellipse cx="233.6" cy="787.8" rx="4.6" ry="4"/>
	<ellipse cx="287.7" cy="791.4" rx="4.6" ry="4"/>
	<ellipse cx="296.7" cy="795.1" rx="4.6" ry="4"/>
	<ellipse cx="314.8" cy="798.7" rx="4.6" ry="4"/>
	<ellipse cx="323.8" cy="802.4" rx="4.6" ry="4"/>
	<ellipse cx="260.6" cy="806" rx="4.6" ry="4"/>
	<ellipse cx="260.6" cy="809.7" rx="4.6" ry="4"/>
	<ellipse cx="224.5" cy="813.4" rx="4.6" ry="4"/>
	<ellipse cx="269.7" cy="817" rx="4.6" ry="4"/>
	<ellipse cx="323.8" cy="820.7" rx="4.6" ry="4"/>
	<ellipse cx="314.8" cy="824.3" rx="4.6" ry="4"/>
	<ellipse cx="269.7" cy="828" rx="4.6" ry="4"/>
	<ellipse cx="251.6" cy="831.6" rx="4.6" ry="4"/>
	<ellipse cx="170.4" cy="835.3" rx="4.6" ry="4"/>
	<ellipse cx="188.4" cy="838.9" rx="4.6" ry="4"/>
	<ellipse cx="197.5" cy="842.6" rx="4.6" ry="4"/>
	<ellipse cx="215.5" cy="846.2" rx="4.6" ry="4"/>
	<ellipse cx="215.5" cy="849.9" rx="4.6" ry="4"/>
	<ellipse cx="233.6" cy="853.5" rx="4.6" ry="4"/>
	<ellipse cx="278.7" cy="857.2" rx="4.6" ry="4"/>
	<ellipse cx="215.5" cy="860.9" rx="4.6" ry="4"/>
	<ellipse cx="224.5" cy="864.5" rx="4.6" ry="4"/>
	<ellipse cx="206.5" cy="868.2" rx="4.6" ry="4"/>
	<ellipse cx="233.6" cy="871.8" rx="4.6" ry="4"/>
	<ellipse cx="260.6" cy="875.5" rx="4.6" ry="4"/>
	<ellipse cx="296.7" cy="879.1" rx="4.6" ry="4"/>
	<ellipse cx="377.9" cy="882.8" rx="4.6" ry="4"/>
	<ellipse cx="377.9" cy="886.5" rx="4.6" ry="4"/>
	<ellipse cx="287.7" cy="890.1" rx="4.6" ry="4"/>
	<ellipse cx="197.5" cy="893.8" rx="4.6" ry="4"/>
	<ellipse cx="251.6" cy="897.4" rx="4.6" ry="4"/>
	<ellipse cx="332.8" cy="901.1" rx="4.6" ry="4"/>
	<ellipse cx="332.8" cy="904.7" rx="4.6" ry="4"/>
	<ellipse cx="305.8" cy="908.4" rx="4.6" ry="4"/>
	<ellipse cx="215.5" cy="912" rx="4.6" ry="4"/>
	<ellipse cx="116.3" cy="915.7" rx="4.6" ry="4"/>
	<ellipse cx="134.3" cy="919.3" rx="4.6" ry="4"/>
	<ellipse cx="179.4" cy="923" rx="4.6" ry="4"/>
	<ellipse cx="170.4" cy="926.6" rx="4.6" ry="4"/>
	<ellipse cx="143.3" cy="930.3" rx="4.6" ry="4"/>
	<ellipse cx="197.5" cy="934" rx="4.6" ry="4"/>
	<ellipse cx="206.5" cy="937.6" rx="4.6" ry="4"/>
	<ellipse cx="170.4" cy="941.3" rx="4.6" ry="4"/>
	<ellipse cx="170.4" cy="944.9" rx="4.6" ry="4"/>
	<ellipse cx="224.5" cy="948.6" rx="4.6" ry="4"/>
	<ellipse cx="188.4" cy="952.2" rx="4.6" ry="4"/>
	<ellipse cx="224.5" cy="955.9" rx="4.6" ry="4"/>
	<ellipse cx="260.6" cy="959.5" rx="4.6" ry="4"/>
	<ellipse cx="233.6" cy="963.2" rx="4.6" ry="4"/>
	<ellipse cx="233.6" cy="966.8" rx="4.6" ry="4"/>
	<ellipse cx="233.6" cy="970.5" rx="4.6" ry="4"/>
	<ellipse cx="278.7" cy="974.2" rx="4.6" ry="4"/>
	<ellipse cx="224.5" cy="977.8" rx="4.6" ry="4"/>
	<ellipse cx="215.5" cy="981.5" rx="4.6" ry="4"/>
	<ellipse cx="233.6" cy="985.1" rx="4.6" ry="4"/>
	<ellipse cx="188.4" cy="988.8" rx="4.6" ry="4"/>
	<ellipse cx="143.3" cy="992.4" rx="4.6" ry="4"/>
	<ellipse cx="197.5" cy="996.1" rx="4.6" ry="4"/>
	<ellipse cx="206.5" cy="999.7" rx="4.6" ry="4"/>
	<ellipse cx="296.7" cy="1003.4" rx="4.6" ry="4"/>
	<ellipse cx="215.5" cy="1007" rx="4.6" ry="4"/>
	<ellipse cx="251.6" cy="1010.7" rx="4.6" ry="4"/>
	<ellipse cx="242.6" cy="1014.3" rx="4.6" ry="4"/>
	<ellipse cx="188.4" cy="1018" rx="4.6" ry="4"/>
	<ellipse cx="215.5" cy="1025.3" rx="4.6" ry="4"/>
	<ellipse cx="314.8" cy="1029" rx="4.6" ry="4"/>
	<ellipse cx="359.9" cy="1032.6" rx="4.6" ry="4"/>
	<ellipse cx="233.6" cy="1036.3" rx="4.6" ry="4"/>
	<ellipse cx="143.3" cy="1039.9" rx="4.6" ry="4"/>
	<ellipse cx="170.4" cy="1043.6" rx="4.6" ry="4"/>
	<ellipse cx="170.4" cy="1047.2" rx="4.6" ry="4"/>
	<ellipse cx="188.4" cy="1050.9" rx="4.6" ry="4"/>
	<ellipse cx="161.4" cy="1054.6" rx="4.6" ry="4"/>
	<ellipse cx="161.4" cy="1058.2" rx="4.6" ry="4"/>
	<ellipse cx="233.6" cy="1061.9" rx="4.6" ry="4"/>
	<ellipse cx="215.5" cy="1065.5" rx="4.6" ry="4"/>
	<ellipse cx="206.5" cy="1069.2" rx="4.6" ry="4"/>
	<ellipse cx="224.5" cy="1072.8" rx="4.6" ry="4"/>
	<ellipse cx="224.5" cy="1076.5" rx="4.6" ry="4"/>
	<ellipse cx="224.5" cy="1080.1" rx="4.6" ry="4"/>
	<ellipse cx="206.5" cy="1083.8" rx="4.6" ry="4"/>
	<ellipse cx="251.6" cy="1087.4" rx="4.6" ry="4"/>
	<ellipse cx="242.6" cy="1091.1" rx="4.6" ry="4"/>
	<ellipse cx="206.5" cy="1094.8" rx="4.6" ry="4"/>
	<ellipse cx="341.9" cy="1098.4" rx="4.6" ry="4"/>
	<ellipse cx="396" cy="1102.1" rx="4.6" ry="4"/>
	<ellipse cx="359.9" cy="1105.7" rx="4.6" ry="4"/>
	<ellipse cx="197.5" cy="1109.4" rx="4.6" ry="4"/>
	<ellipse cx="206.5" cy="1113" rx="4.6" ry="4"/>
	<ellipse cx="206.5" cy="1116.7" rx="4.6" ry="4"/>
	<ellipse cx="152.4" cy="1120.3" rx="4.6" ry="4"/>
	<ellipse cx="197.5" cy="1124" rx="4.6" ry="4"/>
	<ellipse cx="251.6" cy="1127.7" rx="4.6" ry="4"/>
	<ellipse cx="179.4" cy="1131.3" rx="4.6" ry="4"/>
	<ellipse cx="206.5" cy="1135" rx="4.6" ry="4"/>
	<ellipse cx="170.4" cy="1138.6" rx="4.6" ry="4"/>
	<ellipse cx="260.6" cy="1142.3" rx="4.6" ry="4"/>
	<ellipse cx="396" cy="1145.9" rx="4.6" ry="4"/>
	<ellipse cx="323.8" cy="1149.6" rx="4.6" ry="4"/>
	<ellipse cx="233.6" cy="1153.2" rx="4.6" ry="4"/>
	<ellipse cx="215.5" cy="1156.9" rx="4.6" ry="4"/>
	<ellipse cx="260.6" cy="1160.5" rx="4.6" ry="4"/>
	<ellipse cx="287.7" cy="1164.2" rx="4.6" ry="4"/>
	<ellipse cx="332.8" cy="1167.8" rx="4.6" ry="4"/>
	<ellipse cx="350.9" cy="1171.5" rx="4.6" ry="4"/>
	<ellipse cx="486.2" cy="1175.2" rx="4.6" ry="4"/>
	<ellipse cx="287.7" cy="1186.1" rx="4.6" ry="4"/>
	<ellipse cx="350.9" cy="1189.8" rx="4.6" ry="4"/>
	<ellipse cx="423.1" cy="1193.4" rx="4.6" ry="4"/>
	<ellipse cx="396" cy="1197.1" rx="4.6" ry="4"/>
	<ellipse cx="350.9" cy="1200.7" rx="4.6" ry="4"/>
	<ellipse cx="459.1" cy="1204.4" rx="4.6" ry="4"/>
	<ellipse cx="396" cy="1208.1" rx="4.6" ry="4"/>
	<ellipse cx="332.8" cy="1211.7" rx="4.6" ry="4"/>
	<ellipse cx="323.8" cy="1215.4" rx="4.6" ry="4"/>
	<ellipse cx="314.8" cy="1219" rx="4.6" ry="4"/>
	<ellipse cx="260.6" cy="1222.7" rx="4.6" ry="4"/>
	<ellipse cx="224.5" cy="1226.3" rx="4.6" ry="4"/>
	<ellipse cx="323.8" cy="1230" rx="4.6" ry="4"/>
	<ellipse cx="432.1" cy="1233.6" rx="4.6" ry="4"/>
	<ellipse cx="387" cy="1237.3" rx="4.6" ry="4"/>
	<ellipse cx="477.2" cy="1244.6" rx="4.6" ry="4"/>
	<ellipse cx="468.2" cy="1248.2" rx="4.6" ry="4"/>
	<ellipse cx="459.1" cy="1251.9" rx="4.6" ry="4"/>
	<ellipse cx="468.2" cy="1255.6" rx="4.6" ry="4"/>
	<ellipse cx="432.1" cy="1259.2" rx="4.6" ry="4"/>
	<ellipse cx="387" cy="1262.9" rx="4.6" ry="4"/>
	<ellipse cx="414" cy="1266.5" rx="4.6" ry="4"/>
	<ellipse cx="170.4" cy="1270.2" rx="4.6" ry="4"/>
	<ellipse cx="80.2" cy="1273.8" rx="4.6" ry="4"/>
	<ellipse cx="233.6" cy="1277.5" rx="4.6" ry="4"/>
	<ellipse cx="332.8" cy="1281.1" rx="4.6" ry="4"/>
	<ellipse cx="423.1" cy="1284.8" rx="4.6" ry="4"/>
	<ellipse cx="377.9" cy="1292.1" rx="4.6" ry="4"/>
	<ellipse cx="323.8" cy="1295.8" rx="4.6" ry="4"/>
	<ellipse cx="477.2" cy="1303.1" rx="4.6" ry="4"/>
	<ellipse cx="441.1" cy="1317.7" rx="4.6" ry="4"/>
	<ellipse cx="405" cy="1336" rx="4.6" ry="4"/>
	<ellipse cx="332.8" cy="1339.6" rx="4.6" ry="4"/>
	<ellipse cx="341.9" cy="1343.3" rx="4.6" ry="4"/>
	<ellipse cx="477.2" cy="1346.9" rx="4.6" ry="4"/>
	<ellipse cx="477.2" cy="1368.8" rx="4.6" ry="4"/>
	<ellipse cx="459.1" cy="1372.5" rx="4.6" ry="4"/>
	<ellipse cx="477.2" cy="1376.2" rx="4.6" ry="4"/>
	<ellipse class="st2" cx="504.3" cy="97" rx="4.6" ry="4"/>
	<ellipse class="st2" cx="522.3" cy="104.3" rx="4.6" ry="4"/>
	<ellipse class="st2" cx="666.7" cy="108" rx="4.6" ry="4"/>
	<ellipse class="st2" cx="784" cy="111.7" rx="4.6" ry="4"/>
	<ellipse class="st2" cx="684.8" cy="115.3" rx="4.6" ry="4"/>
	<ellipse class="st2" cx="657.7" cy="119" rx="4.6" ry="4"/>
	<ellipse class="st2" cx="540.4" cy="122.6" rx="4.6" ry="4"/>
	<ellipse class="st2" cx="558.4" cy="129.9" rx="4.6" ry="4"/>
	<ellipse class="st2" cx="747.9" cy="133.6" rx="4.6" ry="4"/>
	<ellipse class="st2" cx="747.9" cy="137.2" rx="4.6" ry="4"/>
	<ellipse class="st2" cx="504.3" cy="140.9" rx="4.6" ry="4"/>
	<ellipse class="st2" cx="522.3" cy="155.5" rx="4.6" ry="4"/>
	<ellipse class="st2" cx="540.4" cy="159.2" rx="4.6" ry="4"/>
	<ellipse class="st2" cx="549.4" cy="206.7" rx="4.6" ry="4"/>
	<ellipse class="st2" cx="558.4" cy="235.9" rx="4.6" ry="4"/>
	<ellipse class="st2" cx="558.4" cy="239.6" rx="4.6" ry="4"/>
	<ellipse class="st2" cx="675.7" cy="243.2" rx="4.6" ry="4"/>
	<ellipse class="st2" cx="720.8" cy="246.9" rx="4.6" ry="4"/>
	<ellipse class="st2" cx="558.4" cy="257.9" rx="4.6" ry="4"/>
	<ellipse class="st2" cx="522.3" cy="261.5" rx="4.6" ry="4"/>
	<ellipse class="st2" cx="603.5" cy="309" rx="4.6" ry="4"/>
	<ellipse class="st2" cx="540.4" cy="312.7" rx="4.6" ry="4"/>
	<ellipse class="st2" cx="531.3" cy="363.8" rx="4.6" ry="4"/>
	<ellipse class="st2" cx="603.5" cy="1178.8" rx="4.6" ry="4"/>
	<ellipse class="st2" cx="576.5" cy="1182.5" rx="4.6" ry="4"/>
	<ellipse class="st2" cx="567.4" cy="1240.9" rx="4.6" ry="4"/>
	<ellipse class="st2" cx="540.4" cy="1288.4" rx="4.6" ry="4"/>
	<ellipse class="st2" cx="522.3" cy="1299.4" rx="4.6" ry="4"/>
	<ellipse class="st2" cx="720.8" cy="1306.7" rx="4.6" ry="4"/>
	<ellipse class="st2" cx="747.9" cy="1310.4" rx="4.6" ry="4"/>
	<ellipse class="st2" cx="630.6" cy="1314" rx="4.6" ry="4"/>
	<ellipse class="st2" cx="558.4" cy="1321.3" rx="4.6" ry="4"/>
	<ellipse class="st2" cx="594.5" cy="1332.3" rx="4.6" ry="4"/>
	<ellipse class="st2" cx="522.3" cy="1350.6" rx="4.6" ry="4"/>
	<ellipse class="st2" cx="784" cy="1354.2" rx="4.6" ry="4"/>
	<ellipse class="st2" cx="729.9" cy="1357.9" rx="4.6" ry="4"/>
	<ellipse class="st2" cx="720.8" cy="1361.5" rx="4.6" ry="4"/>
	<ellipse class="st2" cx="666.7" cy="1365.2" rx="4.6" ry="4"/>
	<ellipse class="st2" cx="558.4" cy="1379.8" rx="4.6" ry="4"/>
	<ellipse class="st2" cx="567.4" cy="1383.5" rx="4.6" ry="4"/>
	<ellipse cx="396" cy="1387.1" rx="4.6" ry="4"/>
	<ellipse cx="414" cy="1390.8" rx="4.6" ry="4"/>
	<ellipse cx="486.2" cy="1394.4" rx="4.6" ry="4"/>
	<ellipse cx="296.7" cy="1398.1" rx="4.6" ry="4"/>
	<ellipse cx="251.6" cy="1401.7" rx="4.6" ry="4"/>
	<ellipse cx="269.7" cy="1405.4" rx="4.6" ry="4"/>
	<ellipse cx="359.9" cy="1409.1" rx="4.6" ry="4"/>
	<ellipse cx="432.1" cy="1412.7" rx="4.6" ry="4"/>
	<ellipse cx="359.9" cy="1416.4" rx="4.6" ry="4"/>
	<path class="st3" d="M52.8,1280.7v-7.3c0,1.8,18,1.8,18,3.7S52.8,1278.9,52.8,1280.7z"/>
	<path class="st3" d="M548.3,1269.8c0,1.8-495.5,1.8-495.5,3.6v-7.2C52.8,1268,548.3,1268,548.3,1269.8z"/>
	<path class="st3" d="M52.8,1186.2v-11c0,1.8,90.1,1.8,90.1,3.6s45.1,1.8,45.1,3.7S52.8,1184.3,52.8,1186.2z"/>
	<path class="st3" d="M52.8,1149.8v-7.3c0,1.8,27,1.8,27,3.6S52.8,1147.9,52.8,1149.8z"/>
	<path class="st3" d="M305,1131.6c0,1.8-225.2,1.8-225.2,3.6s-27,1.8-27,3.7v-18.2c0,1.8,99.1,1.8,99.1,3.6s36,1.8,36,3.6
		S305,1129.8,305,1131.6z"/>
	<path class="st3" d="M52.8,1120.7v-7.3c0,1.8,63.1,1.8,63.1,3.7S52.8,1118.8,52.8,1120.7z"/>
	<path class="st3" d="M52.8,1106.1v-25.5c0,1.8,27,1.8,27,3.6s54.1,1.9,54.1,3.7s-27,1.8-27,3.6s-27,1.8-27,3.6s-9,1.8-9,3.7
		s-9,1.8-9,3.6S52.8,1104.3,52.8,1106.1z"/>
	<path class="st3" d="M52.8,1062.5v-10.9c0,1.8,18,1.8,18,3.7s18,1.8,18,3.6S52.8,1060.7,52.8,1062.5z"/>
	<path class="st3" d="M52.8,1022.5v-7.3c0,1.8,63.1,1.8,63.1,3.6S52.8,1020.8,52.8,1022.5z"/>
	<path class="st3" d="M52.8,946.2v-7.3c0,1.8,63.1,1.8,63.1,3.6S52.8,944.4,52.8,946.2z"/>
	<path class="st3" d="M52.8,928v-7.3c0,1.8,18,1.8,18,3.6S52.8,926.2,52.8,928z"/>
	<path class="st3" d="M52.8,917.1v-7.3c0,1.8,207.2,1.8,207.2,3.6S52.8,915.3,52.8,917.1z"/>
	<path class="st3" d="M52.8,899v-11c0,1.8,189.2,1.8,189.2,3.6v3.7C242,897.1,52.8,897.1,52.8,899z"/>
	<path class="st3" d="M52.8,866.2V859c0,1.8,63.1,1.8,63.1,3.6S52.8,864.4,52.8,866.2z"/>
	<path class="st3" d="M52.8,859v-7.2c0,1.8,18,1.8,18,3.6S52.8,857.2,52.8,859z"/>
	<path class="st3" d="M52.8,739v-7.3c0,1.8,90.1,1.8,90.1,3.6S52.8,737.2,52.8,739z"/>
	<path class="st3" d="M52.8,724.5v-11c0,1.8,9,1.8,9,3.6s54.1,1.8,54.1,3.6S52.8,722.7,52.8,724.5z"/>
	<path class="st3" d="M52.8,710v-7.3c0,1.8,36,1.8,36,3.6S52.8,708.2,52.8,710z"/>
	<path class="st3" d="M449.2,695.4c0,1.8-360.4,1.8-360.4,3.7s-36,1.8-36,3.6v-18.2c0,1.8,9,1.8,9,3.6s9,1.8,9,3.7
		S449.2,693.6,449.2,695.4z"/>
	<path class="st3" d="M52.8,640.9v-7.3c0,1.8,18,1.8,18,3.7S52.8,639.1,52.8,640.9z"/>
	<path class="st3" d="M52.8,622.7v-10.9c0,1.8,27,1.8,27,3.7s63.1,1.8,63.1,3.6S52.8,621,52.8,622.7z"/>
	<path class="st3" d="M52.8,611.8v-14.5c0,1.8,135.1,1.8,135.1,3.6s-18,1.8-18,3.7s-54.1,1.8-54.1,3.6S52.8,610,52.8,611.8z"/>
	<path class="st3" d="M52.8,586.4v-10.9c0,1.8,99.1,1.8,99.1,3.6s-90.1,1.8-90.1,3.6S52.8,584.6,52.8,586.4z"/>
	<path class="st3" d="M278,510.1c0,1.8-117.1,1.8-117.1,3.6c0,1.8-9,1.8-9,3.6s-90.1,1.8-90.1,3.7s-9,1.8-9,3.6v-18.2
		C52.8,508.3,278,508.3,278,510.1z"/>
	<path class="st3" d="M52.8,484.6v-14.5c0,1.8,9,1.8,9,3.6v3.7c0,1.8,90.1,1.8,90.1,3.6S52.8,482.8,52.8,484.6z"/>
	<path class="st3" d="M377,430.1c0,1.8-324.4,1.8-324.4,3.6v-10.9c0,1.8,18,1.8,18,3.6S377,428.3,377,430.1z"/>
	<path class="st3" d="M377,393.9c0,1.7-315.4,1.7-315.4,3.5s27,1.8,27,3.6s-36,1.8-36,3.6v-18c0,1.8,45,1.8,45,3.6
		S377,392.1,377,393.9z"/>
	<path class="st3" d="M332.1,361.2c0,1.8-270.3,1.8-270.3,3.6s-9,1.8-9,3.6V354c0,1.8,45,1.8,45,3.6S332.1,359.4,332.1,361.2z"/>
	<path class="st3" d="M52.8,321.2V314c0,1.8,180.2,1.8,180.2,3.6S52.8,319.4,52.8,321.2z"/>
	<path class="st3" d="M368.1,284.9c0,1.8-306.3,1.8-306.3,3.6s-9,1.8-9,3.6v-10.9C52.8,283,368.1,283,368.1,284.9z"/>
	<path class="st3" d="M52.8,281.2v-10.9c0,1.8,45,1.8,45,3.6s81.1,1.8,81.1,3.6S52.8,279.4,52.8,281.2z"/>
	<path class="st3" d="M52.8,259.4v-14.6c0,1.8,18,1.8,18,3.6s18,1.8,18,3.6s27,1.8,27,3.6C115.8,257.4,52.8,257.6,52.8,259.4z"/>
	<path class="st3" d="M52.8,201.3V194c0,1.8,81.1,1.8,81.1,3.6S52.8,199.5,52.8,201.3z"/>
	<path class="st3" d="M52.8,194v-7.3c0,1.8,27,1.8,27,3.6S52.8,192.2,52.8,194z"/>
	<path class="st3" d="M52.8,168.6v-14.5c0,1.8,9,1.8,9,3.6s18,1.8,18,3.6s27,1.8,27,3.6S52.8,166.7,52.8,168.6z"/>
	<path class="st3" d="M52.8,230.3v-25.5c0,1.8,27,1.8,27,3.6S260,210.2,260,212s117,1.9,117,3.7s117.1,1.8,117.1,3.6
		s-351.4,1.8-351.4,3.6s-27,1.8-27,3.6S52.8,228.5,52.8,230.3z"/>
	<path class="st3" d="M52.3,1280.7c0-1.2,2.7-1.5,9.4-2.2c3.3-0.3,8.2-0.8,8.6-1.4c-0.4-0.6-5.3-1.1-8.6-1.3
		c-6.7-0.7-9.4-1.1-9.4-2.2c0-0.6,0-0.7,21.7-1c12.8-0.2,31.1-0.3,56.1-0.5c46.5-0.3,109.4-0.5,170.4-0.7c103-0.4,209-0.8,239.2-1.4
		c-30.2-0.7-136.6-1-240-1.4c-60.7-0.2-123.5-0.4-169.8-0.7c-24.9-0.2-43.2-0.3-55.9-0.5c-21.7-0.3-21.7-0.4-21.7-1
		c0-0.2,0.3-0.4,0.5-0.4c0.1,0,0.1,0,0.2,0.1c4.2,0.9,127.5,1.3,246.7,1.8c61.1,0.2,124.2,0.4,170.9,0.7c25.1,0.1,43.5,0.3,56.4,0.5
		c21.8,0.3,21.8,0.4,21.8,1s0,0.7-21.7,1c-12.8,0.2-31.1,0.3-56.1,0.5c-46.5,0.3-109.4,0.5-170.4,0.7c-116.2,0.4-236,0.9-246.8,1.7
		c2.7,0.6,5.4,1,8.1,1.1c6.7,0.7,9.4,1.1,9.4,2.2s-2.7,1.5-9.4,2.2c-3.3,0.3-8.2,0.8-8.6,1.4c0,0.2-0.2,0.4-0.4,0.4l0,0l0,0
		C52.5,1281.2,52.3,1281,52.3,1280.7L52.3,1280.7L52.3,1280.7z"/>
	<path class="st3" d="M52.3,1186.2c0-1.1,6.7-1.4,67.8-2.3c28.5-0.4,60.6-0.8,66.6-1.6c-3-0.6-13-1-21.2-1.3
		c-18.1-0.7-22.5-1.1-23-2c-2-0.8-24.7-1.2-44.7-1.6c-41-0.8-45.5-1.2-45.5-2.2c0-0.2,0.2-0.4,0.4-0.4l0,0c0.2,0,0.3,0.1,0.4,0.2
		c1.9,0.8,24.6,1.2,44.7,1.6c39.1,0.8,45,1.1,45.5,2.1c1.2,0.7,12.8,1.2,22.2,1.6c19.2,0.8,22.9,1.1,22.9,2.2s-6.7,1.4-68.2,2.3
		c-30.3,0.4-64.6,0.9-67,1.7c-0.1,0.1-0.2,0.1-0.3,0.2C52.5,1186.7,52.3,1186.5,52.3,1186.2L52.3,1186.2z"/>
	<path class="st3" d="M52.3,1149.8c0-1.1,3.1-1.5,13.9-2.2c5-0.3,11.8-0.8,12.9-1.4c-1.2-0.6-8-1.1-13-1.3
		c-10.8-0.7-13.9-1.1-13.9-2.2c0-0.2,0.2-0.4,0.4-0.4l0,0c0.2,0,0.4,0.1,0.4,0.3c0.8,0.7,7.9,1.1,13.1,1.5
		c10.8,0.7,13.9,1.1,13.9,2.2s-3.1,1.5-13.9,2.2c-5.3,0.4-12.5,0.8-13.2,1.5c0,0.2-0.2,0.4-0.4,0.4l0,0
		C52.4,1150.2,52.2,1150,52.3,1149.8z"/>
	<path class="st3" d="M52.3,1138.8c0-1.1,3.1-1.5,13.9-2.2c5.3-0.4,12.5-0.8,13.2-1.5c0-0.6,0-0.9,35.6-1.3
		c21.1-0.3,49.8-0.5,77.4-0.7c46.2-0.4,97.9-0.8,109.9-1.5c-7.9-0.6-33-1-55.6-1.3c-51.4-0.8-58.7-1.2-59.2-2.1
		c-1-0.7-10.6-1.2-17.6-1.5c-14.3-0.7-17.9-1.1-18.4-2c-2.2-0.8-27.2-1.2-49.3-1.6c-44.9-0.8-49.8-1.2-49.8-2.2s3.8-1.4,32-2.2
		c12.1-0.3,26.9-0.8,30.4-1.4c-3.6-0.6-18.4-1.1-30.6-1.4c-28.8-0.8-31.9-1.2-31.9-2.2c0-0.2,0.2-0.4,0.5-0.4c0.2,0,0.3,0.1,0.4,0.2
		c1.5,0.7,17.9,1.2,31,1.6c28.3,0.8,32.1,1.2,32.1,2.2s-3.8,1.3-32,2.2c-11.8,0.3-26.2,0.8-30.2,1.3c5.2,0.7,27.9,1.1,48,1.4
		c43.6,0.8,49.8,1.2,50.2,2.1c1,0.7,10.6,1.2,17.6,1.5c14.2,0.7,17.9,1.1,18.4,2c2.5,0.8,32.2,1.2,58.4,1.7
		c53,0.8,58.9,1.2,58.9,2.2c0,0.6,0,1-35.6,1.5c-21.1,0.3-49.7,0.5-77.4,0.7c-50.9,0.4-108.4,0.9-112.3,1.7c-0.5,0.9-4,1.3-13.9,2
		c-5.2,0.4-12.4,0.8-13.1,1.5c0,0.2-0.2,0.4-0.4,0.4l0,0c-0.2,0-0.4-0.2-0.5-0.4C52.3,1138.9,52.3,1138.9,52.3,1138.8L52.3,1138.8z"
		/>
	<path class="st3" d="M52.3,1106.1c0-1.2,2.2-1.7,4.8-2.2c1.6-0.3,4.2-0.8,4.2-1.4c0-1.2,2.2-1.7,4.9-2.2c1.6-0.3,4.1-0.8,4.1-1.4
		c0-1.2,2.3-1.7,4.9-2.2c1.6-0.3,4.1-0.8,4.1-1.4c0-1.1,3.1-1.5,13.9-2.2c5.2-0.3,12.5-0.8,13.1-1.5l0,0c0-1,3.1-1.3,13.9-2.1
		c4.8-0.3,11.3-0.8,12.8-1.3c-2.4-0.7-15.5-1.1-26.2-1.5c-23.2-0.8-27.6-1.1-27.6-2.2c-0.6-0.6-7.7-1.1-13.1-1.4
		c-10.8-0.7-13.9-1.1-13.9-2.2c0.1-0.2,0.3-0.4,0.5-0.3c0.2,0,0.3,0.2,0.4,0.3c0.8,0.7,7.9,1.1,13.1,1.5c10.3,0.7,13.6,1.1,13.9,2.1
		c1.6,0.7,15.5,1.2,26.7,1.6c23,0.8,27.4,1.1,27.4,2.2s-3.1,1.5-13.9,2.2c-5.3,0.3-12.6,0.8-13.2,1.5l0,0c0,1-3.1,1.3-13.9,2.1
		c-5.3,0.4-12.5,0.8-13.1,1.5l0,0c0,1.1-2.2,1.6-4.8,2.1c-1.7,0.3-4.2,0.8-4.2,1.4c0,1.2-2.2,1.7-4.9,2.2c-1.6,0.3-4.1,0.8-4.1,1.4
		c0,1.2-2.3,1.7-4.9,2.2c-1.6,0.3-4.1,0.8-4.1,1.3c0,0.2-0.2,0.4-0.5,0.4l0,0C52.5,1106.5,52.3,1106.3,52.3,1106.1z"/>
	<path class="st3" d="M52.3,1062.5c0-1.1,3.1-1.4,18.4-2.2c6.9-0.3,16.2-0.8,17.6-1.5c-0.7-0.6-5.4-1-8.5-1.3
		c-6.7-0.7-9.4-1.1-9.4-2.2c-0.4-0.6-5.3-1.1-8.5-1.4c-6.7-0.7-9.5-1.1-9.5-2.2c0-0.2,0.2-0.4,0.5-0.4c0.2,0,0.4,0.2,0.5,0.4
		c0.4,0.6,5.3,1.1,8.6,1.4c6.7,0.7,9.4,1.1,9.4,2.2c0.4,0.6,5.3,1.1,8.6,1.3c6.7,0.7,9.4,1.1,9.4,2.2s-3.1,1.4-18.6,2.2
		c-7,0.4-16.5,0.8-17.5,1.5c-0.1,0.2-0.3,0.3-0.5,0.3C52.5,1062.8,52.3,1062.7,52.3,1062.5z"/>
	<path class="st3" d="M52.3,1022.5c0-1,3.8-1.4,32.1-2.2c12.1-0.3,26.8-0.8,30.3-1.3c-3.6-0.6-18.3-1.1-30.4-1.4
		c-28.2-0.8-32-1.2-32-2.2c0-0.2,0.2-0.4,0.5-0.4c0.2,0,0.3,0.1,0.4,0.2c1.5,0.7,17.9,1.2,31.1,1.6c28.2,0.8,32,1.2,32,2.2
		s-3.1,1.3-31.9,2.2c-13.2,0.4-29.7,0.9-31.2,1.6c-0.1,0.2-0.4,0.3-0.6,0.2C52.4,1022.9,52.3,1022.8,52.3,1022.5L52.3,1022.5z"/>
	<path class="st3" d="M52.3,946.2c0-1,3.8-1.4,32.1-2.2c12.1-0.3,26.8-0.8,30.3-1.3c-3.6-0.6-18.3-1.1-30.3-1.4
		c-28.3-0.8-32.1-1.2-32.1-2.2c0-0.2,0.2-0.4,0.4-0.4l0,0l0,0c0.2,0,0.3,0.1,0.4,0.2c1.5,0.7,18,1.2,31.2,1.6
		c28.8,0.8,31.9,1.2,31.9,2.2s-3.1,1.3-31.9,2.2c-13.2,0.4-29.7,0.9-31.2,1.6c-0.1,0.2-0.4,0.3-0.6,0.2
		C52.4,946.6,52.3,946.4,52.3,946.2L52.3,946.2z"/>
	<path class="st3" d="M52.3,928c0-1.2,2.7-1.5,9.4-2.2c3.3-0.3,8.2-0.8,8.6-1.5c-0.4-0.5-5.3-1-8.6-1.3c-6.7-0.7-9.4-1.1-9.4-2.2
		c0-0.2,0.2-0.4,0.5-0.4c0.2,0,0.4,0.2,0.5,0.4c0.4,0.6,5.3,1.1,8.6,1.4c6.7,0.7,9.4,1.1,9.4,2.2s-2.7,1.5-9.4,2.2
		c-3.3,0.3-8.3,0.8-8.6,1.5c0,0.2-0.2,0.4-0.4,0.4l0,0l0,0C52.5,928.5,52.3,928.3,52.3,928L52.3,928z"/>
	<path class="st3" d="M52.3,917.1c0-1,4.6-1.3,103.8-2.2c41.4-0.4,87.7-0.8,100.4-1.4c-12.7-0.7-58.8-1.1-100-1.4
		c-99.3-0.9-104.1-1.2-104.1-2.2c0-0.2,0.2-0.4,0.5-0.4c0.1,0,0.2,0,0.3,0.1c2.9,0.8,56.2,1.3,103.3,1.7
		c99.3,0.9,104.1,1.2,104.1,2.2s-4.8,1.3-104.4,2.2c-46.9,0.4-100,0.9-102.9,1.7c-0.1,0.1-0.2,0.1-0.3,0.1
		C52.6,917.6,52.4,917.4,52.3,917.1L52.3,917.1z"/>
	<path class="st3" d="M52.3,899c0-0.6,0-1,30-1.5c17.7-0.3,41.8-0.5,65.1-0.7c42.3-0.4,90.2-0.9,94.1-1.7V892
		c-3.9-0.8-51.6-1.2-93.8-1.7c-23.2-0.2-47.4-0.5-65.2-0.7c-30.1-0.5-30.1-0.9-30.1-1.5c0-0.2,0.2-0.4,0.4-0.4l0,0l0,0
		c0.1,0,0.2,0,0.3,0.1c2.8,0.8,51.5,1.3,94.6,1.7c23.2,0.2,47.2,0.5,64.8,0.7c29.9,0.5,29.9,0.9,29.9,1.5v3.7c0,0.6,0,1-30,1.5
		c-17.8,0.3-41.8,0.5-65.1,0.7c-42.9,0.4-91.5,0.9-94.3,1.7c-0.1,0.1-0.2,0.1-0.3,0.1C52.5,899.5,52.3,899.3,52.3,899L52.3,899z"/>
	<path class="st3" d="M52.3,866.2c0-1,3.1-1.3,31.9-2.2c12.2-0.3,27-0.8,30.6-1.4c-3.6-0.7-18.3-1.1-30.5-1.4
		c-28.2-0.8-32-1.2-32-2.2s2.7-1.5,9.4-2.2c3.3-0.3,8.3-0.8,8.6-1.5c-0.4-0.6-5.3-1.1-8.6-1.3c-6.7-0.7-9.4-1.1-9.4-2.2
		c0-0.3,0.3-0.4,0.5-0.4s0.4,0.2,0.4,0.4c0.4,0.6,5.3,1.1,8.6,1.4c6.7,0.7,9.4,1.1,9.4,2.2s-2.7,1.6-9.4,2.2
		c-3.1,0.3-7.5,0.8-8.4,1.3c2.4,0.7,18.2,1.2,31,1.5c28.2,0.8,32,1.2,32,2.2s-3.8,1.3-32.1,2.2c-13.2,0.4-29.4,0.8-31,1.6
		c-0.1,0.1-0.2,0.2-0.4,0.2C52.7,866.7,52.4,866.6,52.3,866.2C52.3,866.4,52.4,866.3,52.3,866.2z"/>
	<path class="st3" d="M52.3,739c0-1,4.4-1.3,45.3-2.2c18.2-0.4,38.5-0.8,43.7-1.4c-5.2-0.7-25.4-1-43.5-1.3
		c-41-0.8-45.5-1.2-45.5-2.2c0-0.2,0.2-0.4,0.4-0.4l0,0l0,0c0.1,0,0.3,0.1,0.4,0.2c1.9,0.8,24.6,1.2,44.7,1.6
		c41,0.8,45.5,1.2,45.5,2.2s-4.5,1.3-45.7,2.2c-20,0.4-42.6,0.9-44.5,1.6c-0.1,0.1-0.2,0.2-0.4,0.2S52.3,739.4,52.3,739
		C52.3,739.1,52.3,739.1,52.3,739C52.3,739.1,52.3,739,52.3,739z"/>
	<path class="st3" d="M52.3,724.5c0-1,3.8-1.4,32.1-2.2c12.1-0.3,27-0.8,30.4-1.4c-3.1-0.6-15.7-1-26-1.3
		c-23.1-0.8-27.5-1.1-27.5-2.2c0-0.6-2.5-1.1-4.2-1.4c-2.6-0.5-4.8-1-4.8-2.2c0-0.2,0.2-0.4,0.4-0.4l0,0l0,0c0.2,0,0.4,0.2,0.5,0.4
		c0,0.6,2.5,1.1,4.1,1.4c2.5,0.5,4.6,0.9,4.9,2.1c1.5,0.7,15.5,1.2,26.6,1.5c23.1,0.8,27.5,1.1,27.5,2.2s-3.1,1.3-31.9,2.2
		c-13.2,0.4-29.7,0.9-31.2,1.6c-0.1,0.2-0.4,0.3-0.6,0.2C52.4,724.9,52.3,724.7,52.3,724.5L52.3,724.5z"/>
	<path class="st3" d="M52.3,710c0-1.1,3.1-1.4,18.5-2.2c6.6-0.3,15.5-0.8,17.4-1.3c-1.8-0.6-10.7-1.1-17.3-1.3
		c-15.4-0.8-18.5-1.2-18.5-2.2s3.1-1.5,18.5-2.2c7-0.3,16.5-0.8,17.6-1.5c0.2-0.6,3.1-0.9,57-1.3c33.9-0.3,79.9-0.5,124.3-0.7
		c74.5-0.4,151.1-0.8,173.1-1.3c-22.8-0.6-103.9-1-182.8-1.3c-46.5-0.2-94.6-0.5-130.1-0.7c-59.6-0.5-59.6-0.8-59.6-1.5
		s-2.5-1.1-4.2-1.4c-2.6-0.5-4.8-1-4.8-2.2c0-0.6-2.5-1.1-4.1-1.4c-2.6-0.5-4.9-1-4.9-2.2c0-0.2,0.2-0.4,0.4-0.4l0,0l0,0
		c0.2,0,0.4,0.2,0.5,0.4c0,0.6,2.5,1.1,4.2,1.4c2.6,0.5,4.8,1,4.8,2.2c0,0.6,2.5,1.1,4.1,1.4c2.4,0.5,4.5,0.9,4.8,1.9
		c5.5,0.8,98.7,1.3,188.8,1.7c46.5,0.2,94.6,0.5,130.1,0.7c59.6,0.5,59.6,0.8,59.6,1.5s0,1-56.5,1.5c-33.7,0.3-79.3,0.5-123.5,0.7
		c-86.4,0.4-175.8,0.9-180.5,1.7c-0.7,0.8-4.6,1.2-18.3,1.9c-6.6,0.3-15.6,0.8-17.4,1.3c1.8,0.6,10.8,1.1,17.4,1.4
		c15.3,0.8,18.4,1.2,18.4,2.2s-3.1,1.5-18.4,2.2c-7,0.4-16.6,0.8-17.6,1.5c-0.1,0.2-0.3,0.3-0.5,0.3c-0.2,0.1-0.5,0.1-0.6-0.1
		C52,710.4,52.1,710.1,52.3,710L52.3,710z"/>
	<path class="st3" d="M52.3,640.9c0-1.2,2.7-1.5,9.4-2.2c3.3-0.3,8.2-0.8,8.6-1.5c-0.4-0.5-5.3-1-8.6-1.3c-6.7-0.7-9.4-1.1-9.4-2.2
		c0-0.2,0.2-0.4,0.5-0.4c0.2,0,0.4,0.2,0.5,0.4c0.4,0.6,5.3,1.1,8.6,1.5c6.7,0.7,9.4,1.1,9.4,2.2s-2.7,1.5-9.4,2.2
		c-3.3,0.3-8.3,0.8-8.6,1.4c0,0.2-0.2,0.4-0.4,0.4l0,0l0,0C52.6,641.4,52.3,641.2,52.3,640.9L52.3,640.9z"/>
	<path class="st3" d="M52.3,622.7c0-1,4.5-1.3,45.7-2.2c18.3-0.4,38.8-0.8,43.6-1.4c-3.9-0.6-18.4-1-30.3-1.3
		c-28.2-0.8-32-1.2-32-2.2c-0.6-0.6-7.9-1.1-13.1-1.4c-10.8-0.7-13.9-1.1-13.9-2.2s3.1-1.3,31.9-2.2c13.2-0.4,29.7-0.9,31.2-1.6
		c0.5-1,5.6-1.3,27.4-2c11.2-0.4,25.1-0.8,26.6-1.5c0.2-1,3-1.4,9.4-2.1c2.8-0.2,5.6-0.6,8.4-1.3c-4.5-0.7-37.5-1.2-66.8-1.6
		c-61.3-0.8-68-1.2-68-2.2c0-0.2,0.2-0.4,0.5-0.4c0.1,0,0.3,0.1,0.3,0.2c2.4,0.8,36.8,1.3,67.2,1.7c61.4,0.8,68,1.2,68,2.2
		s-2.7,1.6-9.4,2.2c-3.3,0.3-8.2,0.8-8.6,1.5l0,0c0,1.1-4.4,1.3-27.5,2.2c-11.2,0.4-25.2,0.8-26.6,1.6c-0.4,0.9-5.2,1.3-32.1,2.1
		c-12.7,0.4-28.3,0.8-30.8,1.5c1.3,0.5,7.9,1,12.9,1.3c10.3,0.7,13.6,1.1,13.9,2.1c1.7,0.7,18,1.2,31.1,1.6c28.2,0.8,32,1.2,32,2.2
		s-4.4,1.3-45.3,2.2c-20.1,0.4-42.9,0.9-44.8,1.7c-0.1,0.1-0.2,0.2-0.4,0.2s-0.4-0.2-0.4-0.4C52.3,622.8,52.3,622.8,52.3,622.7
		C52.3,622.8,52.3,622.8,52.3,622.7z"/>
	<path class="st3" d="M52.3,586.4c0-1.2,2.2-1.7,4.8-2.2c1.6-0.3,4.2-0.8,4.2-1.4c0-1,4.5-1.3,45.5-2.2c18-0.4,38.1-0.8,43.4-1.3
		c-5.7-0.6-27.9-1.1-47.8-1.4c-45.2-0.8-50.2-1.2-50.2-2.2c0-0.2,0.2-0.4,0.4-0.4l0,0l0,0c0.1,0,0.3,0.1,0.4,0.2
		c2,0.8,27.1,1.2,49.3,1.7c44.9,0.8,49.8,1.2,49.8,2.2s-4.5,1.3-45.5,2.2c-19.9,0.4-42.4,0.9-44.6,1.6c-0.2,1.1-2.4,1.5-4.9,2
		c-1.6,0.3-4.1,0.8-4.1,1.4c0,0.2-0.2,0.4-0.5,0.4C52.5,586.8,52.3,586.7,52.3,586.4L52.3,586.4L52.3,586.4z"/>
	<path class="st3" d="M52.3,524.6c0-1.2,2.2-1.7,4.9-2.2c1.6-0.3,4.1-0.8,4.1-1.4c0-1,4.5-1.3,45.7-2.2c19.8-0.4,42.2-0.9,44.5-1.6
		c0.2-1.1,2.4-1.5,4.9-2c1.6-0.3,4.1-0.8,4.1-1.4c0-1,5.8-1.3,59.2-2.2c22.6-0.4,47.7-0.7,55.6-1.3c-11.9-0.7-63.5-1.1-109.5-1.5
		c-108.3-0.9-113.5-1.2-113.5-2.2c0-0.2,0.2-0.4,0.5-0.4c0.1,0,0.2,0,0.3,0.1c3.1,0.8,61.3,1.4,112.7,1.7
		c27.6,0.2,56.2,0.5,77.2,0.7c35.5,0.5,35.5,0.9,35.5,1.5c0,1-5.8,1.3-58.9,2.2c-26.1,0.4-55.7,0.9-58.3,1.7c-0.2,1.1-2.4,1.5-4.8,2
		c-1.6,0.3-4.1,0.8-4.1,1.4c0,1-4.5,1.3-45.3,2.2c-20,0.4-42.5,0.9-44.8,1.6c-0.2,1.1-2.4,1.5-4.8,2c-1.7,0.3-4.1,0.8-4.1,1.4
		c0,0.2-0.2,0.4-0.5,0.4C52.5,525,52.3,524.9,52.3,524.6L52.3,524.6z"/>
	<path class="st3" d="M52.3,484.6c0-1,4.9-1.3,49.8-2.2c20-0.4,42.5-0.8,48.1-1.4c-5.3-0.6-25.4-1-43.5-1.3
		c-41-0.8-45.5-1.2-45.5-2.2v-3.6c0-0.6-2.5-1.1-4.1-1.4c-2.6-0.5-4.9-1-4.9-2.2c0-0.2,0.2-0.4,0.5-0.4c0.2,0,0.4,0.2,0.5,0.4
		c0,0.6,2.5,1.1,4.1,1.4c2.6,0.5,4.9,1,4.9,2.2v3.5c2.4,0.8,24.8,1.2,44.6,1.6c41,0.8,45.5,1.2,45.5,2.2s-4.9,1.4-50.2,2.2
		c-22,0.4-47,0.9-49,1.6c-0.1,0.1-0.2,0.2-0.4,0.2C52.5,485.1,52.3,484.9,52.3,484.6C52.3,484.7,52.3,484.6,52.3,484.6z"/>
	<path class="st3" d="M52.3,433.7c0-0.6,0-1,50.9-1.5c30.3-0.3,71.4-0.5,111.1-0.7c68-0.4,138-0.8,157.4-1.4
		c-18.6-0.6-84.1-1-147.8-1.4c-37.7-0.2-76.6-0.5-105.3-0.7c-48.3-0.5-48.3-0.8-48.3-1.5c-0.4-0.6-5.3-1.1-8.6-1.3
		c-6.7-0.7-9.4-1.1-9.4-2.2c0-0.3,0.3-0.4,0.5-0.4s0.4,0.2,0.4,0.4c0.4,0.6,5.3,1.1,8.6,1.5c6.1,0.6,8.9,1,9.3,1.9
		c4.6,0.8,79.9,1.3,152.8,1.7c37.6,0.2,76.6,0.5,105.3,0.7c48.3,0.5,48.3,0.8,48.3,1.5s0,1-51.4,1.5c-30.5,0.3-71.9,0.5-111.9,0.8
		c-77.6,0.4-157.8,0.9-161.3,1.7c-0.1,0.1-0.2,0.1-0.3,0.1C52.5,434.3,52.3,434.1,52.3,433.7C52.3,433.8,52.3,433.8,52.3,433.7z"/>
	<path class="st3" d="M52.3,404.6c0-1.1,3.1-1.5,18.5-2.2c6.8-0.4,16.1-0.8,17.5-1.5c-1-0.5-7.9-1-13-1.3
		c-10.8-0.7-13.9-1.1-13.9-2.2c0-0.6,0-1,49.6-1.4c29.4-0.3,69.4-0.5,108.1-0.7c66-0.4,134-0.7,152.9-1.3
		c-17.4-0.6-76.5-1-133.9-1.3c-34.4-0.2-70-0.5-96.3-0.7c-41.1-0.4-44-0.8-44.2-1.3c-1.3-0.7-12.8-1.2-22.1-1.5
		c-19.3-0.8-23-1.1-23-2.2c0-0.2,0.2-0.4,0.5-0.4l0,0c0.2,0,0.4,0.1,0.4,0.3c1.2,0.7,12.8,1.2,22.1,1.5c17.5,0.7,22.1,1.1,22.8,1.9
		c3.9,0.8,73,1.3,139.8,1.7c34.2,0.2,69.6,0.5,95.7,0.7c43.9,0.5,43.9,0.8,43.9,1.5s0,1-49.9,1.5c-29.7,0.3-69.9,0.5-108.8,0.7
		c-72.4,0.4-147.2,0.8-156.1,1.5c4.2,0.6,8.4,1,12.6,1.2c10.8,0.7,14,1.1,14,2.2s-3.1,1.4-18.4,2.2c-7,0.4-16.6,0.8-17.6,1.5
		c-0.1,0.2-0.3,0.3-0.5,0.3c-0.2,0.1-0.5,0-0.6-0.2C52.2,404.9,52.2,404.7,52.3,404.6z"/>
	<path class="st3" d="M52.3,368.5c0-1.2,2.2-1.7,4.8-2.2c1.6-0.3,4.2-0.8,4.2-1.5s0-1,42.7-1.5c25.3-0.3,59.7-0.5,92.9-0.7
		c56.7-0.4,115.1-0.8,130.8-1.4c-14.8-0.6-66.7-1-113.2-1.4c-28.7-0.2-58.4-0.5-80.3-0.7c-34.3-0.4-36.7-0.8-36.9-1.3
		c-1.3-0.7-12.8-1.2-22.1-1.5c-19.3-0.8-23-1.1-23-2.2c0-0.2,0.2-0.4,0.5-0.4c0.2,0,0.4,0.1,0.4,0.3c1.2,0.7,12.8,1.2,22.1,1.5
		c17.5,0.7,22.2,1.1,22.9,1.9c3.6,0.8,63.5,1.3,116.4,1.7c28.9,0.2,58.7,0.5,80.8,0.7c37.2,0.5,37.2,0.9,37.2,1.5s0,1-42.7,1.5
		c-25.3,0.3-59.7,0.5-92.9,0.7c-64,0.4-130.2,0.9-134.8,1.7c-0.3,1-2.4,1.5-4.8,1.9c-1.7,0.3-4.1,0.8-4.1,1.4c0,0.2-0.2,0.4-0.5,0.4
		C52.5,368.9,52.3,368.7,52.3,368.5z"/>
	<path class="st3" d="M52.3,321.2c0-0.6,0-1,28.6-1.5c16.9-0.3,39.8-0.5,62-0.7c35.9-0.4,75.9-0.8,87-1.4c-11-0.6-50.9-1-86.6-1.4
		C121,316,98,315.7,81,315.4c-28.7-0.5-28.7-0.9-28.7-1.5c0-0.2,0.2-0.4,0.4-0.4l0,0l0,0c0.1,0,0.2,0,0.3,0.1
		c2.8,0.8,49.1,1.3,90.1,1.7c22.1,0.2,44.9,0.5,61.7,0.7c28.5,0.5,28.5,0.9,28.5,1.5s0,1-28.6,1.5c-16.9,0.3-39.8,0.5-62,0.7
		c-40.8,0.4-87,0.9-89.8,1.7c-0.1,0.1-0.2,0.1-0.3,0.1C52.4,321.6,52.3,321.4,52.3,321.2z"/>
	<path class="st3" d="M52.3,292.1c0-1.2,2.2-1.7,4.8-2.2c1.6-0.3,4.2-0.8,4.2-1.4s0-1,48.3-1.5c28.7-0.3,67.6-0.5,105.3-0.7
		c63.7-0.4,129.3-0.8,147.9-1.4c-18.9-0.7-86.9-1-152.9-1.4c-38.7-0.2-78.6-0.5-108.1-0.7c-49.6-0.5-49.6-0.8-49.6-1.5
		c0-1,6.2-1.3,63.5-2.2c25.8-0.4,54.6-0.8,61.4-1.5c-5.1-0.6-23-1-39-1.3c-35.2-0.8-40.4-1.1-40.8-2.1c-1.2-0.7-12.7-1.2-22-1.5
		c-19.4-0.8-23-1.1-23-2.2c0-0.2,0.2-0.4,0.4-0.4l0,0c0.2,0,0.4,0.1,0.4,0.3c1.2,0.7,12.8,1.2,22.2,1.6c18,0.7,22.3,1.1,22.8,2
		c1.9,0.8,22.1,1.2,40,1.6c37.1,0.8,41.1,1.2,41.1,2.2s-6.2,1.3-63.5,2.2c-24.1,0.3-50.9,0.7-59.8,1.3c15.5,0.7,85.7,1.1,153.9,1.5
		c38.9,0.2,79,0.5,108.7,0.7c49.9,0.5,49.9,0.9,49.9,1.5s0,1-48.3,1.5c-28.7,0.3-67.7,0.5-105.3,0.7c-72.8,0.4-147.9,0.9-152.8,1.7
		c-0.3,1-2.4,1.5-4.8,1.9c-1.6,0.3-4.1,0.8-4.1,1.4c0,0.2-0.2,0.4-0.5,0.4C52.6,292.6,52.4,292.4,52.3,292.1
		C52.4,292.2,52.4,292.2,52.3,292.1L52.3,292.1z"/>
	<path class="st3" d="M52.3,259.4c0-1,3.8-1.4,32.1-2.2c12.7-0.4,28.3-0.8,30.8-1.5c-1.3-0.5-8-1-12.9-1.3
		c-10.8-0.7-13.9-1.1-13.9-2.2c-0.4-0.6-5.3-1.1-8.6-1.4c-6.7-0.7-9.4-1.1-9.4-2.2c-0.4-0.6-5.3-1.1-8.6-1.4
		c-6.7-0.7-9.4-1.1-9.4-2.2c0-0.2,0.2-0.4,0.5-0.4c0.2,0,0.4,0.2,0.5,0.4c0.4,0.6,5.3,1.1,8.6,1.4c6.7,0.7,9.4,1.1,9.4,2.2
		c0.4,0.6,5.3,1.1,8.6,1.4c6.7,0.7,9.4,1.1,9.4,2.2c0.6,0.6,7.7,1.1,13.1,1.4c10.8,0.7,14,1.1,14,2.2c0,1.1-3.1,1.4-31.9,2.2
		c-13.3,0.4-29.7,0.9-31.2,1.6c-0.1,0.2-0.4,0.3-0.6,0.2C52.5,259.7,52.4,259.6,52.3,259.4L52.3,259.4z"/>
	<path class="st3" d="M52.3,230.3c0-1,3.8-1.4,32-2.2c13.2-0.4,29.4-0.8,31.1-1.6c0.3-1,3.7-1.3,13.9-2.1c5.2-0.4,12.4-0.8,13.1-1.5
		c0-0.5,0-0.9,55.1-1.3c32.8-0.3,77.3-0.5,120.4-0.7c77.1-0.4,156.6-0.8,173-1.5c-8.4-0.6-33.1-1-55.3-1.3c-53.2-0.8-59-1.2-59-2.2
		c0,0.1,0.1,0.2,0.1,0.3c-1.7-0.8-31.6-1.3-58.1-1.7c-48.2-0.8-57.6-1.1-59-2l0,0c-2-0.8-48.7-1.3-89.9-1.7
		c-22.1-0.2-45.1-0.4-62-0.7c-28.6-0.5-28.6-0.9-28.6-1.5c-0.6-0.6-7.8-1.1-13.1-1.4c-10.8-0.7-13.9-1.1-13.9-2.2
		c0-0.2,0.2-0.4,0.4-0.4l0,0l0,0c0.2,0,0.4,0.1,0.5,0.3c0.8,0.7,7.9,1.1,13.1,1.5c10,0.7,13.4,1.1,13.9,2c3.3,0.8,49.2,1.3,89.7,1.7
		c22.1,0.2,45.1,0.4,62,0.7c24.9,0.4,28.1,0.8,28.5,1.2c2.4,0.8,32.1,1.2,58.4,1.7c53,0.8,58.9,1.2,58.9,2.2c0-0.1-0.1-0.2-0.1-0.3
		c1.7,0.8,31.7,1.3,58.3,1.7c53.2,0.8,59,1.2,59,2.2c0,0.6,0,1-55.6,1.5c-33.1,0.3-77.9,0.5-121.2,0.7
		c-83.6,0.4-169.9,0.9-174.7,1.7c-0.6,0.9-4.1,1.2-13.8,1.9c-5.3,0.4-12.5,0.9-13.2,1.5l0,0c0,0.9-3.9,1.3-32,2.1
		c-13.2,0.4-29.6,0.8-31.1,1.6c-0.1,0.1-0.2,0.2-0.4,0.2C52.5,230.7,52.3,230.5,52.3,230.3z"/>
	<path class="st3" d="M52.3,201.3c0-1,4-1.3,41.1-2.2c16.2-0.4,34.4-0.8,39-1.4c-4.6-0.6-22.8-1-39-1.4c-37.1-0.8-41.1-1.2-41.1-2.2
		s3.1-1.5,13.9-2.2c5-0.3,11.8-0.8,13-1.4c-1.2-0.6-7.9-1.1-12.9-1.3c-10.8-0.7-13.9-1.1-13.9-2.2c0-0.2,0.3-0.4,0.5-0.4
		s0.4,0.1,0.4,0.3c0.8,0.6,7.9,1.1,13.1,1.5c10.8,0.7,13.9,1.1,13.9,2.2s-3.1,1.5-13.9,2.2c-4.8,0.3-11.1,0.8-12.8,1.3
		c3.4,0.7,22.7,1.1,39.9,1.5c36.9,0.8,40.9,1.2,40.9,2.2s-4,1.3-40.9,2.2c-18,0.4-38.5,0.9-40.3,1.6c-0.2,0.2-0.4,0.2-0.7,0.1
		c-0.1-0.1-0.2-0.2-0.2-0.3L52.3,201.3z"/>
	<path class="st3" d="M52.3,168.6c0-1.1,4.3-1.4,27.5-2.2c10.8-0.4,24.3-0.8,26.4-1.5c-1.2-0.5-7.9-1-12.9-1.3
		c-10.8-0.7-13.9-1.1-13.9-2.2c-0.4-0.6-5.3-1.1-8.6-1.4c-6.7-0.7-9.4-1.1-9.4-2.2c0-0.6-2.5-1.1-4.2-1.4c-2.6-0.5-4.8-1-4.8-2.2
		c0-0.2,0.2-0.4,0.4-0.4l0,0l0,0c0.2,0,0.4,0.2,0.5,0.4c0,0.6,2.5,1.1,4.1,1.4c2.6,0.5,4.9,1,4.9,2.2c0.3,0.6,5.3,1.1,8.6,1.4
		c6.7,0.7,9.4,1.1,9.4,2.2c0.6,0.6,7.8,1.1,13.1,1.4c10.8,0.7,13.9,1.1,13.9,2.2s-4.4,1.4-27.5,2.2c-11.2,0.4-25.2,0.8-26.6,1.6
		c-0.1,0.2-0.2,0.3-0.4,0.2C52.6,169,52.4,168.9,52.3,168.6L52.3,168.6z"/>
	<path class="st3" d="M52.3,1416.4V86.1c0-0.2,0.2-0.4,0.5-0.4c0.2,0,0.4,0.2,0.5,0.4v1330.3c0,0.2-0.2,0.4-0.5,0.4l0,0
		C52.5,1416.8,52.3,1416.6,52.3,1416.4L52.3,1416.4z"/>
</g>
<g id="piogge">
	<path d="M52.5,55.6c0-5,1.7-8.8,6-8.8s6,3.9,6,8.8s-1.7,8.8-6,8.8S52.5,60.5,52.5,55.6z M62.1,55.6c0-4.4-1.2-6.8-3.7-6.8
		s-3.7,2.4-3.7,6.8s1.2,6.8,3.7,6.8S62,59.9,62.1,55.6z"/>
	<path d="M129.7,50.8l5.5-3.8h1.7v15.1h4.1V64h-10.7v-1.8h4.4V49.9l-3.9,2.7L129.7,50.8z"/>
	<path d="M143.4,55.6c0-5,1.7-8.8,6-8.8s5.9,3.9,5.9,8.8s-1.7,8.8-5.9,8.8S143.4,60.5,143.4,55.6z M153,55.6c0-4.4-1.2-6.8-3.7-6.8
		s-3.7,2.4-3.7,6.8s1.2,6.8,3.7,6.8S152.9,59.9,153,55.6z"/>
	<path d="M224.6,56.8l1.8-1.3c1.7-1.2,2.8-1.8,2.8-3.9c0-1.6-1.2-2.9-2.8-2.9l0,0H226c-2.2,0-3.3,1.2-3.4,3.4h-2.1
		c-0.1-2.7,1.9-5.1,4.6-5.4h0.8c2.6-0.3,4.9,1.5,5.2,4.1c0,0.1,0,0.1,0,0.2v0.6c0,2.9-1.9,4.2-3.7,5.2l-1.7,1.2
		c-2.6,1.7-2.9,2.9-3.1,4.2h8.8V64h-11.2C220.4,61,222,58.3,224.6,56.8z"/>
	<path d="M234.3,55.6c0-5,1.7-8.8,6-8.8s5.9,3.9,5.9,8.8s-1.7,8.8-5.9,8.8S234.3,60.5,234.3,55.6z M243.8,55.6
		c0-4.4-1.2-6.8-3.7-6.8s-3.7,2.4-3.7,6.8s1.2,6.8,3.7,6.8S243.8,60,243.8,55.6z"/>
	<path d="M313.4,58.9c-0.1,1.8,1.2,3.4,2.9,3.5h0.7c2.1,0,3.7-1.1,3.7-3.2c-0.1-1.8-1.7-3.3-3.5-3.2h-1.3v-1.8h1.2
		c1.6,0,2.9-1.2,3-2.8v-0.1c0-1.5-1.2-2.8-2.7-2.8h-0.1H317c-1.5-0.1-2.9,1-3,2.5l0,0v0.5h-2c-0.1-2.6,1.8-4.8,4.4-5h0.6
		c2.6-0.3,4.9,1.6,5.1,4.2v0.4c0,1.6-1,3.1-2.4,3.8V55c1.9,0.6,3.2,2.3,3.2,4.3c0,3-2.6,4.9-5.9,4.9c-2.8,0.4-5.3-1.6-5.7-4.3l0,0
		v-1.1L313.4,58.9z"/>
	<path d="M325.3,55.6c0-5,1.7-8.8,6-8.8s5.9,3.9,5.9,8.8s-1.7,8.8-5.9,8.8C326.9,64.4,325.3,60.5,325.3,55.6z M334.9,55.6
		c0-4.4-1.2-6.8-3.7-6.8s-3.7,2.4-3.7,6.8s1.2,6.8,3.7,6.8S334.7,59.9,334.9,55.6z"/>
	<path d="M402.4,58.3l8.3-11.1h1.8V58h2.4v2h-2.4v4.3h-2.2V60h-7.8L402.4,58.3z M410.2,57.9v-7.4l-5.6,7.4H410.2z"/>
	<path d="M416.9,55.6c0-5,1.7-8.8,6-8.8s5.9,3.9,5.9,8.8s-1.7,8.8-5.9,8.8C418.5,64.4,416.9,60.5,416.9,55.6z M426.4,55.6
		c0-4.4-1.2-6.8-3.7-6.8s-3.7,2.4-3.7,6.8s1.2,6.8,3.7,6.8S426.4,59.9,426.4,55.6z"/>
	<path d="M496.4,59.5c0.2,1.8,1.8,3.1,3.6,2.9c2,0,3.7-1.6,3.7-3.7S502.1,55,500,55l0,0c-1.3,0-2.5,0.6-3.3,1.7l-2.1-0.1l0.5-9.5
		h9.5v2.1h-7.4l-0.4,5.4h0.2c0.9-0.8,2.1-1.3,3.3-1.2c2.9-0.2,5.3,2,5.5,4.9v0.1v0.5c0.1,3-2.2,5.5-5.1,5.6c-0.1,0-0.1,0-0.2,0h-0.6
		c-2.9,0.4-5.5-1.7-5.8-4.5v-0.1v-0.2L496.4,59.5z"/>
	<path d="M508.2,55.6c0-5,1.7-8.8,6-8.8s5.9,3.9,5.9,8.8s-1.7,8.8-5.9,8.8S508.2,60.5,508.2,55.6z M517.8,55.6
		c0-4.4-1.2-6.8-3.7-6.8s-3.7,2.4-3.7,6.8s1.2,6.8,3.7,6.8S517.7,59.9,517.8,55.6z"/>
	<path d="M591.6,46.8c2.6-0.3,4.8,1.6,5.1,4.1l0,0v0.4h-2.1c0-1.5-1.3-2.7-2.8-2.7l0,0h-0.1c-2.1,0-4.2,1.8-4.2,6.8
		c1-1.5,2.6-2.3,4.4-2.2c2.8,0,5.1,2.2,5.2,5v0.5c0.1,3-2.3,5.5-5.3,5.6l0,0h-0.4c-3.4,0-6.2-2.1-6.2-8.4
		C585.1,49.1,588.4,46.8,591.6,46.8z M587.8,58.8c-0.1,2,1.3,3.6,3.3,3.8h0.2c2.1,0,3.7-1.6,3.8-3.7c0-2.1-1.6-3.7-3.7-3.8l0,0
		c-2,0-3.6,1.6-3.8,3.5C587.8,58.7,587.8,58.8,587.8,58.8L587.8,58.8z"/>
	<path d="M599.1,55.6c0-5,1.7-8.8,6-8.8s5.9,3.9,5.9,8.8s-1.7,8.8-5.9,8.8S599.1,60.5,599.1,55.6z M608.8,55.6
		c0-4.4-1.2-6.8-3.7-6.8s-3.7,2.4-3.7,6.8s1.2,6.8,3.7,6.8S608.6,59.9,608.8,55.6z"/>
	<path d="M685.4,49h-9.3v-2h11.7v1.6L680.7,64h-2.3L685.4,49z"/>
	<path d="M690.1,55.6c0-4.9,1.7-8.8,6-8.8s5.9,3.9,5.9,8.8s-1.7,8.8-5.9,8.8S690.1,60.5,690.1,55.6z M699.7,55.6
		c0-4.4-1.2-6.8-3.7-6.8s-3.7,2.4-3.7,6.8s1.2,6.8,3.7,6.8S699.6,59.9,699.7,55.6z"/>
	<path d="M770.4,55.4L770.4,55.4c-1.5-0.7-2.4-2.2-2.4-3.8c0-2.6,2.1-4.7,4.6-4.8h0.5c2.6-0.2,4.9,1.6,5.2,4.2v0.5
		c0,1.6-1,3.1-2.5,3.8l0,0c1.9,0.5,3.2,2.3,3.1,4.2c0,3-2.4,4.9-6,4.9s-6-1.8-6-4.9C767.1,57.5,768.4,55.8,770.4,55.4z M773.2,62.6
		c2.2,0,3.8-1.1,3.8-3.2c-0.1-1.8-1.7-3.3-3.5-3.2h-0.2c-1.8-0.2-3.5,1.1-3.8,2.9v0.2C769.4,61.4,771,62.6,773.2,62.6L773.2,62.6z
		 M776.3,51.5c0-1.5-1.2-2.8-2.8-2.8c-0.1,0-0.1,0-0.2,0h-0.2c-1.6-0.2-3,1-3.2,2.5l0,0v0.2c0.2,1.7,1.8,3,3.5,2.8
		C775,54,776.1,52.9,776.3,51.5L776.3,51.5z"/>
	<path d="M781.4,55.6c0-4.9,1.7-8.8,6-8.8s5.9,3.9,5.9,8.8s-1.7,8.8-5.9,8.8C782.9,64.4,781.4,60.5,781.4,55.6z M790.9,55.6
		c0-4.4-1.2-6.8-3.7-6.8s-3.7,2.4-3.7,6.8s1.2,6.8,3.7,6.8S790.9,60,790.9,55.6z"/>
	<path d="M864.2,64.4c-2.7,0.2-5.1-1.7-5.4-4.4v-0.1h2.2c0.2,1.6,1.6,2.8,3.2,2.7c2.3,0,3.9-1.7,3.9-6.7c-1,1.5-2.6,2.3-4.4,2.2
		c-2.8,0.1-5.2-2.1-5.4-4.9v-0.6c-0.1-3,2.3-5.5,5.2-5.5h0.1h0.4c3.4,0,6.2,2.1,6.2,8.4C870.5,62.1,867.8,64.4,864.2,64.4z
		 M867.9,52.4c0-2-1.6-3.7-3.7-3.7c-2,0-3.6,1.6-3.7,3.5v0.1c-0.1,1.9,1.4,3.5,3.3,3.7h0.1c2,0.1,3.7-1.5,3.8-3.5l0,0L867.9,52.4z"
		/>
	<path d="M872.8,55.6c0-4.9,1.7-8.8,6-8.8s5.9,3.9,5.9,8.8s-1.7,8.8-5.9,8.8S872.8,60.5,872.8,55.6z M882.4,55.6
		c0-4.4-1.2-6.8-3.7-6.8s-3.7,2.4-3.7,6.8s1.2,6.8,3.7,6.8S882.3,59.9,882.4,55.6z"/>
	<path d="M949.8,50.8l5.5-3.8h1.7v15.1h4.1V64h-10.7v-1.8h4.4V49.9l-3.9,2.7L949.8,50.8z"/>
	<path d="M963.6,55.6c0-4.9,1.7-8.8,6-8.8s5.9,3.9,5.9,8.8s-1.7,8.8-5.9,8.8S963.6,60.5,963.6,55.6z M973.1,55.6
		c0-4.4-1.2-6.8-3.7-6.8s-3.7,2.4-3.7,6.8s1.2,6.8,3.7,6.8S973.1,59.9,973.1,55.6z"/>
	<path d="M977.5,55.6c0-4.9,1.7-8.8,6-8.8s6,3.9,6,8.8s-1.7,8.8-6,8.8S977.5,60.5,977.5,55.6z M987.1,55.6c0-4.4-1.2-6.8-3.7-6.8
		s-3.7,2.4-3.7,6.8s1.2,6.8,3.7,6.8S987.1,59.9,987.1,55.6z"/>
	<path d="M953,32.7V20.2h1.9v2h0.1c0.2-0.7,0.7-1.2,1.3-1.6s1.4-0.6,2.1-0.6c1.5-0.1,2.8,0.8,3.4,2.1h0.1c0.3-0.7,0.8-1.2,1.5-1.6
		s1.5-0.6,2.3-0.6c1,0,2,0.3,2.8,1.1c0.8,0.9,1.2,2.1,1.1,3.3v8.4h-1.9v-8.4c0.1-0.7-0.2-1.5-0.8-2c-0.5-0.4-1.1-0.6-1.8-0.6
		c-0.8,0-1.5,0.2-2.1,0.8c-0.5,0.6-0.7,1.3-0.7,2v8.2h-2v-8.6c0-0.6-0.2-1.3-0.7-1.7c-0.5-0.5-1.1-0.7-1.8-0.7c-0.5,0-1,0.1-1.4,0.4
		s-0.8,0.7-1,1.1c-0.3,0.5-0.4,1.1-0.4,1.6v7.9C955,32.7,953,32.7,953,32.7z"/>
	<path d="M973,32.7V20.2h1.9v2h0.2c0.2-0.7,0.7-1.2,1.2-1.6c0.6-0.4,1.4-0.6,2.1-0.6c1.5-0.1,2.8,0.8,3.4,2.1h0.1
		c0.3-0.7,0.8-1.2,1.4-1.6c0.7-0.4,1.5-0.6,2.3-0.6c1,0,2,0.3,2.8,1.1c0.8,0.9,1.2,2.1,1.1,3.3v8.4h-1.9v-8.4c0.1-0.7-0.2-1.5-0.8-2
		c-0.5-0.4-1.1-0.6-1.8-0.6s-1.5,0.3-2,0.8c-0.5,0.6-0.7,1.3-0.7,2v8.2h-2v-8.6c0-0.6-0.2-1.3-0.7-1.7c-0.5-0.5-1.1-0.7-1.8-0.7
		c-0.5,0-1,0.1-1.4,0.4s-0.8,0.7-1,1.1c-0.3,0.5-0.4,1.1-0.4,1.6v7.9C975,32.7,973,32.7,973,32.7z"/>
	<path class="st4" d="M52.5,1447.1c0-5,1.7-8.8,6-8.8s6,3.9,6,8.8s-1.7,8.8-6,8.8S52.5,1452,52.5,1447.1z M62.1,1447.1
		c0-4.4-1.2-6.8-3.7-6.8s-3.7,2.4-3.7,6.8s1.3,6.9,3.7,6.9S62,1451.4,62.1,1447.1z"/>
	<path class="st4" d="M129.7,1442.4l5.5-3.8h1.7v15.1h4.1v1.8h-10.7v-1.8h4.4v-12.3l-3.9,2.7L129.7,1442.4z"/>
	<path class="st4" d="M143.4,1447.1c0-5,1.7-8.8,6-8.8s5.9,3.9,5.9,8.8s-1.7,8.8-5.9,8.8S143.4,1452,143.4,1447.1z M153,1447.1
		c0-4.4-1.2-6.8-3.7-6.8s-3.7,2.4-3.7,6.8s1.2,6.8,3.7,6.8S152.9,1451.4,153,1447.1z"/>
	<path class="st4" d="M224.6,1448.4l1.8-1.3c1.7-1.2,2.8-1.8,2.8-3.9c0-1.6-1.2-2.9-2.8-2.9l0,0H226c-2.2,0-3.3,1.2-3.4,3.4h-2.1
		c-0.1-2.7,1.9-5.1,4.6-5.4h0.8c2.6-0.3,4.9,1.6,5.2,4.2v0.1v0.6c0,2.9-1.9,4.2-3.7,5.2l-1.7,1.2c-2.6,1.7-2.9,2.9-3.1,4.2h8.8v1.8
		h-11.2C220.4,1452.6,222,1449.8,224.6,1448.4z"/>
	<path class="st4" d="M234.3,1447.1c0-5,1.7-8.8,6-8.8s5.9,3.9,5.9,8.8s-1.7,8.8-5.9,8.8S234.3,1452,234.3,1447.1z M243.8,1447.1
		c0-4.4-1.2-6.8-3.7-6.8s-3.7,2.4-3.7,6.8s1.2,6.8,3.7,6.8S243.8,1451.5,243.8,1447.1z"/>
	<path class="st4" d="M313.4,1450.4c-0.2,1.8,1.2,3.4,2.9,3.5h0.7c2.1,0,3.7-1.1,3.7-3.2c-0.1-1.8-1.7-3.3-3.5-3.2h-1.3v-1.8h1.2
		c1.6,0,2.9-1.2,3-2.8v-0.1c0-1.5-1.2-2.8-2.7-2.8h-0.1H317c-1.5-0.2-2.9,1-3,2.5c0,0,0,0,0,0.1v0.5h-2c-0.1-2.6,1.8-4.8,4.4-5h0.6
		c2.6-0.3,4.9,1.6,5.1,4.2v0.4c0,1.6-1,3.1-2.4,3.8v0.1c1.9,0.6,3.2,2.3,3.2,4.3c0,3-2.6,4.9-5.9,4.9c-2.8,0.4-5.3-1.6-5.7-4.4l0,0
		v-1.1L313.4,1450.4z"/>
	<path class="st4" d="M325.3,1447.1c0-5,1.7-8.8,6-8.8s5.9,3.9,5.9,8.8s-1.7,8.8-5.9,8.8C326.9,1455.9,325.3,1452,325.3,1447.1z
		 M334.9,1447.1c0-4.4-1.2-6.8-3.7-6.8s-3.7,2.4-3.7,6.8s1.2,6.8,3.7,6.8S334.7,1451.4,334.9,1447.1z"/>
	<path class="st4" d="M402.4,1449.8l8.3-11.1h1.8v10.9h2.4v2h-2.4v4.3h-2.2v-4.3h-7.8L402.4,1449.8z M410.2,1449.5v-7.5l-5.6,7.4
		L410.2,1449.5z"/>
	<path class="st4" d="M416.9,1447.1c0-5,1.7-8.8,6-8.8s5.9,3.9,5.9,8.8s-1.7,8.8-5.9,8.8C418.5,1455.9,416.9,1452,416.9,1447.1z
		 M426.4,1447.1c0-4.4-1.2-6.8-3.7-6.8s-3.7,2.4-3.7,6.8s1.2,6.8,3.7,6.8S426.4,1451.4,426.4,1447.1z"/>
	<path class="st4" d="M496.4,1451c0.2,1.8,1.8,3.2,3.6,3c2,0,3.7-1.6,3.7-3.6s-1.6-3.7-3.6-3.7l0,0c-1.3,0-2.5,0.6-3.3,1.7l-2.1-0.1
		l0.5-9.5h9.5v2.1h-7.4l-0.4,5.4h0.2c0.9-0.8,2.1-1.3,3.3-1.2c2.9-0.2,5.3,2.1,5.5,4.9c0,0,0,0,0,0.1v0.5c0.1,3-2.2,5.5-5.2,5.6
		c-0.1,0-0.1,0-0.2,0h-0.6c-2.9,0.4-5.5-1.7-5.8-4.6v-0.1v-0.2L496.4,1451z"/>
	<path class="st4" d="M508.2,1447.1c0-5,1.7-8.8,6-8.8s5.9,3.9,5.9,8.8s-1.7,8.8-5.9,8.8S508.2,1452,508.2,1447.1z M517.8,1447.1
		c0-4.4-1.2-6.8-3.7-6.8s-3.7,2.4-3.7,6.8s1.2,6.8,3.7,6.8S517.7,1451.4,517.8,1447.1z"/>
	<path class="st4" d="M591.6,1438.3c2.6-0.3,4.9,1.6,5.1,4.1l0,0v0.4h-2.1c0-1.5-1.3-2.7-2.8-2.7l0,0h-0.1c-2.1,0-4.2,1.8-4.2,6.8
		c0.9-1.5,2.6-2.3,4.4-2.2c2.8,0,5.1,2.2,5.2,5v0.5c0.1,3-2.3,5.5-5.3,5.6l0,0h-0.4c-3.4,0-6.2-2.1-6.2-8.4
		C585.1,1440.7,588.4,1438.3,591.6,1438.3z M587.8,1450.3c-0.1,2,1.3,3.6,3.3,3.8h0.2c2.1,0,3.7-1.6,3.8-3.7c0-2.1-1.6-3.7-3.7-3.8
		c-2,0-3.6,1.6-3.8,3.5C587.7,1450.2,587.8,1450.3,587.8,1450.3L587.8,1450.3z"/>
	<path class="st4" d="M599.1,1447.1c0-5,1.7-8.8,6-8.8s5.9,3.9,5.9,8.8s-1.7,8.8-5.9,8.8S599.1,1452,599.1,1447.1z M608.8,1447.1
		c0-4.4-1.2-6.8-3.7-6.8s-3.7,2.4-3.7,6.8s1.2,6.8,3.7,6.8S608.6,1451.4,608.8,1447.1z"/>
	<path class="st4" d="M685.4,1440.6h-9.3v-2.1h11.7v1.6l-7.2,15.4h-2.3L685.4,1440.6z"/>
	<path class="st4" d="M690.1,1447.1c0-4.9,1.7-8.8,6-8.8s5.9,3.9,5.9,8.8s-1.7,8.8-5.9,8.8S690.1,1452,690.1,1447.1z M699.7,1447.1
		c0-4.4-1.2-6.8-3.7-6.8s-3.7,2.4-3.7,6.8s1.2,6.8,3.7,6.8S699.6,1451.4,699.7,1447.1z"/>
	<path class="st4" d="M770.4,1446.9L770.4,1446.9c-1.5-0.7-2.4-2.2-2.4-3.8c0-2.6,2.1-4.7,4.6-4.8h0.5c2.6-0.2,4.9,1.6,5.2,4.2v0.5
		c0,1.6-1,3.1-2.5,3.8l0,0c1.9,0.5,3.2,2.3,3.1,4.2c0,3-2.4,4.9-6,4.9s-6-1.8-6-4.9C767.1,1449,768.5,1447.4,770.4,1446.9z
		 M773.2,1454.1c2.2,0,3.8-1.1,3.8-3.2c-0.1-1.8-1.7-3.3-3.5-3.2h-0.2c-1.9-0.2-3.5,1.1-3.8,2.9v0.2
		C769.4,1452.9,771,1454.1,773.2,1454.1L773.2,1454.1z M776.3,1443c0-1.5-1.2-2.8-2.8-2.8c-0.1,0-0.1,0-0.2,0h-0.2
		c-1.6-0.2-3,1-3.2,2.6v0.2c0.2,1.7,1.8,3,3.5,2.8C775,1445.5,776.1,1444.4,776.3,1443L776.3,1443z"/>
	<path class="st4" d="M781.4,1447.1c0-4.9,1.7-8.8,6-8.8s5.9,3.9,5.9,8.8s-1.7,8.8-5.9,8.8C782.9,1455.9,781.4,1452,781.4,1447.1z
		 M790.9,1447.1c0-4.4-1.2-6.8-3.7-6.8s-3.7,2.4-3.7,6.8s1.2,6.8,3.7,6.8S790.9,1451.5,790.9,1447.1z"/>
	<path class="st4" d="M864.2,1455.9c-2.7,0.2-5.1-1.7-5.4-4.4v-0.1h2.2c0.2,1.6,1.6,2.8,3.2,2.7c2.3,0,3.9-1.7,3.9-6.7
		c-1,1.5-2.6,2.3-4.4,2.2c-2.8,0.1-5.2-2.1-5.4-4.9v-0.6c-0.1-3,2.2-5.5,5.2-5.6c0.1,0,0.1,0,0.2,0h0.4c3.4,0,6.2,2.1,6.2,8.4
		C870.5,1453.6,867.8,1455.9,864.2,1455.9z M867.9,1443.9c0-2-1.6-3.7-3.7-3.7l0,0c-2,0-3.6,1.5-3.7,3.5v0.1
		c-0.1,1.9,1.4,3.5,3.3,3.7h0.1c2,0.1,3.7-1.5,3.8-3.5L867.9,1443.9z"/>
	<path class="st4" d="M872.8,1447.1c0-4.9,1.7-8.8,6-8.8s5.9,3.9,5.9,8.8s-1.7,8.8-5.9,8.8S872.8,1452,872.8,1447.1z M882.4,1447.1
		c0-4.4-1.2-6.8-3.7-6.8s-3.7,2.4-3.7,6.8s1.2,6.8,3.7,6.8S882.3,1451.4,882.4,1447.1z"/>
	<path class="st4" d="M949.8,1442.4l5.5-3.8h1.7v15.1h4.1v1.8h-10.7v-1.8h4.4v-12.3l-3.9,2.7L949.8,1442.4z"/>
	<path class="st4" d="M963.6,1447.1c0-4.9,1.7-8.8,6-8.8s5.9,3.9,5.9,8.8s-1.7,8.8-5.9,8.8S963.6,1452,963.6,1447.1z M973.1,1447.1
		c0-4.4-1.2-6.8-3.7-6.8s-3.7,2.4-3.7,6.8s1.2,6.8,3.7,6.8S973.1,1451.4,973.1,1447.1z"/>
	<path class="st4" d="M977.5,1447.1c0-4.9,1.7-8.8,6-8.8s6,3.9,6,8.8s-1.7,8.8-6,8.8S977.5,1452,977.5,1447.1z M987.1,1447.1
		c0-4.4-1.2-6.8-3.7-6.8s-3.7,2.4-3.7,6.8s1.2,6.8,3.7,6.8S987.1,1451.4,987.1,1447.1z"/>
	<path class="st4" d="M936.5,1501.8v1.9h-2.2v-18h2.2v7.2c0,2.6,1,3.5,2.8,3.5s3.2-1.7,3.2-4.4v-6.4h2.2v12.5h-2.1v-1.8h-0.1
		c-0.7,1.4-2.1,2.2-3.7,2.1c-0.9,0-1.8-0.2-2.5-0.7h-0.2C936.4,1499,936.5,1500.4,936.5,1501.8z"/>
	<path class="st4" d="M950,1499.3c0,1.5,1.4,2.4,3.4,2.4s3.9-1.1,3.9-4.6v-1.3h-0.1c-0.8,1.5-2.5,2.4-4.2,2.2
		c-3.1,0-5.5-2.3-5.5-6.4s2.5-6.6,5.7-6.6c1.6-0.1,3.2,0.7,3.9,2.2h0.1v-1.9h2.1v11.8c0,4.7-2.8,6.4-6.1,6.4s-5.5-1.5-5.5-4.3
		L950,1499.3z M953.5,1496.2c2,0,3.6-1.7,3.6-4.6s-1.7-4.6-3.6-4.6s-3.6,1.7-3.6,4.7S951.5,1496.2,953.5,1496.2L953.5,1496.2z"/>
	<path class="st4" d="M969.3,1480.2h1.9l-7.8,18h-2L969.3,1480.2z"/>
	<path class="st4" d="M971.6,1485.6h2.1v1.8h0.1c0.7-1.4,2.2-2.2,3.7-2.1c1.7-0.2,3.3,0.9,3.9,2.5c0.7-1.7,2.4-2.7,4.2-2.5
		c2.3,0,4.3,1.3,4.3,5v7.7h-2.2v-7.4c0-2.4-0.8-3.4-2.5-3.4s-3.2,1.7-3.2,4.3v6.4h-2.2v-7.4c0-2.4-0.9-3.4-2.5-3.4s-3.2,1.7-3.2,4.3
		v6.4h-2.2L971.6,1485.6z"/>
	<path class="st4" d="M993.5,1486.3c-0.1,1.1,0.7,2,1.7,2.1c0,0,0,0,0.1,0h0.4c1.3,0,2.2-0.7,2.2-1.9c0-1.1-0.9-2-2-2h-1v-1.1h0.8
		c0.9,0.1,1.7-0.6,1.8-1.5v-0.1c0-0.9-0.7-1.7-1.7-1.7l0,0h-0.1c-0.9,0-1.7,0.7-1.8,1.6v0.3h-1.2c0.1-1.7,1.5-3,3.2-2.9
		c1.4,0.1,2.6,1.2,2.8,2.6c0,1-0.6,1.9-1.5,2.3l0,0c1.1,0.3,1.9,1.3,1.9,2.5c-0.1,1.7-1.6,3-3.3,2.9h-0.2c-1.6,0.2-3.2-0.9-3.4-2.5
		c0,0,0,0,0-0.1v-0.6L993.5,1486.3z"/>
</g>
<g id="Livello_2_00000094596395719415276540000001328636310745968296_">
	<g>
		<path d="M18.5,231.6v12h-2.1V234H9.8v7.6h-2V234H0.4v-2.5L18.5,231.6z"/>
		<path d="M18.5,246.7V259h-2.1v-9.8h-5.7v7.8h-2v-7.8H2.6v10H0.5v-12.5L18.5,246.7L18.5,246.7z"/>
		<path d="M18.5,262.7v7.5c0,3.9-1.8,5.8-4.8,5.8c-1.8,0-3.3-1.1-3.7-2.9H9.8c-0.2,2.1-2,3.7-4.1,3.6c-3.1,0-5.4-2.1-5.4-5.9v-8
			h18.2V262.7z M16.4,265.2h-5.6v5c0,2.2,1.3,3.4,3,3.4s2.6-0.9,2.6-3.4V265.2z M8.8,265.2H2.6v5.6c0,2.5,1.3,3.6,3.2,3.6
			c1.7,0,3-1.2,3-3.6V265.2z"/>
	</g>
	<g>
		<path d="M3.1,132.8L3.1,132.8c-2-1.3-3.2-3.6-3-5.9c0-5.2,4-8.8,9.4-8.8s9.5,3.6,9.5,8.9c0,4.3-2.5,7.1-5.7,7.9v-2.6
			c1.8-0.5,3.5-2.3,3.5-5.4c0-3.9-3.1-6.5-7.1-6.5s-7.1,2.6-7.1,6.3c0,3,1.8,5.8,5,5.8h0.5V127h2.1v7.9H0.6v-1.6L3.1,132.8z"/>
		<path d="M18.5,139.1v12.3h-2.1v-9.8h-5.7v7.8h-2v-7.8H2.6v10H0.5v-12.4L18.5,139.1z"/>
		<path d="M18.5,155.3v2.3l-14,10v0.1l14-0.1v2.4H0.4v-2.3l14-10v-0.1l-14,0.1v-2.4H18.5z"/>
	</g>
	<g>
		<path d="M18.5,338.4v3L3.6,348l0,0l14.9,6.6v3H0.4v-2.5l14.3,0.3v-0.1L0.4,349v-2l14-6.3v-0.1l-14,0.3v-2.5H18.5z"/>
		<path d="M18.5,366.9v2.9l-18.1,6.7v-2.6l4.8-1.7v-8l-4.8-1.7V360L18.5,366.9z M16,368.2l-8.8-3.1v6.5L16,368.2z"/>
		<path d="M18.5,379.1v6.9c0,4.1-1.9,6.3-5.4,6.3c-2.5,0.1-4.8-1.5-5.4-4l-7.4,4.6v-2.6l7.1-4.5v-4.3H0.3V379L18.5,379.1z
			 M16.4,381.5H9.6v4.5c0,2.6,1.6,3.8,3.6,3.8s3.2-1.4,3.2-3.8C16.4,386,16.4,381.5,16.4,381.5z"/>
	</g>
	<g>
		<path d="M18.5,461.3v2.8l-18.1,6.7v-2.6l4.8-1.7v-8l-4.8-1.7v-2.5L18.5,461.3z M16,462.7l-8.8-3.1v6.5L16,462.7z"/>
		<path d="M18.5,473.6v6.9c0,4.1-2.5,6.5-5.8,6.5s-5.9-2.3-5.9-6.5V476H0.4v-2.5L18.5,473.6z M16.4,476H8.8v4.5
			c-0.1,2,1.4,3.8,3.4,3.9c0.2,0,0.3,0,0.5,0c2,0.1,3.6-1.4,3.7-3.4c0-0.2,0-0.3,0-0.5C16.4,480.5,16.4,476,16.4,476z"/>
		<path d="M18.5,490.4v6.9c0,4.1-1.9,6.3-5.4,6.3c-2.5,0.1-4.8-1.5-5.4-4l-7.4,4.6v-2.6l7.1-4.5v-4.3H0.3v-2.5L18.5,490.4z
			 M16.4,492.7H9.6v4.5c0,2.6,1.6,3.8,3.6,3.8s3.2-1.4,3.2-3.8C16.4,497.2,16.4,492.7,16.4,492.7z"/>
	</g>
	<g>
		<path d="M18.5,565.7v3l-14.9,6.7l0,0l14.9,6.6v3H0.4v-2.5l14.3,0.3v-0.1l-14.3-6.3v-1.9l14-6.3v-0.1l-14,0.2v-2.5h18.1V565.7z"/>
		<path d="M18.5,594.3v2.8l-18.1,6.7v-2.6l4.8-1.7v-8l-4.8-1.7v-2.3L18.5,594.3z M16,595.6l-8.8-3.1v6.5L16,595.6z"/>
		<path d="M3.1,619.8L3.1,619.8c-2-1.3-3.2-3.6-3-6c0-5.2,4-8.8,9.4-8.8s9.5,3.7,9.5,9c0,4.3-2.5,7.1-5.7,7.9v-2.6
			c1.8-0.5,3.5-2.3,3.5-5.4c0-3.9-3.1-6.5-7.1-6.5s-7.1,2.6-7.1,6.3c0,3,1.8,5.8,5,5.8h0.5v-5.7h2.1v7.9H0.6v-1.5L3.1,619.8z"/>
	</g>
	<g>
		<path d="M3.1,698.1L3.1,698.1c-2-1.3-3.2-3.6-3-6c0-5.2,4-8.8,9.4-8.8s9.5,3.7,9.5,9c0,4.3-2.5,7.1-5.7,7.9v-2.6
			c1.8-0.5,3.5-2.3,3.5-5.4c0-3.9-3.1-6.5-7.1-6.5s-7.1,2.6-7.1,6.3c0,3,1.8,5.8,5,5.8h0.5v-5.7h2.1v7.8H0.6v-1.5L3.1,698.1z"/>
		<path d="M18.5,704.4v2.5H0.4v-2.5H18.5z"/>
		<path d="M18.5,711.2v2.5h-11c-3.4,0-5.3,1.5-5.3,4.8s1.9,4.8,5.3,4.8h11v2.5h-11c-5.4,0-7.5-3-7.5-7.2s2.1-7.2,7.5-7.2L18.5,711.2
			z"/>
	</g>
	<g>
		<path d="M18.5,787.2v2.5h-16v8.8H0.4v-11.2L18.5,787.2L18.5,787.2z"/>
		<path d="M18.5,800.6v2.5h-11c-3.4,0-5.3,1.5-5.3,4.8s1.9,4.8,5.3,4.8h11v2.5h-11c-5.4,0-7.5-3-7.5-7.2s2.1-7.2,7.5-7.2L18.5,800.6
			z"/>
		<path d="M3.1,833.3L3.1,833.3c-2-1.3-3.2-3.6-3-6c0-5.2,4-8.8,9.4-8.8s9.5,3.6,9.5,8.9c0,4.3-2.5,7.1-5.7,7.9v-2.6
			c1.8-0.5,3.5-2.3,3.5-5.4c0-3.9-3.1-6.5-7.1-6.5s-7.1,2.6-7.1,6.3c0,3,1.8,5.8,5,5.8h0.5v-5.7h2.1v7.9H0.6v-1.5L3.1,833.3z"/>
	</g>
	<g>
		<path d="M18.5,903.8v2.8l-18.1,6.7v-2.6l4.8-1.7v-8l-4.8-1.7v-2.5L18.5,903.8z M16,905l-8.8-3v6.5L16,905z"/>
		<path d="M3.1,929.1L3.1,929.1c-2-1.3-3.2-3.6-3-5.9c0-5.2,4-8.8,9.4-8.8s9.5,3.6,9.5,8.9c0,4.3-2.5,7.1-5.7,7.9v-2.6
			c1.8-0.5,3.5-2.3,3.5-5.4c0-3.9-3.1-6.5-7.1-6.5s-7.1,2.6-7.1,6.3c0,3,1.8,5.8,5,5.8h0.5v-5.7h2.1v7.8H0.6v-1.5L3.1,929.1z"/>
		<path d="M18.9,943.2c0,5.2-4,8.8-9.4,8.8S0,948.3,0,943.2s4-8.8,9.4-8.8S18.9,937.9,18.9,943.2z M2.3,943.2c0,3.9,3.1,6.3,7.1,6.3
			s7.1-2.5,7.1-6.3s-3.1-6.3-7.1-6.3S2.3,939.3,2.3,943.2z"/>
	</g>
	<g>
		<path d="M5.6,1016.1c-1.9,0-3.5,1.7-3.5,4.5s1.3,4.6,3.4,4.6c4.8,0,1.2-11.4,8.1-11.4c3.1,0,5.3,2.7,5.3,6.7c0,4-1.9,6.6-5.2,6.6
			v-2.5c1.9,0,3.1-1.8,3.1-4.3s-1-4.3-3.1-4.3c-4.8,0-1,11.4-8.3,11.4c-3.2,0-5.4-2.6-5.4-7.1s2.2-7,5.4-7v2.6L5.6,1016.1z"/>
		<path d="M18.5,1031.6v12.3h-2.1v-9.8h-5.7v7.8h-2v-7.8H2.6v10H0.5v-12.5H18.5z"/>
		<path d="M18.5,1045.6v15.1h-2.1v-6.3h-16v-2.4h16v-6.3L18.5,1045.6z"/>
	</g>
	<g>
		<path d="M18.9,1131c0,5.2-4,8.8-9.4,8.8S0,1136.2,0,1131s4-8.8,9.4-8.8S18.9,1125.7,18.9,1131z M2.3,1131c0,3.9,3.1,6.3,7.1,6.3
			s7.1-2.5,7.1-6.3s-3.1-6.3-7.1-6.3S2.3,1127.1,2.3,1131z"/>
		<path d="M18.5,1140.3v15.1h-2.1v-6.3h-16v-2.5h16v-6.3L18.5,1140.3z"/>
		<path d="M18.5,1155.7v15.1h-2.1v-6.3h-16v-2.5h16v-6.3L18.5,1155.7z"/>
	</g>
	<g>
		<path d="M18.5,1232.4v2.3l-14,10v0.1l14-0.1v2.5H0.4v-2.3l14-10v-0.1l-14,0.1v-2.5H18.5z"/>
		<path d="M18.9,1259.5c0,5.2-4,8.8-9.4,8.8s-9.4-3.6-9.4-8.8s4-8.8,9.4-8.8S18.9,1254.2,18.9,1259.5z M2.3,1259.5
			c0,3.9,3.1,6.3,7.1,6.3s7.1-2.5,7.1-6.3s-3.1-6.3-7.1-6.3S2.3,1255.6,2.3,1259.5z"/>
		<path d="M18.5,1269.2v2.6l-15.6,5.4v0.1l15.6,5.4v2.4l-18.1-6.6v-2.7L18.5,1269.2z"/>
	</g>
	<g>
		<path d="M18.5,1346.8v5.6c0,6.2-3.8,9.4-9,9.4s-9-3.2-9-9.4v-5.6H18.5z M16.4,1349.2H2.5v3.1c0,5,3.2,7,7,7s7-1.8,7-7L16.4,1349.2
			L16.4,1349.2z"/>
		<path d="M18.5,1365.4v2.5H0.4v-2.5H18.5z"/>
		<path d="M18.9,1380c0,4.3-2.5,7-5.9,7.8v-2.4c2.4-0.7,3.7-2.5,3.7-5.2c0-3.8-3-6.2-7.1-6.2s-7.1,2.5-7.1,6.1c0,3,1.3,4.7,3.7,5.3
			v2.4c-3.6-0.8-5.9-3.6-5.9-7.8c0-5,3.9-8.7,9.4-8.7C14.9,1371.2,18.9,1374.8,18.9,1380z"/>
	</g>
	<path d="M790.3,410.8c-0.1-0.8-0.5-1.4-1.1-1.8c-0.7-0.5-1.6-0.7-2.5-0.7c-0.6,0-1.3,0.1-1.8,0.3c-0.5,0.2-0.9,0.5-1.2,1
		c-0.3,0.4-0.4,0.9-0.4,1.4c0,0.4,0.1,0.8,0.3,1.1c0.2,0.3,0.5,0.6,0.8,0.8c0.3,0.2,0.7,0.4,1,0.5s0.7,0.2,1,0.3l1.6,0.4
		c0.4,0.1,0.9,0.3,1.4,0.5s1,0.5,1.5,0.8s0.9,0.8,1.2,1.3c0.3,0.6,0.5,1.2,0.5,1.9c0,0.8-0.2,1.6-0.7,2.3c-0.5,0.7-1.2,1.3-2,1.7
		c-2,0.8-4.1,0.8-6.1,0.1c-0.8-0.3-1.5-0.9-2-1.5c-0.5-0.7-0.8-1.5-0.8-2.3h2c0,0.6,0.2,1.1,0.6,1.5c0.4,0.4,0.8,0.7,1.4,0.9
		c0.6,0.2,1.2,0.3,1.8,0.3c0.7,0,1.4-0.1,2-0.4c0.5-0.2,1-0.5,1.4-1c0.3-0.4,0.5-1,0.5-1.5s-0.1-0.9-0.5-1.3
		c-0.3-0.4-0.7-0.6-1.2-0.8c-0.5-0.2-1-0.4-1.6-0.5l-2-0.6c-1.1-0.3-2.1-0.8-3-1.5c-0.7-0.7-1.1-1.6-1.1-2.6c0-0.8,0.2-1.7,0.7-2.4
		c0.5-0.7,1.2-1.2,2-1.6c1.8-0.7,3.8-0.7,5.5,0c0.8,0.3,1.4,0.9,1.9,1.5s0.7,1.4,0.7,2.2L790.3,410.8z"/>
	<path d="M795.3,427.3v-16.5h1.8v1.9h0.2c0.2-0.3,0.4-0.5,0.6-0.8c0.3-0.4,0.6-0.7,1-0.9c0.6-0.3,1.2-0.4,1.9-0.4
		c0.9,0,1.9,0.2,2.7,0.8c0.8,0.5,1.4,1.3,1.8,2.1c0.9,2.1,0.9,4.5,0,6.6c-0.4,0.9-1,1.6-1.8,2.2c-0.8,0.5-1.7,0.8-2.7,0.8
		c-0.6,0-1.3-0.1-1.8-0.4c-0.4-0.2-0.8-0.5-1.1-0.9c-0.2-0.3-0.5-0.6-0.6-0.8h-0.2v6.3L795.3,427.3z M797.1,416.8
		c0,0.8,0.1,1.6,0.4,2.4c0.2,0.6,0.6,1.2,1.2,1.6c1.1,0.8,2.7,0.8,3.8,0c0.5-0.4,0.9-1,1.2-1.7c0.5-1.5,0.5-3.1,0-4.6
		c-0.2-0.6-0.6-1.2-1.2-1.6c-1.2-0.8-2.7-0.8-3.8,0c-0.5,0.4-0.9,0.9-1.2,1.6C797.2,415.2,797.1,416,797.1,416.8z"/>
	<path d="M813.8,423c-1.1,0-2.1-0.2-3-0.8c-0.8-0.5-1.5-1.3-1.9-2.2c-0.5-1-0.7-2.1-0.7-3.2s0.2-2.2,0.7-3.2
		c0.4-0.9,1.1-1.7,1.9-2.2c0.8-0.5,1.8-0.8,2.8-0.8c0.6,0,1.3,0.1,1.8,0.3c0.6,0.2,1.2,0.6,1.7,1c0.5,0.5,0.9,1.1,1.2,1.9
		c0.3,0.9,0.5,1.9,0.5,2.8v0.8h-9.2v-1.6h7.4c0-0.6-0.1-1.2-0.4-1.8c-0.3-0.5-0.7-1-1.1-1.3c-0.5-0.3-1.1-0.5-1.7-0.5
		c-0.7,0-1.3,0.2-1.9,0.5c-0.5,0.4-1,0.8-1.2,1.4c-0.3,0.6-0.4,1.2-0.4,1.9v1.1c0,0.8,0.1,1.6,0.5,2.3c0.3,0.6,0.7,1.1,1.3,1.4
		s1.3,0.5,2,0.5c0.4,0,0.9-0.1,1.3-0.2c0.4-0.1,0.7-0.3,1-0.6c0.3-0.3,0.5-0.6,0.7-1l1.8,0.5c-0.2,0.6-0.5,1.1-1,1.6s-1,0.8-1.6,1.1
		C815.3,423,814.5,423.1,813.8,423z"/>
	<path d="M826.4,427.5c-0.8,0-1.6-0.1-2.3-0.3c-0.6-0.2-1.1-0.5-1.6-0.9c-0.4-0.3-0.7-0.7-1-1.2l1.5-1c0.2,0.2,0.4,0.5,0.6,0.8
		c0.3,0.3,0.6,0.6,1,0.7c0.6,0.2,1.2,0.3,1.8,0.3c0.9,0,1.7-0.2,2.4-0.7s1.1-1.3,1-2.2v-2.4h-0.2c-0.1,0.2-0.3,0.5-0.6,0.8
		c-0.3,0.4-0.7,0.6-1.1,0.9c-0.6,0.3-1.2,0.4-1.9,0.4c-0.9,0-1.8-0.2-2.6-0.7s-1.4-1.2-1.8-2c-0.5-1-0.7-2.1-0.7-3.2
		s0.2-2.2,0.6-3.2c0.4-0.9,1-1.6,1.8-2.1s1.7-0.8,2.7-0.8c0.6-0.1,1.3,0.1,1.9,0.3c0.4,0.2,0.8,0.5,1.1,0.9c0.2,0.3,0.4,0.6,0.6,0.8
		h0.2v-1.9h1.8v12.3c0,0.9-0.2,1.8-0.7,2.5s-1.1,1.2-1.9,1.4C828.2,427.4,827.3,427.6,826.4,427.5z M826.3,421
		c0.7,0,1.3-0.2,1.9-0.5c0.5-0.4,0.9-0.9,1.2-1.5c0.3-0.7,0.4-1.5,0.4-2.3s-0.1-1.6-0.4-2.3c-0.2-0.6-0.6-1.2-1.2-1.6
		c-1.2-0.8-2.7-0.8-3.8,0c-0.5,0.4-0.9,1-1.2,1.6c-0.3,0.7-0.4,1.5-0.4,2.2c0,0.8,0.1,1.5,0.4,2.2c0.2,0.6,0.6,1.1,1.2,1.5
		C825,420.8,825.6,421,826.3,421L826.3,421z"/>
	<path d="M836.8,415.6v7.2H835v-12h1.8v1.9h0.2c0.3-0.6,0.7-1.1,1.3-1.5c0.7-0.4,1.4-0.6,2.2-0.6c0.7,0,1.5,0.2,2.1,0.5
		s1.1,0.9,1.4,1.5c0.4,0.8,0.5,1.7,0.5,2.5v7.6h-1.8v-7.5c0-0.8-0.2-1.6-0.7-2.2c-0.5-0.5-1.3-0.8-2-0.8c-0.5,0-1.1,0.1-1.6,0.4
		s-0.8,0.6-1.1,1.1C836.9,414.3,836.8,415,836.8,415.6z"/>
	<path d="M848.8,408.8c-0.3,0-0.7-0.1-0.9-0.4c-0.5-0.4-0.5-1.2-0.1-1.7l0.1-0.1c0.2-0.2,0.6-0.4,0.9-0.4c0.3,0,0.7,0.1,0.9,0.4
		c0.5,0.4,0.5,1.2,0.1,1.7l-0.1,0.1C849.4,408.7,849.1,408.8,848.8,408.8z M847.8,422.8v-12h1.8v12H847.8z"/>
	<path d="M853,422.8v-12h1.8v1.9h0.2c0.2-0.6,0.7-1.1,1.2-1.5c0.6-0.4,1.3-0.6,2-0.5c0.7,0,1.4,0.2,2,0.5c0.5,0.4,1,0.9,1.2,1.5h0.1
		c0.3-0.6,0.8-1.1,1.4-1.5c0.7-0.4,1.4-0.6,2.2-0.6c1,0,1.9,0.3,2.6,1c0.7,0.9,1.1,2,1,3.1v8H867v-8c0.1-0.7-0.2-1.4-0.7-1.9
		c-0.5-0.4-1.1-0.6-1.7-0.6c-0.7-0.1-1.5,0.2-2,0.8c-0.5,0.5-0.7,1.2-0.7,1.9v7.8H860v-8.2c0-0.6-0.2-1.2-0.7-1.6s-1.1-0.7-1.7-0.6
		c-0.5,0-0.9,0.1-1.3,0.4c-0.4,0.3-0.8,0.6-1,1.1c-0.3,0.5-0.4,1-0.4,1.6v7.5L853,422.8z"/>
	<path d="M877.2,423c-1.1,0-2.1-0.2-3-0.8c-0.8-0.5-1.5-1.3-1.9-2.2c-0.5-1-0.7-2.1-0.7-3.2s0.2-2.2,0.7-3.2
		c0.4-0.9,1.1-1.7,1.9-2.2c0.8-0.5,1.8-0.8,2.8-0.8c0.6,0,1.3,0.1,1.8,0.3c0.6,0.2,1.2,0.6,1.7,1c0.5,0.5,0.9,1.1,1.2,1.9
		c0.3,0.9,0.5,1.9,0.4,2.8v0.8h-9.2v-1.6h7.4c0-0.6-0.1-1.2-0.4-1.8c-0.3-0.5-0.7-1-1.2-1.3s-1.1-0.5-1.7-0.5
		c-0.7,0-1.3,0.2-1.9,0.5c-0.5,0.4-0.9,0.8-1.2,1.4s-0.4,1.2-0.4,1.9v1.1c0,0.8,0.1,1.6,0.5,2.3c0.3,0.6,0.7,1.1,1.3,1.4
		s1.3,0.5,2,0.5c0.4,0,0.9-0.1,1.3-0.2c0.4-0.1,0.7-0.4,1-0.6c0.3-0.3,0.5-0.6,0.7-1l1.8,0.5c-0.2,0.6-0.5,1.1-1,1.6s-1,0.8-1.6,1.1
		C878.7,422.9,877.9,423.1,877.2,423z"/>
	<path d="M886.8,415.6v7.2H885v-12h1.8v1.9h0.2c0.3-0.6,0.7-1.1,1.3-1.5c0.7-0.4,1.4-0.6,2.2-0.6c0.7,0,1.5,0.2,2.1,0.5
		s1.1,0.9,1.4,1.5c0.4,0.8,0.5,1.7,0.5,2.5v7.6h-1.8v-7.5c0-0.8-0.2-1.6-0.7-2.2c-0.5-0.5-1.3-0.8-2-0.8c-0.5,0-1.1,0.1-1.6,0.4
		s-0.8,0.6-1.1,1.1C887,414.3,886.8,415,886.8,415.6z"/>
	<path d="M903.1,410.8v1.6h-6.2v-1.6H903.1z M898.7,407.9h1.8v11.4c0,0.4,0.1,0.8,0.2,1.2c0.1,0.2,0.3,0.4,0.6,0.5
		c0.2,0.1,0.5,0.1,0.8,0.1c0.2,0,0.3,0,0.5,0l0.3-0.1l0.4,1.7c-0.1,0-0.3,0.1-0.5,0.1c-0.3,0.1-0.6,0.1-0.8,0.1
		c-0.5,0-1-0.1-1.5-0.3c-0.5-0.2-0.9-0.6-1.2-1c-0.3-0.5-0.5-1.1-0.5-1.7L898.7,407.9L898.7,407.9z"/>
	<path d="M910.6,423c-1,0-2-0.2-2.8-0.8c-0.8-0.5-1.5-1.3-1.9-2.2c-0.5-1-0.7-2.1-0.7-3.2s0.2-2.2,0.7-3.3c1.2-2.6,4.4-3.7,7-2.5
		c1.1,0.5,2,1.4,2.5,2.5c0.5,1,0.7,2.1,0.7,3.3c0,1.1-0.2,2.2-0.7,3.2c-0.4,0.9-1.1,1.6-1.9,2.2C912.6,422.8,911.6,423.1,910.6,423z
		 M910.6,421.4c0.7,0,1.4-0.2,2-0.6c0.5-0.4,0.9-1,1.2-1.7c0.5-1.5,0.5-3,0-4.5c-0.2-0.7-0.6-1.2-1.2-1.7c-1.2-0.9-2.8-0.9-4.1,0
		c-0.5,0.4-0.9,1-1.2,1.7c-0.5,1.5-0.5,3,0,4.5c0.2,0.7,0.6,1.2,1.2,1.7C909.1,421.2,909.9,421.4,910.6,421.4L910.6,421.4z"/>
	<path d="M781.3,449.2v-12h1.8v1.8h0.1c0.2-0.6,0.6-1.1,1.2-1.5c0.6-0.4,1.3-0.6,1.9-0.5h0.5h0.5v1.9l-0.4-0.1c-0.2,0-0.5,0-0.7,0
		c-0.5,0-1.1,0.1-1.6,0.4c-0.4,0.2-0.8,0.6-1.1,1s-0.4,0.9-0.4,1.5v7.6L781.3,449.2z"/>
	<path d="M790.4,435.2c-0.3,0-0.7-0.1-0.9-0.4c-0.3-0.2-0.4-0.5-0.4-0.9c0-0.3,0.1-0.7,0.4-0.9c0.2-0.2,0.6-0.4,0.9-0.4
		c0.3,0,0.7,0.1,0.9,0.4c0.3,0.2,0.4,0.6,0.4,0.9s-0.1,0.7-0.4,0.9C791.1,435.1,790.8,435.2,790.4,435.2z M789.5,449.2v-12h1.8v12
		H789.5z"/>
	<path d="M803.2,439.9l-1.7,0.5c-0.1-0.3-0.3-0.6-0.5-0.8c-0.2-0.3-0.5-0.5-0.8-0.6c-0.4-0.2-0.9-0.3-1.3-0.3
		c-0.6,0-1.3,0.2-1.8,0.5s-0.7,0.8-0.7,1.3c0,0.4,0.2,0.8,0.5,1.1c0.5,0.3,1,0.6,1.6,0.7l1.8,0.4c0.9,0.2,1.7,0.6,2.4,1.2
		c0.5,0.5,0.8,1.3,0.8,2.1c0,0.7-0.2,1.3-0.6,1.9c-0.4,0.6-1,1-1.6,1.3c-0.8,0.3-1.6,0.5-2.5,0.5c-1.1,0-2.1-0.2-3-0.8
		c-0.8-0.5-1.4-1.4-1.5-2.3l1.8-0.4c0.1,0.6,0.5,1.1,1,1.5c0.5,0.3,1.2,0.5,1.8,0.5c0.7,0,1.4-0.2,2-0.5c0.5-0.3,0.8-0.8,0.8-1.3
		c0-0.4-0.2-0.8-0.4-1.1c-0.4-0.3-0.8-0.5-1.3-0.6l-2-0.5c-0.9-0.2-1.8-0.6-2.4-1.2c-0.5-0.6-0.8-1.3-0.8-2.1c0-0.6,0.2-1.3,0.6-1.8
		c0.4-0.5,0.9-1,1.6-1.2c0.7-0.3,1.5-0.5,2.3-0.5c1-0.1,2,0.2,2.8,0.8C802.4,438.3,802.9,439.1,803.2,439.9z"/>
	<path d="M811.1,449.4c-2.1,0.1-4-1.1-4.8-3c-0.9-2-0.9-4.4,0-6.4c0.4-0.9,1.1-1.7,1.9-2.2c0.8-0.5,1.8-0.8,2.8-0.8
		c0.8,0,1.6,0.2,2.3,0.5s1.2,0.7,1.7,1.3c0.4,0.6,0.7,1.3,0.8,2H814c-0.2-0.6-0.5-1.1-0.9-1.5c-0.5-0.4-1.2-0.7-1.9-0.6
		c-0.7,0-1.3,0.2-1.9,0.6c-0.6,0.4-1,0.9-1.3,1.6c-0.3,0.8-0.5,1.6-0.4,2.4c0,0.8,0.1,1.7,0.4,2.4c0.3,0.6,0.7,1.2,1.2,1.6
		c0.9,0.6,2.1,0.7,3.2,0.3c0.4-0.2,0.7-0.4,1-0.7c0.3-0.3,0.5-0.7,0.6-1.1h1.8c-0.2,1.4-1.1,2.7-2.3,3.3
		C812.7,449.3,811.9,449.5,811.1,449.4z"/>
	<path d="M822,449.5c-0.7,0-1.4-0.1-2.1-0.4c-1.3-0.6-2.1-1.9-2-3.2c0-0.6,0.1-1.2,0.4-1.7c0.3-0.4,0.6-0.8,1.1-1
		c0.5-0.3,1-0.4,1.5-0.5s1.1-0.2,1.7-0.3l1.8-0.2c0.3,0,0.7-0.1,1-0.2c0.2-0.1,0.3-0.4,0.3-0.6v-0.1c0-0.7-0.2-1.3-0.6-1.8
		c-0.5-0.5-1.2-0.7-1.9-0.6c-0.7,0-1.5,0.2-2.1,0.6c-0.4,0.3-0.8,0.8-1,1.2l-1.8-0.6c0.3-0.7,0.7-1.3,1.2-1.7
		c0.5-0.4,1.1-0.7,1.7-0.9c0.6-0.2,1.2-0.2,1.8-0.2c0.4,0,0.9,0.1,1.3,0.1c0.5,0.1,1,0.3,1.5,0.6c0.5,0.3,0.8,0.7,1.1,1.2
		c0.3,0.7,0.5,1.5,0.5,2.3v7.9h-1.8v-1.6h-0.1c-0.2,0.3-0.4,0.6-0.6,0.8c-0.3,0.3-0.7,0.6-1.2,0.8
		C823.2,449.4,822.6,449.5,822,449.5z M822.3,447.8c0.6,0,1.3-0.1,1.8-0.4s0.9-0.6,1.1-1.1c0.2-0.4,0.4-0.9,0.4-1.4v-1.7
		c-0.1,0.1-0.3,0.2-0.5,0.3c-0.3,0.1-0.6,0.1-0.9,0.2c-0.3,0.1-0.7,0.1-1,0.1l-0.8,0.1c-0.5,0.1-0.9,0.2-1.3,0.3
		c-0.4,0.1-0.7,0.3-1,0.6c-0.3,0.3-0.4,0.7-0.4,1.1c0,0.6,0.2,1.1,0.7,1.5C821,447.7,821.6,447.9,822.3,447.8L822.3,447.8z"/>
	<path d="M832.7,433.2v16h-1.8v-16H832.7z"/>
	<path d="M840.6,449.4c-0.9,0-1.9-0.2-2.7-0.8c-0.8-0.5-1.4-1.3-1.8-2.1c-0.5-1-0.7-2.2-0.7-3.3c0-1.1,0.2-2.2,0.7-3.3
		c0.4-0.9,1-1.6,1.8-2.1s1.7-0.8,2.7-0.8c0.6,0,1.3,0.1,1.9,0.4c0.4,0.2,0.7,0.5,1,0.9c0.2,0.3,0.4,0.6,0.6,0.8h0.2v-5.9h1.8v16
		h-1.8v-1.8h-0.2c-0.2,0.3-0.4,0.6-0.6,0.8c-0.3,0.4-0.7,0.7-1.1,0.9C841.9,449.3,841.3,449.5,840.6,449.4z M840.9,447.8
		c0.7,0,1.3-0.2,1.9-0.6c0.5-0.4,0.9-1,1.2-1.6c0.5-1.5,0.5-3.2,0-4.8c-0.2-0.6-0.6-1.2-1.2-1.6c-1.2-0.8-2.7-0.8-3.8,0
		c-0.5,0.4-0.9,1-1.2,1.6c-0.5,1.5-0.5,3.1,0,4.6c0.2,0.7,0.6,1.2,1.2,1.7C839.5,447.6,840.2,447.8,840.9,447.8z"/>
	<path d="M853.3,449.5c-0.7,0-1.4-0.1-2.1-0.4c-1.3-0.6-2.1-1.9-2-3.2c0-0.6,0.1-1.2,0.4-1.7c0.3-0.4,0.6-0.8,1.1-1
		c0.5-0.3,1-0.4,1.5-0.5s1.1-0.2,1.7-0.3l1.8-0.2c0.3,0,0.7-0.1,1-0.2c0.2-0.1,0.3-0.4,0.3-0.6v-0.1c0-0.7-0.2-1.3-0.6-1.8
		c-0.5-0.5-1.2-0.7-1.9-0.6c-0.7,0-1.5,0.2-2.1,0.6c-0.4,0.3-0.8,0.7-1,1.2l-1.8-0.6c0.3-0.7,0.7-1.3,1.2-1.7
		c0.5-0.4,1.1-0.7,1.7-0.9c0.6-0.2,1.2-0.2,1.8-0.2c0.4,0,0.9,0.1,1.3,0.1c0.5,0.1,1,0.3,1.5,0.6c0.5,0.3,0.9,0.7,1.2,1.3
		c0.3,0.7,0.5,1.5,0.5,2.3v7.9H857v-1.6h-0.1c-0.2,0.3-0.4,0.6-0.6,0.8c-0.3,0.3-0.7,0.6-1.2,0.8
		C854.5,449.4,853.9,449.5,853.3,449.5z M853.6,447.8c0.6,0,1.3-0.1,1.8-0.4s0.9-0.6,1.1-1.1c0.2-0.4,0.4-0.9,0.4-1.4v-1.7
		c-0.1,0.1-0.3,0.2-0.5,0.3c-0.3,0.1-0.6,0.1-0.9,0.2c-0.3,0.1-0.7,0.1-1,0.1l-0.8,0.1c-0.5,0.1-0.9,0.2-1.3,0.3
		c-0.4,0.1-0.7,0.3-1,0.6c-0.3,0.3-0.4,0.7-0.4,1.1c0,0.6,0.2,1.1,0.7,1.5C852.3,447.7,852.9,447.8,853.6,447.8z"/>
	<path d="M862.2,449.2v-12h1.8v1.9h0.2c0.2-0.6,0.7-1.1,1.2-1.5c0.6-0.4,1.3-0.6,2-0.5c0.7,0,1.4,0.2,2,0.5c0.5,0.4,1,0.9,1.2,1.5
		h0.1c0.3-0.6,0.8-1.1,1.4-1.5c0.7-0.4,1.4-0.6,2.2-0.5c1,0,1.9,0.3,2.6,1c0.7,0.9,1.1,2,1,3.1v8h-1.8v-8c0.1-0.7-0.2-1.4-0.7-1.9
		c-0.5-0.4-1.1-0.6-1.7-0.6c-0.7-0.1-1.5,0.2-2,0.8c-0.5,0.5-0.7,1.2-0.7,1.9v7.8h-1.8V441c0-0.6-0.2-1.2-0.7-1.6s-1.1-0.7-1.7-0.6
		c-0.5,0-0.9,0.1-1.3,0.4c-0.4,0.3-0.8,0.6-1,1.1c-0.3,0.5-0.4,1-0.4,1.6v7.5L862.2,449.2z"/>
	<path d="M886.3,449.4c-1.1,0-2.1-0.2-3-0.8c-0.8-0.5-1.5-1.3-1.9-2.2c-0.5-1-0.7-2.1-0.7-3.2s0.2-2.2,0.7-3.2
		c0.4-0.9,1.1-1.7,1.9-2.2c0.8-0.5,1.8-0.8,2.8-0.8c0.6,0,1.3,0.1,1.8,0.3c0.6,0.2,1.2,0.6,1.7,1c0.5,0.5,0.9,1.2,1.2,1.9
		c0.3,0.9,0.5,1.9,0.5,2.8v0.8H882v-1.6h7.4c0-0.6-0.1-1.2-0.4-1.8c-0.3-0.5-0.6-1-1.1-1.3s-1.1-0.5-1.7-0.5c-0.7,0-1.3,0.2-1.9,0.5
		c-0.5,0.3-1,0.8-1.2,1.4c-0.3,0.6-0.4,1.2-0.4,1.9v1.1c0,0.8,0.1,1.6,0.5,2.3c0.3,0.6,0.7,1.1,1.3,1.4s1.3,0.5,2,0.5
		c0.4,0,0.9-0.1,1.3-0.2c0.4-0.1,0.7-0.3,1-0.6c0.3-0.3,0.5-0.6,0.7-1l1.8,0.5c-0.2,0.6-0.5,1.2-1,1.6c-0.5,0.5-1,0.8-1.6,1.1
		C887.8,449.3,887,449.5,886.3,449.4z"/>
	<path d="M895.9,442v7.2h-1.8v-12h1.8v1.9h0.1c0.3-0.6,0.7-1.1,1.3-1.5c0.7-0.4,1.4-0.6,2.2-0.6c0.7,0,1.5,0.2,2.1,0.5
		s1.1,0.9,1.4,1.5c0.4,0.8,0.5,1.7,0.5,2.5v7.6h-1.8v-7.5c0-0.8-0.2-1.6-0.7-2.2c-0.5-0.5-1.3-0.8-2-0.8c-0.6,0-1.1,0.1-1.6,0.4
		s-0.8,0.6-1.1,1.1C896,440.8,895.9,441.4,895.9,442z"/>
	<path d="M912.2,437.2v1.6H906v-1.6H912.2z M907.8,434.3h1.8v11.4c0,0.4,0.1,0.8,0.2,1.2c0.1,0.2,0.3,0.4,0.6,0.5
		c0.2,0.1,0.5,0.1,0.8,0.1c0.2,0,0.3,0,0.5,0l0.3-0.1l0.4,1.6c-0.2,0.1-0.3,0.1-0.5,0.1c-0.3,0.1-0.6,0.1-0.8,0.1
		c-0.5,0-1-0.1-1.5-0.3c-0.5-0.2-0.9-0.6-1.2-1c-0.3-0.5-0.5-1.1-0.5-1.7L907.8,434.3L907.8,434.3z"/>
	<path d="M915.9,435.2c-0.3,0-0.7-0.1-0.9-0.4c-0.3-0.2-0.4-0.5-0.4-0.9c0-0.3,0.1-0.7,0.4-0.9c0.2-0.2,0.6-0.4,0.9-0.4
		c0.3,0,0.7,0.1,0.9,0.4c0.3,0.2,0.4,0.6,0.4,0.9s-0.1,0.7-0.4,0.9C916.6,435.1,916.3,435.2,915.9,435.2z M915,449.2v-12h1.8v12H915
		z"/>
	<path d="M782.9,1171.7h-2l5.9-16h2l5.9,16h-2l-4.8-13.5h-0.1L782.9,1171.7z M783.6,1165.5h8.2v1.7h-8.2V1165.5z"/>
	<path d="M801.7,1172c-2.1,0.1-4-1.1-4.8-3c-0.4-1-0.7-2.1-0.7-3.2s0.2-2.2,0.7-3.2c0.4-0.9,1.1-1.6,1.9-2.2
		c0.8-0.5,1.8-0.8,2.8-0.8c0.8,0,1.6,0.1,2.3,0.5c0.7,0.3,1.2,0.7,1.7,1.3c0.4,0.6,0.7,1.3,0.8,2h-1.8c-0.2-0.6-0.5-1.1-0.9-1.4
		c-0.5-0.5-1.2-0.7-1.9-0.6c-0.7,0-1.3,0.2-1.9,0.6c-0.6,0.4-1,0.9-1.3,1.6s-0.5,1.6-0.5,2.4s0.1,1.7,0.4,2.4
		c0.3,0.6,0.7,1.2,1.2,1.6c1,0.6,2.2,0.7,3.2,0.3c0.4-0.2,0.7-0.4,1-0.7c0.3-0.3,0.5-0.7,0.6-1.1h1.8c-0.2,1.4-1.1,2.6-2.4,3.2
		C803.3,1171.9,802.5,1172,801.7,1172z"/>
	<path d="M814,1172c-1,0-2-0.3-2.9-0.8c-0.8-0.5-1.5-1.3-1.9-2.2c-0.9-2.1-0.9-4.4,0-6.4c0.4-0.9,1.1-1.6,1.9-2.2
		c0.8-0.5,1.8-0.8,2.8-0.8c0.8,0,1.6,0.2,2.3,0.5s1.2,0.7,1.7,1.3c0.4,0.6,0.7,1.3,0.8,2h-1.8c-0.2-0.6-0.5-1.1-0.9-1.4
		c-0.5-0.5-1.2-0.7-1.9-0.6c-0.7,0-1.3,0.2-1.9,0.6c-0.6,0.4-1,0.9-1.3,1.6s-0.5,1.6-0.5,2.4s0.1,1.7,0.4,2.4
		c0.3,0.6,0.7,1.2,1.2,1.6c0.6,0.4,1.2,0.6,1.9,0.6c0.4,0,0.9-0.1,1.3-0.2c0.4-0.2,0.7-0.4,1-0.7c0.3-0.3,0.5-0.7,0.6-1.1h1.8
		c-0.1,0.7-0.4,1.3-0.8,1.9c-0.4,0.6-1,1-1.6,1.3C815.6,1171.9,814.8,1172,814,1172z"/>
	<path d="M826.4,1172c-1.1,0-2.1-0.2-3-0.8c-0.8-0.5-1.5-1.3-1.9-2.2c-0.5-1-0.7-2.1-0.7-3.2s0.2-2.2,0.7-3.2
		c0.4-0.9,1.1-1.7,1.9-2.2c0.8-0.5,1.8-0.8,2.8-0.8c0.6,0,1.3,0.1,1.8,0.3c0.6,0.2,1.2,0.5,1.7,1s0.9,1.1,1.2,1.8
		c0.3,0.9,0.5,1.9,0.4,2.8v0.8h-9.2v-1.6h7.4c0-0.6-0.1-1.2-0.4-1.8c-0.3-0.5-0.7-1-1.2-1.3s-1.1-0.5-1.7-0.5
		c-0.7,0-1.3,0.2-1.9,0.5c-0.5,0.4-0.9,0.8-1.2,1.4s-0.4,1.2-0.4,1.9v1.1c0,0.8,0.1,1.6,0.5,2.3c0.3,0.6,0.7,1.1,1.3,1.4
		s1.3,0.5,2,0.5c0.4,0,0.9-0.1,1.3-0.2c0.4-0.1,0.7-0.3,1-0.6c0.3-0.3,0.5-0.6,0.7-1l1.8,0.5c-0.2,0.6-0.5,1.1-1,1.6s-1,0.8-1.6,1.1
		C827.9,1171.9,827.2,1172,826.4,1172z"/>
	<path d="M836.1,1164.5v7.2h-1.8v-12h1.8v1.9h0.2c0.3-0.6,0.7-1.1,1.3-1.5c0.7-0.4,1.4-0.6,2.2-0.6c0.7,0,1.5,0.2,2.1,0.5
		s1.1,0.9,1.4,1.5c0.4,0.8,0.5,1.7,0.5,2.5v7.6H842v-7.5c0-0.8-0.2-1.6-0.7-2.2c-0.5-0.5-1.3-0.8-2-0.8c-0.5,0-1.1,0.1-1.6,0.4
		s-0.8,0.6-1.1,1.1C836.2,1163.3,836.1,1163.9,836.1,1164.5z"/>
	<path d="M855.6,1162.4l-1.7,0.5c-0.1-0.3-0.3-0.6-0.5-0.8c-0.2-0.3-0.5-0.5-0.8-0.7c-0.4-0.2-0.9-0.3-1.3-0.2
		c-0.6,0-1.3,0.2-1.8,0.5s-0.7,0.8-0.7,1.3c0,0.4,0.2,0.8,0.5,1.1c0.5,0.3,1,0.6,1.6,0.7l1.8,0.4c0.9,0.2,1.7,0.6,2.4,1.2
		c0.5,0.5,0.8,1.3,0.8,2.1c0,0.7-0.2,1.3-0.6,1.8c-0.4,0.6-1,1-1.7,1.3c-0.8,0.3-1.6,0.5-2.5,0.5c-1.1,0-2.1-0.2-3-0.8
		c-0.8-0.5-1.4-1.4-1.5-2.3l1.8-0.4c0.1,0.6,0.5,1.1,1,1.4s1.2,0.5,1.8,0.5c0.7,0,1.4-0.2,2-0.6c0.5-0.3,0.7-0.8,0.8-1.3
		c0-0.4-0.2-0.7-0.4-1c-0.4-0.3-0.9-0.6-1.3-0.6l-2-0.5c-0.9-0.2-1.7-0.6-2.4-1.2c-0.5-0.6-0.8-1.3-0.8-2.1c0-0.6,0.2-1.3,0.6-1.8
		c0.4-0.5,0.9-1,1.6-1.2c0.7-0.3,1.5-0.5,2.3-0.4c1-0.1,2,0.2,2.8,0.8C854.8,1160.9,855.3,1161.6,855.6,1162.4z"/>
	<path d="M859.5,1157.7c-0.3,0-0.7-0.1-0.9-0.4c-0.5-0.5-0.5-1.2,0-1.7l0,0c0.2-0.2,0.6-0.4,0.9-0.4c0.3,0,0.7,0.1,0.9,0.4
		c0.5,0.4,0.5,1.2,0.1,1.7l-0.1,0.1C860.2,1157.6,859.9,1157.7,859.5,1157.7z M858.6,1171.7v-12h1.8v12H858.6z"/>
	<path d="M868.7,1172c-2,0-3.9-1.1-4.8-2.9c-0.9-2.1-0.9-4.4,0-6.5c1.2-2.6,4.4-3.7,7-2.5c1.1,0.5,2,1.4,2.5,2.5
		c0.9,2.1,0.9,4.4,0,6.5C872.6,1170.9,870.7,1172.1,868.7,1172z M868.7,1170.3c0.7,0,1.4-0.2,2-0.6c0.5-0.4,0.9-1,1.2-1.7
		c0.5-1.4,0.5-3,0-4.5c-0.2-0.7-0.6-1.2-1.2-1.7c-1.2-0.9-2.8-0.9-4.1,0c-0.5,0.4-0.9,1-1.2,1.7c-0.5,1.5-0.5,3,0,4.5
		c0.2,0.7,0.6,1.2,1.2,1.7C867.2,1170.2,867.9,1170.4,868.7,1170.3L868.7,1170.3z"/>
	<path d="M878.8,1164.5v7.2H877v-12h1.8v1.9h0.2c0.3-0.6,0.7-1.1,1.3-1.5c0.7-0.4,1.4-0.6,2.2-0.6c0.7,0,1.5,0.2,2.1,0.5
		s1.1,0.9,1.4,1.5c0.4,0.8,0.5,1.7,0.5,2.5v7.6h-1.8v-7.5c0-0.8-0.2-1.6-0.7-2.2c-0.5-0.5-1.3-0.8-2-0.8c-0.5,0-1.1,0.1-1.6,0.4
		s-0.8,0.6-1.1,1.1C878.9,1163.3,878.8,1163.9,878.8,1164.5z"/>
	<path d="M894.8,1172c-1.1,0-2.1-0.2-3-0.8c-0.8-0.5-1.5-1.3-1.9-2.2c-0.5-1-0.7-2.1-0.7-3.2s0.2-2.2,0.7-3.2
		c0.4-0.9,1.1-1.7,1.9-2.2c0.8-0.5,1.8-0.8,2.8-0.8c0.6,0,1.3,0.1,1.8,0.3c0.6,0.2,1.2,0.5,1.7,1s0.9,1.1,1.2,1.8
		c0.3,0.9,0.5,1.9,0.5,2.8v0.8h-9.2v-1.6h7.4c0-0.6-0.1-1.2-0.4-1.8c-0.5-1.1-1.7-1.8-2.9-1.7c-0.7,0-1.3,0.2-1.9,0.5
		c-0.5,0.4-0.9,0.8-1.2,1.4s-0.4,1.2-0.4,1.9v1.1c0,0.8,0.1,1.6,0.5,2.3c0.3,0.6,0.7,1.1,1.3,1.4s1.3,0.5,2,0.5
		c0.4,0,0.9-0.1,1.3-0.2c0.4-0.1,0.7-0.3,1-0.6c0.3-0.3,0.5-0.6,0.7-1l1.8,0.5c-0.2,0.6-0.5,1.1-0.9,1.6c-0.5,0.5-1,0.8-1.6,1.1
		C896.4,1171.9,895.6,1172,894.8,1172z"/>
	<path d="M782,1198.1v-12h1.8v1.9h0.1c0.2-0.6,0.6-1.1,1.2-1.4c0.6-0.4,1.2-0.6,1.9-0.6h0.5h0.5v1.9l-0.4-0.1c-0.2,0-0.5,0-0.7,0
		c-0.5,0-1.1,0.1-1.6,0.4c-0.4,0.2-0.8,0.6-1.1,1s-0.4,0.9-0.4,1.4v7.6L782,1198.1z"/>
	<path d="M791.1,1184.1c-0.3,0-0.7-0.1-0.9-0.4c-0.5-0.5-0.5-1.2,0-1.7l0,0c0.5-0.5,1.3-0.5,1.9,0c0.5,0.5,0.5,1.2,0,1.7l0,0
		C791.8,1184,791.4,1184.1,791.1,1184.1z M790.2,1198.1v-12h1.8v12H790.2z"/>
	<path d="M803.9,1188.8l-1.7,0.5c-0.1-0.3-0.3-0.6-0.5-0.8c-0.2-0.3-0.5-0.5-0.8-0.7c-0.4-0.2-0.9-0.3-1.3-0.3
		c-0.6,0-1.3,0.2-1.8,0.5s-0.7,0.7-0.7,1.3c0,0.4,0.2,0.8,0.5,1.1c0.5,0.3,1,0.6,1.6,0.7l1.8,0.4c0.9,0.2,1.7,0.6,2.4,1.2
		c0.5,0.5,0.8,1.3,0.8,2.1c0,0.7-0.2,1.3-0.6,1.8c-0.4,0.6-1,1-1.6,1.3c-0.8,0.3-1.6,0.5-2.5,0.5c-1.1,0-2.1-0.2-3-0.8
		c-0.8-0.5-1.4-1.4-1.5-2.3l1.8-0.4c0.1,0.6,0.5,1.1,1,1.4s1.2,0.5,1.8,0.5c0.7,0,1.4-0.2,2-0.6c0.5-0.3,0.7-0.8,0.8-1.3
		c0-0.4-0.1-0.8-0.4-1.1c-0.4-0.3-0.9-0.5-1.3-0.6l-2-0.5c-0.9-0.2-1.7-0.6-2.4-1.2c-0.5-0.6-0.8-1.3-0.8-2.1c0-0.6,0.2-1.3,0.6-1.8
		c0.4-0.5,0.9-1,1.6-1.2c0.7-0.3,1.5-0.5,2.3-0.4c1-0.1,2,0.2,2.8,0.8C803.1,1187.3,803.6,1188,803.9,1188.8z"/>
	<path d="M811.8,1198.4c-2.1,0.1-4-1.1-4.8-3c-0.9-2-0.9-4.4,0-6.4c0.4-0.9,1.1-1.7,1.9-2.2c0.8-0.5,1.8-0.8,2.8-0.8
		c0.8,0,1.6,0.2,2.3,0.5s1.2,0.7,1.7,1.3c0.4,0.6,0.7,1.3,0.8,2h-1.8c-0.2-0.6-0.5-1.1-0.9-1.5c-0.5-0.4-1.2-0.7-1.9-0.6
		c-0.7,0-1.3,0.2-1.9,0.6c-0.6,0.4-1,0.9-1.3,1.6c-0.3,0.8-0.5,1.6-0.5,2.4s0.1,1.7,0.4,2.4c0.3,0.6,0.7,1.2,1.2,1.6
		c0.6,0.4,1.2,0.6,1.9,0.6c0.4,0,0.9-0.1,1.3-0.2c0.4-0.2,0.7-0.4,1-0.7c0.3-0.3,0.5-0.7,0.6-1.1h1.8c-0.1,0.7-0.4,1.3-0.8,1.9
		c-0.4,0.6-1,1-1.6,1.3C813.4,1198.2,812.6,1198.4,811.8,1198.4z"/>
	<path d="M822.7,1198.4c-0.7,0-1.4-0.1-2.1-0.4c-1.3-0.6-2.1-1.9-2-3.2c0-0.6,0.1-1.2,0.4-1.7c0.3-0.4,0.6-0.8,1.1-1
		c0.5-0.3,1-0.4,1.5-0.6c0.5-0.1,1.1-0.2,1.7-0.3l1.7-0.2c0.3,0,0.7-0.1,1-0.2c0.2-0.1,0.3-0.4,0.3-0.6v-0.1c0-0.7-0.2-1.3-0.6-1.8
		c-0.5-0.5-1.2-0.7-1.9-0.6c-0.7,0-1.5,0.2-2.1,0.6c-0.4,0.3-0.8,0.7-1.1,1.2l-1.8-0.6c0.3-0.7,0.7-1.3,1.3-1.7
		c0.5-0.4,1.1-0.7,1.7-0.8c0.6-0.2,1.2-0.2,1.8-0.2c0.4,0,0.9,0.1,1.3,0.1c0.5,0.1,1,0.3,1.5,0.6c0.5,0.3,0.9,0.8,1.2,1.3
		c0.3,0.7,0.5,1.5,0.5,2.3v7.9h-1.8v-1.6h-0.1c-0.2,0.3-0.4,0.6-0.6,0.8c-0.3,0.3-0.7,0.6-1.2,0.8
		C823.9,1198.3,823.3,1198.4,822.7,1198.4z M823,1196.8c0.6,0,1.3-0.1,1.8-0.4s0.9-0.6,1.1-1.1c0.3-0.4,0.4-0.9,0.4-1.4v-1.7
		c-0.1,0.1-0.3,0.2-0.5,0.3c-0.3,0.1-0.6,0.1-0.9,0.2c-0.3,0.1-0.7,0.1-1,0.1l-0.8,0.1c-0.5,0.1-0.9,0.2-1.3,0.3
		c-0.4,0.1-0.7,0.3-1,0.6c-0.3,0.3-0.4,0.7-0.4,1.1c0,0.6,0.2,1.1,0.7,1.4C821.7,1196.6,822.3,1196.8,823,1196.8L823,1196.8z"/>
	<path d="M833.4,1182.1v16h-1.8v-16H833.4z"/>
	<path d="M841.3,1198.4c-0.9,0-1.9-0.2-2.7-0.8c-0.8-0.5-1.4-1.3-1.8-2.2c-0.5-1-0.7-2.2-0.6-3.3c0-1.1,0.2-2.2,0.6-3.3
		c0.4-0.9,1-1.6,1.8-2.2c0.8-0.5,1.7-0.8,2.7-0.8c0.6,0,1.3,0.1,1.9,0.4c0.4,0.2,0.7,0.5,1,0.9c0.2,0.3,0.4,0.6,0.6,0.8h0.2v-5.9
		h1.8v16H845v-1.8h-0.2c-0.1,0.2-0.3,0.5-0.6,0.8c-0.3,0.4-0.7,0.7-1.1,0.9C842.6,1198.3,841.9,1198.4,841.3,1198.4z M841.6,1196.7
		c0.7,0,1.3-0.2,1.9-0.6c0.5-0.4,0.9-1,1.2-1.6c0.3-0.8,0.4-1.6,0.4-2.4s-0.1-1.6-0.4-2.3c-0.2-0.6-0.6-1.2-1.2-1.6
		c-1.2-0.8-2.7-0.8-3.8,0c-0.5,0.4-0.9,1-1.2,1.6c-0.3,0.7-0.4,1.5-0.4,2.3s0.1,1.6,0.4,2.3c0.2,0.6,0.6,1.2,1.2,1.7
		C840.2,1196.5,840.9,1196.7,841.6,1196.7z"/>
	<path d="M854,1198.4c-0.7,0-1.4-0.1-2.1-0.4c-1.3-0.6-2.1-1.9-2-3.2c0-0.6,0.1-1.2,0.4-1.7c0.3-0.4,0.6-0.8,1.1-1
		c0.5-0.3,1-0.4,1.5-0.6c0.5-0.1,1.1-0.2,1.7-0.3l1.8-0.2c0.3,0,0.7-0.1,1-0.2c0.2-0.1,0.3-0.4,0.3-0.6v-0.1c0-0.7-0.2-1.3-0.6-1.8
		c-0.5-0.5-1.2-0.7-1.9-0.6c-0.7,0-1.5,0.2-2.1,0.6c-0.4,0.3-0.8,0.8-1,1.2l-1.8-0.6c0.3-0.7,0.7-1.3,1.2-1.7
		c0.5-0.4,1.1-0.7,1.7-0.8c0.6-0.1,1.1-0.2,1.7-0.2c0.4,0,0.9,0.1,1.3,0.1c0.5,0.1,1,0.3,1.5,0.6c0.5,0.3,0.9,0.8,1.2,1.3
		c0.3,0.7,0.5,1.5,0.5,2.3v7.9h-1.8v-1.6h-0.1c-0.2,0.3-0.4,0.6-0.6,0.8c-0.3,0.3-0.7,0.6-1.2,0.8
		C855.2,1198.4,854.6,1198.4,854,1198.4z M854.3,1196.8c0.6,0,1.3-0.1,1.8-0.4s0.9-0.6,1.1-1.1c0.3-0.4,0.4-0.9,0.4-1.4v-1.7
		c-0.1,0.1-0.3,0.2-0.5,0.3c-0.3,0.1-0.6,0.1-0.9,0.2c-0.3,0.1-0.7,0.1-1,0.1l-0.8,0.1c-0.5,0.1-0.9,0.2-1.3,0.3
		c-0.4,0.1-0.7,0.3-1,0.6c-0.3,0.3-0.4,0.7-0.4,1.1c0,0.6,0.2,1.1,0.7,1.4C853,1196.6,853.6,1196.8,854.3,1196.8L854.3,1196.8z"/>
	<path d="M862.8,1198.1v-12h1.8v1.9h0.2c0.2-0.6,0.7-1.1,1.2-1.5c0.6-0.4,1.3-0.5,2-0.5s1.4,0.2,2,0.5c0.5,0.4,1,0.9,1.2,1.5h0.1
		c0.3-0.6,0.8-1.1,1.4-1.5c0.7-0.4,1.4-0.6,2.2-0.6c1,0,1.9,0.3,2.6,1c0.7,0.9,1.1,2,1,3.1v8h-1.8v-8c0.1-0.7-0.2-1.4-0.7-1.9
		c-0.5-0.4-1.1-0.6-1.7-0.6c-0.7-0.1-1.5,0.2-2,0.8c-0.5,0.5-0.7,1.2-0.7,1.9v7.8h-1.9v-8.2c0-0.6-0.2-1.2-0.7-1.7
		c-0.5-0.4-1.1-0.6-1.7-0.6c-0.5,0-0.9,0.1-1.3,0.4c-0.4,0.3-0.8,0.6-1,1.1c-0.3,0.5-0.4,1-0.4,1.6v7.5L862.8,1198.1z"/>
	<path d="M887,1198.4c-1.1,0-2.1-0.2-3-0.8c-0.8-0.5-1.5-1.3-1.9-2.2c-0.5-1-0.7-2.1-0.7-3.2s0.2-2.2,0.7-3.2
		c0.4-0.9,1.1-1.7,1.9-2.2c0.8-0.5,1.8-0.8,2.8-0.8c0.6,0,1.3,0.1,1.8,0.3c0.6,0.2,1.2,0.6,1.7,1c0.5,0.5,0.9,1.2,1.2,1.8
		c0.3,0.9,0.5,1.9,0.5,2.9v0.8h-9.2v-1.6h7.4c0-0.6-0.1-1.3-0.4-1.8c-0.3-0.5-0.7-0.9-1.1-1.2c-0.5-0.3-1.1-0.5-1.7-0.5
		c-0.7,0-1.3,0.2-1.9,0.5c-0.5,0.3-1,0.8-1.2,1.4c-0.3,0.6-0.4,1.2-0.4,1.9v1.1c0,0.8,0.1,1.6,0.5,2.3c0.3,0.6,0.7,1.1,1.3,1.4
		s1.3,0.5,2,0.5c0.4,0,0.9-0.1,1.3-0.2c0.4-0.1,0.7-0.3,1-0.6c0.3-0.3,0.5-0.7,0.7-1.1l1.8,0.5c-0.2,0.6-0.5,1.1-1,1.6
		s-1,0.8-1.6,1.1C888.5,1198.3,887.8,1198.4,887,1198.4z"/>
	<path d="M896.6,1190.9v7.2h-1.8v-12h1.8v1.9h0.2c0.3-0.6,0.7-1.1,1.3-1.5c0.7-0.4,1.4-0.6,2.2-0.6c0.7,0,1.5,0.2,2.1,0.5
		s1.1,0.9,1.4,1.5c0.4,0.8,0.5,1.7,0.5,2.5v7.6h-1.8v-7.5c0.1-0.8-0.2-1.6-0.7-2.2c-0.5-0.5-1.3-0.8-2-0.8c-0.5,0-1.1,0.1-1.6,0.4
		s-0.8,0.6-1.1,1.1C896.8,1189.7,896.6,1190.3,896.6,1190.9z"/>
	<path d="M912.9,1186.1v1.6h-6.2v-1.6H912.9z M908.5,1183.3h1.8v11.4c0,0.4,0.1,0.8,0.2,1.2c0.1,0.2,0.3,0.4,0.6,0.5
		c0.2,0.1,0.5,0.1,0.8,0.1c0.2,0,0.3,0,0.5,0h0.3l0.4,1.7c-0.2,0.1-0.3,0.1-0.5,0.2c-0.3,0.1-0.6,0.1-0.8,0.1
		c-0.5,0-1.1-0.1-1.5-0.3c-0.5-0.2-0.9-0.6-1.2-1c-0.3-0.5-0.5-1.1-0.5-1.7L908.5,1183.3z"/>
	<path d="M916.6,1184.1c-0.3,0-0.7-0.1-0.9-0.4c-0.5-0.5-0.5-1.2,0-1.7l0,0c0.5-0.5,1.3-0.5,1.9,0c0.5,0.5,0.5,1.2,0,1.7l0,0
		C917.3,1184,916.9,1184.1,916.6,1184.1z M915.7,1198.1v-12h1.8v12H915.7z"/>
</g>
<g>
	<circle cx="267.9" cy="1552.4" r="14.3"/>
	<path d="M322,1576.1v-45.3h15.3c3-0.1,6,0.5,8.7,1.9c2.1,1.2,3.9,3,5,5.2c2.2,4.6,2.2,9.9,0,14.5c-1.1,2.2-2.8,4-5,5.2
		c-2.7,1.4-5.7,2-8.7,1.9h-11v-4.8h10.8c2,0.1,4-0.3,5.9-1.2c1.4-0.8,2.5-2,3.2-3.4c1.4-3.1,1.4-6.6,0-9.7c-0.7-1.5-1.8-2.6-3.2-3.4
		c-1.8-0.9-3.9-1.3-5.9-1.2h-9.7v40.4L322,1576.1z"/>
	<path d="M361.5,1530.8h6.5l15.4,37.4h0.5l15.4-37.4h6.6v45.3h-5.1v-34.4h-0.4l-14.2,34.4h-4.8l-14.2-34.4h-0.5v34.4h-5.1
		L361.5,1530.8z"/>
	<path d="M432,1530.8v45.3h-5.5v-39.6h-0.3l-11,7.3v-5.6l11.3-7.5L432,1530.8z"/>
	<path d="M459.8,1576.7c-3.1,0.1-6.1-0.9-8.5-2.7c-2.5-2.1-4.4-4.8-5.4-7.9c-2.5-8.2-2.5-17,0-25.2c1-3.1,2.9-5.9,5.4-8
		c5.1-3.7,11.9-3.7,17,0c2.5,2.1,4.4,4.9,5.4,8c2.5,8.2,2.5,17,0,25.2c-1,3.1-2.9,5.8-5.4,7.9
		C465.8,1575.8,462.8,1576.8,459.8,1576.7z M459.8,1571.9c3.3,0,6.3-1.9,7.7-4.8c2.1-4.2,3-8.9,2.7-13.6c0.1-3.4-0.4-6.7-1.2-10
		c-0.6-2.4-1.9-4.6-3.6-6.3c-1.5-1.4-3.5-2.2-5.6-2.2c-3.3-0.1-6.4,1.7-7.9,4.7c-2.1,4.2-3,8.9-2.8,13.7c-0.1,3.4,0.4,6.7,1.2,10
		c0.6,2.4,1.8,4.5,3.6,6.3C455.5,1571.1,457.6,1571.9,459.8,1571.9z"/>
	<path d="M485.5,1555.9v-3.5l28.5-14.5v5.7l-21.8,10.5v0.2l21.8,10.5v5.7L485.5,1555.9z"/>
	<path d="M539.1,1576.7c-2.4,0-4.8-0.5-7-1.6c-2-0.9-3.7-2.4-5-4.2c-1.3-1.8-2-3.9-2.1-6.1h5.3c0.2,2,1.2,3.8,2.8,5.1
		c3.2,2.4,7.5,2.7,10.9,0.7c1.4-0.9,2.6-2.1,3.5-3.6c0.8-1.6,1.3-3.4,1.2-5.2c0-1.9-0.4-3.7-1.3-5.3c-0.8-1.5-2-2.8-3.5-3.7
		c-1.6-0.9-3.4-1.4-5.2-1.4c-1.4,0-2.8,0.2-4.1,0.6c-1.3,0.3-2.5,0.9-3.6,1.7l-5.2-0.6l2.7-22.3h23.5v4.6h-18.9l-1.6,13.4h0.2
		c1-0.8,2.2-1.4,3.5-1.8c1.4-0.5,2.9-0.8,4.4-0.8c2.6,0,5.2,0.7,7.4,2c2.2,1.3,4,3.2,5.1,5.4c1.3,2.4,1.9,5.1,1.9,7.8
		c0,2.7-0.7,5.4-2,7.8c-1.3,2.2-3.1,4.1-5.3,5.3C544.5,1576,541.8,1576.7,539.1,1576.7z"/>
	<path d="M577.6,1576.7c-3,0-5.9-0.9-8.3-2.7c-2.5-2.1-4.4-4.8-5.4-7.9c-2.5-8.2-2.5-17,0-25.2c1-3.1,2.9-5.9,5.4-8
		c5.1-3.7,11.9-3.7,17,0c2.5,2.1,4.4,4.9,5.4,8c2.5,8.2,2.5,17,0,25.2c-1,3.1-2.9,5.8-5.4,7.9
		C583.8,1575.9,580.7,1576.9,577.6,1576.7z M577.6,1571.9c3.3,0,6.3-1.9,7.7-4.8c2.1-4.2,3-8.9,2.7-13.6c0.1-3.4-0.3-6.7-1.2-10
		c-0.6-2.4-1.9-4.5-3.6-6.3c-1.5-1.4-3.5-2.2-5.6-2.2c-3.3,0-6.3,1.9-7.7,4.8c-2.1,4.2-3,8.9-2.8,13.7c-0.1,3.4,0.4,6.7,1.2,10
		c0.6,2.4,1.9,4.5,3.6,6.3C573.5,1571.1,575.5,1571.9,577.6,1571.9z"/>
	<path d="M601.4,1587.2v-40.5h4.2v17.4c0,1.4,0.3,2.9,1,4.2c0.7,1.2,1.7,2.2,2.9,2.8c1.3,0.7,2.7,1,4.1,1c1.4,0,2.9-0.3,4.2-1
		c1.2-0.7,2.2-1.6,2.8-2.8c0.7-1.3,1-2.7,1-4.2v-17.4h4.5v29.4h-4v-4.4h-0.2c-0.7,1.5-1.9,2.7-3.3,3.6c-2.8,1.6-6.3,1.6-9.1,0
		c-1.4-0.8-2.6-2.1-3.3-3.6h-0.6v15.4H601.4z"/>
	<path d="M646.6,1587.7c-1.9,0.1-3.8-0.2-5.6-0.8c-1.4-0.5-2.7-1.2-3.9-2.2c-1-0.8-1.8-1.8-2.5-2.9l3.6-2.5c0.4,0.5,0.9,1.2,1.5,1.9
		c0.8,0.8,1.6,1.4,2.6,1.8c1.3,0.5,2.7,0.8,4.1,0.7c2.1,0.1,4.2-0.5,5.9-1.7c1.6-1.3,2.5-3.3,2.3-5.4v-6h-0.4
		c-0.4,0.7-0.9,1.3-1.4,1.9c-0.7,0.9-1.6,1.6-2.6,2.1c-1.4,0.7-3,1-4.6,0.9c-2.2,0-4.5-0.6-6.4-1.7c-1.9-1.2-3.5-2.9-4.5-4.9
		c-1.1-2.4-1.7-5.1-1.6-7.8c-0.1-2.7,0.5-5.4,1.6-7.9c1-2.1,2.5-3.9,4.4-5.2c1.9-1.3,4.2-1.9,6.6-1.9c1.6,0,3.1,0.3,4.6,1
		c1,0.5,1.9,1.3,2.6,2.2c0.6,0.8,1.1,1.5,1.4,2h0.5v-4.6h4.6v30.3c0.1,2.2-0.5,4.4-1.7,6.2c-1.1,1.6-2.7,2.8-4.6,3.5
		C651,1587.4,648.8,1587.8,646.6,1587.7z M646.6,1571.6c1.6,0,3.2-0.4,4.6-1.2c1.3-0.9,2.3-2.1,2.9-3.6c0.7-1.8,1-3.7,1-5.6
		c0-1.9-0.3-3.8-1-5.6c-0.6-1.5-1.6-2.8-2.9-3.8c-1.3-1-3-1.5-4.6-1.4c-1.7-0.1-3.4,0.5-4.8,1.4c-1.3,1.1-2.3,2.5-2.8,4.2
		c-0.7,1.7-1,3.6-1,5.4c0,1.8,0.3,3.7,1,5.4c0.6,1.5,1.6,2.8,2.9,3.7c1.4,0.8,3,1.2,4.6,1.1L646.6,1571.6z"/>
	<path d="M681.5,1535l-12.5,47h-4.2l12.7-47H681.5z"/>
	<path d="M686.9,1576.1v-29.4h4.2v4.6h0.4c0.6-1.5,1.6-2.8,3-3.7c1.5-0.9,3.2-1.4,4.9-1.3c1.7-0.1,3.4,0.4,4.9,1.3
		c1.3,0.9,2.4,2.2,3.1,3.7h0.2c0.8-1.5,1.9-2.8,3.4-3.6c1.6-0.9,3.5-1.4,5.4-1.4c2.4-0.1,4.7,0.8,6.5,2.5c1.8,2.1,2.7,4.9,2.5,7.6
		v19.7h-4.5v-19.8c0.2-1.7-0.5-3.5-1.8-4.6c-1.2-0.9-2.7-1.4-4.2-1.4c-1.8-0.1-3.5,0.6-4.8,1.9c-1.1,1.3-1.8,3-1.7,4.7v19.2h-4.6
		v-20.2c0.1-1.6-0.5-3.1-1.7-4.2c-1.1-1-2.6-1.6-4.1-1.5c-1.2,0-2.3,0.4-3.3,1c-1,0.6-1.9,1.5-2.5,2.6c-0.6,1.2-0.9,2.5-0.9,3.9
		v18.4L686.9,1576.1z"/>
	<path d="M739.7,1558.4c-1.3,0-2.7-0.2-3.9-0.7c-1.1-0.5-2-1.2-2.7-2.1c-0.7-0.9-1.1-2-1.1-3.2h2.8c0,0.7,0.3,1.4,0.8,1.9
		c0.5,0.6,1.1,1,1.7,1.2c1.6,0.6,3.4,0.5,5-0.1c0.7-0.3,1.4-0.8,1.8-1.5c0.5-0.6,0.7-1.4,0.7-2.1c0-0.8-0.2-1.5-0.6-2.2
		c-0.4-0.7-1.1-1.2-1.8-1.5c-0.9-0.4-1.9-0.6-2.9-0.5h-1.8v-2.4h1.8c0.8,0,1.6-0.2,2.4-0.5c0.7-0.3,1.2-0.8,1.6-1.4
		c0.4-0.6,0.6-1.3,0.6-2.1c0-0.7-0.2-1.4-0.5-2c-0.3-0.6-0.8-1-1.5-1.3c-0.7-0.3-1.4-0.5-2.2-0.5c-0.8,0-1.5,0.2-2.2,0.4
		c-0.7,0.3-1.2,0.7-1.7,1.2c-0.5,0.6-0.7,1.3-0.8,2h-2.6c0-1.1,0.4-2.2,1.1-3.2c0.7-0.9,1.6-1.6,2.7-2.1c1.2-0.5,2.4-0.8,3.7-0.8
		c1.3,0,2.5,0.3,3.6,0.9c1.9,1,3.1,3.1,3.2,5.3c0,1.2-0.3,2.3-1,3.3c-0.7,0.9-1.6,1.6-2.7,1.9l0,0c1.3,0.2,2.5,0.8,3.4,1.8
		c0.8,1,1.3,2.3,1.2,3.7c0,1.2-0.3,2.4-1,3.4c-0.7,1-1.6,1.8-2.7,2.3C742.5,1558.1,741.1,1558.4,739.7,1558.4z"/>
	<circle class="st5" cx="267.9" cy="1622.1" r="14.3"/>
	<path class="st5" d="M322,1645.8v-45.3h15.3c3-0.1,6,0.5,8.8,1.9c2.1,1.2,3.9,3,5,5.1c2.2,4.6,2.2,9.9,0,14.5c-1.1,2.2-2.8,4-5,5.2
		c-2.7,1.4-5.6,2-8.6,1.9h-11v-4.8h10.8c2,0.1,4-0.3,5.9-1.2c1.4-0.8,2.6-2,3.2-3.4c1.3-3.1,1.3-6.6,0-9.7c-0.7-1.5-1.8-2.6-3.2-3.4
		c-1.8-0.9-3.9-1.3-5.9-1.2h-9.6v40.4L322,1645.8z"/>
	<path class="st5" d="M361.5,1600.6h6.6l15.4,37.4h0.4l15.4-37.4h6.6v45.3h-5.1v-34.4h-0.2l-14.2,34.4h-5l-14.1-34.4h-0.4v34.4h-5.1
		L361.5,1600.6z"/>
	<path class="st5" d="M432,1600.6v45.3h-5.5v-39.6h-0.2l-11.1,7.3v-5.5l11.3-7.5L432,1600.6z"/>
	<path class="st5" d="M459.8,1646.5c-3,0-5.9-0.9-8.3-2.7c-2.5-2.1-4.3-4.8-5.4-7.9c-2.5-8.2-2.5-17,0-25.2c1-3.1,2.9-5.9,5.4-8
		c5.1-3.7,11.9-3.7,17,0c2.5,2.1,4.4,4.9,5.4,8c2.5,8.2,2.5,17,0,25.2c-1,3.1-2.9,5.9-5.4,7.9C466,1645.6,462.9,1646.6,459.8,1646.5
		z M459.8,1641.6c3.3,0,6.3-1.8,7.7-4.8c2.1-4.2,3-8.9,2.7-13.6c0.1-3.4-0.4-6.7-1.2-10c-0.6-2.4-1.9-4.6-3.6-6.3
		c-1.5-1.4-3.5-2.2-5.6-2.2c-3.3,0-6.3,1.8-7.6,4.8c-2.1,4.2-3,8.9-2.8,13.7c-0.1,3.4,0.3,6.7,1.2,10c0.6,2.4,1.8,4.5,3.6,6.3
		C455.7,1640.9,457.7,1641.6,459.8,1641.6z"/>
	<path class="st5" d="M514,1625.7l-28.5,14.5v-5.7l21.9-10.5v-0.2l-21.9-10.5v-5.7l28.5,14.5V1625.7z"/>
	<path class="st5" d="M539.1,1646.5c-2.4,0-4.8-0.5-7-1.6c-2-1-3.7-2.4-5-4.2c-1.2-1.8-1.9-3.9-2-6.1h5.3c0.2,2,1.2,3.8,2.8,5.1
		c1.7,1.3,3.8,2.1,6,2c3.5,0,6.6-1.9,8.3-4.9c0.8-1.6,1.3-3.4,1.2-5.2c0-1.9-0.4-3.7-1.3-5.3c-0.8-1.5-2.1-2.8-3.6-3.7
		c-1.6-0.9-3.3-1.4-5.1-1.4c-1.4,0-2.8,0.2-4.2,0.6c-1.3,0.4-2.5,0.9-3.6,1.7l-5.1-0.6l2.7-22.3h23.5v4.6h-18.9l-1.6,13.4h0.3
		c1-0.8,2.2-1.4,3.5-1.8c1.3-0.5,2.7-0.7,4.1-0.8c5.2,0,10,2.8,12.5,7.4c1.3,2.4,1.9,5.1,1.9,7.8c0,2.7-0.6,5.4-2,7.8
		c-1.3,2.2-3.1,4.1-5.3,5.3C544.4,1645.7,541.8,1646.4,539.1,1646.5z"/>
	<path class="st5" d="M577.6,1646.5c-3,0-5.9-0.9-8.3-2.7c-2.5-2.1-4.3-4.8-5.4-7.9c-2.5-8.2-2.5-17,0-25.2c1-3.1,2.9-5.9,5.4-8
		c5.1-3.7,11.9-3.7,17,0c2.5,2.1,4.4,4.9,5.4,8c2.5,8.2,2.5,17,0,25.2c-1,3.1-2.9,5.9-5.4,7.9
		C583.8,1645.6,580.7,1646.6,577.6,1646.5z M577.6,1641.6c3.3,0,6.3-1.8,7.7-4.8c2.1-4.2,3-8.9,2.7-13.6c0.1-3.4-0.3-6.7-1.2-10
		c-0.6-2.4-1.9-4.6-3.6-6.3c-1.5-1.4-3.5-2.2-5.6-2.2c-3.3,0-6.3,1.8-7.6,4.8c-2.1,4.2-3,8.9-2.8,13.7c-0.1,3.4,0.4,6.7,1.2,10
		c0.6,2.4,1.8,4.5,3.6,6.3C573.5,1640.9,575.5,1641.6,577.6,1641.6z"/>
	<path class="st5" d="M601.2,1656.9v-40.5h4.5v17.4c0,1.4,0.3,2.9,1,4.2c0.7,1.2,1.6,2.2,2.8,2.8c1.3,0.7,2.7,1,4.1,1
		c1.4,0,2.9-0.3,4.2-1c1.2-0.7,2.2-1.6,2.8-2.8c0.7-1.3,1-2.7,1-4.2v-17.4h4.5v29.4h-4.5v-4.4h-0.2c-0.7,1.5-1.9,2.7-3.3,3.6
		c-2.8,1.6-6.3,1.6-9.2,0c-1.4-0.8-2.6-2.1-3.3-3.6l0,0v15.4H601.2z"/>
	<path class="st5" d="M646.7,1657.5c-1.9,0.1-3.8-0.2-5.7-0.8c-1.4-0.5-2.7-1.2-3.9-2.2c-1-0.8-1.8-1.8-2.5-2.9l3.6-2.5
		c0.4,0.5,0.9,1.2,1.5,1.9c0.7,0.8,1.6,1.4,2.6,1.8c1.3,0.5,2.7,0.8,4.2,0.7c2.1,0.1,4.2-0.5,5.9-1.7c1.6-1.3,2.5-3.3,2.3-5.4v-6
		h-0.4c-0.4,0.7-0.9,1.3-1.4,1.9c-0.7,0.9-1.6,1.6-2.6,2.1c-1.4,0.7-3,1-4.6,0.9c-2.2,0-4.5-0.6-6.4-1.7c-1.9-1.2-3.5-2.9-4.4-4.9
		c-1.2-2.4-1.7-5.1-1.7-7.8c-0.1-2.7,0.5-5.4,1.6-7.9c0.9-2.1,2.5-3.9,4.4-5.2c2-1.3,4.2-1.9,6.6-1.9c1.6-0.1,3.1,0.3,4.6,1
		c1,0.5,1.9,1.3,2.6,2.2c0.6,0.8,1.1,1.4,1.4,2h0.5v-4.7h4.2v30.3c0.1,2.2-0.5,4.4-1.7,6.2c-1.1,1.6-2.8,2.8-4.6,3.5
		C650.7,1657.2,648.7,1657.5,646.7,1657.5z M646.7,1641.3c1.6,0,3.2-0.4,4.6-1.2c1.3-0.9,2.3-2.1,2.9-3.6c0.7-1.8,1-3.7,1-5.6
		c0.1-1.9-0.3-3.8-1-5.6c-0.6-1.5-1.5-2.8-2.8-3.8c-1.3-1-3-1.5-4.7-1.4c-1.7-0.1-3.4,0.5-4.8,1.4c-1.3,1.1-2.3,2.5-2.9,4.2
		c-0.7,1.7-1,3.6-1,5.4c0,1.8,0.3,3.7,1,5.4c0.6,1.5,1.6,2.8,2.9,3.7c1.4,0.8,3,1.2,4.6,1.1L646.7,1641.3z"/>
	<path class="st5" d="M681.5,1604.7l-12.7,47h-4.1l12.5-47H681.5z"/>
	<path class="st5" d="M686.9,1645.8v-29.4h4.4v4.6h0.4c0.6-1.5,1.6-2.8,2.9-3.7c1.5-0.9,3.2-1.4,4.9-1.3c1.7-0.1,3.4,0.4,4.9,1.3
		c1.3,0.9,2.4,2.2,3,3.7h0.2c0.8-1.5,1.9-2.8,3.4-3.6c1.7-1,3.6-1.4,5.5-1.4c2.4-0.1,4.7,0.8,6.4,2.5c1.9,2.1,2.8,4.9,2.5,7.6v19.7
		h-4.5V1626c0.2-1.7-0.5-3.5-1.8-4.7c-1.2-0.9-2.6-1.4-4.2-1.4c-1.8-0.1-3.6,0.6-4.8,1.9c-1.1,1.3-1.8,3-1.7,4.7v19.2h-4.5v-20.2
		c0.1-1.6-0.5-3.1-1.6-4.2c-1.1-1-2.6-1.6-4.1-1.5c-1.2,0-2.3,0.4-3.3,1c-1,0.6-1.9,1.5-2.5,2.6c-0.6,1.2-1,2.5-1,3.9v18.4
		L686.9,1645.8z"/>
	<path class="st5" d="M739.8,1627.2c-1.4,0.1-2.8-0.2-4.2-0.8c-1.1-0.4-2-1.2-2.7-2.1c-0.7-0.9-1.1-2-1.1-3.2h2.8
		c0.1,0.7,0.3,1.4,0.8,1.9c0.5,0.6,1.1,1,1.7,1.2c1.6,0.6,3.4,0.6,5,0c0.7-0.3,1.3-0.8,1.8-1.5c1.3-1.1,1.4-2.9,0.4-4.2
		c-0.4-0.7-1.1-1.2-1.8-1.5c-0.9-0.4-1.9-0.6-3-0.5h-1.8v-2.4h1.8c0.8,0,1.7-0.2,2.4-0.5c0.7-0.3,1.2-0.8,1.6-1.4
		c0.4-0.6,0.6-1.3,0.6-2.1c0-0.7-0.2-1.4-0.5-2c-0.3-0.6-0.8-1-1.5-1.3c-0.7-0.3-1.4-0.5-2.2-0.5c-0.8,0-1.5,0.2-2.2,0.5
		c-0.6,0.3-1.2,0.7-1.7,1.2c-0.4,0.6-0.7,1.3-0.7,2h-2.8c0-1.1,0.4-2.2,1.1-3.2c0.7-0.9,1.6-1.6,2.7-2.1c1.1-0.5,2.4-0.8,3.6-0.8
		c1.3,0,2.5,0.3,3.7,0.9c1,0.5,1.8,1.3,2.3,2.2c0.5,0.9,0.8,1.9,0.8,3c0,1.2-0.3,2.3-1,3.3c-0.7,0.9-1.6,1.6-2.7,1.9l0,0
		c1.3,0.2,2.5,0.8,3.4,1.8c0.8,1,1.2,2.3,1.2,3.7c0,1.2-0.3,2.4-1,3.4c-0.7,1-1.6,1.8-2.7,2.3C742.5,1627,741.2,1627.2,739.8,1627.2
		z"/>
	<g class="st6">
		
			<ellipse transform="matrix(1 -9.432686e-03 9.432686e-03 1 -15.9258 2.583)" class="st5" cx="265.9" cy="1689.6" rx="14.3" ry="14.3"/>
	</g>
	
		<ellipse transform="matrix(8.473616e-03 -1 1 8.473616e-03 -1425.9481 1941.1572)" class="st5" cx="265.9" cy="1689.6" rx="5.1" ry="5.1"/>
	<path d="M322,1708.2v-37.8h22.8v4.1h-18.2v12.8h17.1v4.1h-17.1v12.8h18.5v4.1L322,1708.2z"/>
	<path d="M375.7,1679.9l-10.5,28.4h-4.4l-10.5-28.4h4.7l7.8,22.6h0.3l7.8-22.6H375.7z"/>
	<path d="M392.3,1708.8c-2.5,0.1-4.9-0.6-7.1-1.8c-2-1.2-3.6-3-4.6-5.1c-1.1-2.4-1.6-5-1.6-7.6c-0.1-2.7,0.5-5.3,1.6-7.7
		c1-2.1,2.5-3.9,4.5-5.2c2-1.3,4.3-1.9,6.7-1.9c1.5,0,3,0.3,4.4,0.7c1.5,0.5,2.8,1.3,3.9,2.4c1.3,1.2,2.2,2.7,2.8,4.4
		c0.7,2.1,1.1,4.4,1,6.7v1.8h-21.8v-3.8h17.4c0-1.5-0.3-2.9-1-4.3c-0.6-1.2-1.5-2.3-2.7-3c-1.2-0.7-2.7-1.1-4.1-1.1
		c-1.6,0-3.2,0.4-4.5,1.3c-1.2,0.8-2.3,2-2.9,3.3c-0.7,1.4-1,2.9-1,4.4v2.5c-0.1,1.9,0.3,3.7,1.1,5.4c0.7,1.4,1.8,2.6,3.1,3.4
		c1.4,0.8,3,1.2,4.6,1.2c1.1,0,2.1-0.2,3.1-0.5c0.9-0.3,1.7-0.8,2.4-1.5c0.7-0.7,1.2-1.5,1.6-2.5l4.2,1.2c-0.4,1.4-1.2,2.7-2.2,3.8
		c-1.1,1.1-2.4,2-3.9,2.5C395.9,1708.5,394.1,1708.8,392.3,1708.8z"/>
	<path d="M415.1,1691.2v17.1h-4.4v-28.4h4.2v4.4h0.4c0.6-1.4,1.7-2.6,3-3.5c1.6-0.9,3.4-1.4,5.2-1.3c1.7,0,3.5,0.4,5,1.2
		c1.5,0.8,2.6,2,3.4,3.6c0.9,1.9,1.3,3.9,1.2,6v18h-4.4v-17.7c0.1-1.9-0.5-3.8-1.7-5.2c-1.2-1.3-3-2-4.8-1.9c-1.3,0-2.6,0.3-3.7,0.9
		c-1.1,0.6-2,1.5-2.6,2.6C415.3,1688.3,415,1689.7,415.1,1691.2z"/>
	<path d="M453.5,1679.9v3.7h-14.7v-3.7H453.5z M443,1673.1h4.4v27c-0.1,1,0.1,1.9,0.5,2.8c0.3,0.6,0.8,1,1.4,1.2
		c0.6,0.2,1.2,0.3,1.8,0.3c0.4,0,0.8,0,1.2-0.1l0.7-0.1l0.9,3.9c-0.4,0.1-0.8,0.3-1.2,0.3c-0.7,0.1-1.3,0.2-2,0.2
		c-1.2,0-2.5-0.3-3.6-0.8c-1.2-0.5-2.2-1.4-2.9-2.4c-0.8-1.2-1.2-2.6-1.1-4.1L443,1673.1z"/>
	<path d="M471.3,1708.8c-4.8,0.1-9.2-2.6-11.2-6.9c-1.1-2.4-1.7-5-1.6-7.7c-0.1-2.7,0.5-5.3,1.6-7.7c2.9-6.2,10.3-8.9,16.6-5.9
		c2.6,1.2,4.7,3.3,5.9,5.9c1.1,2.4,1.7,5.1,1.6,7.7c0.1,2.7-0.5,5.3-1.6,7.7C480.5,1706.2,476.1,1709,471.3,1708.8z M471.3,1704.9
		c1.7,0.1,3.4-0.5,4.8-1.5c1.3-1,2.2-2.4,2.8-3.9c0.6-1.7,0.9-3.5,0.9-5.3c0-1.8-0.3-3.6-0.9-5.3c-0.5-1.6-1.5-2.9-2.8-4
		c-2.9-2-6.7-2-9.6,0c-1.3,1-2.3,2.4-2.8,4c-0.6,1.7-0.9,3.5-0.9,5.3c0,1.8,0.3,3.6,0.9,5.3c0.5,1.5,1.5,2.9,2.8,3.9
		C467.9,1704.5,469.5,1705,471.3,1704.9L471.3,1704.9z"/>
</g>
</svg>
