<svg id="Livello_1" data-name="Livello 1" xmlns="http://www.w3.org/2000/svg" viewBox="0 0 1175.99 901"><defs><style>.cls-1{fill:#efefef;}.cls-2{fill:#b8b8b8;}.cls-3{fill:#ff3a00;}.cls-4{isolation:isolate;}</style></defs><rect class="cls-1" x="96.74" y="158.85" width="285.72" height="602.99"/><rect class="cls-1" x="881.44" y="158.85" width="206.87" height="602.75"/><path class="cls-2" d="M181.19,762.14a.29.29,0,0,1-.3-.3v-603a.3.3,0,0,1,.3-.3.31.31,0,0,1,.3.3v603A.3.3,0,0,1,181.19,762.14Z"/><path class="cls-2" d="M257.46,762.14a.3.3,0,0,1-.3-.3v-603a.31.31,0,0,1,.3-.3.3.3,0,0,1,.3.3v603A.29.29,0,0,1,257.46,762.14Z"/><path class="cls-2" d="M341.91,762.14a.29.29,0,0,1-.3-.3v-603a.3.3,0,0,1,.6,0v603A.29.29,0,0,1,341.91,762.14Z"/><path class="cls-2" d="M423.63,762.14a.3.3,0,0,1-.3-.3v-603a.31.31,0,0,1,.3-.3.3.3,0,0,1,.3.3v603A.29.29,0,0,1,423.63,762.14Z"/><path class="cls-2" d="M508.08,762.14a.29.29,0,0,1-.3-.3v-603a.3.3,0,0,1,.3-.3.31.31,0,0,1,.3.3v603A.3.3,0,0,1,508.08,762.14Z"/><path class="cls-2" d="M589.8,762.14a.3.3,0,0,1-.3-.3v-603a.31.31,0,0,1,.3-.3.3.3,0,0,1,.3.3v603A.29.29,0,0,1,589.8,762.14Z"/><path class="cls-2" d="M674.25,762.14a.29.29,0,0,1-.3-.3v-603a.3.3,0,0,1,.3-.3.31.31,0,0,1,.3.3v603A.3.3,0,0,1,674.25,762.14Z"/><path class="cls-2" d="M758.69,762.14a.3.3,0,0,1-.3-.3v-603a.31.31,0,0,1,.3-.3.3.3,0,0,1,.3.3v603A.29.29,0,0,1,758.69,762.14Z"/><path class="cls-2" d="M840.42,762.14a.29.29,0,0,1-.3-.3v-603a.3.3,0,0,1,.3-.3.31.31,0,0,1,.3.3v603A.3.3,0,0,1,840.42,762.14Z"/><path class="cls-2" d="M924.86,762.14a.3.3,0,0,1-.3-.3v-603a.31.31,0,0,1,.3-.3.3.3,0,0,1,.3.3v603A.29.29,0,0,1,924.86,762.14Z"/><path class="cls-2" d="M1006.59,762.14a.29.29,0,0,1-.3-.3v-603a.3.3,0,0,1,.3-.3.31.31,0,0,1,.3.3v603A.3.3,0,0,1,1006.59,762.14Z"/><path class="cls-2" d="M96.74,762.14a.3.3,0,0,1-.3-.3v-603a.31.31,0,0,1,.3-.3.3.3,0,0,1,.3.3v603A.29.29,0,0,1,96.74,762.14Z"/><path class="cls-2" d="M1088.31,762.14a.29.29,0,0,1-.3-.3v-603a.3.3,0,0,1,.3-.3.31.31,0,0,1,.3.3v603A.3.3,0,0,1,1088.31,762.14Z"/><circle cx="96.8" cy="528.61" r="2.97"/><circle cx="99.53" cy="534.43" r="2.97"/><circle cx="102.25" cy="493.65" r="2.97"/><circle cx="107.7" cy="633.47" r="2.97"/><circle cx="126.77" cy="656.77" r="2.97"/><circle cx="140.39" cy="662.59" r="2.97"/><circle cx="143.11" cy="604.34" r="2.97"/><circle cx="145.84" cy="528.61" r="2.97"/><circle cx="154.01" cy="563.56" r="2.97"/><circle cx="156.73" cy="586.86" r="2.97"/><circle cx="159.46" cy="563.56" r="2.97"/><circle cx="162.18" cy="575.21" r="2.97"/><circle cx="164.91" cy="621.81" r="2.97"/><circle cx="170.35" cy="586.86" r="2.97"/><circle cx="173.08" cy="586.86" r="2.97"/><circle cx="175.8" cy="604.34" r="2.97"/><circle cx="178.53" cy="569.39" r="2.97"/><circle cx="181.25" cy="546.08" r="2.97"/><circle cx="183.97" cy="575.21" r="2.97"/><circle cx="189.42" cy="551.91" r="2.97"/><circle cx="192.15" cy="680.07" r="2.97"/><circle cx="194.87" cy="668.42" r="2.97"/><circle cx="197.59" cy="575.21" r="2.97"/><circle cx="200.32" cy="534.43" r="2.97"/><circle cx="203.04" cy="534.43" r="2.97"/><circle cx="205.77" cy="516.96" r="2.97"/><circle cx="219.39" cy="511.13" r="2.97"/><circle cx="222.11" cy="563.56" r="2.97"/><circle cx="230.28" cy="476.18" r="2.97"/><circle cx="233.01" cy="534.43" r="2.97"/><circle cx="235.73" cy="650.94" r="2.97"/><circle cx="238.46" cy="674.24" r="2.97"/><circle cx="241.18" cy="650.94" r="2.97"/><circle cx="243.9" cy="569.39" r="2.97"/><circle cx="246.63" cy="668.42" r="2.97"/><circle cx="249.35" cy="581.04" r="2.97"/><circle cx="252.08" cy="575.21" r="2.97"/><circle cx="254.8" cy="546.08" r="2.97"/><circle cx="257.52" cy="516.96" r="2.97"/><circle cx="260.25" cy="522.78" r="2.97"/><circle cx="268.42" cy="650.94" r="2.97"/><circle cx="271.15" cy="615.99" r="2.97"/><circle cx="273.87" cy="610.16" r="2.97"/><circle cx="276.59" cy="615.99" r="2.97"/><circle cx="279.32" cy="575.21" r="2.97"/><circle cx="282.04" cy="516.96" r="2.97"/><circle cx="284.77" cy="546.08" r="2.97"/><circle cx="287.49" cy="592.69" r="2.97"/><circle cx="290.21" cy="621.81" r="2.97"/><circle cx="292.94" cy="551.91" r="2.97"/><circle cx="295.66" cy="586.86" r="2.97"/><circle cx="298.39" cy="610.16" r="2.97"/><circle cx="301.11" cy="528.61" r="2.97"/><circle cx="306.56" cy="516.96" r="2.97"/><circle cx="309.28" cy="482" r="2.97"/><circle cx="312.01" cy="476.18" r="2.97"/><circle cx="314.73" cy="586.86" r="2.97"/><circle cx="317.45" cy="528.61" r="2.97"/><circle cx="320.18" cy="476.18" r="2.97"/><circle cx="322.9" cy="668.42" r="2.97"/><circle cx="325.63" cy="680.07" r="2.97"/><circle cx="328.35" cy="668.42" r="2.97"/><circle cx="331.08" cy="691.72" r="2.97"/><circle cx="333.8" cy="680.07" r="2.97"/><circle cx="336.52" cy="645.12" r="2.97"/><circle cx="339.25" cy="656.77" r="2.97"/><circle cx="341.97" cy="662.59" r="2.97"/><circle cx="344.7" cy="674.24" r="2.97"/><circle cx="347.42" cy="627.64" r="2.97"/><circle cx="350.14" cy="685.89" r="2.97"/><circle cx="352.87" cy="691.72" r="2.97"/><circle cx="355.59" cy="691.72" r="2.97"/><circle cx="358.32" cy="674.24" r="2.97"/><circle cx="361.04" cy="645.12" r="2.97"/><circle cx="363.76" cy="598.51" r="2.97"/><circle cx="366.49" cy="581.04" r="2.97"/><circle cx="369.21" cy="633.47" r="2.97"/><circle cx="371.94" cy="615.99" r="2.97"/><circle cx="374.66" cy="645.12" r="2.97"/><circle cx="377.38" cy="575.21" r="2.97"/><circle cx="380.11" cy="610.16" r="2.97"/><circle cx="382.83" cy="668.42" r="2.97"/><circle cx="385.56" cy="627.64" r="2.97"/><circle cx="388.28" cy="610.16" r="2.97"/><circle cx="391" cy="680.07" r="2.97"/><circle cx="393.73" cy="656.77" r="2.97"/><circle cx="399.18" cy="674.24" r="2.97"/><circle cx="401.9" cy="691.72" r="2.97"/><circle cx="404.63" cy="633.47" r="2.97"/><circle cx="407.35" cy="563.56" r="2.97"/><circle cx="410.07" cy="615.99" r="2.97"/><circle cx="412.8" cy="656.77" r="2.97"/><circle cx="420.97" cy="662.59" r="2.97"/><circle cx="423.69" cy="697.55" r="2.97"/><circle cx="426.42" cy="685.89" r="2.97"/><circle cx="429.14" cy="650.94" r="2.97"/><circle cx="431.87" cy="598.51" r="2.97"/><circle cx="434.59" cy="551.91" r="2.97"/><circle cx="437.31" cy="534.43" r="2.97"/><circle cx="440.04" cy="592.69" r="2.97"/><circle cx="442.76" cy="633.47" r="2.97"/><circle cx="445.49" cy="645.12" r="2.97"/><circle cx="448.21" cy="674.24" r="2.97"/><circle cx="450.93" cy="645.12" r="2.97"/><circle cx="453.66" cy="633.47" r="2.97"/><circle cx="456.38" cy="662.59" r="2.97"/><circle cx="459.11" cy="650.94" r="2.97"/><circle cx="461.83" cy="604.34" r="2.97"/><circle cx="464.56" cy="656.77" r="2.97"/><circle cx="467.28" cy="621.81" r="2.97"/><circle cx="470" cy="610.16" r="2.97"/><circle cx="472.73" cy="650.94" r="2.97"/><circle cx="475.45" cy="697.55" r="2.97"/><circle cx="478.18" cy="668.42" r="2.97"/><circle cx="480.9" cy="685.89" r="2.97"/><circle cx="483.62" cy="685.89" r="2.97"/><circle cx="486.35" cy="709.2" r="2.97"/><circle cx="489.07" cy="720.85" r="2.97"/><circle cx="491.8" cy="680.07" r="2.97"/><circle cx="494.52" cy="709.2" r="2.97"/><circle cx="497.24" cy="685.89" r="2.97"/><circle cx="499.97" cy="656.77" r="2.97"/><circle cx="502.69" cy="662.59" r="2.97"/><circle cx="505.42" cy="662.59" r="2.97"/><circle cx="508.14" cy="662.59" r="2.97"/><circle cx="510.86" cy="680.07" r="2.97"/><circle cx="513.59" cy="650.94" r="2.97" transform="translate(-172.12 1117.09) rotate(-85.93)"/><circle cx="516.31" cy="621.81" r="2.97"/><circle cx="519.04" cy="621.81" r="2.97"/><circle cx="521.76" cy="645.12" r="2.97"/><circle cx="524.49" cy="656.77" r="2.97"/><circle cx="527.21" cy="615.99" r="2.97"/><circle cx="529.93" cy="639.29" r="2.97"/><circle cx="532.66" cy="621.81" r="2.97"/><circle cx="535.38" cy="610.16" r="2.97"/><circle cx="538.11" cy="627.64" r="2.97"/><circle cx="540.83" cy="656.77" r="2.97"/><circle cx="543.55" cy="668.42" r="2.97"/><circle cx="546.28" cy="662.59" r="2.97"/><circle cx="549" cy="668.42" r="2.97"/><circle cx="551.73" cy="674.24" r="2.97"/><circle cx="554.45" cy="668.42" r="2.97"/><circle cx="557.17" cy="656.77" r="2.97"/><circle cx="559.9" cy="691.72" r="2.97"/><circle cx="562.62" cy="709.2" r="2.97"/><circle cx="565.35" cy="680.07" r="2.97"/><circle cx="568.07" cy="668.42" r="2.97"/><circle cx="570.79" cy="703.37" r="2.97"/><circle cx="573.52" cy="697.55" r="2.97"/><circle cx="576.24" cy="680.07" r="2.97"/><circle cx="578.97" cy="680.07" r="2.97"/><circle cx="581.69" cy="685.89" r="2.97"/><circle cx="584.41" cy="668.42" r="2.97"/><circle cx="587.14" cy="656.77" r="2.97" transform="translate(-72.01 1241.23) rotate(-89.77)"/><circle cx="589.86" cy="639.29" r="2.97"/><circle cx="592.59" cy="610.16" r="2.97"/><circle cx="595.31" cy="604.34" r="2.97"/><circle cx="598.04" cy="627.64" r="2.97" transform="translate(-2.59 2.48) rotate(-0.24)"/><circle cx="600.76" cy="627.64" r="2.97"/><circle cx="603.48" cy="581.04" r="2.97"/><circle cx="606.21" cy="604.34" r="2.97"/><circle cx="608.93" cy="610.16" r="2.97"/><circle cx="611.66" cy="621.81" r="2.97"/><circle cx="614.38" cy="645.12" r="2.97"/><circle cx="617.1" cy="662.59" r="2.97"/><circle cx="619.83" cy="645.12" r="2.97"/><circle cx="622.55" cy="610.16" r="2.97"/><circle cx="625.28" cy="604.34" r="2.97"/><circle cx="628" cy="592.69" r="2.97"/><circle cx="630.72" cy="586.86" r="2.97"/><circle cx="633.45" cy="627.64" r="2.97"/><circle cx="636.17" cy="627.64" r="2.97"/><circle cx="638.9" cy="650.94" r="2.97"/><circle cx="641.62" cy="621.81" r="2.97"/><circle cx="644.34" cy="586.86" r="2.97"/><circle cx="647.07" cy="592.69" r="2.97"/><circle cx="649.79" cy="621.81" r="2.97"/><circle cx="652.52" cy="633.47" r="2.97"/><circle cx="655.24" cy="685.89" r="2.97"/><circle cx="657.97" cy="674.24" r="2.97"/><circle cx="660.69" cy="668.42" r="2.97"/><circle cx="663.41" cy="656.77" r="2.97"/><circle cx="666.14" cy="656.77" r="2.97"/><circle cx="668.86" cy="645.12" r="2.97"/><circle cx="671.59" cy="615.99" r="2.97"/><circle cx="674.31" cy="656.77" r="2.97"/><circle cx="677.03" cy="650.94" r="2.97"/><circle cx="679.76" cy="662.59" r="2.97"/><circle cx="682.48" cy="645.12" r="2.97"/><circle cx="685.21" cy="627.64" r="2.97"/><circle cx="687.93" cy="604.34" r="2.97"/><circle cx="690.65" cy="551.91" r="2.97"/><circle cx="693.38" cy="551.91" r="2.97"/><circle cx="696.1" cy="610.16" r="2.97"/><circle cx="698.83" cy="668.42" r="2.97"/><circle cx="701.55" cy="633.47" r="2.97"/><circle cx="704.27" cy="581.04" r="2.97"/><circle cx="707" cy="581.04" r="2.97"/><circle cx="709.72" cy="598.51" r="2.97"/><circle cx="712.45" cy="656.77" r="2.97"/><circle cx="715.17" cy="720.85" r="2.97"/><circle cx="717.9" cy="709.2" r="2.97"/><circle cx="720.62" cy="680.07" r="2.97"/><circle cx="723.34" cy="685.89" r="2.97"/><circle cx="726.07" cy="703.37" r="2.97"/><circle cx="728.79" cy="668.42" r="2.97"/><circle cx="731.52" cy="662.59" r="2.97"/><circle cx="734.24" cy="685.89" r="2.97"/><circle cx="736.96" cy="685.89" r="2.97"/><circle cx="739.69" cy="650.94" r="2.97"/><circle cx="742.41" cy="674.24" r="2.97"/><circle cx="745.14" cy="650.94" r="2.97"/><circle cx="747.86" cy="627.64" r="2.97"/><circle cx="750.58" cy="645.12" r="2.97"/><circle cx="753.31" cy="645.12" r="2.97"/><circle cx="756.03" cy="645.12" r="2.97"/><circle cx="758.76" cy="615.99" r="2.97"/><circle cx="761.48" cy="650.94" r="2.97"/><circle cx="764.2" cy="656.77" r="2.97"/><circle cx="766.93" cy="645.12" r="2.97"/><circle cx="769.65" cy="674.24" r="2.97"/><circle cx="772.38" cy="703.37" r="2.97"/><circle cx="775.1" cy="668.42" r="2.97"/><circle cx="777.82" cy="662.59" r="2.97"/><circle cx="780.55" cy="604.34" r="2.97"/><circle cx="783.27" cy="656.77" r="2.97"/><circle cx="786" cy="633.47" r="2.97"/><circle cx="788.72" cy="639.29" r="2.97"/><circle cx="791.45" cy="674.24" r="2.97"/><circle cx="796.89" cy="656.77" r="2.97"/><circle cx="799.62" cy="592.69" r="2.97"/><circle cx="802.34" cy="563.56" r="2.97"/><circle cx="805.07" cy="645.12" r="2.97"/><circle cx="807.79" cy="703.37" r="2.97"/><circle cx="810.51" cy="685.89" r="2.97"/><circle cx="813.24" cy="685.89" r="2.97"/><circle cx="815.96" cy="674.24" r="2.97"/><circle cx="818.69" cy="691.72" r="2.97"/><circle cx="821.41" cy="691.72" r="2.97"/><circle cx="824.13" cy="645.12" r="2.97"/><circle cx="826.86" cy="656.77" r="2.97"/><circle cx="829.58" cy="662.59" r="2.97"/><circle cx="832.31" cy="650.94" r="2.97"/><circle cx="835.03" cy="650.94" r="2.97"/><circle cx="837.75" cy="650.94" r="2.97"/><circle cx="840.48" cy="662.59" r="2.97"/><circle cx="843.2" cy="633.47" r="2.97"/><circle cx="845.93" cy="639.29" r="2.97"/><circle cx="848.65" cy="662.59" r="2.97"/><circle cx="851.38" cy="575.21" r="2.97"/><circle cx="854.1" cy="540.26" r="2.97"/><circle cx="856.82" cy="563.56" r="2.97"/><circle cx="859.55" cy="668.42" r="2.97"/><circle cx="862.27" cy="662.59" r="2.97"/><circle cx="865" cy="662.59" r="2.97"/><circle cx="867.72" cy="697.55" r="2.97"/><circle cx="870.44" cy="668.42" r="2.97"/><circle cx="873.17" cy="633.47" r="2.97"/><circle cx="875.89" cy="680.07" r="2.97"/><circle cx="878.62" cy="662.59" r="2.97"/><circle cx="881.34" cy="685.89" r="2.97"/><circle cx="884.06" cy="627.64" r="2.97"/><circle cx="886.79" cy="540.26" r="2.97"/><circle cx="889.51" cy="586.86" r="2.97"/><circle cx="892.24" cy="645.12" r="2.97"/><circle cx="894.96" cy="656.77" r="2.97"/><circle cx="897.68" cy="627.64" r="2.97"/><circle cx="900.41" cy="610.16" r="2.97"/><circle cx="903.13" cy="581.04" r="2.97"/><circle cx="905.86" cy="569.39" r="2.97"/><circle cx="908.58" cy="482" r="2.97"/><circle cx="916.75" cy="610.16" r="2.97"/><circle cx="919.48" cy="569.39" r="2.97"/><circle cx="922.2" cy="522.78" r="2.97"/><circle cx="924.93" cy="540.26" r="2.97"/><circle cx="927.65" cy="569.39" r="2.97"/><circle cx="930.37" cy="499.48" r="2.97"/><circle cx="933.1" cy="540.26" r="2.97"/><circle cx="935.82" cy="581.04" r="2.97"/><circle cx="938.55" cy="586.86" r="2.97"/><circle cx="941.27" cy="592.69" r="2.97"/><circle cx="943.99" cy="627.64" r="2.97"/><circle cx="946.72" cy="650.94" r="2.97"/><circle cx="949.44" cy="586.86" r="2.97"/><circle cx="952.17" cy="516.96" r="2.97"/><circle cx="954.89" cy="546.08" r="2.97"/><circle cx="960.34" cy="487.83" r="2.97"/><circle cx="963.06" cy="493.65" r="2.97"/><circle cx="965.79" cy="499.48" r="2.97"/><circle cx="968.51" cy="493.65" r="2.97"/><circle cx="971.24" cy="516.96" r="2.97"/><circle cx="973.96" cy="546.08" r="2.97"/><circle cx="976.68" cy="528.61" r="2.97"/><circle cx="979.41" cy="685.89" r="2.97"/><circle cx="982.13" cy="744.15" r="2.97"/><circle cx="984.86" cy="645.12" r="2.97"/><circle cx="987.58" cy="581.04" r="2.97"/><circle cx="990.3" cy="522.78" r="2.97"/><circle cx="995.75" cy="551.91" r="2.97"/><circle cx="998.48" cy="586.86" r="2.97"/><circle cx="1003.92" cy="487.83" r="2.97"/><circle cx="1014.82" cy="511.13" r="2.97"/><circle cx="1028.44" cy="534.43" r="2.97"/><circle cx="1031.16" cy="581.04" r="2.97"/><circle cx="1033.89" cy="575.21" r="2.97"/><circle cx="1036.61" cy="487.83" r="2.97"/><circle cx="1052.96" cy="487.83" r="2.97"/><circle cx="1055.68" cy="499.48" r="2.97"/><circle cx="1058.41" cy="487.83" r="2.97"/><circle class="cls-3" cx="104.98" cy="470.35" r="2.97"/><circle class="cls-3" cx="110.42" cy="458.7" r="2.97"/><circle class="cls-3" cx="113.15" cy="365.49" r="2.97"/><circle class="cls-3" cx="115.87" cy="289.76" r="2.97"/><circle class="cls-3" cx="118.6" cy="353.84" r="2.97"/><circle class="cls-3" cx="121.32" cy="371.32" r="2.97"/><circle class="cls-3" cx="124.04" cy="447.05" r="2.97"/><circle class="cls-3" cx="129.49" cy="435.4" r="2.97"/><circle class="cls-3" cx="132.22" cy="313.07" r="2.97"/><circle class="cls-3" cx="134.94" cy="313.07" r="2.97"/><circle class="cls-3" cx="137.66" cy="470.35" r="2.97"/><circle class="cls-3" cx="148.56" cy="458.7" r="2.97"/><circle class="cls-3" cx="151.29" cy="447.05" r="2.97"/><circle class="cls-3" cx="186.7" cy="441.23" r="2.97"/><circle class="cls-3" cx="208.49" cy="435.4" r="2.97"/><circle class="cls-3" cx="211.22" cy="435.4" r="2.97"/><circle class="cls-3" cx="213.94" cy="359.67" r="2.97"/><circle class="cls-3" cx="216.66" cy="330.54" r="2.97"/><circle class="cls-3" cx="224.84" cy="435.4" r="2.97"/><circle class="cls-3" cx="227.56" cy="458.7" r="2.97"/><circle class="cls-3" cx="262.97" cy="406.27" r="2.97"/><circle class="cls-3" cx="265.7" cy="447.05" r="2.97"/><circle class="cls-3" cx="303.83" cy="452.88" r="2.97"/><circle class="cls-3" cx="911.31" cy="406.27" r="2.97"/><circle class="cls-3" cx="914.03" cy="423.75" r="2.97"/><circle class="cls-3" cx="957.61" cy="429.57" r="2.97"/><circle class="cls-3" cx="993.03" cy="447.05" r="2.97"/><circle class="cls-3" cx="1001.2" cy="458.7" r="2.97"/><circle class="cls-3" cx="1006.65" cy="330.54" r="2.97"/><circle class="cls-3" cx="1009.37" cy="313.07" r="2.97"/><circle class="cls-3" cx="1012.1" cy="388.8" r="2.97"/><circle class="cls-3" cx="1017.54" cy="435.4" r="2.97"/><circle class="cls-3" cx="1025.72" cy="412.1" r="2.97"/><circle class="cls-3" cx="1039.34" cy="458.7" r="2.97"/><circle class="cls-3" cx="1042.06" cy="289.76" r="2.97"/><circle class="cls-3" cx="1044.79" cy="324.72" r="2.97"/><circle class="cls-3" cx="1047.51" cy="330.54" r="2.97"/><circle class="cls-3" cx="1050.23" cy="365.49" r="2.97"/><circle class="cls-3" cx="1061.13" cy="435.4" r="2.97"/><circle class="cls-3" cx="1063.85" cy="429.57" r="2.97"/><circle cx="1066.58" cy="540.26" r="2.97"/><circle cx="1069.3" cy="528.61" r="2.97"/><circle cx="1072.03" cy="482" r="2.97"/><circle cx="1074.75" cy="604.34" r="2.97"/><circle cx="1077.47" cy="633.47" r="2.97"/><circle cx="1080.2" cy="621.81" r="2.97"/><circle cx="1082.92" cy="563.56" r="2.97"/><circle cx="1085.65" cy="516.96" r="2.97"/><circle cx="1088.37" cy="563.56" r="2.97"/><g class="cls-4"><path d="M206.91,774.12h6.78v1.19h-5.42V779h4.29v1.19h-4.29v4.17h-1.36Z"/><path d="M215.48,774.12h6.9v1.19h-5.53v3.25h4.4v1.19h-4.4v3.42h5.65v1.19h-7Z"/><path d="M224.52,774.12h4.23c2.22,0,3.27,1,3.27,2.68a2.16,2.16,0,0,1-1.61,2.14V779a2.32,2.32,0,0,1,2,2.32c0,1.74-1.18,3-3.39,3h-4.53Zm1.37,1.19v3.16h2.86a1.67,1.67,0,0,0,1.9-1.68c0-.9-.53-1.48-1.9-1.48Zm0,4.35v3.51h3.16a1.77,1.77,0,0,0,2-1.83c0-1-.66-1.68-2-1.68Z"/></g><g class="cls-4"><path d="M132.34,782.87h-.05a3.6,3.6,0,0,1-3.34,1.67,5.31,5.31,0,0,1,.05-10.6,4.29,4.29,0,0,1,4.47,3.22H132a2.91,2.91,0,0,0-3-2c-2.21,0-3.63,1.73-3.63,4s1.48,4,3.58,4c1.71,0,3.27-1,3.27-2.86v-.3H129v-1.19h4.47v5.42h-.89Z"/><path d="M135.91,774.12h6.9v1.19h-5.53v3.25h4.4v1.19h-4.4v3.42h5.65v1.19h-7Z"/><path d="M145,774.12h1.31L152,782H152l-.06-7.92h1.37v10.24H152l-5.65-7.86h-.06l.06,7.86H145Z"/></g><g class="cls-4"><path d="M284.71,774.12h1.67l3.76,8.39h0l3.71-8.39h1.66v10.24h-1.36l.12-8.09h-.06l-3.57,8.09h-1.08L286,776.44H286l.12,7.92h-1.37Z"/><path d="M300.84,774.12h1.61l3.81,10.24h-1.43l-1-2.68h-4.49l-1,2.68H297Zm.75,1.43-1.79,4.94h3.63l-1.78-4.94Z"/><path d="M307.75,774.12h3.87c2.33,0,3.57,1.12,3.57,3a3,3,0,0,1-2.25,3.05l2.6,4.15h-1.48l-2.55-4h-2.39v4h-1.37Zm1.37,1.19v3.87h2.56a1.94,1.94,0,0,0,2.14-2c0-1.13-.77-1.85-2.14-1.85Z"/></g><g class="cls-4"><path d="M372.51,774.12h1.61l3.8,10.24H376.5l-1-2.68H371l-1,2.68H368.7Zm.74,1.43-1.78,4.94h3.63l-1.79-4.94Z"/><path d="M379.41,774.12h3.87c2.34,0,3.63,1.36,3.63,3.28a3.3,3.3,0,0,1-3.63,3.39h-2.5v3.57h-1.37Zm1.37,1.19v4.29h2.56a2.06,2.06,0,0,0,2.2-2.2,2,2,0,0,0-2.2-2.09Z"/><path d="M388.88,774.12h3.87c2.33,0,3.57,1.12,3.57,3a3,3,0,0,1-2.25,3.05l2.6,4.15h-1.48l-2.55-4h-2.39v4h-1.37Zm1.37,1.19v3.87h2.56a1.94,1.94,0,0,0,2.14-2c0-1.13-.78-1.85-2.14-1.85Z"/></g><g class="cls-4"><path d="M450.31,774.12H452l3.77,8.39h0l3.7-8.39h1.67v10.24h-1.37l.12-8.09h-.06l-3.57,8.09h-1.07l-3.57-7.92h-.06l.12,7.92h-1.37Z"/><path d="M466.44,774.12H468l3.81,10.24h-1.43l-1-2.68H465l-1,2.68h-1.37Zm.74,1.43-1.78,4.94H469l-1.79-4.94Z"/><path d="M480.78,782.87h0a3.6,3.6,0,0,1-3.35,1.67,5.31,5.31,0,0,1,.06-10.6,4.28,4.28,0,0,1,4.46,3.22h-1.43a2.9,2.9,0,0,0-3-2c-2.22,0-3.63,1.73-3.63,4s1.47,4,3.57,4c1.71,0,3.27-1,3.27-2.86v-.3h-3.21v-1.19h4.46v5.42H481Z"/></g><g class="cls-4"><path d="M545.36,782.87h0a3.6,3.6,0,0,1-3.35,1.67,5.31,5.31,0,0,1,.06-10.6,4.28,4.28,0,0,1,4.46,3.22h-1.42a2.92,2.92,0,0,0-3-2c-2.22,0-3.63,1.73-3.63,4s1.47,4,3.57,4c1.71,0,3.27-1,3.27-2.86v-.3H542v-1.19h4.46v5.42h-.89Z"/><path d="M548.94,774.12h1.36v10.24h-1.36Z"/><path d="M552.69,774.12h1.36v6.19c0,1.88.88,3,2.74,3s2.74-1.1,2.74-3v-6.19h1.37v6.19c0,3-1.68,4.23-4.11,4.23s-4.1-1.19-4.1-4.23Z"/></g><g class="cls-4"><path d="M618.76,774.12h1.37v9h5v1.19h-6.36Z"/><path d="M626.38,774.12h1.36v6.19c0,1.88.88,3,2.74,3s2.74-1.1,2.74-3v-6.19h1.37v6.19c0,3-1.68,4.23-4.11,4.23s-4.1-1.19-4.1-4.23Z"/><path d="M644.83,782.87h-.05a3.6,3.6,0,0,1-3.35,1.67,5.31,5.31,0,0,1,.06-10.6,4.29,4.29,0,0,1,4.47,3.22h-1.43a2.92,2.92,0,0,0-3-2c-2.21,0-3.63,1.73-3.63,4s1.48,4,3.57,4c1.71,0,3.28-1,3.28-2.86v-.3h-3.22v-1.19H646v5.42h-.9Z"/></g><g class="cls-4"><path d="M704.79,774.12h1.61l3.81,10.24h-1.43l-1-2.68h-4.49l-1,2.68H701Zm.75,1.43-1.79,4.94h3.63l-1.78-4.94Z"/><path d="M719.14,782.87h0a3.6,3.6,0,0,1-3.35,1.67,5.31,5.31,0,0,1,.06-10.6,4.29,4.29,0,0,1,4.47,3.22h-1.43a2.92,2.92,0,0,0-3-2c-2.21,0-3.63,1.73-3.63,4s1.48,4,3.57,4c1.71,0,3.28-1,3.28-2.86v-.3H715.8v-1.19h4.47v5.42h-.9Z"/><path d="M727.05,773.94a5.31,5.31,0,0,1,0,10.6c-3,0-5-2.25-5-5.3S724.06,773.94,727.05,773.94Zm0,9.35c2.16,0,3.57-1.73,3.57-4s-1.41-4-3.57-4-3.57,1.73-3.57,4S724.9,783.29,727.05,783.29Z"/></g><g class="cls-4"><path d="M788.33,781.44c0,1.12,1,2,2.56,2s2.62-.7,2.62-1.91c0-2.71-6.4-.65-6.4-4.58,0-1.74,1.51-3,3.78-3s3.75,1.09,3.75,2.92h-1.37c0-1.13-1-1.78-2.38-1.78s-2.38.58-2.38,1.72c0,2.68,6.43.57,6.43,4.64,0,1.85-1.49,3.1-4.05,3.1s-3.93-1.25-3.93-3.1Z"/><path d="M797.08,774.12H804v1.19h-5.54v3.25h4.41v1.19h-4.41v3.42h5.66v1.19h-7Z"/><path d="M805,774.12h8.51v1.16h-3.57v9.08h-1.37v-9.08H805Z"/></g><g class="cls-4"><path d="M874.52,773.94a5.31,5.31,0,0,1,0,10.6c-3,0-5-2.25-5-5.3S871.53,773.94,874.52,773.94Zm0,9.35c2.16,0,3.57-1.73,3.57-4s-1.41-4-3.57-4-3.57,1.73-3.57,4S872.37,783.29,874.52,783.29Z"/><path d="M879.76,774.12h8.51v1.16H884.7v9.08h-1.37v-9.08h-3.57Z"/><path d="M888.51,774.12H897v1.16h-3.57v9.08h-1.37v-9.08h-3.57Z"/></g><g class="cls-4"><path d="M951.84,774.12h1.31l5.66,7.92h.06l-.06-7.92h1.37v10.24h-1.31l-5.66-7.86h-.06l.06,7.86h-1.37Z"/><path d="M967.14,773.94a5.31,5.31,0,0,1,0,10.6c-3,0-5-2.25-5-5.3S964.15,773.94,967.14,773.94Zm0,9.35c2.16,0,3.57-1.73,3.57-4s-1.41-4-3.57-4-3.57,1.73-3.57,4S965,783.29,967.14,783.29Z"/><path d="M972.62,774.12h1.43l3.06,8.81h.06l3.06-8.81h1.37l-3.75,10.24h-1.51Z"/></g><g class="cls-4"><path d="M1036.67,774.12h3.16c3.52,0,5.35,2.13,5.35,5.12s-1.83,5.12-5.35,5.12h-3.16Zm1.37,1.19v7.86h1.79a3.93,3.93,0,0,0,0-7.86Z"/><path d="M1047.15,774.12h1.37v10.24h-1.37Z"/><path d="M1055.42,773.94a4.13,4.13,0,0,1,4.34,3.4h-1.41a2.75,2.75,0,0,0-2.93-2.15c-2.1,0-3.51,1.67-3.51,4s1.41,4,3.45,4a2.74,2.74,0,0,0,3-2.15h1.41a4.19,4.19,0,0,1-4.4,3.4c-2.87,0-4.88-2.19-4.88-5.3S1052.49,773.94,1055.42,773.94Z"/></g><g class="cls-4"><path d="M68.4,761.3c0-3,1-5.3,3.57-5.3s3.57,2.33,3.57,5.3-1,5.3-3.57,5.3S68.4,764.28,68.4,761.3Zm5.77,0c0-2.62-.71-4.1-2.2-4.1s-2.2,1.48-2.2,4.1.71,4.11,2.2,4.11S74.17,763.92,74.17,761.3Z"/></g><g class="cls-4"><path d="M60.19,700.16l3.27-2.26h1V707h2.44v1.14H60.54V707h2.62v-7.48l-2.38,1.65Z"/><path d="M68.4,703c0-3,1-5.3,3.57-5.3s3.57,2.32,3.57,5.3-1,5.29-3.57,5.29S68.4,706,68.4,703Zm5.77,0c0-2.62-.71-4.11-2.2-4.11s-2.2,1.49-2.2,4.11.71,4.1,2.2,4.1S74.17,705.64,74.17,703Z"/></g><g class="cls-4"><path d="M62.63,645.45l1.13-.77c1.05-.73,1.72-1.13,1.72-2.32a1.75,1.75,0,0,0-1.9-1.79c-1.31,0-2,.72-2.08,2.08H60.31a3,3,0,0,1,3.27-3.21,2.89,2.89,0,0,1,3.21,2.92c0,1.78-1.14,2.42-2.2,3.15l-1.13.77c-1.55,1.06-1.79,1.8-1.84,2.44h5.29v1.13H60.13A4.83,4.83,0,0,1,62.63,645.45Z"/><path d="M68.4,644.74c0-3,1-5.3,3.57-5.3s3.57,2.32,3.57,5.3S74.53,650,72,650,68.4,647.71,68.4,644.74Zm5.77,0c0-2.62-.71-4.11-2.2-4.11s-2.2,1.49-2.2,4.11.71,4.1,2.2,4.1S74.17,647.36,74.17,644.74Z"/></g><g class="cls-4"><path d="M61.26,588.48a2,2,0,0,0,2.2,2.14c1.28,0,2.2-.69,2.2-1.89a2,2,0,0,0-2.2-1.89h-.77v-1.13h.77a1.76,1.76,0,0,0,1.84-1.77,1.67,1.67,0,0,0-1.84-1.65,1.7,1.7,0,0,0-1.84,1.84h-1.2a2.83,2.83,0,0,1,3-3,2.8,2.8,0,0,1,3.09,2.76,2.62,2.62,0,0,1-1.48,2.3v.06a2.61,2.61,0,0,1,1.9,2.55c0,1.83-1.56,2.92-3.51,2.92S60,590.68,60,588.48Z"/><path d="M68.4,586.45c0-3,1-5.29,3.57-5.29s3.57,2.32,3.57,5.29-1,5.3-3.57,5.3S68.4,589.43,68.4,586.45Zm5.77,0c0-2.62-.71-4.1-2.2-4.1s-2.2,1.48-2.2,4.1.71,4.11,2.2,4.11S74.17,589.07,74.17,586.45Z"/></g><g class="cls-4"><path d="M59.77,529.78l4.94-6.73h1.07v6.55h1.49v1.13H65.78v2.56H64.47v-2.56h-4.7Zm4.7-.18v-4.51l-3.36,4.51Z"/><path d="M68.4,528.17c0-3,1-5.29,3.57-5.29s3.57,2.32,3.57,5.29-1,5.3-3.57,5.3S68.4,531.15,68.4,528.17Zm5.77,0c0-2.62-.71-4.1-2.2-4.1s-2.2,1.48-2.2,4.1.71,4.11,2.2,4.11S74.17,530.79,74.17,528.17Z"/></g><g class="cls-4"><path d="M61.32,472.27a2,2,0,0,0,2.2,1.79,2.24,2.24,0,0,0,0-4.47,2.47,2.47,0,0,0-2,1l-1.19-.06.29-5.78h5.78V466H61.85l-.18,3.22h.06a2.72,2.72,0,0,1,2-.72A3.16,3.16,0,0,1,67,471.74a3.32,3.32,0,0,1-3.51,3.45A3.17,3.17,0,0,1,60,472.27Z"/><path d="M68.4,469.89c0-3,1-5.3,3.57-5.3s3.57,2.33,3.57,5.3-1,5.3-3.57,5.3S68.4,472.87,68.4,469.89Zm5.77,0c0-2.62-.71-4.1-2.2-4.1s-2.2,1.48-2.2,4.1S70.48,474,72,474,74.17,472.51,74.17,469.89Z"/></g><g class="cls-4"><path d="M63.88,406.31A2.83,2.83,0,0,1,67,409.05H65.66a1.65,1.65,0,0,0-1.78-1.61c-1.21,0-2.43,1.06-2.5,4.1A2.93,2.93,0,0,1,64,410.18a3.09,3.09,0,0,1,3.21,3.33,3.31,3.31,0,0,1-3.45,3.4c-2,0-3.75-1.3-3.75-5.06C60,407.73,61.93,406.31,63.88,406.31Zm-2.32,7.22a2.14,2.14,0,0,0,2.14,2.25,2.24,2.24,0,0,0,.12-4.47A2.19,2.19,0,0,0,61.56,413.53Z"/><path d="M68.4,411.61c0-3,1-5.3,3.57-5.3s3.57,2.32,3.57,5.3-1,5.3-3.57,5.3S68.4,414.58,68.4,411.61Zm5.77,0c0-2.62-.71-4.11-2.2-4.11s-2.2,1.49-2.2,4.11.71,4.11,2.2,4.11S74.17,414.23,74.17,411.61Z"/></g><g class="cls-4"><path d="M65.66,349.4H60.07v-1.19h7v1l-4.34,9.29H61.38Z"/><path d="M68.4,353.33c0-3,1-5.3,3.57-5.3s3.57,2.32,3.57,5.3-1,5.29-3.57,5.29S68.4,356.3,68.4,353.33Zm5.77,0c0-2.62-.71-4.11-2.2-4.11s-2.2,1.49-2.2,4.11.71,4.1,2.2,4.1S74.17,356,74.17,353.33Z"/></g><g class="cls-4"><path d="M61.85,294.87v-.06a2.49,2.49,0,0,1-1.48-2.29c0-1.61,1.22-2.77,3.15-2.77s3.15,1.16,3.15,2.77a2.49,2.49,0,0,1-1.48,2.29v.06a2.61,2.61,0,0,1,1.9,2.55c0,1.83-1.44,2.92-3.57,2.92S60,299.25,60,297.42A2.61,2.61,0,0,1,61.85,294.87Zm1.67,4.34c1.32,0,2.26-.68,2.26-1.89a2.3,2.3,0,0,0-4.52,0C61.26,298.53,62.2,299.21,63.52,299.21Zm1.9-6.68a1.91,1.91,0,0,0-3.8,0,1.9,1.9,0,0,0,3.8,0Z"/><path d="M68.4,295c0-3,1-5.29,3.57-5.29s3.57,2.32,3.57,5.29-1,5.3-3.57,5.3S68.4,298,68.4,295Zm5.77,0c0-2.61-.71-4.1-2.2-4.1s-2.2,1.49-2.2,4.1.71,4.11,2.2,4.11S74.17,297.66,74.17,295Z"/></g><g class="cls-4"><path d="M63.28,242.06a2.94,2.94,0,0,1-3.21-2.74h1.31a1.79,1.79,0,0,0,1.9,1.61c1.38,0,2.32-1.06,2.38-4.08A3,3,0,0,1,63,238.19a3.09,3.09,0,0,1-3.21-3.33,3.3,3.3,0,0,1,3.45-3.39c2,0,3.75,1.29,3.75,5.06C67,240.65,65.41,242.06,63.28,242.06Zm2.2-7.22a2.17,2.17,0,1,0-4.34,0,2.1,2.1,0,0,0,2.08,2.2A2.19,2.19,0,0,0,65.48,234.84Z"/><path d="M68.4,236.76c0-3,1-5.29,3.57-5.29s3.57,2.32,3.57,5.29-1,5.3-3.57,5.3S68.4,239.74,68.4,236.76Zm5.77,0c0-2.62-.71-4.1-2.2-4.1s-2.2,1.48-2.2,4.1.71,4.11,2.2,4.11S74.17,239.38,74.17,236.76Z"/></g><g class="cls-4"><path d="M51.73,175.62,55,173.36h1v9.11h2.44v1.13H52.09v-1.13h2.62V175l-2.38,1.66Z"/><path d="M60,178.48c0-3,1-5.3,3.57-5.3s3.57,2.33,3.57,5.3-1,5.3-3.57,5.3S60,181.46,60,178.48Zm5.77,0c0-2.62-.71-4.1-2.2-4.1s-2.2,1.48-2.2,4.1.71,4.11,2.2,4.11S65.72,181.1,65.72,178.48Z"/><path d="M68.4,178.48c0-3,1-5.3,3.57-5.3s3.57,2.33,3.57,5.3-1,5.3-3.57,5.3S68.4,181.46,68.4,178.48Zm5.77,0c0-2.62-.71-4.1-2.2-4.1s-2.2,1.48-2.2,4.1.71,4.11,2.2,4.11S74.17,181.1,74.17,178.48Z"/></g><g class="cls-4"><path class="cls-2" d="M1108,700.16l3.27-2.26h1V707h2.44v1.14h-6.36V707h2.61v-7.48l-2.38,1.65Z"/><path class="cls-2" d="M1116.18,703c0-3,1-5.3,3.57-5.3s3.57,2.32,3.57,5.3-1,5.29-3.57,5.29S1116.18,706,1116.18,703Zm5.78,0c0-2.62-.72-4.11-2.21-4.11s-2.2,1.49-2.2,4.11.72,4.1,2.2,4.1S1122,705.64,1122,703Z"/></g><g class="cls-4"><path class="cls-2" d="M1110.41,645.45l1.13-.77c1.06-.73,1.73-1.13,1.73-2.32a1.76,1.76,0,0,0-1.91-1.79c-1.31,0-2,.72-2.08,2.08h-1.19a3,3,0,0,1,3.27-3.21c1.88,0,3.21,1.09,3.21,2.92s-1.14,2.42-2.2,3.15l-1.13.77c-1.55,1.06-1.78,1.8-1.84,2.44h5.29v1.13h-6.78A4.84,4.84,0,0,1,1110.41,645.45Z"/><path class="cls-2" d="M1116.18,644.74c0-3,1-5.3,3.57-5.3s3.57,2.32,3.57,5.3-1,5.29-3.57,5.29S1116.18,647.71,1116.18,644.74Zm5.78,0c0-2.62-.72-4.11-2.21-4.11s-2.2,1.49-2.2,4.11.72,4.1,2.2,4.1S1122,647.36,1122,644.74Z"/></g><g class="cls-4"><path class="cls-2" d="M1109,588.48a2,2,0,0,0,2.2,2.14c1.28,0,2.2-.69,2.2-1.89a2,2,0,0,0-2.2-1.89h-.77v-1.13h.77a1.77,1.77,0,0,0,1.85-1.77,1.67,1.67,0,0,0-1.85-1.65,1.7,1.7,0,0,0-1.84,1.84h-1.19a3.07,3.07,0,0,1,6.13-.21,2.63,2.63,0,0,1-1.49,2.3v.06a2.61,2.61,0,0,1,1.9,2.55c0,1.83-1.56,2.92-3.51,2.92s-3.45-1.07-3.45-3.27Z"/><path class="cls-2" d="M1116.18,586.45c0-3,1-5.29,3.57-5.29s3.57,2.32,3.57,5.29-1,5.3-3.57,5.3S1116.18,589.43,1116.18,586.45Zm5.78,0c0-2.62-.72-4.1-2.21-4.1s-2.2,1.48-2.2,4.1.72,4.11,2.2,4.11S1122,589.07,1122,586.45Z"/></g><g class="cls-4"><path class="cls-2" d="M1107.55,529.78l4.94-6.73h1.07v6.55h1.49v1.13h-1.49v2.56h-1.31v-2.56h-4.7Zm4.7-.18v-4.51l-3.36,4.51Z"/><path class="cls-2" d="M1116.18,528.17c0-3,1-5.29,3.57-5.29s3.57,2.32,3.57,5.29-1,5.3-3.57,5.3S1116.18,531.15,1116.18,528.17Zm5.78,0c0-2.62-.72-4.1-2.21-4.1s-2.2,1.48-2.2,4.1.72,4.11,2.2,4.11S1122,530.79,1122,528.17Z"/></g><g class="cls-4"><path class="cls-2" d="M1109.1,472.27a2,2,0,0,0,2.2,1.79,2.24,2.24,0,0,0,0-4.47,2.47,2.47,0,0,0-2,1l-1.19-.06.29-5.78h5.78V466h-4.58l-.18,3.22h.06a2.67,2.67,0,0,1,2-.72,3.16,3.16,0,0,1,3.33,3.28,3.32,3.32,0,0,1-3.51,3.45,3.17,3.17,0,0,1-3.51-2.92Z"/><path class="cls-2" d="M1116.18,469.89c0-3,1-5.3,3.57-5.3s3.57,2.33,3.57,5.3-1,5.3-3.57,5.3S1116.18,472.87,1116.18,469.89Zm5.78,0c0-2.62-.72-4.1-2.21-4.1s-2.2,1.48-2.2,4.1.72,4.11,2.2,4.11S1122,472.51,1122,469.89Z"/></g><g class="cls-4"><path class="cls-2" d="M1111.66,406.31a2.83,2.83,0,0,1,3.09,2.74h-1.31a1.65,1.65,0,0,0-1.78-1.61c-1.21,0-2.43,1.06-2.5,4.1a3,3,0,0,1,2.62-1.36,3.09,3.09,0,0,1,3.21,3.33,3.31,3.31,0,0,1-3.45,3.4c-2,0-3.75-1.3-3.75-5.06C1107.79,407.73,1109.71,406.31,1111.66,406.31Zm-2.32,7.22a2.14,2.14,0,0,0,2.14,2.25,2.24,2.24,0,0,0,.12-4.47A2.19,2.19,0,0,0,1109.34,413.53Z"/><path class="cls-2" d="M1116.18,411.61c0-3,1-5.3,3.57-5.3s3.57,2.32,3.57,5.3-1,5.3-3.57,5.3S1116.18,414.58,1116.18,411.61Zm5.78,0c0-2.62-.72-4.11-2.21-4.11s-2.2,1.49-2.2,4.11.72,4.11,2.2,4.11S1122,414.23,1122,411.61Z"/></g><g class="cls-4"><path class="cls-2" d="M1113.44,349.4h-5.59v-1.19h7v1l-4.34,9.29h-1.37Z"/><path class="cls-2" d="M1116.18,353.33c0-3,1-5.3,3.57-5.3s3.57,2.32,3.57,5.3-1,5.29-3.57,5.29S1116.18,356.3,1116.18,353.33Zm5.78,0c0-2.62-.72-4.11-2.21-4.11s-2.2,1.49-2.2,4.11.72,4.1,2.2,4.1S1122,356,1122,353.33Z"/></g><g class="cls-4"><path class="cls-2" d="M1109.64,294.87v-.06a2.48,2.48,0,0,1-1.49-2.29c0-1.61,1.22-2.77,3.15-2.77s3.16,1.16,3.16,2.77a2.5,2.5,0,0,1-1.49,2.29v.06a2.61,2.61,0,0,1,1.9,2.55c0,1.83-1.44,2.92-3.57,2.92s-3.57-1.09-3.57-2.92A2.61,2.61,0,0,1,1109.64,294.87Zm1.66,4.34c1.33,0,2.26-.68,2.26-1.89a2.3,2.3,0,0,0-4.52,0C1109,298.53,1110,299.21,1111.3,299.21Zm1.91-6.68a1.92,1.92,0,0,0-3.81,0,1.91,1.91,0,0,0,3.81,0Z"/><path class="cls-2" d="M1116.18,295c0-3,1-5.29,3.57-5.29s3.57,2.32,3.57,5.29-1,5.3-3.57,5.3S1116.18,298,1116.18,295Zm5.78,0c0-2.61-.72-4.1-2.21-4.1s-2.2,1.49-2.2,4.1.72,4.11,2.2,4.11S1122,297.66,1122,295Z"/></g><g class="cls-4"><path class="cls-2" d="M1111.06,242.06a2.94,2.94,0,0,1-3.21-2.74h1.31a1.79,1.79,0,0,0,1.9,1.61c1.39,0,2.32-1.06,2.38-4.08a3,3,0,0,1-2.61,1.34,3.1,3.1,0,0,1-3.22-3.33,3.3,3.3,0,0,1,3.45-3.39c2,0,3.75,1.29,3.75,5.06C1114.81,240.65,1113.19,242.06,1111.06,242.06Zm2.21-7.22a2.16,2.16,0,0,0-2.15-2.24,2.14,2.14,0,0,0-2.2,2.26,2.1,2.1,0,0,0,2.08,2.2A2.2,2.2,0,0,0,1113.27,234.84Z"/><path class="cls-2" d="M1116.18,236.76c0-3,1-5.29,3.57-5.29s3.57,2.32,3.57,5.29-1,5.3-3.57,5.3S1116.18,239.74,1116.18,236.76Zm5.78,0c0-2.62-.72-4.1-2.21-4.1s-2.2,1.48-2.2,4.1.72,4.11,2.2,4.11S1122,239.38,1122,236.76Z"/></g><g class="cls-4"><path class="cls-2" d="M1108,175.62l3.27-2.26h1v9.11h2.44v1.13h-6.36v-1.13h2.61V175l-2.38,1.66Z"/><path class="cls-2" d="M1116.18,178.48c0-3,1-5.3,3.57-5.3s3.57,2.33,3.57,5.3-1,5.3-3.57,5.3S1116.18,181.46,1116.18,178.48Zm5.78,0c0-2.62-.72-4.1-2.21-4.1s-2.2,1.48-2.2,4.1.72,4.11,2.2,4.11S1122,181.1,1122,178.48Z"/><path class="cls-2" d="M1124.64,178.48c0-3,1-5.3,3.57-5.3s3.57,2.33,3.57,5.3-1,5.3-3.57,5.3S1124.64,181.46,1124.64,178.48Zm5.77,0c0-2.62-.72-4.1-2.2-4.1s-2.21,1.48-2.21,4.1.72,4.11,2.21,4.11S1130.41,181.1,1130.41,178.48Z"/></g><path class="cls-2" d="M1105,124.8h1.57v1.34h.07a2.86,2.86,0,0,1,2.75-1.56,2.79,2.79,0,0,1,2.83,1.84,3,3,0,0,1,3-1.84c1.71,0,3.13,1,3.13,3.64v5.66h-1.64v-5.44c0-1.78-.6-2.45-1.86-2.45s-2.38,1.21-2.38,3.16v4.73h-1.64v-5.44c0-1.78-.67-2.45-1.86-2.45s-2.38,1.21-2.38,3.18v4.71H1105Z"/><path class="cls-2" d="M1121.09,124.8h1.57v1.34h.07a2.86,2.86,0,0,1,2.75-1.56,2.79,2.79,0,0,1,2.83,1.84,3,3,0,0,1,3-1.84c1.71,0,3.13,1,3.13,3.64v5.66h-1.64v-5.44c0-1.78-.6-2.45-1.86-2.45s-2.38,1.21-2.38,3.16v4.73H1127v-5.44c0-1.78-.67-2.45-1.86-2.45s-2.38,1.21-2.38,3.18v4.71h-1.64Z"/><g class="cls-4"><path class="cls-2" d="M1107.73,761.3c0-3,1-5.3,3.57-5.3s3.57,2.33,3.57,5.3-1,5.3-3.57,5.3S1107.73,764.28,1107.73,761.3Zm5.77,0c0-2.62-.71-4.1-2.2-4.1s-2.2,1.48-2.2,4.1.71,4.11,2.2,4.11S1113.5,763.92,1113.5,761.3Z"/></g><path d="M287.8,180.86c0,1.06.91,1.78,2.38,1.78s2.44-.64,2.44-1.72c0-2.53-6.32-.52-6.32-4.52,0-1.76,1.52-3,3.9-3s3.84,1.12,3.84,2.93h-1.66c0-1-.93-1.62-2.18-1.62s-2.22.54-2.22,1.56c0,2.52,6.37.48,6.37,4.56,0,1.88-1.52,3.16-4.17,3.16s-4-1.22-4-3.09Z"/><path d="M297.83,187.05h-1.61V176.52h1.55v1.08h.06a2.51,2.51,0,0,1,2.41-1.26c1.83,0,3.24,1.34,3.24,3.75S302,184,300.12,184a2.35,2.35,0,0,1-2.29-1.26h-.06c.06.95.06,1.95.06,2.44Zm2-9.42c-1.1,0-1.94.88-2,2.4v.12c0,1.59.86,2.51,2,2.51s2-1,2-2.57S301,177.63,299.82,177.63Z"/><path d="M308.34,176.34a3.21,3.21,0,0,1,3.39,3.54v.53h-5.34c.09,1.42.85,2.28,2,2.28a1.57,1.57,0,0,0,1.68-1.12h1.57a3.07,3.07,0,0,1-3.27,2.38c-2.32,0-3.64-1.41-3.64-3.79A3.54,3.54,0,0,1,308.34,176.34Zm-1.88,3h3.63c-.13-1.21-.74-1.74-1.75-1.74A1.93,1.93,0,0,0,306.46,179.33Z"/><path d="M314.72,184.67c0,.8.77,1.29,1.83,1.29,1.29,0,2.17-.65,2.17-2.56v-.71h-.06a2.5,2.5,0,0,1-2.41,1.26c-1.83,0-3.24-1.33-3.24-3.74s1.5-3.87,3.36-3.87a2.35,2.35,0,0,1,2.29,1.26h.06v-1.08h1.53v6.88c0,2.74-1.57,3.77-3.7,3.77-1.93,0-3.32-.84-3.35-2.5Zm1.93-2c1.15,0,2-.92,2-2.51V180c0-1.52-.88-2.4-2-2.4s-2,1-2,2.58S315.52,182.66,316.65,182.66Z"/><path d="M322.44,176.52H324v1h.06a2.32,2.32,0,0,1,2.25-1.23c1.44,0,2.72.77,2.72,3v4.41h-1.61v-4.2c0-1.44-.61-1.93-1.54-1.93s-1.82.87-1.82,2.33v3.8h-1.61Z"/><path d="M331,172.88h1.72v1.64H331Zm.06,3.64h1.61v7.26h-1.61Z"/><path d="M334.88,176.52h1.55v1h.06a2.58,2.58,0,0,1,4.51.21,2.48,2.48,0,0,1,2.44-1.44c1.41,0,2.57.77,2.57,2.94v4.5H344.4v-4.3c0-1.36-.47-1.83-1.39-1.83s-1.76.86-1.76,2.3v3.83h-1.61v-4.3c0-1.36-.52-1.83-1.39-1.83s-1.76.86-1.76,2.32v3.81h-1.61Z"/><path d="M351.16,176.34a3.21,3.21,0,0,1,3.39,3.54v.53h-5.34c.09,1.42.85,2.28,2,2.28a1.57,1.57,0,0,0,1.68-1.12h1.58a3.08,3.08,0,0,1-3.27,2.38c-2.32,0-3.65-1.41-3.65-3.79A3.54,3.54,0,0,1,351.16,176.34Zm-1.87,3h3.63c-.14-1.21-.75-1.74-1.76-1.74A1.92,1.92,0,0,0,349.29,179.33Z"/><path d="M356.18,176.52h1.54v1h.06a2.32,2.32,0,0,1,2.25-1.23c1.44,0,2.72.77,2.72,3v4.41h-1.6v-4.2c0-1.44-.61-1.93-1.55-1.93s-1.82.87-1.82,2.33v3.8h-1.6Z"/><path d="M365,177.76H363.6v-1.24H365v-2.21h1.61v2.21h1.86v1.24h-1.86v3.61c0,.77.27,1.07,1,1.07h.85v1.34h-1.12c-1.66,0-2.35-.7-2.35-2.33Z"/><path d="M373.08,176.34a3.49,3.49,0,0,1,3.71,3.81,3.55,3.55,0,0,1-3.71,3.8,3.49,3.49,0,0,1-3.7-3.8A3.55,3.55,0,0,1,373.08,176.34Zm0,6.32c1.22,0,2-1,2-2.51s-.82-2.52-2-2.52-2,1-2,2.52S371.86,182.66,373.08,182.66Z"/><path d="M286.43,195.12H288v1h0a2,2,0,0,1,1.91-1.23,1.74,1.74,0,0,1,1,.29l-.42,1.43a2,2,0,0,0-.89-.24c-1.09,0-1.61,1.06-1.61,2.33v3.63h-1.61Z"/><path d="M292,191.49h1.73v1.63H292Zm.06,3.63h1.61v7.26H292Z"/><path d="M296.83,200.29c0,.81.82,1.13,1.61,1.13,1.12,0,1.67-.38,1.67-1s-.37-.76-1.1-.88l-1.34-.24c-1.12-.18-2.19-.62-2.19-2s1.32-2.32,3-2.32,3,.68,3,2.2H300c0-.72-.64-1.07-1.5-1.07s-1.49.35-1.49,1,.34.75,1.2.9l1.34.22c1.15.19,2.14.64,2.14,2,0,1.6-1.34,2.38-3.27,2.38s-3.14-.74-3.14-2.26Z"/><path d="M306.51,194.94a3,3,0,0,1,3.3,2.66h-1.59a1.6,1.6,0,0,0-1.71-1.37c-1.13,0-1.95,1-1.95,2.52s.82,2.51,1.95,2.51a1.58,1.58,0,0,0,1.71-1.37h1.59a3,3,0,0,1-3.3,2.66c-2.24,0-3.62-1.42-3.62-3.8A3.52,3.52,0,0,1,306.51,194.94Z"/><path d="M313.49,198.3l1.41-.24c.71-.12.94-.21.94-.49a1.28,1.28,0,0,0-1.43-1.43,1.35,1.35,0,0,0-1.53,1.28h-1.54c.09-1.5,1.25-2.48,3.07-2.48,2,0,3,1,3,2.66v4.78h-1.53v-.91h-.07a2.6,2.6,0,0,1-2.32,1.08c-1.6,0-2.46-.81-2.46-2S311.77,198.58,313.49,198.3Zm2.35.43a1.22,1.22,0,0,1-.75.34l-1.25.21c-.85.14-1.17.51-1.17,1.07s.41,1,1.23,1a1.83,1.83,0,0,0,1.94-1.95Z"/><path d="M319.53,191.49h1.6v10.89h-1.6Z"/><path d="M326.18,194.94a2.35,2.35,0,0,1,2.29,1.26h.06c-.08-.95-.08-1.95-.08-2.44v-2.27h1.61v10.89h-1.53v-1.09h-.06a2.51,2.51,0,0,1-2.41,1.26c-1.83,0-3.24-1.33-3.24-3.74S324.32,194.94,326.18,194.94Zm.28,6.32c1.15,0,2-.92,2-2.51s-.84-2.52-2-2.52-2,1-2,2.58S325.33,201.26,326.46,201.26Z"/><path d="M334.26,198.3l1.41-.24c.72-.12.94-.21.94-.49a1.27,1.27,0,0,0-1.43-1.43,1.35,1.35,0,0,0-1.53,1.28h-1.53c.08-1.5,1.25-2.48,3.06-2.48,2,0,3,1,3,2.66v4.78h-1.54v-.91h-.07a2.59,2.59,0,0,1-2.32,1.08c-1.59,0-2.46-.81-2.46-2S332.55,198.58,334.26,198.3Zm2.35.43a1.2,1.2,0,0,1-.75.34l-1.24.21c-.85.14-1.18.51-1.18,1.07s.42,1,1.23,1a1.83,1.83,0,0,0,1.94-1.95Z"/><path d="M340.3,195.12h1.55v1h.06a2.57,2.57,0,0,1,4.5.21,2.49,2.49,0,0,1,2.44-1.44c1.42,0,2.58.77,2.58,2.94v4.5h-1.61v-4.3c0-1.36-.47-1.83-1.4-1.83s-1.75.86-1.75,2.3v3.83h-1.61v-4.3c0-1.36-.52-1.83-1.4-1.83s-1.75.86-1.75,2.32v3.81H340.3Z"/><path d="M356.58,194.94a3.21,3.21,0,0,1,3.39,3.54V199h-5.34c.09,1.42.85,2.28,2,2.28a1.57,1.57,0,0,0,1.68-1.12h1.58a3.09,3.09,0,0,1-3.28,2.38c-2.32,0-3.64-1.41-3.64-3.79A3.55,3.55,0,0,1,356.58,194.94Zm-1.88,3h3.63c-.13-1.21-.74-1.74-1.75-1.74A1.93,1.93,0,0,0,354.7,197.93Z"/><path d="M361.59,195.12h1.55v1h.06a2.32,2.32,0,0,1,2.25-1.23c1.44,0,2.72.77,2.72,3v4.41h-1.61v-4.2c0-1.44-.61-1.93-1.54-1.93s-1.82.87-1.82,2.33v3.8h-1.61Z"/><path d="M370.39,196.37H369v-1.25h1.37v-2.21H372v2.21h1.85v1.25H372V200c0,.77.26,1.07,1,1.07h.84v1.34h-1.11c-1.67,0-2.35-.7-2.35-2.33Z"/><path d="M375.24,191.49H377v1.63h-1.72Zm.06,3.63h1.61v7.26H375.3Z"/><path d="M889.94,173.54h2l3.81,10.24H894l-.88-2.49h-4.37l-.88,2.49h-1.7Zm.94,1.67-1.67,4.68h3.38l-1.65-4.68Z"/><path d="M900.22,176.34a3,3,0,0,1,3.31,2.66h-1.6a1.59,1.59,0,0,0-1.71-1.37c-1.13,0-2,1-2,2.52s.82,2.51,2,2.51a1.58,1.58,0,0,0,1.71-1.37h1.6a3,3,0,0,1-3.31,2.66c-2.23,0-3.61-1.42-3.61-3.8A3.51,3.51,0,0,1,900.22,176.34Z"/><path d="M908.33,176.34a3,3,0,0,1,3.31,2.66H910a1.59,1.59,0,0,0-1.71-1.37c-1.13,0-2,1-2,2.52s.82,2.51,2,2.51a1.58,1.58,0,0,0,1.71-1.37h1.6a3,3,0,0,1-3.31,2.66c-2.23,0-3.61-1.42-3.61-3.8A3.5,3.5,0,0,1,908.33,176.34Z"/><path d="M916.43,176.34a3.21,3.21,0,0,1,3.39,3.54v.53h-5.34c.09,1.42.85,2.28,2,2.28a1.57,1.57,0,0,0,1.68-1.12h1.58a3.09,3.09,0,0,1-3.28,2.38c-2.32,0-3.64-1.41-3.64-3.79A3.54,3.54,0,0,1,916.43,176.34Zm-1.88,3h3.63c-.13-1.21-.74-1.74-1.75-1.74A1.93,1.93,0,0,0,914.55,179.33Z"/><path d="M921.44,176.52H923v1h.06a2.32,2.32,0,0,1,2.25-1.23c1.44,0,2.72.77,2.72,3v4.41h-1.61v-4.2c0-1.44-.61-1.93-1.55-1.93s-1.81.87-1.81,2.33v3.8h-1.61Z"/><path d="M931.08,181.69c0,.81.82,1.13,1.61,1.13,1.12,0,1.67-.38,1.67-1s-.37-.76-1.1-.88l-1.34-.24c-1.12-.18-2.19-.62-2.19-2s1.33-2.32,3-2.32,3,.68,3,2.2h-1.5c0-.72-.64-1.07-1.5-1.07s-1.49.35-1.49,1,.34.75,1.2.9l1.34.22c1.15.19,2.14.64,2.14,2,0,1.6-1.33,2.38-3.27,2.38s-3.14-.74-3.14-2.26Z"/><path d="M937.6,172.88h1.73v1.64H937.6Zm.06,3.64h1.61v7.26h-1.61Z"/><path d="M944.66,176.34a3.49,3.49,0,0,1,3.7,3.81,3.54,3.54,0,0,1-3.7,3.8,3.5,3.5,0,0,1-3.71-3.8A3.55,3.55,0,0,1,944.66,176.34Zm0,6.32c1.21,0,2-1,2-2.51s-.82-2.52-2-2.52-2,1-2,2.52S943.44,182.66,944.66,182.66Z"/><path d="M950,176.52h1.55v1h.06a2.32,2.32,0,0,1,2.25-1.23c1.44,0,2.72.77,2.72,3v4.41H955v-4.2c0-1.44-.61-1.93-1.55-1.93s-1.81.87-1.81,2.33v3.8H950Z"/><path d="M961.77,176.34a3.21,3.21,0,0,1,3.39,3.54v.53h-5.34c.09,1.42.85,2.28,2,2.28a1.57,1.57,0,0,0,1.68-1.12h1.58a3.09,3.09,0,0,1-3.28,2.38c-2.32,0-3.64-1.41-3.64-3.79A3.54,3.54,0,0,1,961.77,176.34Zm-1.88,3h3.63c-.13-1.21-.74-1.74-1.75-1.74A1.93,1.93,0,0,0,959.89,179.33Z"/><path d="M887.07,195.12h1.55v1h0a2,2,0,0,1,1.92-1.23,1.69,1.69,0,0,1,1,.29l-.41,1.43a2,2,0,0,0-.9-.24c-1.08,0-1.6,1.06-1.6,2.33v3.63h-1.61Z"/><path d="M892.62,191.49h1.73v1.63h-1.73Zm.06,3.63h1.61v7.26h-1.61Z"/><path d="M897.47,200.29c0,.81.82,1.13,1.61,1.13,1.11,0,1.66-.38,1.66-1s-.37-.76-1.1-.88l-1.34-.24c-1.11-.18-2.18-.62-2.18-2s1.32-2.32,3-2.32,3,.68,3,2.2h-1.51c0-.72-.64-1.07-1.5-1.07s-1.49.35-1.49,1,.35.75,1.21.9l1.34.22c1.14.19,2.14.64,2.14,2,0,1.6-1.34,2.38-3.27,2.38s-3.14-.74-3.14-2.26Z"/><path d="M907.14,194.94a3,3,0,0,1,3.31,2.66h-1.6a1.59,1.59,0,0,0-1.71-1.37c-1.13,0-1.95,1-1.95,2.52s.82,2.51,1.95,2.51a1.58,1.58,0,0,0,1.71-1.37h1.6a3,3,0,0,1-3.31,2.66c-2.23,0-3.61-1.42-3.61-3.8A3.51,3.51,0,0,1,907.14,194.94Z"/><path d="M914.12,198.3l1.41-.24c.72-.12.94-.21.94-.49a1.27,1.27,0,0,0-1.43-1.43,1.36,1.36,0,0,0-1.53,1.28H912c.09-1.5,1.25-2.48,3.06-2.48,2,0,3,1,3,2.66v4.78h-1.53v-.91h-.08a2.58,2.58,0,0,1-2.32,1.08c-1.59,0-2.45-.81-2.45-2S912.41,198.58,914.12,198.3Zm2.35.43a1.19,1.19,0,0,1-.74.34l-1.25.21c-.85.14-1.18.51-1.18,1.07s.42,1,1.24,1a1.83,1.83,0,0,0,1.93-1.95Z"/><path d="M920.16,191.49h1.61v10.89h-1.61Z"/><path d="M926.81,194.94a2.34,2.34,0,0,1,2.29,1.26h.06c-.07-.95-.07-1.95-.07-2.44v-2.27h1.61v10.89h-1.54v-1.09h-.06a2.49,2.49,0,0,1-2.41,1.26c-1.82,0-3.24-1.33-3.24-3.74S925,194.94,926.81,194.94Zm.29,6.32c1.14,0,2-.92,2-2.51s-.85-2.52-2-2.52-2,1-2,2.58S926,201.26,927.1,201.26Z"/><path d="M934.89,198.3l1.42-.24c.71-.12.94-.21.94-.49a1.28,1.28,0,0,0-1.43-1.43,1.36,1.36,0,0,0-1.54,1.28h-1.53c.09-1.5,1.25-2.48,3.07-2.48,2,0,3,1,3,2.66v4.78h-1.53v-.91h-.07a2.61,2.61,0,0,1-2.33,1.08c-1.59,0-2.45-.81-2.45-2S933.18,198.58,934.89,198.3Zm2.36.43a1.22,1.22,0,0,1-.75.34l-1.25.21c-.85.14-1.17.51-1.17,1.07s.41,1,1.23,1a1.83,1.83,0,0,0,1.94-1.95Z"/><path d="M940.94,195.12h1.54v1h.06a2.58,2.58,0,0,1,4.51.21,2.49,2.49,0,0,1,2.44-1.44c1.41,0,2.57.77,2.57,2.94v4.5h-1.6v-4.3c0-1.36-.48-1.83-1.4-1.83s-1.76.86-1.76,2.3v3.83h-1.6v-4.3c0-1.36-.52-1.83-1.4-1.83s-1.76.86-1.76,2.32v3.81h-1.6Z"/><path d="M957.21,194.94a3.22,3.22,0,0,1,3.4,3.54V199h-5.34c.08,1.42.84,2.28,2,2.28a1.56,1.56,0,0,0,1.68-1.12h1.58a3.08,3.08,0,0,1-3.27,2.38c-2.32,0-3.65-1.41-3.65-3.79A3.55,3.55,0,0,1,957.21,194.94Zm-1.87,3H959c-.13-1.21-.74-1.74-1.76-1.74A1.92,1.92,0,0,0,955.34,197.93Z"/><path d="M962.23,195.12h1.55v1h.06a2.31,2.31,0,0,1,2.24-1.23c1.45,0,2.73.77,2.73,3v4.41H967.2v-4.2c0-1.44-.61-1.93-1.55-1.93s-1.81.87-1.81,2.33v3.8h-1.61Z"/><path d="M971,196.37h-1.36v-1.25H971v-2.21h1.61v2.21h1.86v1.25h-1.86V200c0,.77.27,1.07,1,1.07h.85v1.34h-1.12c-1.66,0-2.35-.7-2.35-2.33Z"/><path d="M975.87,191.49h1.73v1.63h-1.73Zm.06,3.63h1.61v7.26h-1.61Z"/><path d="M43.29,136.55V138H41.65V124.8h1.64v5.28c0,1.93.74,2.6,2.08,2.6s2.38-1.26,2.38-3.19V124.8h1.64v9.08H47.83v-1.34h-.08A2.79,2.79,0,0,1,45,134.1a3.23,3.23,0,0,1-1.82-.52h-.12A20.43,20.43,0,0,1,43.29,136.55Z"/><path d="M53.33,135c0,1.12,1,1.79,2.46,1.79,1.6,0,2.9-.8,2.9-3.35v-1h-.07a3.2,3.2,0,0,1-3.06,1.64c-2.3,0-4-1.71-4-4.69s1.86-4.83,4.16-4.83a3,3,0,0,1,2.91,1.63h.07V124.8h1.56v8.63c0,3.44-2,4.69-4.46,4.69-2.27,0-4-1.08-4-3.13Zm2.61-2.31c1.48,0,2.68-1.19,2.68-3.34S57.42,126,55.94,126s-2.68,1.26-2.68,3.42S54.45,132.68,55.94,132.68Z"/><path d="M67.54,120.85H69L63.23,134.1H61.81Z"/><path d="M69.18,124.8h1.56v1.34h.08a2.86,2.86,0,0,1,2.75-1.56,2.8,2.8,0,0,1,2.83,1.84,3,3,0,0,1,3-1.84c1.71,0,3.12,1,3.12,3.64v5.66H80.94v-5.44c0-1.78-.6-2.45-1.86-2.45s-2.39,1.21-2.39,3.16v4.73H75.06v-5.44c0-1.78-.67-2.45-1.86-2.45s-2.38,1.21-2.38,3.18v4.71H69.18Z"/><path d="M85.27,125.42A1.46,1.46,0,0,0,86.88,127c.93,0,1.6-.5,1.6-1.38a1.45,1.45,0,0,0-1.6-1.38h-.57v-.82h.57a1.29,1.29,0,0,0,1.34-1.29,1.22,1.22,0,0,0-1.34-1.21,1.25,1.25,0,0,0-1.35,1.35h-.87a2.06,2.06,0,0,1,2.22-2.17,2,2,0,0,1,2.25,2,1.92,1.92,0,0,1-1.08,1.68v0a1.92,1.92,0,0,1,1.39,1.86c0,1.34-1.14,2.13-2.56,2.13a2.24,2.24,0,0,1-2.52-2.39Z"/></svg>