<svg id="Livello_1" data-name="Livello 1" xmlns="http://www.w3.org/2000/svg" viewBox="0 0 1174.99 900"><defs><style>.cls-1{fill:#efefef;}.cls-2{fill:#b8b8b8;}.cls-3{fill:#ff3a00;}.cls-4{isolation:isolate;}.cls-5{opacity:0.2;}</style></defs><rect class="cls-1" x="96.24" y="158.35" width="285.72" height="602.99"/><rect class="cls-1" x="880.94" y="158.35" width="206.87" height="602.75"/><path class="cls-2" d="M180.69,761.64a.29.29,0,0,1-.3-.3v-603a.3.3,0,0,1,.3-.3.31.31,0,0,1,.3.3v603A.3.3,0,0,1,180.69,761.64Z"/><path class="cls-2" d="M257,761.64a.3.3,0,0,1-.3-.3v-603a.31.31,0,0,1,.3-.3.3.3,0,0,1,.3.3v603A.29.29,0,0,1,257,761.64Z"/><path class="cls-2" d="M341.41,761.64a.29.29,0,0,1-.3-.3v-603a.3.3,0,0,1,.6,0v603A.29.29,0,0,1,341.41,761.64Z"/><path class="cls-2" d="M423.13,761.64a.3.3,0,0,1-.3-.3v-603a.31.31,0,0,1,.3-.3.3.3,0,0,1,.3.3v603A.29.29,0,0,1,423.13,761.64Z"/><path class="cls-2" d="M507.58,761.64a.29.29,0,0,1-.3-.3v-603a.3.3,0,0,1,.3-.3.31.31,0,0,1,.3.3v603A.3.3,0,0,1,507.58,761.64Z"/><path class="cls-2" d="M589.3,761.64a.3.3,0,0,1-.3-.3v-603a.31.31,0,0,1,.3-.3.3.3,0,0,1,.3.3v603A.29.29,0,0,1,589.3,761.64Z"/><path class="cls-2" d="M673.75,761.64a.29.29,0,0,1-.3-.3v-603a.3.3,0,0,1,.3-.3.31.31,0,0,1,.3.3v603A.3.3,0,0,1,673.75,761.64Z"/><path class="cls-2" d="M758.19,761.64a.3.3,0,0,1-.3-.3v-603a.31.31,0,0,1,.3-.3.3.3,0,0,1,.3.3v603A.29.29,0,0,1,758.19,761.64Z"/><path class="cls-2" d="M839.92,761.64a.29.29,0,0,1-.3-.3v-603a.3.3,0,0,1,.3-.3.31.31,0,0,1,.3.3v603A.3.3,0,0,1,839.92,761.64Z"/><path class="cls-2" d="M924.36,761.64a.3.3,0,0,1-.3-.3v-603a.31.31,0,0,1,.3-.3.3.3,0,0,1,.3.3v603A.29.29,0,0,1,924.36,761.64Z"/><path class="cls-2" d="M1006.09,761.64a.29.29,0,0,1-.3-.3v-603a.3.3,0,0,1,.3-.3.31.31,0,0,1,.3.3v603A.3.3,0,0,1,1006.09,761.64Z"/><path class="cls-2" d="M96.24,761.64a.3.3,0,0,1-.3-.3v-603a.31.31,0,0,1,.3-.3.3.3,0,0,1,.3.3v603A.29.29,0,0,1,96.24,761.64Z"/><path class="cls-2" d="M1087.81,761.64a.29.29,0,0,1-.3-.3v-603a.3.3,0,0,1,.3-.3.31.31,0,0,1,.3.3v603A.3.3,0,0,1,1087.81,761.64Z"/><circle cx="96.3" cy="528.11" r="2.97"/><circle cx="99.03" cy="533.93" r="2.97"/><circle cx="101.75" cy="493.15" r="2.97"/><circle cx="107.2" cy="632.97" r="2.97"/><circle cx="126.27" cy="656.27" r="2.97"/><circle cx="139.89" cy="662.09" r="2.97"/><circle cx="142.61" cy="603.84" r="2.97"/><circle cx="145.34" cy="528.11" r="2.97"/><circle cx="153.51" cy="563.06" r="2.97"/><circle cx="156.23" cy="586.36" r="2.97"/><circle cx="158.96" cy="563.06" r="2.97"/><circle cx="161.68" cy="574.71" r="2.97"/><circle cx="164.41" cy="621.31" r="2.97"/><circle cx="169.85" cy="586.36" r="2.97"/><circle cx="172.58" cy="586.36" r="2.97"/><circle cx="175.3" cy="603.84" r="2.97"/><circle cx="178.03" cy="568.89" r="2.97"/><circle cx="180.75" cy="545.58" r="2.97"/><circle cx="183.47" cy="574.71" r="2.97"/><circle cx="188.92" cy="551.41" r="2.97"/><circle cx="191.65" cy="679.57" r="2.97"/><circle cx="194.37" cy="667.92" r="2.97"/><circle cx="197.09" cy="574.71" r="2.97"/><circle cx="199.82" cy="533.93" r="2.97"/><circle cx="202.54" cy="533.93" r="2.97"/><circle cx="205.27" cy="516.46" r="2.97"/><circle cx="218.89" cy="510.63" r="2.97"/><circle cx="221.61" cy="563.06" r="2.97"/><circle cx="229.78" cy="475.68" r="2.97"/><circle cx="232.51" cy="533.93" r="2.97"/><circle cx="235.23" cy="650.44" r="2.97"/><circle cx="237.96" cy="673.74" r="2.97"/><circle cx="240.68" cy="650.44" r="2.97"/><circle cx="243.4" cy="568.89" r="2.97"/><circle cx="246.13" cy="667.92" r="2.97"/><circle cx="248.85" cy="580.54" r="2.97"/><circle cx="251.58" cy="574.71" r="2.97"/><circle cx="254.3" cy="545.58" r="2.97"/><circle cx="257.02" cy="516.46" r="2.97"/><circle cx="259.75" cy="522.28" r="2.97"/><circle cx="267.92" cy="650.44" r="2.97"/><circle cx="270.65" cy="615.49" r="2.97"/><circle cx="273.37" cy="609.66" r="2.97"/><circle cx="276.09" cy="615.49" r="2.97"/><circle cx="278.82" cy="574.71" r="2.97"/><circle cx="281.54" cy="516.46" r="2.97"/><circle cx="284.27" cy="545.58" r="2.97"/><circle cx="286.99" cy="592.19" r="2.97"/><circle cx="289.71" cy="621.31" r="2.97"/><circle cx="292.44" cy="551.41" r="2.97"/><circle cx="295.16" cy="586.36" r="2.97"/><circle cx="297.89" cy="609.66" r="2.97"/><circle cx="300.61" cy="528.11" r="2.97"/><circle cx="306.06" cy="516.46" r="2.97"/><circle cx="308.78" cy="481.5" r="2.97"/><circle cx="311.51" cy="475.68" r="2.97"/><circle cx="314.23" cy="586.36" r="2.97"/><circle cx="316.95" cy="528.11" r="2.97"/><circle cx="319.68" cy="475.68" r="2.97"/><circle cx="322.4" cy="667.92" r="2.97"/><circle cx="325.13" cy="679.57" r="2.97"/><circle cx="327.85" cy="667.92" r="2.97"/><circle cx="330.58" cy="691.22" r="2.97"/><circle cx="333.3" cy="679.57" r="2.97"/><circle cx="336.02" cy="644.62" r="2.97"/><circle cx="338.75" cy="656.27" r="2.97"/><circle cx="341.47" cy="662.09" r="2.97"/><circle cx="344.2" cy="673.74" r="2.97"/><circle cx="346.92" cy="627.14" r="2.97"/><circle cx="349.64" cy="685.39" r="2.97"/><circle cx="352.37" cy="691.22" r="2.97"/><circle cx="355.09" cy="691.22" r="2.97"/><circle cx="357.82" cy="673.74" r="2.97"/><circle cx="360.54" cy="644.62" r="2.97"/><circle cx="363.26" cy="598.01" r="2.97"/><circle cx="365.99" cy="580.54" r="2.97"/><circle cx="368.71" cy="632.97" r="2.97"/><circle cx="371.44" cy="615.49" r="2.97"/><circle cx="374.16" cy="644.62" r="2.97"/><circle cx="376.88" cy="574.71" r="2.97"/><circle cx="379.61" cy="609.66" r="2.97"/><circle cx="382.33" cy="667.92" r="2.97"/><circle cx="385.06" cy="627.14" r="2.97"/><circle cx="387.78" cy="609.66" r="2.97"/><circle cx="390.5" cy="679.57" r="2.97"/><circle cx="393.23" cy="656.27" r="2.97"/><circle cx="398.68" cy="673.74" r="2.97"/><circle cx="401.4" cy="691.22" r="2.97"/><circle cx="404.13" cy="632.97" r="2.97"/><circle cx="406.85" cy="563.06" r="2.97"/><circle cx="409.57" cy="615.49" r="2.97"/><circle cx="412.3" cy="656.27" r="2.97"/><circle cx="420.47" cy="662.09" r="2.97"/><circle cx="423.19" cy="697.05" r="2.97"/><circle cx="425.92" cy="685.39" r="2.97"/><circle cx="428.64" cy="650.44" r="2.97"/><circle cx="431.37" cy="598.01" r="2.97"/><circle cx="434.09" cy="551.41" r="2.97"/><circle cx="436.81" cy="533.93" r="2.97"/><circle cx="439.54" cy="592.19" r="2.97"/><circle cx="442.26" cy="632.97" r="2.97"/><circle cx="444.99" cy="644.62" r="2.97"/><circle cx="447.71" cy="673.74" r="2.97"/><circle cx="450.43" cy="644.62" r="2.97"/><circle cx="453.16" cy="632.97" r="2.97"/><circle cx="455.88" cy="662.09" r="2.97"/><circle cx="458.61" cy="650.44" r="2.97"/><circle cx="461.33" cy="603.84" r="2.97"/><circle cx="464.06" cy="656.27" r="2.97"/><circle cx="466.78" cy="621.31" r="2.97"/><circle cx="469.5" cy="609.66" r="2.97"/><circle cx="472.23" cy="650.44" r="2.97"/><circle cx="474.95" cy="697.05" r="2.97"/><circle cx="477.68" cy="667.92" r="2.97"/><circle cx="480.4" cy="685.39" r="2.97"/><circle cx="483.12" cy="685.39" r="2.97"/><circle cx="485.85" cy="708.7" r="2.97"/><circle cx="488.57" cy="720.35" r="2.97"/><circle cx="491.3" cy="679.57" r="2.97"/><circle cx="494.02" cy="708.7" r="2.97"/><circle cx="496.74" cy="685.39" r="2.97"/><circle cx="499.47" cy="656.27" r="2.97"/><circle cx="502.19" cy="662.09" r="2.97"/><circle cx="504.92" cy="662.09" r="2.97"/><circle cx="507.64" cy="662.09" r="2.97"/><circle cx="510.36" cy="679.57" r="2.97"/><circle cx="513.09" cy="650.44" r="2.97" transform="translate(-172.09 1116.13) rotate(-85.93)"/><circle cx="515.81" cy="621.31" r="2.97"/><circle cx="518.54" cy="621.31" r="2.97"/><circle cx="521.26" cy="644.62" r="2.97"/><circle cx="523.99" cy="656.27" r="2.97"/><circle cx="526.71" cy="615.49" r="2.97"/><circle cx="529.43" cy="638.79" r="2.97"/><circle cx="532.16" cy="621.31" r="2.97"/><circle cx="534.88" cy="609.66" r="2.97"/><circle cx="537.61" cy="627.14" r="2.97"/><circle cx="540.33" cy="656.27" r="2.97"/><circle cx="543.05" cy="667.92" r="2.97"/><circle cx="545.78" cy="662.09" r="2.97"/><circle cx="548.5" cy="667.92" r="2.97"/><circle cx="551.23" cy="673.74" r="2.97"/><circle cx="553.95" cy="667.92" r="2.97"/><circle cx="556.67" cy="656.27" r="2.97"/><circle cx="559.4" cy="691.22" r="2.97"/><circle cx="562.12" cy="708.7" r="2.97"/><circle cx="564.85" cy="679.57" r="2.97"/><circle cx="567.57" cy="667.92" r="2.97"/><circle cx="570.29" cy="702.87" r="2.97"/><circle cx="573.02" cy="697.05" r="2.97"/><circle cx="575.74" cy="679.57" r="2.97"/><circle cx="578.47" cy="679.57" r="2.97"/><circle cx="581.19" cy="685.39" r="2.97"/><circle cx="583.91" cy="667.92" r="2.97"/><circle cx="586.64" cy="656.27" r="2.97" transform="translate(-72.01 1240.23) rotate(-89.77)"/><circle cx="589.36" cy="638.79" r="2.97"/><circle cx="592.09" cy="609.66" r="2.97"/><circle cx="594.81" cy="603.84" r="2.97"/><circle cx="597.54" cy="627.14" r="2.97" transform="matrix(1, 0, 0, 1, -2.59, 2.47)"/><circle cx="600.26" cy="627.14" r="2.97"/><circle cx="602.98" cy="580.54" r="2.97"/><circle cx="605.71" cy="603.84" r="2.97"/><circle cx="608.43" cy="609.66" r="2.97"/><circle cx="611.16" cy="621.31" r="2.97"/><circle cx="613.88" cy="644.62" r="2.97"/><circle cx="616.6" cy="662.09" r="2.97"/><circle cx="619.33" cy="644.62" r="2.97"/><circle cx="622.05" cy="609.66" r="2.97"/><circle cx="624.78" cy="603.84" r="2.97"/><circle cx="627.5" cy="592.19" r="2.97"/><circle cx="630.22" cy="586.36" r="2.97"/><circle cx="632.95" cy="627.14" r="2.97"/><circle cx="635.67" cy="627.14" r="2.97"/><circle cx="638.4" cy="650.44" r="2.97"/><circle cx="641.12" cy="621.31" r="2.97"/><circle cx="643.84" cy="586.36" r="2.97"/><circle cx="646.57" cy="592.19" r="2.97"/><circle cx="649.29" cy="621.31" r="2.97"/><circle cx="652.02" cy="632.97" r="2.97"/><circle cx="654.74" cy="685.39" r="2.97"/><circle cx="657.47" cy="673.74" r="2.97"/><circle cx="660.19" cy="667.92" r="2.97"/><circle cx="662.91" cy="656.27" r="2.97"/><circle cx="665.64" cy="656.27" r="2.97"/><circle cx="668.36" cy="644.62" r="2.97"/><circle cx="671.09" cy="615.49" r="2.97"/><circle cx="673.81" cy="656.27" r="2.97"/><circle cx="676.53" cy="650.44" r="2.97"/><circle cx="679.26" cy="662.09" r="2.97"/><circle cx="681.98" cy="644.62" r="2.97"/><circle cx="684.71" cy="627.14" r="2.97"/><circle cx="687.43" cy="603.84" r="2.97"/><circle cx="690.15" cy="551.41" r="2.97"/><circle cx="692.88" cy="551.41" r="2.97"/><circle cx="695.6" cy="609.66" r="2.97"/><circle cx="698.33" cy="667.92" r="2.97"/><circle cx="701.05" cy="632.97" r="2.97"/><circle cx="703.77" cy="580.54" r="2.97"/><circle cx="706.5" cy="580.54" r="2.97"/><circle cx="709.22" cy="598.01" r="2.97"/><circle cx="711.95" cy="656.27" r="2.97"/><circle cx="714.67" cy="720.35" r="2.97"/><circle cx="717.4" cy="708.7" r="2.97"/><circle cx="720.12" cy="679.57" r="2.97"/><circle cx="722.84" cy="685.39" r="2.97"/><circle cx="725.57" cy="702.87" r="2.97"/><circle cx="728.29" cy="667.92" r="2.97"/><circle cx="731.02" cy="662.09" r="2.97"/><circle cx="733.74" cy="685.39" r="2.97"/><circle cx="736.46" cy="685.39" r="2.97"/><circle cx="739.19" cy="650.44" r="2.97"/><circle cx="741.91" cy="673.74" r="2.97"/><circle cx="744.64" cy="650.44" r="2.97"/><circle cx="747.36" cy="627.14" r="2.97"/><circle cx="750.08" cy="644.62" r="2.97"/><circle cx="752.81" cy="644.62" r="2.97"/><circle cx="755.53" cy="644.62" r="2.97"/><circle cx="758.26" cy="615.49" r="2.97"/><circle cx="760.98" cy="650.44" r="2.97"/><circle cx="763.7" cy="656.27" r="2.97"/><circle cx="766.43" cy="644.62" r="2.97"/><circle cx="769.15" cy="673.74" r="2.97"/><circle cx="771.88" cy="702.87" r="2.97"/><circle cx="774.6" cy="667.92" r="2.97"/><circle cx="777.32" cy="662.09" r="2.97"/><circle cx="780.05" cy="603.84" r="2.97"/><circle cx="782.77" cy="656.27" r="2.97"/><circle cx="785.5" cy="632.97" r="2.97"/><circle cx="788.22" cy="638.79" r="2.97"/><circle cx="790.95" cy="673.74" r="2.97"/><circle cx="796.39" cy="656.27" r="2.97"/><circle cx="799.12" cy="592.19" r="2.97"/><circle cx="801.84" cy="563.06" r="2.97"/><circle cx="804.57" cy="644.62" r="2.97"/><circle cx="807.29" cy="702.87" r="2.97"/><circle cx="810.01" cy="685.39" r="2.97"/><circle cx="812.74" cy="685.39" r="2.97"/><circle cx="815.46" cy="673.74" r="2.97"/><circle cx="818.19" cy="691.22" r="2.97"/><circle cx="820.91" cy="691.22" r="2.97"/><circle cx="823.63" cy="644.62" r="2.97"/><circle cx="826.36" cy="656.27" r="2.97"/><circle cx="829.08" cy="662.09" r="2.97"/><circle cx="831.81" cy="650.44" r="2.97"/><circle cx="834.53" cy="650.44" r="2.97"/><circle cx="837.25" cy="650.44" r="2.97"/><circle cx="839.98" cy="662.09" r="2.97"/><circle cx="842.7" cy="632.97" r="2.97"/><circle cx="845.43" cy="638.79" r="2.97"/><circle cx="848.15" cy="662.09" r="2.97"/><circle cx="850.88" cy="574.71" r="2.97"/><circle cx="853.6" cy="539.76" r="2.97"/><circle cx="856.32" cy="563.06" r="2.97"/><circle cx="859.05" cy="667.92" r="2.97"/><circle cx="861.77" cy="662.09" r="2.97"/><circle cx="864.5" cy="662.09" r="2.97"/><circle cx="867.22" cy="697.05" r="2.97"/><circle cx="869.94" cy="667.92" r="2.97"/><circle cx="872.67" cy="632.97" r="2.97"/><circle cx="875.39" cy="679.57" r="2.97"/><circle cx="878.12" cy="662.09" r="2.97"/><circle cx="880.84" cy="685.39" r="2.97"/><circle cx="883.56" cy="627.14" r="2.97"/><circle cx="886.29" cy="539.76" r="2.97"/><circle cx="889.01" cy="586.36" r="2.97"/><circle cx="891.74" cy="644.62" r="2.97"/><circle cx="894.46" cy="656.27" r="2.97"/><circle cx="897.18" cy="627.14" r="2.97"/><circle cx="899.91" cy="609.66" r="2.97"/><circle cx="902.63" cy="580.54" r="2.97"/><circle cx="905.36" cy="568.89" r="2.97"/><circle cx="908.08" cy="481.5" r="2.97"/><circle cx="916.25" cy="609.66" r="2.97"/><circle cx="918.98" cy="568.89" r="2.97"/><circle cx="921.7" cy="522.28" r="2.97"/><circle cx="924.43" cy="539.76" r="2.97"/><circle cx="927.15" cy="568.89" r="2.97"/><circle cx="929.87" cy="498.98" r="2.97"/><circle cx="932.6" cy="539.76" r="2.97"/><circle cx="935.32" cy="580.54" r="2.97"/><circle cx="938.05" cy="586.36" r="2.97"/><circle cx="940.77" cy="592.19" r="2.97"/><circle cx="943.49" cy="627.14" r="2.97"/><circle cx="946.22" cy="650.44" r="2.97"/><circle cx="948.94" cy="586.36" r="2.97"/><circle cx="951.67" cy="516.46" r="2.97"/><circle cx="954.39" cy="545.58" r="2.97"/><circle cx="959.84" cy="487.33" r="2.97"/><circle cx="962.56" cy="493.15" r="2.97"/><circle cx="965.29" cy="498.98" r="2.97"/><circle cx="968.01" cy="493.15" r="2.97"/><circle cx="970.74" cy="516.46" r="2.97"/><circle cx="973.46" cy="545.58" r="2.97"/><circle cx="976.18" cy="528.11" r="2.97"/><circle cx="978.91" cy="685.39" r="2.97"/><circle cx="981.63" cy="743.65" r="2.97"/><circle cx="984.36" cy="644.62" r="2.97"/><circle cx="987.08" cy="580.54" r="2.97"/><circle cx="989.8" cy="522.28" r="2.97"/><circle cx="995.25" cy="551.41" r="2.97"/><circle cx="997.98" cy="586.36" r="2.97"/><circle cx="1003.42" cy="487.33" r="2.97"/><circle cx="1014.32" cy="510.63" r="2.97"/><circle cx="1027.94" cy="533.93" r="2.97"/><circle cx="1030.66" cy="580.54" r="2.97"/><circle cx="1033.39" cy="574.71" r="2.97"/><circle cx="1036.11" cy="487.33" r="2.97"/><circle cx="1052.46" cy="487.33" r="2.97"/><circle cx="1055.18" cy="498.98" r="2.97"/><circle cx="1057.91" cy="487.33" r="2.97"/><circle class="cls-3" cx="104.48" cy="469.85" r="2.97"/><circle class="cls-3" cx="109.92" cy="458.2" r="2.97"/><circle class="cls-3" cx="112.65" cy="364.99" r="2.97"/><circle class="cls-3" cx="115.37" cy="289.26" r="2.97"/><circle class="cls-3" cx="118.1" cy="353.34" r="2.97"/><circle class="cls-3" cx="120.82" cy="370.82" r="2.97"/><circle class="cls-3" cx="123.54" cy="446.55" r="2.97"/><circle class="cls-3" cx="128.99" cy="434.9" r="2.97"/><circle class="cls-3" cx="131.72" cy="312.57" r="2.97"/><circle class="cls-3" cx="134.44" cy="312.57" r="2.97"/><circle class="cls-3" cx="137.16" cy="469.85" r="2.97"/><circle class="cls-3" cx="148.06" cy="458.2" r="2.97"/><circle class="cls-3" cx="150.79" cy="446.55" r="2.97"/><circle class="cls-3" cx="186.2" cy="440.73" r="2.97"/><circle class="cls-3" cx="207.99" cy="434.9" r="2.97"/><circle class="cls-3" cx="210.72" cy="434.9" r="2.97"/><circle class="cls-3" cx="213.44" cy="359.17" r="2.97"/><circle class="cls-3" cx="216.16" cy="330.04" r="2.97"/><circle class="cls-3" cx="224.34" cy="434.9" r="2.97"/><circle class="cls-3" cx="227.06" cy="458.2" r="2.97"/><circle class="cls-3" cx="262.47" cy="405.77" r="2.97"/><circle class="cls-3" cx="265.2" cy="446.55" r="2.97"/><circle class="cls-3" cx="303.33" cy="452.38" r="2.97"/><circle class="cls-3" cx="910.81" cy="405.77" r="2.97"/><circle class="cls-3" cx="913.53" cy="423.25" r="2.97"/><circle class="cls-3" cx="957.11" cy="429.07" r="2.97"/><circle class="cls-3" cx="992.53" cy="446.55" r="2.97"/><circle class="cls-3" cx="1000.7" cy="458.2" r="2.97"/><circle class="cls-3" cx="1006.15" cy="330.04" r="2.97"/><circle class="cls-3" cx="1008.87" cy="312.57" r="2.97"/><circle class="cls-3" cx="1011.6" cy="388.3" r="2.97"/><circle class="cls-3" cx="1017.04" cy="434.9" r="2.97"/><circle class="cls-3" cx="1025.22" cy="411.6" r="2.97"/><circle class="cls-3" cx="1038.84" cy="458.2" r="2.97"/><circle class="cls-3" cx="1041.56" cy="289.26" r="2.97"/><circle class="cls-3" cx="1044.29" cy="324.22" r="2.97"/><circle class="cls-3" cx="1047.01" cy="330.04" r="2.97"/><circle class="cls-3" cx="1049.73" cy="364.99" r="2.97"/><circle class="cls-3" cx="1060.63" cy="434.9" r="2.97"/><circle class="cls-3" cx="1063.35" cy="429.07" r="2.97"/><circle cx="1066.08" cy="539.76" r="2.97"/><circle cx="1068.8" cy="528.11" r="2.97"/><circle cx="1071.53" cy="481.5" r="2.97"/><circle cx="1074.25" cy="603.84" r="2.97"/><circle cx="1076.97" cy="632.97" r="2.97"/><circle cx="1079.7" cy="621.31" r="2.97"/><circle cx="1082.42" cy="563.06" r="2.97"/><circle cx="1085.15" cy="516.46" r="2.97"/><circle cx="1087.87" cy="563.06" r="2.97"/><g class="cls-4"><path d="M206.41,783.86V773h6.49v1.16h-5.18v3.66h4.69V779h-4.69v4.84Z"/><path d="M215.14,783.86V773h6.53v1.16h-5.22v3.66h4.88V779h-4.88v3.68h5.3v1.16Z"/><path d="M224,783.86V773h3.79a4.08,4.08,0,0,1,1.86.38,2.6,2.6,0,0,1,1.1,1.05,2.9,2.9,0,0,1,.36,1.44,2.31,2.31,0,0,1-.25,1.15,1.87,1.87,0,0,1-.64.72,2.84,2.84,0,0,1-.87.39v.11a2.12,2.12,0,0,1,1,.35,2.39,2.39,0,0,1,.84.91,2.79,2.79,0,0,1,.34,1.44,2.89,2.89,0,0,1-.37,1.47,2.64,2.64,0,0,1-1.17,1,4.88,4.88,0,0,1-2.07.38Zm1.32-6.07h2.43a2.5,2.5,0,0,0,1.07-.23,1.94,1.94,0,0,0,.76-.66,1.72,1.72,0,0,0,.28-1,1.66,1.66,0,0,0-.5-1.21,2.14,2.14,0,0,0-1.57-.5h-2.47Zm0,4.91H228a2.68,2.68,0,0,0,1.82-.5,1.61,1.61,0,0,0,.54-1.22,1.9,1.9,0,0,0-.28-1,1.88,1.88,0,0,0-.8-.75,2.47,2.47,0,0,0-1.22-.29h-2.66Z"/></g><g class="cls-4"><path d="M131.5,776.42a3.88,3.88,0,0,0-.46-1,3.12,3.12,0,0,0-.67-.73,3,3,0,0,0-.88-.46,3.65,3.65,0,0,0-1.08-.16,3.18,3.18,0,0,0-1.74.5,3.42,3.42,0,0,0-1.26,1.46,5.49,5.49,0,0,0-.46,2.38,5.33,5.33,0,0,0,.47,2.37,3.44,3.44,0,0,0,1.27,1.46,3.31,3.31,0,0,0,1.81.5,3.24,3.24,0,0,0,1.64-.4,2.81,2.81,0,0,0,1.11-1.13,3.5,3.5,0,0,0,.4-1.72l.4.08h-3.26v-1.16h4.13v1.16a4.53,4.53,0,0,1-.57,2.32,3.92,3.92,0,0,1-1.57,1.53,4.58,4.58,0,0,1-2.28.55,4.66,4.66,0,0,1-2.52-.68,4.46,4.46,0,0,1-1.69-1.92,6.63,6.63,0,0,1-.61-3,7.19,7.19,0,0,1,.35-2.31,5,5,0,0,1,1-1.76,4.32,4.32,0,0,1,1.5-1.11,4.71,4.71,0,0,1,1.9-.38,4.84,4.84,0,0,1,1.6.25,4.63,4.63,0,0,1,1.33.73,4.21,4.21,0,0,1,1.51,2.55Z"/><path d="M135.16,783.86V773h6.53v1.16h-5.22v3.66h4.88V779h-4.88v3.68h5.3v1.16Z"/><path d="M152.64,773v10.82h-1.27l-5.9-8.5h-.1v8.5h-1.31V773h1.26l5.92,8.51h.11V773Z"/></g><g class="cls-4"><path d="M284.22,773h1.56l3.68,9h.12l3.68-9h1.57v10.82H293.6v-8.22h-.1l-3.39,8.22h-1.18l-3.38-8.22h-.11v8.22h-1.22Z"/><path d="M297.89,783.86h-1.37l4-10.82h1.35l4,10.82h-1.38l-3.23-9.11h-.09Zm.51-4.23h5.54v1.16H298.4Z"/><path d="M307.51,783.86V773h3.66a4.43,4.43,0,0,1,2.08.43,2.74,2.74,0,0,1,1.2,1.18,3.64,3.64,0,0,1,.39,1.7,3.58,3.58,0,0,1-.39,1.7,2.75,2.75,0,0,1-1.2,1.16,4.47,4.47,0,0,1-2.06.42h-3v-1.18h2.91a3.24,3.24,0,0,0,1.4-.26,1.59,1.59,0,0,0,.77-.72,2.41,2.41,0,0,0,.24-1.12,2.51,2.51,0,0,0-.24-1.13,1.58,1.58,0,0,0-.78-.75,3.1,3.1,0,0,0-1.41-.27h-2.3v9.66ZM312.6,779l2.67,4.86h-1.53L311.12,779Z"/></g><g class="cls-4"><path d="M369.78,783.86H368.4l4-10.82h1.35l4,10.82h-1.37l-3.23-9.11H373Zm.5-4.23h5.54v1.16h-5.54Z"/><path d="M379.39,783.86V773h3.66a4.31,4.31,0,0,1,2.09.45,2.92,2.92,0,0,1,1.2,1.24,3.79,3.79,0,0,1,.39,1.73,3.84,3.84,0,0,1-.39,1.74,2.92,2.92,0,0,1-1.2,1.24,4.12,4.12,0,0,1-2.07.47h-2.62v-1.17H383a2.82,2.82,0,0,0,1.4-.3,1.82,1.82,0,0,0,.77-.81,2.78,2.78,0,0,0,.24-1.17,2.7,2.7,0,0,0-.24-1.16,1.79,1.79,0,0,0-.78-.81,3,3,0,0,0-1.41-.29H380.7v9.66Z"/><path d="M388.84,783.86V773h3.66a4.4,4.4,0,0,1,2.08.43,2.76,2.76,0,0,1,1.21,1.18,3.64,3.64,0,0,1,.39,1.7,3.58,3.58,0,0,1-.39,1.7,2.75,2.75,0,0,1-1.2,1.16,4.48,4.48,0,0,1-2.07.42h-3v-1.18h2.92a3.27,3.27,0,0,0,1.4-.26,1.64,1.64,0,0,0,.77-.72,2.71,2.71,0,0,0,0-2.25,1.6,1.6,0,0,0-.77-.75,3.16,3.16,0,0,0-1.41-.27h-2.31v9.66Zm5.1-4.86,2.66,4.86h-1.52L392.46,779Z"/></g><g class="cls-4"><path d="M449.81,773h1.56l3.68,9h.13l3.67-9h1.57v10.82h-1.23v-8.22h-.1l-3.38,8.22h-1.19l-3.38-8.22H451v8.22h-1.22Z"/><path d="M463.48,783.86h-1.37l4-10.82h1.36l4,10.82H470l-3.24-9.11h-.08Zm.51-4.23h5.54v1.16H464Z"/><path d="M480,776.42a3.86,3.86,0,0,0-.45-1,3.16,3.16,0,0,0-.68-.73,3,3,0,0,0-.88-.46,3.59,3.59,0,0,0-1.07-.16,3.22,3.22,0,0,0-1.75.5,3.42,3.42,0,0,0-1.26,1.46,6.3,6.3,0,0,0,0,4.75,3.44,3.44,0,0,0,1.27,1.46,3.31,3.31,0,0,0,1.81.5,3.24,3.24,0,0,0,1.64-.4,2.69,2.69,0,0,0,1.11-1.13,3.5,3.5,0,0,0,.4-1.72l.4.08h-3.25v-1.16h4.12v1.16a4.53,4.53,0,0,1-.57,2.32,4,4,0,0,1-1.56,1.53,5,5,0,0,1-4.81-.13,4.46,4.46,0,0,1-1.69-1.92,6.63,6.63,0,0,1-.61-3,7.19,7.19,0,0,1,.35-2.31,5.18,5.18,0,0,1,1-1.76,4.32,4.32,0,0,1,1.5-1.11,4.75,4.75,0,0,1,1.91-.38,4.82,4.82,0,0,1,1.59.25,4.63,4.63,0,0,1,1.33.73,4.17,4.17,0,0,1,1,1.11,4.38,4.38,0,0,1,.54,1.44Z"/></g><g class="cls-4"><path d="M544.53,776.42a3.88,3.88,0,0,0-.46-1,3.12,3.12,0,0,0-.67-.73,3,3,0,0,0-.88-.46,3.71,3.71,0,0,0-1.08-.16,3.24,3.24,0,0,0-1.75.5,3.47,3.47,0,0,0-1.25,1.46,6.24,6.24,0,0,0,0,4.75,3.46,3.46,0,0,0,1.28,1.46,3.54,3.54,0,0,0,3.45.1,2.81,2.81,0,0,0,1.11-1.13,3.61,3.61,0,0,0,.39-1.72l.41.08h-3.26v-1.16h4.12v1.16a4.53,4.53,0,0,1-.57,2.32,3.89,3.89,0,0,1-1.56,1.53,4.62,4.62,0,0,1-2.29.55,4.71,4.71,0,0,1-2.52-.68,4.53,4.53,0,0,1-1.69-1.92,6.77,6.77,0,0,1-.6-3,7.19,7.19,0,0,1,.34-2.31,5.18,5.18,0,0,1,1-1.76,4.32,4.32,0,0,1,1.5-1.11,4.79,4.79,0,0,1,1.91-.38,4.92,4.92,0,0,1,1.6.25,4.76,4.76,0,0,1,1.33.73,4.31,4.31,0,0,1,1,1.11,4.38,4.38,0,0,1,.54,1.44Z"/><path d="M549.49,773v10.82h-1.31V773Z"/><path d="M559.22,773h1.31v7.16a3.85,3.85,0,0,1-.52,2,3.67,3.67,0,0,1-1.47,1.37,5.18,5.18,0,0,1-4.44,0,3.67,3.67,0,0,1-1.47-1.37,3.85,3.85,0,0,1-.52-2V773h1.31v7.06a2.82,2.82,0,0,0,.35,1.4,2.46,2.46,0,0,0,1,1,3.61,3.61,0,0,0,3.1,0,2.34,2.34,0,0,0,1-1,2.82,2.82,0,0,0,.35-1.4Z"/></g><g class="cls-4"><path d="M618.26,783.86V773h1.31v9.66h5v1.16Z"/><path d="M633.73,773H635v7.16a3.75,3.75,0,0,1-.52,2,3.67,3.67,0,0,1-1.47,1.37,5.16,5.16,0,0,1-4.43,0,3.61,3.61,0,0,1-1.47-1.37,3.75,3.75,0,0,1-.52-2V773h1.31v7.06a2.82,2.82,0,0,0,.35,1.4,2.37,2.37,0,0,0,1,1,3.63,3.63,0,0,0,3.11,0,2.37,2.37,0,0,0,1-1,2.72,2.72,0,0,0,.35-1.4Z"/><path d="M645.06,776.42a3.88,3.88,0,0,0-.46-1,3.12,3.12,0,0,0-.67-.73,3,3,0,0,0-.88-.46,3.65,3.65,0,0,0-1.08-.16,3.18,3.18,0,0,0-1.74.5,3.42,3.42,0,0,0-1.26,1.46,5.49,5.49,0,0,0-.46,2.38,5.33,5.33,0,0,0,.47,2.37,3.44,3.44,0,0,0,1.27,1.46,3.31,3.31,0,0,0,1.81.5,3.24,3.24,0,0,0,1.64-.4,2.81,2.81,0,0,0,1.11-1.13,3.5,3.5,0,0,0,.4-1.72l.4.08h-3.26v-1.16h4.13v1.16a4.53,4.53,0,0,1-.57,2.32,3.92,3.92,0,0,1-1.57,1.53,4.58,4.58,0,0,1-2.28.55,4.66,4.66,0,0,1-2.52-.68,4.55,4.55,0,0,1-1.7-1.92,6.77,6.77,0,0,1-.6-3,6.92,6.92,0,0,1,.35-2.31,5,5,0,0,1,1-1.76,4.32,4.32,0,0,1,1.5-1.11,4.71,4.71,0,0,1,1.9-.38,4.88,4.88,0,0,1,1.6.25,4.63,4.63,0,0,1,1.33.73,4.13,4.13,0,0,1,1,1.11,4.38,4.38,0,0,1,.54,1.44Z"/></g><g class="cls-4"><path d="M702.06,783.86h-1.37l4-10.82H706l4,10.82h-1.38l-3.23-9.11h-.09Zm.51-4.23h5.53v1.16h-5.53Z"/><path d="M718.57,776.42a3.88,3.88,0,0,0-.46-1,3.12,3.12,0,0,0-.67-.73,3,3,0,0,0-.88-.46,3.71,3.71,0,0,0-1.08-.16,3.24,3.24,0,0,0-1.75.5,3.47,3.47,0,0,0-1.25,1.46,5.49,5.49,0,0,0-.46,2.38,5.33,5.33,0,0,0,.47,2.37,3.38,3.38,0,0,0,1.27,1.46,3.54,3.54,0,0,0,3.45.1,2.81,2.81,0,0,0,1.11-1.13,3.61,3.61,0,0,0,.4-1.72l.4.08h-3.26v-1.16H720v1.16a4.63,4.63,0,0,1-.56,2.32,3.92,3.92,0,0,1-1.57,1.53,4.58,4.58,0,0,1-2.28.55,4.72,4.72,0,0,1-2.53-.68,4.6,4.6,0,0,1-1.69-1.92,6.77,6.77,0,0,1-.6-3,7.19,7.19,0,0,1,.34-2.31,5.18,5.18,0,0,1,1-1.76,4.51,4.51,0,0,1,1.5-1.11,4.79,4.79,0,0,1,1.91-.38,4.88,4.88,0,0,1,1.6.25,4.63,4.63,0,0,1,1.33.73,4.13,4.13,0,0,1,1,1.11,4.38,4.38,0,0,1,.54,1.44Z"/><path d="M731.36,778.45a6.63,6.63,0,0,1-.62,3,4.69,4.69,0,0,1-1.7,1.92,4.79,4.79,0,0,1-4.92,0,4.62,4.62,0,0,1-1.7-1.92,7.38,7.38,0,0,1,0-5.92,4.71,4.71,0,0,1,1.7-1.93,4.85,4.85,0,0,1,4.92,0,4.78,4.78,0,0,1,1.7,1.93A6.63,6.63,0,0,1,731.36,778.45Zm-1.27,0a5.49,5.49,0,0,0-.47-2.38,3.42,3.42,0,0,0-1.26-1.46,3.42,3.42,0,0,0-3.56,0,3.42,3.42,0,0,0-1.26,1.46,6.24,6.24,0,0,0,0,4.75,3.42,3.42,0,0,0,1.26,1.46,3.42,3.42,0,0,0,3.56,0,3.42,3.42,0,0,0,1.26-1.46A5.47,5.47,0,0,0,730.09,778.45Z"/></g><g class="cls-4"><path d="M792.86,775.74a1.67,1.67,0,0,0-.77-1.25,3,3,0,0,0-1.66-.44,3.26,3.26,0,0,0-1.26.23,2.08,2.08,0,0,0-.83.64,1.52,1.52,0,0,0-.3.93,1.29,1.29,0,0,0,.21.74,1.65,1.65,0,0,0,.54.51,3.32,3.32,0,0,0,.68.34c.24.08.46.15.66.2l1.1.3a8.64,8.64,0,0,1,.95.31,4.39,4.39,0,0,1,1,.53,2.84,2.84,0,0,1,.79.86,2.53,2.53,0,0,1,.31,1.28,2.92,2.92,0,0,1-.46,1.59,3.15,3.15,0,0,1-1.33,1.12,5.53,5.53,0,0,1-4.13,0,3.28,3.28,0,0,1-1.34-1,3,3,0,0,1-.54-1.56h1.35a1.66,1.66,0,0,0,.42,1,2.12,2.12,0,0,0,.91.59,3.7,3.7,0,0,0,1.21.2,3.52,3.52,0,0,0,1.34-.25,2.19,2.19,0,0,0,.95-.69,1.62,1.62,0,0,0,.35-1,1.29,1.29,0,0,0-.3-.88,2.27,2.27,0,0,0-.8-.55,8.74,8.74,0,0,0-1.06-.37l-1.33-.38a5,5,0,0,1-2-1,2.29,2.29,0,0,1-.74-1.77,2.64,2.64,0,0,1,.5-1.59,3.25,3.25,0,0,1,1.33-1.05,4.83,4.83,0,0,1,3.73,0,3.23,3.23,0,0,1,1.29,1,2.56,2.56,0,0,1,.51,1.46Z"/><path d="M796.43,783.86V773H803v1.16h-5.22v3.66h4.89V779h-4.89v3.68h5.31v1.16Z"/><path d="M804.74,774.2V773h8.12v1.16h-3.41v9.66h-1.31V774.2Z"/></g><g class="cls-4"><path d="M878.81,778.45a6.49,6.49,0,0,1-.62,3A4.47,4.47,0,0,1,874,784a4.55,4.55,0,0,1-2.46-.68,4.6,4.6,0,0,1-1.69-1.92,7.38,7.38,0,0,1,0-5.92,4.69,4.69,0,0,1,1.69-1.93,4.87,4.87,0,0,1,4.93,0,4.69,4.69,0,0,1,1.69,1.93A6.49,6.49,0,0,1,878.81,778.45Zm-1.27,0a5.49,5.49,0,0,0-.46-2.38,3.51,3.51,0,0,0-1.27-1.46,3.4,3.4,0,0,0-3.55,0,3.51,3.51,0,0,0-1.27,1.46,6.36,6.36,0,0,0,0,4.75,3.51,3.51,0,0,0,1.27,1.46,3.4,3.4,0,0,0,3.55,0,3.51,3.51,0,0,0,1.27-1.46A5.48,5.48,0,0,0,877.54,778.45Z"/><path d="M880,774.2V773h8.12v1.16h-3.4v9.66h-1.31V774.2Z"/><path d="M889.53,774.2V773h8.11v1.16h-3.4v9.66h-1.31V774.2Z"/></g><g class="cls-4"><path d="M959.93,773v10.82h-1.27l-5.9-8.5h-.1v8.5h-1.31V773h1.26l5.92,8.51h.11V773Z"/><path d="M971.68,778.45a6.63,6.63,0,0,1-.62,3,4.62,4.62,0,0,1-1.7,1.92,4.5,4.5,0,0,1-2.46.68,4.55,4.55,0,0,1-2.46-.68,4.69,4.69,0,0,1-1.7-1.92,7.38,7.38,0,0,1,0-5.92,4.78,4.78,0,0,1,1.7-1.93,4.54,4.54,0,0,1,2.46-.67,4.49,4.49,0,0,1,2.46.67,4.71,4.71,0,0,1,1.7,1.93A6.63,6.63,0,0,1,971.68,778.45Zm-1.27,0a5.49,5.49,0,0,0-.47-2.38,3.42,3.42,0,0,0-1.26-1.46,3.42,3.42,0,0,0-3.56,0,3.42,3.42,0,0,0-1.26,1.46,6.24,6.24,0,0,0,0,4.75,3.42,3.42,0,0,0,1.26,1.46,3.42,3.42,0,0,0,3.56,0,3.42,3.42,0,0,0,1.26-1.46A5.47,5.47,0,0,0,970.41,778.45Z"/><path d="M973.81,773l3.22,9.11h.12l3.22-9.11h1.37l-4,10.82h-1.36l-4-10.82Z"/></g><g class="cls-4"><path d="M1039.51,783.86h-3.34V773h3.49a5.28,5.28,0,0,1,2.69.64,4.3,4.3,0,0,1,1.72,1.86,6.42,6.42,0,0,1,.6,2.89,6.57,6.57,0,0,1-.6,2.91,4.3,4.3,0,0,1-1.76,1.87A5.66,5.66,0,0,1,1039.51,783.86Zm-2-1.16h2a4.39,4.39,0,0,0,2.22-.52,3.22,3.22,0,0,0,1.32-1.48,6.18,6.18,0,0,0,0-4.53,3.15,3.15,0,0,0-1.28-1.46,4,4,0,0,0-2.11-.51h-2.1Z"/><path d="M1048.18,773v10.82h-1.31V773Z"/><path d="M1059.51,776.42h-1.31a2.89,2.89,0,0,0-.41-1,3,3,0,0,0-.69-.72,3.33,3.33,0,0,0-.91-.44,3.58,3.58,0,0,0-1-.15,3.29,3.29,0,0,0-1.77.5,3.44,3.44,0,0,0-1.27,1.46,6.24,6.24,0,0,0,0,4.75,3.44,3.44,0,0,0,1.27,1.46,3.2,3.2,0,0,0,1.77.5,3.58,3.58,0,0,0,1-.15,3.07,3.07,0,0,0,.91-.44,2.63,2.63,0,0,0,.69-.72,2.92,2.92,0,0,0,.41-1h1.31A4.43,4.43,0,0,1,1059,782a4,4,0,0,1-1,1.11,4.24,4.24,0,0,1-1.31.7,4.82,4.82,0,0,1-1.54.24,4.55,4.55,0,0,1-2.46-.68,4.69,4.69,0,0,1-1.7-1.92,7.49,7.49,0,0,1,0-5.92,4.78,4.78,0,0,1,1.7-1.93,4.54,4.54,0,0,1,2.46-.67,4.82,4.82,0,0,1,1.54.24,4.22,4.22,0,0,1,1.31.69,4.31,4.31,0,0,1,1,1.11A4.41,4.41,0,0,1,1059.51,776.42Z"/></g><g class="cls-4"><path d="M71.9,766.07a3.2,3.2,0,0,1-2-.66,4,4,0,0,1-1.28-1.89,10.26,10.26,0,0,1,0-6,4.12,4.12,0,0,1,1.29-1.9,3.44,3.44,0,0,1,4,0,4.12,4.12,0,0,1,1.29,1.9,10.26,10.26,0,0,1,0,6,4,4,0,0,1-1.28,1.89A3.19,3.19,0,0,1,71.9,766.07Zm0-1.17a2,2,0,0,0,1.84-1.14,6.67,6.67,0,0,0,.65-3.25,8.36,8.36,0,0,0-.3-2.4,3.33,3.33,0,0,0-.85-1.5,1.9,1.9,0,0,0-1.34-.52,2,2,0,0,0-1.84,1.16,6.59,6.59,0,0,0-.66,3.26,8.28,8.28,0,0,0,.3,2.39,3.29,3.29,0,0,0,.85,1.49A1.92,1.92,0,0,0,71.9,764.9Z"/></g><g class="cls-4"><path d="M65.26,696.81v10.83H64v-9.45h-.06l-2.65,1.75v-1.33l2.71-1.8Z"/><path d="M71.9,707.78a3.19,3.19,0,0,1-2-.65,4,4,0,0,1-1.28-1.9,10.22,10.22,0,0,1,0-6,4.15,4.15,0,0,1,1.29-1.91,3.48,3.48,0,0,1,4,0,4.15,4.15,0,0,1,1.29,1.91,10.22,10.22,0,0,1,0,6,4,4,0,0,1-1.28,1.9A3.19,3.19,0,0,1,71.9,707.78Zm0-1.16a2,2,0,0,0,1.83-1.14,6.59,6.59,0,0,0,.66-3.26,8.33,8.33,0,0,0-.3-2.39,3.28,3.28,0,0,0-.85-1.5,1.9,1.9,0,0,0-1.34-.52A2,2,0,0,0,70.06,699a6.64,6.64,0,0,0-.66,3.26,8.23,8.23,0,0,0,.3,2.39,3.19,3.19,0,0,0,.85,1.5A1.92,1.92,0,0,0,71.9,706.62Z"/></g><g class="cls-4"><path d="M59.36,649.35v-1l3.57-3.91c.42-.45.77-.85,1-1.19a4.2,4.2,0,0,0,.6-1,2.18,2.18,0,0,0,.2-.94,1.75,1.75,0,0,0-1-1.64,2.45,2.45,0,0,0-1.06-.22,2.18,2.18,0,0,0-1.08.25,1.78,1.78,0,0,0-.72.72,2.16,2.16,0,0,0-.25,1.08H59.4a3.15,3.15,0,0,1,.44-1.67,3,3,0,0,1,1.2-1.12,3.53,3.53,0,0,1,1.7-.41,3.44,3.44,0,0,1,1.69.41,3,3,0,0,1,1.15,1.08,2.83,2.83,0,0,1,.42,1.52,3.35,3.35,0,0,1-.21,1.16,5.12,5.12,0,0,1-.75,1.26,21.75,21.75,0,0,1-1.45,1.7l-2.43,2.6v.08h5v1.16Z"/><path d="M71.9,649.5a3.19,3.19,0,0,1-2-.65,4,4,0,0,1-1.28-1.9,10.26,10.26,0,0,1,0-6,4.17,4.17,0,0,1,1.29-1.9,3.44,3.44,0,0,1,4,0,4.17,4.17,0,0,1,1.29,1.9,10.26,10.26,0,0,1,0,6,4,4,0,0,1-1.28,1.9A3.19,3.19,0,0,1,71.9,649.5Zm0-1.16a2,2,0,0,0,1.83-1.14,6.59,6.59,0,0,0,.66-3.26,8.33,8.33,0,0,0-.3-2.39,3.37,3.37,0,0,0-.85-1.51,1.93,1.93,0,0,0-1.34-.51,2,2,0,0,0-1.84,1.15,6.64,6.64,0,0,0-.66,3.26,8.23,8.23,0,0,0,.3,2.39,3.19,3.19,0,0,0,.85,1.5A1.92,1.92,0,0,0,71.9,648.34Z"/></g><g class="cls-4"><path d="M62.55,591.22a4.61,4.61,0,0,1-1.86-.36,3.17,3.17,0,0,1-1.29-1,2.61,2.61,0,0,1-.52-1.49h1.33a1.63,1.63,0,0,0,.36.9,2,2,0,0,0,.83.58,3,3,0,0,0,1.13.21,2.86,2.86,0,0,0,1.24-.25,2,2,0,0,0,.84-.67,1.68,1.68,0,0,0,.31-1,1.87,1.87,0,0,0-.3-1,1.93,1.93,0,0,0-.86-.72,3.43,3.43,0,0,0-1.4-.26H61.5v-1.16h.86a2.73,2.73,0,0,0,1.14-.23,1.81,1.81,0,0,0,.76-.66,1.72,1.72,0,0,0,.28-1,1.87,1.87,0,0,0-.24-1,1.62,1.62,0,0,0-.69-.63,2.25,2.25,0,0,0-1-.23,2.66,2.66,0,0,0-1,.21,2,2,0,0,0-.81.58,1.57,1.57,0,0,0-.33.93H59.11a2.6,2.6,0,0,1,.51-1.5,3.21,3.21,0,0,1,1.26-1,4,4,0,0,1,1.72-.36,3.45,3.45,0,0,1,1.72.41A2.83,2.83,0,0,1,65.81,583a2.54,2.54,0,0,1-.48,1.56,2.47,2.47,0,0,1-1.3.89v.08a2.55,2.55,0,0,1,1.6.87,2.62,2.62,0,0,1,.58,1.73,2.76,2.76,0,0,1-.48,1.59,3.35,3.35,0,0,1-1.3,1.1A4.22,4.22,0,0,1,62.55,591.22Z"/><path d="M71.9,591.22a3.25,3.25,0,0,1-2-.65,4,4,0,0,1-1.28-1.9,10.26,10.26,0,0,1,0-6,4.12,4.12,0,0,1,1.29-1.9,3.44,3.44,0,0,1,4,0,4.12,4.12,0,0,1,1.29,1.9,10.26,10.26,0,0,1,0,6,4,4,0,0,1-1.28,1.9A3.24,3.24,0,0,1,71.9,591.22Zm0-1.16a2,2,0,0,0,1.83-1.14,6.62,6.62,0,0,0,.66-3.26,8.23,8.23,0,0,0-.3-2.39,3.37,3.37,0,0,0-.85-1.51,1.94,1.94,0,0,0-1.34-.52,2,2,0,0,0-1.84,1.16,6.64,6.64,0,0,0-.66,3.26,8.28,8.28,0,0,0,.3,2.39,3.2,3.2,0,0,0,.85,1.49A1.89,1.89,0,0,0,71.9,590.06Z"/></g><g class="cls-4"><path d="M58.56,530.57v-1.08L63.31,522h.79v1.67h-.53L60,529.32v.09h6.4v1.16Zm5.09,2.22V522H64.9v10.82Z"/><path d="M71.9,532.94a3.25,3.25,0,0,1-2-.65,4,4,0,0,1-1.28-1.9,10.26,10.26,0,0,1,0-6,4.12,4.12,0,0,1,1.29-1.9,3.44,3.44,0,0,1,4,0,4.12,4.12,0,0,1,1.29,1.9,10.26,10.26,0,0,1,0,6,4,4,0,0,1-1.28,1.9A3.24,3.24,0,0,1,71.9,532.94Zm0-1.16a2,2,0,0,0,1.84-1.15,6.67,6.67,0,0,0,.65-3.25,8.23,8.23,0,0,0-.3-2.39,3.31,3.31,0,0,0-.85-1.51A1.9,1.9,0,0,0,71.9,523a2,2,0,0,0-1.84,1.16,6.62,6.62,0,0,0-.66,3.26,8.28,8.28,0,0,0,.3,2.39,3.29,3.29,0,0,0,.85,1.49A1.93,1.93,0,0,0,71.9,531.78Z"/></g><g class="cls-4"><path d="M62.7,474.66a3.76,3.76,0,0,1-1.67-.37,3.15,3.15,0,0,1-1.2-1,2.78,2.78,0,0,1-.49-1.47h1.27a1.73,1.73,0,0,0,.67,1.22,2.17,2.17,0,0,0,1.42.47,2.21,2.21,0,0,0,2-1.17,2.49,2.49,0,0,0,.3-1.23,2.62,2.62,0,0,0-.31-1.27,2.32,2.32,0,0,0-.85-.88,2.4,2.4,0,0,0-1.23-.33,3.71,3.71,0,0,0-1,.15,3,3,0,0,0-.86.4L59.51,469l.66-5.32h5.62v1.16H61.26L60.88,468H61a2.83,2.83,0,0,1,.83-.44,3.48,3.48,0,0,1,2.82.3,3.46,3.46,0,0,1,1.23,1.29,3.94,3.94,0,0,1,.44,1.87,3.65,3.65,0,0,1-.46,1.85,3.39,3.39,0,0,1-1.27,1.28A3.62,3.62,0,0,1,62.7,474.66Z"/><path d="M71.9,474.66a3.2,3.2,0,0,1-2-.66,4,4,0,0,1-1.28-1.89,10.26,10.26,0,0,1,0-6,4.07,4.07,0,0,1,1.29-1.9,3.44,3.44,0,0,1,4,0,4.07,4.07,0,0,1,1.29,1.9,10.26,10.26,0,0,1,0,6A4,4,0,0,1,73.93,474,3.19,3.19,0,0,1,71.9,474.66Zm0-1.17a2,2,0,0,0,1.84-1.14,6.67,6.67,0,0,0,.65-3.25,8.36,8.36,0,0,0-.3-2.4,3.33,3.33,0,0,0-.85-1.5,1.9,1.9,0,0,0-1.34-.52,2,2,0,0,0-1.84,1.16,6.59,6.59,0,0,0-.66,3.26,8.28,8.28,0,0,0,.3,2.39,3.29,3.29,0,0,0,.85,1.49A1.92,1.92,0,0,0,71.9,473.49Z"/></g><g class="cls-4"><path d="M62.68,416.38a4.18,4.18,0,0,1-1.33-.26,3.17,3.17,0,0,1-1.22-.82,4.28,4.28,0,0,1-.88-1.57,8,8,0,0,1-.33-2.49,10.84,10.84,0,0,1,.27-2.55,5.88,5.88,0,0,1,.78-1.88,3.51,3.51,0,0,1,1.24-1.16,3.4,3.4,0,0,1,1.64-.39,3.51,3.51,0,0,1,1.62.36,3.14,3.14,0,0,1,1.16,1,3.51,3.51,0,0,1,.58,1.48H64.92a2.38,2.38,0,0,0-.7-1.21,1.92,1.92,0,0,0-1.37-.48,2.25,2.25,0,0,0-2,1.09,5.66,5.66,0,0,0-.73,3.07h.09a3.18,3.18,0,0,1,.7-.76,3.24,3.24,0,0,1,.91-.5,3.3,3.3,0,0,1,1-.17,3.21,3.21,0,0,1,1.7.46,3.44,3.44,0,0,1,1.24,1.27,3.67,3.67,0,0,1,.47,1.86,3.83,3.83,0,0,1-.45,1.84,3.47,3.47,0,0,1-1.26,1.32A3.71,3.71,0,0,1,62.68,416.38Zm0-1.17a2.26,2.26,0,0,0,1.2-.33,2.48,2.48,0,0,0,.84-.89,2.63,2.63,0,0,0,.31-1.25,2.48,2.48,0,0,0-.3-1.22,2.31,2.31,0,0,0-.82-.88,2.17,2.17,0,0,0-1.19-.33,2.25,2.25,0,0,0-.93.2,2.4,2.4,0,0,0-.76.54,2.51,2.51,0,0,0-.7,1.71,2.56,2.56,0,0,0,.31,1.21,2.47,2.47,0,0,0,.83.9A2.19,2.19,0,0,0,62.68,415.21Z"/><path d="M71.9,416.38a3.2,3.2,0,0,1-2-.66,4,4,0,0,1-1.28-1.89,10.26,10.26,0,0,1,0-6,4.07,4.07,0,0,1,1.29-1.9,3.44,3.44,0,0,1,4,0,4.07,4.07,0,0,1,1.29,1.9,10.26,10.26,0,0,1,0,6,4,4,0,0,1-1.28,1.89A3.19,3.19,0,0,1,71.9,416.38Zm0-1.17a2,2,0,0,0,1.84-1.14,6.67,6.67,0,0,0,.65-3.25,8.36,8.36,0,0,0-.3-2.4,3.28,3.28,0,0,0-.85-1.5,1.9,1.9,0,0,0-1.34-.52,2,2,0,0,0-1.84,1.15,6.66,6.66,0,0,0-.66,3.27,8.33,8.33,0,0,0,.3,2.39,3.29,3.29,0,0,0,.85,1.49A1.92,1.92,0,0,0,71.9,415.21Z"/></g><g class="cls-4"><path d="M60.44,358l4.84-9.58v-.08H59.7v-1.17h6.93v1.23L61.81,358Z"/><path d="M71.9,358.09a3.19,3.19,0,0,1-2-.65,4,4,0,0,1-1.28-1.9,10.22,10.22,0,0,1,0-6,4.15,4.15,0,0,1,1.29-1.91,3.48,3.48,0,0,1,4,0,4.15,4.15,0,0,1,1.29,1.91,10.22,10.22,0,0,1,0,6,4,4,0,0,1-1.28,1.9A3.19,3.19,0,0,1,71.9,358.09Zm0-1.16a2,2,0,0,0,1.83-1.14,6.59,6.59,0,0,0,.66-3.26,8.33,8.33,0,0,0-.3-2.39,3.37,3.37,0,0,0-.85-1.51,1.93,1.93,0,0,0-1.34-.51,2,2,0,0,0-1.84,1.15,6.64,6.64,0,0,0-.66,3.26,8.23,8.23,0,0,0,.3,2.39,3.19,3.19,0,0,0,.85,1.5A1.92,1.92,0,0,0,71.9,356.93Z"/></g><g class="cls-4"><path d="M62.66,299.81a4.45,4.45,0,0,1-1.92-.39,3.07,3.07,0,0,1-1.3-1.07,2.72,2.72,0,0,1-.46-1.56,3,3,0,0,1,.27-1.27,2.7,2.7,0,0,1,.75-1,2.34,2.34,0,0,1,1.07-.5V294a2.11,2.11,0,0,1-1.23-.88,2.63,2.63,0,0,1-.46-1.53,2.69,2.69,0,0,1,.42-1.48,2.92,2.92,0,0,1,1.17-1,3.69,3.69,0,0,1,1.69-.38,3.65,3.65,0,0,1,1.68.38,3,3,0,0,1,1.16,1,2.72,2.72,0,0,1,0,3,2.14,2.14,0,0,1-1.23.88V294a2.22,2.22,0,0,1,1.06.5,2.7,2.7,0,0,1,.75,1,3,3,0,0,1,.29,1.27,2.74,2.74,0,0,1-.48,1.56,3.1,3.1,0,0,1-1.29,1.07A4.43,4.43,0,0,1,62.66,299.81Zm0-1.16a3.09,3.09,0,0,0,1.27-.24,1.89,1.89,0,0,0,.82-.67,1.83,1.83,0,0,0,.3-1,2,2,0,0,0-.32-1.08,2.19,2.19,0,0,0-.85-.74,2.67,2.67,0,0,0-1.22-.27,2.71,2.71,0,0,0-1.23.27,2.15,2.15,0,0,0-.86.74,2,2,0,0,0-.3,1.08,1.82,1.82,0,0,0,.28,1,1.92,1.92,0,0,0,.83.67A3.14,3.14,0,0,0,62.66,298.65Zm0-5.14a2.26,2.26,0,0,0,1-.23,1.78,1.78,0,0,0,.71-.65,1.91,1.91,0,0,0,0-1.94,1.78,1.78,0,0,0-.7-.63,2.53,2.53,0,0,0-2.11,0,1.68,1.68,0,0,0-.71.63,2,2,0,0,0,0,1.94,1.78,1.78,0,0,0,.71.65A2.35,2.35,0,0,0,62.66,293.51Z"/><path d="M71.9,299.81a3.25,3.25,0,0,1-2-.65,4,4,0,0,1-1.28-1.9,10.26,10.26,0,0,1,0-6,4.12,4.12,0,0,1,1.29-1.9,3.44,3.44,0,0,1,4,0,4.12,4.12,0,0,1,1.29,1.9,10.26,10.26,0,0,1,0,6,4,4,0,0,1-1.28,1.9A3.24,3.24,0,0,1,71.9,299.81Zm0-1.16a2,2,0,0,0,1.83-1.14,6.59,6.59,0,0,0,.66-3.26,8.28,8.28,0,0,0-.3-2.39,3.37,3.37,0,0,0-.85-1.51,1.94,1.94,0,0,0-1.34-.52A2,2,0,0,0,70.06,291a6.64,6.64,0,0,0-.66,3.26,8.28,8.28,0,0,0,.3,2.39,3.15,3.15,0,0,0,.85,1.49A1.89,1.89,0,0,0,71.9,298.65Z"/></g><g class="cls-4"><path d="M62.53,230.41a3.87,3.87,0,0,1,1.33.25,3.24,3.24,0,0,1,1.22.83,4,4,0,0,1,.88,1.56,7.89,7.89,0,0,1,.34,2.48,11,11,0,0,1-.28,2.56,5.88,5.88,0,0,1-.78,1.88A3.42,3.42,0,0,1,64,241.13a3.29,3.29,0,0,1-1.64.4,3.57,3.57,0,0,1-1.62-.36,3.14,3.14,0,0,1-1.16-1,3.59,3.59,0,0,1-.58-1.51h1.29a2.36,2.36,0,0,0,.7,1.23,1.89,1.89,0,0,0,1.37.49,2.26,2.26,0,0,0,2-1.1,5.52,5.52,0,0,0,.73-3.09H65a3.22,3.22,0,0,1-.7.77,3,3,0,0,1-.9.49,3.11,3.11,0,0,1-1.06.18,3.31,3.31,0,0,1-1.7-.46,3.46,3.46,0,0,1-1.24-1.28,3.65,3.65,0,0,1-.46-1.85,3.83,3.83,0,0,1,.44-1.82,3.33,3.33,0,0,1,1.26-1.32A3.5,3.5,0,0,1,62.53,230.41Zm0,1.16a2.2,2.2,0,0,0-1.19.33,2.32,2.32,0,0,0-.84.89,2.63,2.63,0,0,0,0,2.46,2.29,2.29,0,0,0,.81.88,2.2,2.2,0,0,0,1.19.33,2.26,2.26,0,0,0,.94-.2,2.39,2.39,0,0,0,.75-.55,2.51,2.51,0,0,0,.51-.78,2.31,2.31,0,0,0,.19-.93,2.41,2.41,0,0,0-.3-1.18,2.59,2.59,0,0,0-.84-.9A2.17,2.17,0,0,0,62.53,231.57Z"/><path d="M71.9,241.53a3.25,3.25,0,0,1-2-.65,4,4,0,0,1-1.28-1.9,10.26,10.26,0,0,1,0-6,4.12,4.12,0,0,1,1.29-1.9,3.44,3.44,0,0,1,4,0,4.12,4.12,0,0,1,1.29,1.9,10.26,10.26,0,0,1,0,6,4,4,0,0,1-1.28,1.9A3.24,3.24,0,0,1,71.9,241.53Zm0-1.16a2,2,0,0,0,1.84-1.15,6.67,6.67,0,0,0,.65-3.25,8.23,8.23,0,0,0-.3-2.39,3.37,3.37,0,0,0-.85-1.51,1.9,1.9,0,0,0-1.34-.52,2,2,0,0,0-1.84,1.16A6.62,6.62,0,0,0,69.4,236a8.28,8.28,0,0,0,.3,2.39,3.29,3.29,0,0,0,.85,1.49A1.89,1.89,0,0,0,71.9,240.37Z"/></g><g class="cls-4"><path d="M56,172.28V183.1H54.65v-9.45h-.07l-2.64,1.75v-1.33l2.71-1.79Z"/><path d="M62.6,183.25a3.2,3.2,0,0,1-2-.66,4,4,0,0,1-1.28-1.89,10.26,10.26,0,0,1,0-6,4.07,4.07,0,0,1,1.29-1.9,3.44,3.44,0,0,1,4.05,0,4.07,4.07,0,0,1,1.29,1.9,10.26,10.26,0,0,1,0,6,4,4,0,0,1-1.28,1.89A3.19,3.19,0,0,1,62.6,183.25Zm0-1.17a2,2,0,0,0,1.83-1.14,6.55,6.55,0,0,0,.66-3.25,8.36,8.36,0,0,0-.3-2.4,3.28,3.28,0,0,0-.85-1.5,1.9,1.9,0,0,0-1.34-.52,2,2,0,0,0-1.84,1.15,6.66,6.66,0,0,0-.66,3.27,8.28,8.28,0,0,0,.3,2.39,3.2,3.2,0,0,0,.85,1.49A1.92,1.92,0,0,0,62.6,182.08Z"/><path d="M71.9,183.25a3.2,3.2,0,0,1-2-.66,4,4,0,0,1-1.28-1.89,10.26,10.26,0,0,1,0-6,4.07,4.07,0,0,1,1.29-1.9,3.44,3.44,0,0,1,4,0,4.07,4.07,0,0,1,1.29,1.9,10.26,10.26,0,0,1,0,6,4,4,0,0,1-1.28,1.89A3.19,3.19,0,0,1,71.9,183.25Zm0-1.17a2,2,0,0,0,1.84-1.14,6.67,6.67,0,0,0,.65-3.25,8.36,8.36,0,0,0-.3-2.4,3.28,3.28,0,0,0-.85-1.5,1.9,1.9,0,0,0-1.34-.52,2,2,0,0,0-1.84,1.15,6.66,6.66,0,0,0-.66,3.27,8.28,8.28,0,0,0,.3,2.39,3.29,3.29,0,0,0,.85,1.49A1.92,1.92,0,0,0,71.9,182.08Z"/></g><path d="M288.78,175.3a1.58,1.58,0,0,0-.7-1.17,2.66,2.66,0,0,0-1.54-.41,3.13,3.13,0,0,0-1.16.2,1.77,1.77,0,0,0-.75.58,1.32,1.32,0,0,0-.27.82,1.19,1.19,0,0,0,.19.66,1.44,1.44,0,0,0,.48.47,2.91,2.91,0,0,0,.64.31c.23.09.45.15.66.21l1.06.27a10,10,0,0,1,1.06.34,4.41,4.41,0,0,1,1,.58,2.63,2.63,0,0,1,.75.87,2.59,2.59,0,0,1,.29,1.25,2.94,2.94,0,0,1-.47,1.64,3.2,3.2,0,0,1-1.37,1.12,5.09,5.09,0,0,1-2.17.42,5.18,5.18,0,0,1-2.1-.39A3.26,3.26,0,0,1,283,182a3.12,3.12,0,0,1-.55-1.69h1.63a1.66,1.66,0,0,0,.39,1,2,2,0,0,0,.86.58,3.51,3.51,0,0,0,1.15.18,3.19,3.19,0,0,0,1.24-.22,2,2,0,0,0,.85-.61,1.42,1.42,0,0,0,.31-.92,1.17,1.17,0,0,0-.27-.79,2.26,2.26,0,0,0-.73-.51,7.59,7.59,0,0,0-1.05-.35l-1.28-.35a4.83,4.83,0,0,1-2.05-1,2.32,2.32,0,0,1-.76-1.82,2.74,2.74,0,0,1,.5-1.63,3.34,3.34,0,0,1,1.38-1.09,4.71,4.71,0,0,1,1.95-.38,4.62,4.62,0,0,1,1.95.38,3.25,3.25,0,0,1,1.32,1.06,2.62,2.62,0,0,1,.51,1.55Z"/><path d="M292.32,186.32V175.16h1.55v1.31H294a4.9,4.9,0,0,1,.39-.58,2.53,2.53,0,0,1,.72-.59,2.64,2.64,0,0,1,1.22-.25,3.17,3.17,0,0,1,1.75.5A3.38,3.38,0,0,1,299.3,177a6,6,0,0,1,0,4.51,3.45,3.45,0,0,1-1.21,1.44,3.07,3.07,0,0,1-1.75.5,2.61,2.61,0,0,1-1.2-.24,2.35,2.35,0,0,1-.74-.59,3.85,3.85,0,0,1-.4-.59h-.1v4.31Zm1.55-7.1a4.07,4.07,0,0,0,.25,1.5,2.21,2.21,0,0,0,.72,1,1.78,1.78,0,0,0,1.15.37,1.84,1.84,0,0,0,1.18-.38,2.39,2.39,0,0,0,.73-1,4.18,4.18,0,0,0,.24-1.46,4.12,4.12,0,0,0-.24-1.45,2.28,2.28,0,0,0-.72-1,1.91,1.91,0,0,0-1.19-.36,1.86,1.86,0,0,0-1.16.35,2.26,2.26,0,0,0-.72,1A4.14,4.14,0,0,0,293.87,179.22Z"/><path d="M305,183.44a3.93,3.93,0,0,1-2.07-.52,3.4,3.4,0,0,1-1.33-1.45,4.89,4.89,0,0,1-.47-2.2,5,5,0,0,1,.47-2.2,3.52,3.52,0,0,1,3.28-2,4.06,4.06,0,0,1,1.34.23,3.21,3.21,0,0,1,1.15.71,3.38,3.38,0,0,1,.81,1.26,5.26,5.26,0,0,1,.3,1.88v.56H302v-1.18h4.9a2.45,2.45,0,0,0-.25-1.11,2,2,0,0,0-.71-.76,2,2,0,0,0-1.08-.28,2.07,2.07,0,0,0-1.15.32,2.25,2.25,0,0,0-.77.85,2.54,2.54,0,0,0-.26,1.13v.92A3,3,0,0,0,303,181a2,2,0,0,0,.8.87,2.49,2.49,0,0,0,1.21.29,2.66,2.66,0,0,0,.82-.12,1.81,1.81,0,0,0,.64-.39,1.72,1.72,0,0,0,.41-.64l1.5.27a2.78,2.78,0,0,1-.64,1.15,3.15,3.15,0,0,1-1.16.77A4.36,4.36,0,0,1,305,183.44Z"/><path d="M313.65,186.49a4.82,4.82,0,0,1-1.66-.26,3.19,3.19,0,0,1-1.14-.67,2.68,2.68,0,0,1-.65-.91l1.36-.56a3,3,0,0,0,.38.49,1.83,1.83,0,0,0,.66.45,2.68,2.68,0,0,0,1.07.18,2.4,2.4,0,0,0,1.48-.43,1.62,1.62,0,0,0,.59-1.39V181.8h-.1a3.93,3.93,0,0,1-.41.57,2.22,2.22,0,0,1-.73.55,2.67,2.67,0,0,1-1.21.23,3.33,3.33,0,0,1-1.73-.45,3.1,3.1,0,0,1-1.22-1.33,4.78,4.78,0,0,1-.45-2.18,5.14,5.14,0,0,1,.44-2.22,3.35,3.35,0,0,1,1.22-1.42,3.15,3.15,0,0,1,1.75-.5,2.67,2.67,0,0,1,1.22.25,2.28,2.28,0,0,1,.72.59,5.43,5.43,0,0,1,.41.58h.11v-1.31h1.55v8.3a2.88,2.88,0,0,1-.48,1.71,3,3,0,0,1-1.32,1A5.18,5.18,0,0,1,313.65,186.49Zm0-4.65a2,2,0,0,0,1.16-.32,2,2,0,0,0,.72-.92,3.88,3.88,0,0,0,.24-1.44,4,4,0,0,0-.24-1.44,2.16,2.16,0,0,0-.71-1,2.12,2.12,0,0,0-2.35,0,2.25,2.25,0,0,0-.72,1,3.92,3.92,0,0,0-.24,1.4,3.73,3.73,0,0,0,.24,1.4,1.89,1.89,0,0,0,1.9,1.28Z"/><path d="M321,178.46v4.82h-1.58v-8.12H321v1.32h.1a2.33,2.33,0,0,1,.88-1,2.71,2.71,0,0,1,1.51-.39,3,3,0,0,1,1.46.35,2.34,2.34,0,0,1,1,1,3.67,3.67,0,0,1,.35,1.68v5.17h-1.58v-5a2,2,0,0,0-.46-1.38,1.66,1.66,0,0,0-1.27-.5,1.94,1.94,0,0,0-1,.24,1.65,1.65,0,0,0-.67.69A2.28,2.28,0,0,0,321,178.46Z"/><path d="M329.12,173.91a1,1,0,0,1-.71-.28.91.91,0,0,1-.29-.66.9.9,0,0,1,.29-.67,1,1,0,0,1,.71-.28,1,1,0,0,1,.7.28.87.87,0,0,1,.3.67.88.88,0,0,1-.3.66A1,1,0,0,1,329.12,173.91Zm-.8,9.37v-8.12h1.58v8.12Z"/><path d="M332,183.28v-8.12h1.52v1.32h.1a2.12,2.12,0,0,1,.83-1,2.46,2.46,0,0,1,1.38-.38,2.4,2.4,0,0,1,1.37.38,2.3,2.3,0,0,1,.81,1h.09a2.31,2.31,0,0,1,.92-1,2.83,2.83,0,0,1,1.51-.39,2.44,2.44,0,0,1,1.81.7,2.82,2.82,0,0,1,.7,2.08v5.45h-1.58V178a1.44,1.44,0,0,0-.45-1.19,1.63,1.63,0,0,0-1.08-.37,1.5,1.5,0,0,0-1.19.47,1.72,1.72,0,0,0-.43,1.21v5.18h-1.58v-5.4a1.39,1.39,0,0,0-.41-1.06,1.45,1.45,0,0,0-1.07-.4,1.6,1.6,0,0,0-.83.23,1.91,1.91,0,0,0-.61.65,2,2,0,0,0-.23,1v5Z"/><path d="M348.67,183.44a3.87,3.87,0,0,1-2.06-.52,3.42,3.42,0,0,1-1.34-1.45,4.89,4.89,0,0,1-.46-2.2,5,5,0,0,1,.46-2.2,3.52,3.52,0,0,1,3.29-2,4,4,0,0,1,1.33.23,3.34,3.34,0,0,1,1.16.71,3.51,3.51,0,0,1,.81,1.26,5.5,5.5,0,0,1,.29,1.88v.56H345.7v-1.18h4.9a2.33,2.33,0,0,0-.25-1.11,1.93,1.93,0,0,0-1.78-1,2.1,2.1,0,0,0-1.16.32,2.22,2.22,0,0,0-.76.85,2.42,2.42,0,0,0-.27,1.13v.92a3.1,3.1,0,0,0,.29,1.39,2,2,0,0,0,.8.87,2.49,2.49,0,0,0,1.21.29,2.62,2.62,0,0,0,.82-.12,1.81,1.81,0,0,0,.64-.39,1.87,1.87,0,0,0,.42-.64l1.49.27a2.67,2.67,0,0,1-.64,1.15,3.15,3.15,0,0,1-1.16.77A4.33,4.33,0,0,1,348.67,183.44Z"/><path d="M355.49,178.46v4.82h-1.58v-8.12h1.52v1.32h.1a2.33,2.33,0,0,1,.88-1,2.71,2.71,0,0,1,1.51-.39,2.94,2.94,0,0,1,1.45.35,2.31,2.31,0,0,1,1,1,3.67,3.67,0,0,1,.35,1.68v5.17h-1.58v-5a2,2,0,0,0-.46-1.38,1.66,1.66,0,0,0-1.27-.5,1.94,1.94,0,0,0-1,.24,1.65,1.65,0,0,0-.67.69A2.28,2.28,0,0,0,355.49,178.46Z"/><path d="M366.59,175.16v1.27h-4.44v-1.27Zm-3.25-1.95h1.58v7.68a1.37,1.37,0,0,0,.14.69.64.64,0,0,0,.36.31,1.21,1.21,0,0,0,.48.09,1.69,1.69,0,0,0,.33,0l.22,0,.29,1.3a3,3,0,0,1-.4.11,2.74,2.74,0,0,1-.63.06,2.79,2.79,0,0,1-1.16-.22,2,2,0,0,1-1.21-1.94Z"/><path d="M371.67,183.44a3.84,3.84,0,0,1-2-.52,3.63,3.63,0,0,1-1.32-1.47,5.38,5.38,0,0,1,0-4.4,3.56,3.56,0,0,1,1.32-1.47,4,4,0,0,1,4,0,3.43,3.43,0,0,1,1.32,1.47,5.38,5.38,0,0,1,0,4.4,3.49,3.49,0,0,1-1.32,1.47A3.81,3.81,0,0,1,371.67,183.44Zm0-1.33a1.93,1.93,0,0,0,1.23-.39,2.38,2.38,0,0,0,.72-1,4.56,4.56,0,0,0,0-2.86,2.35,2.35,0,0,0-.72-1,1.93,1.93,0,0,0-1.23-.4,1.89,1.89,0,0,0-1.23.4,2.29,2.29,0,0,0-.73,1,4.38,4.38,0,0,0-.23,1.43,4.33,4.33,0,0,0,.23,1.43,2.32,2.32,0,0,0,.73,1A1.89,1.89,0,0,0,371.67,182.11Z"/><path d="M282.75,201.88v-8.12h1.52v1.29h.09a2,2,0,0,1,.78-1,2.19,2.19,0,0,1,1.28-.38h.35l.32,0v1.52l-.34-.06a2.59,2.59,0,0,0-.48,0,2,2,0,0,0-1,.24,1.75,1.75,0,0,0-.94,1.59v5Z"/><path d="M289.26,192.51a1,1,0,0,1-.7-.28.89.89,0,0,1,0-1.33,1,1,0,0,1,.7-.28,1,1,0,0,1,.71.28.91.91,0,0,1,0,1.33A1,1,0,0,1,289.26,192.51Zm-.79,9.37v-8.12h1.58v8.12Z"/><path d="M298.25,195.74l-1.43.25a1.76,1.76,0,0,0-.28-.52,1.66,1.66,0,0,0-.52-.41,2,2,0,0,0-.82-.15,2,2,0,0,0-1.12.29.9.9,0,0,0-.45.77.81.81,0,0,0,.3.66,2.55,2.55,0,0,0,1,.41l1.29.29a3.43,3.43,0,0,1,1.67.8,1.87,1.87,0,0,1,.55,1.4,2.13,2.13,0,0,1-.42,1.3,2.81,2.81,0,0,1-1.17.89,4.41,4.41,0,0,1-1.73.32,3.93,3.93,0,0,1-2.22-.58,2.45,2.45,0,0,1-1.06-1.67l1.53-.23a1.43,1.43,0,0,0,.58.9,2,2,0,0,0,1.16.31,2.09,2.09,0,0,0,1.24-.33,1,1,0,0,0,.47-.79.85.85,0,0,0-.28-.64,1.76,1.76,0,0,0-.87-.39l-1.37-.31a3.23,3.23,0,0,1-1.68-.82,2,2,0,0,1-.54-1.43,2,2,0,0,1,.4-1.26,2.65,2.65,0,0,1,1.11-.84,4.1,4.1,0,0,1,1.62-.31,3.35,3.35,0,0,1,2.07.57A2.65,2.65,0,0,1,298.25,195.74Z"/><path d="M303.56,202a3.67,3.67,0,0,1-2-.54,3.49,3.49,0,0,1-1.31-1.48,5,5,0,0,1-.45-2.17,4.89,4.89,0,0,1,.46-2.18,3.56,3.56,0,0,1,1.31-1.48,3.65,3.65,0,0,1,2-.54,4,4,0,0,1,1.65.34,3.06,3.06,0,0,1,1.17,1,3,3,0,0,1,.53,1.43h-1.54a1.87,1.87,0,0,0-.58-1,1.69,1.69,0,0,0-1.21-.41,2,2,0,0,0-1.15.34,2.24,2.24,0,0,0-.77,1,3.87,3.87,0,0,0-.28,1.51,4,4,0,0,0,.27,1.53,2.3,2.3,0,0,0,.77,1,1.92,1.92,0,0,0,1.16.35,2,2,0,0,0,.82-.16,1.7,1.7,0,0,0,.62-.48,2,2,0,0,0,.35-.75h1.54a3,3,0,0,1-.52,1.4,2.87,2.87,0,0,1-1.14,1A3.85,3.85,0,0,1,303.56,202Z"/><path d="M311,202.06a3.32,3.32,0,0,1-1.39-.29,2.32,2.32,0,0,1-1-.84,2.43,2.43,0,0,1-.36-1.35,2.17,2.17,0,0,1,.27-1.13,1.91,1.91,0,0,1,.71-.7,3.86,3.86,0,0,1,1-.39,8.48,8.48,0,0,1,1.14-.2l1.18-.14a1.9,1.9,0,0,0,.66-.18.46.46,0,0,0,.21-.42v0a1.44,1.44,0,0,0-.39-1.08,1.62,1.62,0,0,0-1.16-.38,2,2,0,0,0-1.25.35,1.88,1.88,0,0,0-.63.78l-1.49-.34a2.86,2.86,0,0,1,.77-1.19,3.23,3.23,0,0,1,1.18-.67,4.61,4.61,0,0,1,1.4-.21,4.73,4.73,0,0,1,1,.12,3,3,0,0,1,1,.41,2.25,2.25,0,0,1,.78.86,2.92,2.92,0,0,1,.31,1.45v5.39h-1.54v-1.11h-.07a2.19,2.19,0,0,1-.46.6,2.31,2.31,0,0,1-.78.49A3.09,3.09,0,0,1,311,202.06Zm.35-1.27a2.29,2.29,0,0,0,1.12-.26,1.79,1.79,0,0,0,.71-.68,1.7,1.7,0,0,0,.25-.9v-1a.78.78,0,0,1-.32.16,3.76,3.76,0,0,1-.55.12l-.6.09-.48.07a3.45,3.45,0,0,0-.84.19,1.42,1.42,0,0,0-.6.39,1.13,1.13,0,0,0,.2,1.57A1.91,1.91,0,0,0,311.3,200.79Z"/><path d="M318.64,191.05v10.83h-1.58V191.05Z"/><path d="M323.81,202a3.12,3.12,0,0,1-1.76-.5,3.43,3.43,0,0,1-1.2-1.44,5.36,5.36,0,0,1-.44-2.26,5.19,5.19,0,0,1,.45-2.25,3.29,3.29,0,0,1,1.21-1.43,3.17,3.17,0,0,1,1.75-.5,2.67,2.67,0,0,1,1.22.25,2.35,2.35,0,0,1,.71.59,4.41,4.41,0,0,1,.4.59h.1v-4h1.58v10.83h-1.55v-1.27h-.13a3.79,3.79,0,0,1-.41.6,2.31,2.31,0,0,1-.73.58A2.61,2.61,0,0,1,323.81,202Zm.35-1.34a1.86,1.86,0,0,0,1.15-.36,2.38,2.38,0,0,0,.72-1,4.29,4.29,0,0,0,.24-1.5,4.14,4.14,0,0,0-.24-1.48,2.22,2.22,0,0,0-.71-1,1.86,1.86,0,0,0-1.16-.35,1.84,1.84,0,0,0-1.19.37,2.17,2.17,0,0,0-.72,1,4,4,0,0,0-.24,1.44,4.18,4.18,0,0,0,.24,1.46,2.37,2.37,0,0,0,.72,1A1.88,1.88,0,0,0,324.16,200.69Z"/><path d="M332.44,202.06a3.29,3.29,0,0,1-1.39-.29,2.26,2.26,0,0,1-1-.84,2.43,2.43,0,0,1-.36-1.35,2.28,2.28,0,0,1,.26-1.13,2,2,0,0,1,.72-.7,3.86,3.86,0,0,1,1-.39,8.62,8.62,0,0,1,1.13-.2L334,197a1.9,1.9,0,0,0,.67-.18.48.48,0,0,0,.2-.42v0a1.44,1.44,0,0,0-.39-1.08,1.59,1.59,0,0,0-1.15-.38,1.89,1.89,0,0,0-1.89,1.13l-1.48-.34a2.77,2.77,0,0,1,.77-1.19,3.07,3.07,0,0,1,1.18-.67,4.61,4.61,0,0,1,1.4-.21,4.8,4.8,0,0,1,1,.12,3,3,0,0,1,1,.41,2.33,2.33,0,0,1,.78.86,3,3,0,0,1,.31,1.45v5.39H334.9v-1.11h-.06a2.41,2.41,0,0,1-.46.6,2.36,2.36,0,0,1-.79.49A3,3,0,0,1,332.44,202.06Zm.34-1.27a2.33,2.33,0,0,0,1.13-.26,1.81,1.81,0,0,0,1-1.58v-1a.84.84,0,0,1-.33.16,3.49,3.49,0,0,1-.55.12l-.59.09-.49.07a3.56,3.56,0,0,0-.84.19,1.42,1.42,0,0,0-.6.39,1,1,0,0,0-.22.68,1,1,0,0,0,.43.89A1.9,1.9,0,0,0,332.78,200.79Z"/><path d="M338.55,201.88v-8.12h1.52v1.32h.1A2.07,2.07,0,0,1,341,194a2.46,2.46,0,0,1,1.38-.38,2.37,2.37,0,0,1,1.36.38,2.32,2.32,0,0,1,.82,1.05h.08a2.33,2.33,0,0,1,.93-1,2.8,2.8,0,0,1,1.51-.39,2.42,2.42,0,0,1,1.8.7,2.78,2.78,0,0,1,.7,2.08v5.45H348v-5.3a1.44,1.44,0,0,0-.45-1.19,1.6,1.6,0,0,0-1.07-.37,1.53,1.53,0,0,0-1.2.47,1.77,1.77,0,0,0-.43,1.21v5.18h-1.57v-5.4a1.43,1.43,0,0,0-.41-1.06,1.49,1.49,0,0,0-1.08-.4,1.56,1.56,0,0,0-.82.23,1.81,1.81,0,0,0-.61.65,2,2,0,0,0-.23,1v5Z"/><path d="M355.19,202a3.89,3.89,0,0,1-2.06-.52,3.4,3.4,0,0,1-1.33-1.45,4.89,4.89,0,0,1-.47-2.2,5,5,0,0,1,.47-2.2,3.52,3.52,0,0,1,3.28-2,4.06,4.06,0,0,1,1.34.23,3.21,3.21,0,0,1,1.15.71,3.51,3.51,0,0,1,.81,1.26,5.26,5.26,0,0,1,.3,1.88v.56h-6.45v-1.18h4.9a2.48,2.48,0,0,0-.25-1.11,2,2,0,0,0-1.79-1,2.12,2.12,0,0,0-1.16.32,2.3,2.3,0,0,0-.76.85,2.54,2.54,0,0,0-.26,1.13v.92a3.11,3.11,0,0,0,.28,1.39,2.13,2.13,0,0,0,.81.87,2.49,2.49,0,0,0,1.21.29,2.66,2.66,0,0,0,.82-.12,1.81,1.81,0,0,0,.64-.39,1.72,1.72,0,0,0,.41-.64l1.5.27a2.69,2.69,0,0,1-.65,1.15,3,3,0,0,1-1.15.77A4.38,4.38,0,0,1,355.19,202Z"/><path d="M362,197.06v4.82h-1.58v-8.12H362v1.32h.1a2.32,2.32,0,0,1,.88-1,2.67,2.67,0,0,1,1.52-.4,2.94,2.94,0,0,1,1.45.35,2.31,2.31,0,0,1,1,1,3.67,3.67,0,0,1,.34,1.68v5.17h-1.58v-5a2,2,0,0,0-.46-1.38,1.63,1.63,0,0,0-1.26-.5,2,2,0,0,0-1,.24,1.74,1.74,0,0,0-.67.7A2.32,2.32,0,0,0,362,197.06Z"/><path d="M373.11,193.76V195h-4.43v-1.27Zm-3.24-1.95h1.58v7.68a1.37,1.37,0,0,0,.14.69.65.65,0,0,0,.35.31,1.28,1.28,0,0,0,.48.09,1.55,1.55,0,0,0,.33,0l.23,0,.28,1.3a2.47,2.47,0,0,1-.39.11,2.8,2.8,0,0,1-.63.06,2.68,2.68,0,0,1-1.17-.22,2,2,0,0,1-.87-.72,2.11,2.11,0,0,1-.33-1.22Z"/><path d="M375.66,192.51a1,1,0,0,1-.71-.28.91.91,0,0,1,0-1.33,1,1,0,0,1,.71-.28,1,1,0,0,1,.7.28.91.91,0,0,1,0,1.33A1,1,0,0,1,375.66,192.51Zm-.8,9.37v-8.12h1.58v8.12Z"/><path d="M41.16,137.18v-14h1.56v6a3,3,0,0,0,.35,1.45,2.47,2.47,0,0,0,1,1,3.28,3.28,0,0,0,3,0,2.5,2.5,0,0,0,1-1,3,3,0,0,0,.34-1.44v-6h1.56v10.15H48.32v-1.51h-.07a3,3,0,0,1-1.15,1.22,3.11,3.11,0,0,1-1.58.42,3.08,3.08,0,0,1-1.57-.42,3,3,0,0,1-1.15-1.22h-.08v5.31Z"/><path d="M56.83,137.39a5.62,5.62,0,0,1-1.94-.29,4.12,4.12,0,0,1-2.21-1.74l1.25-.88c.14.19.32.4.53.64a2.82,2.82,0,0,0,.89.63,3.46,3.46,0,0,0,1.48.27,3.28,3.28,0,0,0,2-.6,2.16,2.16,0,0,0,.8-1.86V131.5h-.13c-.12.18-.28.41-.49.68a2.8,2.8,0,0,1-.9.72,3.31,3.31,0,0,1-1.57.32,4.22,4.22,0,0,1-2.21-.59,4,4,0,0,1-1.53-1.69,5.81,5.81,0,0,1-.57-2.69,6.23,6.23,0,0,1,.55-2.72,4.28,4.28,0,0,1,1.52-1.8,4.11,4.11,0,0,1,2.26-.63,3.35,3.35,0,0,1,1.58.32,3,3,0,0,1,.9.74c.21.28.37.51.48.68h.16v-1.61h1.51v10.44A3.29,3.29,0,0,1,59,137,6.21,6.21,0,0,1,56.83,137.39Zm0-5.57a2.85,2.85,0,0,0,1.58-.43,2.68,2.68,0,0,0,1-1.24,5.08,5.08,0,0,0,.34-1.93,5.24,5.24,0,0,0-.33-1.93,3,3,0,0,0-1-1.32,3,3,0,0,0-3.25,0,2.9,2.9,0,0,0-1,1.35,5.1,5.1,0,0,0-.33,1.87,4.92,4.92,0,0,0,.33,1.87,2.94,2.94,0,0,0,1,1.27A2.86,2.86,0,0,0,56.78,131.82Z"/><path d="M68.85,119.21l-4.36,16.2H63.07l4.36-16.2Z"/><path d="M70.7,133.38V123.23h1.51v1.58h.13a2.51,2.51,0,0,1,1-1.26,3.07,3.07,0,0,1,1.69-.45,3,3,0,0,1,1.68.45,3,3,0,0,1,1,1.26h.11a3,3,0,0,1,1.17-1.25,3.58,3.58,0,0,1,1.87-.46,3,3,0,0,1,2.22.85,3.53,3.53,0,0,1,.87,2.64v6.79H82.46v-6.79a1.92,1.92,0,0,0-.61-1.61,2.3,2.3,0,0,0-1.45-.48,2.13,2.13,0,0,0-1.66.64,2.33,2.33,0,0,0-.59,1.63v6.61H76.57v-6.95A1.84,1.84,0,0,0,76,125a2,2,0,0,0-1.45-.53,2.17,2.17,0,0,0-1.13.32,2.54,2.54,0,0,0-.85.9,2.67,2.67,0,0,0-.32,1.31v6.35Z"/><path d="M88.93,127.29a3.44,3.44,0,0,1-1.36-.26,2.32,2.32,0,0,1-.94-.73,1.89,1.89,0,0,1-.38-1.09h1a1.2,1.2,0,0,0,.26.66,1.48,1.48,0,0,0,.6.42,2.23,2.23,0,0,0,.83.15,2.13,2.13,0,0,0,.9-.18,1.39,1.39,0,0,0,.62-.49,1.21,1.21,0,0,0,.22-.73,1.41,1.41,0,0,0-.21-.77,1.55,1.55,0,0,0-.63-.52,2.41,2.41,0,0,0-1-.19h-.63v-.85h.63a1.77,1.77,0,0,0,.82-.17,1.3,1.3,0,0,0,.56-.47,1.39,1.39,0,0,0,0-1.42,1.26,1.26,0,0,0-.5-.47,1.64,1.64,0,0,0-.76-.16,2,2,0,0,0-.77.15,1.38,1.38,0,0,0-.58.42,1.13,1.13,0,0,0-.25.68h-.92a1.86,1.86,0,0,1,.37-1.09,2.3,2.3,0,0,1,.92-.73,2.86,2.86,0,0,1,1.25-.26,2.46,2.46,0,0,1,1.25.29,2.17,2.17,0,0,1,.81.78,2,2,0,0,1,.28,1,1.85,1.85,0,0,1-.35,1.13,1.75,1.75,0,0,1-.94.65v.06a1.88,1.88,0,0,1,1.16.64,2.08,2.08,0,0,1,.07,2.41,2.44,2.44,0,0,1-.95.81A3.12,3.12,0,0,1,88.93,127.29Z"/><path d="M888.19,183.28h-1.73l3.89-10.83h1.89l3.89,10.83H894.4l-3.06-8.86h-.08Zm.29-4.24h5.63v1.37h-5.63Z"/><path d="M900.86,183.44a3.71,3.71,0,0,1-2-.54,3.47,3.47,0,0,1-1.3-1.48,5,5,0,0,1-.45-2.17,4.89,4.89,0,0,1,.46-2.18,3.56,3.56,0,0,1,1.31-1.48,3.62,3.62,0,0,1,2-.54,3.92,3.92,0,0,1,1.65.34,3.06,3.06,0,0,1,1.17,1,2.79,2.79,0,0,1,.53,1.43h-1.53a1.87,1.87,0,0,0-.58-1,1.71,1.71,0,0,0-1.21-.42,2,2,0,0,0-1.16.35,2.3,2.3,0,0,0-.76,1,3.7,3.7,0,0,0-.28,1.51,4,4,0,0,0,.27,1.53,2.28,2.28,0,0,0,.76,1,2.15,2.15,0,0,0,2,.19,1.59,1.59,0,0,0,.61-.48,1.87,1.87,0,0,0,.36-.75h1.53a2.86,2.86,0,0,1-.51,1.4,2.94,2.94,0,0,1-1.14,1A3.85,3.85,0,0,1,900.86,183.44Z"/><path d="M909.31,183.44a3.71,3.71,0,0,1-2-.54,3.47,3.47,0,0,1-1.3-1.48,5,5,0,0,1-.45-2.17,4.89,4.89,0,0,1,.46-2.18,3.56,3.56,0,0,1,1.31-1.48,3.62,3.62,0,0,1,2-.54,3.92,3.92,0,0,1,1.65.34,3.06,3.06,0,0,1,1.17,1,2.79,2.79,0,0,1,.53,1.43h-1.53a1.87,1.87,0,0,0-.58-1,1.71,1.71,0,0,0-1.21-.42,2,2,0,0,0-1.16.35,2.3,2.3,0,0,0-.76,1,3.7,3.7,0,0,0-.28,1.51,4,4,0,0,0,.27,1.53,2.28,2.28,0,0,0,.76,1,2.15,2.15,0,0,0,2,.19,1.59,1.59,0,0,0,.61-.48,1.87,1.87,0,0,0,.36-.75h1.53a2.86,2.86,0,0,1-.51,1.4,3,3,0,0,1-1.14,1A3.85,3.85,0,0,1,909.31,183.44Z"/><path d="M917.84,183.44a3.93,3.93,0,0,1-2.07-.52,3.4,3.4,0,0,1-1.33-1.45,4.89,4.89,0,0,1-.47-2.2,5,5,0,0,1,.47-2.2,3.52,3.52,0,0,1,3.29-2,4,4,0,0,1,1.33.23,3.21,3.21,0,0,1,1.15.71,3.26,3.26,0,0,1,.81,1.26,5.26,5.26,0,0,1,.3,1.88v.56h-6.45v-1.18h4.9a2.33,2.33,0,0,0-.25-1.11,1.93,1.93,0,0,0-1.78-1,2.1,2.1,0,0,0-1.16.32,2.14,2.14,0,0,0-.76.85,2.42,2.42,0,0,0-.27,1.13v.92a3,3,0,0,0,.29,1.39,2,2,0,0,0,.8.87,2.49,2.49,0,0,0,1.21.29,2.66,2.66,0,0,0,.82-.12,1.81,1.81,0,0,0,.64-.39,1.72,1.72,0,0,0,.41-.64l1.5.27a2.78,2.78,0,0,1-.64,1.15,3.15,3.15,0,0,1-1.16.77A4.33,4.33,0,0,1,917.84,183.44Z"/><path d="M924.66,178.46v4.82h-1.58v-8.12h1.52v1.32h.1a2.33,2.33,0,0,1,.88-1,2.71,2.71,0,0,1,1.51-.39,2.94,2.94,0,0,1,1.45.35,2.31,2.31,0,0,1,1,1,3.67,3.67,0,0,1,.34,1.68v5.17h-1.58v-5a1.93,1.93,0,0,0-.46-1.38,1.62,1.62,0,0,0-1.26-.5,1.91,1.91,0,0,0-1,.24,1.74,1.74,0,0,0-.68.69A2.39,2.39,0,0,0,924.66,178.46Z"/><path d="M938.05,177.14l-1.43.25a1.8,1.8,0,0,0-.29-.52,1.46,1.46,0,0,0-.52-.41,1.94,1.94,0,0,0-.82-.15,2.07,2.07,0,0,0-1.12.29.91.91,0,0,0-.44.77.83.83,0,0,0,.3.66,2.41,2.41,0,0,0,1,.4l1.29.3a3.43,3.43,0,0,1,1.67.8,1.91,1.91,0,0,1,.55,1.4,2.13,2.13,0,0,1-.42,1.3,2.81,2.81,0,0,1-1.17.89,4.45,4.45,0,0,1-1.73.32,4,4,0,0,1-2.23-.58,2.47,2.47,0,0,1-1-1.67l1.52-.23a1.49,1.49,0,0,0,.59.9,2,2,0,0,0,1.16.31,2.09,2.09,0,0,0,1.24-.33,1,1,0,0,0,.47-.79.82.82,0,0,0-.29-.64,1.82,1.82,0,0,0-.86-.4l-1.37-.3a3.23,3.23,0,0,1-1.68-.82,2,2,0,0,1-.54-1.43,2,2,0,0,1,.4-1.26,2.53,2.53,0,0,1,1.11-.84,3.94,3.94,0,0,1,1.62-.31,3.35,3.35,0,0,1,2.07.57A2.7,2.7,0,0,1,938.05,177.14Z"/><path d="M940.74,173.91a1,1,0,0,1-.71-.28.91.91,0,0,1-.29-.66.9.9,0,0,1,.29-.67,1,1,0,0,1,.71-.28,1,1,0,0,1,.7.28.87.87,0,0,1,.3.67.88.88,0,0,1-.3.66A1,1,0,0,1,940.74,173.91Zm-.8,9.37v-8.12h1.58v8.12Z"/><path d="M947.06,183.44a3.81,3.81,0,0,1-2-.52,3.56,3.56,0,0,1-1.32-1.47,5.38,5.38,0,0,1,0-4.4,3.5,3.5,0,0,1,1.32-1.47,4,4,0,0,1,4,0,3.56,3.56,0,0,1,1.32,1.47,5.38,5.38,0,0,1,0,4.4,3.63,3.63,0,0,1-1.32,1.47A3.82,3.82,0,0,1,947.06,183.44Zm0-1.33a1.93,1.93,0,0,0,1.23-.39,2.38,2.38,0,0,0,.72-1,4.33,4.33,0,0,0,.23-1.43,4.38,4.38,0,0,0-.23-1.43,2.35,2.35,0,0,0-.72-1,1.93,1.93,0,0,0-1.23-.4,1.89,1.89,0,0,0-1.23.4,2.29,2.29,0,0,0-.73,1,4.56,4.56,0,0,0,0,2.86,2.32,2.32,0,0,0,.73,1A1.89,1.89,0,0,0,947.07,182.11Z"/><path d="M954.19,178.46v4.82h-1.58v-8.12h1.51v1.32h.1a2.4,2.4,0,0,1,.88-1,2.75,2.75,0,0,1,1.52-.39,2.94,2.94,0,0,1,1.45.35,2.31,2.31,0,0,1,1,1,3.67,3.67,0,0,1,.34,1.68v5.17H957.8v-5a1.93,1.93,0,0,0-.46-1.38,1.63,1.63,0,0,0-1.26-.5,2,2,0,0,0-1,.24,1.78,1.78,0,0,0-.67.69A2.39,2.39,0,0,0,954.19,178.46Z"/><path d="M965,183.44a3.89,3.89,0,0,1-2.06-.52,3.34,3.34,0,0,1-1.33-1.45,4.89,4.89,0,0,1-.47-2.2,5,5,0,0,1,.47-2.2,3.52,3.52,0,0,1,3.28-2,4,4,0,0,1,1.33.23,3.25,3.25,0,0,1,1.16.71,3.51,3.51,0,0,1,.81,1.26,5.26,5.26,0,0,1,.3,1.88v.56H962v-1.18h4.91a2.33,2.33,0,0,0-.26-1.11,1.85,1.85,0,0,0-.71-.76,2,2,0,0,0-1.07-.28,2.12,2.12,0,0,0-1.16.32,2.22,2.22,0,0,0-.76.85,2.41,2.41,0,0,0-.26,1.13v.92A3.11,3.11,0,0,0,963,181a2.07,2.07,0,0,0,.81.87,2.46,2.46,0,0,0,1.21.29,2.66,2.66,0,0,0,.82-.12,1.9,1.9,0,0,0,.64-.39,1.85,1.85,0,0,0,.41-.64l1.5.27a2.69,2.69,0,0,1-.65,1.15,3,3,0,0,1-1.15.77A4.38,4.38,0,0,1,965,183.44Z"/><path d="M887.15,201.88v-8.12h1.53v1.29h.08a1.94,1.94,0,0,1,.79-1,2.16,2.16,0,0,1,1.27-.38h.35l.32,0v1.52l-.33-.06a2.77,2.77,0,0,0-.49,0,2.05,2.05,0,0,0-1,.24,1.64,1.64,0,0,0-.68.65,1.75,1.75,0,0,0-.26.94v5Z"/><path d="M893.67,192.51a1,1,0,0,1-.71-.28.91.91,0,0,1,0-1.33,1,1,0,0,1,.71-.28,1,1,0,0,1,.7.28.89.89,0,0,1,0,1.33A1,1,0,0,1,893.67,192.51Zm-.8,9.37v-8.12h1.58v8.12Z"/><path d="M902.66,195.74l-1.44.25a1.76,1.76,0,0,0-.28-.52,1.55,1.55,0,0,0-.52-.41,2,2,0,0,0-.82-.15,2,2,0,0,0-1.12.29.9.9,0,0,0-.45.77.81.81,0,0,0,.3.66,2.62,2.62,0,0,0,1,.41l1.29.29a3.39,3.39,0,0,1,1.67.8,1.87,1.87,0,0,1,.55,1.4,2.13,2.13,0,0,1-.42,1.3,2.84,2.84,0,0,1-1.16.89,4.45,4.45,0,0,1-1.73.32,4,4,0,0,1-2.23-.58,2.48,2.48,0,0,1-1.06-1.67l1.53-.23a1.44,1.44,0,0,0,.59.9,1.93,1.93,0,0,0,1.15.31,2.13,2.13,0,0,0,1.25-.33.94.94,0,0,0,.46-.79.81.81,0,0,0-.28-.64,1.76,1.76,0,0,0-.87-.39l-1.37-.31a3.23,3.23,0,0,1-1.68-.82,2,2,0,0,1-.54-1.43,2.1,2.1,0,0,1,.4-1.26A2.65,2.65,0,0,1,898,194a4.16,4.16,0,0,1,1.63-.31,3.39,3.39,0,0,1,2.07.57A2.75,2.75,0,0,1,902.66,195.74Z"/><path d="M908,202a3.68,3.68,0,0,1-2-.54,3.41,3.41,0,0,1-1.3-1.48,5.32,5.32,0,0,1,0-4.35,3.49,3.49,0,0,1,1.31-1.48,3.62,3.62,0,0,1,2-.54,3.92,3.92,0,0,1,1.65.34,3.06,3.06,0,0,1,1.17,1,2.88,2.88,0,0,1,.53,1.43h-1.54a1.75,1.75,0,0,0-.58-1A1.68,1.68,0,0,0,908,195a2,2,0,0,0-1.16.34,2.32,2.32,0,0,0-.77,1,3.88,3.88,0,0,0-.27,1.51,4,4,0,0,0,.27,1.53,2.28,2.28,0,0,0,.76,1,2.13,2.13,0,0,0,2,.19,1.62,1.62,0,0,0,.62-.48,1.73,1.73,0,0,0,.35-.75h1.54a3.07,3.07,0,0,1-.51,1.4,3,3,0,0,1-1.15,1A3.77,3.77,0,0,1,908,202Z"/><path d="M915.36,202.06a3.34,3.34,0,0,1-1.4-.29,2.29,2.29,0,0,1-1-.84,2.43,2.43,0,0,1-.36-1.35,2.17,2.17,0,0,1,.26-1.13,2,2,0,0,1,.71-.7,3.93,3.93,0,0,1,1-.39,8.34,8.34,0,0,1,1.13-.2l1.18-.14a1.84,1.84,0,0,0,.66-.18.46.46,0,0,0,.21-.42v0a1.44,1.44,0,0,0-.39-1.08,1.59,1.59,0,0,0-1.15-.38,1.89,1.89,0,0,0-1.89,1.13l-1.49-.34a2.88,2.88,0,0,1,.78-1.19,3.11,3.11,0,0,1,1.17-.67,4.65,4.65,0,0,1,1.4-.21,4.89,4.89,0,0,1,1,.12,3,3,0,0,1,1,.41,2.35,2.35,0,0,1,.79.86,3,3,0,0,1,.3,1.45v5.39h-1.54v-1.11h-.06a2.41,2.41,0,0,1-.46.6,2.47,2.47,0,0,1-.79.49A3,3,0,0,1,915.36,202.06Zm.34-1.27a2.29,2.29,0,0,0,1.12-.26,1.82,1.82,0,0,0,.72-.68,1.78,1.78,0,0,0,.24-.9v-1a.72.72,0,0,1-.32.16,3.49,3.49,0,0,1-.55.12l-.59.09-.49.07a3.45,3.45,0,0,0-.84.19,1.42,1.42,0,0,0-.6.39,1,1,0,0,0-.23.68,1,1,0,0,0,.44.89A1.88,1.88,0,0,0,915.7,200.79Z"/><path d="M923.05,191.05v10.83h-1.58V191.05Z"/><path d="M928.21,202a3.07,3.07,0,0,1-1.75-.5,3.45,3.45,0,0,1-1.21-1.44,5.36,5.36,0,0,1-.43-2.26,5.19,5.19,0,0,1,.44-2.25,3.36,3.36,0,0,1,1.21-1.43,3.19,3.19,0,0,1,1.75-.5,2.67,2.67,0,0,1,1.22.25,2.28,2.28,0,0,1,.72.59,5.63,5.63,0,0,1,.4.59h.09v-4h1.58v10.83h-1.54v-1.27h-.13a5.91,5.91,0,0,1-.41.6,2.48,2.48,0,0,1-.74.58A2.61,2.61,0,0,1,928.21,202Zm.35-1.34a1.84,1.84,0,0,0,1.15-.36,2.23,2.23,0,0,0,.72-1,4.07,4.07,0,0,0,.25-1.5,3.92,3.92,0,0,0-.25-1.48,2.22,2.22,0,0,0-.71-1,1.84,1.84,0,0,0-1.16-.35,1.86,1.86,0,0,0-1.19.37,2.17,2.17,0,0,0-.72,1,4,4,0,0,0-.24,1.44,4,4,0,0,0,.25,1.46,2.29,2.29,0,0,0,.72,1A1.85,1.85,0,0,0,928.56,200.69Z"/><path d="M936.84,202.06a3.29,3.29,0,0,1-1.39-.29,2.26,2.26,0,0,1-1-.84,2.43,2.43,0,0,1-.36-1.35,2.17,2.17,0,0,1,.27-1.13,1.91,1.91,0,0,1,.71-.7,3.86,3.86,0,0,1,1-.39,8.62,8.62,0,0,1,1.13-.2l1.19-.14a1.9,1.9,0,0,0,.66-.18.46.46,0,0,0,.2-.42v0a1.48,1.48,0,0,0-.38-1.08,1.62,1.62,0,0,0-1.16-.38,2,2,0,0,0-1.25.35,1.88,1.88,0,0,0-.63.78l-1.49-.34a2.86,2.86,0,0,1,.77-1.19,3.15,3.15,0,0,1,1.18-.67,4.61,4.61,0,0,1,1.4-.21,4.8,4.8,0,0,1,1,.12,3,3,0,0,1,1,.41,2.25,2.25,0,0,1,.78.86,2.92,2.92,0,0,1,.31,1.45v5.39h-1.54v-1.11h-.07a2.19,2.19,0,0,1-.46.6,2.31,2.31,0,0,1-.78.49A3.09,3.09,0,0,1,936.84,202.06Zm.35-1.27a2.32,2.32,0,0,0,1.12-.26,1.79,1.79,0,0,0,.71-.68,1.7,1.7,0,0,0,.25-.9v-1a.77.77,0,0,1-.33.16,3.61,3.61,0,0,1-.54.12l-.6.09-.49.07a3.48,3.48,0,0,0-.83.19,1.46,1.46,0,0,0-.61.39,1,1,0,0,0-.22.68,1,1,0,0,0,.43.89A1.91,1.91,0,0,0,937.19,200.79Z"/><path d="M943,201.88v-8.12h1.52v1.32h.1a2.12,2.12,0,0,1,.83-1.05,2.46,2.46,0,0,1,1.38-.38,2.35,2.35,0,0,1,1.36.38,2.32,2.32,0,0,1,.82,1.05h.09a2.31,2.31,0,0,1,.92-1,2.83,2.83,0,0,1,1.51-.39,2.44,2.44,0,0,1,1.81.7,2.82,2.82,0,0,1,.7,2.08v5.45h-1.58v-5.3a1.44,1.44,0,0,0-.45-1.19,1.63,1.63,0,0,0-1.08-.37,1.5,1.5,0,0,0-1.19.47,1.72,1.72,0,0,0-.43,1.21v5.18h-1.58v-5.4a1.39,1.39,0,0,0-.41-1.06,1.45,1.45,0,0,0-1.07-.4,1.6,1.6,0,0,0-.83.23,1.91,1.91,0,0,0-.61.65,2,2,0,0,0-.23,1v5Z"/><path d="M959.6,202a3.93,3.93,0,0,1-2.07-.52,3.4,3.4,0,0,1-1.33-1.45,4.89,4.89,0,0,1-.46-2.2,5,5,0,0,1,.46-2.2,3.56,3.56,0,0,1,1.31-1.48,3.6,3.6,0,0,1,2-.54,4,4,0,0,1,1.33.23,3.16,3.16,0,0,1,2,2,5.26,5.26,0,0,1,.3,1.88v.56h-6.45v-1.18h4.9a2.36,2.36,0,0,0-.25-1.11,1.93,1.93,0,0,0-1.78-1,2.1,2.1,0,0,0-1.16.32,2.14,2.14,0,0,0-.76.85,2.42,2.42,0,0,0-.27,1.13v.92a3.1,3.1,0,0,0,.29,1.39,2,2,0,0,0,.8.87,2.49,2.49,0,0,0,1.21.29,2.62,2.62,0,0,0,.82-.12,1.81,1.81,0,0,0,.64-.39,1.72,1.72,0,0,0,.41-.64l1.5.27a2.67,2.67,0,0,1-.64,1.15,3.15,3.15,0,0,1-1.16.77A4.33,4.33,0,0,1,959.6,202Z"/><path d="M966.42,197.06v4.82h-1.58v-8.12h1.52v1.32h.1a2.25,2.25,0,0,1,.88-1,2.63,2.63,0,0,1,1.51-.4,2.94,2.94,0,0,1,1.45.35,2.31,2.31,0,0,1,1,1,3.67,3.67,0,0,1,.34,1.68v5.17H970v-5a2,2,0,0,0-.46-1.38,1.62,1.62,0,0,0-1.26-.5,1.94,1.94,0,0,0-1,.24,1.62,1.62,0,0,0-.67.7A2.21,2.21,0,0,0,966.42,197.06Z"/><path d="M977.52,193.76V195h-4.44v-1.27Zm-3.25-1.95h1.58v7.68a1.37,1.37,0,0,0,.14.69.64.64,0,0,0,.36.31,1.19,1.19,0,0,0,.47.09,1.72,1.72,0,0,0,.34,0l.22,0,.29,1.3a3,3,0,0,1-.4.11,2.74,2.74,0,0,1-.63.06,2.64,2.64,0,0,1-1.16-.22,2,2,0,0,1-.87-.72,2,2,0,0,1-.34-1.22Z"/><path d="M980.06,192.51a1,1,0,0,1-.71-.28.91.91,0,0,1,0-1.33,1,1,0,0,1,.71-.28,1,1,0,0,1,.7.28.89.89,0,0,1,0,1.33A1,1,0,0,1,980.06,192.51Zm-.8,9.37v-8.12h1.58v8.12Z"/><circle cx="287.67" cy="833.07" r="3.45"/><path d="M300.69,838.78V827.87h3.69a4.24,4.24,0,0,1,2.1.46,3,3,0,0,1,1.21,1.24,4.12,4.12,0,0,1,0,3.5,2.91,2.91,0,0,1-1.2,1.26,4.2,4.2,0,0,1-2.09.46h-2.64v-1.17h2.6a2.89,2.89,0,0,0,1.41-.3,1.82,1.82,0,0,0,.77-.83,2.86,2.86,0,0,0,0-2.34,1.7,1.7,0,0,0-.78-.81,2.92,2.92,0,0,0-1.43-.3H302v9.74Z"/><path d="M310.22,827.87h1.57l3.71,9h.13l3.7-9h1.58v10.91h-1.23v-8.29h-.11l-3.41,8.29H315l-3.41-8.29h-.11v8.29h-1.23Z"/><path d="M327.2,827.87v10.91h-1.32v-9.53h-.07L323.15,831v-1.34l2.73-1.81Z"/><path d="M333.89,838.93a3.21,3.21,0,0,1-2.05-.66,4.09,4.09,0,0,1-1.3-1.91,10.43,10.43,0,0,1,0-6.06,4.15,4.15,0,0,1,1.3-1.92,3.5,3.5,0,0,1,4.09,0,4.07,4.07,0,0,1,1.3,1.92,10.43,10.43,0,0,1,0,6.06,4.15,4.15,0,0,1-1.29,1.91A3.25,3.25,0,0,1,333.89,838.93Zm0-1.17a2.05,2.05,0,0,0,1.85-1.16,6.65,6.65,0,0,0,.66-3.28,8.43,8.43,0,0,0-.3-2.41,3.42,3.42,0,0,0-.86-1.52,1.92,1.92,0,0,0-1.35-.52A2.05,2.05,0,0,0,332,830a6.65,6.65,0,0,0-.67,3.29,8.38,8.38,0,0,0,.3,2.41,3.38,3.38,0,0,0,.86,1.51A2,2,0,0,0,333.89,837.76Z"/><path d="M340.09,833.92v-.85l6.86-3.5v1.37l-5.26,2.53,0-.08v.21l0-.09,5.26,2.54v1.36Z"/><path d="M353,838.93a3.72,3.72,0,0,1-1.69-.38,3.15,3.15,0,0,1-1.2-1,2.74,2.74,0,0,1-.5-1.48h1.28a1.73,1.73,0,0,0,.67,1.22,2.37,2.37,0,0,0,2.63.17,2.28,2.28,0,0,0,.83-.86,2.6,2.6,0,0,0,.3-1.25,2.55,2.55,0,0,0-.31-1.28,2.35,2.35,0,0,0-.85-.89,2.58,2.58,0,0,0-1.25-.33,3.71,3.71,0,0,0-1,.15,2.71,2.71,0,0,0-.87.41l-1.24-.15.66-5.37h5.67V829h-4.56l-.38,3.22h.06a2.56,2.56,0,0,1,.84-.44,3.15,3.15,0,0,1,1.06-.18,3.34,3.34,0,0,1,1.78.48,3.3,3.3,0,0,1,1.24,1.3,3.87,3.87,0,0,1,.45,1.88,3.74,3.74,0,0,1-.47,1.87,3.44,3.44,0,0,1-1.28,1.29A3.66,3.66,0,0,1,353,838.93Z"/><path d="M362.27,838.93a3.21,3.21,0,0,1-2-.66,4.09,4.09,0,0,1-1.3-1.91,10.43,10.43,0,0,1,0-6.06,4.15,4.15,0,0,1,1.3-1.92,3.5,3.5,0,0,1,4.09,0,4.07,4.07,0,0,1,1.3,1.92,10.43,10.43,0,0,1,0,6.06,4.15,4.15,0,0,1-1.29,1.91A3.25,3.25,0,0,1,362.27,838.93Zm0-1.17a2.05,2.05,0,0,0,1.85-1.16,6.65,6.65,0,0,0,.66-3.28,8.43,8.43,0,0,0-.3-2.41,3.42,3.42,0,0,0-.86-1.52,1.92,1.92,0,0,0-1.35-.52,2.05,2.05,0,0,0-1.85,1.16,6.76,6.76,0,0,0-.67,3.29,8.38,8.38,0,0,0,.3,2.41,3.38,3.38,0,0,0,.86,1.51A2,2,0,0,0,362.27,837.76Z"/><path d="M368,841.44v-9.75H369v4.19a2.07,2.07,0,0,0,.24,1,1.74,1.74,0,0,0,.69.68,2,2,0,0,0,1,.25,2.12,2.12,0,0,0,1-.25,1.71,1.71,0,0,0,.68-.68,2,2,0,0,0,.25-1v-4.19h1.09v7.09H373v-1.06h-.06a2,2,0,0,1-.8.86,2.23,2.23,0,0,1-2.2,0,2,2,0,0,1-.8-.86H369v3.72Z"/><path d="M378.9,841.58a4,4,0,0,1-1.36-.2,3,3,0,0,1-.94-.52,3,3,0,0,1-.6-.7l.87-.61c.1.13.22.28.37.45a2.06,2.06,0,0,0,.63.44,2.47,2.47,0,0,0,1,.18,2.3,2.3,0,0,0,1.42-.41,1.52,1.52,0,0,0,.56-1.3v-1.44h-.09a5.76,5.76,0,0,1-.34.47,2.07,2.07,0,0,1-.63.51,2.41,2.41,0,0,1-1.1.22,3,3,0,0,1-1.54-.41,2.82,2.82,0,0,1-1.08-1.18,4.18,4.18,0,0,1-.39-1.88,4.47,4.47,0,0,1,.38-1.9,3,3,0,0,1,1.07-1.26,2.79,2.79,0,0,1,1.58-.45,2.31,2.31,0,0,1,1.1.23,1.92,1.92,0,0,1,.62.52c.15.19.26.35.34.47h.11v-1.12H382V839a2.46,2.46,0,0,1-.42,1.49,2.38,2.38,0,0,1-1.1.84A4.27,4.27,0,0,1,378.9,841.58Zm0-3.89a2,2,0,0,0,1.1-.3,1.89,1.89,0,0,0,.69-.87,3.38,3.38,0,0,0,.24-1.34,3.84,3.84,0,0,0-.23-1.36,2.07,2.07,0,0,0-.69-.91,1.77,1.77,0,0,0-1.11-.34,1.88,1.88,0,0,0-1.16.35,2.15,2.15,0,0,0-.68,1,3.43,3.43,0,0,0-.23,1.31,3.31,3.31,0,0,0,.23,1.3,2.06,2.06,0,0,0,.69.89A2,2,0,0,0,378.87,837.69Z"/><path d="M387.3,828.88l-3,11.32h-1l3.05-11.32Z"/><path d="M388.6,838.78v-7.09h1v1.1h.09a1.84,1.84,0,0,1,.72-.88,2.15,2.15,0,0,1,1.18-.32,2,2,0,0,1,1.17.32,2.14,2.14,0,0,1,.74.88h.07a2.08,2.08,0,0,1,.82-.87,2.46,2.46,0,0,1,1.3-.33,2.11,2.11,0,0,1,1.56.6,2.48,2.48,0,0,1,.6,1.84v4.75h-1.09V834a1.33,1.33,0,0,0-.43-1.12,1.6,1.6,0,0,0-1-.34,1.51,1.51,0,0,0-1.16.45,1.64,1.64,0,0,0-.41,1.14v4.62h-1.1v-4.86a1.27,1.27,0,0,0-.4-1,1.44,1.44,0,0,0-1-.37,1.51,1.51,0,0,0-.79.23,1.76,1.76,0,0,0-.59.62,1.88,1.88,0,0,0-.22.93v4.43Z"/><path d="M401.33,834.52a2.4,2.4,0,0,1-.95-.18,1.58,1.58,0,0,1-.65-.51,1.28,1.28,0,0,1-.27-.76h.68a.75.75,0,0,0,.18.46,1.08,1.08,0,0,0,.42.3,1.57,1.57,0,0,0,.58.1,1.54,1.54,0,0,0,.63-.12.94.94,0,0,0,.43-.35.8.8,0,0,0,.16-.51.94.94,0,0,0-.15-.53,1,1,0,0,0-.44-.37,1.7,1.7,0,0,0-.71-.13h-.44v-.59h.44a1.26,1.26,0,0,0,.57-.12.87.87,0,0,0,.39-.34.84.84,0,0,0,.15-.5,1,1,0,0,0-.13-.49.78.78,0,0,0-.35-.32,1.09,1.09,0,0,0-.53-.12,1.36,1.36,0,0,0-.53.11,1,1,0,0,0-.41.29.78.78,0,0,0-.18.47h-.64a1.36,1.36,0,0,1,.26-.76,1.81,1.81,0,0,1,.64-.51,2.13,2.13,0,0,1,.88-.18,1.7,1.7,0,0,1,.87.21,1.45,1.45,0,0,1,.76,1.27,1.3,1.3,0,0,1-.24.79,1.26,1.26,0,0,1-.66.46v0a1.25,1.25,0,0,1,.81.44,1.32,1.32,0,0,1,.3.88,1.44,1.44,0,0,1-.25.81,1.65,1.65,0,0,1-.66.56A2.12,2.12,0,0,1,401.33,834.52Z"/><circle class="cls-3" cx="554.07" cy="833.07" r="3.45"/><path class="cls-3" d="M567.1,838.78V827.87h3.68a4.26,4.26,0,0,1,2.11.46,3,3,0,0,1,1.21,1.24,4.12,4.12,0,0,1,0,3.5,2.88,2.88,0,0,1-1.21,1.26,4.16,4.16,0,0,1-2.08.46h-2.65v-1.17h2.6a2.84,2.84,0,0,0,1.41-.3,1.79,1.79,0,0,0,.78-.83,3,3,0,0,0,0-2.34,1.7,1.7,0,0,0-.78-.81,3,3,0,0,0-1.43-.3h-2.32v9.74Z"/><path class="cls-3" d="M576.62,827.87h1.58l3.71,9H582l3.71-9h1.58v10.91h-1.24v-8.29H586l-3.41,8.29h-1.2L578,830.49h-.1v8.29h-1.24Z"/><path class="cls-3" d="M593.6,827.87v10.91h-1.32v-9.53h-.06L589.55,831v-1.34l2.73-1.81Z"/><path class="cls-3" d="M600.29,838.93a3.25,3.25,0,0,1-2-.66,4.15,4.15,0,0,1-1.29-1.91,10.43,10.43,0,0,1,0-6.06,4.07,4.07,0,0,1,1.3-1.92,3.5,3.5,0,0,1,4.09,0,4.15,4.15,0,0,1,1.3,1.92,10.43,10.43,0,0,1,0,6.06,4.09,4.09,0,0,1-1.3,1.91A3.21,3.21,0,0,1,600.29,838.93Zm0-1.17a2.05,2.05,0,0,0,1.86-1.16,6.65,6.65,0,0,0,.66-3.28,8.43,8.43,0,0,0-.3-2.41,3.34,3.34,0,0,0-.87-1.52,1.89,1.89,0,0,0-1.35-.52,2,2,0,0,0-1.84,1.16,6.65,6.65,0,0,0-.67,3.29,8.38,8.38,0,0,0,.3,2.41,3.29,3.29,0,0,0,.86,1.51A1.93,1.93,0,0,0,600.29,837.76Z"/><path class="cls-3" d="M613.35,833.92l-6.86,3.49v-1.36l5.27-2.54,0,.09v-.21l0,.08-5.27-2.53v-1.37l6.86,3.5Z"/><path class="cls-3" d="M619.41,838.93a3.72,3.72,0,0,1-1.69-.38,3.26,3.26,0,0,1-1.21-1,2.81,2.81,0,0,1-.49-1.48h1.28a1.73,1.73,0,0,0,.67,1.22,2.24,2.24,0,0,0,1.44.49,2.27,2.27,0,0,0,2-1.18,2.6,2.6,0,0,0,.3-1.25,2.66,2.66,0,0,0-.31-1.28,2.37,2.37,0,0,0-.86-.89,2.52,2.52,0,0,0-1.24-.33,3.77,3.77,0,0,0-1,.15,2.93,2.93,0,0,0-.87.41l-1.23-.15.66-5.37h5.67V829H618l-.39,3.22h.07a2.56,2.56,0,0,1,.84-.44,3.13,3.13,0,0,1,1-.18,3.38,3.38,0,0,1,3,1.78,3.87,3.87,0,0,1,.45,1.88,3.74,3.74,0,0,1-.47,1.87,3.52,3.52,0,0,1-1.28,1.29A3.66,3.66,0,0,1,619.41,838.93Z"/><path class="cls-3" d="M628.67,838.93a3.25,3.25,0,0,1-2-.66,4.15,4.15,0,0,1-1.29-1.91,10.43,10.43,0,0,1,0-6.06,4.07,4.07,0,0,1,1.3-1.92,3.5,3.5,0,0,1,4.09,0,4.15,4.15,0,0,1,1.3,1.92,10.43,10.43,0,0,1,0,6.06,4.09,4.09,0,0,1-1.3,1.91A3.21,3.21,0,0,1,628.67,838.93Zm0-1.17a2.05,2.05,0,0,0,1.86-1.16,6.65,6.65,0,0,0,.66-3.28,8.43,8.43,0,0,0-.3-2.41,3.34,3.34,0,0,0-.87-1.52,1.89,1.89,0,0,0-1.35-.52,2,2,0,0,0-1.84,1.16,6.65,6.65,0,0,0-.67,3.29,8.38,8.38,0,0,0,.3,2.41,3.29,3.29,0,0,0,.86,1.51A1.93,1.93,0,0,0,628.67,837.76Z"/><path class="cls-3" d="M634.36,841.44v-9.75h1.09v4.19a2.07,2.07,0,0,0,.24,1,1.71,1.71,0,0,0,.68.68,2.05,2.05,0,0,0,1,.25,2.15,2.15,0,0,0,1-.25,1.71,1.71,0,0,0,.68-.68,2.07,2.07,0,0,0,.24-1v-4.19h1.09v7.09h-1.09v-1.06h-.05a2,2,0,0,1-.8.86,2.25,2.25,0,0,1-2.21,0,2.08,2.08,0,0,1-.8-.86h0v3.72Z"/><path class="cls-3" d="M645.31,841.58a3.94,3.94,0,0,1-1.36-.2,2.91,2.91,0,0,1-.94-.52,3,3,0,0,1-.6-.7l.87-.61c.1.13.22.28.37.45a2,2,0,0,0,.62.44,2.56,2.56,0,0,0,1,.18,2.32,2.32,0,0,0,1.42-.41,1.52,1.52,0,0,0,.55-1.3v-1.44h-.09a4.05,4.05,0,0,1-.34.47,1.85,1.85,0,0,1-.63.51,2.38,2.38,0,0,1-1.1.22,3,3,0,0,1-1.54-.41,2.8,2.8,0,0,1-1.07-1.18,4.17,4.17,0,0,1-.4-1.88,4.33,4.33,0,0,1,.39-1.9,3,3,0,0,1,1.06-1.26,2.84,2.84,0,0,1,1.58-.45,2.28,2.28,0,0,1,1.1.23,1.87,1.87,0,0,1,.63.52c.15.19.26.35.34.47h.11v-1.12h1V839a2.46,2.46,0,0,1-.41,1.49,2.36,2.36,0,0,1-1.11.84A4.22,4.22,0,0,1,645.31,841.58Zm0-3.89a2,2,0,0,0,1.11-.3,1.89,1.89,0,0,0,.69-.87,3.57,3.57,0,0,0,.23-1.34,3.63,3.63,0,0,0-.23-1.36,2,2,0,0,0-.68-.91,1.78,1.78,0,0,0-1.12-.34,1.87,1.87,0,0,0-1.15.35,2.1,2.1,0,0,0-.69,1,3.64,3.64,0,0,0-.23,1.31,3.31,3.31,0,0,0,.24,1.3,1.92,1.92,0,0,0,.69.89A2,2,0,0,0,645.27,837.69Z"/><path class="cls-3" d="M653.71,828.88l-3.05,11.32h-1l3-11.32Z"/><path class="cls-3" d="M655,838.78v-7.09h1.06v1.1h.09a1.82,1.82,0,0,1,.71-.88,2.18,2.18,0,0,1,1.19-.32,2,2,0,0,1,1.17.32,2.11,2.11,0,0,1,.73.88H660a2.12,2.12,0,0,1,.81-.87,2.5,2.5,0,0,1,1.31-.33,2.14,2.14,0,0,1,1.56.6,2.48,2.48,0,0,1,.6,1.84v4.75h-1.09V834a1.33,1.33,0,0,0-.43-1.12,1.6,1.6,0,0,0-1-.34,1.5,1.5,0,0,0-1.16.45,1.64,1.64,0,0,0-.41,1.14v4.62H659.1v-4.86a1.3,1.3,0,0,0-.39-1,1.44,1.44,0,0,0-1-.37,1.48,1.48,0,0,0-.79.23,1.67,1.67,0,0,0-.59.62,1.89,1.89,0,0,0-.23.93v4.43Z"/><path class="cls-3" d="M667.74,834.52a2.4,2.4,0,0,1-1-.18,1.55,1.55,0,0,1-.66-.51,1.34,1.34,0,0,1-.26-.76h.68a.75.75,0,0,0,.18.46,1.08,1.08,0,0,0,.42.3,1.72,1.72,0,0,0,1.21,0,1,1,0,0,0,.43-.35A.86.86,0,0,0,669,833a.94.94,0,0,0-.15-.53,1,1,0,0,0-.45-.37,1.67,1.67,0,0,0-.71-.13h-.44v-.59h.44a1.34,1.34,0,0,0,.58-.12.87.87,0,0,0,.39-.34.92.92,0,0,0,.14-.5,1,1,0,0,0-.12-.49.78.78,0,0,0-.35-.32,1.12,1.12,0,0,0-.53-.12,1.41,1.41,0,0,0-.54.11,1.22,1.22,0,0,0-.41.29.84.84,0,0,0-.17.47H666a1.29,1.29,0,0,1,.26-.76,1.73,1.73,0,0,1,.64-.51,2.05,2.05,0,0,1,.87-.18,1.76,1.76,0,0,1,.88.21,1.39,1.39,0,0,1,.56.54,1.43,1.43,0,0,1,.2.73,1.24,1.24,0,0,1-.25.79,1.26,1.26,0,0,1-.66.46v0a1.3,1.3,0,0,1,.82.44,1.37,1.37,0,0,1,.29.88,1.43,1.43,0,0,1-.24.81,1.65,1.65,0,0,1-.66.56A2.12,2.12,0,0,1,667.74,834.52Z"/><g class="cls-5"><circle class="cls-3" cx="826.78" cy="833.07" r="9.75"/></g><circle class="cls-3" cx="826.78" cy="833.07" r="3.45"/><path d="M839.78,838.78V827.87h6.58V829H841.1v3.69H846v1.17H841.1v3.71h5.35v1.17Z"/><path d="M849.2,827.87l3.24,9.18h.12l3.24-9.18h1.39l-4,10.91h-1.36l-4-10.91Z"/><path d="M858.89,838.78V827.87h6.59V829h-5.27v3.69h4.92v1.17h-4.92v3.71h5.35v1.17Z"/><path d="M876.51,827.87v10.91h-1.28l-5.94-8.57h-.11v8.57h-1.32V827.87h1.28l6,8.59h.1v-8.59Z"/><path d="M878.56,829v-1.17h8.18V829h-3.43v9.74H882V829Z"/><path d="M897.54,833.32a6.76,6.76,0,0,1-.62,3,4.83,4.83,0,0,1-1.71,1.94,4.88,4.88,0,0,1-5,0,4.83,4.83,0,0,1-1.71-1.94,7.5,7.5,0,0,1,0-6,4.77,4.77,0,0,1,1.71-1.94,4.88,4.88,0,0,1,5,0,4.77,4.77,0,0,1,1.71,1.94A6.72,6.72,0,0,1,897.54,833.32Zm-1.28,0a5.39,5.39,0,0,0-.47-2.39,3.41,3.41,0,0,0-1.27-1.47,3.24,3.24,0,0,0-1.79-.5,3.3,3.3,0,0,0-1.8.5,3.48,3.48,0,0,0-1.27,1.47,6.34,6.34,0,0,0,0,4.79,3.54,3.54,0,0,0,1.27,1.47,3.39,3.39,0,0,0,1.8.5,3.33,3.33,0,0,0,1.79-.5,3.47,3.47,0,0,0,1.27-1.47A5.44,5.44,0,0,0,896.26,833.32Z"/></svg>