<svg xmlns="http://www.w3.org/2000/svg" viewBox="0 0 1174.99 900"><defs><style>.cls-1{isolation:isolate;}.cls-2{fill:#b8b8b8;}.cls-3{fill:#efefef;}.cls-4{fill:#ff3a00;}.cls-5{opacity:0.3;}</style></defs><g id="base"><g class="cls-1"><path d="M206.4,773.62h6.79v1.19h-5.42v3.69h4.29v1.19h-4.29v4.17H206.4Z"/><path d="M215,773.62h6.9v1.19h-5.53v3.25h4.4v1.19h-4.4v3.42H222v1.19h-7Z"/><path d="M224,773.62h4.23c2.22,0,3.27,1,3.27,2.68a2.16,2.16,0,0,1-1.6,2.14v.06a2.32,2.32,0,0,1,2,2.32c0,1.74-1.18,3-3.39,3H224Zm1.37,1.19V778h2.86a1.67,1.67,0,0,0,1.9-1.68c0-.9-.53-1.48-1.9-1.48Zm0,4.35v3.51h3.16a1.76,1.76,0,0,0,2-1.83c0-1-.65-1.68-2-1.68Z"/></g><g class="cls-1"><path d="M131.84,782.37h-.05a3.6,3.6,0,0,1-3.34,1.67,5.31,5.31,0,0,1,.05-10.6,4.29,4.29,0,0,1,4.47,3.22h-1.43a2.91,2.91,0,0,0-3-2c-2.21,0-3.63,1.73-3.63,4s1.48,4,3.58,4c1.71,0,3.27-1,3.27-2.86v-.3H128.5v-1.19H133v5.42h-.89Z"/><path d="M135.41,773.62h6.9v1.19h-5.53v3.25h4.4v1.19h-4.4v3.42h5.65v1.19h-7Z"/><path d="M144.52,773.62h1.31l5.65,7.92h.06l-.06-7.92h1.37v10.24h-1.31L145.89,776h-.06l.06,7.86h-1.37Z"/></g><g class="cls-1"><path d="M284.21,773.62h1.67l3.76,8.39h0l3.71-8.39H295v10.24h-1.36l.12-8.09h-.06l-3.57,8.09h-1.08l-3.57-7.92h-.06l.12,7.92h-1.37Z"/><path d="M300.34,773.62H302l3.81,10.24h-1.43l-1-2.68h-4.49l-1,2.68h-1.36Zm.75,1.43L299.3,780h3.63l-1.78-4.94Z"/><path d="M307.25,773.62h3.87c2.33,0,3.57,1.12,3.57,3a3,3,0,0,1-2.25,3.05l2.6,4.15h-1.48l-2.55-4h-2.39v4h-1.37Zm1.37,1.19v3.87h2.56a1.94,1.94,0,0,0,2.14-2c0-1.13-.77-1.85-2.14-1.85Z"/></g><g class="cls-1"><path d="M372,773.62h1.61l3.8,10.24H376l-1-2.68h-4.49l-1,2.68H368.2Zm.74,1.43L371,780h3.63l-1.79-4.94Z"/><path d="M378.91,773.62h3.87c2.34,0,3.63,1.36,3.63,3.28a3.3,3.3,0,0,1-3.63,3.39h-2.5v3.57h-1.37Zm1.37,1.19v4.29h2.56a2.06,2.06,0,0,0,2.2-2.2,2,2,0,0,0-2.2-2.09Z"/><path d="M388.38,773.62h3.87c2.33,0,3.57,1.12,3.57,3a3,3,0,0,1-2.25,3.05l2.6,4.15h-1.48l-2.55-4h-2.39v4h-1.37Zm1.37,1.19v3.87h2.56a1.94,1.94,0,0,0,2.14-2c0-1.13-.78-1.85-2.14-1.85Z"/></g><g class="cls-1"><path d="M449.81,773.62h1.66l3.77,8.39h0l3.7-8.39h1.67v10.24h-1.37l.12-8.09h-.06l-3.57,8.09h-1.07l-3.57-7.92h-.06l.12,7.92h-1.37Z"/><path d="M465.94,773.62h1.6l3.81,10.24h-1.43l-1-2.68h-4.5l-1,2.68h-1.37Zm.74,1.43L464.9,780h3.62l-1.78-4.94Z"/><path d="M480.28,782.37h0a3.6,3.6,0,0,1-3.35,1.67,5.31,5.31,0,0,1,.06-10.6,4.28,4.28,0,0,1,4.46,3.22H480a2.9,2.9,0,0,0-3-2c-2.22,0-3.63,1.73-3.63,4s1.47,4,3.57,4c1.71,0,3.27-1,3.27-2.86v-.3H477v-1.19h4.46v5.42h-.89Z"/></g><g class="cls-1"><path d="M544.86,782.37h0a3.6,3.6,0,0,1-3.35,1.67,5.31,5.31,0,0,1,.06-10.6,4.28,4.28,0,0,1,4.46,3.22h-1.42a2.92,2.92,0,0,0-3-2c-2.22,0-3.63,1.73-3.63,4s1.47,4,3.57,4c1.71,0,3.27-1,3.27-2.86v-.3h-3.21v-1.19H546v5.42h-.89Z"/><path d="M548.44,773.62h1.36v10.24h-1.36Z"/><path d="M552.19,773.62h1.36v6.19c0,1.88.88,3,2.74,3s2.74-1.1,2.74-3v-6.19h1.37v6.19c0,3-1.68,4.23-4.11,4.23s-4.1-1.19-4.1-4.23Z"/></g><g class="cls-1"><path d="M618.26,773.62h1.37v9h5v1.19h-6.36Z"/><path d="M625.88,773.62h1.36v6.19c0,1.88.88,3,2.74,3s2.74-1.1,2.74-3v-6.19h1.37v6.19c0,3-1.68,4.23-4.11,4.23s-4.1-1.19-4.1-4.23Z"/><path d="M644.33,782.37h-.05a3.6,3.6,0,0,1-3.35,1.67,5.31,5.31,0,0,1,.06-10.6,4.3,4.3,0,0,1,4.47,3.22H644a2.92,2.92,0,0,0-3-2c-2.21,0-3.63,1.73-3.63,4s1.48,4,3.57,4c1.72,0,3.28-1,3.28-2.86v-.3H641v-1.19h4.47v5.42h-.9Z"/></g><g class="cls-1"><path d="M704.29,773.62h1.61l3.81,10.24h-1.43l-1-2.68h-4.49l-1,2.68h-1.37Zm.75,1.43L703.25,780h3.63l-1.78-4.94Z"/><path d="M718.64,782.37h0a3.6,3.6,0,0,1-3.35,1.67,5.31,5.31,0,0,1,.06-10.6,4.29,4.29,0,0,1,4.47,3.22h-1.43a2.92,2.92,0,0,0-3-2c-2.21,0-3.63,1.73-3.63,4s1.48,4,3.57,4c1.71,0,3.28-1,3.28-2.86v-.3H715.3v-1.19h4.47v5.42h-.9Z"/><path d="M726.55,773.44a5.31,5.31,0,0,1,0,10.6c-3,0-5-2.25-5-5.3S723.56,773.44,726.55,773.44Zm0,9.35c2.16,0,3.57-1.73,3.57-4s-1.41-4-3.57-4-3.57,1.73-3.57,4S724.4,782.79,726.55,782.79Z"/></g><g class="cls-1"><path d="M787.83,780.94c0,1.12,1,2,2.56,2s2.62-.7,2.62-1.91c0-2.71-6.4-.65-6.4-4.58,0-1.74,1.51-3,3.78-3s3.75,1.09,3.75,2.92h-1.37c0-1.13-1-1.79-2.38-1.79s-2.38.58-2.38,1.73c0,2.68,6.43.57,6.43,4.64,0,1.85-1.49,3.1-4.05,3.1s-3.93-1.25-3.93-3.1Z"/><path d="M796.58,773.62h6.91v1.19H798v3.25h4.41v1.19H798v3.42h5.66v1.19h-7Z"/><path d="M804.5,773.62H813v1.16h-3.57v9.08h-1.37v-9.08H804.5Z"/></g><g class="cls-1"><path d="M874,773.44a5.31,5.31,0,0,1,0,10.6c-3,0-5-2.25-5-5.3S871,773.44,874,773.44Zm0,9.35c2.16,0,3.57-1.73,3.57-4s-1.41-4-3.57-4-3.57,1.73-3.57,4S871.87,782.79,874,782.79Z"/><path d="M879.26,773.62h8.51v1.16H884.2v9.08h-1.37v-9.08h-3.57Z"/><path d="M888,773.62h8.51v1.16H893v9.08h-1.37v-9.08H888Z"/></g><g class="cls-1"><path d="M951.34,773.62h1.31l5.66,7.92h.06l-.06-7.92h1.37v10.24h-1.31L952.71,776h-.06l.06,7.86h-1.37Z"/><path d="M966.64,773.44a5.31,5.31,0,0,1,0,10.6c-3,0-5-2.25-5-5.3S963.65,773.44,966.64,773.44Zm0,9.35c2.16,0,3.57-1.73,3.57-4s-1.41-4-3.57-4-3.57,1.73-3.57,4S964.48,782.79,966.64,782.79Z"/><path d="M972.12,773.62h1.43l3.06,8.81h.06l3.06-8.81h1.37l-3.75,10.24h-1.51Z"/></g><g class="cls-1"><path d="M1036.17,773.62h3.15c3.53,0,5.36,2.13,5.36,5.12s-1.83,5.12-5.36,5.12h-3.15Zm1.37,1.19v7.86h1.78a3.93,3.93,0,0,0,0-7.86Z"/><path d="M1046.65,773.62H1048v10.24h-1.37Z"/><path d="M1054.92,773.44a4.13,4.13,0,0,1,4.34,3.4h-1.41a2.75,2.75,0,0,0-2.93-2.15c-2.1,0-3.51,1.67-3.51,4s1.41,4,3.45,4a2.74,2.74,0,0,0,3-2.15h1.41a4.19,4.19,0,0,1-4.4,3.4c-2.87,0-4.88-2.19-4.88-5.3S1052,773.44,1054.92,773.44Z"/></g><g class="cls-1"><path d="M67.9,760.8c0-3,1-5.3,3.57-5.3S75,757.83,75,760.8s-1,5.3-3.57,5.3S67.9,763.78,67.9,760.8Zm5.77,0c0-2.62-.71-4.11-2.2-4.11s-2.2,1.49-2.2,4.11.71,4.11,2.2,4.11S73.67,763.42,73.67,760.8Z"/></g><g class="cls-1"><path d="M59.69,699.66,63,697.4h1v9.1h2.44v1.14H60V706.5h2.62V699l-2.38,1.65Z"/><path d="M67.9,702.52c0-3,1-5.3,3.57-5.3s3.57,2.32,3.57,5.3-1,5.29-3.57,5.29S67.9,705.49,67.9,702.52Zm5.77,0c0-2.62-.71-4.11-2.2-4.11s-2.2,1.49-2.2,4.11.71,4.1,2.2,4.1S73.67,705.14,73.67,702.52Z"/></g><g class="cls-1"><path d="M62.13,645l1.13-.77c1.05-.73,1.72-1.13,1.72-2.32a1.75,1.75,0,0,0-1.9-1.79c-1.31,0-2,.71-2.08,2.08H59.81a3,3,0,0,1,3.27-3.21,2.89,2.89,0,0,1,3.21,2.92c0,1.78-1.14,2.42-2.2,3.15l-1.13.77c-1.55,1.06-1.79,1.8-1.85,2.44h5.3v1.13H59.63A4.83,4.83,0,0,1,62.13,645Z"/><path d="M67.9,644.24c0-3,1-5.3,3.57-5.3s3.57,2.32,3.57,5.3-1,5.29-3.57,5.29S67.9,647.21,67.9,644.24Zm5.77,0c0-2.62-.71-4.11-2.2-4.11s-2.2,1.49-2.2,4.11.71,4.1,2.2,4.1S73.67,646.85,73.67,644.24Z"/></g><g class="cls-1"><path d="M60.76,588a2,2,0,0,0,2.2,2.14c1.28,0,2.2-.69,2.2-1.89a2,2,0,0,0-2.2-1.89h-.77v-1.13H63a1.76,1.76,0,0,0,1.84-1.77A1.67,1.67,0,0,0,63,581.79a1.71,1.71,0,0,0-1.85,1.84H59.92a2.83,2.83,0,0,1,3-3,2.8,2.8,0,0,1,3.09,2.76,2.62,2.62,0,0,1-1.48,2.3v0a2.63,2.63,0,0,1,1.9,2.56c0,1.83-1.56,2.92-3.51,2.92s-3.45-1.07-3.45-3.27Z"/><path d="M67.9,586c0-3,1-5.29,3.57-5.29S75,583,75,586s-1,5.3-3.57,5.3S67.9,588.93,67.9,586Zm5.77,0c0-2.62-.71-4.1-2.2-4.1s-2.2,1.48-2.2,4.1.71,4.11,2.2,4.11S73.67,588.57,73.67,586Z"/></g><g class="cls-1"><path d="M59.27,529.28l4.94-6.73h1.07v6.55h1.49v1.13H65.28v2.56H64v-2.56h-4.7Zm4.7-.18v-4.51l-3.36,4.51Z"/><path d="M67.9,527.67c0-3,1-5.29,3.57-5.29S75,524.7,75,527.67s-1,5.3-3.57,5.3S67.9,530.65,67.9,527.67Zm5.77,0c0-2.62-.71-4.1-2.2-4.1s-2.2,1.48-2.2,4.1.71,4.11,2.2,4.11S73.67,530.29,73.67,527.67Z"/></g><g class="cls-1"><path d="M60.82,471.77a2,2,0,0,0,2.2,1.79,2.24,2.24,0,0,0,0-4.47,2.48,2.48,0,0,0-2,1l-1.19-.05.29-5.78h5.78v1.19H61.35l-.18,3.22h.06a2.72,2.72,0,0,1,2-.72,3.16,3.16,0,0,1,3.33,3.27A3.32,3.32,0,0,1,63,474.69a3.17,3.17,0,0,1-3.51-2.92Z"/><path d="M67.9,469.39c0-3,1-5.3,3.57-5.3s3.57,2.33,3.57,5.3-1,5.3-3.57,5.3S67.9,472.37,67.9,469.39Zm5.77,0c0-2.62-.71-4.11-2.2-4.11s-2.2,1.49-2.2,4.11.71,4.11,2.2,4.11S73.67,472,73.67,469.39Z"/></g><g class="cls-1"><path d="M63.38,405.81a2.83,2.83,0,0,1,3.09,2.74H65.16a1.65,1.65,0,0,0-1.78-1.61c-1.21,0-2.43,1.06-2.5,4.09a3,3,0,0,1,2.62-1.35A3.09,3.09,0,0,1,66.71,413a3.31,3.31,0,0,1-3.45,3.4c-2,0-3.75-1.3-3.75-5.06C59.51,407.23,61.43,405.81,63.38,405.81ZM61.06,413a2.13,2.13,0,0,0,2.14,2.24,2.23,2.23,0,0,0,.12-4.46A2.19,2.19,0,0,0,61.06,413Z"/><path d="M67.9,411.11c0-3,1-5.3,3.57-5.3s3.57,2.32,3.57,5.3-1,5.3-3.57,5.3S67.9,414.08,67.9,411.11Zm5.77,0c0-2.62-.71-4.11-2.2-4.11s-2.2,1.49-2.2,4.11.71,4.11,2.2,4.11S73.67,413.73,73.67,411.11Z"/></g><g class="cls-1"><path d="M65.16,348.9H59.57v-1.19h7v1l-4.34,9.28H60.88Z"/><path d="M67.9,352.83c0-3,1-5.3,3.57-5.3s3.57,2.32,3.57,5.3-1,5.29-3.57,5.29S67.9,355.8,67.9,352.83Zm5.77,0c0-2.62-.71-4.11-2.2-4.11s-2.2,1.49-2.2,4.11.71,4.1,2.2,4.1S73.67,355.45,73.67,352.83Z"/></g><g class="cls-1"><path d="M61.35,294.37v-.06A2.49,2.49,0,0,1,59.87,292c0-1.61,1.22-2.77,3.15-2.77s3.15,1.16,3.15,2.77a2.49,2.49,0,0,1-1.48,2.29v.06a2.61,2.61,0,0,1,1.9,2.55c0,1.83-1.44,2.92-3.57,2.92s-3.57-1.09-3.57-2.92A2.61,2.61,0,0,1,61.35,294.37ZM63,298.71c1.32,0,2.26-.69,2.26-1.89a2.3,2.3,0,0,0-4.52,0C60.76,298,61.7,298.71,63,298.71Zm1.9-6.68a1.92,1.92,0,0,0-3.81,0,1.91,1.91,0,0,0,3.81,0Z"/><path d="M67.9,294.54c0-3,1-5.29,3.57-5.29S75,291.57,75,294.54s-1,5.3-3.57,5.3S67.9,297.52,67.9,294.54Zm5.77,0c0-2.61-.71-4.1-2.2-4.1s-2.2,1.49-2.2,4.1.71,4.11,2.2,4.11S73.67,297.16,73.67,294.54Z"/></g><g class="cls-1"><path d="M62.78,241.56a2.94,2.94,0,0,1-3.21-2.74h1.31a1.8,1.8,0,0,0,1.9,1.61c1.38,0,2.32-1.06,2.38-4.08a3,3,0,0,1-2.62,1.34,3.09,3.09,0,0,1-3.21-3.33A3.3,3.3,0,0,1,62.78,231c2,0,3.75,1.29,3.75,5.05C66.53,240.15,64.91,241.56,62.78,241.56Zm2.2-7.22a2.17,2.17,0,1,0-4.34,0,2.1,2.1,0,0,0,2.08,2.2A2.19,2.19,0,0,0,65,234.34Z"/><path d="M67.9,236.26c0-3,1-5.29,3.57-5.29S75,233.29,75,236.26s-1,5.3-3.57,5.3S67.9,239.24,67.9,236.26Zm5.77,0c0-2.62-.71-4.1-2.2-4.1s-2.2,1.48-2.2,4.1.71,4.11,2.2,4.11S73.67,238.88,73.67,236.26Z"/></g><g class="cls-1"><path d="M51.23,175.12l3.28-2.26h1V182H58v1.13H51.59V182h2.62v-7.49l-2.38,1.66Z"/><path d="M59.45,178c0-3,1-5.3,3.57-5.3s3.57,2.33,3.57,5.3-1,5.3-3.57,5.3S59.45,181,59.45,178Zm5.77,0c0-2.62-.71-4.11-2.2-4.11s-2.2,1.49-2.2,4.11.71,4.11,2.2,4.11S65.22,180.6,65.22,178Z"/><path d="M67.9,178c0-3,1-5.3,3.57-5.3S75,175,75,178s-1,5.3-3.57,5.3S67.9,181,67.9,178Zm5.77,0c0-2.62-.71-4.11-2.2-4.11s-2.2,1.49-2.2,4.11.71,4.11,2.2,4.11S73.67,180.6,73.67,178Z"/></g><g class="cls-1"><path d="M51.23,83.46l3.28-2.26h1v9.1H58v1.13H51.59V90.3h2.62V82.82l-2.38,1.65Z"/><path d="M60.76,88.34A2,2,0,0,0,63,90.48c1.28,0,2.2-.68,2.2-1.89A2,2,0,0,0,63,86.7h-.77V85.57H63A1.76,1.76,0,0,0,64.8,83.8,1.67,1.67,0,0,0,63,82.15,1.71,1.71,0,0,0,61.11,84H59.92a2.83,2.83,0,0,1,3-3,2.8,2.8,0,0,1,3.09,2.77,2.61,2.61,0,0,1-1.48,2.29v.06a2.62,2.62,0,0,1,1.9,2.56c0,1.83-1.56,2.91-3.51,2.91s-3.45-1.07-3.45-3.27Z"/><path d="M67.9,86.31c0-3,1-5.29,3.57-5.29S75,83.34,75,86.31s-1,5.3-3.57,5.3S67.9,89.29,67.9,86.31Zm5.77,0c0-2.61-.71-4.1-2.2-4.1s-2.2,1.49-2.2,4.1.71,4.11,2.2,4.11S73.67,88.93,73.67,86.31Z"/></g><g class="cls-1"><path class="cls-2" d="M1107.47,83.46l3.27-2.26h1v9.1h2.44v1.13h-6.37V90.3h2.62V82.82l-2.38,1.65Z"/><path class="cls-2" d="M1117,88.34a2,2,0,0,0,2.2,2.14c1.28,0,2.21-.68,2.21-1.89a2,2,0,0,0-2.21-1.89h-.77V85.57h.77A1.77,1.77,0,0,0,1121,83.8a1.67,1.67,0,0,0-1.85-1.65,1.7,1.7,0,0,0-1.84,1.84h-1.19a3.07,3.07,0,0,1,6.13-.2,2.62,2.62,0,0,1-1.49,2.29v.06a2.62,2.62,0,0,1,1.9,2.56c0,1.83-1.56,2.91-3.51,2.91s-3.45-1.07-3.45-3.27Z"/><path class="cls-2" d="M1124.13,86.31c0-3,1-5.29,3.57-5.29s3.57,2.32,3.57,5.29-1,5.3-3.57,5.3S1124.13,89.29,1124.13,86.31Zm5.78,0c0-2.61-.72-4.1-2.21-4.1s-2.2,1.49-2.2,4.1.72,4.11,2.2,4.11S1129.91,88.93,1129.91,86.31Z"/></g><g class="cls-1"><path class="cls-2" d="M1107.23,760.8c0-3,1-5.3,3.57-5.3s3.57,2.33,3.57,5.3-1,5.3-3.57,5.3S1107.23,763.78,1107.23,760.8Zm5.77,0c0-2.62-.71-4.11-2.2-4.11s-2.2,1.49-2.2,4.11.71,4.11,2.2,4.11S1113,763.42,1113,760.8Z"/></g><g class="cls-1"><path class="cls-2" d="M1107.47,699.66l3.27-2.26h1v9.1h2.44v1.14h-6.36V706.5h2.61V699l-2.38,1.65Z"/><path class="cls-2" d="M1115.68,702.52c0-3,1-5.3,3.57-5.3s3.57,2.32,3.57,5.3-1,5.29-3.57,5.29S1115.68,705.49,1115.68,702.52Zm5.78,0c0-2.62-.72-4.11-2.21-4.11s-2.2,1.49-2.2,4.11.72,4.1,2.2,4.1S1121.46,705.14,1121.46,702.52Z"/></g><g class="cls-1"><path class="cls-2" d="M1109.91,645l1.13-.77c1.06-.73,1.73-1.13,1.73-2.32a1.76,1.76,0,0,0-1.91-1.79c-1.31,0-2,.71-2.08,2.08h-1.19a3,3,0,0,1,3.27-3.21,2.89,2.89,0,0,1,3.21,2.92c0,1.78-1.14,2.42-2.2,3.15l-1.13.77c-1.55,1.06-1.78,1.8-1.84,2.44h5.29v1.13h-6.78A4.84,4.84,0,0,1,1109.91,645Z"/><path class="cls-2" d="M1115.68,644.24c0-3,1-5.3,3.57-5.3s3.57,2.32,3.57,5.3-1,5.29-3.57,5.29S1115.68,647.21,1115.68,644.24Zm5.78,0c0-2.62-.72-4.11-2.21-4.11s-2.2,1.49-2.2,4.11.72,4.1,2.2,4.1S1121.46,646.85,1121.46,644.24Z"/></g><g class="cls-1"><path class="cls-2" d="M1108.54,588a2,2,0,0,0,2.2,2.14c1.28,0,2.2-.69,2.2-1.89a2,2,0,0,0-2.2-1.89H1110v-1.13h.77a1.77,1.77,0,0,0,1.85-1.77,1.67,1.67,0,0,0-1.85-1.65,1.7,1.7,0,0,0-1.84,1.84h-1.19a3.07,3.07,0,0,1,6.13-.21,2.63,2.63,0,0,1-1.49,2.3v0a2.63,2.63,0,0,1,1.9,2.56c0,1.83-1.56,2.92-3.51,2.92s-3.45-1.07-3.45-3.27Z"/><path class="cls-2" d="M1115.68,586c0-3,1-5.29,3.57-5.29s3.57,2.32,3.57,5.29-1,5.3-3.57,5.3S1115.68,588.93,1115.68,586Zm5.78,0c0-2.62-.72-4.1-2.21-4.1s-2.2,1.48-2.2,4.1.72,4.11,2.2,4.11S1121.46,588.57,1121.46,586Z"/></g><g class="cls-1"><path class="cls-2" d="M1107.05,529.28l4.94-6.73h1.07v6.55h1.49v1.13h-1.49v2.56h-1.31v-2.56h-4.7Zm4.7-.18v-4.51l-3.36,4.51Z"/><path class="cls-2" d="M1115.68,527.67c0-3,1-5.29,3.57-5.29s3.57,2.32,3.57,5.29-1,5.3-3.57,5.3S1115.68,530.65,1115.68,527.67Zm5.78,0c0-2.62-.72-4.1-2.21-4.1s-2.2,1.48-2.2,4.1.72,4.11,2.2,4.11S1121.46,530.29,1121.46,527.67Z"/></g><g class="cls-1"><path class="cls-2" d="M1108.6,471.77a2,2,0,0,0,2.2,1.79,2.24,2.24,0,0,0,0-4.47,2.48,2.48,0,0,0-2,1l-1.19-.05.29-5.78h5.78v1.19h-4.58l-.18,3.22h.06a2.67,2.67,0,0,1,2-.72,3.16,3.16,0,0,1,3.33,3.27,3.32,3.32,0,0,1-3.51,3.46,3.17,3.17,0,0,1-3.51-2.92Z"/><path class="cls-2" d="M1115.68,469.39c0-3,1-5.3,3.57-5.3s3.57,2.33,3.57,5.3-1,5.3-3.57,5.3S1115.68,472.37,1115.68,469.39Zm5.78,0c0-2.62-.72-4.11-2.21-4.11s-2.2,1.49-2.2,4.11.72,4.11,2.2,4.11S1121.46,472,1121.46,469.39Z"/></g><g class="cls-1"><path class="cls-2" d="M1111.16,405.81a2.83,2.83,0,0,1,3.09,2.74h-1.31a1.65,1.65,0,0,0-1.78-1.61c-1.21,0-2.43,1.06-2.5,4.09a3,3,0,0,1,2.62-1.35,3.09,3.09,0,0,1,3.21,3.33,3.31,3.31,0,0,1-3.45,3.4c-2,0-3.75-1.3-3.75-5.06C1107.29,407.23,1109.21,405.81,1111.16,405.81Zm-2.32,7.22a2.13,2.13,0,0,0,2.14,2.24,2.23,2.23,0,0,0,.12-4.46A2.19,2.19,0,0,0,1108.84,413Z"/><path class="cls-2" d="M1115.68,411.11c0-3,1-5.3,3.57-5.3s3.57,2.32,3.57,5.3-1,5.3-3.57,5.3S1115.68,414.08,1115.68,411.11Zm5.78,0c0-2.62-.72-4.11-2.21-4.11s-2.2,1.49-2.2,4.11.72,4.11,2.2,4.11S1121.46,413.73,1121.46,411.11Z"/></g><g class="cls-1"><path class="cls-2" d="M1112.94,348.9h-5.59v-1.19h7v1l-4.34,9.28h-1.37Z"/><path class="cls-2" d="M1115.68,352.83c0-3,1-5.3,3.57-5.3s3.57,2.32,3.57,5.3-1,5.29-3.57,5.29S1115.68,355.8,1115.68,352.83Zm5.78,0c0-2.62-.72-4.11-2.21-4.11s-2.2,1.49-2.2,4.11.72,4.1,2.2,4.1S1121.46,355.45,1121.46,352.83Z"/></g><g class="cls-1"><path class="cls-2" d="M1109.14,294.37v-.06a2.48,2.48,0,0,1-1.49-2.29c0-1.61,1.22-2.77,3.15-2.77s3.16,1.16,3.16,2.77a2.5,2.5,0,0,1-1.49,2.29v.06a2.61,2.61,0,0,1,1.9,2.55c0,1.83-1.44,2.92-3.57,2.92s-3.57-1.09-3.57-2.92A2.61,2.61,0,0,1,1109.14,294.37Zm1.66,4.34c1.33,0,2.26-.69,2.26-1.89a2.3,2.3,0,0,0-4.52,0C1108.54,298,1109.48,298.71,1110.8,298.71Zm1.91-6.68a1.92,1.92,0,0,0-3.81,0,1.91,1.91,0,0,0,3.81,0Z"/><path class="cls-2" d="M1115.68,294.54c0-3,1-5.29,3.57-5.29s3.57,2.32,3.57,5.29-1,5.3-3.57,5.3S1115.68,297.52,1115.68,294.54Zm5.78,0c0-2.61-.72-4.1-2.21-4.1s-2.2,1.49-2.2,4.1.72,4.11,2.2,4.11S1121.46,297.16,1121.46,294.54Z"/></g><g class="cls-1"><path class="cls-2" d="M1110.56,241.56a2.94,2.94,0,0,1-3.21-2.74h1.31a1.8,1.8,0,0,0,1.9,1.61c1.39,0,2.32-1.06,2.38-4.08a3,3,0,0,1-2.62,1.34,3.09,3.09,0,0,1-3.21-3.33,3.3,3.3,0,0,1,3.45-3.39c2,0,3.75,1.29,3.75,5.05C1114.31,240.15,1112.69,241.56,1110.56,241.56Zm2.21-7.22a2.16,2.16,0,0,0-2.15-2.24,2.14,2.14,0,0,0-2.2,2.26,2.1,2.1,0,0,0,2.08,2.2A2.2,2.2,0,0,0,1112.77,234.34Z"/><path class="cls-2" d="M1115.68,236.26c0-3,1-5.29,3.57-5.29s3.57,2.32,3.57,5.29-1,5.3-3.57,5.3S1115.68,239.24,1115.68,236.26Zm5.78,0c0-2.62-.72-4.1-2.21-4.1s-2.2,1.48-2.2,4.1.72,4.11,2.2,4.11S1121.46,238.88,1121.46,236.26Z"/></g><g class="cls-1"><path class="cls-2" d="M1107.47,175.12l3.27-2.26h1V182h2.44v1.13h-6.36V182h2.61v-7.49l-2.38,1.66Z"/><path class="cls-2" d="M1115.68,178c0-3,1-5.3,3.57-5.3s3.57,2.33,3.57,5.3-1,5.3-3.57,5.3S1115.68,181,1115.68,178Zm5.78,0c0-2.62-.72-4.11-2.21-4.11s-2.2,1.49-2.2,4.11.72,4.11,2.2,4.11S1121.46,180.6,1121.46,178Z"/><path class="cls-2" d="M1124.14,178c0-3,1-5.3,3.57-5.3s3.57,2.33,3.57,5.3-1,5.3-3.57,5.3S1124.14,181,1124.14,178Zm5.77,0c0-2.62-.72-4.11-2.2-4.11s-2.21,1.49-2.21,4.11.72,4.11,2.21,4.11S1129.91,180.6,1129.91,178Z"/></g><path class="cls-2" d="M1104.52,43.34h1.57v1.34h.07a2.86,2.86,0,0,1,2.75-1.56,2.79,2.79,0,0,1,2.83,1.84,3,3,0,0,1,3-1.84c1.71,0,3.13,1,3.13,3.64v5.66h-1.64V47c0-1.78-.6-2.45-1.86-2.45s-2.38,1.21-2.38,3.16v4.73h-1.64V47c0-1.78-.67-2.45-1.86-2.45s-2.38,1.21-2.38,3.18v4.71h-1.64Z"/><path class="cls-2" d="M1120.59,43.34h1.57v1.34h.07a2.86,2.86,0,0,1,2.75-1.56,2.79,2.79,0,0,1,2.83,1.84,3,3,0,0,1,3-1.84c1.71,0,3.13,1,3.13,3.64v5.66h-1.64V47c0-1.78-.6-2.45-1.86-2.45s-2.38,1.21-2.38,3.16v4.73h-1.64V47c0-1.78-.67-2.45-1.86-2.45s-2.38,1.21-2.38,3.18v4.71h-1.64Z"/><rect class="cls-3" x="96.25" y="73.36" width="288.1" height="687.99"/><rect class="cls-3" x="881.7" y="73.36" width="206.56" height="687.99"/><path class="cls-2" d="M180.5,761.64a.3.3,0,0,1-.3-.3V158.08a.31.31,0,0,1,.3-.3.3.3,0,0,1,.3.3V761.34A.29.29,0,0,1,180.5,761.64Z"/><path class="cls-2" d="M259.32,761.64a.3.3,0,0,1-.3-.3V158.08a.31.31,0,0,1,.3-.3.3.3,0,0,1,.3.3V761.34A.29.29,0,0,1,259.32,761.64Z"/><path class="cls-2" d="M343.58,761.64a.29.29,0,0,1-.3-.3V158.08a.3.3,0,0,1,.3-.3.31.31,0,0,1,.3.3V761.34A.3.3,0,0,1,343.58,761.64Z"/><path class="cls-2" d="M425.11,761.64a.29.29,0,0,1-.3-.3V158.08a.3.3,0,0,1,.6,0V761.34A.29.29,0,0,1,425.11,761.64Z"/><path class="cls-2" d="M509.36,761.64a.3.3,0,0,1-.3-.3V158.08a.31.31,0,0,1,.3-.3.3.3,0,0,1,.3.3V761.34A.29.29,0,0,1,509.36,761.64Z"/><path class="cls-2" d="M590.9,761.64a.29.29,0,0,1-.3-.3V158.08a.3.3,0,0,1,.3-.3.31.31,0,0,1,.3.3V761.34A.3.3,0,0,1,590.9,761.64Z"/><path class="cls-2" d="M675.15,761.64a.3.3,0,0,1-.3-.3V158.08a.31.31,0,0,1,.3-.3.3.3,0,0,1,.3.3V761.34A.29.29,0,0,1,675.15,761.64Z"/><path class="cls-2" d="M759.4,761.64a.3.3,0,0,1-.3-.3V158.08a.31.31,0,0,1,.3-.3.3.3,0,0,1,.3.3V761.34A.29.29,0,0,1,759.4,761.64Z"/><path class="cls-2" d="M840.94,761.64a.29.29,0,0,1-.3-.3V158.08a.3.3,0,0,1,.6,0V761.34A.29.29,0,0,1,840.94,761.64Z"/><path class="cls-2" d="M925.19,761.64a.3.3,0,0,1-.3-.3V158.08a.31.31,0,0,1,.3-.3.3.3,0,0,1,.3.3V761.34A.29.29,0,0,1,925.19,761.64Z"/><path class="cls-2" d="M1006.73,761.64a.29.29,0,0,1-.3-.3V158.08a.3.3,0,0,1,.3-.3.31.31,0,0,1,.3.3V761.34A.3.3,0,0,1,1006.73,761.64Z"/><path class="cls-2" d="M96.25,761.64a.3.3,0,0,1-.3-.3V158.08a.31.31,0,0,1,.3-.3.3.3,0,0,1,.3.3V761.34A.29.29,0,0,1,96.25,761.64Z"/><path class="cls-2" d="M1088.26,761.64a.3.3,0,0,1-.3-.3V158.08a.31.31,0,0,1,.3-.3.3.3,0,0,1,.3.3V761.34A.29.29,0,0,1,1088.26,761.64Z"/><path class="cls-2" d="M96.27,101.91a.31.31,0,0,1-.3-.3V73.36a.3.3,0,0,1,.3-.3.29.29,0,0,1,.3.3v28.25A.3.3,0,0,1,96.27,101.91Z"/><path class="cls-2" d="M96.27,149.53a.3.3,0,0,1-.3-.3v-6a.31.31,0,0,1,.3-.3.3.3,0,0,1,.3.3v6A.29.29,0,0,1,96.27,149.53Z"/><path class="cls-2" d="M96.27,134.41a.3.3,0,0,1-.3-.3V125a.3.3,0,0,1,.3-.3.29.29,0,0,1,.3.3v9.12A.29.29,0,0,1,96.27,134.41Z"/><path class="cls-2" d="M96.27,116.17a.3.3,0,0,1-.3-.3v-6a.3.3,0,0,1,.3-.3.29.29,0,0,1,.3.3v6A.29.29,0,0,1,96.27,116.17Z"/><path class="cls-2" d="M1088.26,101.91a.31.31,0,0,1-.3-.3V73.36a.3.3,0,0,1,.3-.3.29.29,0,0,1,.3.3v28.25A.3.3,0,0,1,1088.26,101.91Z"/><path class="cls-2" d="M1088.26,149.53a.3.3,0,0,1-.3-.3v-6a.31.31,0,0,1,.3-.3.3.3,0,0,1,.3.3v6A.29.29,0,0,1,1088.26,149.53Z"/><path class="cls-2" d="M1088.26,134.41a.3.3,0,0,1-.3-.3V125a.3.3,0,0,1,.3-.3.29.29,0,0,1,.3.3v9.12A.29.29,0,0,1,1088.26,134.41Z"/><path class="cls-2" d="M1088.26,116.17a.3.3,0,0,1-.3-.3v-6a.3.3,0,0,1,.3-.3.29.29,0,0,1,.3.3v6A.29.29,0,0,1,1088.26,116.17Z"/><circle cx="96.25" cy="487.56" r="2.97"/><circle cx="98.97" cy="516.7" r="2.97"/><circle cx="101.69" cy="668.23" r="2.97"/><circle cx="104.41" cy="609.95" r="2.97"/><circle cx="107.12" cy="580.81" r="2.97"/><circle cx="109.84" cy="592.47" r="2.97"/><circle cx="112.56" cy="592.47" r="2.97"/><circle cx="120.71" cy="621.61" r="2.97"/><circle cx="123.43" cy="685.72" r="2.97"/><circle cx="126.15" cy="639.09" r="2.97"/><circle cx="128.87" cy="650.75" r="2.97"/><circle cx="131.58" cy="609.95" r="2.97"/><circle cx="134.3" cy="639.09" r="2.97"/><circle cx="137.02" cy="574.98" r="2.97"/><circle cx="139.74" cy="685.72" r="2.97"/><circle cx="142.45" cy="650.75" r="2.97"/><circle cx="145.17" cy="545.84" r="2.97"/><circle cx="147.89" cy="481.74" r="2.97"/><circle cx="164.2" cy="540.02" r="2.97"/><circle cx="166.92" cy="481.74" r="2.97"/><circle cx="180.5" cy="516.7" r="2.97"/><circle cx="183.22" cy="505.05" r="2.97"/><circle cx="188.66" cy="674.06" r="2.97"/><circle cx="191.38" cy="580.81" r="2.97"/><circle cx="194.09" cy="516.7" r="2.97"/><circle cx="196.81" cy="633.27" r="2.97"/><circle cx="199.53" cy="586.64" r="2.97"/><circle cx="202.25" cy="656.58" r="2.97"/><circle cx="204.97" cy="703.2" r="2.97"/><circle cx="207.68" cy="644.92" r="2.97"/><circle cx="210.4" cy="592.47" r="2.97"/><circle cx="213.12" cy="569.16" r="2.97"/><circle cx="215.84" cy="516.7" r="2.97"/><circle cx="218.55" cy="609.95" r="2.97"/><circle cx="221.27" cy="679.89" r="2.97"/><circle cx="223.99" cy="674.06" r="2.97"/><circle cx="226.71" cy="621.61" r="2.97"/><circle cx="240.3" cy="493.39" r="2.97"/><circle cx="243.01" cy="563.33" r="2.97"/><circle cx="245.73" cy="615.78" r="2.97"/><circle cx="248.45" cy="551.67" r="2.97"/><circle cx="251.17" cy="656.58" r="2.97"/><circle cx="253.89" cy="609.95" r="2.97"/><circle cx="256.6" cy="691.55" r="2.97"/><circle cx="259.32" cy="598.3" r="2.97"/><circle cx="262.04" cy="685.72" r="2.97"/><circle cx="264.76" cy="720.69" r="2.97"/><circle cx="267.48" cy="709.03" r="2.97"/><circle cx="270.19" cy="697.37" r="2.97"/><circle cx="272.91" cy="574.98" r="2.97"/><circle cx="275.63" cy="586.64" r="2.97"/><circle cx="278.35" cy="685.72" r="2.97"/><circle cx="281.06" cy="685.72" r="2.97"/><circle cx="283.78" cy="580.81" r="2.97"/><circle cx="286.5" cy="609.95" r="2.97"/><circle cx="289.22" cy="551.67" r="2.97"/><circle cx="291.94" cy="633.27" r="2.97"/><circle cx="294.65" cy="627.44" r="2.97"/><circle cx="297.37" cy="627.44" r="2.97"/><circle cx="300.09" cy="668.23" r="2.97"/><circle cx="302.81" cy="569.16" r="2.97"/><circle cx="305.53" cy="574.98" r="2.97"/><circle cx="308.24" cy="656.58" r="2.97"/><circle cx="310.96" cy="703.2" r="2.97"/><circle cx="313.68" cy="627.44" r="2.97"/><circle cx="316.4" cy="580.81" r="2.97"/><circle cx="319.11" cy="627.44" r="2.97"/><circle cx="321.83" cy="650.75" r="2.97"/><circle cx="324.55" cy="604.13" r="2.97"/><circle cx="327.27" cy="569.16" r="2.97"/><circle cx="329.99" cy="592.47" r="2.97"/><circle cx="332.7" cy="639.09" r="2.97"/><circle cx="335.42" cy="679.89" r="2.97"/><circle cx="338.14" cy="668.23" r="2.97"/><circle cx="340.86" cy="551.67" r="2.97"/><circle cx="343.58" cy="487.56" r="2.97"/><circle cx="346.29" cy="522.53" r="2.97"/><circle cx="349.01" cy="569.16" r="2.97"/><circle cx="351.73" cy="528.36" r="2.97"/><circle cx="354.45" cy="534.19" r="2.97"/><circle cx="359.88" cy="475.91" r="2.97"/><circle cx="365.32" cy="621.61" r="2.97"/><circle cx="368.04" cy="674.06" r="2.97"/><circle cx="370.75" cy="668.23" r="2.97"/><circle cx="373.47" cy="639.09" r="2.97"/><circle cx="376.19" cy="598.3" r="2.97"/><circle cx="378.91" cy="668.23" r="2.97"/><circle cx="381.62" cy="668.23" r="2.97"/><circle cx="384.34" cy="668.23" r="2.97"/><circle cx="387.06" cy="627.44" r="2.97"/><circle cx="389.78" cy="656.58" r="2.97"/><circle cx="392.5" cy="668.23" r="2.97"/><circle cx="395.21" cy="644.92" r="2.97"/><circle cx="397.93" cy="627.44" r="2.97"/><circle cx="400.65" cy="656.58" r="2.97"/><circle cx="403.37" cy="714.86" r="2.97"/><circle cx="406.09" cy="732.34" r="2.97"/><circle cx="408.8" cy="732.34" r="2.97"/><circle cx="411.52" cy="691.55" r="2.97"/><circle cx="414.24" cy="662.41" r="2.97"/><circle cx="416.96" cy="633.27" r="2.97"/><circle cx="419.67" cy="644.92" r="2.97"/><circle cx="422.39" cy="662.41" r="2.97"/><circle cx="425.11" cy="703.2" r="2.97"/><circle cx="427.83" cy="662.41" r="2.97"/><circle cx="430.55" cy="709.03" r="2.97"/><circle cx="433.26" cy="679.89" r="2.97"/><circle cx="435.98" cy="674.06" r="2.97"/><circle cx="438.7" cy="644.92" r="2.97"/><circle cx="441.42" cy="668.23" r="2.97"/><circle cx="444.14" cy="674.06" r="2.97"/><circle cx="446.85" cy="639.09" r="2.97"/><circle cx="449.57" cy="574.98" r="2.97"/><circle cx="452.29" cy="586.64" r="2.97"/><circle cx="455.01" cy="714.86" r="2.97"/><circle cx="457.72" cy="697.37" r="2.97"/><circle cx="460.44" cy="685.72" r="2.97"/><circle cx="463.16" cy="679.89" r="2.97"/><circle cx="465.88" cy="650.75" r="2.97"/><circle cx="468.6" cy="674.06" r="2.97"/><circle cx="471.31" cy="668.23" r="2.97"/><circle cx="474.03" cy="691.55" r="2.97"/><circle cx="476.75" cy="679.89" r="2.97"/><circle cx="479.47" cy="674.06" r="2.97"/><circle cx="482.19" cy="685.72" r="2.97"/><circle cx="484.9" cy="709.03" r="2.97"/><circle cx="487.62" cy="714.86" r="2.97"/><circle cx="490.34" cy="685.72" r="2.97"/><circle cx="493.06" cy="662.41" r="2.97"/><circle cx="495.77" cy="627.44" r="2.97"/><circle cx="498.49" cy="615.78" r="2.97"/><circle cx="501.21" cy="656.58" r="2.97"/><circle cx="503.93" cy="720.69" r="2.97"/><circle cx="509.36" cy="703.2" r="2.97"/><circle cx="512.08" cy="709.03" r="2.97"/><circle cx="514.8" cy="709.03" r="2.97"/><circle cx="517.52" cy="697.37" r="2.97"/><circle cx="520.23" cy="691.55" r="2.97"/><circle cx="522.95" cy="679.89" r="2.97"/><circle cx="525.67" cy="650.75" r="2.97"/><circle cx="528.39" cy="656.58" r="2.97"/><circle cx="531.11" cy="697.37" r="2.97"/><circle cx="533.82" cy="656.58" r="2.97"/><circle cx="536.54" cy="709.03" r="2.97"/><circle cx="539.26" cy="697.37" r="2.97"/><circle cx="541.98" cy="720.69" r="2.97"/><circle cx="544.7" cy="685.72" r="2.97"/><circle cx="547.41" cy="697.37" r="2.97"/><circle cx="550.13" cy="633.27" r="2.97"/><circle cx="552.85" cy="691.55" r="2.97"/><circle cx="555.57" cy="685.72" r="2.97"/><circle cx="558.28" cy="697.37" r="2.97"/><circle cx="561" cy="691.55" r="2.97"/><circle cx="563.72" cy="691.55" r="2.97"/><circle cx="566.44" cy="668.23" r="2.97"/><circle cx="569.16" cy="609.95" r="2.97"/><circle cx="571.87" cy="569.16" r="2.97"/><circle cx="574.59" cy="609.95" r="2.97"/><circle cx="577.31" cy="668.23" r="2.97"/><circle cx="580.03" cy="662.41" r="2.97"/><circle cx="582.75" cy="656.58" r="2.97"/><circle cx="585.46" cy="650.75" r="2.97" transform="translate(-2.6 2.35) rotate(-0.23)"/><circle cx="588.18" cy="644.92" r="2.97"/><circle cx="590.9" cy="609.95" r="2.97"/><circle cx="593.62" cy="627.44" r="2.97" transform="translate(-1.28 1.21) rotate(-0.12)"/><circle cx="596.33" cy="650.75" r="2.97"/><circle cx="599.05" cy="656.58" r="2.97" transform="translate(-59.88 1253.04) rotate(-89.77)"/><circle cx="601.77" cy="668.23" r="2.97"/><circle cx="604.49" cy="615.78" r="2.97"/><circle cx="607.21" cy="627.44" r="2.97"/><circle cx="609.92" cy="633.27" r="2.97" transform="translate(-10.82 10.61) rotate(-0.99)"/><circle cx="612.64" cy="627.44" r="2.97"/><circle cx="615.36" cy="627.44" r="2.97"/><circle cx="618.08" cy="615.78" r="2.97"/><circle cx="620.8" cy="644.92" r="2.97"/><circle cx="623.51" cy="662.41" r="2.97"/><circle cx="626.23" cy="674.06" r="2.97"/><circle cx="628.95" cy="679.89" r="2.97"/><circle cx="631.67" cy="685.72" r="2.97"/><circle cx="634.38" cy="697.37" r="2.97"/><circle cx="637.1" cy="674.06" r="2.97"/><circle cx="639.82" cy="633.27" r="2.97"/><circle cx="642.54" cy="621.61" r="2.97"/><circle cx="645.26" cy="644.92" r="2.97"/><circle cx="647.97" cy="633.27" r="2.97"/><circle cx="650.69" cy="627.44" r="2.97"/><circle cx="653.41" cy="656.58" r="2.97"/><circle cx="656.13" cy="639.09" r="2.97"/><circle cx="658.84" cy="615.78" r="2.97"/><circle cx="661.56" cy="639.09" r="2.97"/><circle cx="664.28" cy="674.06" r="2.97"/><circle cx="667" cy="656.58" r="2.97"/><circle cx="669.72" cy="662.41" r="2.97"/><circle cx="672.43" cy="662.41" r="2.97"/><circle cx="675.15" cy="674.06" r="2.97"/><circle cx="677.87" cy="674.06" r="2.97"/><circle cx="680.59" cy="662.41" r="2.97"/><circle cx="683.31" cy="662.41" r="2.97"/><circle cx="686.02" cy="668.23" r="2.97"/><circle cx="688.74" cy="697.37" r="2.97"/><circle cx="691.46" cy="691.55" r="2.97"/><circle cx="694.18" cy="668.23" r="2.97"/><circle cx="696.89" cy="668.23" r="2.97"/><circle cx="699.61" cy="679.89" r="2.97"/><circle cx="702.33" cy="709.03" r="2.97"/><circle cx="705.05" cy="691.55" r="2.97"/><circle cx="707.77" cy="691.55" r="2.97"/><circle cx="710.48" cy="697.37" r="2.97"/><circle cx="713.2" cy="714.86" r="2.97"/><circle cx="715.92" cy="691.55" r="2.97"/><circle cx="718.64" cy="685.72" r="2.97"/><circle cx="721.36" cy="674.06" r="2.97"/><circle cx="724.07" cy="668.23" r="2.97"/><circle cx="726.79" cy="621.61" r="2.97"/><circle cx="729.51" cy="633.27" r="2.97"/><circle cx="732.23" cy="679.89" r="2.97"/><circle cx="734.94" cy="697.37" r="2.97"/><circle cx="737.66" cy="668.23" r="2.97"/><circle cx="740.38" cy="662.41" r="2.97"/><circle cx="743.1" cy="656.58" r="2.97"/><circle cx="745.82" cy="662.41" r="2.97"/><circle cx="748.53" cy="650.75" r="2.97"/><circle cx="751.25" cy="627.44" r="2.97"/><circle cx="753.97" cy="639.09" r="2.97"/><circle cx="756.69" cy="627.44" r="2.97"/><circle cx="759.4" cy="639.09" r="2.97"/><circle cx="762.12" cy="621.61" r="2.97"/><circle cx="764.84" cy="650.75" r="2.97"/><circle cx="767.56" cy="662.41" r="2.97"/><circle cx="770.28" cy="615.78" r="2.97"/><circle cx="772.99" cy="674.06" r="2.97"/><circle cx="778.43" cy="592.47" r="2.97"/><circle cx="781.15" cy="592.47" r="2.97"/><circle cx="783.87" cy="592.47" r="2.97"/><circle cx="786.58" cy="609.95" r="2.97"/><circle cx="789.3" cy="569.16" r="2.97"/><circle cx="792.02" cy="540.02" r="2.97"/><circle cx="794.74" cy="580.81" r="2.97"/><circle cx="797.45" cy="598.3" r="2.97"/><circle cx="800.17" cy="691.55" r="2.97"/><circle cx="802.89" cy="691.55" r="2.97"/><circle cx="805.61" cy="703.2" r="2.97"/><circle cx="808.33" cy="697.37" r="2.97"/><circle cx="811.04" cy="674.06" r="2.97"/><circle cx="813.76" cy="656.58" r="2.97"/><circle cx="816.48" cy="644.92" r="2.97"/><circle cx="819.2" cy="650.75" r="2.97"/><circle cx="821.92" cy="644.92" r="2.97"/><circle cx="824.63" cy="668.23" r="2.97"/><circle cx="827.35" cy="644.92" r="2.97"/><circle cx="830.07" cy="633.27" r="2.97"/><circle cx="832.79" cy="627.44" r="2.97"/><circle cx="835.5" cy="621.61" r="2.97"/><circle cx="838.22" cy="662.41" r="2.97"/><circle cx="840.94" cy="691.55" r="2.97"/><circle cx="843.66" cy="668.23" r="2.97"/><circle cx="846.38" cy="679.89" r="2.97"/><circle cx="849.09" cy="685.72" r="2.97"/><circle cx="851.81" cy="650.75" r="2.97"/><circle cx="854.53" cy="691.55" r="2.97"/><circle cx="857.25" cy="662.41" r="2.97"/><circle cx="859.97" cy="650.75" r="2.97"/><circle cx="862.68" cy="685.72" r="2.97"/><circle cx="865.4" cy="639.09" r="2.97"/><circle cx="868.12" cy="679.89" r="2.97"/><circle cx="870.84" cy="662.41" r="2.97"/><circle cx="873.55" cy="551.67" r="2.97"/><circle cx="876.27" cy="691.55" r="2.97"/><circle cx="878.99" cy="615.78" r="2.97"/><circle cx="881.71" cy="633.27" r="2.97"/><circle cx="884.43" cy="563.33" r="2.97"/><circle cx="889.86" cy="574.98" r="2.97"/><circle cx="892.58" cy="639.09" r="2.97"/><circle cx="895.3" cy="656.58" r="2.97"/><circle cx="898.01" cy="662.41" r="2.97"/><circle cx="900.73" cy="551.67" r="2.97"/><circle cx="908.89" cy="475.91" r="2.97"/><circle cx="911.6" cy="557.5" r="2.97"/><circle cx="914.32" cy="609.95" r="2.97"/><circle cx="917.04" cy="557.5" r="2.97"/><circle cx="919.76" cy="505.05" r="2.97"/><circle cx="933.35" cy="621.61" r="2.97"/><circle cx="936.06" cy="615.78" r="2.97"/><circle cx="938.78" cy="644.92" r="2.97"/><circle cx="941.5" cy="674.06" r="2.97"/><circle cx="944.22" cy="615.78" r="2.97"/><circle cx="946.94" cy="569.16" r="2.97"/><circle cx="955.09" cy="679.89" r="2.97"/><circle cx="957.81" cy="633.27" r="2.97"/><circle cx="960.53" cy="592.47" r="2.97"/><circle cx="963.24" cy="534.19" r="2.97"/><circle cx="965.96" cy="522.53" r="2.97"/><circle cx="976.83" cy="592.47" r="2.97"/><circle cx="979.55" cy="522.53" r="2.97"/><circle cx="984.99" cy="499.22" r="2.97"/><circle cx="987.7" cy="545.84" r="2.97"/><circle cx="990.42" cy="563.33" r="2.97"/><circle cx="993.14" cy="615.78" r="2.97"/><circle cx="995.86" cy="668.23" r="2.97"/><circle cx="998.58" cy="644.92" r="2.97"/><circle cx="1001.29" cy="639.09" r="2.97"/><circle cx="1004.01" cy="627.44" r="2.97"/><circle cx="1006.73" cy="563.33" r="2.97"/><circle cx="1012.16" cy="481.74" r="2.97"/><circle cx="1025.75" cy="475.91" r="2.97"/><circle cx="1031.19" cy="487.56" r="2.97"/><circle cx="1033.91" cy="545.84" r="2.97"/><circle cx="1039.34" cy="569.16" r="2.97"/><circle cx="1042.06" cy="534.19" r="2.97"/><circle cx="1044.78" cy="534.19" r="2.97"/><circle cx="1050.21" cy="481.74" r="2.97"/><circle cx="1052.93" cy="551.67" r="2.97"/><circle class="cls-4" cx="949.65" cy="440.94" r="2.97"/><circle class="cls-4" cx="952.37" cy="446.77" r="2.97"/><circle class="cls-4" cx="115.28" cy="423.45" r="2.97"/><circle class="cls-4" cx="117.99" cy="376.83" r="2.97"/><circle class="cls-4" cx="150.61" cy="365.17" r="2.97"/><circle class="cls-4" cx="153.33" cy="318.55" r="2.97"/><circle class="cls-4" cx="156.04" cy="371" r="2.97"/><circle class="cls-4" cx="158.76" cy="382.66" r="2.97"/><circle class="cls-4" cx="161.48" cy="440.94" r="2.97"/><circle class="cls-4" cx="169.63" cy="330.21" r="2.97"/><circle class="cls-4" cx="172.35" cy="365.17" r="2.97"/><circle class="cls-4" cx="175.07" cy="122.38" r="2.97"/><circle class="cls-4" cx="177.79" cy="446.77" r="2.97"/><circle class="cls-4" cx="185.94" cy="446.77" r="2.97"/><circle class="cls-4" cx="357.16" cy="405.97" r="2.97"/><circle class="cls-4" cx="362.6" cy="464.25" r="2.97"/><circle class="cls-4" cx="887.14" cy="452.6" r="2.97"/><circle class="cls-4" cx="903.45" cy="470.08" r="2.97"/><circle class="cls-4" cx="906.17" cy="440.94" r="2.97"/><circle class="cls-4" cx="922.48" cy="400.14" r="2.97"/><circle class="cls-4" cx="925.19" cy="400.14" r="2.97"/><circle class="cls-4" cx="927.91" cy="464.25" r="2.97"/><circle class="cls-4" cx="930.63" cy="394.31" r="2.97"/><circle class="cls-4" cx="968.68" cy="371" r="2.97"/><circle class="cls-4" cx="971.4" cy="128.21" r="2.97"/><circle class="cls-4" cx="974.11" cy="423.45" r="2.97"/><circle class="cls-4" cx="982.27" cy="470.08" r="2.97"/><circle class="cls-4" cx="1009.45" cy="435.11" r="2.97"/><circle class="cls-4" cx="1014.88" cy="470.08" r="2.97"/><circle class="cls-4" cx="1017.6" cy="435.11" r="2.97"/><circle class="cls-4" cx="1020.32" cy="400.14" r="2.97"/><circle class="cls-4" cx="1023.04" cy="429.28" r="2.97"/><circle class="cls-4" cx="1028.47" cy="429.28" r="2.97"/><circle class="cls-4" cx="1036.62" cy="458.42" r="2.97"/><circle class="cls-4" cx="1047.5" cy="446.77" r="2.97"/><circle class="cls-4" cx="1055.65" cy="446.77" r="2.97"/><circle cx="1058.37" cy="540.02" r="2.97"/><circle cx="1063.8" cy="586.64" r="2.97"/><circle cx="1066.52" cy="598.3" r="2.97"/><circle cx="1069.24" cy="633.27" r="2.97"/><circle cx="1071.96" cy="586.64" r="2.97"/><circle cx="1074.67" cy="609.95" r="2.97"/><circle cx="1077.39" cy="516.7" r="2.97"/><circle cx="1080.11" cy="621.61" r="2.97"/><circle cx="1082.83" cy="609.95" r="2.97"/><circle cx="1085.55" cy="598.3" r="2.97"/><circle cx="1088.26" cy="563.33" r="2.97"/><path d="M289.69,180.36c0,1.06.91,1.78,2.38,1.78s2.44-.64,2.44-1.72c0-2.53-6.32-.52-6.32-4.52,0-1.76,1.51-3,3.9-3s3.83,1.12,3.83,2.93h-1.65c0-1-.94-1.62-2.18-1.62s-2.22.54-2.22,1.56c0,2.52,6.37.48,6.37,4.55,0,1.89-1.52,3.17-4.17,3.17s-4.05-1.22-4.05-3.09Z"/><path d="M299.72,186.55h-1.61V176h1.55v1.08h.06a2.51,2.51,0,0,1,2.41-1.26c1.83,0,3.24,1.34,3.24,3.75s-1.5,3.86-3.36,3.86a2.35,2.35,0,0,1-2.29-1.26h-.06c.06.95.06,1.95.06,2.44Zm2-9.42c-1.1,0-1.95.88-2,2.4v.12c0,1.59.86,2.51,2,2.51s2-1,2-2.57S302.86,177.13,301.71,177.13Z"/><path d="M310.22,175.84a3.22,3.22,0,0,1,3.4,3.54v.53h-5.34c.08,1.42.84,2.28,2,2.28a1.56,1.56,0,0,0,1.68-1.12h1.58a3.08,3.08,0,0,1-3.27,2.38c-2.32,0-3.65-1.41-3.65-3.79A3.54,3.54,0,0,1,310.22,175.84Zm-1.87,3H312c-.13-1.21-.74-1.74-1.76-1.74A1.92,1.92,0,0,0,308.35,178.83Z"/><path d="M316.61,184.17c0,.8.77,1.29,1.83,1.29,1.29,0,2.17-.65,2.17-2.56v-.71h-.06a2.51,2.51,0,0,1-2.41,1.26c-1.83,0-3.24-1.34-3.24-3.75s1.5-3.86,3.36-3.86a2.35,2.35,0,0,1,2.29,1.26h.06V176h1.53v6.88c0,2.74-1.57,3.77-3.7,3.77-1.94,0-3.32-.84-3.35-2.5Zm1.93-2c1.15,0,2-.92,2-2.51v-.12c-.05-1.52-.88-2.4-2-2.4s-2,1-2,2.57S317.41,182.16,318.54,182.16Z"/><path d="M324.33,176h1.55v1h.06a2.31,2.31,0,0,1,2.24-1.23c1.45,0,2.73.77,2.73,3v4.4H329.3v-4.19c0-1.44-.61-1.93-1.55-1.93s-1.81.87-1.81,2.33v3.79h-1.61Z"/><path d="M332.92,172.38h1.72V174h-1.72ZM333,176h1.6v7.25H333Z"/><path d="M336.77,176h1.55v1h.06a2.58,2.58,0,0,1,4.51.21,2.47,2.47,0,0,1,2.44-1.44c1.41,0,2.57.77,2.57,2.94v4.49h-1.61V179c0-1.36-.47-1.83-1.4-1.83s-1.75.86-1.75,2.3v3.82h-1.61V179c0-1.36-.52-1.83-1.4-1.83s-1.75.86-1.75,2.32v3.8h-1.61Z"/><path d="M353.05,175.84a3.21,3.21,0,0,1,3.39,3.54v.53H351.1c.09,1.42.85,2.28,2,2.28a1.57,1.57,0,0,0,1.68-1.12h1.58a3.09,3.09,0,0,1-3.28,2.38c-2.32,0-3.64-1.41-3.64-3.79A3.54,3.54,0,0,1,353.05,175.84Zm-1.87,3h3.63c-.14-1.21-.75-1.74-1.76-1.74A1.92,1.92,0,0,0,351.18,178.83Z"/><path d="M358.06,176h1.55v1h.06a2.32,2.32,0,0,1,2.25-1.23c1.44,0,2.72.77,2.72,3v4.4H363v-4.19c0-1.44-.61-1.93-1.54-1.93s-1.82.87-1.82,2.33v3.79h-1.61Z"/><path d="M366.86,177.26h-1.37V176h1.37v-2.21h1.61V176h1.86v1.24h-1.86v3.6c0,.78.26,1.08,1,1.08h.85v1.33h-1.12c-1.67,0-2.35-.69-2.35-2.32Z"/><path d="M375,175.84a3.49,3.49,0,0,1,3.7,3.81,3.54,3.54,0,0,1-3.7,3.8,3.5,3.5,0,0,1-3.71-3.8A3.56,3.56,0,0,1,375,175.84Zm0,6.32c1.22,0,2-1,2-2.51s-.82-2.52-2-2.52-2,1-2,2.52S373.75,182.16,375,182.16Z"/><path d="M288.32,194.62h1.55v1h0a2,2,0,0,1,1.92-1.23,1.69,1.69,0,0,1,1,.29l-.41,1.43a2,2,0,0,0-.9-.24c-1.08,0-1.6,1.06-1.6,2.33v3.63h-1.61Z"/><path d="M293.87,191h1.73v1.64h-1.73Zm.06,3.64h1.61v7.26h-1.61Z"/><path d="M298.72,199.79c0,.81.82,1.13,1.61,1.13,1.11,0,1.67-.38,1.67-1s-.38-.76-1.11-.88l-1.33-.24c-1.12-.18-2.19-.62-2.19-2s1.32-2.32,3-2.32,3,.68,3,2.2h-1.5c0-.72-.64-1.07-1.51-1.07s-1.48.35-1.48,1,.34.75,1.2.9l1.34.22c1.14.19,2.14.64,2.14,2,0,1.6-1.34,2.38-3.27,2.38s-3.14-.74-3.14-2.26Z"/><path d="M308.39,194.44a3,3,0,0,1,3.31,2.66h-1.6a1.59,1.59,0,0,0-1.71-1.37c-1.13,0-1.95,1-1.95,2.52s.82,2.51,1.95,2.51a1.57,1.57,0,0,0,1.71-1.37h1.6a3,3,0,0,1-3.31,2.66c-2.23,0-3.61-1.42-3.61-3.8A3.52,3.52,0,0,1,308.39,194.44Z"/><path d="M315.37,197.8l1.42-.24c.71-.12.93-.21.93-.49a1.27,1.27,0,0,0-1.42-1.43,1.36,1.36,0,0,0-1.54,1.28h-1.53c.09-1.5,1.25-2.48,3.07-2.48,2,0,3,1,3,2.66v4.78H317.8V201h-.08a2.58,2.58,0,0,1-2.32,1.08c-1.59,0-2.45-.81-2.45-2S313.66,198.08,315.37,197.8Zm2.35.43a1.19,1.19,0,0,1-.74.34l-1.25.21c-.85.13-1.18.51-1.18,1.07s.42,1,1.24,1a1.82,1.82,0,0,0,1.93-1.95Z"/><path d="M321.41,191H323v10.9h-1.61Z"/><path d="M328.07,194.44a2.35,2.35,0,0,1,2.29,1.26h.06c-.08-.95-.08-1.95-.08-2.44V191H332v10.9h-1.53v-1.09h-.06a2.51,2.51,0,0,1-2.41,1.26c-1.83,0-3.25-1.33-3.25-3.74S326.21,194.44,328.07,194.44Zm.28,6.32c1.14,0,2-.92,2-2.51s-.85-2.52-2-2.52-2,1-2,2.58S327.22,200.76,328.35,200.76Z"/><path d="M336.15,197.8l1.41-.24c.71-.12.94-.21.94-.49a1.28,1.28,0,0,0-1.43-1.43,1.35,1.35,0,0,0-1.53,1.28H334c.09-1.5,1.25-2.48,3.07-2.48,2,0,3,1,3,2.66v4.78h-1.53V201h-.07a2.6,2.6,0,0,1-2.32,1.08c-1.6,0-2.46-.81-2.46-2S334.44,198.08,336.15,197.8Zm2.35.43a1.22,1.22,0,0,1-.75.34l-1.25.21c-.85.13-1.17.51-1.17,1.07s.41,1,1.23,1a1.83,1.83,0,0,0,1.94-1.95Z"/><path d="M342.19,194.62h1.54v1h.06a2.3,2.3,0,0,1,2.21-1.23,2.27,2.27,0,0,1,2.3,1.44,2.49,2.49,0,0,1,2.44-1.44c1.42,0,2.58.77,2.58,2.94v4.5h-1.61v-4.3c0-1.36-.48-1.83-1.4-1.83s-1.75.86-1.75,2.3v3.83H347v-4.3c0-1.36-.52-1.83-1.4-1.83s-1.76.86-1.76,2.32v3.81h-1.6Z"/><path d="M358.47,194.44a3.21,3.21,0,0,1,3.39,3.54v.53h-5.34c.09,1.42.85,2.28,2,2.28a1.57,1.57,0,0,0,1.68-1.12h1.57a3.07,3.07,0,0,1-3.27,2.38c-2.32,0-3.64-1.41-3.64-3.79A3.54,3.54,0,0,1,358.47,194.44Zm-1.88,3h3.63c-.13-1.21-.74-1.74-1.75-1.74A1.93,1.93,0,0,0,356.59,197.43Z"/><path d="M363.48,194.62H365v1h.06a2.31,2.31,0,0,1,2.24-1.23c1.45,0,2.73.77,2.73,3v4.41h-1.61v-4.2c0-1.44-.61-1.93-1.55-1.93s-1.81.87-1.81,2.33v3.8h-1.61Z"/><path d="M372.28,195.86h-1.37v-1.24h1.37v-2.21h1.6v2.21h1.86v1.24h-1.86v3.61c0,.77.27,1.07,1,1.07h.85v1.34h-1.11c-1.67,0-2.35-.7-2.35-2.33Z"/><path d="M377.13,191h1.72v1.64h-1.72Zm.06,3.64h1.6v7.26h-1.6Z"/><path d="M890.31,173h2l3.81,10.23h-1.77l-.88-2.48h-4.37l-.88,2.48h-1.7Zm.94,1.67-1.67,4.68H893l-1.65-4.68Z"/><path d="M900.59,175.84a3,3,0,0,1,3.31,2.66h-1.6a1.59,1.59,0,0,0-1.71-1.37c-1.13,0-2,1-2,2.52s.82,2.51,2,2.51a1.58,1.58,0,0,0,1.71-1.37h1.6a3,3,0,0,1-3.31,2.66c-2.23,0-3.61-1.43-3.61-3.8A3.5,3.5,0,0,1,900.59,175.84Z"/><path d="M908.7,175.84a3,3,0,0,1,3.3,2.66h-1.59a1.59,1.59,0,0,0-1.71-1.37c-1.13,0-2,1-2,2.52s.82,2.51,2,2.51a1.58,1.58,0,0,0,1.71-1.37H912a3,3,0,0,1-3.3,2.66c-2.23,0-3.61-1.43-3.61-3.8A3.5,3.5,0,0,1,908.7,175.84Z"/><path d="M916.8,175.84a3.21,3.21,0,0,1,3.39,3.54v.53h-5.34c.09,1.42.85,2.28,2,2.28a1.57,1.57,0,0,0,1.68-1.12h1.57a3.07,3.07,0,0,1-3.27,2.38c-2.32,0-3.64-1.41-3.64-3.79A3.54,3.54,0,0,1,916.8,175.84Zm-1.88,3h3.63c-.13-1.21-.74-1.74-1.75-1.74A1.93,1.93,0,0,0,914.92,178.83Z"/><path d="M921.81,176h1.55v1h.06a2.31,2.31,0,0,1,2.25-1.23c1.44,0,2.72.77,2.72,3v4.4h-1.61v-4.19c0-1.44-.61-1.93-1.55-1.93s-1.81.87-1.81,2.33v3.79h-1.61Z"/><path d="M931.45,181.19c0,.81.82,1.13,1.61,1.13,1.12,0,1.67-.38,1.67-1s-.38-.76-1.1-.88l-1.34-.24c-1.12-.18-2.19-.62-2.19-2s1.32-2.32,3-2.32,3,.68,3,2.2h-1.5c0-.72-.64-1.07-1.5-1.07s-1.49.35-1.49,1c0,.49.34.75,1.2.9l1.34.22c1.15.19,2.14.64,2.14,2,0,1.59-1.34,2.38-3.27,2.38s-3.14-.74-3.14-2.26Z"/><path d="M938,172.38h1.73V174H938ZM938,176h1.61v7.25H938Z"/><path d="M945,175.84a3.49,3.49,0,0,1,3.71,3.81,3.55,3.55,0,0,1-3.71,3.8,3.49,3.49,0,0,1-3.7-3.8A3.55,3.55,0,0,1,945,175.84Zm0,6.32c1.22,0,2-1,2-2.51s-.82-2.52-2-2.52-2,1-2,2.52S943.8,182.16,945,182.16Z"/><path d="M950.41,176H952v1H952a2.32,2.32,0,0,1,2.25-1.23c1.44,0,2.72.77,2.72,3v4.4h-1.61v-4.19c0-1.44-.61-1.93-1.55-1.93S952,178,952,179.48v3.79h-1.61Z"/><path d="M962.14,175.84a3.21,3.21,0,0,1,3.39,3.54v.53h-5.34c.09,1.42.85,2.28,2,2.28a1.57,1.57,0,0,0,1.68-1.12h1.57a3.07,3.07,0,0,1-3.27,2.38c-2.32,0-3.64-1.41-3.64-3.79A3.54,3.54,0,0,1,962.14,175.84Zm-1.88,3h3.63c-.13-1.21-.74-1.74-1.75-1.74A1.93,1.93,0,0,0,960.26,178.83Z"/><path d="M887.44,194.62H889v1h0a2,2,0,0,1,1.92-1.23,1.69,1.69,0,0,1,1,.29l-.42,1.43a2,2,0,0,0-.89-.24c-1.08,0-1.6,1.06-1.6,2.33v3.63h-1.61Z"/><path d="M893,191h1.72v1.64H893Zm.06,3.64h1.61v7.26h-1.61Z"/><path d="M897.84,199.79c0,.81.82,1.13,1.61,1.13,1.11,0,1.66-.38,1.66-1s-.37-.76-1.1-.88l-1.34-.24c-1.11-.18-2.18-.62-2.18-2s1.32-2.32,3-2.32,3,.68,3,2.2H901c0-.72-.64-1.07-1.5-1.07s-1.49.35-1.49,1,.35.75,1.21.9l1.34.22c1.14.19,2.14.64,2.14,2,0,1.6-1.34,2.38-3.27,2.38s-3.14-.74-3.14-2.26Z"/><path d="M907.51,194.44a3,3,0,0,1,3.3,2.66h-1.59a1.59,1.59,0,0,0-1.71-1.37c-1.13,0-2,1-2,2.52s.82,2.51,2,2.51a1.58,1.58,0,0,0,1.71-1.37h1.59a3,3,0,0,1-3.3,2.66c-2.23,0-3.61-1.42-3.61-3.8A3.51,3.51,0,0,1,907.51,194.44Z"/><path d="M914.49,197.8l1.41-.24c.72-.12.94-.21.94-.49a1.27,1.27,0,0,0-1.43-1.43,1.36,1.36,0,0,0-1.53,1.28h-1.53c.09-1.5,1.25-2.48,3.06-2.48,2,0,3,1,3,2.66v4.78h-1.53V201h-.08a2.58,2.58,0,0,1-2.32,1.08c-1.59,0-2.45-.81-2.45-2S912.78,198.08,914.49,197.8Zm2.35.43a1.19,1.19,0,0,1-.74.34l-1.25.21c-.85.13-1.18.51-1.18,1.07s.42,1,1.24,1a1.83,1.83,0,0,0,1.93-1.95Z"/><path d="M920.53,191h1.61v10.9h-1.61Z"/><path d="M927.18,194.44a2.35,2.35,0,0,1,2.29,1.26h.06c-.07-.95-.07-1.95-.07-2.44V191h1.61v10.9h-1.54v-1.09h-.06a2.49,2.49,0,0,1-2.41,1.26c-1.83,0-3.24-1.33-3.24-3.74S925.32,194.44,927.18,194.44Zm.29,6.32c1.14,0,2-.92,2-2.51s-.85-2.52-2-2.52-2,1-2,2.58S926.34,200.76,927.47,200.76Z"/><path d="M935.26,197.8l1.42-.24c.71-.12.93-.21.93-.49a1.27,1.27,0,0,0-1.42-1.43,1.36,1.36,0,0,0-1.54,1.28h-1.53c.09-1.5,1.25-2.48,3.07-2.48,2,0,3,1,3,2.66v4.78h-1.53V201h-.08a2.58,2.58,0,0,1-2.32,1.08c-1.59,0-2.45-.81-2.45-2S933.55,198.08,935.26,197.8Zm2.35.43a1.17,1.17,0,0,1-.74.34l-1.25.21c-.85.13-1.17.51-1.17,1.07s.41,1,1.23,1a1.82,1.82,0,0,0,1.93-1.95Z"/><path d="M941.3,194.62h1.55v1h.06a2.58,2.58,0,0,1,4.51.21,2.49,2.49,0,0,1,2.44-1.44c1.41,0,2.57.77,2.57,2.94v4.5h-1.6v-4.3c0-1.36-.48-1.83-1.4-1.83s-1.76.86-1.76,2.3v3.83h-1.6v-4.3c0-1.36-.53-1.83-1.4-1.83s-1.76.86-1.76,2.32v3.81H941.3Z"/><path d="M957.58,194.44A3.22,3.22,0,0,1,961,198v.53h-5.35c.09,1.42.85,2.28,2,2.28a1.56,1.56,0,0,0,1.68-1.12h1.58a3.08,3.08,0,0,1-3.27,2.38c-2.32,0-3.65-1.41-3.65-3.79A3.54,3.54,0,0,1,957.58,194.44Zm-1.87,3h3.63c-.13-1.21-.74-1.74-1.76-1.74A1.92,1.92,0,0,0,955.71,197.43Z"/><path d="M962.6,194.62h1.55v1h.06a2.31,2.31,0,0,1,2.24-1.23c1.45,0,2.72.77,2.72,3v4.41h-1.6v-4.2c0-1.44-.61-1.93-1.55-1.93s-1.81.87-1.81,2.33v3.8H962.6Z"/><path d="M971.39,195.86H970v-1.24h1.37v-2.21H973v2.21h1.86v1.24H973v3.61c0,.77.27,1.07,1,1.07h.85v1.34h-1.12c-1.66,0-2.35-.7-2.35-2.33Z"/><path d="M976.24,191H978v1.64h-1.73Zm.06,3.64h1.61v7.26H976.3Z"/><path class="cls-2" d="M180.5,101.91a.31.31,0,0,1-.3-.3V73.36a.3.3,0,0,1,.3-.3.29.29,0,0,1,.3.3v28.25A.3.3,0,0,1,180.5,101.91Z"/><path class="cls-2" d="M180.5,149.53a.29.29,0,0,1-.29-.3v-6a.3.3,0,1,1,.59,0v6A.29.29,0,0,1,180.5,149.53Z"/><path class="cls-2" d="M180.5,134.41a.29.29,0,0,1-.29-.3V125a.3.3,0,1,1,.59,0v9.12A.29.29,0,0,1,180.5,134.41Z"/><path class="cls-2" d="M180.5,116.17a.29.29,0,0,1-.29-.3v-6a.3.3,0,1,1,.59,0v6A.29.29,0,0,1,180.5,116.17Z"/><path class="cls-2" d="M259.32,101.91a.31.31,0,0,1-.3-.3V73.36a.3.3,0,0,1,.3-.3.29.29,0,0,1,.3.3v28.25A.3.3,0,0,1,259.32,101.91Z"/><path class="cls-2" d="M259.32,149.53a.3.3,0,0,1-.3-.3v-6a.31.31,0,0,1,.3-.3.3.3,0,0,1,.3.3v6A.29.29,0,0,1,259.32,149.53Z"/><path class="cls-2" d="M259.32,134.41a.3.3,0,0,1-.3-.3V125a.3.3,0,0,1,.3-.3.29.29,0,0,1,.3.3v9.12A.29.29,0,0,1,259.32,134.41Z"/><path class="cls-2" d="M259.32,116.17a.3.3,0,0,1-.3-.3v-6a.3.3,0,0,1,.3-.3.29.29,0,0,1,.3.3v6A.29.29,0,0,1,259.32,116.17Z"/><path class="cls-2" d="M343.58,101.91a.3.3,0,0,1-.3-.3V73.36a.29.29,0,0,1,.3-.3.3.3,0,0,1,.3.3v28.25A.31.31,0,0,1,343.58,101.91Z"/><path class="cls-2" d="M343.58,149.53a.29.29,0,0,1-.3-.3v-6a.3.3,0,0,1,.3-.3.31.31,0,0,1,.3.3v6A.3.3,0,0,1,343.58,149.53Z"/><path class="cls-2" d="M343.58,134.41a.29.29,0,0,1-.3-.3V125a.29.29,0,0,1,.3-.3.3.3,0,0,1,.3.3v9.12A.3.3,0,0,1,343.58,134.41Z"/><path class="cls-2" d="M343.58,116.17a.29.29,0,0,1-.3-.3v-6a.29.29,0,0,1,.3-.3.3.3,0,0,1,.3.3v6A.3.3,0,0,1,343.58,116.17Z"/><path class="cls-2" d="M425.11,101.91a.3.3,0,0,1-.3-.3V73.36a.3.3,0,0,1,.6,0v28.25A.3.3,0,0,1,425.11,101.91Z"/><path class="cls-2" d="M425.11,149.53a.29.29,0,0,1-.3-.3v-6a.3.3,0,1,1,.6,0v6A.29.29,0,0,1,425.11,149.53Z"/><path class="cls-2" d="M425.11,134.41a.29.29,0,0,1-.3-.3V125a.3.3,0,0,1,.6,0v9.12A.29.29,0,0,1,425.11,134.41Z"/><path class="cls-2" d="M425.11,116.17a.29.29,0,0,1-.3-.3v-6a.3.3,0,0,1,.6,0v6A.29.29,0,0,1,425.11,116.17Z"/><path class="cls-2" d="M509.36,101.91a.31.31,0,0,1-.3-.3V73.36a.3.3,0,0,1,.3-.3.29.29,0,0,1,.3.3v28.25A.3.3,0,0,1,509.36,101.91Z"/><path class="cls-2" d="M509.36,149.53a.3.3,0,0,1-.3-.3v-6a.31.31,0,0,1,.3-.3.3.3,0,0,1,.3.3v6A.29.29,0,0,1,509.36,149.53Z"/><path class="cls-2" d="M509.36,134.41a.3.3,0,0,1-.3-.3V125a.3.3,0,0,1,.3-.3.29.29,0,0,1,.3.3v9.12A.29.29,0,0,1,509.36,134.41Z"/><path class="cls-2" d="M509.36,116.17a.3.3,0,0,1-.3-.3v-6a.3.3,0,0,1,.3-.3.29.29,0,0,1,.3.3v6A.29.29,0,0,1,509.36,116.17Z"/><path class="cls-2" d="M590.9,101.91a.3.3,0,0,1-.3-.3V73.36a.29.29,0,0,1,.3-.3.3.3,0,0,1,.3.3v28.25A.31.31,0,0,1,590.9,101.91Z"/><path class="cls-2" d="M590.9,149.53a.29.29,0,0,1-.3-.3v-6a.3.3,0,0,1,.3-.3.31.31,0,0,1,.3.3v6A.3.3,0,0,1,590.9,149.53Z"/><path class="cls-2" d="M590.9,134.41a.29.29,0,0,1-.3-.3V125a.29.29,0,0,1,.3-.3.3.3,0,0,1,.3.3v9.12A.3.3,0,0,1,590.9,134.41Z"/><path class="cls-2" d="M590.9,116.17a.29.29,0,0,1-.3-.3v-6a.29.29,0,0,1,.3-.3.3.3,0,0,1,.3.3v6A.3.3,0,0,1,590.9,116.17Z"/><path class="cls-2" d="M675.15,101.91a.31.31,0,0,1-.3-.3V73.36a.3.3,0,0,1,.3-.3.29.29,0,0,1,.3.3v28.25A.3.3,0,0,1,675.15,101.91Z"/><path class="cls-2" d="M675.15,149.53a.3.3,0,0,1-.3-.3v-6a.31.31,0,0,1,.3-.3.3.3,0,0,1,.3.3v6A.29.29,0,0,1,675.15,149.53Z"/><path class="cls-2" d="M675.15,134.41a.3.3,0,0,1-.3-.3V125a.3.3,0,0,1,.3-.3.29.29,0,0,1,.3.3v9.12A.29.29,0,0,1,675.15,134.41Z"/><path class="cls-2" d="M675.15,116.17a.3.3,0,0,1-.3-.3v-6a.3.3,0,0,1,.3-.3.29.29,0,0,1,.3.3v6A.29.29,0,0,1,675.15,116.17Z"/><path class="cls-2" d="M759.4,101.91a.31.31,0,0,1-.3-.3V73.36a.3.3,0,0,1,.3-.3.29.29,0,0,1,.3.3v28.25A.3.3,0,0,1,759.4,101.91Z"/><path class="cls-2" d="M759.4,149.53a.3.3,0,0,1-.3-.3v-6a.31.31,0,0,1,.3-.3.3.3,0,0,1,.3.3v6A.29.29,0,0,1,759.4,149.53Z"/><path class="cls-2" d="M759.4,134.41a.3.3,0,0,1-.3-.3V125a.3.3,0,0,1,.3-.3.29.29,0,0,1,.3.3v9.12A.29.29,0,0,1,759.4,134.41Z"/><path class="cls-2" d="M759.4,116.17a.3.3,0,0,1-.3-.3v-6a.3.3,0,0,1,.3-.3.29.29,0,0,1,.3.3v6A.29.29,0,0,1,759.4,116.17Z"/><path class="cls-2" d="M840.94,101.91a.3.3,0,0,1-.3-.3V73.36a.3.3,0,1,1,.6,0v28.25A.3.3,0,0,1,840.94,101.91Z"/><path class="cls-2" d="M840.94,149.53a.29.29,0,0,1-.3-.3v-6a.3.3,0,1,1,.6,0v6A.29.29,0,0,1,840.94,149.53Z"/><path class="cls-2" d="M840.94,134.41a.29.29,0,0,1-.3-.3V125a.3.3,0,1,1,.6,0v9.12A.29.29,0,0,1,840.94,134.41Z"/><path class="cls-2" d="M840.94,116.17a.29.29,0,0,1-.3-.3v-6a.3.3,0,0,1,.6,0v6A.29.29,0,0,1,840.94,116.17Z"/><path class="cls-2" d="M925.19,101.91a.31.31,0,0,1-.3-.3V73.36a.3.3,0,0,1,.3-.3.29.29,0,0,1,.3.3v28.25A.3.3,0,0,1,925.19,101.91Z"/><path class="cls-2" d="M925.19,149.53a.3.3,0,0,1-.3-.3v-6a.31.31,0,0,1,.3-.3.3.3,0,0,1,.3.3v6A.29.29,0,0,1,925.19,149.53Z"/><path class="cls-2" d="M925.19,134.41a.3.3,0,0,1-.3-.3V125a.3.3,0,0,1,.3-.3.29.29,0,0,1,.3.3v9.12A.29.29,0,0,1,925.19,134.41Z"/><path class="cls-2" d="M925.19,116.17a.3.3,0,0,1-.3-.3v-6a.3.3,0,0,1,.3-.3.29.29,0,0,1,.3.3v6A.29.29,0,0,1,925.19,116.17Z"/><path class="cls-2" d="M1006.73,101.91a.3.3,0,0,1-.3-.3V73.36a.29.29,0,0,1,.3-.3.3.3,0,0,1,.3.3v28.25A.31.31,0,0,1,1006.73,101.91Z"/><path class="cls-2" d="M1006.73,149.53a.29.29,0,0,1-.3-.3v-6a.3.3,0,0,1,.3-.3.31.31,0,0,1,.3.3v6A.3.3,0,0,1,1006.73,149.53Z"/><path class="cls-2" d="M1006.73,134.41a.29.29,0,0,1-.3-.3V125a.29.29,0,0,1,.3-.3.3.3,0,0,1,.3.3v9.12A.3.3,0,0,1,1006.73,134.41Z"/><path class="cls-2" d="M1006.73,116.17a.29.29,0,0,1-.3-.3v-6a.29.29,0,0,1,.3-.3.3.3,0,0,1,.3.3v6A.3.3,0,0,1,1006.73,116.17Z"/><path d="M42.79,50.85v1.42H41.15V39.1h1.64v5.28c0,1.93.74,2.6,2.08,2.6s2.38-1.26,2.38-3.2V39.1h1.64v9.07H47.33V46.84h-.08A2.79,2.79,0,0,1,44.5,48.4a3.23,3.23,0,0,1-1.82-.52h-.12A20.43,20.43,0,0,1,42.79,50.85Z"/><path d="M52.83,49.29c0,1.12,1,1.79,2.46,1.79,1.6,0,2.9-.8,2.9-3.35v-1h-.08a3.17,3.17,0,0,1-3,1.64c-2.3,0-4-1.71-4-4.69s1.86-4.84,4.16-4.84a3,3,0,0,1,2.9,1.64h.08V39.1h1.56v8.63c0,3.44-2,4.69-4.46,4.69-2.27,0-4-1.08-4-3.13ZM55.44,47c1.48,0,2.67-1.19,2.67-3.34s-1.19-3.35-2.67-3.35-2.68,1.26-2.68,3.42S54,47,55.44,47Z"/><path d="M67,35.15h1.42L62.73,48.4H61.31Z"/><path d="M68.68,39.1h1.56v1.34h.08a2.87,2.87,0,0,1,2.75-1.57,2.8,2.8,0,0,1,2.83,1.85,3,3,0,0,1,3-1.85c1.71,0,3.12,1,3.12,3.65v5.65H80.44V42.74c0-1.78-.6-2.45-1.86-2.45s-2.39,1.21-2.39,3.16v4.72H74.56V42.74c0-1.78-.67-2.45-1.86-2.45s-2.38,1.21-2.38,3.18v4.7H68.68Z"/><path d="M84.77,39.72a1.46,1.46,0,0,0,1.61,1.57c.93,0,1.6-.5,1.6-1.38a1.45,1.45,0,0,0-1.6-1.38h-.57v-.82h.57a1.29,1.29,0,0,0,1.34-1.3,1.22,1.22,0,0,0-1.34-1.2A1.25,1.25,0,0,0,85,36.56h-.87a2.06,2.06,0,0,1,2.22-2.17,2,2,0,0,1,2.25,2,1.89,1.89,0,0,1-1.08,1.67v0A1.91,1.91,0,0,1,88.94,40c0,1.34-1.14,2.13-2.56,2.13a2.24,2.24,0,0,1-2.52-2.39Z"/></g><g id="info_1"><g class="cls-5"><circle class="cls-4" cx="971.4" cy="128.21" r="10.4"/></g></g></svg>