<?xml version="1.0" encoding="utf-8"?>
<!-- Generator: Adobe Illustrator 24.0.1, SVG Export Plug-In . SVG Version: 6.00 Build 0)  -->
<svg version="1.1" id="Layer_1" xmlns="http://www.w3.org/2000/svg" xmlns:xlink="http://www.w3.org/1999/xlink" x="0px" y="0px"
	 viewBox="0 0 1125 1815" style="enable-background:new 0 0 1125 1815;" xml:space="preserve">
<style type="text/css">
	.st0{fill:#B6B6B6;}
	.st1{enable-background:new    ;}
	.st2{fill:#EFEFEF;}
	.st3{fill:#B8B8B8;}
	.st4{fill:#FE5000;}
	.st5{fill:none;stroke:#FFFFFF;stroke-width:1.757;stroke-miterlimit:10;}
	.st6{fill:none;}
	.st7{font-family:'KareliaWeb-Outtakes';}
	.st8{font-size:57px;}
	.st9{fill:#A2A2A2;}
</style>
<g>
	<g>
		<path class="st0" d="M159.8,1454.9c0-4.1,1.4-7.3,4.9-7.3c3.5,0,4.9,3.2,4.9,7.3c0,4.1-1.4,7.3-4.9,7.3
			C161.2,1462.2,159.8,1459,159.8,1454.9z M167.7,1454.9c0-3.6-1-5.6-3-5.6c-2,0-3,2-3,5.6c0,3.6,1,5.6,3,5.6
			C166.7,1460.5,167.7,1458.5,167.7,1454.9z"/>
	</g>
	<g>
		<path class="st0" d="M234,1451l4.5-3.1l1.4,0l0,12.5l3.4,0l0,1.5l-8.8,0l0-1.5l3.6,0l0-10.2l-3.3,2.3L234,1451z"/>
		<path class="st0" d="M245.3,1454.9c0-4.1,1.4-7.3,4.9-7.3c3.5,0,4.9,3.2,4.9,7.3c0,4.1-1.4,7.3-4.9,7.3
			C246.7,1462.2,245.3,1459,245.3,1454.9z M253.2,1454.9c0-3.6-1-5.6-3-5.6c-2,0-3,2-3,5.6s1,5.6,3,5.6
			C252.2,1460.5,253.2,1458.5,253.2,1454.9L253.2,1454.9z"/>
	</g>
	<g>
		<path class="st0" d="M317.3,1455.9l1.5-1.1c1.4-1,2.4-1.5,2.4-3.2c0-1.3-1-2.4-2.3-2.5c-0.1,0-0.2,0-0.3,0c-1.8,0-2.7,1-2.9,2.9
			l-1.7,0c-0.1-2.3,1.6-4.3,3.9-4.4c0.2,0,0.4,0,0.6,0c2.2-0.2,4.1,1.3,4.4,3.5c0,0.2,0,0.3,0,0.5c0,2.4-1.6,3.4-3,4.3l-1.4,1
			c-2.1,1.4-2.4,2.5-2.5,3.4l7.3,0l0,1.5l-9.3,0C313.7,1459.5,315.1,1457.1,317.3,1455.9z"/>
		<path class="st0" d="M325.2,1454.9c0-4.1,1.4-7.3,4.9-7.3c3.5,0,4.9,3.2,4.9,7.3c0,4.1-1.4,7.3-4.9,7.3
			C326.6,1462.2,325.2,1459,325.2,1454.9z M333.1,1454.9c0-3.6-1-5.6-3-5.6c-2,0-3,2-3,5.6c0,3.6,1,5.6,3,5.6
			C332.2,1460.6,333.1,1458.5,333.1,1454.9L333.1,1454.9z"/>
	</g>
	<g>
		<path class="st0" d="M395.3,1457.7c-0.1,1.5,1,2.8,2.5,2.9c0.2,0,0.4,0,0.6,0c1.7,0,3-0.9,3-2.6c-0.1-1.5-1.4-2.7-2.9-2.6
			c0,0-0.1,0-0.1,0l-1.1,0l0-1.5l1.1,0c1.3,0.1,2.5-1,2.5-2.3c0,0,0-0.1,0-0.1c0-1.3-1-2.3-2.3-2.3c-0.1,0-0.2,0-0.2,0
			c-1.3-0.1-2.4,0.9-2.5,2.1c0,0.1,0,0.3,0,0.4l-1.6,0c-0.1-2.1,1.5-4,3.7-4.1c0.2,0,0.3,0,0.5,0c2.1-0.2,4,1.3,4.2,3.4
			c0,0.1,0,0.2,0,0.3c0,1.3-0.8,2.6-2,3.1l0,0.1c1.6,0.4,2.6,1.9,2.6,3.5c0,2.5-2.1,4-4.8,4c-2.3,0.3-4.4-1.3-4.7-3.6
			c0-0.3,0-0.6,0-0.9L395.3,1457.7z"/>
		<path class="st0" d="M405.1,1454.9c0-4.1,1.4-7.3,4.9-7.3c3.5,0,4.9,3.2,4.9,7.3c0,4.1-1.4,7.3-4.9,7.3
			C406.5,1462.2,405.1,1459,405.1,1454.9z M413,1454.9c0-3.6-1-5.6-3-5.6c-2,0-3,2-3,5.6c0,3.6,1,5.6,3,5.6
			C412.1,1460.6,413,1458.5,413,1454.9L413,1454.9z"/>
	</g>
	<g>
		<path class="st0" d="M473.3,1457.1l6.8-9.2l1.5,0l0,9l2,0l0,1.6l-2,0l0,3.5l-1.8,0l0-3.5l-6.5,0L473.3,1457.1z M479.7,1456.9
			l0-6.2l-4.6,6.2L479.7,1456.9z"/>
		<path class="st0" d="M485.2,1454.9c0-4.1,1.4-7.3,4.9-7.3c3.5,0,4.9,3.2,4.9,7.3c0,4.1-1.4,7.3-4.9,7.3
			C486.6,1462.2,485.2,1459,485.2,1454.9z M493.1,1454.9c0-3.6-1-5.6-3-5.6c-2,0-3,2-3,5.6c0,3.6,1,5.6,3,5.6
			C492.1,1460.5,493,1458.5,493.1,1454.9L493.1,1454.9z"/>
	</g>
	<g>
		<path class="st0" d="M555.1,1458.2c0.2,1.5,1.5,2.5,3,2.4c1.7,0,3.1-1.4,3.1-3.1c0-1.7-1.4-3.1-3.1-3.1c-1.1,0-2.1,0.5-2.7,1.4
			l-1.7-0.1l0.4-7.9l7.9,0l0,1.7l-6.2,0l-0.3,4.4l0.1,0c0.7-0.7,1.7-1,2.7-1c2.4-0.1,4.4,1.7,4.6,4.1c0,0.1,0,0.3,0,0.4
			c0.1,2.5-1.9,4.6-4.4,4.7c-0.2,0-0.3,0-0.5,0c-2.4,0.3-4.5-1.4-4.8-3.8c0-0.1,0-0.1,0-0.2L555.1,1458.2z"/>
		<path class="st0" d="M564.9,1454.9c0-4.1,1.4-7.3,4.9-7.3c3.5,0,4.9,3.2,4.9,7.3c0,4.1-1.4,7.3-4.9,7.3
			C566.3,1462.2,564.9,1459,564.9,1454.9z M572.8,1454.9c0-3.6-1-5.6-3-5.6c-2,0-3,2-3,5.6s1,5.6,3,5.6
			C571.8,1460.5,572.8,1458.5,572.8,1454.9L572.8,1454.9z"/>
	</g>
	<g>
		<path class="st0" d="M638.5,1447.7c2.1-0.2,4,1.3,4.2,3.5c0,0.1,0,0.2,0,0.3l-1.7,0c0-1.2-1.1-2.2-2.3-2.2c0,0-0.1,0-0.1,0
			c-1.7,0-3.4,1.5-3.4,5.6c0.8-1.2,2.1-1.9,3.6-1.9c2.3,0,4.3,1.8,4.3,4.2c0,0.1,0,0.3,0,0.4c0.1,2.5-1.9,4.6-4.4,4.6
			c-0.1,0-0.2,0-0.3,0c-2.8,0-5.1-1.7-5.1-6.9C633.2,1449.6,635.8,1447.7,638.5,1447.7z M635.3,1457.6c-0.1,1.6,1.2,3,2.8,3.1
			c0.1,0,0.1,0,0.2,0c1.7,0,3.1-1.3,3.1-3c0-1.7-1.3-3.1-3-3.1c-1.7,0-3,1.3-3.1,2.9C635.3,1457.5,635.3,1457.5,635.3,1457.6
			L635.3,1457.6z"/>
		<path class="st0" d="M644.7,1454.9c0-4.1,1.4-7.3,4.9-7.3c3.5,0,4.9,3.2,4.9,7.3c0,4.1-1.4,7.3-4.9,7.3
			C646.1,1462.2,644.7,1459,644.7,1454.9z M652.7,1454.9c0-3.6-1-5.6-3-5.6c-2,0-3,2-3,5.6c0,3.6,1,5.6,3,5.6
			C651.7,1460.6,652.6,1458.5,652.7,1454.9L652.7,1454.9z"/>
	</g>
	<g>
		<path class="st0" d="M720.8,1449.5l-7.7,0l0-1.7l9.6,0l0,1.3l-5.9,12.7l-1.9,0L720.8,1449.5z"/>
		<path class="st0" d="M724.6,1454.9c0-4.1,1.4-7.3,4.9-7.3c3.5,0,4.9,3.2,4.9,7.3c0,4.1-1.4,7.3-4.9,7.3
			C726,1462.2,724.6,1459,724.6,1454.9z M732.5,1454.9c0-3.6-1-5.6-3-5.6c-2,0-3,2-3,5.6c0,3.6,1,5.6,3,5.6
			C731.5,1460.5,732.4,1458.5,732.5,1454.9L732.5,1454.9z"/>
	</g>
	<g>
		<path class="st0" d="M795.6,1454.7L795.6,1454.7c-1.2-0.5-2-1.8-2-3.1c0-2.1,1.7-3.9,3.8-3.9c0.1,0,0.3,0,0.4,0
			c2.1-0.2,4,1.3,4.3,3.4c0,0.1,0,0.3,0,0.4c0,1.4-0.8,2.6-2,3.1l0,0c1.6,0.4,2.6,1.9,2.6,3.5c0,2.5-2,4-4.9,4c-2.9,0-4.9-1.5-4.9-4
			C792.9,1456.5,794,1455.1,795.6,1454.7z M797.8,1460.7c1.8,0,3.1-0.9,3.1-2.6c-0.1-1.5-1.4-2.7-2.9-2.6c-0.1,0-0.1,0-0.2,0
			c-1.5-0.2-2.9,0.9-3.1,2.4c0,0.1,0,0.1,0,0.2C794.7,1459.7,796.1,1460.6,797.8,1460.7L797.8,1460.7z M800.4,1451.5
			c0-1.3-1.1-2.4-2.4-2.4c-0.1,0-0.2,0-0.2,0c-1.3-0.1-2.5,0.8-2.6,2.2c0,0.1,0,0.1,0,0.2c0.2,1.4,1.5,2.5,2.9,2.3
			C799.3,1453.7,800.3,1452.7,800.4,1451.5L800.4,1451.5z"/>
		<path class="st0" d="M804.6,1454.9c0-4.1,1.4-7.3,4.9-7.3c3.5,0,4.9,3.2,4.9,7.3c0,4.1-1.4,7.3-4.9,7.3
			C806,1462.2,804.6,1459,804.6,1454.9z M812.5,1454.9c0-3.6-1-5.6-3-5.6c-2,0-3,2-3,5.6c0,3.6,1,5.6,3,5.6
			C811.5,1460.6,812.4,1458.5,812.5,1454.9L812.5,1454.9z"/>
	</g>
	<g>
		<path class="st0" d="M877.4,1462.2c-2.2,0.2-4.2-1.4-4.4-3.6c0,0,0-0.1,0-0.1l1.8,0c0.2,1.3,1.3,2.3,2.6,2.2
			c1.9,0,3.2-1.4,3.3-5.6c-0.8,1.2-2.2,1.9-3.6,1.8c-2.3,0.1-4.3-1.7-4.4-4c0-0.2,0-0.4,0-0.5c-0.1-2.5,1.9-4.6,4.4-4.7
			c0.1,0,0.2,0,0.3,0c2.8,0,5.1,1.7,5.1,6.9C882.5,1460.3,880.3,1462.2,877.4,1462.2z M880.4,1452.3c0-1.6-1.3-3-3-3
			c-1.6,0-3,1.3-3,3c-0.1,1.6,1.2,2.9,2.7,3c0,0,0.1,0,0.1,0c1.7,0.1,3-1.2,3.1-2.9C880.4,1452.4,880.4,1452.3,880.4,1452.3z"/>
		<path class="st0" d="M884.5,1454.9c0-4.1,1.4-7.3,4.9-7.3c3.5,0,4.9,3.2,4.9,7.3c0,4.1-1.4,7.3-4.9,7.3
			C885.9,1462.2,884.5,1459,884.5,1454.9z M892.4,1454.9c0-3.6-1-5.6-3-5.6c-2,0-3,2-3,5.6c0,3.6,1,5.6,3,5.6
			C891.4,1460.5,892.3,1458.5,892.4,1454.9L892.4,1454.9z"/>
	</g>
	<g>
		<path class="st0" d="M947,1451l4.5-3.1l1.4,0l0,12.5l3.4,0l0,1.5l-8.8,0l0-1.5l3.6,0l0-10.2l-3.3,2.2L947,1451z"/>
		<path class="st0" d="M958.3,1454.9c0-4.1,1.4-7.3,4.9-7.3c3.5,0,4.9,3.2,4.9,7.3c0,4.1-1.4,7.3-4.9,7.3S958.3,1459,958.3,1454.9z
			 M966.2,1454.9c0-3.6-1-5.6-3-5.6c-2,0-3,2-3,5.6c0,3.6,1,5.6,3,5.6C965.3,1460.5,966.2,1458.5,966.2,1454.9L966.2,1454.9z"/>
		<path class="st0" d="M969.9,1454.9c0-4.1,1.4-7.3,4.9-7.3c3.5,0,4.9,3.2,4.9,7.3c0,4.1-1.4,7.3-4.9,7.3
			C971.3,1462.2,969.9,1459,969.9,1454.9z M977.8,1454.9c0-3.6-1-5.6-3-5.6c-2,0-3,2-3,5.6c0,3.6,1,5.6,3,5.6
			C976.8,1460.5,977.8,1458.5,977.8,1454.9z"/>
	</g>
	<g>
		<path class="st0" d="M927.7,1508.3l0,1.9l-2.2,0l0-18.1l2.2,0l0,7.2c0,2.7,1,3.6,2.9,3.6c1.8,0,3.3-1.7,3.3-4.4l0-6.4l2.2,0
			l0,12.4l-2.1,0l0-1.8h-0.1c-0.7,1.4-2.2,2.3-3.8,2.2c-0.9,0-1.8-0.2-2.5-0.7l-0.2,0C927.6,1505.5,927.7,1506.9,927.7,1508.3z"/>
		<path class="st0" d="M941.2,1505.9c0,1.5,1.4,2.4,3.4,2.4c2,0,4-1.1,4-4.6l0-1.3h-0.1c-0.8,1.5-2.5,2.4-4.2,2.3
			c-3.2,0-5.5-2.3-5.5-6.4c0-4.1,2.5-6.6,5.7-6.6c1.7-0.1,3.2,0.8,4,2.2h0.1l0-2l2.1,0l0,11.9c0,4.7-2.8,6.4-6.1,6.4
			c-3.3,0-5.5-1.5-5.5-4.3L941.2,1505.9z M944.8,1502.8c2,0,3.7-1.7,3.7-4.6c0-2.9-1.7-4.6-3.7-4.6c-2,0-3.7,1.7-3.7,4.7
			C941.1,1501.3,942.8,1502.8,944.8,1502.8z"/>
		<path class="st0" d="M960.7,1486.6l1.9,0l-7.8,18.2l-2,0L960.7,1486.6z"/>
		<path class="st0" d="M963,1492l2.1,0l0,1.8h0.1c0.7-1.4,2.2-2.2,3.8-2.1c1.7-0.2,3.4,0.9,3.9,2.5c0.7-1.7,2.4-2.7,4.2-2.5
			c2.3,0,4.3,1.3,4.3,5l0,7.7l-2.2,0l0-7.4c0-2.4-0.8-3.4-2.5-3.4c-1.7,0-3.3,1.7-3.3,4.3l0,6.5l-2.2,0l0-7.4c0-2.4-0.9-3.4-2.5-3.4
			c-1.6,0-3.3,1.7-3.3,4.4l0,6.4l-2.2,0L963,1492z"/>
		<path class="st0" d="M985,1492.8c-0.1,1.1,0.7,2.1,1.8,2.1c0.1,0,0.3,0,0.4,0c1.3,0,2.2-0.7,2.2-1.9c0-1.1-0.9-2-2-2
			c-0.1,0-0.1,0-0.2,0l-0.8,0l0-1.1l0.8,0c0.9,0.1,1.8-0.6,1.8-1.6c0,0,0-0.1,0-0.1c0-0.9-0.8-1.7-1.7-1.7c0,0-0.1,0-0.1,0
			c-0.9-0.1-1.7,0.7-1.8,1.6c0,0.1,0,0.2,0,0.3l-1.2,0c0.1-1.7,1.6-3,3.3-2.9c1.5,0.1,2.7,1.2,2.9,2.7c0,1-0.6,1.9-1.5,2.3l0,0
			c1.1,0.3,1.9,1.4,1.9,2.5c-0.1,1.7-1.6,3-3.3,2.9c-0.1,0-0.1,0-0.2,0c-1.7,0.2-3.2-0.9-3.5-2.6c0-0.2,0-0.4,0-0.6L985,1492.8z"/>
	</g>
	<g>
		<g class="st1">
			<path d="M147,206.6v9.4h-1.6v-7.5h-5.1v5.9h-1.6v-5.9h-5.7v-1.9H147z"/>
			<path d="M147,218.4v9.5h-1.6v-7.6h-4.5v6.1h-1.6v-6.1h-4.7v7.8h-1.6v-9.7H147z"/>
			<path d="M147,230.9v5.8c0,3.1-1.4,4.5-3.7,4.5c-1.3,0-2.5-0.7-3-2.2h-0.1c-0.3,1.7-1.6,2.8-3.2,2.8c-2.4,0-4.2-1.6-4.2-4.7v-6.2
				H147z M145.3,232.7H141v3.9c0,1.7,1,2.6,2.3,2.6c1.2,0,2-0.7,2-2.6V232.7z M139.3,232.7h-4.8v4.4c0,1.9,1,2.8,2.5,2.8
				c1.3,0,2.3-0.9,2.3-2.8V232.7z"/>
		</g>
	</g>
	<g>
		<g class="st1">
			<path d="M134.9,103.7L134.9,103.7c-1.6-1.1-2.3-2.5-2.3-4.7c0-4,3.1-6.9,7.3-6.9s7.3,2.9,7.3,7c0,3.4-1.9,5.6-4.4,6.2v-2
				c1.5-0.5,2.7-1.8,2.7-4.2c0-3.1-2.4-5-5.6-5c-3.2,0-5.6,2-5.6,4.9c0,2.4,1.4,4.5,3.9,4.5h0.4v-4.4h1.6v6.2h-7.5V104L134.9,103.7z
				"/>
			<path d="M147,108.6v9.5h-1.6v-7.6h-4.5v6.1h-1.6v-6.1h-4.7v7.8h-1.6v-9.7H147z"/>
			<path d="M147,121.2v1.8l-10.9,7.8v0.1l10.9-0.1v1.9h-14.1v-1.8l10.8-7.8V123l-10.8,0.1v-1.9H147z"/>
		</g>
	</g>
	<g>
		<g class="st1">
			<path d="M147,313.9v2.3l-11.6,5.2v0l11.6,5.1v2.3h-14.1v-1.9l11.2,0.2V327l-11.2-4.9v-1.5l10.9-4.9v-0.1l-10.9,0.2v-1.9H147z"/>
			<path d="M147,336.1v2.2l-14.1,5.3v-2l3.7-1.3v-6.2l-3.7-1.3v-1.9L147,336.1z M145,337.2l-6.8-2.5v5L145,337.2L145,337.2z"/>
			<path d="M147,345.7v5.3c0,3.2-1.5,4.9-4.2,4.9c-2.1,0-3.7-1.1-4.2-3.1l-5.7,3.6v-2.1l5.5-3.5v-3.3h-5.5v-1.9H147z M145.3,347.6
				H140v3.5c0,2,1.2,3,2.8,3c1.6,0,2.5-1.1,2.5-3V347.6z"/>
		</g>
	</g>
	<g>
		<g class="st1">
			<path d="M147,435v2.2l-14.1,5.3v-2l3.7-1.3V433l-3.7-1.3v-1.9L147,435z M145,436l-6.8-2.5v5L145,436L145,436z"/>
			<path d="M147,444.5v5.3c0,3.2-1.9,5-4.5,5c-2.6,0-4.7-1.8-4.7-5v-3.4h-4.9v-1.9H147z M145.3,446.4h-5.9v3.5c0,2.1,1.4,3,3,3
				c1.6,0,2.9-1,2.9-3V446.4z"/>
			<path d="M147,457.6v5.3c0,3.2-1.5,4.9-4.2,4.9c-2.1,0-3.7-1.1-4.2-3.1l-5.7,3.6v-2.1l5.5-3.5v-3.3h-5.5v-1.9H147z M145.3,459.5
				H140v3.5c0,2,1.2,3,2.8,3c1.6,0,2.5-1.1,2.5-3V459.5z"/>
		</g>
	</g>
	<g>
		<g class="st1">
			<path d="M147,542.3v2.3l-11.6,5.2v0L147,555v2.3h-14.1v-1.9l11.2,0.2v-0.1l-11.2-4.9v-1.5l10.9-4.9v-0.1l-10.9,0.2v-1.9H147z"/>
			<path d="M147,564.6v2.2l-14.1,5.3v-2l3.7-1.3v-6.2l-3.7-1.3v-1.9L147,564.6z M145,565.6l-6.8-2.5v5L145,565.6L145,565.6z"/>
			<path d="M134.9,584.4L134.9,584.4c-1.6-1.1-2.3-2.5-2.3-4.7c0-4,3.1-6.9,7.3-6.9s7.3,2.9,7.3,7c0,3.4-1.9,5.6-4.4,6.2v-2
				c1.5-0.5,2.7-1.8,2.7-4.2c0-3.1-2.4-5-5.6-5c-3.2,0-5.6,2-5.6,4.9c0,2.4,1.4,4.5,3.9,4.5h0.4v-4.4h1.6v6.2h-7.5v-1.2L134.9,584.4
				z"/>
		</g>
	</g>
	<g>
		<g class="st1">
			<path d="M134.9,673.5L134.9,673.5c-1.6-1.1-2.3-2.5-2.3-4.7c0-4,3.1-6.9,7.3-6.9s7.3,2.9,7.3,7c0,3.4-1.9,5.6-4.4,6.2v-2
				c1.5-0.5,2.7-1.8,2.7-4.2c0-3.1-2.4-5-5.6-5c-3.2,0-5.6,2-5.6,4.9c0,2.4,1.4,4.5,3.9,4.5h0.4v-4.4h1.6v6.2h-7.5v-1.2L134.9,673.5
				z"/>
			<path d="M147,678.4v1.9h-14.1v-1.9H147z"/>
			<path d="M147,683.6v1.9h-8.5c-2.6,0-4.1,1.2-4.1,3.8c0,2.6,1.5,3.8,4.1,3.8h8.5v1.9h-8.5c-4.2,0-5.8-2.3-5.8-5.7
				c0-3.3,1.6-5.7,5.8-5.7H147z"/>
		</g>
	</g>
	<g>
		<g class="st1">
			<path d="M147,774.7v1.9h-12.5v6.9h-1.6v-8.8H147z"/>
			<path d="M147,785.2v1.9h-8.5c-2.6,0-4.1,1.2-4.1,3.8s1.5,3.8,4.1,3.8h8.5v1.9h-8.5c-4.2,0-5.8-2.3-5.8-5.7c0-3.3,1.6-5.7,5.8-5.7
				H147z"/>
			<path d="M134.9,810.7L134.9,810.7c-1.6-1.1-2.3-2.5-2.3-4.7c0-4,3.1-6.9,7.3-6.9s7.3,2.9,7.3,7c0,3.4-1.9,5.6-4.4,6.2v-2
				c1.5-0.5,2.7-1.8,2.7-4.2c0-3.1-2.4-5-5.6-5c-3.2,0-5.6,2-5.6,4.9c0,2.4,1.4,4.5,3.9,4.5h0.4v-4.4h1.6v6.2h-7.5V811L134.9,810.7z
				"/>
		</g>
	</g>
	<g>
		<g class="st1">
			<path d="M147,893.4v2.2l-14.1,5.3v-2l3.7-1.3v-6.2l-3.7-1.3v-1.9L147,893.4z M145,894.4l-6.8-2.5v5L145,894.4L145,894.4z"/>
			<path d="M134.9,913.2L134.9,913.2c-1.6-1.1-2.3-2.5-2.3-4.7c0-4,3.1-6.9,7.3-6.9s7.3,2.9,7.3,7c0,3.4-1.9,5.6-4.4,6.2v-2
				c1.5-0.5,2.7-1.8,2.7-4.2c0-3.1-2.4-5-5.6-5c-3.2,0-5.6,2-5.6,4.9c0,2.4,1.4,4.5,3.9,4.5h0.4v-4.4h1.6v6.2h-7.5v-1.2L134.9,913.2
				z"/>
			<path d="M147.2,924.1c0,4-3.1,6.9-7.3,6.9s-7.3-2.9-7.3-6.9c0-4.1,3.1-6.9,7.3-6.9S147.2,920,147.2,924.1z M134.3,924.1
				c0,3,2.4,4.9,5.6,4.9c3.2,0,5.6-1.9,5.6-4.9c0-3-2.4-4.9-5.6-4.9C136.7,919.2,134.3,921.1,134.3,924.1z"/>
		</g>
	</g>
	<g>
		<g class="st1">
			<path d="M136.9,1008.7c-1.5,0-2.7,1.3-2.7,3.5c0,2.3,1,3.6,2.6,3.6c3.7,0,0.9-8.8,6.3-8.8c2.4,0,4.1,2.1,4.1,5.2
				c0,3-1.5,5.2-4,5.2v-1.9c1.6,0,2.5-1.4,2.5-3.3c0-1.8-0.8-3.3-2.4-3.3c-3.7,0-0.8,8.9-6.4,8.9c-2.5,0-4.3-2.1-4.3-5.6
				c0-3.4,1.7-5.4,4.3-5.4V1008.7z"/>
			<path d="M147,1020.7v9.5h-1.6v-7.6h-4.5v6.1h-1.6v-6.1h-4.7v7.8h-1.6v-9.7H147z"/>
			<path d="M147,1031.7v11.7h-1.6v-4.9h-12.5v-1.9h12.5v-4.9H147z"/>
		</g>
	</g>
	<g>
		<g class="st1">
			<path d="M147.2,1127.6c0,4-3.1,6.9-7.3,6.9s-7.3-2.9-7.3-6.9c0-4.1,3.1-6.9,7.3-6.9S147.2,1123.4,147.2,1127.6z M134.3,1127.6
				c0,3,2.4,4.9,5.6,4.9c3.2,0,5.6-2,5.6-4.9s-2.4-4.9-5.6-4.9C136.7,1122.6,134.3,1124.6,134.3,1127.6z"/>
			<path d="M147,1134.8v11.7h-1.6v-4.9h-12.5v-1.9h12.5v-4.9H147z"/>
			<path d="M147,1146.9v11.7h-1.6v-4.9h-12.5v-1.9h12.5v-4.9H147z"/>
		</g>
	</g>
	<g>
		<g class="st1">
			<path d="M147,1234.2v1.8l-10.9,7.8v0.1l10.9-0.1v1.9h-14.1v-1.8l10.8-7.8v-0.1l-10.8,0.1v-1.9H147z"/>
			<path d="M147.2,1255.3c0,4-3.1,6.9-7.3,6.9s-7.3-2.9-7.3-6.9c0-4.1,3.1-6.9,7.3-6.9S147.2,1251.2,147.2,1255.3z M134.3,1255.3
				c0,3,2.4,4.9,5.6,4.9c3.2,0,5.6-1.9,5.6-4.9s-2.4-4.9-5.6-4.9C136.7,1250.4,134.3,1252.4,134.3,1255.3z"/>
			<path d="M147,1262.9v2l-12.1,4.2v0.1l12.1,4.2v1.9l-14.1-5.2v-2.1L147,1262.9z"/>
		</g>
	</g>
	<g>
		<g class="st1">
			<path d="M147,1351.2v4.4c0,4.9-2.9,7.4-7.1,7.4s-7.1-2.5-7.1-7.4v-4.4H147z M145.3,1353.1h-10.8v2.5c0,4,2.5,5.4,5.4,5.4
				c2.9,0,5.4-1.5,5.4-5.4V1353.1z"/>
			<path d="M147,1365.7v1.9h-14.1v-1.9H147z"/>
			<path d="M147.2,1377.1c0,3.3-1.9,5.4-4.7,6v-1.9c1.9-0.5,3-1.9,3-4c0-2.9-2.3-4.8-5.6-4.8c-3.2,0-5.6,1.9-5.6,4.8
				c0,2.3,1,3.6,3,4.1v1.9c-2.8-0.6-4.7-2.8-4.7-6.1c0-4,3-6.7,7.3-6.7C144.1,1370.3,147.2,1373.1,147.2,1377.1z"/>
		</g>
	</g>
	<g>
		
			<rect x="379" y="-160.5" transform="matrix(-1.836970e-16 1 -1 -1.836970e-16 831.0339 -324.4007)" class="st2" width="397.4" height="827.6"/>
	</g>
	<g>
		
			<rect x="435.2" y="866.8" transform="matrix(-1.836970e-16 1 -1 -1.836970e-16 1858.3534 702.9104)" class="st2" width="285" height="827.6"/>
	</g>
	<g>
		<path class="st3" d="M163.5,170.8c0-0.2,0.2-0.4,0.4-0.4h827.2c0.2,0,0.4,0.2,0.4,0.4c0,0.2-0.2,0.4-0.4,0.4H163.9
			C163.7,171.2,163.5,171.1,163.5,170.8z"/>
	</g>
	<g>
		<path class="st3" d="M163.5,279.6c0-0.2,0.2-0.4,0.4-0.4h827.2c0.2,0,0.4,0.2,0.4,0.4c0,0.2-0.2,0.4-0.4,0.4H163.9
			C163.7,280,163.5,279.8,163.5,279.6z"/>
	</g>
	<g>
		<path class="st3" d="M163.5,395.8c0-0.2,0.2-0.4,0.4-0.4h827.2c0.2,0,0.4,0.2,0.4,0.4s-0.2,0.4-0.4,0.4H163.9
			C163.7,396.2,163.5,396,163.5,395.8z"/>
	</g>
	<g>
		<path class="st3" d="M163.5,508.3c0-0.2,0.2-0.4,0.4-0.4h827.2c0.2,0,0.4,0.2,0.4,0.4c0,0.2-0.2,0.4-0.4,0.4H163.9
			C163.7,508.7,163.5,508.5,163.5,508.3z"/>
	</g>
	<g>
		<path class="st3" d="M163.5,624.5c0-0.2,0.2-0.4,0.4-0.4h827.2c0.2,0,0.4,0.2,0.4,0.4c0,0.2-0.2,0.4-0.4,0.4H163.9
			C163.7,624.9,163.5,624.7,163.5,624.5z"/>
	</g>
	<g>
		<path class="st3" d="M163.5,737c0-0.2,0.2-0.4,0.4-0.4h827.2c0.2,0,0.4,0.2,0.4,0.4s-0.2,0.4-0.4,0.4H163.9
			C163.7,737.4,163.5,737.2,163.5,737z"/>
	</g>
	<g>
		<path class="st3" d="M163.5,853.2c0-0.2,0.2-0.4,0.4-0.4h827.2c0.2,0,0.4,0.2,0.4,0.4s-0.2,0.4-0.4,0.4H163.9
			C163.7,853.6,163.5,853.4,163.5,853.2z"/>
	</g>
	<g>
		<path class="st3" d="M163.5,969.4c0-0.2,0.2-0.4,0.4-0.4h827.2c0.2,0,0.4,0.2,0.4,0.4c0,0.2-0.2,0.4-0.4,0.4H163.9
			C163.7,969.9,163.5,969.7,163.5,969.4z"/>
	</g>
	<g>
		<path class="st3" d="M163.5,1081.9c0-0.2,0.2-0.4,0.4-0.4h827.2c0.2,0,0.4,0.2,0.4,0.4c0,0.2-0.2,0.4-0.4,0.4H163.9
			C163.7,1082.3,163.5,1082.1,163.5,1081.9z"/>
	</g>
	<g>
		<path class="st3" d="M163.5,1198.2c0-0.2,0.2-0.4,0.4-0.4h827.2c0.2,0,0.4,0.2,0.4,0.4c0,0.2-0.2,0.4-0.4,0.4H163.9
			C163.7,1198.6,163.5,1198.4,163.5,1198.2z"/>
	</g>
	<g>
		<path class="st3" d="M163.5,1310.6c0-0.2,0.2-0.4,0.4-0.4h827.2c0.2,0,0.4,0.2,0.4,0.4c0,0.2-0.2,0.4-0.4,0.4H163.9
			C163.7,1311,163.5,1310.9,163.5,1310.6z"/>
	</g>
	<g>
		<path class="st3" d="M163.5,54.6c0-0.2,0.2-0.4,0.4-0.4h827.2c0.2,0,0.4,0.2,0.4,0.4s-0.2,0.4-0.4,0.4H163.9
			C163.7,55,163.5,54.8,163.5,54.6z"/>
	</g>
	<g>
		<path class="st3" d="M163.5,1423.1c0-0.2,0.2-0.4,0.4-0.4h827.2c0.2,0,0.4,0.2,0.4,0.4c0,0.2-0.2,0.4-0.4,0.4H163.9
			C163.7,1423.5,163.5,1423.3,163.5,1423.1z"/>
	</g>
	<g transform="translate(0,0)">
		<g>
			<circle cx="541.6" cy="54.6" r="4.1"/>
		</g>
	</g>
	<g transform="translate(0,0)">
		<g>
			<circle cx="501.4" cy="58.3" r="4.1"/>
		</g>
	</g>
	<g transform="translate(0,0)">
		<g>
			<circle cx="292.4" cy="62.1" r="4.1"/>
		</g>
	</g>
	<g transform="translate(0,0)">
		<g>
			<circle cx="372.8" cy="65.8" r="4.1"/>
		</g>
	</g>
	<g transform="translate(0,0)">
		<g>
			<circle cx="413" cy="69.6" r="4.1"/>
		</g>
	</g>
	<g transform="translate(0,0)">
		<g>
			<circle cx="396.9" cy="73.3" r="4.1"/>
		</g>
	</g>
	<g transform="translate(0,0)">
		<g>
			<circle cx="396.9" cy="77.1" r="4.1"/>
		</g>
	</g>
	<g transform="translate(0,0)">
		<g>
			<circle cx="356.7" cy="88.3" r="4.1"/>
		</g>
	</g>
	<g transform="translate(0,0)">
		<g>
			<circle cx="268.2" cy="92.1" r="4.1"/>
		</g>
	</g>
	<g transform="translate(0,0)">
		<g>
			<circle cx="332.6" cy="95.8" r="4.1"/>
		</g>
	</g>
	<g transform="translate(0,0)">
		<g>
			<circle cx="316.5" cy="99.6" r="4.1"/>
		</g>
	</g>
	<g transform="translate(0,0)">
		<g>
			<circle cx="372.8" cy="103.3" r="4.1"/>
		</g>
	</g>
	<g transform="translate(0,0)">
		<g>
			<circle cx="332.6" cy="107.1" r="4.1"/>
		</g>
	</g>
	<g transform="translate(0,0)">
		<g>
			<circle cx="421" cy="110.8" r="4.1"/>
		</g>
	</g>
	<g transform="translate(0,0)">
		<g>
			<circle cx="268.2" cy="114.6" r="4.1"/>
		</g>
	</g>
	<g transform="translate(0,0)">
		<g>
			<circle cx="316.5" cy="118.3" r="4.1"/>
		</g>
	</g>
	<g transform="translate(0,0)">
		<g>
			<circle cx="461.2" cy="122.1" r="4.1"/>
		</g>
	</g>
	<g transform="translate(0,0)">
		<g>
			<circle cx="549.6" cy="125.8" r="4.1"/>
		</g>
	</g>
	<g transform="translate(0,0)">
		<g>
			<circle cx="469.2" cy="148.3" r="4.1"/>
		</g>
	</g>
	<g transform="translate(0,0)">
		<g>
			<circle cx="549.6" cy="152.1" r="4.1"/>
		</g>
	</g>
	<g transform="translate(0,0)">
		<g>
			<circle cx="501.4" cy="170.8" r="4.1"/>
		</g>
	</g>
	<g transform="translate(0,0)">
		<g>
			<circle cx="517.5" cy="174.6" r="4.1"/>
		</g>
	</g>
	<g transform="translate(0,0)">
		<g>
			<circle cx="284.3" cy="182.1" r="4.1"/>
		</g>
	</g>
	<g transform="translate(0,0)">
		<g>
			<circle cx="413" cy="185.8" r="4.1"/>
		</g>
	</g>
	<g transform="translate(0,0)">
		<g>
			<circle cx="501.4" cy="189.6" r="4.1"/>
		</g>
	</g>
	<g transform="translate(0,0)">
		<g>
			<circle cx="340.6" cy="193.3" r="4.1"/>
		</g>
	</g>
	<g transform="translate(0,0)">
		<g>
			<circle cx="404.9" cy="197.1" r="4.1"/>
		</g>
	</g>
	<g transform="translate(0,0)">
		<g>
			<circle cx="308.4" cy="200.8" r="4.1"/>
		</g>
	</g>
	<g transform="translate(0,0)">
		<g>
			<circle cx="244.1" cy="204.6" r="4.1"/>
		</g>
	</g>
	<g transform="translate(0,0)">
		<g>
			<circle cx="324.5" cy="208.3" r="4.1"/>
		</g>
	</g>
	<g transform="translate(0,0)">
		<g>
			<circle cx="396.9" cy="212.1" r="4.1"/>
		</g>
	</g>
	<g transform="translate(0,0)">
		<g>
			<circle cx="429" cy="215.8" r="4.1"/>
		</g>
	</g>
	<g transform="translate(0,0)">
		<g>
			<circle cx="501.4" cy="219.6" r="4.1"/>
		</g>
	</g>
	<g transform="translate(0,0)">
		<g>
			<circle cx="372.8" cy="223.3" r="4.1"/>
		</g>
	</g>
	<g transform="translate(0,0)">
		<g>
			<circle cx="276.3" cy="227.1" r="4.1"/>
		</g>
	</g>
	<g transform="translate(0,0)">
		<g>
			<circle cx="284.3" cy="230.8" r="4.1"/>
		</g>
	</g>
	<g transform="translate(0,0)">
		<g>
			<circle cx="356.7" cy="234.6" r="4.1"/>
		</g>
	</g>
	<g transform="translate(0,0)">
		<g>
			<circle cx="533.6" cy="253.3" r="4.1"/>
		</g>
	</g>
	<g transform="translate(0,0)">
		<g>
			<circle cx="437.1" cy="257.1" r="4.1"/>
		</g>
	</g>
	<g transform="translate(0,0)">
		<g>
			<circle cx="364.7" cy="260.8" r="4.1"/>
		</g>
	</g>
	<g transform="translate(0,0)">
		<g>
			<circle cx="453.2" cy="264.6" r="4.1"/>
		</g>
	</g>
	<g transform="translate(0,0)">
		<g>
			<circle cx="308.4" cy="268.3" r="4.1"/>
		</g>
	</g>
	<g transform="translate(0,0)">
		<g>
			<circle cx="372.8" cy="272.1" r="4.1"/>
		</g>
	</g>
	<g transform="translate(0,0)">
		<g>
			<circle cx="260.2" cy="275.8" r="4.1"/>
		</g>
	</g>
	<g transform="translate(0,0)">
		<g>
			<circle cx="388.8" cy="279.6" r="4.1"/>
		</g>
	</g>
	<g transform="translate(0,0)">
		<g>
			<circle cx="268.2" cy="283.3" r="4.1"/>
		</g>
	</g>
	<g transform="translate(0,0)">
		<g>
			<circle cx="220" cy="287.1" r="4.1"/>
		</g>
	</g>
	<g transform="translate(0,0)">
		<g>
			<circle cx="236.1" cy="290.8" r="4.1"/>
		</g>
	</g>
	<g transform="translate(0,0)">
		<g>
			<circle cx="252.2" cy="294.6" r="4.1"/>
		</g>
	</g>
	<g transform="translate(0,0)">
		<g>
			<circle cx="421" cy="298.3" r="4.1"/>
		</g>
	</g>
	<g transform="translate(0,0)">
		<g>
			<circle cx="404.9" cy="302.1" r="4.1"/>
		</g>
	</g>
	<g transform="translate(0,0)">
		<g>
			<circle cx="268.2" cy="305.8" r="4.1"/>
		</g>
	</g>
	<g transform="translate(0,0)">
		<g>
			<circle cx="268.2" cy="309.6" r="4.1"/>
		</g>
	</g>
	<g transform="translate(0,0)">
		<g>
			<circle cx="413" cy="313.3" r="4.1"/>
		</g>
	</g>
	<g transform="translate(0,0)">
		<g>
			<circle cx="372.8" cy="317.1" r="4.1"/>
		</g>
	</g>
	<g transform="translate(0,0)">
		<g>
			<circle cx="453.2" cy="320.8" r="4.1"/>
		</g>
	</g>
	<g transform="translate(0,0)">
		<g>
			<circle cx="340.6" cy="324.5" r="4.1"/>
		</g>
	</g>
	<g transform="translate(0,0)">
		<g>
			<circle cx="348.6" cy="328.3" r="4.1"/>
		</g>
	</g>
	<g transform="translate(0,0)">
		<g>
			<circle cx="348.6" cy="332" r="4.1"/>
		</g>
	</g>
	<g transform="translate(0,0)">
		<g>
			<circle cx="292.4" cy="335.8" r="4.1"/>
		</g>
	</g>
	<g transform="translate(0,0)">
		<g>
			<circle cx="429" cy="339.5" r="4.1"/>
		</g>
	</g>
	<g transform="translate(0,0)">
		<g>
			<circle cx="421" cy="343.3" r="4.1"/>
		</g>
	</g>
	<g transform="translate(0,0)">
		<g>
			<circle cx="308.4" cy="347" r="4.1"/>
		</g>
	</g>
	<g transform="translate(0,0)">
		<g>
			<circle cx="244.1" cy="350.8" r="4.1"/>
		</g>
	</g>
	<g transform="translate(0,0)">
		<g>
			<circle cx="348.6" cy="354.5" r="4.1"/>
		</g>
	</g>
	<g transform="translate(0,0)">
		<g>
			<circle cx="413" cy="358.3" r="4.1"/>
		</g>
	</g>
	<g transform="translate(0,0)">
		<g>
			<circle cx="348.6" cy="362" r="4.1"/>
		</g>
	</g>
	<g transform="translate(0,0)">
		<g>
			<circle cx="316.5" cy="365.8" r="4.1"/>
		</g>
	</g>
	<g transform="translate(0,0)">
		<g>
			<circle cx="380.8" cy="369.5" r="4.1"/>
		</g>
	</g>
	<g transform="translate(0,0)">
		<g>
			<circle cx="429" cy="373.3" r="4.1"/>
		</g>
	</g>
	<g transform="translate(0,0)">
		<g>
			<circle cx="396.9" cy="377" r="4.1"/>
		</g>
	</g>
	<g transform="translate(0,0)">
		<g>
			<circle cx="332.6" cy="380.8" r="4.1"/>
		</g>
	</g>
	<g transform="translate(0,0)">
		<g>
			<circle cx="276.3" cy="384.5" r="4.1"/>
		</g>
	</g>
	<g transform="translate(0,0)">
		<g>
			<circle cx="292.4" cy="388.3" r="4.1"/>
		</g>
	</g>
	<g transform="translate(0,0)">
		<g>
			<circle cx="453.2" cy="392" r="4.1"/>
		</g>
	</g>
	<g transform="translate(0,0)">
		<g>
			<circle cx="541.6" cy="395.8" r="4.1"/>
		</g>
	</g>
	<g transform="translate(0,0)">
		<g>
			<circle cx="493.4" cy="399.5" r="4.1"/>
		</g>
	</g>
	<g transform="translate(0,0)">
		<g>
			<circle cx="429" cy="403.3" r="4.1"/>
		</g>
	</g>
	<g transform="translate(0,0)">
		<g>
			<circle cx="485.3" cy="407" r="4.1"/>
		</g>
	</g>
	<g transform="translate(0,0)">
		<g>
			<circle cx="477.3" cy="410.8" r="4.1"/>
		</g>
	</g>
	<g transform="translate(0,0)">
		<g>
			<circle cx="557.7" cy="418.3" r="4.1"/>
		</g>
	</g>
	<g transform="translate(0,0)">
		<g>
			<circle cx="356.7" cy="425.8" r="4.1"/>
		</g>
	</g>
	<g transform="translate(0,0)">
		<g>
			<circle cx="284.3" cy="429.5" r="4.1"/>
		</g>
	</g>
	<g transform="translate(0,0)">
		<g>
			<circle cx="292.4" cy="433.3" r="4.1"/>
		</g>
	</g>
	<g transform="translate(0,0)">
		<g>
			<circle cx="332.6" cy="437" r="4.1"/>
		</g>
	</g>
	<g transform="translate(0,0)">
		<g>
			<circle cx="388.8" cy="440.8" r="4.1"/>
		</g>
	</g>
	<g transform="translate(0,0)">
		<g>
			<circle cx="292.4" cy="444.5" r="4.1"/>
		</g>
	</g>
	<g transform="translate(0,0)">
		<g>
			<circle cx="292.4" cy="448.3" r="4.1"/>
		</g>
	</g>
	<g transform="translate(0,0)">
		<g>
			<circle cx="292.4" cy="452" r="4.1"/>
		</g>
	</g>
	<g transform="translate(0,0)">
		<g>
			<circle cx="348.6" cy="455.8" r="4.1"/>
		</g>
	</g>
	<g transform="translate(0,0)">
		<g>
			<circle cx="308.4" cy="459.5" r="4.1"/>
		</g>
	</g>
	<g transform="translate(0,0)">
		<g>
			<circle cx="292.4" cy="463.3" r="4.1"/>
		</g>
	</g>
	<g transform="translate(0,0)">
		<g>
			<circle cx="324.5" cy="467" r="4.1"/>
		</g>
	</g>
	<g transform="translate(0,0)">
		<g>
			<circle cx="348.6" cy="470.8" r="4.1"/>
		</g>
	</g>
	<g transform="translate(0,0)">
		<g>
			<circle cx="308.4" cy="474.5" r="4.1"/>
		</g>
	</g>
	<g transform="translate(0,0)">
		<g>
			<circle cx="228" cy="478.3" r="4.1"/>
		</g>
	</g>
	<g transform="translate(0,0)">
		<g>
			<circle cx="203.9" cy="482" r="4.1"/>
		</g>
	</g>
	<g transform="translate(0,0)">
		<g>
			<circle cx="203.9" cy="485.8" r="4.1"/>
		</g>
	</g>
	<g transform="translate(0,0)">
		<g>
			<circle cx="260.2" cy="489.5" r="4.1"/>
		</g>
	</g>
	<g transform="translate(0,0)">
		<g>
			<circle cx="300.4" cy="493.3" r="4.1"/>
		</g>
	</g>
	<g transform="translate(0,0)">
		<g>
			<circle cx="340.6" cy="497" r="4.1"/>
		</g>
	</g>
	<g transform="translate(0,0)">
		<g>
			<circle cx="324.5" cy="500.8" r="4.1"/>
		</g>
	</g>
	<g transform="translate(0,0)">
		<g>
			<circle cx="300.4" cy="504.5" r="4.1"/>
		</g>
	</g>
	<g transform="translate(0,0)">
		<g>
			<circle cx="244.1" cy="508.3" r="4.1"/>
		</g>
	</g>
	<g transform="translate(0,0)">
		<g>
			<circle cx="300.4" cy="512" r="4.1"/>
		</g>
	</g>
	<g transform="translate(0,0)">
		<g>
			<circle cx="236.1" cy="515.8" r="4.1"/>
		</g>
	</g>
	<g transform="translate(0,0)">
		<g>
			<ellipse transform="matrix(0.1602 -0.9871 0.9871 0.1602 -280.7897 709.0034)" cx="276.3" cy="519.5" rx="4.1" ry="4.1"/>
		</g>
	</g>
	<g transform="translate(0,0)">
		<g>
			<circle cx="284.3" cy="523.3" r="4.1"/>
		</g>
	</g>
	<g transform="translate(0,0)">
		<g>
			<circle cx="324.5" cy="527" r="4.1"/>
		</g>
	</g>
	<g transform="translate(0,0)">
		<g>
			<circle cx="292.4" cy="530.8" r="4.1"/>
		</g>
	</g>
	<g transform="translate(0,0)">
		<g>
			<circle cx="284.3" cy="534.5" r="4.1"/>
		</g>
	</g>
	<g transform="translate(0,0)">
		<g>
			<circle cx="332.6" cy="538.3" r="4.1"/>
		</g>
	</g>
	<g transform="translate(0,0)">
		<g>
			<circle cx="421" cy="542" r="4.1"/>
		</g>
	</g>
	<g transform="translate(0,0)">
		<g>
			<circle cx="404.9" cy="545.8" r="4.1"/>
		</g>
	</g>
	<g transform="translate(0,0)">
		<g>
			<circle cx="228" cy="549.5" r="4.1"/>
		</g>
	</g>
	<g transform="translate(0,0)">
		<g>
			<circle cx="252.2" cy="553.3" r="4.1"/>
		</g>
	</g>
	<g transform="translate(0,0)">
		<g>
			<circle cx="268.2" cy="557" r="4.1"/>
		</g>
	</g>
	<g transform="translate(0,0)">
		<g>
			<circle cx="276.3" cy="560.8" r="4.1"/>
		</g>
	</g>
	<g transform="translate(0,0)">
		<g>
			<circle cx="316.5" cy="564.5" r="4.1"/>
		</g>
	</g>
	<g transform="translate(0,0)">
		<g>
			<circle cx="284.3" cy="568.3" r="4.1"/>
		</g>
	</g>
	<g transform="translate(0,0)">
		<g>
			<circle cx="292.4" cy="572" r="4.1"/>
		</g>
	</g>
	<g transform="translate(0,0)">
		<g>
			<circle cx="260.2" cy="575.8" r="4.1"/>
		</g>
	</g>
	<g transform="translate(0,0)">
		<g>
			<circle cx="276.3" cy="579.5" r="4.1"/>
		</g>
	</g>
	<g transform="translate(0,0)">
		<g>
			<circle cx="284.3" cy="583.3" r="4.1"/>
		</g>
	</g>
	<g transform="translate(0,0)">
		<g>
			<circle cx="268.2" cy="587" r="4.1"/>
		</g>
	</g>
	<g transform="translate(0,0)">
		<g>
			<circle cx="236.1" cy="590.8" r="4.1"/>
		</g>
	</g>
	<g transform="translate(0,0)">
		<g>
			<circle cx="228" cy="594.5" r="4.1"/>
		</g>
	</g>
	<g transform="translate(0,0)">
		<g>
			<circle cx="268.2" cy="598.3" r="4.1"/>
		</g>
	</g>
	<g transform="translate(0,0)">
		<g>
			<circle cx="300.4" cy="602" r="4.1"/>
		</g>
	</g>
	<g transform="translate(0,0)">
		<g>
			<circle cx="348.6" cy="605.8" r="4.1"/>
		</g>
	</g>
	<g transform="translate(0,0)">
		<g>
			<circle cx="364.7" cy="609.5" r="4.1"/>
		</g>
	</g>
	<g transform="translate(0,0)">
		<g>
			<circle cx="308.4" cy="613.3" r="4.1"/>
		</g>
	</g>
	<g transform="translate(0,0)">
		<g>
			<circle cx="220" cy="617" r="4.1"/>
		</g>
	</g>
	<g transform="translate(0,0)">
		<g>
			<circle cx="244.1" cy="624.5" r="4.1"/>
		</g>
	</g>
	<g transform="translate(0,0)">
		<g>
			<circle cx="236.1" cy="628.2" r="4.1"/>
		</g>
	</g>
	<g transform="translate(0,0)">
		<g>
			<circle cx="236.1" cy="632" r="4.1"/>
		</g>
	</g>
	<g transform="translate(0,0)">
		<g>
			<circle cx="252.2" cy="635.7" r="4.1"/>
		</g>
	</g>
	<g transform="translate(0,0)">
		<g>
			<circle cx="260.2" cy="639.5" r="4.1"/>
		</g>
	</g>
	<g transform="translate(0,0)">
		<g>
			<circle cx="276.3" cy="643.2" r="4.1"/>
		</g>
	</g>
	<g transform="translate(0,0)">
		<g>
			<circle cx="316.5" cy="647" r="4.1"/>
		</g>
	</g>
	<g transform="translate(0,0)">
		<g>
			<circle cx="308.4" cy="650.7" r="4.1"/>
		</g>
	</g>
	<g transform="translate(0,0)">
		<g>
			<circle cx="252.2" cy="654.5" r="4.1"/>
		</g>
	</g>
	<g transform="translate(0,0)">
		<g>
			<circle cx="308.4" cy="658.2" r="4.1"/>
		</g>
	</g>
	<g transform="translate(0,0)">
		<g>
			<circle cx="236.1" cy="662" r="4.1"/>
		</g>
	</g>
	<g transform="translate(0,0)">
		<g>
			<circle cx="252.2" cy="665.7" r="4.1"/>
		</g>
	</g>
	<g transform="translate(0,0)">
		<g>
			<circle cx="220" cy="669.5" r="4.1"/>
		</g>
	</g>
	<g transform="translate(0,0)">
		<g>
			<circle cx="268.2" cy="673.2" r="4.1"/>
		</g>
	</g>
	<g transform="translate(0,0)">
		<g>
			<circle cx="252.2" cy="677" r="4.1"/>
		</g>
	</g>
	<g transform="translate(0,0)">
		<g>
			<circle cx="340.6" cy="680.7" r="4.1"/>
		</g>
	</g>
	<g transform="translate(0,0)">
		<g>
			<circle cx="260.2" cy="684.5" r="4.1"/>
		</g>
	</g>
	<g transform="translate(0,0)">
		<g>
			<circle cx="268.2" cy="688.2" r="4.1"/>
		</g>
	</g>
	<g transform="translate(0,0)">
		<g>
			<circle cx="252.2" cy="692" r="4.1"/>
		</g>
	</g>
	<g transform="translate(0,0)">
		<g>
			<circle cx="260.2" cy="695.7" r="4.1"/>
		</g>
	</g>
	<g transform="translate(0,0)">
		<g>
			<circle cx="260.2" cy="699.5" r="4.1"/>
		</g>
	</g>
	<g transform="translate(0,0)">
		<g>
			<circle cx="292.4" cy="703.2" r="4.1"/>
		</g>
	</g>
	<g transform="translate(0,0)">
		<g>
			<circle cx="372.8" cy="707" r="4.1"/>
		</g>
	</g>
	<g transform="translate(0,0)">
		<g>
			<circle cx="429" cy="710.7" r="4.1"/>
		</g>
	</g>
	<g transform="translate(0,0)">
		<g>
			
				<ellipse transform="matrix(2.172408e-02 -0.9998 0.9998 2.172408e-02 -349.6597 1071.626)" cx="372.8" cy="714.5" rx="4.1" ry="4.1"/>
		</g>
	</g>
	<g transform="translate(0,0)">
		<g>
			<circle cx="292.4" cy="718.2" r="4.1"/>
		</g>
	</g>
	<g transform="translate(0,0)">
		<g>
			<circle cx="300.4" cy="722" r="4.1"/>
		</g>
	</g>
	<g transform="translate(0,0)">
		<g>
			<circle cx="308.4" cy="725.7" r="4.1"/>
		</g>
	</g>
	<g transform="translate(0,0)">
		<g>
			<ellipse transform="matrix(1 -3.999774e-03 3.999774e-03 1 -2.9152 1.2717)" cx="316.5" cy="729.5" rx="4.1" ry="4.1"/>
		</g>
	</g>
	<g transform="translate(0,0)">
		<g>
			<circle cx="324.5" cy="733.2" r="4.1"/>
		</g>
	</g>
	<g transform="translate(0,0)">
		<g>
			<ellipse transform="matrix(2.732226e-03 -1 1 2.732226e-03 -365.2425 1107.7167)" cx="372.8" cy="737" rx="4.1" ry="4.1"/>
		</g>
	</g>
	<g transform="translate(0,0)">
		<g>
			<ellipse transform="matrix(1 -2.040562e-03 2.040562e-03 1 -1.5108 0.7129)" cx="348.6" cy="740.7" rx="4.1" ry="4.1"/>
		</g>
	</g>
	<g transform="translate(0,0)">
		<g>
			<circle cx="316.5" cy="744.5" r="4.1"/>
		</g>
	</g>
	<g transform="translate(0,0)">
		<g>
			<ellipse transform="matrix(3.936882e-03 -1 1 3.936882e-03 -441.0037 1053.7113)" cx="308.4" cy="748.2" rx="4.1" ry="4.1"/>
		</g>
	</g>
	<g transform="translate(0,0)">
		<g>
			<circle cx="292.4" cy="752" r="4.1"/>
		</g>
	</g>
	<g transform="translate(0,0)">
		<g>
			<circle cx="364.7" cy="755.7" r="4.1"/>
		</g>
	</g>
	<g transform="translate(0,0)">
		<g>
			<circle cx="348.6" cy="759.5" r="4.1"/>
		</g>
	</g>
	<g transform="translate(0,0)">
		<g>
			
				<ellipse transform="matrix(0.9999 -1.723371e-02 1.723371e-02 0.9999 -13.1026 5.983)" cx="340.6" cy="763.2" rx="4.1" ry="4.1"/>
		</g>
	</g>
	<g transform="translate(0,0)">
		<g>
			<circle cx="348.6" cy="767" r="4.1"/>
		</g>
	</g>
	<g transform="translate(0,0)">
		<g>
			<circle cx="348.6" cy="770.7" r="4.1"/>
		</g>
	</g>
	<g transform="translate(0,0)">
		<g>
			<circle cx="364.7" cy="774.5" r="4.1"/>
		</g>
	</g>
	<g transform="translate(0,0)">
		<g>
			<circle cx="324.5" cy="778.2" r="4.1"/>
		</g>
	</g>
	<g transform="translate(0,0)">
		<g>
			<circle cx="300.4" cy="782" r="4.1"/>
		</g>
	</g>
	<g transform="translate(0,0)">
		<g>
			<circle cx="284.3" cy="785.7" r="4.1"/>
		</g>
	</g>
	<g transform="translate(0,0)">
		<g>
			<circle cx="276.3" cy="789.5" r="4.1"/>
		</g>
	</g>
	<g transform="translate(0,0)">
		<g>
			<circle cx="268.2" cy="793.2" r="4.1"/>
		</g>
	</g>
	<g transform="translate(0,0)">
		<g>
			<circle cx="252.2" cy="797" r="4.1"/>
		</g>
	</g>
	<g transform="translate(0,0)">
		<g>
			<circle cx="284.3" cy="800.7" r="4.1"/>
		</g>
	</g>
	<g transform="translate(0,0)">
		<g>
			<circle cx="340.6" cy="804.5" r="4.1"/>
		</g>
	</g>
	<g transform="translate(0,0)">
		<g>
			<circle cx="356.7" cy="808.2" r="4.1"/>
		</g>
	</g>
	<g transform="translate(0,0)">
		<g>
			<circle cx="324.5" cy="812" r="4.1"/>
		</g>
	</g>
	<g transform="translate(0,0)">
		<g>
			<circle cx="340.6" cy="815.7" r="4.1"/>
		</g>
	</g>
	<g transform="translate(0,0)">
		<g>
			<circle cx="348.6" cy="819.5" r="4.1"/>
		</g>
	</g>
	<g transform="translate(0,0)">
		<g>
			<circle cx="308.4" cy="823.2" r="4.1"/>
		</g>
	</g>
	<g transform="translate(0,0)">
		<g>
			<circle cx="332.6" cy="827" r="4.1"/>
		</g>
	</g>
	<g transform="translate(0,0)">
		<g>
			<circle cx="364.7" cy="830.7" r="4.1"/>
		</g>
	</g>
	<g transform="translate(0,0)">
		<g>
			<circle cx="332.6" cy="834.5" r="4.1"/>
		</g>
	</g>
	<g transform="translate(0,0)">
		<g>
			<circle cx="284.3" cy="838.2" r="4.1"/>
		</g>
	</g>
	<g transform="translate(0,0)">
		<g>
			<circle cx="308.4" cy="842" r="4.1"/>
		</g>
	</g>
	<g transform="translate(0,0)">
		<g>
			<circle cx="300.4" cy="845.7" r="4.1"/>
		</g>
	</g>
	<g transform="translate(0,0)">
		<g>
			<circle cx="300.4" cy="849.5" r="4.1"/>
		</g>
	</g>
	<g transform="translate(0,0)">
		<g>
			<circle cx="284.3" cy="853.2" r="4.1"/>
		</g>
	</g>
	<g transform="translate(0,0)">
		<g>
			<circle cx="284.3" cy="857" r="4.1"/>
		</g>
	</g>
	<g transform="translate(0,0)">
		<g>
			<circle cx="300.4" cy="860.7" r="4.1"/>
		</g>
	</g>
	<g transform="translate(0,0)">
		<g>
			<circle cx="300.4" cy="864.5" r="4.1"/>
		</g>
	</g>
	<g transform="translate(0,0)">
		<g>
			<circle cx="292.4" cy="868.2" r="4.1"/>
		</g>
	</g>
	<g transform="translate(0,0)">
		<g>
			<circle cx="252.2" cy="872" r="4.1"/>
		</g>
	</g>
	<g transform="translate(0,0)">
		<g>
			<circle cx="260.2" cy="875.7" r="4.1"/>
		</g>
	</g>
	<g transform="translate(0,0)">
		<g>
			<circle cx="292.4" cy="879.5" r="4.1"/>
		</g>
	</g>
	<g transform="translate(0,0)">
		<g>
			<circle cx="292.4" cy="883.2" r="4.1"/>
		</g>
	</g>
	<g transform="translate(0,0)">
		<g>
			<circle cx="276.3" cy="887" r="4.1"/>
		</g>
	</g>
	<g transform="translate(0,0)">
		<g>
			<circle cx="236.1" cy="890.7" r="4.1"/>
		</g>
	</g>
	<g transform="translate(0,0)">
		<g>
			<circle cx="260.2" cy="894.5" r="4.1"/>
		</g>
	</g>
	<g transform="translate(0,0)">
		<g>
			<circle cx="260.2" cy="898.2" r="4.1"/>
		</g>
	</g>
	<g transform="translate(0,0)">
		<g>
			<circle cx="252.2" cy="902" r="4.1"/>
		</g>
	</g>
	<g transform="translate(0,0)">
		<g>
			<circle cx="228" cy="905.7" r="4.1"/>
		</g>
	</g>
	<g transform="translate(0,0)">
		<g>
			<circle cx="260.2" cy="909.5" r="4.1"/>
		</g>
	</g>
	<g transform="translate(0,0)">
		<g>
			<circle cx="268.2" cy="913.2" r="4.1"/>
		</g>
	</g>
	<g transform="translate(0,0)">
		<g>
			<circle cx="284.3" cy="916.9" r="4.1"/>
		</g>
	</g>
	<g transform="translate(0,0)">
		<g>
			<circle cx="292.4" cy="920.7" r="4.1"/>
		</g>
	</g>
	<g transform="translate(0,0)">
		<g>
			<circle cx="356.7" cy="924.4" r="4.1"/>
		</g>
	</g>
	<g transform="translate(0,0)">
		<g>
			<circle cx="340.6" cy="928.2" r="4.1"/>
		</g>
	</g>
	<g transform="translate(0,0)">
		<g>
			<circle cx="276.3" cy="931.9" r="4.1"/>
		</g>
	</g>
	<g transform="translate(0,0)">
		<g>
			<circle cx="252.2" cy="935.7" r="4.1"/>
		</g>
	</g>
	<g transform="translate(0,0)">
		<g>
			<circle cx="292.4" cy="939.4" r="4.1"/>
		</g>
	</g>
	<g transform="translate(0,0)">
		<g>
			<circle cx="300.4" cy="943.2" r="4.1"/>
		</g>
	</g>
	<g transform="translate(0,0)">
		<g>
			<circle cx="308.4" cy="946.9" r="4.1"/>
		</g>
	</g>
	<g transform="translate(0,0)">
		<g>
			<circle cx="300.4" cy="950.7" r="4.1"/>
		</g>
	</g>
	<g transform="translate(0,0)">
		<g>
			<circle cx="316.5" cy="954.4" r="4.1"/>
		</g>
	</g>
	<g transform="translate(0,0)">
		<g>
			<circle cx="348.6" cy="958.2" r="4.1"/>
		</g>
	</g>
	<g transform="translate(0,0)">
		<g>
			<circle cx="332.6" cy="961.9" r="4.1"/>
		</g>
	</g>
	<g transform="translate(0,0)">
		<g>
			<circle cx="348.6" cy="965.7" r="4.1"/>
		</g>
	</g>
	<g transform="translate(0,0)">
		<g>
			<circle cx="332.6" cy="969.4" r="4.1"/>
		</g>
	</g>
	<g transform="translate(0,0)">
		<g>
			<circle cx="356.7" cy="973.2" r="4.1"/>
		</g>
	</g>
	<g transform="translate(0,0)">
		<g>
			<circle cx="316.5" cy="976.9" r="4.1"/>
		</g>
	</g>
	<g transform="translate(0,0)">
		<g>
			<circle cx="300.4" cy="980.7" r="4.1"/>
		</g>
	</g>
	<g transform="translate(0,0)">
		<g>
			<circle cx="364.7" cy="984.4" r="4.1"/>
		</g>
	</g>
	<g transform="translate(0,0)">
		<g>
			<circle cx="284.3" cy="988.2" r="4.1"/>
		</g>
	</g>
	<g transform="translate(0,0)">
		<g>
			<circle cx="396.9" cy="995.7" r="4.1"/>
		</g>
	</g>
	<g transform="translate(0,0)">
		<g>
			<circle cx="396.9" cy="999.4" r="4.1"/>
		</g>
	</g>
	<g transform="translate(0,0)">
		<g>
			<circle cx="396.9" cy="1003.2" r="4.1"/>
		</g>
	</g>
	<g transform="translate(0,0)">
		<g>
			<circle cx="372.8" cy="1006.9" r="4.1"/>
		</g>
	</g>
	<g transform="translate(0,0)">
		<g>
			<circle cx="429" cy="1010.7" r="4.1"/>
		</g>
	</g>
	<g transform="translate(0,0)">
		<g>
			<circle cx="469.2" cy="1014.4" r="4.1"/>
		</g>
	</g>
	<g transform="translate(0,0)">
		<g>
			<circle cx="413" cy="1018.2" r="4.1"/>
		</g>
	</g>
	<g transform="translate(0,0)">
		<g>
			<circle cx="388.8" cy="1021.9" r="4.1"/>
		</g>
	</g>
	<g transform="translate(0,0)">
		<g>
			<circle cx="260.2" cy="1025.7" r="4.1"/>
		</g>
	</g>
	<g transform="translate(0,0)">
		<g>
			<circle cx="260.2" cy="1029.4" r="4.1"/>
		</g>
	</g>
	<g transform="translate(0,0)">
		<g>
			<circle cx="244.1" cy="1033.2" r="4.1"/>
		</g>
	</g>
	<g transform="translate(0,0)">
		<g>
			<circle cx="252.2" cy="1036.9" r="4.1"/>
		</g>
	</g>
	<g transform="translate(0,0)">
		<g>
			<circle cx="284.3" cy="1040.7" r="4.1"/>
		</g>
	</g>
	<g transform="translate(0,0)">
		<g>
			<circle cx="308.4" cy="1044.4" r="4.1"/>
		</g>
	</g>
	<g transform="translate(0,0)">
		<g>
			<circle cx="324.5" cy="1048.2" r="4.1"/>
		</g>
	</g>
	<g transform="translate(0,0)">
		<g>
			<circle cx="316.5" cy="1051.9" r="4.1"/>
		</g>
	</g>
	<g transform="translate(0,0)">
		<g>
			<circle cx="324.5" cy="1055.7" r="4.1"/>
		</g>
	</g>
	<g transform="translate(0,0)">
		<g>
			<circle cx="292.4" cy="1059.4" r="4.1"/>
		</g>
	</g>
	<g transform="translate(0,0)">
		<g>
			<circle cx="324.5" cy="1063.2" r="4.1"/>
		</g>
	</g>
	<g transform="translate(0,0)">
		<g>
			<circle cx="340.6" cy="1066.9" r="4.1"/>
		</g>
	</g>
	<g transform="translate(0,0)">
		<g>
			<circle cx="348.6" cy="1070.7" r="4.1"/>
		</g>
	</g>
	<g transform="translate(0,0)">
		<g>
			<circle cx="356.7" cy="1074.4" r="4.1"/>
		</g>
	</g>
	<g transform="translate(0,0)">
		<g>
			<circle cx="300.4" cy="1078.2" r="4.1"/>
		</g>
	</g>
	<g transform="translate(0,0)">
		<g>
			<circle cx="260.2" cy="1081.9" r="4.1"/>
		</g>
	</g>
	<g transform="translate(0,0)">
		<g>
			<circle cx="292.4" cy="1085.7" r="4.1"/>
		</g>
	</g>
	<g transform="translate(0,0)">
		<g>
			<circle cx="276.3" cy="1089.4" r="4.1"/>
		</g>
	</g>
	<g transform="translate(0,0)">
		<g>
			<circle cx="268.2" cy="1093.2" r="4.1"/>
		</g>
	</g>
	<g transform="translate(0,0)">
		<g>
			<circle cx="316.5" cy="1096.9" r="4.1"/>
		</g>
	</g>
	<g transform="translate(0,0)">
		<g>
			<circle cx="260.2" cy="1100.7" r="4.1"/>
		</g>
	</g>
	<g transform="translate(0,0)">
		<g>
			<circle cx="300.4" cy="1104.4" r="4.1"/>
		</g>
	</g>
	<g transform="translate(0,0)">
		<g>
			<circle cx="316.5" cy="1108.2" r="4.1"/>
		</g>
	</g>
	<g transform="translate(0,0)">
		<g>
			<circle cx="268.2" cy="1111.9" r="4.1"/>
		</g>
	</g>
	<g transform="translate(0,0)">
		<g>
			<circle cx="332.6" cy="1115.7" r="4.1"/>
		</g>
	</g>
	<g transform="translate(0,0)">
		<g>
			<circle cx="276.3" cy="1119.4" r="4.1"/>
		</g>
	</g>
	<g transform="translate(0,0)">
		<g>
			<circle cx="300.4" cy="1123.2" r="4.1"/>
		</g>
	</g>
	<g transform="translate(0,0)">
		<g>
			<circle cx="453.2" cy="1126.9" r="4.1"/>
		</g>
	</g>
	<g transform="translate(0,0)">
		<g>
			<circle cx="260.2" cy="1130.7" r="4.1"/>
		</g>
	</g>
	<g transform="translate(0,0)">
		<g>
			<circle cx="364.7" cy="1134.4" r="4.1"/>
		</g>
	</g>
	<g transform="translate(0,0)">
		<g>
			<circle cx="340.6" cy="1138.2" r="4.1"/>
		</g>
	</g>
	<g transform="translate(0,0)">
		<g>
			<circle cx="437.1" cy="1141.9" r="4.1"/>
		</g>
	</g>
	<g transform="translate(0,0)">
		<g>
			<circle cx="421" cy="1149.4" r="4.1"/>
		</g>
	</g>
	<g transform="translate(0,0)">
		<g>
			<circle cx="332.6" cy="1153.2" r="4.1"/>
		</g>
	</g>
	<g transform="translate(0,0)">
		<g>
			<circle cx="308.4" cy="1156.9" r="4.1"/>
		</g>
	</g>
	<g transform="translate(0,0)">
		<g>
			<circle cx="300.4" cy="1160.7" r="4.1"/>
		</g>
	</g>
	<g transform="translate(0,0)">
		<g>
			<circle cx="453.2" cy="1164.4" r="4.1"/>
		</g>
	</g>
	<g transform="translate(0,0)">
		<g>
			<circle cx="557.7" cy="1175.7" r="4.1"/>
		</g>
	</g>
	<g transform="translate(0,0)">
		<g>
			<circle cx="445.1" cy="1179.4" r="4.1"/>
		</g>
	</g>
	<g transform="translate(0,0)">
		<g>
			<circle cx="372.8" cy="1183.2" r="4.1"/>
		</g>
	</g>
	<g transform="translate(0,0)">
		<g>
			<circle cx="445.1" cy="1186.9" r="4.1"/>
		</g>
	</g>
	<g transform="translate(0,0)">
		<g>
			<circle cx="517.5" cy="1190.7" r="4.1"/>
		</g>
	</g>
	<g transform="translate(0,0)">
		<g>
			<circle cx="356.7" cy="1209.4" r="4.1"/>
		</g>
	</g>
	<g transform="translate(0,0)">
		<g>
			<circle cx="364.7" cy="1213.1" r="4.1"/>
		</g>
	</g>
	<g transform="translate(0,0)">
		<g>
			<circle cx="324.5" cy="1216.9" r="4.1"/>
		</g>
	</g>
	<g transform="translate(0,0)">
		<g>
			<circle cx="284.3" cy="1220.6" r="4.1"/>
		</g>
	</g>
	<g transform="translate(0,0)">
		<g>
			<circle cx="364.7" cy="1224.4" r="4.1"/>
		</g>
	</g>
	<g transform="translate(0,0)">
		<g>
			<circle cx="429" cy="1228.1" r="4.1"/>
		</g>
	</g>
	<g transform="translate(0,0)">
		<g>
			<circle cx="276.3" cy="1239.4" r="4.1"/>
		</g>
	</g>
	<g transform="translate(0,0)">
		<g>
			<circle cx="340.6" cy="1243.1" r="4.1"/>
		</g>
	</g>
	<g transform="translate(0,0)">
		<g>
			<circle cx="396.9" cy="1246.9" r="4.1"/>
		</g>
	</g>
	<g transform="translate(0,0)">
		<g>
			<circle cx="477.3" cy="1250.6" r="4.1"/>
		</g>
	</g>
	<g transform="translate(0,0)">
		<g>
			<circle cx="493.4" cy="1254.4" r="4.1"/>
		</g>
	</g>
	<g transform="translate(0,0)">
		<g>
			<circle cx="396.9" cy="1269.4" r="4.1"/>
		</g>
	</g>
	<g transform="translate(0,0)">
		<g>
			<circle cx="493.4" cy="1273.1" r="4.1"/>
		</g>
	</g>
	<g transform="translate(0,0)">
		<g>
			<circle cx="525.5" cy="1280.6" r="4.1"/>
		</g>
	</g>
	<g transform="translate(0,0)">
		<g>
			<circle cx="461.2" cy="1284.4" r="4.1"/>
		</g>
	</g>
	<g transform="translate(0,0)">
		<g>
			<circle cx="437.1" cy="1288.1" r="4.1"/>
		</g>
	</g>
	<g transform="translate(0,0)">
		<g>
			<circle cx="364.7" cy="1291.9" r="4.1"/>
		</g>
	</g>
	<g transform="translate(0,0)">
		<g>
			<circle cx="292.4" cy="1295.6" r="4.1"/>
		</g>
	</g>
	<g transform="translate(0,0)">
		<g>
			<circle cx="324.5" cy="1299.4" r="4.1"/>
		</g>
	</g>
	<g transform="translate(0,0)">
		<g>
			<circle cx="332.6" cy="1303.1" r="4.1"/>
		</g>
	</g>
	<g transform="translate(0,0)">
		<g>
			<circle cx="348.6" cy="1306.9" r="4.1"/>
		</g>
	</g>
	<g transform="translate(0,0)">
		<g>
			<circle cx="437.1" cy="1310.6" r="4.1"/>
		</g>
	</g>
	<g transform="translate(0,0)">
		<g>
			<circle cx="549.6" cy="1318.1" r="4.1"/>
		</g>
	</g>
	<g transform="translate(0,0)">
		<g>
			<circle cx="557.7" cy="1336.9" r="4.1"/>
		</g>
	</g>
	<g transform="translate(0,0)">
		<g>
			<circle cx="541.6" cy="1344.4" r="4.1"/>
		</g>
	</g>
	<g transform="translate(0,0)">
		<g>
			<circle cx="461.2" cy="1348.1" r="4.1"/>
		</g>
	</g>
	<g transform="translate(0,0)">
		<g>
			<circle cx="429" cy="1355.6" r="4.1"/>
		</g>
	</g>
	<g transform="translate(0,0)">
		<g>
			<circle cx="477.3" cy="1359.4" r="4.1"/>
		</g>
	</g>
	<g transform="translate(0,0)">
		<g>
			<circle cx="477.3" cy="1363.1" r="4.1"/>
		</g>
	</g>
	<g transform="translate(0,0)">
		<g>
			<circle cx="549.6" cy="1370.6" r="4.1"/>
		</g>
	</g>
	<g transform="translate(0,0)">
		<g>
			<circle cx="453.2" cy="1374.4" r="4.1"/>
		</g>
	</g>
	<g>
		<g transform="translate(0,0)">
			<g>
				<circle class="st4" cx="605.9" cy="1231.9" r="4.1"/>
			</g>
		</g>
		<g transform="translate(0,0)">
			<g>
				<circle class="st4" cx="597.9" cy="1235.6" r="4.1"/>
			</g>
		</g>
		<g>
			<g transform="translate(0,0)">
				<g>
					<circle class="st4" cx="630" cy="80.8" r="4.1"/>
				</g>
			</g>
			<g transform="translate(0,0)">
				<g>
					<circle class="st4" cx="694.4" cy="84.6" r="4.1"/>
				</g>
			</g>
			<g transform="translate(0,0)">
				<g>
					<circle class="st4" cx="710.4" cy="129.6" r="4.1"/>
				</g>
			</g>
			<g transform="translate(0,0)">
				<g>
					<circle class="st4" cx="774.8" cy="133.3" r="4.1"/>
				</g>
			</g>
			<g transform="translate(0,0)">
				<g>
					<circle class="st4" cx="702.4" cy="137.1" r="4.1"/>
				</g>
			</g>
			<g transform="translate(0,0)">
				<g>
					<circle class="st4" cx="686.3" cy="140.8" r="4.1"/>
				</g>
			</g>
			<g transform="translate(0,0)">
				<g>
					<circle class="st4" cx="605.9" cy="144.6" r="4.1"/>
				</g>
			</g>
			<g transform="translate(0,0)">
				<g>
					<circle class="st4" cx="758.7" cy="155.8" r="4.1"/>
				</g>
			</g>
			<g transform="translate(0,0)">
				<g>
					<circle class="st4" cx="710.4" cy="159.6" r="4.1"/>
				</g>
			</g>
			<g transform="translate(0,0)">
				<g>
					<circle class="st4" cx="597.9" cy="167.1" r="4.1"/>
				</g>
			</g>
			<g transform="translate(0,0)">
				<g>
					<circle class="st4" cx="597.9" cy="178.3" r="4.1"/>
				</g>
			</g>
			<g transform="translate(0,0)">
				<g>
					<circle class="st4" cx="654.2" cy="414.5" r="4.1"/>
				</g>
			</g>
			<g transform="translate(0,0)">
				<g>
					<circle class="st4" cx="573.8" cy="422" r="4.1"/>
				</g>
			</g>
			<g transform="translate(0,0)">
				<g>
					<circle class="st4" cx="589.8" cy="1145.7" r="4.1"/>
				</g>
			</g>
			<g transform="translate(0,0)">
				<g>
					<circle class="st4" cx="565.7" cy="1168.2" r="4.1"/>
				</g>
			</g>
			<g transform="translate(0,0)">
				<g>
					<circle class="st4" cx="605.9" cy="1171.9" r="4.1"/>
				</g>
			</g>
			<g transform="translate(0,0)">
				<g>
					<circle class="st4" cx="662.2" cy="1194.4" r="4.1"/>
				</g>
			</g>
			<g transform="translate(0,0)">
				<g>
					<circle class="st4" cx="662.2" cy="1198.2" r="4.1"/>
				</g>
			</g>
			<g transform="translate(0,0)">
				<g>
					<circle class="st4" cx="573.8" cy="1201.9" r="4.1"/>
				</g>
			</g>
			<g transform="translate(0,0)">
				<g>
					<circle class="st4" cx="670.2" cy="1205.6" r="4.1"/>
				</g>
			</g>
			<g transform="translate(0,0)">
				<g>
					<circle class="st4" cx="702.4" cy="1258.1" r="4.1"/>
				</g>
			</g>
			<g transform="translate(0,0)">
				<g>
					<circle class="st4" cx="630" cy="1265.6" r="4.1"/>
				</g>
			</g>
			<g transform="translate(0,0)">
				<g>
					<circle class="st4" cx="565.7" cy="1276.9" r="4.1"/>
				</g>
			</g>
			<g transform="translate(0,0)">
				<g>
					<circle class="st4" cx="614" cy="1314.4" r="4.1"/>
				</g>
			</g>
			<g transform="translate(0,0)">
				<g>
					<circle class="st4" cx="565.7" cy="1321.9" r="4.1"/>
				</g>
			</g>
			<g transform="translate(0,0)">
				<g>
					<circle class="st4" cx="614" cy="1325.6" r="4.1"/>
				</g>
			</g>
			<g transform="translate(0,0)">
				<g>
					<circle class="st4" cx="662.2" cy="1329.4" r="4.1"/>
				</g>
			</g>
			<g transform="translate(0,0)">
				<g>
					<circle class="st4" cx="622" cy="1333.1" r="4.1"/>
				</g>
			</g>
			<g transform="translate(0,0)">
				<g>
					<circle class="st4" cx="622" cy="1340.6" r="4.1"/>
				</g>
			</g>
			<g transform="translate(0,0)">
				<g>
					<circle class="st4" cx="581.8" cy="1351.9" r="4.1"/>
				</g>
			</g>
			<g transform="translate(0,0)">
				<g>
					<circle class="st4" cx="597.9" cy="1366.9" r="4.1"/>
				</g>
			</g>
			<g transform="translate(0,0)">
				<g>
					<circle class="st4" cx="597.9" cy="1378.1" r="4.1"/>
				</g>
			</g>
		</g>
	</g>
	<g transform="translate(0,0)">
		<g>
			<circle cx="469.2" cy="1381.9" r="4.1"/>
		</g>
	</g>
	<g transform="translate(0,0)">
		<g>
			<circle cx="404.9" cy="1389.4" r="4.1"/>
		</g>
	</g>
	<g transform="translate(0,0)">
		<g>
			<circle cx="388.8" cy="1393.1" r="4.1"/>
		</g>
	</g>
	<g transform="translate(0,0)">
		<g>
			<circle cx="340.6" cy="1396.9" r="4.1"/>
		</g>
	</g>
	<g transform="translate(0,0)">
		<g>
			<circle cx="404.9" cy="1400.6" r="4.1"/>
		</g>
	</g>
	<g transform="translate(0,0)">
		<g>
			<circle cx="372.8" cy="1404.4" r="4.1"/>
		</g>
	</g>
	<g transform="translate(0,0)">
		<g>
			<circle cx="501.4" cy="1408.1" r="4.1"/>
		</g>
	</g>
	<g transform="translate(0,0)">
		<g>
			<circle cx="356.7" cy="1411.9" r="4.1"/>
		</g>
	</g>
	<g transform="translate(0,0)">
		<g>
			<circle cx="372.8" cy="1415.6" r="4.1"/>
		</g>
	</g>
	<g transform="translate(0,0)">
		<g>
			<circle cx="388.8" cy="1419.4" r="4.1"/>
		</g>
	</g>
	<g transform="translate(0,0)">
		<g>
			<circle cx="437.1" cy="1423.1" r="4.1"/>
		</g>
	</g>
	<g>
		<circle class="st4" cx="969.3" cy="795.1" r="23.1"/>
		<line class="st5" x1="969.3" y1="779" x2="969.3" y2="811.2"/>
		<line class="st5" x1="985.4" y1="795.1" x2="953.2" y2="795.1"/>
	</g>
</g>
<g>
	<rect x="161.3" y="1578.8" class="st6" width="663.9" height="194.6"/>
	<text transform="matrix(1 0 0 1 161.2578 1619.517)"><tspan x="0" y="0" class="st4 st7 st8">PM10&gt;50ug/m3</tspan><tspan x="0" y="68.4" class="st7 st8">PM10&lt;50ug/m3</tspan><tspan x="0.1" y="136.8" class="st9 st7 st8">riscaldamenti</tspan></text>
	<circle class="st4" cx="104.3" cy="1601.2" r="20"/>
	<circle cx="104.3" cy="1666.2" r="20"/>
	<rect x="86.8" y="1719.7" class="st0" width="35" height="35"/>
</g>
</svg>
