<svg id="Livello_1" data-name="Livello 1" xmlns="http://www.w3.org/2000/svg" viewBox="0 0 1174.99 900"><defs><style>.cls-1,.cls-4,.cls-5,.cls-7,.cls-8{isolation:isolate;}.cls-1,.cls-19,.cls-4,.cls-5,.cls-7,.cls-8{font-size:14.88px;}.cls-1,.cls-11,.cls-12,.cls-27,.cls-4,.cls-5,.cls-7,.cls-8{font-family:Inter-Regular, Inter;}.cls-2,.cls-4{letter-spacing:-0.03em;}.cls-3{letter-spacing:0em;}.cls-5{letter-spacing:-0.03em;}.cls-6{letter-spacing:-0.03em;}.cls-12,.cls-7,.cls-8{fill:#b8b8b8;}.cls-8{letter-spacing:-0.02em;}.cls-9{letter-spacing:0em;}.cls-10{letter-spacing:-0.02em;}.cls-11,.cls-12{font-size:18.6px;}.cls-13{fill:#efefef;}.cls-14,.cls-15,.cls-18,.cls-35{fill:none;stroke-linecap:round;}.cls-14,.cls-15{stroke:#b8b8b8;}.cls-14,.cls-15,.cls-18,.cls-23,.cls-35{stroke-miterlimit:10;}.cls-14,.cls-15,.cls-18{stroke-width:0.6px;}.cls-15{stroke-dasharray:9.12 9.12;}.cls-16{fill:#ff3a00;}.cls-17{fill:#a8f9ff;}.cls-18{stroke:#a8f9ff;}.cls-19{font-family:Inter-Medium, Inter;font-weight:500;}.cls-20{letter-spacing:-0.01em;}.cls-21{letter-spacing:-0.01em;}.cls-22{opacity:0.2;}.cls-23{fill:#fff;fill-opacity:0.7;}.cls-23,.cls-35{stroke:#ff3a00;stroke-width:0.3px;}.cls-24{font-size:9px;font-family:Inter-SemiBold, Inter;font-weight:600;}.cls-25{letter-spacing:-0.02em;}.cls-26{letter-spacing:-0.02em;}.cls-27{font-weight:400;}.cls-28{letter-spacing:-0.02em;}.cls-29{letter-spacing:-0.01em;}.cls-30{letter-spacing:-0.02em;}.cls-31{letter-spacing:0em;}.cls-32{letter-spacing:-0.01em;}.cls-33{letter-spacing:0em;}.cls-34{letter-spacing:0.03em;}</style></defs><text class="cls-1" transform="translate(205.1 783.86)">FEB</text><text class="cls-1" transform="translate(122.79 783.86)">GEN</text><text class="cls-1" transform="translate(282.91 783.86)">MAR</text><text class="cls-1" transform="translate(368.02 783.86)">APR</text><text class="cls-1" transform="translate(448.5 783.86)">M<tspan class="cls-2" x="13.23" y="0">A</tspan><tspan class="cls-3" x="22.79" y="0">G</tspan></text><text class="cls-1" transform="translate(535.82 783.86)">GIU</text><text class="cls-1" transform="translate(616.95 783.86)">LUG</text><text class="cls-4" transform="translate(700.3 783.86)">A<tspan class="cls-3" x="9.55" y="0">GO</tspan></text><text class="cls-1" transform="translate(785.63 783.86)">SET</text><text class="cls-5" transform="translate(868.37 783.86)">O<tspan class="cls-3" x="10.89" y="0">TT</tspan></text><text class="cls-1" transform="translate(950.03 783.86)">N<tspan class="cls-6" x="11.2" y="0">O</tspan><tspan x="22.02" y="0">V</tspan></text><text class="cls-1" transform="translate(1034.86 783.86)">DIC</text><text class="cls-7" transform="translate(67.25 765.92)">0</text><text class="cls-7" transform="translate(60.33 707.63)">10</text><text class="cls-7" transform="translate(58.24 649.35)">20</text><text class="cls-7" transform="translate(57.78 591.07)">30</text><text class="cls-7" transform="translate(57.69 532.79)">40</text><text class="cls-7" transform="translate(58.2 474.51)">50</text><text class="cls-7" transform="translate(57.97 416.23)">60</text><text class="cls-8" transform="translate(58.98 357.94)">7<tspan class="cls-9" x="8.26" y="0">0</tspan></text><text class="cls-7" transform="translate(58.07 299.66)">80</text><text class="cls-7" transform="translate(57.97 241.38)">90</text><text class="cls-7" transform="translate(51.03 183.1)">100</text><text class="cls-7" transform="translate(50.86 91.43)">130</text><text class="cls-1" transform="translate(1106.58 91.43)">130</text><text class="cls-1" transform="translate(1106.58 765.92)">0</text><text class="cls-1" transform="translate(1106.58 707.63)">10</text><text class="cls-1" transform="translate(1106.58 649.35)">20</text><text class="cls-1" transform="translate(1106.58 591.07)">30</text><text class="cls-1" transform="translate(1106.58 532.79)">40</text><text class="cls-1" transform="translate(1106.58 474.51)">50</text><text class="cls-1" transform="translate(1106.58 416.23)">60</text><text class="cls-1" transform="translate(1106.58 357.94)"><tspan class="cls-10">7</tspan><tspan x="8.26" y="0">0</tspan></text><text class="cls-1" transform="translate(1106.58 299.66)">80</text><text class="cls-1" transform="translate(1106.58 241.38)">90</text><text class="cls-1" transform="translate(1106.58 183.1)">100</text><text class="cls-11" transform="translate(1103.11 52.42)">mm</text><text class="cls-12" transform="translate(39.74 48.17)">μg/m</text><text class="cls-12" transform="translate(85.45 41.98) scale(0.58)">3</text><rect class="cls-13" x="96.25" y="73.36" width="288.1" height="687.99"/><rect class="cls-13" x="881.7" y="73.36" width="206.56" height="687.99"/><line class="cls-14" x1="180.5" y1="761.34" x2="180.5" y2="158.08"/><line class="cls-14" x1="259.32" y1="761.34" x2="259.32" y2="158.08"/><line class="cls-14" x1="343.58" y1="761.34" x2="343.58" y2="158.08"/><line class="cls-14" x1="425.11" y1="761.34" x2="425.11" y2="158.08"/><line class="cls-14" x1="509.36" y1="761.34" x2="509.36" y2="158.08"/><line class="cls-14" x1="590.9" y1="761.34" x2="590.9" y2="158.08"/><line class="cls-14" x1="675.15" y1="761.34" x2="675.15" y2="158.08"/><line class="cls-14" x1="759.4" y1="761.34" x2="759.4" y2="158.08"/><line class="cls-14" x1="840.94" y1="761.34" x2="840.94" y2="158.08"/><line class="cls-14" x1="925.19" y1="761.34" x2="925.19" y2="158.08"/><line class="cls-14" x1="1006.73" y1="761.34" x2="1006.73" y2="158.08"/><line class="cls-14" x1="96.25" y1="761.34" x2="96.25" y2="158.08"/><line class="cls-14" x1="1088.26" y1="761.34" x2="1088.26" y2="158.08"/><line class="cls-14" x1="96.27" y1="101.61" x2="96.27" y2="73.36"/><line class="cls-14" x1="180.5" y1="101.61" x2="180.5" y2="73.36"/><line class="cls-14" x1="96.27" y1="149.23" x2="96.27" y2="143.23"/><line class="cls-15" x1="96.27" y1="134.11" x2="96.27" y2="120.43"/><line class="cls-14" x1="96.27" y1="115.87" x2="96.27" y2="109.87"/><line class="cls-14" x1="180.5" y1="149.23" x2="180.5" y2="143.23"/><line class="cls-15" x1="180.5" y1="134.11" x2="180.5" y2="120.43"/><line class="cls-14" x1="180.5" y1="115.87" x2="180.5" y2="109.87"/><line class="cls-14" x1="259.32" y1="101.61" x2="259.32" y2="73.36"/><line class="cls-14" x1="259.32" y1="149.23" x2="259.32" y2="143.23"/><line class="cls-15" x1="259.32" y1="134.11" x2="259.32" y2="120.43"/><line class="cls-14" x1="259.32" y1="115.87" x2="259.32" y2="109.87"/><line class="cls-14" x1="343.58" y1="101.61" x2="343.58" y2="73.36"/><line class="cls-14" x1="343.58" y1="149.23" x2="343.58" y2="143.23"/><line class="cls-15" x1="343.58" y1="134.11" x2="343.58" y2="120.43"/><line class="cls-14" x1="343.58" y1="115.87" x2="343.58" y2="109.87"/><line class="cls-14" x1="425.11" y1="101.61" x2="425.11" y2="73.36"/><line class="cls-14" x1="425.11" y1="149.23" x2="425.11" y2="143.23"/><line class="cls-15" x1="425.11" y1="134.11" x2="425.11" y2="120.43"/><line class="cls-14" x1="425.11" y1="115.87" x2="425.11" y2="109.87"/><line class="cls-14" x1="509.36" y1="101.61" x2="509.36" y2="73.36"/><line class="cls-14" x1="509.36" y1="149.23" x2="509.36" y2="143.23"/><line class="cls-15" x1="509.36" y1="134.11" x2="509.36" y2="120.43"/><line class="cls-14" x1="509.36" y1="115.87" x2="509.36" y2="109.87"/><line class="cls-14" x1="590.9" y1="101.61" x2="590.9" y2="73.36"/><line class="cls-14" x1="590.9" y1="149.23" x2="590.9" y2="143.23"/><line class="cls-15" x1="590.9" y1="134.11" x2="590.9" y2="120.43"/><line class="cls-14" x1="590.9" y1="115.87" x2="590.9" y2="109.87"/><line class="cls-14" x1="675.15" y1="101.61" x2="675.15" y2="73.36"/><line class="cls-14" x1="675.15" y1="149.23" x2="675.15" y2="143.23"/><line class="cls-15" x1="675.15" y1="134.11" x2="675.15" y2="120.43"/><line class="cls-14" x1="675.15" y1="115.87" x2="675.15" y2="109.87"/><line class="cls-14" x1="759.4" y1="101.61" x2="759.4" y2="73.36"/><line class="cls-14" x1="759.41" y1="149.23" x2="759.41" y2="143.23"/><line class="cls-15" x1="759.41" y1="134.11" x2="759.41" y2="120.43"/><line class="cls-14" x1="759.41" y1="115.87" x2="759.41" y2="109.87"/><line class="cls-14" x1="840.94" y1="101.61" x2="840.94" y2="73.36"/><line class="cls-14" x1="840.94" y1="149.23" x2="840.94" y2="143.23"/><line class="cls-15" x1="840.94" y1="134.11" x2="840.94" y2="120.43"/><line class="cls-14" x1="840.94" y1="115.87" x2="840.94" y2="109.87"/><line class="cls-14" x1="925.19" y1="101.61" x2="925.19" y2="73.36"/><line class="cls-14" x1="925.19" y1="149.23" x2="925.19" y2="143.23"/><line class="cls-15" x1="925.19" y1="134.11" x2="925.19" y2="120.43"/><line class="cls-14" x1="925.19" y1="115.87" x2="925.19" y2="109.87"/><line class="cls-14" x1="1006.73" y1="101.61" x2="1006.73" y2="73.36"/><line class="cls-14" x1="1006.73" y1="149.23" x2="1006.73" y2="143.23"/><line class="cls-15" x1="1006.73" y1="134.11" x2="1006.73" y2="120.43"/><line class="cls-14" x1="1006.73" y1="115.87" x2="1006.73" y2="109.87"/><line class="cls-14" x1="1088.26" y1="101.61" x2="1088.26" y2="73.36"/><line class="cls-14" x1="1088.26" y1="149.23" x2="1088.26" y2="143.23"/><line class="cls-15" x1="1088.26" y1="134.11" x2="1088.26" y2="120.43"/><line class="cls-14" x1="1088.26" y1="115.87" x2="1088.26" y2="109.87"/><circle cx="96.25" cy="487.56" r="2.97"/><circle cx="98.97" cy="516.7" r="2.97"/><circle cx="101.69" cy="668.23" r="2.97"/><circle cx="104.41" cy="609.95" r="2.97"/><circle cx="107.12" cy="580.81" r="2.97"/><circle cx="109.84" cy="592.47" r="2.97"/><circle cx="112.56" cy="592.47" r="2.97"/><circle cx="120.71" cy="621.61" r="2.97"/><circle cx="123.43" cy="685.72" r="2.97"/><circle cx="126.15" cy="639.09" r="2.97"/><circle cx="128.87" cy="650.75" r="2.97"/><circle cx="131.58" cy="609.95" r="2.97"/><circle cx="134.3" cy="639.09" r="2.97"/><circle cx="137.02" cy="574.98" r="2.97"/><circle cx="139.74" cy="685.72" r="2.97"/><circle cx="142.45" cy="650.75" r="2.97"/><circle cx="145.17" cy="545.84" r="2.97"/><circle cx="147.89" cy="481.74" r="2.97"/><circle cx="164.2" cy="540.02" r="2.97"/><circle cx="166.92" cy="481.74" r="2.97"/><circle cx="180.5" cy="516.7" r="2.97"/><circle cx="183.22" cy="505.05" r="2.97"/><circle cx="188.66" cy="674.06" r="2.97"/><circle cx="191.38" cy="580.81" r="2.97"/><circle cx="194.09" cy="516.7" r="2.97"/><circle cx="196.81" cy="633.27" r="2.97"/><circle cx="199.53" cy="586.64" r="2.97"/><circle cx="202.25" cy="656.58" r="2.97"/><circle cx="204.97" cy="703.2" r="2.97"/><circle cx="207.68" cy="644.92" r="2.97"/><circle cx="210.4" cy="592.47" r="2.97"/><circle cx="213.12" cy="569.16" r="2.97"/><circle cx="215.84" cy="516.7" r="2.97"/><circle cx="218.55" cy="609.95" r="2.97"/><circle cx="221.27" cy="679.89" r="2.97"/><circle cx="223.99" cy="674.06" r="2.97"/><circle cx="226.71" cy="621.61" r="2.97"/><circle cx="240.3" cy="493.39" r="2.97"/><circle cx="243.01" cy="563.33" r="2.97"/><circle cx="245.73" cy="615.78" r="2.97"/><circle cx="248.45" cy="551.67" r="2.97"/><circle cx="251.17" cy="656.58" r="2.97"/><circle cx="253.89" cy="609.95" r="2.97"/><circle cx="256.6" cy="691.55" r="2.97"/><circle cx="259.32" cy="598.3" r="2.97"/><circle cx="262.04" cy="685.72" r="2.97"/><circle cx="264.76" cy="720.69" r="2.97"/><circle cx="267.48" cy="709.03" r="2.97"/><circle cx="270.19" cy="697.37" r="2.97"/><circle cx="272.91" cy="574.98" r="2.97"/><circle cx="275.63" cy="586.64" r="2.97"/><circle cx="278.35" cy="685.72" r="2.97"/><circle cx="281.06" cy="685.72" r="2.97"/><circle cx="283.78" cy="580.81" r="2.97"/><circle cx="286.5" cy="609.95" r="2.97"/><circle cx="289.22" cy="551.67" r="2.97"/><circle cx="291.94" cy="633.27" r="2.97"/><circle cx="294.65" cy="627.44" r="2.97"/><circle cx="297.37" cy="627.44" r="2.97"/><circle cx="300.09" cy="668.23" r="2.97"/><circle cx="302.81" cy="569.16" r="2.97"/><circle cx="305.53" cy="574.98" r="2.97"/><circle cx="308.24" cy="656.58" r="2.97"/><circle cx="310.96" cy="703.2" r="2.97"/><circle cx="313.68" cy="627.44" r="2.97"/><circle cx="316.4" cy="580.81" r="2.97"/><circle cx="319.11" cy="627.44" r="2.97"/><circle cx="321.83" cy="650.75" r="2.97"/><circle cx="324.55" cy="604.13" r="2.97"/><circle cx="327.27" cy="569.16" r="2.97"/><circle cx="329.99" cy="592.47" r="2.97"/><circle cx="332.7" cy="639.09" r="2.97"/><circle cx="335.42" cy="679.89" r="2.97"/><circle cx="338.14" cy="668.23" r="2.97"/><circle cx="340.86" cy="551.67" r="2.97"/><circle cx="343.58" cy="487.56" r="2.97"/><circle cx="346.29" cy="522.53" r="2.97"/><circle cx="349.01" cy="569.16" r="2.97"/><circle cx="351.73" cy="528.36" r="2.97"/><circle cx="354.45" cy="534.19" r="2.97"/><circle cx="359.88" cy="475.91" r="2.97"/><circle cx="365.32" cy="621.61" r="2.97"/><circle cx="368.04" cy="674.06" r="2.97"/><circle cx="370.75" cy="668.23" r="2.97"/><circle cx="373.47" cy="639.09" r="2.97"/><circle cx="376.19" cy="598.3" r="2.97"/><circle cx="378.91" cy="668.23" r="2.97"/><circle cx="381.62" cy="668.23" r="2.97"/><circle cx="384.34" cy="668.23" r="2.97"/><circle cx="387.06" cy="627.44" r="2.97"/><circle cx="389.78" cy="656.58" r="2.97"/><circle cx="392.5" cy="668.23" r="2.97"/><circle cx="395.21" cy="644.92" r="2.97"/><circle cx="397.93" cy="627.44" r="2.97"/><circle cx="400.65" cy="656.58" r="2.97"/><circle cx="403.37" cy="714.86" r="2.97"/><circle cx="406.09" cy="732.34" r="2.97"/><circle cx="408.8" cy="732.34" r="2.97"/><circle cx="411.52" cy="691.55" r="2.97"/><circle cx="414.24" cy="662.41" r="2.97"/><circle cx="416.96" cy="633.27" r="2.97"/><circle cx="419.67" cy="644.92" r="2.97"/><circle cx="422.39" cy="662.41" r="2.97"/><circle cx="425.11" cy="703.2" r="2.97"/><circle cx="427.83" cy="662.41" r="2.97"/><circle cx="430.55" cy="709.03" r="2.97"/><circle cx="433.26" cy="679.89" r="2.97"/><circle cx="435.98" cy="674.06" r="2.97"/><circle cx="438.7" cy="644.92" r="2.97"/><circle cx="441.42" cy="668.23" r="2.97"/><circle cx="444.14" cy="674.06" r="2.97"/><circle cx="446.85" cy="639.09" r="2.97"/><circle cx="449.57" cy="574.98" r="2.97"/><circle cx="452.29" cy="586.64" r="2.97"/><circle cx="455.01" cy="714.86" r="2.97"/><circle cx="457.72" cy="697.37" r="2.97"/><circle cx="460.44" cy="685.72" r="2.97"/><circle cx="463.16" cy="679.89" r="2.97"/><circle cx="465.88" cy="650.75" r="2.97"/><circle cx="468.6" cy="674.06" r="2.97"/><circle cx="471.31" cy="668.23" r="2.97"/><circle cx="474.03" cy="691.55" r="2.97"/><circle cx="476.75" cy="679.89" r="2.97"/><circle cx="479.47" cy="674.06" r="2.97"/><circle cx="482.19" cy="685.72" r="2.97"/><circle cx="484.9" cy="709.03" r="2.97"/><circle cx="487.62" cy="714.86" r="2.97"/><circle cx="490.34" cy="685.72" r="2.97"/><circle cx="493.06" cy="662.41" r="2.97"/><circle cx="495.77" cy="627.44" r="2.97"/><circle cx="498.49" cy="615.78" r="2.97"/><circle cx="501.21" cy="656.58" r="2.97"/><circle cx="503.93" cy="720.69" r="2.97"/><circle cx="509.36" cy="703.2" r="2.97"/><circle cx="512.08" cy="709.03" r="2.97"/><circle cx="514.8" cy="709.03" r="2.97"/><circle cx="517.52" cy="697.37" r="2.97"/><circle cx="520.23" cy="691.55" r="2.97"/><circle cx="522.95" cy="679.89" r="2.97"/><circle cx="525.67" cy="650.75" r="2.97"/><circle cx="528.39" cy="656.58" r="2.97"/><circle cx="531.11" cy="697.37" r="2.97"/><circle cx="533.82" cy="656.58" r="2.97"/><circle cx="536.54" cy="709.03" r="2.97"/><circle cx="539.26" cy="697.37" r="2.97"/><circle cx="541.98" cy="720.69" r="2.97"/><circle cx="544.7" cy="685.72" r="2.97"/><circle cx="547.41" cy="697.37" r="2.97"/><circle cx="550.13" cy="633.27" r="2.97"/><circle cx="552.85" cy="691.55" r="2.97"/><circle cx="555.57" cy="685.72" r="2.97"/><circle cx="558.28" cy="697.37" r="2.97"/><circle cx="561" cy="691.55" r="2.97"/><circle cx="563.72" cy="691.55" r="2.97"/><circle cx="566.44" cy="668.23" r="2.97"/><circle cx="569.16" cy="609.95" r="2.97"/><circle cx="571.87" cy="569.16" r="2.97"/><circle cx="574.59" cy="609.95" r="2.97"/><circle cx="577.31" cy="668.23" r="2.97"/><circle cx="580.03" cy="662.41" r="2.97"/><circle cx="582.75" cy="656.58" r="2.97"/><circle cx="585.46" cy="650.75" r="2.97" transform="translate(-2.6 2.35) rotate(-0.23)"/><circle cx="588.18" cy="644.92" r="2.97"/><circle cx="590.9" cy="609.95" r="2.97"/><circle cx="593.62" cy="627.44" r="2.97" transform="matrix(1, 0, 0, 1, -1.28, 1.21)"/><circle cx="596.33" cy="650.75" r="2.97"/><circle cx="599.05" cy="656.58" r="2.97" transform="translate(-59.88 1253.04) rotate(-89.77)"/><circle cx="601.77" cy="668.23" r="2.97"/><circle cx="604.49" cy="615.78" r="2.97"/><circle cx="607.21" cy="627.44" r="2.97"/><circle cx="609.92" cy="633.27" r="2.97" transform="translate(-10.82 10.61) rotate(-0.99)"/><circle cx="612.64" cy="627.44" r="2.97"/><circle cx="615.36" cy="627.44" r="2.97"/><circle cx="618.08" cy="615.78" r="2.97"/><circle cx="620.8" cy="644.92" r="2.97"/><circle cx="623.51" cy="662.41" r="2.97"/><circle cx="626.23" cy="674.06" r="2.97"/><circle cx="628.95" cy="679.89" r="2.97"/><circle cx="631.67" cy="685.72" r="2.97"/><circle cx="634.38" cy="697.37" r="2.97"/><circle cx="637.1" cy="674.06" r="2.97"/><circle cx="639.82" cy="633.27" r="2.97"/><circle cx="642.54" cy="621.61" r="2.97"/><circle cx="645.26" cy="644.92" r="2.97"/><circle cx="647.97" cy="633.27" r="2.97"/><circle cx="650.69" cy="627.44" r="2.97"/><circle cx="653.41" cy="656.58" r="2.97"/><circle cx="656.13" cy="639.09" r="2.97"/><circle cx="658.84" cy="615.78" r="2.97"/><circle cx="661.56" cy="639.09" r="2.97"/><circle cx="664.28" cy="674.06" r="2.97"/><circle cx="667" cy="656.58" r="2.97"/><circle cx="669.72" cy="662.41" r="2.97"/><circle cx="672.43" cy="662.41" r="2.97"/><circle cx="675.15" cy="674.06" r="2.97"/><circle cx="677.87" cy="674.06" r="2.97"/><circle cx="680.59" cy="662.41" r="2.97"/><circle cx="683.31" cy="662.41" r="2.97"/><circle cx="686.02" cy="668.23" r="2.97"/><circle cx="688.74" cy="697.37" r="2.97"/><circle cx="691.46" cy="691.55" r="2.97"/><circle cx="694.18" cy="668.23" r="2.97"/><circle cx="696.89" cy="668.23" r="2.97"/><circle cx="699.61" cy="679.89" r="2.97"/><circle cx="702.33" cy="709.03" r="2.97"/><circle cx="705.05" cy="691.55" r="2.97"/><circle cx="707.77" cy="691.55" r="2.97"/><circle cx="710.48" cy="697.37" r="2.97"/><circle cx="713.2" cy="714.86" r="2.97"/><circle cx="715.92" cy="691.55" r="2.97"/><circle cx="718.64" cy="685.72" r="2.97"/><circle cx="721.36" cy="674.06" r="2.97"/><circle cx="724.07" cy="668.23" r="2.97"/><circle cx="726.79" cy="621.61" r="2.97"/><circle cx="729.51" cy="633.27" r="2.97"/><circle cx="732.23" cy="679.89" r="2.97"/><circle cx="734.94" cy="697.37" r="2.97"/><circle cx="737.66" cy="668.23" r="2.97"/><circle cx="740.38" cy="662.41" r="2.97"/><circle cx="743.1" cy="656.58" r="2.97"/><circle cx="745.82" cy="662.41" r="2.97"/><circle cx="748.53" cy="650.75" r="2.97"/><circle cx="751.25" cy="627.44" r="2.97"/><circle cx="753.97" cy="639.09" r="2.97"/><circle cx="756.69" cy="627.44" r="2.97"/><circle cx="759.4" cy="639.09" r="2.97"/><circle cx="762.12" cy="621.61" r="2.97"/><circle cx="764.84" cy="650.75" r="2.97"/><circle cx="767.56" cy="662.41" r="2.97"/><circle cx="770.28" cy="615.78" r="2.97"/><circle cx="772.99" cy="674.06" r="2.97"/><circle cx="778.43" cy="592.47" r="2.97"/><circle cx="781.15" cy="592.47" r="2.97"/><circle cx="783.87" cy="592.47" r="2.97"/><circle cx="786.58" cy="609.95" r="2.97"/><circle cx="789.3" cy="569.16" r="2.97"/><circle cx="792.02" cy="540.02" r="2.97"/><circle cx="794.74" cy="580.81" r="2.97"/><circle cx="797.45" cy="598.3" r="2.97"/><circle cx="800.17" cy="691.55" r="2.97"/><circle cx="802.89" cy="691.55" r="2.97"/><circle cx="805.61" cy="703.2" r="2.97"/><circle cx="808.33" cy="697.37" r="2.97"/><circle cx="811.04" cy="674.06" r="2.97"/><circle cx="813.76" cy="656.58" r="2.97"/><circle cx="816.48" cy="644.92" r="2.97"/><circle cx="819.2" cy="650.75" r="2.97"/><circle cx="821.92" cy="644.92" r="2.97"/><circle cx="824.63" cy="668.23" r="2.97"/><circle cx="827.35" cy="644.92" r="2.97"/><circle cx="830.07" cy="633.27" r="2.97"/><circle cx="832.79" cy="627.44" r="2.97"/><circle cx="835.5" cy="621.61" r="2.97"/><circle cx="838.22" cy="662.41" r="2.97"/><circle cx="840.94" cy="691.55" r="2.97"/><circle cx="843.66" cy="668.23" r="2.97"/><circle cx="846.38" cy="679.89" r="2.97"/><circle cx="849.09" cy="685.72" r="2.97"/><circle cx="851.81" cy="650.75" r="2.97"/><circle cx="854.53" cy="691.55" r="2.97"/><circle cx="857.25" cy="662.41" r="2.97"/><circle cx="859.97" cy="650.75" r="2.97"/><circle cx="862.68" cy="685.72" r="2.97"/><circle cx="865.4" cy="639.09" r="2.97"/><circle cx="868.12" cy="679.89" r="2.97"/><circle cx="870.84" cy="662.41" r="2.97"/><circle cx="873.55" cy="551.67" r="2.97"/><circle cx="876.27" cy="691.55" r="2.97"/><circle cx="878.99" cy="615.78" r="2.97"/><circle cx="881.71" cy="633.27" r="2.97"/><circle cx="884.43" cy="563.33" r="2.97"/><circle cx="889.86" cy="574.98" r="2.97"/><circle cx="892.58" cy="639.09" r="2.97"/><circle cx="895.3" cy="656.58" r="2.97"/><circle cx="898.01" cy="662.41" r="2.97"/><circle cx="900.73" cy="551.67" r="2.97"/><circle cx="908.89" cy="475.91" r="2.97"/><circle cx="911.6" cy="557.5" r="2.97"/><circle cx="914.32" cy="609.95" r="2.97"/><circle cx="917.04" cy="557.5" r="2.97"/><circle cx="919.76" cy="505.05" r="2.97"/><circle cx="933.35" cy="621.61" r="2.97"/><circle cx="936.06" cy="615.78" r="2.97"/><circle cx="938.78" cy="644.92" r="2.97"/><circle cx="941.5" cy="674.06" r="2.97"/><circle cx="944.22" cy="615.78" r="2.97"/><circle cx="946.94" cy="569.16" r="2.97"/><circle cx="955.09" cy="679.89" r="2.97"/><circle cx="957.81" cy="633.27" r="2.97"/><circle cx="960.53" cy="592.47" r="2.97"/><circle cx="963.24" cy="534.19" r="2.97"/><circle cx="965.96" cy="522.53" r="2.97"/><circle cx="976.83" cy="592.47" r="2.97"/><circle cx="979.55" cy="522.53" r="2.97"/><circle cx="984.99" cy="499.22" r="2.97"/><circle cx="987.7" cy="545.84" r="2.97"/><circle cx="990.42" cy="563.33" r="2.97"/><circle cx="993.14" cy="615.78" r="2.97"/><circle cx="995.86" cy="668.23" r="2.97"/><circle cx="998.58" cy="644.92" r="2.97"/><circle cx="1001.29" cy="639.09" r="2.97"/><circle cx="1004.01" cy="627.44" r="2.97"/><circle cx="1006.73" cy="563.33" r="2.97"/><circle cx="1012.16" cy="481.74" r="2.97"/><circle cx="1025.75" cy="475.91" r="2.97"/><circle cx="1031.19" cy="487.56" r="2.97"/><circle cx="1033.91" cy="545.84" r="2.97"/><circle cx="1039.34" cy="569.16" r="2.97"/><circle cx="1042.06" cy="534.19" r="2.97"/><circle cx="1044.78" cy="534.19" r="2.97"/><circle cx="1050.21" cy="481.74" r="2.97"/><circle cx="1052.93" cy="551.67" r="2.97"/><circle class="cls-16" cx="949.65" cy="440.94" r="2.97"/><circle class="cls-16" cx="952.37" cy="446.77" r="2.97"/><circle class="cls-16" cx="115.28" cy="423.45" r="2.97"/><circle class="cls-16" cx="117.99" cy="376.83" r="2.97"/><circle class="cls-16" cx="150.61" cy="365.17" r="2.97"/><circle class="cls-16" cx="153.33" cy="318.55" r="2.97"/><circle class="cls-16" cx="156.04" cy="371" r="2.97"/><circle class="cls-16" cx="158.76" cy="382.66" r="2.97"/><circle class="cls-16" cx="161.48" cy="440.94" r="2.97"/><circle class="cls-16" cx="169.63" cy="330.21" r="2.97"/><circle class="cls-16" cx="172.35" cy="365.17" r="2.97"/><circle class="cls-16" cx="175.07" cy="122.38" r="2.97"/><circle class="cls-16" cx="177.79" cy="446.77" r="2.97"/><circle class="cls-16" cx="185.94" cy="446.77" r="2.97"/><circle class="cls-16" cx="357.16" cy="405.97" r="2.97"/><circle class="cls-16" cx="362.6" cy="464.25" r="2.97"/><circle class="cls-16" cx="887.14" cy="452.6" r="2.97"/><circle class="cls-16" cx="903.45" cy="470.08" r="2.97"/><circle class="cls-16" cx="906.17" cy="440.94" r="2.97"/><circle class="cls-16" cx="922.48" cy="400.14" r="2.97"/><circle class="cls-16" cx="925.19" cy="400.14" r="2.97"/><circle class="cls-16" cx="927.91" cy="464.25" r="2.97"/><circle class="cls-16" cx="930.63" cy="394.31" r="2.97"/><circle class="cls-16" cx="968.68" cy="371" r="2.97"/><circle class="cls-16" cx="971.4" cy="128.21" r="2.97"/><circle class="cls-16" cx="974.11" cy="423.45" r="2.97"/><circle class="cls-16" cx="982.27" cy="470.08" r="2.97"/><circle class="cls-16" cx="1009.45" cy="435.11" r="2.97"/><circle class="cls-16" cx="1014.88" cy="470.08" r="2.97"/><circle class="cls-16" cx="1017.6" cy="435.11" r="2.97"/><circle class="cls-16" cx="1020.32" cy="400.14" r="2.97"/><circle class="cls-16" cx="1023.04" cy="429.28" r="2.97"/><circle class="cls-16" cx="1028.47" cy="429.28" r="2.97"/><circle class="cls-16" cx="1036.62" cy="458.42" r="2.97"/><circle class="cls-16" cx="1047.5" cy="446.77" r="2.97"/><circle class="cls-16" cx="1055.65" cy="446.77" r="2.97"/><circle cx="1058.37" cy="540.02" r="2.97"/><circle cx="1063.8" cy="586.64" r="2.97"/><circle cx="1066.52" cy="598.3" r="2.97"/><circle cx="1069.24" cy="633.27" r="2.97"/><circle cx="1071.96" cy="586.64" r="2.97"/><circle cx="1074.67" cy="609.95" r="2.97"/><circle cx="1077.39" cy="516.7" r="2.97"/><circle cx="1080.11" cy="621.61" r="2.97"/><circle cx="1082.83" cy="609.95" r="2.97"/><circle cx="1085.55" cy="598.3" r="2.97"/><circle cx="1088.26" cy="563.33" r="2.97"/><path class="cls-17" d="M1088.26,648.61V761.34h-6.37C1083.25,761.34,1086.91,648.61,1088.26,648.61Z"/><path class="cls-17" d="M1060.21,761.34h-8.12c1.35,0,1.35-139.94,2.7-139.94s1.36,110.79,2.72,110.79S1058.86,761.34,1060.21,761.34Z"/><path class="cls-17" d="M1011.44,761.34H1006c1.36,0,1.36-5.82,2.71-5.82S1010.09,761.34,1011.44,761.34Z"/><path class="cls-17" d="M997.89,761.34h-5.42c1.37,0,1.37-11.66,2.72-11.66S996.54,761.34,997.89,761.34Z"/><path class="cls-17" d="M989.77,761.34h-8.14c1.37,0,1.37-5.82,2.72-5.82s1.35-5.84,2.7-5.84S988.42,761.34,989.77,761.34Z"/><path class="cls-17" d="M973.51,761.34h-8.13c1.35,0,1.35-122.45,2.71-122.45s1.35-29.15,2.71-29.15S972.15,761.34,973.51,761.34Z"/><path class="cls-17" d="M960,761.34h-5.42c1.35,0,1.35-23.32,2.71-23.32S958.61,761.34,960,761.34Z"/><path class="cls-17" d="M954.54,761.34h-8.12c1.35,0,1.35-93.29,2.7-93.29s1.35,87.47,2.72,87.47S953.19,761.34,954.54,761.34Z"/><path class="cls-17" d="M946.42,761.34H941c1.35,0,1.35-11.66,2.7-11.66S945.05,761.34,946.42,761.34Z"/><path class="cls-17" d="M938.28,761.34h-8.13c1.36,0,1.36-75.8,2.71-75.8s1.36,64.14,2.71,64.14S936.93,761.34,938.28,761.34Z"/><path class="cls-17" d="M908.36,761.34h-5.42c1.35,0,1.35-11.66,2.72-11.66S907,761.34,908.36,761.34Z"/><path class="cls-17" d="M892.1,761.34h-5.41c1.35,0,1.35-29.15,2.71-29.15S890.75,761.34,892.1,761.34Z"/><path class="cls-17" d="M875.85,761.34h-8.14c1.37,0,1.37-29.15,2.72-29.15s1.35-285.72,2.71-285.72S874.5,761.34,875.85,761.34Z"/><path class="cls-17" d="M865,761.34h-8.13c1.36,0,1.36-46.64,2.71-46.64s1.35,29.15,2.7,29.15S863.66,761.34,865,761.34Z"/><path class="cls-17" d="M854.17,761.34H846c1.36,0,1.36-70,2.71-70s1.36,64.15,2.71,64.15S852.82,761.34,854.17,761.34Z"/><path class="cls-17" d="M843.33,761.34H835.2c1.36,0,1.36-40.82,2.72-40.82s1.35,35,2.7,35S842,761.34,843.33,761.34Z"/><path class="cls-17" d="M805.4,761.34H800c1.36,0,1.36-23.32,2.71-23.32S804,761.34,805.4,761.34Z"/><path class="cls-17" d="M800,761.34h-5.42c1.36,0,1.36-163.27,2.71-163.27S798.62,761.34,800,761.34Z"/><path class="cls-17" d="M772.88,761.34h-5.42c1.36,0,1.36-17.49,2.71-17.49S771.53,761.34,772.88,761.34Z"/><path class="cls-17" d="M729.53,761.34H721.4c1.36,0,1.36-134.12,2.71-134.12s1.35,81.65,2.71,81.65S728.17,761.34,729.53,761.34Z"/><path class="cls-17" d="M702.43,761.34H694.3c1.36,0,1.36-11.66,2.71-11.66h2.71C701.08,749.68,701.08,761.34,702.43,761.34Z"/><path class="cls-17" d="M688.88,761.34h-5.42c1.36,0,1.36-29.15,2.72-29.15S687.53,761.34,688.88,761.34Z"/><path class="cls-17" d="M656.37,761.34H651c1.35,0,1.35-40.82,2.71-40.82S655,761.34,656.37,761.34Z"/><path class="cls-17" d="M594,761.34h-5.42c1.35,0,1.35-5.82,2.72-5.82S592.69,761.34,594,761.34Z"/><path class="cls-17" d="M558.83,761.34h-8.14c1.35,0,1.35-5.82,2.72-5.82s1.35-58.32,2.7-58.32S557.46,761.34,558.83,761.34Z"/><path class="cls-17" d="M539.85,761.34h-5.42c1.36,0,1.36-11.66,2.71-11.66S538.5,761.34,539.85,761.34Z"/><path class="cls-17" d="M534.43,761.34H526.3c1.36,0,1.36-105,2.72-105s1.35,58.31,2.7,58.31S533.08,761.34,534.43,761.34Z"/><path class="cls-17" d="M523.6,761.34h-5.42c1.35,0,1.35-23.32,2.7-23.32S522.25,761.34,523.6,761.34Z"/><path class="cls-17" d="M518.18,761.34H504.62c1.36,0,1.36-5.82,2.72-5.82H510c1.35,0,1.35-52.49,2.72-52.49s1.35,46.65,2.7,46.65S516.83,761.34,518.18,761.34Z"/><path class="cls-17" d="M501.92,761.34H496.5c1.35,0,1.35-40.82,2.71-40.82S500.56,761.34,501.92,761.34Z"/><path class="cls-17" d="M474.83,761.34H469.4c1.36,0,1.36-29.15,2.71-29.15S473.46,761.34,474.83,761.34Z"/><path class="cls-17" d="M464,761.34H447.72c1.36,0,1.36-105,2.72-105s1.35,46.64,2.7,46.64,1.36,52.49,2.71,52.49,1.36-29.17,2.71-29.17,1.36-11.65,2.71-11.65S462.63,761.34,464,761.34Z"/><path class="cls-17" d="M428.76,761.34H417.92c1.35,0,1.35-58.31,2.71-58.31s1.35,52.49,2.71,52.49,1.35-81.65,2.7-81.65S427.4,761.34,428.76,761.34Z"/><path class="cls-17" d="M407.08,761.34H399c1.35,0,1.35-5.82,2.72-5.82s1.35-204.1,2.7-204.1S405.72,761.34,407.08,761.34Z"/><path class="cls-17" d="M366.44,761.34H358.3c1.37,0,1.37-5.82,2.72-5.82s1.35-5.84,2.7-5.84S365.09,761.34,366.44,761.34Z"/><path class="cls-17" d="M317.78,761.34h-5.42c1.35,0,1.35-5.82,2.7-5.82S316.41,761.34,317.78,761.34Z"/><path class="cls-17" d="M301.52,761.34H296.1c1.36,0,1.36-17.49,2.71-17.49S300.16,761.34,301.52,761.34Z"/><path class="cls-17" d="M288,761.34h-5.42c1.35,0,1.35-23.32,2.7-23.32S286.62,761.34,288,761.34Z"/><path class="cls-17" d="M282.55,761.34H271.71c1.35,0,1.35-5.82,2.71-5.82s1.36-99.13,2.71-99.13,1.35,23.32,2.7,23.32S281.2,761.34,282.55,761.34Z"/><path class="cls-17" d="M271.71,761.34h-5.42c1.36,0,1.36-75.8,2.71-75.8S270.36,761.34,271.71,761.34Z"/><path class="cls-17" d="M266.29,761.34h-5.42c1.36,0,1.36-116.62,2.71-116.62S264.94,761.34,266.29,761.34Z"/><path class="cls-17" d="M258.16,761.34H247.32c1.35,0,1.35-70,2.72-70s1.35-75.8,2.7-75.8,1.36,35,2.72,35S256.81,761.34,258.16,761.34Z"/><path class="cls-17" d="M247.32,761.34H241.9c1.35,0,1.35-5.82,2.72-5.82S246,761.34,247.32,761.34Z"/><path class="cls-17" d="M241.9,761.34h-5.42c1.36,0,1.36-35,2.72-35S240.55,761.34,241.9,761.34Z"/><path class="cls-17" d="M233.78,761.34h-5.42c1.35,0,1.35-5.82,2.7-5.82S232.42,761.34,233.78,761.34Z"/><path class="cls-17" d="M225.65,761.34H212.09c1.37,0,1.37-64.14,2.72-64.14s1.35,17.5,2.71,17.5,1.36-198.26,2.71-198.26,1.35,174.93,2.71,174.93S224.29,761.34,225.65,761.34Z"/><path class="cls-17" d="M212.09,761.34h-5.42c1.37,0,1.37-58.31,2.72-58.31S210.74,761.34,212.09,761.34Z"/><path class="cls-17" d="M206.67,761.34H195.84c1.36,0,1.36-5.82,2.71-5.82s1.35-5.84,2.7-5.84,1.37,5.84,2.72,5.84S205.32,761.34,206.67,761.34Z"/><path class="cls-17" d="M187.71,761.34h-5.42c1.36,0,1.36-81.63,2.71-81.63S186.36,761.34,187.71,761.34Z"/><path class="cls-17" d="M133.53,761.34h-5.44c1.37,0,1.37-35,2.72-35S132.16,761.34,133.53,761.34Z"/><path class="cls-17" d="M120,761.34h-5.42c1.35,0,1.35-17.49,2.71-17.49S118.62,761.34,120,761.34Z"/><path class="cls-17" d="M111.84,761.34H96.25c1.35,0,.69-40.82,2-40.82H101c1.36,0,1.36,11.67,2.72,11.67s1.35,23.33,2.7,23.33,1.36-11.67,2.71-11.67S110.49,761.34,111.84,761.34Z"/><path class="cls-18" d="M111.84,761.34c-1.35,0-1.35-17.49-2.71-17.49s-1.35,11.67-2.71,11.67-1.35-23.33-2.7-23.33-1.36-11.67-2.72-11.67H98.3c-1.36,0-.7,40.82-2,40.82"/><path class="cls-18" d="M120,761.34c-1.35,0-1.35-17.49-2.71-17.49s-1.36,17.49-2.71,17.49"/><path class="cls-18" d="M133.53,761.34c-1.37,0-1.37-35-2.72-35s-1.35,35-2.72,35"/><path class="cls-18" d="M187.71,761.34c-1.35,0-1.35-81.63-2.71-81.63s-1.35,81.63-2.71,81.63"/><path class="cls-18" d="M225.65,761.34c-1.36,0-1.36-70-2.71-70s-1.36-174.93-2.71-174.93-1.35,198.26-2.71,198.26-1.36-17.5-2.71-17.5-1.35,64.14-2.72,64.14S210.74,703,209.39,703s-1.35,58.31-2.72,58.31-1.35-5.82-2.7-5.82-1.35-5.84-2.72-5.84-1.35,5.84-2.7,5.84-1.35,5.82-2.71,5.82"/><path class="cls-18" d="M233.78,761.34c-1.36,0-1.36-5.82-2.72-5.82s-1.35,5.82-2.7,5.82"/><path class="cls-18" d="M258.16,761.34c-1.35,0-1.35-110.79-2.7-110.79s-1.36-35-2.72-35-1.35,75.8-2.7,75.8-1.37,70-2.72,70-1.35-5.82-2.7-5.82-1.37,5.82-2.72,5.82-1.35-35-2.7-35-1.36,35-2.72,35"/><path class="cls-18" d="M288,761.34c-1.35,0-1.35-23.32-2.72-23.32s-1.35,23.32-2.7,23.32-1.35-81.63-2.72-81.63-1.35-23.32-2.7-23.32-1.35,99.13-2.71,99.13-1.36,5.82-2.71,5.82-1.35-75.8-2.71-75.8-1.35,75.8-2.71,75.8-1.35-116.62-2.71-116.62-1.35,116.62-2.71,116.62"/><path class="cls-18" d="M301.52,761.34c-1.36,0-1.36-17.49-2.71-17.49s-1.35,17.49-2.71,17.49"/><path class="cls-18" d="M317.78,761.34c-1.37,0-1.37-5.82-2.72-5.82s-1.35,5.82-2.7,5.82"/><path class="cls-18" d="M366.44,761.34c-1.35,0-1.35-11.66-2.72-11.66s-1.35,5.84-2.7,5.84-1.35,5.82-2.72,5.82"/><path class="cls-18" d="M407.08,761.34c-1.36,0-1.36-209.92-2.71-209.92s-1.35,204.1-2.7,204.1-1.37,5.82-2.72,5.82"/><path class="cls-18" d="M428.76,761.34c-1.36,0-1.36-87.47-2.72-87.47s-1.35,81.65-2.7,81.65S422,703,420.63,703s-1.36,58.31-2.71,58.31"/><path class="cls-18" d="M464,761.34c-1.35,0-1.35-46.64-2.71-46.64s-1.35,11.65-2.71,11.65-1.35,29.17-2.71,29.17S454.5,703,453.14,703s-1.35-46.64-2.7-46.64-1.36,105-2.72,105"/><path class="cls-18" d="M474.83,761.34c-1.37,0-1.37-29.15-2.72-29.15s-1.35,29.15-2.71,29.15"/><path class="cls-18" d="M501.92,761.34c-1.36,0-1.36-40.82-2.71-40.82s-1.36,40.82-2.71,40.82"/><path class="cls-18" d="M523.6,761.34c-1.35,0-1.35-23.32-2.72-23.32s-1.35,23.32-2.7,23.32-1.35-11.66-2.72-11.66S514.11,703,512.76,703s-1.37,52.49-2.72,52.49h-2.7c-1.36,0-1.36,5.82-2.72,5.82"/><path class="cls-18" d="M539.85,761.34c-1.35,0-1.35-11.66-2.71-11.66s-1.35,11.66-2.71,11.66-1.35-46.64-2.71-46.64-1.35-58.31-2.7-58.31-1.36,105-2.72,105"/><path class="cls-18" d="M558.83,761.34c-1.37,0-1.37-64.14-2.72-64.14s-1.35,58.32-2.7,58.32-1.37,5.82-2.72,5.82"/><path class="cls-18" d="M594,761.34c-1.35,0-1.35-5.82-2.7-5.82s-1.37,5.82-2.72,5.82"/><path class="cls-18" d="M656.37,761.34c-1.36,0-1.36-40.82-2.71-40.82s-1.36,40.82-2.71,40.82"/><path class="cls-18" d="M688.88,761.34c-1.35,0-1.35-29.15-2.7-29.15s-1.36,29.15-2.72,29.15"/><path class="cls-18" d="M702.43,761.34c-1.35,0-1.35-11.66-2.71-11.66H697c-1.35,0-1.35,11.66-2.71,11.66"/><path class="cls-18" d="M729.53,761.34c-1.36,0-1.36-52.47-2.71-52.47s-1.36-81.65-2.71-81.65-1.35,134.12-2.71,134.12"/><path class="cls-18" d="M772.88,761.34c-1.35,0-1.35-17.49-2.71-17.49s-1.35,17.49-2.71,17.49"/><path class="cls-18" d="M805.4,761.34C804,761.34,804,738,802.69,738s-1.35,23.32-2.71,23.32-1.36-163.27-2.71-163.27-1.35,163.27-2.71,163.27"/><path class="cls-18" d="M843.33,761.34c-1.35,0-1.35-5.82-2.71-5.82s-1.35-35-2.7-35-1.36,40.82-2.72,40.82"/><path class="cls-18" d="M854.17,761.34c-1.35,0-1.35-5.82-2.71-5.82s-1.35-64.15-2.71-64.15-1.35,70-2.71,70"/><path class="cls-18" d="M865,761.34c-1.35,0-1.35-17.49-2.72-17.49s-1.35-29.15-2.7-29.15-1.35,46.64-2.71,46.64"/><path class="cls-18" d="M875.85,761.34c-1.35,0-1.35-314.87-2.71-314.87s-1.36,285.72-2.71,285.72-1.35,29.15-2.72,29.15"/><path class="cls-18" d="M892.1,761.34c-1.35,0-1.35-29.15-2.7-29.15s-1.36,29.15-2.71,29.15"/><path class="cls-18" d="M908.36,761.34c-1.35,0-1.35-11.66-2.7-11.66s-1.37,11.66-2.72,11.66"/><path class="cls-18" d="M938.28,761.34c-1.35,0-1.35-11.66-2.71-11.66s-1.35-64.14-2.71-64.14-1.35,75.8-2.71,75.8"/><path class="cls-18" d="M960,761.34c-1.35,0-1.35-23.32-2.71-23.32s-1.36,23.32-2.71,23.32-1.35-5.82-2.7-5.82-1.37-87.47-2.72-87.47-1.35,93.29-2.7,93.29-1.37-11.66-2.72-11.66-1.35,11.66-2.7,11.66"/><path class="cls-18" d="M973.51,761.34c-1.36,0-1.36-151.6-2.71-151.6s-1.36,29.15-2.71,29.15-1.36,122.45-2.71,122.45"/><path class="cls-18" d="M989.77,761.34c-1.35,0-1.35-11.66-2.72-11.66s-1.35,5.84-2.7,5.84-1.35,5.82-2.72,5.82"/><path class="cls-18" d="M997.89,761.34c-1.35,0-1.35-11.66-2.7-11.66s-1.35,11.66-2.72,11.66"/><path class="cls-18" d="M1011.44,761.34c-1.35,0-1.35-5.82-2.71-5.82s-1.35,5.82-2.71,5.82"/><path class="cls-18" d="M1060.21,761.34c-1.35,0-1.35-29.15-2.7-29.15s-1.36-110.79-2.72-110.79-1.35,139.94-2.7,139.94"/><path class="cls-18" d="M1088.26,648.61c-1.35,0-5,112.73-6.37,112.73"/><polyline class="cls-18" points="96.25 761.34 111.84 761.34 114.55 761.34 119.97 761.34 128.09 761.34 133.53 761.34 182.29 761.34 187.71 761.34 195.84 761.34 206.67 761.34 212.09 761.34 225.65 761.34 228.36 761.34 233.78 761.34 236.48 761.34 241.9 761.34 247.32 761.34 258.16 761.34 260.88 761.34 266.29 761.34 271.71 761.34 282.55 761.34 287.97 761.34 296.1 761.34 301.52 761.34 312.36 761.34 317.78 761.34 358.3 761.34 366.44 761.34 398.95 761.34 407.08 761.34 417.92 761.34 428.76 761.34 447.72 761.34 463.98 761.34 469.4 761.34 474.83 761.34 496.5 761.34 501.92 761.34 504.62 761.34 518.18 761.34 523.6 761.34 526.3 761.34 534.43 761.34 539.85 761.34 550.69 761.34 558.83 761.34 588.62 761.34 594.04 761.34 650.95 761.34 656.37 761.34 683.46 761.34 688.88 761.34 694.3 761.34 702.43 761.34 721.4 761.34 729.53 761.34 767.46 761.34 772.88 761.34 794.57 761.34 799.98 761.34 805.4 761.34 835.2 761.34 843.34 761.34 846.04 761.34 854.17 761.34 856.88 761.34 865.01 761.34 867.71 761.34 875.85 761.34 886.69 761.34 892.11 761.34 902.94 761.34 908.36 761.34 930.15 761.34 938.28 761.34 941 761.34 946.42 761.34 954.54 761.34 959.96 761.34 965.38 761.34 973.51 761.34 981.63 761.34 989.77 761.34 992.47 761.34 997.89 761.34 1006.02 761.34 1011.44 761.34 1052.09 761.34 1060.21 761.34 1081.89 761.34 1088.26 761.34 1088.26 648.62"/><text class="cls-19" transform="translate(284.08 183.27)">Spegnimen<tspan class="cls-20" x="80.05" y="0">t</tspan><tspan x="85.5" y="0">o </tspan><tspan x="0" y="18.6">riscaldamenti</tspan></text><text class="cls-19" transform="translate(886.88 183.27)"><tspan class="cls-21">A</tspan><tspan x="10.29" y="0">ccensione</tspan><tspan x="0" y="18.6">riscaldamenti</tspan></text><g class="cls-22"><circle class="cls-16" cx="971.4" cy="128.21" r="9.75"/></g><rect class="cls-23" x="845.38" y="102.88" width="112.13" height="50.65" rx="1.58"/><text class="cls-24" transform="translate(847.98 114.18)">19 N<tspan class="cls-25" x="19.06" y="0">ov</tspan><tspan x="29.38" y="0">emb</tspan><tspan class="cls-26" x="48.46" y="0">r</tspan><tspan x="51.83" y="0">e</tspan><tspan class="cls-27"><tspan x="0" y="11.66">Inc</tspan><tspan class="cls-28" x="12.67" y="11.66">r</tspan><tspan x="15.86" y="11.66">emen</tspan><tspan class="cls-29" x="39.44" y="11.66">t</tspan><tspan x="42.66" y="11.66">o del traffico</tspan><tspan class="cls-30" x="0" y="23.33">v</tspan><tspan class="cls-31" x="4.83" y="23.33">eicola</tspan><tspan class="cls-28" x="29.81" y="23.33">r</tspan><tspan x="33.01" y="23.33">e causa</tspan><tspan class="cls-32" x="65.89" y="23.33">t</tspan><tspan class="cls-33" x="69.11" y="23.33">o dal </tspan><tspan x="0" y="34.99">conce</tspan><tspan class="cls-34" x="25.93" y="34.99">r</tspan><tspan class="cls-32" x="29.58" y="34.99">t</tspan><tspan x="32.8" y="34.99">o di Justin Bieber</tspan></tspan></text><line class="cls-35" x1="971.4" y1="128.21" x2="957.51" y2="128.21"/><circle cx="287.67" cy="833.07" r="3.45"/><path d="M300.69,838.78V827.87h3.69a4.24,4.24,0,0,1,2.1.46,3,3,0,0,1,1.21,1.24,4.12,4.12,0,0,1,0,3.5,2.91,2.91,0,0,1-1.2,1.26,4.2,4.2,0,0,1-2.09.46h-2.64v-1.17h2.6a2.89,2.89,0,0,0,1.41-.3,1.82,1.82,0,0,0,.77-.83,2.86,2.86,0,0,0,0-2.34,1.7,1.7,0,0,0-.78-.81,2.92,2.92,0,0,0-1.43-.3H302v9.74Z"/><path d="M310.22,827.87h1.57l3.71,9h.13l3.7-9h1.58v10.91h-1.23v-8.29h-.11l-3.41,8.29H315l-3.41-8.29h-.11v8.29h-1.23Z"/><path d="M327.2,827.87v10.91h-1.32v-9.53h-.07L323.15,831v-1.34l2.73-1.81Z"/><path d="M333.89,838.93a3.21,3.21,0,0,1-2.05-.66,4.09,4.09,0,0,1-1.3-1.91,10.43,10.43,0,0,1,0-6.06,4.15,4.15,0,0,1,1.3-1.92,3.5,3.5,0,0,1,4.09,0,4.07,4.07,0,0,1,1.3,1.92,10.43,10.43,0,0,1,0,6.06,4.15,4.15,0,0,1-1.29,1.91A3.25,3.25,0,0,1,333.89,838.93Zm0-1.17a2.05,2.05,0,0,0,1.85-1.16,6.65,6.65,0,0,0,.66-3.28,8.43,8.43,0,0,0-.3-2.41,3.42,3.42,0,0,0-.86-1.52,1.92,1.92,0,0,0-1.35-.52A2.05,2.05,0,0,0,332,830a6.65,6.65,0,0,0-.67,3.29,8.38,8.38,0,0,0,.3,2.41,3.38,3.38,0,0,0,.86,1.51A2,2,0,0,0,333.89,837.76Z"/><path d="M340.09,833.92v-.85l6.86-3.5v1.37l-5.26,2.53,0-.08v.21l0-.09,5.26,2.54v1.36Z"/><path d="M353,838.93a3.72,3.72,0,0,1-1.69-.38,3.15,3.15,0,0,1-1.2-1,2.74,2.74,0,0,1-.5-1.48h1.28a1.73,1.73,0,0,0,.67,1.22,2.37,2.37,0,0,0,2.63.17,2.28,2.28,0,0,0,.83-.86,2.6,2.6,0,0,0,.3-1.25,2.55,2.55,0,0,0-.31-1.28,2.35,2.35,0,0,0-.85-.89,2.58,2.58,0,0,0-1.25-.33,3.71,3.71,0,0,0-1,.15,2.71,2.71,0,0,0-.87.41l-1.24-.15.66-5.37h5.67V829h-4.56l-.38,3.22h.06a2.56,2.56,0,0,1,.84-.44,3.15,3.15,0,0,1,1.06-.18,3.34,3.34,0,0,1,1.78.48,3.3,3.3,0,0,1,1.24,1.3,3.87,3.87,0,0,1,.45,1.88,3.74,3.74,0,0,1-.47,1.87,3.44,3.44,0,0,1-1.28,1.29A3.66,3.66,0,0,1,353,838.93Z"/><path d="M362.27,838.93a3.21,3.21,0,0,1-2-.66,4.09,4.09,0,0,1-1.3-1.91,10.43,10.43,0,0,1,0-6.06,4.15,4.15,0,0,1,1.3-1.92,3.5,3.5,0,0,1,4.09,0,4.07,4.07,0,0,1,1.3,1.92,10.43,10.43,0,0,1,0,6.06,4.15,4.15,0,0,1-1.29,1.91A3.25,3.25,0,0,1,362.27,838.93Zm0-1.17a2.05,2.05,0,0,0,1.85-1.16,6.65,6.65,0,0,0,.66-3.28,8.43,8.43,0,0,0-.3-2.41,3.42,3.42,0,0,0-.86-1.52,1.92,1.92,0,0,0-1.35-.52,2.05,2.05,0,0,0-1.85,1.16,6.76,6.76,0,0,0-.67,3.29,8.38,8.38,0,0,0,.3,2.41,3.38,3.38,0,0,0,.86,1.51A2,2,0,0,0,362.27,837.76Z"/><path d="M368,841.44v-9.75H369v4.19a2.07,2.07,0,0,0,.24,1,1.74,1.74,0,0,0,.69.68,2,2,0,0,0,1,.25,2.12,2.12,0,0,0,1-.25,1.71,1.71,0,0,0,.68-.68,2,2,0,0,0,.25-1v-4.19h1.09v7.09H373v-1.06h-.06a2,2,0,0,1-.8.86,2.23,2.23,0,0,1-2.2,0,2,2,0,0,1-.8-.86H369v3.72Z"/><path d="M378.9,841.58a4,4,0,0,1-1.36-.2,3,3,0,0,1-.94-.52,3,3,0,0,1-.6-.7l.87-.61c.1.13.22.28.37.45a2.06,2.06,0,0,0,.63.44,2.47,2.47,0,0,0,1,.18,2.3,2.3,0,0,0,1.42-.41,1.52,1.52,0,0,0,.56-1.3v-1.44h-.09a5.76,5.76,0,0,1-.34.47,2.07,2.07,0,0,1-.63.51,2.41,2.41,0,0,1-1.1.22,3,3,0,0,1-1.54-.41,2.82,2.82,0,0,1-1.08-1.18,4.18,4.18,0,0,1-.39-1.88,4.47,4.47,0,0,1,.38-1.9,3,3,0,0,1,1.07-1.26,2.79,2.79,0,0,1,1.58-.45,2.31,2.31,0,0,1,1.1.23,1.92,1.92,0,0,1,.62.52c.15.19.26.35.34.47h.11v-1.12H382V839a2.46,2.46,0,0,1-.42,1.49,2.38,2.38,0,0,1-1.1.84A4.27,4.27,0,0,1,378.9,841.58Zm0-3.89a2,2,0,0,0,1.1-.3,1.89,1.89,0,0,0,.69-.87,3.38,3.38,0,0,0,.24-1.34,3.84,3.84,0,0,0-.23-1.36,2.07,2.07,0,0,0-.69-.91,1.77,1.77,0,0,0-1.11-.34,1.88,1.88,0,0,0-1.16.35,2.15,2.15,0,0,0-.68,1,3.43,3.43,0,0,0-.23,1.31,3.31,3.31,0,0,0,.23,1.3,2.06,2.06,0,0,0,.69.89A2,2,0,0,0,378.87,837.69Z"/><path d="M387.3,828.88l-3,11.32h-1l3.05-11.32Z"/><path d="M388.6,838.78v-7.09h1v1.1h.09a1.84,1.84,0,0,1,.72-.88,2.15,2.15,0,0,1,1.18-.32,2,2,0,0,1,1.17.32,2.14,2.14,0,0,1,.74.88h.07a2.08,2.08,0,0,1,.82-.87,2.46,2.46,0,0,1,1.3-.33,2.11,2.11,0,0,1,1.56.6,2.48,2.48,0,0,1,.6,1.84v4.75h-1.09V834a1.33,1.33,0,0,0-.43-1.12,1.6,1.6,0,0,0-1-.34,1.51,1.51,0,0,0-1.16.45,1.64,1.64,0,0,0-.41,1.14v4.62h-1.1v-4.86a1.27,1.27,0,0,0-.4-1,1.44,1.44,0,0,0-1-.37,1.51,1.51,0,0,0-.79.23,1.76,1.76,0,0,0-.59.62,1.88,1.88,0,0,0-.22.93v4.43Z"/><path d="M401.33,834.52a2.4,2.4,0,0,1-.95-.18,1.58,1.58,0,0,1-.65-.51,1.28,1.28,0,0,1-.27-.76h.68a.75.75,0,0,0,.18.46,1.08,1.08,0,0,0,.42.3,1.57,1.57,0,0,0,.58.1,1.54,1.54,0,0,0,.63-.12.94.94,0,0,0,.43-.35.8.8,0,0,0,.16-.51.94.94,0,0,0-.15-.53,1,1,0,0,0-.44-.37,1.7,1.7,0,0,0-.71-.13h-.44v-.59h.44a1.26,1.26,0,0,0,.57-.12.87.87,0,0,0,.39-.34.84.84,0,0,0,.15-.5,1,1,0,0,0-.13-.49.78.78,0,0,0-.35-.32,1.09,1.09,0,0,0-.53-.12,1.36,1.36,0,0,0-.53.11,1,1,0,0,0-.41.29.78.78,0,0,0-.18.47h-.64a1.36,1.36,0,0,1,.26-.76,1.81,1.81,0,0,1,.64-.51,2.13,2.13,0,0,1,.88-.18,1.7,1.7,0,0,1,.87.21,1.45,1.45,0,0,1,.76,1.27,1.3,1.3,0,0,1-.24.79,1.26,1.26,0,0,1-.66.46v0a1.25,1.25,0,0,1,.81.44,1.32,1.32,0,0,1,.3.88,1.44,1.44,0,0,1-.25.81,1.65,1.65,0,0,1-.66.56A2.12,2.12,0,0,1,401.33,834.52Z"/><circle class="cls-16" cx="554.07" cy="833.07" r="3.45"/><path class="cls-16" d="M567.1,838.78V827.87h3.68a4.26,4.26,0,0,1,2.11.46,3,3,0,0,1,1.21,1.24,4.12,4.12,0,0,1,0,3.5,2.88,2.88,0,0,1-1.21,1.26,4.16,4.16,0,0,1-2.08.46h-2.65v-1.17h2.6a2.84,2.84,0,0,0,1.41-.3,1.79,1.79,0,0,0,.78-.83,3,3,0,0,0,0-2.34,1.7,1.7,0,0,0-.78-.81,3,3,0,0,0-1.43-.3h-2.32v9.74Z"/><path class="cls-16" d="M576.62,827.87h1.58l3.71,9H582l3.71-9h1.58v10.91h-1.24v-8.29H586l-3.41,8.29h-1.2L578,830.49h-.1v8.29h-1.24Z"/><path class="cls-16" d="M593.6,827.87v10.91h-1.32v-9.53h-.06L589.55,831v-1.34l2.73-1.81Z"/><path class="cls-16" d="M600.29,838.93a3.25,3.25,0,0,1-2-.66,4.15,4.15,0,0,1-1.29-1.91,10.43,10.43,0,0,1,0-6.06,4.07,4.07,0,0,1,1.3-1.92,3.5,3.5,0,0,1,4.09,0,4.15,4.15,0,0,1,1.3,1.92,10.43,10.43,0,0,1,0,6.06,4.09,4.09,0,0,1-1.3,1.91A3.21,3.21,0,0,1,600.29,838.93Zm0-1.17a2.05,2.05,0,0,0,1.86-1.16,6.65,6.65,0,0,0,.66-3.28,8.43,8.43,0,0,0-.3-2.41,3.34,3.34,0,0,0-.87-1.52,1.89,1.89,0,0,0-1.35-.52,2,2,0,0,0-1.84,1.16,6.65,6.65,0,0,0-.67,3.29,8.38,8.38,0,0,0,.3,2.41,3.29,3.29,0,0,0,.86,1.51A1.93,1.93,0,0,0,600.29,837.76Z"/><path class="cls-16" d="M613.35,833.92l-6.86,3.49v-1.36l5.27-2.54,0,.09v-.21l0,.08-5.27-2.53v-1.37l6.86,3.5Z"/><path class="cls-16" d="M619.41,838.93a3.72,3.72,0,0,1-1.69-.38,3.26,3.26,0,0,1-1.21-1,2.81,2.81,0,0,1-.49-1.48h1.28a1.73,1.73,0,0,0,.67,1.22,2.24,2.24,0,0,0,1.44.49,2.27,2.27,0,0,0,2-1.18,2.6,2.6,0,0,0,.3-1.25,2.66,2.66,0,0,0-.31-1.28,2.37,2.37,0,0,0-.86-.89,2.52,2.52,0,0,0-1.24-.33,3.77,3.77,0,0,0-1,.15,2.93,2.93,0,0,0-.87.41l-1.23-.15.66-5.37h5.67V829H618l-.39,3.22h.07a2.56,2.56,0,0,1,.84-.44,3.13,3.13,0,0,1,1-.18,3.38,3.38,0,0,1,3,1.78,3.87,3.87,0,0,1,.45,1.88,3.74,3.74,0,0,1-.47,1.87,3.52,3.52,0,0,1-1.28,1.29A3.66,3.66,0,0,1,619.41,838.93Z"/><path class="cls-16" d="M628.67,838.93a3.25,3.25,0,0,1-2-.66,4.15,4.15,0,0,1-1.29-1.91,10.43,10.43,0,0,1,0-6.06,4.07,4.07,0,0,1,1.3-1.92,3.5,3.5,0,0,1,4.09,0,4.15,4.15,0,0,1,1.3,1.92,10.43,10.43,0,0,1,0,6.06,4.09,4.09,0,0,1-1.3,1.91A3.21,3.21,0,0,1,628.67,838.93Zm0-1.17a2.05,2.05,0,0,0,1.86-1.16,6.65,6.65,0,0,0,.66-3.28,8.43,8.43,0,0,0-.3-2.41,3.34,3.34,0,0,0-.87-1.52,1.89,1.89,0,0,0-1.35-.52,2,2,0,0,0-1.84,1.16,6.65,6.65,0,0,0-.67,3.29,8.38,8.38,0,0,0,.3,2.41,3.29,3.29,0,0,0,.86,1.51A1.93,1.93,0,0,0,628.67,837.76Z"/><path class="cls-16" d="M634.36,841.44v-9.75h1.09v4.19a2.07,2.07,0,0,0,.24,1,1.71,1.71,0,0,0,.68.68,2.05,2.05,0,0,0,1,.25,2.15,2.15,0,0,0,1-.25,1.71,1.71,0,0,0,.68-.68,2.07,2.07,0,0,0,.24-1v-4.19h1.09v7.09h-1.09v-1.06h-.05a2,2,0,0,1-.8.86,2.25,2.25,0,0,1-2.21,0,2.08,2.08,0,0,1-.8-.86h0v3.72Z"/><path class="cls-16" d="M645.31,841.58a3.94,3.94,0,0,1-1.36-.2,2.91,2.91,0,0,1-.94-.52,3,3,0,0,1-.6-.7l.87-.61c.1.13.22.28.37.45a2,2,0,0,0,.62.44,2.56,2.56,0,0,0,1,.18,2.32,2.32,0,0,0,1.42-.41,1.52,1.52,0,0,0,.55-1.3v-1.44h-.09a4.05,4.05,0,0,1-.34.47,1.85,1.85,0,0,1-.63.51,2.38,2.38,0,0,1-1.1.22,3,3,0,0,1-1.54-.41,2.8,2.8,0,0,1-1.07-1.18,4.17,4.17,0,0,1-.4-1.88,4.33,4.33,0,0,1,.39-1.9,3,3,0,0,1,1.06-1.26,2.84,2.84,0,0,1,1.58-.45,2.28,2.28,0,0,1,1.1.23,1.87,1.87,0,0,1,.63.52c.15.19.26.35.34.47h.11v-1.12h1V839a2.46,2.46,0,0,1-.41,1.49,2.36,2.36,0,0,1-1.11.84A4.22,4.22,0,0,1,645.31,841.58Zm0-3.89a2,2,0,0,0,1.11-.3,1.89,1.89,0,0,0,.69-.87,3.57,3.57,0,0,0,.23-1.34,3.63,3.63,0,0,0-.23-1.36,2,2,0,0,0-.68-.91,1.78,1.78,0,0,0-1.12-.34,1.87,1.87,0,0,0-1.15.35,2.1,2.1,0,0,0-.69,1,3.64,3.64,0,0,0-.23,1.31,3.31,3.31,0,0,0,.24,1.3,1.92,1.92,0,0,0,.69.89A2,2,0,0,0,645.27,837.69Z"/><path class="cls-16" d="M653.71,828.88l-3.05,11.32h-1l3-11.32Z"/><path class="cls-16" d="M655,838.78v-7.09h1.06v1.1h.09a1.82,1.82,0,0,1,.71-.88,2.18,2.18,0,0,1,1.19-.32,2,2,0,0,1,1.17.32,2.11,2.11,0,0,1,.73.88H660a2.12,2.12,0,0,1,.81-.87,2.5,2.5,0,0,1,1.31-.33,2.14,2.14,0,0,1,1.56.6,2.48,2.48,0,0,1,.6,1.84v4.75h-1.09V834a1.33,1.33,0,0,0-.43-1.12,1.6,1.6,0,0,0-1-.34,1.5,1.5,0,0,0-1.16.45,1.64,1.64,0,0,0-.41,1.14v4.62H659.1v-4.86a1.3,1.3,0,0,0-.39-1,1.44,1.44,0,0,0-1-.37,1.48,1.48,0,0,0-.79.23,1.67,1.67,0,0,0-.59.62,1.89,1.89,0,0,0-.23.93v4.43Z"/><path class="cls-16" d="M667.74,834.52a2.4,2.4,0,0,1-1-.18,1.55,1.55,0,0,1-.66-.51,1.34,1.34,0,0,1-.26-.76h.68a.75.75,0,0,0,.18.46,1.08,1.08,0,0,0,.42.3,1.72,1.72,0,0,0,1.21,0,1,1,0,0,0,.43-.35A.86.86,0,0,0,669,833a.94.94,0,0,0-.15-.53,1,1,0,0,0-.45-.37,1.67,1.67,0,0,0-.71-.13h-.44v-.59h.44a1.34,1.34,0,0,0,.58-.12.87.87,0,0,0,.39-.34.92.92,0,0,0,.14-.5,1,1,0,0,0-.12-.49.78.78,0,0,0-.35-.32,1.12,1.12,0,0,0-.53-.12,1.41,1.41,0,0,0-.54.11,1.22,1.22,0,0,0-.41.29.84.84,0,0,0-.17.47H666a1.29,1.29,0,0,1,.26-.76,1.73,1.73,0,0,1,.64-.51,2.05,2.05,0,0,1,.87-.18,1.76,1.76,0,0,1,.88.21,1.39,1.39,0,0,1,.56.54,1.43,1.43,0,0,1,.2.73,1.24,1.24,0,0,1-.25.79,1.26,1.26,0,0,1-.66.46v0a1.3,1.3,0,0,1,.82.44,1.37,1.37,0,0,1,.29.88,1.43,1.43,0,0,1-.24.81,1.65,1.65,0,0,1-.66.56A2.12,2.12,0,0,1,667.74,834.52Z"/><g class="cls-22"><circle class="cls-16" cx="826.78" cy="833.07" r="9.75"/></g><circle class="cls-16" cx="826.78" cy="833.07" r="3.45"/><path d="M839.78,838.78V827.87h6.58V829H841.1v3.69H846v1.17H841.1v3.71h5.35v1.17Z"/><path d="M849.2,827.87l3.24,9.18h.12l3.24-9.18h1.39l-4,10.91h-1.36l-4-10.91Z"/><path d="M858.89,838.78V827.87h6.59V829h-5.27v3.69h4.92v1.17h-4.92v3.71h5.35v1.17Z"/><path d="M876.51,827.87v10.91h-1.28l-5.94-8.57h-.11v8.57h-1.32V827.87h1.28l6,8.59h.1v-8.59Z"/><path d="M878.56,829v-1.17h8.18V829h-3.43v9.74H882V829Z"/><path d="M897.54,833.32a6.76,6.76,0,0,1-.62,3,4.83,4.83,0,0,1-1.71,1.94,4.88,4.88,0,0,1-5,0,4.83,4.83,0,0,1-1.71-1.94,7.5,7.5,0,0,1,0-6,4.77,4.77,0,0,1,1.71-1.94,4.88,4.88,0,0,1,5,0,4.77,4.77,0,0,1,1.71,1.94A6.72,6.72,0,0,1,897.54,833.32Zm-1.28,0a5.39,5.39,0,0,0-.47-2.39,3.41,3.41,0,0,0-1.27-1.47,3.24,3.24,0,0,0-1.79-.5,3.3,3.3,0,0,0-1.8.5,3.48,3.48,0,0,0-1.27,1.47,6.34,6.34,0,0,0,0,4.79,3.54,3.54,0,0,0,1.27,1.47,3.39,3.39,0,0,0,1.8.5,3.33,3.33,0,0,0,1.79-.5,3.47,3.47,0,0,0,1.27-1.47A5.44,5.44,0,0,0,896.26,833.32Z"/></svg>