<svg xmlns="http://www.w3.org/2000/svg" viewBox="0 0 1174.99 900"><defs><style>.cls-1{isolation:isolate;}.cls-2{fill:#b8b8b8;}.cls-3{fill:#efefef;}.cls-4{fill:#ff3a00;}.cls-5{fill:#a8f9ff;}.cls-6{opacity:0.3;}</style></defs><g id="base"><g class="cls-1"><path d="M206.41,773.62h6.78v1.19h-5.42v3.69h4.29v1.19h-4.29v4.17h-1.36Z"/><path d="M215,773.62h6.9v1.19h-5.53v3.25h4.4v1.19h-4.4v3.42H222v1.19h-7Z"/><path d="M224,773.62h4.23c2.22,0,3.27,1,3.27,2.68a2.16,2.16,0,0,1-1.61,2.14v.06a2.32,2.32,0,0,1,2,2.32c0,1.74-1.18,3-3.39,3H224Zm1.37,1.19V778h2.86a1.67,1.67,0,0,0,1.9-1.68c0-.9-.53-1.48-1.9-1.48Zm0,4.35v3.51h3.16a1.77,1.77,0,0,0,2-1.83c0-1-.66-1.68-2-1.68Z"/></g><g class="cls-1"><path d="M131.84,782.37h-.05a3.6,3.6,0,0,1-3.34,1.67,5.31,5.31,0,0,1,.05-10.6,4.29,4.29,0,0,1,4.47,3.22h-1.43a2.91,2.91,0,0,0-3-2c-2.21,0-3.63,1.73-3.63,4s1.48,4,3.58,4c1.71,0,3.27-1,3.27-2.86v-.3H128.5v-1.19H133v5.42h-.89Z"/><path d="M135.41,773.62h6.9v1.19h-5.53v3.25h4.4v1.19h-4.4v3.42h5.65v1.19h-7Z"/><path d="M144.52,773.62h1.31l5.65,7.92h.06l-.06-7.92h1.37v10.24h-1.31L145.89,776h-.06l.06,7.86h-1.37Z"/></g><g class="cls-1"><path d="M284.21,773.62h1.67l3.76,8.39h0l3.71-8.39H295v10.24h-1.36l.11-8.09h-.05l-3.57,8.09h-1.08l-3.57-7.92h-.06l.12,7.92h-1.37Z"/><path d="M300.34,773.62H302l3.81,10.24h-1.43l-1-2.68h-4.49l-1,2.68h-1.37Zm.75,1.43L299.3,780h3.63l-1.78-4.94Z"/><path d="M307.25,773.62h3.87c2.33,0,3.57,1.12,3.57,3a3,3,0,0,1-2.25,3.05l2.6,4.15h-1.48l-2.55-4h-2.39v4h-1.37Zm1.37,1.19v3.87h2.56a1.93,1.93,0,0,0,2.14-2c0-1.13-.77-1.85-2.14-1.85Z"/></g><g class="cls-1"><path d="M372,773.62h1.61l3.8,10.24H376l-1-2.68h-4.49l-1,2.68H368.2Zm.74,1.43L371,780h3.63l-1.79-4.94Z"/><path d="M378.91,773.62h3.87c2.34,0,3.63,1.36,3.63,3.28a3.3,3.3,0,0,1-3.63,3.39h-2.5v3.57h-1.37Zm1.37,1.19v4.29h2.56a2.06,2.06,0,0,0,2.2-2.2,2,2,0,0,0-2.2-2.09Z"/><path d="M388.38,773.62h3.87c2.33,0,3.57,1.12,3.57,3a3,3,0,0,1-2.25,3.05l2.6,4.15h-1.48l-2.55-4h-2.39v4h-1.37Zm1.37,1.19v3.87h2.56a1.94,1.94,0,0,0,2.14-2c0-1.13-.78-1.85-2.14-1.85Z"/></g><g class="cls-1"><path d="M449.81,773.62h1.66l3.77,8.39h0l3.7-8.39h1.67v10.24h-1.37l.12-8.09h-.06l-3.57,8.09h-1.07l-3.57-7.92h-.06l.12,7.92h-1.37Z"/><path d="M465.94,773.62h1.6l3.81,10.24h-1.43l-1-2.68h-4.5l-1,2.68h-1.37Zm.74,1.43L464.9,780h3.63l-1.79-4.94Z"/><path d="M480.28,782.37h0a3.6,3.6,0,0,1-3.35,1.67,5.31,5.31,0,0,1,.06-10.6,4.28,4.28,0,0,1,4.46,3.22H480a2.9,2.9,0,0,0-3-2c-2.22,0-3.63,1.73-3.63,4s1.47,4,3.57,4c1.71,0,3.27-1,3.27-2.86v-.3H477v-1.19h4.46v5.42h-.89Z"/></g><g class="cls-1"><path d="M544.86,782.37h0a3.6,3.6,0,0,1-3.35,1.67,5.31,5.31,0,0,1,.06-10.6,4.28,4.28,0,0,1,4.46,3.22h-1.42a2.92,2.92,0,0,0-3-2c-2.22,0-3.63,1.73-3.63,4s1.47,4,3.57,4c1.71,0,3.27-1,3.27-2.86v-.3h-3.21v-1.19H546v5.42h-.89Z"/><path d="M548.44,773.62h1.36v10.24h-1.36Z"/><path d="M552.19,773.62h1.36v6.19c0,1.88.88,3,2.74,3s2.74-1.1,2.74-3v-6.19h1.37v6.19c0,3-1.68,4.23-4.11,4.23s-4.1-1.19-4.1-4.23Z"/></g><g class="cls-1"><path d="M618.26,773.62h1.36v9h5v1.19h-6.36Z"/><path d="M625.88,773.62h1.36v6.19c0,1.88.88,3,2.74,3s2.74-1.1,2.74-3v-6.19h1.37v6.19c0,3-1.68,4.23-4.11,4.23s-4.1-1.19-4.1-4.23Z"/><path d="M644.33,782.37h-.05a3.6,3.6,0,0,1-3.35,1.67,5.31,5.31,0,0,1,.06-10.6,4.29,4.29,0,0,1,4.47,3.22H644a2.92,2.92,0,0,0-3-2c-2.21,0-3.63,1.73-3.63,4s1.48,4,3.57,4c1.71,0,3.28-1,3.28-2.86v-.3H641v-1.19h4.47v5.42h-.9Z"/></g><g class="cls-1"><path d="M704.29,773.62h1.61l3.81,10.24h-1.43l-1-2.68h-4.49l-1,2.68h-1.37Zm.75,1.43L703.25,780h3.63l-1.78-4.94Z"/><path d="M718.64,782.37h0a3.6,3.6,0,0,1-3.35,1.67,5.31,5.31,0,0,1,.06-10.6,4.29,4.29,0,0,1,4.47,3.22h-1.43a2.92,2.92,0,0,0-3-2c-2.21,0-3.63,1.73-3.63,4s1.48,4,3.57,4c1.71,0,3.28-1,3.28-2.86v-.3H715.3v-1.19h4.47v5.42h-.9Z"/><path d="M726.55,773.44a5.31,5.31,0,0,1,0,10.6c-3,0-5-2.25-5-5.3S723.56,773.44,726.55,773.44Zm0,9.35c2.16,0,3.57-1.73,3.57-4s-1.41-4-3.57-4-3.57,1.73-3.57,4S724.4,782.79,726.55,782.79Z"/></g><g class="cls-1"><path d="M787.83,780.94c0,1.12.95,2,2.56,2s2.62-.7,2.62-1.91c0-2.71-6.4-.65-6.4-4.58,0-1.74,1.51-3,3.78-3s3.75,1.09,3.75,2.92h-1.37c0-1.13-1-1.79-2.38-1.79s-2.38.58-2.38,1.73c0,2.68,6.43.57,6.43,4.64,0,1.85-1.49,3.1-4.05,3.1s-3.93-1.25-3.93-3.1Z"/><path d="M796.58,773.62h6.91v1.19H798v3.25h4.41v1.19H798v3.42h5.66v1.19h-7Z"/><path d="M804.5,773.62H813v1.16h-3.57v9.08h-1.37v-9.08H804.5Z"/></g><g class="cls-1"><path d="M874,773.44a5.31,5.31,0,0,1,0,10.6c-3,0-5-2.25-5-5.3S871,773.44,874,773.44Zm0,9.35c2.16,0,3.57-1.73,3.57-4s-1.41-4-3.57-4-3.57,1.73-3.57,4S871.87,782.79,874,782.79Z"/><path d="M879.26,773.62h8.51v1.16H884.2v9.08h-1.37v-9.08h-3.57Z"/><path d="M888,773.62h8.51v1.16H893v9.08h-1.37v-9.08H888Z"/></g><g class="cls-1"><path d="M951.34,773.62h1.31l5.66,7.92h.06l-.06-7.92h1.37v10.24h-1.31L952.71,776h-.06l.06,7.86h-1.37Z"/><path d="M966.64,773.44a5.31,5.31,0,0,1,0,10.6c-3,0-5-2.25-5-5.3S963.65,773.44,966.64,773.44Zm0,9.35c2.16,0,3.57-1.73,3.57-4s-1.41-4-3.57-4-3.57,1.73-3.57,4S964.48,782.79,966.64,782.79Z"/><path d="M972.12,773.62h1.43l3.06,8.81h.06l3.06-8.81h1.37l-3.75,10.24h-1.51Z"/></g><g class="cls-1"><path d="M1036.17,773.62h3.16c3.52,0,5.35,2.13,5.35,5.12s-1.83,5.12-5.35,5.12h-3.16Zm1.37,1.19v7.86h1.79a3.93,3.93,0,0,0,0-7.86Z"/><path d="M1046.65,773.62H1048v10.24h-1.37Z"/><path d="M1054.92,773.44a4.13,4.13,0,0,1,4.34,3.4h-1.41a2.75,2.75,0,0,0-2.93-2.15c-2.1,0-3.51,1.67-3.51,4s1.41,4,3.45,4a2.74,2.74,0,0,0,3-2.15h1.41a4.19,4.19,0,0,1-4.4,3.4c-2.87,0-4.88-2.19-4.88-5.3S1052,773.44,1054.92,773.44Z"/></g><g class="cls-1"><path class="cls-2" d="M67.9,760.8c0-3,1-5.3,3.57-5.3S75,757.83,75,760.8s-1,5.3-3.57,5.3S67.9,763.78,67.9,760.8Zm5.77,0c0-2.62-.71-4.11-2.2-4.11s-2.2,1.49-2.2,4.11.71,4.11,2.2,4.11S73.67,763.42,73.67,760.8Z"/></g><g class="cls-1"><path class="cls-2" d="M59.69,699.66,63,697.4h1v9.1h2.44v1.14H60V706.5h2.62V699l-2.38,1.65Z"/><path class="cls-2" d="M67.9,702.52c0-3,1-5.3,3.57-5.3s3.57,2.32,3.57,5.3-1,5.29-3.57,5.29S67.9,705.49,67.9,702.52Zm5.77,0c0-2.62-.71-4.11-2.2-4.11s-2.2,1.49-2.2,4.11.71,4.1,2.2,4.1S73.67,705.14,73.67,702.52Z"/></g><g class="cls-1"><path class="cls-2" d="M62.13,645l1.13-.77c1.05-.73,1.72-1.13,1.72-2.32a1.75,1.75,0,0,0-1.9-1.79c-1.31,0-2,.71-2.08,2.08H59.81a3,3,0,0,1,3.27-3.21,2.89,2.89,0,0,1,3.21,2.92c0,1.78-1.14,2.42-2.2,3.15l-1.13.77c-1.55,1.06-1.79,1.8-1.84,2.44h5.29v1.13H59.63A4.83,4.83,0,0,1,62.13,645Z"/><path class="cls-2" d="M67.9,644.24c0-3,1-5.3,3.57-5.3s3.57,2.32,3.57,5.3-1,5.29-3.57,5.29S67.9,647.21,67.9,644.24Zm5.77,0c0-2.62-.71-4.11-2.2-4.11s-2.2,1.49-2.2,4.11.71,4.1,2.2,4.1S73.67,646.86,73.67,644.24Z"/></g><g class="cls-1"><path class="cls-2" d="M60.76,588a2,2,0,0,0,2.2,2.14c1.28,0,2.2-.69,2.2-1.89a2,2,0,0,0-2.2-1.89h-.77v-1.13H63a1.76,1.76,0,0,0,1.84-1.77A1.67,1.67,0,0,0,63,581.79a1.7,1.7,0,0,0-1.84,1.84h-1.2a2.83,2.83,0,0,1,3-3,2.8,2.8,0,0,1,3.09,2.76,2.62,2.62,0,0,1-1.48,2.3v0a2.63,2.63,0,0,1,1.9,2.56c0,1.83-1.56,2.92-3.51,2.92s-3.45-1.07-3.45-3.27Z"/><path class="cls-2" d="M67.9,586c0-3,1-5.29,3.57-5.29S75,583,75,586s-1,5.3-3.57,5.3S67.9,588.93,67.9,586Zm5.77,0c0-2.62-.71-4.1-2.2-4.1s-2.2,1.48-2.2,4.1.71,4.11,2.2,4.11S73.67,588.57,73.67,586Z"/></g><g class="cls-1"><path class="cls-2" d="M59.27,529.28l4.94-6.73h1.07v6.55h1.49v1.13H65.28v2.56H64v-2.56h-4.7Zm4.7-.18v-4.51l-3.36,4.51Z"/><path class="cls-2" d="M67.9,527.67c0-3,1-5.29,3.57-5.29S75,524.7,75,527.67s-1,5.3-3.57,5.3S67.9,530.65,67.9,527.67Zm5.77,0c0-2.62-.71-4.1-2.2-4.1s-2.2,1.48-2.2,4.1.71,4.11,2.2,4.11S73.67,530.29,73.67,527.67Z"/></g><g class="cls-1"><path class="cls-2" d="M60.82,471.77a2,2,0,0,0,2.2,1.79,2.24,2.24,0,0,0,0-4.47,2.47,2.47,0,0,0-2,1l-1.19-.06.29-5.78h5.78v1.19H61.35l-.18,3.22h.06a2.7,2.7,0,0,1,2-.72,3.16,3.16,0,0,1,3.33,3.27A3.32,3.32,0,0,1,63,474.69a3.17,3.17,0,0,1-3.51-2.92Z"/><path class="cls-2" d="M67.9,469.39c0-3,1-5.3,3.57-5.3s3.57,2.33,3.57,5.3-1,5.3-3.57,5.3S67.9,472.37,67.9,469.39Zm5.77,0c0-2.62-.71-4.11-2.2-4.11s-2.2,1.49-2.2,4.11.71,4.11,2.2,4.11S73.67,472,73.67,469.39Z"/></g><g class="cls-1"><path class="cls-2" d="M63.38,405.81a2.83,2.83,0,0,1,3.09,2.74H65.16a1.65,1.65,0,0,0-1.78-1.61c-1.21,0-2.43,1.06-2.5,4.09a2.94,2.94,0,0,1,2.61-1.35A3.1,3.1,0,0,1,66.71,413a3.31,3.31,0,0,1-3.45,3.4c-2,0-3.75-1.3-3.75-5.06C59.51,407.23,61.43,405.81,63.38,405.81ZM61.06,413a2.13,2.13,0,0,0,2.14,2.24,2.23,2.23,0,0,0,.12-4.46A2.19,2.19,0,0,0,61.06,413Z"/><path class="cls-2" d="M67.9,411.11c0-3,1-5.3,3.57-5.3s3.57,2.32,3.57,5.3-1,5.3-3.57,5.3S67.9,414.08,67.9,411.11Zm5.77,0c0-2.62-.71-4.11-2.2-4.11s-2.2,1.49-2.2,4.11.71,4.11,2.2,4.11S73.67,413.73,73.67,411.11Z"/></g><g class="cls-1"><path class="cls-2" d="M65.16,348.9H59.57v-1.19h7v1l-4.34,9.28H60.88Z"/><path class="cls-2" d="M67.9,352.83c0-3,1-5.3,3.57-5.3s3.57,2.32,3.57,5.3-1,5.29-3.57,5.29S67.9,355.8,67.9,352.83Zm5.77,0c0-2.62-.71-4.11-2.2-4.11s-2.2,1.49-2.2,4.11.71,4.1,2.2,4.1S73.67,355.45,73.67,352.83Z"/></g><g class="cls-1"><path class="cls-2" d="M61.35,294.37v-.06A2.49,2.49,0,0,1,59.87,292c0-1.61,1.21-2.77,3.15-2.77s3.15,1.16,3.15,2.77a2.49,2.49,0,0,1-1.48,2.29v.06a2.61,2.61,0,0,1,1.9,2.55c0,1.83-1.44,2.92-3.57,2.92s-3.57-1.09-3.57-2.92A2.61,2.61,0,0,1,61.35,294.37ZM63,298.71c1.32,0,2.26-.69,2.26-1.89a2.3,2.3,0,0,0-4.52,0C60.76,298,61.7,298.71,63,298.71Zm1.9-6.68a1.91,1.91,0,0,0-3.8,0,1.9,1.9,0,0,0,3.8,0Z"/><path class="cls-2" d="M67.9,294.54c0-3,1-5.29,3.57-5.29S75,291.57,75,294.54s-1,5.3-3.57,5.3S67.9,297.52,67.9,294.54Zm5.77,0c0-2.61-.71-4.1-2.2-4.1s-2.2,1.49-2.2,4.1.71,4.11,2.2,4.11S73.67,297.16,73.67,294.54Z"/></g><g class="cls-1"><path class="cls-2" d="M62.78,241.56a2.94,2.94,0,0,1-3.21-2.74h1.31a1.8,1.8,0,0,0,1.9,1.61c1.38,0,2.32-1.06,2.38-4.08a3,3,0,0,1-2.62,1.34,3.09,3.09,0,0,1-3.21-3.33A3.3,3.3,0,0,1,62.78,231c2,0,3.75,1.29,3.75,5.05C66.53,240.15,64.91,241.56,62.78,241.56Zm2.2-7.22a2.17,2.17,0,1,0-4.34,0,2.1,2.1,0,0,0,2.08,2.2A2.19,2.19,0,0,0,65,234.34Z"/><path class="cls-2" d="M67.9,236.26c0-3,1-5.29,3.57-5.29S75,233.29,75,236.26s-1,5.3-3.57,5.3S67.9,239.24,67.9,236.26Zm5.77,0c0-2.62-.71-4.1-2.2-4.1s-2.2,1.48-2.2,4.1.71,4.11,2.2,4.11S73.67,238.88,73.67,236.26Z"/></g><g class="cls-1"><path class="cls-2" d="M51.23,175.12l3.28-2.26h1V182H58v1.13H51.59V182h2.62v-7.49l-2.38,1.66Z"/><path class="cls-2" d="M59.45,178c0-3,1-5.3,3.57-5.3s3.57,2.33,3.57,5.3-1,5.3-3.57,5.3S59.45,181,59.45,178Zm5.77,0c0-2.62-.71-4.11-2.2-4.11s-2.2,1.49-2.2,4.11.71,4.11,2.2,4.11S65.22,180.6,65.22,178Z"/><path class="cls-2" d="M67.9,178c0-3,1-5.3,3.57-5.3S75,175,75,178s-1,5.3-3.57,5.3S67.9,181,67.9,178Zm5.77,0c0-2.62-.71-4.11-2.2-4.11s-2.2,1.49-2.2,4.11.71,4.11,2.2,4.11S73.67,180.6,73.67,178Z"/></g><g class="cls-1"><path class="cls-2" d="M51.23,83.46l3.28-2.26h1v9.1H58v1.13H51.59V90.3h2.62V82.82l-2.38,1.65Z"/><path class="cls-2" d="M60.76,88.34A2,2,0,0,0,63,90.48c1.28,0,2.2-.68,2.2-1.89A2,2,0,0,0,63,86.7h-.77V85.57H63A1.76,1.76,0,0,0,64.8,83.8,1.67,1.67,0,0,0,63,82.15,1.7,1.7,0,0,0,61.12,84h-1.2a3.07,3.07,0,0,1,6.13-.2,2.61,2.61,0,0,1-1.48,2.29v.06a2.62,2.62,0,0,1,1.9,2.56c0,1.83-1.56,2.91-3.51,2.91s-3.45-1.07-3.45-3.27Z"/><path class="cls-2" d="M67.9,86.32c0-3,1-5.3,3.57-5.3S75,83.34,75,86.32s-1,5.29-3.57,5.29S67.9,89.29,67.9,86.32Zm5.77,0c0-2.62-.71-4.11-2.2-4.11s-2.2,1.49-2.2,4.11.71,4.1,2.2,4.1S73.67,88.93,73.67,86.32Z"/></g><g class="cls-1"><path d="M1107.47,83.46l3.27-2.26h1v9.1h2.44v1.13h-6.36V90.3h2.61V82.82l-2.38,1.65Z"/><path d="M1117,88.34a2,2,0,0,0,2.2,2.14c1.28,0,2.2-.68,2.2-1.89a2,2,0,0,0-2.2-1.89h-.77V85.57h.77A1.77,1.77,0,0,0,1121,83.8a1.67,1.67,0,0,0-1.85-1.65,1.7,1.7,0,0,0-1.84,1.84h-1.19a3.07,3.07,0,0,1,6.13-.2,2.62,2.62,0,0,1-1.49,2.29v.06a2.62,2.62,0,0,1,1.9,2.56c0,1.83-1.56,2.91-3.51,2.91s-3.45-1.07-3.45-3.27Z"/><path d="M1124.13,86.32c0-3,1-5.3,3.57-5.3s3.58,2.32,3.58,5.3-1,5.29-3.58,5.29S1124.13,89.29,1124.13,86.32Zm5.78,0c0-2.62-.72-4.11-2.21-4.11s-2.2,1.49-2.2,4.11.72,4.1,2.2,4.1S1129.91,88.93,1129.91,86.32Z"/></g><g class="cls-1"><path d="M1107.23,760.8c0-3,1-5.3,3.57-5.3s3.57,2.33,3.57,5.3-1,5.3-3.57,5.3S1107.23,763.78,1107.23,760.8Zm5.77,0c0-2.62-.71-4.11-2.2-4.11s-2.2,1.49-2.2,4.11.71,4.11,2.2,4.11S1113,763.42,1113,760.8Z"/></g><g class="cls-1"><path d="M1107.47,699.66l3.27-2.26h1v9.1h2.44v1.14h-6.36V706.5h2.61V699l-2.38,1.65Z"/><path d="M1115.68,702.52c0-3,1-5.3,3.57-5.3s3.57,2.32,3.57,5.3-1,5.29-3.57,5.29S1115.68,705.49,1115.68,702.52Zm5.77,0c0-2.62-.71-4.11-2.2-4.11s-2.2,1.49-2.2,4.11.72,4.1,2.2,4.1S1121.45,705.14,1121.45,702.52Z"/></g><g class="cls-1"><path d="M1109.91,645l1.13-.77c1.06-.73,1.73-1.13,1.73-2.32a1.76,1.76,0,0,0-1.91-1.79c-1.31,0-2,.71-2.08,2.08h-1.19a3,3,0,0,1,3.27-3.21c1.88,0,3.21,1.09,3.21,2.92s-1.14,2.42-2.2,3.15l-1.13.77c-1.54,1.06-1.78,1.8-1.84,2.44h5.29v1.13h-6.78A4.84,4.84,0,0,1,1109.91,645Z"/><path d="M1115.68,644.24c0-3,1-5.3,3.57-5.3s3.57,2.32,3.57,5.3-1,5.29-3.57,5.29S1115.68,647.21,1115.68,644.24Zm5.77,0c0-2.62-.71-4.11-2.2-4.11s-2.2,1.49-2.2,4.11.72,4.1,2.2,4.1S1121.45,646.86,1121.45,644.24Z"/></g><g class="cls-1"><path d="M1108.54,588a2,2,0,0,0,2.2,2.14c1.28,0,2.2-.69,2.2-1.89a2,2,0,0,0-2.2-1.89H1110v-1.13h.77a1.77,1.77,0,0,0,1.85-1.77,1.67,1.67,0,0,0-1.85-1.65,1.7,1.7,0,0,0-1.84,1.84h-1.19a3.07,3.07,0,0,1,6.13-.21,2.63,2.63,0,0,1-1.49,2.3v0a2.63,2.63,0,0,1,1.9,2.56c0,1.83-1.56,2.92-3.51,2.92s-3.45-1.07-3.45-3.27Z"/><path d="M1115.68,586c0-3,1-5.29,3.57-5.29s3.57,2.32,3.57,5.29-1,5.3-3.57,5.3S1115.68,588.93,1115.68,586Zm5.77,0c0-2.62-.71-4.1-2.2-4.1s-2.2,1.48-2.2,4.1.72,4.11,2.2,4.11S1121.45,588.57,1121.45,586Z"/></g><g class="cls-1"><path d="M1107.05,529.28l4.94-6.73h1.07v6.55h1.49v1.13h-1.49v2.56h-1.31v-2.56h-4.7Zm4.7-.18v-4.51l-3.36,4.51Z"/><path d="M1115.68,527.67c0-3,1-5.29,3.57-5.29s3.57,2.32,3.57,5.29-1,5.3-3.57,5.3S1115.68,530.65,1115.68,527.67Zm5.77,0c0-2.62-.71-4.1-2.2-4.1s-2.2,1.48-2.2,4.1.72,4.11,2.2,4.11S1121.45,530.29,1121.45,527.67Z"/></g><g class="cls-1"><path d="M1108.6,471.77a2,2,0,0,0,2.2,1.79,2.24,2.24,0,0,0,0-4.47,2.47,2.47,0,0,0-2,1l-1.19-.06.3-5.78h5.77v1.19h-4.59l-.17,3.22h.06a2.67,2.67,0,0,1,2-.72,3.16,3.16,0,0,1,3.33,3.27,3.32,3.32,0,0,1-3.51,3.46,3.17,3.17,0,0,1-3.51-2.92Z"/><path d="M1115.68,469.39c0-3,1-5.3,3.57-5.3s3.57,2.33,3.57,5.3-1,5.3-3.57,5.3S1115.68,472.37,1115.68,469.39Zm5.77,0c0-2.62-.71-4.11-2.2-4.11s-2.2,1.49-2.2,4.11.72,4.11,2.2,4.11S1121.45,472,1121.45,469.39Z"/></g><g class="cls-1"><path d="M1111.16,405.81a2.83,2.83,0,0,1,3.09,2.74h-1.31a1.65,1.65,0,0,0-1.78-1.61c-1.21,0-2.43,1.06-2.5,4.09a3,3,0,0,1,2.62-1.35,3.09,3.09,0,0,1,3.21,3.33,3.31,3.31,0,0,1-3.45,3.4c-2,0-3.75-1.3-3.75-5.06C1107.29,407.23,1109.21,405.81,1111.16,405.81Zm-2.32,7.22a2.13,2.13,0,0,0,2.14,2.24,2.23,2.23,0,0,0,.12-4.46A2.19,2.19,0,0,0,1108.84,413Z"/><path d="M1115.68,411.11c0-3,1-5.3,3.57-5.3s3.57,2.32,3.57,5.3-1,5.3-3.57,5.3S1115.68,414.08,1115.68,411.11Zm5.77,0c0-2.62-.71-4.11-2.2-4.11s-2.2,1.49-2.2,4.11.72,4.11,2.2,4.11S1121.45,413.73,1121.45,411.11Z"/></g><g class="cls-1"><path d="M1112.94,348.9h-5.59v-1.19h7v1l-4.34,9.28h-1.37Z"/><path d="M1115.68,352.83c0-3,1-5.3,3.57-5.3s3.57,2.32,3.57,5.3-1,5.29-3.57,5.29S1115.68,355.8,1115.68,352.83Zm5.77,0c0-2.62-.71-4.11-2.2-4.11s-2.2,1.49-2.2,4.11.72,4.1,2.2,4.1S1121.45,355.45,1121.45,352.83Z"/></g><g class="cls-1"><path d="M1109.13,294.37v-.06a2.49,2.49,0,0,1-1.48-2.29c0-1.61,1.22-2.77,3.15-2.77s3.15,1.16,3.15,2.77a2.49,2.49,0,0,1-1.48,2.29v.06a2.61,2.61,0,0,1,1.9,2.55c0,1.83-1.44,2.92-3.57,2.92s-3.57-1.09-3.57-2.92A2.61,2.61,0,0,1,1109.13,294.37Zm1.67,4.34c1.32,0,2.26-.69,2.26-1.89a2.3,2.3,0,0,0-4.52,0C1108.54,298,1109.48,298.71,1110.8,298.71Zm1.9-6.68a1.91,1.91,0,0,0-3.8,0,1.9,1.9,0,0,0,3.8,0Z"/><path d="M1115.68,294.54c0-3,1-5.29,3.57-5.29s3.57,2.32,3.57,5.29-1,5.3-3.57,5.3S1115.68,297.52,1115.68,294.54Zm5.77,0c0-2.61-.71-4.1-2.2-4.1s-2.2,1.49-2.2,4.1.72,4.11,2.2,4.11S1121.45,297.16,1121.45,294.54Z"/></g><g class="cls-1"><path d="M1110.56,241.56a2.94,2.94,0,0,1-3.21-2.74h1.31a1.8,1.8,0,0,0,1.9,1.61c1.39,0,2.32-1.06,2.38-4.08a3,3,0,0,1-2.61,1.34,3.1,3.1,0,0,1-3.22-3.33,3.3,3.3,0,0,1,3.45-3.39c2,0,3.75,1.29,3.75,5.05C1114.31,240.15,1112.69,241.56,1110.56,241.56Zm2.21-7.22a2.16,2.16,0,0,0-2.15-2.24,2.14,2.14,0,0,0-2.2,2.26,2.1,2.1,0,0,0,2.08,2.2A2.2,2.2,0,0,0,1112.77,234.34Z"/><path d="M1115.68,236.26c0-3,1-5.29,3.57-5.29s3.57,2.32,3.57,5.29-1,5.3-3.57,5.3S1115.68,239.24,1115.68,236.26Zm5.77,0c0-2.62-.71-4.1-2.2-4.1s-2.2,1.48-2.2,4.1.72,4.11,2.2,4.11S1121.45,238.88,1121.45,236.26Z"/></g><g class="cls-1"><path d="M1107.47,175.12l3.27-2.26h1V182h2.44v1.13h-6.36V182h2.61v-7.49l-2.38,1.66Z"/><path d="M1115.68,178c0-3,1-5.3,3.57-5.3s3.57,2.33,3.57,5.3-1,5.3-3.57,5.3S1115.68,181,1115.68,178Zm5.77,0c0-2.62-.71-4.11-2.2-4.11s-2.2,1.49-2.2,4.11.72,4.11,2.2,4.11S1121.45,180.6,1121.45,178Z"/><path d="M1124.13,178c0-3,1-5.3,3.57-5.3s3.58,2.33,3.58,5.3-1,5.3-3.58,5.3S1124.13,181,1124.13,178Zm5.78,0c0-2.62-.72-4.11-2.21-4.11s-2.2,1.49-2.2,4.11.72,4.11,2.2,4.11S1129.91,180.6,1129.91,178Z"/></g><path d="M1104.52,43.34h1.57v1.34h.07a2.86,2.86,0,0,1,2.75-1.56,2.79,2.79,0,0,1,2.83,1.84,3,3,0,0,1,3-1.84c1.71,0,3.13,1,3.13,3.64v5.66h-1.64V47c0-1.78-.6-2.45-1.86-2.45s-2.38,1.21-2.38,3.16v4.73h-1.64V47c0-1.78-.67-2.45-1.86-2.45s-2.38,1.21-2.38,3.18v4.71h-1.64Z"/><path d="M1120.59,43.34h1.57v1.34h.07a2.86,2.86,0,0,1,2.75-1.56,2.79,2.79,0,0,1,2.83,1.84,3,3,0,0,1,3-1.84c1.71,0,3.13,1,3.13,3.64v5.66h-1.64V47c0-1.78-.6-2.45-1.86-2.45s-2.38,1.21-2.38,3.16v4.73h-1.64V47c0-1.78-.67-2.45-1.86-2.45s-2.38,1.21-2.38,3.18v4.71h-1.64Z"/><path class="cls-2" d="M42.79,50.85v1.42H41.15V39.1h1.64v5.28c0,1.93.74,2.6,2.08,2.6s2.38-1.26,2.38-3.2V39.1h1.64v9.07H47.33V46.84h-.08A2.79,2.79,0,0,1,44.5,48.4a3.23,3.23,0,0,1-1.82-.52h-.12A20.43,20.43,0,0,1,42.79,50.85Z"/><path class="cls-2" d="M52.83,49.29c0,1.12,1,1.79,2.46,1.79,1.6,0,2.9-.8,2.9-3.35v-1h-.07a3.2,3.2,0,0,1-3.06,1.64c-2.3,0-4-1.71-4-4.69s1.86-4.84,4.16-4.84a3,3,0,0,1,2.91,1.64h.07V39.1h1.56v8.63c0,3.44-2,4.69-4.46,4.69-2.27,0-4-1.08-4-3.13ZM55.44,47c1.48,0,2.68-1.19,2.68-3.34s-1.2-3.35-2.68-3.35-2.68,1.26-2.68,3.42S54,47,55.44,47Z"/><path class="cls-2" d="M67,35.15h1.42L62.73,48.4H61.31Z"/><path class="cls-2" d="M68.68,39.1h1.56v1.34h.08a2.87,2.87,0,0,1,2.75-1.57,2.8,2.8,0,0,1,2.83,1.85,3,3,0,0,1,3-1.85c1.71,0,3.12,1,3.12,3.65v5.65H80.44V42.74c0-1.78-.6-2.45-1.86-2.45S76.2,41.5,76.2,43.45v4.72H74.56V42.74c0-1.78-.67-2.45-1.86-2.45s-2.38,1.21-2.38,3.18v4.7H68.68Z"/><path class="cls-2" d="M84.77,39.72a1.45,1.45,0,0,0,1.6,1.57c.94,0,1.61-.5,1.61-1.38a1.46,1.46,0,0,0-1.61-1.38h-.56v-.82h.56a1.29,1.29,0,0,0,1.35-1.3,1.22,1.22,0,0,0-1.35-1.2A1.25,1.25,0,0,0,85,36.56h-.87a2.24,2.24,0,0,1,4.47-.16,1.89,1.89,0,0,1-1.08,1.67v0A1.91,1.91,0,0,1,88.94,40c0,1.34-1.14,2.13-2.57,2.13a2.23,2.23,0,0,1-2.51-2.39Z"/><rect class="cls-3" x="96.25" y="73.36" width="288.1" height="687.99"/><rect class="cls-3" x="881.7" y="73.36" width="206.56" height="687.99"/><path class="cls-2" d="M180.5,761.64a.3.3,0,0,1-.3-.3V158.08a.31.31,0,0,1,.3-.3.3.3,0,0,1,.3.3V761.34A.29.29,0,0,1,180.5,761.64Z"/><path class="cls-2" d="M259.32,761.64a.3.3,0,0,1-.3-.3V158.08a.31.31,0,0,1,.3-.3.3.3,0,0,1,.3.3V761.34A.29.29,0,0,1,259.32,761.64Z"/><path class="cls-2" d="M343.58,761.64a.29.29,0,0,1-.3-.3V158.08a.3.3,0,1,1,.59,0V761.34A.29.29,0,0,1,343.58,761.64Z"/><path class="cls-2" d="M425.11,761.64a.29.29,0,0,1-.3-.3V158.08a.3.3,0,0,1,.6,0V761.34A.29.29,0,0,1,425.11,761.64Z"/><path class="cls-2" d="M509.36,761.64a.3.3,0,0,1-.3-.3V158.08a.31.31,0,0,1,.3-.3.3.3,0,0,1,.3.3V761.34A.29.29,0,0,1,509.36,761.64Z"/><path class="cls-2" d="M590.9,761.64a.29.29,0,0,1-.3-.3V158.08a.3.3,0,1,1,.6,0V761.34A.29.29,0,0,1,590.9,761.64Z"/><path class="cls-2" d="M675.15,761.64a.3.3,0,0,1-.3-.3V158.08a.31.31,0,0,1,.3-.3.3.3,0,0,1,.3.3V761.34A.29.29,0,0,1,675.15,761.64Z"/><path class="cls-2" d="M759.41,761.64a.29.29,0,0,1-.3-.3V158.08a.3.3,0,1,1,.59,0V761.34A.29.29,0,0,1,759.41,761.64Z"/><path class="cls-2" d="M840.94,761.64a.29.29,0,0,1-.3-.3V158.08a.3.3,0,0,1,.6,0V761.34A.29.29,0,0,1,840.94,761.64Z"/><path class="cls-2" d="M925.19,761.64a.3.3,0,0,1-.3-.3V158.08a.31.31,0,0,1,.3-.3.3.3,0,0,1,.3.3V761.34A.29.29,0,0,1,925.19,761.64Z"/><path class="cls-2" d="M1006.73,761.64a.29.29,0,0,1-.3-.3V158.08a.3.3,0,0,1,.3-.3.31.31,0,0,1,.3.3V761.34A.3.3,0,0,1,1006.73,761.64Z"/><path class="cls-2" d="M96.25,761.64a.3.3,0,0,1-.3-.3V158.08a.31.31,0,0,1,.3-.3.3.3,0,0,1,.3.3V761.34A.29.29,0,0,1,96.25,761.64Z"/><path class="cls-2" d="M1088.26,761.64a.3.3,0,0,1-.3-.3V158.08a.31.31,0,0,1,.3-.3.3.3,0,0,1,.3.3V761.34A.29.29,0,0,1,1088.26,761.64Z"/><path class="cls-2" d="M96.27,101.91a.31.31,0,0,1-.3-.3V73.36a.3.3,0,0,1,.3-.3.29.29,0,0,1,.3.3v28.25A.3.3,0,0,1,96.27,101.91Z"/><path class="cls-2" d="M180.5,101.91a.31.31,0,0,1-.3-.3V73.36a.3.3,0,0,1,.3-.3.29.29,0,0,1,.3.3v28.25A.3.3,0,0,1,180.5,101.91Z"/><path class="cls-2" d="M96.27,149.53a.3.3,0,0,1-.3-.3v-6a.31.31,0,0,1,.3-.3.3.3,0,0,1,.3.3v6A.29.29,0,0,1,96.27,149.53Z"/><path class="cls-2" d="M96.27,134.41a.3.3,0,0,1-.3-.3V125a.3.3,0,0,1,.3-.3.29.29,0,0,1,.3.3v9.12A.29.29,0,0,1,96.27,134.41Z"/><path class="cls-2" d="M96.27,116.17a.3.3,0,0,1-.3-.3v-6a.3.3,0,0,1,.3-.3.29.29,0,0,1,.3.3v6A.29.29,0,0,1,96.27,116.17Z"/><path class="cls-2" d="M180.5,149.53a.3.3,0,0,1-.3-.3v-6a.31.31,0,0,1,.3-.3.3.3,0,0,1,.3.3v6A.29.29,0,0,1,180.5,149.53Z"/><path class="cls-2" d="M180.5,134.41a.3.3,0,0,1-.3-.3V125a.3.3,0,0,1,.3-.3.29.29,0,0,1,.3.3v9.12A.29.29,0,0,1,180.5,134.41Z"/><path class="cls-2" d="M180.5,116.17a.3.3,0,0,1-.3-.3v-6a.3.3,0,0,1,.3-.3.29.29,0,0,1,.3.3v6A.29.29,0,0,1,180.5,116.17Z"/><path class="cls-2" d="M259.32,101.91a.31.31,0,0,1-.3-.3V73.36a.3.3,0,0,1,.3-.3.29.29,0,0,1,.3.3v28.25A.3.3,0,0,1,259.32,101.91Z"/><path class="cls-2" d="M259.32,149.53a.3.3,0,0,1-.3-.3v-6a.31.31,0,0,1,.3-.3.3.3,0,0,1,.3.3v6A.29.29,0,0,1,259.32,149.53Z"/><path class="cls-2" d="M259.32,134.41a.3.3,0,0,1-.3-.3V125a.3.3,0,0,1,.3-.3.29.29,0,0,1,.3.3v9.12A.29.29,0,0,1,259.32,134.41Z"/><path class="cls-2" d="M259.32,116.17a.3.3,0,0,1-.3-.3v-6a.3.3,0,0,1,.3-.3.29.29,0,0,1,.3.3v6A.29.29,0,0,1,259.32,116.17Z"/><path class="cls-2" d="M343.58,101.91a.3.3,0,0,1-.3-.3V73.36a.3.3,0,1,1,.59,0v28.25A.3.3,0,0,1,343.58,101.91Z"/><path class="cls-2" d="M343.58,149.53a.29.29,0,0,1-.3-.3v-6a.3.3,0,1,1,.59,0v6A.29.29,0,0,1,343.58,149.53Z"/><path class="cls-2" d="M343.58,134.41a.29.29,0,0,1-.3-.3V125a.3.3,0,1,1,.59,0v9.12A.29.29,0,0,1,343.58,134.41Z"/><path class="cls-2" d="M343.58,116.17a.29.29,0,0,1-.3-.3v-6a.3.3,0,1,1,.59,0v6A.29.29,0,0,1,343.58,116.17Z"/><path class="cls-2" d="M425.11,101.91a.3.3,0,0,1-.3-.3V73.36a.3.3,0,0,1,.6,0v28.25A.3.3,0,0,1,425.11,101.91Z"/><path class="cls-2" d="M425.11,149.53a.29.29,0,0,1-.3-.3v-6a.3.3,0,1,1,.6,0v6A.29.29,0,0,1,425.11,149.53Z"/><path class="cls-2" d="M425.11,134.41a.29.29,0,0,1-.3-.3V125a.3.3,0,0,1,.6,0v9.12A.29.29,0,0,1,425.11,134.41Z"/><path class="cls-2" d="M425.11,116.17a.29.29,0,0,1-.3-.3v-6a.3.3,0,0,1,.6,0v6A.29.29,0,0,1,425.11,116.17Z"/><path class="cls-2" d="M509.36,101.91a.31.31,0,0,1-.3-.3V73.36a.3.3,0,0,1,.3-.3.29.29,0,0,1,.3.3v28.25A.3.3,0,0,1,509.36,101.91Z"/><path class="cls-2" d="M509.36,149.53a.3.3,0,0,1-.3-.3v-6a.31.31,0,0,1,.3-.3.3.3,0,0,1,.3.3v6A.29.29,0,0,1,509.36,149.53Z"/><path class="cls-2" d="M509.36,134.41a.3.3,0,0,1-.3-.3V125a.3.3,0,0,1,.3-.3.29.29,0,0,1,.3.3v9.12A.29.29,0,0,1,509.36,134.41Z"/><path class="cls-2" d="M509.36,116.17a.3.3,0,0,1-.3-.3v-6a.3.3,0,0,1,.3-.3.29.29,0,0,1,.3.3v6A.29.29,0,0,1,509.36,116.17Z"/><path class="cls-2" d="M590.9,101.91a.3.3,0,0,1-.3-.3V73.36a.3.3,0,0,1,.6,0v28.25A.3.3,0,0,1,590.9,101.91Z"/><path class="cls-2" d="M590.9,149.53a.29.29,0,0,1-.3-.3v-6a.3.3,0,0,1,.3-.3.31.31,0,0,1,.3.3v6A.3.3,0,0,1,590.9,149.53Z"/><path class="cls-2" d="M590.9,134.41a.29.29,0,0,1-.3-.3V125a.29.29,0,0,1,.3-.3.3.3,0,0,1,.3.3v9.12A.3.3,0,0,1,590.9,134.41Z"/><path class="cls-2" d="M590.9,116.17a.29.29,0,0,1-.3-.3v-6a.29.29,0,0,1,.3-.3.3.3,0,0,1,.3.3v6A.3.3,0,0,1,590.9,116.17Z"/><path class="cls-2" d="M675.15,101.91a.31.31,0,0,1-.3-.3V73.36a.3.3,0,0,1,.3-.3.29.29,0,0,1,.3.3v28.25A.3.3,0,0,1,675.15,101.91Z"/><path class="cls-2" d="M675.15,149.53a.3.3,0,0,1-.3-.3v-6a.31.31,0,0,1,.3-.3.3.3,0,0,1,.3.3v6A.29.29,0,0,1,675.15,149.53Z"/><path class="cls-2" d="M675.15,134.41a.3.3,0,0,1-.3-.3V125a.3.3,0,0,1,.3-.3.29.29,0,0,1,.3.3v9.12A.29.29,0,0,1,675.15,134.41Z"/><path class="cls-2" d="M675.15,116.17a.3.3,0,0,1-.3-.3v-6a.3.3,0,0,1,.3-.3.29.29,0,0,1,.3.3v6A.29.29,0,0,1,675.15,116.17Z"/><path class="cls-2" d="M759.41,101.91a.3.3,0,0,1-.3-.3V73.36a.3.3,0,1,1,.59,0v28.25A.3.3,0,0,1,759.41,101.91Z"/><path class="cls-2" d="M759.41,149.53a.29.29,0,0,1-.3-.3v-6a.3.3,0,1,1,.59,0v6A.29.29,0,0,1,759.41,149.53Z"/><path class="cls-2" d="M759.41,134.41a.29.29,0,0,1-.3-.3V125a.3.3,0,1,1,.59,0v9.12A.29.29,0,0,1,759.41,134.41Z"/><path class="cls-2" d="M759.41,116.17a.29.29,0,0,1-.3-.3v-6a.3.3,0,1,1,.59,0v6A.29.29,0,0,1,759.41,116.17Z"/><path class="cls-2" d="M840.94,101.91a.3.3,0,0,1-.3-.3V73.36a.3.3,0,1,1,.6,0v28.25A.3.3,0,0,1,840.94,101.91Z"/><path class="cls-2" d="M840.94,149.53a.29.29,0,0,1-.3-.3v-6a.3.3,0,1,1,.6,0v6A.29.29,0,0,1,840.94,149.53Z"/><path class="cls-2" d="M840.94,134.41a.29.29,0,0,1-.3-.3V125a.3.3,0,1,1,.6,0v9.12A.29.29,0,0,1,840.94,134.41Z"/><path class="cls-2" d="M840.94,116.17a.29.29,0,0,1-.3-.3v-6a.3.3,0,0,1,.6,0v6A.29.29,0,0,1,840.94,116.17Z"/><path class="cls-2" d="M925.19,101.91a.31.31,0,0,1-.3-.3V73.36a.3.3,0,0,1,.3-.3.29.29,0,0,1,.3.3v28.25A.3.3,0,0,1,925.19,101.91Z"/><path class="cls-2" d="M925.19,149.53a.3.3,0,0,1-.3-.3v-6a.31.31,0,0,1,.3-.3.3.3,0,0,1,.3.3v6A.29.29,0,0,1,925.19,149.53Z"/><path class="cls-2" d="M925.19,134.41a.3.3,0,0,1-.3-.3V125a.3.3,0,0,1,.3-.3.29.29,0,0,1,.3.3v9.12A.29.29,0,0,1,925.19,134.41Z"/><path class="cls-2" d="M925.19,116.17a.3.3,0,0,1-.3-.3v-6a.3.3,0,0,1,.3-.3.29.29,0,0,1,.3.3v6A.29.29,0,0,1,925.19,116.17Z"/><path class="cls-2" d="M1006.73,101.91a.3.3,0,0,1-.3-.3V73.36a.29.29,0,0,1,.3-.3.3.3,0,0,1,.3.3v28.25A.31.31,0,0,1,1006.73,101.91Z"/><path class="cls-2" d="M1006.73,149.53a.29.29,0,0,1-.3-.3v-6a.3.3,0,0,1,.3-.3.31.31,0,0,1,.3.3v6A.3.3,0,0,1,1006.73,149.53Z"/><path class="cls-2" d="M1006.73,134.41a.29.29,0,0,1-.3-.3V125a.29.29,0,0,1,.3-.3.3.3,0,0,1,.3.3v9.12A.3.3,0,0,1,1006.73,134.41Z"/><path class="cls-2" d="M1006.73,116.17a.29.29,0,0,1-.3-.3v-6a.29.29,0,0,1,.3-.3.3.3,0,0,1,.3.3v6A.3.3,0,0,1,1006.73,116.17Z"/><path class="cls-2" d="M1088.26,101.91a.31.31,0,0,1-.3-.3V73.36a.3.3,0,0,1,.3-.3.29.29,0,0,1,.3.3v28.25A.3.3,0,0,1,1088.26,101.91Z"/><path class="cls-2" d="M1088.26,149.53a.3.3,0,0,1-.3-.3v-6a.31.31,0,0,1,.3-.3.3.3,0,0,1,.3.3v6A.29.29,0,0,1,1088.26,149.53Z"/><path class="cls-2" d="M1088.26,134.41a.3.3,0,0,1-.3-.3V125a.3.3,0,0,1,.3-.3.29.29,0,0,1,.3.3v9.12A.29.29,0,0,1,1088.26,134.41Z"/><path class="cls-2" d="M1088.26,116.17a.3.3,0,0,1-.3-.3v-6a.3.3,0,0,1,.3-.3.29.29,0,0,1,.3.3v6A.29.29,0,0,1,1088.26,116.17Z"/><circle cx="96.25" cy="487.56" r="2.97"/><circle cx="98.97" cy="516.7" r="2.97"/><circle cx="101.69" cy="668.23" r="2.97"/><circle cx="104.41" cy="609.95" r="2.97"/><circle cx="107.12" cy="580.81" r="2.97"/><circle cx="109.84" cy="592.47" r="2.97"/><circle cx="112.56" cy="592.47" r="2.97"/><circle cx="120.71" cy="621.61" r="2.97"/><circle cx="123.43" cy="685.72" r="2.97"/><circle cx="126.15" cy="639.09" r="2.97"/><circle cx="128.87" cy="650.75" r="2.97"/><circle cx="131.58" cy="609.95" r="2.97"/><circle cx="134.3" cy="639.09" r="2.97"/><circle cx="137.02" cy="574.98" r="2.97"/><circle cx="139.74" cy="685.72" r="2.97"/><circle cx="142.45" cy="650.75" r="2.97"/><circle cx="145.17" cy="545.84" r="2.97"/><circle cx="147.89" cy="481.74" r="2.97"/><circle cx="164.2" cy="540.02" r="2.97"/><circle cx="166.92" cy="481.74" r="2.97"/><circle cx="180.5" cy="516.7" r="2.97"/><circle cx="183.22" cy="505.05" r="2.97"/><circle cx="188.66" cy="674.06" r="2.97"/><circle cx="191.38" cy="580.81" r="2.97"/><circle cx="194.09" cy="516.7" r="2.97"/><circle cx="196.81" cy="633.27" r="2.97"/><circle cx="199.53" cy="586.64" r="2.97"/><circle cx="202.25" cy="656.58" r="2.97"/><circle cx="204.97" cy="703.2" r="2.97"/><circle cx="207.68" cy="644.92" r="2.97"/><circle cx="210.4" cy="592.47" r="2.97"/><circle cx="213.12" cy="569.16" r="2.97"/><circle cx="215.84" cy="516.7" r="2.97"/><circle cx="218.55" cy="609.95" r="2.97"/><circle cx="221.27" cy="679.89" r="2.97"/><circle cx="223.99" cy="674.06" r="2.97"/><circle cx="226.71" cy="621.61" r="2.97"/><circle cx="240.3" cy="493.39" r="2.97"/><circle cx="243.01" cy="563.33" r="2.97"/><circle cx="245.73" cy="615.78" r="2.97"/><circle cx="248.45" cy="551.67" r="2.97"/><circle cx="251.17" cy="656.58" r="2.97"/><circle cx="253.89" cy="609.95" r="2.97"/><circle cx="256.6" cy="691.55" r="2.97"/><circle cx="259.32" cy="598.3" r="2.97"/><circle cx="262.04" cy="685.72" r="2.97"/><circle cx="264.76" cy="720.69" r="2.97"/><circle cx="267.48" cy="709.03" r="2.97"/><circle cx="270.19" cy="697.37" r="2.97"/><circle cx="272.91" cy="574.98" r="2.97"/><circle cx="275.63" cy="586.64" r="2.97"/><circle cx="278.35" cy="685.72" r="2.97"/><circle cx="281.06" cy="685.72" r="2.97"/><circle cx="283.78" cy="580.81" r="2.97"/><circle cx="286.5" cy="609.95" r="2.97"/><circle cx="289.22" cy="551.67" r="2.97"/><circle cx="291.94" cy="633.27" r="2.97"/><circle cx="294.65" cy="627.44" r="2.97"/><circle cx="297.37" cy="627.44" r="2.97"/><circle cx="300.09" cy="668.23" r="2.97"/><circle cx="302.81" cy="569.16" r="2.97"/><circle cx="305.53" cy="574.98" r="2.97"/><circle cx="308.24" cy="656.58" r="2.97"/><circle cx="310.96" cy="703.2" r="2.97"/><circle cx="313.68" cy="627.44" r="2.97"/><circle cx="316.4" cy="580.81" r="2.97"/><circle cx="319.11" cy="627.44" r="2.97"/><circle cx="321.83" cy="650.75" r="2.97"/><circle cx="324.55" cy="604.13" r="2.97"/><circle cx="327.27" cy="569.16" r="2.97"/><circle cx="329.99" cy="592.47" r="2.97"/><circle cx="332.7" cy="639.09" r="2.97"/><circle cx="335.42" cy="679.89" r="2.97"/><circle cx="338.14" cy="668.23" r="2.97"/><circle cx="340.86" cy="551.67" r="2.97"/><circle cx="343.58" cy="487.56" r="2.97"/><circle cx="346.29" cy="522.53" r="2.97"/><circle cx="349.01" cy="569.16" r="2.97"/><circle cx="351.73" cy="528.36" r="2.97"/><circle cx="354.45" cy="534.19" r="2.97"/><circle cx="359.88" cy="475.91" r="2.97"/><circle cx="365.32" cy="621.61" r="2.97"/><circle cx="368.04" cy="674.06" r="2.97"/><circle cx="370.75" cy="668.23" r="2.97"/><circle cx="373.47" cy="639.09" r="2.97"/><circle cx="376.19" cy="598.3" r="2.97"/><circle cx="378.91" cy="668.23" r="2.97"/><circle cx="381.62" cy="668.23" r="2.97"/><circle cx="384.34" cy="668.23" r="2.97"/><circle cx="387.06" cy="627.44" r="2.97"/><circle cx="389.78" cy="656.58" r="2.97"/><circle cx="392.5" cy="668.23" r="2.97"/><circle cx="395.21" cy="644.92" r="2.97"/><circle cx="397.93" cy="627.44" r="2.97"/><circle cx="400.65" cy="656.58" r="2.97"/><circle cx="403.37" cy="714.86" r="2.97"/><circle cx="406.09" cy="732.34" r="2.97"/><circle cx="408.8" cy="732.34" r="2.97"/><circle cx="411.52" cy="691.55" r="2.97"/><circle cx="414.24" cy="662.41" r="2.97"/><circle cx="416.96" cy="633.27" r="2.97"/><circle cx="419.67" cy="644.92" r="2.97"/><circle cx="422.39" cy="662.41" r="2.97"/><circle cx="425.11" cy="703.2" r="2.97"/><circle cx="427.83" cy="662.41" r="2.97"/><circle cx="430.55" cy="709.03" r="2.97"/><circle cx="433.26" cy="679.89" r="2.97"/><circle cx="435.98" cy="674.06" r="2.97"/><circle cx="438.7" cy="644.92" r="2.97"/><circle cx="441.42" cy="668.23" r="2.97"/><circle cx="444.14" cy="674.06" r="2.97"/><circle cx="446.85" cy="639.09" r="2.97"/><circle cx="449.57" cy="574.98" r="2.97"/><circle cx="452.29" cy="586.64" r="2.97"/><circle cx="455.01" cy="714.86" r="2.97"/><circle cx="457.72" cy="697.37" r="2.97"/><circle cx="460.44" cy="685.72" r="2.97"/><circle cx="463.16" cy="679.89" r="2.97"/><circle cx="465.88" cy="650.75" r="2.97"/><circle cx="468.6" cy="674.06" r="2.97"/><circle cx="471.31" cy="668.23" r="2.97"/><circle cx="474.03" cy="691.55" r="2.97"/><circle cx="476.75" cy="679.89" r="2.97"/><circle cx="479.47" cy="674.06" r="2.97"/><circle cx="482.19" cy="685.72" r="2.97"/><circle cx="484.9" cy="709.03" r="2.97"/><circle cx="487.62" cy="714.86" r="2.97"/><circle cx="490.34" cy="685.72" r="2.97"/><circle cx="493.06" cy="662.41" r="2.97"/><circle cx="495.77" cy="627.44" r="2.97"/><circle cx="498.49" cy="615.78" r="2.97"/><circle cx="501.21" cy="656.58" r="2.97"/><circle cx="503.93" cy="720.69" r="2.97"/><circle cx="509.36" cy="703.2" r="2.97"/><circle cx="512.08" cy="709.03" r="2.97"/><circle cx="514.8" cy="709.03" r="2.97"/><circle cx="517.52" cy="697.37" r="2.97"/><circle cx="520.23" cy="691.55" r="2.97"/><circle cx="522.95" cy="679.89" r="2.97"/><circle cx="525.67" cy="650.75" r="2.97"/><circle cx="528.39" cy="656.58" r="2.97"/><circle cx="531.11" cy="697.37" r="2.97"/><circle cx="533.82" cy="656.58" r="2.97"/><circle cx="536.54" cy="709.03" r="2.97"/><circle cx="539.26" cy="697.37" r="2.97"/><circle cx="541.98" cy="720.69" r="2.97"/><circle cx="544.7" cy="685.72" r="2.97"/><circle cx="547.41" cy="697.37" r="2.97"/><circle cx="550.13" cy="633.27" r="2.97"/><circle cx="552.85" cy="691.55" r="2.97"/><circle cx="555.57" cy="685.72" r="2.97"/><circle cx="558.28" cy="697.37" r="2.97"/><circle cx="561" cy="691.55" r="2.97"/><circle cx="563.72" cy="691.55" r="2.97"/><circle cx="566.44" cy="668.23" r="2.97"/><circle cx="569.16" cy="609.95" r="2.97"/><circle cx="571.87" cy="569.16" r="2.97"/><circle cx="574.59" cy="609.95" r="2.97"/><circle cx="577.31" cy="668.23" r="2.97"/><circle cx="580.03" cy="662.41" r="2.97"/><circle cx="582.75" cy="656.58" r="2.97"/><circle cx="585.46" cy="650.75" r="2.97" transform="translate(-2.6 2.35) rotate(-0.23)"/><circle cx="588.18" cy="644.92" r="2.97"/><circle cx="590.9" cy="609.95" r="2.97"/><circle cx="593.62" cy="627.44" r="2.97" transform="translate(-1.28 1.21) rotate(-0.12)"/><circle cx="596.33" cy="650.75" r="2.97"/><circle cx="599.05" cy="656.58" r="2.97" transform="translate(-59.88 1253.04) rotate(-89.77)"/><circle cx="601.77" cy="668.23" r="2.97"/><circle cx="604.49" cy="615.78" r="2.97"/><circle cx="607.21" cy="627.44" r="2.97"/><circle cx="609.92" cy="633.27" r="2.97" transform="translate(-10.82 10.61) rotate(-0.99)"/><circle cx="612.64" cy="627.44" r="2.97"/><circle cx="615.36" cy="627.44" r="2.97"/><circle cx="618.08" cy="615.78" r="2.97"/><circle cx="620.8" cy="644.92" r="2.97"/><circle cx="623.51" cy="662.41" r="2.97"/><circle cx="626.23" cy="674.06" r="2.97"/><circle cx="628.95" cy="679.89" r="2.97"/><circle cx="631.67" cy="685.72" r="2.97"/><circle cx="634.38" cy="697.37" r="2.97"/><circle cx="637.1" cy="674.06" r="2.97"/><circle cx="639.82" cy="633.27" r="2.97"/><circle cx="642.54" cy="621.61" r="2.97"/><circle cx="645.26" cy="644.92" r="2.97"/><circle cx="647.97" cy="633.27" r="2.97"/><circle cx="650.69" cy="627.44" r="2.97"/><circle cx="653.41" cy="656.58" r="2.97"/><circle cx="656.13" cy="639.09" r="2.97"/><circle cx="658.84" cy="615.78" r="2.97"/><circle cx="661.56" cy="639.09" r="2.97"/><circle cx="664.28" cy="674.06" r="2.97"/><circle cx="667" cy="656.58" r="2.97"/><circle cx="669.72" cy="662.41" r="2.97"/><circle cx="672.43" cy="662.41" r="2.97"/><circle cx="675.15" cy="674.06" r="2.97"/><circle cx="677.87" cy="674.06" r="2.97"/><circle cx="680.59" cy="662.41" r="2.97"/><circle cx="683.31" cy="662.41" r="2.97"/><circle cx="686.02" cy="668.23" r="2.97"/><circle cx="688.74" cy="697.37" r="2.97"/><circle cx="691.46" cy="691.55" r="2.97"/><circle cx="694.18" cy="668.23" r="2.97"/><circle cx="696.89" cy="668.23" r="2.97"/><circle cx="699.61" cy="679.89" r="2.97"/><circle cx="702.33" cy="709.03" r="2.97"/><circle cx="705.05" cy="691.55" r="2.97"/><circle cx="707.77" cy="691.55" r="2.97"/><circle cx="710.48" cy="697.37" r="2.97"/><circle cx="713.2" cy="714.86" r="2.97"/><circle cx="715.92" cy="691.55" r="2.97"/><circle cx="718.64" cy="685.72" r="2.97"/><circle cx="721.36" cy="674.06" r="2.97"/><circle cx="724.07" cy="668.23" r="2.97"/><circle cx="726.79" cy="621.61" r="2.97"/><circle cx="729.51" cy="633.27" r="2.97"/><circle cx="732.23" cy="679.89" r="2.97"/><circle cx="734.94" cy="697.37" r="2.97"/><circle cx="737.66" cy="668.23" r="2.97"/><circle cx="740.38" cy="662.41" r="2.97"/><circle cx="743.1" cy="656.58" r="2.97"/><circle cx="745.82" cy="662.41" r="2.97"/><circle cx="748.53" cy="650.75" r="2.97"/><circle cx="751.25" cy="627.44" r="2.97"/><circle cx="753.97" cy="639.09" r="2.97"/><circle cx="756.69" cy="627.44" r="2.97"/><circle cx="759.4" cy="639.09" r="2.97"/><circle cx="762.12" cy="621.61" r="2.97"/><circle cx="764.84" cy="650.75" r="2.97"/><circle cx="767.56" cy="662.41" r="2.97"/><circle cx="770.28" cy="615.78" r="2.97"/><circle cx="772.99" cy="674.06" r="2.97"/><circle cx="778.43" cy="592.47" r="2.97"/><circle cx="781.15" cy="592.47" r="2.97"/><circle cx="783.87" cy="592.47" r="2.97"/><circle cx="786.58" cy="609.95" r="2.97"/><circle cx="789.3" cy="569.16" r="2.97"/><circle cx="792.02" cy="540.02" r="2.97"/><circle cx="794.74" cy="580.81" r="2.97"/><circle cx="797.45" cy="598.3" r="2.97"/><circle cx="800.17" cy="691.55" r="2.97"/><circle cx="802.89" cy="691.55" r="2.97"/><circle cx="805.61" cy="703.2" r="2.97"/><circle cx="808.33" cy="697.37" r="2.97"/><circle cx="811.04" cy="674.06" r="2.97"/><circle cx="813.76" cy="656.58" r="2.97"/><circle cx="816.48" cy="644.92" r="2.97"/><circle cx="819.2" cy="650.75" r="2.97"/><circle cx="821.92" cy="644.92" r="2.97"/><circle cx="824.63" cy="668.23" r="2.97"/><circle cx="827.35" cy="644.92" r="2.97"/><circle cx="830.07" cy="633.27" r="2.97"/><circle cx="832.79" cy="627.44" r="2.97"/><circle cx="835.5" cy="621.61" r="2.97"/><circle cx="838.22" cy="662.41" r="2.97"/><circle cx="840.94" cy="691.55" r="2.97"/><circle cx="843.66" cy="668.23" r="2.97"/><circle cx="846.38" cy="679.89" r="2.97"/><circle cx="849.09" cy="685.72" r="2.97"/><circle cx="851.81" cy="650.75" r="2.97"/><circle cx="854.53" cy="691.55" r="2.97"/><circle cx="857.25" cy="662.41" r="2.97"/><circle cx="859.97" cy="650.75" r="2.97"/><circle cx="862.68" cy="685.72" r="2.97"/><circle cx="865.4" cy="639.09" r="2.97"/><circle cx="868.12" cy="679.89" r="2.97"/><circle cx="870.84" cy="662.41" r="2.97"/><circle cx="873.55" cy="551.67" r="2.97"/><circle cx="876.27" cy="691.55" r="2.97"/><circle cx="878.99" cy="615.78" r="2.97"/><circle cx="881.71" cy="633.27" r="2.97"/><circle cx="884.43" cy="563.33" r="2.97"/><circle cx="889.86" cy="574.98" r="2.97"/><circle cx="892.58" cy="639.09" r="2.97"/><circle cx="895.3" cy="656.58" r="2.97"/><circle cx="898.01" cy="662.41" r="2.97"/><circle cx="900.73" cy="551.67" r="2.97"/><circle cx="908.89" cy="475.91" r="2.97"/><circle cx="911.6" cy="557.5" r="2.97"/><circle cx="914.32" cy="609.95" r="2.97"/><circle cx="917.04" cy="557.5" r="2.97"/><circle cx="919.76" cy="505.05" r="2.97"/><circle cx="933.35" cy="621.61" r="2.97"/><circle cx="936.06" cy="615.78" r="2.97"/><circle cx="938.78" cy="644.92" r="2.97"/><circle cx="941.5" cy="674.06" r="2.97"/><circle cx="944.22" cy="615.78" r="2.97"/><circle cx="946.94" cy="569.16" r="2.97"/><circle cx="955.09" cy="679.89" r="2.97"/><circle cx="957.81" cy="633.27" r="2.97"/><circle cx="960.53" cy="592.47" r="2.97"/><circle cx="963.24" cy="534.19" r="2.97"/><circle cx="965.96" cy="522.53" r="2.97"/><circle cx="976.83" cy="592.47" r="2.97"/><circle cx="979.55" cy="522.53" r="2.97"/><circle cx="984.99" cy="499.22" r="2.97"/><circle cx="987.7" cy="545.84" r="2.97"/><circle cx="990.42" cy="563.33" r="2.97"/><circle cx="993.14" cy="615.78" r="2.97"/><circle cx="995.86" cy="668.23" r="2.97"/><circle cx="998.58" cy="644.92" r="2.97"/><circle cx="1001.29" cy="639.09" r="2.97"/><circle cx="1004.01" cy="627.44" r="2.97"/><circle cx="1006.73" cy="563.33" r="2.97"/><circle cx="1012.16" cy="481.74" r="2.97"/><circle cx="1025.75" cy="475.91" r="2.97"/><circle cx="1031.19" cy="487.56" r="2.97"/><circle cx="1033.91" cy="545.84" r="2.97"/><circle cx="1039.34" cy="569.16" r="2.97"/><circle cx="1042.06" cy="534.19" r="2.97"/><circle cx="1044.78" cy="534.19" r="2.97"/><circle cx="1050.21" cy="481.74" r="2.97"/><circle cx="1052.93" cy="551.67" r="2.97"/><circle class="cls-4" cx="949.65" cy="440.94" r="2.97"/><circle class="cls-4" cx="952.37" cy="446.77" r="2.97"/><circle class="cls-4" cx="115.28" cy="423.45" r="2.97"/><circle class="cls-4" cx="117.99" cy="376.83" r="2.97"/><circle class="cls-4" cx="150.61" cy="365.17" r="2.97"/><circle class="cls-4" cx="153.33" cy="318.55" r="2.97"/><circle class="cls-4" cx="156.04" cy="371" r="2.97"/><circle class="cls-4" cx="158.76" cy="382.66" r="2.97"/><circle class="cls-4" cx="161.48" cy="440.94" r="2.97"/><circle class="cls-4" cx="169.63" cy="330.21" r="2.97"/><circle class="cls-4" cx="172.35" cy="365.17" r="2.97"/><circle class="cls-4" cx="175.07" cy="122.38" r="2.97"/><circle class="cls-4" cx="177.79" cy="446.77" r="2.97"/><circle class="cls-4" cx="185.94" cy="446.77" r="2.97"/><circle class="cls-4" cx="357.16" cy="405.97" r="2.97"/><circle class="cls-4" cx="362.6" cy="464.25" r="2.97"/><circle class="cls-4" cx="887.14" cy="452.6" r="2.97"/><circle class="cls-4" cx="903.45" cy="470.08" r="2.97"/><circle class="cls-4" cx="906.17" cy="440.94" r="2.97"/><circle class="cls-4" cx="922.48" cy="400.14" r="2.97"/><circle class="cls-4" cx="925.19" cy="400.14" r="2.97"/><circle class="cls-4" cx="927.91" cy="464.25" r="2.97"/><circle class="cls-4" cx="930.63" cy="394.31" r="2.97"/><circle class="cls-4" cx="968.68" cy="371" r="2.97"/><circle class="cls-4" cx="971.4" cy="128.21" r="2.97"/><circle class="cls-4" cx="974.11" cy="423.45" r="2.97"/><circle class="cls-4" cx="982.27" cy="470.08" r="2.97"/><circle class="cls-4" cx="1009.45" cy="435.11" r="2.97"/><circle class="cls-4" cx="1014.88" cy="470.08" r="2.97"/><circle class="cls-4" cx="1017.6" cy="435.11" r="2.97"/><circle class="cls-4" cx="1020.32" cy="400.14" r="2.97"/><circle class="cls-4" cx="1023.04" cy="429.28" r="2.97"/><circle class="cls-4" cx="1028.47" cy="429.28" r="2.97"/><circle class="cls-4" cx="1036.62" cy="458.42" r="2.97"/><circle class="cls-4" cx="1047.5" cy="446.77" r="2.97"/><circle class="cls-4" cx="1055.65" cy="446.77" r="2.97"/><circle cx="1058.37" cy="540.02" r="2.97"/><circle cx="1063.8" cy="586.64" r="2.97"/><circle cx="1066.52" cy="598.3" r="2.97"/><circle cx="1069.24" cy="633.27" r="2.97"/><circle cx="1071.96" cy="586.64" r="2.97"/><circle cx="1074.67" cy="609.95" r="2.97"/><circle cx="1077.39" cy="516.7" r="2.97"/><circle cx="1080.11" cy="621.61" r="2.97"/><circle cx="1082.83" cy="609.95" r="2.97"/><circle cx="1085.55" cy="598.3" r="2.97"/><circle cx="1088.26" cy="563.33" r="2.97"/><path class="cls-5" d="M1088.26,648.61V761.34h-6.37C1083.25,761.34,1086.91,648.61,1088.26,648.61Z"/><path class="cls-5" d="M1060.21,761.34h-8.12c1.35,0,1.35-139.94,2.7-139.94s1.36,110.79,2.72,110.79S1058.86,761.34,1060.21,761.34Z"/><path class="cls-5" d="M1011.44,761.34H1006c1.36,0,1.36-5.82,2.71-5.82S1010.09,761.34,1011.44,761.34Z"/><path class="cls-5" d="M997.89,761.34h-5.42c1.37,0,1.37-11.66,2.72-11.66S996.54,761.34,997.89,761.34Z"/><path class="cls-5" d="M989.77,761.34h-8.14c1.37,0,1.37-5.82,2.72-5.82s1.35-5.84,2.7-5.84S988.42,761.34,989.77,761.34Z"/><path class="cls-5" d="M973.51,761.34h-8.13c1.35,0,1.35-122.45,2.71-122.45s1.35-29.15,2.71-29.15S972.15,761.34,973.51,761.34Z"/><path class="cls-5" d="M960,761.34h-5.42c1.35,0,1.35-23.32,2.71-23.32S958.61,761.34,960,761.34Z"/><path class="cls-5" d="M954.54,761.34h-8.12c1.35,0,1.35-93.29,2.7-93.29s1.35,87.47,2.72,87.47S953.19,761.34,954.54,761.34Z"/><path class="cls-5" d="M946.42,761.34H941c1.35,0,1.35-11.66,2.7-11.66S945.05,761.34,946.42,761.34Z"/><path class="cls-5" d="M938.28,761.34h-8.13c1.36,0,1.36-75.8,2.71-75.8s1.36,64.14,2.71,64.14S936.93,761.34,938.28,761.34Z"/><path class="cls-5" d="M908.36,761.34h-5.42c1.35,0,1.35-11.66,2.72-11.66S907,761.34,908.36,761.34Z"/><path class="cls-5" d="M892.1,761.34h-5.41c1.35,0,1.35-29.15,2.71-29.15S890.75,761.34,892.1,761.34Z"/><path class="cls-5" d="M875.85,761.34h-8.14c1.37,0,1.37-29.15,2.72-29.15s1.35-285.72,2.71-285.72S874.5,761.34,875.85,761.34Z"/><path class="cls-5" d="M865,761.34h-8.13c1.36,0,1.36-46.64,2.71-46.64s1.35,29.15,2.7,29.15S863.66,761.34,865,761.34Z"/><path class="cls-5" d="M854.17,761.34H846c1.36,0,1.36-70,2.71-70s1.36,64.15,2.71,64.15S852.82,761.34,854.17,761.34Z"/><path class="cls-5" d="M843.33,761.34H835.2c1.36,0,1.36-40.82,2.72-40.82s1.35,35,2.7,35S842,761.34,843.33,761.34Z"/><path class="cls-5" d="M805.4,761.34H800c1.36,0,1.36-23.32,2.71-23.32S804,761.34,805.4,761.34Z"/><path class="cls-5" d="M800,761.34h-5.42c1.36,0,1.36-163.27,2.71-163.27S798.62,761.34,800,761.34Z"/><path class="cls-5" d="M772.88,761.34h-5.42c1.36,0,1.36-17.49,2.71-17.49S771.53,761.34,772.88,761.34Z"/><path class="cls-5" d="M729.53,761.34H721.4c1.36,0,1.36-134.12,2.71-134.12s1.35,81.65,2.71,81.65S728.17,761.34,729.53,761.34Z"/><path class="cls-5" d="M702.43,761.34H694.3c1.36,0,1.36-11.66,2.71-11.66h2.71C701.08,749.68,701.08,761.34,702.43,761.34Z"/><path class="cls-5" d="M688.88,761.34h-5.42c1.36,0,1.36-29.15,2.72-29.15S687.53,761.34,688.88,761.34Z"/><path class="cls-5" d="M656.37,761.34H651c1.35,0,1.35-40.82,2.71-40.82S655,761.34,656.37,761.34Z"/><path class="cls-5" d="M594,761.34h-5.42c1.35,0,1.35-5.82,2.72-5.82S592.69,761.34,594,761.34Z"/><path class="cls-5" d="M558.83,761.34h-8.14c1.35,0,1.35-5.82,2.72-5.82s1.35-58.32,2.7-58.32S557.46,761.34,558.83,761.34Z"/><path class="cls-5" d="M539.85,761.34h-5.42c1.36,0,1.36-11.66,2.71-11.66S538.5,761.34,539.85,761.34Z"/><path class="cls-5" d="M534.43,761.34H526.3c1.36,0,1.36-105,2.72-105s1.35,58.31,2.7,58.31S533.08,761.34,534.43,761.34Z"/><path class="cls-5" d="M523.6,761.34h-5.42c1.35,0,1.35-23.32,2.7-23.32S522.25,761.34,523.6,761.34Z"/><path class="cls-5" d="M518.18,761.34H504.62c1.36,0,1.36-5.82,2.72-5.82H510c1.35,0,1.35-52.49,2.72-52.49s1.35,46.65,2.7,46.65S516.83,761.34,518.18,761.34Z"/><path class="cls-5" d="M501.92,761.34H496.5c1.35,0,1.35-40.82,2.71-40.82S500.56,761.34,501.92,761.34Z"/><path class="cls-5" d="M474.83,761.34H469.4c1.36,0,1.36-29.15,2.71-29.15S473.46,761.34,474.83,761.34Z"/><path class="cls-5" d="M464,761.34H447.72c1.36,0,1.36-105,2.72-105s1.35,46.64,2.7,46.64,1.36,52.49,2.71,52.49,1.36-29.17,2.71-29.17,1.36-11.65,2.71-11.65S462.63,761.34,464,761.34Z"/><path class="cls-5" d="M428.76,761.34H417.92c1.35,0,1.35-58.31,2.71-58.31s1.35,52.49,2.71,52.49,1.35-81.65,2.7-81.65S427.4,761.34,428.76,761.34Z"/><path class="cls-5" d="M407.08,761.34H399c1.35,0,1.35-5.82,2.72-5.82s1.35-204.1,2.7-204.1S405.72,761.34,407.08,761.34Z"/><path class="cls-5" d="M366.44,761.34H358.3c1.37,0,1.37-5.82,2.72-5.82s1.35-5.84,2.7-5.84S365.09,761.34,366.44,761.34Z"/><path class="cls-5" d="M317.78,761.34h-5.42c1.35,0,1.35-5.82,2.7-5.82S316.41,761.34,317.78,761.34Z"/><path class="cls-5" d="M301.52,761.34H296.1c1.36,0,1.36-17.49,2.71-17.49S300.16,761.34,301.52,761.34Z"/><path class="cls-5" d="M288,761.34h-5.42c1.35,0,1.35-23.32,2.7-23.32S286.62,761.34,288,761.34Z"/><path class="cls-5" d="M282.55,761.34H271.71c1.35,0,1.35-5.82,2.71-5.82s1.36-99.13,2.71-99.13,1.35,23.32,2.7,23.32S281.2,761.34,282.55,761.34Z"/><path class="cls-5" d="M271.71,761.34h-5.42c1.36,0,1.36-75.8,2.71-75.8S270.36,761.34,271.71,761.34Z"/><path class="cls-5" d="M266.29,761.34h-5.42c1.36,0,1.36-116.62,2.71-116.62S264.94,761.34,266.29,761.34Z"/><path class="cls-5" d="M258.16,761.34H247.32c1.35,0,1.35-70,2.72-70s1.35-75.8,2.7-75.8,1.36,35,2.72,35S256.81,761.34,258.16,761.34Z"/><path class="cls-5" d="M247.32,761.34H241.9c1.35,0,1.35-5.82,2.72-5.82S246,761.34,247.32,761.34Z"/><path class="cls-5" d="M241.9,761.34h-5.42c1.36,0,1.36-35,2.72-35S240.55,761.34,241.9,761.34Z"/><path class="cls-5" d="M233.78,761.34h-5.42c1.35,0,1.35-5.82,2.7-5.82S232.42,761.34,233.78,761.34Z"/><path class="cls-5" d="M225.65,761.34H212.09c1.37,0,1.37-64.14,2.72-64.14s1.35,17.5,2.71,17.5,1.36-198.26,2.71-198.26,1.35,174.93,2.71,174.93S224.29,761.34,225.65,761.34Z"/><path class="cls-5" d="M212.09,761.34h-5.42c1.37,0,1.37-58.31,2.72-58.31S210.74,761.34,212.09,761.34Z"/><path class="cls-5" d="M206.67,761.34H195.84c1.36,0,1.36-5.82,2.71-5.82s1.35-5.84,2.7-5.84,1.37,5.84,2.72,5.84S205.32,761.34,206.67,761.34Z"/><path class="cls-5" d="M187.71,761.34h-5.42c1.36,0,1.36-81.63,2.71-81.63S186.36,761.34,187.71,761.34Z"/><path class="cls-5" d="M133.53,761.34h-5.44c1.37,0,1.37-35,2.72-35S132.16,761.34,133.53,761.34Z"/><path class="cls-5" d="M120,761.34h-5.42c1.35,0,1.35-17.49,2.71-17.49S118.62,761.34,120,761.34Z"/><path class="cls-5" d="M111.84,761.34H96.25c1.35,0,.69-40.82,2-40.82H101c1.36,0,1.36,11.67,2.72,11.67s1.35,23.33,2.7,23.33,1.36-11.67,2.71-11.67S110.49,761.34,111.84,761.34Z"/><path class="cls-5" d="M111.84,761.64c-.83,0-1.11-2-1.65-9-.26-3.31-.61-7.8-1.08-8.44-.44.42-.79,3.47-1,5.52-.5,4.35-.8,6.12-1.66,6.12s-1.08-2-1.65-12c-.27-4.52-.62-10.69-1.13-11.38-.8-.11-1.09-1.89-1.57-6.08-.25-2.13-.63-5.36-1.09-5.59H98.42c-.52,1.19-.7,11.67-.85,20.12-.32,18.67-.55,20.7-1.32,20.7a.29.29,0,0,1-.3-.3.31.31,0,0,1,.16-.26c.54-1,.72-11.61.86-20.15.32-18.67.55-20.71,1.33-20.71H101c.86,0,1.16,1.77,1.66,6.12.25,2.12.62,5.32,1.08,5.56h0c.77,0,1.05,2,1.63,11.93.25,4.45.6,10.48,1.1,11.35.42-.43.78-3.5,1-5.55.5-4.32.79-6.08,1.64-6.08s1.11,2,1.65,9c.27,3.41.63,8.09,1.13,8.49a.27.27,0,0,1,.26.29A.32.32,0,0,1,111.84,761.64Z"/><path class="cls-5" d="M120,761.64c-.83,0-1.11-2-1.65-9-.25-3.27-.59-7.69-1.06-8.44-.47.76-.81,5.16-1.06,8.41-.54,7-.82,9-1.65,9a.3.3,0,0,1-.3-.3.31.31,0,0,1,.3-.3c.43-.38.79-5.06,1.06-8.47.54-7,.82-9,1.65-9s1.12,2,1.66,9.05c.26,3.4.62,8.06,1.12,8.46a.27.27,0,0,1,.27.29A.32.32,0,0,1,120,761.64Z"/><path class="cls-5" d="M133.53,761.64c-.82,0-1.09-2.83-1.67-17.84-.26-6.71-.58-14.91-1.05-16.83-.47,1.92-.79,10.12-1.05,16.83-.58,15-.85,17.84-1.67,17.84a.3.3,0,0,1-.3-.3.29.29,0,0,1,.19-.27c.54-.9.89-10,1.18-17.3.58-14.9.84-17.72,1.65-17.72s1.07,2.82,1.65,17.72c.28,7.32.64,16.4,1.18,17.3a.29.29,0,0,1,.19.27A.3.3,0,0,1,133.53,761.64Z"/><path class="cls-5" d="M187.71,761.64c-.77,0-1-4-1.65-41-.27-16.4-.57-34.73-1.06-39.58-.48,4.84-.78,23.1-1.05,39.43-.62,37.08-.88,41.11-1.66,41.11a.3.3,0,0,1-.3-.3.29.29,0,0,1,.12-.23c.59-1.48.93-22.25,1.24-40.59.61-37.07.87-41.11,1.65-41.11s1,4.06,1.66,41.26c.31,18.27.65,39,1.24,40.44a.28.28,0,0,1,.11.23A.29.29,0,0,1,187.71,761.64Zm0-.6Zm-5.42,0Z"/><path class="cls-5" d="M225.65,761.64c-.78,0-1-3.46-1.66-35.28-.3-15.71-.64-33.5-1.23-34.76-.36-.45-.62-3.72-.93-27.66-.21-16.46-.38-38.76-.55-60.32-.28-36.08-.57-73.22-1-84-.49,11.65-.78,54.39-1.06,95.9-.17,24.38-.34,49.58-.55,68.17C218.27,715,218,715,217.52,715c-.83,0-1.12-2-1.66-9-.24-3-.55-7.07-1-8.19-.52,2.6-.85,17.86-1.13,31.42-.62,29.28-.89,32.47-1.67,32.47s-1-2.89-1.65-29.45c-.27-11.7-.57-24.8-1.05-28.17-.48,3.37-.78,16.41-1,28.07-.62,26.65-.89,29.55-1.67,29.55s-1.25-1.45-1.64-3.14c-.25-1.07-.62-2.68-1.06-2.68-.91,0-1.25-1.46-1.64-3.15-.25-1.07-.63-2.69-1.08-2.69s-.81,1.61-1.05,2.68c-.4,1.7-.73,3.16-1.65,3.16-.43,0-.81,1.6-1.06,2.67-.39,1.69-.73,3.15-1.65,3.15a.29.29,0,0,1-.3-.3.3.3,0,0,1,.3-.3c.44,0,.82-1.62,1.07-2.69.39-1.68.73-3.13,1.64-3.13.44,0,.81-1.62,1.06-2.69.39-1.69.73-3.15,1.64-3.15s1.27,1.46,1.66,3.16c.25,1.07.62,2.68,1.06,2.68.91,0,1.25,1.45,1.64,3.14.23,1,.55,2.37.94,2.64.56-1.74.89-16.16,1.19-28.92.62-26.47.88-29.35,1.65-29.35s1,2.89,1.65,29.45c.27,11.66.57,24.7,1.05,28.13.49-3.65.79-18.18,1.07-31.16.61-29.08.88-32.25,1.65-32.25s1.11,2,1.65,9a62.36,62.36,0,0,0,.91,8.05c.58-6,.9-52.92,1.21-98.41.16-24.36.33-49.55.54-68.14.36-31.26.63-31.26,1.11-31.26s.74,0,1.1,27.52c.21,16.35.38,38.52.55,60,.33,42.28.67,86,1.3,87.59h0c.61.9.87,6.67,1.42,35.13.31,15.66.65,33.39,1.23,34.75a.29.29,0,0,1,.13.24A.3.3,0,0,1,225.65,761.64Z"/><path class="cls-5" d="M233.78,761.64c-.92,0-1.26-1.46-1.66-3.15-.25-1.07-.62-2.67-1.06-2.67s-.81,1.61-1.06,2.68c-.39,1.69-.72,3.14-1.64,3.14a.3.3,0,0,1-.3-.3.31.31,0,0,1,.3-.3c.44,0,.81-1.61,1.06-2.68.39-1.69.73-3.14,1.64-3.14s1.26,1.45,1.65,3.13c.25,1.07.62,2.69,1.07,2.69a.3.3,0,0,1,.3.3A.29.29,0,0,1,233.78,761.64Z"/><path class="cls-5" d="M258.16,761.64c-.46,0-.75,0-1.1-17.6-.21-10.39-.39-24.47-.55-38.09-.31-25-.65-53.36-1.26-55.17-.65-.52-.92-4.06-1.44-17.65-.26-6.51-.57-14.43-1-16.71-.51,3.68-.82,21.33-1.1,37.05-.61,34.42-.88,38.2-1.65,38.2a.24.24,0,0,0,.19-.09c-.6,1-.95,19-1.26,34.91-.61,31.7-.88,35.15-1.65,35.15s-1.25-1.45-1.64-3.14c-.25-1.07-.62-2.68-1.06-2.68s-.83,1.62-1.08,2.69c-.39,1.68-.73,3.13-1.64,3.13s-1.07-2.82-1.65-17.78c-.26-6.74-.58-15-1.05-16.9-.48,1.92-.8,10.19-1.07,17-.57,14.91-.84,17.72-1.65,17.72a.3.3,0,0,1-.3-.3.31.31,0,0,1,.18-.27c.54-.9.89-9.91,1.17-17.17.59-15,.85-17.85,1.67-17.85s1.07,2.83,1.65,17.79c.28,7.17.62,16,1.15,17.18.39-.21.73-1.66,1-2.65.4-1.69.74-3.15,1.66-3.15s1.25,1.45,1.64,3.14a6.86,6.86,0,0,0,.92,2.63c.56-2,.9-19.25,1.19-34.52.62-31.88.89-35.39,1.66-35.4a.24.24,0,0,0-.19.1c.6-1.08.94-20.54,1.25-37.71.61-34.44.88-38.19,1.65-38.19s1.08,2.83,1.67,17.84c.28,7.22.62,16.17,1.16,17.15.4.11.66,1.45,1,17.6.21,10.38.38,24.46.55,38.08.3,25.07.65,53.46,1.25,55.19a.28.28,0,0,1,.1.21A.29.29,0,0,1,258.16,761.64Zm-8.12-70Zm0-.6Zm0,0h0Z"/><path class="cls-5" d="M288,761.64c-.8,0-1.08-2-1.65-11.9-.25-4.31-.59-10.12-1.07-11.28-.46,1.16-.8,6.94-1.05,11.24-.57,9.94-.85,11.94-1.65,11.94s-1-4-1.65-41c-.31-18.3-.65-39-1.24-40.68-.67-.32-1-2.74-1.48-11.91a99.89,99.89,0,0,0-.95-10.93c-.54,4.06-.86,27.66-1.15,48.64-.17,12.22-.34,24.86-.55,34.19-.37,15.85-.66,15.85-1.11,15.85s-.82,1.61-1.06,2.68c-.4,1.69-.73,3.14-1.65,3.14-.77,0-1-3.74-1.65-38.06-.27-15.24-.58-32.27-1.06-36.75-.48,4.47-.78,21.44-1.05,36.62-.62,34.44-.88,38.19-1.66,38.19-.46,0-.74,0-1.1-18.44-.21-10.89-.38-25.67-.55-40-.27-23.35-.57-49.42-1.06-56.52-.48,7.08-.78,33-1.05,56.32-.17,14.33-.34,29.15-.55,40.09-.36,18.51-.64,18.51-1.11,18.51a.29.29,0,0,1-.29-.3.27.27,0,0,1,.09-.21c.6-1.77.95-31.68,1.26-58.1.16-14.34.33-29.16.55-40.09.35-18.52.63-18.52,1.1-18.52s.75,0,1.11,18.59c.21,11,.39,25.85.55,40.22.28,23.64.59,50.08,1.08,56.51.47-4.91.76-21.46,1-36.3.61-34.45.87-38.2,1.65-38.2s1,3.77,1.66,38.33c.3,16.57.63,35.28,1.2,37.42a7.19,7.19,0,0,0,.91-2.63c.37-1.57.68-2.94,1.47-3.12.59-2.08.94-27.23,1.24-49.47.62-45.1.87-49.68,1.65-49.68s1.08,2,1.65,11.94c.27,4.56.63,10.8,1.14,11.41.72.34,1,5.48,1.58,41.21.28,17.18.61,36.51,1.13,40,.43-1.6.74-6.94,1-11,.58-9.93.86-11.94,1.65-11.94s1.09,2,1.67,12c.26,4.53.62,10.7,1.13,11.36a.29.29,0,0,1,.22.28A.3.3,0,0,1,288,761.64Z"/><path class="cls-5" d="M301.52,761.64c-.83,0-1.12-2-1.66-9-.25-3.24-.59-7.62-1.05-8.38-.47.76-.81,5.16-1.06,8.41-.54,7-.82,9-1.65,9a.3.3,0,0,1-.3-.3.31.31,0,0,1,.3-.3c.43-.38.79-5.06,1.06-8.47.54-7,.82-9,1.65-9s1.11,2,1.65,9c.26,3.43.63,8.12,1.13,8.52a.27.27,0,0,1,.27.29A.32.32,0,0,1,301.52,761.64Z"/><path class="cls-5" d="M317.78,761.64c-.92,0-1.26-1.46-1.66-3.15-.25-1.07-.62-2.67-1.06-2.67s-.81,1.61-1.06,2.68c-.39,1.69-.73,3.14-1.64,3.14a.29.29,0,0,1-.3-.3.3.3,0,0,1,.3-.3c.44,0,.81-1.61,1.06-2.68.39-1.69.73-3.14,1.64-3.14s1.25,1.45,1.65,3.13c.25,1.07.62,2.69,1.07,2.69a.3.3,0,0,1,.3.3A.29.29,0,0,1,317.78,761.64Z"/><path class="cls-5" d="M366.44,761.64c-.86,0-1.15-1.75-1.65-6.07-.25-2.14-.63-5.36-1.09-5.6-.42,0-.79,1.62-1,2.69-.39,1.7-.73,3.16-1.64,3.16-.44,0-.81,1.6-1.06,2.67-.39,1.69-.74,3.15-1.66,3.15a.3.3,0,0,1-.3-.3.31.31,0,0,1,.3-.3c.45,0,.83-1.62,1.08-2.69.39-1.68.73-3.13,1.64-3.13.44,0,.81-1.62,1.06-2.69.39-1.69.73-3.15,1.64-3.15s1.16,1.77,1.66,6.12c.25,2.11.62,5.31,1.08,5.55a.29.29,0,0,1,.29.3A.31.31,0,0,1,366.44,761.64Z"/><path class="cls-5" d="M407.08,761.64c-.48,0-.75,0-1.11-33.23-.21-19.76-.38-46.52-.55-72.39-.28-43.58-.57-88.44-1.05-101-.48,12.39-.77,56-1.05,98.47-.17,25.09-.34,51-.55,70.16-.36,32.19-.62,32.19-1.1,32.19s-.83,1.62-1.08,2.69c-.39,1.68-.73,3.13-1.64,3.13a.29.29,0,0,1-.3-.3.3.3,0,0,1,.3-.3c.44,0,.81-1.6,1.06-2.67.36-1.55.68-2.91,1.44-3.13.61-3.2.95-53.3,1.27-101.77.16-25.09.34-51,.55-70.16.35-32.19.62-32.19,1.1-32.19s.75,0,1.1,33c.21,19.61.38,46.21.55,71.93.33,50.57.67,102.85,1.3,105.15a.28.28,0,0,1,.06.18A.29.29,0,0,1,407.08,761.64Z"/><path class="cls-5" d="M428.76,761.64c-.78,0-1.05-4.34-1.66-44.18-.28-17.46-.58-37-1.06-42.14-.48,4.94-.78,23.12-1.05,39.38-.61,37.08-.87,41.12-1.65,41.12s-1-2.62-1.66-26.63c-.27-10.46-.58-22.15-1.05-25.22-.48,3.29-.78,16.46-1.06,28.22-.61,26.56-.87,29.45-1.65,29.45a.3.3,0,0,1-.3-.3.32.32,0,0,1,.14-.25c.57-1.23.91-15.93,1.21-28.91.62-26.56.88-29.45,1.66-29.45s1,2.59,1.65,26.44c.26,10.37.56,22,1,25.25.5-4.35.81-23,1.08-39.73.62-37.08.88-41.12,1.65-41.12s1,4.31,1.66,43.88c.3,19.76.65,42.12,1.25,43.66a.3.3,0,0,1,.11.23A.29.29,0,0,1,428.76,761.64Zm0-.6Z"/><path class="cls-5" d="M464,761.64c-.78,0-1-2.32-1.65-23.61-.28-9.5-.62-21.23-1.15-22.94-.39.6-.73,3.49-1,5.45-.49,4.18-.77,6-1.57,6.1-.52.84-.87,8.3-1.14,14.31-.58,12.5-.85,14.87-1.66,14.87s-1-2.6-1.65-26.46c-.3-11.67-.64-24.88-1.21-26.07-.66-.37-.93-3.74-1.5-23.57-.25-8.58-.55-19-1-22.17-.51,5.23-.83,29.5-1.11,51.15-.16,12.94-.34,26.31-.55,36.19-.36,16.75-.66,16.75-1.11,16.75a.29.29,0,0,1-.3-.3.32.32,0,0,1,.1-.22c.61-1.68,1-28.63,1.26-52.43.17-12.86.34-26.17.55-36,.36-16.63.64-16.63,1.11-16.63.77,0,1,2.32,1.65,23.62.28,9.8.64,22,1.19,23.06.67.39.94,4.14,1.52,26.58.28,10.8.6,22.93,1.09,25.5.45-1.78.76-8.46,1-13.93.58-12.51.84-14.87,1.65-14.87.44-.23.82-3.45,1.06-5.58.51-4.32.8-6.07,1.65-6.07s1,2.32,1.65,23.61c.29,9.81.64,22,1.2,23.07a.31.31,0,0,1,.16.26A.3.3,0,0,1,464,761.64Zm-16.26-.6Zm0,0ZM464,761Zm-10.84-57.71Z"/><path class="cls-5" d="M474.83,761.64c-.82,0-1.08-2.37-1.67-14.91-.26-5.61-.58-12.48-1.05-14-.47,1.53-.79,8.4-1.05,14-.58,12.54-.85,14.91-1.66,14.91a.3.3,0,0,1-.11-.58c.54-.78.89-8.3,1.17-14.36.58-12.46.84-14.81,1.65-14.81s1.07,2.35,1.65,14.81c.28,6.06.63,13.58,1.17,14.36a.3.3,0,0,1,.2.28A.3.3,0,0,1,474.83,761.64Z"/><path class="cls-5" d="M501.92,761.64c-.78,0-1.05-2.44-1.66-20.77-.26-7.8-.58-17.33-1.05-19.63-.48,2.31-.8,11.87-1.06,19.7-.6,18.27-.88,20.7-1.65,20.7a.3.3,0,0,1-.3-.3.3.3,0,0,1,.17-.26c.55-1,.9-11.61,1.18-20.16.61-18.26.88-20.7,1.66-20.7s1,2,1.65,20.63c.28,8.58.64,19.23,1.19,20.22a.31.31,0,0,1,.17.27A.29.29,0,0,1,501.92,761.64Z"/><path class="cls-5" d="M523.6,761.64c-.8,0-1.08-2-1.65-11.9-.25-4.31-.59-10.12-1.07-11.28-.47,1.16-.8,6.94-1,11.24-.58,9.94-.85,11.94-1.65,11.94s-1.15-1.76-1.65-6.08c-.25-2.13-.62-5.35-1.09-5.59h0c-.75,0-1-2.33-1.63-23.62-.26-8.89-.57-19.73-1-22.48-.48,2.92-.79,14.84-1.07,25.49-.61,23.86-.87,26.46-1.65,26.46h-2.7c-.45,0-.82,1.62-1.07,2.69-.39,1.68-.73,3.13-1.65,3.13a.29.29,0,0,1-.29-.3.3.3,0,0,1,.29-.3c.44,0,.82-1.6,1.06-2.67.4-1.69.74-3.15,1.66-3.15h2.57c.55-1.41.89-14.39,1.18-25.87.63-24,.89-26.62,1.67-26.62s1,2.32,1.65,23.61c.28,9.74.63,21.83,1.19,23,.76.18,1,2,1.52,6.1.24,2,.59,5,1,5.5.5-.91.84-6.9,1.1-11.33.58-9.93.85-11.94,1.65-11.94s1.08,2,1.66,12c.27,4.52.63,10.69,1.14,11.35a.29.29,0,0,1-.08.58Z"/><path class="cls-5" d="M539.85,761.64c-.85,0-1.14-1.75-1.65-6.07-.24-2.14-.62-5.36-1.08-5.6-.42.24-.79,3.45-1,5.57-.5,4.34-.79,6.1-1.65,6.1s-1-2.31-1.65-23.53c-.28-9.87-.64-22.13-1.21-23.16-.66-.45-.93-4.62-1.5-29.4-.27-11.36-.56-24-1-27.85-.51,5.53-.82,29.54-1.1,51-.16,12.93-.34,26.31-.55,36.19-.36,16.76-.66,16.76-1.11,16.76a.29.29,0,0,1-.3-.3.32.32,0,0,1,.1-.22c.61-1.69,1-28.64,1.27-52.44.16-12.86.33-26.16.54-36,.36-16.62.64-16.62,1.11-16.62.77,0,1,2.89,1.65,29.44.3,13,.64,27.64,1.21,28.91.66.39.93,3.82,1.5,23.65.29,10,.62,21.18,1.15,22.86.39-.6.73-3.5,1-5.47.5-4.34.79-6.1,1.65-6.1s1.15,1.77,1.66,6.12c.25,2.11.62,5.31,1.08,5.55a.28.28,0,0,1,.28.3A.3.3,0,0,1,539.85,761.64ZM526.3,761Zm0,0Zm5.42-46.64Z"/><path class="cls-5" d="M558.83,761.64c-.78,0-1.05-3.19-1.67-32.47-.27-12.87-.58-27.27-1.06-30.93-.47,3.45-.77,16.48-1,28.12-.62,26.56-.88,29.46-1.65,29.46-.45,0-.83,1.62-1.08,2.69-.39,1.68-.73,3.13-1.64,3.13a.3.3,0,0,1-.3-.3.31.31,0,0,1,.3-.3c.44,0,.81-1.6,1.06-2.67.37-1.6.7-3,1.51-3.14.56-1.45.9-16,1.2-28.88.61-26.56.88-29.45,1.65-29.45s1,3.17,1.65,32.25c.31,14.37.65,30.64,1.23,32a.29.29,0,0,1,.14.24A.3.3,0,0,1,558.83,761.64Z"/><path class="cls-5" d="M594,761.64c-.91,0-1.25-1.45-1.64-3.14-.25-1.07-.62-2.68-1.06-2.68s-.82,1.62-1.07,2.69c-.4,1.68-.74,3.13-1.65,3.13a.3.3,0,0,1-.3-.3.31.31,0,0,1,.3-.3c.44,0,.81-1.6,1.06-2.67.4-1.69.74-3.15,1.66-3.15s1.25,1.45,1.64,3.14c.25,1.07.62,2.68,1.06,2.68a.3.3,0,0,1,.3.3A.29.29,0,0,1,594,761.64Z"/><path class="cls-5" d="M656.37,761.64c-.78,0-1-2.43-1.66-20.7-.26-7.84-.57-17.41-1.05-19.71-.48,2.3-.8,11.92-1.06,19.79-.62,18.6-.88,20.62-1.65,20.62a.29.29,0,0,1-.3-.3.29.29,0,0,1,.16-.26c.55-1,.9-11.57,1.19-20.08.61-18.33.88-20.78,1.66-20.78s1.05,2.44,1.65,20.7c.29,8.55.64,19.16,1.19,20.16a.29.29,0,0,1,.16.26A.29.29,0,0,1,656.37,761.64Z"/><path class="cls-5" d="M688.88,761.64c-.81,0-1.07-2.36-1.65-14.86-.26-5.63-.58-12.53-1.05-14.06-.48,1.53-.8,8.41-1.06,14-.58,12.54-.84,14.9-1.66,14.9a.29.29,0,0,1-.3-.3.29.29,0,0,1,.2-.28c.53-.78.88-8.3,1.16-14.35.58-12.46.85-14.82,1.66-14.82s1.07,2.36,1.65,14.86c.28,6,.62,13.53,1.15,14.31a.31.31,0,0,1,.2.28A.3.3,0,0,1,688.88,761.64Z"/><path class="cls-5" d="M702.43,761.64c-.85,0-1.15-1.76-1.65-6.08-.25-2.13-.62-5.35-1.08-5.59H697c-.43.23-.8,3.43-1,5.55-.51,4.34-.8,6.11-1.66,6.11a.29.29,0,0,1-.3-.3.3.3,0,0,1,.3-.3c.44-.23.82-3.45,1.06-5.58.51-4.32.8-6.08,1.65-6.08h2.71c.86,0,1.15,1.77,1.66,6.11.24,2.12.62,5.32,1.07,5.56a.29.29,0,0,1,.29.3A.3.3,0,0,1,702.43,761.64Z"/><path class="cls-5" d="M729.53,761.64c-.78,0-1-2.6-1.66-26.53-.3-11.78-.64-25.13-1.22-26a.22.22,0,0,0,.17.08c-.78,0-1-4.07-1.66-41.26-.27-15.86-.56-33.54-1-38.9-.5,7.36-.81,37.94-1.08,65.28-.65,64.29-.92,67.35-1.66,67.35a.3.3,0,0,1-.3-.3.29.29,0,0,1,.09-.2c.61-1.89,1-36.39,1.27-66.86.64-64.29.91-67.36,1.65-67.36s1,4,1.65,41c.3,18.42.65,39.29,1.25,40.74.63.53.9,4.58,1.46,26.46.3,11.65.64,24.83,1.21,26a.28.28,0,0,1,.15.25A.3.3,0,0,1,729.53,761.64Zm0-.6Zm-2.71-52.47h0Z"/><path class="cls-5" d="M772.88,761.64c-.83,0-1.11-2-1.65-9-.25-3.25-.59-7.65-1.06-8.41-.46.76-.8,5.14-1,8.38-.54,7-.83,9-1.66,9a.29.29,0,0,1-.3-.3.3.3,0,0,1,.3-.3c.43-.38.8-5.07,1.06-8.5.54-7,.83-9,1.65-9s1.11,2,1.65,9c.27,3.41.63,8.09,1.13,8.49a.27.27,0,0,1,.26.29A.32.32,0,0,1,772.88,761.64Z"/><path class="cls-5" d="M805.4,761.64c-.8,0-1.08-2-1.66-12-.25-4.28-.58-10-1-11.2-.47,1.17-.81,6.95-1.05,11.24-.58,9.94-.86,11.94-1.66,11.94-.46,0-.75,0-1.11-25.91-.21-15.37-.38-36.18-.55-56.31-.28-33.89-.57-68.78-1.05-78.55-.48,9.79-.77,44.82-1,78.84-.17,20.07-.34,40.82-.55,56.13-.36,25.8-.64,25.8-1.1,25.8a.29.29,0,0,1-.3-.3.26.26,0,0,1,.07-.19c.62-2,.95-42.41,1.28-81.44.16-20.07.33-40.82.55-56.13.35-25.81.63-25.81,1.1-25.81s.74,0,1.1,25.7c.21,15.25.38,35.94.55,55.95.29,35.34.62,75.12,1.19,81.05.4-1.78.7-6.91.93-10.81.57-9.93.85-11.94,1.65-11.94s1.07,2,1.65,11.9c.26,4.56.62,10.78,1.14,11.44a.29.29,0,0,1,.22.28A.29.29,0,0,1,805.4,761.64Z"/><path class="cls-5" d="M843.33,761.64c-.91,0-1.25-1.45-1.64-3.13-.25-1.07-.63-2.69-1.07-2.69-.81,0-1.07-2.83-1.65-17.79-.26-6.68-.58-14.84-1-16.84-.48,2.21-.8,11.82-1.06,19.68-.61,18.33-.89,20.77-1.67,20.77a.29.29,0,0,1-.3-.3.31.31,0,0,1,.17-.27c.56-1,.91-11.64,1.2-20.22.61-18.6.88-20.63,1.65-20.63s1.07,2.83,1.65,17.79c.28,7.24.62,16.22,1.16,17.21.84.12,1.17,1.53,1.55,3.15.24,1.07.62,2.67,1.05,2.67a.3.3,0,0,1,.3.3A.29.29,0,0,1,843.33,761.64Z"/><path class="cls-5" d="M854.17,761.64c-.91,0-1.25-1.45-1.64-3.13-.25-1.07-.63-2.69-1.07-2.69-.78,0-1-3.18-1.65-32.37-.27-12.8-.58-27.12-1-30.94-.48,4-.79,19.71-1.06,33.73-.62,31.93-.88,35.4-1.66,35.4a.29.29,0,0,1-.3-.3.3.3,0,0,1,.12-.24c.59-1.37.94-19.16,1.24-34.87.62-31.71.88-35.16,1.65-35.16s1,3.18,1.66,32.37c.29,14.19.63,30.24,1.2,31.79.81.16,1.13,1.55,1.5,3.14.25,1.07.63,2.67,1.06,2.67a.3.3,0,0,1,.3.3A.29.29,0,0,1,854.17,761.64Z"/><path class="cls-5" d="M865,761.64c-.83,0-1.11-2-1.65-9-.27-3.42-.63-8.11-1.13-8.52h0c-.74,0-1-2.39-1.58-14.84-.25-5.51-.56-12.22-1-14-.49,2.32-.8,13-1.08,22.62-.62,21.37-.89,23.69-1.66,23.69a.29.29,0,0,1-.3-.3.3.3,0,0,1,.15-.26c.57-1.09.92-13.31,1.21-23.15.62-21.22.88-23.53,1.65-23.53s1.07,2.36,1.65,14.86c.28,6,.63,13.47,1.15,14.3.76.16,1.05,2.31,1.57,9,.26,3.4.62,8.06,1.12,8.46a.27.27,0,0,1,.27.29A.32.32,0,0,1,865,761.64Z"/><path class="cls-5" d="M875.85,761.64c-.43,0-.54,0-.75-13.82-.13-8.11-.24-19.78-.36-35.67-.21-29.52-.38-69.54-.54-108.24-.29-65.78-.58-133.49-1.06-152.26-.49,17.7-.78,78.78-1.06,138.14-.17,35-.34,71.24-.55,97.93-.33,41.48-.58,44.53-1,44.75-.53.79-.87,8.26-1.15,14.27-.59,12.54-.85,14.9-1.67,14.9a.3.3,0,0,1-.3-.3.3.3,0,0,1,.2-.28c.54-.78.89-8.3,1.17-14.35.52-11.15.78-14.21,1.41-14.73.63-3.24,1-73.87,1.29-142.19.17-35.21.34-71.62.55-98.51.36-45.11.63-45.11,1.11-45.11s.54,0,.75,13.82c.13,8.11.24,19.78.36,35.67.21,29.53.38,69.54.55,108.24.32,76,.66,154.57,1.3,157.28a.3.3,0,0,1-.25.46Z"/><path class="cls-5" d="M892.1,761.64c-.81,0-1.07-2.36-1.65-14.86-.26-5.63-.58-12.54-1.05-14.07-.48,1.53-.8,8.46-1.06,14.12-.58,12.46-.85,14.81-1.65,14.81a.29.29,0,0,1-.3-.3.32.32,0,0,1,.19-.28c.53-.78.88-8.24,1.16-14.25.58-12.55.84-14.92,1.66-14.92s1.07,2.36,1.65,14.86c.28,6,.63,13.53,1.16,14.31a.32.32,0,0,1,.19.28A.29.29,0,0,1,892.1,761.64Z"/><path class="cls-5" d="M908.36,761.64c-.86,0-1.15-1.76-1.65-6.1-.24-2.12-.62-5.33-1.08-5.57-.42.24-.79,3.46-1,5.6-.5,4.32-.79,6.07-1.65,6.07a.3.3,0,0,1-.3-.3.31.31,0,0,1,.3-.3c.44-.23.81-3.43,1-5.54.51-4.35.8-6.12,1.67-6.12s1.15,1.76,1.65,6.1c.24,2.12.62,5.33,1.07,5.57a.29.29,0,0,1,.29.3A.3.3,0,0,1,908.36,761.64Z"/><path class="cls-5" d="M938.28,761.64c-.85,0-1.14-1.75-1.65-6.07-.24-2.14-.62-5.36-1.08-5.6h0c-.75,0-1-3.19-1.62-32.35-.27-12.75-.57-27-1-30.89-.49,4.32-.79,21.36-1.07,36.59-.62,34.56-.88,38.32-1.66,38.32a.29.29,0,0,1-.18-.53c.59-1.43.94-20.75,1.24-37.8.62-34.33.88-38.07,1.65-38.07s1,3.18,1.66,32.36c.3,14.21.63,30.29,1.2,31.8.75.21,1,2,1.51,6.1.25,2.11.62,5.31,1.08,5.55a.28.28,0,0,1,.28.3A.3.3,0,0,1,938.28,761.64Z"/><path class="cls-5" d="M960,761.64c-.8,0-1.08-2-1.65-11.94-.25-4.3-.59-10.08-1.06-11.24-.47,1.16-.81,7-1.06,11.27-.58,9.91-.85,11.91-1.65,11.91s-1.25-1.45-1.64-3.14c-.25-1.07-.63-2.68-1.06-2.68-.78,0-1.05-4.34-1.67-44.18-.27-17.35-.57-36.74-1-42-.49,5.53-.79,26.42-1.06,45.11-.62,42.61-.87,46.93-1.65,46.93s-1.16-1.77-1.67-6.11c-.24-2.12-.61-5.32-1.07-5.56-.41.24-.79,3.45-1,5.57-.5,4.34-.79,6.1-1.65,6.1a.29.29,0,0,1-.3-.3.3.3,0,0,1,.3-.3c.43-.23.81-3.44,1-5.57.5-4.33.79-6.09,1.65-6.09s1.15,1.76,1.65,6.08a27.31,27.31,0,0,0,.93,5.4c.56-3,.89-25.89,1.19-46.16.62-42.62.86-47,1.65-47s1,4.31,1.65,43.88c.31,19.57.65,41.69,1.24,43.6.78.18,1.1,1.55,1.47,3.13.23,1,.58,2.52,1,2.67.51-.76.86-6.85,1.12-11.33.58-10,.86-12,1.66-12s1.08,2,1.66,11.94c.26,4.54.62,10.74,1.13,11.4a.29.29,0,0,1,.22.28A.3.3,0,0,1,960,761.64Z"/><path class="cls-5" d="M973.51,761.64c-.47,0-.75,0-1.11-24.08-.21-14.27-.39-33.59-.55-52.28-.29-32.26-.62-68.52-1.16-74.55-.42,2.16-.71,8.42-1,13.6-.52,11.4-.79,14.37-1.45,14.8-.61,2.07-1,33.47-1.26,61.21-.17,15-.34,30.52-.55,42-.36,19.34-.64,19.34-1.1,19.34a.29.29,0,0,1-.3-.3.29.29,0,0,1,.09-.21c.6-1.81,1-33.13,1.26-60.8.16-15.1.34-30.7.55-42.23.34-18.14.6-19.41,1-19.5.52-.84.87-8.29,1.14-14.3.58-12.5.85-14.86,1.66-14.86.46,0,.74,0,1.1,23.88.21,14.16.38,33.37.55,51.95.31,34.64.66,73.87,1.28,75.87a.3.3,0,0,1-.22.5Z"/><path class="cls-5" d="M989.77,761.64c-.86,0-1.15-1.75-1.65-6.07-.25-2.14-.62-5.36-1.09-5.6-.41,0-.79,1.62-1,2.69-.39,1.7-.73,3.16-1.64,3.16-.44,0-.81,1.6-1.06,2.67-.39,1.69-.73,3.15-1.66,3.15a.3.3,0,0,1-.3-.3.31.31,0,0,1,.3-.3c.45,0,.83-1.62,1.08-2.69.39-1.68.73-3.13,1.64-3.13.44,0,.81-1.62,1.06-2.69.39-1.69.73-3.15,1.64-3.15s1.16,1.77,1.67,6.12c.24,2.11.61,5.31,1.07,5.55a.29.29,0,0,1,.29.3A.31.31,0,0,1,989.77,761.64Z"/><path class="cls-5" d="M997.89,761.64c-.86,0-1.15-1.76-1.65-6.1-.25-2.12-.62-5.33-1.08-5.57-.41.24-.78,3.44-1,5.55-.5,4.35-.79,6.12-1.66,6.12a.3.3,0,0,1-.3-.3.31.31,0,0,1,.3-.3c.44-.23.82-3.45,1.07-5.58.5-4.32.79-6.08,1.65-6.08s1.14,1.76,1.65,6.1c.24,2.12.61,5.33,1.07,5.57a.29.29,0,0,1,.29.3A.3.3,0,0,1,997.89,761.64Z"/><path class="cls-5" d="M1011.44,761.64c-.91,0-1.25-1.45-1.64-3.13-.25-1.07-.63-2.69-1.07-2.69s-.81,1.61-1.06,2.68c-.39,1.69-.73,3.14-1.64,3.14a.29.29,0,0,1-.3-.3.3.3,0,0,1,.3-.3c.43,0,.81-1.61,1.05-2.68.4-1.69.73-3.14,1.65-3.14s1.26,1.46,1.65,3.15c.25,1.07.63,2.67,1.06,2.67a.3.3,0,0,1,.3.3A.29.29,0,0,1,1011.44,761.64Z"/><path class="cls-5" d="M1060.21,761.64c-.81,0-1.07-2.36-1.65-14.86-.28-6-.62-13.45-1.15-14.29-.41-.08-.67-1.23-1-17.68-.21-10.43-.39-24.55-.55-38.21-.27-21.74-.57-46-1-53.05-.49,8.19-.79,39.66-1.07,67.82-.64,67.07-.91,70.27-1.65,70.27a.3.3,0,0,1-.3-.3.28.28,0,0,1,.08-.2c.62-1.93,1-38,1.27-69.77.65-67.07.92-70.27,1.65-70.27.47,0,.75,0,1.11,17.53.21,10.35.38,24.39.55,38,.3,25,.65,53.4,1.26,55.35.66.42.92,3.37,1.45,14.8.28,6,.63,13.53,1.16,14.31a.32.32,0,0,1,.19.28A.29.29,0,0,1,1060.21,761.64Z"/><path class="cls-5" d="M1081.89,761.64a.29.29,0,0,1-.3-.3.32.32,0,0,1,.1-.22c.67-1.71,2-30.73,3.1-56.35.61-13.82,1.25-28.1,1.8-38.63.94-17.82,1.23-17.82,1.67-17.82a.29.29,0,0,1,.3.29.33.33,0,0,1-.1.23c-.66,1.7-1.94,30.51-3.07,56-.62,13.89-1.26,28.26-1.82,38.87C1082.63,761.64,1082.33,761.64,1081.89,761.64Z"/><path class="cls-5" d="M1088.56,761.64H96.25a.29.29,0,0,1-.3-.3.3.3,0,0,1,.3-.3H1088V648.61a.3.3,0,0,1,.3-.29.29.29,0,0,1,.3.29Z"/><path d="M289.69,180.36c0,1.06.91,1.78,2.38,1.78s2.44-.64,2.44-1.72c0-2.53-6.32-.52-6.32-4.52,0-1.76,1.51-3,3.9-3s3.83,1.12,3.83,2.93h-1.65c0-1-.94-1.62-2.18-1.62s-2.22.54-2.22,1.56c0,2.52,6.37.48,6.37,4.55,0,1.89-1.52,3.17-4.17,3.17s-4.05-1.22-4.05-3.09Z"/><path d="M299.72,186.55h-1.61V176h1.55v1.08h.06a2.51,2.51,0,0,1,2.41-1.26c1.83,0,3.24,1.34,3.24,3.75s-1.5,3.86-3.36,3.86a2.35,2.35,0,0,1-2.29-1.26h-.06c.06.95.06,1.95.06,2.44Zm2-9.42c-1.1,0-1.95.88-2,2.4v.12c0,1.59.86,2.51,2,2.51s2-1,2-2.57S302.86,177.13,301.71,177.13Z"/><path d="M310.22,175.84a3.22,3.22,0,0,1,3.4,3.54v.53h-5.34c.09,1.42.84,2.28,2,2.28a1.56,1.56,0,0,0,1.68-1.12h1.58a3.08,3.08,0,0,1-3.27,2.38c-2.32,0-3.65-1.41-3.65-3.79A3.54,3.54,0,0,1,310.22,175.84Zm-1.87,3H312c-.13-1.21-.74-1.74-1.76-1.74A1.92,1.92,0,0,0,308.35,178.83Z"/><path d="M316.61,184.17c0,.8.77,1.29,1.83,1.29,1.29,0,2.17-.65,2.17-2.56v-.71h-.06a2.51,2.51,0,0,1-2.41,1.26c-1.83,0-3.24-1.34-3.24-3.75s1.5-3.86,3.36-3.86a2.35,2.35,0,0,1,2.29,1.26h.06V176h1.53v6.88c0,2.74-1.57,3.77-3.7,3.77-1.94,0-3.32-.84-3.35-2.5Zm1.93-2c1.15,0,2-.92,2-2.51v-.12c-.05-1.52-.88-2.4-2-2.4s-2,1-2,2.57S317.41,182.16,318.54,182.16Z"/><path d="M324.33,176h1.55v1h.06a2.32,2.32,0,0,1,2.24-1.23c1.45,0,2.73.77,2.73,3v4.4H329.3v-4.19c0-1.44-.61-1.93-1.55-1.93s-1.81.87-1.81,2.33v3.79h-1.61Z"/><path d="M332.92,172.38h1.72V174h-1.72ZM333,176h1.6v7.25H333Z"/><path d="M336.77,176h1.55v1h.06a2.58,2.58,0,0,1,4.51.21,2.47,2.47,0,0,1,2.44-1.44c1.41,0,2.57.77,2.57,2.94v4.49h-1.61V179c0-1.36-.47-1.83-1.4-1.83s-1.75.86-1.75,2.3v3.82h-1.61V179c0-1.36-.52-1.83-1.4-1.83s-1.75.86-1.75,2.32v3.8h-1.61Z"/><path d="M353.05,175.84a3.21,3.21,0,0,1,3.39,3.54v.53H351.1c.09,1.42.85,2.28,2,2.28a1.57,1.57,0,0,0,1.68-1.12h1.58a3.09,3.09,0,0,1-3.28,2.38c-2.32,0-3.64-1.41-3.64-3.79A3.54,3.54,0,0,1,353.05,175.84Zm-1.87,3h3.63c-.14-1.21-.75-1.74-1.76-1.74A1.92,1.92,0,0,0,351.18,178.83Z"/><path d="M358.07,176h1.54v1h.06a2.32,2.32,0,0,1,2.25-1.23c1.44,0,2.72.77,2.72,3v4.4H363v-4.19c0-1.44-.61-1.93-1.54-1.93s-1.82.87-1.82,2.33v3.79h-1.6Z"/><path d="M366.86,177.26h-1.37V176h1.37v-2.21h1.61V176h1.86v1.24h-1.86v3.6c0,.78.26,1.08,1,1.08h.85v1.33h-1.12c-1.67,0-2.35-.69-2.35-2.32Z"/><path d="M375,175.84a3.49,3.49,0,0,1,3.7,3.81,3.54,3.54,0,0,1-3.7,3.8,3.5,3.5,0,0,1-3.71-3.8A3.56,3.56,0,0,1,375,175.84Zm0,6.32c1.22,0,2-1,2-2.51s-.82-2.52-2-2.52-2,1-2,2.52S373.75,182.16,375,182.16Z"/><path d="M288.32,194.62h1.55v1h0a2,2,0,0,1,1.92-1.23,1.69,1.69,0,0,1,1,.29l-.41,1.43a2,2,0,0,0-.9-.24c-1.08,0-1.6,1.06-1.6,2.33v3.63h-1.61Z"/><path d="M293.87,191h1.73v1.64h-1.73Zm.06,3.64h1.61v7.26h-1.61Z"/><path d="M298.72,199.79c0,.81.82,1.13,1.61,1.13,1.12,0,1.67-.38,1.67-1s-.38-.76-1.11-.88l-1.33-.24c-1.12-.18-2.19-.62-2.19-2s1.32-2.32,3-2.32,3,.68,3,2.2h-1.5c0-.72-.64-1.07-1.51-1.07s-1.48.35-1.48,1,.34.75,1.2.9l1.34.22c1.15.19,2.14.64,2.14,2,0,1.6-1.34,2.38-3.27,2.38s-3.14-.74-3.14-2.26Z"/><path d="M308.39,194.44a3,3,0,0,1,3.31,2.66h-1.59a1.61,1.61,0,0,0-1.72-1.37c-1.13,0-1.94,1-1.94,2.52s.81,2.51,1.94,2.51a1.59,1.59,0,0,0,1.72-1.37h1.59a3,3,0,0,1-3.31,2.66c-2.23,0-3.61-1.42-3.61-3.8A3.52,3.52,0,0,1,308.39,194.44Z"/><path d="M315.37,197.8l1.42-.24c.71-.12.93-.21.93-.49a1.27,1.27,0,0,0-1.42-1.43,1.36,1.36,0,0,0-1.54,1.28h-1.53c.09-1.5,1.25-2.48,3.07-2.48,2,0,3,1,3,2.66v4.78H317.8V201h-.08a2.58,2.58,0,0,1-2.32,1.08c-1.59,0-2.45-.81-2.45-2S313.66,198.08,315.37,197.8Zm2.35.43a1.17,1.17,0,0,1-.74.34l-1.25.21c-.85.13-1.18.51-1.18,1.07s.42,1,1.24,1a1.82,1.82,0,0,0,1.93-1.95Z"/><path d="M321.41,191H323v10.9h-1.61Z"/><path d="M328.07,194.44a2.35,2.35,0,0,1,2.29,1.26h.06c-.08-.95-.08-1.95-.08-2.44V191H332v10.9h-1.53v-1.09h-.06a2.51,2.51,0,0,1-2.41,1.26c-1.83,0-3.25-1.33-3.25-3.74S326.21,194.44,328.07,194.44Zm.28,6.32c1.14,0,2-.92,2-2.51s-.85-2.52-2-2.52-2,1-2,2.58S327.22,200.76,328.35,200.76Z"/><path d="M336.15,197.8l1.41-.24c.71-.12.94-.21.94-.49a1.27,1.27,0,0,0-1.43-1.43,1.35,1.35,0,0,0-1.53,1.28H334c.09-1.5,1.25-2.48,3.07-2.48,2,0,3,1,3,2.66v4.78h-1.53V201h-.07a2.59,2.59,0,0,1-2.32,1.08c-1.6,0-2.46-.81-2.46-2S334.44,198.08,336.15,197.8Zm2.35.43a1.2,1.2,0,0,1-.75.34l-1.25.21c-.84.13-1.17.51-1.17,1.07s.41,1,1.23,1a1.83,1.83,0,0,0,1.94-1.95Z"/><path d="M342.19,194.62h1.55v1h.05a2.31,2.31,0,0,1,2.21-1.23,2.27,2.27,0,0,1,2.3,1.44,2.49,2.49,0,0,1,2.44-1.44c1.42,0,2.58.77,2.58,2.94v4.5h-1.61v-4.3c0-1.36-.48-1.83-1.4-1.83s-1.75.86-1.75,2.3v3.83H347v-4.3c0-1.36-.52-1.83-1.4-1.83s-1.76.86-1.76,2.32v3.81h-1.6Z"/><path d="M358.47,194.44a3.21,3.21,0,0,1,3.39,3.54v.53h-5.34c.09,1.42.85,2.28,2,2.28a1.57,1.57,0,0,0,1.68-1.12h1.57a3.07,3.07,0,0,1-3.27,2.38c-2.32,0-3.64-1.41-3.64-3.79A3.54,3.54,0,0,1,358.47,194.44Zm-1.88,3h3.63c-.13-1.21-.74-1.74-1.75-1.74A1.93,1.93,0,0,0,356.59,197.43Z"/><path d="M363.48,194.62H365v1h.06a2.32,2.32,0,0,1,2.24-1.23c1.45,0,2.73.77,2.73,3v4.41h-1.61v-4.2c0-1.44-.61-1.93-1.55-1.93s-1.81.87-1.81,2.33v3.8h-1.61Z"/><path d="M372.28,195.86h-1.37v-1.24h1.37v-2.21h1.6v2.21h1.86v1.24h-1.86v3.61c0,.77.27,1.07,1,1.07h.85v1.34h-1.11c-1.67,0-2.35-.7-2.35-2.33Z"/><path d="M377.13,191h1.72v1.64h-1.72Zm.06,3.64h1.6v7.26h-1.6Z"/><path d="M890.31,173h2l3.81,10.23h-1.77l-.88-2.48h-4.37l-.88,2.48h-1.7Zm.94,1.67-1.67,4.68H893l-1.65-4.68Z"/><path d="M900.59,175.84a3,3,0,0,1,3.31,2.66h-1.6a1.59,1.59,0,0,0-1.71-1.37c-1.13,0-2,1-2,2.52s.82,2.51,2,2.51a1.58,1.58,0,0,0,1.71-1.37h1.6a3,3,0,0,1-3.31,2.66c-2.23,0-3.61-1.43-3.61-3.8A3.5,3.5,0,0,1,900.59,175.84Z"/><path d="M908.7,175.84a3,3,0,0,1,3.3,2.66h-1.59a1.59,1.59,0,0,0-1.71-1.37c-1.13,0-2,1-2,2.52s.82,2.51,2,2.51a1.58,1.58,0,0,0,1.71-1.37H912a3,3,0,0,1-3.3,2.66c-2.23,0-3.61-1.43-3.61-3.8A3.5,3.5,0,0,1,908.7,175.84Z"/><path d="M916.8,175.84a3.21,3.21,0,0,1,3.39,3.54v.53h-5.34c.09,1.42.85,2.28,2,2.28a1.57,1.57,0,0,0,1.68-1.12h1.58a3.09,3.09,0,0,1-3.28,2.38c-2.32,0-3.64-1.41-3.64-3.79A3.54,3.54,0,0,1,916.8,175.84Zm-1.88,3h3.63c-.13-1.21-.74-1.74-1.75-1.74A1.93,1.93,0,0,0,914.92,178.83Z"/><path d="M921.81,176h1.55v1h.06a2.32,2.32,0,0,1,2.25-1.23c1.44,0,2.72.77,2.72,3v4.4h-1.61v-4.19c0-1.44-.61-1.93-1.55-1.93s-1.81.87-1.81,2.33v3.79h-1.61Z"/><path d="M931.45,181.19c0,.81.82,1.13,1.61,1.13,1.12,0,1.67-.38,1.67-1s-.37-.76-1.1-.88l-1.34-.24c-1.12-.18-2.19-.62-2.19-2s1.32-2.32,3-2.32,3,.68,3,2.2h-1.5c0-.72-.64-1.07-1.5-1.07s-1.49.35-1.49,1c0,.49.34.75,1.2.9l1.34.22c1.15.19,2.14.64,2.14,2,0,1.59-1.34,2.38-3.27,2.38s-3.14-.74-3.14-2.26Z"/><path d="M938,172.38h1.73V174H938ZM938,176h1.61v7.25H938Z"/><path d="M945,175.84a3.49,3.49,0,0,1,3.7,3.81,3.54,3.54,0,0,1-3.7,3.8,3.5,3.5,0,0,1-3.71-3.8A3.55,3.55,0,0,1,945,175.84Zm0,6.32c1.21,0,2-1,2-2.51s-.82-2.52-2-2.52-2,1-2,2.52S943.8,182.16,945,182.16Z"/><path d="M950.41,176H952v1H952a2.32,2.32,0,0,1,2.25-1.23c1.44,0,2.72.77,2.72,3v4.4h-1.61v-4.19c0-1.44-.61-1.93-1.55-1.93S952,178,952,179.48v3.79h-1.61Z"/><path d="M962.14,175.84a3.21,3.21,0,0,1,3.39,3.54v.53h-5.34c.09,1.42.85,2.28,2,2.28a1.57,1.57,0,0,0,1.68-1.12h1.57a3.07,3.07,0,0,1-3.27,2.38c-2.32,0-3.64-1.41-3.64-3.79A3.54,3.54,0,0,1,962.14,175.84Zm-1.88,3h3.63c-.13-1.21-.74-1.74-1.75-1.74A1.93,1.93,0,0,0,960.26,178.83Z"/><path d="M887.44,194.62H889v1h0a2,2,0,0,1,1.92-1.23,1.69,1.69,0,0,1,1,.29l-.42,1.43a2,2,0,0,0-.89-.24c-1.08,0-1.6,1.06-1.6,2.33v3.63h-1.61Z"/><path d="M893,191h1.72v1.64H893Zm.06,3.64h1.61v7.26h-1.61Z"/><path d="M897.84,199.79c0,.81.82,1.13,1.61,1.13,1.11,0,1.66-.38,1.66-1s-.37-.76-1.1-.88l-1.34-.24c-1.11-.18-2.18-.62-2.18-2s1.32-2.32,3-2.32,3,.68,3,2.2H901c0-.72-.64-1.07-1.5-1.07s-1.49.35-1.49,1,.35.75,1.21.9l1.34.22c1.14.19,2.14.64,2.14,2,0,1.6-1.34,2.38-3.27,2.38s-3.14-.74-3.14-2.26Z"/><path d="M907.51,194.44a3,3,0,0,1,3.3,2.66h-1.59a1.59,1.59,0,0,0-1.71-1.37c-1.13,0-2,1-2,2.52s.82,2.51,2,2.51a1.58,1.58,0,0,0,1.71-1.37h1.59a3,3,0,0,1-3.3,2.66c-2.23,0-3.61-1.42-3.61-3.8A3.51,3.51,0,0,1,907.51,194.44Z"/><path d="M914.49,197.8l1.41-.24c.72-.12.94-.21.94-.49a1.27,1.27,0,0,0-1.43-1.43,1.36,1.36,0,0,0-1.53,1.28h-1.53c.09-1.5,1.25-2.48,3.06-2.48,2,0,3,1,3,2.66v4.78h-1.53V201h-.08a2.58,2.58,0,0,1-2.32,1.08c-1.59,0-2.45-.81-2.45-2S912.78,198.08,914.49,197.8Zm2.35.43a1.19,1.19,0,0,1-.74.34l-1.25.21c-.85.13-1.18.51-1.18,1.07s.42,1,1.24,1a1.83,1.83,0,0,0,1.93-1.95Z"/><path d="M920.53,191h1.61v10.9h-1.61Z"/><path d="M927.18,194.44a2.35,2.35,0,0,1,2.29,1.26h.06c-.07-.95-.07-1.95-.07-2.44V191h1.61v10.9h-1.54v-1.09h-.06a2.49,2.49,0,0,1-2.41,1.26c-1.83,0-3.24-1.33-3.24-3.74S925.32,194.44,927.18,194.44Zm.29,6.32c1.14,0,2-.92,2-2.51s-.85-2.52-2-2.52-2,1-2,2.58S926.34,200.76,927.47,200.76Z"/><path d="M935.26,197.8l1.42-.24c.71-.12.94-.21.94-.49a1.28,1.28,0,0,0-1.43-1.43,1.36,1.36,0,0,0-1.54,1.28h-1.53c.09-1.5,1.25-2.48,3.07-2.48,2,0,3,1,3,2.66v4.78h-1.53V201h-.07a2.61,2.61,0,0,1-2.33,1.08c-1.59,0-2.45-.81-2.45-2S933.55,198.08,935.26,197.8Zm2.36.43a1.22,1.22,0,0,1-.75.34l-1.25.21c-.85.13-1.17.51-1.17,1.07s.41,1,1.23,1a1.83,1.83,0,0,0,1.94-1.95Z"/><path d="M941.3,194.62h1.55v1h.06a2.58,2.58,0,0,1,4.51.21,2.49,2.49,0,0,1,2.44-1.44c1.41,0,2.57.77,2.57,2.94v4.5h-1.6v-4.3c0-1.36-.48-1.83-1.4-1.83s-1.76.86-1.76,2.3v3.83h-1.6v-4.3c0-1.36-.53-1.83-1.4-1.83s-1.76.86-1.76,2.32v3.81H941.3Z"/><path d="M957.58,194.44A3.22,3.22,0,0,1,961,198v.53h-5.35c.09,1.42.85,2.28,2,2.28a1.56,1.56,0,0,0,1.68-1.12h1.58a3.08,3.08,0,0,1-3.27,2.38c-2.32,0-3.65-1.41-3.65-3.79A3.54,3.54,0,0,1,957.58,194.44Zm-1.87,3h3.63c-.14-1.21-.74-1.74-1.76-1.74A1.92,1.92,0,0,0,955.71,197.43Z"/><path d="M962.6,194.62h1.55v1h.06a2.31,2.31,0,0,1,2.24-1.23c1.45,0,2.72.77,2.72,3v4.41h-1.6v-4.2c0-1.44-.61-1.93-1.55-1.93s-1.81.87-1.81,2.33v3.8H962.6Z"/><path d="M971.39,195.86H970v-1.24h1.36v-2.21H973v2.21h1.86v1.24H973v3.61c0,.77.27,1.07,1,1.07h.85v1.34h-1.12c-1.66,0-2.35-.7-2.35-2.33Z"/><path d="M976.24,191H978v1.64h-1.73Zm.06,3.64h1.61v7.26H976.3Z"/></g><g id="info_1"><g class="cls-6"><circle class="cls-4" cx="971.4" cy="128.21" r="10.4"/></g></g></svg>