<?xml version="1.0" encoding="utf-8"?>
<!-- Generator: Adobe Illustrator 26.2.1, SVG Export Plug-In . SVG Version: 6.00 Build 0)  -->
<svg version="1.1" id="Livello_1" xmlns="http://www.w3.org/2000/svg" xmlns:xlink="http://www.w3.org/1999/xlink" x="0px" y="0px"
	 viewBox="0 0 999.1 1710.8" style="enable-background:new 0 0 999.1 1710.8;" xml:space="preserve">
<style type="text/css">
	.st0{fill:#EEEEEE;}
	.st1{fill:#B7B7B7;}
	.st2{fill:#EA4D27;}
	.st3{fill:#E84D27;}
	.st4{fill:none;stroke:#FFFFFF;stroke-linecap:round;stroke-linejoin:round;}
	.st5{opacity:0.7;fill:#FFFFFF;enable-background:new    ;}
	.st6{fill:none;stroke:#E64D27;stroke-miterlimit:10;}
	.st7{fill:#FF3A00;}
	.st8{opacity:0.2;}
</style>
<g id="Layer_1">
	<rect x="52.7" y="85.5" class="st0" width="933.7" height="384.5"/>
	<rect x="52.7" y="1136.1" class="st0" width="933.7" height="281.1"/>
	<path class="st1" d="M52.2,199.3c0-0.2,0.2-0.4,0.4-0.4h934.1c0.2-0.1,0.5,0.1,0.5,0.3c0,0.2-0.1,0.4-0.3,0.5c0,0,0,0,0,0H52.7
		C52.5,199.7,52.3,199.6,52.2,199.3C52.2,199.4,52.2,199.3,52.2,199.3L52.2,199.3z"/>
	<path class="st1" d="M52.2,301.7c0-0.2,0.2-0.4,0.4-0.4c0,0,0,0,0,0h934.1c0.2,0,0.4,0.1,0.5,0.4l0,0c0,0.2-0.2,0.4-0.5,0.4h-934
		C52.5,302.1,52.3,301.9,52.2,301.7C52.2,301.7,52.2,301.7,52.2,301.7z"/>
	<path class="st1" d="M52.2,415.1c0-0.2,0.2-0.4,0.5-0.4h934c0.2,0,0.4,0.2,0.5,0.4c0,0.2-0.2,0.4-0.4,0.4c0,0,0,0,0,0h-934
		C52.4,415.5,52.2,415.3,52.2,415.1L52.2,415.1z"/>
	<path class="st1" d="M52.2,524.8c0-0.2,0.2-0.4,0.5-0.4h934c0.2,0,0.4,0.2,0.5,0.4c0,0.2-0.2,0.4-0.4,0.4c0,0,0,0,0,0h-934
		C52.4,525.2,52.2,525.1,52.2,524.8L52.2,524.8z"/>
	<path class="st1" d="M52.2,638.2c0-0.2,0.2-0.4,0.4-0.4c0,0,0,0,0,0h934.1c0.2,0,0.4,0.2,0.4,0.4c0,0.2-0.2,0.4-0.4,0.4
		c0,0,0,0,0,0h-934C52.5,638.6,52.3,638.4,52.2,638.2L52.2,638.2z"/>
	<path class="st1" d="M52.2,747.9c0-0.2,0.2-0.4,0.5-0.4h934c0.2,0,0.4,0.2,0.5,0.4c0,0.2-0.2,0.4-0.4,0.4c0,0,0,0,0,0h-934
		C52.4,748.3,52.2,748.1,52.2,747.9L52.2,747.9z"/>
	<path class="st1" d="M52.2,861.2c0-0.2,0.2-0.4,0.4-0.4h934.1c0.2,0,0.4,0.2,0.5,0.4l0,0c0,0.2-0.2,0.4-0.5,0.4h-934
		C52.5,861.7,52.3,861.5,52.2,861.2C52.2,861.3,52.2,861.3,52.2,861.2z"/>
	<path class="st1" d="M52.2,974.6c0-0.2,0.2-0.4,0.5-0.4h934c0.2,0,0.4,0.2,0.5,0.4c0,0.2-0.2,0.4-0.4,0.4c0,0,0,0,0,0h-934
		C52.4,975.1,52.2,974.9,52.2,974.6L52.2,974.6z"/>
	<path class="st1" d="M52.2,1084.3c0-0.2,0.2-0.4,0.4-0.4h934.1c0.2,0,0.5,0.1,0.5,0.3c0,0.2-0.1,0.4-0.3,0.5c0,0,0,0,0,0H52.7
		C52.5,1084.8,52.3,1084.6,52.2,1084.3C52.2,1084.4,52.2,1084.4,52.2,1084.3L52.2,1084.3z"/>
	<path class="st1" d="M52.2,1197.7c0-0.2,0.2-0.4,0.5-0.4c0,0,0,0,0,0h934c0.2,0,0.4,0.2,0.5,0.4c0,0.2-0.2,0.4-0.4,0.4c0,0,0,0,0,0
		h-934C52.4,1198.1,52.2,1198,52.2,1197.7L52.2,1197.7z"/>
	<path class="st1" d="M52.2,1307.4c0-0.2,0.2-0.4,0.5-0.4h934c0.2,0,0.4,0.2,0.5,0.4c0,0.2-0.2,0.4-0.4,0.4c0,0,0,0,0,0h-934
		C52.4,1307.9,52.2,1307.7,52.2,1307.4L52.2,1307.4z"/>
	<path class="st1" d="M52.2,86c0-0.2,0.2-0.4,0.4-0.4h934.1c0.2,0,0.4,0.2,0.5,0.4l0,0c0,0.2-0.2,0.4-0.5,0.4h-934
		C52.5,86.4,52.3,86.3,52.2,86C52.2,86,52.2,86,52.2,86z"/>
	<path class="st1" d="M52.2,1417.1c0-0.2,0.2-0.4,0.5-0.4h934c0.2,0,0.4,0.2,0.5,0.4l0,0c0,0.2-0.2,0.4-0.4,0.4c0,0,0,0,0,0h-934
		C52.4,1417.6,52.2,1417.4,52.2,1417.1L52.2,1417.1z"/>
	<ellipse cx="332.4" cy="85.9" rx="4.6" ry="4"/>
	<ellipse cx="440.7" cy="96.9" rx="4.6" ry="4"/>
	<ellipse cx="305.3" cy="100.6" rx="4.6" ry="4"/>
	<ellipse cx="233.1" cy="104.2" rx="4.6" ry="4"/>
	<ellipse cx="251.2" cy="107.9" rx="4.6" ry="4"/>
	<ellipse cx="422.7" cy="111.6" rx="4.6" ry="4"/>
	<ellipse cx="404.6" cy="122.5" rx="4.6" ry="4"/>
	<ellipse cx="305.3" cy="133.5" rx="4.6" ry="4"/>
	<ellipse cx="440.7" cy="137.1" rx="4.6" ry="4"/>
	<ellipse cx="296.3" cy="140.8" rx="4.6" ry="4"/>
	<ellipse cx="260.2" cy="144.5" rx="4.6" ry="4"/>
	<ellipse cx="350.5" cy="148.1" rx="4.6" ry="4"/>
	<ellipse cx="395.6" cy="151.8" rx="4.6" ry="4"/>
	<ellipse cx="440.7" cy="155.4" rx="4.6" ry="4"/>
	<ellipse cx="494.8" cy="159.1" rx="4.6" ry="4"/>
	<ellipse cx="422.7" cy="170.1" rx="4.6" ry="4"/>
	<ellipse cx="494.8" cy="173.7" rx="4.6" ry="4"/>
	<ellipse cx="296.3" cy="210.3" rx="4.6" ry="4"/>
	<ellipse cx="188" cy="214" rx="4.6" ry="4"/>
	<ellipse cx="161" cy="217.6" rx="4.6" ry="4"/>
	<ellipse cx="296.3" cy="221.3" rx="4.6" ry="4"/>
	<ellipse cx="350.5" cy="224.9" rx="4.6" ry="4"/>
	<ellipse cx="476.8" cy="228.6" rx="4.6" ry="4"/>
	<ellipse cx="377.5" cy="232.2" rx="4.6" ry="4"/>
	<ellipse cx="476.8" cy="246.9" rx="4.6" ry="4"/>
	<ellipse cx="440.7" cy="250.5" rx="4.6" ry="4"/>
	<ellipse cx="305.3" cy="254.2" rx="4.6" ry="4"/>
	<ellipse cx="422.7" cy="257.8" rx="4.6" ry="4"/>
	<ellipse cx="476.8" cy="261.5" rx="4.6" ry="4"/>
	<ellipse cx="476.8" cy="265.1" rx="4.6" ry="4"/>
	<ellipse cx="413.6" cy="283.4" rx="4.6" ry="4"/>
	<ellipse cx="179" cy="287.1" rx="4.6" ry="4"/>
	<ellipse cx="215.1" cy="290.8" rx="4.6" ry="4"/>
	<ellipse cx="341.4" cy="294.4" rx="4.6" ry="4"/>
	<ellipse cx="170" cy="298.1" rx="4.6" ry="4"/>
	<ellipse cx="133.9" cy="301.7" rx="4.6" ry="4"/>
	<ellipse cx="260.2" cy="305.4" rx="4.6" ry="4"/>
	<ellipse cx="368.5" cy="309" rx="4.6" ry="4"/>
	<ellipse cx="305.3" cy="312.7" rx="4.6" ry="4"/>
	<ellipse cx="88.8" cy="316.4" rx="4.6" ry="4"/>
	<ellipse cx="133.9" cy="320" rx="4.6" ry="4"/>
	<ellipse cx="260.2" cy="323.7" rx="4.6" ry="4"/>
	<ellipse cx="206.1" cy="327.3" rx="4.6" ry="4"/>
	<ellipse cx="278.3" cy="331" rx="4.6" ry="4"/>
	<ellipse cx="278.3" cy="334.6" rx="4.6" ry="4"/>
	<ellipse cx="170" cy="338.3" rx="4.6" ry="4"/>
	<ellipse cx="188" cy="342" rx="4.6" ry="4"/>
	<ellipse cx="332.4" cy="345.6" rx="4.6" ry="4"/>
	<ellipse cx="368.5" cy="352.9" rx="4.6" ry="4"/>
	<ellipse cx="440.7" cy="356.6" rx="4.6" ry="4"/>
	<ellipse cx="323.4" cy="360.2" rx="4.6" ry="4"/>
	<ellipse cx="206.1" cy="363.9" rx="4.6" ry="4"/>
	<ellipse cx="458.8" cy="367.5" rx="4.6" ry="4"/>
	<ellipse cx="494.8" cy="374.9" rx="4.6" ry="4"/>
	<ellipse cx="494.8" cy="378.5" rx="4.6" ry="4"/>
	<ellipse cx="323.4" cy="382.2" rx="4.6" ry="4"/>
	<ellipse cx="395.6" cy="385.8" rx="4.6" ry="4"/>
	<ellipse cx="422.7" cy="389.5" rx="4.6" ry="4"/>
	<ellipse cx="161" cy="393.1" rx="4.6" ry="4"/>
	<ellipse cx="215.1" cy="396.8" rx="4.6" ry="4"/>
	<ellipse cx="260.2" cy="400.5" rx="4.6" ry="4"/>
	<ellipse cx="278.3" cy="404.1" rx="4.6" ry="4"/>
	<ellipse cx="242.2" cy="407.8" rx="4.6" ry="4"/>
	<ellipse cx="269.2" cy="411.4" rx="4.6" ry="4"/>
	<ellipse cx="251.2" cy="415.1" rx="4.6" ry="4"/>
	<ellipse cx="404.6" cy="418.8" rx="4.6" ry="4"/>
	<ellipse cx="296.3" cy="422.4" rx="4.6" ry="4"/>
	<ellipse cx="314.4" cy="426.1" rx="4.6" ry="4"/>
	<ellipse cx="251.2" cy="429.7" rx="4.6" ry="4"/>
	<ellipse cx="269.2" cy="433.4" rx="4.6" ry="4"/>
	<ellipse cx="224.1" cy="437" rx="4.6" ry="4"/>
	<ellipse cx="278.3" cy="440.7" rx="4.6" ry="4"/>
	<ellipse cx="260.2" cy="444.4" rx="4.6" ry="4"/>
	<ellipse cx="233.1" cy="448" rx="4.6" ry="4"/>
	<ellipse cx="296.3" cy="451.7" rx="4.6" ry="4"/>
	<ellipse cx="242.2" cy="455.3" rx="4.6" ry="4"/>
	<ellipse cx="197.1" cy="459" rx="4.6" ry="4"/>
	<ellipse cx="233.1" cy="462.6" rx="4.6" ry="4"/>
	<ellipse cx="188" cy="466.3" rx="4.6" ry="4"/>
	<ellipse cx="151.9" cy="470" rx="4.6" ry="4"/>
	<ellipse cx="142.9" cy="473.6" rx="4.6" ry="4"/>
	<ellipse cx="142.9" cy="477.3" rx="4.6" ry="4"/>
	<ellipse cx="179" cy="480.9" rx="4.6" ry="4"/>
	<ellipse cx="197.1" cy="484.6" rx="4.6" ry="4"/>
	<ellipse cx="233.1" cy="488.2" rx="4.6" ry="4"/>
	<ellipse cx="206.1" cy="491.9" rx="4.6" ry="4"/>
	<ellipse cx="224.1" cy="495.5" rx="4.6" ry="4"/>
	<ellipse cx="287.3" cy="499.2" rx="4.6" ry="4"/>
	<ellipse cx="133.9" cy="502.9" rx="4.6" ry="4"/>
	<ellipse cx="206.1" cy="506.5" rx="4.6" ry="4"/>
	<ellipse cx="269.2" cy="510.2" rx="4.6" ry="4"/>
	<ellipse cx="161" cy="513.8" rx="4.6" ry="4"/>
	<ellipse cx="188" cy="517.5" rx="4.6" ry="4"/>
	<ellipse cx="179" cy="521.2" rx="4.6" ry="4"/>
	<ellipse cx="188" cy="524.8" rx="4.6" ry="4"/>
	<ellipse cx="142.9" cy="528.5" rx="4.6" ry="4"/>
	<ellipse cx="188" cy="532.1" rx="4.6" ry="4"/>
	<ellipse cx="188" cy="535.8" rx="4.6" ry="4"/>
	<ellipse cx="197.1" cy="539.4" rx="4.6" ry="4"/>
	<ellipse cx="206.1" cy="543.1" rx="4.6" ry="4"/>
	<ellipse cx="79.8" cy="546.8" rx="4.6" ry="4"/>
	<ellipse cx="170" cy="550.4" rx="4.6" ry="4"/>
	<ellipse cx="124.9" cy="554.1" rx="4.6" ry="4"/>
	<ellipse cx="179" cy="557.7" rx="4.6" ry="4"/>
	<ellipse cx="251.2" cy="561.4" rx="4.6" ry="4"/>
	<ellipse cx="287.3" cy="565" rx="4.6" ry="4"/>
	<ellipse cx="179" cy="568.7" rx="4.6" ry="4"/>
	<ellipse cx="170" cy="572.3" rx="4.6" ry="4"/>
	<ellipse cx="197.1" cy="576" rx="4.6" ry="4"/>
	<ellipse cx="197.1" cy="579.7" rx="4.6" ry="4"/>
	<ellipse cx="179" cy="583.3" rx="4.6" ry="4"/>
	<ellipse cx="188" cy="587" rx="4.6" ry="4"/>
	<ellipse cx="188" cy="590.6" rx="4.6" ry="4"/>
	<ellipse cx="161" cy="594.3" rx="4.6" ry="4"/>
	<ellipse cx="133.9" cy="598" rx="4.6" ry="4"/>
	<ellipse cx="179" cy="601.6" rx="4.6" ry="4"/>
	<ellipse cx="188" cy="605.3" rx="4.6" ry="4"/>
	<ellipse cx="179" cy="608.9" rx="4.6" ry="4"/>
	<ellipse cx="197.1" cy="612.6" rx="4.6" ry="4"/>
	<ellipse cx="188" cy="616.2" rx="4.6" ry="4"/>
	<ellipse cx="179" cy="619.9" rx="4.6" ry="4"/>
	<ellipse cx="170" cy="623.5" rx="4.6" ry="4"/>
	<ellipse cx="197.1" cy="627.2" rx="4.6" ry="4"/>
	<ellipse cx="215.1" cy="630.9" rx="4.6" ry="4"/>
	<ellipse cx="170" cy="634.5" rx="4.6" ry="4"/>
	<ellipse cx="161" cy="638.2" rx="4.6" ry="4"/>
	<ellipse cx="179" cy="641.8" rx="4.6" ry="4"/>
	<ellipse cx="178.9" cy="645.5" rx="4.6" ry="4"/>
	<ellipse cx="133.9" cy="649.2" rx="4.6" ry="4"/>
	<ellipse cx="170" cy="652.8" rx="4.6" ry="4"/>
	<ellipse cx="179" cy="656.5" rx="4.6" ry="4"/>
	<ellipse cx="224.1" cy="660.1" rx="4.6" ry="4"/>
	<ellipse cx="161" cy="663.8" rx="4.6" ry="4"/>
	<ellipse cx="179" cy="667.4" rx="4.6" ry="4"/>
	<ellipse cx="215.1" cy="671.1" rx="4.6" ry="4"/>
	<ellipse cx="179" cy="674.7" rx="4.6" ry="4"/>
	<ellipse cx="206.1" cy="678.4" rx="4.6" ry="4"/>
	<ellipse cx="242.2" cy="682.1" rx="4.6" ry="4"/>
	<ellipse cx="251.2" cy="685.7" rx="4.6" ry="4"/>
	<ellipse cx="251.2" cy="689.4" rx="4.6" ry="4"/>
	<ellipse cx="278.3" cy="693" rx="4.6" ry="4"/>
	<ellipse cx="260.2" cy="696.7" rx="4.6" ry="4"/>
	<ellipse cx="170" cy="700.3" rx="4.6" ry="4"/>
	<ellipse cx="188" cy="704" rx="4.6" ry="4"/>
	<ellipse cx="224.1" cy="707.7" rx="4.6" ry="4"/>
	<ellipse cx="197.1" cy="711.3" rx="4.6" ry="4"/>
	<ellipse cx="233.1" cy="715" rx="4.6" ry="4"/>
	<ellipse cx="224.1" cy="718.6" rx="4.6" ry="4"/>
	<ellipse cx="233.1" cy="722.3" rx="4.6" ry="4"/>
	<ellipse cx="224.1" cy="726" rx="4.6" ry="4"/>
	<ellipse cx="233.1" cy="729.6" rx="4.6" ry="4"/>
	<ellipse cx="278.3" cy="733.3" rx="4.6" ry="4"/>
	<ellipse cx="215.1" cy="736.9" rx="4.6" ry="4"/>
	<ellipse cx="151.9" cy="740.6" rx="4.6" ry="4"/>
	<ellipse cx="170" cy="744.2" rx="4.6" ry="4"/>
	<ellipse cx="151.9" cy="747.9" rx="4.6" ry="4"/>
	<ellipse cx="215.1" cy="751.5" rx="4.6" ry="4"/>
	<ellipse cx="179" cy="755.2" rx="4.6" ry="4"/>
	<ellipse cx="233.2" cy="758.9" rx="4.6" ry="4"/>
	<ellipse cx="224.1" cy="762.5" rx="4.6" ry="4"/>
	<ellipse cx="206.1" cy="766.2" rx="4.6" ry="4"/>
	<ellipse cx="179" cy="769.8" rx="4.6" ry="4"/>
	<ellipse cx="242.2" cy="773.5" rx="4.6" ry="4"/>
	<ellipse cx="287.3" cy="777.1" rx="4.6" ry="4"/>
	<ellipse cx="188" cy="780.8" rx="4.6" ry="4"/>
	<ellipse cx="233.1" cy="784.5" rx="4.6" ry="4"/>
	<ellipse cx="206.1" cy="788.1" rx="4.6" ry="4"/>
	<ellipse cx="233.1" cy="791.8" rx="4.6" ry="4"/>
	<ellipse cx="224.1" cy="795.4" rx="4.6" ry="4"/>
	<ellipse cx="151.9" cy="799.1" rx="4.6" ry="4"/>
	<ellipse cx="170" cy="802.8" rx="4.6" ry="4"/>
	<ellipse cx="188" cy="806.4" rx="4.6" ry="4"/>
	<ellipse cx="215.1" cy="810.1" rx="4.6" ry="4"/>
	<ellipse cx="224.1" cy="813.7" rx="4.6" ry="4"/>
	<ellipse cx="233.1" cy="817.4" rx="4.6" ry="4"/>
	<ellipse cx="260.2" cy="821" rx="4.6" ry="4"/>
	<ellipse cx="242.2" cy="824.7" rx="4.6" ry="4"/>
	<ellipse cx="233.1" cy="828.3" rx="4.6" ry="4"/>
	<ellipse cx="215.1" cy="832" rx="4.6" ry="4"/>
	<ellipse cx="161" cy="835.7" rx="4.6" ry="4"/>
	<ellipse cx="170" cy="839.3" rx="4.6" ry="4"/>
	<ellipse cx="188" cy="843" rx="4.6" ry="4"/>
	<ellipse cx="251.2" cy="846.6" rx="4.6" ry="4"/>
	<ellipse cx="251.2" cy="850.3" rx="4.6" ry="4"/>
	<ellipse cx="179" cy="854" rx="4.6" ry="4"/>
	<ellipse cx="242.2" cy="857.6" rx="4.6" ry="4"/>
	<ellipse cx="287.3" cy="861.3" rx="4.6" ry="4"/>
	<ellipse cx="341.4" cy="864.9" rx="4.6" ry="4"/>
	<ellipse cx="350.5" cy="868.6" rx="4.6" ry="4"/>
	<ellipse cx="350.5" cy="872.2" rx="4.6" ry="4"/>
	<ellipse cx="368.5" cy="875.9" rx="4.6" ry="4"/>
	<ellipse cx="314.4" cy="879.5" rx="4.6" ry="4"/>
	<ellipse cx="233.1" cy="883.2" rx="4.6" ry="4"/>
	<ellipse cx="224.1" cy="886.9" rx="4.6" ry="4"/>
	<ellipse cx="305.3" cy="890.5" rx="4.6" ry="4"/>
	<ellipse cx="224.1" cy="894.2" rx="4.6" ry="4"/>
	<ellipse cx="161" cy="897.8" rx="4.6" ry="4"/>
	<ellipse cx="151.9" cy="901.5" rx="4.6" ry="4"/>
	<ellipse cx="133.9" cy="905.2" rx="4.6" ry="4"/>
	<ellipse cx="151.9" cy="908.8" rx="4.6" ry="4"/>
	<ellipse cx="124.9" cy="912.5" rx="4.6" ry="4"/>
	<ellipse cx="170" cy="916.1" rx="4.6" ry="4"/>
	<ellipse cx="197.1" cy="919.8" rx="4.6" ry="4"/>
	<ellipse cx="224.1" cy="923.4" rx="4.6" ry="4"/>
	<ellipse cx="251.2" cy="927.1" rx="4.6" ry="4"/>
	<ellipse cx="142.9" cy="930.8" rx="4.6" ry="4"/>
	<ellipse cx="151.9" cy="934.4" rx="4.6" ry="4"/>
	<ellipse cx="179" cy="938.1" rx="4.6" ry="4"/>
	<ellipse cx="197.1" cy="941.7" rx="4.6" ry="4"/>
	<ellipse cx="242.2" cy="945.4" rx="4.6" ry="4"/>
	<ellipse cx="242.2" cy="949" rx="4.6" ry="4"/>
	<ellipse cx="233.1" cy="952.7" rx="4.6" ry="4"/>
	<ellipse cx="224.1" cy="956.3" rx="4.6" ry="4"/>
	<ellipse cx="296.3" cy="960" rx="4.6" ry="4"/>
	<ellipse cx="224.1" cy="963.7" rx="4.6" ry="4"/>
	<ellipse cx="233.1" cy="967.3" rx="4.6" ry="4"/>
	<ellipse cx="314.4" cy="971" rx="4.6" ry="4"/>
	<ellipse cx="151.9" cy="974.6" rx="4.6" ry="4"/>
	<ellipse cx="142.9" cy="978.3" rx="4.6" ry="4"/>
	<ellipse cx="88.8" cy="982" rx="4.6" ry="4"/>
	<ellipse cx="161" cy="985.6" rx="4.6" ry="4"/>
	<ellipse cx="206.1" cy="989.3" rx="4.6" ry="4"/>
	<ellipse cx="151.9" cy="1000.2" rx="4.6" ry="4"/>
	<ellipse cx="151.9" cy="1003.9" rx="4.6" ry="4"/>
	<ellipse cx="161" cy="1007.5" rx="4.6" ry="4"/>
	<ellipse cx="179" cy="1011.2" rx="4.6" ry="4"/>
	<ellipse cx="170" cy="1014.9" rx="4.6" ry="4"/>
	<ellipse cx="215.1" cy="1018.5" rx="4.6" ry="4"/>
	<path d="M197.1,1018.2c2.5,0,4.6,1.8,4.6,4c0,2.2-2.1,4-4.6,4s-4.6-1.8-4.6-4C192.5,1020,194.5,1018.2,197.1,1018.2z"/>
	<ellipse cx="305.3" cy="1025.8" rx="4.6" ry="4"/>
	<ellipse cx="179" cy="1029.5" rx="4.6" ry="4"/>
	<ellipse cx="142.9" cy="1033.2" rx="4.6" ry="4"/>
	<ellipse cx="197.1" cy="1036.8" rx="4.6" ry="4"/>
	<ellipse cx="124.9" cy="1040.5" rx="4.6" ry="4"/>
	<ellipse cx="151.9" cy="1044.1" rx="4.6" ry="4"/>
	<ellipse cx="224.1" cy="1051.4" rx="4.6" ry="4"/>
	<ellipse cx="242.2" cy="1055.1" rx="4.6" ry="4"/>
	<ellipse cx="179" cy="1058.8" rx="4.6" ry="4"/>
	<ellipse cx="161" cy="1062.4" rx="4.6" ry="4"/>
	<ellipse cx="215.1" cy="1066.1" rx="4.6" ry="4"/>
	<ellipse cx="296.3" cy="1069.7" rx="4.6" ry="4"/>
	<ellipse cx="350.5" cy="1073.4" rx="4.6" ry="4"/>
	<ellipse cx="305.3" cy="1077" rx="4.6" ry="4"/>
	<ellipse cx="287.3" cy="1080.7" rx="4.6" ry="4"/>
	<ellipse cx="305.3" cy="1084.3" rx="4.6" ry="4"/>
	<ellipse cx="341.4" cy="1088" rx="4.6" ry="4"/>
	<ellipse cx="386.5" cy="1091.7" rx="4.6" ry="4"/>
	<ellipse cx="440.7" cy="1095.3" rx="4.6" ry="4"/>
	<ellipse cx="359.5" cy="1099" rx="4.6" ry="4"/>
	<ellipse cx="215.1" cy="1102.6" rx="4.6" ry="4"/>
	<ellipse cx="115.8" cy="1106.3" rx="4.6" ry="4"/>
	<ellipse cx="133.9" cy="1109.9" rx="4.6" ry="4"/>
	<ellipse cx="260.2" cy="1113.6" rx="4.6" ry="4"/>
	<ellipse cx="287.3" cy="1117.3" rx="4.6" ry="4"/>
	<ellipse cx="314.4" cy="1120.9" rx="4.6" ry="4"/>
	<ellipse cx="305.3" cy="1124.6" rx="4.6" ry="4"/>
	<ellipse cx="350.5" cy="1128.2" rx="4.6" ry="4"/>
	<ellipse cx="350.5" cy="1135.6" rx="4.6" ry="4"/>
	<ellipse cx="323.4" cy="1139.2" rx="4.6" ry="4"/>
	<ellipse cx="350.5" cy="1142.9" rx="4.6" ry="4"/>
	<ellipse cx="449.7" cy="1146.5" rx="4.6" ry="4"/>
	<ellipse cx="106.8" cy="1164.8" rx="4.6" ry="4"/>
	<ellipse cx="151.9" cy="1168.5" rx="4.6" ry="4"/>
	<ellipse cx="224.1" cy="1172.1" rx="4.6" ry="4"/>
	<ellipse cx="332.4" cy="1175.8" rx="4.6" ry="4"/>
	<ellipse cx="494.8" cy="1179.4" rx="4.6" ry="4"/>
	<ellipse cx="323.4" cy="1186.8" rx="4.6" ry="4"/>
	<ellipse cx="305.3" cy="1194.1" rx="4.6" ry="4"/>
	<ellipse cx="260.2" cy="1197.7" rx="4.6" ry="4"/>
	<ellipse cx="332.4" cy="1201.4" rx="4.6" ry="4"/>
	<ellipse cx="359.5" cy="1212.3" rx="4.6" ry="4"/>
	<ellipse cx="142.9" cy="1216" rx="4.6" ry="4"/>
	<ellipse cx="133.9" cy="1219.7" rx="4.6" ry="4"/>
	<ellipse cx="242.2" cy="1223.3" rx="4.6" ry="4"/>
	<ellipse cx="404.6" cy="1227" rx="4.6" ry="4"/>
	<ellipse cx="440.7" cy="1230.6" rx="4.6" ry="4"/>
	<ellipse cx="305.3" cy="1234.3" rx="4.6" ry="4"/>
	<ellipse cx="305.3" cy="1237.9" rx="4.6" ry="4"/>
	<ellipse cx="79.8" cy="1241.6" rx="4.6" ry="4"/>
	<ellipse cx="251.2" cy="1245.3" rx="4.6" ry="4"/>
	<ellipse cx="305.3" cy="1248.9" rx="4.6" ry="4"/>
	<ellipse cx="323.4" cy="1252.6" rx="4.6" ry="4"/>
	<ellipse cx="395.6" cy="1256.2" rx="4.6" ry="4"/>
	<ellipse cx="341.4" cy="1259.9" rx="4.6" ry="4"/>
	<ellipse cx="341.4" cy="1263.6" rx="4.6" ry="4"/>
	<ellipse cx="386.5" cy="1267.2" rx="4.6" ry="4"/>
	<ellipse cx="377.5" cy="1270.9" rx="4.6" ry="4"/>
	<ellipse cx="449.7" cy="1274.5" rx="4.6" ry="4"/>
	<ellipse cx="197.1" cy="1289.2" rx="4.6" ry="4"/>
	<ellipse cx="170" cy="1292.8" rx="4.6" ry="4"/>
	<ellipse cx="251.2" cy="1296.5" rx="4.6" ry="4"/>
	<ellipse cx="485.8" cy="1300.1" rx="4.6" ry="4"/>
	<ellipse cx="341.4" cy="1303.8" rx="4.6" ry="4"/>
	<ellipse cx="251.2" cy="1307.4" rx="4.6" ry="4"/>
	<ellipse cx="251.2" cy="1311.1" rx="4.6" ry="4"/>
	<ellipse cx="350.5" cy="1314.7" rx="4.6" ry="4"/>
	<ellipse cx="332.4" cy="1318.4" rx="4.6" ry="4"/>
	<ellipse cx="404.6" cy="1322.1" rx="4.6" ry="4"/>
	<ellipse cx="323.4" cy="1325.7" rx="4.6" ry="4"/>
	<ellipse cx="422.7" cy="1329.4" rx="4.6" ry="4"/>
	<ellipse cx="224.1" cy="1336.7" rx="4.6" ry="4"/>
	<ellipse cx="142.9" cy="1340.3" rx="4.6" ry="4"/>
	<ellipse cx="224.1" cy="1344" rx="4.6" ry="4"/>
	<ellipse cx="449.7" cy="1351.3" rx="4.6" ry="4"/>
	<ellipse cx="458.8" cy="1355" rx="4.6" ry="4"/>
	<ellipse cx="359.5" cy="1358.6" rx="4.6" ry="4"/>
	<ellipse cx="359.5" cy="1362.3" rx="4.6" ry="4"/>
	<ellipse cx="305.3" cy="1365.9" rx="4.6" ry="4"/>
	<ellipse cx="323.4" cy="1369.6" rx="4.6" ry="4"/>
	<ellipse cx="359.5" cy="1387.9" rx="4.6" ry="4"/>
	<ellipse cx="287.3" cy="1391.6" rx="4.6" ry="4"/>
	<ellipse cx="359.5" cy="1395.2" rx="4.6" ry="4"/>
	<ellipse cx="251.2" cy="1402.5" rx="4.6" ry="4"/>
	<ellipse cx="97.8" cy="1406.2" rx="4.6" ry="4"/>
	<ellipse cx="179" cy="1409.8" rx="4.6" ry="4"/>
	<ellipse cx="314.4" cy="1413.5" rx="4.6" ry="4"/>
	<ellipse cx="413.6" cy="1417.1" rx="4.6" ry="4"/>
	<ellipse class="st2" cx="576.1" cy="89.6" rx="4.6" ry="4"/>
	<ellipse class="st2" cx="873.8" cy="93.3" rx="4.6" ry="4"/>
	<ellipse class="st2" cx="521.9" cy="115.2" rx="4.6" ry="4"/>
	<ellipse class="st2" cx="639.2" cy="118.9" rx="4.6" ry="4"/>
	<ellipse class="st2" cx="621.2" cy="126.2" rx="4.6" ry="4"/>
	<ellipse class="st2" cx="576.1" cy="129.8" rx="4.6" ry="4"/>
	<ellipse class="st2" cx="512.9" cy="162.7" rx="4.6" ry="4"/>
	<ellipse class="st2" cx="657.3" cy="166.4" rx="4.6" ry="4"/>
	<ellipse class="st2" cx="531" cy="177.4" rx="4.6" ry="4"/>
	<ellipse class="st2" cx="585.1" cy="181" rx="4.6" ry="4"/>
	<ellipse class="st2" cx="648.2" cy="184.7" rx="4.6" ry="4"/>
	<ellipse class="st2" cx="837.7" cy="188.3" rx="4.6" ry="4"/>
	<ellipse class="st2" cx="919" cy="206.6" rx="4.6" ry="4"/>
	<ellipse class="st2" cx="603.1" cy="235.9" rx="4.6" ry="4"/>
	<ellipse class="st2" cx="738.5" cy="239.5" rx="4.6" ry="4"/>
	<ellipse class="st2" cx="675.3" cy="243.2" rx="4.6" ry="4"/>
	<ellipse class="st2" cx="603.1" cy="268.8" rx="4.6" ry="4"/>
	<ellipse class="st2" cx="521.9" cy="272.5" rx="4.6" ry="4"/>
	<ellipse class="st2" cx="558" cy="276.1" rx="4.6" ry="4"/>
	<ellipse class="st2" cx="503.9" cy="279.8" rx="4.6" ry="4"/>
	<ellipse class="st2" cx="630.2" cy="371.2" rx="4.6" ry="4"/>
	<ellipse class="st2" cx="540" cy="1131.9" rx="4.6" ry="4"/>
	<ellipse class="st2" cx="503.9" cy="1150.2" rx="4.6" ry="4"/>
	<ellipse class="st2" cx="684.3" cy="1153.8" rx="4.6" ry="4"/>
	<ellipse class="st2" cx="702.4" cy="1157.5" rx="4.6" ry="4"/>
	<ellipse class="st2" cx="666.3" cy="1161.2" rx="4.6" ry="4"/>
	<ellipse class="st2" cx="567" cy="1183.1" rx="4.6" ry="4"/>
	<ellipse class="st2" cx="549" cy="1190.4" rx="4.6" ry="4"/>
	<ellipse class="st2" cx="684.3" cy="1205" rx="4.6" ry="4"/>
	<ellipse class="st2" cx="828.7" cy="1208.7" rx="4.6" ry="4"/>
	<ellipse class="st2" cx="855.8" cy="1278.2" rx="4.6" ry="4"/>
	<ellipse class="st2" cx="675.3" cy="1281.8" rx="4.6" ry="4"/>
	<ellipse class="st2" cx="964.1" cy="1285.5" rx="4.6" ry="4"/>
	<ellipse class="st2" cx="738.5" cy="1333" rx="4.6" ry="4"/>
	<ellipse class="st2" cx="521.9" cy="1373.3" rx="4.6" ry="4"/>
	<ellipse class="st2" cx="549" cy="1376.9" rx="4.6" ry="4"/>
	<ellipse class="st2" cx="549" cy="1380.6" rx="4.6" ry="4"/>
	<ellipse class="st2" cx="503.9" cy="1384.2" rx="4.6" ry="4"/>
	<ellipse class="st2" cx="828.7" cy="1398.9" rx="4.6" ry="4"/>
	<ellipse class="st2" cx="982.1" cy="189.2" rx="4.6" ry="4"/>
	<path class="st3" d="M974.7,196.9c3.3,0,6,2.7,6,6s-2.7,6-6,6s-6-2.7-6-6S971.4,196.9,974.7,196.9"/>
	<line class="st4" x1="971.5" y1="202.9" x2="978" y2="202.9"/>
	<line class="st4" x1="974.7" y1="199.6" x2="974.7" y2="206.1"/>
	<path class="st3" d="M987.2,192.6c3.3,0,6,2.7,6,6s-2.7,6-6,6s-6-2.7-6-6S983.9,192.6,987.2,192.6"/>
	<line class="st4" x1="983.9" y1="198.6" x2="990.4" y2="198.6"/>
	<line class="st4" x1="987.2" y1="195.4" x2="987.2" y2="201.9"/>
	<path class="st3" d="M987.2,205.1c3.3,0,6,2.7,6,6s-2.7,6-6,6s-6-2.7-6-6S983.9,205.1,987.2,205.1"/>
	<line class="st4" x1="983.9" y1="211.1" x2="990.4" y2="211.1"/>
	<line class="st4" x1="987.2" y1="207.9" x2="987.2" y2="214.4"/>
	<path class="st5" d="M780.1,222.4h192.9c1.6,0,3,1.3,3,2.9v81.9c0,1.6-1.3,3-3,3H780.1c-1.6,0-3-1.3-3-3v-81.9
		C777.1,223.7,778.4,222.4,780.1,222.4z"/>
	<path class="st6" d="M780.1,222.4h192.9c1.6,0,3,1.3,3,2.9v81.9c0,1.6-1.3,3-3,3H780.1c-1.6,0-3-1.3-3-3v-81.9
		C777.1,223.7,778.4,222.4,780.1,222.4z"/>
	<path d="M795.1,236.9v14.6h-2.2v-12.4h-0.1l-3.5,2.3v-2.1l3.6-2.4L795.1,236.9z"/>
	<path d="M804.5,251.4v-14.5h9v1.9h-6.8v4.4h6.2v1.9h-6.2v6.3H804.5z"/>
	<path d="M820,251.6c-1,0-1.9-0.2-2.8-0.7c-0.8-0.5-1.4-1.2-1.8-2c-0.4-0.9-0.7-1.9-0.6-2.9c0-1,0.2-2.1,0.6-3c0.4-0.8,1-1.5,1.8-2
		c0.8-0.5,1.7-0.7,2.7-0.7c0.6,0,1.2,0.1,1.8,0.3c1.2,0.4,2.2,1.4,2.6,2.7c0.3,0.8,0.4,1.7,0.4,2.5v0.8H816V245h6.6
		c0-0.5-0.1-1-0.3-1.5c-0.2-0.4-0.6-0.8-1-1c-0.4-0.3-0.9-0.4-1.4-0.4c-0.5,0-1.1,0.1-1.5,0.4c-0.4,0.3-0.8,0.7-1,1.1
		c-0.2,0.5-0.4,1-0.4,1.5v1.2c0,0.6,0.1,1.3,0.4,1.9c0.2,0.5,0.6,0.9,1.1,1.2c0.5,0.3,1.1,0.4,1.6,0.4c0.4,0,0.7,0,1.1-0.2
		c0.3-0.1,0.6-0.3,0.9-0.5c0.2-0.2,0.4-0.5,0.6-0.9l2,0.4c-0.2,0.6-0.5,1.1-0.9,1.6c-0.4,0.4-1,0.8-1.5,1
		C821.4,251.5,820.7,251.7,820,251.6z"/>
	<path d="M827.2,251.4v-14.5h2.1v5.4h0.1c0.2-0.3,0.3-0.5,0.5-0.8c0.3-0.3,0.6-0.6,1-0.8c0.5-0.2,1.1-0.4,1.6-0.3
		c0.8,0,1.7,0.2,2.4,0.7c0.7,0.5,1.3,1.1,1.6,1.9c0.8,1.9,0.8,4.1,0,6.1c-0.3,0.8-0.9,1.5-1.6,1.9c-0.7,0.5-1.5,0.7-2.3,0.7
		c-0.6,0-1.1-0.1-1.6-0.3c-0.4-0.2-0.7-0.5-1-0.8c-0.2-0.3-0.4-0.5-0.5-0.8h-0.2v1.7L827.2,251.4z M829.3,246c0,0.7,0.1,1.4,0.3,2
		c0.2,0.5,0.5,1,1,1.4c0.4,0.3,1,0.5,1.5,0.5c0.6,0,1.1-0.2,1.6-0.5c0.5-0.4,0.8-0.8,1-1.4c0.2-0.6,0.4-1.3,0.3-2
		c0-0.7-0.1-1.3-0.3-1.9c-0.2-0.5-0.5-1-1-1.4c-0.5-0.3-1-0.5-1.6-0.5c-0.6,0-1.1,0.1-1.6,0.5c-0.5,0.3-0.8,0.8-1,1.3
		C829.3,244.6,829.2,245.3,829.3,246L829.3,246z"/>
	<path d="M839.7,251.4v-14.5h2.1v5.4h0.1c0.2-0.3,0.3-0.5,0.5-0.8c0.3-0.3,0.6-0.6,1-0.8c0.5-0.2,1.1-0.4,1.6-0.3
		c0.8,0,1.7,0.2,2.4,0.7c0.7,0.5,1.3,1.1,1.6,1.9c0.8,1.9,0.8,4.1,0,6.1c-0.3,0.8-0.9,1.5-1.6,1.9c-0.7,0.5-1.5,0.7-2.3,0.7
		c-0.6,0-1.1-0.1-1.6-0.3c-0.4-0.2-0.7-0.4-1-0.8c-0.2-0.3-0.4-0.5-0.5-0.8h-0.2v1.7L839.7,251.4z M841.8,246c0,0.7,0.1,1.4,0.3,2
		c0.2,0.5,0.5,1,1,1.4c0.4,0.3,1,0.5,1.5,0.5c0.6,0,1.1-0.2,1.6-0.5c0.5-0.4,0.8-0.8,1-1.4c0.2-0.6,0.3-1.3,0.3-2
		c0-0.7-0.1-1.3-0.3-1.9c-0.2-0.5-0.5-1-1-1.4c-0.5-0.3-1-0.5-1.6-0.5c-0.6,0-1.1,0.1-1.6,0.5c-0.5,0.3-0.8,0.8-1,1.3
		C841.9,244.6,841.7,245.3,841.8,246L841.8,246z"/>
	<path d="M852,251.4v-10.9h2.1v1.7h0.1c0.2-0.6,0.5-1,1-1.4c0.5-0.3,1.1-0.5,1.7-0.5h0.5c0.1,0,0.3,0,0.4,0v2
		c-0.1,0-0.3-0.1-0.5-0.1c-0.2,0-0.4-0.1-0.7-0.1c-0.5,0-0.9,0.1-1.3,0.3c-0.8,0.4-1.3,1.2-1.3,2.1v6.7L852,251.4z"/>
	<path d="M862.8,251.7c-0.6,0-1.3-0.1-1.9-0.4c-0.5-0.2-1-0.6-1.3-1.1c-0.3-0.5-0.5-1.2-0.5-1.8c0-0.5,0.1-1.1,0.3-1.5
		c0.2-0.4,0.6-0.8,1-1c0.4-0.2,0.9-0.4,1.3-0.5c0.5-0.1,1-0.2,1.5-0.3l1.6-0.2c0.3,0,0.6-0.1,0.9-0.2c0.2-0.1,0.3-0.3,0.3-0.6l0,0
		c0-0.5-0.2-1.1-0.5-1.4c-0.4-0.4-1-0.6-1.5-0.5c-0.6,0-1.2,0.1-1.7,0.5c-0.4,0.3-0.7,0.6-0.8,1.1l-2-0.5c0.2-0.6,0.5-1.2,1-1.6
		c0.5-0.4,1-0.7,1.6-0.9c0.6-0.2,1.2-0.3,1.9-0.3c0.5,0,0.9,0.1,1.4,0.1c0.5,0.1,1,0.3,1.4,0.6c0.4,0.3,0.8,0.7,1,1.1
		c0.3,0.6,0.4,1.3,0.4,1.9v7.2h-2v-1.5H866c-0.2,0.3-0.4,0.6-0.6,0.8c-0.3,0.3-0.7,0.5-1.1,0.7C863.8,251.6,863.3,251.7,862.8,251.7
		z M863.2,250c0.5,0,1-0.1,1.5-0.4c0.4-0.2,0.8-0.5,1-0.9c0.2-0.4,0.3-0.8,0.3-1.2v-1.4c-0.1,0.1-0.3,0.2-0.4,0.2
		c-0.2,0.1-0.5,0.1-0.7,0.2l-0.8,0.1l-0.7,0.1c-0.4,0-0.8,0.1-1.1,0.3c-0.3,0.1-0.6,0.3-0.8,0.5c-0.2,0.3-0.3,0.6-0.3,0.9
		c0,0.5,0.2,0.9,0.6,1.2C862.2,249.8,862.7,250,863.2,250L863.2,250z"/>
	<path d="M872.1,238.8c-0.4,0-0.7-0.1-0.9-0.4c-0.3-0.2-0.4-0.5-0.4-0.9c0-0.3,0.1-0.7,0.4-0.9c0.5-0.5,1.4-0.5,1.9,0
		c0.3,0.2,0.4,0.6,0.4,0.9c0,0.3-0.1,0.7-0.4,0.9C872.8,238.7,872.4,238.8,872.1,238.8z M871,251.4v-10.9h2.1v10.9L871,251.4z"/>
	<path d="M880.6,251.6c-0.9,0-1.9-0.2-2.7-0.7c-0.8-0.5-1.4-1.2-1.8-2c-0.8-1.9-0.8-4,0-5.9c0.4-0.8,1-1.5,1.8-2
		c1.7-0.9,3.7-0.9,5.3,0c0.8,0.5,1.4,1.2,1.8,2c0.8,1.9,0.8,4,0,5.9c-0.4,0.8-1,1.5-1.8,2C882.4,251.4,881.5,251.7,880.6,251.6z
		 M880.6,249.9c0.6,0,1.2-0.2,1.7-0.5c0.5-0.4,0.8-0.8,1-1.4c0.4-1.2,0.4-2.6,0-3.8c-0.2-0.6-0.5-1-1-1.4c-0.5-0.4-1.1-0.6-1.7-0.5
		c-0.6,0-1.2,0.2-1.7,0.5c-0.5,0.4-0.8,0.9-1,1.4c-0.4,1.2-0.4,2.6,0,3.8c0.2,0.6,0.5,1,1,1.4C879.4,249.7,880,249.9,880.6,249.9z"
		/>
	<path d="M791.7,260.9v14.5h-1.8v-14.5H791.7z"/>
	<path d="M796.7,268.9v6.6H795v-10.9h1.6v1.7h0.2c0.2-0.5,0.6-1,1.2-1.3c0.6-0.4,1.3-0.5,2-0.5c0.7,0,1.3,0.1,1.9,0.5
		c0.6,0.3,1,0.8,1.3,1.4c0.3,0.7,0.5,1.5,0.5,2.3v6.9h-1.7v-6.8c0-0.7-0.2-1.4-0.7-2c-0.5-0.5-1.2-0.8-1.8-0.7c-0.5,0-1,0.1-1.4,0.4
		c-0.4,0.2-0.8,0.6-1,1C796.8,267.7,796.6,268.3,796.7,268.9z"/>
	<path d="M811.1,275.7c-1.9,0.1-3.6-1-4.3-2.7c-0.4-0.9-0.6-1.9-0.6-2.9c0-1,0.2-2,0.6-2.9c0.4-0.8,1-1.5,1.7-2
		c0.8-0.5,1.7-0.7,2.6-0.7c0.7,0,1.4,0.1,2.1,0.4c0.6,0.3,1.1,0.7,1.5,1.2c0.4,0.5,0.7,1.1,0.7,1.8h-1.7c-0.3-1.2-1.4-2-2.6-1.9
		c-0.6,0-1.2,0.2-1.7,0.5c-0.5,0.4-0.9,0.9-1.2,1.4c-0.3,0.7-0.4,1.4-0.4,2.1c0,0.8,0.1,1.5,0.4,2.2c0.2,0.6,0.6,1.1,1.1,1.5
		c0.5,0.4,1.1,0.5,1.7,0.5c0.4,0,0.8-0.1,1.2-0.2c0.7-0.3,1.2-0.9,1.4-1.7h1.7c-0.2,1.3-1,2.4-2.2,3
		C812.6,275.5,811.8,275.7,811.1,275.7z"/>
	<path d="M822.4,275.7c-1,0-1.9-0.2-2.7-0.7c-0.8-0.5-1.4-1.2-1.8-2c-0.4-0.9-0.6-1.9-0.6-2.9c0-1,0.2-2.1,0.6-3
		c0.4-0.8,1-1.5,1.7-2c0.8-0.5,1.7-0.7,2.6-0.7c0.6,0,1.1,0.1,1.7,0.3c0.6,0.2,1.1,0.5,1.5,0.9c0.5,0.5,0.9,1,1.1,1.7
		c0.3,0.8,0.4,1.7,0.4,2.6v0.7h-8.4V269h6.7c0-0.6-0.1-1.1-0.4-1.6c-0.2-0.5-0.6-0.9-1-1.1c-0.5-0.3-1-0.4-1.6-0.4
		c-0.6,0-1.2,0.2-1.7,0.5c-0.5,0.3-0.9,0.8-1.1,1.3c-0.3,0.5-0.4,1.1-0.4,1.7v1c0,0.7,0.1,1.4,0.4,2.1c0.3,0.5,0.7,1,1.2,1.3
		c0.5,0.3,1.2,0.5,1.8,0.4c0.4,0,0.8-0.1,1.2-0.2c0.4-0.1,0.7-0.3,0.9-0.6c0.3-0.3,0.5-0.6,0.6-0.9l1.6,0.5c-0.2,0.5-0.5,1-0.9,1.5
		c-0.4,0.4-0.9,0.8-1.5,1C823.8,275.6,823.1,275.7,822.4,275.7z"/>
	<path d="M831.2,268.9v6.6h-1.7v-10.9h1.6v1.7h0.1c0.3-0.5,0.7-1,1.2-1.3c0.6-0.4,1.3-0.5,2-0.5c0.7,0,1.3,0.1,1.9,0.5
		c0.6,0.3,1,0.8,1.3,1.4c0.3,0.7,0.5,1.5,0.5,2.3v6.9h-1.7v-6.8c0-0.7-0.2-1.4-0.7-2c-0.5-0.5-1.1-0.8-1.8-0.7c-0.5,0-1,0.1-1.4,0.4
		c-0.4,0.2-0.8,0.6-1,1C831.3,267.7,831.1,268.3,831.2,268.9z"/>
	<path d="M845.3,275.7c-0.9,0-1.7-0.2-2.4-0.7c-0.7-0.5-1.3-1.2-1.6-2c-0.8-1.9-0.8-4.1,0-6c0.4-0.8,0.9-1.5,1.6-2
		c0.7-0.5,1.6-0.7,2.4-0.7c0.6,0,1.2,0.1,1.7,0.4c0.4,0.2,0.7,0.5,1,0.8l0.5,0.7h0.1v-5.4h1.7v14.5h-1.6v-1.7h-0.2
		c-0.1,0.2-0.3,0.5-0.5,0.8c-0.3,0.3-0.6,0.6-1,0.8C846.5,275.5,845.9,275.7,845.3,275.7z M845.5,274.1c0.6,0,1.2-0.2,1.7-0.5
		c0.5-0.4,0.8-0.9,1-1.5c0.5-1.4,0.5-2.9,0-4.3c-0.2-0.6-0.5-1.1-1-1.4c-1.1-0.7-2.4-0.7-3.5,0c-0.5,0.4-0.9,0.9-1.1,1.5
		c-0.2,0.7-0.4,1.4-0.3,2.1c0,0.7,0.1,1.4,0.4,2.1c0.2,0.6,0.6,1.1,1.1,1.5C844.3,274,844.9,274.2,845.5,274.1z"/>
	<path d="M854.5,262.7c-0.3,0-0.6-0.1-0.8-0.3c-0.4-0.4-0.5-1.1-0.1-1.6c0,0,0,0,0.1-0.1c0.5-0.4,1.2-0.4,1.7,0
		c0.4,0.4,0.5,1.1,0.1,1.6c0,0,0,0-0.1,0.1C855.1,262.6,854.8,262.7,854.5,262.7z M853.6,275.4v-10.9h1.7v10.9L853.6,275.4z"/>
	<path d="M862.8,275.7c-1.8,0-3.5-1-4.3-2.7c-0.8-1.9-0.8-4,0-5.9c1.2-2.4,4.2-3.4,6.6-2.2c0.1,0.1,0.2,0.1,0.3,0.2
		c0.8,0.5,1.4,1.2,1.7,2c0.8,1.9,0.8,4,0,5.9c-0.4,0.8-1,1.5-1.7,2C864.6,275.5,863.7,275.7,862.8,275.7z M862.8,274.1
		c0.7,0,1.3-0.2,1.8-0.6c0.5-0.4,0.9-0.9,1.1-1.5c0.2-0.6,0.4-1.3,0.3-2c0-0.7-0.1-1.4-0.3-2c-0.2-0.6-0.6-1.1-1.1-1.5
		c-1.1-0.8-2.6-0.8-3.7,0c-0.5,0.4-0.9,0.9-1.1,1.5c-0.2,0.6-0.4,1.3-0.3,2c0,0.7,0.1,1.4,0.3,2c0.2,0.6,0.6,1.1,1.1,1.5
		C861.5,274,862.1,274.2,862.8,274.1z"/>
	<path d="M875.9,279.5v-15h1.6v1.7h0.2c0.1-0.2,0.3-0.4,0.5-0.7c0.3-0.3,0.6-0.6,1-0.8c0.5-0.3,1.1-0.4,1.7-0.4
		c0.9,0,1.7,0.2,2.4,0.7c0.7,0.5,1.3,1.1,1.6,1.9c0.8,1.9,0.8,4.1,0,6c-0.3,0.8-0.9,1.5-1.6,2c-0.7,0.5-1.6,0.7-2.4,0.7
		c-0.6,0-1.2-0.1-1.7-0.4c-0.4-0.2-0.7-0.5-1-0.8c-0.2-0.3-0.4-0.5-0.5-0.8h-0.1v5.8L875.9,279.5z M877.6,270c0,0.7,0.1,1.5,0.4,2.2
		c0.2,0.6,0.6,1.1,1.1,1.5c0.5,0.4,1.1,0.5,1.7,0.5c0.6,0,1.3-0.2,1.8-0.6c0.5-0.4,0.9-0.9,1.1-1.5c0.2-0.7,0.4-1.4,0.3-2.1
		c0-0.7-0.1-1.4-0.3-2.1c-0.2-0.6-0.6-1.1-1.1-1.5c-1.1-0.7-2.4-0.7-3.5,0c-0.5,0.4-0.8,0.9-1,1.4
		C877.7,268.5,877.5,269.3,877.6,270L877.6,270z"/>
	<path d="M888.1,275.4v-10.9h1.6v1.6h0.1c0.2-0.5,0.6-1,1.1-1.3c0.5-0.3,1.1-0.5,1.8-0.5h0.5h0.4v1.7l-0.4-0.1c-0.2,0-0.4,0-0.6,0
		c-0.5,0-1,0.1-1.4,0.3c-0.4,0.2-0.8,0.5-1,0.9c-0.2,0.4-0.4,0.9-0.4,1.3v6.9L888.1,275.4z"/>
	<path d="M899.8,275.7c-1,0-1.9-0.2-2.7-0.7c-0.8-0.5-1.4-1.2-1.8-2c-0.4-0.9-0.6-1.9-0.6-2.9c0-1,0.2-2.1,0.6-3
		c0.4-0.8,1-1.5,1.7-2c0.8-0.5,1.7-0.7,2.6-0.7c0.6,0,1.1,0.1,1.7,0.3c0.6,0.2,1.1,0.5,1.5,0.9c0.5,0.5,0.9,1,1.1,1.7
		c0.3,0.8,0.4,1.7,0.4,2.6v0.7h-8.4V269h6.7c0-0.6-0.1-1.1-0.4-1.6c-0.2-0.5-0.6-0.9-1-1.1c-0.5-0.3-1-0.4-1.6-0.4
		c-0.6,0-1.2,0.2-1.7,0.5c-0.5,0.3-0.9,0.8-1.1,1.3c-0.3,0.5-0.4,1.1-0.4,1.7v1c0,0.7,0.1,1.4,0.4,2.1c0.3,0.5,0.7,1,1.2,1.3
		c0.5,0.3,1.2,0.5,1.8,0.4c0.4,0,0.8,0,1.2-0.1c0.4-0.1,0.7-0.3,0.9-0.6c0.3-0.3,0.5-0.6,0.6-0.9l1.6,0.5c-0.2,0.5-0.5,1-0.9,1.5
		c-0.4,0.4-0.9,0.8-1.5,1C901.1,275.6,900.5,275.7,899.8,275.7z"/>
	<path d="M914.6,267l-1.5,0.4c-0.1-0.3-0.2-0.5-0.4-0.7c-0.2-0.3-0.5-0.5-0.7-0.6c-0.4-0.2-0.8-0.2-1.2-0.2c-0.6,0-1.2,0.1-1.7,0.5
		c-0.4,0.2-0.7,0.7-0.7,1.2c0,0.4,0.1,0.8,0.5,1c0.4,0.3,0.9,0.5,1.4,0.6l1.6,0.4c0.8,0.2,1.6,0.5,2.2,1.1c0.5,0.5,0.7,1.2,0.7,1.9
		c0,0.6-0.2,1.2-0.5,1.7c-0.4,0.5-0.9,0.9-1.5,1.2c-0.7,0.3-1.5,0.4-2.2,0.4c-1,0-1.9-0.2-2.8-0.7c-0.7-0.5-1.2-1.3-1.4-2.1l1.6-0.4
		c0.1,0.5,0.4,1,0.9,1.3c0.5,0.3,1.1,0.5,1.7,0.4c0.7,0,1.3-0.1,1.9-0.5c0.4-0.3,0.7-0.7,0.7-1.2c0-0.4-0.1-0.7-0.4-1
		c-0.3-0.3-0.8-0.5-1.2-0.6l-1.8-0.4c-0.8-0.1-1.6-0.5-2.2-1.1c-0.9-1-0.9-2.4-0.2-3.5c0.4-0.5,0.9-0.9,1.4-1.1
		c0.7-0.3,1.4-0.4,2.1-0.4c0.9-0.1,1.8,0.2,2.5,0.7C913.9,265.6,914.3,266.2,914.6,267z"/>
	<path d="M925,267l-1.5,0.4c-0.1-0.3-0.2-0.5-0.4-0.7c-0.2-0.3-0.5-0.5-0.8-0.6c-0.4-0.2-0.8-0.2-1.2-0.2c-0.6,0-1.2,0.1-1.7,0.5
		c-0.4,0.3-0.7,0.7-0.7,1.2c0,0.4,0.1,0.8,0.5,1c0.4,0.3,0.9,0.5,1.4,0.6l1.6,0.4c0.8,0.2,1.6,0.5,2.2,1.1c0.5,0.5,0.7,1.2,0.7,1.9
		c0,0.6-0.2,1.2-0.5,1.7c-0.4,0.5-0.9,0.9-1.5,1.2c-0.7,0.3-1.5,0.4-2.2,0.4c-1,0-1.9-0.2-2.8-0.7c-0.7-0.5-1.2-1.3-1.4-2.1l1.6-0.4
		c0.1,0.5,0.4,1,0.9,1.3c0.5,0.3,1.1,0.5,1.7,0.4c0.7,0,1.3-0.1,1.9-0.5c0.4-0.3,0.7-0.7,0.7-1.2c0-0.4-0.1-0.7-0.4-1
		c-0.3-0.3-0.8-0.5-1.2-0.6l-1.8-0.4c-0.8-0.1-1.6-0.5-2.2-1.1c-0.9-1-0.9-2.4-0.2-3.5c0.4-0.5,0.9-0.9,1.4-1.1
		c0.6-0.3,1.3-0.4,2-0.4c0.9-0.1,1.8,0.2,2.5,0.7C924.3,265.6,924.8,266.2,925,267z"/>
	<path d="M932.2,275.7c-1.8,0-3.5-1-4.3-2.7c-0.8-1.9-0.8-4,0-5.9c0.8-1.7,2.5-2.7,4.3-2.7c1.8-0.1,3.6,1,4.3,2.7
		c0.8,1.9,0.8,4,0,5.9C935.7,274.7,934,275.7,932.2,275.7z M932.2,274.1c0.7,0,1.3-0.2,1.8-0.6c0.5-0.4,0.9-0.9,1.1-1.5
		c0.2-0.6,0.3-1.3,0.3-2c0-0.7-0.1-1.4-0.3-2c-0.2-0.6-0.6-1.1-1.1-1.5c-1.1-0.8-2.6-0.8-3.7,0c-0.5,0.4-0.9,0.9-1.1,1.5
		c-0.2,0.6-0.3,1.3-0.3,2c0,0.7,0.1,1.4,0.3,2c0.2,0.6,0.6,1.1,1.1,1.5C930.9,274,931.5,274.2,932.2,274.1z"/>
	<path d="M946.2,262.7c-0.3,0-0.6-0.1-0.8-0.3c-0.4-0.4-0.5-1.1-0.1-1.6c0,0,0,0,0.1-0.1c0.5-0.4,1.2-0.4,1.7,0
		c0.4,0.4,0.5,1.1,0.1,1.6c0,0,0,0-0.1,0.1C946.8,262.6,946.5,262.7,946.2,262.7z M945.3,275.4v-10.9h1.7v10.9L945.3,275.4z"/>
	<path d="M951.7,260.9v14.5h-1.7v-14.5H951.7z"/>
	<path d="M789.9,284.9h2.1l5,12.1h0.2l5-12.1h2.1v14.5h-1.7v-11.1h-0.1l-4.5,11h-1.6l-4.5-11h-0.1v11H790L789.9,284.9z"/>
	<path d="M812,299.7c-1,0-1.9-0.2-2.7-0.7c-0.8-0.5-1.4-1.2-1.8-2c-0.4-0.9-0.6-1.9-0.6-2.9c0-1,0.2-2.1,0.6-3c0.4-0.8,1-1.5,1.7-2
		c0.8-0.5,1.7-0.7,2.6-0.7c0.6,0,1.1,0.1,1.7,0.3c0.6,0.2,1.1,0.5,1.5,0.9c0.5,0.5,0.9,1,1.1,1.7c0.3,0.8,0.4,1.7,0.4,2.6v0.7h-8.4
		V293h6.7c0-0.6-0.1-1.1-0.4-1.6c-0.2-0.5-0.6-0.9-1-1.1c-0.5-0.3-1-0.4-1.6-0.4c-0.6,0-1.2,0.2-1.7,0.5c-0.5,0.3-0.9,0.8-1.1,1.3
		c-0.3,0.5-0.4,1.1-0.4,1.7v1c0,0.7,0.1,1.4,0.4,2.1c0.3,0.5,0.7,1,1.2,1.3c0.5,0.3,1.2,0.5,1.8,0.4c0.4,0,0.8-0.1,1.2-0.2
		c0.4-0.1,0.7-0.3,0.9-0.6c0.3-0.3,0.5-0.6,0.6-0.9l1.6,0.5c-0.2,0.5-0.5,1-0.9,1.5c-0.4,0.4-0.9,0.8-1.5,1
		C813.4,299.6,812.7,299.7,812,299.7z"/>
	<path d="M819.1,299.4v-10.9h1.6v1.6h0.1c0.2-0.5,0.6-1,1.1-1.3c0.5-0.3,1.1-0.5,1.8-0.5h0.5h0.4v1.7l-0.4-0.1c-0.2,0-0.4,0-0.6,0
		c-0.5,0-1,0.1-1.4,0.3c-0.4,0.2-0.8,0.5-1,0.9c-0.2,0.4-0.4,0.9-0.4,1.3v6.9L819.1,299.4z"/>
	<path d="M830.7,299.7c-1.9,0.1-3.6-1-4.3-2.7c-0.8-1.9-0.8-4,0-5.9c0.4-0.8,1-1.5,1.7-2c0.8-0.5,1.7-0.7,2.6-0.7
		c0.7,0,1.4,0.1,2.1,0.4c0.6,0.3,1.1,0.7,1.5,1.2c0.4,0.5,0.7,1.1,0.7,1.8h-1.7c-0.1-0.5-0.4-1-0.8-1.3c-0.5-0.4-1.1-0.6-1.8-0.6
		c-0.6,0-1.2,0.2-1.7,0.5c-0.5,0.4-0.9,0.9-1.1,1.4c-0.3,0.7-0.4,1.4-0.4,2.1c0,0.8,0.1,1.5,0.4,2.2c0.2,0.6,0.6,1.1,1.1,1.5
		c0.5,0.4,1.1,0.5,1.7,0.5c0.4,0,0.8-0.1,1.2-0.2c0.3-0.1,0.7-0.4,0.9-0.6c0.3-0.3,0.4-0.6,0.5-1h1.7c-0.1,0.6-0.3,1.2-0.7,1.7
		c-0.4,0.5-0.9,0.9-1.5,1.2C832.2,299.5,831.4,299.7,830.7,299.7z"/>
	<path d="M840.6,299.7c-0.6,0-1.3-0.1-1.9-0.4c-0.5-0.2-1-0.6-1.3-1.1c-0.3-0.5-0.5-1.2-0.5-1.8c0-0.5,0.1-1.1,0.4-1.5
		c0.2-0.4,0.6-0.7,1-0.9c0.4-0.2,0.9-0.4,1.4-0.5c0.5-0.1,1-0.2,1.5-0.3l1.6-0.2c0.3,0,0.6-0.1,0.9-0.2c0.2-0.1,0.3-0.3,0.3-0.6
		v-0.1c0-0.6-0.2-1.2-0.6-1.6c-0.5-0.4-1.1-0.6-1.7-0.6c-0.7,0-1.3,0.1-1.9,0.5c-0.4,0.3-0.8,0.7-1,1.1l-1.6-0.6
		c0.2-0.6,0.6-1.1,1.1-1.5c0.5-0.4,1-0.6,1.6-0.8c0.5-0.1,1.1-0.2,1.7-0.2c0.4,0,0.8,0,1.2,0.1c0.5,0.1,0.9,0.3,1.3,0.5
		c0.5,0.3,0.8,0.7,1.1,1.2c0.3,0.6,0.5,1.4,0.4,2.1v7.2h-1.7V298h-0.1c-0.2,0.3-0.3,0.5-0.6,0.8c-0.3,0.3-0.7,0.5-1.1,0.7
		C841.7,299.6,841.1,299.7,840.6,299.7z M840.9,298.2c0.6,0,1.2-0.1,1.7-0.4c0.4-0.2,0.8-0.6,1-1c0.2-0.4,0.4-0.8,0.3-1.3V294
		c-0.1,0.1-0.3,0.2-0.5,0.2c-0.2,0.1-0.5,0.1-0.8,0.2s-0.6,0.1-0.9,0.1l-0.7,0.1c-0.4,0.1-0.8,0.1-1.2,0.3c-0.3,0.1-0.7,0.3-0.9,0.6
		c-0.2,0.3-0.4,0.6-0.3,1c0,0.5,0.2,1,0.7,1.3C839.7,298.1,840.3,298.2,840.9,298.2z"/>
	<path d="M853.4,288.5v1.4h-5.7v-1.4H853.4z M849.4,285.9h1.7v10.4c0,0.4,0,0.7,0.2,1.1c0.1,0.2,0.3,0.4,0.5,0.5
		c0.2,0.1,0.5,0.1,0.7,0.1c0.2,0,0.3,0,0.5,0l0.3,0l0.3,1.5c-0.2,0.1-0.3,0.1-0.5,0.1c-0.3,0.1-0.5,0.1-0.8,0.1
		c-0.5,0-1-0.1-1.4-0.3c-0.5-0.2-0.8-0.5-1.1-0.9c-0.3-0.5-0.5-1-0.4-1.6L849.4,285.9z"/>
	<path d="M860.3,299.7c-1.8,0-3.5-1-4.3-2.7c-0.8-1.9-0.8-4,0-5.9c1.1-2.4,4-3.4,6.3-2.3c1,0.5,1.8,1.3,2.3,2.3c0.8,1.9,0.8,4,0,5.9
		C863.8,298.7,862.1,299.7,860.3,299.7z M860.3,298.1c0.7,0,1.3-0.2,1.8-0.6c0.5-0.4,0.9-0.9,1.1-1.5c0.2-0.6,0.4-1.3,0.3-2
		c0-0.7-0.1-1.4-0.3-2c-0.2-0.6-0.6-1.1-1.1-1.5c-1.1-0.8-2.6-0.8-3.7,0c-0.5,0.4-0.9,0.9-1.1,1.5c-0.2,0.6-0.3,1.3-0.3,2
		c0,0.7,0.1,1.4,0.3,2c0.2,0.6,0.6,1.1,1.1,1.5C858.9,298,859.6,298.2,860.3,298.1z"/>
	<path d="M877.5,299.7c-0.9,0-1.7-0.2-2.4-0.7c-0.7-0.5-1.3-1.2-1.6-2c-0.8-1.9-0.8-4.1,0-6c0.4-0.8,0.9-1.5,1.6-2
		c0.7-0.5,1.6-0.7,2.4-0.7c0.6,0,1.2,0.1,1.7,0.4c0.4,0.2,0.7,0.5,1,0.8c0.2,0.3,0.4,0.5,0.5,0.7h0.2v-5.4h1.7v14.5h-1.6v-1.7h-0.2
		c-0.2,0.3-0.3,0.5-0.5,0.8c-0.3,0.3-0.6,0.6-1,0.8C878.7,299.5,878.1,299.7,877.5,299.7z M877.7,298.1c0.6,0,1.2-0.2,1.7-0.5
		c0.5-0.4,0.9-0.9,1.1-1.5c0.3-0.7,0.4-1.4,0.4-2.2c0-0.7-0.1-1.5-0.4-2.1c-0.2-0.6-0.5-1.1-1-1.4c-1.1-0.7-2.4-0.7-3.5,0
		c-0.5,0.4-0.9,0.9-1.1,1.5c-0.2,0.7-0.4,1.4-0.3,2.1c0,0.7,0.1,1.4,0.4,2.1c0.2,0.6,0.6,1.1,1.1,1.5
		C876.5,297.9,877.1,298.2,877.7,298.1z"/>
	<path d="M890.4,299.7c-1,0-1.9-0.2-2.7-0.7c-0.8-0.5-1.4-1.2-1.8-2c-0.4-0.9-0.6-1.9-0.6-2.9c0-1,0.2-2.1,0.6-3
		c0.4-0.8,1-1.5,1.7-2c0.8-0.5,1.7-0.7,2.6-0.7c0.6,0,1.1,0.1,1.7,0.3c0.6,0.2,1.1,0.5,1.5,0.9c0.5,0.5,0.8,1,1.1,1.7
		c0.3,0.8,0.4,1.7,0.4,2.6v0.7h-8.4V293h6.7c0-0.6-0.1-1.1-0.4-1.6c-0.2-0.5-0.6-0.9-1-1.1c-0.5-0.3-1-0.4-1.6-0.4
		c-0.6,0-1.2,0.2-1.7,0.5c-0.5,0.3-0.9,0.8-1.1,1.3c-0.3,0.5-0.4,1.1-0.4,1.7v1c0,0.7,0.1,1.4,0.4,2.1c0.3,0.5,0.7,1,1.2,1.3
		c0.9,0.5,2,0.6,3,0.2c0.3-0.1,0.7-0.3,0.9-0.6c0.3-0.3,0.5-0.6,0.6-0.9l1.6,0.5c-0.2,0.5-0.5,1-0.9,1.5c-0.4,0.4-0.9,0.8-1.5,1
		C891.8,299.6,891.1,299.7,890.4,299.7z"/>
	<path d="M899.1,284.9v14.5h-1.7v-14.5H899.1z"/>
	<path d="M903.9,284.9v14.5h-1.7v-14.5H903.9z"/>
	<path d="M911.5,299.7c-1,0-1.9-0.2-2.7-0.7c-0.8-0.5-1.4-1.2-1.8-2c-0.4-0.9-0.6-1.9-0.6-2.9c0-1,0.2-2.1,0.6-3
		c0.4-0.8,1-1.5,1.7-2c0.8-0.5,1.7-0.7,2.6-0.7c0.6,0,1.1,0.1,1.7,0.3c0.6,0.2,1.1,0.5,1.5,0.9c0.5,0.5,0.9,1,1.1,1.7
		c0.3,0.8,0.4,1.7,0.4,2.6v0.7h-8.4V293h6.7c0-0.6-0.1-1.1-0.4-1.6c-0.2-0.5-0.6-0.9-1-1.1c-0.5-0.3-1-0.4-1.6-0.4
		c-0.6,0-1.2,0.2-1.7,0.5c-0.5,0.3-0.9,0.8-1.1,1.3c-0.3,0.5-0.4,1.1-0.4,1.7v1c0,0.7,0.1,1.4,0.4,2.1c0.3,0.5,0.7,1,1.2,1.3
		c0.5,0.3,1.2,0.5,1.8,0.4c0.4,0,0.8-0.1,1.2-0.2c0.4-0.1,0.7-0.3,0.9-0.6c0.3-0.3,0.5-0.6,0.6-0.9l1.6,0.5c-0.2,0.5-0.5,1-0.9,1.5
		c-0.4,0.4-0.9,0.8-1.5,1C912.9,299.6,912.2,299.7,911.5,299.7z"/>
	<path d="M924.4,299.4v-14.5h8.8v1.6h-7v4.9h6.6v1.6h-6.6v5h7.1v1.6L924.4,299.4z"/>
	<path d="M936.2,299.4v-10.9h1.6v1.6h0.1c0.2-0.5,0.6-1,1.1-1.3c0.5-0.3,1.1-0.5,1.8-0.5h0.5h0.4v1.7l-0.4-0.1c-0.2,0-0.4,0-0.6,0
		c-0.5,0-1,0.1-1.4,0.3c-0.4,0.2-0.8,0.5-1,0.9c-0.2,0.4-0.4,0.9-0.4,1.3v6.9L936.2,299.4z"/>
	<path d="M943.8,299.4v-14.5h1.7v5.4h0.1l0.5-0.7c0.3-0.3,0.6-0.6,1-0.8c0.5-0.3,1.1-0.4,1.7-0.4c0.9,0,1.7,0.2,2.4,0.7
		c0.7,0.5,1.3,1.2,1.6,2c0.8,1.9,0.8,4.1,0,6c-0.3,0.8-0.9,1.5-1.6,2c-0.7,0.5-1.5,0.7-2.4,0.7c-0.6,0-1.2-0.1-1.7-0.4
		c-0.4-0.2-0.7-0.5-1-0.8c-0.2-0.3-0.4-0.5-0.5-0.8h-0.2v1.7L943.8,299.4z M945.5,294c0,0.7,0.1,1.5,0.4,2.2c0.2,0.6,0.5,1.1,1,1.5
		c1,0.7,2.4,0.7,3.5,0c0.5-0.4,0.9-0.9,1.1-1.5c0.2-0.7,0.4-1.4,0.4-2.1c0-0.7-0.1-1.4-0.3-2.1c-0.2-0.6-0.6-1.1-1.1-1.5
		c-1.1-0.7-2.4-0.7-3.5,0c-0.5,0.4-0.8,0.9-1,1.4C945.6,292.6,945.5,293.3,945.5,294L945.5,294z"/>
	<path d="M960.6,299.7c-1,0-1.9-0.2-2.7-0.7c-0.8-0.5-1.4-1.2-1.8-2c-0.4-0.9-0.6-1.9-0.6-2.9c0-1,0.2-2.1,0.6-3
		c0.4-0.8,1-1.5,1.7-2c0.8-0.5,1.7-0.7,2.6-0.7c0.6,0,1.1,0.1,1.7,0.3c0.6,0.2,1.1,0.5,1.5,0.9c0.5,0.5,0.9,1,1.1,1.7
		c0.3,0.8,0.4,1.7,0.4,2.6v0.7h-8.4V293h6.7c0-0.6-0.1-1.1-0.4-1.6c-0.2-0.5-0.6-0.9-1-1.1c-0.5-0.3-1-0.4-1.6-0.4
		c-0.6,0-1.2,0.2-1.7,0.5c-0.5,0.3-0.9,0.8-1.1,1.3c-0.3,0.5-0.4,1.1-0.4,1.7v1c0,0.7,0.1,1.4,0.4,2.1c0.3,0.5,0.7,1,1.2,1.3
		c0.5,0.3,1.2,0.5,1.8,0.4c0.4,0,0.8-0.1,1.2-0.2c0.4-0.1,0.7-0.3,0.9-0.6c0.3-0.3,0.5-0.6,0.6-0.9l1.6,0.5c-0.2,0.5-0.5,1-0.9,1.5
		c-0.4,0.4-0.9,0.8-1.5,1C962,299.6,961.3,299.7,960.6,299.7z"/>
	<line class="st6" x1="974.9" y1="222.8" x2="984.6" y2="213.8"/>
</g>
<g id="no_piogge">
	<path d="M52.5,1447.1c0-5,1.7-8.8,6-8.8s6,3.9,6,8.8s-1.7,8.8-6,8.8S52.5,1452,52.5,1447.1z M62.1,1447.1c0-4.4-1.2-6.8-3.7-6.8
		s-3.7,2.4-3.7,6.8s1.3,6.9,3.7,6.9S62,1451.4,62.1,1447.1z"/>
	<path d="M129.7,1442.4l5.5-3.8h1.7v15.1h4.1v1.8h-10.7v-1.8h4.4v-12.3l-3.9,2.7L129.7,1442.4z"/>
	<path d="M143.4,1447.1c0-5,1.7-8.8,6-8.8s5.9,3.9,5.9,8.8s-1.7,8.8-5.9,8.8S143.4,1452,143.4,1447.1z M153,1447.1
		c0-4.4-1.2-6.8-3.7-6.8s-3.7,2.4-3.7,6.8s1.2,6.8,3.7,6.8S152.9,1451.4,153,1447.1z"/>
	<path d="M224.6,1448.4l1.8-1.3c1.7-1.2,2.8-1.8,2.8-3.9c0-1.6-1.2-2.9-2.8-2.9c0,0,0,0,0,0h-0.4c-2.2,0-3.3,1.2-3.4,3.4h-2.1
		c-0.1-2.7,1.9-5.1,4.6-5.4h0.8c2.6-0.3,4.9,1.6,5.2,4.2c0,0,0,0.1,0,0.1v0.6c0,2.9-1.9,4.2-3.7,5.2l-1.7,1.2
		c-2.6,1.7-2.9,2.9-3.1,4.2h8.8v1.8h-11.2C220.4,1452.6,222,1449.8,224.6,1448.4z"/>
	<path d="M234.3,1447.1c0-5,1.7-8.8,6-8.8s5.9,3.9,5.9,8.8s-1.7,8.8-5.9,8.8S234.3,1452,234.3,1447.1z M243.8,1447.1
		c0-4.4-1.2-6.8-3.7-6.8s-3.7,2.4-3.7,6.8s1.2,6.8,3.7,6.8S243.8,1451.5,243.8,1447.1z"/>
	<path d="M313.4,1450.4c-0.2,1.8,1.2,3.4,2.9,3.5h0.7c2.1,0,3.7-1.1,3.7-3.2c-0.1-1.8-1.7-3.3-3.5-3.2h-1.3v-1.8h1.2
		c1.6,0,2.9-1.2,3-2.8v-0.1c0-1.5-1.2-2.8-2.7-2.8c0,0-0.1,0-0.1,0H317c-1.5-0.2-2.9,1-3,2.5c0,0,0,0,0,0.1v0.5h-2
		c-0.1-2.6,1.8-4.8,4.4-5h0.6c2.6-0.3,4.9,1.6,5.1,4.2v0.4c0,1.6-1,3.1-2.4,3.8v0.1c1.9,0.6,3.2,2.3,3.2,4.3c0,3-2.6,4.9-5.9,4.9
		c-2.8,0.4-5.3-1.6-5.7-4.4c0,0,0,0,0,0v-1.1L313.4,1450.4z"/>
	<path d="M325.3,1447.1c0-5,1.7-8.8,6-8.8s5.9,3.9,5.9,8.8s-1.7,8.8-5.9,8.8C326.9,1455.9,325.3,1452,325.3,1447.1z M334.9,1447.1
		c0-4.4-1.2-6.8-3.7-6.8s-3.7,2.4-3.7,6.8s1.2,6.8,3.7,6.8S334.7,1451.4,334.9,1447.1z"/>
	<path d="M402.4,1449.8l8.3-11.1h1.8v10.9h2.4v2h-2.4v4.3h-2.2v-4.3h-7.8L402.4,1449.8z M410.2,1449.5v-7.5l-5.6,7.4L410.2,1449.5z"
		/>
	<path d="M416.9,1447.1c0-5,1.7-8.8,6-8.8s5.9,3.9,5.9,8.8s-1.7,8.8-5.9,8.8C418.5,1455.9,416.9,1452,416.9,1447.1z M426.4,1447.1
		c0-4.4-1.2-6.8-3.7-6.8s-3.7,2.4-3.7,6.8s1.2,6.8,3.7,6.8S426.4,1451.4,426.4,1447.1z"/>
	<path d="M496.4,1451c0.2,1.8,1.8,3.2,3.6,3c2,0,3.7-1.6,3.7-3.6c0-2-1.6-3.7-3.6-3.7c0,0,0,0,0,0c-1.3,0-2.5,0.6-3.3,1.7l-2.1-0.1
		l0.5-9.5h9.5v2.1h-7.4l-0.4,5.4h0.2c0.9-0.8,2.1-1.3,3.3-1.2c2.9-0.2,5.3,2.1,5.5,4.9c0,0,0,0,0,0.1v0.5c0.1,3-2.2,5.5-5.2,5.6
		c-0.1,0-0.1,0-0.2,0h-0.6c-2.9,0.4-5.5-1.7-5.8-4.6c0,0,0-0.1,0-0.1v-0.2L496.4,1451z"/>
	<path d="M508.2,1447.1c0-5,1.7-8.8,6-8.8c4.3,0,5.9,3.9,5.9,8.8s-1.7,8.8-5.9,8.8S508.2,1452,508.2,1447.1z M517.8,1447.1
		c0-4.4-1.2-6.8-3.7-6.8s-3.7,2.4-3.7,6.8s1.2,6.8,3.7,6.8S517.7,1451.4,517.8,1447.1z"/>
	<path d="M591.6,1438.3c2.6-0.3,4.9,1.6,5.1,4.1c0,0,0,0,0,0v0.4h-2.1c0-1.5-1.3-2.7-2.8-2.7c0,0,0,0,0,0h-0.1
		c-2.1,0-4.2,1.8-4.2,6.8c0.9-1.5,2.6-2.3,4.4-2.2c2.8,0,5.1,2.2,5.2,5v0.5c0.1,3-2.3,5.5-5.3,5.6c0,0,0,0,0,0h-0.4
		c-3.4,0-6.2-2.1-6.2-8.4C585.1,1440.7,588.4,1438.3,591.6,1438.3z M587.8,1450.3c-0.1,2,1.3,3.6,3.3,3.8h0.2c2.1,0,3.7-1.6,3.8-3.7
		c0-2.1-1.6-3.7-3.7-3.8c-2,0-3.6,1.6-3.8,3.5C587.7,1450.2,587.8,1450.3,587.8,1450.3L587.8,1450.3z"/>
	<path d="M599.1,1447.1c0-5,1.7-8.8,6-8.8s5.9,3.9,5.9,8.8s-1.7,8.8-5.9,8.8S599.1,1452,599.1,1447.1z M608.8,1447.1
		c0-4.4-1.2-6.8-3.7-6.8s-3.7,2.4-3.7,6.8s1.2,6.8,3.7,6.8S608.6,1451.4,608.8,1447.1z"/>
	<path d="M685.4,1440.6h-9.3v-2.1h11.7v1.6l-7.2,15.4h-2.3L685.4,1440.6z"/>
	<path d="M690.1,1447.1c0-4.9,1.7-8.8,6-8.8s5.9,3.9,5.9,8.8s-1.7,8.8-5.9,8.8S690.1,1452,690.1,1447.1z M699.7,1447.1
		c0-4.4-1.2-6.8-3.7-6.8s-3.7,2.4-3.7,6.8s1.2,6.8,3.7,6.8S699.6,1451.4,699.7,1447.1z"/>
	<path d="M770.4,1446.9L770.4,1446.9c-1.5-0.7-2.4-2.2-2.4-3.8c0-2.6,2.1-4.7,4.6-4.8h0.5c2.6-0.2,4.9,1.6,5.2,4.2v0.5
		c0,1.6-1,3.1-2.5,3.8l0,0c1.9,0.5,3.2,2.3,3.1,4.2c0,3-2.4,4.9-6,4.9s-6-1.8-6-4.9C767.1,1449,768.5,1447.4,770.4,1446.9z
		 M773.2,1454.1c2.2,0,3.8-1.1,3.8-3.2c-0.1-1.8-1.7-3.3-3.5-3.2h-0.2c-1.9-0.2-3.5,1.1-3.8,2.9v0.2
		C769.4,1452.9,771,1454.1,773.2,1454.1L773.2,1454.1z M776.3,1443c0-1.5-1.2-2.8-2.8-2.8c-0.1,0-0.1,0-0.2,0h-0.2
		c-1.6-0.2-3,1-3.2,2.6v0.2c0.2,1.7,1.8,3,3.5,2.8C775,1445.5,776.1,1444.4,776.3,1443L776.3,1443z"/>
	<path d="M781.4,1447.1c0-4.9,1.7-8.8,6-8.8s5.9,3.9,5.9,8.8s-1.7,8.8-5.9,8.8C782.9,1455.9,781.4,1452,781.4,1447.1z M790.9,1447.1
		c0-4.4-1.2-6.8-3.7-6.8s-3.7,2.4-3.7,6.8s1.2,6.8,3.7,6.8S790.9,1451.5,790.9,1447.1z"/>
	<path d="M864.2,1455.9c-2.7,0.2-5.1-1.7-5.4-4.4v-0.1h2.2c0.2,1.6,1.6,2.8,3.2,2.7c2.3,0,3.9-1.7,3.9-6.7c-1,1.5-2.6,2.3-4.4,2.2
		c-2.8,0.1-5.2-2.1-5.4-4.9v-0.6c-0.1-3,2.2-5.5,5.2-5.6c0.1,0,0.1,0,0.2,0h0.4c3.4,0,6.2,2.1,6.2,8.4
		C870.5,1453.6,867.8,1455.9,864.2,1455.9z M867.9,1443.9c0-2-1.6-3.7-3.7-3.7l0,0c-2,0-3.6,1.5-3.7,3.5c0,0,0,0.1,0,0.1
		c-0.1,1.9,1.4,3.5,3.3,3.7h0.1c2,0.1,3.7-1.5,3.8-3.5L867.9,1443.9z"/>
	<path d="M872.8,1447.1c0-4.9,1.7-8.8,6-8.8s5.9,3.9,5.9,8.8s-1.7,8.8-5.9,8.8S872.8,1452,872.8,1447.1z M882.4,1447.1
		c0-4.4-1.2-6.8-3.7-6.8s-3.7,2.4-3.7,6.8s1.2,6.8,3.7,6.8S882.3,1451.4,882.4,1447.1z"/>
	<path d="M949.8,1442.4l5.5-3.8h1.7v15.1h4.1v1.8h-10.7v-1.8h4.4v-12.3l-3.9,2.7L949.8,1442.4z"/>
	<path d="M963.6,1447.1c0-4.9,1.7-8.8,6-8.8s5.9,3.9,5.9,8.8s-1.7,8.8-5.9,8.8S963.6,1452,963.6,1447.1z M973.1,1447.1
		c0-4.4-1.2-6.8-3.7-6.8s-3.7,2.4-3.7,6.8s1.2,6.8,3.7,6.8S973.1,1451.4,973.1,1447.1z"/>
	<path d="M977.5,1447.1c0-4.9,1.7-8.8,6-8.8s6,3.9,6,8.8s-1.7,8.8-6,8.8S977.5,1452,977.5,1447.1z M987.1,1447.1
		c0-4.4-1.2-6.8-3.7-6.8s-3.7,2.4-3.7,6.8s1.2,6.8,3.7,6.8S987.1,1451.4,987.1,1447.1z"/>
	<path d="M936.5,1501.8v1.9h-2.2v-18h2.2v7.2c0,2.6,1,3.5,2.8,3.5s3.2-1.7,3.2-4.4v-6.4h2.2v12.5h-2.1v-1.8h-0.1
		c-0.7,1.4-2.1,2.2-3.7,2.1c-0.9,0-1.8-0.2-2.5-0.7h-0.2C936.4,1499,936.5,1500.4,936.5,1501.8z"/>
	<path d="M950,1499.3c0,1.5,1.4,2.4,3.4,2.4s3.9-1.1,3.9-4.6v-1.3h-0.1c-0.8,1.5-2.5,2.4-4.2,2.2c-3.1,0-5.5-2.3-5.5-6.4
		s2.5-6.6,5.7-6.6c1.6-0.1,3.2,0.7,3.9,2.2h0.1v-1.9h2.1v11.8c0,4.7-2.8,6.4-6.1,6.4s-5.5-1.5-5.5-4.3L950,1499.3z M953.5,1496.2
		c2,0,3.6-1.7,3.6-4.6s-1.7-4.6-3.6-4.6s-3.6,1.7-3.6,4.7S951.5,1496.2,953.5,1496.2L953.5,1496.2z"/>
	<path d="M969.3,1480.2h1.9l-7.8,18h-2L969.3,1480.2z"/>
	<path d="M971.6,1485.6h2.1v1.8h0.1c0.7-1.4,2.2-2.2,3.7-2.1c1.7-0.2,3.3,0.9,3.9,2.5c0.7-1.7,2.4-2.7,4.2-2.5c2.3,0,4.3,1.3,4.3,5
		v7.7h-2.2v-7.4c0-2.4-0.8-3.4-2.5-3.4s-3.2,1.7-3.2,4.3v6.4h-2.2v-7.4c0-2.4-0.9-3.4-2.5-3.4s-3.2,1.7-3.2,4.3v6.4h-2.2
		L971.6,1485.6z"/>
	<path d="M993.5,1486.3c-0.1,1.1,0.7,2,1.7,2.1c0,0,0,0,0.1,0h0.4c1.3,0,2.2-0.7,2.2-1.9c0-1.1-0.9-2-2-2h-1v-1.1h0.8
		c0.9,0.1,1.7-0.6,1.8-1.5v-0.1c0-0.9-0.7-1.7-1.7-1.7c0,0,0,0,0,0h-0.1c-0.9,0-1.7,0.7-1.8,1.6v0.3h-1.2c0.1-1.7,1.5-3,3.2-2.9
		c1.4,0.1,2.6,1.2,2.8,2.6c0,1-0.6,1.9-1.5,2.3l0,0c1.1,0.3,1.9,1.3,1.9,2.5c-0.1,1.7-1.6,3-3.3,2.9h-0.2c-1.6,0.2-3.2-0.9-3.4-2.5
		c0,0,0,0,0-0.1v-0.6L993.5,1486.3z"/>
</g>
<g id="Livello_2_00000072282763137995328960000008246018470400514737_">
	<g>
		<path d="M18.5,231.6v12h-2.1V234H9.8v7.6H7.8V234H0.4v-2.5L18.5,231.6z"/>
		<path d="M18.5,246.7V259h-2.1v-9.8h-5.7v7.8H8.7v-7.8H2.6v10H0.5v-12.5H18.5z"/>
		<path d="M18.5,262.7v7.5c0,3.9-1.8,5.8-4.8,5.8c-1.8,0-3.3-1.1-3.7-2.9H9.8c-0.2,2.1-2,3.7-4.1,3.6c-3.1,0-5.4-2.1-5.4-5.9v-8
			h18.2V262.7z M16.4,265.2h-5.6v5c0,2.2,1.3,3.4,3,3.4s2.6-0.9,2.6-3.4L16.4,265.2z M8.8,265.2H2.6v5.6c0,2.5,1.3,3.6,3.2,3.6
			c1.7,0,3-1.2,3-3.6L8.8,265.2z"/>
	</g>
	<g>
		<path d="M3.1,132.8L3.1,132.8c-2-1.3-3.2-3.6-3-5.9c0-5.2,4-8.8,9.4-8.8s9.5,3.6,9.5,8.9c0,4.3-2.5,7.1-5.7,7.9v-2.6
			c1.8-0.5,3.5-2.3,3.5-5.4c0-3.9-3.1-6.5-7.1-6.5s-7.1,2.6-7.1,6.3c0,3,1.8,5.8,5,5.8h0.5V127h2.1v7.9H0.6v-1.6L3.1,132.8z"/>
		<path d="M18.5,139.1v12.3h-2.1v-9.8h-5.7v7.8H8.7v-7.8H2.6v10H0.5v-12.4L18.5,139.1z"/>
		<path d="M18.5,155.3v2.3l-14,10v0.1l14-0.1v2.4H0.4v-2.3l14-10v-0.1l-14,0.1v-2.4H18.5z"/>
	</g>
	<g>
		<path d="M18.5,338.4v3L3.6,348l0,0l14.9,6.6v3H0.4v-2.5l14.3,0.3v-0.1L0.4,349v-2l14-6.3v-0.1l-14,0.3v-2.5L18.5,338.4z"/>
		<path d="M18.5,366.9v2.9l-18.1,6.7v-2.6l4.8-1.7v-8l-4.8-1.7v-2.5L18.5,366.9z M16,368.2l-8.8-3.1v6.5L16,368.2z"/>
		<path d="M18.5,379.1v6.9c0,4.1-1.9,6.3-5.4,6.3c-2.5,0.1-4.8-1.5-5.4-4l-7.4,4.6v-2.6l7.1-4.5v-4.3H0.3v-2.5L18.5,379.1z
			 M16.4,381.5H9.6v4.5c0,2.6,1.6,3.8,3.6,3.8s3.2-1.4,3.2-3.8V381.5z"/>
	</g>
	<g>
		<path d="M18.5,461.3v2.8l-18.1,6.7v-2.6l4.8-1.7v-8l-4.8-1.7v-2.5L18.5,461.3z M16,462.7l-8.8-3.1v6.5L16,462.7z"/>
		<path d="M18.5,473.6v6.9c0,4.1-2.5,6.5-5.8,6.5s-5.9-2.3-5.9-6.5V476H0.4v-2.5L18.5,473.6z M16.4,476H8.8v4.5
			c-0.1,2,1.4,3.8,3.4,3.9c0.2,0,0.3,0,0.5,0c2,0.1,3.6-1.4,3.7-3.4c0-0.2,0-0.3,0-0.5V476z"/>
		<path d="M18.5,490.4v6.9c0,4.1-1.9,6.3-5.4,6.3c-2.5,0.1-4.8-1.5-5.4-4l-7.4,4.6v-2.6l7.1-4.5v-4.3H0.3v-2.5L18.5,490.4z
			 M16.4,492.7H9.6v4.5c0,2.6,1.6,3.8,3.6,3.8s3.2-1.4,3.2-3.8V492.7z"/>
	</g>
	<g>
		<path d="M18.5,565.7v3l-14.9,6.7l0,0l14.9,6.6v3H0.4v-2.5l14.3,0.3v-0.1l-14.3-6.3v-1.9l14-6.3v-0.1l-14,0.2v-2.5H18.5z"/>
		<path d="M18.5,594.3v2.8l-18.1,6.7v-2.6l4.8-1.7v-8l-4.8-1.7v-2.3L18.5,594.3z M16,595.6l-8.8-3.1v6.5L16,595.6z"/>
		<path d="M3.1,619.8L3.1,619.8c-2-1.3-3.2-3.6-3-6c0-5.2,4-8.8,9.4-8.8s9.5,3.7,9.5,9c0,4.3-2.5,7.1-5.7,7.9v-2.6
			c1.8-0.5,3.5-2.3,3.5-5.4c0-3.9-3.1-6.5-7.1-6.5s-7.1,2.6-7.1,6.3c0,3,1.8,5.8,5,5.8h0.5v-5.7h2.1v7.9H0.6v-1.5L3.1,619.8z"/>
	</g>
	<g>
		<path d="M3.1,698.1L3.1,698.1c-2-1.3-3.2-3.6-3-6c0-5.2,4-8.8,9.4-8.8s9.5,3.7,9.5,9c0,4.3-2.5,7.1-5.7,7.9v-2.6
			c1.8-0.5,3.5-2.3,3.5-5.4c0-3.9-3.1-6.5-7.1-6.5s-7.1,2.6-7.1,6.3c0,3,1.8,5.8,5,5.8h0.5v-5.7h2.1v7.8H0.6v-1.5L3.1,698.1z"/>
		<path d="M18.5,704.4v2.5H0.4v-2.5H18.5z"/>
		<path d="M18.5,711.2v2.5h-11c-3.4,0-5.3,1.5-5.3,4.8s1.9,4.8,5.3,4.8h11v2.5h-11c-5.4,0-7.5-3-7.5-7.2s2.1-7.2,7.5-7.2L18.5,711.2
			z"/>
	</g>
	<g>
		<path d="M18.5,787.2v2.5h-16v8.8H0.4v-11.2H18.5z"/>
		<path d="M18.5,800.6v2.5h-11c-3.4,0-5.3,1.5-5.3,4.8s1.9,4.8,5.3,4.8h11v2.5h-11c-5.4,0-7.5-3-7.5-7.2s2.1-7.2,7.5-7.2L18.5,800.6
			z"/>
		<path d="M3.1,833.3L3.1,833.3c-2-1.3-3.2-3.6-3-6c0-5.2,4-8.8,9.4-8.8s9.5,3.6,9.5,8.9c0,4.3-2.5,7.1-5.7,7.9v-2.6
			c1.8-0.5,3.5-2.3,3.5-5.4c0-3.9-3.1-6.5-7.1-6.5s-7.1,2.6-7.1,6.3c0,3,1.8,5.8,5,5.8h0.5v-5.7h2.1v7.9H0.6v-1.5L3.1,833.3z"/>
	</g>
	<g>
		<path d="M18.5,903.8v2.8l-18.1,6.7v-2.6l4.8-1.7v-8l-4.8-1.7v-2.5L18.5,903.8z M16,905l-8.8-3v6.5L16,905z"/>
		<path d="M3.1,929.1L3.1,929.1c-2-1.3-3.2-3.6-3-5.9c0-5.2,4-8.8,9.4-8.8s9.5,3.6,9.5,8.9c0,4.3-2.5,7.1-5.7,7.9v-2.6
			c1.8-0.5,3.5-2.3,3.5-5.4c0-3.9-3.1-6.5-7.1-6.5s-7.1,2.6-7.1,6.3c0,3,1.8,5.8,5,5.8h0.5v-5.7h2.1v7.8H0.6v-1.5L3.1,929.1z"/>
		<path d="M18.9,943.2c0,5.2-4,8.8-9.4,8.8S0,948.3,0,943.2s4-8.8,9.4-8.8S18.9,937.9,18.9,943.2z M2.3,943.2c0,3.9,3.1,6.3,7.1,6.3
			s7.1-2.5,7.1-6.3s-3.1-6.3-7.1-6.3S2.3,939.3,2.3,943.2z"/>
	</g>
	<g>
		<path d="M5.6,1016.1c-1.9,0-3.5,1.7-3.5,4.5s1.3,4.6,3.4,4.6c4.8,0,1.2-11.4,8.1-11.4c3.1,0,5.3,2.7,5.3,6.7c0,4-1.9,6.6-5.2,6.6
			v-2.5c1.9,0,3.1-1.8,3.1-4.3s-1-4.3-3.1-4.3c-4.8,0-1,11.4-8.3,11.4c-3.2,0-5.4-2.6-5.4-7.1s2.2-7,5.4-7v2.6L5.6,1016.1z"/>
		<path d="M18.5,1031.6v12.3h-2.1v-9.8h-5.7v7.8H8.7v-7.8H2.6v10H0.5v-12.5H18.5z"/>
		<path d="M18.5,1045.6v15.1h-2.1v-6.3h-16v-2.4h16v-6.3L18.5,1045.6z"/>
	</g>
	<g>
		<path d="M18.9,1131c0,5.2-4,8.8-9.4,8.8S0,1136.2,0,1131s4-8.8,9.4-8.8S18.9,1125.7,18.9,1131z M2.3,1131c0,3.9,3.1,6.3,7.1,6.3
			s7.1-2.5,7.1-6.3s-3.1-6.3-7.1-6.3S2.3,1127.1,2.3,1131z"/>
		<path d="M18.5,1140.3v15.1h-2.1v-6.3h-16v-2.5h16v-6.3L18.5,1140.3z"/>
		<path d="M18.5,1155.7v15.1h-2.1v-6.3h-16v-2.5h16v-6.3L18.5,1155.7z"/>
	</g>
	<g>
		<path d="M18.5,1232.4v2.3l-14,10v0.1l14-0.1v2.5H0.4v-2.3l14-10v-0.1l-14,0.1v-2.5H18.5z"/>
		<path d="M18.9,1259.5c0,5.2-4,8.8-9.4,8.8s-9.4-3.6-9.4-8.8s4-8.8,9.4-8.8S18.9,1254.2,18.9,1259.5z M2.3,1259.5
			c0,3.9,3.1,6.3,7.1,6.3s7.1-2.5,7.1-6.3s-3.1-6.3-7.1-6.3S2.3,1255.6,2.3,1259.5z"/>
		<path d="M18.5,1269.2v2.6l-15.6,5.4v0.1l15.6,5.4v2.4l-18.1-6.6v-2.7L18.5,1269.2z"/>
	</g>
	<g>
		<path d="M18.5,1346.8v5.6c0,6.2-3.8,9.4-9,9.4s-9-3.2-9-9.4v-5.6H18.5z M16.4,1349.2H2.5v3.1c0,5,3.2,7,7,7s7-1.8,7-7L16.4,1349.2
			L16.4,1349.2z"/>
		<path d="M18.5,1365.4v2.5H0.4v-2.5H18.5z"/>
		<path d="M18.9,1380c0,4.3-2.5,7-5.9,7.8v-2.4c2.4-0.7,3.7-2.5,3.7-5.2c0-3.8-3-6.2-7.1-6.2s-7.1,2.5-7.1,6.1c0,3,1.3,4.7,3.7,5.3
			v2.4c-3.6-0.8-5.9-3.6-5.9-7.8c0-5,3.9-8.7,9.4-8.7C14.9,1371.2,18.9,1374.8,18.9,1380z"/>
	</g>
	<path d="M790.3,410.8c-0.1-0.8-0.5-1.4-1.1-1.8c-0.7-0.5-1.6-0.7-2.5-0.7c-0.6,0-1.3,0.1-1.8,0.3c-0.5,0.2-0.9,0.5-1.2,1
		c-0.3,0.4-0.4,0.9-0.4,1.4c0,0.4,0.1,0.8,0.3,1.1c0.2,0.3,0.5,0.6,0.8,0.8c0.3,0.2,0.7,0.4,1,0.5c0.3,0.1,0.7,0.2,1,0.3l1.6,0.4
		c0.4,0.1,0.9,0.3,1.4,0.5c0.5,0.2,1,0.5,1.5,0.8c0.5,0.3,0.9,0.8,1.2,1.3c0.3,0.6,0.5,1.2,0.5,1.9c0,0.8-0.2,1.6-0.7,2.3
		c-0.5,0.7-1.2,1.3-2,1.7c-2,0.8-4.1,0.8-6.1,0.1c-0.8-0.3-1.5-0.9-2-1.5c-0.5-0.7-0.8-1.5-0.8-2.3h2c0,0.6,0.2,1.1,0.6,1.5
		c0.4,0.4,0.8,0.7,1.4,0.9c0.6,0.2,1.2,0.3,1.8,0.3c0.7,0,1.4-0.1,2-0.4c0.5-0.2,1-0.5,1.4-1c0.3-0.4,0.5-1,0.5-1.5
		c0-0.5-0.1-0.9-0.5-1.3c-0.3-0.4-0.7-0.6-1.2-0.8c-0.5-0.2-1-0.4-1.6-0.5l-2-0.6c-1.1-0.3-2.1-0.8-3-1.5c-0.7-0.7-1.1-1.6-1.1-2.6
		c0-0.8,0.2-1.7,0.7-2.4c0.5-0.7,1.2-1.2,2-1.6c1.8-0.7,3.8-0.7,5.5,0c0.8,0.3,1.4,0.9,1.9,1.5c0.5,0.6,0.7,1.4,0.7,2.2L790.3,410.8
		z"/>
	<path d="M795.3,427.3v-16.5h1.8v1.9h0.2c0.2-0.3,0.4-0.5,0.6-0.8c0.3-0.4,0.6-0.7,1-0.9c0.6-0.3,1.2-0.4,1.9-0.4
		c0.9,0,1.9,0.2,2.7,0.8c0.8,0.5,1.4,1.3,1.8,2.1c0.9,2.1,0.9,4.5,0,6.6c-0.4,0.9-1,1.6-1.8,2.2c-0.8,0.5-1.7,0.8-2.7,0.8
		c-0.6,0-1.3-0.1-1.8-0.4c-0.4-0.2-0.8-0.5-1.1-0.9c-0.2-0.3-0.5-0.6-0.6-0.8h-0.2v6.3L795.3,427.3z M797.1,416.8
		c0,0.8,0.1,1.6,0.4,2.4c0.2,0.6,0.6,1.2,1.2,1.6c1.1,0.8,2.7,0.8,3.8,0c0.5-0.4,0.9-1,1.2-1.7c0.5-1.5,0.5-3.1,0-4.6
		c-0.2-0.6-0.6-1.2-1.2-1.6c-1.2-0.8-2.7-0.8-3.8,0c-0.5,0.4-0.9,0.9-1.2,1.6C797.2,415.2,797.1,416,797.1,416.8z"/>
	<path d="M813.8,423c-1.1,0-2.1-0.2-3-0.8c-0.8-0.5-1.5-1.3-1.9-2.2c-0.5-1-0.7-2.1-0.7-3.2c0-1.1,0.2-2.2,0.7-3.2
		c0.4-0.9,1.1-1.7,1.9-2.2c0.8-0.5,1.8-0.8,2.8-0.8c0.6,0,1.3,0.1,1.8,0.3c0.6,0.2,1.2,0.6,1.7,1c0.5,0.5,0.9,1.1,1.2,1.9
		c0.3,0.9,0.5,1.9,0.5,2.8v0.8h-9.2v-1.6h7.4c0-0.6-0.1-1.2-0.4-1.8c-0.3-0.5-0.7-1-1.1-1.3c-0.5-0.3-1.1-0.5-1.7-0.5
		c-0.7,0-1.3,0.2-1.9,0.5c-0.5,0.4-1,0.8-1.2,1.4c-0.3,0.6-0.4,1.2-0.4,1.9v1.1c0,0.8,0.1,1.6,0.5,2.3c0.3,0.6,0.7,1.1,1.3,1.4
		c0.6,0.3,1.3,0.5,2,0.5c0.4,0,0.9-0.1,1.3-0.2c0.4-0.1,0.7-0.3,1-0.6c0.3-0.3,0.5-0.6,0.7-1l1.8,0.5c-0.2,0.6-0.5,1.1-1,1.6
		c-0.5,0.5-1,0.8-1.6,1.1C815.3,423,814.5,423.1,813.8,423z"/>
	<path d="M826.4,427.5c-0.8,0-1.6-0.1-2.3-0.3c-0.6-0.2-1.1-0.5-1.6-0.9c-0.4-0.3-0.7-0.7-1-1.2l1.5-1c0.2,0.2,0.4,0.5,0.6,0.8
		c0.3,0.3,0.6,0.6,1,0.7c0.6,0.2,1.2,0.3,1.8,0.3c0.9,0,1.7-0.2,2.4-0.7c0.7-0.5,1.1-1.3,1-2.2v-2.4h-0.2c-0.1,0.2-0.3,0.5-0.6,0.8
		c-0.3,0.4-0.7,0.6-1.1,0.9c-0.6,0.3-1.2,0.4-1.9,0.4c-0.9,0-1.8-0.2-2.6-0.7c-0.8-0.5-1.4-1.2-1.8-2c-0.5-1-0.7-2.1-0.7-3.2
		c0-1.1,0.2-2.2,0.6-3.2c0.4-0.9,1-1.6,1.8-2.1c0.8-0.5,1.7-0.8,2.7-0.8c0.6-0.1,1.3,0.1,1.9,0.3c0.4,0.2,0.8,0.5,1.1,0.9
		c0.2,0.3,0.4,0.6,0.6,0.8h0.2v-1.9h1.8v12.3c0,0.9-0.2,1.8-0.7,2.5c-0.5,0.7-1.1,1.2-1.9,1.4C828.2,427.4,827.3,427.6,826.4,427.5z
		 M826.3,421c0.7,0,1.3-0.2,1.9-0.5c0.5-0.4,0.9-0.9,1.2-1.5c0.3-0.7,0.4-1.5,0.4-2.3c0-0.8-0.1-1.6-0.4-2.3
		c-0.2-0.6-0.6-1.2-1.2-1.6c-1.2-0.8-2.7-0.8-3.8,0c-0.5,0.4-0.9,1-1.2,1.6c-0.3,0.7-0.4,1.5-0.4,2.2c0,0.8,0.1,1.5,0.4,2.2
		c0.2,0.6,0.6,1.1,1.2,1.5C825,420.8,825.6,421,826.3,421L826.3,421z"/>
	<path d="M836.8,415.6v7.2h-1.8v-12h1.8v1.9h0.2c0.3-0.6,0.7-1.1,1.3-1.5c0.7-0.4,1.4-0.6,2.2-0.6c0.7,0,1.5,0.2,2.1,0.5
		c0.6,0.3,1.1,0.9,1.4,1.5c0.4,0.8,0.5,1.7,0.5,2.5v7.6h-1.8v-7.5c0-0.8-0.2-1.6-0.7-2.2c-0.5-0.5-1.3-0.8-2-0.8
		c-0.5,0-1.1,0.1-1.6,0.4c-0.5,0.3-0.8,0.6-1.1,1.1C836.9,414.3,836.8,415,836.8,415.6z"/>
	<path d="M848.8,408.8c-0.3,0-0.7-0.1-0.9-0.4c-0.5-0.4-0.5-1.2-0.1-1.7c0,0,0.1-0.1,0.1-0.1c0.2-0.2,0.6-0.4,0.9-0.4
		c0.3,0,0.7,0.1,0.9,0.4c0.5,0.4,0.5,1.2,0.1,1.7c0,0-0.1,0.1-0.1,0.1C849.4,408.7,849.1,408.8,848.8,408.8z M847.8,422.8v-12h1.8
		v12H847.8z"/>
	<path d="M853,422.8v-12h1.8v1.9h0.2c0.2-0.6,0.7-1.1,1.2-1.5c0.6-0.4,1.3-0.6,2-0.5c0.7,0,1.4,0.2,2,0.5c0.5,0.4,1,0.9,1.2,1.5h0.1
		c0.3-0.6,0.8-1.1,1.4-1.5c0.7-0.4,1.4-0.6,2.2-0.6c1,0,1.9,0.3,2.6,1c0.7,0.9,1.1,2,1,3.1v8H867v-8c0.1-0.7-0.2-1.4-0.7-1.9
		c-0.5-0.4-1.1-0.6-1.7-0.6c-0.7-0.1-1.5,0.2-2,0.8c-0.5,0.5-0.7,1.2-0.7,1.9v7.8H860v-8.2c0-0.6-0.2-1.2-0.7-1.6
		c-0.5-0.4-1.1-0.7-1.7-0.6c-0.5,0-0.9,0.1-1.3,0.4c-0.4,0.3-0.8,0.6-1,1.1c-0.3,0.5-0.4,1-0.4,1.6v7.5L853,422.8z"/>
	<path d="M877.2,423c-1.1,0-2.1-0.2-3-0.8c-0.8-0.5-1.5-1.3-1.9-2.2c-0.5-1-0.7-2.1-0.7-3.2c0-1.1,0.2-2.2,0.7-3.2
		c0.4-0.9,1.1-1.7,1.9-2.2c0.8-0.5,1.8-0.8,2.8-0.8c0.6,0,1.3,0.1,1.8,0.3c0.6,0.2,1.2,0.6,1.7,1c0.5,0.5,0.9,1.1,1.2,1.9
		c0.3,0.9,0.5,1.9,0.4,2.8v0.8h-9.2v-1.6h7.4c0-0.6-0.1-1.2-0.4-1.8c-0.3-0.5-0.7-1-1.2-1.3c-0.5-0.3-1.1-0.5-1.7-0.5
		c-0.7,0-1.3,0.2-1.9,0.5c-0.5,0.4-0.9,0.8-1.2,1.4c-0.3,0.6-0.4,1.2-0.4,1.9v1.1c0,0.8,0.1,1.6,0.5,2.3c0.3,0.6,0.7,1.1,1.3,1.4
		c0.6,0.3,1.3,0.5,2,0.5c0.4,0,0.9-0.1,1.3-0.2c0.4-0.1,0.7-0.4,1-0.6c0.3-0.3,0.5-0.6,0.7-1l1.8,0.5c-0.2,0.6-0.5,1.1-1,1.6
		c-0.5,0.5-1,0.8-1.6,1.1C878.7,422.9,877.9,423.1,877.2,423z"/>
	<path d="M886.8,415.6v7.2H885v-12h1.8v1.9h0.2c0.3-0.6,0.7-1.1,1.3-1.5c0.7-0.4,1.4-0.6,2.2-0.6c0.7,0,1.5,0.2,2.1,0.5
		c0.6,0.3,1.1,0.9,1.4,1.5c0.4,0.8,0.5,1.7,0.5,2.5v7.6h-1.8v-7.5c0-0.8-0.2-1.6-0.7-2.2c-0.5-0.5-1.3-0.8-2-0.8
		c-0.5,0-1.1,0.1-1.6,0.4c-0.5,0.3-0.8,0.6-1.1,1.1C887,414.3,886.8,415,886.8,415.6z"/>
	<path d="M903.1,410.8v1.6h-6.2v-1.6H903.1z M898.7,407.9h1.8v11.4c0,0.4,0.1,0.8,0.2,1.2c0.1,0.2,0.3,0.4,0.6,0.5
		c0.2,0.1,0.5,0.1,0.8,0.1c0.2,0,0.3,0,0.5,0l0.3-0.1l0.4,1.7c-0.1,0-0.3,0.1-0.5,0.1c-0.3,0.1-0.6,0.1-0.8,0.1
		c-0.5,0-1-0.1-1.5-0.3c-0.5-0.2-0.9-0.6-1.2-1c-0.3-0.5-0.5-1.1-0.5-1.7V407.9z"/>
	<path d="M910.6,423c-1,0-2-0.2-2.8-0.8c-0.8-0.5-1.5-1.3-1.9-2.2c-0.5-1-0.7-2.1-0.7-3.2c0-1.1,0.2-2.2,0.7-3.3
		c1.2-2.6,4.4-3.7,7-2.5c1.1,0.5,2,1.4,2.5,2.5c0.5,1,0.7,2.1,0.7,3.3c0,1.1-0.2,2.2-0.7,3.2c-0.4,0.9-1.1,1.6-1.9,2.2
		C912.6,422.8,911.6,423.1,910.6,423z M910.6,421.4c0.7,0,1.4-0.2,2-0.6c0.5-0.4,0.9-1,1.2-1.7c0.5-1.5,0.5-3,0-4.5
		c-0.2-0.7-0.6-1.2-1.2-1.7c-1.2-0.9-2.8-0.9-4.1,0c-0.5,0.4-0.9,1-1.2,1.7c-0.5,1.5-0.5,3,0,4.5c0.2,0.7,0.6,1.2,1.2,1.7
		C909.1,421.2,909.9,421.4,910.6,421.4L910.6,421.4z"/>
	<path d="M781.3,449.2v-12h1.8v1.8h0.1c0.2-0.6,0.6-1.1,1.2-1.5c0.6-0.4,1.3-0.6,1.9-0.5h0.5h0.5v1.9l-0.4-0.1c-0.2,0-0.5,0-0.7,0
		c-0.5,0-1.1,0.1-1.6,0.4c-0.4,0.2-0.8,0.6-1.1,1c-0.3,0.4-0.4,0.9-0.4,1.5v7.6L781.3,449.2z"/>
	<path d="M790.4,435.2c-0.3,0-0.7-0.1-0.9-0.4c-0.3-0.2-0.4-0.5-0.4-0.9c0-0.3,0.1-0.7,0.4-0.9c0.2-0.2,0.6-0.4,0.9-0.4
		c0.3,0,0.7,0.1,0.9,0.4c0.3,0.2,0.4,0.6,0.4,0.9c0,0.3-0.1,0.7-0.4,0.9C791.1,435.1,790.8,435.2,790.4,435.2z M789.5,449.2v-12h1.8
		v12H789.5z"/>
	<path d="M803.2,439.9l-1.7,0.5c-0.1-0.3-0.3-0.6-0.5-0.8c-0.2-0.3-0.5-0.5-0.8-0.6c-0.4-0.2-0.9-0.3-1.3-0.3
		c-0.6,0-1.3,0.2-1.8,0.5c-0.5,0.3-0.7,0.8-0.7,1.3c0,0.4,0.2,0.8,0.5,1.1c0.5,0.3,1,0.6,1.6,0.7l1.8,0.4c0.9,0.2,1.7,0.6,2.4,1.2
		c0.5,0.5,0.8,1.3,0.8,2.1c0,0.7-0.2,1.3-0.6,1.9c-0.4,0.6-1,1-1.6,1.3c-0.8,0.3-1.6,0.5-2.5,0.5c-1.1,0-2.1-0.2-3-0.8
		c-0.8-0.5-1.4-1.4-1.5-2.3l1.8-0.4c0.1,0.6,0.5,1.1,1,1.5c0.5,0.3,1.2,0.5,1.8,0.5c0.7,0,1.4-0.2,2-0.5c0.5-0.3,0.8-0.8,0.8-1.3
		c0-0.4-0.2-0.8-0.4-1.1c-0.4-0.3-0.8-0.5-1.3-0.6l-2-0.5c-0.9-0.2-1.8-0.6-2.4-1.2c-0.5-0.6-0.8-1.3-0.8-2.1c0-0.6,0.2-1.3,0.6-1.8
		c0.4-0.5,0.9-1,1.6-1.2c0.7-0.3,1.5-0.5,2.3-0.5c1-0.1,2,0.2,2.8,0.8C802.4,438.3,802.9,439.1,803.2,439.9z"/>
	<path d="M811.1,449.4c-2.1,0.1-4-1.1-4.8-3c-0.9-2-0.9-4.4,0-6.4c0.4-0.9,1.1-1.7,1.9-2.2c0.8-0.5,1.8-0.8,2.8-0.8
		c0.8,0,1.6,0.2,2.3,0.5c0.7,0.3,1.2,0.7,1.7,1.3c0.4,0.6,0.7,1.3,0.8,2h-1.8c-0.2-0.6-0.5-1.1-0.9-1.5c-0.5-0.4-1.2-0.7-1.9-0.6
		c-0.7,0-1.3,0.2-1.9,0.6c-0.6,0.4-1,0.9-1.3,1.6c-0.3,0.8-0.5,1.6-0.4,2.4c0,0.8,0.1,1.7,0.4,2.4c0.3,0.6,0.7,1.2,1.2,1.6
		c0.9,0.6,2.1,0.7,3.2,0.3c0.4-0.2,0.7-0.4,1-0.7c0.3-0.3,0.5-0.7,0.6-1.1h1.8c-0.2,1.4-1.1,2.7-2.3,3.3
		C812.7,449.3,811.9,449.5,811.1,449.4z"/>
	<path d="M822,449.5c-0.7,0-1.4-0.1-2.1-0.4c-1.3-0.6-2.1-1.9-2-3.2c0-0.6,0.1-1.2,0.4-1.7c0.3-0.4,0.6-0.8,1.1-1
		c0.5-0.3,1-0.4,1.5-0.5c0.5-0.1,1.1-0.2,1.7-0.3l1.8-0.2c0.3,0,0.7-0.1,1-0.2c0.2-0.1,0.3-0.4,0.3-0.6v-0.1c0-0.7-0.2-1.3-0.6-1.8
		c-0.5-0.5-1.2-0.7-1.9-0.6c-0.7,0-1.5,0.2-2.1,0.6c-0.4,0.3-0.8,0.8-1,1.2l-1.8-0.6c0.3-0.7,0.7-1.3,1.2-1.7
		c0.5-0.4,1.1-0.7,1.7-0.9c0.6-0.2,1.2-0.2,1.8-0.2c0.4,0,0.9,0.1,1.3,0.1c0.5,0.1,1,0.3,1.5,0.6c0.5,0.3,0.8,0.7,1.1,1.2
		c0.3,0.7,0.5,1.5,0.5,2.3v7.9h-1.8v-1.6h-0.1c-0.2,0.3-0.4,0.6-0.6,0.8c-0.3,0.3-0.7,0.6-1.2,0.8
		C823.2,449.4,822.6,449.5,822,449.5z M822.3,447.8c0.6,0,1.3-0.1,1.8-0.4c0.5-0.3,0.9-0.6,1.1-1.1c0.2-0.4,0.4-0.9,0.4-1.4v-1.7
		c-0.1,0.1-0.3,0.2-0.5,0.3c-0.3,0.1-0.6,0.1-0.9,0.2c-0.3,0.1-0.7,0.1-1,0.1l-0.8,0.1c-0.5,0.1-0.9,0.2-1.3,0.3
		c-0.4,0.1-0.7,0.3-1,0.6c-0.3,0.3-0.4,0.7-0.4,1.1c0,0.6,0.2,1.1,0.7,1.5C821,447.7,821.6,447.9,822.3,447.8L822.3,447.8z"/>
	<path d="M832.7,433.2v16h-1.8v-16H832.7z"/>
	<path d="M840.6,449.4c-0.9,0-1.9-0.2-2.7-0.8c-0.8-0.5-1.4-1.3-1.8-2.1c-0.5-1-0.7-2.2-0.7-3.3c0-1.1,0.2-2.2,0.7-3.3
		c0.4-0.9,1-1.6,1.8-2.1c0.8-0.5,1.7-0.8,2.7-0.8c0.6,0,1.3,0.1,1.9,0.4c0.4,0.2,0.7,0.5,1,0.9c0.2,0.3,0.4,0.6,0.6,0.8h0.2v-5.9
		h1.8v16h-1.8v-1.8h-0.2c-0.2,0.3-0.4,0.6-0.6,0.8c-0.3,0.4-0.7,0.7-1.1,0.9C841.9,449.3,841.3,449.5,840.6,449.4z M840.9,447.8
		c0.7,0,1.3-0.2,1.9-0.6c0.5-0.4,0.9-1,1.2-1.6c0.5-1.5,0.5-3.2,0-4.8c-0.2-0.6-0.6-1.2-1.2-1.6c-1.2-0.8-2.7-0.8-3.8,0
		c-0.5,0.4-0.9,1-1.2,1.6c-0.5,1.5-0.5,3.1,0,4.6c0.2,0.7,0.6,1.2,1.2,1.7C839.5,447.6,840.2,447.8,840.9,447.8z"/>
	<path d="M853.3,449.5c-0.7,0-1.4-0.1-2.1-0.4c-1.3-0.6-2.1-1.9-2-3.2c0-0.6,0.1-1.2,0.4-1.7c0.3-0.4,0.6-0.8,1.1-1
		c0.5-0.3,1-0.4,1.5-0.5c0.5-0.1,1.1-0.2,1.7-0.3l1.8-0.2c0.3,0,0.7-0.1,1-0.2c0.2-0.1,0.3-0.4,0.3-0.6v-0.1c0-0.7-0.2-1.3-0.6-1.8
		c-0.5-0.5-1.2-0.7-1.9-0.6c-0.7,0-1.5,0.2-2.1,0.6c-0.4,0.3-0.8,0.7-1,1.2l-1.8-0.6c0.3-0.7,0.7-1.3,1.2-1.7
		c0.5-0.4,1.1-0.7,1.7-0.9c0.6-0.2,1.2-0.2,1.8-0.2c0.4,0,0.9,0.1,1.3,0.1c0.5,0.1,1,0.3,1.5,0.6c0.5,0.3,0.9,0.7,1.2,1.3
		c0.3,0.7,0.5,1.5,0.5,2.3v7.9H857v-1.6h-0.1c-0.2,0.3-0.4,0.6-0.6,0.8c-0.3,0.3-0.7,0.6-1.2,0.8
		C854.5,449.4,853.9,449.5,853.3,449.5z M853.6,447.8c0.6,0,1.3-0.1,1.8-0.4c0.5-0.3,0.9-0.6,1.1-1.1c0.2-0.4,0.4-0.9,0.4-1.4v-1.7
		c-0.1,0.1-0.3,0.2-0.5,0.3c-0.3,0.1-0.6,0.1-0.9,0.2c-0.3,0.1-0.7,0.1-1,0.1l-0.8,0.1c-0.5,0.1-0.9,0.2-1.3,0.3
		c-0.4,0.1-0.7,0.3-1,0.6c-0.3,0.3-0.4,0.7-0.4,1.1c0,0.6,0.2,1.1,0.7,1.5C852.3,447.7,852.9,447.8,853.6,447.8z"/>
	<path d="M862.2,449.2v-12h1.8v1.9h0.2c0.2-0.6,0.7-1.1,1.2-1.5c0.6-0.4,1.3-0.6,2-0.5c0.7,0,1.4,0.2,2,0.5c0.5,0.4,1,0.9,1.2,1.5
		h0.1c0.3-0.6,0.8-1.1,1.4-1.5c0.7-0.4,1.4-0.6,2.2-0.5c1,0,1.9,0.3,2.6,1c0.7,0.9,1.1,2,1,3.1v8h-1.8v-8c0.1-0.7-0.2-1.4-0.7-1.9
		c-0.5-0.4-1.1-0.6-1.7-0.6c-0.7-0.1-1.5,0.2-2,0.8c-0.5,0.5-0.7,1.2-0.7,1.9v7.8h-1.8V441c0-0.6-0.2-1.2-0.7-1.6
		c-0.5-0.4-1.1-0.7-1.7-0.6c-0.5,0-0.9,0.1-1.3,0.4c-0.4,0.3-0.8,0.6-1,1.1c-0.3,0.5-0.4,1-0.4,1.6v7.5L862.2,449.2z"/>
	<path d="M886.3,449.4c-1.1,0-2.1-0.2-3-0.8c-0.8-0.5-1.5-1.3-1.9-2.2c-0.5-1-0.7-2.1-0.7-3.2c0-1.1,0.2-2.2,0.7-3.2
		c0.4-0.9,1.1-1.7,1.9-2.2c0.8-0.5,1.8-0.8,2.8-0.8c0.6,0,1.3,0.1,1.8,0.3c0.6,0.2,1.2,0.6,1.7,1c0.5,0.5,0.9,1.2,1.2,1.9
		c0.3,0.9,0.5,1.9,0.5,2.8v0.8H882v-1.6h7.4c0-0.6-0.1-1.2-0.4-1.8c-0.3-0.5-0.6-1-1.1-1.3c-0.5-0.3-1.1-0.5-1.7-0.5
		c-0.7,0-1.3,0.2-1.9,0.5c-0.5,0.3-1,0.8-1.2,1.4c-0.3,0.6-0.4,1.2-0.4,1.9v1.1c0,0.8,0.1,1.6,0.5,2.3c0.3,0.6,0.7,1.1,1.3,1.4
		c0.6,0.3,1.3,0.5,2,0.5c0.4,0,0.9-0.1,1.3-0.2c0.4-0.1,0.7-0.3,1-0.6c0.3-0.3,0.5-0.6,0.7-1l1.8,0.5c-0.2,0.6-0.5,1.2-1,1.6
		c-0.5,0.5-1,0.8-1.6,1.1C887.8,449.3,887,449.5,886.3,449.4z"/>
	<path d="M895.9,442v7.2h-1.8v-12h1.8v1.9h0.1c0.3-0.6,0.7-1.1,1.3-1.5c0.7-0.4,1.4-0.6,2.2-0.6c0.7,0,1.5,0.2,2.1,0.5
		c0.6,0.3,1.1,0.9,1.4,1.5c0.4,0.8,0.5,1.7,0.5,2.5v7.6h-1.8v-7.5c0-0.8-0.2-1.6-0.7-2.2c-0.5-0.5-1.3-0.8-2-0.8
		c-0.6,0-1.1,0.1-1.6,0.4c-0.5,0.3-0.8,0.6-1.1,1.1C896,440.8,895.9,441.4,895.9,442z"/>
	<path d="M912.2,437.2v1.6H906v-1.6H912.2z M907.8,434.3h1.8v11.4c0,0.4,0.1,0.8,0.2,1.2c0.1,0.2,0.3,0.4,0.6,0.5
		c0.2,0.1,0.5,0.1,0.8,0.1c0.2,0,0.3,0,0.5,0l0.3-0.1l0.4,1.6c-0.2,0.1-0.3,0.1-0.5,0.1c-0.3,0.1-0.6,0.1-0.8,0.1
		c-0.5,0-1-0.1-1.5-0.3c-0.5-0.2-0.9-0.6-1.2-1c-0.3-0.5-0.5-1.1-0.5-1.7V434.3z"/>
	<path d="M915.9,435.2c-0.3,0-0.7-0.1-0.9-0.4c-0.3-0.2-0.4-0.5-0.4-0.9c0-0.3,0.1-0.7,0.4-0.9c0.2-0.2,0.6-0.4,0.9-0.4
		c0.3,0,0.7,0.1,0.9,0.4c0.3,0.2,0.4,0.6,0.4,0.9c0,0.3-0.1,0.7-0.4,0.9C916.6,435.1,916.3,435.2,915.9,435.2z M915,449.2v-12h1.8
		v12H915z"/>
	<path d="M782.9,1171.7h-2l5.9-16h2l5.9,16h-2l-4.8-13.5h-0.1L782.9,1171.7z M783.6,1165.5h8.2v1.7h-8.2V1165.5z"/>
	<path d="M801.7,1172c-2.1,0.1-4-1.1-4.8-3c-0.4-1-0.7-2.1-0.7-3.2c0-1.1,0.2-2.2,0.7-3.2c0.4-0.9,1.1-1.6,1.9-2.2
		c0.8-0.5,1.8-0.8,2.8-0.8c0.8,0,1.6,0.1,2.3,0.5c0.7,0.3,1.2,0.7,1.7,1.3c0.4,0.6,0.7,1.3,0.8,2h-1.8c-0.2-0.6-0.5-1.1-0.9-1.4
		c-0.5-0.5-1.2-0.7-1.9-0.6c-0.7,0-1.3,0.2-1.9,0.6c-0.6,0.4-1,0.9-1.3,1.6c-0.3,0.7-0.5,1.6-0.5,2.4c0,0.8,0.1,1.7,0.4,2.4
		c0.3,0.6,0.7,1.2,1.2,1.6c1,0.6,2.2,0.7,3.2,0.3c0.4-0.2,0.7-0.4,1-0.7c0.3-0.3,0.5-0.7,0.6-1.1h1.8c-0.2,1.4-1.1,2.6-2.4,3.2
		C803.3,1171.9,802.5,1172,801.7,1172z"/>
	<path d="M814,1172c-1,0-2-0.3-2.9-0.8c-0.8-0.5-1.5-1.3-1.9-2.2c-0.9-2.1-0.9-4.4,0-6.4c0.4-0.9,1.1-1.6,1.9-2.2
		c0.8-0.5,1.8-0.8,2.8-0.8c0.8,0,1.6,0.2,2.3,0.5c0.7,0.3,1.2,0.7,1.7,1.3c0.4,0.6,0.7,1.3,0.8,2h-1.8c-0.2-0.6-0.5-1.1-0.9-1.4
		c-0.5-0.5-1.2-0.7-1.9-0.6c-0.7,0-1.3,0.2-1.9,0.6c-0.6,0.4-1,0.9-1.3,1.6c-0.3,0.7-0.5,1.6-0.5,2.4c0,0.8,0.1,1.7,0.4,2.4
		c0.3,0.6,0.7,1.2,1.2,1.6c0.6,0.4,1.2,0.6,1.9,0.6c0.4,0,0.9-0.1,1.3-0.2c0.4-0.2,0.7-0.4,1-0.7c0.3-0.3,0.5-0.7,0.6-1.1h1.8
		c-0.1,0.7-0.4,1.3-0.8,1.9c-0.4,0.6-1,1-1.6,1.3C815.6,1171.9,814.8,1172,814,1172z"/>
	<path d="M826.4,1172c-1.1,0-2.1-0.2-3-0.8c-0.8-0.5-1.5-1.3-1.9-2.2c-0.5-1-0.7-2.1-0.7-3.2c0-1.1,0.2-2.2,0.7-3.2
		c0.4-0.9,1.1-1.7,1.9-2.2c0.8-0.5,1.8-0.8,2.8-0.8c0.6,0,1.3,0.1,1.8,0.3c0.6,0.2,1.2,0.5,1.7,1c0.5,0.5,0.9,1.1,1.2,1.8
		c0.3,0.9,0.5,1.9,0.4,2.8v0.8h-9.2v-1.6h7.4c0-0.6-0.1-1.2-0.4-1.8c-0.3-0.5-0.7-1-1.2-1.3c-0.5-0.3-1.1-0.5-1.7-0.5
		c-0.7,0-1.3,0.2-1.9,0.5c-0.5,0.4-0.9,0.8-1.2,1.4c-0.3,0.6-0.4,1.2-0.4,1.9v1.1c0,0.8,0.1,1.6,0.5,2.3c0.3,0.6,0.7,1.1,1.3,1.4
		c0.6,0.3,1.3,0.5,2,0.5c0.4,0,0.9-0.1,1.3-0.2c0.4-0.1,0.7-0.3,1-0.6c0.3-0.3,0.5-0.6,0.7-1l1.8,0.5c-0.2,0.6-0.5,1.1-1,1.6
		c-0.5,0.5-1,0.8-1.6,1.1C827.9,1171.9,827.2,1172,826.4,1172z"/>
	<path d="M836.1,1164.5v7.2h-1.8v-12h1.8v1.9h0.2c0.3-0.6,0.7-1.1,1.3-1.5c0.7-0.4,1.4-0.6,2.2-0.6c0.7,0,1.5,0.2,2.1,0.5
		c0.6,0.3,1.1,0.9,1.4,1.5c0.4,0.8,0.5,1.7,0.5,2.5v7.6h-1.8v-7.5c0-0.8-0.2-1.6-0.7-2.2c-0.5-0.5-1.3-0.8-2-0.8
		c-0.5,0-1.1,0.1-1.6,0.4c-0.5,0.3-0.8,0.6-1.1,1.1C836.2,1163.3,836.1,1163.9,836.1,1164.5z"/>
	<path d="M855.6,1162.4l-1.7,0.5c-0.1-0.3-0.3-0.6-0.5-0.8c-0.2-0.3-0.5-0.5-0.8-0.7c-0.4-0.2-0.9-0.3-1.3-0.2
		c-0.6,0-1.3,0.2-1.8,0.5c-0.5,0.3-0.7,0.8-0.7,1.3c0,0.4,0.2,0.8,0.5,1.1c0.5,0.3,1,0.6,1.6,0.7l1.8,0.4c0.9,0.2,1.7,0.6,2.4,1.2
		c0.5,0.5,0.8,1.3,0.8,2.1c0,0.7-0.2,1.3-0.6,1.8c-0.4,0.6-1,1-1.7,1.3c-0.8,0.3-1.6,0.5-2.5,0.5c-1.1,0-2.1-0.2-3-0.8
		c-0.8-0.5-1.4-1.4-1.5-2.3l1.8-0.4c0.1,0.6,0.5,1.1,1,1.4c0.5,0.3,1.2,0.5,1.8,0.5c0.7,0,1.4-0.2,2-0.6c0.5-0.3,0.7-0.8,0.8-1.3
		c0-0.4-0.2-0.7-0.4-1c-0.4-0.3-0.9-0.6-1.3-0.6l-2-0.5c-0.9-0.2-1.7-0.6-2.4-1.2c-0.5-0.6-0.8-1.3-0.8-2.1c0-0.6,0.2-1.3,0.6-1.8
		c0.4-0.5,0.9-1,1.6-1.2c0.7-0.3,1.5-0.5,2.3-0.4c1-0.1,2,0.2,2.8,0.8C854.8,1160.9,855.3,1161.6,855.6,1162.4z"/>
	<path d="M859.5,1157.7c-0.3,0-0.7-0.1-0.9-0.4c-0.5-0.5-0.5-1.2,0-1.7c0,0,0,0,0,0c0.2-0.2,0.6-0.4,0.9-0.4c0.3,0,0.7,0.1,0.9,0.4
		c0.5,0.4,0.5,1.2,0.1,1.7c0,0-0.1,0.1-0.1,0.1C860.2,1157.6,859.9,1157.7,859.5,1157.7z M858.6,1171.7v-12h1.8v12H858.6z"/>
	<path d="M868.7,1172c-2,0-3.9-1.1-4.8-2.9c-0.9-2.1-0.9-4.4,0-6.5c1.2-2.6,4.4-3.7,7-2.5c1.1,0.5,2,1.4,2.5,2.5
		c0.9,2.1,0.9,4.4,0,6.5C872.6,1170.9,870.7,1172.1,868.7,1172z M868.7,1170.3c0.7,0,1.4-0.2,2-0.6c0.5-0.4,0.9-1,1.2-1.7
		c0.5-1.4,0.5-3,0-4.5c-0.2-0.7-0.6-1.2-1.2-1.7c-1.2-0.9-2.8-0.9-4.1,0c-0.5,0.4-0.9,1-1.2,1.7c-0.5,1.5-0.5,3,0,4.5
		c0.2,0.7,0.6,1.2,1.2,1.7C867.2,1170.2,867.9,1170.4,868.7,1170.3L868.7,1170.3z"/>
	<path d="M878.8,1164.5v7.2h-1.8v-12h1.8v1.9h0.2c0.3-0.6,0.7-1.1,1.3-1.5c0.7-0.4,1.4-0.6,2.2-0.6c0.7,0,1.5,0.2,2.1,0.5
		c0.6,0.3,1.1,0.9,1.4,1.5c0.4,0.8,0.5,1.7,0.5,2.5v7.6h-1.8v-7.5c0-0.8-0.2-1.6-0.7-2.2c-0.5-0.5-1.3-0.8-2-0.8
		c-0.5,0-1.1,0.1-1.6,0.4c-0.5,0.3-0.8,0.6-1.1,1.1C878.9,1163.3,878.8,1163.9,878.8,1164.5z"/>
	<path d="M894.8,1172c-1.1,0-2.1-0.2-3-0.8c-0.8-0.5-1.5-1.3-1.9-2.2c-0.5-1-0.7-2.1-0.7-3.2c0-1.1,0.2-2.2,0.7-3.2
		c0.4-0.9,1.1-1.7,1.9-2.2c0.8-0.5,1.8-0.8,2.8-0.8c0.6,0,1.3,0.1,1.8,0.3c0.6,0.2,1.2,0.5,1.7,1c0.5,0.5,0.9,1.1,1.2,1.8
		c0.3,0.9,0.5,1.9,0.5,2.8v0.8h-9.2v-1.6h7.4c0-0.6-0.1-1.2-0.4-1.8c-0.5-1.1-1.7-1.8-2.9-1.7c-0.7,0-1.3,0.2-1.9,0.5
		c-0.5,0.4-0.9,0.8-1.2,1.4c-0.3,0.6-0.4,1.2-0.4,1.9v1.1c0,0.8,0.1,1.6,0.5,2.3c0.3,0.6,0.7,1.1,1.3,1.4c0.6,0.3,1.3,0.5,2,0.5
		c0.4,0,0.9-0.1,1.3-0.2c0.4-0.1,0.7-0.3,1-0.6c0.3-0.3,0.5-0.6,0.7-1l1.8,0.5c-0.2,0.6-0.5,1.1-0.9,1.6c-0.5,0.5-1,0.8-1.6,1.1
		C896.4,1171.9,895.6,1172,894.8,1172z"/>
	<path d="M782,1198.1v-12h1.8v1.9h0.1c0.2-0.6,0.6-1.1,1.2-1.4c0.6-0.4,1.2-0.6,1.9-0.6h0.5h0.5v1.9l-0.4-0.1c-0.2,0-0.5,0-0.7,0
		c-0.5,0-1.1,0.1-1.6,0.4c-0.4,0.2-0.8,0.6-1.1,1c-0.3,0.4-0.4,0.9-0.4,1.4v7.6L782,1198.1z"/>
	<path d="M791.1,1184.1c-0.3,0-0.7-0.1-0.9-0.4c-0.5-0.5-0.5-1.2,0-1.7c0,0,0,0,0,0c0.5-0.5,1.3-0.5,1.9,0c0.5,0.5,0.5,1.2,0,1.7
		c0,0,0,0,0,0C791.8,1184,791.4,1184.1,791.1,1184.1z M790.2,1198.1v-12h1.8v12H790.2z"/>
	<path d="M803.9,1188.8l-1.7,0.5c-0.1-0.3-0.3-0.6-0.5-0.8c-0.2-0.3-0.5-0.5-0.8-0.7c-0.4-0.2-0.9-0.3-1.3-0.3
		c-0.6,0-1.3,0.2-1.8,0.5c-0.5,0.3-0.7,0.7-0.7,1.3c0,0.4,0.2,0.8,0.5,1.1c0.5,0.3,1,0.6,1.6,0.7l1.8,0.4c0.9,0.2,1.7,0.6,2.4,1.2
		c0.5,0.5,0.8,1.3,0.8,2.1c0,0.7-0.2,1.3-0.6,1.8c-0.4,0.6-1,1-1.6,1.3c-0.8,0.3-1.6,0.5-2.5,0.5c-1.1,0-2.1-0.2-3-0.8
		c-0.8-0.5-1.4-1.4-1.5-2.3l1.8-0.4c0.1,0.6,0.5,1.1,1,1.4c0.5,0.3,1.2,0.5,1.8,0.5c0.7,0,1.4-0.2,2-0.6c0.5-0.3,0.7-0.8,0.8-1.3
		c0-0.4-0.1-0.8-0.4-1.1c-0.4-0.3-0.9-0.5-1.3-0.6l-2-0.5c-0.9-0.2-1.7-0.6-2.4-1.2c-0.5-0.6-0.8-1.3-0.8-2.1c0-0.6,0.2-1.3,0.6-1.8
		c0.4-0.5,0.9-1,1.6-1.2c0.7-0.3,1.5-0.5,2.3-0.4c1-0.1,2,0.2,2.8,0.8C803.1,1187.3,803.6,1188,803.9,1188.8z"/>
	<path d="M811.8,1198.4c-2.1,0.1-4-1.1-4.8-3c-0.9-2-0.9-4.4,0-6.4c0.4-0.9,1.1-1.7,1.9-2.2c0.8-0.5,1.8-0.8,2.8-0.8
		c0.8,0,1.6,0.2,2.3,0.5c0.7,0.3,1.2,0.7,1.7,1.3c0.4,0.6,0.7,1.3,0.8,2h-1.8c-0.2-0.6-0.5-1.1-0.9-1.5c-0.5-0.4-1.2-0.7-1.9-0.6
		c-0.7,0-1.3,0.2-1.9,0.6c-0.6,0.4-1,0.9-1.3,1.6c-0.3,0.8-0.5,1.6-0.5,2.4c0,0.8,0.1,1.7,0.4,2.4c0.3,0.6,0.7,1.2,1.2,1.6
		c0.6,0.4,1.2,0.6,1.9,0.6c0.4,0,0.9-0.1,1.3-0.2c0.4-0.2,0.7-0.4,1-0.7c0.3-0.3,0.5-0.7,0.6-1.1h1.8c-0.1,0.7-0.4,1.3-0.8,1.9
		c-0.4,0.6-1,1-1.6,1.3C813.4,1198.2,812.6,1198.4,811.8,1198.4z"/>
	<path d="M822.7,1198.4c-0.7,0-1.4-0.1-2.1-0.4c-1.3-0.6-2.1-1.9-2-3.2c0-0.6,0.1-1.2,0.4-1.7c0.3-0.4,0.6-0.8,1.1-1
		c0.5-0.3,1-0.4,1.5-0.6c0.5-0.1,1.1-0.2,1.7-0.3l1.7-0.2c0.3,0,0.7-0.1,1-0.2c0.2-0.1,0.3-0.4,0.3-0.6v-0.1c0-0.7-0.2-1.3-0.6-1.8
		c-0.5-0.5-1.2-0.7-1.9-0.6c-0.7,0-1.5,0.2-2.1,0.6c-0.4,0.3-0.8,0.7-1.1,1.2l-1.8-0.6c0.3-0.7,0.7-1.3,1.3-1.7
		c0.5-0.4,1.1-0.7,1.7-0.8c0.6-0.2,1.2-0.2,1.8-0.2c0.4,0,0.9,0.1,1.3,0.1c0.5,0.1,1,0.3,1.5,0.6c0.5,0.3,0.9,0.8,1.2,1.3
		c0.3,0.7,0.5,1.5,0.5,2.3v7.9h-1.8v-1.6h-0.1c-0.2,0.3-0.4,0.6-0.6,0.8c-0.3,0.3-0.7,0.6-1.2,0.8
		C823.9,1198.3,823.3,1198.4,822.7,1198.4z M823,1196.8c0.6,0,1.3-0.1,1.8-0.4c0.5-0.3,0.9-0.6,1.1-1.1c0.3-0.4,0.4-0.9,0.4-1.4
		v-1.7c-0.1,0.1-0.3,0.2-0.5,0.3c-0.3,0.1-0.6,0.1-0.9,0.2c-0.3,0.1-0.7,0.1-1,0.1l-0.8,0.1c-0.5,0.1-0.9,0.2-1.3,0.3
		c-0.4,0.1-0.7,0.3-1,0.6c-0.3,0.3-0.4,0.7-0.4,1.1c0,0.6,0.2,1.1,0.7,1.4C821.7,1196.6,822.3,1196.8,823,1196.8L823,1196.8z"/>
	<path d="M833.4,1182.1v16h-1.8v-16H833.4z"/>
	<path d="M841.3,1198.4c-0.9,0-1.9-0.2-2.7-0.8c-0.8-0.5-1.4-1.3-1.8-2.2c-0.5-1-0.7-2.2-0.6-3.3c0-1.1,0.2-2.2,0.6-3.3
		c0.4-0.9,1-1.6,1.8-2.2c0.8-0.5,1.7-0.8,2.7-0.8c0.6,0,1.3,0.1,1.9,0.4c0.4,0.2,0.7,0.5,1,0.9c0.2,0.3,0.4,0.6,0.6,0.8h0.2v-5.9
		h1.8v16H845v-1.8h-0.2c-0.1,0.2-0.3,0.5-0.6,0.8c-0.3,0.4-0.7,0.7-1.1,0.9C842.6,1198.3,841.9,1198.4,841.3,1198.4z M841.6,1196.7
		c0.7,0,1.3-0.2,1.9-0.6c0.5-0.4,0.9-1,1.2-1.6c0.3-0.8,0.4-1.6,0.4-2.4c0-0.8-0.1-1.6-0.4-2.3c-0.2-0.6-0.6-1.2-1.2-1.6
		c-1.2-0.8-2.7-0.8-3.8,0c-0.5,0.4-0.9,1-1.2,1.6c-0.3,0.7-0.4,1.5-0.4,2.3c0,0.8,0.1,1.6,0.4,2.3c0.2,0.6,0.6,1.2,1.2,1.7
		C840.2,1196.5,840.9,1196.7,841.6,1196.7z"/>
	<path d="M854,1198.4c-0.7,0-1.4-0.1-2.1-0.4c-1.3-0.6-2.1-1.9-2-3.2c0-0.6,0.1-1.2,0.4-1.7c0.3-0.4,0.6-0.8,1.1-1
		c0.5-0.3,1-0.4,1.5-0.6c0.5-0.1,1.1-0.2,1.7-0.3l1.8-0.2c0.3,0,0.7-0.1,1-0.2c0.2-0.1,0.3-0.4,0.3-0.6v-0.1c0-0.7-0.2-1.3-0.6-1.8
		c-0.5-0.5-1.2-0.7-1.9-0.6c-0.7,0-1.5,0.2-2.1,0.6c-0.4,0.3-0.8,0.8-1,1.2l-1.8-0.6c0.3-0.7,0.7-1.3,1.2-1.7
		c0.5-0.4,1.1-0.7,1.7-0.8c0.6-0.1,1.1-0.2,1.7-0.2c0.4,0,0.9,0.1,1.3,0.1c0.5,0.1,1,0.3,1.5,0.6c0.5,0.3,0.9,0.8,1.2,1.3
		c0.3,0.7,0.5,1.5,0.5,2.3v7.9h-1.8v-1.6h-0.1c-0.2,0.3-0.4,0.6-0.6,0.8c-0.3,0.3-0.7,0.6-1.2,0.8
		C855.2,1198.4,854.6,1198.4,854,1198.4z M854.3,1196.8c0.6,0,1.3-0.1,1.8-0.4c0.5-0.3,0.9-0.6,1.1-1.1c0.3-0.4,0.4-0.9,0.4-1.4
		v-1.7c-0.1,0.1-0.3,0.2-0.5,0.3c-0.3,0.1-0.6,0.1-0.9,0.2c-0.3,0.1-0.7,0.1-1,0.1l-0.8,0.1c-0.5,0.1-0.9,0.2-1.3,0.3
		c-0.4,0.1-0.7,0.3-1,0.6c-0.3,0.3-0.4,0.7-0.4,1.1c0,0.6,0.2,1.1,0.7,1.4C853,1196.6,853.6,1196.8,854.3,1196.8L854.3,1196.8z"/>
	<path d="M862.8,1198.1v-12h1.8v1.9h0.2c0.2-0.6,0.7-1.1,1.2-1.5c0.6-0.4,1.3-0.5,2-0.5c0.7,0,1.4,0.2,2,0.5c0.5,0.4,1,0.9,1.2,1.5
		h0.1c0.3-0.6,0.8-1.1,1.4-1.5c0.7-0.4,1.4-0.6,2.2-0.6c1,0,1.9,0.3,2.6,1c0.7,0.9,1.1,2,1,3.1v8h-1.8v-8c0.1-0.7-0.2-1.4-0.7-1.9
		c-0.5-0.4-1.1-0.6-1.7-0.6c-0.7-0.1-1.5,0.2-2,0.8c-0.5,0.5-0.7,1.2-0.7,1.9v7.8h-1.9v-8.2c0-0.6-0.2-1.2-0.7-1.7
		c-0.5-0.4-1.1-0.6-1.7-0.6c-0.5,0-0.9,0.1-1.3,0.4c-0.4,0.3-0.8,0.6-1,1.1c-0.3,0.5-0.4,1-0.4,1.6v7.5L862.8,1198.1z"/>
	<path d="M887,1198.4c-1.1,0-2.1-0.2-3-0.8c-0.8-0.5-1.5-1.3-1.9-2.2c-0.5-1-0.7-2.1-0.7-3.2c0-1.1,0.2-2.2,0.7-3.2
		c0.4-0.9,1.1-1.7,1.9-2.2c0.8-0.5,1.8-0.8,2.8-0.8c0.6,0,1.3,0.1,1.8,0.3c0.6,0.2,1.2,0.6,1.7,1c0.5,0.5,0.9,1.2,1.2,1.8
		c0.3,0.9,0.5,1.9,0.5,2.9v0.8h-9.2v-1.6h7.4c0-0.6-0.1-1.3-0.4-1.8c-0.3-0.5-0.7-0.9-1.1-1.2c-0.5-0.3-1.1-0.5-1.7-0.5
		c-0.7,0-1.3,0.2-1.9,0.5c-0.5,0.3-1,0.8-1.2,1.4c-0.3,0.6-0.4,1.2-0.4,1.9v1.1c0,0.8,0.1,1.6,0.5,2.3c0.3,0.6,0.7,1.1,1.3,1.4
		c0.6,0.3,1.3,0.5,2,0.5c0.4,0,0.9-0.1,1.3-0.2c0.4-0.1,0.7-0.3,1-0.6c0.3-0.3,0.5-0.7,0.7-1.1l1.8,0.5c-0.2,0.6-0.5,1.1-1,1.6
		c-0.5,0.5-1,0.8-1.6,1.1C888.5,1198.3,887.8,1198.4,887,1198.4z"/>
	<path d="M896.6,1190.9v7.2h-1.8v-12h1.8v1.9h0.2c0.3-0.6,0.7-1.1,1.3-1.5c0.7-0.4,1.4-0.6,2.2-0.6c0.7,0,1.5,0.2,2.1,0.5
		c0.6,0.3,1.1,0.9,1.4,1.5c0.4,0.8,0.5,1.7,0.5,2.5v7.6h-1.8v-7.5c0.1-0.8-0.2-1.6-0.7-2.2c-0.5-0.5-1.3-0.8-2-0.8
		c-0.5,0-1.1,0.1-1.6,0.4c-0.5,0.3-0.8,0.6-1.1,1.1C896.8,1189.7,896.6,1190.3,896.6,1190.9z"/>
	<path d="M912.9,1186.1v1.6h-6.2v-1.6H912.9z M908.5,1183.3h1.8v11.4c0,0.4,0.1,0.8,0.2,1.2c0.1,0.2,0.3,0.4,0.6,0.5
		c0.2,0.1,0.5,0.1,0.8,0.1c0.2,0,0.3,0,0.5,0h0.3l0.4,1.7c-0.2,0.1-0.3,0.1-0.5,0.2c-0.3,0.1-0.6,0.1-0.8,0.1
		c-0.5,0-1.1-0.1-1.5-0.3c-0.5-0.2-0.9-0.6-1.2-1c-0.3-0.5-0.5-1.1-0.5-1.7L908.5,1183.3z"/>
	<path d="M916.6,1184.1c-0.3,0-0.7-0.1-0.9-0.4c-0.5-0.5-0.5-1.2,0-1.7c0,0,0,0,0,0c0.5-0.5,1.3-0.5,1.9,0c0.5,0.5,0.5,1.2,0,1.7
		c0,0,0,0,0,0C917.3,1184,916.9,1184.1,916.6,1184.1z M915.7,1198.1v-12h1.8v12H915.7z"/>
</g>
<g>
	<circle cx="267.9" cy="1552.4" r="14.3"/>
	<path d="M322,1576.1v-45.3h15.3c3-0.1,6,0.5,8.7,1.9c2.1,1.2,3.9,3,5,5.2c2.2,4.6,2.2,9.9,0,14.5c-1.1,2.2-2.8,4-5,5.2
		c-2.7,1.4-5.7,2-8.7,1.9h-11v-4.8h10.8c2,0.1,4-0.3,5.9-1.2c1.4-0.8,2.5-2,3.2-3.4c1.4-3.1,1.4-6.6,0-9.7c-0.7-1.5-1.8-2.6-3.2-3.4
		c-1.8-0.9-3.9-1.3-5.9-1.2h-9.7v40.4L322,1576.1z"/>
	<path d="M361.5,1530.8h6.5l15.4,37.4h0.5l15.4-37.4h6.6v45.3h-5.1v-34.4h-0.4l-14.2,34.4h-4.8l-14.2-34.4h-0.5v34.4h-5.1
		L361.5,1530.8z"/>
	<path d="M432,1530.8v45.3h-5.5v-39.6h-0.3l-11,7.3v-5.6l11.3-7.5L432,1530.8z"/>
	<path d="M459.8,1576.7c-3.1,0.1-6.1-0.9-8.5-2.7c-2.5-2.1-4.4-4.8-5.4-7.9c-2.5-8.2-2.5-17,0-25.2c1-3.1,2.9-5.9,5.4-8
		c5.1-3.7,11.9-3.7,17,0c2.5,2.1,4.4,4.9,5.4,8c2.5,8.2,2.5,17,0,25.2c-1,3.1-2.9,5.8-5.4,7.9
		C465.8,1575.8,462.8,1576.8,459.8,1576.7z M459.8,1571.9c3.3,0,6.3-1.9,7.7-4.8c2.1-4.2,3-8.9,2.7-13.6c0.1-3.4-0.4-6.7-1.2-10
		c-0.6-2.4-1.9-4.6-3.6-6.3c-1.5-1.4-3.5-2.2-5.6-2.2c-3.3-0.1-6.4,1.7-7.9,4.7c-2.1,4.2-3,8.9-2.8,13.7c-0.1,3.4,0.4,6.7,1.2,10
		c0.6,2.4,1.8,4.5,3.6,6.3C455.5,1571.1,457.6,1571.9,459.8,1571.9z"/>
	<path d="M485.5,1555.9v-3.5l28.5-14.5v5.7l-21.8,10.5v0.2l21.8,10.5v5.7L485.5,1555.9z"/>
	<path d="M539.1,1576.7c-2.4,0-4.8-0.5-7-1.6c-2-0.9-3.7-2.4-5-4.2c-1.3-1.8-2-3.9-2.1-6.1h5.3c0.2,2,1.2,3.8,2.8,5.1
		c3.2,2.4,7.5,2.7,10.9,0.7c1.4-0.9,2.6-2.1,3.5-3.6c0.8-1.6,1.3-3.4,1.2-5.2c0-1.9-0.4-3.7-1.3-5.3c-0.8-1.5-2-2.8-3.5-3.7
		c-1.6-0.9-3.4-1.4-5.2-1.4c-1.4,0-2.8,0.2-4.1,0.6c-1.3,0.3-2.5,0.9-3.6,1.7l-5.2-0.6l2.7-22.3h23.5v4.6h-18.9l-1.6,13.4h0.2
		c1-0.8,2.2-1.4,3.5-1.8c1.4-0.5,2.9-0.8,4.4-0.8c2.6,0,5.2,0.7,7.4,2c2.2,1.3,4,3.2,5.1,5.4c1.3,2.4,1.9,5.1,1.9,7.8
		c0,2.7-0.7,5.4-2,7.8c-1.3,2.2-3.1,4.1-5.3,5.3C544.5,1576,541.8,1576.7,539.1,1576.7z"/>
	<path d="M577.6,1576.7c-3,0-5.9-0.9-8.3-2.7c-2.5-2.1-4.4-4.8-5.4-7.9c-2.5-8.2-2.5-17,0-25.2c1-3.1,2.9-5.9,5.4-8
		c5.1-3.7,11.9-3.7,17,0c2.5,2.1,4.4,4.9,5.4,8c2.5,8.2,2.5,17,0,25.2c-1,3.1-2.9,5.8-5.4,7.9
		C583.8,1575.9,580.7,1576.9,577.6,1576.7z M577.6,1571.9c3.3,0,6.3-1.9,7.7-4.8c2.1-4.2,3-8.9,2.7-13.6c0.1-3.4-0.3-6.7-1.2-10
		c-0.6-2.4-1.9-4.5-3.6-6.3c-1.5-1.4-3.5-2.2-5.6-2.2c-3.3,0-6.3,1.9-7.7,4.8c-2.1,4.2-3,8.9-2.8,13.7c-0.1,3.4,0.4,6.7,1.2,10
		c0.6,2.4,1.9,4.5,3.6,6.3C573.5,1571.1,575.5,1571.9,577.6,1571.9z"/>
	<path d="M601.4,1587.2v-40.5h4.2v17.4c0,1.4,0.3,2.9,1,4.2c0.7,1.2,1.7,2.2,2.9,2.8c1.3,0.7,2.7,1,4.1,1c1.4,0,2.9-0.3,4.2-1
		c1.2-0.7,2.2-1.6,2.8-2.8c0.7-1.3,1-2.7,1-4.2v-17.4h4.5v29.4h-4v-4.4h-0.2c-0.7,1.5-1.9,2.7-3.3,3.6c-2.8,1.6-6.3,1.6-9.1,0
		c-1.4-0.8-2.6-2.1-3.3-3.6h-0.6v15.4H601.4z"/>
	<path d="M646.6,1587.7c-1.9,0.1-3.8-0.2-5.6-0.8c-1.4-0.5-2.7-1.2-3.9-2.2c-1-0.8-1.8-1.8-2.5-2.9l3.6-2.5c0.4,0.5,0.9,1.2,1.5,1.9
		c0.8,0.8,1.6,1.4,2.6,1.8c1.3,0.5,2.7,0.8,4.1,0.7c2.1,0.1,4.2-0.5,5.9-1.7c1.6-1.3,2.5-3.3,2.3-5.4v-6h-0.4
		c-0.4,0.7-0.9,1.3-1.4,1.9c-0.7,0.9-1.6,1.6-2.6,2.1c-1.4,0.7-3,1-4.6,0.9c-2.2,0-4.5-0.6-6.4-1.7c-1.9-1.2-3.5-2.9-4.5-4.9
		c-1.1-2.4-1.7-5.1-1.6-7.8c-0.1-2.7,0.5-5.4,1.6-7.9c1-2.1,2.5-3.9,4.4-5.2c1.9-1.3,4.2-1.9,6.6-1.9c1.6,0,3.1,0.3,4.6,1
		c1,0.5,1.9,1.3,2.6,2.2c0.6,0.8,1.1,1.5,1.4,2h0.5v-4.6h4.6v30.3c0.1,2.2-0.5,4.4-1.7,6.2c-1.1,1.6-2.7,2.8-4.6,3.5
		C651,1587.4,648.8,1587.8,646.6,1587.7z M646.6,1571.6c1.6,0,3.2-0.4,4.6-1.2c1.3-0.9,2.3-2.1,2.9-3.6c0.7-1.8,1-3.7,1-5.6
		c0-1.9-0.3-3.8-1-5.6c-0.6-1.5-1.6-2.8-2.9-3.8c-1.3-1-3-1.5-4.6-1.4c-1.7-0.1-3.4,0.5-4.8,1.4c-1.3,1.1-2.3,2.5-2.8,4.2
		c-0.7,1.7-1,3.6-1,5.4c0,1.8,0.3,3.7,1,5.4c0.6,1.5,1.6,2.8,2.9,3.7c1.4,0.8,3,1.2,4.6,1.1L646.6,1571.6z"/>
	<path d="M681.5,1535l-12.5,47h-4.2l12.7-47H681.5z"/>
	<path d="M686.9,1576.1v-29.4h4.2v4.6h0.4c0.6-1.5,1.6-2.8,3-3.7c1.5-0.9,3.2-1.4,4.9-1.3c1.7-0.1,3.4,0.4,4.9,1.3
		c1.3,0.9,2.4,2.2,3.1,3.7h0.2c0.8-1.5,1.9-2.8,3.4-3.6c1.6-0.9,3.5-1.4,5.4-1.4c2.4-0.1,4.7,0.8,6.5,2.5c1.8,2.1,2.7,4.9,2.5,7.6
		v19.7h-4.5v-19.8c0.2-1.7-0.5-3.5-1.8-4.6c-1.2-0.9-2.7-1.4-4.2-1.4c-1.8-0.1-3.5,0.6-4.8,1.9c-1.1,1.3-1.8,3-1.7,4.7v19.2h-4.6
		v-20.2c0.1-1.6-0.5-3.1-1.7-4.2c-1.1-1-2.6-1.6-4.1-1.5c-1.2,0-2.3,0.4-3.3,1c-1,0.6-1.9,1.5-2.5,2.6c-0.6,1.2-0.9,2.5-0.9,3.9
		v18.4L686.9,1576.1z"/>
	<path d="M739.7,1558.4c-1.3,0-2.7-0.2-3.9-0.7c-1.1-0.5-2-1.2-2.7-2.1c-0.7-0.9-1.1-2-1.1-3.2h2.8c0,0.7,0.3,1.4,0.8,1.9
		c0.5,0.6,1.1,1,1.7,1.2c1.6,0.6,3.4,0.5,5-0.1c0.7-0.3,1.4-0.8,1.8-1.5c0.5-0.6,0.7-1.4,0.7-2.1c0-0.8-0.2-1.5-0.6-2.2
		c-0.4-0.7-1.1-1.2-1.8-1.5c-0.9-0.4-1.9-0.6-2.9-0.5h-1.8v-2.4h1.8c0.8,0,1.6-0.2,2.4-0.5c0.7-0.3,1.2-0.8,1.6-1.4
		c0.4-0.6,0.6-1.3,0.6-2.1c0-0.7-0.2-1.4-0.5-2c-0.3-0.6-0.8-1-1.5-1.3c-0.7-0.3-1.4-0.5-2.2-0.5c-0.8,0-1.5,0.2-2.2,0.4
		c-0.7,0.3-1.2,0.7-1.7,1.2c-0.5,0.6-0.7,1.3-0.8,2h-2.6c0-1.1,0.4-2.2,1.1-3.2c0.7-0.9,1.6-1.6,2.7-2.1c1.2-0.5,2.4-0.8,3.7-0.8
		c1.3,0,2.5,0.3,3.6,0.9c1.9,1,3.1,3.1,3.2,5.3c0,1.2-0.3,2.3-1,3.3c-0.7,0.9-1.6,1.6-2.7,1.9l0,0c1.3,0.2,2.5,0.8,3.4,1.8
		c0.8,1,1.3,2.3,1.2,3.7c0,1.2-0.3,2.4-1,3.4c-0.7,1-1.6,1.8-2.7,2.3C742.5,1558.1,741.1,1558.4,739.7,1558.4z"/>
	<circle class="st7" cx="267.9" cy="1622.1" r="14.3"/>
	<path class="st7" d="M322,1645.8v-45.3h15.3c3-0.1,6,0.5,8.8,1.9c2.1,1.2,3.9,3,5,5.1c2.2,4.6,2.2,9.9,0,14.5c-1.1,2.2-2.8,4-5,5.2
		c-2.7,1.4-5.6,2-8.6,1.9h-11v-4.8h10.8c2,0.1,4-0.3,5.9-1.2c1.4-0.8,2.6-2,3.2-3.4c1.3-3.1,1.3-6.6,0-9.7c-0.7-1.5-1.8-2.6-3.2-3.4
		c-1.8-0.9-3.9-1.3-5.9-1.2h-9.6v40.4L322,1645.8z"/>
	<path class="st7" d="M361.5,1600.6h6.6l15.4,37.4h0.4l15.4-37.4h6.6v45.3h-5.1v-34.4h-0.2l-14.2,34.4h-5l-14.1-34.4h-0.4v34.4h-5.1
		L361.5,1600.6z"/>
	<path class="st7" d="M432,1600.6v45.3h-5.5v-39.6h-0.2l-11.1,7.3v-5.5l11.3-7.5L432,1600.6z"/>
	<path class="st7" d="M459.8,1646.5c-3,0-5.9-0.9-8.3-2.7c-2.5-2.1-4.3-4.8-5.4-7.9c-2.5-8.2-2.5-17,0-25.2c1-3.1,2.9-5.9,5.4-8
		c5.1-3.7,11.9-3.7,17,0c2.5,2.1,4.4,4.9,5.4,8c2.5,8.2,2.5,17,0,25.2c-1,3.1-2.9,5.9-5.4,7.9C466,1645.6,462.9,1646.6,459.8,1646.5
		z M459.8,1641.6c3.3,0,6.3-1.8,7.7-4.8c2.1-4.2,3-8.9,2.7-13.6c0.1-3.4-0.4-6.7-1.2-10c-0.6-2.4-1.9-4.6-3.6-6.3
		c-1.5-1.4-3.5-2.2-5.6-2.2c-3.3,0-6.3,1.8-7.6,4.8c-2.1,4.2-3,8.9-2.8,13.7c-0.1,3.4,0.3,6.7,1.2,10c0.6,2.4,1.8,4.5,3.6,6.3
		C455.7,1640.9,457.7,1641.6,459.8,1641.6z"/>
	<path class="st7" d="M514,1625.7l-28.5,14.5v-5.7l21.9-10.5v-0.2l-21.9-10.5v-5.7l28.5,14.5V1625.7z"/>
	<path class="st7" d="M539.1,1646.5c-2.4,0-4.8-0.5-7-1.6c-2-1-3.7-2.4-5-4.2c-1.2-1.8-1.9-3.9-2-6.1h5.3c0.2,2,1.2,3.8,2.8,5.1
		c1.7,1.3,3.8,2.1,6,2c3.5,0,6.6-1.9,8.3-4.9c0.8-1.6,1.3-3.4,1.2-5.2c0-1.9-0.4-3.7-1.3-5.3c-0.8-1.5-2.1-2.8-3.6-3.7
		c-1.6-0.9-3.3-1.4-5.1-1.4c-1.4,0-2.8,0.2-4.2,0.6c-1.3,0.4-2.5,0.9-3.6,1.7l-5.1-0.6l2.7-22.3h23.5v4.6h-18.9l-1.6,13.4h0.3
		c1-0.8,2.2-1.4,3.5-1.8c1.3-0.5,2.7-0.7,4.1-0.8c5.2,0,10,2.8,12.5,7.4c1.3,2.4,1.9,5.1,1.9,7.8c0,2.7-0.6,5.4-2,7.8
		c-1.3,2.2-3.1,4.1-5.3,5.3C544.4,1645.7,541.8,1646.4,539.1,1646.5z"/>
	<path class="st7" d="M577.6,1646.5c-3,0-5.9-0.9-8.3-2.7c-2.5-2.1-4.3-4.8-5.4-7.9c-2.5-8.2-2.5-17,0-25.2c1-3.1,2.9-5.9,5.4-8
		c5.1-3.7,11.9-3.7,17,0c2.5,2.1,4.4,4.9,5.4,8c2.5,8.2,2.5,17,0,25.2c-1,3.1-2.9,5.9-5.4,7.9
		C583.8,1645.6,580.7,1646.6,577.6,1646.5z M577.6,1641.6c3.3,0,6.3-1.8,7.7-4.8c2.1-4.2,3-8.9,2.7-13.6c0.1-3.4-0.3-6.7-1.2-10
		c-0.6-2.4-1.9-4.6-3.6-6.3c-1.5-1.4-3.5-2.2-5.6-2.2c-3.3,0-6.3,1.8-7.6,4.8c-2.1,4.2-3,8.9-2.8,13.7c-0.1,3.4,0.4,6.7,1.2,10
		c0.6,2.4,1.8,4.5,3.6,6.3C573.5,1640.9,575.5,1641.6,577.6,1641.6z"/>
	<path class="st7" d="M601.2,1656.9v-40.5h4.5v17.4c0,1.4,0.3,2.9,1,4.2c0.7,1.2,1.6,2.2,2.8,2.8c1.3,0.7,2.7,1,4.1,1
		c1.4,0,2.9-0.3,4.2-1c1.2-0.7,2.2-1.6,2.8-2.8c0.7-1.3,1-2.7,1-4.2v-17.4h4.5v29.4h-4.5v-4.4h-0.2c-0.7,1.5-1.9,2.7-3.3,3.6
		c-2.8,1.6-6.3,1.6-9.2,0c-1.4-0.8-2.6-2.1-3.3-3.6l0,0v15.4H601.2z"/>
	<path class="st7" d="M646.7,1657.5c-1.9,0.1-3.8-0.2-5.7-0.8c-1.4-0.5-2.7-1.2-3.9-2.2c-1-0.8-1.8-1.8-2.5-2.9l3.6-2.5
		c0.4,0.5,0.9,1.2,1.5,1.9c0.7,0.8,1.6,1.4,2.6,1.8c1.3,0.5,2.7,0.8,4.2,0.7c2.1,0.1,4.2-0.5,5.9-1.7c1.6-1.3,2.5-3.3,2.3-5.4v-6
		h-0.4c-0.4,0.7-0.9,1.3-1.4,1.9c-0.7,0.9-1.6,1.6-2.6,2.1c-1.4,0.7-3,1-4.6,0.9c-2.2,0-4.5-0.6-6.4-1.7c-1.9-1.2-3.5-2.9-4.4-4.9
		c-1.2-2.4-1.7-5.1-1.7-7.8c-0.1-2.7,0.5-5.4,1.6-7.9c0.9-2.1,2.5-3.9,4.4-5.2c2-1.3,4.2-1.9,6.6-1.9c1.6-0.1,3.1,0.3,4.6,1
		c1,0.5,1.9,1.3,2.6,2.2c0.6,0.8,1.1,1.4,1.4,2h0.5v-4.7h4.2v30.3c0.1,2.2-0.5,4.4-1.7,6.2c-1.1,1.6-2.8,2.8-4.6,3.5
		C650.7,1657.2,648.7,1657.5,646.7,1657.5z M646.7,1641.3c1.6,0,3.2-0.4,4.6-1.2c1.3-0.9,2.3-2.1,2.9-3.6c0.7-1.8,1-3.7,1-5.6
		c0.1-1.9-0.3-3.8-1-5.6c-0.6-1.5-1.5-2.8-2.8-3.8c-1.3-1-3-1.5-4.7-1.4c-1.7-0.1-3.4,0.5-4.8,1.4c-1.3,1.1-2.3,2.5-2.9,4.2
		c-0.7,1.7-1,3.6-1,5.4c0,1.8,0.3,3.7,1,5.4c0.6,1.5,1.6,2.8,2.9,3.7c1.4,0.8,3,1.2,4.6,1.1L646.7,1641.3z"/>
	<path class="st7" d="M681.5,1604.7l-12.7,47h-4.1l12.5-47H681.5z"/>
	<path class="st7" d="M686.9,1645.8v-29.4h4.4v4.6h0.4c0.6-1.5,1.6-2.8,2.9-3.7c1.5-0.9,3.2-1.4,4.9-1.3c1.7-0.1,3.4,0.4,4.9,1.3
		c1.3,0.9,2.4,2.2,3,3.7h0.2c0.8-1.5,1.9-2.8,3.4-3.6c1.7-1,3.6-1.4,5.5-1.4c2.4-0.1,4.7,0.8,6.4,2.5c1.9,2.1,2.8,4.9,2.5,7.6v19.7
		h-4.5V1626c0.2-1.7-0.5-3.5-1.8-4.7c-1.2-0.9-2.6-1.4-4.2-1.4c-1.8-0.1-3.6,0.6-4.8,1.9c-1.1,1.3-1.8,3-1.7,4.7v19.2h-4.5v-20.2
		c0.1-1.6-0.5-3.1-1.6-4.2c-1.1-1-2.6-1.6-4.1-1.5c-1.2,0-2.3,0.4-3.3,1c-1,0.6-1.9,1.5-2.5,2.6c-0.6,1.2-1,2.5-1,3.9v18.4
		L686.9,1645.8z"/>
	<path class="st7" d="M739.8,1627.2c-1.4,0.1-2.8-0.2-4.2-0.8c-1.1-0.4-2-1.2-2.7-2.1c-0.7-0.9-1.1-2-1.1-3.2h2.8
		c0.1,0.7,0.3,1.4,0.8,1.9c0.5,0.6,1.1,1,1.7,1.2c1.6,0.6,3.4,0.6,5,0c0.7-0.3,1.3-0.8,1.8-1.5c1.3-1.1,1.4-2.9,0.4-4.2
		c-0.4-0.7-1.1-1.2-1.8-1.5c-0.9-0.4-1.9-0.6-3-0.5h-1.8v-2.4h1.8c0.8,0,1.7-0.2,2.4-0.5c0.7-0.3,1.2-0.8,1.6-1.4
		c0.4-0.6,0.6-1.3,0.6-2.1c0-0.7-0.2-1.4-0.5-2c-0.3-0.6-0.8-1-1.5-1.3c-0.7-0.3-1.4-0.5-2.2-0.5c-0.8,0-1.5,0.2-2.2,0.5
		c-0.6,0.3-1.2,0.7-1.7,1.2c-0.4,0.6-0.7,1.3-0.7,2h-2.8c0-1.1,0.4-2.2,1.1-3.2c0.7-0.9,1.6-1.6,2.7-2.1c1.1-0.5,2.4-0.8,3.6-0.8
		c1.3,0,2.5,0.3,3.7,0.9c1,0.5,1.8,1.3,2.3,2.2c0.5,0.9,0.8,1.9,0.8,3c0,1.2-0.3,2.3-1,3.3c-0.7,0.9-1.6,1.6-2.7,1.9l0,0
		c1.3,0.2,2.5,0.8,3.4,1.8c0.8,1,1.2,2.3,1.2,3.7c0,1.2-0.3,2.4-1,3.4c-0.7,1-1.6,1.8-2.7,2.3C742.5,1627,741.2,1627.2,739.8,1627.2
		z"/>
	<g class="st8">
		
			<ellipse transform="matrix(1 -9.432686e-03 9.432686e-03 1 -15.9258 2.583)" class="st7" cx="265.9" cy="1689.6" rx="14.3" ry="14.3"/>
	</g>
	
		<ellipse transform="matrix(8.473616e-03 -1 1 8.473616e-03 -1425.9481 1941.1572)" class="st7" cx="265.9" cy="1689.6" rx="5.1" ry="5.1"/>
	<path d="M322,1708.2v-37.8h22.8v4.1h-18.2v12.8h17.1v4.1h-17.1v12.8h18.5v4.1L322,1708.2z"/>
	<path d="M375.7,1679.9l-10.5,28.4h-4.4l-10.5-28.4h4.7l7.8,22.6h0.3l7.8-22.6H375.7z"/>
	<path d="M392.3,1708.8c-2.5,0.1-4.9-0.6-7.1-1.8c-2-1.2-3.6-3-4.6-5.1c-1.1-2.4-1.6-5-1.6-7.6c-0.1-2.7,0.5-5.3,1.6-7.7
		c1-2.1,2.5-3.9,4.5-5.2c2-1.3,4.3-1.9,6.7-1.9c1.5,0,3,0.3,4.4,0.7c1.5,0.5,2.8,1.3,3.9,2.4c1.3,1.2,2.2,2.7,2.8,4.4
		c0.7,2.1,1.1,4.4,1,6.7v1.8h-21.8v-3.8h17.4c0-1.5-0.3-2.9-1-4.3c-0.6-1.2-1.5-2.3-2.7-3c-1.2-0.7-2.7-1.1-4.1-1.1
		c-1.6,0-3.2,0.4-4.5,1.3c-1.2,0.8-2.3,2-2.9,3.3c-0.7,1.4-1,2.9-1,4.4v2.5c-0.1,1.9,0.3,3.7,1.1,5.4c0.7,1.4,1.8,2.6,3.1,3.4
		c1.4,0.8,3,1.2,4.6,1.2c1.1,0,2.1-0.2,3.1-0.5c0.9-0.3,1.7-0.8,2.4-1.5c0.7-0.7,1.2-1.5,1.6-2.5l4.2,1.2c-0.4,1.4-1.2,2.7-2.2,3.8
		c-1.1,1.1-2.4,2-3.9,2.5C395.9,1708.5,394.1,1708.8,392.3,1708.8z"/>
	<path d="M415.1,1691.2v17.1h-4.4v-28.4h4.2v4.4h0.4c0.6-1.4,1.7-2.6,3-3.5c1.6-0.9,3.4-1.4,5.2-1.3c1.7,0,3.5,0.4,5,1.2
		c1.5,0.8,2.6,2,3.4,3.6c0.9,1.9,1.3,3.9,1.2,6v18h-4.4v-17.7c0.1-1.9-0.5-3.8-1.7-5.2c-1.2-1.3-3-2-4.8-1.9c-1.3,0-2.6,0.3-3.7,0.9
		c-1.1,0.6-2,1.5-2.6,2.6C415.3,1688.3,415,1689.7,415.1,1691.2z"/>
	<path d="M453.5,1679.9v3.7h-14.7v-3.7H453.5z M443,1673.1h4.4v27c-0.1,1,0.1,1.9,0.5,2.8c0.3,0.6,0.8,1,1.4,1.2
		c0.6,0.2,1.2,0.3,1.8,0.3c0.4,0,0.8,0,1.2-0.1l0.7-0.1l0.9,3.9c-0.4,0.1-0.8,0.3-1.2,0.3c-0.7,0.1-1.3,0.2-2,0.2
		c-1.2,0-2.5-0.3-3.6-0.8c-1.2-0.5-2.2-1.4-2.9-2.4c-0.8-1.2-1.2-2.6-1.1-4.1L443,1673.1z"/>
	<path d="M471.3,1708.8c-4.8,0.1-9.2-2.6-11.2-6.9c-1.1-2.4-1.7-5-1.6-7.7c-0.1-2.7,0.5-5.3,1.6-7.7c2.9-6.2,10.3-8.9,16.6-5.9
		c2.6,1.2,4.7,3.3,5.9,5.9c1.1,2.4,1.7,5.1,1.6,7.7c0.1,2.7-0.5,5.3-1.6,7.7C480.5,1706.2,476.1,1709,471.3,1708.8z M471.3,1704.9
		c1.7,0.1,3.4-0.5,4.8-1.5c1.3-1,2.2-2.4,2.8-3.9c0.6-1.7,0.9-3.5,0.9-5.3c0-1.8-0.3-3.6-0.9-5.3c-0.5-1.6-1.5-2.9-2.8-4
		c-2.9-2-6.7-2-9.6,0c-1.3,1-2.3,2.4-2.8,4c-0.6,1.7-0.9,3.5-0.9,5.3c0,1.8,0.3,3.6,0.9,5.3c0.5,1.5,1.5,2.9,2.8,3.9
		C467.9,1704.5,469.5,1705,471.3,1704.9L471.3,1704.9z"/>
</g>
</svg>
