<svg id="Livello_1" data-name="Livello 1" xmlns="http://www.w3.org/2000/svg" viewBox="0 0 1174.99 900"><defs><style>.cls-1{isolation:isolate;}.cls-2{fill:#efefef;}.cls-3{fill:#b8b8b8;}.cls-4{fill:#ff3a00;}.cls-5{opacity:0.2;}.cls-6{opacity:0.7;}.cls-7{fill:#fff;}</style></defs><g class="cls-1"><path d="M206.41,783.86V773h6.48v1.17h-5.17v3.65h4.69V779h-4.69v4.84Z"/><path d="M215.13,783.86V773h6.54v1.17h-5.22v3.65h4.88V779h-4.88v3.68h5.3v1.16Z"/><path d="M224,783.86V773h3.79a3.94,3.94,0,0,1,1.86.39,2.64,2.64,0,0,1,1.1,1,3,3,0,0,1,.36,1.45,2.45,2.45,0,0,1-.25,1.15,2,2,0,0,1-.64.72,2.84,2.84,0,0,1-.87.39v.11a2,2,0,0,1,1,.35,2.44,2.44,0,0,1,.84.9,2.85,2.85,0,0,1,.34,1.45,3,3,0,0,1-.37,1.47,2.64,2.64,0,0,1-1.17,1,4.89,4.89,0,0,1-2.08.38Zm1.31-6.07h2.43a2.44,2.44,0,0,0,1.07-.23,1.9,1.9,0,0,0,.77-.66,1.8,1.8,0,0,0,.28-1,1.65,1.65,0,0,0-.5-1.21,2.1,2.1,0,0,0-1.57-.5h-2.48Zm0,4.91h2.6a2.69,2.69,0,0,0,1.83-.5,1.61,1.61,0,0,0,.54-1.22,1.9,1.9,0,0,0-.28-1,2,2,0,0,0-.8-.76,2.59,2.59,0,0,0-1.22-.28h-2.67Z"/></g><g class="cls-1"><path d="M131.5,776.42a3.88,3.88,0,0,0-.46-1,2.88,2.88,0,0,0-1.55-1.19,3.71,3.71,0,0,0-1.08-.16,3.24,3.24,0,0,0-1.75.5,3.47,3.47,0,0,0-1.25,1.46,5.49,5.49,0,0,0-.46,2.38,5.33,5.33,0,0,0,.47,2.37,3.44,3.44,0,0,0,1.27,1.46,3.4,3.4,0,0,0,1.81.5,3.24,3.24,0,0,0,1.64-.4,2.87,2.87,0,0,0,1.11-1.13,3.62,3.62,0,0,0,.4-1.73l.4.09h-3.26v-1.16h4.13v1.16a4.53,4.53,0,0,1-.57,2.32,3.92,3.92,0,0,1-1.57,1.53,4.58,4.58,0,0,1-2.28.55,4.72,4.72,0,0,1-2.53-.68,4.6,4.6,0,0,1-1.69-1.92,6.8,6.8,0,0,1-.6-3,7.3,7.3,0,0,1,.34-2.32,5.25,5.25,0,0,1,1-1.75,4.32,4.32,0,0,1,1.5-1.11,4.71,4.71,0,0,1,1.9-.38,4.88,4.88,0,0,1,1.6.25,4.4,4.4,0,0,1,1.33.73,4.13,4.13,0,0,1,1,1.11,4.3,4.3,0,0,1,.54,1.44Z"/><path d="M135.16,783.86V773h6.53v1.17h-5.22v3.65h4.88V779h-4.88v3.68h5.3v1.16Z"/><path d="M152.64,773v10.83h-1.27l-5.9-8.5h-.1v8.5h-1.32V773h1.27l5.92,8.52h.11V773Z"/></g><g class="cls-1"><path d="M284.21,773h1.57l3.68,9h.12l3.68-9h1.57v10.83H293.6v-8.23h-.11l-3.38,8.23h-1.18l-3.38-8.23h-.11v8.23h-1.23Z"/><path d="M297.89,783.86h-1.37l4-10.83h1.35l4,10.83h-1.38l-3.23-9.11h-.09Zm.51-4.23h5.53v1.16H298.4Z"/><path d="M307.51,783.86V773h3.65a4.44,4.44,0,0,1,2.09.44,2.74,2.74,0,0,1,1.2,1.18,3.64,3.64,0,0,1,.39,1.7,3.58,3.58,0,0,1-.39,1.7,2.75,2.75,0,0,1-1.2,1.16,4.48,4.48,0,0,1-2.07.42h-2.95v-1.18h2.91a3.24,3.24,0,0,0,1.4-.26,1.64,1.64,0,0,0,.77-.72,2.41,2.41,0,0,0,.24-1.12,2.51,2.51,0,0,0-.24-1.13,1.65,1.65,0,0,0-.78-.76,3.26,3.26,0,0,0-1.41-.26h-2.3v9.66ZM312.6,779l2.66,4.86h-1.52L311.12,779Z"/></g><g class="cls-1"><path d="M369.78,783.86H368.4l4-10.83h1.35l4,10.83h-1.37l-3.24-9.11H373Zm.5-4.23h5.54v1.16h-5.54Z"/><path d="M379.39,783.86V773h3.66a4.24,4.24,0,0,1,2.08.46,3,3,0,0,1,1.21,1.24,3.76,3.76,0,0,1,.39,1.73,3.84,3.84,0,0,1-.39,1.74,2.92,2.92,0,0,1-1.2,1.24,4.12,4.12,0,0,1-2.07.46h-2.62v-1.16H383a2.82,2.82,0,0,0,1.4-.3,1.79,1.79,0,0,0,.77-.82,2.92,2.92,0,0,0,0-2.32,1.74,1.74,0,0,0-.78-.81,3,3,0,0,0-1.41-.29H380.7v9.66Z"/><path d="M388.84,783.86V773h3.66a4.39,4.39,0,0,1,2.08.44,2.74,2.74,0,0,1,1.2,1.18,3.53,3.53,0,0,1,.4,1.7,3.47,3.47,0,0,1-.4,1.7,2.78,2.78,0,0,1-1.19,1.16,4.48,4.48,0,0,1-2.07.42h-3v-1.18h2.92a3.22,3.22,0,0,0,1.39-.26,1.62,1.62,0,0,0,.78-.72,2.71,2.71,0,0,0,0-2.25,1.67,1.67,0,0,0-.77-.76,3.32,3.32,0,0,0-1.41-.26h-2.31v9.66Zm5.09-4.86,2.67,4.86h-1.52L392.46,779Z"/></g><g class="cls-1"><path d="M449.81,773h1.56l3.68,9h.13l3.67-9h1.57v10.83h-1.23v-8.23h-.1l-3.39,8.23h-1.18l-3.38-8.23H451v8.23h-1.22Z"/><path d="M463.48,783.86h-1.37l4-10.83h1.35l4,10.83H470l-3.24-9.11h-.08Zm.51-4.23h5.54v1.16H464Z"/><path d="M480,776.42a3.88,3.88,0,0,0-.46-1,2.88,2.88,0,0,0-1.55-1.19,3.59,3.59,0,0,0-1.07-.16,3.19,3.19,0,0,0-1.75.5,3.42,3.42,0,0,0-1.26,1.46,5.49,5.49,0,0,0-.46,2.38,5.33,5.33,0,0,0,.47,2.37,3.44,3.44,0,0,0,1.27,1.46,3.4,3.4,0,0,0,1.81.5,3.24,3.24,0,0,0,1.64-.4,2.87,2.87,0,0,0,1.11-1.13,3.51,3.51,0,0,0,.4-1.73l.4.09h-3.25v-1.16h4.12v1.16a4.53,4.53,0,0,1-.57,2.32,3.92,3.92,0,0,1-1.57,1.53A4.58,4.58,0,0,1,477,784a4.66,4.66,0,0,1-2.52-.68,4.55,4.55,0,0,1-1.7-1.92,6.8,6.8,0,0,1-.6-3,7.29,7.29,0,0,1,.35-2.32,5.06,5.06,0,0,1,1-1.75,4.32,4.32,0,0,1,1.5-1.11,4.75,4.75,0,0,1,1.91-.38,4.82,4.82,0,0,1,1.59.25,4.4,4.4,0,0,1,1.33.73,4.13,4.13,0,0,1,1,1.11,3.91,3.91,0,0,1,.54,1.44Z"/></g><g class="cls-1"><path d="M544.52,776.42a3.54,3.54,0,0,0-.45-1,2.93,2.93,0,0,0-.67-.73,3.08,3.08,0,0,0-.88-.46,3.71,3.71,0,0,0-1.08-.16,3.24,3.24,0,0,0-1.75.5,3.47,3.47,0,0,0-1.25,1.46,6.24,6.24,0,0,0,0,4.75,3.46,3.46,0,0,0,1.28,1.46,3.34,3.34,0,0,0,1.8.5,3.24,3.24,0,0,0,1.64-.4,2.75,2.75,0,0,0,1.11-1.13,3.51,3.51,0,0,0,.4-1.73l.41.09h-3.26v-1.16h4.12v1.16a4.53,4.53,0,0,1-.57,2.32,4,4,0,0,1-1.56,1.53,4.62,4.62,0,0,1-2.29.55,4.68,4.68,0,0,1-2.52-.68,4.53,4.53,0,0,1-1.69-1.92,6.8,6.8,0,0,1-.61-3,7.29,7.29,0,0,1,.35-2.32,5.23,5.23,0,0,1,1-1.75,4.32,4.32,0,0,1,1.5-1.11,4.79,4.79,0,0,1,1.91-.38,4.92,4.92,0,0,1,1.6.25,4.47,4.47,0,0,1,1.32.73,4.17,4.17,0,0,1,1,1.11,4.3,4.3,0,0,1,.54,1.44Z"/><path d="M549.49,773v10.83h-1.31V773Z"/><path d="M559.22,773h1.31v7.17a3.85,3.85,0,0,1-.52,2,3.67,3.67,0,0,1-1.47,1.37,5.18,5.18,0,0,1-4.44,0,3.67,3.67,0,0,1-1.47-1.37,3.85,3.85,0,0,1-.52-2V773h1.31v7.06a2.83,2.83,0,0,0,.35,1.41,2.52,2.52,0,0,0,1,1,3.61,3.61,0,0,0,3.1,0,2.4,2.4,0,0,0,1-1,2.83,2.83,0,0,0,.35-1.41Z"/></g><g class="cls-1"><path d="M618.26,783.86V773h1.31v9.67h5v1.16Z"/><path d="M633.73,773H635v7.17a3.75,3.75,0,0,1-.52,2,3.67,3.67,0,0,1-1.47,1.37,5.18,5.18,0,0,1-4.44,0,3.58,3.58,0,0,1-1.46-1.37,3.75,3.75,0,0,1-.52-2V773h1.31v7.06a2.73,2.73,0,0,0,.35,1.41,2.43,2.43,0,0,0,1,1,3.25,3.25,0,0,0,1.55.35,3.3,3.3,0,0,0,1.56-.35,2.43,2.43,0,0,0,1-1,2.83,2.83,0,0,0,.35-1.41Z"/><path d="M645.06,776.42a3.88,3.88,0,0,0-.46-1,2.88,2.88,0,0,0-1.55-1.19,3.71,3.71,0,0,0-1.08-.16,3.24,3.24,0,0,0-1.75.5,3.47,3.47,0,0,0-1.25,1.46,5.49,5.49,0,0,0-.46,2.38,5.33,5.33,0,0,0,.47,2.37,3.3,3.3,0,0,0,3.08,2,3.27,3.27,0,0,0,1.64-.4,2.87,2.87,0,0,0,1.11-1.13,3.62,3.62,0,0,0,.4-1.73l.4.09h-3.26v-1.16h4.12v1.16a4.53,4.53,0,0,1-.56,2.32,3.92,3.92,0,0,1-1.57,1.53,4.58,4.58,0,0,1-2.28.55,4.72,4.72,0,0,1-2.53-.68,4.6,4.6,0,0,1-1.69-1.92,6.8,6.8,0,0,1-.6-3,7.3,7.3,0,0,1,.34-2.32,5.23,5.23,0,0,1,1-1.75,4.45,4.45,0,0,1,1.51-1.11,4.71,4.71,0,0,1,1.9-.38,4.88,4.88,0,0,1,1.6.25,4.4,4.4,0,0,1,1.33.73,4.13,4.13,0,0,1,1,1.11,4.3,4.3,0,0,1,.54,1.44Z"/></g><g class="cls-1"><path d="M702.06,783.86h-1.38l4-10.83H706l4,10.83h-1.37l-3.23-9.11h-.09Zm.51-4.23h5.53v1.16h-5.53Z"/><path d="M718.57,776.42a3.88,3.88,0,0,0-.46-1,2.88,2.88,0,0,0-1.55-1.19,3.71,3.71,0,0,0-1.08-.16,3.24,3.24,0,0,0-1.75.5,3.47,3.47,0,0,0-1.25,1.46,6.24,6.24,0,0,0,0,4.75,3.46,3.46,0,0,0,1.28,1.46,3.37,3.37,0,0,0,1.81.5,3.29,3.29,0,0,0,1.64-.4,2.87,2.87,0,0,0,1.11-1.13,3.62,3.62,0,0,0,.39-1.73l.41.09h-3.26v-1.16H720v1.16a4.63,4.63,0,0,1-.56,2.32,4,4,0,0,1-1.57,1.53,4.61,4.61,0,0,1-2.28.55,4.72,4.72,0,0,1-2.53-.68,4.53,4.53,0,0,1-1.69-1.92,6.8,6.8,0,0,1-.6-3,7.3,7.3,0,0,1,.34-2.32,5.23,5.23,0,0,1,1-1.75,4.51,4.51,0,0,1,1.5-1.11,4.79,4.79,0,0,1,1.91-.38,4.92,4.92,0,0,1,1.6.25,4.52,4.52,0,0,1,1.33.73,4.21,4.21,0,0,1,1.51,2.55Z"/><path d="M731.35,778.45a6.66,6.66,0,0,1-.61,3,4.69,4.69,0,0,1-1.7,1.92,4.81,4.81,0,0,1-4.93,0,4.67,4.67,0,0,1-1.69-1.92,7.38,7.38,0,0,1,0-5.92,4.69,4.69,0,0,1,1.69-1.93,4.87,4.87,0,0,1,4.93,0,4.72,4.72,0,0,1,1.7,1.93A6.6,6.6,0,0,1,731.35,778.45Zm-1.26,0a5.49,5.49,0,0,0-.47-2.38,3.38,3.38,0,0,0-1.27-1.46,3.26,3.26,0,0,0-1.77-.5,3.29,3.29,0,0,0-1.78.5,3.42,3.42,0,0,0-1.26,1.46,6.24,6.24,0,0,0,0,4.75,3.42,3.42,0,0,0,1.26,1.46,3.29,3.29,0,0,0,1.78.5,3.26,3.26,0,0,0,1.77-.5,3.38,3.38,0,0,0,1.27-1.46A5.47,5.47,0,0,0,730.09,778.45Z"/></g><g class="cls-1"><path d="M792.86,775.74a1.65,1.65,0,0,0-.77-1.25,3,3,0,0,0-1.66-.44,3.26,3.26,0,0,0-1.26.23,2.08,2.08,0,0,0-.83.64,1.52,1.52,0,0,0-.3.93,1.29,1.29,0,0,0,.21.74,1.76,1.76,0,0,0,.54.51,2.85,2.85,0,0,0,.68.33,6.14,6.14,0,0,0,.66.21l1.1.3c.28.07.6.18.94.3a4.62,4.62,0,0,1,1,.54,2.61,2.61,0,0,1,.79.86,2.41,2.41,0,0,1,.32,1.28,2.89,2.89,0,0,1-.46,1.58,3.16,3.16,0,0,1-1.33,1.13,4.89,4.89,0,0,1-2.12.42,5,5,0,0,1-2-.38,3.25,3.25,0,0,1-1.33-1,3,3,0,0,1-.54-1.56h1.35a1.65,1.65,0,0,0,.41,1,2.21,2.21,0,0,0,.92.59,3.61,3.61,0,0,0,1.21.19,3.56,3.56,0,0,0,1.34-.24,2.28,2.28,0,0,0,.95-.69,1.62,1.62,0,0,0,.35-1,1.29,1.29,0,0,0-.3-.88,2.27,2.27,0,0,0-.8-.55,8.74,8.74,0,0,0-1.06-.37l-1.33-.38a5,5,0,0,1-2-1,2.29,2.29,0,0,1-.74-1.77,2.62,2.62,0,0,1,.5-1.59,3.29,3.29,0,0,1,1.33-1.06,4.52,4.52,0,0,1,1.87-.37,4.38,4.38,0,0,1,1.86.37,3.3,3.3,0,0,1,1.29,1,2.53,2.53,0,0,1,.51,1.46Z"/><path d="M796.43,783.86V773H803v1.17h-5.22v3.65h4.88V779h-4.88v3.68h5.31v1.16Z"/><path d="M804.74,774.2V773h8.11v1.17h-3.4v9.66h-1.31V774.2Z"/></g><g class="cls-1"><path d="M878.81,778.45a6.66,6.66,0,0,1-.62,3,4.67,4.67,0,0,1-1.69,1.92,4.81,4.81,0,0,1-4.93,0,4.69,4.69,0,0,1-1.7-1.92,7.49,7.49,0,0,1,0-5.92,4.72,4.72,0,0,1,1.7-1.93,4.87,4.87,0,0,1,4.93,0,4.69,4.69,0,0,1,1.69,1.93A6.6,6.6,0,0,1,878.81,778.45Zm-1.27,0a5.49,5.49,0,0,0-.46-2.38,3.51,3.51,0,0,0-1.27-1.46,3.4,3.4,0,0,0-3.55,0,3.44,3.44,0,0,0-1.27,1.46,6.24,6.24,0,0,0,0,4.75,3.44,3.44,0,0,0,1.27,1.46,3.4,3.4,0,0,0,3.55,0,3.51,3.51,0,0,0,1.27-1.46A5.48,5.48,0,0,0,877.54,778.45Z"/><path d="M880,774.2V773h8.12v1.17h-3.4v9.66h-1.31V774.2Z"/><path d="M889.53,774.2V773h8.11v1.17h-3.4v9.66h-1.31V774.2Z"/></g><g class="cls-1"><path d="M959.92,773v10.83h-1.26l-5.9-8.5h-.11v8.5h-1.31V773h1.27l5.92,8.52h.11V773Z"/><path d="M971.68,778.45a6.66,6.66,0,0,1-.62,3,4.62,4.62,0,0,1-1.7,1.92,4.79,4.79,0,0,1-4.92,0,4.62,4.62,0,0,1-1.7-1.92,7.38,7.38,0,0,1,0-5.92,4.65,4.65,0,0,1,1.7-1.93,4.85,4.85,0,0,1,4.92,0,4.65,4.65,0,0,1,1.7,1.93A6.6,6.6,0,0,1,971.68,778.45Zm-1.27,0a5.49,5.49,0,0,0-.47-2.38,3.42,3.42,0,0,0-1.26-1.46,3.42,3.42,0,0,0-3.56,0,3.42,3.42,0,0,0-1.26,1.46,6.24,6.24,0,0,0,0,4.75,3.42,3.42,0,0,0,1.26,1.46,3.42,3.42,0,0,0,3.56,0,3.42,3.42,0,0,0,1.26-1.46A5.47,5.47,0,0,0,970.41,778.45Z"/><path d="M973.81,773l3.22,9.12h.12l3.22-9.12h1.37l-4,10.83h-1.35l-4-10.83Z"/></g><g class="cls-1"><path d="M1039.51,783.86h-3.34V773h3.49a5.28,5.28,0,0,1,2.69.65,4.25,4.25,0,0,1,1.72,1.86,6.38,6.38,0,0,1,.6,2.88,6.51,6.51,0,0,1-.6,2.91,4.25,4.25,0,0,1-1.76,1.87A5.55,5.55,0,0,1,1039.51,783.86Zm-2-1.16h2a4.39,4.39,0,0,0,2.22-.52,3.22,3.22,0,0,0,1.32-1.48,5.43,5.43,0,0,0,.43-2.28,5.35,5.35,0,0,0-.43-2.25,3.1,3.1,0,0,0-1.28-1.46,4,4,0,0,0-2.12-.51h-2.09Z"/><path d="M1048.18,773v10.83h-1.31V773Z"/><path d="M1059.51,776.42h-1.31a2.89,2.89,0,0,0-.41-1,2.82,2.82,0,0,0-.7-.72,3.14,3.14,0,0,0-.9-.44,3.58,3.58,0,0,0-1-.15,3.32,3.32,0,0,0-1.78.5,3.42,3.42,0,0,0-1.26,1.46,6.24,6.24,0,0,0,0,4.75,3.42,3.42,0,0,0,1.26,1.46,3.32,3.32,0,0,0,1.78.5,3.58,3.58,0,0,0,1-.15,2.9,2.9,0,0,0,.9-.44,2.82,2.82,0,0,0,.7-.72,2.92,2.92,0,0,0,.41-1h1.31A4.43,4.43,0,0,1,1059,782a4,4,0,0,1-1,1.11,4.24,4.24,0,0,1-1.31.7,4.82,4.82,0,0,1-1.54.24,4.55,4.55,0,0,1-2.46-.68,4.69,4.69,0,0,1-1.7-1.92,7.49,7.49,0,0,1,0-5.92,4.72,4.72,0,0,1,1.7-1.93,4.54,4.54,0,0,1,2.46-.67,5.12,5.12,0,0,1,1.54.23,4.46,4.46,0,0,1,1.31.7,4,4,0,0,1,1,1.11A4.33,4.33,0,0,1,1059.51,776.42Z"/></g><g class="cls-1"><path d="M71.9,766.07a3.2,3.2,0,0,1-2-.66,4,4,0,0,1-1.28-1.89,10.26,10.26,0,0,1,0-6,4.07,4.07,0,0,1,1.29-1.9,3.44,3.44,0,0,1,4,0,4.07,4.07,0,0,1,1.29,1.9,10.26,10.26,0,0,1,0,6,4,4,0,0,1-1.28,1.89A3.19,3.19,0,0,1,71.9,766.07Zm0-1.17a2,2,0,0,0,1.83-1.14,6.55,6.55,0,0,0,.66-3.25,8.36,8.36,0,0,0-.3-2.4,3.2,3.2,0,0,0-.86-1.5,1.86,1.86,0,0,0-1.33-.52,2,2,0,0,0-1.84,1.15,6.66,6.66,0,0,0-.66,3.27,8.33,8.33,0,0,0,.3,2.39,3.2,3.2,0,0,0,.85,1.49A1.92,1.92,0,0,0,71.9,764.9Z"/></g><g class="cls-1"><path d="M65.26,696.81v10.82H64v-9.44h-.07l-2.64,1.75v-1.33l2.71-1.8Z"/><path d="M71.9,707.78a3.19,3.19,0,0,1-2-.65,4,4,0,0,1-1.28-1.9,10.26,10.26,0,0,1,0-6,4.17,4.17,0,0,1,1.29-1.9,3.44,3.44,0,0,1,4,0,4.17,4.17,0,0,1,1.29,1.9,10.26,10.26,0,0,1,0,6,4,4,0,0,1-1.28,1.9A3.19,3.19,0,0,1,71.9,707.78Zm0-1.16a2,2,0,0,0,1.83-1.14,6.59,6.59,0,0,0,.66-3.26,8.33,8.33,0,0,0-.3-2.39,3.29,3.29,0,0,0-.86-1.51,1.89,1.89,0,0,0-1.33-.51A2,2,0,0,0,70.06,699a6.64,6.64,0,0,0-.66,3.26,8.23,8.23,0,0,0,.3,2.39,3.19,3.19,0,0,0,.85,1.5A1.92,1.92,0,0,0,71.9,706.62Z"/></g><g class="cls-1"><path d="M59.36,649.35v-1l3.57-3.91c.42-.46.77-.86,1-1.2a4.38,4.38,0,0,0,.6-1,2.19,2.19,0,0,0,.2-1,1.73,1.73,0,0,0-.27-1,1.8,1.8,0,0,0-.74-.65,2.46,2.46,0,0,0-1.06-.23,2.22,2.22,0,0,0-1.09.26,1.82,1.82,0,0,0-.71.72,2.16,2.16,0,0,0-.25,1.08H59.4a3.13,3.13,0,0,1,.44-1.67,3,3,0,0,1,1.2-1.13,3.64,3.64,0,0,1,1.7-.4,3.55,3.55,0,0,1,1.69.4,3,3,0,0,1,1.15,1.09,2.82,2.82,0,0,1,.42,1.51,3.15,3.15,0,0,1-.22,1.17,5,5,0,0,1-.74,1.26,21.75,21.75,0,0,1-1.45,1.7l-2.43,2.6v.08h5v1.16Z"/><path d="M71.89,649.5a3.24,3.24,0,0,1-2-.65,4,4,0,0,1-1.28-1.9,10.26,10.26,0,0,1,0-6,4.12,4.12,0,0,1,1.29-1.9,3.44,3.44,0,0,1,4,0,4.12,4.12,0,0,1,1.29,1.9,10.26,10.26,0,0,1,0,6,4,4,0,0,1-1.28,1.9A3.25,3.25,0,0,1,71.89,649.5Zm0-1.16a2,2,0,0,0,1.84-1.14,6.59,6.59,0,0,0,.66-3.26,8.28,8.28,0,0,0-.3-2.39,3.29,3.29,0,0,0-.86-1.51,1.91,1.91,0,0,0-1.34-.52,2,2,0,0,0-1.83,1.16,6.64,6.64,0,0,0-.66,3.26,8.23,8.23,0,0,0,.3,2.39,3.24,3.24,0,0,0,.85,1.5A1.92,1.92,0,0,0,71.89,648.34Z"/></g><g class="cls-1"><path d="M62.55,591.22a4.57,4.57,0,0,1-1.86-.36,3.19,3.19,0,0,1-1.29-1,2.61,2.61,0,0,1-.52-1.49h1.33a1.49,1.49,0,0,0,.36.9,2,2,0,0,0,.83.58,3,3,0,0,0,1.13.21,3,3,0,0,0,1.24-.25,2,2,0,0,0,.84-.67,1.68,1.68,0,0,0,.31-1,1.85,1.85,0,0,0-.3-1,1.87,1.87,0,0,0-.86-.72,3.43,3.43,0,0,0-1.4-.26H61.5v-1.16h.86a2.73,2.73,0,0,0,1.14-.23,1.89,1.89,0,0,0,.76-.66,1.72,1.72,0,0,0,.28-1,1.85,1.85,0,0,0-.24-1,1.68,1.68,0,0,0-.69-.63,2.25,2.25,0,0,0-1-.23,2.66,2.66,0,0,0-1,.21,2,2,0,0,0-.81.58,1.54,1.54,0,0,0-.33.92H59.11a2.6,2.6,0,0,1,.51-1.49,3.21,3.21,0,0,1,1.26-1,4,4,0,0,1,1.71-.36,3.48,3.48,0,0,1,1.73.4,2.83,2.83,0,0,1,1.1,1.07,2.77,2.77,0,0,1,.39,1.43,2.51,2.51,0,0,1-.48,1.55,2.48,2.48,0,0,1-1.3.9v.08a2.51,2.51,0,0,1,1.6.87,2.62,2.62,0,0,1,.58,1.73,2.71,2.71,0,0,1-.48,1.58,3.29,3.29,0,0,1-1.3,1.11A4.36,4.36,0,0,1,62.55,591.22Z"/><path d="M71.9,591.22a3.25,3.25,0,0,1-2-.65,4,4,0,0,1-1.28-1.9,10.26,10.26,0,0,1,0-6,4.12,4.12,0,0,1,1.29-1.9,3.44,3.44,0,0,1,4,0,4.12,4.12,0,0,1,1.29,1.9,10.26,10.26,0,0,1,0,6,4,4,0,0,1-1.28,1.9A3.24,3.24,0,0,1,71.9,591.22Zm0-1.16a2,2,0,0,0,1.83-1.15,6.55,6.55,0,0,0,.66-3.25,8.23,8.23,0,0,0-.3-2.39,3.24,3.24,0,0,0-.86-1.51,1.86,1.86,0,0,0-1.33-.52,2,2,0,0,0-1.84,1.16,6.62,6.62,0,0,0-.66,3.26,8.28,8.28,0,0,0,.3,2.39,3.2,3.2,0,0,0,.85,1.49A1.93,1.93,0,0,0,71.9,590.06Z"/></g><g class="cls-1"><path d="M58.56,530.57v-1.08L63.31,522h.78v1.67h-.52L60,529.32v.09h6.41v1.16Zm5.09,2.22V522H64.9v10.82Z"/><path d="M71.89,532.94a3.19,3.19,0,0,1-2-.66,4,4,0,0,1-1.28-1.89,10.26,10.26,0,0,1,0-6,4.07,4.07,0,0,1,1.29-1.9,3.44,3.44,0,0,1,4,0,4.07,4.07,0,0,1,1.29,1.9,10.26,10.26,0,0,1,0,6,4,4,0,0,1-1.28,1.89A3.2,3.2,0,0,1,71.89,532.94Zm0-1.17a2,2,0,0,0,1.84-1.14,6.55,6.55,0,0,0,.66-3.25,8.36,8.36,0,0,0-.3-2.4,3.25,3.25,0,0,0-.86-1.5,1.86,1.86,0,0,0-1.34-.52,2,2,0,0,0-1.83,1.16,6.59,6.59,0,0,0-.66,3.26,8.28,8.28,0,0,0,.3,2.39,3.2,3.2,0,0,0,.85,1.49A1.92,1.92,0,0,0,71.89,531.77Z"/></g><g class="cls-1"><path d="M62.7,474.66a3.76,3.76,0,0,1-1.67-.37,3.15,3.15,0,0,1-1.2-1,2.78,2.78,0,0,1-.49-1.47h1.27a1.69,1.69,0,0,0,.67,1.21,2.18,2.18,0,0,0,1.42.48,2.21,2.21,0,0,0,2-1.17,2.53,2.53,0,0,0,.3-1.24,2.61,2.61,0,0,0-.31-1.26,2.34,2.34,0,0,0-2.08-1.21,3.71,3.71,0,0,0-1,.15,3,3,0,0,0-.86.4L59.51,469l.65-5.32h5.63v1.16H61.26L60.88,468H61a2.83,2.83,0,0,1,.83-.44,3.39,3.39,0,0,1,1-.17,3.3,3.3,0,0,1,1.77.47,3.39,3.39,0,0,1,1.23,1.29,3.94,3.94,0,0,1,.44,1.87,3.65,3.65,0,0,1-.46,1.85,3.39,3.39,0,0,1-1.27,1.28A3.62,3.62,0,0,1,62.7,474.66Z"/><path d="M71.9,474.66a3.2,3.2,0,0,1-2-.66,4,4,0,0,1-1.28-1.89,10.26,10.26,0,0,1,0-6,4.07,4.07,0,0,1,1.29-1.9,3.44,3.44,0,0,1,4,0,4.07,4.07,0,0,1,1.29,1.9,10.26,10.26,0,0,1,0,6A4,4,0,0,1,73.93,474,3.19,3.19,0,0,1,71.9,474.66Zm0-1.17a2,2,0,0,0,1.83-1.14,6.55,6.55,0,0,0,.66-3.25,8.36,8.36,0,0,0-.3-2.4,3.28,3.28,0,0,0-.85-1.5,1.9,1.9,0,0,0-1.34-.52,2,2,0,0,0-1.84,1.15,6.66,6.66,0,0,0-.66,3.27,8.33,8.33,0,0,0,.3,2.39,3.2,3.2,0,0,0,.85,1.49A1.92,1.92,0,0,0,71.9,473.49Z"/></g><g class="cls-1"><path d="M62.68,416.37a3.91,3.91,0,0,1-1.33-.25,3.21,3.21,0,0,1-1.22-.82,4.28,4.28,0,0,1-.88-1.57,8,8,0,0,1-.33-2.49,10.84,10.84,0,0,1,.27-2.55,5.88,5.88,0,0,1,.78-1.88,3.51,3.51,0,0,1,1.24-1.16,3.4,3.4,0,0,1,1.64-.39,3.54,3.54,0,0,1,1.62.36,3.21,3.21,0,0,1,1.16,1,3.55,3.55,0,0,1,.58,1.49H64.92a2.34,2.34,0,0,0-.7-1.21,1.92,1.92,0,0,0-1.37-.48,2.25,2.25,0,0,0-2,1.09,5.66,5.66,0,0,0-.73,3.07h.09a3.22,3.22,0,0,1,.7-.77,3.48,3.48,0,0,1,.91-.49,3,3,0,0,1,1-.17,3.21,3.21,0,0,1,1.7.46,3.44,3.44,0,0,1,1.24,1.27,3.67,3.67,0,0,1,.46,1.86,3.83,3.83,0,0,1-.45,1.84,3.37,3.37,0,0,1-1.25,1.32A3.61,3.61,0,0,1,62.68,416.37Zm0-1.16a2.26,2.26,0,0,0,1.2-.33,2.48,2.48,0,0,0,.84-.89,2.63,2.63,0,0,0,.31-1.25,2.48,2.48,0,0,0-.3-1.22,2.24,2.24,0,0,0-.82-.88,2.17,2.17,0,0,0-1.19-.33,2.1,2.1,0,0,0-.93.2,2.4,2.4,0,0,0-.76.54,2.51,2.51,0,0,0-.7,1.71,2.39,2.39,0,0,0,.31,1.2,2.43,2.43,0,0,0,.83.91A2.19,2.19,0,0,0,62.68,415.21Z"/><path d="M71.9,416.37a3.19,3.19,0,0,1-2-.65,4,4,0,0,1-1.28-1.89,9,9,0,0,1-.45-3,8.86,8.86,0,0,1,.45-3,4.15,4.15,0,0,1,1.29-1.91,3.48,3.48,0,0,1,4,0,4.15,4.15,0,0,1,1.29,1.91,8.86,8.86,0,0,1,.45,3,9,9,0,0,1-.45,3,4,4,0,0,1-1.28,1.89A3.19,3.19,0,0,1,71.9,416.37Zm0-1.16a2,2,0,0,0,1.83-1.14,6.57,6.57,0,0,0,.66-3.25,8.36,8.36,0,0,0-.3-2.4,3.28,3.28,0,0,0-.85-1.5,1.9,1.9,0,0,0-1.34-.52,2,2,0,0,0-1.84,1.15,6.66,6.66,0,0,0-.66,3.27,8.21,8.21,0,0,0,.3,2.38,3.19,3.19,0,0,0,.85,1.5A1.92,1.92,0,0,0,71.9,415.21Z"/></g><g class="cls-1"><path d="M60.44,357.94l4.84-9.57v-.09H59.7v-1.16h6.93v1.23l-4.82,9.59Z"/><path d="M71.89,358.09a3.24,3.24,0,0,1-2-.65,4,4,0,0,1-1.28-1.9,10.26,10.26,0,0,1,0-6,4.12,4.12,0,0,1,1.29-1.9,3.44,3.44,0,0,1,4,0,4.12,4.12,0,0,1,1.29,1.9,10.26,10.26,0,0,1,0,6,4,4,0,0,1-1.28,1.9A3.25,3.25,0,0,1,71.89,358.09Zm0-1.16a2,2,0,0,0,1.84-1.14,6.59,6.59,0,0,0,.66-3.26,8.33,8.33,0,0,0-.3-2.39,3.29,3.29,0,0,0-.86-1.51,1.9,1.9,0,0,0-1.34-.51,2,2,0,0,0-1.83,1.15,6.64,6.64,0,0,0-.66,3.26,8.23,8.23,0,0,0,.3,2.39,3.19,3.19,0,0,0,.85,1.5A1.92,1.92,0,0,0,71.89,356.93Z"/></g><g class="cls-1"><path d="M62.66,299.81a4.45,4.45,0,0,1-1.92-.39,3.15,3.15,0,0,1-1.3-1.07,2.72,2.72,0,0,1-.46-1.56,3,3,0,0,1,.27-1.27,2.7,2.7,0,0,1,.75-1,2.34,2.34,0,0,1,1.07-.5V294a2.11,2.11,0,0,1-1.23-.88,2.63,2.63,0,0,1-.46-1.53,2.67,2.67,0,0,1,.42-1.48,2.92,2.92,0,0,1,1.17-1,3.93,3.93,0,0,1,3.37,0,3,3,0,0,1,1.16,1,2.6,2.6,0,0,1,.43,1.48,2.63,2.63,0,0,1-.46,1.53,2.14,2.14,0,0,1-1.23.88V294a2.26,2.26,0,0,1,1.06.5,2.94,2.94,0,0,1,.75,1,3,3,0,0,1,.29,1.27,2.82,2.82,0,0,1-.48,1.56,3.18,3.18,0,0,1-1.29,1.07A4.43,4.43,0,0,1,62.66,299.81Zm0-1.16a3.09,3.09,0,0,0,1.27-.24,1.89,1.89,0,0,0,.82-.67,1.91,1.91,0,0,0,.3-1,2,2,0,0,0-.32-1.08,2.19,2.19,0,0,0-.85-.74,2.67,2.67,0,0,0-1.22-.27,2.79,2.79,0,0,0-1.24.27,2.19,2.19,0,0,0-.85.74,2,2,0,0,0-.3,1.08,1.82,1.82,0,0,0,.28,1,1.86,1.86,0,0,0,.83.67A3.14,3.14,0,0,0,62.66,298.65Zm0-5.14a2.26,2.26,0,0,0,1-.23,1.78,1.78,0,0,0,.71-.65,1.91,1.91,0,0,0,0-1.94,1.74,1.74,0,0,0-.71-.63,2.25,2.25,0,0,0-1-.23,2.33,2.33,0,0,0-1.06.23,1.68,1.68,0,0,0-.71.63,2,2,0,0,0,0,1.94,1.78,1.78,0,0,0,.71.65A2.35,2.35,0,0,0,62.66,293.51Z"/><path d="M71.9,299.81a3.25,3.25,0,0,1-2-.65,4,4,0,0,1-1.28-1.9,10.26,10.26,0,0,1,0-6,4.12,4.12,0,0,1,1.29-1.9,3.44,3.44,0,0,1,4,0,4.12,4.12,0,0,1,1.29,1.9,10.26,10.26,0,0,1,0,6,4,4,0,0,1-1.28,1.9A3.24,3.24,0,0,1,71.9,299.81Zm0-1.16a2,2,0,0,0,1.83-1.15,6.55,6.55,0,0,0,.66-3.25,8.23,8.23,0,0,0-.3-2.39,3.29,3.29,0,0,0-.86-1.51,1.86,1.86,0,0,0-1.33-.52A2,2,0,0,0,70.06,291a6.62,6.62,0,0,0-.66,3.26,8.28,8.28,0,0,0,.3,2.39,3.2,3.2,0,0,0,.85,1.49A1.89,1.89,0,0,0,71.9,298.65Z"/></g><g class="cls-1"><path d="M62.53,230.41a3.87,3.87,0,0,1,1.33.25,3.24,3.24,0,0,1,1.22.83,4,4,0,0,1,.88,1.56,7.85,7.85,0,0,1,.33,2.47,10.87,10.87,0,0,1-.27,2.56,5.84,5.84,0,0,1-.78,1.89A3.42,3.42,0,0,1,64,241.13a3.29,3.29,0,0,1-1.64.4,3.57,3.57,0,0,1-1.62-.36,3.23,3.23,0,0,1-1.16-1,3.64,3.64,0,0,1-.58-1.51h1.29a2.36,2.36,0,0,0,.7,1.23,1.93,1.93,0,0,0,1.37.49,2.26,2.26,0,0,0,2-1.1,5.52,5.52,0,0,0,.73-3.09H65a3.22,3.22,0,0,1-.7.77,3,3,0,0,1-.9.49,3.11,3.11,0,0,1-1.06.18,3.31,3.31,0,0,1-1.7-.46,3.46,3.46,0,0,1-1.24-1.28,3.67,3.67,0,0,1-.46-1.86,3.85,3.85,0,0,1,.44-1.82,3.38,3.38,0,0,1,1.26-1.31A3.5,3.5,0,0,1,62.53,230.41Zm0,1.16a2.2,2.2,0,0,0-1.19.33,2.32,2.32,0,0,0-.84.89,2.44,2.44,0,0,0-.31,1.23,2.63,2.63,0,0,0,.29,1.23,2.39,2.39,0,0,0,.82.88,2.37,2.37,0,0,0,2.12.13,2.47,2.47,0,0,0,.76-.55,2.44,2.44,0,0,0,.51-.79,2.23,2.23,0,0,0,.19-.92,2.49,2.49,0,0,0-1.14-2.08A2.2,2.2,0,0,0,62.53,231.57Z"/><path d="M71.9,241.53a3.2,3.2,0,0,1-2-.66A4,4,0,0,1,68.58,239a10.26,10.26,0,0,1,0-6,4.12,4.12,0,0,1,1.29-1.9,3.44,3.44,0,0,1,4,0,4.12,4.12,0,0,1,1.29,1.9,10.26,10.26,0,0,1,0,6,4,4,0,0,1-1.28,1.89A3.19,3.19,0,0,1,71.9,241.53Zm0-1.16a2,2,0,0,0,1.83-1.15,6.55,6.55,0,0,0,.66-3.25,8.23,8.23,0,0,0-.3-2.39,3.31,3.31,0,0,0-.85-1.51,1.9,1.9,0,0,0-1.34-.52,2,2,0,0,0-1.84,1.16A6.62,6.62,0,0,0,69.4,236a8.28,8.28,0,0,0,.3,2.39,3.2,3.2,0,0,0,.85,1.49A1.93,1.93,0,0,0,71.9,240.37Z"/></g><g class="cls-1"><path d="M56,172.28V183.1H54.65v-9.45h-.07l-2.64,1.75v-1.33l2.71-1.79Z"/><path d="M62.59,183.25a3.19,3.19,0,0,1-2-.66,4,4,0,0,1-1.28-1.89,10.26,10.26,0,0,1,0-6,4.15,4.15,0,0,1,1.29-1.91,3.48,3.48,0,0,1,4.05,0,4.15,4.15,0,0,1,1.29,1.91,10.26,10.26,0,0,1,0,6,4,4,0,0,1-1.28,1.89A3.2,3.2,0,0,1,62.59,183.25Zm0-1.17a2,2,0,0,0,1.84-1.14,6.55,6.55,0,0,0,.66-3.25,8.36,8.36,0,0,0-.3-2.4,3.29,3.29,0,0,0-.86-1.5,1.86,1.86,0,0,0-1.34-.52,2,2,0,0,0-1.83,1.15,6.66,6.66,0,0,0-.66,3.27,8.33,8.33,0,0,0,.3,2.39,3.2,3.2,0,0,0,.85,1.49A1.92,1.92,0,0,0,62.59,182.08Z"/><path d="M71.89,183.25a3.19,3.19,0,0,1-2-.66,4,4,0,0,1-1.28-1.89,10.26,10.26,0,0,1,0-6,4.15,4.15,0,0,1,1.29-1.91,3.48,3.48,0,0,1,4,0,4.15,4.15,0,0,1,1.29,1.91,10.26,10.26,0,0,1,0,6,4,4,0,0,1-1.28,1.89A3.2,3.2,0,0,1,71.89,183.25Zm0-1.17a2,2,0,0,0,1.84-1.14,6.55,6.55,0,0,0,.66-3.25,8.36,8.36,0,0,0-.3-2.4,3.2,3.2,0,0,0-.86-1.5,1.86,1.86,0,0,0-1.34-.52,2,2,0,0,0-1.83,1.15,6.66,6.66,0,0,0-.66,3.27,8.33,8.33,0,0,0,.3,2.39,3.2,3.2,0,0,0,.85,1.49A1.92,1.92,0,0,0,71.89,182.08Z"/></g><g class="cls-1"><path d="M50.31,91.43v-1l3.58-3.91c.42-.46.76-.86,1-1.2a4.45,4.45,0,0,0,.61-1,2.38,2.38,0,0,0,.2-1,1.74,1.74,0,0,0-.28-1,1.8,1.8,0,0,0-.74-.65,2.39,2.39,0,0,0-1.06-.23,2.21,2.21,0,0,0-1.08.26,1.78,1.78,0,0,0-.72.72,2.25,2.25,0,0,0-.25,1.07H50.36A3.09,3.09,0,0,1,50.8,82,3.05,3.05,0,0,1,52,80.86a3.72,3.72,0,0,1,1.71-.4,3.53,3.53,0,0,1,1.68.4A3,3,0,0,1,56.53,82,2.82,2.82,0,0,1,57,83.46a3.36,3.36,0,0,1-.21,1.17A5.38,5.38,0,0,1,56,85.89a22.21,22.21,0,0,1-1.46,1.7l-2.43,2.6v.08h5v1.16Z"/><path d="M62.7,91.58A3.63,3.63,0,0,1,61,91.21a3.13,3.13,0,0,1-1.2-1,2.78,2.78,0,0,1-.49-1.47h1.27a1.71,1.71,0,0,0,.67,1.21,2.18,2.18,0,0,0,1.42.48,2.37,2.37,0,0,0,1.19-.31,2.34,2.34,0,0,0,.82-.86A2.56,2.56,0,0,0,65,88a2.65,2.65,0,0,0-.31-1.27,2.39,2.39,0,0,0-.85-.88,2.51,2.51,0,0,0-1.23-.33,3.29,3.29,0,0,0-1,.16,2.92,2.92,0,0,0-.87.39l-1.22-.14.65-5.33h5.63v1.16H61.26L60.88,85H61a2.81,2.81,0,0,1,.83-.43,3.09,3.09,0,0,1,1-.18,3.31,3.31,0,0,1,3,1.77A3.91,3.91,0,0,1,66.27,88a3.62,3.62,0,0,1-.46,1.84,3.39,3.39,0,0,1-1.27,1.28A3.62,3.62,0,0,1,62.7,91.58Z"/><path d="M71.9,91.58a3.25,3.25,0,0,1-2-.65A4,4,0,0,1,68.58,89a10.26,10.26,0,0,1,0-6,4.12,4.12,0,0,1,1.29-1.9,3.44,3.44,0,0,1,4,0A4.12,4.12,0,0,1,75.21,83a10.26,10.26,0,0,1,0,6,4,4,0,0,1-1.28,1.9A3.24,3.24,0,0,1,71.9,91.58Zm0-1.16a2,2,0,0,0,1.83-1.14A6.59,6.59,0,0,0,74.39,86a8.28,8.28,0,0,0-.3-2.39,3.29,3.29,0,0,0-.86-1.51,1.9,1.9,0,0,0-1.33-.52,2,2,0,0,0-1.84,1.16A6.64,6.64,0,0,0,69.4,86a8.28,8.28,0,0,0,.3,2.39,3.24,3.24,0,0,0,.85,1.5A1.92,1.92,0,0,0,71.9,90.42Z"/></g><rect class="cls-2" x="95.86" y="73.59" width="286.54" height="688"/><rect class="cls-2" x="878.81" y="73.59" width="209.46" height="688"/><path class="cls-3" d="M180.72,761.89a.29.29,0,0,1-.3-.3V158.32a.3.3,0,1,1,.59,0V761.59A.29.29,0,0,1,180.72,761.89Z"/><path class="cls-3" d="M257,761.89a.29.29,0,0,1-.3-.3V158.32a.29.29,0,0,1,.3-.3.3.3,0,0,1,.3.3V761.59A.3.3,0,0,1,257,761.89Z"/><path class="cls-3" d="M341.51,761.89a.3.3,0,0,1-.3-.3V158.32a.3.3,0,0,1,.3-.3.29.29,0,0,1,.3.3V761.59A.29.29,0,0,1,341.51,761.89Z"/><path class="cls-3" d="M423.27,761.89a.3.3,0,0,1-.3-.3V158.32a.3.3,0,0,1,.3-.3.29.29,0,0,1,.3.3V761.59A.29.29,0,0,1,423.27,761.89Z"/><path class="cls-3" d="M507.76,761.89a.29.29,0,0,1-.3-.3V158.32a.3.3,0,0,1,.6,0V761.59A.29.29,0,0,1,507.76,761.89Z"/><path class="cls-3" d="M589.52,761.89a.3.3,0,0,1-.3-.3V158.32a.3.3,0,0,1,.3-.3.29.29,0,0,1,.3.3V761.59A.29.29,0,0,1,589.52,761.89Z"/><path class="cls-3" d="M674,761.89a.29.29,0,0,1-.3-.3V158.32a.29.29,0,0,1,.3-.3.3.3,0,0,1,.3.3V761.59A.3.3,0,0,1,674,761.89Z"/><path class="cls-3" d="M758.49,761.89a.3.3,0,0,1-.3-.3V158.32a.3.3,0,0,1,.3-.3.29.29,0,0,1,.3.3V761.59A.29.29,0,0,1,758.49,761.89Z"/><path class="cls-3" d="M840.26,761.89a.29.29,0,0,1-.3-.3V158.32a.3.3,0,1,1,.59,0V761.59A.29.29,0,0,1,840.26,761.89Z"/><path class="cls-3" d="M924.74,761.89a.3.3,0,0,1-.3-.3V158.32a.3.3,0,0,1,.3-.3.29.29,0,0,1,.3.3V761.59A.29.29,0,0,1,924.74,761.89Z"/><path class="cls-3" d="M1006.5,761.89a.3.3,0,0,1-.3-.3V158.32a.3.3,0,0,1,.3-.3.29.29,0,0,1,.3.3V761.59A.29.29,0,0,1,1006.5,761.89Z"/><path class="cls-3" d="M96.23,761.89a.29.29,0,0,1-.3-.3V158.32a.29.29,0,0,1,.3-.3.3.3,0,0,1,.3.3V761.59A.3.3,0,0,1,96.23,761.89Z"/><path class="cls-3" d="M1088.26,761.89a.3.3,0,0,1-.3-.3V158.32a.3.3,0,0,1,.3-.3.29.29,0,0,1,.3.3V761.59A.29.29,0,0,1,1088.26,761.89Z"/><path class="cls-3" d="M96.25,102.14a.29.29,0,0,1-.3-.3V73.59a.3.3,0,0,1,.6,0v28.25A.29.29,0,0,1,96.25,102.14Z"/><circle cx="96.23" cy="580.92" r="2.97"/><circle cx="104.41" cy="510.98" r="2.97"/><circle cx="107.13" cy="598.4" r="2.97"/><circle cx="109.86" cy="645.03" r="2.97"/><circle cx="112.58" cy="633.37" r="2.97"/><circle cx="115.31" cy="522.63" r="2.97"/><circle cx="123.48" cy="534.29" r="2.97"/><circle cx="131.66" cy="598.4" r="2.97"/><circle cx="134.38" cy="510.98" r="2.97"/><circle cx="137.11" cy="604.23" r="2.97"/><circle cx="139.83" cy="627.54" r="2.97"/><circle cx="142.56" cy="569.26" r="2.97"/><circle cx="145.29" cy="540.12" r="2.97"/><circle cx="148.01" cy="510.98" r="2.97"/><circle cx="150.74" cy="476.01" r="2.97"/><circle cx="158.91" cy="522.63" r="2.97"/><circle cx="161.64" cy="476.01" r="2.97"/><circle cx="188.89" cy="604.23" r="2.97"/><circle cx="191.62" cy="674.17" r="2.97"/><circle cx="194.34" cy="691.65" r="2.97"/><circle cx="197.07" cy="604.23" r="2.97"/><circle cx="199.79" cy="569.26" r="2.97"/><circle cx="202.52" cy="487.66" r="2.97"/><circle cx="205.24" cy="551.77" r="2.97"/><circle cx="216.15" cy="487.66" r="2.97"/><circle cx="218.87" cy="510.98" r="2.97"/><circle cx="221.6" cy="598.4" r="2.97"/><circle cx="224.32" cy="522.63" r="2.97"/><circle cx="227.05" cy="487.66" r="2.97"/><circle cx="229.77" cy="487.66" r="2.97"/><circle cx="243.4" cy="528.46" r="2.97"/><circle cx="246.12" cy="679.99" r="2.97"/><circle cx="248.85" cy="656.68" r="2.97"/><circle cx="251.58" cy="575.09" r="2.97"/><circle cx="254.3" cy="685.82" r="2.97"/><circle cx="257.03" cy="709.14" r="2.97"/><circle cx="259.75" cy="627.54" r="2.97"/><circle cx="262.48" cy="557.6" r="2.97"/><circle cx="265.2" cy="598.4" r="2.97"/><circle cx="267.93" cy="738.28" r="2.97"/><circle cx="270.65" cy="709.14" r="2.97"/><circle cx="273.38" cy="627.54" r="2.97"/><circle cx="276.1" cy="662.51" r="2.97"/><circle cx="278.83" cy="615.88" r="2.97"/><circle cx="281.55" cy="615.88" r="2.97"/><circle cx="284.28" cy="685.82" r="2.97"/><circle cx="287" cy="674.17" r="2.97"/><circle cx="289.73" cy="580.92" r="2.97"/><circle cx="295.18" cy="557.6" r="2.97"/><circle cx="297.91" cy="510.98" r="2.97"/><circle cx="300.63" cy="586.74" r="2.97"/><circle cx="303.36" cy="662.51" r="2.97"/><circle cx="306.08" cy="499.32" r="2.97"/><circle cx="311.53" cy="476.01" r="2.97"/><circle cx="314.26" cy="476.01" r="2.97"/><circle cx="316.98" cy="586.74" r="2.97"/><circle cx="319.71" cy="540.12" r="2.97"/><circle cx="322.43" cy="522.63" r="2.97"/><circle cx="325.16" cy="691.65" r="2.97"/><circle cx="327.89" cy="656.68" r="2.97"/><circle cx="330.61" cy="627.54" r="2.97"/><circle cx="333.34" cy="615.88" r="2.97"/><circle cx="336.06" cy="639.2" r="2.97"/><circle cx="338.79" cy="621.71" r="2.97"/><circle cx="341.51" cy="633.37" r="2.97"/><circle cx="344.24" cy="534.29" r="2.97"/><circle cx="346.96" cy="604.23" r="2.97"/><circle cx="349.69" cy="592.57" r="2.97"/><circle cx="352.41" cy="633.37" r="2.97"/><circle cx="355.14" cy="621.71" r="2.97"/><circle cx="357.86" cy="650.85" r="2.97"/><circle cx="360.59" cy="615.88" r="2.97"/><circle cx="363.32" cy="627.54" r="2.97"/><circle cx="366.04" cy="645.03" r="2.97"/><circle cx="368.77" cy="604.23" r="2.97"/><circle cx="371.49" cy="639.2" r="2.97"/><circle cx="374.22" cy="668.34" r="2.97"/><circle cx="376.94" cy="645.03" r="2.97"/><circle cx="379.67" cy="674.17" r="2.97"/><circle cx="382.39" cy="697.48" r="2.97"/><circle cx="385.12" cy="703.31" r="2.97"/><circle cx="387.84" cy="703.31" r="2.97"/><circle cx="390.57" cy="679.99" r="2.97"/><circle cx="393.29" cy="668.34" r="2.97"/><circle cx="396.02" cy="645.03" r="2.97"/><circle cx="398.75" cy="662.51" r="2.97"/><circle cx="401.47" cy="650.85" r="2.97"/><circle cx="404.2" cy="610.06" r="2.97"/><circle cx="406.92" cy="709.14" r="2.97"/><circle cx="409.65" cy="662.51" r="2.97"/><circle cx="412.37" cy="621.71" r="2.97"/><circle cx="415.1" cy="691.65" r="2.97"/><circle cx="417.82" cy="674.17" r="2.97"/><circle cx="420.55" cy="679.99" r="2.97"/><circle cx="423.27" cy="674.17" r="2.97"/><circle cx="426" cy="703.31" r="2.97"/><circle cx="428.72" cy="674.17" r="2.97"/><circle cx="431.45" cy="674.17" r="2.97"/><circle cx="434.18" cy="668.34" r="2.97"/><circle cx="436.9" cy="662.51" r="2.97"/><circle cx="439.63" cy="744.1" r="2.97"/><circle cx="442.35" cy="685.82" r="2.97"/><circle cx="445.08" cy="714.96" r="2.97"/><circle cx="447.8" cy="679.99" r="2.97"/><circle cx="450.53" cy="633.37" r="2.97"/><circle cx="453.25" cy="610.06" r="2.97"/><circle cx="455.98" cy="679.99" r="2.97"/><circle cx="458.7" cy="685.82" r="2.97"/><circle cx="461.43" cy="668.34" r="2.97"/><circle cx="464.15" cy="668.34" r="2.97"/><circle cx="466.88" cy="679.99" r="2.97"/><circle cx="469.6" cy="674.17" r="2.97"/><circle cx="472.33" cy="674.17" r="2.97"/><circle cx="475.06" cy="691.65" r="2.97"/><circle cx="477.78" cy="709.14" r="2.97"/><circle cx="480.51" cy="679.99" r="2.97"/><circle cx="483.23" cy="674.17" r="2.97"/><circle cx="485.96" cy="679.99" r="2.97"/><circle cx="488.68" cy="668.34" r="2.97"/><circle cx="491.41" cy="674.17" r="2.97"/><circle cx="494.13" cy="679.99" r="2.97"/><circle cx="496.86" cy="685.82" r="2.97"/><circle cx="499.58" cy="668.34" r="2.97"/><circle cx="502.31" cy="656.68" r="2.97"/><circle cx="505.03" cy="685.82" r="2.97"/><circle cx="507.76" cy="691.65" r="2.97"/><circle cx="510.49" cy="679.99" r="2.97"/><circle cx="513.21" cy="679.99" r="2.97" transform="matrix(0.07, -1, 1, 0.07, -201.45, 1143.71)"/><circle cx="515.94" cy="709.14" r="2.97"/><circle cx="518.66" cy="685.82" r="2.97"/><circle cx="521.39" cy="679.99" r="2.97"/><circle cx="524.11" cy="650.85" r="2.97"/><circle cx="526.84" cy="691.65" r="2.97"/><circle cx="529.56" cy="679.99" r="2.97"/><circle cx="532.29" cy="656.68" r="2.97"/><circle cx="535.01" cy="679.99" r="2.97"/><circle cx="537.74" cy="662.51" r="2.97"/><circle cx="540.46" cy="639.2" r="2.97"/><circle cx="543.19" cy="633.37" r="2.97"/><circle cx="545.92" cy="633.37" r="2.97"/><circle cx="548.64" cy="615.88" r="2.97"/><circle cx="551.37" cy="627.54" r="2.97"/><circle cx="554.09" cy="685.82" r="2.97"/><circle cx="556.82" cy="674.17" r="2.97"/><circle cx="559.54" cy="650.85" r="2.97"/><circle cx="562.27" cy="668.34" r="2.97"/><circle cx="564.99" cy="645.03" r="2.97"/><circle cx="567.72" cy="650.85" r="2.97"/><circle cx="570.44" cy="645.03" r="2.97"/><circle cx="573.17" cy="650.85" r="2.97"/><circle cx="575.89" cy="645.03" r="2.97"/><circle cx="578.62" cy="615.88" r="2.97"/><circle cx="581.35" cy="656.68" r="2.97"/><circle cx="584.07" cy="697.48" r="2.97"/><circle cx="586.8" cy="685.82" r="2.97" transform="translate(-101.41 1269.83) rotate(-89.77)"/><circle cx="589.52" cy="697.48" r="2.97"/><circle cx="592.25" cy="656.68" r="2.97"/><circle cx="594.97" cy="679.99" r="2.97"/><circle cx="597.7" cy="645.03" r="2.97" transform="translate(-2.66 2.48) rotate(-0.24)"/><circle cx="600.42" cy="650.85" r="2.97"/><circle cx="603.15" cy="662.51" r="2.97"/><circle cx="605.87" cy="679.99" r="2.97"/><circle cx="608.6" cy="639.2" r="2.97"/><circle cx="611.32" cy="610.06" r="2.97"/><circle cx="614.05" cy="674.17" r="2.97"/><circle cx="616.77" cy="645.03" r="2.97"/><circle cx="619.5" cy="662.51" r="2.97"/><circle cx="622.23" cy="645.03" r="2.97"/><circle cx="624.95" cy="650.85" r="2.97"/><circle cx="627.68" cy="697.48" r="2.97"/><circle cx="630.4" cy="685.82" r="2.97"/><circle cx="633.13" cy="674.17" r="2.97"/><circle cx="635.85" cy="656.68" r="2.97"/><circle cx="638.58" cy="650.85" r="2.97"/><circle cx="641.3" cy="645.03" r="2.97"/><circle cx="644.03" cy="627.54" r="2.97"/><circle cx="646.75" cy="639.2" r="2.97"/><circle cx="649.48" cy="645.03" r="2.97"/><circle cx="652.2" cy="656.68" r="2.97"/><circle cx="654.93" cy="691.65" r="2.97"/><circle cx="657.66" cy="685.82" r="2.97"/><circle cx="660.38" cy="674.17" r="2.97"/><circle cx="663.11" cy="633.37" r="2.97"/><circle cx="665.83" cy="633.37" r="2.97"/><circle cx="668.56" cy="679.99" r="2.97"/><circle cx="671.28" cy="639.2" r="2.97"/><circle cx="674.01" cy="610.06" r="2.97"/><circle cx="676.73" cy="575.09" r="2.97"/><circle cx="679.46" cy="569.26" r="2.97"/><circle cx="682.18" cy="569.26" r="2.97"/><circle cx="684.91" cy="557.6" r="2.97"/><circle cx="687.63" cy="592.57" r="2.97"/><circle cx="690.36" cy="645.03" r="2.97"/><circle cx="693.09" cy="650.85" r="2.97"/><circle cx="695.81" cy="598.4" r="2.97"/><circle cx="698.54" cy="650.85" r="2.97"/><circle cx="701.26" cy="691.65" r="2.97"/><circle cx="703.99" cy="697.48" r="2.97"/><circle cx="706.71" cy="709.14" r="2.97"/><circle cx="709.44" cy="697.48" r="2.97"/><circle cx="712.16" cy="714.96" r="2.97"/><circle cx="714.89" cy="685.82" r="2.97"/><circle cx="717.61" cy="668.34" r="2.97"/><circle cx="720.34" cy="650.85" r="2.97"/><circle cx="723.06" cy="633.37" r="2.97"/><circle cx="725.79" cy="703.31" r="2.97"/><circle cx="728.52" cy="697.48" r="2.97"/><circle cx="731.24" cy="679.99" r="2.97"/><circle cx="733.97" cy="668.34" r="2.97"/><circle cx="736.69" cy="639.2" r="2.97"/><circle cx="739.42" cy="639.2" r="2.97"/><circle cx="742.14" cy="645.03" r="2.97"/><circle cx="744.87" cy="650.85" r="2.97"/><circle cx="747.59" cy="604.23" r="2.97"/><circle cx="750.32" cy="650.85" r="2.97"/><circle cx="753.04" cy="645.03" r="2.97"/><circle cx="755.77" cy="592.57" r="2.97"/><circle cx="758.49" cy="697.48" r="2.97"/><circle cx="761.22" cy="703.31" r="2.97"/><circle cx="763.95" cy="738.28" r="2.97"/><circle cx="766.67" cy="691.65" r="2.97"/><circle cx="769.4" cy="662.51" r="2.97"/><circle cx="777.57" cy="697.48" r="2.97"/><circle cx="780.3" cy="697.48" r="2.97"/><circle cx="783.02" cy="691.65" r="2.97"/><circle cx="785.75" cy="679.99" r="2.97"/><circle cx="788.47" cy="685.82" r="2.97"/><circle cx="791.2" cy="656.68" r="2.97"/><circle cx="793.92" cy="668.34" r="2.97"/><circle cx="796.65" cy="598.4" r="2.97"/><circle cx="799.37" cy="679.99" r="2.97"/><circle cx="802.1" cy="703.31" r="2.97"/><circle cx="804.83" cy="668.34" r="2.97"/><circle cx="807.55" cy="714.96" r="2.97"/><circle cx="810.28" cy="697.48" r="2.97"/><circle cx="815.73" cy="650.85" r="2.97"/><circle cx="818.45" cy="639.2" r="2.97"/><circle cx="821.18" cy="679.99" r="2.97"/><circle cx="823.9" cy="691.65" r="2.97"/><circle cx="826.63" cy="656.68" r="2.97"/><circle cx="829.35" cy="604.23" r="2.97"/><circle cx="832.08" cy="569.26" r="2.97"/><circle cx="834.8" cy="598.4" r="2.97"/><circle cx="837.53" cy="610.06" r="2.97"/><circle cx="840.26" cy="598.4" r="2.97"/><circle cx="842.98" cy="575.09" r="2.97"/><circle cx="845.71" cy="545.95" r="2.97"/><circle cx="848.43" cy="510.98" r="2.97"/><circle cx="851.16" cy="563.43" r="2.97"/><circle cx="853.88" cy="656.68" r="2.97"/><circle cx="856.61" cy="720.79" r="2.97"/><circle cx="859.33" cy="709.14" r="2.97"/><circle cx="862.06" cy="627.54" r="2.97"/><circle cx="864.78" cy="610.06" r="2.97"/><circle cx="867.51" cy="592.57" r="2.97"/><circle cx="870.23" cy="598.4" r="2.97"/><circle cx="872.96" cy="569.26" r="2.97"/><circle cx="878.41" cy="569.26" r="2.97"/><circle cx="881.14" cy="586.74" r="2.97"/><circle cx="883.86" cy="569.26" r="2.97"/><circle cx="886.59" cy="505.15" r="2.97"/><circle cx="900.21" cy="726.62" r="2.97"/><circle cx="902.94" cy="697.48" r="2.97"/><circle cx="905.66" cy="650.85" r="2.97"/><circle cx="908.39" cy="580.92" r="2.97"/><circle cx="911.12" cy="476.01" r="2.97"/><circle cx="916.57" cy="586.74" r="2.97"/><circle cx="922.02" cy="598.4" r="2.97"/><circle cx="924.74" cy="627.54" r="2.97"/><circle cx="927.47" cy="580.92" r="2.97"/><circle cx="935.64" cy="563.43" r="2.97"/><circle cx="938.37" cy="703.31" r="2.97"/><circle cx="941.09" cy="709.14" r="2.97"/><circle cx="943.82" cy="639.2" r="2.97"/><circle cx="946.54" cy="534.29" r="2.97"/><circle cx="949.27" cy="510.98" r="2.97"/><circle cx="952" cy="598.4" r="2.97"/><circle cx="954.72" cy="598.4" r="2.97"/><circle cx="957.45" cy="744.1" r="2.97"/><circle cx="960.17" cy="633.37" r="2.97"/><circle cx="962.9" cy="598.4" r="2.97"/><circle cx="965.62" cy="586.74" r="2.97"/><circle cx="968.35" cy="540.12" r="2.97"/><circle cx="971.07" cy="575.09" r="2.97"/><circle cx="973.8" cy="575.09" r="2.97"/><circle cx="976.52" cy="545.95" r="2.97"/><circle cx="979.25" cy="551.77" r="2.97"/><circle cx="981.97" cy="505.15" r="2.97"/><circle cx="992.88" cy="668.34" r="2.97"/><circle cx="995.6" cy="685.82" r="2.97"/><circle cx="998.33" cy="633.37" r="2.97"/><circle cx="1001.05" cy="481.84" r="2.97"/><circle cx="1003.78" cy="575.09" r="2.97"/><circle cx="1006.5" cy="633.37" r="2.97"/><circle cx="1009.23" cy="633.37" r="2.97"/><circle cx="1011.95" cy="569.26" r="2.97"/><circle cx="1014.68" cy="580.92" r="2.97"/><circle cx="1017.4" cy="534.29" r="2.97"/><circle cx="1020.13" cy="586.74" r="2.97"/><circle cx="1022.86" cy="522.63" r="2.97"/><circle cx="1028.31" cy="650.85" r="2.97"/><circle cx="1031.03" cy="703.31" r="2.97"/><circle cx="1033.76" cy="650.85" r="2.97"/><circle cx="1039.21" cy="505.15" r="2.97"/><circle cx="1041.93" cy="499.32" r="2.97"/><circle cx="1044.66" cy="563.43" r="2.97"/><circle cx="1047.38" cy="563.43" r="2.97"/><circle cx="1050.11" cy="598.4" r="2.97"/><circle cx="1052.83" cy="586.74" r="2.97"/><circle cx="1066.46" cy="563.43" r="2.97"/><circle cx="1069.19" cy="610.06" r="2.97"/><circle cx="1071.91" cy="563.43" r="2.97"/><circle cx="1077.36" cy="633.37" r="2.97"/><circle cx="1080.09" cy="732.45" r="2.97"/><circle cx="1082.81" cy="679.99" r="2.97"/><circle cx="1085.54" cy="592.57" r="2.97"/><circle cx="1088.26" cy="528.46" r="2.97"/><path class="cls-3" d="M96.25,149.76a.29.29,0,0,1-.3-.3v-6a.3.3,0,0,1,.6,0v6A.29.29,0,0,1,96.25,149.76Z"/><path class="cls-3" d="M96.25,134.64a.29.29,0,0,1-.3-.3v-9.12a.3.3,0,0,1,.6,0v9.12A.29.29,0,0,1,96.25,134.64Z"/><path class="cls-3" d="M96.25,116.4a.29.29,0,0,1-.3-.3v-6a.3.3,0,0,1,.6,0v6A.29.29,0,0,1,96.25,116.4Z"/><path class="cls-3" d="M180.72,102.14a.29.29,0,0,1-.3-.3V73.59a.3.3,0,1,1,.59,0v28.25A.29.29,0,0,1,180.72,102.14Z"/><path class="cls-3" d="M180.72,149.76a.29.29,0,0,1-.3-.3v-6a.3.3,0,0,1,.3-.3.31.31,0,0,1,.3.3v6A.3.3,0,0,1,180.72,149.76Z"/><path class="cls-3" d="M180.72,134.64a.29.29,0,0,1-.3-.3v-9.12a.3.3,0,0,1,.3-.3.31.31,0,0,1,.3.3v9.12A.3.3,0,0,1,180.72,134.64Z"/><path class="cls-3" d="M180.72,116.4a.29.29,0,0,1-.3-.3v-6a.3.3,0,0,1,.3-.3.31.31,0,0,1,.3.3v6A.3.3,0,0,1,180.72,116.4Z"/><path class="cls-3" d="M257,102.14a.29.29,0,0,1-.3-.3V73.59a.29.29,0,0,1,.3-.3.3.3,0,0,1,.3.3v28.25A.3.3,0,0,1,257,102.14Z"/><path class="cls-3" d="M257,149.76a.29.29,0,0,1-.3-.3v-6a.3.3,0,0,1,.3-.3.31.31,0,0,1,.3.3v6A.3.3,0,0,1,257,149.76Z"/><path class="cls-3" d="M257,134.64a.29.29,0,0,1-.3-.3v-9.12a.3.3,0,0,1,.3-.3.31.31,0,0,1,.3.3v9.12A.3.3,0,0,1,257,134.64Z"/><path class="cls-3" d="M257,116.4a.29.29,0,0,1-.3-.3v-6a.3.3,0,0,1,.3-.3.31.31,0,0,1,.3.3v6A.3.3,0,0,1,257,116.4Z"/><path class="cls-3" d="M341.51,102.14a.3.3,0,0,1-.3-.3V73.59a.3.3,0,0,1,.3-.3.29.29,0,0,1,.3.3v28.25A.29.29,0,0,1,341.51,102.14Z"/><path class="cls-3" d="M341.51,149.76a.3.3,0,0,1-.3-.3v-6a.31.31,0,0,1,.3-.3.3.3,0,0,1,.3.3v6A.29.29,0,0,1,341.51,149.76Z"/><path class="cls-3" d="M341.51,134.64a.3.3,0,0,1-.3-.3v-9.12a.31.31,0,0,1,.3-.3.3.3,0,0,1,.3.3v9.12A.29.29,0,0,1,341.51,134.64Z"/><path class="cls-3" d="M341.51,116.4a.3.3,0,0,1-.3-.3v-6a.31.31,0,0,1,.3-.3.3.3,0,0,1,.3.3v6A.29.29,0,0,1,341.51,116.4Z"/><path class="cls-3" d="M423.27,102.14a.3.3,0,0,1-.3-.3V73.59a.3.3,0,0,1,.3-.3.29.29,0,0,1,.3.3v28.25A.29.29,0,0,1,423.27,102.14Z"/><path class="cls-3" d="M423.27,149.76a.3.3,0,0,1-.3-.3v-6a.31.31,0,0,1,.3-.3.3.3,0,0,1,.3.3v6A.29.29,0,0,1,423.27,149.76Z"/><path class="cls-3" d="M423.27,134.64a.3.3,0,0,1-.3-.3v-9.12a.31.31,0,0,1,.3-.3.3.3,0,0,1,.3.3v9.12A.29.29,0,0,1,423.27,134.64Z"/><path class="cls-3" d="M423.27,116.4a.3.3,0,0,1-.3-.3v-6a.31.31,0,0,1,.3-.3.3.3,0,0,1,.3.3v6A.29.29,0,0,1,423.27,116.4Z"/><path class="cls-3" d="M507.76,102.14a.29.29,0,0,1-.3-.3V73.59a.3.3,0,0,1,.6,0v28.25A.29.29,0,0,1,507.76,102.14Z"/><path class="cls-3" d="M507.76,149.76a.29.29,0,0,1-.3-.3v-6a.3.3,0,0,1,.6,0v6A.29.29,0,0,1,507.76,149.76Z"/><path class="cls-3" d="M507.76,134.64a.29.29,0,0,1-.3-.3v-9.12a.3.3,0,0,1,.6,0v9.12A.29.29,0,0,1,507.76,134.64Z"/><path class="cls-3" d="M507.76,116.4a.29.29,0,0,1-.3-.3v-6a.3.3,0,0,1,.6,0v6A.29.29,0,0,1,507.76,116.4Z"/><path class="cls-3" d="M589.52,102.14a.3.3,0,0,1-.3-.3V73.59a.3.3,0,0,1,.3-.3.29.29,0,0,1,.3.3v28.25A.29.29,0,0,1,589.52,102.14Z"/><path class="cls-3" d="M589.52,149.76a.29.29,0,0,1-.3-.3v-6a.3.3,0,1,1,.6,0v6A.29.29,0,0,1,589.52,149.76Z"/><path class="cls-3" d="M589.52,134.64a.29.29,0,0,1-.3-.3v-9.12a.3.3,0,1,1,.6,0v9.12A.29.29,0,0,1,589.52,134.64Z"/><path class="cls-3" d="M589.52,116.4a.29.29,0,0,1-.3-.3v-6a.3.3,0,1,1,.6,0v6A.29.29,0,0,1,589.52,116.4Z"/><path class="cls-3" d="M674,102.14a.29.29,0,0,1-.3-.3V73.59a.29.29,0,0,1,.3-.3.3.3,0,0,1,.3.3v28.25A.3.3,0,0,1,674,102.14Z"/><path class="cls-3" d="M674,149.76a.29.29,0,0,1-.3-.3v-6a.3.3,0,0,1,.3-.3.31.31,0,0,1,.3.3v6A.3.3,0,0,1,674,149.76Z"/><path class="cls-3" d="M674,134.64a.29.29,0,0,1-.3-.3v-9.12a.3.3,0,0,1,.3-.3.31.31,0,0,1,.3.3v9.12A.3.3,0,0,1,674,134.64Z"/><path class="cls-3" d="M674,116.4a.29.29,0,0,1-.3-.3v-6a.3.3,0,0,1,.3-.3.31.31,0,0,1,.3.3v6A.3.3,0,0,1,674,116.4Z"/><path class="cls-3" d="M758.49,102.14a.3.3,0,0,1-.3-.3V73.59a.3.3,0,0,1,.3-.3.29.29,0,0,1,.3.3v28.25A.29.29,0,0,1,758.49,102.14Z"/><path class="cls-3" d="M758.49,149.76a.3.3,0,0,1-.3-.3v-6a.31.31,0,0,1,.3-.3.3.3,0,0,1,.3.3v6A.29.29,0,0,1,758.49,149.76Z"/><path class="cls-3" d="M758.49,134.64a.3.3,0,0,1-.3-.3v-9.12a.31.31,0,0,1,.3-.3.3.3,0,0,1,.3.3v9.12A.29.29,0,0,1,758.49,134.64Z"/><path class="cls-3" d="M758.49,116.4a.3.3,0,0,1-.3-.3v-6a.31.31,0,0,1,.3-.3.3.3,0,0,1,.3.3v6A.29.29,0,0,1,758.49,116.4Z"/><path class="cls-3" d="M840.26,102.14a.29.29,0,0,1-.3-.3V73.59a.3.3,0,1,1,.59,0v28.25A.29.29,0,0,1,840.26,102.14Z"/><path class="cls-3" d="M840.26,149.76a.29.29,0,0,1-.3-.3v-6a.3.3,0,1,1,.59,0v6A.29.29,0,0,1,840.26,149.76Z"/><path class="cls-3" d="M840.26,134.64a.29.29,0,0,1-.3-.3v-9.12a.3.3,0,1,1,.59,0v9.12A.29.29,0,0,1,840.26,134.64Z"/><path class="cls-3" d="M840.26,116.4a.29.29,0,0,1-.3-.3v-6a.3.3,0,1,1,.59,0v6A.29.29,0,0,1,840.26,116.4Z"/><path class="cls-3" d="M924.74,102.14a.3.3,0,0,1-.3-.3V73.59a.3.3,0,0,1,.3-.3.29.29,0,0,1,.3.3v28.25A.29.29,0,0,1,924.74,102.14Z"/><path class="cls-3" d="M924.74,149.76a.3.3,0,0,1-.3-.3v-6a.31.31,0,0,1,.3-.3.3.3,0,0,1,.3.3v6A.29.29,0,0,1,924.74,149.76Z"/><path class="cls-3" d="M924.74,134.64a.3.3,0,0,1-.3-.3v-9.12a.31.31,0,0,1,.3-.3.3.3,0,0,1,.3.3v9.12A.29.29,0,0,1,924.74,134.64Z"/><path class="cls-3" d="M924.74,116.4a.3.3,0,0,1-.3-.3v-6a.31.31,0,0,1,.3-.3.3.3,0,0,1,.3.3v6A.29.29,0,0,1,924.74,116.4Z"/><path class="cls-3" d="M1006.5,102.14a.3.3,0,0,1-.3-.3V73.59a.3.3,0,0,1,.3-.3.29.29,0,0,1,.3.3v28.25A.29.29,0,0,1,1006.5,102.14Z"/><path class="cls-3" d="M1006.5,149.76a.3.3,0,0,1-.3-.3v-6a.31.31,0,0,1,.3-.3.3.3,0,0,1,.3.3v6A.29.29,0,0,1,1006.5,149.76Z"/><path class="cls-3" d="M1006.5,134.64a.3.3,0,0,1-.3-.3v-9.12a.31.31,0,0,1,.3-.3.3.3,0,0,1,.3.3v9.12A.29.29,0,0,1,1006.5,134.64Z"/><path class="cls-3" d="M1006.5,116.4a.3.3,0,0,1-.3-.3v-6a.31.31,0,0,1,.3-.3.3.3,0,0,1,.3.3v6A.29.29,0,0,1,1006.5,116.4Z"/><path class="cls-3" d="M1088.27,102.14a.29.29,0,0,1-.3-.3V73.59a.3.3,0,0,1,.6,0v28.25A.29.29,0,0,1,1088.27,102.14Z"/><path class="cls-3" d="M1088.27,149.76a.29.29,0,0,1-.3-.3v-6a.3.3,0,0,1,.6,0v6A.29.29,0,0,1,1088.27,149.76Z"/><path class="cls-3" d="M1088.27,134.64a.29.29,0,0,1-.3-.3v-9.12a.3.3,0,0,1,.6,0v9.12A.29.29,0,0,1,1088.27,134.64Z"/><path class="cls-3" d="M1088.27,116.4a.29.29,0,0,1-.3-.3v-6a.3.3,0,0,1,.6,0v6A.29.29,0,0,1,1088.27,116.4Z"/><circle class="cls-4" cx="98.95" cy="423.55" r="2.97"/><circle class="cls-4" cx="101.68" cy="231.22" r="2.97"/><circle class="cls-4" cx="118.03" cy="458.52" r="2.97"/><circle class="cls-4" cx="120.76" cy="382.76" r="2.97"/><circle class="cls-4" cx="126.21" cy="394.41" r="2.97"/><circle class="cls-4" cx="128.93" cy="423.55" r="2.97"/><circle class="cls-4" cx="153.46" cy="464.35" r="2.97"/><circle class="cls-4" cx="156.19" cy="371.1" r="2.97"/><circle class="cls-4" cx="164.36" cy="452.69" r="2.97"/><circle class="cls-4" cx="167.09" cy="417.73" r="2.97"/><circle class="cls-4" cx="169.81" cy="376.93" r="2.97"/><circle class="cls-4" cx="172.54" cy="254.54" r="2.97"/><circle class="cls-4" cx="186.17" cy="202.08" r="2.97"/><circle class="cls-4" cx="207.97" cy="406.07" r="2.97"/><circle class="cls-4" cx="210.69" cy="318.65" r="2.97"/><circle class="cls-4" cx="213.42" cy="359.44" r="2.97"/><circle class="cls-4" cx="232.5" cy="406.07" r="2.97"/><circle class="cls-4" cx="235.22" cy="458.52" r="2.97"/><circle class="cls-4" cx="237.95" cy="435.21" r="2.97"/><circle class="cls-4" cx="240.67" cy="470.18" r="2.97"/><circle class="cls-4" cx="308.81" cy="388.58" r="2.97"/><circle class="cls-4" cx="875.69" cy="446.87" r="2.97"/><circle class="cls-4" cx="889.31" cy="470.18" r="2.97"/><circle class="cls-4" cx="892.04" cy="353.61" r="2.97"/><circle class="cls-4" cx="894.76" cy="341.96" r="2.97"/><circle class="cls-4" cx="897.49" cy="365.27" r="2.97"/><circle class="cls-4" cx="913.84" cy="429.38" r="2.97"/><circle class="cls-4" cx="919.29" cy="441.04" r="2.97"/><circle class="cls-4" cx="930.19" cy="353.61" r="2.97"/><circle class="cls-4" cx="932.92" cy="260.36" r="2.97"/><circle class="cls-4" cx="984.7" cy="242.88" r="2.97"/><circle class="cls-4" cx="987.43" cy="359.44" r="2.97"/><circle class="cls-4" cx="990.15" cy="172.94" r="2.97"/><circle class="cls-4" cx="1025.58" cy="318.65" r="2.97"/><circle class="cls-4" cx="1055.56" cy="458.52" r="2.97"/><circle class="cls-4" cx="1058.29" cy="441.04" r="2.97"/><circle class="cls-4" cx="1061.01" cy="441.04" r="2.97"/><circle class="cls-4" cx="1063.74" cy="470.18" r="2.97"/><circle class="cls-4" cx="1074.64" cy="260.36" r="2.97"/><circle class="cls-4" cx="175.26" cy="161.28" r="2.97"/><circle class="cls-4" cx="177.99" cy="113.64" r="2.97"/><circle class="cls-4" cx="180.72" cy="95.65" r="2.97"/><circle class="cls-4" cx="183.44" cy="142.07" r="2.97"/><path d="M42.79,50.85v1.42H41.15V39.1h1.64v5.28c0,1.93.74,2.6,2.08,2.6s2.38-1.26,2.38-3.2V39.1h1.64v9.07H47.33V46.83h-.08A2.78,2.78,0,0,1,44.5,48.4a3.29,3.29,0,0,1-1.83-.52h-.11A20.43,20.43,0,0,1,42.79,50.85Z"/><path d="M52.83,49.29c0,1.12,1,1.79,2.46,1.79,1.6,0,2.9-.8,2.9-3.35v-1h-.08a3.17,3.17,0,0,1-3,1.64c-2.3,0-4-1.71-4-4.69s1.86-4.84,4.16-4.84a3,3,0,0,1,2.9,1.64h.08V39.1h1.56v8.63c0,3.44-2,4.68-4.46,4.68s-4-1.07-4-3.12ZM55.44,47c1.48,0,2.67-1.19,2.67-3.34s-1.19-3.35-2.67-3.35-2.68,1.26-2.68,3.42S54,47,55.44,47Z"/><path d="M67,35.15h1.42L62.73,48.4H61.31Z"/><path d="M68.68,39.1h1.56v1.34h.08a2.84,2.84,0,0,1,2.75-1.57,2.8,2.8,0,0,1,2.83,1.84,3.05,3.05,0,0,1,3-1.84c1.71,0,3.12,1,3.12,3.65v5.65H80.43V42.74c0-1.78-.59-2.45-1.86-2.45s-2.38,1.21-2.38,3.16v4.72H74.56V42.74c0-1.78-.67-2.45-1.86-2.45s-2.38,1.21-2.38,3.18v4.7H68.68Z"/><path d="M84.77,39.72a1.45,1.45,0,0,0,1.6,1.56c.94,0,1.61-.49,1.61-1.37a1.46,1.46,0,0,0-1.61-1.38h-.56V37.7h.56a1.29,1.29,0,0,0,1.35-1.29,1.22,1.22,0,0,0-1.35-1.2A1.24,1.24,0,0,0,85,36.55h-.87a2.24,2.24,0,0,1,4.47-.15,1.89,1.89,0,0,1-1.08,1.67v0A1.9,1.9,0,0,1,88.93,40c0,1.34-1.13,2.13-2.56,2.13a2.23,2.23,0,0,1-2.51-2.39Z"/><path d="M289.21,175.29a1.56,1.56,0,0,0-.7-1.16,2.66,2.66,0,0,0-1.54-.42,2.88,2.88,0,0,0-1.15.21,1.8,1.8,0,0,0-.76.57,1.43,1.43,0,0,0-.26.83,1.21,1.21,0,0,0,.18.66,1.44,1.44,0,0,0,.48.47,2.91,2.91,0,0,0,.64.31c.23.08.45.15.66.2l1.06.28a7.65,7.65,0,0,1,1.06.34,4.54,4.54,0,0,1,1,.57,2.77,2.77,0,0,1,.75.88,2.48,2.48,0,0,1,.29,1.25,2.94,2.94,0,0,1-.47,1.64,3.2,3.2,0,0,1-1.37,1.12,5.08,5.08,0,0,1-2.16.41,5.27,5.27,0,0,1-2.11-.38,3.26,3.26,0,0,1-1.39-1.1,3.12,3.12,0,0,1-.55-1.69h1.64a1.68,1.68,0,0,0,.38,1,1.92,1.92,0,0,0,.86.57,3.32,3.32,0,0,0,1.16.19,3.17,3.17,0,0,0,1.23-.22,1.94,1.94,0,0,0,.85-.61,1.43,1.43,0,0,0,.32-.92,1.15,1.15,0,0,0-.28-.79,2.15,2.15,0,0,0-.73-.51,7.59,7.59,0,0,0-1.05-.35l-1.27-.35a4.93,4.93,0,0,1-2.06-1,2.33,2.33,0,0,1-.76-1.82,2.68,2.68,0,0,1,.51-1.63,3.25,3.25,0,0,1,1.37-1.09,4.73,4.73,0,0,1,2-.39,4.57,4.57,0,0,1,1.94.39,3.36,3.36,0,0,1,1.33,1.06,2.67,2.67,0,0,1,.5,1.54Z"/><path d="M292.76,186.32V175.16h1.54v1.31h.13a3.59,3.59,0,0,1,.4-.58,2.16,2.16,0,0,1,.72-.59,2.59,2.59,0,0,1,1.21-.25,3.15,3.15,0,0,1,1.75.5,3.38,3.38,0,0,1,1.22,1.43,5.28,5.28,0,0,1,.44,2.25,5.36,5.36,0,0,1-.44,2.26,3.43,3.43,0,0,1-1.2,1.44,3.19,3.19,0,0,1-1.75.5,2.5,2.5,0,0,1-1.21-.25,2.06,2.06,0,0,1-.73-.58,4.6,4.6,0,0,1-.41-.59h-.09v4.31Zm1.54-7.1a4.28,4.28,0,0,0,.25,1.5,2.29,2.29,0,0,0,.72,1,1.84,1.84,0,0,0,1.15.36,1.88,1.88,0,0,0,1.19-.37,2.45,2.45,0,0,0,.72-1,4.18,4.18,0,0,0,.24-1.46,4.12,4.12,0,0,0-.24-1.45,2.28,2.28,0,0,0-.72-1,2.07,2.07,0,0,0-2.35,0,2.12,2.12,0,0,0-.71,1A3.92,3.92,0,0,0,294.3,179.22Z"/><path d="M305.44,183.44a3.93,3.93,0,0,1-2.07-.52,3.46,3.46,0,0,1-1.33-1.45,5.49,5.49,0,0,1,0-4.4,3.56,3.56,0,0,1,1.31-1.48,3.6,3.6,0,0,1,2-.54,4,4,0,0,1,1.33.23,3.16,3.16,0,0,1,2,2,5.26,5.26,0,0,1,.3,1.88v.56h-6.45v-1.18h4.9a2.33,2.33,0,0,0-.25-1.11,1.93,1.93,0,0,0-.71-.76,2,2,0,0,0-1.07-.28,2.1,2.1,0,0,0-1.16.32,2.14,2.14,0,0,0-.76.85,2.39,2.39,0,0,0-.27,1.13v.92a3.06,3.06,0,0,0,.29,1.38,1.94,1.94,0,0,0,.8.87,2.39,2.39,0,0,0,1.21.3,2.35,2.35,0,0,0,.82-.13,1.65,1.65,0,0,0,.64-.38,1.72,1.72,0,0,0,.41-.64l1.5.26a2.65,2.65,0,0,1-.64,1.16,3.27,3.27,0,0,1-1.16.77A4.33,4.33,0,0,1,305.44,183.44Z"/><path d="M314.08,186.49a4.82,4.82,0,0,1-1.66-.26,3.2,3.2,0,0,1-1.13-.67,3,3,0,0,1-.66-.91l1.36-.56a3.64,3.64,0,0,0,.38.49,1.83,1.83,0,0,0,.66.45,2.68,2.68,0,0,0,1.07.18,2.4,2.4,0,0,0,1.48-.43,1.63,1.63,0,0,0,.59-1.39v-1.6h-.1a3.49,3.49,0,0,1-.41.58,2.22,2.22,0,0,1-.73.55,2.64,2.64,0,0,1-1.21.23,3.36,3.36,0,0,1-1.73-.45,3.12,3.12,0,0,1-1.22-1.34,4.76,4.76,0,0,1-.44-2.18,5.05,5.05,0,0,1,.44-2.22,3.36,3.36,0,0,1,1.21-1.41,3.17,3.17,0,0,1,1.75-.5,2.67,2.67,0,0,1,1.22.25,2.31,2.31,0,0,1,.73.59,4.39,4.39,0,0,1,.4.58h.12v-1.31h1.55v8.29a2.89,2.89,0,0,1-.49,1.72,2.83,2.83,0,0,1-1.31,1A5.06,5.06,0,0,1,314.08,186.49Zm0-4.65a2,2,0,0,0,1.15-.32,1.92,1.92,0,0,0,.72-.92,3.87,3.87,0,0,0,.25-1.44,4,4,0,0,0-.25-1.44,2.11,2.11,0,0,0-.71-1,1.84,1.84,0,0,0-1.16-.36,1.9,1.9,0,0,0-1.19.37,2.25,2.25,0,0,0-.72,1,3.92,3.92,0,0,0-.24,1.4,3.54,3.54,0,0,0,.25,1.4,2,2,0,0,0,.72.94A1.94,1.94,0,0,0,314.07,181.84Z"/><path d="M321.44,178.45v4.82h-1.58v-8.11h1.52v1.32h.1a2.34,2.34,0,0,1,.88-1,2.71,2.71,0,0,1,1.51-.39,3,3,0,0,1,1.46.35,2.36,2.36,0,0,1,1,1,3.81,3.81,0,0,1,.34,1.68v5.16h-1.58v-5a1.93,1.93,0,0,0-.46-1.38,1.65,1.65,0,0,0-1.26-.5,2,2,0,0,0-1,.24,1.71,1.71,0,0,0-.67.69A2.38,2.38,0,0,0,321.44,178.45Z"/><path d="M329.55,173.91a1,1,0,0,1-.71-.28.92.92,0,0,1-.29-.67.88.88,0,0,1,.29-.66,1,1,0,0,1,.71-.28,1,1,0,0,1,.71.28.88.88,0,0,1,.29.66.92.92,0,0,1-.29.67A1,1,0,0,1,329.55,173.91Zm-.8,9.36v-8.11h1.58v8.11Z"/><path d="M332.46,183.27v-8.11H334v1.32h.1a2.12,2.12,0,0,1,.83-1,2.5,2.5,0,0,1,1.38-.38,2.4,2.4,0,0,1,1.37.38,2.19,2.19,0,0,1,.81,1h.09a2.31,2.31,0,0,1,.92-1,2.85,2.85,0,0,1,1.51-.39,2.47,2.47,0,0,1,1.81.69,2.82,2.82,0,0,1,.7,2.09v5.44h-1.58V178a1.48,1.48,0,0,0-.45-1.2,1.67,1.67,0,0,0-1.07-.37,1.51,1.51,0,0,0-1.2.48,1.71,1.71,0,0,0-.43,1.21v5.17h-1.58v-5.39a1.38,1.38,0,0,0-.41-1.06,1.46,1.46,0,0,0-1.07-.41,1.54,1.54,0,0,0-.83.24,1.79,1.79,0,0,0-.6.65,1.91,1.91,0,0,0-.23,1v5Z"/><path d="M349.1,183.44a3.87,3.87,0,0,1-2.06-.52,3.4,3.4,0,0,1-1.33-1.45,5.38,5.38,0,0,1,0-4.4,3.49,3.49,0,0,1,1.31-1.48,3.57,3.57,0,0,1,2-.54,4,4,0,0,1,1.33.23,3.25,3.25,0,0,1,1.16.71,3.51,3.51,0,0,1,.81,1.26,5.27,5.27,0,0,1,.29,1.88v.56h-6.45v-1.18H351a2.33,2.33,0,0,0-.26-1.11,1.86,1.86,0,0,0-.71-.76,2,2,0,0,0-1.07-.28,2.12,2.12,0,0,0-1.16.32,2.22,2.22,0,0,0-.76.85,2.39,2.39,0,0,0-.27,1.13v.92a3.06,3.06,0,0,0,.29,1.38,1.91,1.91,0,0,0,.81.87,2.36,2.36,0,0,0,1.21.3,2.39,2.39,0,0,0,.82-.13,1.73,1.73,0,0,0,.64-.38A1.85,1.85,0,0,0,351,181l1.49.26a2.65,2.65,0,0,1-.64,1.16,3.19,3.19,0,0,1-1.16.77A4.33,4.33,0,0,1,349.1,183.44Z"/><path d="M355.92,178.45v4.82h-1.58v-8.11h1.52v1.32h.1a2.34,2.34,0,0,1,.88-1,2.71,2.71,0,0,1,1.51-.39,3,3,0,0,1,1.46.35,2.29,2.29,0,0,1,1,1,3.67,3.67,0,0,1,.35,1.68v5.16h-1.58v-5a2,2,0,0,0-.46-1.38,1.65,1.65,0,0,0-1.26-.5,2,2,0,0,0-1,.24,1.71,1.71,0,0,0-.67.69A2.38,2.38,0,0,0,355.92,178.45Z"/><path d="M367,175.16v1.27h-4.43v-1.27Zm-3.24-1.95h1.58v7.68a1.38,1.38,0,0,0,.13.69.71.71,0,0,0,.36.31,1.27,1.27,0,0,0,.48.08,1.62,1.62,0,0,0,.33,0l.22,0,.29,1.3a2.47,2.47,0,0,1-.39.11,3.26,3.26,0,0,1-1.8-.16,2,2,0,0,1-.87-.72,2.11,2.11,0,0,1-.33-1.22Z"/><path d="M372.1,183.44a3.7,3.7,0,0,1-2-.53,3.41,3.41,0,0,1-1.32-1.46,5.3,5.3,0,0,1,0-4.41,3.41,3.41,0,0,1,1.32-1.46,4,4,0,0,1,4,0,3.41,3.41,0,0,1,1.32,1.46,5.41,5.41,0,0,1,0,4.41,3.41,3.41,0,0,1-1.32,1.46A3.72,3.72,0,0,1,372.1,183.44Zm0-1.33a1.89,1.89,0,0,0,1.23-.39,2.38,2.38,0,0,0,.72-1,4.38,4.38,0,0,0,0-2.86,2.35,2.35,0,0,0-.72-1,1.84,1.84,0,0,0-1.23-.4,1.88,1.88,0,0,0-1.23.4,2.2,2.2,0,0,0-.72,1,4.38,4.38,0,0,0,0,2.86,2.22,2.22,0,0,0,.72,1A1.93,1.93,0,0,0,372.1,182.11Z"/><path d="M283.18,201.87v-8.11h1.53v1.29h.08a2,2,0,0,1,.79-1,2.23,2.23,0,0,1,1.27-.37h.35l.32,0v1.52l-.33-.07-.49,0a2.05,2.05,0,0,0-1,.24,1.77,1.77,0,0,0-.69.64,1.8,1.8,0,0,0-.25.95v5Z"/><path d="M289.7,192.51a1,1,0,0,1-.71-.28.87.87,0,0,1-.29-.66.85.85,0,0,1,.29-.67,1,1,0,0,1,.71-.28,1,1,0,0,1,.7.28.85.85,0,0,1,.29.67.87.87,0,0,1-.29.66A1,1,0,0,1,289.7,192.51Zm-.8,9.36v-8.11h1.58v8.11Z"/><path d="M298.68,195.74l-1.43.25a1.76,1.76,0,0,0-.28-.52,1.44,1.44,0,0,0-.52-.41,2.31,2.31,0,0,0-1.94.14.9.9,0,0,0-.45.77.83.83,0,0,0,.3.66,2.48,2.48,0,0,0,1,.4l1.29.3a3.39,3.39,0,0,1,1.67.8,1.85,1.85,0,0,1,.55,1.4,2.15,2.15,0,0,1-.42,1.3,2.93,2.93,0,0,1-1.16.89,4.46,4.46,0,0,1-1.74.32,3.88,3.88,0,0,1-2.22-.59,2.44,2.44,0,0,1-1.06-1.66l1.53-.23a1.44,1.44,0,0,0,.59.9,2,2,0,0,0,1.15.31,2.13,2.13,0,0,0,1.25-.33.94.94,0,0,0,.46-.79.81.81,0,0,0-.28-.64,1.86,1.86,0,0,0-.87-.4l-1.37-.3a3.23,3.23,0,0,1-1.68-.82,2,2,0,0,1-.54-1.43,2,2,0,0,1,.4-1.26A2.65,2.65,0,0,1,294,194a4,4,0,0,1,1.62-.31,3.4,3.4,0,0,1,2.08.57A2.68,2.68,0,0,1,298.68,195.74Z"/><path d="M304,202a3.68,3.68,0,0,1-2-.54,3.47,3.47,0,0,1-1.3-1.48,5.32,5.32,0,0,1,0-4.35,3.49,3.49,0,0,1,1.31-1.48,3.59,3.59,0,0,1,2-.54,3.92,3.92,0,0,1,1.65.34,3.06,3.06,0,0,1,1.17,1,2.88,2.88,0,0,1,.53,1.43h-1.54a1.81,1.81,0,0,0-.58-1A1.69,1.69,0,0,0,304,195a2,2,0,0,0-1.16.35,2.24,2.24,0,0,0-.77,1,3.88,3.88,0,0,0-.27,1.51,4,4,0,0,0,.27,1.53,2.28,2.28,0,0,0,.76,1,2,2,0,0,0,1.17.35,1.81,1.81,0,0,0,.81-.17,1.7,1.7,0,0,0,.62-.47,1.86,1.86,0,0,0,.35-.75h1.54a3.07,3.07,0,0,1-.51,1.4,3,3,0,0,1-1.15,1A3.64,3.64,0,0,1,304,202Z"/><path d="M311.39,202.05a3.33,3.33,0,0,1-1.4-.28,2.36,2.36,0,0,1-1-.84,2.43,2.43,0,0,1-.37-1.35,2.15,2.15,0,0,1,.27-1.13,2,2,0,0,1,.71-.7,3.93,3.93,0,0,1,1-.39,8.34,8.34,0,0,1,1.13-.2l1.18-.14a1.68,1.68,0,0,0,.66-.19.44.44,0,0,0,.21-.41v0a1.44,1.44,0,0,0-.39-1.07,1.6,1.6,0,0,0-1.16-.38,2,2,0,0,0-1.25.35,2,2,0,0,0-.63.78l-1.49-.34a2.88,2.88,0,0,1,.78-1.19,3.11,3.11,0,0,1,1.17-.67,4.65,4.65,0,0,1,1.4-.21,4.89,4.89,0,0,1,1,.12,3,3,0,0,1,1,.41,2.35,2.35,0,0,1,.79.86,3,3,0,0,1,.3,1.45v5.38h-1.54v-1.1h-.06a2.67,2.67,0,0,1-.46.6,2.47,2.47,0,0,1-.79.49A3,3,0,0,1,311.39,202.05Zm.34-1.26a2.29,2.29,0,0,0,1.12-.26,1.89,1.89,0,0,0,.72-.68,1.78,1.78,0,0,0,.24-.9v-1a.72.72,0,0,1-.32.16,5.15,5.15,0,0,1-.55.12l-.6.09-.48.06a4,4,0,0,0-.84.2,1.42,1.42,0,0,0-.6.39,1,1,0,0,0-.23.68,1,1,0,0,0,.44.89A1.88,1.88,0,0,0,311.73,200.79Z"/><path d="M319.08,191.05v10.82H317.5V191.05Z"/><path d="M324.24,202a3.07,3.07,0,0,1-1.75-.5,3.37,3.37,0,0,1-1.21-1.44,5.36,5.36,0,0,1-.43-2.26,5.13,5.13,0,0,1,.44-2.25,3.36,3.36,0,0,1,1.21-1.43,3.17,3.17,0,0,1,1.75-.5,2.67,2.67,0,0,1,1.22.25,2.4,2.4,0,0,1,.72.59,7,7,0,0,1,.4.58h.09v-4h1.58v10.82h-1.54v-1.26h-.13a5.91,5.91,0,0,1-.41.59,2.2,2.2,0,0,1-.74.58A2.49,2.49,0,0,1,324.24,202Zm.35-1.34a1.78,1.78,0,0,0,1.15-.37,2.14,2.14,0,0,0,.72-1,4.07,4.07,0,0,0,.25-1.5,3.92,3.92,0,0,0-.25-1.48,2.12,2.12,0,0,0-.71-1,1.84,1.84,0,0,0-1.16-.36,1.92,1.92,0,0,0-1.19.37,2.28,2.28,0,0,0-.72,1,4.12,4.12,0,0,0-.24,1.45,4,4,0,0,0,.25,1.46,2.29,2.29,0,0,0,.72,1A1.85,1.85,0,0,0,324.59,200.69Z"/><path d="M332.87,202.05a3.29,3.29,0,0,1-1.39-.28,2.33,2.33,0,0,1-1-.84,2.43,2.43,0,0,1-.36-1.35,2.25,2.25,0,0,1,.26-1.13,2,2,0,0,1,.72-.7,3.86,3.86,0,0,1,1-.39,8.62,8.62,0,0,1,1.13-.2l1.19-.14a1.68,1.68,0,0,0,.66-.19.45.45,0,0,0,.2-.41v0a1.47,1.47,0,0,0-.38-1.07,1.62,1.62,0,0,0-1.16-.38,2,2,0,0,0-1.25.35,2,2,0,0,0-.64.78l-1.48-.34a2.86,2.86,0,0,1,.77-1.19,3.07,3.07,0,0,1,1.18-.67,4.61,4.61,0,0,1,1.4-.21,4.8,4.8,0,0,1,1,.12,3,3,0,0,1,1,.41,2.25,2.25,0,0,1,.78.86,2.92,2.92,0,0,1,.31,1.45v5.38h-1.54v-1.1h-.07a2.19,2.19,0,0,1-.46.6,2.31,2.31,0,0,1-.78.49A3.13,3.13,0,0,1,332.87,202.05Zm.35-1.26a2.32,2.32,0,0,0,1.12-.26,1.86,1.86,0,0,0,.71-.68,1.7,1.7,0,0,0,.25-.9v-1a.84.84,0,0,1-.33.16,5.52,5.52,0,0,1-.54.12l-.6.09-.49.06a4,4,0,0,0-.83.2,1.4,1.4,0,0,0-.61.39,1,1,0,0,0-.22.68,1,1,0,0,0,.43.89A1.91,1.91,0,0,0,333.22,200.79Z"/><path d="M339,201.87v-8.11h1.52v1.32h.1a2.07,2.07,0,0,1,.83-1.05,2.46,2.46,0,0,1,1.38-.38,2.35,2.35,0,0,1,1.36.38,2.32,2.32,0,0,1,.82,1.05h.09a2.31,2.31,0,0,1,.92-1,2.83,2.83,0,0,1,1.51-.39,2.47,2.47,0,0,1,1.81.69,2.87,2.87,0,0,1,.7,2.09v5.44h-1.58v-5.29a1.44,1.44,0,0,0-.45-1.19,1.63,1.63,0,0,0-1.08-.37,1.53,1.53,0,0,0-1.2.47,1.75,1.75,0,0,0-.42,1.21v5.17h-1.58v-5.39a1.43,1.43,0,0,0-.41-1.06,1.46,1.46,0,0,0-1.07-.4,1.51,1.51,0,0,0-.83.23,1.81,1.81,0,0,0-.61.65,2,2,0,0,0-.23,1v5Z"/><path d="M355.63,202a3.93,3.93,0,0,1-2.07-.52,3.4,3.4,0,0,1-1.33-1.45,4.89,4.89,0,0,1-.47-2.2,5,5,0,0,1,.47-2.2,3.52,3.52,0,0,1,3.29-2,4,4,0,0,1,1.33.23,3.16,3.16,0,0,1,2,2,5.26,5.26,0,0,1,.3,1.88v.56h-6.45v-1.18h4.9a2.33,2.33,0,0,0-.25-1.11,1.93,1.93,0,0,0-.71-.76,2,2,0,0,0-1.07-.28,2.1,2.1,0,0,0-1.16.32,2.14,2.14,0,0,0-.76.85,2.42,2.42,0,0,0-.27,1.13v.92a3,3,0,0,0,.29,1.39,2,2,0,0,0,.8.86,2.39,2.39,0,0,0,1.21.3,2.35,2.35,0,0,0,.82-.13,1.65,1.65,0,0,0,.64-.38,1.72,1.72,0,0,0,.41-.64l1.5.27a2.78,2.78,0,0,1-.64,1.15,3.27,3.27,0,0,1-1.16.77A4.33,4.33,0,0,1,355.63,202Z"/><path d="M362.45,197.06v4.81h-1.58v-8.11h1.52v1.32h.1a2.28,2.28,0,0,1,.88-1,2.71,2.71,0,0,1,1.51-.39,2.94,2.94,0,0,1,1.45.35,2.31,2.31,0,0,1,1,1,3.67,3.67,0,0,1,.34,1.68v5.16h-1.58v-5a1.93,1.93,0,0,0-.46-1.38,1.62,1.62,0,0,0-1.26-.5,1.91,1.91,0,0,0-1,.24,1.65,1.65,0,0,0-.67.69A2.28,2.28,0,0,0,362.45,197.06Z"/><path d="M373.55,193.76V195h-4.44v-1.27Zm-3.25-1.95h1.58v7.68a1.37,1.37,0,0,0,.14.69.68.68,0,0,0,.36.31,1.19,1.19,0,0,0,.47.09,1.72,1.72,0,0,0,.34,0l.22,0,.28,1.3a2.47,2.47,0,0,1-.39.11,3.22,3.22,0,0,1-1.79-.16,2,2,0,0,1-1.21-1.94Z"/><path d="M376.09,192.51a1,1,0,0,1-.71-.28.91.91,0,0,1-.29-.66.88.88,0,0,1,.29-.67,1,1,0,0,1,.71-.28,1,1,0,0,1,.7.28.86.86,0,0,1,.3.67.88.88,0,0,1-.3.66A1,1,0,0,1,376.09,192.51Zm-.8,9.36v-8.11h1.58v8.11Z"/><path d="M886.05,183.27h-1.73l3.89-10.82h1.89L894,183.27h-1.73l-3.06-8.85h-.08Zm.29-4.23H892v1.37h-5.63Z"/><path d="M898.72,183.44a3.71,3.71,0,0,1-2-.54,3.53,3.53,0,0,1-1.3-1.48,5,5,0,0,1-.46-2.17,4.89,4.89,0,0,1,.47-2.18,3.56,3.56,0,0,1,1.31-1.48,3.62,3.62,0,0,1,2-.54,3.92,3.92,0,0,1,1.65.34,3.06,3.06,0,0,1,1.17,1,2.79,2.79,0,0,1,.53,1.43h-1.54a1.79,1.79,0,0,0-.57-1,1.71,1.71,0,0,0-1.21-.42,2,2,0,0,0-1.16.35,2.3,2.3,0,0,0-.76,1,3.7,3.7,0,0,0-.28,1.51,4,4,0,0,0,.27,1.53,2.28,2.28,0,0,0,.76,1,2,2,0,0,0,1.17.35,1.85,1.85,0,0,0,.82-.17,1.67,1.67,0,0,0,.61-.47,1.73,1.73,0,0,0,.35-.75h1.54a2.86,2.86,0,0,1-.51,1.4,2.92,2.92,0,0,1-1.14,1A3.71,3.71,0,0,1,898.72,183.44Z"/><path d="M907.17,183.44a3.71,3.71,0,0,1-2-.54,3.53,3.53,0,0,1-1.3-1.48,5,5,0,0,1-.46-2.17,4.89,4.89,0,0,1,.47-2.18,3.56,3.56,0,0,1,1.31-1.48,3.62,3.62,0,0,1,2-.54,3.92,3.92,0,0,1,1.65.34,3.06,3.06,0,0,1,1.17,1,2.79,2.79,0,0,1,.53,1.43H909a1.87,1.87,0,0,0-.58-1,1.71,1.71,0,0,0-1.21-.42,2,2,0,0,0-1.16.35,2.22,2.22,0,0,0-.76,1,3.7,3.7,0,0,0-.28,1.51,4,4,0,0,0,.27,1.53,2.28,2.28,0,0,0,.76,1,2,2,0,0,0,1.17.35,1.85,1.85,0,0,0,.82-.17,1.67,1.67,0,0,0,.61-.47,1.87,1.87,0,0,0,.36-.75h1.53a2.86,2.86,0,0,1-.51,1.4,3,3,0,0,1-1.14,1A3.71,3.71,0,0,1,907.17,183.44Z"/><path d="M915.7,183.44a3.93,3.93,0,0,1-2.07-.52,3.46,3.46,0,0,1-1.33-1.45,5.38,5.38,0,0,1,0-4.4,3.52,3.52,0,0,1,3.29-2,4,4,0,0,1,1.33.23,3.16,3.16,0,0,1,2,2,5.26,5.26,0,0,1,.3,1.88v.56h-6.45v-1.18h4.9a2.33,2.33,0,0,0-.25-1.11,1.93,1.93,0,0,0-.71-.76,2,2,0,0,0-1.07-.28,2.1,2.1,0,0,0-1.16.32,2.25,2.25,0,0,0-.77.85,2.5,2.5,0,0,0-.26,1.13v.92a3.06,3.06,0,0,0,.29,1.38,1.94,1.94,0,0,0,.8.87,2.61,2.61,0,0,0,2,.17,1.65,1.65,0,0,0,.64-.38,1.72,1.72,0,0,0,.41-.64l1.5.26a2.65,2.65,0,0,1-.64,1.16,3.27,3.27,0,0,1-1.16.77A4.33,4.33,0,0,1,915.7,183.44Z"/><path d="M922.52,178.45v4.82h-1.58v-8.11h1.52v1.32h.1a2.28,2.28,0,0,1,.88-1,2.71,2.71,0,0,1,1.51-.39,2.94,2.94,0,0,1,1.45.35,2.31,2.31,0,0,1,1,1,3.67,3.67,0,0,1,.34,1.68v5.16h-1.58v-5a1.93,1.93,0,0,0-.46-1.38,1.62,1.62,0,0,0-1.26-.5,1.91,1.91,0,0,0-1,.24,1.74,1.74,0,0,0-.68.69A2.38,2.38,0,0,0,922.52,178.45Z"/><path d="M935.91,177.14l-1.43.25a1.68,1.68,0,0,0-.29-.52,1.36,1.36,0,0,0-.52-.41,1.93,1.93,0,0,0-.82-.16,2,2,0,0,0-1.12.3.89.89,0,0,0-.44.77.83.83,0,0,0,.3.66,2.41,2.41,0,0,0,1,.4l1.29.3a3.48,3.48,0,0,1,1.67.8,1.89,1.89,0,0,1,.55,1.4,2.15,2.15,0,0,1-.42,1.3,2.89,2.89,0,0,1-1.17.89,4.45,4.45,0,0,1-1.73.32,3.91,3.91,0,0,1-2.23-.59,2.45,2.45,0,0,1-1-1.66L931,181a1.43,1.43,0,0,0,.58.9,2,2,0,0,0,1.16.3,2.09,2.09,0,0,0,1.24-.32,1,1,0,0,0,.47-.8.82.82,0,0,0-.29-.63,1.82,1.82,0,0,0-.86-.4l-1.38-.3a3.24,3.24,0,0,1-1.67-.82,2,2,0,0,1-.54-1.43,2,2,0,0,1,.4-1.26,2.58,2.58,0,0,1,1.11-.84,3.94,3.94,0,0,1,1.62-.31,3.35,3.35,0,0,1,2.07.57A2.66,2.66,0,0,1,935.91,177.14Z"/><path d="M938.6,173.91a1,1,0,0,1-.71-.28.92.92,0,0,1-.29-.67.88.88,0,0,1,.29-.66,1,1,0,0,1,.71-.28,1,1,0,0,1,.7.28.85.85,0,0,1,.3.66.89.89,0,0,1-.3.67A1,1,0,0,1,938.6,173.91Zm-.8,9.36v-8.11h1.58v8.11Z"/><path d="M944.92,183.44a3.72,3.72,0,0,1-2-.53,3.41,3.41,0,0,1-1.32-1.46,5.41,5.41,0,0,1,0-4.41,3.41,3.41,0,0,1,1.32-1.46,4,4,0,0,1,4,0,3.53,3.53,0,0,1,1.32,1.46,5.41,5.41,0,0,1,0,4.41,3.53,3.53,0,0,1-1.32,1.46A3.76,3.76,0,0,1,944.92,183.44Zm0-1.33a1.93,1.93,0,0,0,1.23-.39,2.38,2.38,0,0,0,.72-1,4.56,4.56,0,0,0,0-2.86,2.35,2.35,0,0,0-.72-1,1.88,1.88,0,0,0-1.23-.4,1.84,1.84,0,0,0-1.23.4,2.29,2.29,0,0,0-.73,1,4.56,4.56,0,0,0,0,2.86,2.32,2.32,0,0,0,.73,1A1.89,1.89,0,0,0,944.93,182.11Z"/><path d="M952.05,178.45v4.82h-1.58v-8.11H952v1.32h.1a2.34,2.34,0,0,1,.88-1,2.75,2.75,0,0,1,1.52-.39,3,3,0,0,1,1.45.35,2.31,2.31,0,0,1,1,1,3.67,3.67,0,0,1,.34,1.68v5.16h-1.58v-5a1.93,1.93,0,0,0-.46-1.38,1.63,1.63,0,0,0-1.26-.5,2,2,0,0,0-1,.24,1.78,1.78,0,0,0-.67.69A2.38,2.38,0,0,0,952.05,178.45Z"/><path d="M962.85,183.44a3.89,3.89,0,0,1-2.06-.52,3.4,3.4,0,0,1-1.33-1.45,5.38,5.38,0,0,1,0-4.4,3.52,3.52,0,0,1,3.28-2,4,4,0,0,1,1.33.23,3.25,3.25,0,0,1,1.16.71,3.51,3.51,0,0,1,.81,1.26,5.26,5.26,0,0,1,.3,1.88v.56h-6.46v-1.18h4.91a2.33,2.33,0,0,0-.26-1.11,1.86,1.86,0,0,0-.71-.76,2,2,0,0,0-1.07-.28,2.12,2.12,0,0,0-1.16.32,2.22,2.22,0,0,0-.76.85,2.38,2.38,0,0,0-.26,1.13v.92a3.06,3.06,0,0,0,.28,1.38,2,2,0,0,0,.81.87,2.61,2.61,0,0,0,2,.17,1.73,1.73,0,0,0,.64-.38,1.85,1.85,0,0,0,.41-.64l1.5.26a2.67,2.67,0,0,1-.65,1.16,3.14,3.14,0,0,1-1.15.77A4.38,4.38,0,0,1,962.85,183.44Z"/><path d="M885,201.87v-8.11h1.53v1.29h.08a2,2,0,0,1,.79-1,2.23,2.23,0,0,1,1.27-.37H889l.32,0v1.52l-.33-.07-.49,0a2.08,2.08,0,0,0-1,.24,1.77,1.77,0,0,0-.69.64,1.8,1.8,0,0,0-.25.95v5Z"/><path d="M891.53,192.51a1,1,0,0,1-.71-.28.91.91,0,0,1-.29-.66.88.88,0,0,1,.29-.67,1,1,0,0,1,.71-.28,1,1,0,0,1,.7.28.86.86,0,0,1,.3.67.88.88,0,0,1-.3.66A1,1,0,0,1,891.53,192.51Zm-.8,9.36v-8.11h1.58v8.11Z"/><path d="M900.51,195.74l-1.43.25a1.76,1.76,0,0,0-.28-.52,1.44,1.44,0,0,0-.52-.41,2.31,2.31,0,0,0-1.94.14.9.9,0,0,0-.45.77.83.83,0,0,0,.3.66,2.46,2.46,0,0,0,1,.4l1.28.3a3.39,3.39,0,0,1,1.67.8,1.85,1.85,0,0,1,.55,1.4,2.15,2.15,0,0,1-.42,1.3,2.93,2.93,0,0,1-1.16.89,4.46,4.46,0,0,1-1.74.32,3.88,3.88,0,0,1-2.22-.59,2.44,2.44,0,0,1-1.06-1.66l1.53-.23a1.44,1.44,0,0,0,.59.9,2,2,0,0,0,1.15.31,2.13,2.13,0,0,0,1.25-.33.94.94,0,0,0,.46-.79.81.81,0,0,0-.28-.64,1.86,1.86,0,0,0-.87-.4l-1.37-.3a3.23,3.23,0,0,1-1.68-.82,2,2,0,0,1-.54-1.43,2,2,0,0,1,.4-1.26,2.65,2.65,0,0,1,1.11-.84,4,4,0,0,1,1.62-.31,3.4,3.4,0,0,1,2.08.57A2.68,2.68,0,0,1,900.51,195.74Z"/><path d="M905.83,202a3.68,3.68,0,0,1-2-.54,3.47,3.47,0,0,1-1.3-1.48,5.32,5.32,0,0,1,0-4.35,3.49,3.49,0,0,1,1.31-1.48,3.62,3.62,0,0,1,2-.54,3.92,3.92,0,0,1,1.65.34,3.06,3.06,0,0,1,1.17,1,2.88,2.88,0,0,1,.53,1.43h-1.54a1.81,1.81,0,0,0-.58-1,1.69,1.69,0,0,0-1.2-.42,2,2,0,0,0-1.16.35,2.32,2.32,0,0,0-.77,1,3.88,3.88,0,0,0-.27,1.51,4,4,0,0,0,.27,1.53,2.28,2.28,0,0,0,.76,1,2,2,0,0,0,1.17.35,1.78,1.78,0,0,0,.81-.17,1.7,1.7,0,0,0,.62-.47,1.73,1.73,0,0,0,.35-.75h1.54a3.07,3.07,0,0,1-.51,1.4,3,3,0,0,1-1.15,1A3.64,3.64,0,0,1,905.83,202Z"/><path d="M913.22,202.05a3.33,3.33,0,0,1-1.4-.28,2.36,2.36,0,0,1-1-.84,2.43,2.43,0,0,1-.36-1.35,2.15,2.15,0,0,1,.26-1.13,2,2,0,0,1,.71-.7,3.93,3.93,0,0,1,1-.39,8.34,8.34,0,0,1,1.13-.2l1.18-.14a1.58,1.58,0,0,0,.66-.19.44.44,0,0,0,.21-.41v0a1.44,1.44,0,0,0-.39-1.07,1.6,1.6,0,0,0-1.16-.38,1.89,1.89,0,0,0-1.88,1.13l-1.49-.34a2.88,2.88,0,0,1,.78-1.19,3.11,3.11,0,0,1,1.17-.67,4.7,4.7,0,0,1,1.4-.21,4.89,4.89,0,0,1,1,.12,3,3,0,0,1,1,.41,2.35,2.35,0,0,1,.79.86,3,3,0,0,1,.3,1.45v5.38h-1.54v-1.1h-.06a2.67,2.67,0,0,1-.46.6,2.47,2.47,0,0,1-.79.49A3,3,0,0,1,913.22,202.05Zm.34-1.26a2.29,2.29,0,0,0,1.12-.26,1.89,1.89,0,0,0,.72-.68,1.78,1.78,0,0,0,.24-.9v-1a.72.72,0,0,1-.32.16,5.15,5.15,0,0,1-.55.12l-.6.09-.48.06a4,4,0,0,0-.84.2,1.42,1.42,0,0,0-.6.39,1,1,0,0,0-.23.68,1,1,0,0,0,.44.89A1.88,1.88,0,0,0,913.56,200.79Z"/><path d="M920.91,191.05v10.82h-1.58V191.05Z"/><path d="M926.07,202a3.07,3.07,0,0,1-1.75-.5,3.45,3.45,0,0,1-1.21-1.44,5.36,5.36,0,0,1-.43-2.26,5.13,5.13,0,0,1,.44-2.25,3.36,3.36,0,0,1,1.21-1.43,3.17,3.17,0,0,1,1.75-.5,2.67,2.67,0,0,1,1.22.25,2.28,2.28,0,0,1,.72.59,7,7,0,0,1,.4.58h.09v-4h1.58v10.82h-1.54v-1.26h-.13a5.91,5.91,0,0,1-.41.59,2.2,2.2,0,0,1-.74.58A2.49,2.49,0,0,1,926.07,202Zm.35-1.34a1.78,1.78,0,0,0,1.15-.37,2.14,2.14,0,0,0,.72-1,4.07,4.07,0,0,0,.25-1.5,3.92,3.92,0,0,0-.25-1.48,2.12,2.12,0,0,0-.71-1,1.84,1.84,0,0,0-1.16-.36,1.92,1.92,0,0,0-1.19.37,2.28,2.28,0,0,0-.72,1,4.12,4.12,0,0,0-.24,1.45,4,4,0,0,0,.25,1.46,2.29,2.29,0,0,0,.72,1A1.85,1.85,0,0,0,926.42,200.69Z"/><path d="M934.7,202.05a3.29,3.29,0,0,1-1.39-.28,2.33,2.33,0,0,1-1-.84,2.43,2.43,0,0,1-.36-1.35,2.15,2.15,0,0,1,.27-1.13,1.91,1.91,0,0,1,.71-.7,3.86,3.86,0,0,1,1-.39,8.62,8.62,0,0,1,1.13-.2l1.19-.14a1.68,1.68,0,0,0,.66-.19.43.43,0,0,0,.2-.41v0a1.43,1.43,0,0,0-.38-1.07,1.62,1.62,0,0,0-1.16-.38,2,2,0,0,0-1.25.35,2,2,0,0,0-.64.78l-1.48-.34a2.86,2.86,0,0,1,.77-1.19,3.15,3.15,0,0,1,1.18-.67,4.61,4.61,0,0,1,1.4-.21,4.8,4.8,0,0,1,1,.12,3,3,0,0,1,1,.41,2.25,2.25,0,0,1,.78.86,2.92,2.92,0,0,1,.31,1.45v5.38h-1.54v-1.1h-.07a2.19,2.19,0,0,1-.46.6,2.31,2.31,0,0,1-.78.49A3.1,3.1,0,0,1,934.7,202.05Zm.35-1.26a2.32,2.32,0,0,0,1.12-.26,1.86,1.86,0,0,0,.71-.68,1.7,1.7,0,0,0,.25-.9v-1a.77.77,0,0,1-.33.16,5.52,5.52,0,0,1-.54.12l-.6.09-.49.06a4,4,0,0,0-.83.2,1.46,1.46,0,0,0-.61.39,1,1,0,0,0-.22.68,1,1,0,0,0,.43.89A1.91,1.91,0,0,0,935.05,200.79Z"/><path d="M940.81,201.87v-8.11h1.52v1.32h.1a2.12,2.12,0,0,1,.83-1.05,2.46,2.46,0,0,1,1.38-.38A2.4,2.4,0,0,1,946,194a2.37,2.37,0,0,1,.81,1.05h.09a2.31,2.31,0,0,1,.92-1,2.83,2.83,0,0,1,1.51-.39,2.47,2.47,0,0,1,1.81.69,2.87,2.87,0,0,1,.7,2.09v5.44h-1.58v-5.29a1.44,1.44,0,0,0-.45-1.19,1.63,1.63,0,0,0-1.08-.37,1.5,1.5,0,0,0-1.19.47,1.71,1.71,0,0,0-.43,1.21v5.17h-1.58v-5.39a1.39,1.39,0,0,0-.41-1.06,1.46,1.46,0,0,0-1.07-.4,1.51,1.51,0,0,0-.83.23,1.91,1.91,0,0,0-.61.65,2,2,0,0,0-.23,1v5Z"/><path d="M957.46,202a3.93,3.93,0,0,1-2.07-.52,3.4,3.4,0,0,1-1.33-1.45,4.89,4.89,0,0,1-.47-2.2,5,5,0,0,1,.47-2.2,3.52,3.52,0,0,1,3.29-2,4,4,0,0,1,1.33.23,3.16,3.16,0,0,1,2,2,5.26,5.26,0,0,1,.3,1.88v.56h-6.45v-1.18h4.9a2.33,2.33,0,0,0-.25-1.11,1.93,1.93,0,0,0-.71-.76,2,2,0,0,0-1.07-.28,2.1,2.1,0,0,0-1.16.32,2.14,2.14,0,0,0-.76.85,2.42,2.42,0,0,0-.27,1.13v.92a3.1,3.1,0,0,0,.29,1.39,2,2,0,0,0,.8.86,2.39,2.39,0,0,0,1.21.3,2.35,2.35,0,0,0,.82-.13,1.65,1.65,0,0,0,.64-.38,1.72,1.72,0,0,0,.41-.64l1.5.27a2.67,2.67,0,0,1-.64,1.15,3.27,3.27,0,0,1-1.16.77A4.33,4.33,0,0,1,957.46,202Z"/><path d="M964.28,197.06v4.81H962.7v-8.11h1.52v1.32h.1a2.28,2.28,0,0,1,.88-1,2.71,2.71,0,0,1,1.51-.39,2.94,2.94,0,0,1,1.45.35,2.31,2.31,0,0,1,1,1,3.67,3.67,0,0,1,.34,1.68v5.16h-1.58v-5a1.93,1.93,0,0,0-.46-1.38,1.62,1.62,0,0,0-1.26-.5,1.94,1.94,0,0,0-1,.24,1.65,1.65,0,0,0-.67.69A2.28,2.28,0,0,0,964.28,197.06Z"/><path d="M975.38,193.76V195h-4.44v-1.27Zm-3.25-1.95h1.58v7.68a1.37,1.37,0,0,0,.14.69.68.68,0,0,0,.36.31,1.19,1.19,0,0,0,.47.09,1.72,1.72,0,0,0,.34,0l.22,0,.28,1.3a2.47,2.47,0,0,1-.39.11,2.74,2.74,0,0,1-.63.06,2.79,2.79,0,0,1-1.16-.22,2,2,0,0,1-1.21-1.94Z"/><path d="M977.92,192.51a1,1,0,0,1-.71-.28.91.91,0,0,1-.29-.66.88.88,0,0,1,.29-.67,1,1,0,0,1,.71-.28,1,1,0,0,1,.7.28.86.86,0,0,1,.3.67.88.88,0,0,1-.3.66A1,1,0,0,1,977.92,192.51Zm-.8,9.36v-8.11h1.58v8.11Z"/><g class="cls-5"><circle class="cls-4" cx="177.99" cy="113.64" r="9.75"/></g><g class="cls-6"><rect class="cls-7" x="193.68" y="93.41" width="85.48" height="40.46" rx="1.58"/></g><path class="cls-4" d="M277.59,134H195.26a1.73,1.73,0,0,1-1.73-1.72V95a1.74,1.74,0,0,1,1.73-1.73h82.33A1.73,1.73,0,0,1,279.32,95V132.3A1.72,1.72,0,0,1,277.59,134ZM195.26,93.56A1.42,1.42,0,0,0,193.84,95V132.3a1.42,1.42,0,0,0,1.42,1.42h82.33A1.43,1.43,0,0,0,279,132.3V95a1.43,1.43,0,0,0-1.43-1.43Z"/><path d="M199.53,98.16v6.55h-1.19V99.32h0l-1.53,1V99.21l1.63-1Z"/><path d="M203.49,104.71V98.16h4.19v1h-3v1.78h2.72v1h-2.72v2.78Z"/><path d="M210.52,104.81a2.57,2.57,0,0,1-1.27-.31,2.05,2.05,0,0,1-.82-.88,2.82,2.82,0,0,1-.29-1.34,3,3,0,0,1,.29-1.33,2.12,2.12,0,0,1,.81-.89,2.22,2.22,0,0,1,1.22-.32,2.72,2.72,0,0,1,.86.14,2.08,2.08,0,0,1,.72.45,2.21,2.21,0,0,1,.49.77,3.17,3.17,0,0,1,.18,1.12v.35h-4v-.78h2.92a1.26,1.26,0,0,0-.15-.59,1,1,0,0,0-.39-.41,1.11,1.11,0,0,0-.58-.15,1.15,1.15,0,0,0-1,.62,1.21,1.21,0,0,0-.15.6v.68a1.68,1.68,0,0,0,.15.74,1.09,1.09,0,0,0,.44.46,1.3,1.3,0,0,0,.66.17,1.34,1.34,0,0,0,.46-.08,1.13,1.13,0,0,0,.35-.21.86.86,0,0,0,.23-.35l1.08.12a1.69,1.69,0,0,1-.39.75,1.81,1.81,0,0,1-.73.49A2.73,2.73,0,0,1,210.52,104.81Z"/><path d="M213.74,104.71V98.16h1.15v2.45h.05a2.23,2.23,0,0,1,.25-.38,1.58,1.58,0,0,1,.44-.35,1.66,1.66,0,0,1,.71-.14,1.82,1.82,0,0,1,1,.29,1.92,1.92,0,0,1,.73.85,3.66,3.66,0,0,1,0,2.76,2,2,0,0,1-.72.86,1.83,1.83,0,0,1-1,.3,1.58,1.58,0,0,1-.7-.14,1.48,1.48,0,0,1-.45-.34,2.35,2.35,0,0,1-.26-.38h-.07v.77Zm1.13-2.45a2.37,2.37,0,0,0,.14.83,1.29,1.29,0,0,0,.39.56,1,1,0,0,0,.62.2,1,1,0,0,0,.65-.21,1.29,1.29,0,0,0,.39-.56,2.35,2.35,0,0,0,.13-.82,2.31,2.31,0,0,0-.13-.82,1.25,1.25,0,0,0-.39-.55,1,1,0,0,0-.65-.2,1,1,0,0,0-.63.19,1.2,1.2,0,0,0-.39.55A2.3,2.3,0,0,0,214.87,102.26Z"/><path d="M219.41,104.71V98.16h1.16v2.45h0a2.35,2.35,0,0,1,.26-.38,1.33,1.33,0,0,1,.44-.35,1.6,1.6,0,0,1,.71-.14,1.79,1.79,0,0,1,1,.29,1.92,1.92,0,0,1,.73.85,3.2,3.2,0,0,1,.27,1.38,3.36,3.36,0,0,1-.26,1.38,2.07,2.07,0,0,1-.73.86,1.81,1.81,0,0,1-1,.3,1.43,1.43,0,0,1-1.15-.48,2.35,2.35,0,0,1-.26-.38h-.06v.77Zm1.13-2.45a2.37,2.37,0,0,0,.14.83,1.29,1.29,0,0,0,.39.56,1,1,0,0,0,.63.2,1,1,0,0,0,.64-.21,1.29,1.29,0,0,0,.39-.56,2.35,2.35,0,0,0,.13-.82,2.31,2.31,0,0,0-.13-.82,1.25,1.25,0,0,0-.39-.55,1,1,0,0,0-.64-.2,1,1,0,0,0-.63.19,1.15,1.15,0,0,0-.4.55A2.54,2.54,0,0,0,220.54,102.26Z"/><path d="M225,104.71V99.8h1.12v.82h0a1.28,1.28,0,0,1,.47-.66,1.25,1.25,0,0,1,.74-.23h.22l.2,0v1.07a.89.89,0,0,0-.23,0l-.31,0a1.13,1.13,0,0,0-.56.14,1,1,0,0,0-.54.92v2.89Z"/><path d="M229.92,104.81a2.07,2.07,0,0,1-.84-.17,1.37,1.37,0,0,1-.59-.5,1.48,1.48,0,0,1-.21-.81,1.4,1.4,0,0,1,.15-.68,1.11,1.11,0,0,1,.42-.44,2.3,2.3,0,0,1,.6-.25q.33-.08.69-.12l.7-.08a.94.94,0,0,0,.39-.12.26.26,0,0,0,.12-.24v0a.73.73,0,0,0-.21-.56.89.89,0,0,0-.62-.2,1.07,1.07,0,0,0-.67.19.94.94,0,0,0-.33.44l-1.08-.16a1.63,1.63,0,0,1,.42-.75,1.77,1.77,0,0,1,.72-.45,3.05,3.05,0,0,1,1.64-.07,2.35,2.35,0,0,1,.65.27,1.48,1.48,0,0,1,.47.52,1.8,1.8,0,0,1,.17.81v3.29H231.4V104h0a1.67,1.67,0,0,1-.29.38,1.41,1.41,0,0,1-.48.28A1.92,1.92,0,0,1,229.92,104.81Zm.3-.85a1.27,1.27,0,0,0,.6-.14,1,1,0,0,0,.54-.87v-.58a.49.49,0,0,1-.19.08,1.77,1.77,0,0,1-.29.07l-.31,0-.27,0a1.62,1.62,0,0,0-.47.12.74.74,0,0,0-.32.22.52.52,0,0,0-.12.36.55.55,0,0,0,.24.49A1,1,0,0,0,230.22,104Z"/><path d="M234.26,99.1a.67.67,0,0,1-.47-.18.6.6,0,0,1,0-.89.67.67,0,0,1,.47-.18.66.66,0,0,1,.47.18.56.56,0,0,1,.2.45.55.55,0,0,1-.2.44A.66.66,0,0,1,234.26,99.1Zm-.58,5.61V99.8h1.16v4.91Z"/><path d="M238.17,104.81a2.39,2.39,0,0,1-1.25-.32,2.21,2.21,0,0,1-.82-.89,2.9,2.9,0,0,1-.29-1.33,3,3,0,0,1,.29-1.33,2.21,2.21,0,0,1,.82-.89,2.66,2.66,0,0,1,2.49,0,2.14,2.14,0,0,1,.82.89,3,3,0,0,1,.29,1.33,2.9,2.9,0,0,1-.29,1.33,2.14,2.14,0,0,1-.82.89A2.38,2.38,0,0,1,238.17,104.81Zm0-.93a1,1,0,0,0,.65-.22,1.24,1.24,0,0,0,.4-.58,2.55,2.55,0,0,0,.12-.81,2.66,2.66,0,0,0-.12-.82,1.34,1.34,0,0,0-.4-.58,1,1,0,0,0-.65-.22,1,1,0,0,0-.66.22,1.25,1.25,0,0,0-.39.58,2.39,2.39,0,0,0-.13.82,2.3,2.3,0,0,0,.13.81,1.15,1.15,0,0,0,.39.58A1,1,0,0,0,238.17,103.88Z"/><path d="M197.87,109.83v6.54h-.8v-6.54Z"/><path d="M200.1,113.42v3h-.75v-4.9h.73v.76h.06a1.4,1.4,0,0,1,.53-.6,1.62,1.62,0,0,1,.9-.23,1.87,1.87,0,0,1,.88.2,1.4,1.4,0,0,1,.58.62,2.26,2.26,0,0,1,.21,1v3.11h-.76v-3.06a1.3,1.3,0,0,0-.3-.91,1.08,1.08,0,0,0-.82-.32,1.28,1.28,0,0,0-.65.16,1.06,1.06,0,0,0-.44.45A1.51,1.51,0,0,0,200.1,113.42Z"/><path d="M206.61,116.48a2.13,2.13,0,0,1-1.19-.33,2.09,2.09,0,0,1-.76-.9,3,3,0,0,1-.27-1.3,3.13,3.13,0,0,1,.27-1.33,2.19,2.19,0,0,1,.78-.89,2,2,0,0,1,1.16-.33,2.3,2.3,0,0,1,.93.19,1.74,1.74,0,0,1,.68.54,1.62,1.62,0,0,1,.33.81h-.75a1.14,1.14,0,0,0-1.18-.86,1.34,1.34,0,0,0-.77.23,1.43,1.43,0,0,0-.51.64,2.27,2.27,0,0,0-.19,1,2.5,2.5,0,0,0,.18,1,1.55,1.55,0,0,0,.51.66,1.35,1.35,0,0,0,.78.23,1.25,1.25,0,0,0,.53-.1,1.13,1.13,0,0,0,.65-.76h.75a1.78,1.78,0,0,1-.31.78,1.68,1.68,0,0,1-.66.55A2.12,2.12,0,0,1,206.61,116.48Z"/><path d="M211.7,116.48a2.29,2.29,0,0,1-1.22-.32,2,2,0,0,1-.79-.88,2.91,2.91,0,0,1-.28-1.32,3,3,0,0,1,.28-1.33,2.07,2.07,0,0,1,1.93-1.23,2.21,2.21,0,0,1,.76.13,1.91,1.91,0,0,1,.68.41,2.08,2.08,0,0,1,.49.76,3.25,3.25,0,0,1,.18,1.16v.32H210v-.66h3a1.64,1.64,0,0,0-.17-.74,1.22,1.22,0,0,0-.47-.51,1.26,1.26,0,0,0-.71-.19,1.35,1.35,0,0,0-.78.22,1.56,1.56,0,0,0-.5.58,1.66,1.66,0,0,0-.17.76v.43a2,2,0,0,0,.19.94,1.35,1.35,0,0,0,.54.59,1.58,1.58,0,0,0,.8.2,1.53,1.53,0,0,0,.54-.09,1.12,1.12,0,0,0,.42-.25,1.43,1.43,0,0,0,.27-.43l.73.21a1.74,1.74,0,0,1-.39.65,1.93,1.93,0,0,1-.67.43A2.36,2.36,0,0,1,211.7,116.48Z"/><path d="M215.64,113.42v3h-.76v-4.9h.73v.76h.06a1.47,1.47,0,0,1,.53-.6,1.66,1.66,0,0,1,.91-.23,1.86,1.86,0,0,1,.87.2,1.4,1.4,0,0,1,.58.62,2.26,2.26,0,0,1,.21,1v3.11H218v-3.06a1.3,1.3,0,0,0-.3-.91,1.08,1.08,0,0,0-.82-.32,1.22,1.22,0,0,0-.64.16,1.08,1.08,0,0,0-.45.45A1.51,1.51,0,0,0,215.64,113.42Z"/><path d="M222,116.48a1.88,1.88,0,0,1-1.08-.32,2.08,2.08,0,0,1-.74-.88,3.61,3.61,0,0,1,0-2.69,2.15,2.15,0,0,1,.74-.88,1.94,1.94,0,0,1,1.1-.31,1.44,1.44,0,0,1,.75.16,1.2,1.2,0,0,1,.43.36c.1.13.18.24.23.32h.07v-2.41h.75v6.54h-.73v-.75h-.09c-.05.09-.13.2-.23.34a1.49,1.49,0,0,1-.44.36A1.62,1.62,0,0,1,222,116.48Zm.11-.68a1.21,1.21,0,0,0,.76-.24,1.49,1.49,0,0,0,.48-.66,2.69,2.69,0,0,0,.16-1,2.54,2.54,0,0,0-.16-1,1.37,1.37,0,0,0-.47-.65,1.43,1.43,0,0,0-1.57,0,1.58,1.58,0,0,0-.48.67,2.7,2.7,0,0,0-.16.93,2.59,2.59,0,0,0,.17,1,1.46,1.46,0,0,0,.47.68A1.25,1.25,0,0,0,222.11,115.8Z"/><path d="M226.12,110.65a.54.54,0,0,1-.38-.15.5.5,0,0,1-.16-.36.47.47,0,0,1,.16-.36.53.53,0,0,1,.76,0,.47.47,0,0,1,.16.36.5.5,0,0,1-.16.36A.54.54,0,0,1,226.12,110.65Zm-.38,5.72v-4.9h.75v4.9Z"/><path d="M229.87,116.48a2.14,2.14,0,0,1-1.17-.32,2.22,2.22,0,0,1-.78-.88,3.32,3.32,0,0,1,0-2.67,2.19,2.19,0,0,1,.78-.89,2.28,2.28,0,0,1,2.33,0,2.19,2.19,0,0,1,.78.89,3.32,3.32,0,0,1,0,2.67,2.22,2.22,0,0,1-.78.88A2.12,2.12,0,0,1,229.87,116.48Zm0-.68a1.33,1.33,0,0,0,.83-.26,1.62,1.62,0,0,0,.48-.68,2.7,2.7,0,0,0,0-1.83,1.65,1.65,0,0,0-.48-.69,1.47,1.47,0,0,0-1.67,0,1.65,1.65,0,0,0-.48.69,2.87,2.87,0,0,0,0,1.83,1.62,1.62,0,0,0,.48.68A1.34,1.34,0,0,0,229.87,115.8Z"/><path d="M235.77,118.22v-6.75h.73v.77h.09l.23-.32a1.2,1.2,0,0,1,.43-.36,1.51,1.51,0,0,1,.76-.16,1.91,1.91,0,0,1,1.09.31,2.07,2.07,0,0,1,.74.88,3.49,3.49,0,0,1,0,2.69,2,2,0,0,1-.74.88,1.88,1.88,0,0,1-1.08.32,1.65,1.65,0,0,1-.76-.16,1.44,1.44,0,0,1-.43-.36c-.11-.14-.18-.25-.24-.34h-.06v2.6Zm.74-4.3a2.68,2.68,0,0,0,.17,1,1.4,1.4,0,0,0,.47.66,1.24,1.24,0,0,0,.77.24,1.22,1.22,0,0,0,.79-.25,1.56,1.56,0,0,0,.48-.68,2.59,2.59,0,0,0,.16-1,2.49,2.49,0,0,0-.16-.93,1.49,1.49,0,0,0-.47-.67,1.29,1.29,0,0,0-.8-.24,1.26,1.26,0,0,0-.77.23,1.46,1.46,0,0,0-.48.65A2.75,2.75,0,0,0,236.51,113.92Z"/><path d="M241.26,116.37v-4.9H242v.74H242a1.16,1.16,0,0,1,.48-.59,1.38,1.38,0,0,1,.79-.23h.4v.77l-.17,0a1.37,1.37,0,0,0-.29,0,1.34,1.34,0,0,0-.64.15,1.15,1.15,0,0,0-.44.41,1.07,1.07,0,0,0-.16.59v3.1Z"/><path d="M246.51,116.48a2.29,2.29,0,0,1-1.22-.32,2,2,0,0,1-.79-.88,2.91,2.91,0,0,1-.28-1.32,3,3,0,0,1,.28-1.33,2.07,2.07,0,0,1,1.93-1.23,2.21,2.21,0,0,1,.76.13,1.91,1.91,0,0,1,.68.41,2,2,0,0,1,.49.76,3.25,3.25,0,0,1,.18,1.16v.32h-3.78v-.66h3a1.64,1.64,0,0,0-.17-.74,1.22,1.22,0,0,0-.47-.51,1.26,1.26,0,0,0-.71-.19,1.29,1.29,0,0,0-.77.22,1.5,1.5,0,0,0-.51.58,1.66,1.66,0,0,0-.17.76v.43a2,2,0,0,0,.19.94,1.35,1.35,0,0,0,.54.59,1.61,1.61,0,0,0,.8.2,1.53,1.53,0,0,0,.54-.09,1.12,1.12,0,0,0,.42-.25,1.43,1.43,0,0,0,.27-.43l.73.21a1.74,1.74,0,0,1-.39.65,1.93,1.93,0,0,1-.67.43A2.36,2.36,0,0,1,246.51,116.48Z"/><path d="M253.17,112.57l-.68.19a1.06,1.06,0,0,0-.18-.33,1,1,0,0,0-.34-.27,1.2,1.2,0,0,0-.54-.11,1.28,1.28,0,0,0-.75.21.61.61,0,0,0-.3.52.54.54,0,0,0,.21.45,1.77,1.77,0,0,0,.64.27l.73.18a2.09,2.09,0,0,1,1,.48,1.18,1.18,0,0,1,.32.85,1.24,1.24,0,0,1-.24.75,1.6,1.6,0,0,1-.67.52,2.46,2.46,0,0,1-1,.2,2.18,2.18,0,0,1-1.24-.33,1.41,1.41,0,0,1-.62-1l.71-.18a1,1,0,0,0,.39.59,1.23,1.23,0,0,0,.75.2,1.42,1.42,0,0,0,.84-.22.65.65,0,0,0,.31-.55.54.54,0,0,0-.18-.42,1.13,1.13,0,0,0-.55-.27l-.82-.19a1.92,1.92,0,0,1-1-.49,1.2,1.2,0,0,1-.31-.85,1.22,1.22,0,0,1,.23-.73,1.58,1.58,0,0,1,.65-.51,2.25,2.25,0,0,1,.92-.18,1.87,1.87,0,0,1,1.15.32A1.73,1.73,0,0,1,253.17,112.57Z"/><path d="M257.88,112.57l-.68.19a1.35,1.35,0,0,0-.19-.33.89.89,0,0,0-.33-.27,1.2,1.2,0,0,0-.54-.11,1.28,1.28,0,0,0-.75.21.61.61,0,0,0-.3.52.56.56,0,0,0,.2.45,1.85,1.85,0,0,0,.64.27l.73.18a2,2,0,0,1,1,.48,1.14,1.14,0,0,1,.32.85,1.24,1.24,0,0,1-.24.75,1.54,1.54,0,0,1-.67.52,2.41,2.41,0,0,1-1,.2,2.22,2.22,0,0,1-1.25-.33,1.48,1.48,0,0,1-.62-1l.72-.18a1,1,0,0,0,.38.59,1.25,1.25,0,0,0,.75.2,1.38,1.38,0,0,0,.84-.22.65.65,0,0,0,.31-.55.54.54,0,0,0-.17-.42,1.18,1.18,0,0,0-.55-.27l-.82-.19a1.92,1.92,0,0,1-1-.49,1.21,1.21,0,0,1-.32-.85,1.16,1.16,0,0,1,.24-.73,1.55,1.55,0,0,1,.64-.51,2.27,2.27,0,0,1,.93-.18,1.86,1.86,0,0,1,1.14.32A1.75,1.75,0,0,1,257.88,112.57Z"/><path d="M261.1,116.48a2.14,2.14,0,0,1-1.17-.32,2.22,2.22,0,0,1-.78-.88,3.32,3.32,0,0,1,0-2.67,2.19,2.19,0,0,1,.78-.89,2.28,2.28,0,0,1,2.33,0,2.19,2.19,0,0,1,.78.89,3.32,3.32,0,0,1,0,2.67,2.22,2.22,0,0,1-.78.88A2.12,2.12,0,0,1,261.1,116.48Zm0-.68a1.33,1.33,0,0,0,.83-.26,1.53,1.53,0,0,0,.48-.68,2.7,2.7,0,0,0,0-1.83,1.57,1.57,0,0,0-.48-.69,1.33,1.33,0,0,0-.83-.26,1.29,1.29,0,0,0-.83.26,1.58,1.58,0,0,0-.49.69,2.87,2.87,0,0,0,0,1.83,1.55,1.55,0,0,0,.49.68A1.29,1.29,0,0,0,261.1,115.8Z"/><path d="M267.39,110.65a.52.52,0,0,1-.38-.15.46.46,0,0,1-.16-.36.44.44,0,0,1,.16-.36.49.49,0,0,1,.38-.16.49.49,0,0,1,.37.16.44.44,0,0,1,.16.36.46.46,0,0,1-.16.36A.51.51,0,0,1,267.39,110.65Zm-.39,5.72v-4.9h.76v4.9Z"/><path d="M269.89,109.83v6.54h-.75v-6.54Z"/><path d="M197.07,121.49h1l2.23,5.44h.07l2.23-5.44h.94V128h-.74v-5h-.06l-2.05,5h-.72l-2-5h-.06v5h-.75Z"/><path d="M207,128.14a2.28,2.28,0,0,1-1.22-.31,2.14,2.14,0,0,1-.79-.89,3,3,0,0,1-.27-1.32,3.13,3.13,0,0,1,.27-1.33,2.21,2.21,0,0,1,.78-.9,2,2,0,0,1,1.16-.32,2.4,2.4,0,0,1,.75.12,1.95,1.95,0,0,1,1.17,1.17,3.06,3.06,0,0,1,.19,1.16v.32h-3.79v-.65h3a1.58,1.58,0,0,0-.17-.74,1.29,1.29,0,0,0-.46-.52,1.43,1.43,0,0,0-1.49,0,1.47,1.47,0,0,0-.51.57,1.8,1.8,0,0,0-.17.76v.44a2.07,2.07,0,0,0,.19.94,1.32,1.32,0,0,0,.54.58,1.51,1.51,0,0,0,.8.2,1.53,1.53,0,0,0,.54-.08,1.14,1.14,0,0,0,.42-.26,1,1,0,0,0,.27-.42l.73.2a1.6,1.6,0,0,1-.39.65,1.86,1.86,0,0,1-.67.44A2.5,2.5,0,0,1,207,128.14Z"/><path d="M210.22,128v-4.91H211v.74H211a1.2,1.2,0,0,1,.48-.59,1.46,1.46,0,0,1,.79-.23h.4v.76l-.17,0-.29,0a1.34,1.34,0,0,0-.64.15,1.24,1.24,0,0,0-.44.41,1.07,1.07,0,0,0-.16.59V128Z"/><path d="M215.41,128.14a2,2,0,0,1-2-1.22,3,3,0,0,1-.27-1.31,2.91,2.91,0,0,1,.28-1.32,2.19,2.19,0,0,1,.77-.9,2,2,0,0,1,1.16-.32,2.19,2.19,0,0,1,.94.19,1.68,1.68,0,0,1,1,1.34h-.76a1.16,1.16,0,0,0-.38-.6,1.17,1.17,0,0,0-.79-.26,1.38,1.38,0,0,0-.78.23,1.46,1.46,0,0,0-.51.65,2.35,2.35,0,0,0-.18,1,2.59,2.59,0,0,0,.18,1,1.46,1.46,0,0,0,.51.65,1.28,1.28,0,0,0,.78.23,1.32,1.32,0,0,0,.53-.1,1.09,1.09,0,0,0,.41-.29,1.05,1.05,0,0,0,.23-.46h.76a1.8,1.8,0,0,1-.32.78,1.87,1.87,0,0,1-.66.55A2.18,2.18,0,0,1,215.41,128.14Z"/><path d="M219.88,128.15A2,2,0,0,1,219,128a1.44,1.44,0,0,1-.6-.52,1.4,1.4,0,0,1-.22-.81,1.28,1.28,0,0,1,.16-.69,1.11,1.11,0,0,1,.45-.41,2.34,2.34,0,0,1,.61-.23c.23,0,.45-.09.68-.12l.73-.09a1.16,1.16,0,0,0,.41-.1.29.29,0,0,0,.13-.26v0a1,1,0,0,0-.26-.74,1.06,1.06,0,0,0-.78-.26,1.36,1.36,0,0,0-.85.24,1.42,1.42,0,0,0-.43.5l-.71-.25a1.7,1.7,0,0,1,.51-.7,1.78,1.78,0,0,1,.7-.35,2.89,2.89,0,0,1,.76-.1,2.77,2.77,0,0,1,.54.05,1.91,1.91,0,0,1,.6.23,1.43,1.43,0,0,1,.48.52,1.89,1.89,0,0,1,.19.93V128h-.75v-.67h0a1.43,1.43,0,0,1-.26.35,1.67,1.67,0,0,1-.47.31A2,2,0,0,1,219.88,128.15Zm.12-.67a1.46,1.46,0,0,0,.75-.18,1.27,1.27,0,0,0,.47-.45,1.24,1.24,0,0,0,.16-.59v-.69a.66.66,0,0,1-.21.11l-.37.08-.41,0-.32,0a3.16,3.16,0,0,0-.55.13.91.91,0,0,0-.4.25.61.61,0,0,0-.16.45.69.69,0,0,0,.29.6A1.35,1.35,0,0,0,220,127.48Z"/><path d="M225.65,123.13v.64H223.1v-.64ZM223.84,122h.76v4.68a1,1,0,0,0,.09.48.45.45,0,0,0,.25.21.78.78,0,0,0,.31.05h.21l.12,0,.16.67-.22.06a1.69,1.69,0,0,1-.35,0,1.5,1.5,0,0,1-.62-.13,1.39,1.39,0,0,1-.51-.42,1.24,1.24,0,0,1-.2-.71Z"/><path d="M228.73,128.14a2.15,2.15,0,0,1-1.17-.31,2.25,2.25,0,0,1-.78-.89,3.07,3.07,0,0,1-.28-1.33,3.11,3.11,0,0,1,.28-1.34,2.19,2.19,0,0,1,.78-.89,2.15,2.15,0,0,1,1.17-.31,2.12,2.12,0,0,1,1.16.31,2.05,2.05,0,0,1,.78.89,3,3,0,0,1,.28,1.34,2.93,2.93,0,0,1-.28,1.33,2,2,0,0,1-1.94,1.2Zm0-.68a1.27,1.27,0,0,0,.83-.26,1.41,1.41,0,0,0,.48-.68,2.45,2.45,0,0,0,.16-.91,2.54,2.54,0,0,0-.16-.92,1.46,1.46,0,0,0-.48-.68,1.27,1.27,0,0,0-.83-.27,1.24,1.24,0,0,0-.83.27,1.55,1.55,0,0,0-.49.68,2.77,2.77,0,0,0-.15.92,2.67,2.67,0,0,0,.15.91,1.5,1.5,0,0,0,.49.68A1.23,1.23,0,0,0,228.73,127.46Z"/><path d="M236.49,128.14a1.93,1.93,0,0,1-1.09-.31,2.13,2.13,0,0,1-.73-.88,3.51,3.51,0,0,1,0-2.7,2,2,0,0,1,.74-.87,1.91,1.91,0,0,1,1.09-.31,1.63,1.63,0,0,1,.76.15,1.44,1.44,0,0,1,.43.36l.23.33H238v-2.42h.76V128H238v-.76h-.09a3.21,3.21,0,0,1-.24.34,1.29,1.29,0,0,1-.43.36A1.53,1.53,0,0,1,236.49,128.14Zm.1-.68a1.3,1.3,0,0,0,.77-.23,1.45,1.45,0,0,0,.47-.67,2.68,2.68,0,0,0,.17-1,2.84,2.84,0,0,0-.16-1,1.43,1.43,0,0,0-.48-.64,1.22,1.22,0,0,0-.77-.24,1.29,1.29,0,0,0-.8.25,1.4,1.4,0,0,0-.47.66,2.52,2.52,0,0,0-.16.93,2.59,2.59,0,0,0,.16,1,1.5,1.5,0,0,0,.48.68A1.21,1.21,0,0,0,236.59,127.46Z"/><path d="M242.28,128.14a2.28,2.28,0,0,1-1.22-.31,2,2,0,0,1-.79-.89,2.86,2.86,0,0,1-.28-1.32,3,3,0,0,1,.28-1.33,2.19,2.19,0,0,1,.77-.9,2,2,0,0,1,1.16-.32,2.46,2.46,0,0,1,.76.12,1.93,1.93,0,0,1,.68.42,2,2,0,0,1,.49.75,3.29,3.29,0,0,1,.18,1.16v.32h-3.78v-.65h3a1.58,1.58,0,0,0-.16-.74,1.31,1.31,0,0,0-.47-.52,1.43,1.43,0,0,0-1.49,0,1.53,1.53,0,0,0-.5.57,1.67,1.67,0,0,0-.18.76v.44a2.07,2.07,0,0,0,.2.94,1.32,1.32,0,0,0,.54.58,1.49,1.49,0,0,0,.8.2,1.53,1.53,0,0,0,.54-.08,1,1,0,0,0,.41-.26,1.15,1.15,0,0,0,.28-.42l.72.2a1.47,1.47,0,0,1-.38.65,2,2,0,0,1-.67.44A2.57,2.57,0,0,1,242.28,128.14Z"/><path d="M246.22,121.49V128h-.76v-6.55Z"/><path d="M248.35,121.49V128h-.75v-6.55Z"/><path d="M251.79,128.14a2.28,2.28,0,0,1-1.22-.31,2.07,2.07,0,0,1-.79-.89,2.86,2.86,0,0,1-.28-1.32,3,3,0,0,1,.28-1.33,2.19,2.19,0,0,1,.77-.9,2,2,0,0,1,1.16-.32,2.46,2.46,0,0,1,.76.12,1.95,1.95,0,0,1,1.17,1.17,3.29,3.29,0,0,1,.18,1.16v.32H250v-.65h3a1.58,1.58,0,0,0-.17-.74,1.24,1.24,0,0,0-.47-.52,1.43,1.43,0,0,0-1.49,0,1.53,1.53,0,0,0-.5.57,1.66,1.66,0,0,0-.17.76v.44a2.07,2.07,0,0,0,.19.94,1.32,1.32,0,0,0,.54.58,1.51,1.51,0,0,0,.8.2,1.53,1.53,0,0,0,.54-.08,1.14,1.14,0,0,0,.42-.26,1.27,1.27,0,0,0,.27-.42l.73.2a1.6,1.6,0,0,1-.39.65,2,2,0,0,1-.67.44A2.57,2.57,0,0,1,251.79,128.14Z"/><path d="M257.61,128v-6.55h3.95v.71H258.4v2.21h3v.7h-3v2.23h3.21v.7Z"/><path d="M262.89,128v-4.91h.73v.74h.05a1.2,1.2,0,0,1,.48-.59,1.46,1.46,0,0,1,.79-.23h.4v.76l-.17,0-.29,0a1.34,1.34,0,0,0-.64.15,1.24,1.24,0,0,0-.44.41,1.07,1.07,0,0,0-.16.59V128Z"/><path d="M266.34,128v-6.55h.75v2.42h.07l.23-.33a1.44,1.44,0,0,1,.43-.36,1.6,1.6,0,0,1,.76-.15,1.93,1.93,0,0,1,1.09.31,2.12,2.12,0,0,1,.74.87,3.63,3.63,0,0,1,0,2.7,2.15,2.15,0,0,1-.74.88,1.88,1.88,0,0,1-1.08.31,1.51,1.51,0,0,1-.76-.16,1.33,1.33,0,0,1-.44-.36,2.92,2.92,0,0,1-.23-.34h-.09V128Zm.74-2.46a2.69,2.69,0,0,0,.16,1,1.47,1.47,0,0,0,.48.67,1.28,1.28,0,0,0,.77.23,1.24,1.24,0,0,0,.79-.25,1.5,1.5,0,0,0,.48-.68,2.82,2.82,0,0,0,.16-1,2.75,2.75,0,0,0-.16-.93,1.42,1.42,0,0,0-.48-.66,1.26,1.26,0,0,0-.79-.25,1.25,1.25,0,0,0-.78.24,1.41,1.41,0,0,0-.47.64A2.61,2.61,0,0,0,267.08,125.58Z"/><path d="M273.88,128.14a2.28,2.28,0,0,1-1.22-.31,2.07,2.07,0,0,1-.79-.89,2.86,2.86,0,0,1-.28-1.32,3,3,0,0,1,.28-1.33,2.19,2.19,0,0,1,.77-.9,2,2,0,0,1,1.16-.32,2.46,2.46,0,0,1,.76.12,1.95,1.95,0,0,1,1.17,1.17,3.29,3.29,0,0,1,.18,1.16v.32h-3.78v-.65h3a1.58,1.58,0,0,0-.17-.74,1.24,1.24,0,0,0-.47-.52,1.34,1.34,0,0,0-.71-.19,1.3,1.3,0,0,0-.77.23,1.47,1.47,0,0,0-.51.57,1.8,1.8,0,0,0-.17.76v.44a2.07,2.07,0,0,0,.19.94,1.32,1.32,0,0,0,.54.58,1.51,1.51,0,0,0,.8.2,1.53,1.53,0,0,0,.54-.08,1.14,1.14,0,0,0,.42-.26,1.27,1.27,0,0,0,.27-.42l.73.2a1.6,1.6,0,0,1-.39.65,1.86,1.86,0,0,1-.67.44A2.57,2.57,0,0,1,273.88,128.14Z"/><path class="cls-4" d="M193.68,113.79H179.8a.15.15,0,0,1,0-.3h13.88a.15.15,0,1,1,0,.3Z"/><circle cx="287.67" cy="833.07" r="3.45"/><path d="M300.69,838.78V827.87h3.69a4.24,4.24,0,0,1,2.1.46,3,3,0,0,1,1.21,1.24,4.12,4.12,0,0,1,0,3.5,2.91,2.91,0,0,1-1.2,1.26,4.2,4.2,0,0,1-2.09.46h-2.64v-1.17h2.6a2.89,2.89,0,0,0,1.41-.3,1.82,1.82,0,0,0,.77-.83,2.86,2.86,0,0,0,0-2.34,1.7,1.7,0,0,0-.78-.81,2.92,2.92,0,0,0-1.43-.3H302v9.74Z"/><path d="M310.22,827.87h1.57l3.71,9h.13l3.7-9h1.58v10.91h-1.23v-8.29h-.11l-3.41,8.29H315l-3.41-8.29h-.11v8.29h-1.23Z"/><path d="M327.2,827.87v10.91h-1.32v-9.53h-.07L323.15,831v-1.34l2.73-1.81Z"/><path d="M333.89,838.93a3.21,3.21,0,0,1-2.05-.66,4.09,4.09,0,0,1-1.3-1.91,10.43,10.43,0,0,1,0-6.06,4.15,4.15,0,0,1,1.3-1.92,3.5,3.5,0,0,1,4.09,0,4.07,4.07,0,0,1,1.3,1.92,10.43,10.43,0,0,1,0,6.06,4.15,4.15,0,0,1-1.29,1.91A3.25,3.25,0,0,1,333.89,838.93Zm0-1.17a2.05,2.05,0,0,0,1.85-1.16,6.65,6.65,0,0,0,.66-3.28,8.43,8.43,0,0,0-.3-2.41,3.42,3.42,0,0,0-.86-1.52,1.92,1.92,0,0,0-1.35-.52A2.05,2.05,0,0,0,332,830a6.65,6.65,0,0,0-.67,3.29,8.38,8.38,0,0,0,.3,2.41,3.38,3.38,0,0,0,.86,1.51A2,2,0,0,0,333.89,837.76Z"/><path d="M340.09,833.92v-.85l6.86-3.5v1.37l-5.26,2.53,0-.08v.21l0-.09,5.26,2.54v1.36Z"/><path d="M353,838.93a3.72,3.72,0,0,1-1.69-.38,3.15,3.15,0,0,1-1.2-1,2.74,2.74,0,0,1-.5-1.48h1.28a1.73,1.73,0,0,0,.67,1.22,2.37,2.37,0,0,0,2.63.17,2.28,2.28,0,0,0,.83-.86,2.6,2.6,0,0,0,.3-1.25,2.55,2.55,0,0,0-.31-1.28,2.35,2.35,0,0,0-.85-.89,2.58,2.58,0,0,0-1.25-.33,3.71,3.71,0,0,0-1,.15,2.71,2.71,0,0,0-.87.41l-1.24-.15.66-5.37h5.67V829h-4.56l-.38,3.22h.06a2.56,2.56,0,0,1,.84-.44,3.15,3.15,0,0,1,1.06-.18,3.34,3.34,0,0,1,1.78.48,3.3,3.3,0,0,1,1.24,1.3,3.87,3.87,0,0,1,.45,1.88,3.74,3.74,0,0,1-.47,1.87,3.44,3.44,0,0,1-1.28,1.29A3.66,3.66,0,0,1,353,838.93Z"/><path d="M362.27,838.93a3.21,3.21,0,0,1-2-.66,4.09,4.09,0,0,1-1.3-1.91,10.43,10.43,0,0,1,0-6.06,4.15,4.15,0,0,1,1.3-1.92,3.5,3.5,0,0,1,4.09,0,4.07,4.07,0,0,1,1.3,1.92,10.43,10.43,0,0,1,0,6.06,4.15,4.15,0,0,1-1.29,1.91A3.25,3.25,0,0,1,362.27,838.93Zm0-1.17a2.05,2.05,0,0,0,1.85-1.16,6.65,6.65,0,0,0,.66-3.28,8.43,8.43,0,0,0-.3-2.41,3.42,3.42,0,0,0-.86-1.52,1.92,1.92,0,0,0-1.35-.52,2.05,2.05,0,0,0-1.85,1.16,6.76,6.76,0,0,0-.67,3.29,8.38,8.38,0,0,0,.3,2.41,3.38,3.38,0,0,0,.86,1.51A2,2,0,0,0,362.27,837.76Z"/><path d="M368,841.44v-9.75H369v4.19a2.07,2.07,0,0,0,.24,1,1.74,1.74,0,0,0,.69.68,2,2,0,0,0,1,.25,2.12,2.12,0,0,0,1-.25,1.71,1.71,0,0,0,.68-.68,2,2,0,0,0,.25-1v-4.19h1.09v7.09H373v-1.06h-.06a2,2,0,0,1-.8.86,2.23,2.23,0,0,1-2.2,0,2,2,0,0,1-.8-.86H369v3.72Z"/><path d="M378.9,841.58a4,4,0,0,1-1.36-.2,3,3,0,0,1-.94-.52,3,3,0,0,1-.6-.7l.87-.61c.1.13.22.28.37.45a2.06,2.06,0,0,0,.63.44,2.47,2.47,0,0,0,1,.18,2.3,2.3,0,0,0,1.42-.41,1.52,1.52,0,0,0,.56-1.3v-1.44h-.09a5.76,5.76,0,0,1-.34.47,2.07,2.07,0,0,1-.63.51,2.41,2.41,0,0,1-1.1.22,3,3,0,0,1-1.54-.41,2.82,2.82,0,0,1-1.08-1.18,4.18,4.18,0,0,1-.39-1.88,4.47,4.47,0,0,1,.38-1.9,3,3,0,0,1,1.07-1.26,2.79,2.79,0,0,1,1.58-.45,2.31,2.31,0,0,1,1.1.23,1.92,1.92,0,0,1,.62.52c.15.19.26.35.34.47h.11v-1.12H382V839a2.46,2.46,0,0,1-.42,1.49,2.38,2.38,0,0,1-1.1.84A4.27,4.27,0,0,1,378.9,841.58Zm0-3.89a2,2,0,0,0,1.1-.3,1.89,1.89,0,0,0,.69-.87,3.38,3.38,0,0,0,.24-1.34,3.84,3.84,0,0,0-.23-1.36,2.07,2.07,0,0,0-.69-.91,1.77,1.77,0,0,0-1.11-.34,1.88,1.88,0,0,0-1.16.35,2.15,2.15,0,0,0-.68,1,3.43,3.43,0,0,0-.23,1.31,3.31,3.31,0,0,0,.23,1.3,2.06,2.06,0,0,0,.69.89A2,2,0,0,0,378.87,837.69Z"/><path d="M387.3,828.88l-3,11.32h-1l3.05-11.32Z"/><path d="M388.6,838.78v-7.09h1v1.1h.09a1.84,1.84,0,0,1,.72-.88,2.15,2.15,0,0,1,1.18-.32,2,2,0,0,1,1.17.32,2.14,2.14,0,0,1,.74.88h.07a2.08,2.08,0,0,1,.82-.87,2.46,2.46,0,0,1,1.3-.33,2.11,2.11,0,0,1,1.56.6,2.48,2.48,0,0,1,.6,1.84v4.75h-1.09V834a1.33,1.33,0,0,0-.43-1.12,1.6,1.6,0,0,0-1-.34,1.51,1.51,0,0,0-1.16.45,1.64,1.64,0,0,0-.41,1.14v4.62h-1.1v-4.86a1.27,1.27,0,0,0-.4-1,1.44,1.44,0,0,0-1-.37,1.51,1.51,0,0,0-.79.23,1.76,1.76,0,0,0-.59.62,1.88,1.88,0,0,0-.22.93v4.43Z"/><path d="M401.33,834.52a2.4,2.4,0,0,1-.95-.18,1.58,1.58,0,0,1-.65-.51,1.28,1.28,0,0,1-.27-.76h.68a.75.75,0,0,0,.18.46,1.08,1.08,0,0,0,.42.3,1.57,1.57,0,0,0,.58.1,1.54,1.54,0,0,0,.63-.12.94.94,0,0,0,.43-.35.8.8,0,0,0,.16-.51.94.94,0,0,0-.15-.53,1,1,0,0,0-.44-.37,1.7,1.7,0,0,0-.71-.13h-.44v-.59h.44a1.26,1.26,0,0,0,.57-.12.87.87,0,0,0,.39-.34.84.84,0,0,0,.15-.5,1,1,0,0,0-.13-.49.78.78,0,0,0-.35-.32,1.09,1.09,0,0,0-.53-.12,1.36,1.36,0,0,0-.53.11,1,1,0,0,0-.41.29.78.78,0,0,0-.18.47h-.64a1.36,1.36,0,0,1,.26-.76,1.81,1.81,0,0,1,.64-.51,2.13,2.13,0,0,1,.88-.18,1.7,1.7,0,0,1,.87.21,1.45,1.45,0,0,1,.76,1.27,1.3,1.3,0,0,1-.24.79,1.26,1.26,0,0,1-.66.46v0a1.25,1.25,0,0,1,.81.44,1.32,1.32,0,0,1,.3.88,1.44,1.44,0,0,1-.25.81,1.65,1.65,0,0,1-.66.56A2.12,2.12,0,0,1,401.33,834.52Z"/><circle class="cls-4" cx="554.07" cy="833.07" r="3.45"/><path class="cls-4" d="M567.1,838.78V827.87h3.68a4.26,4.26,0,0,1,2.11.46,3,3,0,0,1,1.21,1.24,4.12,4.12,0,0,1,0,3.5,2.88,2.88,0,0,1-1.21,1.26,4.16,4.16,0,0,1-2.08.46h-2.65v-1.17h2.6a2.84,2.84,0,0,0,1.41-.3,1.79,1.79,0,0,0,.78-.83,3,3,0,0,0,0-2.34,1.7,1.7,0,0,0-.78-.81,3,3,0,0,0-1.43-.3h-2.32v9.74Z"/><path class="cls-4" d="M576.62,827.87h1.58l3.71,9H582l3.71-9h1.58v10.91h-1.24v-8.29H586l-3.41,8.29h-1.2L578,830.49h-.1v8.29h-1.24Z"/><path class="cls-4" d="M593.6,827.87v10.91h-1.32v-9.53h-.06L589.55,831v-1.34l2.73-1.81Z"/><path class="cls-4" d="M600.29,838.93a3.25,3.25,0,0,1-2-.66,4.15,4.15,0,0,1-1.29-1.91,10.43,10.43,0,0,1,0-6.06,4.07,4.07,0,0,1,1.3-1.92,3.5,3.5,0,0,1,4.09,0,4.15,4.15,0,0,1,1.3,1.92,10.43,10.43,0,0,1,0,6.06,4.09,4.09,0,0,1-1.3,1.91A3.21,3.21,0,0,1,600.29,838.93Zm0-1.17a2.05,2.05,0,0,0,1.86-1.16,6.65,6.65,0,0,0,.66-3.28,8.43,8.43,0,0,0-.3-2.41,3.34,3.34,0,0,0-.87-1.52,1.89,1.89,0,0,0-1.35-.52,2,2,0,0,0-1.84,1.16,6.65,6.65,0,0,0-.67,3.29,8.38,8.38,0,0,0,.3,2.41,3.29,3.29,0,0,0,.86,1.51A1.93,1.93,0,0,0,600.29,837.76Z"/><path class="cls-4" d="M613.35,833.92l-6.86,3.49v-1.36l5.27-2.54,0,.09v-.21l0,.08-5.27-2.53v-1.37l6.86,3.5Z"/><path class="cls-4" d="M619.41,838.93a3.72,3.72,0,0,1-1.69-.38,3.26,3.26,0,0,1-1.21-1,2.81,2.81,0,0,1-.49-1.48h1.28a1.73,1.73,0,0,0,.67,1.22,2.24,2.24,0,0,0,1.44.49,2.27,2.27,0,0,0,2-1.18,2.6,2.6,0,0,0,.3-1.25,2.66,2.66,0,0,0-.31-1.28,2.37,2.37,0,0,0-.86-.89,2.52,2.52,0,0,0-1.24-.33,3.77,3.77,0,0,0-1,.15,2.93,2.93,0,0,0-.87.41l-1.23-.15.66-5.37h5.67V829H618l-.39,3.22h.07a2.56,2.56,0,0,1,.84-.44,3.13,3.13,0,0,1,1-.18,3.38,3.38,0,0,1,3,1.78,3.87,3.87,0,0,1,.45,1.88,3.74,3.74,0,0,1-.47,1.87,3.52,3.52,0,0,1-1.28,1.29A3.66,3.66,0,0,1,619.41,838.93Z"/><path class="cls-4" d="M628.67,838.93a3.25,3.25,0,0,1-2-.66,4.15,4.15,0,0,1-1.29-1.91,10.43,10.43,0,0,1,0-6.06,4.07,4.07,0,0,1,1.3-1.92,3.5,3.5,0,0,1,4.09,0,4.15,4.15,0,0,1,1.3,1.92,10.43,10.43,0,0,1,0,6.06,4.09,4.09,0,0,1-1.3,1.91A3.21,3.21,0,0,1,628.67,838.93Zm0-1.17a2.05,2.05,0,0,0,1.86-1.16,6.65,6.65,0,0,0,.66-3.28,8.43,8.43,0,0,0-.3-2.41,3.34,3.34,0,0,0-.87-1.52,1.89,1.89,0,0,0-1.35-.52,2,2,0,0,0-1.84,1.16,6.65,6.65,0,0,0-.67,3.29,8.38,8.38,0,0,0,.3,2.41,3.29,3.29,0,0,0,.86,1.51A1.93,1.93,0,0,0,628.67,837.76Z"/><path class="cls-4" d="M634.36,841.44v-9.75h1.09v4.19a2.07,2.07,0,0,0,.24,1,1.71,1.71,0,0,0,.68.68,2.05,2.05,0,0,0,1,.25,2.15,2.15,0,0,0,1-.25,1.71,1.71,0,0,0,.68-.68,2.07,2.07,0,0,0,.24-1v-4.19h1.09v7.09h-1.09v-1.06h-.05a2,2,0,0,1-.8.86,2.25,2.25,0,0,1-2.21,0,2.08,2.08,0,0,1-.8-.86h0v3.72Z"/><path class="cls-4" d="M645.31,841.58a3.94,3.94,0,0,1-1.36-.2,2.91,2.91,0,0,1-.94-.52,3,3,0,0,1-.6-.7l.87-.61c.1.13.22.28.37.45a2,2,0,0,0,.62.44,2.56,2.56,0,0,0,1,.18,2.32,2.32,0,0,0,1.42-.41,1.52,1.52,0,0,0,.55-1.3v-1.44h-.09a4.05,4.05,0,0,1-.34.47,1.85,1.85,0,0,1-.63.51,2.38,2.38,0,0,1-1.1.22,3,3,0,0,1-1.54-.41,2.8,2.8,0,0,1-1.07-1.18,4.17,4.17,0,0,1-.4-1.88,4.33,4.33,0,0,1,.39-1.9,3,3,0,0,1,1.06-1.26,2.84,2.84,0,0,1,1.58-.45,2.28,2.28,0,0,1,1.1.23,1.87,1.87,0,0,1,.63.52c.15.19.26.35.34.47h.11v-1.12h1V839a2.46,2.46,0,0,1-.41,1.49,2.36,2.36,0,0,1-1.11.84A4.22,4.22,0,0,1,645.31,841.58Zm0-3.89a2,2,0,0,0,1.11-.3,1.89,1.89,0,0,0,.69-.87,3.57,3.57,0,0,0,.23-1.34,3.63,3.63,0,0,0-.23-1.36,2,2,0,0,0-.68-.91,1.78,1.78,0,0,0-1.12-.34,1.87,1.87,0,0,0-1.15.35,2.1,2.1,0,0,0-.69,1,3.64,3.64,0,0,0-.23,1.31,3.31,3.31,0,0,0,.24,1.3,1.92,1.92,0,0,0,.69.89A2,2,0,0,0,645.27,837.69Z"/><path class="cls-4" d="M653.71,828.88l-3.05,11.32h-1l3-11.32Z"/><path class="cls-4" d="M655,838.78v-7.09h1.06v1.1h.09a1.82,1.82,0,0,1,.71-.88,2.18,2.18,0,0,1,1.19-.32,2,2,0,0,1,1.17.32,2.11,2.11,0,0,1,.73.88H660a2.12,2.12,0,0,1,.81-.87,2.5,2.5,0,0,1,1.31-.33,2.14,2.14,0,0,1,1.56.6,2.48,2.48,0,0,1,.6,1.84v4.75h-1.09V834a1.33,1.33,0,0,0-.43-1.12,1.6,1.6,0,0,0-1-.34,1.5,1.5,0,0,0-1.16.45,1.64,1.64,0,0,0-.41,1.14v4.62H659.1v-4.86a1.3,1.3,0,0,0-.39-1,1.44,1.44,0,0,0-1-.37,1.48,1.48,0,0,0-.79.23,1.67,1.67,0,0,0-.59.62,1.89,1.89,0,0,0-.23.93v4.43Z"/><path class="cls-4" d="M667.74,834.52a2.4,2.4,0,0,1-1-.18,1.55,1.55,0,0,1-.66-.51,1.34,1.34,0,0,1-.26-.76h.68a.75.75,0,0,0,.18.46,1.08,1.08,0,0,0,.42.3,1.72,1.72,0,0,0,1.21,0,1,1,0,0,0,.43-.35A.86.86,0,0,0,669,833a.94.94,0,0,0-.15-.53,1,1,0,0,0-.45-.37,1.67,1.67,0,0,0-.71-.13h-.44v-.59h.44a1.34,1.34,0,0,0,.58-.12.87.87,0,0,0,.39-.34.92.92,0,0,0,.14-.5,1,1,0,0,0-.12-.49.78.78,0,0,0-.35-.32,1.12,1.12,0,0,0-.53-.12,1.41,1.41,0,0,0-.54.11,1.22,1.22,0,0,0-.41.29.84.84,0,0,0-.17.47H666a1.29,1.29,0,0,1,.26-.76,1.73,1.73,0,0,1,.64-.51,2.05,2.05,0,0,1,.87-.18,1.76,1.76,0,0,1,.88.21,1.39,1.39,0,0,1,.56.54,1.43,1.43,0,0,1,.2.73,1.24,1.24,0,0,1-.25.79,1.26,1.26,0,0,1-.66.46v0a1.3,1.3,0,0,1,.82.44,1.37,1.37,0,0,1,.29.88,1.43,1.43,0,0,1-.24.81,1.65,1.65,0,0,1-.66.56A2.12,2.12,0,0,1,667.74,834.52Z"/><g class="cls-5"><circle class="cls-4" cx="826.78" cy="833.07" r="9.75"/></g><circle class="cls-4" cx="826.78" cy="833.07" r="3.45"/><path d="M839.78,838.78V827.87h6.58V829H841.1v3.69H846v1.17H841.1v3.71h5.35v1.17Z"/><path d="M849.2,827.87l3.24,9.18h.12l3.24-9.18h1.39l-4,10.91h-1.36l-4-10.91Z"/><path d="M858.89,838.78V827.87h6.59V829h-5.27v3.69h4.92v1.17h-4.92v3.71h5.35v1.17Z"/><path d="M876.51,827.87v10.91h-1.28l-5.94-8.57h-.11v8.57h-1.32V827.87h1.28l6,8.59h.1v-8.59Z"/><path d="M878.56,829v-1.17h8.18V829h-3.43v9.74H882V829Z"/><path d="M897.54,833.32a6.76,6.76,0,0,1-.62,3,4.83,4.83,0,0,1-1.71,1.94,4.88,4.88,0,0,1-5,0,4.83,4.83,0,0,1-1.71-1.94,7.5,7.5,0,0,1,0-6,4.77,4.77,0,0,1,1.71-1.94,4.88,4.88,0,0,1,5,0,4.77,4.77,0,0,1,1.71,1.94A6.72,6.72,0,0,1,897.54,833.32Zm-1.28,0a5.39,5.39,0,0,0-.47-2.39,3.41,3.41,0,0,0-1.27-1.47,3.24,3.24,0,0,0-1.79-.5,3.3,3.3,0,0,0-1.8.5,3.48,3.48,0,0,0-1.27,1.47,6.34,6.34,0,0,0,0,4.79,3.54,3.54,0,0,0,1.27,1.47,3.39,3.39,0,0,0,1.8.5,3.33,3.33,0,0,0,1.79-.5,3.47,3.47,0,0,0,1.27-1.47A5.44,5.44,0,0,0,896.26,833.32Z"/></svg>