<?xml version="1.0" encoding="utf-8"?>
<!-- Generator: Adobe Illustrator 24.0.1, SVG Export Plug-In . SVG Version: 6.00 Build 0)  -->
<svg version="1.1" id="Layer_1" xmlns="http://www.w3.org/2000/svg" xmlns:xlink="http://www.w3.org/1999/xlink" x="0px" y="0px"
	 viewBox="0 0 1125 1815" style="enable-background:new 0 0 1125 1815;" xml:space="preserve">
<style type="text/css">
	.st0{fill:#B6B6B6;}
	.st1{enable-background:new    ;}
	.st2{fill:#EFEFEF;}
	.st3{fill:#B8B8B8;}
	.st4{fill:none;stroke:#B8B8B8;stroke-width:0.8284;stroke-linecap:round;stroke-miterlimit:10;}
	.st5{fill:#FE5000;}
	.st6{fill:none;stroke:#FFFFFF;stroke-width:1.7566;stroke-miterlimit:10;}
	.st7{fill:none;}
	.st8{font-family:'KareliaWeb-Outtakes';}
	.st9{font-size:57px;}
	.st10{fill:#A2A2A2;}
</style>
<g>
	<g>
		<path class="st0" d="M157.8,1456.8c0-4.1,1.4-7.3,4.9-7.3s4.9,3.2,4.9,7.3s-1.4,7.3-4.9,7.3
			C159.1,1464.1,157.8,1460.9,157.8,1456.8z M165.7,1456.8c0-3.6-1-5.6-3-5.6c-2,0-3,2-3,5.6s1,5.6,3,5.6
			C164.7,1462.4,165.7,1460.4,165.7,1456.8z"/>
	</g>
	<g>
		<path class="st0" d="M232,1452.9l4.5-3.1l1.4,0l0,12.5l3.4,0l0,1.5l-8.8,0l0-1.5l3.6,0l0-10.2l-3.3,2.3L232,1452.9z"/>
		<path class="st0" d="M243.4,1456.8c0-4.1,1.4-7.3,4.9-7.3s4.9,3.2,4.9,7.3c0,4.1-1.4,7.3-4.9,7.3S243.4,1460.9,243.4,1456.8z
			 M251.3,1456.8c0-3.6-1-5.6-3-5.6c-2,0-3,2-3,5.6c0,3.6,1,5.6,3,5.6C250.3,1462.4,251.2,1460.4,251.3,1456.8L251.3,1456.8z"/>
	</g>
	<g>
		<path class="st0" d="M315.4,1457.8l1.5-1.1c1.4-1,2.4-1.5,2.4-3.2c0-1.3-1-2.4-2.3-2.5c-0.1,0-0.2,0-0.3,0c-1.8,0-2.7,1-2.9,2.9
			l-1.7,0c-0.1-2.3,1.6-4.3,3.9-4.4c0.2,0,0.4,0,0.6,0c2.2-0.2,4.1,1.3,4.4,3.5c0,0.2,0,0.3,0,0.5c0,2.4-1.6,3.4-3,4.3l-1.4,1
			c-2.1,1.4-2.4,2.5-2.5,3.4l7.3,0l0,1.5l-9.3,0C311.9,1461.4,313.2,1459,315.4,1457.8z"/>
		<path class="st0" d="M323.3,1456.8c0-4.1,1.4-7.3,4.9-7.3c3.5,0,4.9,3.2,4.9,7.3c0,4.1-1.4,7.3-4.9,7.3
			C324.7,1464.1,323.3,1460.9,323.3,1456.8z M331.2,1456.8c0-3.6-1-5.6-3-5.6c-2,0-3,2-3,5.6c0,3.6,1,5.6,3,5.6
			C330.3,1462.5,331.2,1460.4,331.2,1456.8L331.2,1456.8z"/>
	</g>
	<g>
		<path class="st0" d="M393.5,1459.6c-0.1,1.5,1,2.8,2.5,3c0.2,0,0.4,0,0.6,0c1.7,0,3-0.9,3-2.6c-0.1-1.5-1.4-2.7-2.9-2.6
			c0,0-0.1,0-0.1,0l-1.1,0l0-1.5l1.1,0c1.3,0.1,2.5-1,2.5-2.3c0,0,0-0.1,0-0.1c0-1.3-1-2.3-2.3-2.3c-0.1,0-0.2,0-0.2,0
			c-1.3-0.1-2.4,0.9-2.5,2.1c0,0.1,0,0.3,0,0.4l-1.6,0c-0.1-2.1,1.5-4,3.7-4.1c0.2,0,0.3,0,0.5,0c2.1-0.2,4,1.3,4.2,3.4
			c0,0.1,0,0.2,0,0.3c0,1.4-0.8,2.6-2,3.1l0,0.1c1.6,0.4,2.6,1.9,2.6,3.5c0,2.5-2.1,4-4.8,4c-2.3,0.3-4.4-1.3-4.7-3.6
			c0-0.3,0-0.6,0-0.9L393.5,1459.6z"/>
		<path class="st0" d="M403.3,1456.8c0-4.1,1.4-7.3,4.9-7.3c3.5,0,4.9,3.2,4.9,7.3c0,4.1-1.4,7.3-4.9,7.3
			C404.7,1464.1,403.3,1460.9,403.3,1456.8z M411.2,1456.8c0-3.6-1-5.6-3-5.6c-2,0-3,2-3,5.6c0,3.6,1,5.6,3,5.6
			C410.3,1462.5,411.2,1460.4,411.2,1456.8L411.2,1456.8z"/>
	</g>
	<g>
		<path class="st0" d="M471.5,1459l6.8-9.2l1.5,0l0,9l2,0l0,1.6l-2,0l0,3.5l-1.8,0l0-3.5l-6.5,0L471.5,1459z M478,1458.8l0-6.2
			l-4.6,6.2L478,1458.8z"/>
		<path class="st0" d="M483.4,1456.8c0-4.1,1.4-7.3,4.9-7.3s4.9,3.2,4.9,7.3c0,4.1-1.4,7.3-4.9,7.3
			C484.8,1464.1,483.4,1460.9,483.4,1456.8z M491.3,1456.8c0-3.6-1-5.6-3-5.6c-2,0-3,2-3,5.6c0,3.6,1,5.6,3,5.6
			C490.4,1462.4,491.3,1460.4,491.3,1456.8L491.3,1456.8z"/>
	</g>
	<g>
		<path class="st0" d="M553.4,1460.1c0.2,1.5,1.5,2.6,3,2.4c1.7,0,3.1-1.4,3.1-3.1c0-1.7-1.4-3.1-3.1-3.1c-1.1,0-2.1,0.5-2.7,1.4
			l-1.7-0.1l0.4-7.9l7.9,0l0,1.7l-6.2,0l-0.3,4.4h0.1c0.7-0.7,1.7-1,2.7-1c2.4-0.1,4.4,1.7,4.6,4.1c0,0.1,0,0.3,0,0.4
			c0.1,2.5-1.9,4.6-4.4,4.7c-0.2,0-0.3,0-0.5,0c-2.4,0.3-4.5-1.4-4.8-3.8c0-0.1,0-0.1,0-0.2L553.4,1460.1z"/>
		<path class="st0" d="M563.2,1456.8c0-4.1,1.4-7.3,4.9-7.3c3.5,0,4.9,3.2,4.9,7.3c0,4.1-1.4,7.3-4.9,7.3
			C564.6,1464.1,563.2,1460.9,563.2,1456.8z M571.1,1456.8c0-3.6-1-5.6-3-5.6c-2,0-3,2-3,5.6c0,3.6,1,5.6,3,5.6
			C570.2,1462.4,571.1,1460.4,571.1,1456.8L571.1,1456.8z"/>
	</g>
	<g>
		<path class="st0" d="M636.9,1449.6c2.1-0.2,4,1.3,4.2,3.5c0,0.1,0,0.2,0,0.3l-1.7,0c0-1.2-1.1-2.2-2.3-2.2c0,0-0.1,0-0.1,0
			c-1.7,0-3.4,1.5-3.4,5.6c0.8-1.2,2.1-1.9,3.6-1.9c2.3,0,4.3,1.8,4.3,4.2c0,0.1,0,0.3,0,0.4c0.1,2.5-1.9,4.6-4.4,4.6
			c-0.1,0-0.2,0-0.3,0c-2.8,0-5.1-1.7-5.1-6.9C631.6,1451.5,634.2,1449.6,636.9,1449.6z M633.7,1459.5c-0.1,1.6,1.2,3,2.8,3.1
			c0.1,0,0.1,0,0.2,0c1.7,0,3.1-1.3,3.1-3c0-1.7-1.3-3.1-3-3.1c-1.7,0-3,1.3-3.1,2.9C633.7,1459.4,633.7,1459.4,633.7,1459.5
			L633.7,1459.5z"/>
		<path class="st0" d="M643.1,1456.8c0-4.1,1.4-7.3,4.9-7.3c3.5,0,4.9,3.2,4.9,7.3c0,4.1-1.4,7.3-4.9,7.3
			C644.5,1464.1,643.1,1460.9,643.1,1456.8z M651,1456.8c0-3.6-1-5.6-3-5.6c-2,0-3,2-3,5.6s1,5.6,3,5.6
			C650.1,1462.5,651,1460.4,651,1456.8L651,1456.8z"/>
	</g>
	<g>
		<path class="st0" d="M719.2,1451.4l-7.7,0l0-1.7l9.6,0l0,1.3l-6,12.7l-1.9,0L719.2,1451.4z"/>
		<path class="st0" d="M723,1456.8c0-4.1,1.4-7.3,4.9-7.3c3.5,0,4.9,3.2,4.9,7.3c0,4.1-1.4,7.3-4.9,7.3
			C724.4,1464.1,723,1460.9,723,1456.8z M730.9,1456.8c0-3.6-1-5.6-3-5.6c-2,0-3,2-3,5.6c0,3.6,1,5.6,3,5.6
			C730,1462.4,730.9,1460.4,730.9,1456.8L730.9,1456.8z"/>
	</g>
	<g>
		<path class="st0" d="M794,1456.6L794,1456.6c-1.2-0.5-2-1.8-2-3.1c0-2.1,1.7-3.9,3.8-3.9c0.1,0,0.3,0,0.4,0
			c2.1-0.2,4.1,1.3,4.3,3.4c0,0.1,0,0.3,0,0.4c0,1.4-0.8,2.6-2,3.1l0,0c1.6,0.4,2.6,1.9,2.6,3.5c0,2.5-2,4-4.9,4
			c-2.9,0-4.9-1.5-4.9-4C791.4,1458.4,792.5,1457,794,1456.6z M796.3,1462.5c1.8,0,3.1-0.9,3.1-2.6c-0.1-1.5-1.4-2.7-2.9-2.6
			c-0.1,0-0.1,0-0.2,0c-1.5-0.2-2.9,0.9-3.1,2.4c0,0.1,0,0.1,0,0.2C793.2,1461.6,794.6,1462.5,796.3,1462.5L796.3,1462.5z
			 M798.9,1453.4c0-1.3-1.1-2.4-2.4-2.4c-0.1,0-0.2,0-0.2,0c-1.3-0.1-2.5,0.8-2.6,2.2c0,0.1,0,0.1,0,0.2c0.2,1.4,1.5,2.5,2.9,2.3
			C797.8,1455.6,798.8,1454.6,798.9,1453.4L798.9,1453.4z"/>
		<path class="st0" d="M803.1,1456.8c0-4.1,1.4-7.3,4.9-7.3c3.5,0,4.9,3.2,4.9,7.3c0,4.1-1.4,7.3-4.9,7.3S803.1,1460.9,803.1,1456.8
			z M811,1456.8c0-3.6-1-5.6-3-5.6c-2,0-3,2-3,5.6c0,3.6,1,5.6,3,5.6C810,1462.5,810.9,1460.4,811,1456.8L811,1456.8z"/>
	</g>
	<g>
		<path class="st0" d="M876,1464.1c-2.2,0.2-4.2-1.4-4.4-3.6c0,0,0-0.1,0-0.1l1.8,0c0.2,1.3,1.3,2.3,2.6,2.2c1.9,0,3.2-1.4,3.3-5.6
			c-0.8,1.2-2.2,1.9-3.6,1.8c-2.3,0.1-4.3-1.7-4.4-4c0-0.2,0-0.4,0-0.5c-0.1-2.5,1.9-4.6,4.4-4.7c0.1,0,0.2,0,0.3,0
			c2.8,0,5.1,1.7,5.1,6.9C881.1,1462.1,878.9,1464.1,876,1464.1z M879,1454.2c0-1.6-1.3-3-3-3c-1.6,0-3,1.3-3,3
			c-0.1,1.6,1.2,2.9,2.8,3c0,0,0.1,0,0.1,0c1.7,0.1,3-1.2,3.1-2.9C879,1454.3,879,1454.2,879,1454.2z"/>
		<path class="st0" d="M883,1456.8c0-4.1,1.4-7.3,4.9-7.3c3.5,0,4.9,3.2,4.9,7.3c0,4.1-1.4,7.3-4.9,7.3
			C884.4,1464.1,883,1460.9,883,1456.8z M891,1456.8c0-3.6-1-5.6-3-5.6c-2,0-3,2-3,5.6c0,3.6,1,5.6,3,5.6S890.9,1460.4,891,1456.8
			L891,1456.8z"/>
	</g>
	<g>
		<path class="st0" d="M945.6,1452.9l4.5-3.1l1.4,0l0,12.5l3.4,0l0,1.5l-8.8,0l0-1.5l3.6,0l0-10.2l-3.3,2.2L945.6,1452.9z"/>
		<path class="st0" d="M957,1456.8c0-4.1,1.4-7.3,4.9-7.3c3.5,0,4.9,3.2,4.9,7.3c0,4.1-1.4,7.3-4.9,7.3
			C958.4,1464.1,957,1460.9,957,1456.8z M964.9,1456.8c0-3.6-1-5.6-3-5.6c-2,0-3,2-3,5.6c0,3.6,1,5.6,3,5.6
			C963.9,1462.4,964.8,1460.4,964.9,1456.8L964.9,1456.8z"/>
		<path class="st0" d="M968.5,1456.8c0-4.1,1.4-7.3,4.9-7.3c3.5,0,4.9,3.2,4.9,7.3c0,4.1-1.4,7.3-4.9,7.3
			C969.9,1464.1,968.5,1460.9,968.5,1456.8z M976.4,1456.8c0-3.6-1-5.6-3-5.6c-2,0-3,2-3,5.6c0,3.6,1,5.6,3,5.6
			S976.4,1460.4,976.4,1456.8z"/>
	</g>
	<g>
		<path class="st0" d="M926.3,1510.2l0,1.9l-2.2,0l0-18.1l2.2,0l0,7.2c0,2.7,1,3.6,2.9,3.6c1.8,0,3.3-1.7,3.3-4.4l0-6.4l2.2,0
			l0,12.4l-2.1,0l0-1.8h-0.1c-0.7,1.4-2.2,2.3-3.8,2.2c-0.9,0-1.8-0.2-2.5-0.7H926C926.2,1507.4,926.3,1508.8,926.3,1510.2z"/>
		<path class="st0" d="M939.9,1507.9c0,1.5,1.4,2.4,3.4,2.4c2,0,4-1.1,4-4.6l0-1.3h-0.1c-0.8,1.5-2.5,2.4-4.2,2.3
			c-3.2,0-5.5-2.3-5.5-6.4c0-4.1,2.6-6.6,5.7-6.6c1.7-0.1,3.2,0.8,4,2.2h0.1l0-2l2.1,0l0,11.9c0,4.7-2.8,6.4-6.1,6.4
			c-3.3,0-5.5-1.5-5.5-4.3L939.9,1507.9z M943.4,1504.7c2,0,3.7-1.7,3.7-4.6c0-2.9-1.7-4.6-3.7-4.6c-2,0-3.7,1.7-3.7,4.7
			C939.8,1503.2,941.4,1504.7,943.4,1504.7z"/>
		<path class="st0" d="M959.3,1488.5l1.9,0l-7.8,18.2l-2,0L959.3,1488.5z"/>
		<path class="st0" d="M961.6,1493.9l2.1,0l0,1.8h0.1c0.7-1.4,2.2-2.3,3.8-2.1c1.7-0.2,3.4,0.9,3.9,2.5c0.7-1.7,2.4-2.7,4.2-2.5
			c2.3,0,4.3,1.3,4.3,5l0,7.8l-2.2,0l0-7.4c0-2.4-0.8-3.4-2.6-3.4s-3.3,1.7-3.3,4.3l0,6.5l-2.2,0l0-7.4c0-2.4-0.9-3.4-2.6-3.4
			c-1.6,0-3.3,1.7-3.3,4.4l0,6.4l-2.2,0L961.6,1493.9z"/>
		<path class="st0" d="M983.7,1494.7c-0.1,1.1,0.7,2.1,1.8,2.1c0.1,0,0.3,0,0.4,0c1.3,0,2.2-0.7,2.2-1.9c0-1.1-0.9-2-2-2
			c-0.1,0-0.1,0-0.2,0h-0.8l0-1.1l0.8,0c0.9,0.1,1.8-0.6,1.8-1.6c0,0,0-0.1,0-0.1c0-0.9-0.8-1.7-1.7-1.7c0,0-0.1,0-0.1,0
			c-0.9-0.1-1.7,0.7-1.8,1.6c0,0.1,0,0.2,0,0.3l-1.2,0c0.1-1.7,1.6-3,3.3-2.9c1.5,0.1,2.7,1.2,2.9,2.7c0,1-0.6,1.9-1.5,2.3l0,0
			c1.1,0.3,1.9,1.4,1.9,2.6c-0.1,1.7-1.6,3-3.3,2.9c-0.1,0-0.1,0-0.2,0c-1.7,0.2-3.2-0.9-3.5-2.6c0-0.2,0-0.4,0-0.6L983.7,1494.7z"
			/>
	</g>
	<g>
		<g class="st1">
			<path d="M144.9,207.5v9.4h-1.6v-7.5h-5.1v5.9h-1.6v-5.9h-5.8v-1.9H144.9z"/>
			<path d="M144.9,219.3v9.5h-1.6v-7.6h-4.5v6.1h-1.6v-6.1h-4.7v7.8h-1.6v-9.7H144.9z"/>
			<path d="M144.9,231.8v5.8c0,3.1-1.4,4.5-3.7,4.5c-1.3,0-2.5-0.7-3-2.2h-0.1c-0.3,1.7-1.6,2.8-3.2,2.8c-2.4,0-4.2-1.6-4.2-4.7
				v-6.2H144.9z M143.3,233.7h-4.4v3.9c0,1.7,1,2.6,2.3,2.6c1.2,0,2-0.7,2-2.6V233.7z M137.3,233.7h-4.8v4.4c0,1.9,1,2.8,2.5,2.8
				c1.3,0,2.3-0.9,2.3-2.8V233.7z"/>
		</g>
	</g>
	<g>
		<g class="st1">
			<path d="M132.9,104.5L132.9,104.5c-1.6-1.1-2.3-2.5-2.3-4.7c0-4,3.1-6.9,7.3-6.9c4.2,0,7.3,2.9,7.3,7c0,3.4-1.9,5.6-4.4,6.2v-2
				c1.5-0.5,2.7-1.8,2.7-4.2c0-3.1-2.4-5-5.6-5c-3.2,0-5.6,2-5.6,4.9c0,2.4,1.4,4.5,3.9,4.5h0.4v-4.4h1.6v6.2h-7.5v-1.2L132.9,104.5
				z"/>
			<path d="M144.9,109.4v9.5h-1.6v-7.6h-4.5v6.1h-1.6v-6.1h-4.7v7.8h-1.6v-9.7H144.9z"/>
			<path d="M144.9,122v1.8l-10.9,7.8v0.1l10.9-0.1v1.9h-14.1v-1.8l10.8-7.8v-0.1l-10.8,0.1V122H144.9z"/>
		</g>
	</g>
	<g>
		<g class="st1">
			<path d="M144.9,314.9v2.3l-11.6,5.2v0l11.6,5.1v2.3h-14.1v-1.9l11.2,0.2V328l-11.2-4.9v-1.5l10.9-4.9v-0.1l-10.9,0.2v-1.9H144.9z
				"/>
			<path d="M144.9,337.1v2.2l-14.1,5.3v-2l3.7-1.3v-6.2l-3.7-1.3v-1.9L144.9,337.1z M143,338.2l-6.8-2.5v5L143,338.2L143,338.2z"/>
			<path d="M144.9,346.7v5.3c0,3.2-1.5,4.9-4.2,4.9c-2.1,0-3.7-1.1-4.2-3.1l-5.7,3.6v-2.1l5.5-3.5v-3.3h-5.5v-1.9H144.9z
				 M143.3,348.6H138v3.5c0,2,1.2,3,2.8,3c1.6,0,2.5-1.1,2.5-3V348.6z"/>
		</g>
	</g>
	<g>
		<g class="st1">
			<path d="M144.9,436.1v2.2l-14.1,5.3v-2l3.7-1.3v-6.2l-3.7-1.3v-1.9L144.9,436.1z M143,437.1l-6.8-2.5v5L143,437.1L143,437.1z"/>
			<path d="M144.9,445.6v5.3c0,3.2-1.9,5-4.5,5c-2.7,0-4.7-1.8-4.7-5v-3.5h-4.9v-1.9H144.9z M143.3,447.5h-5.9v3.5c0,2.1,1.4,3,3,3
				c1.6,0,2.9-1,2.9-3V447.5z"/>
			<path d="M144.9,458.7v5.3c0,3.2-1.5,4.9-4.2,4.9c-2.1,0-3.7-1.1-4.2-3.1l-5.7,3.6v-2.1l5.5-3.5v-3.3h-5.5v-1.9H144.9z
				 M143.3,460.6H138v3.5c0,2,1.2,3,2.8,3c1.6,0,2.5-1.1,2.5-3V460.6z"/>
		</g>
	</g>
	<g>
		<g class="st1">
			<path d="M144.9,543.5v2.3l-11.6,5.2v0l11.6,5.1v2.3h-14.1v-1.9l11.2,0.2v-0.1l-11.2-4.9v-1.5l10.9-4.9v-0.1l-10.9,0.2v-1.9H144.9
				z"/>
			<path d="M144.9,565.8v2.2l-14.1,5.3v-2l3.7-1.3v-6.2l-3.7-1.3v-1.9L144.9,565.8z M143,566.8l-6.8-2.5v5L143,566.8L143,566.8z"/>
			<path d="M132.9,585.6L132.9,585.6c-1.6-1.1-2.3-2.5-2.3-4.7c0-4,3.1-6.9,7.3-6.9c4.2,0,7.3,2.9,7.3,7c0,3.4-1.9,5.6-4.4,6.2v-2
				c1.5-0.5,2.7-1.8,2.7-4.2c0-3.1-2.4-5-5.6-5c-3.2,0-5.6,2-5.6,4.9c0,2.4,1.4,4.5,3.9,4.5h0.4V581h1.6v6.2h-7.5v-1.2L132.9,585.6z
				"/>
		</g>
	</g>
	<g>
		<g class="st1">
			<path d="M132.9,674.7L132.9,674.7c-1.6-1.1-2.3-2.5-2.3-4.7c0-4,3.1-6.9,7.3-6.9c4.2,0,7.3,2.9,7.3,7c0,3.4-1.9,5.6-4.4,6.2v-2
				c1.5-0.5,2.7-1.8,2.7-4.2c0-3.1-2.4-5-5.6-5c-3.2,0-5.6,2-5.6,4.9c0,2.4,1.4,4.5,3.9,4.5h0.4v-4.4h1.6v6.2h-7.5v-1.2L132.9,674.7
				z"/>
			<path d="M144.9,679.7v1.9h-14.1v-1.9H144.9z"/>
			<path d="M144.9,684.8v1.9h-8.5c-2.6,0-4.1,1.2-4.1,3.8c0,2.6,1.5,3.8,4.1,3.8h8.5v1.9h-8.5c-4.2,0-5.8-2.3-5.8-5.7
				c0-3.3,1.6-5.7,5.8-5.7H144.9z"/>
		</g>
	</g>
	<g>
		<g class="st1">
			<path d="M144.9,776.1v1.9h-12.5v6.9h-1.6v-8.8H144.9z"/>
			<path d="M144.9,786.6v1.9h-8.5c-2.6,0-4.1,1.2-4.1,3.8c0,2.6,1.5,3.8,4.1,3.8h8.5v1.9h-8.5c-4.2,0-5.8-2.3-5.8-5.7
				c0-3.3,1.6-5.7,5.8-5.7H144.9z"/>
			<path d="M132.9,812.1L132.9,812.1c-1.6-1.1-2.3-2.5-2.3-4.7c0-4,3.1-6.9,7.3-6.9c4.2,0,7.3,2.9,7.3,7c0,3.4-1.9,5.6-4.4,6.2v-2
				c1.5-0.5,2.7-1.8,2.7-4.2c0-3.1-2.4-5-5.6-5c-3.2,0-5.6,2-5.6,4.9c0,2.4,1.4,4.5,3.9,4.5h0.4v-4.4h1.6v6.2h-7.5v-1.2L132.9,812.1
				z"/>
		</g>
	</g>
	<g>
		<g class="st1">
			<path d="M144.9,894.8v2.2l-14.1,5.3v-2l3.7-1.3v-6.2l-3.7-1.3v-1.9L144.9,894.8z M143,895.9l-6.8-2.5v5L143,895.9L143,895.9z"/>
			<path d="M132.9,914.7L132.9,914.7c-1.6-1.1-2.3-2.5-2.3-4.7c0-4,3.1-6.9,7.3-6.9c4.2,0,7.3,2.9,7.3,7c0,3.4-1.9,5.6-4.4,6.2v-2
				c1.5-0.5,2.7-1.8,2.7-4.2c0-3.1-2.4-5-5.6-5c-3.2,0-5.6,2-5.6,4.9c0,2.4,1.4,4.5,3.9,4.5h0.4v-4.4h1.6v6.2h-7.5V915L132.9,914.7z
				"/>
			<path d="M145.2,925.6c0,4-3.1,6.9-7.3,6.9c-4.2,0-7.3-2.9-7.3-6.9c0-4.1,3.1-6.9,7.3-6.9C142.1,918.7,145.2,921.5,145.2,925.6z
				 M132.3,925.6c0,3,2.4,4.9,5.6,4.9c3.2,0,5.6-2,5.6-4.9s-2.4-4.9-5.6-4.9C134.7,920.7,132.3,922.6,132.3,925.6z"/>
		</g>
	</g>
	<g>
		<g class="st1">
			<path d="M134.8,1010.2c-1.5,0-2.7,1.3-2.7,3.5c0,2.3,1,3.6,2.6,3.6c3.7,0,0.9-8.8,6.3-8.8c2.4,0,4.1,2.1,4.1,5.2
				c0,3-1.5,5.2-4,5.2v-1.9c1.6,0,2.5-1.4,2.5-3.3c0-1.8-0.8-3.3-2.4-3.3c-3.7,0-0.8,8.9-6.4,8.9c-2.5,0-4.3-2.1-4.3-5.6
				c0-3.5,1.7-5.4,4.3-5.4V1010.2z"/>
			<path d="M144.9,1022.3v9.5h-1.6v-7.6h-4.5v6.1h-1.6v-6.1h-4.7v7.8h-1.6v-9.7H144.9z"/>
			<path d="M144.9,1033.2v11.7h-1.6v-4.9h-12.5v-1.9h12.5v-4.9H144.9z"/>
		</g>
	</g>
	<g>
		<g class="st1">
			<path d="M145.2,1129.2c0,4-3.1,6.9-7.3,6.9c-4.2,0-7.3-2.9-7.3-6.9c0-4.1,3.1-6.9,7.3-6.9
				C142.1,1122.3,145.2,1125.1,145.2,1129.2z M132.3,1129.2c0,3,2.4,4.9,5.6,4.9c3.2,0,5.6-2,5.6-4.9c0-3-2.4-4.9-5.6-4.9
				C134.7,1124.3,132.3,1126.2,132.3,1129.2z"/>
			<path d="M144.9,1136.4v11.7h-1.6v-4.9h-12.5v-1.9h12.5v-4.9H144.9z"/>
			<path d="M144.9,1148.5v11.7h-1.6v-4.9h-12.5v-1.9h12.5v-4.9H144.9z"/>
		</g>
	</g>
	<g>
		<g class="st1">
			<path d="M144.9,1235.9v1.8l-10.9,7.8v0.1l10.9-0.1v1.9h-14.1v-1.8l10.8-7.8v-0.1l-10.8,0.1v-1.9H144.9z"/>
			<path d="M145.2,1257.1c0,4-3.1,6.9-7.3,6.9c-4.2,0-7.3-2.9-7.3-6.9c0-4.1,3.1-6.9,7.3-6.9
				C142.1,1250.2,145.2,1252.9,145.2,1257.1z M132.3,1257.1c0,3,2.4,4.9,5.6,4.9c3.2,0,5.6-2,5.6-4.9c0-3-2.4-4.9-5.6-4.9
				C134.7,1252.1,132.3,1254.1,132.3,1257.1z"/>
			<path d="M144.9,1264.6v2l-12.2,4.2v0.1l12.2,4.2v1.9l-14.1-5.2v-2.1L144.9,1264.6z"/>
		</g>
	</g>
	<g>
		<g class="st1">
			<path d="M144.9,1353v4.4c0,4.9-2.9,7.4-7.1,7.4c-4.1,0-7.1-2.5-7.1-7.4v-4.4H144.9z M143.3,1354.9h-10.8v2.5c0,4,2.5,5.4,5.4,5.4
				c2.9,0,5.4-1.5,5.4-5.4V1354.9z"/>
			<path d="M144.9,1367.5v1.9h-14.1v-1.9H144.9z"/>
			<path d="M145.2,1378.9c0,3.3-1.9,5.4-4.7,6v-2c1.9-0.5,3-1.9,3-4c0-2.9-2.3-4.8-5.6-4.8c-3.2,0-5.6,2-5.6,4.8c0,2.3,1,3.6,3,4.1
				v2c-2.8-0.6-4.7-2.8-4.7-6.1c0-4,3-6.7,7.3-6.7C142.1,1372.1,145.2,1374.9,145.2,1378.9z"/>
		</g>
	</g>
	<g>
		
			<rect x="378.3" y="-161.5" transform="matrix(-1.836970e-16 1 -1 -1.836970e-16 828.7372 -323.0078)" class="st2" width="395.1" height="828.6"/>
	</g>
	<g>
		
			<rect x="431.3" y="866.1" transform="matrix(-1.836970e-16 1 -1 -1.836970e-16 1856.2523 704.509)" class="st2" width="289.2" height="828.7"/>
	</g>
	<g>
		<g>
			<path class="st3" d="M161.1,172c0-0.2,0.2-0.4,0.4-0.4h828.2c0.2,0,0.4,0.2,0.4,0.4s-0.2,0.4-0.4,0.4H161.5
				C161.3,172.4,161.1,172.2,161.1,172z"/>
		</g>
		<g>
			<path class="st3" d="M161.1,277.3c0-0.2,0.2-0.4,0.4-0.4h828.2c0.2,0,0.4,0.2,0.4,0.4c0,0.2-0.2,0.4-0.4,0.4H161.5
				C161.3,277.8,161.1,277.6,161.1,277.3z"/>
		</g>
		<g>
			<path class="st3" d="M161.1,394c0-0.2,0.2-0.4,0.4-0.4h828.2c0.2,0,0.4,0.2,0.4,0.4c0,0.2-0.2,0.4-0.4,0.4H161.5
				C161.3,394.4,161.1,394.2,161.1,394z"/>
		</g>
		<g>
			<path class="st3" d="M161.1,506.9c0-0.2,0.2-0.4,0.4-0.4h828.2c0.2,0,0.4,0.2,0.4,0.4c0,0.2-0.2,0.4-0.4,0.4H161.5
				C161.3,507.3,161.1,507.1,161.1,506.9z"/>
		</g>
		<g>
			<path class="st3" d="M161.1,623.5c0-0.2,0.2-0.4,0.4-0.4h828.2c0.2,0,0.4,0.2,0.4,0.4s-0.2,0.4-0.4,0.4H161.5
				C161.3,623.9,161.1,623.7,161.1,623.5z"/>
		</g>
		<g>
			<path class="st3" d="M161.1,736.4c0-0.2,0.2-0.4,0.4-0.4h828.2c0.2,0,0.4,0.2,0.4,0.4s-0.2,0.4-0.4,0.4H161.5
				C161.3,736.8,161.1,736.6,161.1,736.4z"/>
		</g>
		<g>
			<path class="st3" d="M161.1,853c0-0.2,0.2-0.4,0.4-0.4h828.2c0.2,0,0.4,0.2,0.4,0.4c0,0.2-0.2,0.4-0.4,0.4H161.5
				C161.3,853.5,161.1,853.3,161.1,853z"/>
		</g>
		<g>
			<path class="st3" d="M161.1,969.7c0-0.2,0.2-0.4,0.4-0.4h828.2c0.2,0,0.4,0.2,0.4,0.4c0,0.2-0.2,0.4-0.4,0.4H161.5
				C161.3,970.1,161.1,969.9,161.1,969.7z"/>
		</g>
		<g>
			<path class="st3" d="M161.1,1082.6c0-0.2,0.2-0.4,0.4-0.4h828.2c0.2,0,0.4,0.2,0.4,0.4c0,0.2-0.2,0.4-0.4,0.4H161.5
				C161.3,1083,161.1,1082.8,161.1,1082.6z"/>
		</g>
		<g>
			<path class="st3" d="M161.1,1199.2c0-0.2,0.2-0.4,0.4-0.4h828.2c0.2,0,0.4,0.2,0.4,0.4c0,0.2-0.2,0.4-0.4,0.4H161.5
				C161.3,1199.6,161.1,1199.4,161.1,1199.2z"/>
		</g>
		<g>
			<g>
				<path class="st3" d="M161.1,1312.1c0-0.2,0.2-0.4,0.4-0.4h828.2c0.2,0,0.4,0.2,0.4,0.4c0,0.2-0.2,0.4-0.4,0.4H161.5
					C161.3,1312.5,161.1,1312.3,161.1,1312.1z"/>
			</g>
			<g>
				<path class="st3" d="M161.1,55.3c0-0.2,0.2-0.4,0.4-0.4h828.2c0.2,0,0.4,0.2,0.4,0.4s-0.2,0.4-0.4,0.4H161.5
					C161.3,55.8,161.1,55.6,161.1,55.3z"/>
			</g>
			<g>
				<path class="st3" d="M161.1,1425c0-0.2,0.2-0.4,0.4-0.4h828.2c0.2,0,0.4,0.2,0.4,0.4c0,0.2-0.2,0.4-0.4,0.4H161.5
					C161.3,1425.4,161.1,1425.2,161.1,1425z"/>
			</g>
		</g>
	</g>
	<g transform="translate(0,0)">
		<g>
			<circle cx="411" cy="55.3" r="4.1"/>
		</g>
	</g>
	<g transform="translate(0,0)">
		<g>
			<circle cx="507.6" cy="66.6" r="4.1"/>
		</g>
	</g>
	<g transform="translate(0,0)">
		<g>
			<circle cx="386.9" cy="70.4" r="4.1"/>
		</g>
	</g>
	<g transform="translate(0,0)">
		<g>
			<circle cx="322.5" cy="74.2" r="4.1"/>
		</g>
	</g>
	<g transform="translate(0,0)">
		<g>
			<circle cx="338.6" cy="77.9" r="4.1"/>
		</g>
	</g>
	<g transform="translate(0,0)">
		<g>
			<circle cx="491.5" cy="81.7" r="4.1"/>
		</g>
	</g>
	<g transform="translate(0,0)">
		<g>
			<circle cx="475.4" cy="93" r="4.1"/>
		</g>
	</g>
	<g transform="translate(0,0)">
		<g>
			<circle cx="386.9" cy="104.3" r="4.1"/>
		</g>
	</g>
	<g transform="translate(0,0)">
		<g>
			<circle cx="507.6" cy="108" r="4.1"/>
		</g>
	</g>
	<g transform="translate(0,0)">
		<g>
			<circle cx="378.8" cy="111.8" r="4.1"/>
		</g>
	</g>
	<g transform="translate(0,0)">
		<g>
			<circle cx="346.6" cy="115.5" r="4.1"/>
		</g>
	</g>
	<g transform="translate(0,0)">
		<g>
			<circle cx="427.1" cy="119.3" r="4.1"/>
		</g>
	</g>
	<g transform="translate(0,0)">
		<g>
			<circle cx="467.3" cy="123.1" r="4.1"/>
		</g>
	</g>
	<g transform="translate(0,0)">
		<g>
			<circle cx="507.6" cy="126.8" r="4.1"/>
		</g>
	</g>
	<g transform="translate(0,0)">
		<g>
			<circle cx="555.8" cy="130.6" r="4.1"/>
		</g>
	</g>
	<g transform="translate(0,0)">
		<g>
			<circle cx="491.5" cy="141.9" r="4.1"/>
		</g>
	</g>
	<g transform="translate(0,0)">
		<g>
			<circle cx="555.8" cy="145.6" r="4.1"/>
		</g>
	</g>
	<g transform="translate(0,0)">
		<g>
			<circle cx="378.8" cy="183.3" r="4.1"/>
		</g>
	</g>
	<g transform="translate(0,0)">
		<g>
			<circle cx="282.2" cy="187" r="4.1"/>
		</g>
	</g>
	<g transform="translate(0,0)">
		<g>
			<circle cx="258.1" cy="190.8" r="4.1"/>
		</g>
	</g>
	<g transform="translate(0,0)">
		<g>
			<circle cx="378.8" cy="194.6" r="4.1"/>
		</g>
	</g>
	<g transform="translate(0,0)">
		<g>
			<circle cx="427.1" cy="198.3" r="4.1"/>
		</g>
	</g>
	<g transform="translate(0,0)">
		<g>
			<circle cx="539.7" cy="202.1" r="4.1"/>
		</g>
	</g>
	<g transform="translate(0,0)">
		<g>
			<circle cx="451.2" cy="205.9" r="4.1"/>
		</g>
	</g>
	<g transform="translate(0,0)">
		<g>
			<circle cx="539.7" cy="220.9" r="4.1"/>
		</g>
	</g>
	<g transform="translate(0,0)">
		<g>
			<circle cx="507.6" cy="224.7" r="4.1"/>
		</g>
	</g>
	<g transform="translate(0,0)">
		<g>
			<circle cx="386.9" cy="228.4" r="4.1"/>
		</g>
	</g>
	<g transform="translate(0,0)">
		<g>
			<circle cx="491.5" cy="232.2" r="4.1"/>
		</g>
	</g>
	<g transform="translate(0,0)">
		<g>
			<circle cx="539.7" cy="236" r="4.1"/>
		</g>
	</g>
	<g transform="translate(0,0)">
		<g>
			<circle cx="539.7" cy="239.7" r="4.1"/>
		</g>
	</g>
	<g transform="translate(0,0)">
		<g>
			<circle cx="483.4" cy="258.5" r="4.1"/>
		</g>
	</g>
	<g transform="translate(0,0)">
		<g>
			<circle cx="274.2" cy="262.3" r="4.1"/>
		</g>
	</g>
	<g transform="translate(0,0)">
		<g>
			<circle cx="306.4" cy="266.1" r="4.1"/>
		</g>
	</g>
	<g transform="translate(0,0)">
		<g>
			<circle cx="419" cy="269.8" r="4.1"/>
		</g>
	</g>
	<g transform="translate(0,0)">
		<g>
			<circle cx="266.2" cy="273.6" r="4.1"/>
		</g>
	</g>
	<g transform="translate(0,0)">
		<g>
			<circle cx="234" cy="277.3" r="4.1"/>
		</g>
	</g>
	<g transform="translate(0,0)">
		<g>
			<circle cx="346.6" cy="281.1" r="4.1"/>
		</g>
	</g>
	<g transform="translate(0,0)">
		<g>
			<circle cx="443.2" cy="284.9" r="4.1"/>
		</g>
	</g>
	<g transform="translate(0,0)">
		<g>
			<circle cx="386.9" cy="288.6" r="4.1"/>
		</g>
	</g>
	<g transform="translate(0,0)">
		<g>
			<circle cx="193.7" cy="292.4" r="4.1"/>
		</g>
	</g>
	<g transform="translate(0,0)">
		<g>
			<circle cx="234" cy="296.2" r="4.1"/>
		</g>
	</g>
	<g transform="translate(0,0)">
		<g>
			<circle cx="346.6" cy="299.9" r="4.1"/>
		</g>
	</g>
	<g transform="translate(0,0)">
		<g>
			<ellipse transform="matrix(0.9239 -0.3827 0.3827 0.9239 -93.5044 137.2862)" cx="298.3" cy="303.7" rx="4.1" ry="4.1"/>
		</g>
	</g>
	<g transform="translate(0,0)">
		<g>
			<circle cx="362.7" cy="307.4" r="4.1"/>
		</g>
	</g>
	<g transform="translate(0,0)">
		<g>
			<circle cx="362.7" cy="311.2" r="4.1"/>
		</g>
	</g>
	<g transform="translate(0,0)">
		<g>
			<circle cx="266.2" cy="315" r="4.1"/>
		</g>
	</g>
	<g transform="translate(0,0)">
		<g>
			<circle cx="282.2" cy="318.7" r="4.1"/>
		</g>
	</g>
	<g transform="translate(0,0)">
		<g>
			<circle cx="411" cy="322.5" r="4.1"/>
		</g>
	</g>
	<g transform="translate(0,0)">
		<g>
			<circle cx="443.2" cy="330" r="4.1"/>
		</g>
	</g>
	<g transform="translate(0,0)">
		<g>
			<circle cx="507.6" cy="333.8" r="4.1"/>
		</g>
	</g>
	<g transform="translate(0,0)">
		<g>
			<circle cx="402.9" cy="337.5" r="4.1"/>
		</g>
	</g>
	<g transform="translate(0,0)">
		<g>
			<circle cx="298.3" cy="341.3" r="4.1"/>
		</g>
	</g>
	<g transform="translate(0,0)">
		<g>
			<circle cx="523.6" cy="345.1" r="4.1"/>
		</g>
	</g>
	<g transform="translate(0,0)">
		<g>
			<circle cx="555.8" cy="352.6" r="4.1"/>
		</g>
	</g>
	<g transform="translate(0,0)">
		<g>
			<circle cx="555.8" cy="356.4" r="4.1"/>
		</g>
	</g>
	<g transform="translate(0,0)">
		<g>
			<circle cx="402.9" cy="360.1" r="4.1"/>
		</g>
	</g>
	<g transform="translate(0,0)">
		<g>
			<circle cx="467.3" cy="363.9" r="4.1"/>
		</g>
	</g>
	<g transform="translate(0,0)">
		<g>
			<circle cx="491.5" cy="367.6" r="4.1"/>
		</g>
	</g>
	<g transform="translate(0,0)">
		<g>
			<circle cx="258.1" cy="371.4" r="4.1"/>
		</g>
	</g>
	<g transform="translate(0,0)">
		<g>
			<circle cx="306.4" cy="375.2" r="4.1"/>
		</g>
	</g>
	<g transform="translate(0,0)">
		<g>
			<circle cx="346.6" cy="378.9" r="4.1"/>
		</g>
	</g>
	<g transform="translate(0,0)">
		<g>
			<circle cx="362.7" cy="382.7" r="4.1"/>
		</g>
	</g>
	<g transform="translate(0,0)">
		<g>
			<circle cx="330.5" cy="386.5" r="4.1"/>
		</g>
	</g>
	<g transform="translate(0,0)">
		<g>
			<circle cx="354.7" cy="390.2" r="4.1"/>
		</g>
	</g>
	<g transform="translate(0,0)">
		<g>
			<circle cx="338.6" cy="394" r="4.1"/>
		</g>
	</g>
	<g transform="translate(0,0)">
		<g>
			<circle cx="475.4" cy="397.8" r="4.1"/>
		</g>
	</g>
	<g transform="translate(0,0)">
		<g>
			<circle cx="378.8" cy="401.5" r="4.1"/>
		</g>
	</g>
	<g transform="translate(0,0)">
		<g>
			<circle cx="394.9" cy="405.3" r="4.1"/>
		</g>
	</g>
	<g transform="translate(0,0)">
		<g>
			<circle cx="338.6" cy="409" r="4.1"/>
		</g>
	</g>
	<g transform="translate(0,0)">
		<g>
			<circle cx="354.7" cy="412.8" r="4.1"/>
		</g>
	</g>
	<g transform="translate(0,0)">
		<g>
			<circle cx="314.4" cy="416.6" r="4.1"/>
		</g>
	</g>
	<g transform="translate(0,0)">
		<g>
			<circle cx="362.7" cy="420.3" r="4.1"/>
		</g>
	</g>
	<g transform="translate(0,0)">
		<g>
			<circle cx="346.6" cy="424.1" r="4.1"/>
		</g>
	</g>
	<g transform="translate(0,0)">
		<g>
			<circle cx="322.5" cy="427.9" r="4.1"/>
		</g>
	</g>
	<g transform="translate(0,0)">
		<g>
			<circle cx="378.8" cy="431.6" r="4.1"/>
		</g>
	</g>
	<g transform="translate(0,0)">
		<g>
			<circle cx="330.5" cy="435.4" r="4.1"/>
		</g>
	</g>
	<g transform="translate(0,0)">
		<g>
			<circle cx="290.3" cy="439.1" r="4.1"/>
		</g>
	</g>
	<g transform="translate(0,0)">
		<g>
			<circle cx="322.5" cy="442.9" r="4.1"/>
		</g>
	</g>
	<g transform="translate(0,0)">
		<g>
			<circle cx="282.2" cy="446.7" r="4.1"/>
		</g>
	</g>
	<g transform="translate(0,0)">
		<g>
			<circle cx="250.1" cy="450.4" r="4.1"/>
		</g>
	</g>
	<g transform="translate(0,0)">
		<g>
			<circle cx="242" cy="454.2" r="4.1"/>
		</g>
	</g>
	<g transform="translate(0,0)">
		<g>
			<circle cx="242" cy="458" r="4.1"/>
		</g>
	</g>
	<g transform="translate(0,0)">
		<g>
			<circle cx="274.2" cy="461.7" r="4.1"/>
		</g>
	</g>
	<g transform="translate(0,0)">
		<g>
			<circle cx="290.3" cy="465.5" r="4.1"/>
		</g>
	</g>
	<g transform="translate(0,0)">
		<g>
			<circle cx="322.5" cy="469.2" r="4.1"/>
		</g>
	</g>
	<g transform="translate(0,0)">
		<g>
			<circle cx="298.3" cy="473" r="4.1"/>
		</g>
	</g>
	<g transform="translate(0,0)">
		<g>
			<circle cx="314.4" cy="476.8" r="4.1"/>
		</g>
	</g>
	<g transform="translate(0,0)">
		<g>
			<circle cx="370.8" cy="480.5" r="4.1"/>
		</g>
	</g>
	<g transform="translate(0,0)">
		<g>
			<circle cx="234" cy="484.3" r="4.1"/>
		</g>
	</g>
	<g transform="translate(0,0)">
		<g>
			<circle cx="298.3" cy="488.1" r="4.1"/>
		</g>
	</g>
	<g transform="translate(0,0)">
		<g>
			<circle cx="354.7" cy="491.8" r="4.1"/>
		</g>
	</g>
	<g transform="translate(0,0)">
		<g>
			<circle cx="258.1" cy="495.6" r="4.1"/>
		</g>
	</g>
	<g transform="translate(0,0)">
		<g>
			<circle cx="282.2" cy="499.3" r="4.1"/>
		</g>
	</g>
	<g transform="translate(0,0)">
		<g>
			<circle cx="274.2" cy="503.1" r="4.1"/>
		</g>
	</g>
	<g transform="translate(0,0)">
		<g>
			<circle cx="282.2" cy="506.9" r="4.1"/>
		</g>
	</g>
	<g transform="translate(0,0)">
		<g>
			<circle cx="242" cy="510.6" r="4.1"/>
		</g>
	</g>
	<g transform="translate(0,0)">
		<g>
			<circle cx="282.2" cy="514.4" r="4.1"/>
		</g>
	</g>
	<g transform="translate(0,0)">
		<g>
			<ellipse transform="matrix(0.1602 -0.9871 0.9871 0.1602 -274.4308 713.7597)" cx="282.2" cy="518.2" rx="4.1" ry="4.1"/>
		</g>
	</g>
	<g transform="translate(0,0)">
		<g>
			<circle cx="290.3" cy="521.9" r="4.1"/>
		</g>
	</g>
	<g transform="translate(0,0)">
		<g>
			<circle cx="298.3" cy="525.7" r="4.1"/>
		</g>
	</g>
	<g transform="translate(0,0)">
		<g>
			<circle cx="185.7" cy="529.4" r="4.1"/>
		</g>
	</g>
	<g transform="translate(0,0)">
		<g>
			<circle cx="266.2" cy="533.2" r="4.1"/>
		</g>
	</g>
	<g transform="translate(0,0)">
		<g>
			<circle cx="225.9" cy="537" r="4.1"/>
		</g>
	</g>
	<g transform="translate(0,0)">
		<g>
			<circle cx="274.2" cy="540.7" r="4.1"/>
		</g>
	</g>
	<g transform="translate(0,0)">
		<g>
			<circle cx="338.6" cy="544.5" r="4.1"/>
		</g>
	</g>
	<g transform="translate(0,0)">
		<g>
			<circle cx="370.8" cy="548.3" r="4.1"/>
		</g>
	</g>
	<g transform="translate(0,0)">
		<g>
			<circle cx="274.2" cy="552" r="4.1"/>
		</g>
	</g>
	<g transform="translate(0,0)">
		<g>
			<circle cx="266.2" cy="555.8" r="4.1"/>
		</g>
	</g>
	<g transform="translate(0,0)">
		<g>
			<circle cx="290.3" cy="559.5" r="4.1"/>
		</g>
	</g>
	<g transform="translate(0,0)">
		<g>
			<circle cx="290.3" cy="563.3" r="4.1"/>
		</g>
	</g>
	<g transform="translate(0,0)">
		<g>
			<circle cx="274.2" cy="567.1" r="4.1"/>
		</g>
	</g>
	<g transform="translate(0,0)">
		<g>
			<circle cx="282.2" cy="570.8" r="4.1"/>
		</g>
	</g>
	<g transform="translate(0,0)">
		<g>
			<circle cx="282.2" cy="574.6" r="4.1"/>
		</g>
	</g>
	<g transform="translate(0,0)">
		<g>
			<circle cx="258.1" cy="578.4" r="4.1"/>
		</g>
	</g>
	<g transform="translate(0,0)">
		<g>
			<circle cx="234" cy="582.1" r="4.1"/>
		</g>
	</g>
	<g transform="translate(0,0)">
		<g>
			<circle cx="274.2" cy="585.9" r="4.1"/>
		</g>
	</g>
	<g transform="translate(0,0)">
		<g>
			<circle cx="282.2" cy="589.6" r="4.1"/>
		</g>
	</g>
	<g transform="translate(0,0)">
		<g>
			<circle cx="274.2" cy="593.4" r="4.1"/>
		</g>
	</g>
	<g transform="translate(0,0)">
		<g>
			<circle cx="290.3" cy="597.2" r="4.1"/>
		</g>
	</g>
	<g transform="translate(0,0)">
		<g>
			<circle cx="282.2" cy="600.9" r="4.1"/>
		</g>
	</g>
	<g transform="translate(0,0)">
		<g>
			<circle cx="274.2" cy="604.7" r="4.1"/>
		</g>
	</g>
	<g transform="translate(0,0)">
		<g>
			<circle cx="266.2" cy="608.5" r="4.1"/>
		</g>
	</g>
	<g transform="translate(0,0)">
		<g>
			<circle cx="290.3" cy="612.2" r="4.1"/>
		</g>
	</g>
	<g transform="translate(0,0)">
		<g>
			<circle cx="306.4" cy="616" r="4.1"/>
		</g>
	</g>
	<g transform="translate(0,0)">
		<g>
			<circle cx="266.2" cy="619.8" r="4.1"/>
		</g>
	</g>
	<g transform="translate(0,0)">
		<g>
			<circle cx="258.1" cy="623.5" r="4.1"/>
		</g>
	</g>
	<g transform="translate(0,0)">
		<g>
			<circle cx="274.2" cy="627.3" r="4.1"/>
		</g>
	</g>
	<g transform="translate(0,0)">
		<g>
			
				<ellipse transform="matrix(7.088901e-02 -0.9975 0.9975 7.088901e-02 -374.6891 859.815)" cx="274.2" cy="631" rx="4.1" ry="4.1"/>
		</g>
	</g>
	<g transform="translate(0,0)">
		<g>
			<circle cx="234" cy="634.8" r="4.1"/>
		</g>
	</g>
	<g transform="translate(0,0)">
		<g>
			<circle cx="266.2" cy="638.6" r="4.1"/>
		</g>
	</g>
	<g transform="translate(0,0)">
		<g>
			<circle cx="274.2" cy="642.3" r="4.1"/>
		</g>
	</g>
	<g transform="translate(0,0)">
		<g>
			<circle cx="314.4" cy="646.1" r="4.1"/>
		</g>
	</g>
	<g transform="translate(0,0)">
		<g>
			<circle cx="258.1" cy="649.9" r="4.1"/>
		</g>
	</g>
	<g transform="translate(0,0)">
		<g>
			<circle cx="274.2" cy="653.6" r="4.1"/>
		</g>
	</g>
	<g transform="translate(0,0)">
		<g>
			<circle cx="306.4" cy="657.4" r="4.1"/>
		</g>
	</g>
	<g transform="translate(0,0)">
		<g>
			<circle cx="274.2" cy="661.1" r="4.1"/>
		</g>
	</g>
	<g transform="translate(0,0)">
		<g>
			<circle cx="298.3" cy="664.9" r="4.1"/>
		</g>
	</g>
	<g transform="translate(0,0)">
		<g>
			<circle cx="330.5" cy="668.7" r="4.1"/>
		</g>
	</g>
	<g transform="translate(0,0)">
		<g>
			<circle cx="338.6" cy="672.4" r="4.1"/>
		</g>
	</g>
	<g transform="translate(0,0)">
		<g>
			<circle cx="338.6" cy="676.2" r="4.1"/>
		</g>
	</g>
	<g transform="translate(0,0)">
		<g>
			<circle cx="362.7" cy="680" r="4.1"/>
		</g>
	</g>
	<g transform="translate(0,0)">
		<g>
			<circle cx="346.6" cy="683.7" r="4.1"/>
		</g>
	</g>
	<g transform="translate(0,0)">
		<g>
			<circle cx="266.2" cy="687.5" r="4.1"/>
		</g>
	</g>
	<g transform="translate(0,0)">
		<g>
			<circle cx="282.2" cy="691.2" r="4.1"/>
		</g>
	</g>
	<g transform="translate(0,0)">
		<g>
			<circle cx="314.4" cy="695" r="4.1"/>
		</g>
	</g>
	<g transform="translate(0,0)">
		<g>
			<circle cx="290.3" cy="698.8" r="4.1"/>
		</g>
	</g>
	<g transform="translate(0,0)">
		<g>
			<circle cx="322.5" cy="702.5" r="4.1"/>
		</g>
	</g>
	<g transform="translate(0,0)">
		<g>
			<circle cx="314.4" cy="706.3" r="4.1"/>
		</g>
	</g>
	<g transform="translate(0,0)">
		<g>
			<circle cx="322.5" cy="710.1" r="4.1"/>
		</g>
	</g>
	<g transform="translate(0,0)">
		<g>
			<circle cx="314.4" cy="713.8" r="4.1"/>
		</g>
	</g>
	<g transform="translate(0,0)">
		<g>
			<circle cx="322.5" cy="717.6" r="4.1"/>
		</g>
	</g>
	<g transform="translate(0,0)">
		<g>
			<circle cx="362.7" cy="721.3" r="4.1"/>
		</g>
	</g>
	<g transform="translate(0,0)">
		<g>
			<circle cx="306.4" cy="725.1" r="4.1"/>
		</g>
	</g>
	<g transform="translate(0,0)">
		<g>
			<circle cx="250.1" cy="728.9" r="4.1"/>
		</g>
	</g>
	<g transform="translate(0,0)">
		<g>
			<ellipse transform="matrix(4.065068e-03 -1 1 4.065068e-03 -467.5549 995.805)" cx="266.2" cy="732.6" rx="4.1" ry="4.1"/>
		</g>
	</g>
	<g transform="translate(0,0)">
		<g>
			<circle cx="250.1" cy="736.4" r="4.1"/>
		</g>
	</g>
	<g transform="translate(0,0)">
		<g>
			<circle cx="306.4" cy="740.2" r="4.1"/>
		</g>
	</g>
	<g transform="translate(0,0)">
		<g>
			<circle cx="274.2" cy="743.9" r="4.1"/>
		</g>
	</g>
	<g transform="translate(0,0)">
		<g>
			<ellipse transform="matrix(1 -4.131984e-03 4.131984e-03 1 -3.0867 1.3389)" cx="322.5" cy="747.7" rx="4.1" ry="4.1"/>
		</g>
	</g>
	<g transform="translate(0,0)">
		<g>
			<circle cx="314.4" cy="751.4" r="4.1"/>
		</g>
	</g>
	<g transform="translate(0,0)">
		<g>
			<circle cx="298.3" cy="755.2" r="4.1"/>
		</g>
	</g>
	<g transform="translate(0,0)">
		<g>
			<circle cx="274.2" cy="759" r="4.1"/>
		</g>
	</g>
	<g transform="translate(0,0)">
		<g>
			<circle cx="330.5" cy="762.7" r="4.1"/>
		</g>
	</g>
	<g transform="translate(0,0)">
		<g>
			<circle cx="370.8" cy="766.5" r="4.1"/>
		</g>
	</g>
	<g transform="translate(0,0)">
		<g>
			<circle cx="282.2" cy="770.3" r="4.1"/>
		</g>
	</g>
	<g transform="translate(0,0)">
		<g>
			<circle cx="322.5" cy="774" r="4.1"/>
		</g>
	</g>
	<g transform="translate(0,0)">
		<g>
			<circle cx="298.3" cy="777.8" r="4.1"/>
		</g>
	</g>
	<g transform="translate(0,0)">
		<g>
			<circle cx="322.5" cy="781.5" r="4.1"/>
		</g>
	</g>
	<g transform="translate(0,0)">
		<g>
			<circle cx="314.4" cy="785.3" r="4.1"/>
		</g>
	</g>
	<g transform="translate(0,0)">
		<g>
			<circle cx="250.1" cy="789.1" r="4.1"/>
		</g>
	</g>
	<g transform="translate(0,0)">
		<g>
			<circle cx="266.2" cy="792.8" r="4.1"/>
		</g>
	</g>
	<g transform="translate(0,0)">
		<g>
			<circle cx="282.2" cy="796.6" r="4.1"/>
		</g>
	</g>
	<g transform="translate(0,0)">
		<g>
			<circle cx="306.4" cy="800.4" r="4.1"/>
		</g>
	</g>
	<g transform="translate(0,0)">
		<g>
			<circle cx="314.4" cy="804.1" r="4.1"/>
		</g>
	</g>
	<g transform="translate(0,0)">
		<g>
			<circle cx="322.5" cy="807.9" r="4.1"/>
		</g>
	</g>
	<g transform="translate(0,0)">
		<g>
			<circle cx="346.6" cy="811.6" r="4.1"/>
		</g>
	</g>
	<g transform="translate(0,0)">
		<g>
			<circle cx="330.5" cy="815.4" r="4.1"/>
		</g>
	</g>
	<g transform="translate(0,0)">
		<g>
			<circle cx="322.5" cy="819.2" r="4.1"/>
		</g>
	</g>
	<g transform="translate(0,0)">
		<g>
			<circle cx="306.4" cy="822.9" r="4.1"/>
		</g>
	</g>
	<g transform="translate(0,0)">
		<g>
			<circle cx="258.1" cy="826.7" r="4.1"/>
		</g>
	</g>
	<g transform="translate(0,0)">
		<g>
			<circle cx="266.2" cy="830.5" r="4.1"/>
		</g>
	</g>
	<g transform="translate(0,0)">
		<g>
			<circle cx="282.2" cy="834.2" r="4.1"/>
		</g>
	</g>
	<g transform="translate(0,0)">
		<g>
			<circle cx="338.6" cy="838" r="4.1"/>
		</g>
	</g>
	<g transform="translate(0,0)">
		<g>
			<circle cx="338.6" cy="841.8" r="4.1"/>
		</g>
	</g>
	<g transform="translate(0,0)">
		<g>
			<circle cx="274.2" cy="845.5" r="4.1"/>
		</g>
	</g>
	<g transform="translate(0,0)">
		<g>
			
				<ellipse transform="matrix(0.9951 -9.853768e-02 9.853768e-02 0.9951 -82.0772 36.7024)" cx="330.5" cy="849.3" rx="4.1" ry="4.1"/>
		</g>
	</g>
	<g transform="translate(0,0)">
		<g>
			<circle cx="370.8" cy="853" r="4.1"/>
		</g>
	</g>
	<g transform="translate(0,0)">
		<g>
			<circle cx="419" cy="856.8" r="4.1"/>
		</g>
	</g>
	<g transform="translate(0,0)">
		<g>
			<circle cx="427.1" cy="860.6" r="4.1"/>
		</g>
	</g>
	<g transform="translate(0,0)">
		<g>
			<circle cx="427.1" cy="864.3" r="4.1"/>
		</g>
	</g>
	<g transform="translate(0,0)">
		<g>
			<circle cx="443.2" cy="868.1" r="4.1"/>
		</g>
	</g>
	<g transform="translate(0,0)">
		<g>
			<circle cx="394.9" cy="871.9" r="4.1"/>
		</g>
	</g>
	<g transform="translate(0,0)">
		<g>
			<circle cx="322.5" cy="875.6" r="4.1"/>
		</g>
	</g>
	<g transform="translate(0,0)">
		<g>
			<circle cx="314.4" cy="879.4" r="4.1"/>
		</g>
	</g>
	<g transform="translate(0,0)">
		<g>
			<circle cx="386.9" cy="883.1" r="4.1"/>
		</g>
	</g>
	<g transform="translate(0,0)">
		<g>
			<circle cx="314.4" cy="886.9" r="4.1"/>
		</g>
	</g>
	<g transform="translate(0,0)">
		<g>
			<circle cx="258.1" cy="890.7" r="4.1"/>
		</g>
	</g>
	<g transform="translate(0,0)">
		<g>
			<circle cx="250.1" cy="894.4" r="4.1"/>
		</g>
	</g>
	<g transform="translate(0,0)">
		<g>
			<circle cx="234" cy="898.2" r="4.1"/>
		</g>
	</g>
	<g transform="translate(0,0)">
		<g>
			<circle cx="250.1" cy="902" r="4.1"/>
		</g>
	</g>
	<g transform="translate(0,0)">
		<g>
			<circle cx="225.9" cy="905.7" r="4.1"/>
		</g>
	</g>
	<g transform="translate(0,0)">
		<g>
			<circle cx="266.2" cy="909.5" r="4.1"/>
		</g>
	</g>
	<g transform="translate(0,0)">
		<g>
			<circle cx="290.3" cy="913.2" r="4.1"/>
		</g>
	</g>
	<g transform="translate(0,0)">
		<g>
			<circle cx="314.4" cy="917" r="4.1"/>
		</g>
	</g>
	<g transform="translate(0,0)">
		<g>
			<circle cx="338.6" cy="920.8" r="4.1"/>
		</g>
	</g>
	<g transform="translate(0,0)">
		<g>
			<circle cx="242" cy="924.5" r="4.1"/>
		</g>
	</g>
	<g transform="translate(0,0)">
		<g>
			<circle cx="250.1" cy="928.3" r="4.1"/>
		</g>
	</g>
	<g transform="translate(0,0)">
		<g>
			<circle cx="274.2" cy="932.1" r="4.1"/>
		</g>
	</g>
	<g transform="translate(0,0)">
		<g>
			<circle cx="290.3" cy="935.8" r="4.1"/>
		</g>
	</g>
	<g transform="translate(0,0)">
		<g>
			<circle cx="330.5" cy="939.6" r="4.1"/>
		</g>
	</g>
	<g transform="translate(0,0)">
		<g>
			<circle cx="330.5" cy="943.3" r="4.1"/>
		</g>
	</g>
	<g transform="translate(0,0)">
		<g>
			<circle cx="322.5" cy="947.1" r="4.1"/>
		</g>
	</g>
	<g transform="translate(0,0)">
		<g>
			<circle cx="314.4" cy="950.9" r="4.1"/>
		</g>
	</g>
	<g transform="translate(0,0)">
		<g>
			<circle cx="378.8" cy="954.6" r="4.1"/>
		</g>
	</g>
	<g transform="translate(0,0)">
		<g>
			<circle cx="314.4" cy="958.4" r="4.1"/>
		</g>
	</g>
	<g transform="translate(0,0)">
		<g>
			<circle cx="322.5" cy="962.2" r="4.1"/>
		</g>
	</g>
	<g transform="translate(0,0)">
		<g>
			<circle cx="394.9" cy="965.9" r="4.1"/>
		</g>
	</g>
	<g transform="translate(0,0)">
		<g>
			<circle cx="250.1" cy="969.7" r="4.1"/>
		</g>
	</g>
	<g transform="translate(0,0)">
		<g>
			<circle cx="242" cy="973.4" r="4.1"/>
		</g>
	</g>
	<g transform="translate(0,0)">
		<g>
			<circle cx="193.7" cy="977.2" r="4.1"/>
		</g>
	</g>
	<g transform="translate(0,0)">
		<g>
			<circle cx="258.1" cy="981" r="4.1"/>
		</g>
	</g>
	<g transform="translate(0,0)">
		<g>
			<circle cx="298.3" cy="984.7" r="4.1"/>
		</g>
	</g>
	<g transform="translate(0,0)">
		<g>
			<circle cx="250.1" cy="996" r="4.1"/>
		</g>
	</g>
	<g transform="translate(0,0)">
		<g>
			<circle cx="250.1" cy="999.8" r="4.1"/>
		</g>
	</g>
	<g transform="translate(0,0)">
		<g>
			<circle cx="258.1" cy="1003.5" r="4.1"/>
		</g>
	</g>
	<g transform="translate(0,0)">
		<g>
			<circle cx="274.2" cy="1007.3" r="4.1"/>
		</g>
	</g>
	<g transform="translate(0,0)">
		<g>
			<circle cx="266.2" cy="1011.1" r="4.1"/>
		</g>
	</g>
	<g transform="translate(0,0)">
		<g>
			<circle cx="306.4" cy="1014.8" r="4.1"/>
		</g>
	</g>
	<g transform="translate(0,0)">
		<g>
			<circle cx="290.3" cy="1018.6" r="4.1"/>
		</g>
	</g>
	<g transform="translate(0,0)">
		<g>
			<circle cx="386.9" cy="1022.4" r="4.1"/>
		</g>
	</g>
	<g transform="translate(0,0)">
		<g>
			<circle cx="274.2" cy="1026.1" r="4.1"/>
		</g>
	</g>
	<g transform="translate(0,0)">
		<g>
			<circle cx="242" cy="1029.9" r="4.1"/>
		</g>
	</g>
	<g transform="translate(0,0)">
		<g>
			<circle cx="290.3" cy="1033.6" r="4.1"/>
		</g>
	</g>
	<g transform="translate(0,0)">
		<g>
			<circle cx="225.9" cy="1037.4" r="4.1"/>
		</g>
	</g>
	<g transform="translate(0,0)">
		<g>
			<circle cx="250.1" cy="1041.2" r="4.1"/>
		</g>
	</g>
	<g transform="translate(0,0)">
		<g>
			<circle cx="314.4" cy="1048.7" r="4.1"/>
		</g>
	</g>
	<g transform="translate(0,0)">
		<g>
			<circle cx="330.5" cy="1052.5" r="4.1"/>
		</g>
	</g>
	<g transform="translate(0,0)">
		<g>
			<circle cx="274.2" cy="1056.2" r="4.1"/>
		</g>
	</g>
	<g transform="translate(0,0)">
		<g>
			<circle cx="258.1" cy="1060" r="4.1"/>
		</g>
	</g>
	<g transform="translate(0,0)">
		<g>
			<circle cx="306.4" cy="1063.8" r="4.1"/>
		</g>
	</g>
	<g transform="translate(0,0)">
		<g>
			<circle cx="378.8" cy="1067.5" r="4.1"/>
		</g>
	</g>
	<g transform="translate(0,0)">
		<g>
			<circle cx="427.1" cy="1071.3" r="4.1"/>
		</g>
	</g>
	<g transform="translate(0,0)">
		<g>
			<circle cx="386.9" cy="1075" r="4.1"/>
		</g>
	</g>
	<g transform="translate(0,0)">
		<g>
			<circle cx="370.8" cy="1078.8" r="4.1"/>
		</g>
	</g>
	<g transform="translate(0,0)">
		<g>
			<circle cx="386.9" cy="1082.6" r="4.1"/>
		</g>
	</g>
	<g transform="translate(0,0)">
		<g>
			<circle cx="419" cy="1086.3" r="4.1"/>
		</g>
	</g>
	<g transform="translate(0,0)">
		<g>
			<circle cx="459.3" cy="1090.1" r="4.1"/>
		</g>
	</g>
	<g transform="translate(0,0)">
		<g>
			<circle cx="507.6" cy="1093.9" r="4.1"/>
		</g>
	</g>
	<g transform="translate(0,0)">
		<g>
			<circle cx="435.1" cy="1097.6" r="4.1"/>
		</g>
	</g>
	<g transform="translate(0,0)">
		<g>
			<circle cx="306.4" cy="1101.4" r="4.1"/>
		</g>
	</g>
	<g transform="translate(0,0)">
		<g>
			<circle cx="217.9" cy="1105.1" r="4.1"/>
		</g>
	</g>
	<g transform="translate(0,0)">
		<g>
			<circle cx="234" cy="1108.9" r="4.1"/>
		</g>
	</g>
	<g transform="translate(0,0)">
		<g>
			<circle cx="346.6" cy="1112.7" r="4.1"/>
		</g>
	</g>
	<g transform="translate(0,0)">
		<g>
			<circle cx="370.8" cy="1116.4" r="4.1"/>
		</g>
	</g>
	<g transform="translate(0,0)">
		<g>
			<circle cx="394.9" cy="1120.2" r="4.1"/>
		</g>
	</g>
	<g transform="translate(0,0)">
		<g>
			<circle cx="386.9" cy="1124" r="4.1"/>
		</g>
	</g>
	<g transform="translate(0,0)">
		<g>
			<circle cx="427.1" cy="1127.7" r="4.1"/>
		</g>
	</g>
	<g transform="translate(0,0)">
		<g>
			<circle cx="427.1" cy="1135.2" r="4.1"/>
		</g>
	</g>
	<g transform="translate(0,0)">
		<g>
			<circle cx="402.9" cy="1139" r="4.1"/>
		</g>
	</g>
	<g transform="translate(0,0)">
		<g>
			<circle cx="427.1" cy="1142.8" r="4.1"/>
		</g>
	</g>
	<g transform="translate(0,0)">
		<g>
			<circle cx="515.6" cy="1146.5" r="4.1"/>
		</g>
	</g>
	<g transform="translate(0,0)">
		<g>
			<circle cx="209.8" cy="1165.3" r="4.1"/>
		</g>
	</g>
	<g transform="translate(0,0)">
		<g>
			<circle cx="250.1" cy="1169.1" r="4.1"/>
		</g>
	</g>
	<g transform="translate(0,0)">
		<g>
			<circle cx="314.4" cy="1172.9" r="4.1"/>
		</g>
	</g>
	<g transform="translate(0,0)">
		<g>
			<ellipse transform="matrix(0.3827 -0.9239 0.9239 0.3827 -833.3554 1106.0614)" cx="411" cy="1176.6" rx="4.1" ry="4.1"/>
		</g>
	</g>
	<g transform="translate(0,0)">
		<g>
			<circle cx="555.8" cy="1180.4" r="4.1"/>
		</g>
	</g>
	<g transform="translate(0,0)">
		<g>
			<circle cx="402.9" cy="1187.9" r="4.1"/>
		</g>
	</g>
	<g transform="translate(0,0)">
		<g>
			<circle cx="386.9" cy="1195.4" r="4.1"/>
		</g>
	</g>
	<g transform="translate(0,0)">
		<g>
			<circle cx="346.6" cy="1199.2" r="4.1"/>
		</g>
	</g>
	<g transform="translate(0,0)">
		<g>
			<circle cx="411" cy="1203" r="4.1"/>
		</g>
	</g>
	<g transform="translate(0,0)">
		<g>
			<circle cx="435.1" cy="1214.3" r="4.1"/>
		</g>
	</g>
	<g transform="translate(0,0)">
		<g>
			<circle cx="242" cy="1218" r="4.1"/>
		</g>
	</g>
	<g transform="translate(0,0)">
		<g>
			<circle cx="234" cy="1221.8" r="4.1"/>
		</g>
	</g>
	<g transform="translate(0,0)">
		<g>
			<circle cx="330.5" cy="1225.5" r="4.1"/>
		</g>
	</g>
	<g transform="translate(0,0)">
		<g>
			<circle cx="475.4" cy="1229.3" r="4.1"/>
		</g>
	</g>
	<g transform="translate(0,0)">
		<g>
			<circle cx="507.6" cy="1233.1" r="4.1"/>
		</g>
	</g>
	<g transform="translate(0,0)">
		<g>
			<circle cx="386.9" cy="1236.8" r="4.1"/>
		</g>
	</g>
	<g transform="translate(0,0)">
		<g>
			<circle cx="386.9" cy="1240.6" r="4.1"/>
		</g>
	</g>
	<g transform="translate(0,0)">
		<g>
			<circle cx="185.7" cy="1244.4" r="4.1"/>
		</g>
	</g>
	<g transform="translate(0,0)">
		<g>
			<circle cx="338.6" cy="1248.1" r="4.1"/>
		</g>
	</g>
	<g transform="translate(0,0)">
		<g>
			<circle cx="386.9" cy="1251.9" r="4.1"/>
		</g>
	</g>
	<g transform="translate(0,0)">
		<g>
			<circle cx="402.9" cy="1255.7" r="4.1"/>
		</g>
	</g>
	<g transform="translate(0,0)">
		<g>
			<circle cx="467.3" cy="1259.4" r="4.1"/>
		</g>
	</g>
	<g transform="translate(0,0)">
		<g>
			<circle cx="419" cy="1263.2" r="4.1"/>
		</g>
	</g>
	<g transform="translate(0,0)">
		<g>
			<circle cx="419" cy="1266.9" r="4.1"/>
		</g>
	</g>
	<g transform="translate(0,0)">
		<g>
			<circle cx="459.3" cy="1270.7" r="4.1"/>
		</g>
	</g>
	<g transform="translate(0,0)">
		<g>
			<circle cx="451.2" cy="1274.5" r="4.1"/>
		</g>
	</g>
	<g transform="translate(0,0)">
		<g>
			<circle cx="515.6" cy="1278.2" r="4.1"/>
		</g>
	</g>
	<g transform="translate(0,0)">
		<g>
			<circle cx="290.3" cy="1293.3" r="4.1"/>
		</g>
	</g>
	<g transform="translate(0,0)">
		<g>
			<circle cx="266.2" cy="1297" r="4.1"/>
		</g>
	</g>
	<g transform="translate(0,0)">
		<g>
			<circle cx="338.6" cy="1300.8" r="4.1"/>
		</g>
	</g>
	<g transform="translate(0,0)">
		<g>
			<circle cx="547.8" cy="1304.6" r="4.1"/>
		</g>
	</g>
	<g transform="translate(0,0)">
		<g>
			<circle cx="419" cy="1308.3" r="4.1"/>
		</g>
	</g>
	<g transform="translate(0,0)">
		<g>
			<circle cx="338.6" cy="1312.1" r="4.1"/>
		</g>
	</g>
	<g transform="translate(0,0)">
		<g>
			<circle cx="338.6" cy="1315.9" r="4.1"/>
		</g>
	</g>
	<g transform="translate(0,0)">
		<g>
			<circle cx="427.1" cy="1319.6" r="4.1"/>
		</g>
	</g>
	<g transform="translate(0,0)">
		<g>
			<circle cx="411" cy="1323.4" r="4.1"/>
		</g>
	</g>
	<g transform="translate(0,0)">
		<g>
			<circle cx="475.4" cy="1327.1" r="4.1"/>
		</g>
	</g>
	<g transform="translate(0,0)">
		<g>
			<circle cx="402.9" cy="1330.9" r="4.1"/>
		</g>
	</g>
	<g transform="translate(0,0)">
		<g>
			<circle cx="491.5" cy="1334.7" r="4.1"/>
		</g>
	</g>
	<g transform="translate(0,0)">
		<g>
			<circle cx="314.4" cy="1342.2" r="4.1"/>
		</g>
	</g>
	<g transform="translate(0,0)">
		<g>
			<circle cx="242" cy="1346" r="4.1"/>
		</g>
	</g>
	<g transform="translate(0,0)">
		<g>
			<circle cx="314.4" cy="1349.7" r="4.1"/>
		</g>
	</g>
	<g transform="translate(0,0)">
		<g>
			<circle cx="515.6" cy="1357.2" r="4.1"/>
		</g>
	</g>
	<g transform="translate(0,0)">
		<g>
			<circle cx="523.6" cy="1361" r="4.1"/>
		</g>
	</g>
	<g transform="translate(0,0)">
		<g>
			<circle cx="435.1" cy="1364.8" r="4.1"/>
		</g>
	</g>
	<g transform="translate(0,0)">
		<g>
			<circle cx="435.1" cy="1368.5" r="4.1"/>
		</g>
	</g>
	<g transform="translate(0,0)">
		<g>
			<circle cx="386.9" cy="1372.3" r="4.1"/>
		</g>
	</g>
	<g transform="translate(0,0)">
		<g>
			<circle cx="402.9" cy="1376.1" r="4.1"/>
		</g>
	</g>
	<g transform="translate(0,0)">
		<g>
			<circle cx="435.1" cy="1394.9" r="4.1"/>
		</g>
	</g>
	<g transform="translate(0,0)">
		<g>
			<circle cx="370.8" cy="1398.6" r="4.1"/>
		</g>
	</g>
	<g transform="translate(0,0)">
		<g>
			<circle cx="435.1" cy="1402.4" r="4.1"/>
		</g>
	</g>
	<g transform="translate(0,0)">
		<g>
			<circle cx="338.6" cy="1409.9" r="4.1"/>
		</g>
	</g>
	<g transform="translate(0,0)">
		<g>
			<circle cx="201.8" cy="1413.7" r="4.1"/>
		</g>
	</g>
	<g transform="translate(0,0)">
		<g>
			<circle cx="274.2" cy="1417.4" r="4.1"/>
		</g>
	</g>
	<g transform="translate(0,0)">
		<g>
			<circle cx="394.9" cy="1421.2" r="4.1"/>
		</g>
	</g>
	<g transform="translate(0,0)">
		<g>
			<circle cx="483.4" cy="1425" r="4.1"/>
		</g>
	</g>
	<g>
		<path d="M161.5,66.3"/>
	</g>
	<g>
		<path class="st4" d="M806,50.5"/>
	</g>
	<g>
		<g transform="translate(0,0)">
			<g>
				<circle class="st5" cx="628.2" cy="59.1" r="4.1"/>
			</g>
		</g>
		<g transform="translate(0,0)">
			<g>
				<circle class="st5" cx="893.8" cy="62.9" r="4.1"/>
			</g>
		</g>
		<g transform="translate(0,0)">
			<g>
				<circle class="st5" cx="580" cy="85.4" r="4.1"/>
			</g>
		</g>
		<g transform="translate(0,0)">
			<g>
				<circle class="st5" cx="684.6" cy="89.2" r="4.1"/>
			</g>
		</g>
		<g transform="translate(0,0)">
			<g>
				<circle class="st5" cx="668.5" cy="96.7" r="4.1"/>
			</g>
		</g>
		<g transform="translate(0,0)">
			<g>
				<circle class="st5" cx="628.2" cy="100.5" r="4.1"/>
			</g>
		</g>
		<g transform="translate(0,0)">
			<g>
				<circle class="st5" cx="571.9" cy="134.4" r="4.1"/>
			</g>
		</g>
		<g transform="translate(0,0)">
			<g>
				<circle class="st5" cx="700.7" cy="138.1" r="4.1"/>
			</g>
		</g>
		<g transform="translate(0,0)">
			<g>
				<circle class="st5" cx="588" cy="149.4" r="4.1"/>
			</g>
		</g>
		<g transform="translate(0,0)">
			<g>
				<circle class="st5" cx="636.3" cy="153.2" r="4.1"/>
			</g>
		</g>
		<g transform="translate(0,0)">
			<g>
				<circle class="st5" cx="692.6" cy="156.9" r="4.1"/>
			</g>
		</g>
		<g transform="translate(0,0)">
			<g>
				<circle class="st5" cx="861.6" cy="160.7" r="4.1"/>
			</g>
		</g>
		<g transform="translate(0,0)">
			<g>
				<circle class="st5" cx="934" cy="179.5" r="4.1"/>
			</g>
		</g>
		<g transform="translate(0,0)">
			<g>
				<circle class="st5" cx="652.4" cy="209.6" r="4.1"/>
			</g>
		</g>
		<g transform="translate(0,0)">
			<g>
				<circle class="st5" cx="773.1" cy="213.4" r="4.1"/>
			</g>
		</g>
		<g transform="translate(0,0)">
			<g>
				<circle class="st5" cx="716.8" cy="217.1" r="4.1"/>
			</g>
		</g>
		<g transform="translate(0,0)">
			<g>
				<circle class="st5" cx="652.4" cy="243.5" r="4.1"/>
			</g>
		</g>
		<g transform="translate(0,0)">
			<g>
				<circle class="st5" cx="580" cy="247.2" r="4.1"/>
			</g>
		</g>
		<g transform="translate(0,0)">
			<g>
				<circle class="st5" cx="612.2" cy="251" r="4.1"/>
			</g>
		</g>
		<g transform="translate(0,0)">
			<g>
				<circle class="st5" cx="563.9" cy="254.8" r="4.1"/>
			</g>
		</g>
		<g transform="translate(0,0)">
			<g>
				<circle class="st5" cx="676.5" cy="348.8" r="4.1"/>
			</g>
		</g>
		<g transform="translate(0,0)">
			<g>
				<circle class="st5" cx="596.1" cy="1131.5" r="4.1"/>
			</g>
		</g>
		<g transform="translate(0,0)">
			<g>
				<circle class="st5" cx="563.9" cy="1150.3" r="4.1"/>
			</g>
		</g>
		<g transform="translate(0,0)">
			<g>
				<circle class="st5" cx="724.8" cy="1154.1" r="4.1"/>
			</g>
		</g>
		<g transform="translate(0,0)">
			<g>
				<circle class="st5" cx="740.9" cy="1157.8" r="4.1"/>
			</g>
		</g>
		<g transform="translate(0,0)">
			<g>
				<circle class="st5" cx="708.7" cy="1161.6" r="4.1"/>
			</g>
		</g>
		<g transform="translate(0,0)">
			<g>
				<circle class="st5" cx="620.2" cy="1184.2" r="4.1"/>
			</g>
		</g>
		<g transform="translate(0,0)">
			<g>
				<circle class="st5" cx="604.1" cy="1191.7" r="4.1"/>
			</g>
		</g>
		<g transform="translate(0,0)">
			<g>
				<circle class="st5" cx="724.8" cy="1206.7" r="4.1"/>
			</g>
		</g>
		<g transform="translate(0,0)">
			<g>
				<circle class="st5" cx="853.6" cy="1210.5" r="4.1"/>
			</g>
		</g>
		<g transform="translate(0,0)">
			<g>
				<circle class="st5" cx="877.7" cy="1282" r="4.1"/>
			</g>
		</g>
		<g transform="translate(0,0)">
			<g>
				<circle class="st5" cx="716.8" cy="1285.8" r="4.1"/>
			</g>
		</g>
		<g transform="translate(0,0)">
			<g>
				<circle class="st5" cx="974.3" cy="1289.5" r="4.1"/>
			</g>
		</g>
		<g transform="translate(0,0)">
			<g>
				<circle class="st5" cx="773.1" cy="1338.4" r="4.1"/>
			</g>
		</g>
		<g transform="translate(0,0)">
			<g>
				<circle class="st5" cx="580" cy="1379.8" r="4.1"/>
			</g>
		</g>
		<g transform="translate(0,0)">
			<g>
				<circle class="st5" cx="604.1" cy="1383.6" r="4.1"/>
			</g>
		</g>
		<g transform="translate(0,0)">
			<g>
				<circle class="st5" cx="604.1" cy="1387.3" r="4.1"/>
			</g>
		</g>
		<g transform="translate(0,0)">
			<g>
				<circle class="st5" cx="563.9" cy="1391.1" r="4.1"/>
			</g>
		</g>
		<g transform="translate(0,0)">
			<g>
				<circle class="st5" cx="853.6" cy="1406.2" r="4.1"/>
			</g>
		</g>
		<g transform="translate(0,0)">
			<g>
				<circle class="st5" cx="990.3" cy="164.5" r="4.1"/>
			</g>
		</g>
	</g>
	<g>
		<circle class="st5" cx="967.1" cy="797" r="23.1"/>
		<line class="st6" x1="967.1" y1="780.9" x2="967.1" y2="813.2"/>
		<line class="st6" x1="983.2" y1="797" x2="951" y2="797"/>
	</g>
</g>
<g>
	<rect x="161.3" y="1578.8" class="st7" width="663.9" height="194.6"/>
	<text transform="matrix(1 0 0 1 161.2578 1619.517)"><tspan x="0" y="0" class="st5 st8 st9">PM10&gt;50ug/m3</tspan><tspan x="0" y="68.4" class="st8 st9">PM10&lt;50ug/m3</tspan><tspan x="0.1" y="136.8" class="st10 st8 st9">riscaldamenti</tspan></text>
	<circle class="st5" cx="104.3" cy="1601.2" r="20"/>
	<circle cx="104.3" cy="1666.2" r="20"/>
	<rect x="86.8" y="1719.7" class="st0" width="35" height="35"/>
</g>
</svg>
