<svg xmlns="http://www.w3.org/2000/svg" viewBox="0 0 1174.99 900"><defs><style>.cls-1{isolation:isolate;}.cls-2{fill:#b8b8b8;}.cls-3{fill:#efefef;}.cls-4{fill:#a8f9ff;}.cls-5{fill:#ff3a00;}.cls-6{opacity:0.3;}</style></defs><g id="base"><g class="cls-1"><path d="M206.4,773.62h6.79v1.19h-5.42v3.69h4.29v1.19h-4.29v4.17H206.4Z"/><path d="M215,773.62h6.9v1.19h-5.54v3.25h4.41v1.19h-4.41v3.42H222v1.19h-7Z"/><path d="M224,773.62h4.23c2.21,0,3.27,1,3.27,2.68a2.16,2.16,0,0,1-1.61,2.14v.06a2.31,2.31,0,0,1,2,2.32c0,1.74-1.18,3-3.39,3H224Zm1.37,1.19V778h2.86a1.67,1.67,0,0,0,1.9-1.68c0-.9-.53-1.48-1.9-1.48Zm0,4.35v3.51h3.16a1.77,1.77,0,0,0,2-1.83c0-1-.66-1.68-2-1.68Z"/></g><g class="cls-1"><path d="M131.84,782.37h-.05a3.6,3.6,0,0,1-3.35,1.67,5.31,5.31,0,0,1,.06-10.6,4.29,4.29,0,0,1,4.47,3.22h-1.43a2.92,2.92,0,0,0-3-2c-2.21,0-3.63,1.73-3.63,4s1.48,4,3.57,4c1.72,0,3.28-1,3.28-2.86v-.3H128.5v-1.19H133v5.42h-.9Z"/><path d="M135.41,773.62h6.9v1.19h-5.53v3.25h4.4v1.19h-4.4v3.42h5.65v1.19h-7Z"/><path d="M144.52,773.62h1.31l5.65,7.92h.06l-.06-7.92h1.37v10.24h-1.31L145.88,776h0l0,7.86h-1.36Z"/></g><g class="cls-1"><path d="M284.21,773.62h1.67l3.76,8.39h0l3.71-8.39H295v10.24h-1.37l.12-8.1h-.06l-3.57,8.1h-1.07l-3.57-7.92h-.06l.12,7.92h-1.37Z"/><path d="M300.34,773.62H302l3.81,10.24h-1.43l-1-2.68h-4.49l-1,2.68h-1.37Zm.75,1.43L299.3,780h3.63l-1.78-4.94Z"/><path d="M307.25,773.62h3.87c2.33,0,3.57,1.12,3.57,3a3,3,0,0,1-2.25,3.05l2.6,4.15h-1.48l-2.55-4h-2.39v4h-1.37Zm1.37,1.19v3.87h2.56a1.94,1.94,0,0,0,2.14-2c0-1.13-.78-1.85-2.14-1.85Z"/></g><g class="cls-1"><path d="M372,773.62h1.6l3.81,10.24H376l-1-2.68h-4.49l-1,2.68H368.2Zm.74,1.43L371,780h3.63l-1.79-4.94Z"/><path d="M378.91,773.62h3.87c2.34,0,3.63,1.36,3.63,3.27a3.3,3.3,0,0,1-3.63,3.4h-2.5v3.57h-1.37Zm1.37,1.19v4.29h2.56a2.06,2.06,0,0,0,2.2-2.21,2,2,0,0,0-2.2-2.08Z"/><path d="M388.38,773.62h3.87c2.33,0,3.57,1.12,3.57,3a3,3,0,0,1-2.25,3.05l2.6,4.15h-1.49l-2.54-4h-2.39v4h-1.37Zm1.37,1.19v3.87h2.55a1.94,1.94,0,0,0,2.15-2c0-1.13-.78-1.85-2.15-1.85Z"/></g><g class="cls-1"><path d="M449.81,773.62h1.66l3.77,8.39h0l3.7-8.39h1.67v10.24h-1.37l.12-8.1h-.06l-3.57,8.1h-1.07l-3.58-7.92h-.05l.11,7.92h-1.36Z"/><path d="M465.94,773.62h1.6l3.81,10.24h-1.43l-1-2.68h-4.5l-1,2.68h-1.37Zm.74,1.43L464.89,780h3.63l-1.78-4.94Z"/><path d="M480.28,782.37h0a3.61,3.61,0,0,1-3.35,1.67,5.31,5.31,0,0,1,.06-10.6,4.28,4.28,0,0,1,4.46,3.22H480a2.91,2.91,0,0,0-3-2c-2.22,0-3.63,1.73-3.63,4s1.47,4,3.57,4c1.71,0,3.27-1,3.27-2.86v-.3H477v-1.19h4.46v5.42h-.89Z"/></g><g class="cls-1"><path d="M544.86,782.37h0a3.6,3.6,0,0,1-3.35,1.67,5.31,5.31,0,0,1,.06-10.6,4.28,4.28,0,0,1,4.46,3.22h-1.43a2.9,2.9,0,0,0-3-2c-2.22,0-3.63,1.73-3.63,4s1.47,4,3.57,4c1.71,0,3.27-1,3.27-2.86v-.3h-3.21v-1.19H546v5.42h-.89Z"/><path d="M548.43,773.62h1.37v10.24h-1.37Z"/><path d="M552.18,773.62h1.37v6.19c0,1.88.88,3,2.74,3s2.74-1.1,2.74-3v-6.19h1.37v6.19c0,3-1.68,4.23-4.11,4.23s-4.11-1.19-4.11-4.23Z"/></g><g class="cls-1"><path d="M618.26,773.62h1.36v9h5v1.19h-6.36Z"/><path d="M625.87,773.62h1.37v6.19c0,1.88.88,3,2.74,3s2.74-1.1,2.74-3v-6.19h1.37v6.19c0,3-1.68,4.23-4.11,4.23s-4.11-1.19-4.11-4.23Z"/><path d="M644.33,782.37h-.05a3.6,3.6,0,0,1-3.35,1.67,5.31,5.31,0,0,1,.06-10.6,4.3,4.3,0,0,1,4.47,3.22H644a2.92,2.92,0,0,0-3-2c-2.21,0-3.63,1.73-3.63,4s1.48,4,3.57,4c1.71,0,3.28-1,3.28-2.86v-.3H641v-1.19h4.47v5.42h-.9Z"/></g><g class="cls-1"><path d="M704.29,773.62h1.61l3.81,10.24h-1.43l-1-2.68h-4.49l-1,2.68h-1.37Zm.74,1.43L703.25,780h3.63l-1.79-4.94Z"/><path d="M718.63,782.37h0a3.6,3.6,0,0,1-3.35,1.67,5.31,5.31,0,0,1,.06-10.6,4.3,4.3,0,0,1,4.47,3.22h-1.43a2.92,2.92,0,0,0-3-2c-2.21,0-3.63,1.73-3.63,4s1.48,4,3.57,4c1.71,0,3.28-1,3.28-2.86v-.3H715.3v-1.19h4.47v5.42h-.9Z"/><path d="M726.55,773.44a5.31,5.31,0,0,1,0,10.6c-3,0-5-2.25-5-5.3S723.56,773.44,726.55,773.44Zm0,9.35c2.16,0,3.57-1.73,3.57-4s-1.41-4-3.57-4-3.57,1.73-3.57,4S724.39,782.79,726.55,782.79Z"/></g><g class="cls-1"><path d="M787.83,780.94c0,1.12.95,2,2.56,2s2.62-.7,2.62-1.91c0-2.71-6.4-.65-6.4-4.58,0-1.74,1.5-3,3.78-3s3.75,1.09,3.75,2.92h-1.37c0-1.13-1-1.79-2.38-1.79s-2.38.58-2.38,1.73c0,2.68,6.43.57,6.43,4.64,0,1.85-1.49,3.1-4.05,3.1s-3.93-1.25-3.93-3.1Z"/><path d="M796.58,773.62h6.91v1.19H798v3.25h4.4v1.19H798v3.42h5.65v1.19h-7Z"/><path d="M804.5,773.62H813v1.16h-3.57v9.08h-1.37v-9.08H804.5Z"/></g><g class="cls-1"><path d="M874,773.44a5.31,5.31,0,0,1,0,10.6c-3,0-5-2.25-5-5.3S871,773.44,874,773.44Zm0,9.35c2.16,0,3.57-1.73,3.57-4s-1.41-4-3.57-4-3.57,1.73-3.57,4S871.86,782.79,874,782.79Z"/><path d="M879.26,773.62h8.51v1.16H884.2v9.08h-1.37v-9.08h-3.57Z"/><path d="M888,773.62h8.51v1.16H893v9.08h-1.37v-9.08H888Z"/></g><g class="cls-1"><path d="M951.34,773.62h1.31l5.66,7.92h.05l-.05-7.92h1.36v10.24h-1.31L952.71,776h-.06l.06,7.86h-1.37Z"/><path d="M966.64,773.44a5.31,5.31,0,0,1,0,10.6c-3,0-5-2.25-5-5.3S963.65,773.44,966.64,773.44Zm0,9.35c2.16,0,3.57-1.73,3.57-4s-1.41-4-3.57-4-3.57,1.73-3.57,4S964.48,782.79,966.64,782.79Z"/><path d="M972.12,773.62h1.42l3.07,8.81h.06l3.06-8.81h1.37l-3.75,10.24h-1.51Z"/></g><g class="cls-1"><path d="M1036.17,773.62h3.15c3.53,0,5.36,2.13,5.36,5.12s-1.83,5.12-5.36,5.12h-3.15Zm1.37,1.19v7.86h1.78a3.93,3.93,0,0,0,0-7.86Z"/><path d="M1046.65,773.62H1048v10.24h-1.36Z"/><path d="M1054.92,773.44a4.13,4.13,0,0,1,4.34,3.4h-1.41a2.75,2.75,0,0,0-2.93-2.15c-2.1,0-3.51,1.67-3.51,4s1.41,4,3.45,4a2.74,2.74,0,0,0,3-2.15h1.41a4.2,4.2,0,0,1-4.4,3.4c-2.87,0-4.88-2.19-4.88-5.3S1052,773.44,1054.92,773.44Z"/></g><g class="cls-1"><path class="cls-2" d="M67.9,760.8c0-3,1-5.3,3.57-5.3S75,757.83,75,760.8s-1,5.3-3.57,5.3S67.9,763.78,67.9,760.8Zm5.77,0c0-2.62-.71-4.11-2.2-4.11s-2.2,1.49-2.2,4.11.71,4.11,2.2,4.11S73.67,763.42,73.67,760.8Z"/></g><g class="cls-1"><path class="cls-2" d="M59.69,699.66,63,697.4h1v9.1h2.44v1.14H60V706.5h2.62V699l-2.38,1.65Z"/><path class="cls-2" d="M67.9,702.52c0-3,1-5.3,3.57-5.3s3.57,2.32,3.57,5.3-1,5.29-3.57,5.29S67.9,705.49,67.9,702.52Zm5.77,0c0-2.62-.71-4.11-2.2-4.11s-2.2,1.49-2.2,4.11.71,4.1,2.2,4.1S73.67,705.14,73.67,702.52Z"/></g><g class="cls-1"><path class="cls-2" d="M62.13,645l1.13-.77c1.05-.73,1.72-1.13,1.72-2.32a1.75,1.75,0,0,0-1.9-1.79c-1.31,0-2,.71-2.08,2.08H59.8a3,3,0,0,1,3.28-3.21,2.89,2.89,0,0,1,3.21,2.92c0,1.78-1.14,2.42-2.2,3.15l-1.13.77c-1.55,1.06-1.79,1.8-1.85,2.44h5.3v1.13H59.63A4.83,4.83,0,0,1,62.13,645Z"/><path class="cls-2" d="M67.9,644.24c0-3,1-5.3,3.57-5.3s3.57,2.32,3.57,5.3-1,5.29-3.57,5.29S67.9,647.21,67.9,644.24Zm5.77,0c0-2.62-.71-4.11-2.2-4.11s-2.2,1.49-2.2,4.11.71,4.1,2.2,4.1S73.67,646.85,73.67,644.24Z"/></g><g class="cls-1"><path class="cls-2" d="M60.76,588a2,2,0,0,0,2.2,2.14c1.28,0,2.2-.69,2.2-1.89a2,2,0,0,0-2.2-1.89h-.77v-1.13H63a1.76,1.76,0,0,0,1.84-1.77A1.67,1.67,0,0,0,63,581.79a1.71,1.71,0,0,0-1.85,1.84H59.92a2.83,2.83,0,0,1,3-3,2.8,2.8,0,0,1,3.09,2.76,2.62,2.62,0,0,1-1.48,2.3v0a2.63,2.63,0,0,1,1.9,2.56c0,1.83-1.56,2.92-3.51,2.92s-3.45-1.07-3.45-3.27Z"/><path class="cls-2" d="M67.9,586c0-3,1-5.29,3.57-5.29S75,583,75,586s-1,5.3-3.57,5.3S67.9,588.93,67.9,586Zm5.77,0c0-2.62-.71-4.1-2.2-4.1s-2.2,1.48-2.2,4.1.71,4.11,2.2,4.11S73.67,588.57,73.67,586Z"/></g><g class="cls-1"><path class="cls-2" d="M59.27,529.28l4.94-6.73h1.07v6.55h1.49v1.13H65.28v2.56H64v-2.56h-4.7Zm4.7-.18v-4.51l-3.36,4.51Z"/><path class="cls-2" d="M67.9,527.67c0-3,1-5.29,3.57-5.29S75,524.7,75,527.67s-1,5.3-3.57,5.3S67.9,530.65,67.9,527.67Zm5.77,0c0-2.62-.71-4.1-2.2-4.1s-2.2,1.48-2.2,4.1.71,4.11,2.2,4.11S73.67,530.29,73.67,527.67Z"/></g><g class="cls-1"><path class="cls-2" d="M60.82,471.77a2,2,0,0,0,2.2,1.79,2.24,2.24,0,0,0,0-4.47,2.52,2.52,0,0,0-2,1l-1.19-.05.3-5.78h5.77v1.19H61.35l-.18,3.22h.06a2.7,2.7,0,0,1,2-.72,3.16,3.16,0,0,1,3.33,3.27A3.32,3.32,0,0,1,63,474.69a3.17,3.17,0,0,1-3.51-2.92Z"/><path class="cls-2" d="M67.9,469.39c0-3,1-5.3,3.57-5.3s3.57,2.33,3.57,5.3-1,5.3-3.57,5.3S67.9,472.37,67.9,469.39Zm5.77,0c0-2.62-.71-4.11-2.2-4.11s-2.2,1.49-2.2,4.11.71,4.11,2.2,4.11S73.67,472,73.67,469.39Z"/></g><g class="cls-1"><path class="cls-2" d="M63.38,405.81a2.83,2.83,0,0,1,3.09,2.74H65.16a1.65,1.65,0,0,0-1.78-1.61c-1.21,0-2.43,1.06-2.5,4.09a2.94,2.94,0,0,1,2.61-1.35A3.1,3.1,0,0,1,66.71,413a3.31,3.31,0,0,1-3.45,3.4c-2,0-3.75-1.3-3.75-5.06C59.51,407.23,61.43,405.81,63.38,405.81ZM61.05,413a2.14,2.14,0,0,0,2.15,2.24,2.23,2.23,0,0,0,.12-4.46A2.2,2.2,0,0,0,61.05,413Z"/><path class="cls-2" d="M67.9,411.11c0-3,1-5.3,3.57-5.3s3.57,2.32,3.57,5.3-1,5.3-3.57,5.3S67.9,414.08,67.9,411.11Zm5.77,0c0-2.62-.71-4.11-2.2-4.11s-2.2,1.49-2.2,4.11.71,4.11,2.2,4.11S73.67,413.73,73.67,411.11Z"/></g><g class="cls-1"><path class="cls-2" d="M65.16,348.9H59.57v-1.19h7v1l-4.34,9.28H60.88Z"/><path class="cls-2" d="M67.9,352.83c0-3,1-5.3,3.57-5.3s3.57,2.32,3.57,5.3-1,5.29-3.57,5.29S67.9,355.8,67.9,352.83Zm5.77,0c0-2.62-.71-4.11-2.2-4.11s-2.2,1.49-2.2,4.11.71,4.1,2.2,4.1S73.67,355.45,73.67,352.83Z"/></g><g class="cls-1"><path class="cls-2" d="M61.35,294.37v-.06a2.5,2.5,0,0,1-1.49-2.3c0-1.6,1.22-2.76,3.16-2.76s3.15,1.16,3.15,2.76a2.49,2.49,0,0,1-1.49,2.3v.06a2.61,2.61,0,0,1,1.91,2.55c0,1.83-1.44,2.92-3.57,2.92s-3.57-1.09-3.57-2.92A2.61,2.61,0,0,1,61.35,294.37ZM63,298.71c1.32,0,2.26-.69,2.26-1.89a2.3,2.3,0,0,0-4.52,0C60.76,298,61.69,298.71,63,298.71Zm1.9-6.68a1.92,1.92,0,0,0-3.81,0,1.91,1.91,0,0,0,3.81,0Z"/><path class="cls-2" d="M67.9,294.54c0-3,1-5.29,3.57-5.29S75,291.57,75,294.54s-1,5.3-3.57,5.3S67.9,297.52,67.9,294.54Zm5.77,0c0-2.61-.71-4.1-2.2-4.1s-2.2,1.49-2.2,4.1.71,4.11,2.2,4.11S73.67,297.16,73.67,294.54Z"/></g><g class="cls-1"><path class="cls-2" d="M62.78,241.56a2.93,2.93,0,0,1-3.21-2.74h1.31a1.79,1.79,0,0,0,1.9,1.61c1.38,0,2.32-1.06,2.38-4.08a3,3,0,0,1-2.62,1.34,3.09,3.09,0,0,1-3.21-3.33A3.3,3.3,0,0,1,62.78,231c2,0,3.75,1.29,3.75,5.05C66.53,240.15,64.91,241.56,62.78,241.56Zm2.2-7.22a2.17,2.17,0,1,0-4.34,0,2.1,2.1,0,0,0,2.08,2.2A2.19,2.19,0,0,0,65,234.34Z"/><path class="cls-2" d="M67.9,236.26c0-3,1-5.29,3.57-5.29S75,233.29,75,236.26s-1,5.3-3.57,5.3S67.9,239.24,67.9,236.26Zm5.77,0c0-2.62-.71-4.1-2.2-4.1s-2.2,1.48-2.2,4.1.71,4.11,2.2,4.11S73.67,238.88,73.67,236.26Z"/></g><g class="cls-1"><path class="cls-2" d="M51.23,175.12l3.28-2.26h1V182H58v1.13H51.59V182h2.62v-7.49l-2.38,1.66Z"/><path class="cls-2" d="M59.45,178c0-3,1-5.3,3.57-5.3s3.57,2.33,3.57,5.3-1,5.3-3.57,5.3S59.45,181,59.45,178Zm5.77,0c0-2.62-.71-4.11-2.2-4.11s-2.2,1.49-2.2,4.11.71,4.11,2.2,4.11S65.22,180.6,65.22,178Z"/><path class="cls-2" d="M67.9,178c0-3,1-5.3,3.57-5.3S75,175,75,178s-1,5.3-3.57,5.3S67.9,181,67.9,178Zm5.77,0c0-2.62-.71-4.11-2.2-4.11s-2.2,1.49-2.2,4.11.71,4.11,2.2,4.11S73.67,180.6,73.67,178Z"/></g><g class="cls-1"><path class="cls-2" d="M53.67,87l1.13-.77c1.06-.73,1.73-1.13,1.73-2.33a1.75,1.75,0,0,0-1.9-1.78c-1.31,0-2,.71-2.09,2.08H51.35A3,3,0,0,1,54.63,81c1.87,0,3.21,1.08,3.21,2.91s-1.15,2.43-2.2,3.16l-1.13.77c-1.55,1.06-1.79,1.8-1.85,2.44H58v1.13H51.17A4.86,4.86,0,0,1,53.67,87Z"/><path class="cls-2" d="M60.82,88.7A2,2,0,0,0,63,90.48,2.23,2.23,0,0,0,63,86a2.46,2.46,0,0,0-2,1L59.86,87l.3-5.77h5.77v1.19H61.35l-.18,3.21h.06a2.7,2.7,0,0,1,2-.71,3.16,3.16,0,0,1,3.33,3.27A3.32,3.32,0,0,1,63,91.61c-2.08,0-3.35-1.16-3.51-2.91Z"/><path class="cls-2" d="M67.9,86.31c0-3,1-5.29,3.57-5.29S75,83.34,75,86.31s-1,5.3-3.57,5.3S67.9,89.29,67.9,86.31Zm5.77,0c0-2.61-.71-4.1-2.2-4.1s-2.2,1.49-2.2,4.1.71,4.11,2.2,4.11S73.67,88.93,73.67,86.31Z"/></g><g class="cls-1"><path d="M1109.91,87l1.13-.77c1-.73,1.72-1.13,1.72-2.33a1.75,1.75,0,0,0-1.9-1.78c-1.31,0-2,.71-2.08,2.08h-1.19a3,3,0,0,1,3.27-3.21c1.87,0,3.21,1.08,3.21,2.91s-1.14,2.43-2.2,3.16l-1.13.77c-1.55,1.06-1.79,1.8-1.85,2.44h5.3v1.13h-6.78A4.83,4.83,0,0,1,1109.91,87Z"/><path d="M1117.05,88.7a2,2,0,0,0,2.2,1.78,2.23,2.23,0,0,0,0-4.46,2.46,2.46,0,0,0-2,1L1116.1,87l.29-5.77h5.78v1.19h-4.58l-.18,3.21h.06a2.67,2.67,0,0,1,2-.71,3.16,3.16,0,0,1,3.33,3.27,3.32,3.32,0,0,1-3.51,3.45c-2.08,0-3.35-1.16-3.51-2.91Z"/><path d="M1124.13,86.31c0-3,1-5.29,3.57-5.29s3.57,2.32,3.57,5.29-1,5.3-3.57,5.3S1124.13,89.29,1124.13,86.31Zm5.78,0c0-2.61-.72-4.1-2.21-4.1s-2.2,1.49-2.2,4.1.72,4.11,2.2,4.11S1129.91,88.93,1129.91,86.31Z"/></g><g class="cls-1"><path d="M1107.23,760.8c0-3,1-5.3,3.57-5.3s3.57,2.33,3.57,5.3-1,5.3-3.57,5.3S1107.23,763.78,1107.23,760.8Zm5.77,0c0-2.62-.71-4.11-2.2-4.11s-2.2,1.49-2.2,4.11.71,4.11,2.2,4.11S1113,763.42,1113,760.8Z"/></g><g class="cls-1"><path d="M1107.47,699.66l3.27-2.26h1v9.1h2.44v1.14h-6.37V706.5h2.62V699l-2.38,1.65Z"/><path d="M1115.68,702.52c0-3,1-5.3,3.57-5.3s3.57,2.32,3.57,5.3-1,5.29-3.57,5.29S1115.68,705.49,1115.68,702.52Zm5.77,0c0-2.62-.71-4.11-2.2-4.11s-2.2,1.49-2.2,4.11.71,4.1,2.2,4.1S1121.45,705.14,1121.45,702.52Z"/></g><g class="cls-1"><path d="M1109.91,645l1.13-.77c1-.73,1.72-1.13,1.72-2.32a1.75,1.75,0,0,0-1.9-1.79c-1.31,0-2,.71-2.08,2.08h-1.19a3,3,0,0,1,3.27-3.21,2.89,2.89,0,0,1,3.21,2.92c0,1.78-1.14,2.42-2.2,3.15l-1.13.77c-1.55,1.06-1.78,1.8-1.84,2.44h5.29v1.13h-6.78A4.83,4.83,0,0,1,1109.91,645Z"/><path d="M1115.68,644.24c0-3,1-5.3,3.57-5.3s3.57,2.32,3.57,5.3-1,5.29-3.57,5.29S1115.68,647.21,1115.68,644.24Zm5.77,0c0-2.62-.71-4.11-2.2-4.11s-2.2,1.49-2.2,4.11.71,4.1,2.2,4.1S1121.45,646.85,1121.45,644.24Z"/></g><g class="cls-1"><path d="M1108.54,588a2,2,0,0,0,2.2,2.14c1.28,0,2.2-.69,2.2-1.89a2,2,0,0,0-2.2-1.89H1110v-1.13h.77a1.77,1.77,0,0,0,1.85-1.77,1.67,1.67,0,0,0-1.85-1.65,1.7,1.7,0,0,0-1.84,1.84h-1.19a3.07,3.07,0,0,1,6.13-.21,2.63,2.63,0,0,1-1.49,2.3v0a2.63,2.63,0,0,1,1.9,2.56c0,1.83-1.56,2.92-3.51,2.92s-3.45-1.07-3.45-3.27Z"/><path d="M1115.68,586c0-3,1-5.29,3.57-5.29s3.57,2.32,3.57,5.29-1,5.3-3.57,5.3S1115.68,588.93,1115.68,586Zm5.77,0c0-2.62-.71-4.1-2.2-4.1s-2.2,1.48-2.2,4.1.71,4.11,2.2,4.11S1121.45,588.57,1121.45,586Z"/></g><g class="cls-1"><path d="M1107.05,529.28l4.94-6.73h1.07v6.55h1.49v1.13h-1.49v2.56h-1.31v-2.56h-4.7Zm4.7-.18v-4.51l-3.36,4.51Z"/><path d="M1115.68,527.67c0-3,1-5.29,3.57-5.29s3.57,2.32,3.57,5.29-1,5.3-3.57,5.3S1115.68,530.65,1115.68,527.67Zm5.77,0c0-2.62-.71-4.1-2.2-4.1s-2.2,1.48-2.2,4.1.71,4.11,2.2,4.11S1121.45,530.29,1121.45,527.67Z"/></g><g class="cls-1"><path d="M1108.6,471.77a2,2,0,0,0,2.2,1.79,2.24,2.24,0,0,0,0-4.47,2.48,2.48,0,0,0-2,1l-1.19-.05.29-5.78h5.78v1.19h-4.59l-.17,3.22h0a2.72,2.72,0,0,1,2-.72,3.16,3.16,0,0,1,3.33,3.27,3.32,3.32,0,0,1-3.51,3.46,3.17,3.17,0,0,1-3.51-2.92Z"/><path d="M1115.68,469.39c0-3,1-5.3,3.57-5.3s3.57,2.33,3.57,5.3-1,5.3-3.57,5.3S1115.68,472.37,1115.68,469.39Zm5.77,0c0-2.62-.71-4.11-2.2-4.11s-2.2,1.49-2.2,4.11.71,4.11,2.2,4.11S1121.45,472,1121.45,469.39Z"/></g><g class="cls-1"><path d="M1111.16,405.81a2.83,2.83,0,0,1,3.09,2.74h-1.31a1.65,1.65,0,0,0-1.78-1.61c-1.21,0-2.43,1.06-2.5,4.09a3,3,0,0,1,2.62-1.35,3.09,3.09,0,0,1,3.21,3.33,3.31,3.31,0,0,1-3.45,3.4c-2,0-3.75-1.3-3.75-5.06C1107.29,407.23,1109.21,405.81,1111.16,405.81Zm-2.32,7.22a2.13,2.13,0,0,0,2.14,2.24,2.23,2.23,0,0,0,.12-4.46A2.19,2.19,0,0,0,1108.84,413Z"/><path d="M1115.68,411.11c0-3,1-5.3,3.57-5.3s3.57,2.32,3.57,5.3-1,5.3-3.57,5.3S1115.68,414.08,1115.68,411.11Zm5.77,0c0-2.62-.71-4.11-2.2-4.11s-2.2,1.49-2.2,4.11.71,4.11,2.2,4.11S1121.45,413.73,1121.45,411.11Z"/></g><g class="cls-1"><path d="M1112.94,348.9h-5.59v-1.19h7v1l-4.34,9.28h-1.37Z"/><path d="M1115.68,352.83c0-3,1-5.3,3.57-5.3s3.57,2.32,3.57,5.3-1,5.29-3.57,5.29S1115.68,355.8,1115.68,352.83Zm5.77,0c0-2.62-.71-4.11-2.2-4.11s-2.2,1.49-2.2,4.11.71,4.1,2.2,4.1S1121.45,355.45,1121.45,352.83Z"/></g><g class="cls-1"><path d="M1109.13,294.37v-.06a2.49,2.49,0,0,1-1.48-2.3c0-1.6,1.22-2.76,3.15-2.76s3.15,1.16,3.15,2.76a2.49,2.49,0,0,1-1.48,2.3v.06a2.61,2.61,0,0,1,1.9,2.55c0,1.83-1.44,2.92-3.57,2.92s-3.57-1.09-3.57-2.92A2.61,2.61,0,0,1,1109.13,294.37Zm1.67,4.34c1.32,0,2.26-.69,2.26-1.89a2.3,2.3,0,0,0-4.52,0C1108.54,298,1109.48,298.71,1110.8,298.71Zm1.9-6.68a1.91,1.91,0,0,0-3.8,0,1.9,1.9,0,0,0,3.8,0Z"/><path d="M1115.68,294.54c0-3,1-5.29,3.57-5.29s3.57,2.32,3.57,5.29-1,5.3-3.57,5.3S1115.68,297.52,1115.68,294.54Zm5.77,0c0-2.61-.71-4.1-2.2-4.1s-2.2,1.49-2.2,4.1.71,4.11,2.2,4.11S1121.45,297.16,1121.45,294.54Z"/></g><g class="cls-1"><path d="M1110.56,241.56a2.94,2.94,0,0,1-3.21-2.74h1.31a1.8,1.8,0,0,0,1.9,1.61c1.39,0,2.32-1.06,2.38-4.08a3,3,0,0,1-2.62,1.34,3.09,3.09,0,0,1-3.21-3.33,3.3,3.3,0,0,1,3.45-3.39c2,0,3.75,1.29,3.75,5.05C1114.31,240.15,1112.69,241.56,1110.56,241.56Zm2.2-7.22a2.17,2.17,0,1,0-4.34,0,2.1,2.1,0,0,0,2.08,2.2A2.19,2.19,0,0,0,1112.76,234.34Z"/><path d="M1115.68,236.26c0-3,1-5.29,3.57-5.29s3.57,2.32,3.57,5.29-1,5.3-3.57,5.3S1115.68,239.24,1115.68,236.26Zm5.77,0c0-2.62-.71-4.1-2.2-4.1s-2.2,1.48-2.2,4.1.71,4.11,2.2,4.11S1121.45,238.88,1121.45,236.26Z"/></g><g class="cls-1"><path d="M1107.47,175.12l3.27-2.26h1V182h2.44v1.13h-6.37V182h2.62v-7.49l-2.38,1.66Z"/><path d="M1115.68,178c0-3,1-5.3,3.57-5.3s3.57,2.33,3.57,5.3-1,5.3-3.57,5.3S1115.68,181,1115.68,178Zm5.77,0c0-2.62-.71-4.11-2.2-4.11s-2.2,1.49-2.2,4.11.71,4.11,2.2,4.11S1121.45,180.6,1121.45,178Z"/><path d="M1124.13,178c0-3,1-5.3,3.57-5.3s3.57,2.33,3.57,5.3-1,5.3-3.57,5.3S1124.13,181,1124.13,178Zm5.78,0c0-2.62-.72-4.11-2.21-4.11s-2.2,1.49-2.2,4.11.72,4.11,2.2,4.11S1129.91,180.6,1129.91,178Z"/></g><path d="M1104.52,43.34h1.57v1.34h.07a2.86,2.86,0,0,1,2.75-1.56,2.79,2.79,0,0,1,2.83,1.84,3,3,0,0,1,3-1.84c1.71,0,3.13,1,3.13,3.64v5.66h-1.64V47c0-1.78-.6-2.45-1.86-2.45s-2.38,1.21-2.38,3.16v4.73h-1.64V47c0-1.78-.67-2.45-1.86-2.45s-2.38,1.21-2.38,3.18v4.71h-1.64Z"/><path d="M1120.59,43.34h1.57v1.34h.07a2.86,2.86,0,0,1,2.75-1.56,2.79,2.79,0,0,1,2.83,1.84,3,3,0,0,1,3-1.84c1.71,0,3.13,1,3.13,3.64v5.66h-1.64V47c0-1.78-.6-2.45-1.86-2.45s-2.38,1.21-2.38,3.16v4.73h-1.64V47c0-1.78-.67-2.45-1.86-2.45s-2.38,1.21-2.38,3.18v4.71h-1.64Z"/><path class="cls-2" d="M42.79,50.85v1.42H41.15V39.1h1.64v5.28c0,1.93.74,2.6,2.08,2.6s2.38-1.26,2.38-3.2V39.1h1.64v9.07H47.33V46.84h-.08A2.79,2.79,0,0,1,44.5,48.4a3.29,3.29,0,0,1-1.83-.52h-.11A20.43,20.43,0,0,1,42.79,50.85Z"/><path class="cls-2" d="M52.83,49.29c0,1.12,1,1.79,2.46,1.79,1.6,0,2.9-.8,2.9-3.35v-1h-.08a3.17,3.17,0,0,1-3,1.64c-2.3,0-4-1.71-4-4.69s1.86-4.84,4.16-4.84a3,3,0,0,1,2.9,1.64h.08V39.1h1.56v8.63c0,3.44-2,4.69-4.46,4.69s-4-1.08-4-3.13ZM55.44,47c1.48,0,2.67-1.19,2.67-3.34s-1.19-3.35-2.67-3.35-2.68,1.26-2.68,3.42S54,47,55.44,47Z"/><path class="cls-2" d="M67,35.15h1.42L62.73,48.4H61.31Z"/><path class="cls-2" d="M68.68,39.1h1.56v1.34h.08a2.84,2.84,0,0,1,2.75-1.57,2.79,2.79,0,0,1,2.83,1.85,3,3,0,0,1,3-1.85c1.71,0,3.12,1,3.12,3.65v5.65H80.43V42.74c0-1.78-.59-2.45-1.86-2.45s-2.38,1.21-2.38,3.16v4.72H74.56V42.74c0-1.78-.67-2.45-1.86-2.45s-2.38,1.21-2.38,3.18v4.7H68.68Z"/><path class="cls-2" d="M84.77,39.72a1.45,1.45,0,0,0,1.6,1.57c.94,0,1.61-.5,1.61-1.38a1.46,1.46,0,0,0-1.61-1.38h-.56v-.82h.56a1.3,1.3,0,0,0,1.35-1.3,1.22,1.22,0,0,0-1.35-1.2A1.25,1.25,0,0,0,85,36.56h-.87a2.24,2.24,0,0,1,4.47-.16,1.89,1.89,0,0,1-1.08,1.67v0A1.9,1.9,0,0,1,88.93,40c0,1.34-1.13,2.13-2.56,2.13a2.23,2.23,0,0,1-2.51-2.39Z"/><rect class="cls-3" x="95.86" y="73.59" width="286.54" height="688"/><rect class="cls-3" x="878.81" y="73.59" width="209.46" height="688"/><path class="cls-2" d="M180.72,761.89a.29.29,0,0,1-.3-.3V158.32a.3.3,0,1,1,.59,0V761.59A.29.29,0,0,1,180.72,761.89Z"/><path class="cls-2" d="M257,761.89a.29.29,0,0,1-.3-.3V158.32a.29.29,0,0,1,.3-.3.3.3,0,0,1,.3.3V761.59A.3.3,0,0,1,257,761.89Z"/><path class="cls-2" d="M341.51,761.89a.3.3,0,0,1-.3-.3V158.32a.3.3,0,0,1,.3-.3.29.29,0,0,1,.3.3V761.59A.29.29,0,0,1,341.51,761.89Z"/><path class="cls-2" d="M423.27,761.89a.3.3,0,0,1-.3-.3V158.32a.3.3,0,0,1,.3-.3.29.29,0,0,1,.3.3V761.59A.29.29,0,0,1,423.27,761.89Z"/><path class="cls-2" d="M507.76,761.89a.29.29,0,0,1-.3-.3V158.32a.3.3,0,0,1,.6,0V761.59A.29.29,0,0,1,507.76,761.89Z"/><path class="cls-2" d="M589.52,761.89a.3.3,0,0,1-.3-.3V158.32a.3.3,0,0,1,.3-.3.29.29,0,0,1,.3.3V761.59A.29.29,0,0,1,589.52,761.89Z"/><path class="cls-2" d="M674,761.89a.29.29,0,0,1-.3-.3V158.32a.29.29,0,0,1,.3-.3.3.3,0,0,1,.3.3V761.59A.3.3,0,0,1,674,761.89Z"/><path class="cls-2" d="M758.49,761.89a.3.3,0,0,1-.3-.3V158.32a.3.3,0,0,1,.3-.3.29.29,0,0,1,.3.3V761.59A.29.29,0,0,1,758.49,761.89Z"/><path class="cls-2" d="M840.26,761.89a.29.29,0,0,1-.3-.3V158.32a.3.3,0,1,1,.59,0V761.59A.29.29,0,0,1,840.26,761.89Z"/><path class="cls-2" d="M924.74,761.89a.3.3,0,0,1-.3-.3V158.32a.3.3,0,0,1,.3-.3.29.29,0,0,1,.3.3V761.59A.29.29,0,0,1,924.74,761.89Z"/><path class="cls-2" d="M1006.5,761.89a.3.3,0,0,1-.3-.3V158.32a.3.3,0,0,1,.3-.3.29.29,0,0,1,.3.3V761.59A.29.29,0,0,1,1006.5,761.89Z"/><path class="cls-2" d="M96.23,761.89a.29.29,0,0,1-.3-.3V158.32a.29.29,0,0,1,.3-.3.3.3,0,0,1,.3.3V761.59A.3.3,0,0,1,96.23,761.89Z"/><path class="cls-2" d="M1088.26,761.89a.3.3,0,0,1-.3-.3V158.32a.3.3,0,0,1,.3-.3.29.29,0,0,1,.3.3V761.59A.29.29,0,0,1,1088.26,761.89Z"/><path class="cls-2" d="M96.25,102.14a.29.29,0,0,1-.3-.3V73.59a.3.3,0,0,1,.6,0v28.25A.29.29,0,0,1,96.25,102.14Z"/><circle cx="96.23" cy="580.92" r="2.97"/><circle cx="104.41" cy="510.98" r="2.97"/><circle cx="107.13" cy="598.4" r="2.97"/><circle cx="109.86" cy="645.03" r="2.97"/><circle cx="112.58" cy="633.37" r="2.97"/><circle cx="115.31" cy="522.63" r="2.97"/><circle cx="123.48" cy="534.29" r="2.97"/><circle cx="131.66" cy="598.4" r="2.97"/><circle cx="134.38" cy="510.98" r="2.97"/><circle cx="137.11" cy="604.23" r="2.97"/><circle cx="139.83" cy="627.54" r="2.97"/><circle cx="142.56" cy="569.26" r="2.97"/><circle cx="145.29" cy="540.12" r="2.97"/><circle cx="148.01" cy="510.98" r="2.97"/><circle cx="150.74" cy="476.01" r="2.97"/><circle cx="158.91" cy="522.63" r="2.97"/><circle cx="161.64" cy="476.01" r="2.97"/><circle cx="188.89" cy="604.23" r="2.97"/><circle cx="191.62" cy="674.17" r="2.97"/><circle cx="194.34" cy="691.65" r="2.97"/><circle cx="197.07" cy="604.23" r="2.97"/><circle cx="199.79" cy="569.26" r="2.97"/><circle cx="202.52" cy="487.66" r="2.97"/><circle cx="205.24" cy="551.77" r="2.97"/><circle cx="216.15" cy="487.66" r="2.97"/><circle cx="218.87" cy="510.98" r="2.97"/><circle cx="221.6" cy="598.4" r="2.97"/><circle cx="224.32" cy="522.63" r="2.97"/><circle cx="227.05" cy="487.66" r="2.97"/><circle cx="229.77" cy="487.66" r="2.97"/><circle cx="243.4" cy="528.46" r="2.97"/><circle cx="246.12" cy="679.99" r="2.97"/><circle cx="248.85" cy="656.68" r="2.97"/><circle cx="251.58" cy="575.09" r="2.97"/><circle cx="254.3" cy="685.82" r="2.97"/><circle cx="257.03" cy="709.14" r="2.97"/><circle cx="259.75" cy="627.54" r="2.97"/><circle cx="262.48" cy="557.6" r="2.97"/><circle cx="265.2" cy="598.4" r="2.97"/><circle cx="267.93" cy="738.28" r="2.97"/><circle cx="270.65" cy="709.14" r="2.97"/><circle cx="273.38" cy="627.54" r="2.97"/><circle cx="276.1" cy="662.51" r="2.97"/><circle cx="278.83" cy="615.88" r="2.97"/><circle cx="281.55" cy="615.88" r="2.97"/><circle cx="284.28" cy="685.82" r="2.97"/><circle cx="287" cy="674.17" r="2.97"/><circle cx="289.73" cy="580.92" r="2.97"/><circle cx="295.18" cy="557.6" r="2.97"/><circle cx="297.91" cy="510.98" r="2.97"/><circle cx="300.63" cy="586.74" r="2.97"/><circle cx="303.36" cy="662.51" r="2.97"/><circle cx="306.08" cy="499.32" r="2.97"/><circle cx="311.53" cy="476.01" r="2.97"/><circle cx="314.26" cy="476.01" r="2.97"/><circle cx="316.98" cy="586.74" r="2.97"/><circle cx="319.71" cy="540.12" r="2.97"/><circle cx="322.43" cy="522.63" r="2.97"/><circle cx="325.16" cy="691.65" r="2.97"/><circle cx="327.89" cy="656.68" r="2.97"/><circle cx="330.61" cy="627.54" r="2.97"/><circle cx="333.34" cy="615.88" r="2.97"/><circle cx="336.06" cy="639.2" r="2.97"/><circle cx="338.79" cy="621.71" r="2.97"/><circle cx="341.51" cy="633.37" r="2.97"/><circle cx="344.24" cy="534.29" r="2.97"/><circle cx="346.96" cy="604.23" r="2.97"/><circle cx="349.69" cy="592.57" r="2.97"/><circle cx="352.41" cy="633.37" r="2.97"/><circle cx="355.14" cy="621.71" r="2.97"/><circle cx="357.86" cy="650.85" r="2.97"/><circle cx="360.59" cy="615.88" r="2.97"/><circle cx="363.32" cy="627.54" r="2.97"/><circle cx="366.04" cy="645.03" r="2.97"/><circle cx="368.77" cy="604.23" r="2.97"/><circle cx="371.49" cy="639.2" r="2.97"/><circle cx="374.22" cy="668.34" r="2.97"/><circle cx="376.94" cy="645.03" r="2.97"/><circle cx="379.67" cy="674.17" r="2.97"/><circle cx="382.39" cy="697.48" r="2.97"/><circle cx="385.12" cy="703.31" r="2.97"/><circle cx="387.84" cy="703.31" r="2.97"/><circle cx="390.57" cy="679.99" r="2.97"/><circle cx="393.29" cy="668.34" r="2.97"/><circle cx="396.02" cy="645.03" r="2.97"/><circle cx="398.75" cy="662.51" r="2.97"/><circle cx="401.47" cy="650.85" r="2.97"/><circle cx="404.2" cy="610.06" r="2.97"/><circle cx="406.92" cy="709.14" r="2.97"/><circle cx="409.65" cy="662.51" r="2.97"/><circle cx="412.37" cy="621.71" r="2.97"/><circle cx="415.1" cy="691.65" r="2.97"/><circle cx="417.82" cy="674.17" r="2.97"/><circle cx="420.55" cy="679.99" r="2.97"/><circle cx="423.27" cy="674.17" r="2.97"/><circle cx="426" cy="703.31" r="2.97"/><circle cx="428.72" cy="674.17" r="2.97"/><circle cx="431.45" cy="674.17" r="2.97"/><circle cx="434.18" cy="668.34" r="2.97"/><circle cx="436.9" cy="662.51" r="2.97"/><circle cx="439.63" cy="744.1" r="2.97"/><circle cx="442.35" cy="685.82" r="2.97"/><circle cx="445.08" cy="714.96" r="2.97"/><circle cx="447.8" cy="679.99" r="2.97"/><circle cx="450.53" cy="633.37" r="2.97"/><circle cx="453.25" cy="610.06" r="2.97"/><circle cx="455.98" cy="679.99" r="2.97"/><circle cx="458.7" cy="685.82" r="2.97"/><circle cx="461.43" cy="668.34" r="2.97"/><circle cx="464.15" cy="668.34" r="2.97"/><circle cx="466.88" cy="679.99" r="2.97"/><circle cx="469.6" cy="674.17" r="2.97"/><circle cx="472.33" cy="674.17" r="2.97"/><circle cx="475.06" cy="691.65" r="2.97"/><circle cx="477.78" cy="709.14" r="2.97"/><circle cx="480.51" cy="679.99" r="2.97"/><circle cx="483.23" cy="674.17" r="2.97"/><circle cx="485.96" cy="679.99" r="2.97"/><circle cx="488.68" cy="668.34" r="2.97"/><circle cx="491.41" cy="674.17" r="2.97"/><circle cx="494.13" cy="679.99" r="2.97"/><circle cx="496.86" cy="685.82" r="2.97"/><circle cx="499.58" cy="668.34" r="2.97"/><circle cx="502.31" cy="656.68" r="2.97"/><circle cx="505.03" cy="685.82" r="2.97"/><circle cx="507.76" cy="691.65" r="2.97"/><circle cx="510.49" cy="679.99" r="2.97"/><circle cx="513.21" cy="679.99" r="2.97" transform="translate(-201.45 1143.71) rotate(-85.93)"/><circle cx="515.94" cy="709.14" r="2.97"/><circle cx="518.66" cy="685.82" r="2.97"/><circle cx="521.39" cy="679.99" r="2.97"/><circle cx="524.11" cy="650.85" r="2.97"/><circle cx="526.84" cy="691.65" r="2.97"/><circle cx="529.56" cy="679.99" r="2.97"/><circle cx="532.29" cy="656.68" r="2.97"/><circle cx="535.01" cy="679.99" r="2.97"/><circle cx="537.74" cy="662.51" r="2.97"/><circle cx="540.46" cy="639.2" r="2.97"/><circle cx="543.19" cy="633.37" r="2.97"/><circle cx="545.92" cy="633.37" r="2.97"/><circle cx="548.64" cy="615.88" r="2.97"/><circle cx="551.37" cy="627.54" r="2.97"/><circle cx="554.09" cy="685.82" r="2.97"/><circle cx="556.82" cy="674.17" r="2.97"/><circle cx="559.54" cy="650.85" r="2.97"/><circle cx="562.27" cy="668.34" r="2.97"/><circle cx="564.99" cy="645.03" r="2.97"/><circle cx="567.72" cy="650.85" r="2.97"/><circle cx="570.44" cy="645.03" r="2.97"/><circle cx="573.17" cy="650.85" r="2.97"/><circle cx="575.89" cy="645.03" r="2.97"/><circle cx="578.62" cy="615.88" r="2.97"/><circle cx="581.35" cy="656.68" r="2.97"/><circle cx="584.07" cy="697.48" r="2.97"/><circle cx="586.8" cy="685.82" r="2.97" transform="translate(-101.41 1269.83) rotate(-89.77)"/><circle cx="589.52" cy="697.48" r="2.97"/><circle cx="592.25" cy="656.68" r="2.97"/><circle cx="594.97" cy="679.99" r="2.97"/><circle cx="597.7" cy="645.03" r="2.97" transform="translate(-2.66 2.48) rotate(-0.24)"/><circle cx="600.42" cy="650.85" r="2.97"/><circle cx="603.15" cy="662.51" r="2.97"/><circle cx="605.87" cy="679.99" r="2.97"/><circle cx="608.6" cy="639.2" r="2.97"/><circle cx="611.32" cy="610.06" r="2.97"/><circle cx="614.05" cy="674.17" r="2.97"/><circle cx="616.77" cy="645.03" r="2.97"/><circle cx="619.5" cy="662.51" r="2.97"/><circle cx="622.23" cy="645.03" r="2.97"/><circle cx="624.95" cy="650.85" r="2.97"/><circle cx="627.68" cy="697.48" r="2.97"/><circle cx="630.4" cy="685.82" r="2.97"/><circle cx="633.13" cy="674.17" r="2.97"/><circle cx="635.85" cy="656.68" r="2.97"/><circle cx="638.58" cy="650.85" r="2.97"/><circle cx="641.3" cy="645.03" r="2.97"/><circle cx="644.03" cy="627.54" r="2.97"/><circle cx="646.75" cy="639.2" r="2.97"/><circle cx="649.48" cy="645.03" r="2.97"/><circle cx="652.2" cy="656.68" r="2.97"/><circle cx="654.93" cy="691.65" r="2.97"/><circle cx="657.66" cy="685.82" r="2.97"/><circle cx="660.38" cy="674.17" r="2.97"/><circle cx="663.11" cy="633.37" r="2.97"/><circle cx="665.83" cy="633.37" r="2.97"/><circle cx="668.56" cy="679.99" r="2.97"/><circle cx="671.28" cy="639.2" r="2.97"/><circle cx="674.01" cy="610.06" r="2.97"/><circle cx="676.73" cy="575.09" r="2.97"/><circle cx="679.46" cy="569.26" r="2.97"/><circle cx="682.18" cy="569.26" r="2.97"/><circle cx="684.91" cy="557.6" r="2.97"/><circle cx="687.63" cy="592.57" r="2.97"/><circle cx="690.36" cy="645.03" r="2.97"/><circle cx="693.09" cy="650.85" r="2.97"/><circle cx="695.81" cy="598.4" r="2.97"/><circle cx="698.54" cy="650.85" r="2.97"/><circle cx="701.26" cy="691.65" r="2.97"/><circle cx="703.99" cy="697.48" r="2.97"/><circle cx="706.71" cy="709.14" r="2.97"/><circle cx="709.44" cy="697.48" r="2.97"/><circle cx="712.16" cy="714.96" r="2.97"/><circle cx="714.89" cy="685.82" r="2.97"/><circle cx="717.61" cy="668.34" r="2.97"/><circle cx="720.34" cy="650.85" r="2.97"/><circle cx="723.06" cy="633.37" r="2.97"/><circle cx="725.79" cy="703.31" r="2.97"/><circle cx="728.52" cy="697.48" r="2.97"/><circle cx="731.24" cy="679.99" r="2.97"/><circle cx="733.97" cy="668.34" r="2.97"/><circle cx="736.69" cy="639.2" r="2.97"/><circle cx="739.42" cy="639.2" r="2.97"/><circle cx="742.14" cy="645.03" r="2.97"/><circle cx="744.87" cy="650.85" r="2.97"/><circle cx="747.59" cy="604.23" r="2.97"/><circle cx="750.32" cy="650.85" r="2.97"/><circle cx="753.04" cy="645.03" r="2.97"/><circle cx="755.77" cy="592.57" r="2.97"/><circle cx="758.49" cy="697.48" r="2.97"/><circle cx="761.22" cy="703.31" r="2.97"/><circle cx="763.95" cy="738.28" r="2.97"/><circle cx="766.67" cy="691.65" r="2.97"/><circle cx="769.4" cy="662.51" r="2.97"/><circle cx="777.57" cy="697.48" r="2.97"/><circle cx="780.3" cy="697.48" r="2.97"/><circle cx="783.02" cy="691.65" r="2.97"/><circle cx="785.75" cy="679.99" r="2.97"/><circle cx="788.47" cy="685.82" r="2.97"/><circle cx="791.2" cy="656.68" r="2.97"/><circle cx="793.92" cy="668.34" r="2.97"/><circle cx="796.65" cy="598.4" r="2.97"/><circle cx="799.37" cy="679.99" r="2.97"/><circle cx="802.1" cy="703.31" r="2.97"/><circle cx="804.83" cy="668.34" r="2.97"/><circle cx="807.55" cy="714.96" r="2.97"/><circle cx="810.28" cy="697.48" r="2.97"/><circle cx="815.73" cy="650.85" r="2.97"/><circle cx="818.45" cy="639.2" r="2.97"/><circle cx="821.18" cy="679.99" r="2.97"/><circle cx="823.9" cy="691.65" r="2.97"/><circle cx="826.63" cy="656.68" r="2.97"/><circle cx="829.35" cy="604.23" r="2.97"/><circle cx="832.08" cy="569.26" r="2.97"/><circle cx="834.8" cy="598.4" r="2.97"/><circle cx="837.53" cy="610.06" r="2.97"/><circle cx="840.26" cy="598.4" r="2.97"/><circle cx="842.98" cy="575.09" r="2.97"/><circle cx="845.71" cy="545.95" r="2.97"/><circle cx="848.43" cy="510.98" r="2.97"/><circle cx="851.16" cy="563.43" r="2.97"/><circle cx="853.88" cy="656.68" r="2.97"/><circle cx="856.61" cy="720.79" r="2.97"/><circle cx="859.33" cy="709.14" r="2.97"/><circle cx="862.06" cy="627.54" r="2.97"/><circle cx="864.78" cy="610.06" r="2.97"/><circle cx="867.51" cy="592.57" r="2.97"/><circle cx="870.23" cy="598.4" r="2.97"/><circle cx="872.96" cy="569.26" r="2.97"/><circle cx="878.41" cy="569.26" r="2.97"/><circle cx="881.14" cy="586.74" r="2.97"/><circle cx="883.86" cy="569.26" r="2.97"/><circle cx="886.59" cy="505.15" r="2.97"/><circle cx="900.21" cy="726.62" r="2.97"/><circle cx="902.94" cy="697.48" r="2.97"/><circle cx="905.66" cy="650.85" r="2.97"/><circle cx="908.39" cy="580.92" r="2.97"/><circle cx="911.12" cy="476.01" r="2.97"/><circle cx="916.57" cy="586.74" r="2.97"/><circle cx="922.02" cy="598.4" r="2.97"/><circle cx="924.74" cy="627.54" r="2.97"/><circle cx="927.47" cy="580.92" r="2.97"/><circle cx="935.64" cy="563.43" r="2.97"/><circle cx="938.37" cy="703.31" r="2.97"/><circle cx="941.09" cy="709.14" r="2.97"/><circle cx="943.82" cy="639.2" r="2.97"/><circle cx="946.54" cy="534.29" r="2.97"/><circle cx="949.27" cy="510.98" r="2.97"/><circle cx="952" cy="598.4" r="2.97"/><circle cx="954.72" cy="598.4" r="2.97"/><circle cx="957.45" cy="744.1" r="2.97"/><circle cx="960.17" cy="633.37" r="2.97"/><circle cx="962.9" cy="598.4" r="2.97"/><circle cx="965.62" cy="586.74" r="2.97"/><circle cx="968.35" cy="540.12" r="2.97"/><circle cx="971.07" cy="575.09" r="2.97"/><circle cx="973.8" cy="575.09" r="2.97"/><circle cx="976.52" cy="545.95" r="2.97"/><circle cx="979.25" cy="551.77" r="2.97"/><circle cx="981.97" cy="505.15" r="2.97"/><circle cx="992.88" cy="668.34" r="2.97"/><circle cx="995.6" cy="685.82" r="2.97"/><circle cx="998.33" cy="633.37" r="2.97"/><circle cx="1001.05" cy="481.84" r="2.97"/><circle cx="1003.78" cy="575.09" r="2.97"/><circle cx="1006.5" cy="633.37" r="2.97"/><circle cx="1009.23" cy="633.37" r="2.97"/><circle cx="1011.95" cy="569.26" r="2.97"/><circle cx="1014.68" cy="580.92" r="2.97"/><circle cx="1017.4" cy="534.29" r="2.97"/><circle cx="1020.13" cy="586.74" r="2.97"/><circle cx="1022.86" cy="522.63" r="2.97"/><circle cx="1028.31" cy="650.85" r="2.97"/><circle cx="1031.03" cy="703.31" r="2.97"/><circle cx="1033.76" cy="650.85" r="2.97"/><circle cx="1039.21" cy="505.15" r="2.97"/><circle cx="1041.93" cy="499.32" r="2.97"/><circle cx="1044.66" cy="563.43" r="2.97"/><circle cx="1047.38" cy="563.43" r="2.97"/><circle cx="1050.11" cy="598.4" r="2.97"/><circle cx="1052.83" cy="586.74" r="2.97"/><circle cx="1066.46" cy="563.43" r="2.97"/><circle cx="1069.19" cy="610.06" r="2.97"/><circle cx="1071.91" cy="563.43" r="2.97"/><circle cx="1077.36" cy="633.37" r="2.97"/><circle cx="1080.09" cy="732.45" r="2.97"/><circle cx="1082.81" cy="679.99" r="2.97"/><circle cx="1085.54" cy="592.57" r="2.97"/><circle cx="1088.26" cy="528.46" r="2.97"/><path class="cls-2" d="M96.25,149.76a.29.29,0,0,1-.3-.3v-6a.3.3,0,0,1,.6,0v6A.29.29,0,0,1,96.25,149.76Z"/><path class="cls-2" d="M96.25,134.64a.29.29,0,0,1-.3-.3v-9.12a.3.3,0,0,1,.6,0v9.12A.29.29,0,0,1,96.25,134.64Z"/><path class="cls-2" d="M96.25,116.4a.29.29,0,0,1-.3-.3v-6a.3.3,0,0,1,.6,0v6A.29.29,0,0,1,96.25,116.4Z"/><path class="cls-2" d="M180.72,102.14a.29.29,0,0,1-.3-.3V73.59a.3.3,0,1,1,.59,0v28.25A.29.29,0,0,1,180.72,102.14Z"/><path class="cls-2" d="M180.72,149.76a.29.29,0,0,1-.3-.3v-6a.3.3,0,0,1,.3-.3.31.31,0,0,1,.3.3v6A.3.3,0,0,1,180.72,149.76Z"/><path class="cls-2" d="M180.72,134.64a.29.29,0,0,1-.3-.3v-9.12a.3.3,0,0,1,.3-.3.31.31,0,0,1,.3.3v9.12A.3.3,0,0,1,180.72,134.64Z"/><path class="cls-2" d="M180.72,116.4a.29.29,0,0,1-.3-.3v-6a.3.3,0,0,1,.3-.3.31.31,0,0,1,.3.3v6A.3.3,0,0,1,180.72,116.4Z"/><path class="cls-2" d="M257,102.14a.29.29,0,0,1-.3-.3V73.59a.29.29,0,0,1,.3-.3.3.3,0,0,1,.3.3v28.25A.3.3,0,0,1,257,102.14Z"/><path class="cls-2" d="M257,149.76a.29.29,0,0,1-.3-.3v-6a.3.3,0,0,1,.3-.3.31.31,0,0,1,.3.3v6A.3.3,0,0,1,257,149.76Z"/><path class="cls-2" d="M257,134.64a.29.29,0,0,1-.3-.3v-9.12a.3.3,0,0,1,.3-.3.31.31,0,0,1,.3.3v9.12A.3.3,0,0,1,257,134.64Z"/><path class="cls-2" d="M257,116.4a.29.29,0,0,1-.3-.3v-6a.3.3,0,0,1,.3-.3.31.31,0,0,1,.3.3v6A.3.3,0,0,1,257,116.4Z"/><path class="cls-2" d="M341.51,102.14a.3.3,0,0,1-.3-.3V73.59a.3.3,0,0,1,.3-.3.29.29,0,0,1,.3.3v28.25A.29.29,0,0,1,341.51,102.14Z"/><path class="cls-2" d="M341.51,149.76a.3.3,0,0,1-.3-.3v-6a.31.31,0,0,1,.3-.3.3.3,0,0,1,.3.3v6A.29.29,0,0,1,341.51,149.76Z"/><path class="cls-2" d="M341.51,134.64a.3.3,0,0,1-.3-.3v-9.12a.31.31,0,0,1,.3-.3.3.3,0,0,1,.3.3v9.12A.29.29,0,0,1,341.51,134.64Z"/><path class="cls-2" d="M341.51,116.4a.3.3,0,0,1-.3-.3v-6a.31.31,0,0,1,.3-.3.3.3,0,0,1,.3.3v6A.29.29,0,0,1,341.51,116.4Z"/><path class="cls-2" d="M423.27,102.14a.3.3,0,0,1-.3-.3V73.59a.3.3,0,0,1,.3-.3.29.29,0,0,1,.3.3v28.25A.29.29,0,0,1,423.27,102.14Z"/><path class="cls-2" d="M423.27,149.76a.3.3,0,0,1-.3-.3v-6a.31.31,0,0,1,.3-.3.3.3,0,0,1,.3.3v6A.29.29,0,0,1,423.27,149.76Z"/><path class="cls-2" d="M423.27,134.64a.3.3,0,0,1-.3-.3v-9.12a.31.31,0,0,1,.3-.3.3.3,0,0,1,.3.3v9.12A.29.29,0,0,1,423.27,134.64Z"/><path class="cls-2" d="M423.27,116.4a.3.3,0,0,1-.3-.3v-6a.31.31,0,0,1,.3-.3.3.3,0,0,1,.3.3v6A.29.29,0,0,1,423.27,116.4Z"/><path class="cls-2" d="M507.76,102.14a.29.29,0,0,1-.3-.3V73.59a.3.3,0,0,1,.6,0v28.25A.29.29,0,0,1,507.76,102.14Z"/><path class="cls-2" d="M507.76,149.76a.29.29,0,0,1-.3-.3v-6a.3.3,0,0,1,.6,0v6A.29.29,0,0,1,507.76,149.76Z"/><path class="cls-2" d="M507.76,134.64a.29.29,0,0,1-.3-.3v-9.12a.3.3,0,0,1,.6,0v9.12A.29.29,0,0,1,507.76,134.64Z"/><path class="cls-2" d="M507.76,116.4a.29.29,0,0,1-.3-.3v-6a.3.3,0,0,1,.6,0v6A.29.29,0,0,1,507.76,116.4Z"/><path class="cls-2" d="M589.52,102.14a.3.3,0,0,1-.3-.3V73.59a.3.3,0,0,1,.3-.3.29.29,0,0,1,.3.3v28.25A.29.29,0,0,1,589.52,102.14Z"/><path class="cls-2" d="M589.52,149.76a.29.29,0,0,1-.3-.3v-6a.3.3,0,1,1,.6,0v6A.29.29,0,0,1,589.52,149.76Z"/><path class="cls-2" d="M589.52,134.64a.29.29,0,0,1-.3-.3v-9.12a.3.3,0,1,1,.6,0v9.12A.29.29,0,0,1,589.52,134.64Z"/><path class="cls-2" d="M589.52,116.4a.29.29,0,0,1-.3-.3v-6a.3.3,0,1,1,.6,0v6A.29.29,0,0,1,589.52,116.4Z"/><path class="cls-2" d="M674,102.14a.29.29,0,0,1-.3-.3V73.59a.29.29,0,0,1,.3-.3.3.3,0,0,1,.3.3v28.25A.3.3,0,0,1,674,102.14Z"/><path class="cls-2" d="M674,149.76a.29.29,0,0,1-.3-.3v-6a.3.3,0,0,1,.3-.3.31.31,0,0,1,.3.3v6A.3.3,0,0,1,674,149.76Z"/><path class="cls-2" d="M674,134.64a.29.29,0,0,1-.3-.3v-9.12a.3.3,0,0,1,.3-.3.31.31,0,0,1,.3.3v9.12A.3.3,0,0,1,674,134.64Z"/><path class="cls-2" d="M674,116.4a.29.29,0,0,1-.3-.3v-6a.3.3,0,0,1,.3-.3.31.31,0,0,1,.3.3v6A.3.3,0,0,1,674,116.4Z"/><path class="cls-2" d="M758.49,102.14a.3.3,0,0,1-.3-.3V73.59a.3.3,0,0,1,.3-.3.29.29,0,0,1,.3.3v28.25A.29.29,0,0,1,758.49,102.14Z"/><path class="cls-2" d="M758.49,149.76a.3.3,0,0,1-.3-.3v-6a.31.31,0,0,1,.3-.3.3.3,0,0,1,.3.3v6A.29.29,0,0,1,758.49,149.76Z"/><path class="cls-2" d="M758.49,134.64a.3.3,0,0,1-.3-.3v-9.12a.31.31,0,0,1,.3-.3.3.3,0,0,1,.3.3v9.12A.29.29,0,0,1,758.49,134.64Z"/><path class="cls-2" d="M758.49,116.4a.3.3,0,0,1-.3-.3v-6a.31.31,0,0,1,.3-.3.3.3,0,0,1,.3.3v6A.29.29,0,0,1,758.49,116.4Z"/><path class="cls-2" d="M840.26,102.14a.29.29,0,0,1-.3-.3V73.59a.3.3,0,1,1,.59,0v28.25A.29.29,0,0,1,840.26,102.14Z"/><path class="cls-2" d="M840.26,149.76a.29.29,0,0,1-.3-.3v-6a.3.3,0,1,1,.59,0v6A.29.29,0,0,1,840.26,149.76Z"/><path class="cls-2" d="M840.26,134.64a.29.29,0,0,1-.3-.3v-9.12a.3.3,0,1,1,.59,0v9.12A.29.29,0,0,1,840.26,134.64Z"/><path class="cls-2" d="M840.26,116.4a.29.29,0,0,1-.3-.3v-6a.3.3,0,1,1,.59,0v6A.29.29,0,0,1,840.26,116.4Z"/><path class="cls-2" d="M924.74,102.14a.3.3,0,0,1-.3-.3V73.59a.3.3,0,0,1,.3-.3.29.29,0,0,1,.3.3v28.25A.29.29,0,0,1,924.74,102.14Z"/><path class="cls-2" d="M924.74,149.76a.3.3,0,0,1-.3-.3v-6a.31.31,0,0,1,.3-.3.3.3,0,0,1,.3.3v6A.29.29,0,0,1,924.74,149.76Z"/><path class="cls-2" d="M924.74,134.64a.3.3,0,0,1-.3-.3v-9.12a.31.31,0,0,1,.3-.3.3.3,0,0,1,.3.3v9.12A.29.29,0,0,1,924.74,134.64Z"/><path class="cls-2" d="M924.74,116.4a.3.3,0,0,1-.3-.3v-6a.31.31,0,0,1,.3-.3.3.3,0,0,1,.3.3v6A.29.29,0,0,1,924.74,116.4Z"/><path class="cls-2" d="M1006.5,102.14a.3.3,0,0,1-.3-.3V73.59a.3.3,0,0,1,.3-.3.29.29,0,0,1,.3.3v28.25A.29.29,0,0,1,1006.5,102.14Z"/><path class="cls-2" d="M1006.5,149.76a.3.3,0,0,1-.3-.3v-6a.31.31,0,0,1,.3-.3.3.3,0,0,1,.3.3v6A.29.29,0,0,1,1006.5,149.76Z"/><path class="cls-2" d="M1006.5,134.64a.3.3,0,0,1-.3-.3v-9.12a.31.31,0,0,1,.3-.3.3.3,0,0,1,.3.3v9.12A.29.29,0,0,1,1006.5,134.64Z"/><path class="cls-2" d="M1006.5,116.4a.3.3,0,0,1-.3-.3v-6a.31.31,0,0,1,.3-.3.3.3,0,0,1,.3.3v6A.29.29,0,0,1,1006.5,116.4Z"/><path class="cls-2" d="M1088.27,102.14a.29.29,0,0,1-.3-.3V73.59a.3.3,0,0,1,.6,0v28.25A.29.29,0,0,1,1088.27,102.14Z"/><path class="cls-2" d="M1088.27,149.76a.29.29,0,0,1-.3-.3v-6a.3.3,0,0,1,.6,0v6A.29.29,0,0,1,1088.27,149.76Z"/><path class="cls-2" d="M1088.27,134.64a.29.29,0,0,1-.3-.3v-9.12a.3.3,0,0,1,.6,0v9.12A.29.29,0,0,1,1088.27,134.64Z"/><path class="cls-2" d="M1088.27,116.4a.29.29,0,0,1-.3-.3v-6a.3.3,0,0,1,.6,0v6A.29.29,0,0,1,1088.27,116.4Z"/><path class="cls-4" d="M1079.5,761.59h-8.13c1.36,0,1.36-17.49,2.71-17.49s1.35-35,2.71-35S1078.15,761.59,1079.5,761.59Z"/><path class="cls-4" d="M1044.26,761.59h-5.42c1.35,0,1.35-11.66,2.72-11.66S1042.91,761.59,1044.26,761.59Z"/><path class="cls-4" d="M1033.42,761.59H1028c1.35,0,1.35-46.63,2.71-46.63S1032.07,761.59,1033.42,761.59Z"/><path class="cls-4" d="M1028,761.59h-8.13c1.35,0,1.35-5.83,2.71-5.83s1.35-5.83,2.71-5.83S1026.65,761.59,1028,761.59Z"/><path class="cls-4" d="M1009,761.59h-8.14c1.36,0,1.36-23.32,2.72-23.32s1.35-5.83,2.7-5.83S1007.67,761.59,1009,761.59Z"/><path class="cls-4" d="M992.76,761.59h-8.13c1.36,0,1.36-5.83,2.71-5.83s1.35-69.94,2.72-69.94S991.41,761.59,992.76,761.59Z"/><path class="cls-4" d="M954.81,347.77c1.36,0,1.36,384.67,2.72,384.67s1.35,29.15,2.7,29.15H949.4c1.35,0,1.35-5.83,2.7-5.83S953.46,347.77,954.81,347.77Z"/><path class="cls-4" d="M938.55,376.91c1.36,0,1.36,378.85,2.71,378.85s1.35-35,2.72-35,1.35,40.8,2.7,40.8H930.42c1.35,0,1.35-46.63,2.71-46.63s1.36-40.8,2.71-40.8S937.19,376.91,938.55,376.91Z"/><path class="cls-4" d="M897.79,761.59h-5.44c1.37,0,1.37-5.83,2.72-5.83S896.42,761.59,897.79,761.59Z"/><path class="cls-4" d="M854.41,761.59H849c1.35,0,1.35-11.66,2.72-11.66S853.06,761.59,854.41,761.59Z"/><path class="cls-4" d="M821.88,761.59h-5.42c1.35,0,1.35-29.15,2.72-29.15S820.53,761.59,821.88,761.59Z"/><path class="cls-4" d="M808.33,761.59h-8.14c1.37,0,1.37-64.11,2.72-64.11S804.26,645,805.63,645,807,761.59,808.33,761.59Z"/><path class="cls-4" d="M781.22,586.74c1.37,0,1.37,174.85,2.72,174.85H775.8c1.35,0,1.35-81.6,2.72-81.6S779.87,586.74,781.22,586.74Z"/><path class="cls-4" d="M775.8,761.59h-5.42c1.35,0,1.35-5.83,2.72-5.83S774.45,761.59,775.8,761.59Z"/><path class="cls-4" d="M765,761.59H754.11c1.37,0,1.37-23.32,2.72-23.32s1.35-35,2.72-35,1.35,46.63,2.7,46.63S763.61,761.59,765,761.59Z"/><path class="cls-4" d="M699.91,761.59h-5.42c1.35,0,1.35-40.8,2.71-40.8S698.55,761.59,699.91,761.59Z"/><path class="cls-4" d="M689.06,761.59h-5.42c1.37,0,1.37-104.91,2.72-104.91S687.71,761.59,689.06,761.59Z"/><path class="cls-4" d="M618.59,761.59h-5.42c1.35,0,1.35-40.8,2.72-40.8S617.24,761.59,618.59,761.59Z"/><path class="cls-4" d="M583.36,761.59h-5.43c1.36,0,1.36-29.15,2.71-29.15S582,761.59,583.36,761.59Z"/><path class="cls-4" d="M575.22,761.59h-5.41c1.35,0,1.35-29.15,2.7-29.15S573.86,761.59,575.22,761.59Z"/><path class="cls-4" d="M545.4,761.59H540c1.35,0,1.35-122.4,2.72-122.4S544.05,761.59,545.4,761.59Z"/><path class="cls-4" d="M518.29,761.59h-5.41c1.36,0,1.36-29.15,2.71-29.15S516.94,761.59,518.29,761.59Z"/><path class="cls-4" d="M464.09,761.59h-5.42c1.35,0,1.35-5.83,2.71-5.83S462.73,761.59,464.09,761.59Z"/><path class="cls-4" d="M456,761.59h-5.42c1.35,0,1.35-93.26,2.7-93.26S454.61,761.59,456,761.59Z"/><path class="cls-4" d="M447.82,761.59H442.4c1.36,0,1.36-157.37,2.72-157.37S446.47,761.59,447.82,761.59Z"/><path class="cls-4" d="M437,557.6c1.36,0,1.36,169,2.71,169s1.36,35,2.71,35h-8.13C435.63,761.59,435.63,557.6,437,557.6Z"/><path class="cls-4" d="M434.27,761.59h-5.42c1.35,0,1.35-58.29,2.72-58.29S432.92,761.59,434.27,761.59Z"/><path class="cls-4" d="M415.3,761.59h-5.42c1.35,0,1.35-58.29,2.71-58.29S413.94,761.59,415.3,761.59Z"/><path class="cls-4" d="M390.9,761.59h-5.41c1.35,0,1.35-64.11,2.7-64.11S389.55,761.59,390.9,761.59Z"/><path class="cls-4" d="M385.49,761.59h-8.14c1.35,0,1.35-40.8,2.72-40.8s1.35,29.14,2.7,29.14S384.12,761.59,385.49,761.59Z"/><path class="cls-4" d="M371.93,761.59h-5.42c1.35,0,1.35-52.46,2.71-52.46S370.57,761.59,371.93,761.59Z"/><path class="cls-4" d="M328.56,761.59h-8c1.36,0,1.36-5.83,2.71-5.83s1.36-11.66,2.71-11.66S327.27,761.59,328.56,761.59Z"/><path class="cls-4" d="M274.46,761.59h-5.41c1.35,0,1.35-29.15,2.7-29.15S273.1,761.59,274.46,761.59Z"/><path class="cls-4" d="M244.64,761.59h-5.42c1.35,0,1.35-64.11,2.72-64.11S243.29,761.59,244.64,761.59Z"/><path class="cls-4" d="M103.7,761.59H98.28c1.35,0,1.35-11.66,2.7-11.66S102.33,761.59,103.7,761.59Z"/><path class="cls-4" d="M130.81,761.59h-5.44c1.37,0,1.37-11.66,2.72-11.66S129.44,761.59,130.81,761.59Z"/><path class="cls-4" d="M195.86,761.59H179.59c1.36,0,1.36-17.49,2.71-17.49s1.36-23.31,2.71-23.31,1.36-11.66,2.71-11.66S189.08,645,190.44,645s1.35-29.14,2.7-29.14S194.49,761.59,195.86,761.59Z"/><path class="cls-4" d="M1079.5,761.89c-.77,0-1-2.6-1.65-26.43-.28-10.79-.59-22.9-1.09-25.6-.46,2.11-.77,10.16-1,16.77-.57,15-.84,17.77-1.65,17.77-.42.39-.79,5-1,8.44-.54,7-.83,9-1.66,9a.3.3,0,0,1-.3-.3.29.29,0,0,1,.24-.3c.5-.49.86-5.11,1.12-8.5.52-6.63.8-8.79,1.54-9,.54-.95.88-9.95,1.16-17.21.58-14.94.84-17.77,1.66-17.77s1,2.62,1.66,26.61c.3,11.6.64,24.73,1.21,25.89a.31.31,0,0,1,.14.26A.3.3,0,0,1,1079.5,761.89Z"/><path class="cls-4" d="M1044.26,761.89c-.86,0-1.15-1.77-1.65-6.1-.25-2.12-.62-5.33-1.08-5.57-.42.24-.79,3.46-1,5.59-.5,4.32-.79,6.08-1.65,6.08a.3.3,0,0,1-.3-.3.3.3,0,0,1,.28-.3c.46-.27.83-3.44,1.07-5.55.51-4.34.8-6.11,1.67-6.11s1.14,1.76,1.65,6.09c.24,2.13.61,5.33,1.07,5.57a.29.29,0,0,1,.29.3A.32.32,0,0,1,1044.26,761.89Z"/><path class="cls-4" d="M1033.42,761.89c-.77,0-1-2.31-1.65-23.53-.26-9-.58-19.91-1.06-22.6-.48,2.68-.8,13.59-1.06,22.52-.61,21.29-.88,23.61-1.65,23.61s-1.14-1.76-1.65-6.08c-.25-2.13-.62-5.35-1.08-5.59-.42,0-.8,1.62-1,2.69-.39,1.69-.73,3.15-1.65,3.15-.44,0-.82,1.62-1.07,2.69-.39,1.68-.73,3.14-1.64,3.14a.3.3,0,0,1-.3-.3.29.29,0,0,1,.3-.3c.43,0,.81-1.61,1.06-2.68.39-1.69.73-3.15,1.65-3.15.44,0,.81-1.62,1.06-2.68.39-1.69.73-3.15,1.65-3.15s1.15,1.77,1.66,6.11c.22,1.94.56,4.79,1,5.43.53-1.76.87-13.44,1.14-22.91.62-21.28.88-23.6,1.66-23.6s1,2.33,1.66,23.69c.3,10.27.64,21.9,1.2,23a.31.31,0,0,1-.15.57Z"/><path class="cls-4" d="M1009,761.89c-.82,0-1.08-2.37-1.67-14.91-.27-5.93-.61-13.26-1.13-14.22-.4.18-.74,1.67-1,2.67-.38,1.64-.71,3.06-1.57,3.14-.51.69-.87,6.88-1.13,11.42-.58,9.89-.86,11.9-1.66,11.9a.31.31,0,0,1-.3-.3.3.3,0,0,1,.22-.29c.51-.66.87-6.83,1.14-11.35.58-10,.86-12,1.66-12,.44,0,.81-1.61,1.06-2.68.39-1.69.73-3.15,1.64-3.15s1.07,2.36,1.65,14.81c.29,6,.64,13.57,1.17,14.35a.31.31,0,0,1,.2.29A.3.3,0,0,1,1009,761.89Z"/><path class="cls-4" d="M992.76,761.89c-.77,0-1-3.75-1.65-38.18-.27-15.23-.58-32.27-1.06-36.66-.48,4.18-.79,19.85-1.06,33.87-.61,31.68-.88,35.14-1.65,35.14-.44,0-.81,1.61-1.06,2.67-.39,1.69-.73,3.16-1.65,3.16a.3.3,0,0,1-.3-.3.29.29,0,0,1,.3-.3c.44,0,.82-1.62,1.07-2.7.37-1.58.69-3,1.48-3.12.57-1.64.91-19.11,1.21-34.57.62-31.91.89-35.38,1.67-35.38s1,3.75,1.65,38.18c.3,17,.64,36.22,1.23,37.65a.3.3,0,0,1-.18.54Zm0-.6Z"/><path class="cls-4" d="M960.23,761.89c-.81,0-1.07-2.36-1.65-14.86-.28-6-.62-13.46-1.15-14.29-.34-.11-.46-1.36-.65-16.89-.13-10-.25-24.27-.36-43.76-.21-36.21-.39-85.24-.55-132.66-.28-79.3-.57-160.9-1-184.69-.48,24.68-.77,111.73-1.06,196.31-.16,50.29-.34,102.29-.55,140.69-.12,20.68-.23,35.86-.36,46.41-.21,17.91-.33,17.91-.75,17.91s-.81,1.61-1.06,2.68c-.39,1.69-.73,3.15-1.64,3.15a.3.3,0,0,1-.3-.3.29.29,0,0,1,.3-.3c.43,0,.81-1.62,1.06-2.69.35-1.53.66-2.87,1.4-3.11.64-4.79,1-106.27,1.3-204.44.17-50,.34-101.7.55-139.8.12-20.51.23-35.57.36-46,.21-17.75.31-17.75.74-17.75s.54,0,.75,16.75c.13,9.87.24,24.07.36,43.4.21,35.92.38,84.67.55,131.81.32,92.93.66,189,1.31,192.81.62.54.89,3.63,1.4,14.76.28,6,.63,13.52,1.16,14.3a.32.32,0,0,1,.19.29A.3.3,0,0,1,960.23,761.89Z"/><path class="cls-4" d="M946.68,761.89c-.77,0-1-2.44-1.65-20.69-.26-7.9-.58-17.55-1.06-19.76-.48,2-.8,10.19-1.06,16.91-.58,14.89-.84,17.71-1.65,17.71-.42,0-.54,0-.75-16.5-.12-9.72-.24-23.7-.35-42.75-.21-35.38-.38-83.38-.55-129.81-.29-79.95-.58-162.25-1.08-184.29-.47,18.9-.76,81.75-1,142.83-.16,36.53-.33,74.31-.55,102.18-.11,15-.22,26-.35,33.67-.19,11.67-.3,12.92-.62,13.06-.55,1.08-.9,11.58-1.18,20-.57,17.14-.85,20.38-1.52,20.73-.56,1.11-.91,13.26-1.2,23-.61,21.29-.88,23.61-1.65,23.61a.31.31,0,0,1-.3-.3.31.31,0,0,1,.16-.27c.56-1.08.91-13.25,1.19-23.06.59-20,.85-23.26,1.53-23.57.55-1,.91-11.65,1.19-20.21.55-16.51.82-20,1.41-20.52.63-3.19,1-77,1.29-148.42.17-36.54.34-74.32.55-102.19.12-15,.23-26,.36-33.67.21-13.07.32-13.07.75-13.07s.54,0,.75,16.65c.12,9.8.24,23.9.36,43.09.21,35.66.38,83.95.55,130.65.31,86.22.63,175.2,1.2,187.28.39-2.86.67-10,.9-16,.58-15,.85-17.83,1.67-17.83s1,2.43,1.65,20.69c.28,8.54.63,19.14,1.18,20.14a.3.3,0,0,1-.13.57Zm0-.6Zm-16.26,0Z"/><path class="cls-4" d="M897.79,761.89c-.93,0-1.27-1.47-1.66-3.16-.25-1.06-.62-2.67-1.06-2.67s-.81,1.61-1.06,2.67c-.39,1.69-.73,3.16-1.66,3.16a.31.31,0,0,1-.3-.3.3.3,0,0,1,.3-.3c.45,0,.83-1.62,1.08-2.7.39-1.68.73-3.13,1.64-3.13s1.25,1.45,1.64,3.13c.25,1.08.63,2.7,1.08,2.7a.3.3,0,0,1,.3.3A.31.31,0,0,1,897.79,761.89Z"/><path class="cls-4" d="M854.41,761.89c-.86,0-1.15-1.77-1.65-6.1-.25-2.12-.62-5.33-1.08-5.57-.42.24-.79,3.46-1,5.59-.5,4.32-.79,6.08-1.65,6.08a.3.3,0,0,1-.3-.3.3.3,0,0,1,.28-.3c.46-.27.83-3.44,1.07-5.55.51-4.34.8-6.11,1.67-6.11s1.14,1.76,1.64,6.09c.25,2.13.62,5.33,1.08,5.57a.29.29,0,0,1,.29.3A.32.32,0,0,1,854.41,761.89Z"/><path class="cls-4" d="M821.88,761.89c-.81,0-1.07-2.36-1.65-14.86-.26-5.64-.58-12.54-1.05-14.06-.48,1.52-.8,8.45-1.07,14.11-.58,12.45-.84,14.81-1.65,14.81a.31.31,0,0,1-.3-.3.33.33,0,0,1,.2-.29c.53-.78.87-8.24,1.15-14.25.59-12.54.85-14.91,1.67-14.91s1.07,2.37,1.65,14.86c.28,6,.63,13.52,1.16,14.3a.32.32,0,0,1,.19.29A.3.3,0,0,1,821.88,761.89Z"/><path class="cls-4" d="M808.33,761.89c-.47,0-.75,0-1.1-18.51-.22-10.93-.39-25.75-.55-40.07-.28-24.14-.6-51.19-1.11-57-.45,3.52-.75,14.87-1,25.05-.57,22-.84,25.89-1.48,26.37-.58,1.27-.92,17.43-1.22,31.7-.62,29.28-.89,32.47-1.67,32.47a.31.31,0,0,1-.3-.3.31.31,0,0,1,.13-.25c.59-1.3.93-17.56,1.24-31.93.57-26.89.84-31.62,1.48-32.17.58-1,.92-14.24,1.22-25.91.62-24,.89-26.61,1.67-26.61.46,0,.74,0,1.1,18.51.21,10.93.38,25.74.55,40.07.3,26.4.65,56.3,1.26,58.07a.32.32,0,0,1,.09.22A.31.31,0,0,1,808.33,761.89Zm-8.14-.6Zm2.72-63.51Z"/><path class="cls-4" d="M783.94,761.89c-.47,0-.75,0-1.1-27.51-.22-16.32-.39-38.48-.55-59.91-.3-37.66-.6-76.46-1.11-85.6-.46,6.29-.75,26.42-1,44.5-.62,42.58-.86,46.92-1.65,46.92a.25.25,0,0,0,.2-.1c-.61,1.13-1,22.17-1.27,40.75-.61,36.92-.87,40.95-1.65,40.95s-1.25-1.46-1.64-3.15c-.25-1.07-.62-2.68-1.06-2.68s-.82,1.62-1.07,2.69c-.4,1.68-.73,3.14-1.65,3.14a.31.31,0,0,1-.3-.3.3.3,0,0,1,.3-.3c.44,0,.81-1.61,1.06-2.68.4-1.69.74-3.15,1.66-3.15s1.25,1.46,1.64,3.14a7.26,7.26,0,0,0,.91,2.63c.57-2.27.91-22.44,1.2-40.3.62-37.17.89-41.24,1.67-41.24a.22.22,0,0,0-.21.11c.6-1.2,1-25.23,1.26-46.44.62-42.59.86-46.92,1.65-46.92.47,0,.75,0,1.11,27.73.22,16.46.39,38.74.56,60.3.32,41.7.66,84.81,1.27,86.92a.28.28,0,0,1,.08.2A.31.31,0,0,1,783.94,761.89Z"/><path class="cls-4" d="M765,761.89c-.85,0-1.14-1.76-1.64-6.08-.25-2.13-.63-5.35-1.09-5.59h0c-.75,0-1-2.33-1.63-23.6-.27-9-.59-20.13-1.08-22.62-.47,2.06-.78,10.19-1,16.86-.56,14.39-.82,17.51-1.57,17.7-.51.66-.87,6.83-1.13,11.35-.58,10-.86,12-1.67,12a.31.31,0,0,1-.3-.3.3.3,0,0,1,.22-.29c.52-.66.88-6.88,1.15-11.43.55-9.41.83-11.68,1.54-11.88.53-1,.88-9.92,1.16-17.15.58-15,.85-17.84,1.67-17.84s1,2.32,1.65,23.61c.28,9.74.63,21.82,1.18,23,.76.19,1,2,1.53,6.1.25,2.12.62,5.31,1.08,5.55a.29.29,0,0,1,.29.3A.32.32,0,0,1,765,761.89Z"/><path class="cls-4" d="M699.91,761.89c-.78,0-1-2.45-1.66-20.76-.26-7.8-.58-17.32-1-19.63-.48,2.31-.8,11.87-1.06,19.7-.6,18.25-.88,20.69-1.65,20.69a.31.31,0,0,1-.3-.3.3.3,0,0,1,.17-.27c.55-1,.9-11.6,1.18-20.14.61-18.26.88-20.69,1.66-20.69s1,2,1.65,20.62c.28,8.57.64,19.21,1.19,20.21a.3.3,0,0,1-.13.57Z"/><path class="cls-4" d="M689.06,761.89c-.46,0-.74,0-1.1-16.69-.21-9.84-.38-23.17-.55-36.06-.27-20.93-.57-44.29-1-50.65-.48,6.34-.78,29.62-1.05,50.46-.17,12.93-.34,26.31-.56,36.18-.36,16.76-.66,16.76-1.11,16.76a.31.31,0,0,1-.3-.3.33.33,0,0,1,.1-.23c.61-1.68,1-28.62,1.27-52.42.16-12.85.34-26.15.55-36,.35-16.61.63-16.61,1.1-16.61s.74,0,1.1,16.68c.21,9.84.38,23.17.55,36.07.3,23.71.65,50.55,1.25,52.23a.33.33,0,0,1,.1.23A.3.3,0,0,1,689.06,761.89Zm0-.6Zm-5.42,0Zm0,0Zm5.42,0Z"/><path class="cls-4" d="M618.59,761.89c-.77,0-1.05-2.44-1.65-20.69-.26-7.84-.58-17.41-1.06-19.71-.48,2.3-.8,11.91-1.06,19.78-.62,18.59-.88,20.62-1.65,20.62a.3.3,0,0,1-.13-.57c.55-1,.9-11.56,1.18-20.07.61-18.32.89-20.76,1.67-20.76s1,2.43,1.65,20.69c.28,8.54.63,19.14,1.18,20.14a.3.3,0,0,1-.13.57Z"/><path class="cls-4" d="M583.36,761.89c-.82,0-1.08-2.37-1.67-14.91-.26-5.61-.58-12.48-1.05-14-.47,1.53-.79,8.4-1,14-.58,12.54-.85,14.91-1.66,14.91a.3.3,0,0,1-.3-.3.31.31,0,0,1,.2-.29c.53-.78.88-8.3,1.16-14.35.58-12.45.85-14.81,1.65-14.81s1.07,2.36,1.65,14.81c.29,6,.64,13.57,1.17,14.35a.31.31,0,0,1,.2.29A.3.3,0,0,1,583.36,761.89Z"/><path class="cls-4" d="M575.22,761.89c-.81,0-1.08-2.37-1.66-14.91-.26-5.61-.58-12.48-1-14-.47,1.53-.79,8.43-1,14.06-.58,12.5-.84,14.86-1.65,14.86a.3.3,0,0,1-.3-.3.32.32,0,0,1,.19-.29c.53-.78.88-8.27,1.16-14.3.58-12.49.84-14.86,1.65-14.86s1.07,2.36,1.65,14.81c.28,6,.63,13.57,1.17,14.35a.32.32,0,0,1,.19.29A.3.3,0,0,1,575.22,761.89Z"/><path class="cls-4" d="M545.4,761.89c-.46,0-.74,0-1.1-19.42-.21-11.48-.38-27-.55-42.08-.27-24.4-.57-51.65-1-59.09-.49,7.46-.79,34.81-1.07,59.31-.16,15-.33,30.51-.55,41.94-.35,19.34-.63,19.34-1.1,19.34a.31.31,0,0,1-.3-.3.34.34,0,0,1,.09-.22c.61-1.8,1-33.12,1.26-60.77.17-15.09.34-30.69.56-42.21.36-19.5.64-19.5,1.11-19.5s.74,0,1.1,19.42c.21,11.48.38,27,.55,42.08.31,27.75.65,59.17,1.26,61a.29.29,0,0,1,.09.22A.3.3,0,0,1,545.4,761.89Z"/><path class="cls-4" d="M518.29,761.89c-.81,0-1.07-2.36-1.65-14.86-.26-5.63-.58-12.53-1-14.06-.47,1.53-.79,8.4-1.05,14-.58,12.54-.85,14.91-1.66,14.91a.3.3,0,0,1-.3-.3.32.32,0,0,1,.19-.29c.54-.78.89-8.3,1.17-14.35.58-12.45.84-14.81,1.65-14.81s1.07,2.37,1.65,14.86c.28,6,.63,13.52,1.16,14.3a.32.32,0,0,1,.19.29A.3.3,0,0,1,518.29,761.89Z"/><path class="cls-4" d="M464.09,761.89c-.92,0-1.26-1.47-1.66-3.16-.24-1.06-.62-2.67-1.05-2.67s-.82,1.61-1.06,2.68c-.4,1.69-.73,3.15-1.65,3.15a.31.31,0,0,1-.3-.3.3.3,0,0,1,.3-.3c.44,0,.81-1.62,1.06-2.69.39-1.68.73-3.14,1.65-3.14s1.25,1.45,1.64,3.13c.25,1.08.63,2.7,1.07,2.7a.29.29,0,0,1,.3.3A.3.3,0,0,1,464.09,761.89Z"/><path class="cls-4" d="M456,761.89c-.79,0-1-4.32-1.65-46.76-.28-18.71-.58-39.61-1.07-45.21-.48,5.59-.78,26.41-1.05,45-.62,42.6-.86,46.93-1.65,46.93a.3.3,0,0,1-.3-.3.29.29,0,0,1,.1-.23c.6-1.59,1-25.39,1.25-46.4.62-42.6.86-46.93,1.65-46.93.45,0,.75,0,1.11,14.93.22,8.78.39,20.66.56,32.16.3,20.94.65,44.66,1.24,46.24a.27.27,0,0,1,.11.23A.31.31,0,0,1,456,761.89Zm0-.6Zm-5.42,0Zm5.42,0Zm-5.42,0Z"/><path class="cls-4" d="M447.82,761.89c-.46,0-.74,0-1.1-24.89-.21-14.75-.38-34.75-.55-54.09-.27-31.33-.57-66.27-1.05-76-.49,9.71-.79,44.79-1.07,76.23-.16,19.29-.33,39.23-.54,53.93-.36,24.78-.64,24.78-1.11,24.78-.81,0-1.07-2.82-1.65-17.72-.28-7.28-.63-16.32-1.18-17.27-.4-.17-.66-2.22-1-26.69-.22-15.84-.39-37.33-.55-58.1-.28-34.89-.57-70.8-1-81.32-.49,11.82-.78,55.76-1.07,98.45-.16,25.14-.34,51.14-.55,70.34-.36,32.31-.64,32.31-1.11,32.31-.77,0-1-2.9-1.65-29.44-.27-11.71-.58-24.81-1.06-28.16-.48,3.36-.79,16.51-1.06,28.26-.62,26.45-.88,29.34-1.65,29.34a.3.3,0,0,1-.16-.56c.57-1.22.91-15.86,1.21-28.79.62-26.63.89-29.54,1.67-29.54s1,2.9,1.65,29.44c.25,11,.54,23.23,1,27.45.54-9.08.85-55.57,1.15-100.66.17-25,.34-50.85.55-69.9.36-32,.62-32,1.1-32s.75,0,1.11,26.7c.21,15.85.38,37.33.55,58.11.32,40.33.65,82,1.27,84.29.65.58.92,4.2,1.44,17.75.24,6.22.54,13.73.95,16.31.54-6.41.85-42.4,1.15-77.28.17-19.4.35-39.46.56-54.27.36-25,.64-25,1.11-25s.75,0,1.1,24.89c.21,14.75.38,34.75.55,54.09.31,35.85.66,76.45,1.28,78.49a.32.32,0,0,1,.07.2A.3.3,0,0,1,447.82,761.89Z"/><path class="cls-4" d="M415.3,761.89c-.78,0-1-2.9-1.66-29.44-.27-11.71-.57-24.81-1.05-28.16-.48,3.36-.79,16.51-1.06,28.26-.62,26.45-.88,29.34-1.65,29.34a.3.3,0,0,1-.3-.3.32.32,0,0,1,.13-.26c.58-1.22.92-15.86,1.22-28.79.62-26.63.88-29.54,1.66-29.54s1,2.9,1.65,29.44c.31,13,.65,27.66,1.22,28.89a.33.33,0,0,1,.14.26A.31.31,0,0,1,415.3,761.89Z"/><path class="cls-4" d="M390.9,761.89c-.77,0-1-3.17-1.65-32.24-.27-12.91-.58-27.36-1.06-31.09-.48,3.72-.78,18.11-1.05,31-.62,29.17-.88,32.35-1.65,32.35s-1.16-1.77-1.67-6.12c-.24-2.11-.62-5.31-1.07-5.55h0c-.78,0-1-2.36-1.62-14.85-.26-5.54-.57-12.31-1-14-.5,2.1-.82,11.89-1.09,19.88-.62,18.59-.88,20.62-1.65,20.62a.3.3,0,0,1-.13-.57c.55-1,.9-11.56,1.18-20.07.61-18.32.89-20.76,1.67-20.76s1.07,2.36,1.65,14.85c.28,6,.62,13.46,1.15,14.3.78.13,1.06,1.91,1.55,6.06.22,1.93.55,4.75,1,5.44.54-2.25.87-17.81,1.16-31.62.61-29.17.88-32.34,1.65-32.34s1,3.18,1.66,32.46c.31,14.26.65,30.4,1.22,31.7a.29.29,0,0,1,.13.25A.3.3,0,0,1,390.9,761.89Z"/><path class="cls-4" d="M371.93,761.89c-.78,0-1-2.62-1.66-26.62-.27-10.5-.58-22.25-1-25.24-.48,3-.78,14.79-1.06,25.34-.61,23.91-.87,26.52-1.65,26.52a.31.31,0,0,1-.3-.3.3.3,0,0,1,.15-.26c.56-1.16.9-14.34,1.2-26,.62-23.91.88-26.52,1.66-26.52s1,2.6,1.65,26.43c.3,11.68.64,24.91,1.22,26.07a.31.31,0,0,1,.14.26A.3.3,0,0,1,371.93,761.89Z"/><path class="cls-4" d="M328.55,761.89c-.8,0-1.06-1.92-1.58-9-.25-3.32-.58-7.83-1-8.47-.42.38-.78,3.46-1,5.51-.51,4.35-.8,6.12-1.66,6.12-.44,0-.81,1.61-1.06,2.68-.39,1.69-.73,3.15-1.65,3.15a.31.31,0,0,1-.3-.3.3.3,0,0,1,.3-.3c.44,0,.82-1.62,1.06-2.69.4-1.69.73-3.14,1.65-3.14.44-.23.82-3.45,1.06-5.58.51-4.32.8-6.08,1.65-6.08s1.08,1.93,1.61,9.06c.24,3.34.58,7.92,1.05,8.43a.3.3,0,0,1-.07.6Z"/><path class="cls-4" d="M274.46,761.89c-.81,0-1.08-2.37-1.66-14.91-.26-5.61-.58-12.48-1.05-14-.47,1.53-.79,8.43-1.05,14.06-.58,12.5-.85,14.86-1.65,14.86a.3.3,0,0,1-.3-.3.32.32,0,0,1,.19-.29c.53-.78.88-8.27,1.16-14.29.58-12.5.84-14.87,1.65-14.87s1.07,2.36,1.65,14.81c.28,6.06.63,13.57,1.17,14.35a.32.32,0,0,1,.19.29A.3.3,0,0,1,274.46,761.89Z"/><path class="cls-4" d="M244.64,761.89c-.77,0-1-3.18-1.65-32.34-.27-12.87-.57-27.27-1.05-31-.49,3.73-.79,18.17-1.07,31.08-.61,29.08-.87,32.25-1.65,32.25a.31.31,0,0,1-.3-.3.29.29,0,0,1,.13-.25c.58-1.3.92-17.45,1.22-31.71.62-29.27.89-32.45,1.67-32.45s1,3.17,1.65,32.35c.3,14.31.64,30.51,1.22,31.81a.29.29,0,0,1,.13.25A.3.3,0,0,1,244.64,761.89Z"/><path class="cls-4" d="M195.86,761.89c-.47,0-.75,0-1.11-23.15-.22-13.71-.39-32.28-.56-50.24-.28-31-.61-65.79-1.15-71.64-.42,2.15-.71,8.41-.95,13.6-.54,11.62-.8,14.48-1.49,14.82-.58,1.41-.92,17.6-1.23,31.91-.61,29.07-.87,32.24-1.65,32.24-.43.23-.8,3.43-1.05,5.55-.49,4.21-.78,6-1.58,6.1-.51.69-.87,6.86-1.13,11.38-.58,9.93-.86,11.94-1.66,11.94-.42.39-.78,5-1.05,8.44-.54,7-.83,9-1.66,9a.3.3,0,0,1-.05-.6c.49-.49.85-5.11,1.11-8.5.53-6.74.81-8.85,1.58-9,.51-.69.86-6.86,1.13-11.38.57-9.93.85-11.94,1.65-11.94.44-.23.82-3.45,1.06-5.58.48-4,.76-5.84,1.5-6.06.57-1.5.9-17.52,1.2-31.68.6-27.88.86-32.09,1.56-32.43.53-.75.88-8.26,1.16-14.31.58-12.49.84-14.85,1.65-14.85.47,0,.75,0,1.1,23,.22,13.62.39,32.08.55,49.94.31,33.26.66,70.92,1.29,72.89a.3.3,0,0,1,.08.21A.31.31,0,0,1,195.86,761.89Zm-16.27-.6Zm10.85-116.57Z"/><path class="cls-4" d="M130.81,761.89c-.87,0-1.16-1.77-1.67-6.12-.24-2.11-.62-5.31-1.07-5.55-.41.24-.79,3.44-1,5.55-.51,4.35-.8,6.12-1.67,6.12a.31.31,0,0,1-.3-.3.29.29,0,0,1,.29-.3c.46-.26.83-3.47,1.08-5.59.5-4.31.79-6.07,1.65-6.07s1.15,1.76,1.65,6.07c.25,2.13.62,5.36,1.09,5.59a.29.29,0,0,1,.29.3A.32.32,0,0,1,130.81,761.89Z"/><path class="cls-4" d="M103.7,761.89c-.87,0-1.16-1.77-1.66-6.12-.25-2.11-.62-5.31-1.08-5.55-.41.24-.79,3.45-1,5.57-.5,4.33-.79,6.1-1.65,6.1a.3.3,0,0,1-.3-.3.3.3,0,0,1,.28-.3c.46-.27.83-3.46,1.07-5.57.51-4.33.8-6.09,1.65-6.09s1.15,1.76,1.65,6.07c.25,2.13.63,5.36,1.09,5.59a.29.29,0,0,1,.29.3A.32.32,0,0,1,103.7,761.89Z"/><path class="cls-4" d="M1088.27,761.89h-992a.31.31,0,0,1-.3-.3.3.3,0,0,1,.3-.3h992a.3.3,0,0,1,.3.3A.31.31,0,0,1,1088.27,761.89Z"/><circle class="cls-5" cx="98.95" cy="423.55" r="2.97"/><circle class="cls-5" cx="101.68" cy="231.22" r="2.97"/><circle class="cls-5" cx="118.03" cy="458.52" r="2.97"/><circle class="cls-5" cx="120.76" cy="382.76" r="2.97"/><circle class="cls-5" cx="126.21" cy="394.41" r="2.97"/><circle class="cls-5" cx="128.93" cy="423.55" r="2.97"/><circle class="cls-5" cx="153.46" cy="464.35" r="2.97"/><circle class="cls-5" cx="156.19" cy="371.1" r="2.97"/><circle class="cls-5" cx="164.36" cy="452.69" r="2.97"/><circle class="cls-5" cx="167.09" cy="417.73" r="2.97"/><circle class="cls-5" cx="169.81" cy="376.93" r="2.97"/><circle class="cls-5" cx="172.54" cy="254.54" r="2.97"/><circle class="cls-5" cx="186.17" cy="202.08" r="2.97"/><circle class="cls-5" cx="207.97" cy="406.07" r="2.97"/><circle class="cls-5" cx="210.69" cy="318.65" r="2.97"/><circle class="cls-5" cx="213.42" cy="359.44" r="2.97"/><circle class="cls-5" cx="232.5" cy="406.07" r="2.97"/><circle class="cls-5" cx="235.22" cy="458.52" r="2.97"/><circle class="cls-5" cx="237.95" cy="435.21" r="2.97"/><circle class="cls-5" cx="240.67" cy="470.18" r="2.97"/><circle class="cls-5" cx="308.81" cy="388.58" r="2.97"/><circle class="cls-5" cx="875.69" cy="446.87" r="2.97"/><circle class="cls-5" cx="889.31" cy="470.18" r="2.97"/><circle class="cls-5" cx="892.04" cy="353.61" r="2.97"/><circle class="cls-5" cx="894.76" cy="341.96" r="2.97"/><circle class="cls-5" cx="897.49" cy="365.27" r="2.97"/><circle class="cls-5" cx="913.84" cy="429.38" r="2.97"/><circle class="cls-5" cx="919.29" cy="441.04" r="2.97"/><circle class="cls-5" cx="930.19" cy="353.61" r="2.97"/><circle class="cls-5" cx="932.92" cy="260.36" r="2.97"/><circle class="cls-5" cx="984.7" cy="242.88" r="2.97"/><circle class="cls-5" cx="987.43" cy="359.44" r="2.97"/><circle class="cls-5" cx="990.15" cy="172.94" r="2.97"/><circle class="cls-5" cx="1025.58" cy="318.65" r="2.97"/><circle class="cls-5" cx="1055.56" cy="458.52" r="2.97"/><circle class="cls-5" cx="1058.29" cy="441.04" r="2.97"/><circle class="cls-5" cx="1061.01" cy="441.04" r="2.97"/><circle class="cls-5" cx="1063.74" cy="470.18" r="2.97"/><circle class="cls-5" cx="1074.64" cy="260.36" r="2.97"/><circle class="cls-5" cx="175.26" cy="161.28" r="2.97"/><circle class="cls-5" cx="177.99" cy="113.64" r="2.97"/><circle class="cls-5" cx="180.72" cy="95.65" r="2.97"/><circle class="cls-5" cx="183.44" cy="142.07" r="2.97"/><path d="M287.73,180.36c0,1.06.91,1.78,2.38,1.78s2.44-.64,2.44-1.72c0-2.53-6.32-.52-6.32-4.52,0-1.76,1.52-3,3.9-3S294,174,294,175.79h-1.66c0-1-.93-1.62-2.18-1.62s-2.22.54-2.22,1.56c0,2.52,6.37.48,6.37,4.55,0,1.89-1.52,3.17-4.17,3.17s-4-1.22-4-3.09Z"/><path d="M297.76,186.55h-1.61V176h1.55v1.09h.06a2.51,2.51,0,0,1,2.41-1.26c1.83,0,3.25,1.34,3.25,3.75s-1.51,3.86-3.37,3.86a2.35,2.35,0,0,1-2.29-1.26h-.06c.06.95.06,1.95.06,2.44Zm2-9.42c-1.11,0-1.95.88-2,2.4v.11c0,1.6.86,2.52,2,2.52s2-1,2-2.57S300.9,177.13,299.76,177.13Z"/><path d="M308.27,175.84a3.21,3.21,0,0,1,3.39,3.54v.53h-5.34c.09,1.42.85,2.28,2,2.28a1.57,1.57,0,0,0,1.68-1.12h1.57a3.07,3.07,0,0,1-3.27,2.38c-2.32,0-3.64-1.41-3.64-3.79A3.54,3.54,0,0,1,308.27,175.84Zm-1.88,3H310c-.13-1.21-.74-1.74-1.75-1.74A1.93,1.93,0,0,0,306.39,178.83Z"/><path d="M314.65,184.17c0,.8.77,1.29,1.83,1.29,1.29,0,2.17-.65,2.17-2.56v-.71h-.06a2.5,2.5,0,0,1-2.41,1.26c-1.83,0-3.24-1.34-3.24-3.75s1.5-3.86,3.36-3.86a2.35,2.35,0,0,1,2.29,1.26h.06V176h1.53v6.89c0,2.74-1.57,3.77-3.7,3.77-1.93,0-3.32-.84-3.35-2.5Zm1.93-2c1.15,0,2-.92,2-2.52v-.11c-.05-1.52-.88-2.4-2-2.4s-2,1-2,2.57S315.45,182.16,316.58,182.16Z"/><path d="M322.37,176h1.55v1.06H324a2.32,2.32,0,0,1,2.25-1.23c1.44,0,2.72.77,2.72,3v4.4h-1.61v-4.19c0-1.44-.61-1.94-1.54-1.94S324,178,324,179.48v3.79h-1.61Z"/><path d="M331,172.38h1.72V174H331ZM331,176h1.61v7.26H331Z"/><path d="M334.81,176h1.55v1.06h.06a2.58,2.58,0,0,1,4.51.21,2.48,2.48,0,0,1,2.44-1.44c1.41,0,2.57.77,2.57,2.94v4.49h-1.6V179c0-1.35-.48-1.83-1.4-1.83s-1.76.87-1.76,2.31v3.82h-1.61V179c0-1.35-.52-1.83-1.4-1.83s-1.75.87-1.75,2.33v3.8h-1.61Z"/><path d="M351.09,175.84a3.21,3.21,0,0,1,3.39,3.54v.53h-5.34c.09,1.42.85,2.28,2,2.28a1.57,1.57,0,0,0,1.68-1.12h1.58a3.08,3.08,0,0,1-3.27,2.38c-2.32,0-3.65-1.41-3.65-3.79A3.54,3.54,0,0,1,351.09,175.84Zm-1.87,3h3.63c-.14-1.21-.75-1.74-1.76-1.74A1.92,1.92,0,0,0,349.22,178.83Z"/><path d="M356.11,176h1.54v1.06h.06a2.32,2.32,0,0,1,2.25-1.23c1.44,0,2.72.77,2.72,3v4.4h-1.6v-4.19c0-1.44-.61-1.94-1.55-1.94s-1.82.88-1.82,2.34v3.79h-1.6Z"/><path d="M364.9,177.26h-1.37V176h1.37v-2.2h1.61V176h1.86v1.25h-1.86v3.6c0,.78.27,1.08,1,1.08h.85v1.33h-1.12c-1.66,0-2.35-.69-2.35-2.32Z"/><path d="M373,175.84a3.49,3.49,0,0,1,3.71,3.8,3.55,3.55,0,0,1-3.71,3.81,3.49,3.49,0,0,1-3.7-3.81A3.55,3.55,0,0,1,373,175.84Zm0,6.32c1.22,0,2-1,2-2.52s-.82-2.51-2-2.51-2,1-2,2.51S371.79,182.16,373,182.16Z"/><path d="M286.36,194.62h1.55v1h0a2,2,0,0,1,1.91-1.23,1.74,1.74,0,0,1,1,.29l-.42,1.43a2,2,0,0,0-.89-.24c-1.09,0-1.61,1.06-1.61,2.33v3.63h-1.61Z"/><path d="M291.91,191h1.73v1.64h-1.73Zm.06,3.64h1.61v7.26H292Z"/><path d="M296.76,199.79c0,.81.82,1.13,1.61,1.13,1.12,0,1.67-.38,1.67-1s-.37-.76-1.1-.88l-1.34-.24c-1.12-.18-2.19-.62-2.19-2s1.32-2.32,3-2.32,3,.68,3,2.2H300c0-.72-.64-1.07-1.5-1.07s-1.49.35-1.49,1,.34.75,1.2.9l1.34.22c1.15.19,2.14.64,2.14,2,0,1.59-1.34,2.38-3.27,2.38s-3.14-.74-3.14-2.26Z"/><path d="M306.44,194.44a3,3,0,0,1,3.3,2.66h-1.59a1.6,1.6,0,0,0-1.71-1.37c-1.13,0-1.95,1-1.95,2.52s.82,2.51,1.95,2.51a1.58,1.58,0,0,0,1.71-1.37h1.59a3,3,0,0,1-3.3,2.66c-2.24,0-3.62-1.42-3.62-3.8A3.51,3.51,0,0,1,306.44,194.44Z"/><path d="M313.42,197.8l1.41-.24c.71-.12.94-.21.94-.49a1.28,1.28,0,0,0-1.43-1.43,1.35,1.35,0,0,0-1.53,1.28h-1.54c.09-1.5,1.25-2.48,3.07-2.48,2,0,3,1,3,2.66v4.78h-1.53V201h-.07a2.61,2.61,0,0,1-2.33,1.08c-1.59,0-2.45-.81-2.45-2S311.7,198.08,313.42,197.8Zm2.35.43a1.22,1.22,0,0,1-.75.34l-1.25.21c-.85.13-1.17.51-1.17,1.07s.41,1,1.23,1a1.83,1.83,0,0,0,1.94-1.95Z"/><path d="M319.46,191h1.6v10.9h-1.6Z"/><path d="M326.11,194.44a2.35,2.35,0,0,1,2.29,1.26h.06c-.08-.95-.08-1.95-.08-2.44V191H330v10.9h-1.53v-1.09h-.06a2.51,2.51,0,0,1-2.41,1.26c-1.83,0-3.24-1.33-3.24-3.74S324.25,194.44,326.11,194.44Zm.28,6.32c1.15,0,2-.92,2-2.51s-.84-2.52-2-2.52-2,1-2,2.58S325.26,200.76,326.39,200.76Z"/><path d="M334.19,197.8l1.41-.24c.72-.12.94-.21.94-.49a1.27,1.27,0,0,0-1.43-1.43,1.35,1.35,0,0,0-1.53,1.28h-1.53c.08-1.5,1.25-2.48,3.06-2.48,2,0,3,1,3,2.66v4.78h-1.54V201h-.07a2.59,2.59,0,0,1-2.32,1.08c-1.59,0-2.46-.81-2.46-2S332.48,198.08,334.19,197.8Zm2.35.43a1.2,1.2,0,0,1-.75.34l-1.24.21c-.85.13-1.18.51-1.18,1.07s.42,1,1.23,1a1.83,1.83,0,0,0,1.94-1.95Z"/><path d="M340.23,194.62h1.55v1h.06a2.57,2.57,0,0,1,4.5.21,2.49,2.49,0,0,1,2.44-1.44c1.42,0,2.58.77,2.58,2.94v4.5h-1.61v-4.3c0-1.36-.48-1.83-1.4-1.83s-1.75.86-1.75,2.3v3.83H345v-4.3c0-1.36-.52-1.83-1.4-1.83s-1.75.86-1.75,2.32v3.81h-1.61Z"/><path d="M356.51,194.44A3.21,3.21,0,0,1,359.9,198v.53h-5.34c.09,1.42.85,2.28,2,2.28a1.57,1.57,0,0,0,1.68-1.12h1.58a3.09,3.09,0,0,1-3.28,2.38c-2.32,0-3.64-1.41-3.64-3.79A3.54,3.54,0,0,1,356.51,194.44Zm-1.88,3h3.63c-.13-1.21-.74-1.74-1.75-1.74A1.93,1.93,0,0,0,354.63,197.43Z"/><path d="M361.52,194.62h1.55v1h.06a2.32,2.32,0,0,1,2.25-1.23c1.44,0,2.72.77,2.72,3v4.41h-1.61v-4.2c0-1.44-.61-1.93-1.54-1.93s-1.82.87-1.82,2.33v3.8h-1.61Z"/><path d="M370.32,195.86H369v-1.24h1.37v-2.21h1.6v2.21h1.86v1.24h-1.86v3.61c0,.77.27,1.07,1,1.07h.84v1.34h-1.11c-1.67,0-2.35-.7-2.35-2.33Z"/><path d="M375.17,191h1.72v1.64h-1.72Zm.06,3.64h1.61v7.26h-1.61Z"/><path d="M887.33,173h2l3.81,10.23h-1.78l-.87-2.48h-4.38l-.87,2.48h-1.7Zm.93,1.67-1.66,4.68H890l-1.65-4.68Z"/><path d="M897.61,175.84a3,3,0,0,1,3.3,2.66h-1.59a1.59,1.59,0,0,0-1.71-1.37c-1.13,0-2,1-2,2.51s.82,2.52,2,2.52a1.58,1.58,0,0,0,1.71-1.37h1.59a3,3,0,0,1-3.3,2.66c-2.23,0-3.61-1.43-3.61-3.81A3.5,3.5,0,0,1,897.61,175.84Z"/><path d="M905.72,175.84a3,3,0,0,1,3.3,2.66h-1.59a1.59,1.59,0,0,0-1.71-1.37c-1.13,0-2,1-2,2.51s.82,2.52,2,2.52a1.58,1.58,0,0,0,1.71-1.37H909a3,3,0,0,1-3.3,2.66c-2.23,0-3.62-1.43-3.62-3.81A3.51,3.51,0,0,1,905.72,175.84Z"/><path d="M913.81,175.84a3.22,3.22,0,0,1,3.4,3.54v.53h-5.34c.09,1.42.84,2.28,2,2.28a1.58,1.58,0,0,0,1.69-1.12h1.57a3.08,3.08,0,0,1-3.27,2.38c-2.32,0-3.65-1.41-3.65-3.79A3.54,3.54,0,0,1,913.81,175.84Zm-1.87,3h3.63c-.13-1.21-.74-1.74-1.76-1.74A1.92,1.92,0,0,0,911.94,178.83Z"/><path d="M918.83,176h1.55v1.06h.06a2.31,2.31,0,0,1,2.24-1.23c1.45,0,2.73.77,2.73,3v4.4H923.8v-4.19c0-1.44-.61-1.94-1.55-1.94s-1.81.88-1.81,2.34v3.79h-1.61Z"/><path d="M928.47,181.19c0,.81.82,1.13,1.61,1.13,1.11,0,1.67-.38,1.67-1s-.38-.76-1.11-.88l-1.33-.24c-1.12-.18-2.19-.62-2.19-2s1.32-2.32,3-2.32,3,.68,3,2.2h-1.5c0-.72-.64-1.07-1.51-1.07s-1.48.35-1.48,1c0,.49.34.75,1.2.9l1.34.22c1.14.19,2.14.64,2.14,2,0,1.59-1.34,2.38-3.27,2.38s-3.14-.74-3.14-2.26Z"/><path d="M935,172.38h1.73V174H935Zm.06,3.63h1.61v7.26h-1.61Z"/><path d="M942,175.84a3.49,3.49,0,0,1,3.71,3.8,3.55,3.55,0,0,1-3.71,3.81,3.5,3.5,0,0,1-3.7-3.81A3.55,3.55,0,0,1,942,175.84Zm0,6.32c1.22,0,2-1,2-2.52s-.82-2.51-2-2.51-2,1-2,2.51S940.82,182.16,942,182.16Z"/><path d="M947.43,176H949v1.06H949a2.31,2.31,0,0,1,2.24-1.23c1.45,0,2.73.77,2.73,3v4.4H952.4v-4.19c0-1.44-.61-1.94-1.55-1.94S949,178,949,179.48v3.79h-1.61Z"/><path d="M959.16,175.84a3.21,3.21,0,0,1,3.39,3.54v.53h-5.34c.09,1.42.84,2.28,2,2.28a1.58,1.58,0,0,0,1.69-1.12h1.57a3.08,3.08,0,0,1-3.27,2.38c-2.32,0-3.65-1.41-3.65-3.79A3.54,3.54,0,0,1,959.16,175.84Zm-1.88,3h3.63c-.13-1.21-.74-1.74-1.75-1.74A1.93,1.93,0,0,0,957.28,178.83Z"/><path d="M884.46,194.62H886v1h0a2,2,0,0,1,1.92-1.23,1.71,1.71,0,0,1,1,.29l-.42,1.43a2,2,0,0,0-.89-.24c-1.09,0-1.61,1.06-1.61,2.33v3.63h-1.6Z"/><path d="M890,191h1.72v1.64H890Zm.06,3.64h1.6v7.26h-1.6Z"/><path d="M894.86,199.79c0,.81.82,1.13,1.6,1.13,1.12,0,1.67-.38,1.67-1s-.37-.76-1.1-.88l-1.34-.24c-1.11-.18-2.19-.62-2.19-2s1.33-2.32,3-2.32,3,.68,3,2.2H898c0-.72-.64-1.07-1.5-1.07s-1.49.35-1.49,1,.34.75,1.21.9l1.33.22c1.15.19,2.15.64,2.15,2,0,1.59-1.34,2.38-3.28,2.38s-3.13-.74-3.13-2.26Z"/><path d="M904.53,194.44a3,3,0,0,1,3.3,2.66h-1.59a1.59,1.59,0,0,0-1.71-1.37c-1.13,0-1.95,1-1.95,2.52s.82,2.51,1.95,2.51a1.58,1.58,0,0,0,1.71-1.37h1.59a3,3,0,0,1-3.3,2.66c-2.23,0-3.61-1.42-3.61-3.8A3.5,3.5,0,0,1,904.53,194.44Z"/><path d="M911.51,197.8l1.41-.24c.72-.12.94-.21.94-.49a1.27,1.27,0,0,0-1.43-1.43,1.35,1.35,0,0,0-1.53,1.28h-1.53c.09-1.5,1.25-2.48,3.06-2.48,2,0,3,1,3,2.66v4.78h-1.54V201h-.07a2.59,2.59,0,0,1-2.32,1.08c-1.59,0-2.46-.81-2.46-2S909.8,198.08,911.51,197.8Zm2.35.43a1.19,1.19,0,0,1-.74.34l-1.25.21c-.85.13-1.18.51-1.18,1.07s.42,1,1.23,1a1.83,1.83,0,0,0,1.94-1.95Z"/><path d="M917.55,191h1.61v10.9h-1.61Z"/><path d="M924.2,194.44a2.35,2.35,0,0,1,2.29,1.26h.06c-.07-.95-.07-1.95-.07-2.44V191h1.61v10.9h-1.54v-1.09h-.06a2.5,2.5,0,0,1-2.41,1.26c-1.83,0-3.24-1.33-3.24-3.74S922.34,194.44,924.2,194.44Zm.28,6.32c1.15,0,2-.92,2-2.51s-.85-2.52-2-2.52-2,1-2,2.58S923.35,200.76,924.48,200.76Z"/><path d="M932.28,197.8l1.41-.24c.72-.12.94-.21.94-.49a1.27,1.27,0,0,0-1.43-1.43,1.36,1.36,0,0,0-1.53,1.28h-1.53c.09-1.5,1.25-2.48,3.06-2.48,2,0,3,1,3,2.66v4.78h-1.53V201h-.08a2.58,2.58,0,0,1-2.32,1.08c-1.59,0-2.45-.81-2.45-2S930.57,198.08,932.28,197.8Zm2.35.43a1.19,1.19,0,0,1-.74.34l-1.25.21c-.85.13-1.18.51-1.18,1.07s.42,1,1.24,1a1.83,1.83,0,0,0,1.93-1.95Z"/><path d="M938.32,194.62h1.55v1h.06a2.58,2.58,0,0,1,4.51.21,2.48,2.48,0,0,1,2.44-1.44c1.41,0,2.57.77,2.57,2.94v4.5h-1.61v-4.3c0-1.36-.47-1.83-1.39-1.83s-1.76.86-1.76,2.3v3.83h-1.61v-4.3c0-1.36-.52-1.83-1.4-1.83s-1.75.86-1.75,2.32v3.81h-1.61Z"/><path d="M954.6,194.44A3.21,3.21,0,0,1,958,198v.53h-5.34c.09,1.42.85,2.28,2,2.28a1.57,1.57,0,0,0,1.68-1.12h1.58a3.08,3.08,0,0,1-3.27,2.38c-2.32,0-3.65-1.41-3.65-3.79A3.54,3.54,0,0,1,954.6,194.44Zm-1.87,3h3.63c-.14-1.21-.75-1.74-1.76-1.74A1.92,1.92,0,0,0,952.73,197.43Z"/><path d="M959.62,194.62h1.54v1h.06a2.32,2.32,0,0,1,2.25-1.23c1.44,0,2.72.77,2.72,3v4.41h-1.6v-4.2c0-1.44-.61-1.93-1.55-1.93s-1.82.87-1.82,2.33v3.8h-1.6Z"/><path d="M968.41,195.86H967v-1.24h1.37v-2.21H970v2.21h1.86v1.24H970v3.61c0,.77.27,1.07,1,1.07h.85v1.34h-1.12c-1.66,0-2.35-.7-2.35-2.33Z"/><path d="M973.26,191H975v1.64h-1.73Zm.06,3.64h1.61v7.26h-1.61Z"/></g><g id="info_1"><g class="cls-6"><circle class="cls-5" cx="177.99" cy="113.64" r="10.4"/></g></g></svg>