<svg id="Livello_1" data-name="Livello 1" xmlns="http://www.w3.org/2000/svg" viewBox="0 0 1175.99 901"><defs><style>.cls-1{isolation:isolate;}.cls-2{fill:#b8b8b8;}.cls-3{fill:#efefef;}.cls-4{fill:#ff3a00;}</style></defs><g class="cls-1"><path d="M206.91,774.12h6.78v1.19h-5.41V779h4.28v1.19h-4.28v4.17h-1.37Z"/><path d="M215.48,774.12h6.9v1.19h-5.53v3.25h4.4v1.19h-4.4v3.42h5.65v1.19h-7Z"/><path d="M224.53,774.12h4.22c2.22,0,3.27,1,3.27,2.68a2.16,2.16,0,0,1-1.6,2.14V779a2.32,2.32,0,0,1,2,2.32c0,1.75-1.18,3-3.39,3h-4.52Zm1.36,1.19v3.16h2.86a1.68,1.68,0,0,0,1.91-1.68c0-.9-.54-1.48-1.91-1.48Zm0,4.35v3.51h3.16a1.76,1.76,0,0,0,2-1.83c0-1-.65-1.68-2-1.68Z"/></g><g class="cls-1"><path d="M132.34,782.87h-.05a3.58,3.58,0,0,1-3.34,1.67A5.3,5.3,0,0,1,129,774a4.28,4.28,0,0,1,4.46,3.21H132a2.9,2.9,0,0,0-3-2c-2.22,0-3.63,1.72-3.63,4s1.47,4,3.57,4c1.71,0,3.27-1,3.27-2.86v-.3H129v-1.19h4.46v5.42h-.89Z"/><path d="M135.91,774.12h6.91v1.19h-5.54v3.25h4.4v1.19h-4.4v3.42h5.65v1.19h-7Z"/><path d="M145,774.12h1.31L152,782H152l-.06-7.92h1.37v10.24H152l-5.65-7.86h-.06l.06,7.86H145Z"/></g><g class="cls-1"><path d="M284.72,774.12h1.66l3.77,8.39h0l3.7-8.39h1.67v10.24h-1.37l.12-8.09h-.06l-3.57,8.09H289.6L286,776.44H286l.11,7.92h-1.36Z"/><path d="M300.85,774.12h1.6l3.81,10.24h-1.43l-1-2.68h-4.5l-1,2.68H297Zm.74,1.43-1.79,4.94h3.63l-1.78-4.94Z"/><path d="M307.75,774.12h3.87c2.33,0,3.57,1.12,3.57,3a2.93,2.93,0,0,1-2.25,3.05l2.61,4.15h-1.49l-2.54-4h-2.4v4h-1.37Zm1.37,1.19v3.87h2.56a1.93,1.93,0,0,0,2.14-2c0-1.13-.77-1.85-2.14-1.85Z"/></g><g class="cls-1"><path d="M372.51,774.12h1.61l3.81,10.24H376.5l-1-2.68H371l-1,2.68H368.7Zm.74,1.43-1.78,4.94h3.63l-1.78-4.94Z"/><path d="M379.42,774.12h3.86c2.34,0,3.63,1.36,3.63,3.28a3.3,3.3,0,0,1-3.63,3.39h-2.49v3.57h-1.37Zm1.37,1.19v4.29h2.55a2.06,2.06,0,0,0,2.21-2.2,2,2,0,0,0-2.21-2.09Z"/><path d="M388.88,774.12h3.87c2.33,0,3.57,1.12,3.57,3a2.93,2.93,0,0,1-2.25,3.05l2.61,4.15h-1.49l-2.55-4h-2.39v4h-1.37Zm1.37,1.19v3.87h2.56a1.93,1.93,0,0,0,2.14-2c0-1.13-.77-1.85-2.14-1.85Z"/></g><g class="cls-1"><path d="M450.31,774.12H452l3.76,8.39h0l3.7-8.39h1.67v10.24h-1.37l.12-8.09h-.06l-3.57,8.09h-1.07l-3.57-7.92h-.06l.12,7.92h-1.37Z"/><path d="M466.44,774.12h1.61l3.8,10.24h-1.42l-1-2.68H465l-1,2.68h-1.37Zm.74,1.43-1.78,4.94H469l-1.79-4.94Z"/><path d="M480.78,782.87h0a3.6,3.6,0,0,1-3.35,1.67,5.3,5.3,0,0,1,.06-10.59,4.28,4.28,0,0,1,4.46,3.21h-1.42a2.91,2.91,0,0,0-3-2c-2.22,0-3.63,1.72-3.63,4s1.47,4,3.57,4c1.71,0,3.27-1,3.27-2.86v-.3h-3.21v-1.19h4.46v5.42H481Z"/></g><g class="cls-1"><path d="M545.37,782.87h0a3.6,3.6,0,0,1-3.35,1.67A5.3,5.3,0,0,1,542,774a4.3,4.3,0,0,1,4.47,3.21h-1.43a2.91,2.91,0,0,0-3-2c-2.21,0-3.63,1.72-3.63,4s1.48,4,3.57,4c1.71,0,3.28-1,3.28-2.86v-.3H542v-1.19h4.47v5.42h-.9Z"/><path d="M548.94,774.12h1.37v10.24h-1.37Z"/><path d="M552.69,774.12h1.37v6.19c0,1.88.87,3,2.73,3s2.74-1.1,2.74-3v-6.19h1.37v6.19c0,3-1.68,4.23-4.11,4.23s-4.1-1.19-4.1-4.23Z"/></g><g class="cls-1"><path d="M618.76,774.12h1.37v9h5v1.19h-6.37Z"/><path d="M626.38,774.12h1.37v6.19c0,1.88.87,3,2.73,3s2.74-1.1,2.74-3v-6.19h1.37v6.19c0,3-1.68,4.23-4.11,4.23s-4.1-1.19-4.1-4.23Z"/><path d="M644.83,782.87h-.05a3.6,3.6,0,0,1-3.34,1.67A5.3,5.3,0,0,1,641.5,774a4.28,4.28,0,0,1,4.46,3.21h-1.43a2.9,2.9,0,0,0-3-2c-2.22,0-3.63,1.72-3.63,4s1.47,4,3.57,4c1.71,0,3.27-1,3.27-2.86v-.3H641.5v-1.19H646v5.42h-.89Z"/></g><g class="cls-1"><path d="M704.79,774.12h1.61l3.81,10.24h-1.43l-1-2.68h-4.49l-1,2.68H701Zm.75,1.43-1.79,4.94h3.63l-1.78-4.94Z"/><path d="M719.14,782.87h0a3.6,3.6,0,0,1-3.34,1.67,5.3,5.3,0,0,1,.06-10.59,4.28,4.28,0,0,1,4.46,3.21h-1.43a2.9,2.9,0,0,0-3-2c-2.22,0-3.63,1.72-3.63,4s1.47,4,3.57,4c1.71,0,3.27-1,3.27-2.86v-.3h-3.21v-1.19h4.46v5.42h-.89Z"/><path d="M727.06,774a5.3,5.3,0,0,1,0,10.59c-3,0-5-2.25-5-5.3S724.07,774,727.06,774Zm0,9.34c2.15,0,3.57-1.73,3.57-4s-1.42-4-3.57-4-3.57,1.72-3.57,4S724.9,783.29,727.06,783.29Z"/></g><g class="cls-1"><path d="M788.33,781.44c0,1.12,1,2,2.56,2s2.62-.7,2.62-1.91c0-2.7-6.39-.65-6.39-4.58,0-1.74,1.5-3,3.77-3s3.75,1.08,3.75,2.91h-1.37c0-1.13-1-1.78-2.38-1.78s-2.38.58-2.38,1.72c0,2.68,6.43.57,6.43,4.64,0,1.85-1.49,3.1-4.05,3.1s-3.92-1.25-3.92-3.1Z"/><path d="M797.08,774.12H804v1.19h-5.54v3.25h4.41v1.19h-4.41v3.42h5.66v1.19h-7Z"/><path d="M805,774.12h8.51v1.16h-3.57v9.08h-1.37v-9.08H805Z"/></g><g class="cls-1"><path d="M874.53,774a5.3,5.3,0,0,1,0,10.59c-3,0-5-2.25-5-5.3S871.54,774,874.53,774Zm0,9.34c2.15,0,3.57-1.73,3.57-4s-1.42-4-3.57-4-3.58,1.72-3.58,4S872.37,783.29,874.53,783.29Z"/><path d="M879.76,774.12h8.51v1.16H884.7v9.08h-1.37v-9.08h-3.57Z"/><path d="M888.51,774.12H897v1.16h-3.57v9.08h-1.37v-9.08h-3.57Z"/></g><g class="cls-1"><path d="M951.85,774.12h1.31l5.65,7.92h.06l-.06-7.92h1.37v10.24h-1.31l-5.66-7.86h-.05l.05,7.86h-1.36Z"/><path d="M967.14,774a5.3,5.3,0,0,1,0,10.59c-3,0-5-2.25-5-5.3S964.15,774,967.14,774Zm0,9.34c2.16,0,3.57-1.73,3.57-4s-1.41-4-3.57-4-3.57,1.72-3.57,4S965,783.29,967.14,783.29Z"/><path d="M972.62,774.12h1.43l3.06,8.81h.06l3.07-8.81h1.37l-3.75,10.24h-1.52Z"/></g><g class="cls-1"><path d="M1036.67,774.12h3.16c3.52,0,5.35,2.13,5.35,5.12s-1.83,5.12-5.35,5.12h-3.16Zm1.37,1.19v7.86h1.79a3.93,3.93,0,0,0,0-7.86Z"/><path d="M1047.15,774.12h1.37v10.24h-1.37Z"/><path d="M1055.42,774a4.14,4.14,0,0,1,4.35,3.39h-1.42a2.74,2.74,0,0,0-2.93-2.14c-2.1,0-3.51,1.66-3.51,4s1.41,4,3.45,4a2.73,2.73,0,0,0,3-2.14h1.42a4.21,4.21,0,0,1-4.41,3.39c-2.87,0-4.88-2.19-4.88-5.3S1052.49,774,1055.42,774Z"/></g><g class="cls-1"><path d="M68.4,761.3c0-3,1-5.29,3.57-5.29s3.57,2.32,3.57,5.29-1,5.3-3.57,5.3S68.4,764.28,68.4,761.3Zm5.77,0c0-2.62-.71-4.1-2.2-4.1s-2.2,1.48-2.2,4.1.72,4.11,2.2,4.11S74.17,763.92,74.17,761.3Z"/></g><g class="cls-1"><path d="M60.19,700.16l3.27-2.26h1V707h2.44v1.13H60.55V707h2.61v-7.49l-2.38,1.65Z"/><path d="M68.4,703c0-3,1-5.3,3.57-5.3s3.57,2.32,3.57,5.3-1,5.3-3.57,5.3S68.4,706,68.4,703Zm5.77,0c0-2.62-.71-4.11-2.2-4.11s-2.2,1.49-2.2,4.11.72,4.11,2.2,4.11S74.17,705.64,74.17,703Z"/></g><g class="cls-1"><path d="M62.63,645.45l1.13-.77c1.06-.73,1.72-1.13,1.72-2.32a1.75,1.75,0,0,0-1.9-1.79c-1.31,0-2,.72-2.08,2.09H60.31a3,3,0,0,1,3.27-3.22,2.89,2.89,0,0,1,3.21,2.92c0,1.78-1.14,2.42-2.2,3.15l-1.13.78c-1.55,1.05-1.78,1.8-1.84,2.43h5.29v1.14H60.13A4.85,4.85,0,0,1,62.63,645.45Z"/><path d="M68.4,644.74c0-3,1-5.3,3.57-5.3s3.57,2.32,3.57,5.3S74.53,650,72,650,68.4,647.71,68.4,644.74Zm5.77,0c0-2.62-.71-4.11-2.2-4.11s-2.2,1.49-2.2,4.11.72,4.1,2.2,4.1S74.17,647.36,74.17,644.74Z"/></g><g class="cls-1"><path d="M61.26,588.48a2,2,0,0,0,2.2,2.14c1.28,0,2.2-.68,2.2-1.89a2,2,0,0,0-2.2-1.89h-.77v-1.13h.77a1.77,1.77,0,0,0,1.85-1.77,1.67,1.67,0,0,0-1.85-1.65,1.7,1.7,0,0,0-1.84,1.84H60.43a3.07,3.07,0,0,1,6.13-.2,2.62,2.62,0,0,1-1.49,2.29v.06a2.62,2.62,0,0,1,1.9,2.56c0,1.83-1.56,2.91-3.51,2.91S60,590.68,60,588.48Z"/><path d="M68.4,586.45c0-3,1-5.29,3.57-5.29s3.57,2.32,3.57,5.29-1,5.3-3.57,5.3S68.4,589.43,68.4,586.45Zm5.77,0c0-2.61-.71-4.1-2.2-4.1s-2.2,1.49-2.2,4.1.72,4.11,2.2,4.11S74.17,589.07,74.17,586.45Z"/></g><g class="cls-1"><path d="M59.77,529.78l4.94-6.72h1.07v6.54h1.49v1.13H65.78v2.56H64.47v-2.56h-4.7Zm4.7-.18v-4.51l-3.36,4.51Z"/><path d="M68.4,528.17c0-3,1-5.29,3.57-5.29s3.57,2.32,3.57,5.29-1,5.3-3.57,5.3S68.4,531.15,68.4,528.17Zm5.77,0c0-2.61-.71-4.1-2.2-4.1s-2.2,1.49-2.2,4.1.72,4.11,2.2,4.11S74.17,530.79,74.17,528.17Z"/></g><g class="cls-1"><path d="M61.32,472.27a2,2,0,0,0,2.2,1.79,2.23,2.23,0,0,0,0-4.46,2.46,2.46,0,0,0-2,1l-1.19-.06.29-5.78h5.78V466H61.85l-.17,3.22h.06a2.67,2.67,0,0,1,2-.72A3.16,3.16,0,0,1,67,471.74a3.32,3.32,0,0,1-3.51,3.45A3.17,3.17,0,0,1,60,472.27Z"/><path d="M68.4,469.89c0-3,1-5.29,3.57-5.29s3.57,2.32,3.57,5.29-1,5.3-3.57,5.3S68.4,472.87,68.4,469.89Zm5.77,0c0-2.62-.71-4.1-2.2-4.1s-2.2,1.48-2.2,4.1S70.49,474,72,474,74.17,472.51,74.17,469.89Z"/></g><g class="cls-1"><path d="M63.88,406.31A2.83,2.83,0,0,1,67,409.05H65.66a1.64,1.64,0,0,0-1.78-1.6c-1.21,0-2.43,1.05-2.5,4.09A2.93,2.93,0,0,1,64,410.18a3.09,3.09,0,0,1,3.21,3.33,3.31,3.31,0,0,1-3.45,3.4c-2,0-3.75-1.3-3.75-5.06C60,407.73,61.93,406.31,63.88,406.31Zm-2.32,7.22a2.14,2.14,0,0,0,2.14,2.25,2.24,2.24,0,0,0,.12-4.47A2.2,2.2,0,0,0,61.56,413.53Z"/><path d="M68.4,411.61c0-3,1-5.3,3.57-5.3s3.57,2.33,3.57,5.3-1,5.3-3.57,5.3S68.4,414.59,68.4,411.61Zm5.77,0c0-2.62-.71-4.1-2.2-4.1s-2.2,1.48-2.2,4.1.72,4.11,2.2,4.11S74.17,414.23,74.17,411.61Z"/></g><g class="cls-1"><path d="M65.66,349.4H60.07v-1.19h7v1l-4.34,9.29H61.38Z"/><path d="M68.4,353.33c0-3,1-5.3,3.57-5.3s3.57,2.32,3.57,5.3-1,5.3-3.57,5.3S68.4,356.3,68.4,353.33Zm5.77,0c0-2.62-.71-4.11-2.2-4.11s-2.2,1.49-2.2,4.11.72,4.1,2.2,4.1S74.17,356,74.17,353.33Z"/></g><g class="cls-1"><path d="M61.85,294.87v-.06a2.49,2.49,0,0,1-1.48-2.29c0-1.61,1.22-2.77,3.15-2.77s3.15,1.16,3.15,2.77a2.49,2.49,0,0,1-1.48,2.29v.06a2.62,2.62,0,0,1,1.9,2.56c0,1.83-1.44,2.91-3.57,2.91S60,299.26,60,297.43A2.62,2.62,0,0,1,61.85,294.87Zm1.67,4.34c1.32,0,2.26-.68,2.26-1.89a2.3,2.3,0,0,0-4.52,0C61.26,298.53,62.2,299.21,63.52,299.21Zm1.9-6.68a1.91,1.91,0,0,0-3.8,0,1.9,1.9,0,0,0,3.8,0Z"/><path d="M68.4,295.05c0-3,1-5.3,3.57-5.3s3.57,2.32,3.57,5.3-1,5.29-3.57,5.29S68.4,298,68.4,295.05Zm5.77,0c0-2.62-.71-4.11-2.2-4.11s-2.2,1.49-2.2,4.11.72,4.1,2.2,4.1S74.17,297.66,74.17,295.05Z"/></g><g class="cls-1"><path d="M63.28,242.06a2.94,2.94,0,0,1-3.21-2.74h1.31a1.79,1.79,0,0,0,1.9,1.61c1.39,0,2.32-1.06,2.38-4.08A3,3,0,0,1,63,238.19a3.09,3.09,0,0,1-3.21-3.33,3.3,3.3,0,0,1,3.45-3.39c2,0,3.75,1.29,3.75,5.06C67,240.65,65.41,242.06,63.28,242.06Zm2.2-7.21a2.17,2.17,0,1,0-4.34,0,2.1,2.1,0,0,0,2.08,2.2A2.19,2.19,0,0,0,65.48,234.85Z"/><path d="M68.4,236.76c0-3,1-5.29,3.57-5.29s3.57,2.32,3.57,5.29-1,5.3-3.57,5.3S68.4,239.74,68.4,236.76Zm5.77,0c0-2.61-.71-4.1-2.2-4.1s-2.2,1.49-2.2,4.1.72,4.11,2.2,4.11S74.17,239.38,74.17,236.76Z"/></g><g class="cls-1"><path d="M51.74,175.63,55,173.36h1v9.11h2.44v1.13H52.09v-1.13h2.62V175l-2.38,1.65Z"/><path d="M60,178.48c0-3,1-5.29,3.57-5.29s3.57,2.32,3.57,5.29-1,5.3-3.57,5.3S60,181.46,60,178.48Zm5.77,0c0-2.62-.71-4.1-2.2-4.1s-2.2,1.48-2.2,4.1.71,4.11,2.2,4.11S65.72,181.1,65.72,178.48Z"/><path d="M68.4,178.48c0-3,1-5.29,3.57-5.29s3.57,2.32,3.57,5.29-1,5.3-3.57,5.3S68.4,181.46,68.4,178.48Zm5.77,0c0-2.62-.71-4.1-2.2-4.1s-2.2,1.48-2.2,4.1.72,4.11,2.2,4.11S74.17,181.1,74.17,178.48Z"/></g><g class="cls-1"><path class="cls-2" d="M1107.73,761.3c0-3,1-5.29,3.57-5.29s3.57,2.32,3.57,5.29-1,5.3-3.57,5.3S1107.73,764.28,1107.73,761.3Zm5.77,0c0-2.62-.71-4.1-2.2-4.1s-2.2,1.48-2.2,4.1.72,4.11,2.2,4.11S1113.5,763.92,1113.5,761.3Z"/></g><g class="cls-1"><path class="cls-2" d="M1108,700.16l3.27-2.26h1V707h2.45v1.13h-6.37V707H1111v-7.49l-2.38,1.65Z"/><path class="cls-2" d="M1116.18,703c0-3,1-5.3,3.57-5.3s3.58,2.32,3.58,5.3-1,5.3-3.58,5.3S1116.18,706,1116.18,703Zm5.78,0c0-2.62-.72-4.11-2.21-4.11s-2.2,1.49-2.2,4.11.72,4.11,2.2,4.11S1122,705.64,1122,703Z"/></g><g class="cls-1"><path class="cls-2" d="M1110.41,645.45l1.13-.77c1.06-.73,1.73-1.13,1.73-2.32a1.76,1.76,0,0,0-1.91-1.79c-1.31,0-2,.72-2.08,2.09h-1.19a3,3,0,0,1,3.27-3.22c1.88,0,3.22,1.09,3.22,2.92s-1.15,2.42-2.21,3.15l-1.13.78c-1.54,1.05-1.78,1.8-1.84,2.43h5.3v1.14h-6.79A4.87,4.87,0,0,1,1110.41,645.45Z"/><path class="cls-2" d="M1116.18,644.74c0-3,1-5.3,3.57-5.3s3.58,2.32,3.58,5.3-1,5.29-3.58,5.29S1116.18,647.71,1116.18,644.74Zm5.78,0c0-2.62-.72-4.11-2.21-4.11s-2.2,1.49-2.2,4.11.72,4.1,2.2,4.1S1122,647.36,1122,644.74Z"/></g><g class="cls-1"><path class="cls-2" d="M1109,588.48a2,2,0,0,0,2.2,2.14c1.28,0,2.21-.68,2.21-1.89a2,2,0,0,0-2.21-1.89h-.77v-1.13h.77a1.77,1.77,0,0,0,1.85-1.77,1.67,1.67,0,0,0-1.85-1.65,1.7,1.7,0,0,0-1.84,1.84h-1.19a3.07,3.07,0,0,1,6.13-.2,2.62,2.62,0,0,1-1.49,2.29v.06a2.62,2.62,0,0,1,1.9,2.56c0,1.83-1.56,2.91-3.51,2.91s-3.45-1.07-3.45-3.27Z"/><path class="cls-2" d="M1116.18,586.45c0-3,1-5.29,3.57-5.29s3.58,2.32,3.58,5.29-1,5.3-3.58,5.3S1116.18,589.43,1116.18,586.45Zm5.78,0c0-2.61-.72-4.1-2.21-4.1s-2.2,1.49-2.2,4.1.72,4.11,2.2,4.11S1122,589.07,1122,586.45Z"/></g><g class="cls-1"><path class="cls-2" d="M1107.55,529.78l4.94-6.72h1.07v6.54h1.49v1.13h-1.49v2.56h-1.31v-2.56h-4.7Zm4.7-.18v-4.51l-3.36,4.51Z"/><path class="cls-2" d="M1116.18,528.17c0-3,1-5.29,3.57-5.29s3.58,2.32,3.58,5.29-1,5.3-3.58,5.3S1116.18,531.15,1116.18,528.17Zm5.78,0c0-2.61-.72-4.1-2.21-4.1s-2.2,1.49-2.2,4.1.72,4.11,2.2,4.11S1122,530.79,1122,528.17Z"/></g><g class="cls-1"><path class="cls-2" d="M1109.1,472.27a2,2,0,0,0,2.2,1.79,2.23,2.23,0,0,0,0-4.46,2.47,2.47,0,0,0-2,1l-1.19-.06.3-5.78h5.77V466h-4.58l-.18,3.22h.06a2.67,2.67,0,0,1,2-.72,3.16,3.16,0,0,1,3.33,3.28,3.32,3.32,0,0,1-3.51,3.45,3.18,3.18,0,0,1-3.51-2.92Z"/><path class="cls-2" d="M1116.18,469.89c0-3,1-5.29,3.57-5.29s3.58,2.32,3.58,5.29-1,5.3-3.58,5.3S1116.18,472.87,1116.18,469.89Zm5.78,0c0-2.62-.72-4.1-2.21-4.1s-2.2,1.48-2.2,4.1.72,4.11,2.2,4.11S1122,472.51,1122,469.89Z"/></g><g class="cls-1"><path class="cls-2" d="M1111.66,406.31a2.83,2.83,0,0,1,3.09,2.74h-1.3a1.65,1.65,0,0,0-1.79-1.6c-1.21,0-2.42,1.05-2.5,4.09a3,3,0,0,1,2.62-1.36,3.09,3.09,0,0,1,3.21,3.33,3.31,3.31,0,0,1-3.45,3.4c-2,0-3.75-1.3-3.75-5.06C1107.79,407.73,1109.71,406.31,1111.66,406.31Zm-2.32,7.22a2.14,2.14,0,0,0,2.14,2.25,2.24,2.24,0,0,0,.12-4.47A2.2,2.2,0,0,0,1109.34,413.53Z"/><path class="cls-2" d="M1116.18,411.61c0-3,1-5.3,3.57-5.3s3.58,2.33,3.58,5.3-1,5.3-3.58,5.3S1116.18,414.59,1116.18,411.61Zm5.78,0c0-2.62-.72-4.1-2.21-4.1s-2.2,1.48-2.2,4.1.72,4.11,2.2,4.11S1122,414.23,1122,411.61Z"/></g><g class="cls-1"><path class="cls-2" d="M1113.45,349.4h-5.6v-1.19h7v1l-4.34,9.29h-1.37Z"/><path class="cls-2" d="M1116.18,353.33c0-3,1-5.3,3.57-5.3s3.58,2.32,3.58,5.3-1,5.3-3.58,5.3S1116.18,356.3,1116.18,353.33Zm5.78,0c0-2.62-.72-4.11-2.21-4.11s-2.2,1.49-2.2,4.11.72,4.1,2.2,4.1S1122,356,1122,353.33Z"/></g><g class="cls-1"><path class="cls-2" d="M1109.64,294.87v-.06a2.48,2.48,0,0,1-1.49-2.29c0-1.61,1.22-2.77,3.15-2.77s3.16,1.16,3.16,2.77a2.5,2.5,0,0,1-1.49,2.29v.06a2.62,2.62,0,0,1,1.9,2.56c0,1.83-1.44,2.91-3.57,2.91s-3.57-1.08-3.57-2.91A2.62,2.62,0,0,1,1109.64,294.87Zm1.66,4.34c1.33,0,2.26-.68,2.26-1.89a2.3,2.3,0,0,0-4.52,0C1109,298.53,1110,299.21,1111.3,299.21Zm1.91-6.68a1.92,1.92,0,0,0-3.81,0,1.91,1.91,0,0,0,3.81,0Z"/><path class="cls-2" d="M1116.18,295.05c0-3,1-5.3,3.57-5.3s3.58,2.32,3.58,5.3-1,5.29-3.58,5.29S1116.18,298,1116.18,295.05Zm5.78,0c0-2.62-.72-4.11-2.21-4.11s-2.2,1.49-2.2,4.11.72,4.1,2.2,4.1S1122,297.66,1122,295.05Z"/></g><g class="cls-1"><path class="cls-2" d="M1111.07,242.06a2.94,2.94,0,0,1-3.22-2.74h1.31a1.8,1.8,0,0,0,1.91,1.61c1.38,0,2.32-1.06,2.38-4.08a3,3,0,0,1-2.62,1.34,3.1,3.1,0,0,1-3.22-3.33,3.31,3.31,0,0,1,3.46-3.39c2,0,3.74,1.29,3.74,5.06C1114.81,240.65,1113.19,242.06,1111.07,242.06Zm2.2-7.21a2.16,2.16,0,0,0-2.15-2.25,2.14,2.14,0,0,0-2.2,2.26,2.1,2.1,0,0,0,2.09,2.2A2.19,2.19,0,0,0,1113.27,234.85Z"/><path class="cls-2" d="M1116.18,236.76c0-3,1-5.29,3.57-5.29s3.58,2.32,3.58,5.29-1,5.3-3.58,5.3S1116.18,239.74,1116.18,236.76Zm5.78,0c0-2.61-.72-4.1-2.21-4.1s-2.2,1.49-2.2,4.1.72,4.11,2.2,4.11S1122,239.38,1122,236.76Z"/></g><g class="cls-1"><path class="cls-2" d="M1108,175.63l3.27-2.27h1v9.11h2.45v1.13h-6.37v-1.13H1111V175l-2.38,1.65Z"/><path class="cls-2" d="M1116.18,178.48c0-3,1-5.29,3.57-5.29s3.58,2.32,3.58,5.29-1,5.3-3.58,5.3S1116.18,181.46,1116.18,178.48Zm5.78,0c0-2.62-.72-4.1-2.21-4.1s-2.2,1.48-2.2,4.1.72,4.11,2.2,4.11S1122,181.1,1122,178.48Z"/><path class="cls-2" d="M1124.64,178.48c0-3,1-5.29,3.57-5.29s3.57,2.32,3.57,5.29-1,5.3-3.57,5.3S1124.64,181.46,1124.64,178.48Zm5.77,0c0-2.62-.71-4.1-2.2-4.1s-2.2,1.48-2.2,4.1.71,4.11,2.2,4.11S1130.41,181.1,1130.41,178.48Z"/></g><path class="cls-2" d="M1105,124.8h1.56v1.34h.07a2.86,2.86,0,0,1,2.75-1.56,2.79,2.79,0,0,1,2.83,1.84,3,3,0,0,1,3-1.84c1.71,0,3.13,1,3.13,3.64v5.66h-1.64v-5.44c0-1.78-.59-2.45-1.86-2.45s-2.38,1.21-2.38,3.16v4.73h-1.64v-5.44c0-1.78-.67-2.45-1.86-2.45s-2.38,1.21-2.38,3.18v4.71H1105Z"/><path class="cls-2" d="M1121.1,124.8h1.56v1.34h.07a2.87,2.87,0,0,1,2.76-1.56,2.79,2.79,0,0,1,2.82,1.84,3,3,0,0,1,3-1.84c1.72,0,3.13,1,3.13,3.64v5.66h-1.64v-5.44c0-1.78-.59-2.45-1.86-2.45s-2.38,1.21-2.38,3.16v4.73H1127v-5.44c0-1.78-.67-2.45-1.86-2.45s-2.38,1.21-2.38,3.18v4.71h-1.63Z"/><rect class="cls-3" x="96.67" y="158.55" width="284.92" height="603.28"/><rect class="cls-3" x="881.69" y="158.55" width="207.09" height="603.28"/><path class="cls-2" d="M181.21,762.14a.31.31,0,0,1-.3-.3V158.55a.31.31,0,0,1,.3-.3.3.3,0,0,1,.3.3V761.84A.3.3,0,0,1,181.21,762.14Z"/><path class="cls-2" d="M257.53,762.14a.3.3,0,0,1-.3-.3V158.55a.3.3,0,0,1,.3-.3.31.31,0,0,1,.3.3V761.84A.31.31,0,0,1,257.53,762.14Z"/><path class="cls-2" d="M342,762.14a.31.31,0,0,1-.3-.3V158.55a.31.31,0,0,1,.3-.3.3.3,0,0,1,.3.3V761.84A.3.3,0,0,1,342,762.14Z"/><path class="cls-2" d="M423.78,762.14a.3.3,0,0,1-.3-.3V158.55a.3.3,0,0,1,.3-.3.31.31,0,0,1,.3.3V761.84A.31.31,0,0,1,423.78,762.14Z"/><path class="cls-2" d="M508.26,762.14a.31.31,0,0,1-.3-.3V158.55a.31.31,0,0,1,.3-.3.3.3,0,0,1,.3.3V761.84A.3.3,0,0,1,508.26,762.14Z"/><path class="cls-2" d="M590,762.14a.3.3,0,0,1-.3-.3V158.55a.3.3,0,0,1,.3-.3.31.31,0,0,1,.3.3V761.84A.31.31,0,0,1,590,762.14Z"/><path class="cls-2" d="M674.51,762.14a.31.31,0,0,1-.3-.3V158.55a.31.31,0,0,1,.3-.3.3.3,0,0,1,.3.3V761.84A.3.3,0,0,1,674.51,762.14Z"/><path class="cls-2" d="M759,762.14a.31.31,0,0,1-.3-.3V158.55a.31.31,0,0,1,.3-.3.3.3,0,0,1,.3.3V761.84A.3.3,0,0,1,759,762.14Z"/><path class="cls-2" d="M840.76,762.14a.31.31,0,0,1-.3-.3V158.55a.31.31,0,0,1,.3-.3.3.3,0,0,1,.3.3V761.84A.3.3,0,0,1,840.76,762.14Z"/><path class="cls-2" d="M925.25,762.14a.31.31,0,0,1-.3-.3V158.55a.31.31,0,0,1,.3-.3.3.3,0,0,1,.3.3V761.84A.3.3,0,0,1,925.25,762.14Z"/><path class="cls-2" d="M1007,762.14a.31.31,0,0,1-.3-.3V158.55a.31.31,0,0,1,.3-.3.3.3,0,0,1,.3.3V761.84A.3.3,0,0,1,1007,762.14Z"/><path class="cls-2" d="M96.73,762.14a.3.3,0,0,1-.3-.3V158.55a.3.3,0,0,1,.3-.3.31.31,0,0,1,.3.3V761.84A.31.31,0,0,1,96.73,762.14Z"/><path class="cls-2" d="M1088.78,762.14a.3.3,0,0,1-.3-.3V158.55a.3.3,0,1,1,.6,0V761.84A.3.3,0,0,1,1088.78,762.14Z"/><circle cx="96.73" cy="482.1" r="2.97"/><circle cx="99.45" cy="610.32" r="2.97"/><circle cx="102.18" cy="627.8" r="2.97"/><circle cx="104.9" cy="587.01" r="2.97"/><circle cx="115.8" cy="534.55" r="2.97"/><circle cx="118.53" cy="505.41" r="2.97"/><circle cx="121.25" cy="639.46" r="2.97"/><circle cx="123.98" cy="575.35" r="2.97"/><circle cx="126.7" cy="517.07" r="2.97"/><circle cx="129.43" cy="505.41" r="2.97"/><circle cx="132.16" cy="534.55" r="2.97"/><circle cx="134.88" cy="482.1" r="2.97"/><circle cx="140.33" cy="592.83" r="2.97"/><circle cx="143.06" cy="674.43" r="2.97"/><circle cx="145.78" cy="546.21" r="2.97"/><circle cx="148.51" cy="493.75" r="2.97"/><circle cx="153.96" cy="499.58" r="2.97"/><circle cx="156.68" cy="546.21" r="2.97"/><circle cx="159.41" cy="499.58" r="2.97"/><circle cx="170.31" cy="563.69" r="2.97"/><circle cx="173.04" cy="528.72" r="2.97"/><circle cx="175.76" cy="546.21" r="2.97"/><circle cx="178.49" cy="511.24" r="2.97"/><circle cx="181.21" cy="668.6" r="2.97"/><circle cx="183.94" cy="726.88" r="2.97"/><circle cx="186.66" cy="750.2" r="2.97"/><circle cx="189.39" cy="680.26" r="2.97"/><circle cx="192.11" cy="592.83" r="2.97"/><circle cx="194.84" cy="587.01" r="2.97"/><circle cx="197.57" cy="674.43" r="2.97"/><circle cx="200.29" cy="633.63" r="2.97"/><circle cx="203.02" cy="534.55" r="2.97"/><circle cx="205.74" cy="499.58" r="2.97"/><circle cx="208.47" cy="546.21" r="2.97"/><circle cx="211.19" cy="598.66" r="2.97"/><circle cx="213.92" cy="686.09" r="2.97"/><circle cx="216.64" cy="604.49" r="2.97"/><circle cx="219.37" cy="534.55" r="2.97"/><circle cx="227.55" cy="575.35" r="2.97"/><circle cx="230.27" cy="651.12" r="2.97"/><circle cx="233" cy="616.15" r="2.97"/><circle cx="235.72" cy="633.63" r="2.97"/><circle cx="238.45" cy="715.23" r="2.97"/><circle cx="241.17" cy="697.74" r="2.97"/><circle cx="243.9" cy="627.8" r="2.97"/><circle cx="246.62" cy="639.46" r="2.97"/><circle cx="249.35" cy="587.01" r="2.97"/><circle cx="252.07" cy="563.69" r="2.97"/><circle cx="254.8" cy="517.07" r="2.97"/><circle cx="257.52" cy="511.24" r="2.97"/><circle cx="260.25" cy="493.75" r="2.97"/><circle cx="262.98" cy="540.38" r="2.97"/><circle cx="265.7" cy="528.72" r="2.97"/><circle cx="268.43" cy="552.04" r="2.97"/><circle cx="271.15" cy="627.8" r="2.97"/><circle cx="273.88" cy="616.15" r="2.97"/><circle cx="276.6" cy="621.98" r="2.97"/><circle cx="279.33" cy="633.63" r="2.97"/><circle cx="282.05" cy="633.63" r="2.97"/><circle cx="284.78" cy="540.38" r="2.97"/><circle cx="287.5" cy="621.98" r="2.97"/><circle cx="290.23" cy="610.32" r="2.97"/><circle cx="295.68" cy="651.12" r="2.97"/><circle cx="298.41" cy="616.15" r="2.97"/><circle cx="301.13" cy="651.12" r="2.97"/><circle cx="303.86" cy="709.4" r="2.97"/><circle cx="306.58" cy="709.4" r="2.97"/><circle cx="309.31" cy="598.66" r="2.97"/><circle cx="312.03" cy="569.52" r="2.97"/><circle cx="314.76" cy="569.52" r="2.97"/><circle cx="317.48" cy="604.49" r="2.97"/><circle cx="320.21" cy="639.46" r="2.97"/><circle cx="322.93" cy="616.15" r="2.97"/><circle cx="325.66" cy="546.21" r="2.97"/><circle cx="328.39" cy="575.35" r="2.97"/><circle cx="331.11" cy="557.86" r="2.97"/><circle cx="333.84" cy="633.63" r="2.97"/><circle cx="336.56" cy="697.74" r="2.97"/><circle cx="339.29" cy="721.06" r="2.97"/><circle cx="342.01" cy="715.23" r="2.97"/><circle cx="344.74" cy="668.6" r="2.97"/><circle cx="347.46" cy="621.98" r="2.97"/><circle cx="350.19" cy="616.15" r="2.97"/><circle cx="352.91" cy="522.89" r="2.97"/><circle cx="355.64" cy="575.35" r="2.97"/><circle cx="358.37" cy="645.29" r="2.97"/><circle cx="361.09" cy="656.94" r="2.97"/><circle cx="363.82" cy="645.29" r="2.97"/><circle cx="366.54" cy="686.09" r="2.97"/><circle cx="369.27" cy="645.29" r="2.97"/><circle cx="371.99" cy="581.18" r="2.97"/><circle cx="374.72" cy="645.29" r="2.97"/><circle cx="377.44" cy="645.29" r="2.97"/><circle cx="380.17" cy="604.49" r="2.97"/><circle cx="382.89" cy="552.04" r="2.97"/><circle cx="385.62" cy="511.24" r="2.97"/><circle cx="388.34" cy="598.66" r="2.97"/><circle cx="391.07" cy="598.66" r="2.97"/><circle cx="393.8" cy="610.32" r="2.97"/><circle cx="396.52" cy="633.63" r="2.97"/><circle cx="399.25" cy="651.12" r="2.97"/><circle cx="401.97" cy="621.98" r="2.97"/><circle cx="404.7" cy="598.66" r="2.97"/><circle cx="407.42" cy="616.15" r="2.97"/><circle cx="410.15" cy="598.66" r="2.97"/><circle cx="412.87" cy="598.66" r="2.97"/><circle cx="415.6" cy="616.15" r="2.97"/><circle cx="418.32" cy="598.66" r="2.97"/><circle cx="421.05" cy="691.91" r="2.97"/><circle cx="423.78" cy="697.74" r="2.97"/><circle cx="426.5" cy="668.6" r="2.97"/><circle cx="429.23" cy="616.15" r="2.97"/><circle cx="431.95" cy="592.83" r="2.97"/><circle cx="434.68" cy="575.35" r="2.97"/><circle cx="437.4" cy="592.83" r="2.97"/><circle cx="440.13" cy="610.32" r="2.97"/><circle cx="442.85" cy="581.18" r="2.97"/><circle cx="445.58" cy="610.32" r="2.97"/><circle cx="448.3" cy="639.46" r="2.97"/><circle cx="451.03" cy="633.63" r="2.97"/><circle cx="453.75" cy="674.43" r="2.97"/><circle cx="456.48" cy="691.91" r="2.97"/><circle cx="459.21" cy="726.88" r="2.97"/><circle cx="461.93" cy="721.06" r="2.97"/><circle cx="464.66" cy="703.57" r="2.97"/><circle cx="467.38" cy="686.09" r="2.97"/><circle cx="470.11" cy="674.43" r="2.97"/><circle cx="472.83" cy="651.12" r="2.97"/><circle cx="475.56" cy="662.77" r="2.97"/><circle cx="478.28" cy="651.12" r="2.97"/><circle cx="481.01" cy="639.46" r="2.97"/><circle cx="483.73" cy="633.63" r="2.97"/><circle cx="486.46" cy="662.77" r="2.97"/><circle cx="489.19" cy="598.66" r="2.97"/><circle cx="491.91" cy="621.98" r="2.97"/><circle cx="494.64" cy="616.15" r="2.97"/><circle cx="497.36" cy="563.69" r="2.97"/><circle cx="500.09" cy="598.66" r="2.97"/><circle cx="502.81" cy="592.83" r="2.97"/><circle cx="505.54" cy="598.66" r="2.97"/><circle cx="508.26" cy="656.94" r="2.97"/><circle cx="510.99" cy="674.43" r="2.97"/><circle cx="513.71" cy="662.77" r="2.97" transform="translate(-183.81 1128.21) rotate(-85.93)"/><circle cx="516.44" cy="604.49" r="2.97"/><circle cx="519.17" cy="656.94" r="2.97"/><circle cx="521.89" cy="651.12" r="2.97"/><circle cx="524.62" cy="639.46" r="2.97"/><circle cx="527.34" cy="674.43" r="2.97"/><circle cx="530.07" cy="697.74" r="2.97"/><circle cx="532.79" cy="697.74" r="2.97"/><circle cx="535.52" cy="610.32" r="2.97"/><circle cx="538.24" cy="662.77" r="2.97"/><circle cx="540.97" cy="697.74" r="2.97"/><circle cx="543.69" cy="680.26" r="2.97"/><circle cx="546.42" cy="691.91" r="2.97"/><circle cx="549.14" cy="674.43" r="2.97"/><circle cx="551.87" cy="639.46" r="2.97"/><circle cx="554.6" cy="645.29" r="2.97"/><circle cx="557.32" cy="656.94" r="2.97"/><circle cx="560.05" cy="651.12" r="2.97"/><circle cx="562.77" cy="662.77" r="2.97"/><circle cx="565.5" cy="674.43" r="2.97"/><circle cx="568.22" cy="697.74" r="2.97"/><circle cx="570.95" cy="686.09" r="2.97"/><circle cx="573.67" cy="691.91" r="2.97"/><circle cx="576.4" cy="686.09" r="2.97"/><circle cx="579.12" cy="703.57" r="2.97"/><circle cx="581.85" cy="715.23" r="2.97"/><circle cx="584.58" cy="703.57" r="2.97"/><circle cx="587.3" cy="680.26" r="2.97" transform="translate(-95.34 1264.79) rotate(-89.77)"/><circle cx="590.03" cy="651.12" r="2.97"/><circle cx="592.75" cy="627.8" r="2.97"/><circle cx="595.48" cy="610.32" r="2.97"/><circle cx="598.2" cy="639.46" r="2.97" transform="translate(-2.64 2.48) rotate(-0.24)"/><circle cx="600.93" cy="639.46" r="2.97"/><circle cx="603.65" cy="651.12" r="2.97"/><circle cx="606.38" cy="674.43" r="2.97"/><circle cx="609.1" cy="686.09" r="2.97"/><circle cx="611.83" cy="668.6" r="2.97"/><circle cx="614.55" cy="627.8" r="2.97"/><circle cx="617.28" cy="610.32" r="2.97"/><circle cx="620.01" cy="639.46" r="2.97"/><circle cx="622.73" cy="645.29" r="2.97"/><circle cx="625.46" cy="686.09" r="2.97"/><circle cx="628.18" cy="686.09" r="2.97"/><circle cx="630.91" cy="668.6" r="2.97"/><circle cx="633.63" cy="645.29" r="2.97"/><circle cx="636.36" cy="668.6" r="2.97"/><circle cx="639.08" cy="668.6" r="2.97"/><circle cx="641.81" cy="645.29" r="2.97"/><circle cx="644.53" cy="616.15" r="2.97"/><circle cx="647.26" cy="680.26" r="2.97"/><circle cx="649.99" cy="668.6" r="2.97"/><circle cx="652.71" cy="645.29" r="2.97"/><circle cx="655.44" cy="645.29" r="2.97"/><circle cx="658.16" cy="610.32" r="2.97"/><circle cx="660.89" cy="639.46" r="2.97"/><circle cx="663.61" cy="674.43" r="2.97"/><circle cx="666.34" cy="627.8" r="2.97"/><circle cx="669.06" cy="621.98" r="2.97"/><circle cx="671.79" cy="627.8" r="2.97"/><circle cx="674.51" cy="587.01" r="2.97"/><circle cx="677.24" cy="581.18" r="2.97"/><circle cx="679.96" cy="604.49" r="2.97"/><circle cx="682.69" cy="639.46" r="2.97"/><circle cx="685.42" cy="645.29" r="2.97"/><circle cx="688.14" cy="621.98" r="2.97"/><circle cx="690.87" cy="616.15" r="2.97"/><circle cx="693.59" cy="651.12" r="2.97"/><circle cx="696.32" cy="633.63" r="2.97"/><circle cx="699.04" cy="627.8" r="2.97"/><circle cx="701.77" cy="662.77" r="2.97"/><circle cx="704.49" cy="674.43" r="2.97"/><circle cx="707.22" cy="674.43" r="2.97"/><circle cx="709.94" cy="680.26" r="2.97"/><circle cx="712.67" cy="709.4" r="2.97"/><circle cx="715.4" cy="686.09" r="2.97"/><circle cx="718.12" cy="662.77" r="2.97"/><circle cx="720.85" cy="680.26" r="2.97"/><circle cx="723.57" cy="639.46" r="2.97"/><circle cx="726.3" cy="604.49" r="2.97"/><circle cx="729.02" cy="639.46" r="2.97"/><circle cx="731.75" cy="627.8" r="2.97"/><circle cx="734.47" cy="633.63" r="2.97"/><circle cx="737.2" cy="633.63" r="2.97"/><circle cx="739.92" cy="651.12" r="2.97"/><circle cx="742.65" cy="738.54" r="2.97"/><circle cx="745.37" cy="709.4" r="2.97"/><circle cx="748.1" cy="668.6" r="2.97"/><circle cx="750.83" cy="668.6" r="2.97"/><circle cx="753.55" cy="645.29" r="2.97"/><circle cx="756.28" cy="639.46" r="2.97"/><circle cx="759" cy="703.57" r="2.97"/><circle cx="761.73" cy="680.26" r="2.97"/><circle cx="764.45" cy="697.74" r="2.97"/><circle cx="767.18" cy="680.26" r="2.97"/><circle cx="769.9" cy="674.43" r="2.97"/><circle cx="772.63" cy="656.94" r="2.97"/><circle cx="775.35" cy="656.94" r="2.97"/><circle cx="778.08" cy="662.77" r="2.97"/><circle cx="780.81" cy="656.94" r="2.97"/><circle cx="783.53" cy="662.77" r="2.97"/><circle cx="786.26" cy="627.8" r="2.97"/><circle cx="788.98" cy="627.8" r="2.97"/><circle cx="791.71" cy="627.8" r="2.97"/><circle cx="794.43" cy="627.8" r="2.97"/><circle cx="797.16" cy="627.8" r="2.97"/><circle cx="799.88" cy="627.8" r="2.97"/><circle cx="802.61" cy="587.01" r="2.97"/><circle cx="805.33" cy="645.29" r="2.97"/><circle cx="808.06" cy="645.29" r="2.97"/><circle cx="810.78" cy="627.8" r="2.97"/><circle cx="813.51" cy="616.15" r="2.97"/><circle cx="816.24" cy="616.15" r="2.97"/><circle cx="818.96" cy="662.77" r="2.97"/><circle cx="821.69" cy="616.15" r="2.97"/><circle cx="824.41" cy="645.29" r="2.97"/><circle cx="827.14" cy="656.94" r="2.97"/><circle cx="832.59" cy="610.32" r="2.97"/><circle cx="835.31" cy="621.98" r="2.97"/><circle cx="838.04" cy="656.94" r="2.97"/><circle cx="840.76" cy="656.94" r="2.97"/><circle cx="843.49" cy="656.94" r="2.97"/><circle cx="846.22" cy="674.43" r="2.97"/><circle cx="848.94" cy="639.46" r="2.97"/><circle cx="851.67" cy="633.63" r="2.97"/><circle cx="854.39" cy="616.15" r="2.97"/><circle cx="857.12" cy="621.98" r="2.97"/><circle cx="859.84" cy="627.8" r="2.97"/><circle cx="862.57" cy="592.83" r="2.97"/><circle cx="865.29" cy="499.58" r="2.97"/><circle cx="870.74" cy="493.75" r="2.97"/><circle cx="873.47" cy="528.72" r="2.97"/><circle cx="876.19" cy="528.72" r="2.97"/><circle cx="878.92" cy="528.72" r="2.97"/><circle cx="887.1" cy="517.07" r="2.97"/><circle cx="889.82" cy="476.27" r="2.97"/><circle cx="892.55" cy="493.75" r="2.97"/><circle cx="895.27" cy="575.35" r="2.97"/><circle cx="898" cy="668.6" r="2.97"/><circle cx="900.72" cy="645.29" r="2.97"/><circle cx="903.45" cy="639.46" r="2.97"/><circle cx="906.17" cy="563.69" r="2.97"/><circle cx="908.9" cy="557.86" r="2.97"/><circle cx="911.63" cy="639.46" r="2.97"/><circle cx="914.35" cy="651.12" r="2.97"/><circle cx="917.08" cy="616.15" r="2.97"/><circle cx="919.8" cy="709.4" r="2.97"/><circle cx="922.53" cy="656.94" r="2.97"/><circle cx="925.25" cy="598.66" r="2.97"/><circle cx="927.98" cy="592.83" r="2.97"/><circle cx="930.7" cy="645.29" r="2.97"/><circle cx="933.43" cy="581.18" r="2.97"/><circle cx="936.15" cy="598.66" r="2.97"/><circle cx="938.88" cy="645.29" r="2.97"/><circle cx="941.6" cy="581.18" r="2.97"/><circle cx="944.33" cy="662.77" r="2.97"/><circle cx="949.78" cy="569.52" r="2.97"/><circle cx="952.51" cy="517.07" r="2.97"/><circle cx="955.23" cy="476.27" r="2.97"/><circle cx="957.96" cy="592.83" r="2.97"/><circle cx="963.41" cy="487.92" r="2.97"/><circle cx="966.13" cy="592.83" r="2.97"/><circle cx="968.86" cy="639.46" r="2.97"/><circle cx="971.58" cy="645.29" r="2.97"/><circle cx="974.31" cy="645.29" r="2.97"/><circle cx="977.04" cy="703.57" r="2.97"/><circle cx="979.76" cy="627.8" r="2.97"/><circle cx="982.49" cy="592.83" r="2.97"/><circle cx="985.21" cy="552.04" r="2.97"/><circle cx="987.94" cy="651.12" r="2.97"/><circle cx="990.66" cy="674.43" r="2.97"/><circle cx="993.39" cy="668.6" r="2.97"/><circle cx="996.11" cy="592.83" r="2.97"/><circle cx="998.84" cy="616.15" r="2.97"/><circle cx="1001.56" cy="587.01" r="2.97"/><circle cx="1004.29" cy="517.07" r="2.97"/><circle cx="1017.92" cy="476.27" r="2.97"/><circle cx="1023.37" cy="592.83" r="2.97"/><circle cx="1026.09" cy="645.29" r="2.97"/><circle cx="1028.82" cy="651.12" r="2.97"/><circle cx="1031.54" cy="715.23" r="2.97"/><circle cx="1034.27" cy="686.09" r="2.97"/><circle cx="1036.99" cy="627.8" r="2.97"/><circle cx="1039.72" cy="511.24" r="2.97"/><circle cx="1042.45" cy="581.18" r="2.97"/><circle cx="1045.17" cy="581.18" r="2.97"/><circle cx="1047.9" cy="552.04" r="2.97"/><circle cx="1050.62" cy="563.69" r="2.97"/><circle cx="1053.35" cy="557.86" r="2.97"/><circle cx="1058.8" cy="522.89" r="2.97"/><circle cx="1061.52" cy="569.52" r="2.97"/><circle cx="1064.25" cy="522.89" r="2.97"/><circle cx="1066.97" cy="627.8" r="2.97"/><circle cx="1069.7" cy="656.94" r="2.97"/><circle cx="1072.42" cy="645.29" r="2.97"/><circle cx="1075.15" cy="627.8" r="2.97"/><circle cx="1080.6" cy="522.89" r="2.97"/><circle cx="1083.33" cy="499.58" r="2.97"/><circle class="cls-4" cx="222.09" cy="464.61" r="2.97"/><circle class="cls-4" cx="107.63" cy="447.13" r="2.97"/><circle class="cls-4" cx="110.35" cy="377.19" r="2.97"/><circle class="cls-4" cx="113.08" cy="377.19" r="2.97"/><circle class="cls-4" cx="137.61" cy="470.44" r="2.97"/><circle class="cls-4" cx="151.23" cy="470.44" r="2.97"/><circle class="cls-4" cx="162.14" cy="423.81" r="2.97"/><circle class="cls-4" cx="164.86" cy="248.96" r="2.97"/><circle class="cls-4" cx="167.59" cy="237.31" r="2.97"/><circle class="cls-4" cx="224.82" cy="295.59" r="2.97"/><circle class="cls-4" cx="868.02" cy="452.95" r="2.97"/><circle class="cls-4" cx="881.65" cy="452.95" r="2.97"/><circle class="cls-4" cx="884.37" cy="452.95" r="2.97"/><circle class="cls-4" cx="960.68" cy="470.44" r="2.97"/><circle class="cls-4" cx="1007.01" cy="429.64" r="2.97"/><circle class="cls-4" cx="1009.74" cy="400.5" r="2.97"/><circle class="cls-4" cx="1012.47" cy="348.04" r="2.97"/><circle class="cls-4" cx="1015.19" cy="435.47" r="2.97"/><circle class="cls-4" cx="1020.64" cy="464.61" r="2.97"/><circle class="cls-4" cx="1056.07" cy="458.78" r="2.97"/><circle class="cls-4" cx="1086.05" cy="464.61" r="2.97"/><circle cx="1088.78" cy="540.38" r="2.97"/><path d="M286.81,180.86c0,1.06.9,1.79,2.38,1.79s2.44-.64,2.44-1.73c0-2.53-6.33-.52-6.33-4.52,0-1.76,1.52-3,3.9-3s3.84,1.12,3.84,2.93h-1.65c0-1-.94-1.62-2.19-1.62s-2.21.54-2.21,1.56c0,2.52,6.36.48,6.36,4.56,0,1.89-1.51,3.17-4.16,3.17s-4.05-1.22-4.05-3.1Z"/><path d="M296.84,187.05h-1.61V176.52h1.55v1.08h.06a2.5,2.5,0,0,1,2.41-1.26c1.83,0,3.24,1.34,3.24,3.75S301,184,299.13,184a2.35,2.35,0,0,1-2.29-1.27h-.06c.06.95.06,1.95.06,2.44Zm2-9.42c-1.1,0-1.95.88-2,2.4v.12c0,1.59.86,2.51,2,2.51s2-1,2-2.57S300,177.63,298.83,177.63Z"/><path d="M307.34,176.34a3.21,3.21,0,0,1,3.39,3.54v.53h-5.34c.09,1.42.85,2.28,2,2.28a1.57,1.57,0,0,0,1.68-1.12h1.58a3.08,3.08,0,0,1-3.27,2.39c-2.32,0-3.65-1.42-3.65-3.8A3.55,3.55,0,0,1,307.34,176.34Zm-1.87,3h3.63c-.14-1.21-.75-1.74-1.76-1.74A1.92,1.92,0,0,0,305.47,179.33Z"/><path d="M313.73,184.67c0,.8.77,1.29,1.83,1.29,1.29,0,2.17-.65,2.17-2.56v-.71h-.06a2.51,2.51,0,0,1-2.41,1.27c-1.83,0-3.25-1.34-3.25-3.75s1.51-3.87,3.37-3.87a2.35,2.35,0,0,1,2.29,1.26h.06v-1.08h1.53v6.88c0,2.74-1.58,3.77-3.7,3.77-1.94,0-3.32-.83-3.35-2.5Zm1.93-2c1.15,0,2-.92,2-2.51V180c0-1.52-.87-2.4-2-2.4s-2,1-2,2.58S314.53,182.66,315.66,182.66Z"/><path d="M321.45,176.52H323v1h.06a2.31,2.31,0,0,1,2.24-1.23c1.45,0,2.72.77,2.72,3v4.41h-1.6v-4.2c0-1.44-.61-1.93-1.55-1.93s-1.81.87-1.81,2.33v3.8h-1.61Z"/><path d="M330,172.89h1.72v1.63H330Zm0,3.63h1.61v7.26h-1.61Z"/><path d="M333.89,176.52h1.55v1h.06a2.57,2.57,0,0,1,4.5.21,2.49,2.49,0,0,1,2.44-1.44c1.42,0,2.58.77,2.58,2.94v4.5h-1.61v-4.3c0-1.36-.48-1.83-1.4-1.83s-1.75.86-1.75,2.3v3.83h-1.61v-4.3c0-1.36-.52-1.83-1.4-1.83s-1.75.86-1.75,2.32v3.81h-1.61Z"/><path d="M350.17,176.34a3.21,3.21,0,0,1,3.39,3.54v.53h-5.34c.09,1.42.85,2.28,2,2.28a1.57,1.57,0,0,0,1.68-1.12h1.58a3.09,3.09,0,0,1-3.28,2.39c-2.32,0-3.64-1.42-3.64-3.8A3.54,3.54,0,0,1,350.17,176.34Zm-1.88,3h3.63c-.13-1.21-.74-1.74-1.75-1.74A1.93,1.93,0,0,0,348.29,179.33Z"/><path d="M355.18,176.52h1.55v1h.06a2.32,2.32,0,0,1,2.25-1.23c1.44,0,2.72.77,2.72,3v4.41h-1.61v-4.2c0-1.44-.61-1.93-1.55-1.93s-1.81.87-1.81,2.33v3.8h-1.61Z"/><path d="M364,177.77h-1.37v-1.25H364v-2.21h1.6v2.21h1.86v1.25h-1.86v3.6c0,.77.27,1.07,1,1.07h.84v1.34h-1.11c-1.67,0-2.35-.7-2.35-2.32Z"/><path d="M372.09,176.34a3.49,3.49,0,0,1,3.7,3.81,3.55,3.55,0,0,1-3.7,3.81,3.5,3.5,0,0,1-3.71-3.81A3.56,3.56,0,0,1,372.09,176.34Zm0,6.32c1.22,0,2-1,2-2.51s-.81-2.52-2-2.52-2,1-2,2.52S370.87,182.66,372.09,182.66Z"/><path d="M285.44,195.12H287v1h0a2,2,0,0,1,1.92-1.23,1.64,1.64,0,0,1,1,.3l-.42,1.42a2,2,0,0,0-.89-.23c-1.08,0-1.6,1-1.6,2.32v3.63h-1.61Z"/><path d="M291,191.49h1.72v1.63H291Zm.06,3.63h1.61v7.26h-1.61Z"/><path d="M295.84,200.29c0,.81.82,1.14,1.61,1.14,1.11,0,1.66-.39,1.66-1.06s-.37-.76-1.1-.88l-1.34-.24c-1.11-.18-2.18-.62-2.18-2s1.32-2.32,3-2.32,3,.68,3,2.2H299c0-.71-.64-1.07-1.5-1.07s-1.49.36-1.49,1,.35.74,1.21.89l1.34.22c1.14.2,2.14.64,2.14,2,0,1.59-1.34,2.38-3.27,2.38s-3.14-.75-3.14-2.27Z"/><path d="M305.51,194.94a3,3,0,0,1,3.3,2.66h-1.59a1.59,1.59,0,0,0-1.71-1.37c-1.13,0-1.95,1-1.95,2.52s.82,2.51,1.95,2.51a1.58,1.58,0,0,0,1.71-1.37h1.59a3,3,0,0,1-3.3,2.67c-2.23,0-3.61-1.43-3.61-3.81A3.51,3.51,0,0,1,305.51,194.94Z"/><path d="M312.49,198.3l1.41-.24c.72-.12.94-.21.94-.49a1.27,1.27,0,0,0-1.43-1.43,1.36,1.36,0,0,0-1.53,1.28h-1.53c.09-1.5,1.25-2.48,3.06-2.48,2,0,3,1,3,2.66v4.78h-1.53v-.91h-.08a2.59,2.59,0,0,1-2.32,1.09c-1.59,0-2.45-.82-2.45-2S310.78,198.58,312.49,198.3Zm2.35.43a1.19,1.19,0,0,1-.74.34l-1.25.21c-.85.14-1.18.51-1.18,1.07s.42,1,1.24,1a1.83,1.83,0,0,0,1.93-1.95Z"/><path d="M318.53,191.49h1.61v10.89h-1.61Z"/><path d="M325.18,194.94a2.36,2.36,0,0,1,2.29,1.26h.06c-.07-.95-.07-1.95-.07-2.44v-2.27h1.61v10.89h-1.54v-1.09h-.06a2.5,2.5,0,0,1-2.41,1.27c-1.83,0-3.24-1.34-3.24-3.75S323.32,194.94,325.18,194.94Zm.29,6.32c1.14,0,2-.92,2-2.51s-.85-2.52-2-2.52-2,1-2,2.58S324.33,201.26,325.47,201.26Z"/><path d="M333.26,198.3l1.42-.24c.71-.12.93-.21.93-.49a1.27,1.27,0,0,0-1.42-1.43,1.36,1.36,0,0,0-1.54,1.28h-1.53c.09-1.5,1.25-2.48,3.07-2.48,2,0,3,1,3,2.66v4.78h-1.53v-.91h-.08a2.59,2.59,0,0,1-2.32,1.09c-1.59,0-2.45-.82-2.45-2S331.55,198.58,333.26,198.3Zm2.35.43a1.17,1.17,0,0,1-.74.34l-1.25.21c-.85.14-1.17.51-1.17,1.07s.41,1,1.23,1a1.82,1.82,0,0,0,1.93-1.95Z"/><path d="M339.31,195.12h1.54v1h.06a2.58,2.58,0,0,1,4.51.21,2.49,2.49,0,0,1,2.44-1.44c1.41,0,2.57.77,2.57,2.94v4.5h-1.6v-4.3c0-1.36-.48-1.83-1.4-1.83s-1.76.86-1.76,2.3v3.83h-1.6v-4.3c0-1.36-.52-1.83-1.4-1.83s-1.76.86-1.76,2.32v3.81h-1.6Z"/><path d="M355.58,194.94a3.22,3.22,0,0,1,3.4,3.54V199h-5.35c.09,1.42.85,2.28,2,2.28a1.56,1.56,0,0,0,1.68-1.11h1.58a3.08,3.08,0,0,1-3.27,2.38c-2.32,0-3.65-1.42-3.65-3.8A3.55,3.55,0,0,1,355.58,194.94Zm-1.87,3h3.63c-.13-1.21-.74-1.74-1.76-1.74A1.92,1.92,0,0,0,353.71,197.93Z"/><path d="M360.6,195.12h1.55v1h.06a2.31,2.31,0,0,1,2.24-1.23c1.45,0,2.72.77,2.72,3v4.41h-1.6v-4.2c0-1.44-.61-1.93-1.55-1.93s-1.81.88-1.81,2.33v3.8H360.6Z"/><path d="M369.39,196.37H368v-1.25h1.37v-2.2H371v2.2h1.86v1.25H371V200c0,.77.27,1.07,1,1.07h.85v1.34h-1.12c-1.66,0-2.35-.7-2.35-2.32Z"/><path d="M374.25,191.49H376v1.63h-1.72Zm.05,3.63h1.61v7.26H374.3Z"/><path d="M890.13,173.54h2l3.81,10.24h-1.77l-.88-2.49h-4.38l-.87,2.49h-1.7Zm.94,1.67-1.67,4.68h3.38l-1.65-4.68Z"/><path d="M900.41,176.34a3,3,0,0,1,3.3,2.66h-1.59a1.59,1.59,0,0,0-1.71-1.37c-1.13,0-1.95,1-1.95,2.52s.82,2.51,1.95,2.51a1.58,1.58,0,0,0,1.71-1.37h1.59a3,3,0,0,1-3.3,2.67c-2.23,0-3.61-1.43-3.61-3.81A3.51,3.51,0,0,1,900.41,176.34Z"/><path d="M908.52,176.34a3,3,0,0,1,3.3,2.66h-1.59a1.59,1.59,0,0,0-1.71-1.37c-1.13,0-1.95,1-1.95,2.52s.82,2.51,1.95,2.51a1.58,1.58,0,0,0,1.71-1.37h1.59a3,3,0,0,1-3.3,2.67c-2.23,0-3.61-1.43-3.61-3.81A3.51,3.51,0,0,1,908.52,176.34Z"/><path d="M916.62,176.34a3.21,3.21,0,0,1,3.39,3.54v.53h-5.34c.09,1.42.84,2.28,2,2.28a1.58,1.58,0,0,0,1.69-1.12h1.57a3.08,3.08,0,0,1-3.27,2.39c-2.32,0-3.65-1.42-3.65-3.8A3.55,3.55,0,0,1,916.62,176.34Zm-1.88,3h3.63c-.13-1.21-.74-1.74-1.75-1.74A1.93,1.93,0,0,0,914.74,179.33Z"/><path d="M921.63,176.52h1.55v1h.06a2.31,2.31,0,0,1,2.24-1.23c1.45,0,2.73.77,2.73,3v4.41H926.6v-4.2c0-1.44-.61-1.93-1.55-1.93s-1.81.87-1.81,2.33v3.8h-1.61Z"/><path d="M931.27,181.69c0,.81.82,1.13,1.61,1.13,1.12,0,1.67-.38,1.67-1s-.38-.76-1.11-.88l-1.33-.24c-1.12-.18-2.19-.62-2.19-2s1.32-2.32,3-2.32,3,.68,3,2.2h-1.5c0-.71-.64-1.07-1.51-1.07s-1.48.36-1.48,1,.34.74,1.2.89l1.34.22c1.15.19,2.14.64,2.14,2,0,1.6-1.34,2.39-3.27,2.39s-3.14-.75-3.14-2.27Z"/><path d="M937.79,172.89h1.73v1.63h-1.73Zm.06,3.63h1.61v7.26h-1.61Z"/><path d="M944.84,176.34a3.49,3.49,0,0,1,3.71,3.81,3.55,3.55,0,0,1-3.71,3.81,3.5,3.5,0,0,1-3.7-3.81A3.56,3.56,0,0,1,944.84,176.34Zm0,6.32c1.22,0,2-1,2-2.51s-.82-2.52-2-2.52-2,1-2,2.52S943.62,182.66,944.84,182.66Z"/><path d="M950.23,176.52h1.55v1h.06a2.31,2.31,0,0,1,2.24-1.23c1.45,0,2.73.77,2.73,3v4.41H955.2v-4.2c0-1.44-.61-1.93-1.55-1.93s-1.81.87-1.81,2.33v3.8h-1.61Z"/><path d="M962,176.34a3.21,3.21,0,0,1,3.39,3.54v.53H960c.09,1.42.84,2.28,2,2.28a1.58,1.58,0,0,0,1.69-1.12h1.57A3.07,3.07,0,0,1,962,184c-2.32,0-3.64-1.42-3.64-3.8A3.54,3.54,0,0,1,962,176.34Zm-1.88,3h3.63c-.13-1.21-.74-1.74-1.75-1.74A1.93,1.93,0,0,0,960.08,179.33Z"/><path d="M887.26,195.12h1.54v1h.05a2,2,0,0,1,1.92-1.23,1.64,1.64,0,0,1,1,.3l-.42,1.42a2,2,0,0,0-.89-.23c-1.09,0-1.61,1-1.61,2.32v3.63h-1.6Z"/><path d="M892.81,191.49h1.72v1.63h-1.72Zm.06,3.63h1.6v7.26h-1.6Z"/><path d="M897.66,200.29c0,.81.82,1.14,1.6,1.14,1.12,0,1.67-.39,1.67-1.06s-.37-.76-1.1-.88l-1.34-.24c-1.11-.18-2.19-.62-2.19-2s1.33-2.32,3-2.32,3,.68,3,2.2h-1.5c0-.71-.64-1.07-1.5-1.07s-1.49.36-1.49,1,.34.74,1.21.89l1.34.22c1.14.2,2.14.64,2.14,2,0,1.59-1.34,2.38-3.28,2.38s-3.13-.75-3.13-2.27Z"/><path d="M907.33,194.94a3,3,0,0,1,3.3,2.66H909a1.59,1.59,0,0,0-1.71-1.37c-1.13,0-2,1-2,2.52s.82,2.51,2,2.51a1.58,1.58,0,0,0,1.71-1.37h1.59a3,3,0,0,1-3.3,2.67c-2.23,0-3.61-1.43-3.61-3.81A3.51,3.51,0,0,1,907.33,194.94Z"/><path d="M914.31,198.3l1.41-.24c.72-.12.94-.21.94-.49a1.27,1.27,0,0,0-1.43-1.43,1.35,1.35,0,0,0-1.53,1.28h-1.53c.09-1.5,1.25-2.48,3.06-2.48,2,0,3,1,3,2.66v4.78h-1.54v-.91h-.07a2.59,2.59,0,0,1-2.32,1.09c-1.59,0-2.46-.82-2.46-2S912.6,198.58,914.31,198.3Zm2.35.43a1.19,1.19,0,0,1-.74.34l-1.25.21c-.85.14-1.18.51-1.18,1.07s.42,1,1.24,1a1.83,1.83,0,0,0,1.93-1.95Z"/><path d="M920.35,191.49H922v10.89h-1.61Z"/><path d="M927,194.94a2.36,2.36,0,0,1,2.29,1.26h.06c-.07-.95-.07-1.95-.07-2.44v-2.27h1.61v10.89h-1.54v-1.09h-.06a2.5,2.5,0,0,1-2.41,1.27c-1.83,0-3.24-1.34-3.24-3.75S925.14,194.94,927,194.94Zm.28,6.32c1.15,0,2-.92,2-2.51s-.85-2.52-2-2.52-2,1-2,2.58S926.15,201.26,927.28,201.26Z"/><path d="M935.08,198.3l1.42-.24c.71-.12.93-.21.93-.49a1.27,1.27,0,0,0-1.43-1.43,1.36,1.36,0,0,0-1.53,1.28h-1.53c.09-1.5,1.25-2.48,3.06-2.48,2,0,3,1,3,2.66v4.78h-1.53v-.91h-.08a2.59,2.59,0,0,1-2.32,1.09c-1.59,0-2.45-.82-2.45-2S933.37,198.58,935.08,198.3Zm2.35.43a1.19,1.19,0,0,1-.74.34l-1.25.21c-.85.14-1.18.51-1.18,1.07s.42,1,1.24,1a1.82,1.82,0,0,0,1.93-1.95Z"/><path d="M941.12,195.12h1.55v1h.06a2.58,2.58,0,0,1,4.51.21,2.48,2.48,0,0,1,2.44-1.44c1.41,0,2.57.77,2.57,2.94v4.5h-1.6v-4.3c0-1.36-.48-1.83-1.4-1.83s-1.76.86-1.76,2.3v3.83h-1.61v-4.3c0-1.36-.52-1.83-1.39-1.83s-1.76.86-1.76,2.32v3.81h-1.61Z"/><path d="M957.4,194.94a3.21,3.21,0,0,1,3.39,3.54V199h-5.34c.09,1.42.85,2.28,2,2.28a1.57,1.57,0,0,0,1.68-1.11h1.58a3.08,3.08,0,0,1-3.27,2.38c-2.32,0-3.65-1.42-3.65-3.8A3.55,3.55,0,0,1,957.4,194.94Zm-1.87,3h3.63c-.14-1.21-.75-1.74-1.76-1.74A1.92,1.92,0,0,0,955.53,197.93Z"/><path d="M962.42,195.12H964v1H964a2.32,2.32,0,0,1,2.25-1.23c1.44,0,2.72.77,2.72,3v4.41h-1.6v-4.2c0-1.44-.61-1.93-1.55-1.93s-1.82.88-1.82,2.33v3.8h-1.6Z"/><path d="M971.21,196.37h-1.37v-1.25h1.37v-2.2h1.61v2.2h1.86v1.25h-1.86V200c0,.77.27,1.07,1,1.07h.85v1.34h-1.12c-1.66,0-2.35-.7-2.35-2.32Z"/><path d="M976.06,191.49h1.73v1.63h-1.73Zm.06,3.63h1.61v7.26h-1.61Z"/><path d="M43.29,136.56V138H41.65V124.8h1.64v5.28c0,1.94.74,2.61,2.08,2.61s2.38-1.27,2.38-3.2V124.8h1.64v9.08H47.83v-1.34h-.08A2.79,2.79,0,0,1,45,134.1a3.23,3.23,0,0,1-1.82-.52h-.11A20.42,20.42,0,0,1,43.29,136.56Z"/><path d="M53.33,135c0,1.12,1.05,1.79,2.46,1.79,1.6,0,2.9-.8,2.9-3.35v-1h-.07a3.19,3.19,0,0,1-3,1.64c-2.31,0-4-1.71-4-4.69s1.86-4.83,4.17-4.83a3,3,0,0,1,2.9,1.63h.07V124.8h1.56v8.63c0,3.44-2,4.69-4.46,4.69-2.27,0-4-1.08-4-3.13Zm2.61-2.3c1.49,0,2.68-1.19,2.68-3.35S57.43,126,55.94,126s-2.68,1.26-2.68,3.42S54.45,132.69,55.94,132.69Z"/><path d="M67.55,120.86H69L63.23,134.1H61.82Z"/><path d="M69.18,124.8h1.56v1.34h.08a2.86,2.86,0,0,1,2.75-1.56,2.79,2.79,0,0,1,2.83,1.84,3,3,0,0,1,3-1.84c1.71,0,3.12,1,3.12,3.64v5.66H80.94v-5.44c0-1.78-.6-2.45-1.86-2.45s-2.38,1.21-2.38,3.16v4.73H75.06v-5.44c0-1.78-.67-2.45-1.86-2.45s-2.38,1.21-2.38,3.18v4.71H69.18Z"/><path d="M85.27,125.43A1.46,1.46,0,0,0,86.88,127c.93,0,1.6-.5,1.6-1.38a1.45,1.45,0,0,0-1.6-1.38h-.57v-.82h.57a1.29,1.29,0,0,0,1.34-1.29,1.22,1.22,0,0,0-1.34-1.21,1.25,1.25,0,0,0-1.35,1.35h-.87a2.06,2.06,0,0,1,2.22-2.17,2,2,0,0,1,2.25,2,1.91,1.91,0,0,1-1.08,1.67v0a1.92,1.92,0,0,1,1.39,1.87c0,1.33-1.14,2.12-2.56,2.12a2.23,2.23,0,0,1-2.52-2.38Z"/></svg>