<?xml version="1.0" encoding="utf-8"?>
<!-- Generator: Adobe Illustrator 26.2.1, SVG Export Plug-In . SVG Version: 6.00 Build 0)  -->
<svg version="1.1" id="Livello_1" xmlns="http://www.w3.org/2000/svg" xmlns:xlink="http://www.w3.org/1999/xlink" x="0px" y="0px"
	 viewBox="0 0 999.1 1710.8" style="enable-background:new 0 0 999.1 1710.8;" xml:space="preserve">
<style type="text/css">
	.st0{fill:#EEEEEE;}
	.st1{fill:#B7B7B7;}
	.st2{fill:#EA4D27;}
	.st3{fill:#FF3A00;}
	.st4{opacity:0.2;}
</style>
<rect x="52.6" y="85.9" class="st0" width="934.1" height="382.3"/>
<rect x="52.6" y="1139.3" class="st0" width="934.1" height="277.9"/>
<path class="st1" d="M52.1,199.4c0-0.2,0.2-0.4,0.5-0.4h934.1c0.2,0,0.4,0.2,0.5,0.4c0,0.2-0.2,0.4-0.5,0.4H52.6
	C52.3,199.8,52.1,199.6,52.1,199.4z"/>
<path class="st1" d="M52.1,301.7c0-0.2,0.2-0.4,0.5-0.4h934.1c0.2-0.1,0.5,0.1,0.5,0.3c0,0.2-0.1,0.4-0.3,0.5l0,0H52.6
	C52.3,302.2,52.1,302,52.1,301.7z"/>
<path class="st1" d="M52.1,415.1c0-0.2,0.2-0.4,0.5-0.4h934.1c0.2,0,0.4,0.2,0.5,0.4c0,0.2-0.2,0.4-0.5,0.4H52.6
	C52.3,415.6,52.1,415.4,52.1,415.1L52.1,415.1z"/>
<path class="st1" d="M52.1,524.8c0-0.2,0.2-0.4,0.5-0.4h934.1c0.2,0,0.4,0.2,0.5,0.4c0,0.2-0.2,0.4-0.5,0.4H52.6
	C52.3,525.3,52.1,525.1,52.1,524.8z"/>
<path class="st1" d="M52.1,638.2c0-0.2,0.2-0.4,0.5-0.4h934.1c0.2,0,0.4,0.2,0.5,0.4c0,0.2-0.2,0.4-0.5,0.4H52.6
	C52.3,638.6,52.1,638.4,52.1,638.2z"/>
<path class="st1" d="M52.1,747.9c0-0.2,0.2-0.4,0.5-0.4l0,0h934.1c0.2,0,0.4,0.2,0.5,0.4c0,0.2-0.2,0.4-0.5,0.4H52.6
	C52.3,748.3,52.1,748.2,52.1,747.9z"/>
<path class="st1" d="M52.1,861.3c0-0.2,0.2-0.4,0.5-0.4h934.1c0.2,0,0.4,0.2,0.5,0.4c0,0.2-0.2,0.4-0.5,0.4H52.6
	C52.3,861.7,52.1,861.5,52.1,861.3z"/>
<path class="st1" d="M52.1,974.7c0-0.2,0.2-0.4,0.5-0.4h934.1c0.2,0,0.4,0.2,0.5,0.4c0,0.2-0.2,0.4-0.5,0.4H52.6
	C52.3,975.1,52.1,974.9,52.1,974.7z"/>
<path class="st1" d="M52.1,1084.4c0-0.2,0.2-0.4,0.5-0.4h934.1c0.2,0,0.4,0.2,0.5,0.4c0,0.2-0.2,0.4-0.5,0.4H52.6
	C52.3,1084.8,52.1,1084.6,52.1,1084.4z"/>
<path class="st1" d="M52.1,1197.7c0-0.2,0.2-0.4,0.5-0.4h934.1c0.2,0,0.4,0.2,0.5,0.4c0,0.2-0.2,0.4-0.5,0.4H52.6
	C52.3,1198.1,52.1,1198,52.1,1197.7z"/>
<path class="st1" d="M52.1,1307.4c0-0.2,0.2-0.4,0.5-0.4h934.1c0.2,0,0.5,0.1,0.5,0.3c0,0.2-0.1,0.4-0.4,0.5l0,0H52.6
	C52.3,1307.8,52.1,1307.7,52.1,1307.4z"/>
<path class="st1" d="M52.1,86c0-0.2,0.2-0.4,0.5-0.4l0,0h934.1c0.2,0,0.4,0.2,0.5,0.4l0,0c0,0.2-0.2,0.4-0.5,0.4H52.6
	C52.3,86.4,52.1,86.2,52.1,86z"/>
<path class="st1" d="M52.1,1417.2c0-0.2,0.2-0.4,0.5-0.4h934.1c0.2,0,0.4,0.2,0.5,0.4l0,0c0,0.2-0.2,0.4-0.4,0.4l0,0H52.6
	C52.3,1417.6,52.1,1417.4,52.1,1417.2z"/>
<ellipse cx="485.7" cy="86" rx="4.6" ry="4"/>
<ellipse cx="287.2" cy="89.7" rx="4.6" ry="4"/>
<ellipse cx="260.1" cy="93.3" rx="4.6" ry="4"/>
<ellipse cx="323.3" cy="97" rx="4.6" ry="4"/>
<ellipse cx="404.5" cy="111.6" rx="4.6" ry="4"/>
<ellipse cx="449.6" cy="115.3" rx="4.6" ry="4"/>
<ellipse cx="242.1" cy="118.9" rx="4.6" ry="4"/>
<ellipse cx="341.3" cy="122.6" rx="4.6" ry="4"/>
<ellipse cx="431.6" cy="126.2" rx="4.6" ry="4"/>
<ellipse cx="449.6" cy="129.9" rx="4.6" ry="4"/>
<ellipse cx="404.5" cy="133.6" rx="4.6" ry="4"/>
<ellipse cx="485.7" cy="137.2" rx="4.6" ry="4"/>
<ellipse cx="314.3" cy="144.5" rx="4.6" ry="4"/>
<ellipse cx="187.9" cy="148.2" rx="4.6" ry="4"/>
<ellipse cx="386.5" cy="151.8" rx="4.6" ry="4"/>
<ellipse cx="467.7" cy="155.5" rx="4.6" ry="4"/>
<ellipse cx="458.7" cy="162.8" rx="4.6" ry="4"/>
<ellipse cx="386.5" cy="166.5" rx="4.6" ry="4"/>
<ellipse cx="458.7" cy="170.1" rx="4.6" ry="4"/>
<ellipse cx="359.4" cy="184.7" rx="4.6" ry="4"/>
<ellipse cx="413.5" cy="188.4" rx="4.6" ry="4"/>
<ellipse cx="386.5" cy="192.1" rx="4.6" ry="4"/>
<ellipse cx="440.6" cy="195.7" rx="4.6" ry="4"/>
<ellipse cx="196.9" cy="199.4" rx="4.6" ry="4"/>
<ellipse cx="106.7" cy="203" rx="4.6" ry="4"/>
<ellipse cx="178.9" cy="210.3" rx="4.6" ry="4"/>
<ellipse cx="314.3" cy="214" rx="4.6" ry="4"/>
<ellipse cx="323.3" cy="217.7" rx="4.6" ry="4"/>
<ellipse cx="187.9" cy="221.3" rx="4.6" ry="4"/>
<ellipse cx="251.1" cy="225" rx="4.6" ry="4"/>
<ellipse cx="404.5" cy="228.6" rx="4.6" ry="4"/>
<ellipse cx="458.7" cy="232.3" rx="4.6" ry="4"/>
<ellipse cx="386.5" cy="235.9" rx="4.6" ry="4"/>
<ellipse cx="305.2" cy="239.6" rx="4.6" ry="4"/>
<ellipse cx="169.9" cy="243.3" rx="4.6" ry="4"/>
<ellipse cx="296.2" cy="246.9" rx="4.6" ry="4"/>
<ellipse cx="404.5" cy="250.6" rx="4.6" ry="4"/>
<ellipse cx="341.3" cy="261.5" rx="4.6" ry="4"/>
<ellipse cx="224" cy="265.2" rx="4.6" ry="4"/>
<ellipse cx="278.2" cy="268.9" rx="4.6" ry="4"/>
<ellipse cx="251.1" cy="272.5" rx="4.6" ry="4"/>
<ellipse cx="124.8" cy="276.2" rx="4.6" ry="4"/>
<ellipse cx="151.8" cy="279.8" rx="4.6" ry="4"/>
<ellipse cx="260.1" cy="283.5" rx="4.6" ry="4"/>
<ellipse cx="242.1" cy="287.1" rx="4.6" ry="4"/>
<ellipse cx="323.3" cy="290.8" rx="4.6" ry="4"/>
<ellipse cx="359.4" cy="294.5" rx="4.6" ry="4"/>
<ellipse cx="431.6" cy="298.1" rx="4.6" ry="4"/>
<ellipse cx="440.6" cy="301.8" rx="4.6" ry="4"/>
<ellipse cx="467.7" cy="305.4" rx="4.6" ry="4"/>
<ellipse cx="395.5" cy="309.1" rx="4.6" ry="4"/>
<ellipse cx="413.5" cy="312.7" rx="4.6" ry="4"/>
<ellipse cx="377.4" cy="316.4" rx="4.6" ry="4"/>
<ellipse cx="260.1" cy="320" rx="4.6" ry="4"/>
<ellipse cx="278.2" cy="323.7" rx="4.6" ry="4"/>
<ellipse cx="269.1" cy="327.4" rx="4.6" ry="4"/>
<ellipse cx="251.1" cy="331" rx="4.6" ry="4"/>
<ellipse cx="251.1" cy="334.7" rx="4.6" ry="4"/>
<ellipse cx="395.5" cy="338.3" rx="4.6" ry="4"/>
<ellipse cx="269.1" cy="342" rx="4.6" ry="4"/>
<ellipse cx="287.2" cy="345.7" rx="4.6" ry="4"/>
<ellipse cx="224" cy="353" rx="4.6" ry="4"/>
<ellipse cx="278.2" cy="356.6" rx="4.6" ry="4"/>
<ellipse cx="224" cy="360.3" rx="4.6" ry="4"/>
<ellipse cx="133.8" cy="363.9" rx="4.6" ry="4"/>
<ellipse cx="133.8" cy="367.6" rx="4.6" ry="4"/>
<ellipse cx="305.2" cy="371.3" rx="4.6" ry="4"/>
<ellipse cx="350.4" cy="374.9" rx="4.6" ry="4"/>
<ellipse cx="350.4" cy="378.6" rx="4.6" ry="4"/>
<ellipse cx="296.2" cy="382.2" rx="4.6" ry="4"/>
<ellipse cx="242.1" cy="385.9" rx="4.6" ry="4"/>
<ellipse cx="278.2" cy="389.5" rx="4.6" ry="4"/>
<ellipse cx="386.5" cy="393.2" rx="4.6" ry="4"/>
<ellipse cx="341.3" cy="396.9" rx="4.6" ry="4"/>
<ellipse cx="368.4" cy="400.5" rx="4.6" ry="4"/>
<ellipse cx="251.1" cy="404.2" rx="4.6" ry="4"/>
<ellipse cx="151.8" cy="407.8" rx="4.6" ry="4"/>
<ellipse cx="115.7" cy="411.5" rx="4.6" ry="4"/>
<ellipse cx="124.8" cy="415.1" rx="4.6" ry="4"/>
<ellipse cx="196.9" cy="418.8" rx="4.6" ry="4"/>
<ellipse cx="269.1" cy="422.5" rx="4.6" ry="4"/>
<ellipse cx="278.2" cy="426.1" rx="4.6" ry="4"/>
<ellipse cx="422.6" cy="429.8" rx="4.6" ry="4"/>
<ellipse cx="341.3" cy="433.4" rx="4.6" ry="4"/>
<ellipse cx="233" cy="437.1" rx="4.6" ry="4"/>
<ellipse cx="215" cy="440.7" rx="4.6" ry="4"/>
<ellipse cx="233" cy="444.4" rx="4.6" ry="4"/>
<ellipse cx="169.9" cy="448" rx="4.6" ry="4"/>
<ellipse cx="233" cy="451.7" rx="4.6" ry="4"/>
<ellipse cx="332.3" cy="455.4" rx="4.6" ry="4"/>
<ellipse cx="233" cy="459" rx="4.6" ry="4"/>
<ellipse cx="233" cy="462.7" rx="4.6" ry="4"/>
<ellipse cx="296.2" cy="466.3" rx="4.6" ry="4"/>
<ellipse cx="377.4" cy="470" rx="4.6" ry="4"/>
<ellipse cx="440.6" cy="473.6" rx="4.6" ry="4"/>
<ellipse cx="305.2" cy="477.3" rx="4.6" ry="4"/>
<ellipse cx="305.2" cy="481" rx="4.6" ry="4"/>
<ellipse cx="287.2" cy="484.6" rx="4.6" ry="4"/>
<ellipse cx="251.1" cy="488.3" rx="4.6" ry="4"/>
<ellipse cx="224" cy="491.9" rx="4.6" ry="4"/>
<ellipse cx="269.1" cy="495.6" rx="4.6" ry="4"/>
<ellipse cx="305.2" cy="499.2" rx="4.6" ry="4"/>
<ellipse cx="278.2" cy="502.9" rx="4.6" ry="4"/>
<ellipse cx="305.2" cy="506.6" rx="4.6" ry="4"/>
<ellipse cx="305.2" cy="510.2" rx="4.6" ry="4"/>
<ellipse cx="278.2" cy="513.9" rx="4.6" ry="4"/>
<ellipse cx="305.2" cy="517.5" rx="4.6" ry="4"/>
<ellipse cx="160.9" cy="521.2" rx="4.6" ry="4"/>
<ellipse cx="151.8" cy="524.8" rx="4.6" ry="4"/>
<ellipse cx="196.9" cy="528.5" rx="4.6" ry="4"/>
<ellipse cx="278.2" cy="532.2" rx="4.6" ry="4"/>
<ellipse cx="314.3" cy="535.8" rx="4.6" ry="4"/>
<ellipse cx="341.3" cy="539.5" rx="4.6" ry="4"/>
<ellipse cx="314.3" cy="543.1" rx="4.6" ry="4"/>
<ellipse cx="287.2" cy="546.8" rx="4.6" ry="4"/>
<ellipse cx="332.3" cy="550.4" rx="4.6" ry="4"/>
<ellipse cx="287.2" cy="554.1" rx="4.6" ry="4"/>
<ellipse cx="242.1" cy="557.8" rx="4.6" ry="4"/>
<ellipse cx="251.1" cy="561.4" rx="4.6" ry="4"/>
<ellipse cx="187.9" cy="565.1" rx="4.6" ry="4"/>
<ellipse cx="160.9" cy="568.7" rx="4.6" ry="4"/>
<ellipse cx="106.7" cy="572.4" rx="4.6" ry="4"/>
<ellipse cx="115.7" cy="576" rx="4.6" ry="4"/>
<ellipse cx="142.8" cy="579.7" rx="4.6" ry="4"/>
<ellipse cx="169.9" cy="583.4" rx="4.6" ry="4"/>
<ellipse cx="187.9" cy="587" rx="4.6" ry="4"/>
<ellipse cx="224" cy="590.7" rx="4.6" ry="4"/>
<ellipse cx="206" cy="594.3" rx="4.6" ry="4"/>
<ellipse cx="224" cy="598" rx="4.6" ry="4"/>
<ellipse cx="242.1" cy="601.6" rx="4.6" ry="4"/>
<ellipse cx="251.1" cy="605.3" rx="4.6" ry="4"/>
<ellipse cx="206" cy="609" rx="4.6" ry="4"/>
<ellipse cx="305.2" cy="612.6" rx="4.6" ry="4"/>
<ellipse cx="269.1" cy="616.3" rx="4.6" ry="4"/>
<ellipse cx="278.2" cy="619.9" rx="4.6" ry="4"/>
<ellipse cx="359.4" cy="623.6" rx="4.6" ry="4"/>
<ellipse cx="305.2" cy="627.2" rx="4.6" ry="4"/>
<ellipse cx="314.3" cy="630.9" rx="4.6" ry="4"/>
<ellipse cx="305.2" cy="634.6" rx="4.6" ry="4"/>
<ellipse cx="215" cy="638.2" rx="4.6" ry="4"/>
<ellipse cx="187.9" cy="641.9" rx="4.6" ry="4"/>
<ellipse cx="205.9" cy="645.6" rx="4.6" ry="4"/>
<ellipse cx="296.2" cy="649.2" rx="4.6" ry="4"/>
<ellipse cx="215" cy="652.8" rx="4.6" ry="4"/>
<ellipse cx="224" cy="656.5" rx="4.6" ry="4"/>
<ellipse cx="242.1" cy="660.2" rx="4.6" ry="4"/>
<ellipse cx="187.9" cy="663.8" rx="4.6" ry="4"/>
<ellipse cx="151.8" cy="667.5" rx="4.6" ry="4"/>
<ellipse cx="151.8" cy="671.1" rx="4.6" ry="4"/>
<ellipse cx="287.2" cy="674.8" rx="4.6" ry="4"/>
<ellipse cx="206" cy="678.4" rx="4.6" ry="4"/>
<ellipse cx="151.8" cy="682.1" rx="4.6" ry="4"/>
<ellipse cx="178.9" cy="685.8" rx="4.6" ry="4"/>
<ellipse cx="160.9" cy="689.4" rx="4.6" ry="4"/>
<ellipse cx="187.9" cy="693.1" rx="4.6" ry="4"/>
<ellipse cx="242.1" cy="696.7" rx="4.6" ry="4"/>
<ellipse cx="233" cy="700.4" rx="4.6" ry="4"/>
<ellipse cx="215" cy="704" rx="4.6" ry="4"/>
<ellipse cx="224" cy="707.7" rx="4.6" ry="4"/>
<ellipse cx="206" cy="711.3" rx="4.6" ry="4"/>
<ellipse cx="187.9" cy="715" rx="4.6" ry="4"/>
<ellipse cx="151.8" cy="718.7" rx="4.6" ry="4"/>
<ellipse cx="169.9" cy="722.3" rx="4.6" ry="4"/>
<ellipse cx="160.9" cy="726" rx="4.6" ry="4"/>
<ellipse cx="169.9" cy="729.6" rx="4.6" ry="4"/>
<ellipse cx="142.8" cy="733.3" rx="4.6" ry="4"/>
<ellipse cx="124.8" cy="737" rx="4.6" ry="4"/>
<ellipse cx="142.8" cy="740.6" rx="4.6" ry="4"/>
<ellipse cx="178.9" cy="744.2" rx="4.6" ry="4"/>
<ellipse cx="224" cy="747.9" rx="4.6" ry="4"/>
<ellipse cx="260.1" cy="751.6" rx="4.6" ry="4"/>
<ellipse cx="287.2" cy="755.2" rx="4.6" ry="4"/>
<ellipse cx="242.1" cy="758.9" rx="4.6" ry="4"/>
<ellipse cx="242.1" cy="762.5" rx="4.6" ry="4"/>
<ellipse cx="224" cy="766.2" rx="4.6" ry="4"/>
<ellipse cx="187.9" cy="769.9" rx="4.6" ry="4"/>
<ellipse cx="169.9" cy="773.5" rx="4.6" ry="4"/>
<ellipse cx="196.9" cy="777.2" rx="4.6" ry="4"/>
<ellipse cx="260.1" cy="780.8" rx="4.6" ry="4"/>
<ellipse cx="287.2" cy="784.5" rx="4.6" ry="4"/>
<ellipse cx="242.1" cy="788.2" rx="4.6" ry="4"/>
<ellipse cx="233" cy="791.8" rx="4.6" ry="4"/>
<ellipse cx="169.9" cy="795.5" rx="4.6" ry="4"/>
<ellipse cx="169.9" cy="799.1" rx="4.6" ry="4"/>
<ellipse cx="196.9" cy="802.8" rx="4.6" ry="4"/>
<ellipse cx="233" cy="806.4" rx="4.6" ry="4"/>
<ellipse cx="196.9" cy="810.1" rx="4.6" ry="4"/>
<ellipse cx="196.9" cy="813.7" rx="4.6" ry="4"/>
<ellipse cx="233" cy="817.4" rx="4.6" ry="4"/>
<ellipse cx="278.2" cy="821.1" rx="4.6" ry="4"/>
<ellipse cx="178.9" cy="824.7" rx="4.6" ry="4"/>
<ellipse cx="196.9" cy="828.4" rx="4.6" ry="4"/>
<ellipse cx="233" cy="832" rx="4.6" ry="4"/>
<ellipse cx="233" cy="835.7" rx="4.6" ry="4"/>
<ellipse cx="287.2" cy="839.3" rx="4.6" ry="4"/>
<ellipse cx="242.1" cy="843" rx="4.6" ry="4"/>
<ellipse cx="187.9" cy="846.7" rx="4.6" ry="4"/>
<ellipse cx="260.1" cy="850.3" rx="4.6" ry="4"/>
<ellipse cx="269.1" cy="854" rx="4.6" ry="4"/>
<ellipse cx="260.1" cy="857.6" rx="4.6" ry="4"/>
<ellipse cx="323.3" cy="861.3" rx="4.6" ry="4"/>
<ellipse cx="332.3" cy="865" rx="4.6" ry="4"/>
<ellipse cx="296.2" cy="868.6" rx="4.6" ry="4"/>
<ellipse cx="242.1" cy="872.3" rx="4.6" ry="4"/>
<ellipse cx="233" cy="875.9" rx="4.6" ry="4"/>
<ellipse cx="269.1" cy="879.6" rx="4.6" ry="4"/>
<ellipse cx="278.2" cy="883.2" rx="4.6" ry="4"/>
<ellipse cx="224" cy="886.9" rx="4.6" ry="4"/>
<ellipse cx="251.1" cy="890.5" rx="4.6" ry="4"/>
<ellipse cx="260.1" cy="894.2" rx="4.6" ry="4"/>
<ellipse cx="206" cy="897.9" rx="4.6" ry="4"/>
<ellipse cx="187.9" cy="901.5" rx="4.6" ry="4"/>
<ellipse cx="187.9" cy="905.2" rx="4.6" ry="4"/>
<ellipse cx="178.9" cy="908.8" rx="4.6" ry="4"/>
<ellipse cx="133.8" cy="912.5" rx="4.6" ry="4"/>
<ellipse cx="169.9" cy="916.2" rx="4.6" ry="4"/>
<ellipse cx="206" cy="919.8" rx="4.6" ry="4"/>
<ellipse cx="178.9" cy="923.5" rx="4.6" ry="4"/>
<ellipse cx="242.1" cy="927.1" rx="4.6" ry="4"/>
<ellipse cx="296.2" cy="930.8" rx="4.6" ry="4"/>
<ellipse cx="242.1" cy="934.4" rx="4.6" ry="4"/>
<ellipse cx="260.1" cy="938.1" rx="4.6" ry="4"/>
<ellipse cx="251.1" cy="941.7" rx="4.6" ry="4"/>
<ellipse cx="251.1" cy="945.4" rx="4.6" ry="4"/>
<ellipse cx="224" cy="949" rx="4.6" ry="4"/>
<ellipse cx="88.7" cy="952.7" rx="4.6" ry="4"/>
<ellipse cx="133.8" cy="956.4" rx="4.6" ry="4"/>
<ellipse cx="196.9" cy="960" rx="4.6" ry="4"/>
<ellipse cx="196.9" cy="963.7" rx="4.6" ry="4"/>
<ellipse cx="233" cy="967.3" rx="4.6" ry="4"/>
<ellipse cx="242.1" cy="971" rx="4.6" ry="4"/>
<ellipse cx="142.8" cy="974.7" rx="4.6" ry="4"/>
<ellipse cx="178.9" cy="978.3" rx="4.6" ry="4"/>
<ellipse cx="151.8" cy="982" rx="4.6" ry="4"/>
<ellipse cx="178.9" cy="985.6" rx="4.6" ry="4"/>
<ellipse cx="187.9" cy="989.3" rx="4.6" ry="4"/>
<ellipse cx="215" cy="992.9" rx="4.6" ry="4"/>
<ellipse cx="215" cy="996.6" rx="4.6" ry="4"/>
<ellipse cx="206" cy="1000.2" rx="4.6" ry="4"/>
<ellipse cx="215" cy="1003.9" rx="4.6" ry="4"/>
<ellipse cx="206" cy="1007.6" rx="4.6" ry="4"/>
<ellipse cx="260.1" cy="1011.2" rx="4.6" ry="4"/>
<ellipse cx="260.1" cy="1014.9" rx="4.6" ry="4"/>
<ellipse cx="260.1" cy="1018.5" rx="4.6" ry="4"/>
<path d="M260.1,1018.2c2.5,0,4.6,1.8,4.6,4s-2.1,4-4.6,4s-4.6-1.8-4.6-4S257.6,1018.2,260.1,1018.2z"/>
<ellipse cx="260.1" cy="1025.8" rx="4.6" ry="4"/>
<ellipse cx="260.1" cy="1029.5" rx="4.6" ry="4"/>
<ellipse cx="323.3" cy="1033.2" rx="4.6" ry="4"/>
<ellipse cx="233" cy="1036.8" rx="4.6" ry="4"/>
<ellipse cx="233" cy="1040.5" rx="4.6" ry="4"/>
<ellipse cx="260.1" cy="1044.1" rx="4.6" ry="4"/>
<ellipse cx="278.2" cy="1047.8" rx="4.6" ry="4"/>
<ellipse cx="278.2" cy="1051.5" rx="4.6" ry="4"/>
<ellipse cx="206" cy="1055.1" rx="4.6" ry="4"/>
<ellipse cx="278.2" cy="1058.8" rx="4.6" ry="4"/>
<ellipse cx="233" cy="1062.4" rx="4.6" ry="4"/>
<ellipse cx="215" cy="1066.1" rx="4.6" ry="4"/>
<ellipse cx="287.2" cy="1073.4" rx="4.6" ry="4"/>
<ellipse cx="269.1" cy="1077" rx="4.6" ry="4"/>
<ellipse cx="215" cy="1080.7" rx="4.6" ry="4"/>
<ellipse cx="215" cy="1084.4" rx="4.6" ry="4"/>
<ellipse cx="215" cy="1088" rx="4.6" ry="4"/>
<ellipse cx="187.9" cy="1091.7" rx="4.6" ry="4"/>
<ellipse cx="242.1" cy="1095.3" rx="4.6" ry="4"/>
<ellipse cx="251.1" cy="1099" rx="4.6" ry="4"/>
<ellipse cx="278.2" cy="1102.7" rx="4.6" ry="4"/>
<ellipse cx="269.1" cy="1106.3" rx="4.6" ry="4"/>
<ellipse cx="260.1" cy="1110" rx="4.6" ry="4"/>
<ellipse cx="314.3" cy="1113.6" rx="4.6" ry="4"/>
<ellipse cx="458.7" cy="1117.3" rx="4.6" ry="4"/>
<ellipse cx="467.7" cy="1124.6" rx="4.6" ry="4"/>
<ellipse cx="413.5" cy="1128.2" rx="4.6" ry="4"/>
<ellipse cx="413.5" cy="1131.9" rx="4.6" ry="4"/>
<ellipse cx="413.5" cy="1135.6" rx="4.6" ry="4"/>
<ellipse cx="431.6" cy="1146.5" rx="4.6" ry="4"/>
<ellipse cx="494.8" cy="1150.2" rx="4.6" ry="4"/>
<ellipse cx="467.7" cy="1153.8" rx="4.6" ry="4"/>
<ellipse cx="341.3" cy="1157.5" rx="4.6" ry="4"/>
<ellipse cx="196.9" cy="1161.2" rx="4.6" ry="4"/>
<ellipse cx="233" cy="1164.8" rx="4.6" ry="4"/>
<ellipse cx="242.1" cy="1168.5" rx="4.6" ry="4"/>
<ellipse cx="359.4" cy="1172.1" rx="4.6" ry="4"/>
<ellipse cx="368.4" cy="1175.8" rx="4.6" ry="4"/>
<ellipse cx="242.1" cy="1179.4" rx="4.6" ry="4"/>
<ellipse cx="224" cy="1183.1" rx="4.6" ry="4"/>
<ellipse cx="278.2" cy="1186.8" rx="4.6" ry="4"/>
<ellipse cx="133.8" cy="1190.4" rx="4.6" ry="4"/>
<ellipse cx="215" cy="1194.1" rx="4.6" ry="4"/>
<ellipse cx="305.2" cy="1197.7" rx="4.6" ry="4"/>
<ellipse cx="314.3" cy="1201.4" rx="4.6" ry="4"/>
<ellipse cx="233" cy="1205" rx="4.6" ry="4"/>
<ellipse cx="332.3" cy="1208.7" rx="4.6" ry="4"/>
<ellipse cx="305.2" cy="1212.3" rx="4.6" ry="4"/>
<ellipse cx="233" cy="1216" rx="4.6" ry="4"/>
<ellipse cx="332.3" cy="1219.7" rx="4.6" ry="4"/>
<ellipse cx="206" cy="1223.3" rx="4.6" ry="4"/>
<ellipse cx="350.4" cy="1230.6" rx="4.6" ry="4"/>
<ellipse cx="431.6" cy="1234.3" rx="4.6" ry="4"/>
<ellipse cx="494.8" cy="1237.9" rx="4.6" ry="4"/>
<ellipse cx="314.3" cy="1241.6" rx="4.6" ry="4"/>
<ellipse cx="476.7" cy="1248.9" rx="4.6" ry="4"/>
<ellipse cx="314.3" cy="1252.6" rx="4.6" ry="4"/>
<ellipse cx="242.1" cy="1256.2" rx="4.6" ry="4"/>
<ellipse cx="233" cy="1259.9" rx="4.6" ry="4"/>
<ellipse cx="233" cy="1263.6" rx="4.6" ry="4"/>
<ellipse cx="142.8" cy="1267.2" rx="4.6" ry="4"/>
<ellipse cx="260.1" cy="1270.9" rx="4.6" ry="4"/>
<ellipse cx="314.3" cy="1274.5" rx="4.6" ry="4"/>
<ellipse cx="377.4" cy="1278.2" rx="4.6" ry="4"/>
<ellipse cx="224" cy="1281.8" rx="4.6" ry="4"/>
<ellipse cx="187.9" cy="1285.5" rx="4.6" ry="4"/>
<ellipse cx="196.9" cy="1289.2" rx="4.6" ry="4"/>
<ellipse cx="314.3" cy="1292.8" rx="4.6" ry="4"/>
<ellipse cx="278.2" cy="1296.5" rx="4.6" ry="4"/>
<ellipse cx="323.3" cy="1300.1" rx="4.6" ry="4"/>
<ellipse cx="431.6" cy="1303.8" rx="4.6" ry="4"/>
<ellipse cx="494.8" cy="1322.1" rx="4.6" ry="4"/>
<ellipse cx="314.3" cy="1329.4" rx="4.6" ry="4"/>
<ellipse cx="233" cy="1333" rx="4.6" ry="4"/>
<ellipse cx="224" cy="1336.7" rx="4.6" ry="4"/>
<ellipse cx="124.8" cy="1340.3" rx="4.6" ry="4"/>
<ellipse cx="169.9" cy="1344" rx="4.6" ry="4"/>
<ellipse cx="260.1" cy="1347.7" rx="4.6" ry="4"/>
<ellipse cx="440.6" cy="1351.3" rx="4.6" ry="4"/>
<ellipse cx="332.3" cy="1355" rx="4.6" ry="4"/>
<ellipse cx="332.3" cy="1358.6" rx="4.6" ry="4"/>
<ellipse cx="377.4" cy="1362.3" rx="4.6" ry="4"/>
<ellipse cx="359.4" cy="1365.9" rx="4.6" ry="4"/>
<ellipse cx="368.4" cy="1369.6" rx="4.6" ry="4"/>
<ellipse cx="422.6" cy="1376.9" rx="4.6" ry="4"/>
<ellipse cx="350.4" cy="1380.6" rx="4.6" ry="4"/>
<ellipse cx="422.6" cy="1384.2" rx="4.6" ry="4"/>
<ellipse cx="260.1" cy="1387.9" rx="4.6" ry="4"/>
<ellipse cx="215" cy="1391.6" rx="4.6" ry="4"/>
<ellipse cx="233" cy="1395.2" rx="4.6" ry="4"/>
<ellipse cx="260.1" cy="1398.9" rx="4.6" ry="4"/>
<ellipse cx="422.6" cy="1406.2" rx="4.6" ry="4"/>
<ellipse cx="458.7" cy="1409.8" rx="4.6" ry="4"/>
<ellipse class="st2" cx="512.8" cy="254.2" rx="4.6" ry="4"/>
<ellipse class="st2" cx="539.9" cy="100.6" rx="4.6" ry="4"/>
<ellipse class="st2" cx="648.2" cy="104.3" rx="4.6" ry="4"/>
<ellipse class="st2" cx="648.2" cy="108" rx="4.6" ry="4"/>
<ellipse class="st2" cx="503.8" cy="140.9" rx="4.6" ry="4"/>
<ellipse class="st2" cx="503.8" cy="159.1" rx="4.6" ry="4"/>
<ellipse class="st2" cx="576" cy="173.8" rx="4.6" ry="4"/>
<ellipse class="st2" cx="846.7" cy="177.4" rx="4.6" ry="4"/>
<ellipse class="st2" cx="864.8" cy="181.1" rx="4.6" ry="4"/>
<ellipse class="st2" cx="774.5" cy="257.9" rx="4.6" ry="4"/>
<ellipse class="st2" cx="530.9" cy="1120.9" rx="4.6" ry="4"/>
<ellipse class="st2" cx="530.9" cy="1139.2" rx="4.6" ry="4"/>
<ellipse class="st2" cx="530.9" cy="1142.9" rx="4.6" ry="4"/>
<ellipse class="st2" cx="503.8" cy="1245.3" rx="4.6" ry="4"/>
<ellipse class="st2" cx="567" cy="1307.4" rx="4.6" ry="4"/>
<ellipse class="st2" cx="612.1" cy="1311.1" rx="4.6" ry="4"/>
<ellipse class="st2" cx="693.3" cy="1314.8" rx="4.6" ry="4"/>
<ellipse class="st2" cx="557.9" cy="1318.4" rx="4.6" ry="4"/>
<ellipse class="st2" cx="512.8" cy="1325.7" rx="4.6" ry="4"/>
<ellipse class="st2" cx="521.8" cy="1373.3" rx="4.6" ry="4"/>
<ellipse class="st2" cx="512.8" cy="1413.5" rx="4.6" ry="4"/>
<ellipse cx="395.5" cy="1417.2" rx="4.6" ry="4"/>
<g id="Livello_2_00000017488345285110349450000005807498146717167509_">
	<g>
		<path d="M18.5,231.6v12h-2.1V234H9.8v7.6h-2V234H0.4v-2.5L18.5,231.6z"/>
		<path d="M18.5,246.7V259h-2.1v-9.8h-5.7v7.8h-2v-7.8H2.6v10H0.5v-12.5L18.5,246.7L18.5,246.7z"/>
		<path d="M18.5,262.7v7.5c0,3.9-1.8,5.8-4.8,5.8c-1.8,0-3.3-1.1-3.7-2.9H9.8c-0.2,2.1-2,3.7-4.1,3.6c-3.1,0-5.4-2.1-5.4-5.9v-8
			h18.2V262.7z M16.4,265.2h-5.6v5c0,2.2,1.3,3.4,3,3.4s2.6-0.9,2.6-3.4V265.2z M8.8,265.2H2.6v5.6c0,2.5,1.3,3.6,3.2,3.6
			c1.7,0,3-1.2,3-3.6V265.2z"/>
	</g>
	<g>
		<path d="M3.1,132.8L3.1,132.8c-2-1.3-3.2-3.6-3-5.9c0-5.2,4-8.8,9.4-8.8s9.5,3.6,9.5,8.9c0,4.3-2.5,7.1-5.7,7.9v-2.6
			c1.8-0.5,3.5-2.3,3.5-5.4c0-3.9-3.1-6.5-7.1-6.5s-7.1,2.6-7.1,6.3c0,3,1.8,5.8,5,5.8h0.5V127h2.1v7.9H0.6v-1.6L3.1,132.8z"/>
		<path d="M18.5,139.1v12.3h-2.1v-9.8h-5.7v7.8h-2v-7.8H2.6v10H0.5v-12.4L18.5,139.1z"/>
		<path d="M18.5,155.3v2.3l-14,10v0.1l14-0.1v2.4H0.4v-2.3l14-10v-0.1l-14,0.1v-2.4H18.5z"/>
	</g>
	<g>
		<path d="M18.5,338.4v3L3.6,348l0,0l14.9,6.6v3H0.4v-2.5l14.3,0.3v-0.1L0.4,349v-2l14-6.3v-0.1l-14,0.3v-2.5H18.5z"/>
		<path d="M18.5,366.9v2.9l-18.1,6.7v-2.6l4.8-1.7v-8l-4.8-1.7V360L18.5,366.9z M16,368.2l-8.8-3.1v6.5L16,368.2z"/>
		<path d="M18.5,379.1v6.9c0,4.1-1.9,6.3-5.4,6.3c-2.5,0.1-4.8-1.5-5.4-4l-7.4,4.6v-2.6l7.1-4.5v-4.3H0.3V379L18.5,379.1z
			 M16.4,381.5H9.6v4.5c0,2.6,1.6,3.8,3.6,3.8s3.2-1.4,3.2-3.8C16.4,386,16.4,381.5,16.4,381.5z"/>
	</g>
	<g>
		<path d="M18.5,461.3v2.8l-18.1,6.7v-2.6l4.8-1.7v-8l-4.8-1.7v-2.5L18.5,461.3z M16,462.7l-8.8-3.1v6.5L16,462.7z"/>
		<path d="M18.5,473.6v6.9c0,4.1-2.5,6.5-5.8,6.5s-5.9-2.3-5.9-6.5V476H0.4v-2.5L18.5,473.6z M16.4,476H8.8v4.5
			c-0.1,2,1.4,3.8,3.4,3.9c0.2,0,0.3,0,0.5,0c2,0.1,3.6-1.4,3.7-3.4c0-0.2,0-0.3,0-0.5C16.4,480.5,16.4,476,16.4,476z"/>
		<path d="M18.5,490.4v6.9c0,4.1-1.9,6.3-5.4,6.3c-2.5,0.1-4.8-1.5-5.4-4l-7.4,4.6v-2.6l7.1-4.5v-4.3H0.3v-2.5L18.5,490.4z
			 M16.4,492.7H9.6v4.5c0,2.6,1.6,3.8,3.6,3.8s3.2-1.4,3.2-3.8C16.4,497.2,16.4,492.7,16.4,492.7z"/>
	</g>
	<g>
		<path d="M18.5,565.7v3l-14.9,6.7l0,0l14.9,6.6v3H0.4v-2.5l14.3,0.3v-0.1l-14.3-6.3v-1.9l14-6.3v-0.1l-14,0.2v-2.5h18.1V565.7z"/>
		<path d="M18.5,594.3v2.8l-18.1,6.7v-2.6l4.8-1.7v-8l-4.8-1.7v-2.3L18.5,594.3z M16,595.6l-8.8-3.1v6.5L16,595.6z"/>
		<path d="M3.1,619.8L3.1,619.8c-2-1.3-3.2-3.6-3-6c0-5.2,4-8.8,9.4-8.8s9.5,3.7,9.5,9c0,4.3-2.5,7.1-5.7,7.9v-2.6
			c1.8-0.5,3.5-2.3,3.5-5.4c0-3.9-3.1-6.5-7.1-6.5s-7.1,2.6-7.1,6.3c0,3,1.8,5.8,5,5.8h0.5v-5.7h2.1v7.9H0.6v-1.5L3.1,619.8z"/>
	</g>
	<g>
		<path d="M3.1,698.1L3.1,698.1c-2-1.3-3.2-3.6-3-6c0-5.2,4-8.8,9.4-8.8s9.5,3.7,9.5,9c0,4.3-2.5,7.1-5.7,7.9v-2.6
			c1.8-0.5,3.5-2.3,3.5-5.4c0-3.9-3.1-6.5-7.1-6.5s-7.1,2.6-7.1,6.3c0,3,1.8,5.8,5,5.8h0.5v-5.7h2.1v7.8H0.6v-1.5L3.1,698.1z"/>
		<path d="M18.5,704.4v2.5H0.4v-2.5H18.5z"/>
		<path d="M18.5,711.2v2.5h-11c-3.4,0-5.3,1.5-5.3,4.8s1.9,4.8,5.3,4.8h11v2.5h-11c-5.4,0-7.5-3-7.5-7.2s2.1-7.2,7.5-7.2L18.5,711.2
			z"/>
	</g>
	<g>
		<path d="M18.5,787.2v2.5h-16v8.8H0.4v-11.2L18.5,787.2L18.5,787.2z"/>
		<path d="M18.5,800.6v2.5h-11c-3.4,0-5.3,1.5-5.3,4.8s1.9,4.8,5.3,4.8h11v2.5h-11c-5.4,0-7.5-3-7.5-7.2s2.1-7.2,7.5-7.2L18.5,800.6
			z"/>
		<path d="M3.1,833.3L3.1,833.3c-2-1.3-3.2-3.6-3-6c0-5.2,4-8.8,9.4-8.8s9.5,3.6,9.5,8.9c0,4.3-2.5,7.1-5.7,7.9v-2.6
			c1.8-0.5,3.5-2.3,3.5-5.4c0-3.9-3.1-6.5-7.1-6.5s-7.1,2.6-7.1,6.3c0,3,1.8,5.8,5,5.8h0.5v-5.7h2.1v7.9H0.6v-1.5L3.1,833.3z"/>
	</g>
	<g>
		<path d="M18.5,903.8v2.8l-18.1,6.7v-2.6l4.8-1.7v-8l-4.8-1.7v-2.5L18.5,903.8z M16,905l-8.8-3v6.5L16,905z"/>
		<path d="M3.1,929.1L3.1,929.1c-2-1.3-3.2-3.6-3-5.9c0-5.2,4-8.8,9.4-8.8s9.5,3.6,9.5,8.9c0,4.3-2.5,7.1-5.7,7.9v-2.6
			c1.8-0.5,3.5-2.3,3.5-5.4c0-3.9-3.1-6.5-7.1-6.5s-7.1,2.6-7.1,6.3c0,3,1.8,5.8,5,5.8h0.5v-5.7h2.1v7.8H0.6v-1.5L3.1,929.1z"/>
		<path d="M18.9,943.2c0,5.2-4,8.8-9.4,8.8S0,948.3,0,943.2s4-8.8,9.4-8.8S18.9,937.9,18.9,943.2z M2.3,943.2c0,3.9,3.1,6.3,7.1,6.3
			s7.1-2.5,7.1-6.3s-3.1-6.3-7.1-6.3S2.3,939.3,2.3,943.2z"/>
	</g>
	<g>
		<path d="M5.6,1016.1c-1.9,0-3.5,1.7-3.5,4.5s1.3,4.6,3.4,4.6c4.8,0,1.2-11.4,8.1-11.4c3.1,0,5.3,2.7,5.3,6.7c0,4-1.9,6.6-5.2,6.6
			v-2.5c1.9,0,3.1-1.8,3.1-4.3s-1-4.3-3.1-4.3c-4.8,0-1,11.4-8.3,11.4c-3.2,0-5.4-2.6-5.4-7.1s2.2-7,5.4-7v2.6L5.6,1016.1z"/>
		<path d="M18.5,1031.6v12.3h-2.1v-9.8h-5.7v7.8h-2v-7.8H2.6v10H0.5v-12.5H18.5z"/>
		<path d="M18.5,1045.6v15.1h-2.1v-6.3h-16v-2.4h16v-6.3L18.5,1045.6z"/>
	</g>
	<g>
		<path d="M18.9,1131c0,5.2-4,8.8-9.4,8.8S0,1136.2,0,1131s4-8.8,9.4-8.8S18.9,1125.7,18.9,1131z M2.3,1131c0,3.9,3.1,6.3,7.1,6.3
			s7.1-2.5,7.1-6.3s-3.1-6.3-7.1-6.3S2.3,1127.1,2.3,1131z"/>
		<path d="M18.5,1140.3v15.1h-2.1v-6.3h-16v-2.5h16v-6.3L18.5,1140.3z"/>
		<path d="M18.5,1155.7v15.1h-2.1v-6.3h-16v-2.5h16v-6.3L18.5,1155.7z"/>
	</g>
	<g>
		<path d="M18.5,1232.4v2.3l-14,10v0.1l14-0.1v2.5H0.4v-2.3l14-10v-0.1l-14,0.1v-2.5H18.5z"/>
		<path d="M18.9,1259.5c0,5.2-4,8.8-9.4,8.8s-9.4-3.6-9.4-8.8s4-8.8,9.4-8.8S18.9,1254.2,18.9,1259.5z M2.3,1259.5
			c0,3.9,3.1,6.3,7.1,6.3s7.1-2.5,7.1-6.3s-3.1-6.3-7.1-6.3S2.3,1255.6,2.3,1259.5z"/>
		<path d="M18.5,1269.2v2.6l-15.6,5.4v0.1l15.6,5.4v2.4l-18.1-6.6v-2.7L18.5,1269.2z"/>
	</g>
	<g>
		<path d="M18.5,1346.8v5.6c0,6.2-3.8,9.4-9,9.4s-9-3.2-9-9.4v-5.6H18.5z M16.4,1349.2H2.5v3.1c0,5,3.2,7,7,7s7-1.8,7-7L16.4,1349.2
			L16.4,1349.2z"/>
		<path d="M18.5,1365.4v2.5H0.4v-2.5H18.5z"/>
		<path d="M18.9,1380c0,4.3-2.5,7-5.9,7.8v-2.4c2.4-0.7,3.7-2.5,3.7-5.2c0-3.8-3-6.2-7.1-6.2s-7.1,2.5-7.1,6.1c0,3,1.3,4.7,3.7,5.3
			v2.4c-3.6-0.8-5.9-3.6-5.9-7.8c0-5,3.9-8.7,9.4-8.7C14.9,1371.2,18.9,1374.8,18.9,1380z"/>
	</g>
	<path d="M790.3,410.8c-0.1-0.8-0.5-1.4-1.1-1.8c-0.7-0.5-1.6-0.7-2.5-0.7c-0.6,0-1.3,0.1-1.8,0.3c-0.5,0.2-0.9,0.5-1.2,1
		c-0.3,0.4-0.4,0.9-0.4,1.4c0,0.4,0.1,0.8,0.3,1.1c0.2,0.3,0.5,0.6,0.8,0.8c0.3,0.2,0.7,0.4,1,0.5s0.7,0.2,1,0.3l1.6,0.4
		c0.4,0.1,0.9,0.3,1.4,0.5s1,0.5,1.5,0.8s0.9,0.8,1.2,1.3c0.3,0.6,0.5,1.2,0.5,1.9c0,0.8-0.2,1.6-0.7,2.3c-0.5,0.7-1.2,1.3-2,1.7
		c-2,0.8-4.1,0.8-6.1,0.1c-0.8-0.3-1.5-0.9-2-1.5c-0.5-0.7-0.8-1.5-0.8-2.3h2c0,0.6,0.2,1.1,0.6,1.5c0.4,0.4,0.8,0.7,1.4,0.9
		c0.6,0.2,1.2,0.3,1.8,0.3c0.7,0,1.4-0.1,2-0.4c0.5-0.2,1-0.5,1.4-1c0.3-0.4,0.5-1,0.5-1.5s-0.1-0.9-0.5-1.3
		c-0.3-0.4-0.7-0.6-1.2-0.8c-0.5-0.2-1-0.4-1.6-0.5l-2-0.6c-1.1-0.3-2.1-0.8-3-1.5c-0.7-0.7-1.1-1.6-1.1-2.6c0-0.8,0.2-1.7,0.7-2.4
		c0.5-0.7,1.2-1.2,2-1.6c1.8-0.7,3.8-0.7,5.5,0c0.8,0.3,1.4,0.9,1.9,1.5s0.7,1.4,0.7,2.2L790.3,410.8z"/>
	<path d="M795.3,427.3v-16.5h1.8v1.9h0.2c0.2-0.3,0.4-0.5,0.6-0.8c0.3-0.4,0.6-0.7,1-0.9c0.6-0.3,1.2-0.4,1.9-0.4
		c0.9,0,1.9,0.2,2.7,0.8c0.8,0.5,1.4,1.3,1.8,2.1c0.9,2.1,0.9,4.5,0,6.6c-0.4,0.9-1,1.6-1.8,2.2c-0.8,0.5-1.7,0.8-2.7,0.8
		c-0.6,0-1.3-0.1-1.8-0.4c-0.4-0.2-0.8-0.5-1.1-0.9c-0.2-0.3-0.5-0.6-0.6-0.8h-0.2v6.3L795.3,427.3z M797.1,416.8
		c0,0.8,0.1,1.6,0.4,2.4c0.2,0.6,0.6,1.2,1.2,1.6c1.1,0.8,2.7,0.8,3.8,0c0.5-0.4,0.9-1,1.2-1.7c0.5-1.5,0.5-3.1,0-4.6
		c-0.2-0.6-0.6-1.2-1.2-1.6c-1.2-0.8-2.7-0.8-3.8,0c-0.5,0.4-0.9,0.9-1.2,1.6C797.2,415.2,797.1,416,797.1,416.8z"/>
	<path d="M813.8,423c-1.1,0-2.1-0.2-3-0.8c-0.8-0.5-1.5-1.3-1.9-2.2c-0.5-1-0.7-2.1-0.7-3.2s0.2-2.2,0.7-3.2
		c0.4-0.9,1.1-1.7,1.9-2.2c0.8-0.5,1.8-0.8,2.8-0.8c0.6,0,1.3,0.1,1.8,0.3c0.6,0.2,1.2,0.6,1.7,1c0.5,0.5,0.9,1.1,1.2,1.9
		c0.3,0.9,0.5,1.9,0.5,2.8v0.8h-9.2v-1.6h7.4c0-0.6-0.1-1.2-0.4-1.8c-0.3-0.5-0.7-1-1.1-1.3c-0.5-0.3-1.1-0.5-1.7-0.5
		c-0.7,0-1.3,0.2-1.9,0.5c-0.5,0.4-1,0.8-1.2,1.4c-0.3,0.6-0.4,1.2-0.4,1.9v1.1c0,0.8,0.1,1.6,0.5,2.3c0.3,0.6,0.7,1.1,1.3,1.4
		s1.3,0.5,2,0.5c0.4,0,0.9-0.1,1.3-0.2c0.4-0.1,0.7-0.3,1-0.6c0.3-0.3,0.5-0.6,0.7-1l1.8,0.5c-0.2,0.6-0.5,1.1-1,1.6s-1,0.8-1.6,1.1
		C815.3,423,814.5,423.1,813.8,423z"/>
	<path d="M826.4,427.5c-0.8,0-1.6-0.1-2.3-0.3c-0.6-0.2-1.1-0.5-1.6-0.9c-0.4-0.3-0.7-0.7-1-1.2l1.5-1c0.2,0.2,0.4,0.5,0.6,0.8
		c0.3,0.3,0.6,0.6,1,0.7c0.6,0.2,1.2,0.3,1.8,0.3c0.9,0,1.7-0.2,2.4-0.7s1.1-1.3,1-2.2v-2.4h-0.2c-0.1,0.2-0.3,0.5-0.6,0.8
		c-0.3,0.4-0.7,0.6-1.1,0.9c-0.6,0.3-1.2,0.4-1.9,0.4c-0.9,0-1.8-0.2-2.6-0.7s-1.4-1.2-1.8-2c-0.5-1-0.7-2.1-0.7-3.2
		s0.2-2.2,0.6-3.2c0.4-0.9,1-1.6,1.8-2.1s1.7-0.8,2.7-0.8c0.6-0.1,1.3,0.1,1.9,0.3c0.4,0.2,0.8,0.5,1.1,0.9c0.2,0.3,0.4,0.6,0.6,0.8
		h0.2v-1.9h1.8v12.3c0,0.9-0.2,1.8-0.7,2.5s-1.1,1.2-1.9,1.4C828.2,427.4,827.3,427.6,826.4,427.5z M826.3,421
		c0.7,0,1.3-0.2,1.9-0.5c0.5-0.4,0.9-0.9,1.2-1.5c0.3-0.7,0.4-1.5,0.4-2.3s-0.1-1.6-0.4-2.3c-0.2-0.6-0.6-1.2-1.2-1.6
		c-1.2-0.8-2.7-0.8-3.8,0c-0.5,0.4-0.9,1-1.2,1.6c-0.3,0.7-0.4,1.5-0.4,2.2c0,0.8,0.1,1.5,0.4,2.2c0.2,0.6,0.6,1.1,1.2,1.5
		C825,420.8,825.6,421,826.3,421L826.3,421z"/>
	<path d="M836.8,415.6v7.2H835v-12h1.8v1.9h0.2c0.3-0.6,0.7-1.1,1.3-1.5c0.7-0.4,1.4-0.6,2.2-0.6c0.7,0,1.5,0.2,2.1,0.5
		s1.1,0.9,1.4,1.5c0.4,0.8,0.5,1.7,0.5,2.5v7.6h-1.8v-7.5c0-0.8-0.2-1.6-0.7-2.2c-0.5-0.5-1.3-0.8-2-0.8c-0.5,0-1.1,0.1-1.6,0.4
		s-0.8,0.6-1.1,1.1C836.9,414.3,836.8,415,836.8,415.6z"/>
	<path d="M848.8,408.8c-0.3,0-0.7-0.1-0.9-0.4c-0.5-0.4-0.5-1.2-0.1-1.7l0.1-0.1c0.2-0.2,0.6-0.4,0.9-0.4c0.3,0,0.7,0.1,0.9,0.4
		c0.5,0.4,0.5,1.2,0.1,1.7l-0.1,0.1C849.4,408.7,849.1,408.8,848.8,408.8z M847.8,422.8v-12h1.8v12H847.8z"/>
	<path d="M853,422.8v-12h1.8v1.9h0.2c0.2-0.6,0.7-1.1,1.2-1.5c0.6-0.4,1.3-0.6,2-0.5c0.7,0,1.4,0.2,2,0.5c0.5,0.4,1,0.9,1.2,1.5h0.1
		c0.3-0.6,0.8-1.1,1.4-1.5c0.7-0.4,1.4-0.6,2.2-0.6c1,0,1.9,0.3,2.6,1c0.7,0.9,1.1,2,1,3.1v8H867v-8c0.1-0.7-0.2-1.4-0.7-1.9
		c-0.5-0.4-1.1-0.6-1.7-0.6c-0.7-0.1-1.5,0.2-2,0.8c-0.5,0.5-0.7,1.2-0.7,1.9v7.8H860v-8.2c0-0.6-0.2-1.2-0.7-1.6s-1.1-0.7-1.7-0.6
		c-0.5,0-0.9,0.1-1.3,0.4c-0.4,0.3-0.8,0.6-1,1.1c-0.3,0.5-0.4,1-0.4,1.6v7.5L853,422.8z"/>
	<path d="M877.2,423c-1.1,0-2.1-0.2-3-0.8c-0.8-0.5-1.5-1.3-1.9-2.2c-0.5-1-0.7-2.1-0.7-3.2s0.2-2.2,0.7-3.2
		c0.4-0.9,1.1-1.7,1.9-2.2c0.8-0.5,1.8-0.8,2.8-0.8c0.6,0,1.3,0.1,1.8,0.3c0.6,0.2,1.2,0.6,1.7,1c0.5,0.5,0.9,1.1,1.2,1.9
		c0.3,0.9,0.5,1.9,0.4,2.8v0.8h-9.2v-1.6h7.4c0-0.6-0.1-1.2-0.4-1.8c-0.3-0.5-0.7-1-1.2-1.3s-1.1-0.5-1.7-0.5
		c-0.7,0-1.3,0.2-1.9,0.5c-0.5,0.4-0.9,0.8-1.2,1.4s-0.4,1.2-0.4,1.9v1.1c0,0.8,0.1,1.6,0.5,2.3c0.3,0.6,0.7,1.1,1.3,1.4
		s1.3,0.5,2,0.5c0.4,0,0.9-0.1,1.3-0.2c0.4-0.1,0.7-0.4,1-0.6c0.3-0.3,0.5-0.6,0.7-1l1.8,0.5c-0.2,0.6-0.5,1.1-1,1.6s-1,0.8-1.6,1.1
		C878.7,422.9,877.9,423.1,877.2,423z"/>
	<path d="M886.8,415.6v7.2H885v-12h1.8v1.9h0.2c0.3-0.6,0.7-1.1,1.3-1.5c0.7-0.4,1.4-0.6,2.2-0.6c0.7,0,1.5,0.2,2.1,0.5
		s1.1,0.9,1.4,1.5c0.4,0.8,0.5,1.7,0.5,2.5v7.6h-1.8v-7.5c0-0.8-0.2-1.6-0.7-2.2c-0.5-0.5-1.3-0.8-2-0.8c-0.5,0-1.1,0.1-1.6,0.4
		s-0.8,0.6-1.1,1.1C887,414.3,886.8,415,886.8,415.6z"/>
	<path d="M903.1,410.8v1.6h-6.2v-1.6H903.1z M898.7,407.9h1.8v11.4c0,0.4,0.1,0.8,0.2,1.2c0.1,0.2,0.3,0.4,0.6,0.5
		c0.2,0.1,0.5,0.1,0.8,0.1c0.2,0,0.3,0,0.5,0l0.3-0.1l0.4,1.7c-0.1,0-0.3,0.1-0.5,0.1c-0.3,0.1-0.6,0.1-0.8,0.1
		c-0.5,0-1-0.1-1.5-0.3c-0.5-0.2-0.9-0.6-1.2-1c-0.3-0.5-0.5-1.1-0.5-1.7L898.7,407.9L898.7,407.9z"/>
	<path d="M910.6,423c-1,0-2-0.2-2.8-0.8c-0.8-0.5-1.5-1.3-1.9-2.2c-0.5-1-0.7-2.1-0.7-3.2s0.2-2.2,0.7-3.3c1.2-2.6,4.4-3.7,7-2.5
		c1.1,0.5,2,1.4,2.5,2.5c0.5,1,0.7,2.1,0.7,3.3c0,1.1-0.2,2.2-0.7,3.2c-0.4,0.9-1.1,1.6-1.9,2.2C912.6,422.8,911.6,423.1,910.6,423z
		 M910.6,421.4c0.7,0,1.4-0.2,2-0.6c0.5-0.4,0.9-1,1.2-1.7c0.5-1.5,0.5-3,0-4.5c-0.2-0.7-0.6-1.2-1.2-1.7c-1.2-0.9-2.8-0.9-4.1,0
		c-0.5,0.4-0.9,1-1.2,1.7c-0.5,1.5-0.5,3,0,4.5c0.2,0.7,0.6,1.2,1.2,1.7C909.1,421.2,909.9,421.4,910.6,421.4L910.6,421.4z"/>
	<path d="M781.3,449.2v-12h1.8v1.8h0.1c0.2-0.6,0.6-1.1,1.2-1.5c0.6-0.4,1.3-0.6,1.9-0.5h0.5h0.5v1.9l-0.4-0.1c-0.2,0-0.5,0-0.7,0
		c-0.5,0-1.1,0.1-1.6,0.4c-0.4,0.2-0.8,0.6-1.1,1s-0.4,0.9-0.4,1.5v7.6L781.3,449.2z"/>
	<path d="M790.4,435.2c-0.3,0-0.7-0.1-0.9-0.4c-0.3-0.2-0.4-0.5-0.4-0.9c0-0.3,0.1-0.7,0.4-0.9c0.2-0.2,0.6-0.4,0.9-0.4
		c0.3,0,0.7,0.1,0.9,0.4c0.3,0.2,0.4,0.6,0.4,0.9s-0.1,0.7-0.4,0.9C791.1,435.1,790.8,435.2,790.4,435.2z M789.5,449.2v-12h1.8v12
		H789.5z"/>
	<path d="M803.2,439.9l-1.7,0.5c-0.1-0.3-0.3-0.6-0.5-0.8c-0.2-0.3-0.5-0.5-0.8-0.6c-0.4-0.2-0.9-0.3-1.3-0.3
		c-0.6,0-1.3,0.2-1.8,0.5s-0.7,0.8-0.7,1.3c0,0.4,0.2,0.8,0.5,1.1c0.5,0.3,1,0.6,1.6,0.7l1.8,0.4c0.9,0.2,1.7,0.6,2.4,1.2
		c0.5,0.5,0.8,1.3,0.8,2.1c0,0.7-0.2,1.3-0.6,1.9c-0.4,0.6-1,1-1.6,1.3c-0.8,0.3-1.6,0.5-2.5,0.5c-1.1,0-2.1-0.2-3-0.8
		c-0.8-0.5-1.4-1.4-1.5-2.3l1.8-0.4c0.1,0.6,0.5,1.1,1,1.5c0.5,0.3,1.2,0.5,1.8,0.5c0.7,0,1.4-0.2,2-0.5c0.5-0.3,0.8-0.8,0.8-1.3
		c0-0.4-0.2-0.8-0.4-1.1c-0.4-0.3-0.8-0.5-1.3-0.6l-2-0.5c-0.9-0.2-1.8-0.6-2.4-1.2c-0.5-0.6-0.8-1.3-0.8-2.1c0-0.6,0.2-1.3,0.6-1.8
		c0.4-0.5,0.9-1,1.6-1.2c0.7-0.3,1.5-0.5,2.3-0.5c1-0.1,2,0.2,2.8,0.8C802.4,438.3,802.9,439.1,803.2,439.9z"/>
	<path d="M811.1,449.4c-2.1,0.1-4-1.1-4.8-3c-0.9-2-0.9-4.4,0-6.4c0.4-0.9,1.1-1.7,1.9-2.2c0.8-0.5,1.8-0.8,2.8-0.8
		c0.8,0,1.6,0.2,2.3,0.5s1.2,0.7,1.7,1.3c0.4,0.6,0.7,1.3,0.8,2H814c-0.2-0.6-0.5-1.1-0.9-1.5c-0.5-0.4-1.2-0.7-1.9-0.6
		c-0.7,0-1.3,0.2-1.9,0.6c-0.6,0.4-1,0.9-1.3,1.6c-0.3,0.8-0.5,1.6-0.4,2.4c0,0.8,0.1,1.7,0.4,2.4c0.3,0.6,0.7,1.2,1.2,1.6
		c0.9,0.6,2.1,0.7,3.2,0.3c0.4-0.2,0.7-0.4,1-0.7c0.3-0.3,0.5-0.7,0.6-1.1h1.8c-0.2,1.4-1.1,2.7-2.3,3.3
		C812.7,449.3,811.9,449.5,811.1,449.4z"/>
	<path d="M822,449.5c-0.7,0-1.4-0.1-2.1-0.4c-1.3-0.6-2.1-1.9-2-3.2c0-0.6,0.1-1.2,0.4-1.7c0.3-0.4,0.6-0.8,1.1-1
		c0.5-0.3,1-0.4,1.5-0.5s1.1-0.2,1.7-0.3l1.8-0.2c0.3,0,0.7-0.1,1-0.2c0.2-0.1,0.3-0.4,0.3-0.6v-0.1c0-0.7-0.2-1.3-0.6-1.8
		c-0.5-0.5-1.2-0.7-1.9-0.6c-0.7,0-1.5,0.2-2.1,0.6c-0.4,0.3-0.8,0.8-1,1.2l-1.8-0.6c0.3-0.7,0.7-1.3,1.2-1.7
		c0.5-0.4,1.1-0.7,1.7-0.9c0.6-0.2,1.2-0.2,1.8-0.2c0.4,0,0.9,0.1,1.3,0.1c0.5,0.1,1,0.3,1.5,0.6c0.5,0.3,0.8,0.7,1.1,1.2
		c0.3,0.7,0.5,1.5,0.5,2.3v7.9h-1.8v-1.6h-0.1c-0.2,0.3-0.4,0.6-0.6,0.8c-0.3,0.3-0.7,0.6-1.2,0.8
		C823.2,449.4,822.6,449.5,822,449.5z M822.3,447.8c0.6,0,1.3-0.1,1.8-0.4s0.9-0.6,1.1-1.1c0.2-0.4,0.4-0.9,0.4-1.4v-1.7
		c-0.1,0.1-0.3,0.2-0.5,0.3c-0.3,0.1-0.6,0.1-0.9,0.2c-0.3,0.1-0.7,0.1-1,0.1l-0.8,0.1c-0.5,0.1-0.9,0.2-1.3,0.3
		c-0.4,0.1-0.7,0.3-1,0.6c-0.3,0.3-0.4,0.7-0.4,1.1c0,0.6,0.2,1.1,0.7,1.5C821,447.7,821.6,447.9,822.3,447.8L822.3,447.8z"/>
	<path d="M832.7,433.2v16h-1.8v-16H832.7z"/>
	<path d="M840.6,449.4c-0.9,0-1.9-0.2-2.7-0.8c-0.8-0.5-1.4-1.3-1.8-2.1c-0.5-1-0.7-2.2-0.7-3.3c0-1.1,0.2-2.2,0.7-3.3
		c0.4-0.9,1-1.6,1.8-2.1s1.7-0.8,2.7-0.8c0.6,0,1.3,0.1,1.9,0.4c0.4,0.2,0.7,0.5,1,0.9c0.2,0.3,0.4,0.6,0.6,0.8h0.2v-5.9h1.8v16
		h-1.8v-1.8h-0.2c-0.2,0.3-0.4,0.6-0.6,0.8c-0.3,0.4-0.7,0.7-1.1,0.9C841.9,449.3,841.3,449.5,840.6,449.4z M840.9,447.8
		c0.7,0,1.3-0.2,1.9-0.6c0.5-0.4,0.9-1,1.2-1.6c0.5-1.5,0.5-3.2,0-4.8c-0.2-0.6-0.6-1.2-1.2-1.6c-1.2-0.8-2.7-0.8-3.8,0
		c-0.5,0.4-0.9,1-1.2,1.6c-0.5,1.5-0.5,3.1,0,4.6c0.2,0.7,0.6,1.2,1.2,1.7C839.5,447.6,840.2,447.8,840.9,447.8z"/>
	<path d="M853.3,449.5c-0.7,0-1.4-0.1-2.1-0.4c-1.3-0.6-2.1-1.9-2-3.2c0-0.6,0.1-1.2,0.4-1.7c0.3-0.4,0.6-0.8,1.1-1
		c0.5-0.3,1-0.4,1.5-0.5s1.1-0.2,1.7-0.3l1.8-0.2c0.3,0,0.7-0.1,1-0.2c0.2-0.1,0.3-0.4,0.3-0.6v-0.1c0-0.7-0.2-1.3-0.6-1.8
		c-0.5-0.5-1.2-0.7-1.9-0.6c-0.7,0-1.5,0.2-2.1,0.6c-0.4,0.3-0.8,0.7-1,1.2l-1.8-0.6c0.3-0.7,0.7-1.3,1.2-1.7
		c0.5-0.4,1.1-0.7,1.7-0.9c0.6-0.2,1.2-0.2,1.8-0.2c0.4,0,0.9,0.1,1.3,0.1c0.5,0.1,1,0.3,1.5,0.6c0.5,0.3,0.9,0.7,1.2,1.3
		c0.3,0.7,0.5,1.5,0.5,2.3v7.9H857v-1.6h-0.1c-0.2,0.3-0.4,0.6-0.6,0.8c-0.3,0.3-0.7,0.6-1.2,0.8
		C854.5,449.4,853.9,449.5,853.3,449.5z M853.6,447.8c0.6,0,1.3-0.1,1.8-0.4s0.9-0.6,1.1-1.1c0.2-0.4,0.4-0.9,0.4-1.4v-1.7
		c-0.1,0.1-0.3,0.2-0.5,0.3c-0.3,0.1-0.6,0.1-0.9,0.2c-0.3,0.1-0.7,0.1-1,0.1l-0.8,0.1c-0.5,0.1-0.9,0.2-1.3,0.3
		c-0.4,0.1-0.7,0.3-1,0.6c-0.3,0.3-0.4,0.7-0.4,1.1c0,0.6,0.2,1.1,0.7,1.5C852.3,447.7,852.9,447.8,853.6,447.8z"/>
	<path d="M862.2,449.2v-12h1.8v1.9h0.2c0.2-0.6,0.7-1.1,1.2-1.5c0.6-0.4,1.3-0.6,2-0.5c0.7,0,1.4,0.2,2,0.5c0.5,0.4,1,0.9,1.2,1.5
		h0.1c0.3-0.6,0.8-1.1,1.4-1.5c0.7-0.4,1.4-0.6,2.2-0.5c1,0,1.9,0.3,2.6,1c0.7,0.9,1.1,2,1,3.1v8h-1.8v-8c0.1-0.7-0.2-1.4-0.7-1.9
		c-0.5-0.4-1.1-0.6-1.7-0.6c-0.7-0.1-1.5,0.2-2,0.8c-0.5,0.5-0.7,1.2-0.7,1.9v7.8h-1.8V441c0-0.6-0.2-1.2-0.7-1.6s-1.1-0.7-1.7-0.6
		c-0.5,0-0.9,0.1-1.3,0.4c-0.4,0.3-0.8,0.6-1,1.1c-0.3,0.5-0.4,1-0.4,1.6v7.5L862.2,449.2z"/>
	<path d="M886.3,449.4c-1.1,0-2.1-0.2-3-0.8c-0.8-0.5-1.5-1.3-1.9-2.2c-0.5-1-0.7-2.1-0.7-3.2s0.2-2.2,0.7-3.2
		c0.4-0.9,1.1-1.7,1.9-2.2c0.8-0.5,1.8-0.8,2.8-0.8c0.6,0,1.3,0.1,1.8,0.3c0.6,0.2,1.2,0.6,1.7,1c0.5,0.5,0.9,1.2,1.2,1.9
		c0.3,0.9,0.5,1.9,0.5,2.8v0.8H882v-1.6h7.4c0-0.6-0.1-1.2-0.4-1.8c-0.3-0.5-0.6-1-1.1-1.3s-1.1-0.5-1.7-0.5c-0.7,0-1.3,0.2-1.9,0.5
		c-0.5,0.3-1,0.8-1.2,1.4c-0.3,0.6-0.4,1.2-0.4,1.9v1.1c0,0.8,0.1,1.6,0.5,2.3c0.3,0.6,0.7,1.1,1.3,1.4s1.3,0.5,2,0.5
		c0.4,0,0.9-0.1,1.3-0.2c0.4-0.1,0.7-0.3,1-0.6c0.3-0.3,0.5-0.6,0.7-1l1.8,0.5c-0.2,0.6-0.5,1.2-1,1.6c-0.5,0.5-1,0.8-1.6,1.1
		C887.8,449.3,887,449.5,886.3,449.4z"/>
	<path d="M895.9,442v7.2h-1.8v-12h1.8v1.9h0.1c0.3-0.6,0.7-1.1,1.3-1.5c0.7-0.4,1.4-0.6,2.2-0.6c0.7,0,1.5,0.2,2.1,0.5
		s1.1,0.9,1.4,1.5c0.4,0.8,0.5,1.7,0.5,2.5v7.6h-1.8v-7.5c0-0.8-0.2-1.6-0.7-2.2c-0.5-0.5-1.3-0.8-2-0.8c-0.6,0-1.1,0.1-1.6,0.4
		s-0.8,0.6-1.1,1.1C896,440.8,895.9,441.4,895.9,442z"/>
	<path d="M912.2,437.2v1.6H906v-1.6H912.2z M907.8,434.3h1.8v11.4c0,0.4,0.1,0.8,0.2,1.2c0.1,0.2,0.3,0.4,0.6,0.5
		c0.2,0.1,0.5,0.1,0.8,0.1c0.2,0,0.3,0,0.5,0l0.3-0.1l0.4,1.6c-0.2,0.1-0.3,0.1-0.5,0.1c-0.3,0.1-0.6,0.1-0.8,0.1
		c-0.5,0-1-0.1-1.5-0.3c-0.5-0.2-0.9-0.6-1.2-1c-0.3-0.5-0.5-1.1-0.5-1.7L907.8,434.3L907.8,434.3z"/>
	<path d="M915.9,435.2c-0.3,0-0.7-0.1-0.9-0.4c-0.3-0.2-0.4-0.5-0.4-0.9c0-0.3,0.1-0.7,0.4-0.9c0.2-0.2,0.6-0.4,0.9-0.4
		c0.3,0,0.7,0.1,0.9,0.4c0.3,0.2,0.4,0.6,0.4,0.9s-0.1,0.7-0.4,0.9C916.6,435.1,916.3,435.2,915.9,435.2z M915,449.2v-12h1.8v12H915
		z"/>
	<path d="M782.9,1171.7h-2l5.9-16h2l5.9,16h-2l-4.8-13.5h-0.1L782.9,1171.7z M783.6,1165.5h8.2v1.7h-8.2V1165.5z"/>
	<path d="M801.7,1172c-2.1,0.1-4-1.1-4.8-3c-0.4-1-0.7-2.1-0.7-3.2s0.2-2.2,0.7-3.2c0.4-0.9,1.1-1.6,1.9-2.2
		c0.8-0.5,1.8-0.8,2.8-0.8c0.8,0,1.6,0.1,2.3,0.5c0.7,0.3,1.2,0.7,1.7,1.3c0.4,0.6,0.7,1.3,0.8,2h-1.8c-0.2-0.6-0.5-1.1-0.9-1.4
		c-0.5-0.5-1.2-0.7-1.9-0.6c-0.7,0-1.3,0.2-1.9,0.6c-0.6,0.4-1,0.9-1.3,1.6s-0.5,1.6-0.5,2.4s0.1,1.7,0.4,2.4
		c0.3,0.6,0.7,1.2,1.2,1.6c1,0.6,2.2,0.7,3.2,0.3c0.4-0.2,0.7-0.4,1-0.7c0.3-0.3,0.5-0.7,0.6-1.1h1.8c-0.2,1.4-1.1,2.6-2.4,3.2
		C803.3,1171.9,802.5,1172,801.7,1172z"/>
	<path d="M814,1172c-1,0-2-0.3-2.9-0.8c-0.8-0.5-1.5-1.3-1.9-2.2c-0.9-2.1-0.9-4.4,0-6.4c0.4-0.9,1.1-1.6,1.9-2.2
		c0.8-0.5,1.8-0.8,2.8-0.8c0.8,0,1.6,0.2,2.3,0.5s1.2,0.7,1.7,1.3c0.4,0.6,0.7,1.3,0.8,2h-1.8c-0.2-0.6-0.5-1.1-0.9-1.4
		c-0.5-0.5-1.2-0.7-1.9-0.6c-0.7,0-1.3,0.2-1.9,0.6c-0.6,0.4-1,0.9-1.3,1.6s-0.5,1.6-0.5,2.4s0.1,1.7,0.4,2.4
		c0.3,0.6,0.7,1.2,1.2,1.6c0.6,0.4,1.2,0.6,1.9,0.6c0.4,0,0.9-0.1,1.3-0.2c0.4-0.2,0.7-0.4,1-0.7c0.3-0.3,0.5-0.7,0.6-1.1h1.8
		c-0.1,0.7-0.4,1.3-0.8,1.9c-0.4,0.6-1,1-1.6,1.3C815.6,1171.9,814.8,1172,814,1172z"/>
	<path d="M826.4,1172c-1.1,0-2.1-0.2-3-0.8c-0.8-0.5-1.5-1.3-1.9-2.2c-0.5-1-0.7-2.1-0.7-3.2s0.2-2.2,0.7-3.2
		c0.4-0.9,1.1-1.7,1.9-2.2c0.8-0.5,1.8-0.8,2.8-0.8c0.6,0,1.3,0.1,1.8,0.3c0.6,0.2,1.2,0.5,1.7,1s0.9,1.1,1.2,1.8
		c0.3,0.9,0.5,1.9,0.4,2.8v0.8h-9.2v-1.6h7.4c0-0.6-0.1-1.2-0.4-1.8c-0.3-0.5-0.7-1-1.2-1.3s-1.1-0.5-1.7-0.5
		c-0.7,0-1.3,0.2-1.9,0.5c-0.5,0.4-0.9,0.8-1.2,1.4s-0.4,1.2-0.4,1.9v1.1c0,0.8,0.1,1.6,0.5,2.3c0.3,0.6,0.7,1.1,1.3,1.4
		s1.3,0.5,2,0.5c0.4,0,0.9-0.1,1.3-0.2c0.4-0.1,0.7-0.3,1-0.6c0.3-0.3,0.5-0.6,0.7-1l1.8,0.5c-0.2,0.6-0.5,1.1-1,1.6s-1,0.8-1.6,1.1
		C827.9,1171.9,827.2,1172,826.4,1172z"/>
	<path d="M836.1,1164.5v7.2h-1.8v-12h1.8v1.9h0.2c0.3-0.6,0.7-1.1,1.3-1.5c0.7-0.4,1.4-0.6,2.2-0.6c0.7,0,1.5,0.2,2.1,0.5
		s1.1,0.9,1.4,1.5c0.4,0.8,0.5,1.7,0.5,2.5v7.6H842v-7.5c0-0.8-0.2-1.6-0.7-2.2c-0.5-0.5-1.3-0.8-2-0.8c-0.5,0-1.1,0.1-1.6,0.4
		s-0.8,0.6-1.1,1.1C836.2,1163.3,836.1,1163.9,836.1,1164.5z"/>
	<path d="M855.6,1162.4l-1.7,0.5c-0.1-0.3-0.3-0.6-0.5-0.8c-0.2-0.3-0.5-0.5-0.8-0.7c-0.4-0.2-0.9-0.3-1.3-0.2
		c-0.6,0-1.3,0.2-1.8,0.5s-0.7,0.8-0.7,1.3c0,0.4,0.2,0.8,0.5,1.1c0.5,0.3,1,0.6,1.6,0.7l1.8,0.4c0.9,0.2,1.7,0.6,2.4,1.2
		c0.5,0.5,0.8,1.3,0.8,2.1c0,0.7-0.2,1.3-0.6,1.8c-0.4,0.6-1,1-1.7,1.3c-0.8,0.3-1.6,0.5-2.5,0.5c-1.1,0-2.1-0.2-3-0.8
		c-0.8-0.5-1.4-1.4-1.5-2.3l1.8-0.4c0.1,0.6,0.5,1.1,1,1.4s1.2,0.5,1.8,0.5c0.7,0,1.4-0.2,2-0.6c0.5-0.3,0.7-0.8,0.8-1.3
		c0-0.4-0.2-0.7-0.4-1c-0.4-0.3-0.9-0.6-1.3-0.6l-2-0.5c-0.9-0.2-1.7-0.6-2.4-1.2c-0.5-0.6-0.8-1.3-0.8-2.1c0-0.6,0.2-1.3,0.6-1.8
		c0.4-0.5,0.9-1,1.6-1.2c0.7-0.3,1.5-0.5,2.3-0.4c1-0.1,2,0.2,2.8,0.8C854.8,1160.9,855.3,1161.6,855.6,1162.4z"/>
	<path d="M859.5,1157.7c-0.3,0-0.7-0.1-0.9-0.4c-0.5-0.5-0.5-1.2,0-1.7l0,0c0.2-0.2,0.6-0.4,0.9-0.4c0.3,0,0.7,0.1,0.9,0.4
		c0.5,0.4,0.5,1.2,0.1,1.7l-0.1,0.1C860.2,1157.6,859.9,1157.7,859.5,1157.7z M858.6,1171.7v-12h1.8v12H858.6z"/>
	<path d="M868.7,1172c-2,0-3.9-1.1-4.8-2.9c-0.9-2.1-0.9-4.4,0-6.5c1.2-2.6,4.4-3.7,7-2.5c1.1,0.5,2,1.4,2.5,2.5
		c0.9,2.1,0.9,4.4,0,6.5C872.6,1170.9,870.7,1172.1,868.7,1172z M868.7,1170.3c0.7,0,1.4-0.2,2-0.6c0.5-0.4,0.9-1,1.2-1.7
		c0.5-1.4,0.5-3,0-4.5c-0.2-0.7-0.6-1.2-1.2-1.7c-1.2-0.9-2.8-0.9-4.1,0c-0.5,0.4-0.9,1-1.2,1.7c-0.5,1.5-0.5,3,0,4.5
		c0.2,0.7,0.6,1.2,1.2,1.7C867.2,1170.2,867.9,1170.4,868.7,1170.3L868.7,1170.3z"/>
	<path d="M878.8,1164.5v7.2H877v-12h1.8v1.9h0.2c0.3-0.6,0.7-1.1,1.3-1.5c0.7-0.4,1.4-0.6,2.2-0.6c0.7,0,1.5,0.2,2.1,0.5
		s1.1,0.9,1.4,1.5c0.4,0.8,0.5,1.7,0.5,2.5v7.6h-1.8v-7.5c0-0.8-0.2-1.6-0.7-2.2c-0.5-0.5-1.3-0.8-2-0.8c-0.5,0-1.1,0.1-1.6,0.4
		s-0.8,0.6-1.1,1.1C878.9,1163.3,878.8,1163.9,878.8,1164.5z"/>
	<path d="M894.8,1172c-1.1,0-2.1-0.2-3-0.8c-0.8-0.5-1.5-1.3-1.9-2.2c-0.5-1-0.7-2.1-0.7-3.2s0.2-2.2,0.7-3.2
		c0.4-0.9,1.1-1.7,1.9-2.2c0.8-0.5,1.8-0.8,2.8-0.8c0.6,0,1.3,0.1,1.8,0.3c0.6,0.2,1.2,0.5,1.7,1s0.9,1.1,1.2,1.8
		c0.3,0.9,0.5,1.9,0.5,2.8v0.8h-9.2v-1.6h7.4c0-0.6-0.1-1.2-0.4-1.8c-0.5-1.1-1.7-1.8-2.9-1.7c-0.7,0-1.3,0.2-1.9,0.5
		c-0.5,0.4-0.9,0.8-1.2,1.4s-0.4,1.2-0.4,1.9v1.1c0,0.8,0.1,1.6,0.5,2.3c0.3,0.6,0.7,1.1,1.3,1.4s1.3,0.5,2,0.5
		c0.4,0,0.9-0.1,1.3-0.2c0.4-0.1,0.7-0.3,1-0.6c0.3-0.3,0.5-0.6,0.7-1l1.8,0.5c-0.2,0.6-0.5,1.1-0.9,1.6c-0.5,0.5-1,0.8-1.6,1.1
		C896.4,1171.9,895.6,1172,894.8,1172z"/>
	<path d="M782,1198.1v-12h1.8v1.9h0.1c0.2-0.6,0.6-1.1,1.2-1.4c0.6-0.4,1.2-0.6,1.9-0.6h0.5h0.5v1.9l-0.4-0.1c-0.2,0-0.5,0-0.7,0
		c-0.5,0-1.1,0.1-1.6,0.4c-0.4,0.2-0.8,0.6-1.1,1s-0.4,0.9-0.4,1.4v7.6L782,1198.1z"/>
	<path d="M791.1,1184.1c-0.3,0-0.7-0.1-0.9-0.4c-0.5-0.5-0.5-1.2,0-1.7l0,0c0.5-0.5,1.3-0.5,1.9,0c0.5,0.5,0.5,1.2,0,1.7l0,0
		C791.8,1184,791.4,1184.1,791.1,1184.1z M790.2,1198.1v-12h1.8v12H790.2z"/>
	<path d="M803.9,1188.8l-1.7,0.5c-0.1-0.3-0.3-0.6-0.5-0.8c-0.2-0.3-0.5-0.5-0.8-0.7c-0.4-0.2-0.9-0.3-1.3-0.3
		c-0.6,0-1.3,0.2-1.8,0.5s-0.7,0.7-0.7,1.3c0,0.4,0.2,0.8,0.5,1.1c0.5,0.3,1,0.6,1.6,0.7l1.8,0.4c0.9,0.2,1.7,0.6,2.4,1.2
		c0.5,0.5,0.8,1.3,0.8,2.1c0,0.7-0.2,1.3-0.6,1.8c-0.4,0.6-1,1-1.6,1.3c-0.8,0.3-1.6,0.5-2.5,0.5c-1.1,0-2.1-0.2-3-0.8
		c-0.8-0.5-1.4-1.4-1.5-2.3l1.8-0.4c0.1,0.6,0.5,1.1,1,1.4s1.2,0.5,1.8,0.5c0.7,0,1.4-0.2,2-0.6c0.5-0.3,0.7-0.8,0.8-1.3
		c0-0.4-0.1-0.8-0.4-1.1c-0.4-0.3-0.9-0.5-1.3-0.6l-2-0.5c-0.9-0.2-1.7-0.6-2.4-1.2c-0.5-0.6-0.8-1.3-0.8-2.1c0-0.6,0.2-1.3,0.6-1.8
		c0.4-0.5,0.9-1,1.6-1.2c0.7-0.3,1.5-0.5,2.3-0.4c1-0.1,2,0.2,2.8,0.8C803.1,1187.3,803.6,1188,803.9,1188.8z"/>
	<path d="M811.8,1198.4c-2.1,0.1-4-1.1-4.8-3c-0.9-2-0.9-4.4,0-6.4c0.4-0.9,1.1-1.7,1.9-2.2c0.8-0.5,1.8-0.8,2.8-0.8
		c0.8,0,1.6,0.2,2.3,0.5s1.2,0.7,1.7,1.3c0.4,0.6,0.7,1.3,0.8,2h-1.8c-0.2-0.6-0.5-1.1-0.9-1.5c-0.5-0.4-1.2-0.7-1.9-0.6
		c-0.7,0-1.3,0.2-1.9,0.6c-0.6,0.4-1,0.9-1.3,1.6c-0.3,0.8-0.5,1.6-0.5,2.4s0.1,1.7,0.4,2.4c0.3,0.6,0.7,1.2,1.2,1.6
		c0.6,0.4,1.2,0.6,1.9,0.6c0.4,0,0.9-0.1,1.3-0.2c0.4-0.2,0.7-0.4,1-0.7c0.3-0.3,0.5-0.7,0.6-1.1h1.8c-0.1,0.7-0.4,1.3-0.8,1.9
		c-0.4,0.6-1,1-1.6,1.3C813.4,1198.2,812.6,1198.4,811.8,1198.4z"/>
	<path d="M822.7,1198.4c-0.7,0-1.4-0.1-2.1-0.4c-1.3-0.6-2.1-1.9-2-3.2c0-0.6,0.1-1.2,0.4-1.7c0.3-0.4,0.6-0.8,1.1-1
		c0.5-0.3,1-0.4,1.5-0.6c0.5-0.1,1.1-0.2,1.7-0.3l1.7-0.2c0.3,0,0.7-0.1,1-0.2c0.2-0.1,0.3-0.4,0.3-0.6v-0.1c0-0.7-0.2-1.3-0.6-1.8
		c-0.5-0.5-1.2-0.7-1.9-0.6c-0.7,0-1.5,0.2-2.1,0.6c-0.4,0.3-0.8,0.7-1.1,1.2l-1.8-0.6c0.3-0.7,0.7-1.3,1.3-1.7
		c0.5-0.4,1.1-0.7,1.7-0.8c0.6-0.2,1.2-0.2,1.8-0.2c0.4,0,0.9,0.1,1.3,0.1c0.5,0.1,1,0.3,1.5,0.6c0.5,0.3,0.9,0.8,1.2,1.3
		c0.3,0.7,0.5,1.5,0.5,2.3v7.9h-1.8v-1.6h-0.1c-0.2,0.3-0.4,0.6-0.6,0.8c-0.3,0.3-0.7,0.6-1.2,0.8
		C823.9,1198.3,823.3,1198.4,822.7,1198.4z M823,1196.8c0.6,0,1.3-0.1,1.8-0.4s0.9-0.6,1.1-1.1c0.3-0.4,0.4-0.9,0.4-1.4v-1.7
		c-0.1,0.1-0.3,0.2-0.5,0.3c-0.3,0.1-0.6,0.1-0.9,0.2c-0.3,0.1-0.7,0.1-1,0.1l-0.8,0.1c-0.5,0.1-0.9,0.2-1.3,0.3
		c-0.4,0.1-0.7,0.3-1,0.6c-0.3,0.3-0.4,0.7-0.4,1.1c0,0.6,0.2,1.1,0.7,1.4C821.7,1196.6,822.3,1196.8,823,1196.8L823,1196.8z"/>
	<path d="M833.4,1182.1v16h-1.8v-16H833.4z"/>
	<path d="M841.3,1198.4c-0.9,0-1.9-0.2-2.7-0.8c-0.8-0.5-1.4-1.3-1.8-2.2c-0.5-1-0.7-2.2-0.6-3.3c0-1.1,0.2-2.2,0.6-3.3
		c0.4-0.9,1-1.6,1.8-2.2c0.8-0.5,1.7-0.8,2.7-0.8c0.6,0,1.3,0.1,1.9,0.4c0.4,0.2,0.7,0.5,1,0.9c0.2,0.3,0.4,0.6,0.6,0.8h0.2v-5.9
		h1.8v16H845v-1.8h-0.2c-0.1,0.2-0.3,0.5-0.6,0.8c-0.3,0.4-0.7,0.7-1.1,0.9C842.6,1198.3,841.9,1198.4,841.3,1198.4z M841.6,1196.7
		c0.7,0,1.3-0.2,1.9-0.6c0.5-0.4,0.9-1,1.2-1.6c0.3-0.8,0.4-1.6,0.4-2.4s-0.1-1.6-0.4-2.3c-0.2-0.6-0.6-1.2-1.2-1.6
		c-1.2-0.8-2.7-0.8-3.8,0c-0.5,0.4-0.9,1-1.2,1.6c-0.3,0.7-0.4,1.5-0.4,2.3s0.1,1.6,0.4,2.3c0.2,0.6,0.6,1.2,1.2,1.7
		C840.2,1196.5,840.9,1196.7,841.6,1196.7z"/>
	<path d="M854,1198.4c-0.7,0-1.4-0.1-2.1-0.4c-1.3-0.6-2.1-1.9-2-3.2c0-0.6,0.1-1.2,0.4-1.7c0.3-0.4,0.6-0.8,1.1-1
		c0.5-0.3,1-0.4,1.5-0.6c0.5-0.1,1.1-0.2,1.7-0.3l1.8-0.2c0.3,0,0.7-0.1,1-0.2c0.2-0.1,0.3-0.4,0.3-0.6v-0.1c0-0.7-0.2-1.3-0.6-1.8
		c-0.5-0.5-1.2-0.7-1.9-0.6c-0.7,0-1.5,0.2-2.1,0.6c-0.4,0.3-0.8,0.8-1,1.2l-1.8-0.6c0.3-0.7,0.7-1.3,1.2-1.7
		c0.5-0.4,1.1-0.7,1.7-0.8c0.6-0.1,1.1-0.2,1.7-0.2c0.4,0,0.9,0.1,1.3,0.1c0.5,0.1,1,0.3,1.5,0.6c0.5,0.3,0.9,0.8,1.2,1.3
		c0.3,0.7,0.5,1.5,0.5,2.3v7.9h-1.8v-1.6h-0.1c-0.2,0.3-0.4,0.6-0.6,0.8c-0.3,0.3-0.7,0.6-1.2,0.8
		C855.2,1198.4,854.6,1198.4,854,1198.4z M854.3,1196.8c0.6,0,1.3-0.1,1.8-0.4s0.9-0.6,1.1-1.1c0.3-0.4,0.4-0.9,0.4-1.4v-1.7
		c-0.1,0.1-0.3,0.2-0.5,0.3c-0.3,0.1-0.6,0.1-0.9,0.2c-0.3,0.1-0.7,0.1-1,0.1l-0.8,0.1c-0.5,0.1-0.9,0.2-1.3,0.3
		c-0.4,0.1-0.7,0.3-1,0.6c-0.3,0.3-0.4,0.7-0.4,1.1c0,0.6,0.2,1.1,0.7,1.4C853,1196.6,853.6,1196.8,854.3,1196.8L854.3,1196.8z"/>
	<path d="M862.8,1198.1v-12h1.8v1.9h0.2c0.2-0.6,0.7-1.1,1.2-1.5c0.6-0.4,1.3-0.5,2-0.5s1.4,0.2,2,0.5c0.5,0.4,1,0.9,1.2,1.5h0.1
		c0.3-0.6,0.8-1.1,1.4-1.5c0.7-0.4,1.4-0.6,2.2-0.6c1,0,1.9,0.3,2.6,1c0.7,0.9,1.1,2,1,3.1v8h-1.8v-8c0.1-0.7-0.2-1.4-0.7-1.9
		c-0.5-0.4-1.1-0.6-1.7-0.6c-0.7-0.1-1.5,0.2-2,0.8c-0.5,0.5-0.7,1.2-0.7,1.9v7.8h-1.9v-8.2c0-0.6-0.2-1.2-0.7-1.7
		c-0.5-0.4-1.1-0.6-1.7-0.6c-0.5,0-0.9,0.1-1.3,0.4c-0.4,0.3-0.8,0.6-1,1.1c-0.3,0.5-0.4,1-0.4,1.6v7.5L862.8,1198.1z"/>
	<path d="M887,1198.4c-1.1,0-2.1-0.2-3-0.8c-0.8-0.5-1.5-1.3-1.9-2.2c-0.5-1-0.7-2.1-0.7-3.2s0.2-2.2,0.7-3.2
		c0.4-0.9,1.1-1.7,1.9-2.2c0.8-0.5,1.8-0.8,2.8-0.8c0.6,0,1.3,0.1,1.8,0.3c0.6,0.2,1.2,0.6,1.7,1c0.5,0.5,0.9,1.2,1.2,1.8
		c0.3,0.9,0.5,1.9,0.5,2.9v0.8h-9.2v-1.6h7.4c0-0.6-0.1-1.3-0.4-1.8c-0.3-0.5-0.7-0.9-1.1-1.2c-0.5-0.3-1.1-0.5-1.7-0.5
		c-0.7,0-1.3,0.2-1.9,0.5c-0.5,0.3-1,0.8-1.2,1.4c-0.3,0.6-0.4,1.2-0.4,1.9v1.1c0,0.8,0.1,1.6,0.5,2.3c0.3,0.6,0.7,1.1,1.3,1.4
		s1.3,0.5,2,0.5c0.4,0,0.9-0.1,1.3-0.2c0.4-0.1,0.7-0.3,1-0.6c0.3-0.3,0.5-0.7,0.7-1.1l1.8,0.5c-0.2,0.6-0.5,1.1-1,1.6
		s-1,0.8-1.6,1.1C888.5,1198.3,887.8,1198.4,887,1198.4z"/>
	<path d="M896.6,1190.9v7.2h-1.8v-12h1.8v1.9h0.2c0.3-0.6,0.7-1.1,1.3-1.5c0.7-0.4,1.4-0.6,2.2-0.6c0.7,0,1.5,0.2,2.1,0.5
		s1.1,0.9,1.4,1.5c0.4,0.8,0.5,1.7,0.5,2.5v7.6h-1.8v-7.5c0.1-0.8-0.2-1.6-0.7-2.2c-0.5-0.5-1.3-0.8-2-0.8c-0.5,0-1.1,0.1-1.6,0.4
		s-0.8,0.6-1.1,1.1C896.8,1189.7,896.6,1190.3,896.6,1190.9z"/>
	<path d="M912.9,1186.1v1.6h-6.2v-1.6H912.9z M908.5,1183.3h1.8v11.4c0,0.4,0.1,0.8,0.2,1.2c0.1,0.2,0.3,0.4,0.6,0.5
		c0.2,0.1,0.5,0.1,0.8,0.1c0.2,0,0.3,0,0.5,0h0.3l0.4,1.7c-0.2,0.1-0.3,0.1-0.5,0.2c-0.3,0.1-0.6,0.1-0.8,0.1
		c-0.5,0-1.1-0.1-1.5-0.3c-0.5-0.2-0.9-0.6-1.2-1c-0.3-0.5-0.5-1.1-0.5-1.7L908.5,1183.3z"/>
	<path d="M916.6,1184.1c-0.3,0-0.7-0.1-0.9-0.4c-0.5-0.5-0.5-1.2,0-1.7l0,0c0.5-0.5,1.3-0.5,1.9,0c0.5,0.5,0.5,1.2,0,1.7l0,0
		C917.3,1184,916.9,1184.1,916.6,1184.1z M915.7,1198.1v-12h1.8v12H915.7z"/>
</g>
<g>
	
		<ellipse transform="matrix(3.327800e-02 -0.9994 0.9994 3.327800e-02 -1292.5554 1768.4908)" cx="267.9" cy="1552.4" rx="14.3" ry="14.3"/>
	<path d="M322,1576.1v-45.3h15.3c3-0.1,6,0.5,8.7,1.9c2.1,1.2,3.9,3,5,5.2c2.2,4.6,2.2,9.9,0,14.5c-1.1,2.2-2.8,4-5,5.2
		c-2.7,1.4-5.7,2-8.7,1.9h-11v-4.8h10.8c2,0.1,4-0.3,5.9-1.2c1.4-0.8,2.5-2,3.2-3.4c1.4-3.1,1.4-6.6,0-9.7c-0.7-1.5-1.8-2.6-3.2-3.4
		c-1.8-0.9-3.9-1.3-5.9-1.2h-9.7v40.4L322,1576.1z"/>
	<path d="M361.5,1530.8h6.5l15.4,37.4h0.5l15.4-37.4h6.6v45.3h-5.1v-34.4h-0.4l-14.2,34.4h-4.8l-14.2-34.4h-0.5v34.4h-5.1
		L361.5,1530.8z"/>
	<path d="M432,1530.8v45.3h-5.5v-39.6h-0.3l-11,7.3v-5.6l11.3-7.5L432,1530.8z"/>
	<path d="M459.8,1576.7c-3.1,0.1-6.1-0.9-8.5-2.7c-2.5-2.1-4.4-4.8-5.4-7.9c-2.5-8.2-2.5-17,0-25.2c1-3.1,2.9-5.9,5.4-8
		c5.1-3.7,11.9-3.7,17,0c2.5,2.1,4.4,4.9,5.4,8c2.5,8.2,2.5,17,0,25.2c-1,3.1-2.9,5.8-5.4,7.9
		C465.8,1575.8,462.8,1576.8,459.8,1576.7z M459.8,1571.9c3.3,0,6.3-1.9,7.7-4.8c2.1-4.2,3-8.9,2.7-13.6c0.1-3.4-0.4-6.7-1.2-10
		c-0.6-2.4-1.9-4.6-3.6-6.3c-1.5-1.4-3.5-2.2-5.6-2.2c-3.3-0.1-6.4,1.7-7.9,4.7c-2.1,4.2-3,8.9-2.8,13.7c-0.1,3.4,0.4,6.7,1.2,10
		c0.6,2.4,1.8,4.5,3.6,6.3C455.5,1571.1,457.6,1571.9,459.8,1571.9z"/>
	<path d="M485.5,1555.9v-3.5l28.5-14.5v5.7l-21.8,10.5v0.2l21.8,10.5v5.7L485.5,1555.9z"/>
	<path d="M539.1,1576.7c-2.4,0-4.8-0.5-7-1.6c-2-0.9-3.7-2.4-5-4.2c-1.3-1.8-2-3.9-2.1-6.1h5.3c0.2,2,1.2,3.8,2.8,5.1
		c3.2,2.4,7.5,2.7,10.9,0.7c1.4-0.9,2.6-2.1,3.5-3.6c0.8-1.6,1.3-3.4,1.2-5.2c0-1.9-0.4-3.7-1.3-5.3c-0.8-1.5-2-2.8-3.5-3.7
		c-1.6-0.9-3.4-1.4-5.2-1.4c-1.4,0-2.8,0.2-4.1,0.6c-1.3,0.3-2.5,0.9-3.6,1.7l-5.2-0.6l2.7-22.3H552v4.6h-18.9l-1.6,13.4h0.2
		c1-0.8,2.2-1.4,3.5-1.8c1.4-0.5,2.9-0.8,4.4-0.8c2.6,0,5.2,0.7,7.4,2s4,3.2,5.1,5.4c1.3,2.4,1.9,5.1,1.9,7.8c0,2.7-0.7,5.4-2,7.8
		c-1.3,2.2-3.1,4.1-5.3,5.3C544.5,1576,541.8,1576.7,539.1,1576.7z"/>
	<path d="M577.6,1576.7c-3,0-5.9-0.9-8.3-2.7c-2.5-2.1-4.4-4.8-5.4-7.9c-2.5-8.2-2.5-17,0-25.2c1-3.1,2.9-5.9,5.4-8
		c5.1-3.7,11.9-3.7,17,0c2.5,2.1,4.4,4.9,5.4,8c2.5,8.2,2.5,17,0,25.2c-1,3.1-2.9,5.8-5.4,7.9
		C583.8,1575.9,580.7,1576.9,577.6,1576.7z M577.6,1571.9c3.3,0,6.3-1.9,7.7-4.8c2.1-4.2,3-8.9,2.7-13.6c0.1-3.4-0.3-6.7-1.2-10
		c-0.6-2.4-1.9-4.5-3.6-6.3c-1.5-1.4-3.5-2.2-5.6-2.2c-3.3,0-6.3,1.9-7.7,4.8c-2.1,4.2-3,8.9-2.8,13.7c-0.1,3.4,0.4,6.7,1.2,10
		c0.6,2.4,1.9,4.5,3.6,6.3C573.5,1571.1,575.5,1571.9,577.6,1571.9z"/>
	<path d="M601.4,1587.2v-40.5h4.2v17.4c0,1.4,0.3,2.9,1,4.2c0.7,1.2,1.7,2.2,2.9,2.8c1.3,0.7,2.7,1,4.1,1c1.4,0,2.9-0.3,4.2-1
		c1.2-0.7,2.2-1.6,2.8-2.8c0.7-1.3,1-2.7,1-4.2v-17.4h4.5v29.4h-4v-4.4h-0.2c-0.7,1.5-1.9,2.7-3.3,3.6c-2.8,1.6-6.3,1.6-9.1,0
		c-1.4-0.8-2.6-2.1-3.3-3.6h-0.6v15.4L601.4,1587.2L601.4,1587.2z"/>
	<path d="M646.6,1587.7c-1.9,0.1-3.8-0.2-5.6-0.8c-1.4-0.5-2.7-1.2-3.9-2.2c-1-0.8-1.8-1.8-2.5-2.9l3.6-2.5c0.4,0.5,0.9,1.2,1.5,1.9
		c0.8,0.8,1.6,1.4,2.6,1.8c1.3,0.5,2.7,0.8,4.1,0.7c2.1,0.1,4.2-0.5,5.9-1.7c1.6-1.3,2.5-3.3,2.3-5.4v-6h-0.4
		c-0.4,0.7-0.9,1.3-1.4,1.9c-0.7,0.9-1.6,1.6-2.6,2.1c-1.4,0.7-3,1-4.6,0.9c-2.2,0-4.5-0.6-6.4-1.7c-1.9-1.2-3.5-2.9-4.5-4.9
		c-1.1-2.4-1.7-5.1-1.6-7.8c-0.1-2.7,0.5-5.4,1.6-7.9c1-2.1,2.5-3.9,4.4-5.2c1.9-1.3,4.2-1.9,6.6-1.9c1.6,0,3.1,0.3,4.6,1
		c1,0.5,1.9,1.3,2.6,2.2c0.6,0.8,1.1,1.5,1.4,2h0.5v-4.6h4.6v30.3c0.1,2.2-0.5,4.4-1.7,6.2c-1.1,1.6-2.7,2.8-4.6,3.5
		C651,1587.4,648.8,1587.8,646.6,1587.7z M646.6,1571.6c1.6,0,3.2-0.4,4.6-1.2c1.3-0.9,2.3-2.1,2.9-3.6c0.7-1.8,1-3.7,1-5.6
		s-0.3-3.8-1-5.6c-0.6-1.5-1.6-2.8-2.9-3.8c-1.3-1-3-1.5-4.6-1.4c-1.7-0.1-3.4,0.5-4.8,1.4c-1.3,1.1-2.3,2.5-2.8,4.2
		c-0.7,1.7-1,3.6-1,5.4s0.3,3.7,1,5.4c0.6,1.5,1.6,2.8,2.9,3.7C643.3,1571.3,644.9,1571.7,646.6,1571.6L646.6,1571.6z"/>
	<path d="M681.5,1535l-12.5,47h-4.2l12.7-47H681.5z"/>
	<path d="M686.9,1576.1v-29.4h4.2v4.6h0.4c0.6-1.5,1.6-2.8,3-3.7c1.5-0.9,3.2-1.4,4.9-1.3c1.7-0.1,3.4,0.4,4.9,1.3
		c1.3,0.9,2.4,2.2,3.1,3.7h0.2c0.8-1.5,1.9-2.8,3.4-3.6c1.6-0.9,3.5-1.4,5.4-1.4c2.4-0.1,4.7,0.8,6.5,2.5c1.8,2.1,2.7,4.9,2.5,7.6
		v19.7h-4.5v-19.8c0.2-1.7-0.5-3.5-1.8-4.6c-1.2-0.9-2.7-1.4-4.2-1.4c-1.8-0.1-3.5,0.6-4.8,1.9c-1.1,1.3-1.8,3-1.7,4.7v19.2h-4.6
		v-20.2c0.1-1.6-0.5-3.1-1.7-4.2c-1.1-1-2.6-1.6-4.1-1.5c-1.2,0-2.3,0.4-3.3,1s-1.9,1.5-2.5,2.6c-0.6,1.2-0.9,2.5-0.9,3.9v18.4
		L686.9,1576.1z"/>
	<path d="M739.7,1558.4c-1.3,0-2.7-0.2-3.9-0.7c-1.1-0.5-2-1.2-2.7-2.1s-1.1-2-1.1-3.2h2.8c0,0.7,0.3,1.4,0.8,1.9
		c0.5,0.6,1.1,1,1.7,1.2c1.6,0.6,3.4,0.5,5-0.1c0.7-0.3,1.4-0.8,1.8-1.5c0.5-0.6,0.7-1.4,0.7-2.1c0-0.8-0.2-1.5-0.6-2.2
		c-0.4-0.7-1.1-1.2-1.8-1.5c-0.9-0.4-1.9-0.6-2.9-0.5h-1.8v-2.4h1.8c0.8,0,1.6-0.2,2.4-0.5c0.7-0.3,1.2-0.8,1.6-1.4
		c0.4-0.6,0.6-1.3,0.6-2.1c0-0.7-0.2-1.4-0.5-2s-0.8-1-1.5-1.3s-1.4-0.5-2.2-0.5s-1.5,0.2-2.2,0.4c-0.7,0.3-1.2,0.7-1.7,1.2
		c-0.5,0.6-0.7,1.3-0.8,2h-2.6c0-1.1,0.4-2.2,1.1-3.2c0.7-0.9,1.6-1.6,2.7-2.1c1.2-0.5,2.4-0.8,3.7-0.8s2.5,0.3,3.6,0.9
		c1.9,1,3.1,3.1,3.2,5.3c0,1.2-0.3,2.3-1,3.3c-0.7,0.9-1.6,1.6-2.7,1.9l0,0c1.3,0.2,2.5,0.8,3.4,1.8c0.8,1,1.3,2.3,1.2,3.7
		c0,1.2-0.3,2.4-1,3.4s-1.6,1.8-2.7,2.3C742.5,1558.1,741.1,1558.4,739.7,1558.4z"/>
	
		<ellipse transform="matrix(3.327800e-02 -0.9994 0.9994 3.327800e-02 -1362.2167 1835.8713)" class="st3" cx="267.9" cy="1622.1" rx="14.3" ry="14.3"/>
	<path class="st3" d="M322,1645.8v-45.3h15.3c3-0.1,6,0.5,8.8,1.9c2.1,1.2,3.9,3,5,5.1c2.2,4.6,2.2,9.9,0,14.5c-1.1,2.2-2.8,4-5,5.2
		c-2.7,1.4-5.6,2-8.6,1.9h-11v-4.8h10.8c2,0.1,4-0.3,5.9-1.2c1.4-0.8,2.6-2,3.2-3.4c1.3-3.1,1.3-6.6,0-9.7c-0.7-1.5-1.8-2.6-3.2-3.4
		c-1.8-0.9-3.9-1.3-5.9-1.2h-9.6v40.4H322z"/>
	<path class="st3" d="M361.5,1600.6h6.6l15.4,37.4h0.4l15.4-37.4h6.6v45.3h-5.1v-34.4h-0.2l-14.2,34.4h-5l-14.1-34.4h-0.4v34.4h-5.1
		L361.5,1600.6z"/>
	<path class="st3" d="M432,1600.6v45.3h-5.5v-39.6h-0.2l-11.1,7.3v-5.5l11.3-7.5L432,1600.6z"/>
	<path class="st3" d="M459.8,1646.5c-3,0-5.9-0.9-8.3-2.7c-2.5-2.1-4.3-4.8-5.4-7.9c-2.5-8.2-2.5-17,0-25.2c1-3.1,2.9-5.9,5.4-8
		c5.1-3.7,11.9-3.7,17,0c2.5,2.1,4.4,4.9,5.4,8c2.5,8.2,2.5,17,0,25.2c-1,3.1-2.9,5.9-5.4,7.9C466,1645.6,462.9,1646.6,459.8,1646.5
		z M459.8,1641.6c3.3,0,6.3-1.8,7.7-4.8c2.1-4.2,3-8.9,2.7-13.6c0.1-3.4-0.4-6.7-1.2-10c-0.6-2.4-1.9-4.6-3.6-6.3
		c-1.5-1.4-3.5-2.2-5.6-2.2c-3.3,0-6.3,1.8-7.6,4.8c-2.1,4.2-3,8.9-2.8,13.7c-0.1,3.4,0.3,6.7,1.2,10c0.6,2.4,1.8,4.5,3.6,6.3
		C455.7,1640.9,457.7,1641.6,459.8,1641.6z"/>
	<path class="st3" d="M514,1625.7l-28.5,14.5v-5.7l21.9-10.5v-0.2l-21.9-10.5v-5.7l28.5,14.5V1625.7z"/>
	<path class="st3" d="M539.1,1646.5c-2.4,0-4.8-0.5-7-1.6c-2-1-3.7-2.4-5-4.2c-1.2-1.8-1.9-3.9-2-6.1h5.3c0.2,2,1.2,3.8,2.8,5.1
		c1.7,1.3,3.8,2.1,6,2c3.5,0,6.6-1.9,8.3-4.9c0.8-1.6,1.3-3.4,1.2-5.2c0-1.9-0.4-3.7-1.3-5.3c-0.8-1.5-2.1-2.8-3.6-3.7
		c-1.6-0.9-3.3-1.4-5.1-1.4c-1.4,0-2.8,0.2-4.2,0.6c-1.3,0.4-2.5,0.9-3.6,1.7l-5.1-0.6l2.7-22.3H552v4.6h-18.9l-1.6,13.4h0.3
		c1-0.8,2.2-1.4,3.5-1.8c1.3-0.5,2.7-0.7,4.1-0.8c5.2,0,10,2.8,12.5,7.4c1.3,2.4,1.9,5.1,1.9,7.8c0,2.7-0.6,5.4-2,7.8
		c-1.3,2.2-3.1,4.1-5.3,5.3C544.4,1645.7,541.8,1646.4,539.1,1646.5z"/>
	<path class="st3" d="M577.6,1646.5c-3,0-5.9-0.9-8.3-2.7c-2.5-2.1-4.3-4.8-5.4-7.9c-2.5-8.2-2.5-17,0-25.2c1-3.1,2.9-5.9,5.4-8
		c5.1-3.7,11.9-3.7,17,0c2.5,2.1,4.4,4.9,5.4,8c2.5,8.2,2.5,17,0,25.2c-1,3.1-2.9,5.9-5.4,7.9
		C583.8,1645.6,580.7,1646.6,577.6,1646.5z M577.6,1641.6c3.3,0,6.3-1.8,7.7-4.8c2.1-4.2,3-8.9,2.7-13.6c0.1-3.4-0.3-6.7-1.2-10
		c-0.6-2.4-1.9-4.6-3.6-6.3c-1.5-1.4-3.5-2.2-5.6-2.2c-3.3,0-6.3,1.8-7.6,4.8c-2.1,4.2-3,8.9-2.8,13.7c-0.1,3.4,0.4,6.7,1.2,10
		c0.6,2.4,1.8,4.5,3.6,6.3C573.5,1640.9,575.5,1641.6,577.6,1641.6z"/>
	<path class="st3" d="M601.2,1656.9v-40.5h4.5v17.4c0,1.4,0.3,2.9,1,4.2c0.7,1.2,1.6,2.2,2.8,2.8c1.3,0.7,2.7,1,4.1,1
		c1.4,0,2.9-0.3,4.2-1c1.2-0.7,2.2-1.6,2.8-2.8c0.7-1.3,1-2.7,1-4.2v-17.4h4.5v29.4h-4.5v-4.4h-0.2c-0.7,1.5-1.9,2.7-3.3,3.6
		c-2.8,1.6-6.3,1.6-9.2,0c-1.4-0.8-2.6-2.1-3.3-3.6l0,0v15.4L601.2,1656.9L601.2,1656.9z"/>
	<path class="st3" d="M646.7,1657.5c-1.9,0.1-3.8-0.2-5.7-0.8c-1.4-0.5-2.7-1.2-3.9-2.2c-1-0.8-1.8-1.8-2.5-2.9l3.6-2.5
		c0.4,0.5,0.9,1.2,1.5,1.9c0.7,0.8,1.6,1.4,2.6,1.8c1.3,0.5,2.7,0.8,4.2,0.7c2.1,0.1,4.2-0.5,5.9-1.7c1.6-1.3,2.5-3.3,2.3-5.4v-6
		h-0.4c-0.4,0.7-0.9,1.3-1.4,1.9c-0.7,0.9-1.6,1.6-2.6,2.1c-1.4,0.7-3,1-4.6,0.9c-2.2,0-4.5-0.6-6.4-1.7c-1.9-1.2-3.5-2.9-4.4-4.9
		c-1.2-2.4-1.7-5.1-1.7-7.8c-0.1-2.7,0.5-5.4,1.6-7.9c0.9-2.1,2.5-3.9,4.4-5.2c2-1.3,4.2-1.9,6.6-1.9c1.6-0.1,3.1,0.3,4.6,1
		c1,0.5,1.9,1.3,2.6,2.2c0.6,0.8,1.1,1.4,1.4,2h0.5v-4.7h4.2v30.3c0.1,2.2-0.5,4.4-1.7,6.2c-1.1,1.6-2.8,2.8-4.6,3.5
		C650.7,1657.2,648.7,1657.5,646.7,1657.5z M646.7,1641.3c1.6,0,3.2-0.4,4.6-1.2c1.3-0.9,2.3-2.1,2.9-3.6c0.7-1.8,1-3.7,1-5.6
		c0.1-1.9-0.3-3.8-1-5.6c-0.6-1.5-1.5-2.8-2.8-3.8s-3-1.5-4.7-1.4c-1.7-0.1-3.4,0.5-4.8,1.4c-1.3,1.1-2.3,2.5-2.9,4.2
		c-0.7,1.7-1,3.6-1,5.4s0.3,3.7,1,5.4c0.6,1.5,1.6,2.8,2.9,3.7c1.4,0.8,3,1.2,4.6,1.1H646.7z"/>
	<path class="st3" d="M681.5,1604.7l-12.7,47h-4.1l12.5-47H681.5z"/>
	<path class="st3" d="M686.9,1645.8v-29.4h4.4v4.6h0.4c0.6-1.5,1.6-2.8,2.9-3.7c1.5-0.9,3.2-1.4,4.9-1.3c1.7-0.1,3.4,0.4,4.9,1.3
		c1.3,0.9,2.4,2.2,3,3.7h0.2c0.8-1.5,1.9-2.8,3.4-3.6c1.7-1,3.6-1.4,5.5-1.4c2.4-0.1,4.7,0.8,6.4,2.5c1.9,2.1,2.8,4.9,2.5,7.6v19.7
		h-4.5V1626c0.2-1.7-0.5-3.5-1.8-4.7c-1.2-0.9-2.6-1.4-4.2-1.4c-1.8-0.1-3.6,0.6-4.8,1.9c-1.1,1.3-1.8,3-1.7,4.7v19.2h-4.5v-20.2
		c0.1-1.6-0.5-3.1-1.6-4.2c-1.1-1-2.6-1.6-4.1-1.5c-1.2,0-2.3,0.4-3.3,1s-1.9,1.5-2.5,2.6c-0.6,1.2-1,2.5-1,3.9v18.4L686.9,1645.8z"
		/>
	<path class="st3" d="M739.8,1627.2c-1.4,0.1-2.8-0.2-4.2-0.8c-1.1-0.4-2-1.2-2.7-2.1s-1.1-2-1.1-3.2h2.8c0.1,0.7,0.3,1.4,0.8,1.9
		c0.5,0.6,1.1,1,1.7,1.2c1.6,0.6,3.4,0.6,5,0c0.7-0.3,1.3-0.8,1.8-1.5c1.3-1.1,1.4-2.9,0.4-4.2c-0.4-0.7-1.1-1.2-1.8-1.5
		c-0.9-0.4-1.9-0.6-3-0.5h-1.8v-2.4h1.8c0.8,0,1.7-0.2,2.4-0.5s1.2-0.8,1.6-1.4c0.4-0.6,0.6-1.3,0.6-2.1c0-0.7-0.2-1.4-0.5-2
		s-0.8-1-1.5-1.3s-1.4-0.5-2.2-0.5s-1.5,0.2-2.2,0.5c-0.6,0.3-1.2,0.7-1.7,1.2c-0.4,0.6-0.7,1.3-0.7,2h-2.8c0-1.1,0.4-2.2,1.1-3.2
		c0.7-0.9,1.6-1.6,2.7-2.1c1.1-0.5,2.4-0.8,3.6-0.8c1.3,0,2.5,0.3,3.7,0.9c1,0.5,1.8,1.3,2.3,2.2c0.5,0.9,0.8,1.9,0.8,3
		c0,1.2-0.3,2.3-1,3.3c-0.7,0.9-1.6,1.6-2.7,1.9l0,0c1.3,0.2,2.5,0.8,3.4,1.8c0.8,1,1.2,2.3,1.2,3.7c0,1.2-0.3,2.4-1,3.4
		s-1.6,1.8-2.7,2.3C742.5,1627,741.2,1627.2,739.8,1627.2z"/>
	<g class="st4">
		
			<ellipse transform="matrix(2.384947e-02 -0.9997 0.9997 2.384947e-02 -1429.6244 1915.213)" class="st3" cx="265.9" cy="1689.7" rx="14.3" ry="14.3"/>
	</g>
	
		<ellipse transform="matrix(8.473319e-03 -1 1 8.473319e-03 -1425.8617 1941.1534)" class="st3" cx="265.9" cy="1689.6" rx="5.1" ry="5.1"/>
	<path d="M322,1708.2v-37.8h22.8v4.1h-18.2v12.8h17.1v4.1h-17.1v12.8h18.5v4.1L322,1708.2z"/>
	<path d="M375.7,1679.9l-10.5,28.4h-4.4l-10.5-28.4h4.7l7.8,22.6h0.3l7.8-22.6H375.7z"/>
	<path d="M392.3,1708.8c-2.5,0.1-4.9-0.6-7.1-1.8c-2-1.2-3.6-3-4.6-5.1c-1.1-2.4-1.6-5-1.6-7.6c-0.1-2.7,0.5-5.3,1.6-7.7
		c1-2.1,2.5-3.9,4.5-5.2c2-1.3,4.3-1.9,6.7-1.9c1.5,0,3,0.3,4.4,0.7c1.5,0.5,2.8,1.3,3.9,2.4c1.3,1.2,2.2,2.7,2.8,4.4
		c0.7,2.1,1.1,4.4,1,6.7v1.8h-21.8v-3.8h17.4c0-1.5-0.3-2.9-1-4.3c-0.6-1.2-1.5-2.3-2.7-3s-2.7-1.1-4.1-1.1c-1.6,0-3.2,0.4-4.5,1.3
		c-1.2,0.8-2.3,2-2.9,3.3c-0.7,1.4-1,2.9-1,4.4v2.5c-0.1,1.9,0.3,3.7,1.1,5.4c0.7,1.4,1.8,2.6,3.1,3.4c1.4,0.8,3,1.2,4.6,1.2
		c1.1,0,2.1-0.2,3.1-0.5c0.9-0.3,1.7-0.8,2.4-1.5c0.7-0.7,1.2-1.5,1.6-2.5l4.2,1.2c-0.4,1.4-1.2,2.7-2.2,3.8c-1.1,1.1-2.4,2-3.9,2.5
		C395.9,1708.5,394.1,1708.8,392.3,1708.8z"/>
	<path d="M415.1,1691.2v17.1h-4.4v-28.4h4.2v4.4h0.4c0.6-1.4,1.7-2.6,3-3.5c1.6-0.9,3.4-1.4,5.2-1.3c1.7,0,3.5,0.4,5,1.2
		c1.5,0.8,2.6,2,3.4,3.6c0.9,1.9,1.3,3.9,1.2,6v18h-4.4v-17.7c0.1-1.9-0.5-3.8-1.7-5.2c-1.2-1.3-3-2-4.8-1.9c-1.3,0-2.6,0.3-3.7,0.9
		s-2,1.5-2.6,2.6C415.3,1688.3,415,1689.7,415.1,1691.2z"/>
	<path d="M453.5,1679.9v3.7h-14.7v-3.7H453.5z M443,1673.1h4.4v27c-0.1,1,0.1,1.9,0.5,2.8c0.3,0.6,0.8,1,1.4,1.2s1.2,0.3,1.8,0.3
		c0.4,0,0.8,0,1.2-0.1l0.7-0.1l0.9,3.9c-0.4,0.1-0.8,0.3-1.2,0.3c-0.7,0.1-1.3,0.2-2,0.2c-1.2,0-2.5-0.3-3.6-0.8
		c-1.2-0.5-2.2-1.4-2.9-2.4c-0.8-1.2-1.2-2.6-1.1-4.1L443,1673.1z"/>
	<path d="M471.3,1708.8c-4.8,0.1-9.2-2.6-11.2-6.9c-1.1-2.4-1.7-5-1.6-7.7c-0.1-2.7,0.5-5.3,1.6-7.7c2.9-6.2,10.3-8.9,16.6-5.9
		c2.6,1.2,4.7,3.3,5.9,5.9c1.1,2.4,1.7,5.1,1.6,7.7c0.1,2.7-0.5,5.3-1.6,7.7C480.5,1706.2,476.1,1709,471.3,1708.8z M471.3,1704.9
		c1.7,0.1,3.4-0.5,4.8-1.5c1.3-1,2.2-2.4,2.8-3.9c0.6-1.7,0.9-3.5,0.9-5.3s-0.3-3.6-0.9-5.3c-0.5-1.6-1.5-2.9-2.8-4
		c-2.9-2-6.7-2-9.6,0c-1.3,1-2.3,2.4-2.8,4c-0.6,1.7-0.9,3.5-0.9,5.3s0.3,3.6,0.9,5.3c0.5,1.5,1.5,2.9,2.8,3.9
		C467.9,1704.5,469.5,1705,471.3,1704.9L471.3,1704.9z"/>
</g>
</svg>
