<svg id="Livello_1" data-name="Livello 1" xmlns="http://www.w3.org/2000/svg" viewBox="0 0 1175.99 901"><defs><style>.cls-1{isolation:isolate;}.cls-2{fill:#b8b8b8;}.cls-3{fill:#efefef;}.cls-4{fill:#ff3a00;}.cls-5{fill:#a8f9ff;}</style></defs><g class="cls-1"><path d="M206.91,774.12h6.78v1.19h-5.41V779h4.28v1.19h-4.28v4.17h-1.37Z"/><path d="M215.48,774.12h6.9v1.19h-5.53v3.25h4.4v1.19h-4.4v3.42h5.65v1.19h-7Z"/><path d="M224.53,774.12h4.22c2.22,0,3.27,1,3.27,2.68a2.16,2.16,0,0,1-1.6,2.14V779a2.32,2.32,0,0,1,2,2.32c0,1.75-1.17,3-3.39,3h-4.52Zm1.36,1.19v3.16h2.86a1.68,1.68,0,0,0,1.91-1.68c0-.9-.54-1.48-1.91-1.48Zm0,4.35v3.51h3.16a1.76,1.76,0,0,0,2-1.83c0-1-.65-1.68-2-1.68Z"/></g><g class="cls-1"><path d="M132.34,782.87h-.05a3.59,3.59,0,0,1-3.34,1.67A5.3,5.3,0,0,1,129,774a4.28,4.28,0,0,1,4.46,3.21H132a2.9,2.9,0,0,0-3-2c-2.22,0-3.63,1.72-3.63,4s1.47,4,3.57,4c1.71,0,3.27-1,3.27-2.86v-.3H129v-1.19h4.46v5.42h-.89Z"/><path d="M135.91,774.12h6.91v1.19h-5.54v3.25h4.41v1.19h-4.41v3.42h5.66v1.19h-7Z"/><path d="M145,774.12h1.31L152,782H152l-.06-7.92h1.37v10.24H152l-5.65-7.86h-.06l.06,7.86H145Z"/></g><g class="cls-1"><path d="M284.72,774.12h1.66l3.77,8.39h0l3.7-8.39h1.67v10.24h-1.37l.12-8.09h-.06l-3.57,8.09H289.6L286,776.44H286l.12,7.92h-1.37Z"/><path d="M300.85,774.12h1.6l3.81,10.24h-1.43l-1-2.68h-4.5l-1,2.68H297Zm.74,1.43-1.78,4.94h3.63l-1.79-4.94Z"/><path d="M307.75,774.12h3.87c2.33,0,3.57,1.12,3.57,3a2.93,2.93,0,0,1-2.25,3.05l2.61,4.15h-1.49l-2.54-4h-2.4v4h-1.37Zm1.37,1.19v3.87h2.56a1.93,1.93,0,0,0,2.14-2c0-1.13-.77-1.85-2.14-1.85Z"/></g><g class="cls-1"><path d="M372.51,774.12h1.61l3.81,10.24H376.5l-1-2.68H371l-1,2.68H368.7Zm.75,1.43-1.79,4.94h3.63l-1.79-4.94Z"/><path d="M379.42,774.12h3.86c2.34,0,3.63,1.36,3.63,3.28a3.3,3.3,0,0,1-3.63,3.39h-2.49v3.57h-1.37Zm1.37,1.19v4.29h2.55a2.06,2.06,0,0,0,2.21-2.2,2,2,0,0,0-2.21-2.09Z"/><path d="M388.88,774.12h3.87c2.33,0,3.57,1.12,3.57,3a2.93,2.93,0,0,1-2.25,3.05l2.61,4.15h-1.49l-2.55-4h-2.39v4h-1.37Zm1.37,1.19v3.87h2.56a1.93,1.93,0,0,0,2.14-2c0-1.13-.77-1.85-2.14-1.85Z"/></g><g class="cls-1"><path d="M450.31,774.12H452l3.76,8.39h0l3.7-8.39h1.67v10.24h-1.37l.12-8.09h-.06l-3.57,8.09h-1.07l-3.57-7.92h-.06l.12,7.92h-1.37Z"/><path d="M466.44,774.12h1.61l3.8,10.24h-1.42l-1-2.68H465l-1,2.68h-1.37Zm.74,1.43-1.78,4.94H469l-1.79-4.94Z"/><path d="M480.78,782.87h0a3.6,3.6,0,0,1-3.35,1.67,5.3,5.3,0,0,1,.06-10.59,4.28,4.28,0,0,1,4.46,3.21h-1.42a2.91,2.91,0,0,0-3-2c-2.22,0-3.63,1.72-3.63,4s1.47,4,3.57,4c1.71,0,3.27-1,3.27-2.86v-.3h-3.21v-1.19h4.46v5.42H481Z"/></g><g class="cls-1"><path d="M545.36,782.87h0a3.6,3.6,0,0,1-3.35,1.67A5.3,5.3,0,0,1,542,774a4.3,4.3,0,0,1,4.47,3.21h-1.43a2.91,2.91,0,0,0-3-2c-2.21,0-3.63,1.72-3.63,4s1.48,4,3.57,4c1.71,0,3.28-1,3.28-2.86v-.3H542v-1.19h4.47v5.42h-.9Z"/><path d="M548.94,774.12h1.37v10.24h-1.37Z"/><path d="M552.69,774.12h1.37v6.19c0,1.88.88,3,2.73,3s2.74-1.1,2.74-3v-6.19h1.37v6.19c0,3-1.68,4.23-4.11,4.23s-4.1-1.19-4.1-4.23Z"/></g><g class="cls-1"><path d="M618.76,774.12h1.37v9h5v1.19h-6.37Z"/><path d="M626.38,774.12h1.37v6.19c0,1.88.87,3,2.73,3s2.74-1.1,2.74-3v-6.19h1.37v6.19c0,3-1.68,4.23-4.11,4.23s-4.1-1.19-4.1-4.23Z"/><path d="M644.83,782.87h-.05a3.6,3.6,0,0,1-3.34,1.67A5.3,5.3,0,0,1,641.5,774a4.28,4.28,0,0,1,4.46,3.21h-1.43a2.9,2.9,0,0,0-3-2c-2.22,0-3.63,1.72-3.63,4s1.47,4,3.57,4c1.71,0,3.27-1,3.27-2.86v-.3H641.5v-1.19H646v5.42h-.89Z"/></g><g class="cls-1"><path d="M704.79,774.12h1.61l3.81,10.24h-1.43l-1-2.68h-4.49l-1,2.68H701Zm.75,1.43-1.79,4.94h3.63l-1.78-4.94Z"/><path d="M719.14,782.87h0a3.6,3.6,0,0,1-3.34,1.67,5.3,5.3,0,0,1,.06-10.59,4.28,4.28,0,0,1,4.46,3.21h-1.43a2.9,2.9,0,0,0-3-2c-2.22,0-3.63,1.72-3.63,4s1.47,4,3.57,4c1.71,0,3.27-1,3.27-2.86v-.3h-3.21v-1.19h4.46v5.42h-.89Z"/><path d="M727.06,774a5.3,5.3,0,0,1,0,10.59c-3,0-5-2.25-5-5.3S724.06,774,727.06,774Zm0,9.34c2.15,0,3.57-1.73,3.57-4s-1.42-4-3.57-4-3.58,1.72-3.58,4S724.9,783.29,727.06,783.29Z"/></g><g class="cls-1"><path d="M788.34,781.44c0,1.12.95,2,2.55,2s2.62-.7,2.62-1.91c0-2.7-6.39-.65-6.39-4.58,0-1.74,1.5-3,3.77-3s3.75,1.08,3.75,2.91h-1.37c0-1.13-1-1.78-2.38-1.78s-2.38.58-2.38,1.72c0,2.68,6.43.57,6.43,4.64,0,1.85-1.49,3.1-4.05,3.1s-3.92-1.25-3.92-3.1Z"/><path d="M797.09,774.12H804v1.19h-5.54v3.25h4.41v1.19h-4.41v3.42h5.66v1.19h-7Z"/><path d="M805,774.12h8.51v1.16h-3.57v9.08h-1.37v-9.08H805Z"/></g><g class="cls-1"><path d="M874.52,774a5.3,5.3,0,0,1,0,10.59c-3,0-5-2.25-5-5.3S871.53,774,874.52,774Zm0,9.34c2.16,0,3.58-1.73,3.58-4s-1.42-4-3.58-4-3.57,1.72-3.57,4S872.37,783.29,874.52,783.29Z"/><path d="M879.77,774.12h8.5v1.16H884.7v9.08h-1.36v-9.08h-3.57Z"/><path d="M888.52,774.12H897v1.16h-3.57v9.08h-1.36v-9.08h-3.57Z"/></g><g class="cls-1"><path d="M951.85,774.12h1.3l5.66,7.92h.06l-.06-7.92h1.37v10.24h-1.31l-5.66-7.86h-.06l.06,7.86h-1.36Z"/><path d="M967.14,774a5.3,5.3,0,0,1,0,10.59c-3,0-5-2.25-5-5.3S964.15,774,967.14,774Zm0,9.34c2.16,0,3.57-1.73,3.57-4s-1.41-4-3.57-4-3.57,1.72-3.57,4S965,783.29,967.14,783.29Z"/><path d="M972.62,774.12h1.43l3.06,8.81h.06l3.07-8.81h1.36l-3.74,10.24h-1.52Z"/></g><g class="cls-1"><path d="M1036.67,774.12h3.16c3.52,0,5.35,2.13,5.35,5.12s-1.83,5.12-5.35,5.12h-3.16Zm1.37,1.19v7.86h1.79a3.93,3.93,0,0,0,0-7.86Z"/><path d="M1047.15,774.12h1.37v10.24h-1.37Z"/><path d="M1055.42,774a4.14,4.14,0,0,1,4.35,3.39h-1.42a2.74,2.74,0,0,0-2.93-2.14c-2.1,0-3.51,1.66-3.51,4s1.41,4,3.45,4a2.73,2.73,0,0,0,3-2.14h1.42a4.21,4.21,0,0,1-4.41,3.39c-2.87,0-4.88-2.19-4.88-5.3S1052.49,774,1055.42,774Z"/></g><g class="cls-1"><path class="cls-2" d="M68.4,761.3c0-3,1-5.29,3.57-5.29s3.57,2.32,3.57,5.29-1,5.3-3.57,5.3S68.4,764.28,68.4,761.3Zm5.78,0c0-2.62-.72-4.1-2.21-4.1s-2.2,1.48-2.2,4.1.72,4.11,2.2,4.11S74.18,763.92,74.18,761.3Z"/></g><g class="cls-1"><path class="cls-2" d="M60.19,700.16l3.27-2.26h1V707h2.44v1.13H60.55V707h2.61v-7.49l-2.38,1.65Z"/><path class="cls-2" d="M68.4,703c0-3,1-5.3,3.57-5.3s3.57,2.32,3.57,5.3-1,5.3-3.57,5.3S68.4,706,68.4,703Zm5.78,0c0-2.62-.72-4.11-2.21-4.11s-2.2,1.49-2.2,4.11.72,4.11,2.2,4.11S74.18,705.64,74.18,703Z"/></g><g class="cls-1"><path class="cls-2" d="M62.63,645.45l1.13-.77c1.05-.73,1.72-1.13,1.72-2.32a1.75,1.75,0,0,0-1.9-1.79c-1.31,0-2,.72-2.08,2.09H60.31a3,3,0,0,1,3.27-3.22,2.89,2.89,0,0,1,3.21,2.92c0,1.78-1.14,2.42-2.2,3.15l-1.13.78c-1.55,1.05-1.78,1.8-1.84,2.43h5.29v1.14H60.13A4.85,4.85,0,0,1,62.63,645.45Z"/><path class="cls-2" d="M68.4,644.74c0-3,1-5.3,3.57-5.3s3.57,2.32,3.57,5.3S74.53,650,72,650,68.4,647.71,68.4,644.74Zm5.78,0c0-2.62-.72-4.11-2.21-4.11s-2.2,1.49-2.2,4.11.72,4.1,2.2,4.1S74.18,647.36,74.18,644.74Z"/></g><g class="cls-1"><path class="cls-2" d="M61.26,588.48a2,2,0,0,0,2.2,2.14c1.28,0,2.2-.68,2.2-1.89a2,2,0,0,0-2.2-1.89h-.77v-1.13h.77a1.77,1.77,0,0,0,1.85-1.77,1.67,1.67,0,0,0-1.85-1.65,1.7,1.7,0,0,0-1.84,1.84H60.43a3.07,3.07,0,0,1,6.13-.2,2.62,2.62,0,0,1-1.49,2.29v.06a2.62,2.62,0,0,1,1.9,2.56c0,1.83-1.56,2.91-3.51,2.91S60,590.68,60,588.48Z"/><path class="cls-2" d="M68.4,586.45c0-3,1-5.29,3.57-5.29s3.57,2.32,3.57,5.29-1,5.3-3.57,5.3S68.4,589.43,68.4,586.45Zm5.78,0c0-2.61-.72-4.1-2.21-4.1s-2.2,1.49-2.2,4.1.72,4.11,2.2,4.11S74.18,589.07,74.18,586.45Z"/></g><g class="cls-1"><path class="cls-2" d="M59.77,529.78l4.94-6.72h1.07v6.54h1.49v1.13H65.78v2.56H64.47v-2.56h-4.7Zm4.7-.18v-4.51l-3.36,4.51Z"/><path class="cls-2" d="M68.4,528.17c0-3,1-5.29,3.57-5.29s3.57,2.32,3.57,5.29-1,5.3-3.57,5.3S68.4,531.15,68.4,528.17Zm5.78,0c0-2.61-.72-4.1-2.21-4.1s-2.2,1.49-2.2,4.1.72,4.11,2.2,4.11S74.18,530.79,74.18,528.17Z"/></g><g class="cls-1"><path class="cls-2" d="M61.32,472.27a2,2,0,0,0,2.2,1.79,2.23,2.23,0,0,0,0-4.46,2.46,2.46,0,0,0-2,1l-1.19-.06.29-5.78h5.78V466H61.85l-.17,3.22h.06a2.67,2.67,0,0,1,2-.72A3.16,3.16,0,0,1,67,471.74a3.32,3.32,0,0,1-3.51,3.45A3.17,3.17,0,0,1,60,472.27Z"/><path class="cls-2" d="M68.4,469.89c0-3,1-5.29,3.57-5.29s3.57,2.32,3.57,5.29-1,5.3-3.57,5.3S68.4,472.87,68.4,469.89Zm5.78,0c0-2.62-.72-4.1-2.21-4.1s-2.2,1.48-2.2,4.1S70.49,474,72,474,74.18,472.51,74.18,469.89Z"/></g><g class="cls-1"><path class="cls-2" d="M63.88,406.31A2.83,2.83,0,0,1,67,409.05H65.66a1.64,1.64,0,0,0-1.78-1.6c-1.21,0-2.43,1.05-2.5,4.09A2.93,2.93,0,0,1,64,410.18a3.09,3.09,0,0,1,3.21,3.33,3.31,3.31,0,0,1-3.45,3.4c-2,0-3.75-1.3-3.75-5.06C60,407.73,61.93,406.31,63.88,406.31Zm-2.32,7.22a2.14,2.14,0,0,0,2.14,2.25,2.24,2.24,0,0,0,.12-4.47A2.2,2.2,0,0,0,61.56,413.53Z"/><path class="cls-2" d="M68.4,411.61c0-3,1-5.3,3.57-5.3s3.57,2.33,3.57,5.3-1,5.3-3.57,5.3S68.4,414.59,68.4,411.61Zm5.78,0c0-2.62-.72-4.1-2.21-4.1s-2.2,1.48-2.2,4.1.72,4.11,2.2,4.11S74.18,414.23,74.18,411.61Z"/></g><g class="cls-1"><path class="cls-2" d="M65.66,349.4H60.07v-1.19h7v1l-4.34,9.29H61.38Z"/><path class="cls-2" d="M68.4,353.33c0-3,1-5.3,3.57-5.3s3.57,2.32,3.57,5.3-1,5.3-3.57,5.3S68.4,356.3,68.4,353.33Zm5.78,0c0-2.62-.72-4.11-2.21-4.11s-2.2,1.49-2.2,4.11.72,4.1,2.2,4.1S74.18,356,74.18,353.33Z"/></g><g class="cls-1"><path class="cls-2" d="M61.85,294.87v-.06a2.49,2.49,0,0,1-1.48-2.29c0-1.61,1.22-2.77,3.15-2.77s3.16,1.16,3.16,2.77a2.5,2.5,0,0,1-1.49,2.29v.06a2.62,2.62,0,0,1,1.9,2.56c0,1.83-1.44,2.91-3.57,2.91S60,299.26,60,297.43A2.62,2.62,0,0,1,61.85,294.87Zm1.67,4.34c1.33,0,2.26-.68,2.26-1.89a2.3,2.3,0,0,0-4.52,0C61.26,298.53,62.2,299.21,63.52,299.21Zm1.91-6.68a1.92,1.92,0,0,0-3.81,0,1.91,1.91,0,0,0,3.81,0Z"/><path class="cls-2" d="M68.4,295.05c0-3,1-5.3,3.57-5.3s3.57,2.32,3.57,5.3-1,5.29-3.57,5.29S68.4,298,68.4,295.05Zm5.78,0c0-2.62-.72-4.11-2.21-4.11s-2.2,1.49-2.2,4.11.72,4.1,2.2,4.1S74.18,297.66,74.18,295.05Z"/></g><g class="cls-1"><path class="cls-2" d="M63.28,242.06a2.94,2.94,0,0,1-3.21-2.74h1.31a1.79,1.79,0,0,0,1.9,1.61c1.39,0,2.32-1.06,2.38-4.08A3,3,0,0,1,63,238.19a3.09,3.09,0,0,1-3.21-3.33,3.3,3.3,0,0,1,3.45-3.39c2,0,3.75,1.29,3.75,5.06C67,240.65,65.41,242.06,63.28,242.06Zm2.2-7.21a2.17,2.17,0,1,0-4.34,0,2.1,2.1,0,0,0,2.08,2.2A2.19,2.19,0,0,0,65.48,234.85Z"/><path class="cls-2" d="M68.4,236.76c0-3,1-5.29,3.57-5.29s3.57,2.32,3.57,5.29-1,5.3-3.57,5.3S68.4,239.74,68.4,236.76Zm5.78,0c0-2.61-.72-4.1-2.21-4.1s-2.2,1.49-2.2,4.1.72,4.11,2.2,4.11S74.18,239.38,74.18,236.76Z"/></g><g class="cls-1"><path class="cls-2" d="M51.74,175.63,55,173.36h1v9.11h2.44v1.13H52.09v-1.13h2.62V175l-2.38,1.65Z"/><path class="cls-2" d="M60,178.48c0-3,1-5.29,3.57-5.29s3.57,2.32,3.57,5.29-1,5.3-3.57,5.3S60,181.46,60,178.48Zm5.77,0c0-2.62-.71-4.1-2.2-4.1s-2.2,1.48-2.2,4.1.71,4.11,2.2,4.11S65.72,181.1,65.72,178.48Z"/><path class="cls-2" d="M68.4,178.48c0-3,1-5.29,3.57-5.29s3.57,2.32,3.57,5.29-1,5.3-3.57,5.3S68.4,181.46,68.4,178.48Zm5.78,0c0-2.62-.72-4.1-2.21-4.1s-2.2,1.48-2.2,4.1.72,4.11,2.2,4.11S74.18,181.1,74.18,178.48Z"/></g><g class="cls-1"><path d="M1107.73,761.3c0-3,1-5.29,3.57-5.29s3.57,2.32,3.57,5.29-1,5.3-3.57,5.3S1107.73,764.28,1107.73,761.3Zm5.78,0c0-2.62-.72-4.1-2.21-4.1s-2.2,1.48-2.2,4.1.72,4.11,2.2,4.11S1113.51,763.92,1113.51,761.3Z"/></g><g class="cls-1"><path d="M1108,700.16l3.27-2.26h1V707h2.43v1.13h-6.36V707H1111v-7.49l-2.38,1.65Z"/><path d="M1116.19,703c0-3,1-5.3,3.57-5.3s3.57,2.32,3.57,5.3-1,5.3-3.57,5.3S1116.19,706,1116.19,703Zm5.77,0c0-2.62-.72-4.11-2.2-4.11s-2.21,1.49-2.21,4.11.72,4.11,2.21,4.11S1122,705.64,1122,703Z"/></g><g class="cls-1"><path d="M1110.41,645.45l1.13-.77c1.06-.73,1.73-1.13,1.73-2.32a1.76,1.76,0,0,0-1.91-1.79c-1.31,0-2,.72-2.08,2.09h-1.19a3,3,0,0,1,3.27-3.22c1.88,0,3.22,1.09,3.22,2.92s-1.15,2.42-2.21,3.15l-1.13.78c-1.54,1.05-1.78,1.8-1.84,2.43h5.29v1.14h-6.78A4.87,4.87,0,0,1,1110.41,645.45Z"/><path d="M1116.19,644.74c0-3,1-5.3,3.57-5.3s3.57,2.32,3.57,5.3-1,5.29-3.57,5.29S1116.19,647.71,1116.19,644.74Zm5.77,0c0-2.62-.72-4.11-2.2-4.11s-2.21,1.49-2.21,4.11.72,4.1,2.21,4.1S1122,647.36,1122,644.74Z"/></g><g class="cls-1"><path d="M1109,588.48a2,2,0,0,0,2.2,2.14c1.28,0,2.21-.68,2.21-1.89a2,2,0,0,0-2.21-1.89h-.77v-1.13h.77a1.76,1.76,0,0,0,1.85-1.77,1.67,1.67,0,0,0-1.85-1.65,1.7,1.7,0,0,0-1.84,1.84h-1.19a3.07,3.07,0,0,1,6.13-.2,2.62,2.62,0,0,1-1.49,2.29v.06a2.62,2.62,0,0,1,1.91,2.56c0,1.83-1.57,2.91-3.52,2.91s-3.45-1.07-3.45-3.27Z"/><path d="M1116.19,586.45c0-3,1-5.29,3.57-5.29s3.57,2.32,3.57,5.29-1,5.3-3.57,5.3S1116.19,589.43,1116.19,586.45Zm5.77,0c0-2.61-.72-4.1-2.2-4.1s-2.21,1.49-2.21,4.1.72,4.11,2.21,4.11S1122,589.07,1122,586.45Z"/></g><g class="cls-1"><path d="M1107.55,529.78l4.94-6.72h1.07v6.54h1.49v1.13h-1.49v2.56h-1.3v-2.56h-4.71Zm4.71-.18v-4.51l-3.37,4.51Z"/><path d="M1116.19,528.17c0-3,1-5.29,3.57-5.29s3.57,2.32,3.57,5.29-1,5.3-3.57,5.3S1116.19,531.15,1116.19,528.17Zm5.77,0c0-2.61-.72-4.1-2.2-4.1s-2.21,1.49-2.21,4.1.72,4.11,2.21,4.11S1122,530.79,1122,528.17Z"/></g><g class="cls-1"><path d="M1109.1,472.27a2,2,0,0,0,2.2,1.79,2.23,2.23,0,0,0,0-4.46,2.46,2.46,0,0,0-2,1l-1.19-.06.3-5.78h5.77V466h-4.58l-.18,3.22h.06a2.69,2.69,0,0,1,2-.72,3.16,3.16,0,0,1,3.33,3.28,3.32,3.32,0,0,1-3.51,3.45,3.18,3.18,0,0,1-3.51-2.92Z"/><path d="M1116.19,469.89c0-3,1-5.29,3.57-5.29s3.57,2.32,3.57,5.29-1,5.3-3.57,5.3S1116.19,472.87,1116.19,469.89Zm5.77,0c0-2.62-.72-4.1-2.2-4.1s-2.21,1.48-2.21,4.1.72,4.11,2.21,4.11S1122,472.51,1122,469.89Z"/></g><g class="cls-1"><path d="M1111.66,406.31a2.84,2.84,0,0,1,3.1,2.74h-1.31a1.65,1.65,0,0,0-1.79-1.6c-1.21,0-2.42,1.05-2.5,4.09a3,3,0,0,1,2.62-1.36,3.09,3.09,0,0,1,3.21,3.33,3.31,3.31,0,0,1-3.45,3.4c-2,0-3.75-1.3-3.75-5.06C1107.79,407.73,1109.71,406.31,1111.66,406.31Zm-2.32,7.22a2.14,2.14,0,0,0,2.14,2.25,2.24,2.24,0,0,0,.12-4.47A2.2,2.2,0,0,0,1109.34,413.53Z"/><path d="M1116.19,411.61c0-3,1-5.3,3.57-5.3s3.57,2.33,3.57,5.3-1,5.3-3.57,5.3S1116.19,414.59,1116.19,411.61Zm5.77,0c0-2.62-.72-4.1-2.2-4.1s-2.21,1.48-2.21,4.1.72,4.11,2.21,4.11S1122,414.23,1122,411.61Z"/></g><g class="cls-1"><path d="M1113.45,349.4h-5.6v-1.19h7v1l-4.34,9.29h-1.37Z"/><path d="M1116.19,353.33c0-3,1-5.3,3.57-5.3s3.57,2.32,3.57,5.3-1,5.3-3.57,5.3S1116.19,356.3,1116.19,353.33Zm5.77,0c0-2.62-.72-4.11-2.2-4.11s-2.21,1.49-2.21,4.11.72,4.1,2.21,4.1S1122,356,1122,353.33Z"/></g><g class="cls-1"><path d="M1109.64,294.87v-.06a2.48,2.48,0,0,1-1.49-2.29c0-1.61,1.22-2.77,3.15-2.77s3.16,1.16,3.16,2.77a2.5,2.5,0,0,1-1.49,2.29v.06a2.62,2.62,0,0,1,1.9,2.56c0,1.83-1.44,2.91-3.57,2.91s-3.57-1.08-3.57-2.91A2.62,2.62,0,0,1,1109.64,294.87Zm1.66,4.34c1.33,0,2.26-.68,2.26-1.89a2.3,2.3,0,0,0-4.52,0C1109,298.53,1110,299.21,1111.3,299.21Zm1.91-6.68a1.92,1.92,0,0,0-3.81,0,1.91,1.91,0,0,0,3.81,0Z"/><path d="M1116.19,295.05c0-3,1-5.3,3.57-5.3s3.57,2.32,3.57,5.3-1,5.29-3.57,5.29S1116.19,298,1116.19,295.05Zm5.77,0c0-2.62-.72-4.11-2.2-4.11s-2.21,1.49-2.21,4.11.72,4.1,2.21,4.1S1122,297.66,1122,295.05Z"/></g><g class="cls-1"><path d="M1111.07,242.06a2.94,2.94,0,0,1-3.22-2.74h1.31a1.8,1.8,0,0,0,1.91,1.61c1.38,0,2.32-1.06,2.38-4.08a3,3,0,0,1-2.62,1.34,3.1,3.1,0,0,1-3.22-3.33,3.31,3.31,0,0,1,3.46-3.39c2,0,3.74,1.29,3.74,5.06C1114.81,240.65,1113.19,242.06,1111.07,242.06Zm2.2-7.21a2.16,2.16,0,0,0-2.15-2.25,2.14,2.14,0,0,0-2.2,2.26,2.1,2.1,0,0,0,2.09,2.2A2.2,2.2,0,0,0,1113.27,234.85Z"/><path d="M1116.19,236.76c0-3,1-5.29,3.57-5.29s3.57,2.32,3.57,5.29-1,5.3-3.57,5.3S1116.19,239.74,1116.19,236.76Zm5.77,0c0-2.61-.72-4.1-2.2-4.1s-2.21,1.49-2.21,4.1.72,4.11,2.21,4.11S1122,239.38,1122,236.76Z"/></g><g class="cls-1"><path d="M1108,175.63l3.27-2.27h1v9.11h2.43v1.13h-6.36v-1.13H1111V175l-2.38,1.65Z"/><path d="M1116.19,178.48c0-3,1-5.29,3.57-5.29s3.57,2.32,3.57,5.29-1,5.3-3.57,5.3S1116.19,181.46,1116.19,178.48Zm5.77,0c0-2.62-.72-4.1-2.2-4.1s-2.21,1.48-2.21,4.1.72,4.11,2.21,4.11S1122,181.1,1122,178.48Z"/><path d="M1124.64,178.48c0-3,1-5.29,3.57-5.29s3.57,2.32,3.57,5.29-1,5.3-3.57,5.3S1124.64,181.46,1124.64,178.48Zm5.77,0c0-2.62-.72-4.1-2.2-4.1s-2.2,1.48-2.2,4.1.71,4.11,2.2,4.11S1130.41,181.1,1130.41,178.48Z"/></g><path d="M1105,124.8h1.57v1.34h.07a2.87,2.87,0,0,1,2.76-1.56,2.79,2.79,0,0,1,2.82,1.84,3,3,0,0,1,3-1.84c1.71,0,3.13,1,3.13,3.64v5.66h-1.64v-5.44c0-1.78-.59-2.45-1.86-2.45s-2.38,1.21-2.38,3.16v4.73h-1.64v-5.44c0-1.78-.67-2.45-1.86-2.45s-2.38,1.21-2.38,3.18v4.71H1105Z"/><path d="M1121.1,124.8h1.56v1.34h.07a2.87,2.87,0,0,1,2.76-1.56,2.79,2.79,0,0,1,2.82,1.84,3,3,0,0,1,3-1.84c1.71,0,3.13,1,3.13,3.64v5.66h-1.64v-5.44c0-1.78-.59-2.45-1.86-2.45s-2.38,1.21-2.38,3.16v4.73H1127v-5.44c0-1.78-.67-2.45-1.86-2.45s-2.38,1.21-2.38,3.18v4.71h-1.63Z"/><path class="cls-2" d="M43.29,136.56V138H41.65V124.8h1.64v5.28c0,1.94.74,2.61,2.08,2.61s2.38-1.27,2.38-3.2V124.8h1.64v9.08H47.83v-1.34h-.08A2.79,2.79,0,0,1,45,134.1a3.23,3.23,0,0,1-1.82-.52h-.11A20.42,20.42,0,0,1,43.29,136.56Z"/><path class="cls-2" d="M53.33,135c0,1.12,1.05,1.79,2.46,1.79,1.6,0,2.9-.8,2.9-3.35v-1h-.07a3.19,3.19,0,0,1-3,1.64c-2.31,0-4-1.71-4-4.69s1.86-4.83,4.17-4.83a3,3,0,0,1,2.9,1.63h.07V124.8h1.56v8.63c0,3.44-2,4.69-4.46,4.69-2.27,0-4-1.08-4-3.13Zm2.61-2.3c1.49,0,2.68-1.19,2.68-3.35S57.43,126,55.94,126s-2.68,1.26-2.68,3.42S54.45,132.69,55.94,132.69Z"/><path class="cls-2" d="M67.55,120.86H69L63.23,134.1H61.82Z"/><path class="cls-2" d="M69.18,124.8h1.56v1.34h.08a2.86,2.86,0,0,1,2.75-1.56,2.79,2.79,0,0,1,2.83,1.84,3,3,0,0,1,3-1.84c1.71,0,3.12,1,3.12,3.64v5.66H80.94v-5.44c0-1.78-.6-2.45-1.86-2.45s-2.38,1.21-2.38,3.16v4.73H75.06v-5.44c0-1.78-.67-2.45-1.86-2.45s-2.38,1.21-2.38,3.18v4.71H69.18Z"/><path class="cls-2" d="M85.27,125.43A1.46,1.46,0,0,0,86.88,127c.93,0,1.6-.5,1.6-1.38a1.45,1.45,0,0,0-1.6-1.38h-.57v-.82h.57a1.29,1.29,0,0,0,1.34-1.29,1.22,1.22,0,0,0-1.34-1.21,1.25,1.25,0,0,0-1.35,1.35h-.87a2.06,2.06,0,0,1,2.22-2.17,2,2,0,0,1,2.25,2,1.91,1.91,0,0,1-1.08,1.67v0a1.92,1.92,0,0,1,1.39,1.87c0,1.33-1.14,2.12-2.56,2.12a2.23,2.23,0,0,1-2.52-2.38Z"/><rect class="cls-3" x="96.67" y="158.55" width="284.92" height="603.28"/><rect class="cls-3" x="881.69" y="158.55" width="207.09" height="603.28"/><path class="cls-2" d="M181.21,762.14a.31.31,0,0,1-.3-.3V158.55a.31.31,0,0,1,.3-.3.3.3,0,0,1,.3.3V761.84A.3.3,0,0,1,181.21,762.14Z"/><path class="cls-2" d="M257.52,762.14a.3.3,0,0,1-.29-.3V158.55a.3.3,0,1,1,.59,0V761.84A.3.3,0,0,1,257.52,762.14Z"/><path class="cls-2" d="M342,762.14a.31.31,0,0,1-.3-.3V158.55a.31.31,0,0,1,.3-.3.3.3,0,0,1,.3.3V761.84A.3.3,0,0,1,342,762.14Z"/><path class="cls-2" d="M423.78,762.14a.3.3,0,0,1-.3-.3V158.55a.3.3,0,0,1,.3-.3.31.31,0,0,1,.3.3V761.84A.31.31,0,0,1,423.78,762.14Z"/><path class="cls-2" d="M508.26,762.14a.31.31,0,0,1-.3-.3V158.55a.31.31,0,0,1,.3-.3.3.3,0,0,1,.3.3V761.84A.3.3,0,0,1,508.26,762.14Z"/><path class="cls-2" d="M590,762.14a.3.3,0,0,1-.3-.3V158.55a.3.3,0,0,1,.3-.3.31.31,0,0,1,.3.3V761.84A.31.31,0,0,1,590,762.14Z"/><path class="cls-2" d="M674.51,762.14a.31.31,0,0,1-.3-.3V158.55a.31.31,0,0,1,.3-.3.3.3,0,0,1,.3.3V761.84A.3.3,0,0,1,674.51,762.14Z"/><path class="cls-2" d="M759,762.14a.31.31,0,0,1-.3-.3V158.55a.31.31,0,0,1,.3-.3.3.3,0,0,1,.3.3V761.84A.3.3,0,0,1,759,762.14Z"/><path class="cls-2" d="M840.76,762.14a.31.31,0,0,1-.3-.3V158.55a.31.31,0,0,1,.3-.3.3.3,0,0,1,.3.3V761.84A.3.3,0,0,1,840.76,762.14Z"/><path class="cls-2" d="M925.25,762.14a.31.31,0,0,1-.3-.3V158.55a.31.31,0,0,1,.3-.3.3.3,0,0,1,.3.3V761.84A.3.3,0,0,1,925.25,762.14Z"/><path class="cls-2" d="M1007,762.14a.3.3,0,0,1-.3-.3V158.55a.3.3,0,1,1,.59,0V761.84A.3.3,0,0,1,1007,762.14Z"/><path class="cls-2" d="M96.73,762.14a.3.3,0,0,1-.3-.3V158.55a.3.3,0,0,1,.3-.3.31.31,0,0,1,.3.3V761.84A.31.31,0,0,1,96.73,762.14Z"/><path class="cls-2" d="M1088.78,762.14a.3.3,0,0,1-.3-.3V158.55a.3.3,0,1,1,.6,0V761.84A.3.3,0,0,1,1088.78,762.14Z"/><circle cx="96.73" cy="482.1" r="2.97"/><circle cx="99.45" cy="610.32" r="2.97"/><circle cx="102.18" cy="627.8" r="2.97"/><circle cx="104.9" cy="587.01" r="2.97"/><circle cx="115.8" cy="534.55" r="2.97"/><circle cx="118.53" cy="505.41" r="2.97"/><circle cx="121.25" cy="639.46" r="2.97"/><circle cx="123.98" cy="575.35" r="2.97"/><circle cx="126.7" cy="517.07" r="2.97"/><circle cx="129.43" cy="505.41" r="2.97"/><circle cx="132.16" cy="534.55" r="2.97"/><circle cx="134.88" cy="482.1" r="2.97"/><circle cx="140.33" cy="592.83" r="2.97"/><circle cx="143.06" cy="674.43" r="2.97"/><circle cx="145.78" cy="546.21" r="2.97"/><circle cx="148.51" cy="493.75" r="2.97"/><circle cx="153.96" cy="499.58" r="2.97"/><circle cx="156.68" cy="546.21" r="2.97"/><circle cx="159.41" cy="499.58" r="2.97"/><circle cx="170.31" cy="563.69" r="2.97"/><circle cx="173.04" cy="528.72" r="2.97"/><circle cx="175.76" cy="546.21" r="2.97"/><circle cx="178.49" cy="511.24" r="2.97"/><circle cx="181.21" cy="668.6" r="2.97"/><circle cx="183.94" cy="726.88" r="2.97"/><circle cx="186.66" cy="750.2" r="2.97"/><circle cx="189.39" cy="680.26" r="2.97"/><circle cx="192.11" cy="592.83" r="2.97"/><circle cx="194.84" cy="587.01" r="2.97"/><circle cx="197.57" cy="674.43" r="2.97"/><circle cx="200.29" cy="633.63" r="2.97"/><circle cx="203.02" cy="534.55" r="2.97"/><circle cx="205.74" cy="499.58" r="2.97"/><circle cx="208.47" cy="546.21" r="2.97"/><circle cx="211.19" cy="598.66" r="2.97"/><circle cx="213.92" cy="686.09" r="2.97"/><circle cx="216.64" cy="604.49" r="2.97"/><circle cx="219.37" cy="534.55" r="2.97"/><circle cx="227.55" cy="575.35" r="2.97"/><circle cx="230.27" cy="651.12" r="2.97"/><circle cx="233" cy="616.15" r="2.97"/><circle cx="235.72" cy="633.63" r="2.97"/><circle cx="238.45" cy="715.23" r="2.97"/><circle cx="241.17" cy="697.74" r="2.97"/><circle cx="243.9" cy="627.8" r="2.97"/><circle cx="246.62" cy="639.46" r="2.97"/><circle cx="249.35" cy="587.01" r="2.97"/><circle cx="252.07" cy="563.69" r="2.97"/><circle cx="254.8" cy="517.07" r="2.97"/><circle cx="257.52" cy="511.24" r="2.97"/><circle cx="260.25" cy="493.75" r="2.97"/><circle cx="262.98" cy="540.38" r="2.97"/><circle cx="265.7" cy="528.72" r="2.97"/><circle cx="268.43" cy="552.04" r="2.97"/><circle cx="271.15" cy="627.8" r="2.97"/><circle cx="273.88" cy="616.15" r="2.97"/><circle cx="276.6" cy="621.98" r="2.97"/><circle cx="279.33" cy="633.63" r="2.97"/><circle cx="282.05" cy="633.63" r="2.97"/><circle cx="284.78" cy="540.38" r="2.97"/><circle cx="287.5" cy="621.98" r="2.97"/><circle cx="290.23" cy="610.32" r="2.97"/><circle cx="295.68" cy="651.12" r="2.97"/><circle cx="298.41" cy="616.15" r="2.97"/><circle cx="301.13" cy="651.12" r="2.97"/><circle cx="303.86" cy="709.4" r="2.97"/><circle cx="306.58" cy="709.4" r="2.97"/><circle cx="309.31" cy="598.66" r="2.97"/><circle cx="312.03" cy="569.52" r="2.97"/><circle cx="314.76" cy="569.52" r="2.97"/><circle cx="317.48" cy="604.49" r="2.97"/><circle cx="320.21" cy="639.46" r="2.97"/><circle cx="322.93" cy="616.15" r="2.97"/><circle cx="325.66" cy="546.21" r="2.97"/><circle cx="328.39" cy="575.35" r="2.97"/><circle cx="331.11" cy="557.86" r="2.97"/><circle cx="333.84" cy="633.63" r="2.97"/><circle cx="336.56" cy="697.74" r="2.97"/><circle cx="339.29" cy="721.06" r="2.97"/><circle cx="342.01" cy="715.23" r="2.97"/><circle cx="344.74" cy="668.6" r="2.97"/><circle cx="347.46" cy="621.98" r="2.97"/><circle cx="350.19" cy="616.15" r="2.97"/><circle cx="352.91" cy="522.89" r="2.97"/><circle cx="355.64" cy="575.35" r="2.97"/><circle cx="358.37" cy="645.29" r="2.97"/><circle cx="361.09" cy="656.94" r="2.97"/><circle cx="363.82" cy="645.29" r="2.97"/><circle cx="366.54" cy="686.09" r="2.97"/><circle cx="369.27" cy="645.29" r="2.97"/><circle cx="371.99" cy="581.18" r="2.97"/><circle cx="374.72" cy="645.29" r="2.97"/><circle cx="377.44" cy="645.29" r="2.97"/><circle cx="380.17" cy="604.49" r="2.97"/><circle cx="382.89" cy="552.04" r="2.97"/><circle cx="385.62" cy="511.24" r="2.97"/><circle cx="388.34" cy="598.66" r="2.97"/><circle cx="391.07" cy="598.66" r="2.97"/><circle cx="393.8" cy="610.32" r="2.97"/><circle cx="396.52" cy="633.63" r="2.97"/><circle cx="399.25" cy="651.12" r="2.97"/><circle cx="401.97" cy="621.98" r="2.97"/><circle cx="404.7" cy="598.66" r="2.97"/><circle cx="407.42" cy="616.15" r="2.97"/><circle cx="410.15" cy="598.66" r="2.97"/><circle cx="412.87" cy="598.66" r="2.97"/><circle cx="415.6" cy="616.15" r="2.97"/><circle cx="418.32" cy="598.66" r="2.97"/><circle cx="421.05" cy="691.91" r="2.97"/><circle cx="423.78" cy="697.74" r="2.97"/><circle cx="426.5" cy="668.6" r="2.97"/><circle cx="429.23" cy="616.15" r="2.97"/><circle cx="431.95" cy="592.83" r="2.97"/><circle cx="434.68" cy="575.35" r="2.97"/><circle cx="437.4" cy="592.83" r="2.97"/><circle cx="440.13" cy="610.32" r="2.97"/><circle cx="442.85" cy="581.18" r="2.97"/><circle cx="445.58" cy="610.32" r="2.97"/><circle cx="448.3" cy="639.46" r="2.97"/><circle cx="451.03" cy="633.63" r="2.97"/><circle cx="453.75" cy="674.43" r="2.97"/><circle cx="456.48" cy="691.91" r="2.97"/><circle cx="459.21" cy="726.88" r="2.97"/><circle cx="461.93" cy="721.06" r="2.97"/><circle cx="464.66" cy="703.57" r="2.97"/><circle cx="467.38" cy="686.09" r="2.97"/><circle cx="470.11" cy="674.43" r="2.97"/><circle cx="472.83" cy="651.12" r="2.97"/><circle cx="475.56" cy="662.77" r="2.97"/><circle cx="478.28" cy="651.12" r="2.97"/><circle cx="481.01" cy="639.46" r="2.97"/><circle cx="483.73" cy="633.63" r="2.97"/><circle cx="486.46" cy="662.77" r="2.97"/><circle cx="489.19" cy="598.66" r="2.97"/><circle cx="491.91" cy="621.98" r="2.97"/><circle cx="494.64" cy="616.15" r="2.97"/><circle cx="497.36" cy="563.69" r="2.97"/><circle cx="500.09" cy="598.66" r="2.97"/><circle cx="502.81" cy="592.83" r="2.97"/><circle cx="505.54" cy="598.66" r="2.97"/><circle cx="508.26" cy="656.94" r="2.97"/><circle cx="510.99" cy="674.43" r="2.97"/><circle cx="513.71" cy="662.77" r="2.97" transform="translate(-183.81 1128.21) rotate(-85.93)"/><circle cx="516.44" cy="604.49" r="2.97"/><circle cx="519.17" cy="656.94" r="2.97"/><circle cx="521.89" cy="651.12" r="2.97"/><circle cx="524.62" cy="639.46" r="2.97"/><circle cx="527.34" cy="674.43" r="2.97"/><circle cx="530.07" cy="697.74" r="2.97"/><circle cx="532.79" cy="697.74" r="2.97"/><circle cx="535.52" cy="610.32" r="2.97"/><circle cx="538.24" cy="662.77" r="2.97"/><circle cx="540.97" cy="697.74" r="2.97"/><circle cx="543.69" cy="680.26" r="2.97"/><circle cx="546.42" cy="691.91" r="2.97"/><circle cx="549.14" cy="674.43" r="2.97"/><circle cx="551.87" cy="639.46" r="2.97"/><circle cx="554.6" cy="645.29" r="2.97"/><circle cx="557.32" cy="656.94" r="2.97"/><circle cx="560.05" cy="651.12" r="2.97"/><circle cx="562.77" cy="662.77" r="2.97"/><circle cx="565.5" cy="674.43" r="2.97"/><circle cx="568.22" cy="697.74" r="2.97"/><circle cx="570.95" cy="686.09" r="2.97"/><circle cx="573.67" cy="691.91" r="2.97"/><circle cx="576.4" cy="686.09" r="2.97"/><circle cx="579.12" cy="703.57" r="2.97"/><circle cx="581.85" cy="715.23" r="2.97"/><circle cx="584.58" cy="703.57" r="2.97"/><circle cx="587.3" cy="680.26" r="2.97" transform="translate(-95.34 1264.79) rotate(-89.77)"/><circle cx="590.03" cy="651.12" r="2.97"/><circle cx="592.75" cy="627.8" r="2.97"/><circle cx="595.48" cy="610.32" r="2.97"/><circle cx="598.2" cy="639.46" r="2.97" transform="translate(-2.64 2.48) rotate(-0.24)"/><circle cx="600.93" cy="639.46" r="2.97"/><circle cx="603.65" cy="651.12" r="2.97"/><circle cx="606.38" cy="674.43" r="2.97"/><circle cx="609.1" cy="686.09" r="2.97"/><circle cx="611.83" cy="668.6" r="2.97"/><circle cx="614.55" cy="627.8" r="2.97"/><circle cx="617.28" cy="610.32" r="2.97"/><circle cx="620.01" cy="639.46" r="2.97"/><circle cx="622.73" cy="645.29" r="2.97"/><circle cx="625.46" cy="686.09" r="2.97"/><circle cx="628.18" cy="686.09" r="2.97"/><circle cx="630.91" cy="668.6" r="2.97"/><circle cx="633.63" cy="645.29" r="2.97"/><circle cx="636.36" cy="668.6" r="2.97"/><circle cx="639.08" cy="668.6" r="2.97"/><circle cx="641.81" cy="645.29" r="2.97"/><circle cx="644.53" cy="616.15" r="2.97"/><circle cx="647.26" cy="680.26" r="2.97"/><circle cx="649.99" cy="668.6" r="2.97"/><circle cx="652.71" cy="645.29" r="2.97"/><circle cx="655.44" cy="645.29" r="2.97"/><circle cx="658.16" cy="610.32" r="2.97"/><circle cx="660.89" cy="639.46" r="2.97"/><circle cx="663.61" cy="674.43" r="2.97"/><circle cx="666.34" cy="627.8" r="2.97"/><circle cx="669.06" cy="621.98" r="2.97"/><circle cx="671.79" cy="627.8" r="2.97"/><circle cx="674.51" cy="587.01" r="2.97"/><circle cx="677.24" cy="581.18" r="2.97"/><circle cx="679.96" cy="604.49" r="2.97"/><circle cx="682.69" cy="639.46" r="2.97"/><circle cx="685.42" cy="645.29" r="2.97"/><circle cx="688.14" cy="621.98" r="2.97"/><circle cx="690.87" cy="616.15" r="2.97"/><circle cx="693.59" cy="651.12" r="2.97"/><circle cx="696.32" cy="633.63" r="2.97"/><circle cx="699.04" cy="627.8" r="2.97"/><circle cx="701.77" cy="662.77" r="2.97"/><circle cx="704.49" cy="674.43" r="2.97"/><circle cx="707.22" cy="674.43" r="2.97"/><circle cx="709.94" cy="680.26" r="2.97"/><circle cx="712.67" cy="709.4" r="2.97"/><circle cx="715.4" cy="686.09" r="2.97"/><circle cx="718.12" cy="662.77" r="2.97"/><circle cx="720.85" cy="680.26" r="2.97"/><circle cx="723.57" cy="639.46" r="2.97"/><circle cx="726.3" cy="604.49" r="2.97"/><circle cx="729.02" cy="639.46" r="2.97"/><circle cx="731.75" cy="627.8" r="2.97"/><circle cx="734.47" cy="633.63" r="2.97"/><circle cx="737.2" cy="633.63" r="2.97"/><circle cx="739.92" cy="651.12" r="2.97"/><circle cx="742.65" cy="738.54" r="2.97"/><circle cx="745.37" cy="709.4" r="2.97"/><circle cx="748.1" cy="668.6" r="2.97"/><circle cx="750.83" cy="668.6" r="2.97"/><circle cx="753.55" cy="645.29" r="2.97"/><circle cx="756.28" cy="639.46" r="2.97"/><circle cx="759" cy="703.57" r="2.97"/><circle cx="761.73" cy="680.26" r="2.97"/><circle cx="764.45" cy="697.74" r="2.97"/><circle cx="767.18" cy="680.26" r="2.97"/><circle cx="769.9" cy="674.43" r="2.97"/><circle cx="772.63" cy="656.94" r="2.97"/><circle cx="775.35" cy="656.94" r="2.97"/><circle cx="778.08" cy="662.77" r="2.97"/><circle cx="780.81" cy="656.94" r="2.97"/><circle cx="783.53" cy="662.77" r="2.97"/><circle cx="786.26" cy="627.8" r="2.97"/><circle cx="788.98" cy="627.8" r="2.97"/><circle cx="791.71" cy="627.8" r="2.97"/><circle cx="794.43" cy="627.8" r="2.97"/><circle cx="797.16" cy="627.8" r="2.97"/><circle cx="799.88" cy="627.8" r="2.97"/><circle cx="802.61" cy="587.01" r="2.97"/><circle cx="805.33" cy="645.29" r="2.97"/><circle cx="808.06" cy="645.29" r="2.97"/><circle cx="810.78" cy="627.8" r="2.97"/><circle cx="813.51" cy="616.15" r="2.97"/><circle cx="816.24" cy="616.15" r="2.97"/><circle cx="818.96" cy="662.77" r="2.97"/><circle cx="821.69" cy="616.15" r="2.97"/><circle cx="824.41" cy="645.29" r="2.97"/><circle cx="827.14" cy="656.94" r="2.97"/><circle cx="832.59" cy="610.32" r="2.97"/><circle cx="835.31" cy="621.98" r="2.97"/><circle cx="838.04" cy="656.94" r="2.97"/><circle cx="840.76" cy="656.94" r="2.97"/><circle cx="843.49" cy="656.94" r="2.97"/><circle cx="846.22" cy="674.43" r="2.97"/><circle cx="848.94" cy="639.46" r="2.97"/><circle cx="851.67" cy="633.63" r="2.97"/><circle cx="854.39" cy="616.15" r="2.97"/><circle cx="857.12" cy="621.98" r="2.97"/><circle cx="859.84" cy="627.8" r="2.97"/><circle cx="862.57" cy="592.83" r="2.97"/><circle cx="865.29" cy="499.58" r="2.97"/><circle cx="870.74" cy="493.75" r="2.97"/><circle cx="873.47" cy="528.72" r="2.97"/><circle cx="876.19" cy="528.72" r="2.97"/><circle cx="878.92" cy="528.72" r="2.97"/><circle cx="887.1" cy="517.07" r="2.97"/><circle cx="889.82" cy="476.27" r="2.97"/><circle cx="892.55" cy="493.75" r="2.97"/><circle cx="895.27" cy="575.35" r="2.97"/><circle cx="898" cy="668.6" r="2.97"/><circle cx="900.72" cy="645.29" r="2.97"/><circle cx="903.45" cy="639.46" r="2.97"/><circle cx="906.17" cy="563.69" r="2.97"/><circle cx="908.9" cy="557.86" r="2.97"/><circle cx="911.63" cy="639.46" r="2.97"/><circle cx="914.35" cy="651.12" r="2.97"/><circle cx="917.08" cy="616.15" r="2.97"/><circle cx="919.8" cy="709.4" r="2.97"/><circle cx="922.53" cy="656.94" r="2.97"/><circle cx="925.25" cy="598.66" r="2.97"/><circle cx="927.98" cy="592.83" r="2.97"/><circle cx="930.7" cy="645.29" r="2.97"/><circle cx="933.43" cy="581.18" r="2.97"/><circle cx="936.15" cy="598.66" r="2.97"/><circle cx="938.88" cy="645.29" r="2.97"/><circle cx="941.6" cy="581.18" r="2.97"/><circle cx="944.33" cy="662.77" r="2.97"/><circle cx="949.78" cy="569.52" r="2.97"/><circle cx="952.51" cy="517.07" r="2.97"/><circle cx="955.23" cy="476.27" r="2.97"/><circle cx="957.96" cy="592.83" r="2.97"/><circle cx="963.41" cy="487.92" r="2.97"/><circle cx="966.13" cy="592.83" r="2.97"/><circle cx="968.86" cy="639.46" r="2.97"/><circle cx="971.58" cy="645.29" r="2.97"/><circle cx="974.31" cy="645.29" r="2.97"/><circle cx="977.04" cy="703.57" r="2.97"/><circle cx="979.76" cy="627.8" r="2.97"/><circle cx="982.49" cy="592.83" r="2.97"/><circle cx="985.21" cy="552.04" r="2.97"/><circle cx="987.94" cy="651.12" r="2.97"/><circle cx="990.66" cy="674.43" r="2.97"/><circle cx="993.39" cy="668.6" r="2.97"/><circle cx="996.11" cy="592.83" r="2.97"/><circle cx="998.84" cy="616.15" r="2.97"/><circle cx="1001.56" cy="587.01" r="2.97"/><circle cx="1004.29" cy="517.07" r="2.97"/><circle cx="1017.92" cy="476.27" r="2.97"/><circle cx="1023.37" cy="592.83" r="2.97"/><circle cx="1026.09" cy="645.29" r="2.97"/><circle cx="1028.82" cy="651.12" r="2.97"/><circle cx="1031.54" cy="715.23" r="2.97"/><circle cx="1034.27" cy="686.09" r="2.97"/><circle cx="1036.99" cy="627.8" r="2.97"/><circle cx="1039.72" cy="511.24" r="2.97"/><circle cx="1042.45" cy="581.18" r="2.97"/><circle cx="1045.17" cy="581.18" r="2.97"/><circle cx="1047.9" cy="552.04" r="2.97"/><circle cx="1050.62" cy="563.69" r="2.97"/><circle cx="1053.35" cy="557.86" r="2.97"/><circle cx="1058.8" cy="522.89" r="2.97"/><circle cx="1061.52" cy="569.52" r="2.97"/><circle cx="1064.25" cy="522.89" r="2.97"/><circle cx="1066.97" cy="627.8" r="2.97"/><circle cx="1069.7" cy="656.94" r="2.97"/><circle cx="1072.42" cy="645.29" r="2.97"/><circle cx="1075.15" cy="627.8" r="2.97"/><circle cx="1080.6" cy="522.89" r="2.97"/><circle cx="1083.33" cy="499.58" r="2.97"/><circle class="cls-4" cx="222.09" cy="464.61" r="2.97"/><circle class="cls-4" cx="107.63" cy="447.13" r="2.97"/><circle class="cls-4" cx="110.35" cy="377.19" r="2.97"/><circle class="cls-4" cx="113.08" cy="377.19" r="2.97"/><circle class="cls-4" cx="137.61" cy="470.44" r="2.97"/><circle class="cls-4" cx="151.23" cy="470.44" r="2.97"/><circle class="cls-4" cx="162.14" cy="423.81" r="2.97"/><circle class="cls-4" cx="164.86" cy="248.96" r="2.97"/><circle class="cls-4" cx="167.59" cy="237.31" r="2.97"/><circle class="cls-4" cx="224.82" cy="295.59" r="2.97"/><circle class="cls-4" cx="868.02" cy="452.95" r="2.97"/><circle class="cls-4" cx="881.65" cy="452.95" r="2.97"/><circle class="cls-4" cx="884.37" cy="452.95" r="2.97"/><circle class="cls-4" cx="960.68" cy="470.44" r="2.97"/><circle class="cls-4" cx="1007.01" cy="429.64" r="2.97"/><circle class="cls-4" cx="1009.74" cy="400.5" r="2.97"/><circle class="cls-4" cx="1012.47" cy="348.04" r="2.97"/><circle class="cls-4" cx="1015.19" cy="435.47" r="2.97"/><circle class="cls-4" cx="1020.64" cy="464.61" r="2.97"/><circle class="cls-4" cx="1056.07" cy="458.78" r="2.97"/><circle class="cls-4" cx="1086.05" cy="464.61" r="2.97"/><circle cx="1088.78" cy="540.38" r="2.97"/><path class="cls-5" d="M1058.27,761.84h-13.56c1.35,0,1.35-75.7,2.72-75.7s1.35,73.74,2.82,69.71l2.17-.16c1.79,2.61,1.65-11.32,3.13-11.32S1056.91,761.84,1058.27,761.84Z"/><path class="cls-5" d="M1039.29,761.84h-5.42c1.35,0,1.35-11.65,2.71-11.65S1037.94,761.84,1039.29,761.84Z"/><path class="cls-5" d="M1025.74,761.84h-5.42c1.35,0,1.35-5.83,2.7-5.83S1024.39,761.84,1025.74,761.84Z"/><path class="cls-5" d="M1020.32,761.84h-5.42c1.35,0,1.35-11.65,2.7-11.65S1019,761.84,1020.32,761.84Z"/><path class="cls-5" d="M995.93,761.84H990.5c1.36,0,1.36-5.83,2.71-5.83S994.56,761.84,995.93,761.84Z"/><path class="cls-5" d="M990.5,761.84H979.66c1.35,0,1.35-81.52,2.71-81.52s1.36,34.94,2.71,34.94,1.35,29.12,2.71,29.12S989.14,761.84,990.5,761.84Z"/><path class="cls-5" d="M979.66,761.83H968.82c1.38,0,1.35-78.89,2.79-75.6h2.53c1.49-3.56,1.43,79.3,2.9,75.46l2.49-.08C979.57,761.77,979.61,761.83,979.66,761.83Z"/><path class="cls-5" d="M939,761.84h-5.42c1.35,0,1.35-64.06,2.71-64.06S937.64,761.84,939,761.84Z"/><path class="cls-5" d="M933.58,761.84H920c1.35,0,1.35-64.06,2.72-64.06s1.35,23.29,2.7,23.29S926.81,756,928.16,756s1.35-40.76,2.7-40.76S932.23,761.84,933.58,761.84Z"/><path class="cls-5" d="M920,761.84H909.07c1.35,0,1.35-5.83,2.71-5.83s1.35-174.7,2.71-174.7,1.42,139.76,2.82,139.76S918.67,761.84,920,761.84Z"/><path class="cls-5" d="M895.52,761.84h-5.43c1.36,0,1.36-29.11,2.71-29.11S894.16,761.84,895.52,761.84Z"/><path class="cls-5" d="M884.67,761.84h-8.12c1.35,0,1.35-5.83,2.7-5.83H882C883.32,756,883.32,761.84,884.67,761.84Z"/><path class="cls-5" d="M854.86,761.84h-5.42c1.35,0,1.35-29.11,2.7-29.11S853.51,761.84,854.86,761.84Z"/><path class="cls-5" d="M844,761.84h-8.13c1.36,0,1.36-40.77,2.71-40.77s1.36,11.66,2.71,11.66S842.66,761.84,844,761.84Z"/><path class="cls-5" d="M776.25,761.84h-5.42c1.35,0,1.35-11.65,2.7-11.65S774.89,761.84,776.25,761.84Z"/><path class="cls-5" d="M762.7,761.84h-8.14c1.35,0,1.35-5.83,2.72-5.83s1.35-104.82,2.7-104.82S761.34,761.84,762.7,761.84Z"/><path class="cls-5" d="M743.72,761.84h-8.13c1.35,0,1.35-93.18,2.71-93.18s1.36,29.12,2.71,29.12S742.36,761.84,743.72,761.84Z"/><path class="cls-5" d="M711.2,761.84h-5.44c1.37,0,1.37-40.77,2.72-40.77S709.83,761.84,711.2,761.84Z"/><path class="cls-5" d="M665.12,761.84h-5.44c1.37,0,1.37-58.23,2.72-58.23S663.75,761.84,665.12,761.84Z"/><path class="cls-5" d="M651.56,761.84h-5.42c1.35,0,1.35-23.3,2.71-23.3S650.2,761.84,651.56,761.84Z"/><path class="cls-5" d="M632.59,761.84h-5.43c1.36,0,1.36-81.53,2.71-81.53S631.22,761.84,632.59,761.84Z"/><path class="cls-5" d="M627.16,761.84h-5.42c1.36,0,1.36-5.83,2.71-5.83S625.81,761.84,627.16,761.84Z"/><path class="cls-5" d="M619,761.84H613.6c1.37,0,1.37-5.83,2.72-5.83S617.67,761.83,619,761.84Z"/><path class="cls-5" d="M605.48,761.84h-8.13c1.35,0,1.35-110.65,2.71-110.65s1.35,87.35,2.7,87.35S604.12,761.84,605.48,761.84Z"/><path class="cls-5" d="M575.66,761.84h-5.42c1.35,0,1.35-29.11,2.71-29.11S574.31,761.84,575.66,761.84Z"/><path class="cls-5" d="M545.85,761.84h-5.42c1.35,0,1.35-151.41,2.7-151.41S544.48,761.84,545.85,761.84Z"/><path class="cls-5" d="M540.43,761.84h-8.14c1.35,0,1.35-11.64,2.71-11.64s1.36,5.82,2.71,5.82S539.06,761.84,540.43,761.84Z"/><path class="cls-5" d="M532.29,761.83H521.44c1.37,0,1.37-34.94,2.72-34.94s1.35-192.18,2.71-192.18,1.35,229.35,2.73,227.1c1.41-.16.88-.1,2.29-.28C532,761.74,532.17,761.83,532.29,761.83Z"/><path class="cls-5" d="M521.44,761.84H516c1.37,0,1.37-5.83,2.72-5.83S520.09,761.84,521.44,761.84Z"/><path class="cls-5" d="M502.47,761.84h-5.42c1.35,0,1.35-99,2.71-99S501.12,761.84,502.47,761.84Z"/><path class="cls-5" d="M486.21,761.84h-8.13c1.35,0,1.35-58.23,2.71-58.23s1.35-5.83,2.71-5.83S484.85,761.84,486.21,761.84Z"/><path class="cls-5" d="M469.94,761.84h-5.42c1.35,0,1.35-5.83,2.72-5.83S468.59,761.84,469.94,761.84Z"/><path class="cls-5" d="M464.52,761.84H453.68c1.36,0,1.36-5.83,2.71-5.83h5.42C463.17,756,463.17,761.84,464.52,761.84Z"/><path class="cls-5" d="M451,761.84h-5.42c1.35,0,1.35-5.83,2.71-5.83S449.62,761.83,451,761.84Z"/><path class="cls-5" d="M445.55,761.84h-5.42c1.35,0,1.35-5.83,2.7-5.83S444.2,761.84,445.55,761.84Z"/><path class="cls-5" d="M434.71,761.84H421.16c1.35,0,1.35-23.3,2.7-23.3s1.36-75.7,2.72-75.7,1.35,11.65,2.7,11.65,1.36,75.7,2.72,75.7S433.35,761.84,434.71,761.84Z"/><path class="cls-5" d="M421.16,761.84h-5.43c1.36,0,1.36-5.83,2.71-5.83S419.79,761.84,421.16,761.84Z"/><path class="cls-5" d="M372.36,761.84h-5.42c1.35,0,1.35-11.65,2.7-11.65S371,761.84,372.36,761.84Z"/><path class="cls-5" d="M366.94,761.84h-5.42c1.35,0,1.35-5.83,2.71-5.83S365.59,761.84,366.94,761.84Z"/><path class="cls-5" d="M353.39,761.84H348c1.35,0,1.35-52.42,2.7-52.42S352,761.84,353.39,761.84Z"/><path class="cls-5" d="M342.55,761.84h-5.43c1.36,0,1.36-29.11,2.71-29.11S341.19,761.84,342.55,761.84Z"/><path class="cls-5" d="M312.84,761.84H299.28c1.37,0,1.37-23.3,2.72-23.3s1.35-69.88,2.7-69.88,1.37,29.12,2.72,29.12,1.35,52.41,2.71,52.41S311.49,761.84,312.84,761.84Z"/><path class="cls-5" d="M288.45,761.84H283c1.35,0,1.35-87.35,2.7-87.35S287.09,761.84,288.45,761.84Z"/><path class="cls-5" d="M277.61,761.84h-19c1.37,0,1.37-29.11,2.72-29.11S262.69,692,264.05,692s1.35,11.66,2.71,11.66,1.36-23.3,2.71-23.3,1.35,69.88,2.71,69.88,1.36-52.41,2.71-52.41S276.24,761.84,277.61,761.84Z"/><path class="cls-5" d="M247.78,761.84H231.53c1.35,0,1.35-75.7,2.7-75.7s1.35-104.83,2.72-104.83,1.35,40.76,2.7,40.76,1.36,93.18,2.71,93.18S243.72,756,245.08,756,246.43,761.84,247.78,761.84Z"/><path class="cls-5" d="M231.53,761.84h-8.14c1.35,0,1.35-128.12,2.7-128.12s1.37,104.82,2.72,104.82S230.16,761.84,231.53,761.84Z"/><path class="cls-5" d="M215.26,761.84h-8.14c1.37,0,1.37-87.35,2.72-87.35s1.35,81.52,2.7,81.52S213.9,761.84,215.26,761.84Z"/><path class="cls-5" d="M199,761.84h-8.14c1.36,0,1.36-104.82,2.71-104.82s1.36,69.88,2.71,69.88S197.64,761.84,199,761.84Z"/><path class="cls-5" d="M190.86,761.84H180c1.37,0,1.37-180.53,2.72-180.53s1.35-34.94,2.72-34.94,1.35,198,2.7,198S189.5,761.84,190.86,761.84Z"/><path class="cls-5" d="M142.07,761.84h-5.42c1.35,0,1.35-5.83,2.71-5.83S140.72,761.84,142.07,761.84Z"/><path class="cls-5" d="M125.81,761.84h-5.43c1.36,0,1.36-11.65,2.71-11.65S124.45,761.84,125.81,761.84Z"/><path class="cls-5" d="M120.38,761.84H115c1.36,0,1.36-5.83,2.72-5.83S119,761.84,120.38,761.84Z"/><path class="cls-5" d="M98.7,761.84H96.77s0,0,0,0V750.19C98.08,750.19,97.34,761.84,98.7,761.84Z"/><path class="cls-5" d="M1058.27,762.14c-.83,0-1.11-2-1.65-9-.26-3.32-.61-7.82-1.09-8.46-.44.42-.79,3.47-1,5.52-.48,4.08-.77,5.89-1.53,6.08a.68.68,0,0,1-.69-.3l-1.84.14a.37.37,0,0,1-.36.17c-.73-.13-1-4.3-1.6-35.31-.27-13.92-.57-29.47-1-33.63-.49,4.39-.79,21.48-1.07,36.76-.61,34.28-.88,38-1.65,38a.3.3,0,0,1-.3-.3.31.31,0,0,1,.12-.24c.59-1.42.93-20.57,1.23-37.48.62-34.52.89-38.28,1.67-38.28s1,3.45,1.65,35.15c.29,15.09.62,32.11,1.17,34.56l2.32-.17.1.14a.67.67,0,0,0,.18.2c.43-.24.8-3.45,1.05-5.57.5-4.32.79-6.08,1.65-6.08s1.12,2,1.66,9c.27,3.4.63,8,1.12,8.45a.27.27,0,0,1,.27.29A.32.32,0,0,1,1058.27,762.14Zm-13.56-.6Z"/><path class="cls-5" d="M1039.29,762.14c-.85,0-1.14-1.76-1.65-6.07-.25-2.13-.62-5.35-1.08-5.59-.42.24-.79,3.45-1,5.57-.5,4.33-.79,6.09-1.65,6.09a.3.3,0,0,1-.3-.3.31.31,0,0,1,.29-.3c.45-.27.82-3.45,1.07-5.56.5-4.33.79-6.09,1.65-6.09s1.15,1.77,1.66,6.11c.25,2.11.62,5.31,1.08,5.55a.28.28,0,0,1,.28.29A.3.3,0,0,1,1039.29,762.14Z"/><path class="cls-5" d="M1025.74,762.14c-.91,0-1.25-1.45-1.64-3.13-.25-1.08-.63-2.7-1.08-2.7s-.81,1.62-1.06,2.69c-.39,1.68-.73,3.14-1.64,3.14s-1.15-1.76-1.65-6.07c-.25-2.13-.62-5.35-1.09-5.59-.41.24-.78,3.45-1,5.57-.5,4.33-.79,6.09-1.65,6.09a.29.29,0,0,1-.3-.3.3.3,0,0,1,.28-.3c.46-.27.83-3.45,1.07-5.56.51-4.33.8-6.09,1.65-6.09s1.16,1.76,1.67,6.11c.24,2.11.62,5.31,1.07,5.55.42,0,.79-1.62,1-2.69.39-1.69.73-3.15,1.64-3.15s1.27,1.47,1.66,3.16c.25,1.06.62,2.67,1.06,2.67a.31.31,0,0,1,.3.3A.3.3,0,0,1,1025.74,762.14Z"/><path class="cls-5" d="M995.93,762.14c-.92,0-1.27-1.46-1.66-3.15-.25-1.07-.62-2.68-1.06-2.68s-.81,1.61-1.06,2.68c-.39,1.69-.73,3.15-1.65,3.15s-1.11-2-1.65-9c-.27-3.41-.63-8.07-1.13-8.48h0c-.74,0-1-2.4-1.58-14.88-.28-6-.63-13.44-1.16-14.23-.73-.25-1-3.45-1.54-17.75-.25-6.45-.56-14.29-1-16.6-.52,3.92-.84,23-1.12,40-.62,36.89-.88,40.91-1.65,40.91a.36.36,0,0,1-.32-.19l-2.12.06a.33.33,0,0,1-.33.13c-.73-.13-1-4.61-1.59-38-.3-16.55-.64-35.22-1.2-37.61h-2.44c-.56,2.33-.89,21-1.19,37.5-.62,34.36-.88,38.1-1.65,38.1a.29.29,0,0,1-.3-.3.31.31,0,0,1,.12-.24c.58-1.42.93-20.62,1.23-37.58.6-33.52.86-38,1.59-38.18a.33.33,0,0,1,.3.1H974a.35.35,0,0,1,.31-.11c.74.14,1,4.67,1.61,38.31.29,16.35.62,34.79,1.17,37.26l2.47-.08c.55-2.84.88-22.6,1.17-40.12.62-37.15.88-41.2,1.66-41.2s1.08,2.82,1.65,17.76c.29,7.26.63,16.27,1.17,17.2.72.24,1,2.95,1.54,14.78.28,6,.63,13.51,1.16,14.33.75.16,1,2.3,1.55,9,.27,3.41.63,8.07,1.12,8.48.38,0,.76-1.64,1-2.71.39-1.68.73-3.14,1.64-3.14s1.25,1.46,1.64,3.14c.25,1.07.63,2.69,1.08,2.69a.31.31,0,0,1,.3.3A.3.3,0,0,1,995.93,762.14Z"/><path class="cls-5" d="M939,762.14c-.78,0-1-3.17-1.66-32.32-.27-12.86-.57-27.24-1.05-31-.48,3.73-.79,18.17-1.06,31.07-.62,29.05-.88,32.21-1.65,32.21s-1-2.31-1.65-23.5c-.27-9-.59-20-1.08-22.64-.47,2.38-.78,11.87-1,19.64-.61,18.24-.88,20.67-1.65,20.67s-1.07-2.81-1.65-17.7c-.29-7.27-.64-16.31-1.18-17.26-.71-.2-1-2.47-1.54-11.91-.24-4.08-.55-9.51-1-11-.53,2.85-.85,18-1.14,31.51-.61,29.05-.87,32.21-1.65,32.21s-1-2-1.65-20.6c-.28-8.53-.63-19.11-1.19-20.19-.4-.16-.67-2-1-22-.22-13.06-.4-30.77-.57-47.91-.28-27.8-.6-58.82-1.1-67.56-.5,9.83-.79,48-1.08,85.12-.17,21.41-.34,43.55-.55,59.87-.36,27.47-.64,27.47-1.1,27.47s-.81,1.62-1.06,2.69c-.39,1.68-.73,3.14-1.65,3.14a.3.3,0,0,1-.3-.3.31.31,0,0,1,.3-.3c.44,0,.82-1.61,1.06-2.68.36-1.55.68-2.91,1.44-3.12.61-2.91.94-45.53,1.26-86.77.16-21.54.34-43.81.55-60.25C913.74,581,914,581,914.49,581s.77,0,1.14,22.22c.22,13.15.4,30.95.58,48.18.31,31.6.68,67.39,1.31,69.44.62.53.9,4.11,1.45,20.67.26,7.62.56,16.9,1,19.45.5-3.35.81-18,1.08-31.05.62-29.25.89-32.44,1.67-32.44s1.07,2,1.65,11.93c.26,4.52.62,10.7,1.13,11.37.76.19,1,3.32,1.59,17.81.25,6.65.57,14.77,1,16.76.48-2.21.8-11.85,1.06-19.73.6-18.23.88-20.67,1.65-20.67s1,2.33,1.67,23.67c.25,8.75.56,19.4,1,22.29.48-3.47.79-18,1.07-31,.62-29.25.88-32.44,1.66-32.44s1,3.18,1.65,32.33c.31,14.3.65,30.49,1.23,31.79a.31.31,0,0,1,.13.24A.3.3,0,0,1,939,762.14Z"/><path class="cls-5" d="M895.52,762.14c-.82,0-1.08-2.36-1.67-14.89-.26-5.61-.58-12.47-1.05-14-.47,1.53-.79,8.39-1,14-.58,12.53-.85,14.89-1.66,14.89a.29.29,0,0,1-.3-.3.29.29,0,0,1,.2-.28c.53-.78.88-8.29,1.16-14.34.58-12.44.85-14.79,1.65-14.79s1.07,2.35,1.65,14.79c.29,6,.64,13.56,1.17,14.34a.29.29,0,0,1,.2.28A.29.29,0,0,1,895.52,762.14Z"/><path class="cls-5" d="M884.67,762.14c-.92,0-1.25-1.46-1.65-3.14-.24-1.07-.62-2.69-1-2.69h-2.72c-.44,0-.81,1.62-1.06,2.69-.39,1.68-.73,3.14-1.64,3.14a.29.29,0,0,1-.3-.3.3.3,0,0,1,.3-.3c.43,0,.81-1.61,1.06-2.68.39-1.69.73-3.15,1.64-3.15H882c.91,0,1.25,1.46,1.64,3.15.25,1.07.62,2.68,1.06,2.68a.31.31,0,0,1,.3.3A.3.3,0,0,1,884.67,762.14Z"/><path class="cls-5" d="M854.86,762.14c-.81,0-1.07-2.35-1.65-14.79-.27-5.65-.59-12.58-1.07-14.1-.47,1.52-.79,8.42-1,14-.58,12.49-.84,14.85-1.65,14.85a.3.3,0,0,1-.11-.58c.53-.78.88-8.27,1.16-14.29.58-12.49.84-14.84,1.65-14.84s1.08,2.36,1.67,14.89c.28,6,.62,13.46,1.15,14.24a.29.29,0,0,1,.2.28A.3.3,0,0,1,854.86,762.14Z"/><path class="cls-5" d="M844,762.14c-.81,0-1.07-2.36-1.65-14.84-.28-6-.63-13.44-1.15-14.28-.79-.13-1.07-1.92-1.56-6.07-.23-2-.56-4.88-1-5.49-.52,1.56-.86,11.75-1.13,20-.61,18.24-.88,20.67-1.66,20.67a.3.3,0,0,1-.13-.57c.55-1,.9-11.59,1.19-20.12.6-18.25.88-20.68,1.65-20.68s1.15,1.77,1.66,6.11c.25,2.12.62,5.31,1.08,5.55h0c.78,0,1,2.37,1.63,14.84.27,6,.62,13.51,1.15,14.29a.29.29,0,0,1,.2.28A.3.3,0,0,1,844,762.14Z"/><path class="cls-5" d="M776.25,762.14c-.87,0-1.16-1.77-1.66-6.11-.25-2.12-.62-5.31-1.08-5.55-.41.24-.78,3.45-1,5.57-.5,4.33-.79,6.09-1.65,6.09a.29.29,0,0,1-.3-.3.3.3,0,0,1,.28-.3c.46-.27.83-3.45,1.07-5.56.51-4.33.8-6.09,1.65-6.09s1.15,1.75,1.65,6.07c.25,2.13.63,5.35,1.09,5.59a.28.28,0,0,1,.29.29A.3.3,0,0,1,776.25,762.14Z"/><path class="cls-5" d="M762.7,762.14c-.47,0-.75,0-1.11-17.51-.21-10.33-.38-24.36-.54-37.92-.28-22.22-.58-47-1.07-53.68-.48,6.4-.78,29.71-1.05,50.58-.17,12.88-.34,26.2-.55,36-.36,16.67-.64,16.67-1.1,16.67s-.83,1.62-1.08,2.7c-.39,1.68-.73,3.13-1.64,3.13a.29.29,0,0,1-.3-.3.3.3,0,0,1,.3-.3c.44,0,.81-1.61,1.06-2.67.37-1.58.69-3,1.47-3.14.59-2.15.94-28.68,1.24-52.13.16-12.88.34-26.21.55-36,.36-16.67.64-16.67,1.1-16.67s.75,0,1.11,17.66c.21,10.41.39,24.52.55,38.16.31,24.94.66,53.19,1.26,54.91a.32.32,0,0,1,.1.22A.3.3,0,0,1,762.7,762.14Z"/><path class="cls-5" d="M743.72,762.14c-.78,0-1-3.18-1.66-32.43-.3-14.2-.64-30.27-1.22-31.67-.68-.34-1-3.2-1.48-14.8-.25-5.31-.55-11.76-1-13.75-.53,4.14-.85,26.25-1.14,45.93-.62,42.41-.87,46.72-1.65,46.72a.29.29,0,0,1-.3-.3.33.33,0,0,1,.1-.23c.6-1.58.94-25.27,1.25-46.2.17-11.48.34-23.36.55-32.13.37-14.92.66-14.92,1.11-14.92.81,0,1.08,2.36,1.66,14.85.28,6,.62,13.54,1.15,14.3.7.33,1,4.52,1.55,32.18.3,14.36.65,30.6,1.23,31.9a.31.31,0,0,1,.13.25A.29.29,0,0,1,743.72,762.14Zm-8.13-.6Zm0,0Zm8.13,0h0Z"/><path class="cls-5" d="M711.2,762.14c-.78,0-1.06-2.44-1.67-20.75-.26-7.79-.58-17.31-1-19.61-.47,2.3-.79,11.82-1.05,19.61-.61,18.31-.89,20.75-1.67,20.75a.3.3,0,0,1-.13-.57c.56-1,.91-11.63,1.2-20.2.62-18.58.88-20.6,1.65-20.6s1,2,1.65,20.6c.29,8.57.64,19.21,1.2,20.2a.3.3,0,0,1-.13.57Z"/><path class="cls-5" d="M665.11,762.14c-.77,0-1-2.9-1.66-29.49-.27-11.65-.57-24.69-1.05-28-.48,3.36-.78,16.39-1,28-.62,26.6-.89,29.5-1.67,29.5a.3.3,0,0,1-.3-.3.31.31,0,0,1,.14-.25c.58-1.23.92-16,1.23-29,.61-26.43.88-29.31,1.65-29.31s1,2.88,1.65,29.32c.3,13,.65,27.73,1.23,29a.3.3,0,0,1,.13.25A.29.29,0,0,1,665.11,762.14Z"/><path class="cls-5" d="M651.56,762.14c-.8,0-1.08-2-1.66-12-.25-4.27-.59-10-1-11.19-.47,1.17-.81,6.94-1.06,11.23-.57,9.93-.85,11.93-1.65,11.93a.3.3,0,0,1-.08-.59c.51-.65.87-6.84,1.13-11.38.58-9.92.86-11.93,1.66-11.93s1.07,2,1.65,11.89c.26,4.55.62,10.77,1.14,11.42a.3.3,0,0,1,.22.29A.29.29,0,0,1,651.56,762.14Z"/><path class="cls-5" d="M621.74,762.14a.29.29,0,0,1-.3-.29.3.3,0,0,1,.29-.31c.45,0,.83-1.62,1.08-2.69.39-1.68.73-3.14,1.64-3.14s1.26,1.46,1.65,3.15a7.12,7.12,0,0,0,.91,2.62c.57-2.26.91-22.57,1.21-40.55.62-36.9.88-40.92,1.65-40.92s1,4,1.65,40.92c.31,18.38.66,39.19,1.25,40.68a.29.29,0,0,1,.12.23.3.3,0,0,1-.3.3c-.78,0-1.05-4-1.67-41.2-.27-16.24-.57-34.38-1-39.23-.48,4.85-.78,23-1,39.23-.62,37.15-.88,41.2-1.66,41.2s-1.26-1.46-1.65-3.14c-.24-1.07-.62-2.69-1.06-2.69s-.81,1.61-1.06,2.67c-.39,1.69-.73,3.15-1.65,3.16Zm10.85-.6Z"/><path class="cls-5" d="M619,762.14h0c-.92,0-1.26-1.47-1.65-3.16-.25-1.06-.62-2.67-1.06-2.67s-.81,1.61-1.06,2.68c-.39,1.69-.74,3.15-1.66,3.15a.3.3,0,0,1-.3-.3.31.31,0,0,1,.3-.3c.45,0,.83-1.62,1.08-2.69.39-1.68.73-3.14,1.64-3.14s1.25,1.46,1.64,3.14c.25,1.07.63,2.69,1.08,2.69a.3.3,0,0,1,0,.6Z"/><path class="cls-5" d="M605.48,762.14c-.8,0-1.08-2-1.66-12-.27-4.55-.63-10.76-1.15-11.35-.7-.39-1-5.9-1.56-44-.26-17.26-.56-36.52-1-42-.5,6.37-.81,31.44-1.08,53.85-.17,13.56-.34,27.59-.55,37.92-.36,17.51-.64,17.51-1.1,17.51a.29.29,0,0,1-.3-.3.31.31,0,0,1,.09-.22c.6-1.72,1-30,1.26-54.91.16-13.64.34-27.75.55-38.16.36-17.66.64-17.66,1.11-17.66.78,0,1,4.32,1.65,44,.31,19.55.65,41.68,1.24,43.43.66.33.94,2.75,1.47,11.86.26,4.55.62,10.76,1.14,11.41a.3.3,0,0,1,.22.29A.29.29,0,0,1,605.48,762.14Z"/><path class="cls-5" d="M575.66,762.14c-.81,0-1.07-2.36-1.65-14.84-.27-5.63-.59-12.53-1.06-14-.47,1.52-.8,8.45-1.06,14.1-.58,12.44-.84,14.79-1.65,14.79a.3.3,0,0,1-.11-.58c.53-.78.88-8.24,1.16-14.24.58-12.53.85-14.89,1.66-14.89s1.07,2.35,1.65,14.84c.28,6,.63,13.51,1.16,14.29a.3.3,0,0,1,.2.28A.3.3,0,0,1,575.66,762.14Z"/><path class="cls-5" d="M529.74,762.17l-.24,0c-.38-.1-.67-.18-1-36-.21-21.35-.38-50.25-.55-78.19-.28-47.49-.58-96.37-1.06-109.61-.48,12-.77,53-1.05,92.85-.17,23.55-.34,47.9-.55,65.85-.33,27.69-.58,30-1,30.18-.54.94-.88,9.91-1.16,17.14-.59,15-.85,17.82-1.67,17.82s-1.25-1.46-1.64-3.14c-.25-1.07-.62-2.69-1.06-2.69s-.81,1.61-1.06,2.68c-.4,1.69-.74,3.15-1.66,3.15a.3.3,0,0,1-.3-.3.31.31,0,0,1,.3-.3c.45,0,.83-1.62,1.08-2.69.39-1.68.73-3.14,1.64-3.14s1.25,1.46,1.64,3.15c.23,1,.57,2.45,1,2.66.53-1.13.88-10,1.16-17.22.52-13.4.78-17,1.42-17.61.62-2.4,1-49.74,1.28-95.54.16-23.69.34-48.19.55-66.28.36-30.44.64-30.44,1.11-30.44s.75,0,1.1,35.64c.21,21.21.38,50,.55,77.83.32,53.88.65,109.55,1.27,113.59h0l1.32-.15.91-.11.11.14c.11.14.16.16.16.16.43-.23.8-3.44,1.05-5.56.5-4.32.79-6.08,1.64-6.08s1.27,1.46,1.66,3.15c.25,1.07.62,2.67,1.06,2.67.91,0,1.25,1.46,1.64,3.14a7.62,7.62,0,0,0,.9,2.6c.59-3.53.93-41.59,1.23-75.3.16-18.61.34-37.86.55-52.06.35-24,.63-24,1.1-24s.75,0,1.1,23.86c.21,14.15.38,33.34.55,51.9.31,34.58.66,73.75,1.29,75.75a.32.32,0,0,1,.07.2.29.29,0,0,1-.29.3c-.47,0-.76,0-1.12-24-.21-14.25-.38-33.55-.55-52.21-.27-30-.57-63.49-1-72.81-.48,9.34-.78,43-1,73.08-.17,18.6-.34,37.84-.55,52-.36,23.94-.64,23.94-1.1,23.94-.92,0-1.27-1.46-1.66-3.15-.25-1.07-.62-2.68-1.06-2.68-.91,0-1.25-1.45-1.64-3.13-.25-1.07-.63-2.69-1.08-2.69-.43.23-.8,3.43-1,5.55-.5,4.33-.79,6.09-1.65,6.09a.72.72,0,0,1-.52-.27l-.58.07-1.32.16h-.09Z"/><path class="cls-5" d="M502.47,762.14c-.79,0-1-4.59-1.65-49.8-.27-19.77-.57-41.86-1.06-47.82-.48,6-.79,28.15-1.06,48-.62,45.05-.86,49.62-1.65,49.62a.29.29,0,0,1-.3-.3.29.29,0,0,1,.1-.22c.6-1.63.94-26.84,1.25-49.11.17-12.21.34-24.83.55-34.15.37-15.82.66-15.82,1.12-15.82.78,0,1,4.59,1.65,49.79.3,22.35.65,47.65,1.25,49.29a.29.29,0,0,1,.1.22A.3.3,0,0,1,502.47,762.14Zm0-.6Zm-5.42,0Zm5.42,0Zm-5.42,0Z"/><path class="cls-5" d="M486.21,762.14c-.78,0-1-3.18-1.66-32.43-.3-14-.63-29.7-1.19-31.58a6.86,6.86,0,0,0-.92,2.63c-.38,1.6-.7,3-1.5,3.14-.57,1.44-.91,16-1.21,28.92-.62,26.44-.88,29.32-1.65,29.32a.29.29,0,0,1-.3-.3.3.3,0,0,1,.13-.25c.57-1.23.92-15.86,1.22-28.78.62-26.6.88-29.5,1.66-29.5.44,0,.81-1.61,1.06-2.68.39-1.69.73-3.15,1.65-3.15.77,0,1,3.17,1.65,32.22.3,14.35.64,30.59,1.23,31.89a.31.31,0,0,1,.13.25A.29.29,0,0,1,486.21,762.14Z"/><path class="cls-5" d="M453.68,762.14a.31.31,0,0,1-.3-.29.31.31,0,0,1,.3-.31c.44,0,.82-1.61,1.06-2.68.39-1.69.73-3.15,1.65-3.15h5.42c.92,0,1.26,1.47,1.65,3.16.25,1.06.63,2.67,1.06,2.67s.81-1.61,1.06-2.67c.4-1.69.74-3.16,1.66-3.16s1.25,1.46,1.64,3.15c.25,1.07.62,2.68,1.06,2.68a.3.3,0,0,1,.3.3.29.29,0,0,1-.3.3c-.91,0-1.25-1.46-1.64-3.14-.25-1.07-.62-2.69-1.06-2.69s-.83,1.62-1.08,2.7c-.39,1.68-.73,3.13-1.64,3.13s-1.25-1.45-1.64-3.13c-.25-1.08-.63-2.7-1.07-2.7h-5.42c-.44,0-.82,1.62-1.06,2.68-.39,1.69-.73,3.14-1.64,3.15Z"/><path class="cls-5" d="M451,762.14h0c-.92,0-1.25-1.46-1.65-3.15-.24-1.06-.62-2.68-1.05-2.68s-.83,1.62-1.08,2.7c-.39,1.68-.73,3.13-1.64,3.13s-1.25-1.45-1.64-3.13c-.25-1.08-.63-2.7-1.08-2.7s-.81,1.62-1.06,2.69c-.39,1.68-.73,3.14-1.64,3.14a.29.29,0,0,1-.3-.3.3.3,0,0,1,.3-.3c.44,0,.81-1.61,1.06-2.68.39-1.69.73-3.15,1.64-3.15s1.27,1.47,1.66,3.16c.25,1.06.62,2.67,1.06,2.67s.81-1.61,1.06-2.67c.39-1.69.73-3.16,1.66-3.16s1.25,1.46,1.64,3.15c.25,1.07.62,2.68,1.06,2.68a.3.3,0,0,1,.3.31A.3.3,0,0,1,451,762.14Z"/><path class="cls-5" d="M434.71,762.14c-.86,0-1.16-1.77-1.66-6.11-.25-2.12-.62-5.31-1.08-5.55h0c-.75,0-1-3.75-1.62-38-.31-16.91-.65-36-1.24-37.71-.73-.23-1-2-1.48-6.07a25.94,25.94,0,0,0-.94-5.4c-.54,2.59-.87,21-1.17,37.28-.59,33.19-.86,37.93-1.57,38.24-.52.62-.88,6.84-1.14,11.39-.58,9.93-.86,11.93-1.65,11.93s-1.27-1.46-1.66-3.15c-.25-1.07-.62-2.68-1.06-2.68s-.81,1.61-1.06,2.68c-.39,1.69-.73,3.15-1.65,3.15a.29.29,0,0,1-.3-.3.3.3,0,0,1,.3-.3c.44,0,.82-1.62,1.07-2.69.39-1.68.73-3.14,1.64-3.14s1.25,1.46,1.64,3.14c.24,1,.6,2.53,1,2.68.5-.77.86-6.87,1.12-11.35.53-9.19.81-11.59,1.48-11.9.59-1.61.93-20.77,1.24-37.71.61-34.3.87-38,1.65-38s1.14,1.76,1.65,6.09c.24,2.12.61,5.33,1.07,5.57h0c.76,0,1,3.77,1.64,38.27.31,16.78.65,35.76,1.22,37.44.73.23,1,2,1.48,6.05.25,2.13.63,5.35,1.09,5.59a.28.28,0,0,1,.29.29A.3.3,0,0,1,434.71,762.14Z"/><path class="cls-5" d="M372.36,762.14c-.86,0-1.15-1.76-1.65-6.07-.25-2.13-.62-5.35-1.09-5.59-.41.24-.78,3.45-1,5.57-.5,4.33-.79,6.09-1.65,6.09s-1.25-1.45-1.64-3.13c-.25-1.08-.63-2.7-1.07-2.7s-.82,1.62-1.06,2.69c-.4,1.68-.73,3.14-1.65,3.14a.3.3,0,0,1-.3-.3.31.31,0,0,1,.3-.3c.44,0,.81-1.61,1.06-2.68.39-1.69.73-3.15,1.65-3.15s1.26,1.47,1.65,3.16c.25,1.06.63,2.67,1.06,2.67.44-.23.81-3.44,1.06-5.56.5-4.33.79-6.09,1.64-6.09s1.16,1.77,1.67,6.11c.24,2.11.62,5.31,1.07,5.55a.28.28,0,0,1,.29.29A.3.3,0,0,1,372.36,762.14Z"/><path class="cls-5" d="M353.39,762.14c-.77,0-1-2.59-1.65-26.41-.28-10.58-.59-22.44-1.07-25.42-.47,3-.78,14.79-1.05,25.33-.62,23.9-.88,26.5-1.65,26.5a.3.3,0,0,1-.16-.55c.57-1.16.91-14.33,1.21-26,.62-23.9.88-26.5,1.65-26.5s1.05,2.61,1.67,26.59c.3,11.59.64,24.71,1.2,25.87a.28.28,0,0,1,.15.25A.3.3,0,0,1,353.39,762.14Z"/><path class="cls-5" d="M342.55,762.14c-.82,0-1.08-2.36-1.67-14.89-.26-5.61-.58-12.47-1.05-14-.47,1.53-.79,8.39-1.05,14-.58,12.53-.85,14.89-1.66,14.89a.29.29,0,0,1-.3-.3.29.29,0,0,1,.2-.28c.53-.78.88-8.29,1.16-14.34.58-12.44.85-14.79,1.65-14.79s1.07,2.35,1.65,14.79c.29,6,.64,13.56,1.17,14.34a.29.29,0,0,1,.2.28A.29.29,0,0,1,342.55,762.14Z"/><path class="cls-5" d="M312.84,762.14c-.86,0-1.15-1.76-1.65-6.09-.25-2.12-.62-5.33-1.08-5.57h0c-.76,0-1-2.63-1.64-26.58-.3-11.55-.64-24.62-1.2-25.85-.69-.31-1-3.12-1.5-14.76-.25-5.42-.56-12-1-13.88-.51,3.26-.83,19.62-1.11,34.2-.59,30.57-.86,34.93-1.56,35.22-.52.62-.88,6.81-1.14,11.34-.58,10-.86,12-1.67,12a.3.3,0,0,1-.3-.3.31.31,0,0,1,.22-.29c.52-.65.88-6.87,1.15-11.42.53-9.16.81-11.55,1.48-11.85.58-1.53.92-19.13,1.22-34.68.62-31.77.88-35.24,1.65-35.24s1.08,2.37,1.67,14.9c.28,6,.62,13.46,1.15,14.24.69.26,1,3.67,1.55,26.38.3,11.6.64,24.72,1.21,26,.75.2,1,2,1.5,6.08.25,2.12.62,5.33,1.08,5.57a.28.28,0,0,1,.29.29A.31.31,0,0,1,312.84,762.14Z"/><path class="cls-5" d="M288.44,762.14c-.77,0-1-4.3-1.65-43.83-.27-17.53-.57-37.12-1.06-42.33-.48,5.21-.78,24.73-1.05,42.2-.62,39.64-.88,44-1.65,44a.29.29,0,0,1-.3-.3.33.33,0,0,1,.1-.23c.6-1.53.94-23.78,1.25-43.44.61-39.66.87-44,1.65-44s1,4.34,1.66,44.11c.31,19.6.65,41.78,1.25,43.31a.33.33,0,0,1,.1.23A.29.29,0,0,1,288.44,762.14Zm0-.6Zm-5.43,0Z"/><path class="cls-5" d="M277.61,762.14c-.78,0-1.05-3.18-1.67-32.43-.27-12.92-.58-27.38-1.06-30.94-.47,3.12-.77,14.74-1,25.13-.62,24-.89,26.59-1.66,26.59s-1-3.47-1.66-35.24c-.28-14.69-.6-31.2-1.12-34.28-.43,1.55-.74,6.92-1,11-.58,10-.86,12-1.66,12s-1.15-1.77-1.65-6.1c-.23-2-.57-4.85-1-5.46-.53,1.56-.87,11.78-1.14,20.07-.59,17.75-.86,20.39-1.55,20.59-.53.81-.87,8.25-1.15,14.24-.59,12.53-.85,14.89-1.67,14.89a.3.3,0,0,1-.3-.3.29.29,0,0,1,.2-.28c.54-.78.88-8.29,1.17-14.34.54-11.75.81-14.5,1.52-14.77.55-1.05.9-11.57,1.18-20.05.61-18.3.88-20.75,1.66-20.75s1.15,1.77,1.65,6.1c.24,2,.59,5,1,5.51.49-.91.84-6.92,1.1-11.36.58-9.89.86-11.89,1.65-11.89s1,3.46,1.65,35.23c.28,14.2.59,30.11,1.08,33.93.47-3.18.77-14.85,1-25.29.62-23.81.88-26.4,1.65-26.4s1,3.16,1.65,32.21c.31,14.36.65,30.6,1.24,31.9a.34.34,0,0,1,.13.25A.3.3,0,0,1,277.61,762.14Z"/><path class="cls-5" d="M247.78,762.14c-.91,0-1.25-1.46-1.64-3.14-.25-1.07-.62-2.69-1.06-2.69-.78,0-1.06-2.44-1.66-20.74-.29-8.6-.65-19.31-1.21-20.08a.19.19,0,0,0,.15.06c-.78,0-1-4.34-1.65-46.72-.3-21.05-.65-44.87-1.25-46.52-.63-.48-.91-4-1.46-20.61-.25-7.47-.55-16.51-1-19.32-.53,5-.85,29.62-1.13,51.53-.17,12.85-.34,26.13-.55,35.92-.31,14.44-.56,16.32-.93,16.57-.58,1.6-.92,20.7-1.22,37.58-.62,34.41-.88,38.16-1.65,38.16s-1.09-2-1.67-12c-.26-4.5-.62-10.63-1.12-11.33-.42-.05-.69-.92-1-16.61-.21-9.8-.38-23.09-.55-35.94-.27-20.79-.57-44-1-50.59-.49,7.48-.8,36.31-1.07,62.1-.65,61.41-.91,64.34-1.65,64.34a.3.3,0,0,1-.3-.3.27.27,0,0,1,.09-.21c.61-1.85,1-34.77,1.26-63.83.65-61.45.92-64.38,1.66-64.38.45,0,.74,0,1.11,16.73.21,9.86.38,23.22.55,36.13.3,23.48.65,50.05,1.24,52,.66.35.93,2.79,1.46,11.85.24,4.06.55,9.46,1,11,.52-3.27.84-21.22,1.13-37.2.61-34.39.88-38.13,1.65-38.13a.26.26,0,0,0-.22.11c.61-1.26,1-28.24,1.27-52.05.17-12.92.34-26.28.55-36.14C236.2,581,236.49,581,237,581c.77,0,1,2.44,1.65,20.67.28,8.49.63,19,1.17,20.11.39.12.66,1.4,1,14.9.21,8.77.39,20.65.55,32.13.31,20.86.65,44.46,1.24,46.19.63.42.9,3.57,1.47,20.54.28,8.51.63,19.05,1.18,20.17.83.13,1.15,1.53,1.52,3.14.25,1.07.63,2.68,1.06,2.68a.3.3,0,0,1,.3.3A.29.29,0,0,1,247.78,762.14ZM242.36,715h0Z"/><path class="cls-5" d="M215.26,762.14c-.92,0-1.25-1.45-1.65-3.13-.25-1.08-.62-2.7-1.07-2.7-.77,0-1-4-1.65-41-.27-16.24-.57-34.39-1-39.32-.48,5.14-.78,24.64-1.05,42.08-.62,39.79-.89,44.12-1.67,44.12a.3.3,0,0,1-.3-.3.28.28,0,0,1,.11-.23c.6-1.54.95-23.87,1.26-43.6.61-39.51.87-43.82,1.65-43.82s1,4,1.65,41.06c.3,18.14.64,38.65,1.22,40.48.8.17,1.12,1.55,1.49,3.14.25,1.06.62,2.67,1.06,2.67a.31.31,0,0,1,.3.3A.3.3,0,0,1,215.26,762.14Zm-8.14-.6Z"/><path class="cls-5" d="M199,762.14c-.82,0-1.08-2.83-1.67-17.82-.28-7.29-.63-16.35-1.18-17.16-.67-.46-.94-5.25-1.52-35.07-.27-13.78-.56-29.17-1-33.63-.5,5.76-.81,29.64-1.08,51-.17,12.89-.34,26.21-.55,36-.36,16.67-.64,16.67-1.11,16.67-.83,0-1.11-2-1.66-9-.26-3.4-.62-8-1.12-8.45-.4,0-.68,0-1-31.22-.21-18.56-.39-43.72-.55-68.06-.31-44.41-.62-90.23-1.17-97.8-.42,2.65-.71,10.14-1,16.34-.52,13.42-.78,17-1.42,17.61-.62,2.32-1,46.76-1.28,89.74-.17,22.26-.34,45.27-.55,62.26-.36,28.62-.65,28.62-1.12,28.62a.3.3,0,0,1-.3-.3.27.27,0,0,1,.08-.19c.63-2.15,1-47,1.29-90.39.17-22.12.34-45,.55-61.86.32-26,.57-28.19,1-28.37.54-.95.89-9.91,1.17-17.14.58-15,.85-17.82,1.67-17.82.48,0,.74,0,1.1,31.23.21,18.57.38,43.73.55,68.07.32,47.15.65,95.88,1.27,98.76.66.36.94,2.62,1.43,8.92a57.26,57.26,0,0,0,.95,8.16c.55-3.82.88-29.22,1.17-51.78.16-12.89.33-26.21.55-36,.35-16.67.63-16.67,1.1-16.67.78,0,1,3.47,1.66,35.36.31,15.56.65,33.17,1.23,34.57.68.44.94,3.88,1.47,17.65.29,7.3.64,16.37,1.19,17.27a.28.28,0,0,1,.18.27A.29.29,0,0,1,199,762.14Zm-2.72-34.94Z"/><path class="cls-5" d="M142.07,762.14c-.92,0-1.25-1.46-1.65-3.14-.24-1.07-.62-2.69-1.06-2.69s-.82,1.62-1.07,2.7c-.39,1.68-.73,3.13-1.64,3.13a.29.29,0,0,1-.3-.3.3.3,0,0,1,.3-.3c.44,0,.81-1.61,1.06-2.67.39-1.69.73-3.16,1.65-3.16s1.26,1.46,1.65,3.15c.25,1.07.62,2.68,1.06,2.68a.31.31,0,0,1,.3.3A.3.3,0,0,1,142.07,762.14Z"/><path class="cls-5" d="M125.81,762.14c-.86,0-1.16-1.77-1.66-6.11-.25-2.12-.62-5.31-1.08-5.55-.41.24-.78,3.43-1,5.55-.5,4.34-.8,6.11-1.66,6.11s-1.25-1.46-1.64-3.14c-.25-1.07-.63-2.69-1.06-2.69s-.81,1.61-1.06,2.68c-.4,1.69-.74,3.15-1.66,3.15a.29.29,0,0,1-.3-.3.3.3,0,0,1,.3-.3c.45,0,.82-1.62,1.07-2.69.4-1.68.73-3.14,1.65-3.14s1.25,1.46,1.64,3.15c.25,1.07.62,2.68,1.06,2.68.44-.23.82-3.45,1.07-5.58.5-4.32.79-6.07,1.65-6.07s1.14,1.75,1.64,6.07c.25,2.13.63,5.35,1.09,5.59a.28.28,0,0,1,.29.29A.3.3,0,0,1,125.81,762.14Z"/><path class="cls-5" d="M98.7,762.14c-.88,0-1.06-1.77-1.29-6.13-.11-2.1-.28-5.26-.71-5.53a.28.28,0,0,1-.28-.3.3.3,0,0,1,.31-.29c.87,0,1,1.76,1.28,6.09.11,2.11.28,5.3.72,5.57a.29.29,0,0,1,.29.3A.31.31,0,0,1,98.7,762.14Z"/><path class="cls-5" d="M1088.78,762.14H96.47l0-.33V750.19a.3.3,0,1,1,.6,0v11.35h991.75a.3.3,0,0,1,.3.3A.29.29,0,0,1,1088.78,762.14Z"/><path d="M286.81,180.86c0,1.06.91,1.79,2.38,1.79s2.44-.64,2.44-1.73c0-2.53-6.32-.52-6.32-4.52,0-1.76,1.51-3,3.89-3s3.84,1.12,3.84,2.93h-1.65c0-1-.94-1.62-2.19-1.62s-2.21.54-2.21,1.56c0,2.52,6.36.48,6.36,4.56,0,1.89-1.51,3.17-4.16,3.17s-4.05-1.22-4.05-3.1Z"/><path d="M296.84,187.05h-1.61V176.52h1.55v1.08h.06a2.5,2.5,0,0,1,2.41-1.26c1.83,0,3.24,1.34,3.24,3.75S301,184,299.13,184a2.35,2.35,0,0,1-2.29-1.27h-.06c.06.95.06,1.95.06,2.44Zm2-9.42c-1.1,0-1.95.88-2,2.4v.12c0,1.59.86,2.51,2,2.51s2-1,2-2.57S300,177.63,298.83,177.63Z"/><path d="M307.34,176.34a3.21,3.21,0,0,1,3.39,3.54v.53h-5.34c.09,1.42.85,2.28,2,2.28a1.57,1.57,0,0,0,1.68-1.12h1.58a3.08,3.08,0,0,1-3.27,2.39c-2.32,0-3.65-1.42-3.65-3.8A3.55,3.55,0,0,1,307.34,176.34Zm-1.87,3h3.63c-.14-1.21-.75-1.74-1.76-1.74A1.92,1.92,0,0,0,305.47,179.33Z"/><path d="M313.73,184.67c0,.8.77,1.29,1.83,1.29,1.29,0,2.17-.65,2.17-2.56v-.71h-.06a2.51,2.51,0,0,1-2.41,1.27c-1.83,0-3.24-1.34-3.24-3.75s1.5-3.87,3.36-3.87a2.35,2.35,0,0,1,2.29,1.26h.06v-1.08h1.53v6.88c0,2.74-1.58,3.77-3.7,3.77-1.94,0-3.32-.83-3.35-2.5Zm1.93-2c1.15,0,2-.92,2-2.51V180c0-1.52-.87-2.4-2-2.4s-2,1-2,2.58S314.53,182.66,315.66,182.66Z"/><path d="M321.45,176.52H323v1h.06a2.31,2.31,0,0,1,2.24-1.23c1.45,0,2.72.77,2.72,3v4.41h-1.6v-4.2c0-1.44-.61-1.93-1.55-1.93s-1.81.87-1.81,2.33v3.8h-1.61Z"/><path d="M330,172.89h1.73v1.63H330Zm.06,3.63h1.61v7.26h-1.61Z"/><path d="M333.89,176.52h1.55v1h.06a2.57,2.57,0,0,1,4.5.21,2.49,2.49,0,0,1,2.44-1.44c1.42,0,2.58.77,2.58,2.94v4.5h-1.61v-4.3c0-1.36-.48-1.83-1.4-1.83s-1.75.86-1.75,2.3v3.83h-1.61v-4.3c0-1.36-.52-1.83-1.4-1.83s-1.75.86-1.75,2.32v3.81h-1.61Z"/><path d="M350.17,176.34a3.21,3.21,0,0,1,3.39,3.54v.53h-5.34c.09,1.42.85,2.28,2,2.28a1.57,1.57,0,0,0,1.68-1.12h1.57a3.07,3.07,0,0,1-3.27,2.39c-2.32,0-3.64-1.42-3.64-3.8A3.54,3.54,0,0,1,350.17,176.34Zm-1.88,3h3.63c-.13-1.21-.74-1.74-1.75-1.74A1.93,1.93,0,0,0,348.29,179.33Z"/><path d="M355.18,176.52h1.55v1h.06a2.32,2.32,0,0,1,2.25-1.23c1.44,0,2.72.77,2.72,3v4.41h-1.61v-4.2c0-1.44-.61-1.93-1.55-1.93s-1.81.87-1.81,2.33v3.8h-1.61Z"/><path d="M364,177.77h-1.37v-1.25H364v-2.21h1.6v2.21h1.86v1.25h-1.86v3.6c0,.77.27,1.07,1,1.07h.84v1.34h-1.11c-1.67,0-2.35-.7-2.35-2.32Z"/><path d="M372.09,176.34a3.49,3.49,0,0,1,3.7,3.81,3.55,3.55,0,0,1-3.7,3.81,3.5,3.5,0,0,1-3.71-3.81A3.56,3.56,0,0,1,372.09,176.34Zm0,6.32c1.22,0,2-1,2-2.51s-.81-2.52-2-2.52-2,1-2,2.52S370.87,182.66,372.09,182.66Z"/><path d="M285.44,195.12H287v1h0a2,2,0,0,1,1.92-1.23,1.64,1.64,0,0,1,1,.3l-.42,1.42a1.93,1.93,0,0,0-.89-.23c-1.08,0-1.6,1-1.6,2.32v3.63h-1.61Z"/><path d="M291,191.49h1.72v1.63H291Zm.06,3.63h1.61v7.26h-1.61Z"/><path d="M295.84,200.29c0,.81.82,1.14,1.61,1.14,1.11,0,1.66-.39,1.66-1.06s-.37-.76-1.1-.88l-1.34-.24c-1.11-.18-2.18-.62-2.18-2s1.32-2.32,3-2.32,3,.68,3,2.2H299c0-.71-.64-1.07-1.5-1.07s-1.49.36-1.49,1,.35.74,1.21.89l1.34.22c1.14.2,2.14.64,2.14,2,0,1.59-1.34,2.38-3.27,2.38s-3.14-.75-3.14-2.27Z"/><path d="M305.51,194.94a3,3,0,0,1,3.3,2.66h-1.59a1.59,1.59,0,0,0-1.71-1.37c-1.13,0-1.95,1-1.95,2.52s.82,2.51,1.95,2.51a1.58,1.58,0,0,0,1.71-1.37h1.59a3,3,0,0,1-3.3,2.67c-2.23,0-3.61-1.43-3.61-3.81A3.51,3.51,0,0,1,305.51,194.94Z"/><path d="M312.49,198.3l1.41-.24c.72-.12.94-.21.94-.49a1.27,1.27,0,0,0-1.43-1.43,1.36,1.36,0,0,0-1.53,1.28h-1.53c.09-1.5,1.25-2.48,3.06-2.48,2,0,3,1,3,2.66v4.78h-1.53v-.91h-.08a2.59,2.59,0,0,1-2.32,1.09c-1.59,0-2.45-.82-2.45-2S310.78,198.58,312.49,198.3Zm2.35.43a1.19,1.19,0,0,1-.74.34l-1.25.21c-.85.14-1.18.51-1.18,1.07s.42,1,1.24,1a1.83,1.83,0,0,0,1.93-1.95Z"/><path d="M318.53,191.49h1.61v10.89h-1.61Z"/><path d="M325.18,194.94a2.36,2.36,0,0,1,2.29,1.26h.06c-.07-.95-.07-1.95-.07-2.44v-2.27h1.61v10.89h-1.54v-1.09h-.06a2.5,2.5,0,0,1-2.41,1.27c-1.83,0-3.24-1.34-3.24-3.75S323.32,194.94,325.18,194.94Zm.29,6.32c1.14,0,2-.92,2-2.51s-.85-2.52-2-2.52-2,1-2,2.58S324.34,201.26,325.47,201.26Z"/><path d="M333.26,198.3l1.42-.24c.71-.12.93-.21.93-.49a1.27,1.27,0,0,0-1.42-1.43,1.36,1.36,0,0,0-1.54,1.28h-1.53c.09-1.5,1.25-2.48,3.07-2.48,2,0,3,1,3,2.66v4.78h-1.53v-.91h-.08a2.59,2.59,0,0,1-2.32,1.09c-1.59,0-2.45-.82-2.45-2S331.55,198.58,333.26,198.3Zm2.35.43a1.17,1.17,0,0,1-.74.34l-1.25.21c-.85.14-1.18.51-1.18,1.07s.42,1,1.24,1a1.82,1.82,0,0,0,1.93-1.95Z"/><path d="M339.31,195.12h1.54v1h.06a2.58,2.58,0,0,1,4.51.21,2.49,2.49,0,0,1,2.44-1.44c1.41,0,2.57.77,2.57,2.94v4.5h-1.6v-4.3c0-1.36-.48-1.83-1.4-1.83s-1.76.86-1.76,2.3v3.83h-1.6v-4.3c0-1.36-.52-1.83-1.4-1.83s-1.76.86-1.76,2.32v3.81h-1.6Z"/><path d="M355.58,194.94a3.22,3.22,0,0,1,3.4,3.54V199h-5.34c.08,1.42.84,2.28,2,2.28a1.56,1.56,0,0,0,1.68-1.11h1.58a3.08,3.08,0,0,1-3.27,2.38c-2.32,0-3.65-1.42-3.65-3.8A3.55,3.55,0,0,1,355.58,194.94Zm-1.87,3h3.63c-.13-1.21-.74-1.74-1.76-1.74A1.92,1.92,0,0,0,353.71,197.93Z"/><path d="M360.6,195.12h1.55v1h.06a2.31,2.31,0,0,1,2.24-1.23c1.45,0,2.73.77,2.73,3v4.41h-1.61v-4.2c0-1.44-.61-1.93-1.55-1.93s-1.81.88-1.81,2.33v3.8H360.6Z"/><path d="M369.39,196.37H368v-1.25h1.37v-2.2H371v2.2h1.86v1.25H371V200c0,.77.27,1.07,1,1.07h.85v1.34h-1.12c-1.66,0-2.35-.7-2.35-2.32Z"/><path d="M374.24,191.49H376v1.63h-1.73Zm.06,3.63h1.61v7.26H374.3Z"/><path d="M890.13,173.54h2l3.81,10.24h-1.78l-.87-2.49h-4.38l-.87,2.49h-1.7Zm.94,1.67-1.67,4.68h3.38l-1.66-4.68Z"/><path d="M900.41,176.34a3,3,0,0,1,3.3,2.66h-1.59a1.59,1.59,0,0,0-1.71-1.37c-1.13,0-1.95,1-1.95,2.52s.82,2.51,1.95,2.51a1.58,1.58,0,0,0,1.71-1.37h1.59a3,3,0,0,1-3.3,2.67c-2.23,0-3.61-1.43-3.61-3.81A3.51,3.51,0,0,1,900.41,176.34Z"/><path d="M908.52,176.34a3,3,0,0,1,3.3,2.66h-1.59a1.59,1.59,0,0,0-1.71-1.37c-1.13,0-1.95,1-1.95,2.52s.82,2.51,1.95,2.51a1.58,1.58,0,0,0,1.71-1.37h1.59a3,3,0,0,1-3.3,2.67c-2.23,0-3.62-1.43-3.62-3.81A3.52,3.52,0,0,1,908.52,176.34Z"/><path d="M916.61,176.34a3.22,3.22,0,0,1,3.4,3.54v.53h-5.34c.09,1.42.84,2.28,2,2.28a1.56,1.56,0,0,0,1.68-1.12h1.58a3.08,3.08,0,0,1-3.27,2.39c-2.32,0-3.64-1.42-3.64-3.8A3.54,3.54,0,0,1,916.61,176.34Zm-1.87,3h3.63c-.13-1.21-.74-1.74-1.76-1.74A1.92,1.92,0,0,0,914.74,179.33Z"/><path d="M921.63,176.52h1.55v1h.06a2.31,2.31,0,0,1,2.24-1.23c1.45,0,2.73.77,2.73,3v4.41H926.6v-4.2c0-1.44-.61-1.93-1.55-1.93s-1.81.87-1.81,2.33v3.8h-1.61Z"/><path d="M931.27,181.69c0,.81.82,1.13,1.61,1.13,1.11,0,1.67-.38,1.67-1s-.38-.76-1.11-.88l-1.34-.24c-1.11-.18-2.18-.62-2.18-2s1.32-2.32,3-2.32,3,.68,3,2.2h-1.5c0-.71-.64-1.07-1.51-1.07s-1.48.36-1.48,1,.34.74,1.2.89l1.34.22c1.15.19,2.14.64,2.14,2,0,1.6-1.34,2.39-3.27,2.39s-3.14-.75-3.14-2.27Z"/><path d="M937.79,172.89h1.73v1.63h-1.73Zm.06,3.63h1.61v7.26h-1.61Z"/><path d="M944.84,176.34a3.49,3.49,0,0,1,3.71,3.81,3.55,3.55,0,0,1-3.71,3.81,3.5,3.5,0,0,1-3.7-3.81A3.56,3.56,0,0,1,944.84,176.34Zm0,6.32c1.22,0,2-1,2-2.51s-.82-2.52-2-2.52-2,1-2,2.52S943.62,182.66,944.84,182.66Z"/><path d="M950.23,176.52h1.55v1h.06a2.31,2.31,0,0,1,2.24-1.23c1.45,0,2.73.77,2.73,3v4.41H955.2v-4.2c0-1.44-.61-1.93-1.55-1.93s-1.81.87-1.81,2.33v3.8h-1.61Z"/><path d="M962,176.34a3.22,3.22,0,0,1,3.4,3.54v.53H960c.09,1.42.84,2.28,2,2.28a1.57,1.57,0,0,0,1.68-1.12h1.57A3.08,3.08,0,0,1,962,184c-2.32,0-3.65-1.42-3.65-3.8A3.55,3.55,0,0,1,962,176.34Zm-1.87,3h3.63c-.13-1.21-.74-1.74-1.76-1.74A1.92,1.92,0,0,0,960.08,179.33Z"/><path d="M887.26,195.12h1.54v1h.05a2,2,0,0,1,1.92-1.23,1.64,1.64,0,0,1,1,.3l-.42,1.42a2,2,0,0,0-.89-.23c-1.09,0-1.61,1-1.61,2.32v3.63h-1.6Z"/><path d="M892.81,191.49h1.72v1.63h-1.72Zm.06,3.63h1.6v7.26h-1.6Z"/><path d="M897.66,200.29c0,.81.82,1.14,1.61,1.14,1.11,0,1.66-.39,1.66-1.06s-.37-.76-1.1-.88l-1.34-.24c-1.11-.18-2.19-.62-2.19-2s1.33-2.32,3-2.32,3,.68,3,2.2h-1.5c0-.71-.64-1.07-1.5-1.07s-1.49.36-1.49,1,.34.74,1.21.89l1.34.22c1.14.2,2.14.64,2.14,2,0,1.59-1.34,2.38-3.27,2.38s-3.14-.75-3.14-2.27Z"/><path d="M907.33,194.94a3,3,0,0,1,3.3,2.66H909a1.59,1.59,0,0,0-1.71-1.37c-1.13,0-2,1-2,2.52s.82,2.51,2,2.51a1.58,1.58,0,0,0,1.71-1.37h1.59a3,3,0,0,1-3.3,2.67c-2.23,0-3.62-1.43-3.62-3.81A3.52,3.52,0,0,1,907.33,194.94Z"/><path d="M914.31,198.3l1.41-.24c.72-.12.94-.21.94-.49a1.27,1.27,0,0,0-1.43-1.43,1.35,1.35,0,0,0-1.53,1.28h-1.53c.09-1.5,1.25-2.48,3.06-2.48,2,0,3,1,3,2.66v4.78h-1.54v-.91h-.07a2.6,2.6,0,0,1-2.32,1.09c-1.59,0-2.46-.82-2.46-2S912.6,198.58,914.31,198.3Zm2.35.43a1.19,1.19,0,0,1-.74.34l-1.25.21c-.85.14-1.18.51-1.18,1.07s.42,1,1.24,1a1.83,1.83,0,0,0,1.93-1.95Z"/><path d="M920.35,191.49H922v10.89h-1.61Z"/><path d="M927,194.94a2.36,2.36,0,0,1,2.29,1.26h.06c-.07-.95-.07-1.95-.07-2.44v-2.27h1.6v10.89h-1.53v-1.09h-.06a2.5,2.5,0,0,1-2.41,1.27c-1.83,0-3.24-1.34-3.24-3.75S925.14,194.94,927,194.94Zm.28,6.32c1.15,0,2-.92,2-2.51s-.85-2.52-2-2.52-2,1-2,2.58S926.15,201.26,927.28,201.26Z"/><path d="M935.08,198.3l1.42-.24c.71-.12.93-.21.93-.49a1.27,1.27,0,0,0-1.43-1.43,1.36,1.36,0,0,0-1.53,1.28h-1.53c.09-1.5,1.25-2.48,3.06-2.48,2,0,3,1,3,2.66v4.78h-1.53v-.91h-.08a2.59,2.59,0,0,1-2.32,1.09c-1.59,0-2.45-.82-2.45-2S933.37,198.58,935.08,198.3Zm2.35.43a1.19,1.19,0,0,1-.74.34l-1.25.21c-.85.14-1.18.51-1.18,1.07s.42,1,1.24,1a1.83,1.83,0,0,0,1.93-1.95Z"/><path d="M941.12,195.12h1.55v1h.06a2.58,2.58,0,0,1,4.51.21,2.48,2.48,0,0,1,2.44-1.44c1.41,0,2.57.77,2.57,2.94v4.5h-1.61v-4.3c0-1.36-.47-1.83-1.39-1.83s-1.76.86-1.76,2.3v3.83h-1.61v-4.3c0-1.36-.52-1.83-1.39-1.83s-1.76.86-1.76,2.32v3.81h-1.61Z"/><path d="M957.4,194.94a3.21,3.21,0,0,1,3.39,3.54V199h-5.34c.09,1.42.85,2.28,2,2.28a1.57,1.57,0,0,0,1.68-1.11h1.58a3.08,3.08,0,0,1-3.27,2.38c-2.32,0-3.65-1.42-3.65-3.8A3.55,3.55,0,0,1,957.4,194.94Zm-1.87,3h3.63c-.14-1.21-.75-1.74-1.76-1.74A1.92,1.92,0,0,0,955.53,197.93Z"/><path d="M962.42,195.12H964v1H964a2.32,2.32,0,0,1,2.25-1.23c1.44,0,2.72.77,2.72,3v4.41h-1.6v-4.2c0-1.44-.61-1.93-1.55-1.93s-1.82.88-1.82,2.33v3.8h-1.6Z"/><path d="M971.21,196.37h-1.37v-1.25h1.37v-2.2h1.61v2.2h1.86v1.25h-1.86V200c0,.77.27,1.07,1,1.07h.85v1.34h-1.12c-1.66,0-2.35-.7-2.35-2.32Z"/><path d="M976.06,191.49h1.73v1.63h-1.73Zm.06,3.63h1.61v7.26h-1.61Z"/></svg>