<svg id="Livello_1" data-name="Livello 1" xmlns="http://www.w3.org/2000/svg" viewBox="0 0 1174.99 900"><defs><style>.cls-1{isolation:isolate;}.cls-2{fill:#efefef;}.cls-3{fill:#b8b8b8;}.cls-4{fill:#ff3a00;}.cls-5{opacity:0.2;}</style></defs><g class="cls-1"><path d="M206.41,783.86V773h6.49v1.16h-5.18v3.66h4.69V779h-4.69v4.84Z"/><path d="M215.14,783.86V773h6.53v1.16h-5.22v3.66h4.88V779h-4.88v3.68h5.3v1.16Z"/><path d="M224,783.86V773h3.79a3.94,3.94,0,0,1,1.86.39,2.58,2.58,0,0,1,1.1,1,2.93,2.93,0,0,1,.36,1.44,2.42,2.42,0,0,1-.25,1.15,1.87,1.87,0,0,1-.64.72,2.84,2.84,0,0,1-.87.39v.11a2.12,2.12,0,0,1,1,.35,2.39,2.39,0,0,1,.84.91,2.79,2.79,0,0,1,.34,1.44,2.87,2.87,0,0,1-.37,1.47,2.59,2.59,0,0,1-1.17,1,4.89,4.89,0,0,1-2.08.38Zm1.31-6.07h2.44a2.36,2.36,0,0,0,1.07-.23,1.75,1.75,0,0,0,1-1.65,1.66,1.66,0,0,0-.5-1.21,2.14,2.14,0,0,0-1.57-.5h-2.48Zm0,4.91h2.6a2.69,2.69,0,0,0,1.83-.5,1.59,1.59,0,0,0,.54-1.22,1.9,1.9,0,0,0-.28-1,2.07,2.07,0,0,0-.8-.75,2.47,2.47,0,0,0-1.22-.28h-2.67Z"/></g><g class="cls-1"><path d="M131.5,776.42a3.88,3.88,0,0,0-.46-1,3.33,3.33,0,0,0-.67-.73,3,3,0,0,0-.88-.46,3.61,3.61,0,0,0-1.08-.15,3.18,3.18,0,0,0-1.74.49,3.4,3.4,0,0,0-1.26,1.47,5.41,5.41,0,0,0-.46,2.37,5.27,5.27,0,0,0,.47,2.37,3.47,3.47,0,0,0,1.27,1.47,3.39,3.39,0,0,0,1.81.49,3.24,3.24,0,0,0,1.64-.4,2.81,2.81,0,0,0,1.11-1.13,3.61,3.61,0,0,0,.4-1.72l.4.08h-3.26v-1.16h4.13v1.16a4.6,4.6,0,0,1-.57,2.33,3.92,3.92,0,0,1-1.57,1.53,5,5,0,0,1-4.8-.14,4.55,4.55,0,0,1-1.7-1.92,6.77,6.77,0,0,1-.6-3,6.92,6.92,0,0,1,.35-2.31,4.89,4.89,0,0,1,1-1.75,4.08,4.08,0,0,1,1.5-1.11,4.55,4.55,0,0,1,1.9-.39,4.84,4.84,0,0,1,1.6.26,4.38,4.38,0,0,1,1.33.72,4.13,4.13,0,0,1,1,1.11,4.24,4.24,0,0,1,.54,1.44Z"/><path d="M135.16,783.86V773h6.53v1.16h-5.22v3.66h4.88V779h-4.88v3.68h5.3v1.16Z"/><path d="M152.64,773v10.82h-1.27l-5.9-8.5h-.1v8.5h-1.31V773h1.26l5.92,8.52h.11V773Z"/></g><g class="cls-1"><path d="M284.22,773h1.56l3.68,9h.12l3.68-9h1.57v10.82H293.6v-8.22h-.1l-3.39,8.22h-1.18l-3.38-8.22h-.11v8.22h-1.22Z"/><path d="M297.89,783.86h-1.37l4-10.82h1.35l4,10.82h-1.38l-3.23-9.11h-.08Zm.51-4.23h5.54v1.17H298.4Z"/><path d="M307.51,783.86V773h3.66a4.43,4.43,0,0,1,2.08.43,2.79,2.79,0,0,1,1.2,1.18,3.65,3.65,0,0,1,.39,1.71,3.57,3.57,0,0,1-.39,1.69,2.7,2.7,0,0,1-1.2,1.16,4.47,4.47,0,0,1-2.06.42h-3v-1.18h2.91a3.41,3.41,0,0,0,1.4-.25,1.59,1.59,0,0,0,.77-.72,2.46,2.46,0,0,0,.24-1.12,2.55,2.55,0,0,0-.24-1.14,1.67,1.67,0,0,0-.78-.75,3.1,3.1,0,0,0-1.41-.27h-2.3v9.66ZM312.6,779l2.67,4.86h-1.53L311.12,779Z"/></g><g class="cls-1"><path d="M369.78,783.86H368.4l4-10.82h1.35l4,10.82h-1.37l-3.24-9.11H373Zm.5-4.23h5.54v1.17h-5.54Z"/><path d="M379.39,783.86V773h3.66a4.31,4.31,0,0,1,2.09.45,2.92,2.92,0,0,1,1.2,1.24,3.79,3.79,0,0,1,.39,1.73,3.84,3.84,0,0,1-.39,1.74,2.94,2.94,0,0,1-1.2,1.25,4.23,4.23,0,0,1-2.07.46h-2.62v-1.17H383a2.72,2.72,0,0,0,1.4-.3,1.82,1.82,0,0,0,.77-.81,2.75,2.75,0,0,0,.24-1.17,2.7,2.7,0,0,0-.24-1.16,1.79,1.79,0,0,0-.78-.81,3,3,0,0,0-1.41-.29H380.7v9.66Z"/><path d="M388.84,783.86V773h3.66a4.4,4.4,0,0,1,2.08.43,2.87,2.87,0,0,1,1.21,1.18,3.65,3.65,0,0,1,.39,1.71,3.57,3.57,0,0,1-.39,1.69,2.75,2.75,0,0,1-1.2,1.16,4.48,4.48,0,0,1-2.07.42h-3v-1.18h2.92a3.44,3.44,0,0,0,1.4-.25,1.64,1.64,0,0,0,.77-.72,2.46,2.46,0,0,0,.24-1.12,2.43,2.43,0,0,0-.25-1.14,1.7,1.7,0,0,0-.77-.75,3.16,3.16,0,0,0-1.41-.27h-2.31v9.66Zm5.1-4.86,2.66,4.86h-1.52L392.46,779Z"/></g><g class="cls-1"><path d="M449.81,773h1.56l3.68,9h.13l3.67-9h1.57v10.82h-1.23v-8.22h-.1l-3.38,8.22h-1.19l-3.38-8.22H451v8.22h-1.22Z"/><path d="M463.48,783.86h-1.37l4-10.82h1.36l4,10.82H470l-3.24-9.11h-.08Zm.51-4.23h5.54v1.17H464Z"/><path d="M480,776.42a3.56,3.56,0,0,0-.46-1,3.1,3.1,0,0,0-.67-.73,3,3,0,0,0-.88-.46,3.59,3.59,0,0,0-1.07-.15,3.19,3.19,0,0,0-1.75.49,3.4,3.4,0,0,0-1.26,1.47,6.27,6.27,0,0,0,0,4.74,3.47,3.47,0,0,0,1.27,1.47,3.39,3.39,0,0,0,1.81.49,3.24,3.24,0,0,0,1.64-.4,2.81,2.81,0,0,0,1.11-1.13,3.5,3.5,0,0,0,.4-1.72l.4.08h-3.25v-1.16h4.12v1.16a4.6,4.6,0,0,1-.57,2.33,4,4,0,0,1-1.56,1.53A4.75,4.75,0,0,1,477,784a4.66,4.66,0,0,1-2.52-.68,4.46,4.46,0,0,1-1.69-1.92,6.63,6.63,0,0,1-.61-3,7.19,7.19,0,0,1,.35-2.31,5,5,0,0,1,1-1.75,4.08,4.08,0,0,1,1.5-1.11,4.59,4.59,0,0,1,1.91-.39,4.82,4.82,0,0,1,1.59.26,4.28,4.28,0,0,1,2.31,1.83,4.23,4.23,0,0,1,.53,1.44Z"/></g><g class="cls-1"><path d="M544.53,776.42a3.88,3.88,0,0,0-.46-1,3.33,3.33,0,0,0-.67-.73,3,3,0,0,0-.88-.46,3.71,3.71,0,0,0-1.08-.15,3.23,3.23,0,0,0-1.75.49,3.44,3.44,0,0,0-1.25,1.47,6.21,6.21,0,0,0,0,4.74,3.49,3.49,0,0,0,1.28,1.47,3.58,3.58,0,0,0,3.45.09,2.72,2.72,0,0,0,1.1-1.13,3.5,3.5,0,0,0,.4-1.72l.41.08h-3.26v-1.16h4.12v1.16a4.6,4.6,0,0,1-.57,2.33,3.89,3.89,0,0,1-1.56,1.53,5.06,5.06,0,0,1-4.81-.14,4.53,4.53,0,0,1-1.69-1.92,6.77,6.77,0,0,1-.6-3,7.19,7.19,0,0,1,.34-2.31,5,5,0,0,1,1-1.75,4.08,4.08,0,0,1,1.5-1.11,4.63,4.63,0,0,1,1.91-.39,4.92,4.92,0,0,1,1.6.26,4.32,4.32,0,0,1,1.32.72,4.17,4.17,0,0,1,1,1.11,4.46,4.46,0,0,1,.54,1.44Z"/><path d="M549.49,773v10.82h-1.31V773Z"/><path d="M559.22,773h1.31v7.16a3.85,3.85,0,0,1-.52,2,3.67,3.67,0,0,1-1.47,1.37,5.18,5.18,0,0,1-4.44,0,3.67,3.67,0,0,1-1.47-1.37,3.85,3.85,0,0,1-.52-2V773h1.31v7.06a2.83,2.83,0,0,0,.35,1.41,2.44,2.44,0,0,0,1,1,3.61,3.61,0,0,0,3.1,0,2.38,2.38,0,0,0,1-1,2.83,2.83,0,0,0,.35-1.41Z"/></g><g class="cls-1"><path d="M618.26,783.86V773h1.31v9.66h5v1.16Z"/><path d="M633.73,773H635v7.16a3.75,3.75,0,0,1-.52,2,3.67,3.67,0,0,1-1.47,1.37,4.72,4.72,0,0,1-2.22.5,4.78,4.78,0,0,1-2.22-.5,3.64,3.64,0,0,1-1.46-1.37,3.75,3.75,0,0,1-.52-2V773h1.31v7.06a2.73,2.73,0,0,0,.35,1.41,2.41,2.41,0,0,0,1,1,3.14,3.14,0,0,0,1.55.35,3.18,3.18,0,0,0,1.56-.35,2.41,2.41,0,0,0,1-1,2.83,2.83,0,0,0,.35-1.41Z"/><path d="M645.06,776.42a3.88,3.88,0,0,0-.46-1,3.33,3.33,0,0,0-.67-.73,3,3,0,0,0-.88-.46,3.71,3.71,0,0,0-1.08-.15,3.23,3.23,0,0,0-1.75.49,3.44,3.44,0,0,0-1.25,1.47,5.41,5.41,0,0,0-.46,2.37,5.27,5.27,0,0,0,.47,2.37,3.47,3.47,0,0,0,1.27,1.47,3.39,3.39,0,0,0,1.81.49,3.24,3.24,0,0,0,1.64-.4,2.81,2.81,0,0,0,1.11-1.13,3.5,3.5,0,0,0,.4-1.72l.4.08h-3.26v-1.16h4.13v1.16a4.6,4.6,0,0,1-.57,2.33,3.92,3.92,0,0,1-1.57,1.53,5.06,5.06,0,0,1-4.81-.14,4.6,4.6,0,0,1-1.69-1.92,6.77,6.77,0,0,1-.6-3,6.92,6.92,0,0,1,.35-2.31,4.89,4.89,0,0,1,1-1.75,4.08,4.08,0,0,1,1.5-1.11,4.55,4.55,0,0,1,1.9-.39,4.88,4.88,0,0,1,1.6.26,4.38,4.38,0,0,1,1.33.72,4.13,4.13,0,0,1,1,1.11,4.46,4.46,0,0,1,.54,1.44Z"/></g><g class="cls-1"><path d="M702.06,783.86h-1.38l4-10.82H706l4,10.82h-1.38l-3.23-9.11h-.09Zm.51-4.23h5.53v1.17h-5.53Z"/><path d="M718.57,776.42a3.88,3.88,0,0,0-.46-1,3.33,3.33,0,0,0-.67-.73,3,3,0,0,0-.88-.46,3.71,3.71,0,0,0-1.08-.15,3.23,3.23,0,0,0-1.75.49,3.44,3.44,0,0,0-1.25,1.47,5.41,5.41,0,0,0-.47,2.37,5.27,5.27,0,0,0,.48,2.37,3.41,3.41,0,0,0,1.27,1.47,3.37,3.37,0,0,0,1.81.49,3.27,3.27,0,0,0,1.64-.4,2.81,2.81,0,0,0,1.11-1.13,3.61,3.61,0,0,0,.4-1.72l.4.08h-3.26v-1.16H720v1.16a4.7,4.7,0,0,1-.56,2.33,3.92,3.92,0,0,1-1.57,1.53,5.06,5.06,0,0,1-4.81-.14,4.53,4.53,0,0,1-1.69-1.92,6.77,6.77,0,0,1-.6-3,7.19,7.19,0,0,1,.34-2.31,5,5,0,0,1,1-1.75,4.25,4.25,0,0,1,1.5-1.11,4.63,4.63,0,0,1,1.91-.39,4.88,4.88,0,0,1,1.6.26,4.38,4.38,0,0,1,1.33.72,4.13,4.13,0,0,1,1,1.11,4.46,4.46,0,0,1,.54,1.44Z"/><path d="M731.35,778.45a6.63,6.63,0,0,1-.61,3,4.69,4.69,0,0,1-1.7,1.92,4.79,4.79,0,0,1-4.92,0,4.62,4.62,0,0,1-1.7-1.92,7.38,7.38,0,0,1,0-5.92,4.62,4.62,0,0,1,1.7-1.92,4.79,4.79,0,0,1,4.92,0,4.69,4.69,0,0,1,1.7,1.92A6.63,6.63,0,0,1,731.35,778.45Zm-1.26,0a5.41,5.41,0,0,0-.47-2.37,3.4,3.4,0,0,0-1.26-1.47,3.48,3.48,0,0,0-3.56,0,3.4,3.4,0,0,0-1.26,1.47,6.21,6.21,0,0,0,0,4.74,3.45,3.45,0,0,0,1.26,1.47,3.48,3.48,0,0,0,3.56,0,3.45,3.45,0,0,0,1.26-1.47A5.41,5.41,0,0,0,730.09,778.45Z"/></g><g class="cls-1"><path d="M792.86,775.74a1.64,1.64,0,0,0-.77-1.24,2.92,2.92,0,0,0-1.66-.45,3.08,3.08,0,0,0-1.26.24,2,2,0,0,0-.83.63,1.54,1.54,0,0,0-.3.93,1.27,1.27,0,0,0,.21.74,1.65,1.65,0,0,0,.54.51,3.32,3.32,0,0,0,.68.34l.66.21,1.1.29c.28.08.6.18.95.31a4.51,4.51,0,0,1,1,.53,2.61,2.61,0,0,1,.79.86,2.43,2.43,0,0,1,.32,1.28,2.9,2.9,0,0,1-.46,1.59,3.21,3.21,0,0,1-1.33,1.12,4.86,4.86,0,0,1-2.12.42,4.91,4.91,0,0,1-2-.37,3.22,3.22,0,0,1-1.34-1,3,3,0,0,1-.54-1.56h1.35a1.58,1.58,0,0,0,.42,1,2,2,0,0,0,.91.59,3.7,3.7,0,0,0,1.21.2,3.34,3.34,0,0,0,1.34-.25,2.19,2.19,0,0,0,.95-.69,1.6,1.6,0,0,0,.35-1,1.29,1.29,0,0,0-.3-.88,2.3,2.3,0,0,0-.79-.54,7.9,7.9,0,0,0-1.07-.38l-1.33-.38a5,5,0,0,1-2-1,2.29,2.29,0,0,1-.74-1.77,2.66,2.66,0,0,1,.5-1.59,3.25,3.25,0,0,1,1.33-1.05,4.53,4.53,0,0,1,1.87-.38,4.38,4.38,0,0,1,1.86.37,3.23,3.23,0,0,1,1.29,1,2.56,2.56,0,0,1,.51,1.46Z"/><path d="M796.43,783.86V773H803v1.16h-5.22v3.66h4.89V779h-4.89v3.68h5.31v1.16Z"/><path d="M804.74,774.2V773h8.12v1.16h-3.41v9.66h-1.31V774.2Z"/></g><g class="cls-1"><path d="M878.81,778.45a6.49,6.49,0,0,1-.62,3A4.47,4.47,0,0,1,874,784a4.55,4.55,0,0,1-2.46-.68,4.6,4.6,0,0,1-1.69-1.92,7.38,7.38,0,0,1,0-5.92,4.6,4.6,0,0,1,1.69-1.92,4.81,4.81,0,0,1,4.93,0,4.6,4.6,0,0,1,1.69,1.92A6.49,6.49,0,0,1,878.81,778.45Zm-1.27,0a5.41,5.41,0,0,0-.46-2.37,3.48,3.48,0,0,0-1.27-1.47,3.46,3.46,0,0,0-3.55,0,3.48,3.48,0,0,0-1.27,1.47,6.34,6.34,0,0,0,0,4.74,3.54,3.54,0,0,0,1.27,1.47,3.46,3.46,0,0,0,3.55,0,3.54,3.54,0,0,0,1.27-1.47A5.41,5.41,0,0,0,877.54,778.45Z"/><path d="M880,774.2V773h8.12v1.16h-3.4v9.66h-1.31V774.2Z"/><path d="M889.53,774.2V773h8.11v1.16h-3.4v9.66h-1.31V774.2Z"/></g><g class="cls-1"><path d="M959.93,773v10.82h-1.27l-5.9-8.5h-.1v8.5h-1.32V773h1.27l5.92,8.52h.11V773Z"/><path d="M971.68,778.45a6.63,6.63,0,0,1-.62,3,4.62,4.62,0,0,1-1.7,1.92,4.5,4.5,0,0,1-2.46.68,4.55,4.55,0,0,1-2.46-.68,4.69,4.69,0,0,1-1.7-1.92,7.38,7.38,0,0,1,0-5.92,4.69,4.69,0,0,1,1.7-1.92,4.55,4.55,0,0,1,2.46-.68,4.5,4.5,0,0,1,2.46.68,4.62,4.62,0,0,1,1.7,1.92A6.63,6.63,0,0,1,971.68,778.45Zm-1.27,0a5.41,5.41,0,0,0-.47-2.37,3.4,3.4,0,0,0-1.26-1.47,3.48,3.48,0,0,0-3.56,0,3.4,3.4,0,0,0-1.26,1.47,6.21,6.21,0,0,0,0,4.74,3.45,3.45,0,0,0,1.26,1.47,3.48,3.48,0,0,0,3.56,0,3.45,3.45,0,0,0,1.26-1.47A5.41,5.41,0,0,0,970.41,778.45Z"/><path d="M973.81,773l3.22,9.11h.12l3.22-9.11h1.37l-4,10.82h-1.36l-4-10.82Z"/></g><g class="cls-1"><path d="M1039.51,783.86h-3.34V773h3.49a5.18,5.18,0,0,1,2.69.65,4.23,4.23,0,0,1,1.72,1.85,7.31,7.31,0,0,1,0,5.8,4.3,4.3,0,0,1-1.76,1.87A5.66,5.66,0,0,1,1039.51,783.86Zm-2-1.16h2a4.29,4.29,0,0,0,2.22-.52,3.25,3.25,0,0,0,1.32-1.47,5.49,5.49,0,0,0,.43-2.28,5.39,5.39,0,0,0-.43-2.26,3.15,3.15,0,0,0-1.28-1.46,4,4,0,0,0-2.11-.51h-2.1Z"/><path d="M1048.18,773v10.82h-1.31V773Z"/><path d="M1059.51,776.42h-1.31a2.76,2.76,0,0,0-.41-1,2.53,2.53,0,0,0-.7-.72,2.92,2.92,0,0,0-.9-.45,3.58,3.58,0,0,0-1-.14,3.28,3.28,0,0,0-1.77.49,3.35,3.35,0,0,0-1.27,1.47,6.21,6.21,0,0,0,0,4.74,3.41,3.41,0,0,0,1.27,1.47,3.28,3.28,0,0,0,1.77.49,4,4,0,0,0,1-.14,2.92,2.92,0,0,0,.9-.45,2.53,2.53,0,0,0,.7-.72,2.92,2.92,0,0,0,.41-1h1.31A4.35,4.35,0,0,1,1059,782a4,4,0,0,1-1,1.11,4.24,4.24,0,0,1-1.31.7,4.82,4.82,0,0,1-1.54.24,4.55,4.55,0,0,1-2.46-.68,4.69,4.69,0,0,1-1.7-1.92,7.49,7.49,0,0,1,0-5.92,4.69,4.69,0,0,1,1.7-1.92,4.55,4.55,0,0,1,2.46-.68,4.82,4.82,0,0,1,1.54.24,4.44,4.44,0,0,1,1.31.69,4.31,4.31,0,0,1,1,1.11A4.41,4.41,0,0,1,1059.51,776.42Z"/></g><g class="cls-1"><path d="M71.9,766.07a3.25,3.25,0,0,1-2-.65,4,4,0,0,1-1.28-1.9,10.26,10.26,0,0,1,0-6,4.12,4.12,0,0,1,1.29-1.9,3.44,3.44,0,0,1,4,0,4.12,4.12,0,0,1,1.29,1.9,10.26,10.26,0,0,1,0,6,4,4,0,0,1-1.28,1.9A3.24,3.24,0,0,1,71.9,766.07Zm0-1.16a2,2,0,0,0,1.84-1.15,6.67,6.67,0,0,0,.65-3.25,8.23,8.23,0,0,0-.3-2.39,3.37,3.37,0,0,0-.85-1.51,1.9,1.9,0,0,0-1.34-.52,2,2,0,0,0-1.84,1.16,6.62,6.62,0,0,0-.66,3.26,8.28,8.28,0,0,0,.3,2.39,3.29,3.29,0,0,0,.85,1.49A1.93,1.93,0,0,0,71.9,764.91Z"/></g><g class="cls-1"><path d="M65.26,696.81v10.83H64v-9.45h-.07l-2.64,1.75v-1.33l2.71-1.8Z"/><path d="M71.9,707.79a3.2,3.2,0,0,1-2-.66,4,4,0,0,1-1.28-1.89,10.26,10.26,0,0,1,0-6,4.15,4.15,0,0,1,1.29-1.91,3.48,3.48,0,0,1,4,0,4.15,4.15,0,0,1,1.29,1.91,10.26,10.26,0,0,1,0,6,4,4,0,0,1-1.28,1.89A3.19,3.19,0,0,1,71.9,707.79Zm0-1.17a2,2,0,0,0,1.83-1.14,6.55,6.55,0,0,0,.66-3.25,8.36,8.36,0,0,0-.3-2.4,3.2,3.2,0,0,0-.86-1.5,1.86,1.86,0,0,0-1.33-.52A2,2,0,0,0,70.06,699a6.66,6.66,0,0,0-.66,3.27,8.33,8.33,0,0,0,.3,2.39,3.2,3.2,0,0,0,.85,1.49A1.92,1.92,0,0,0,71.9,706.62Z"/></g><g class="cls-1"><path d="M59.36,649.36v-1l3.57-3.91c.42-.45.77-.85,1-1.19a4.88,4.88,0,0,0,.61-1,2.37,2.37,0,0,0,.19-1,1.79,1.79,0,0,0-.27-1,1.87,1.87,0,0,0-.74-.65,2.45,2.45,0,0,0-1.06-.22,2.18,2.18,0,0,0-1.08.25,1.85,1.85,0,0,0-.72.72,2.21,2.21,0,0,0-.25,1.08H59.4a3.15,3.15,0,0,1,.44-1.67,3,3,0,0,1,1.2-1.12,3.53,3.53,0,0,1,1.7-.4,3.43,3.43,0,0,1,1.69.4,3.07,3.07,0,0,1,1.15,1.08,2.83,2.83,0,0,1,.42,1.52,3.3,3.3,0,0,1-.21,1.16,5.12,5.12,0,0,1-.75,1.26,21.75,21.75,0,0,1-1.45,1.7l-2.43,2.6v.08h5v1.17Z"/><path d="M71.9,649.5a3.19,3.19,0,0,1-2-.65A4,4,0,0,1,68.58,647a10.26,10.26,0,0,1,0-6A4.15,4.15,0,0,1,69.87,639a3.48,3.48,0,0,1,4,0A4.15,4.15,0,0,1,75.21,641a10.26,10.26,0,0,1,0,6,4,4,0,0,1-1.28,1.89A3.19,3.19,0,0,1,71.9,649.5Zm0-1.16a2,2,0,0,0,1.83-1.14,6.57,6.57,0,0,0,.66-3.25,8.36,8.36,0,0,0-.3-2.4,3.28,3.28,0,0,0-.85-1.5,1.9,1.9,0,0,0-1.34-.52,2,2,0,0,0-1.84,1.15A6.66,6.66,0,0,0,69.4,644a8.21,8.21,0,0,0,.3,2.38,3.19,3.19,0,0,0,.85,1.5A1.92,1.92,0,0,0,71.9,648.34Z"/></g><g class="cls-1"><path d="M62.55,591.22a4.61,4.61,0,0,1-1.86-.36,3.1,3.1,0,0,1-1.29-1,2.61,2.61,0,0,1-.52-1.49h1.33a1.57,1.57,0,0,0,.36.9,2,2,0,0,0,.83.58,3,3,0,0,0,1.13.21,2.86,2.86,0,0,0,1.24-.25,2,2,0,0,0,.84-.67,1.65,1.65,0,0,0,.31-1,1.82,1.82,0,0,0-1.16-1.77,3.27,3.27,0,0,0-1.4-.26H61.5v-1.17h.86a2.58,2.58,0,0,0,1.14-.23,1.79,1.79,0,0,0,.76-.65,1.77,1.77,0,0,0,.28-1,1.84,1.84,0,0,0-.24-.95,1.59,1.59,0,0,0-.69-.64,2.23,2.23,0,0,0-1-.23,2.67,2.67,0,0,0-1.06.21,2,2,0,0,0-.81.58,1.57,1.57,0,0,0-.33.93H59.11a2.6,2.6,0,0,1,.51-1.5,3.3,3.3,0,0,1,1.26-1,4,4,0,0,1,1.72-.36,3.47,3.47,0,0,1,1.72.41,2.81,2.81,0,0,1,1.1,1.06,2.77,2.77,0,0,1,.39,1.43,2.54,2.54,0,0,1-.48,1.56,2.41,2.41,0,0,1-1.3.89v.09a2.5,2.5,0,0,1,1.6.86,2.63,2.63,0,0,1,.58,1.74,2.75,2.75,0,0,1-.48,1.58,3.35,3.35,0,0,1-1.3,1.1A4.22,4.22,0,0,1,62.55,591.22Z"/><path d="M71.9,591.22a3.25,3.25,0,0,1-2-.65,4,4,0,0,1-1.28-1.9,10.26,10.26,0,0,1,0-6,4.12,4.12,0,0,1,1.29-1.9,3.44,3.44,0,0,1,4,0,4.12,4.12,0,0,1,1.29,1.9,10.26,10.26,0,0,1,0,6,4,4,0,0,1-1.28,1.9A3.24,3.24,0,0,1,71.9,591.22Zm0-1.16a2,2,0,0,0,1.84-1.14,6.71,6.71,0,0,0,.65-3.26,8.33,8.33,0,0,0-.3-2.39,3.37,3.37,0,0,0-.85-1.51,1.94,1.94,0,0,0-1.34-.52,2,2,0,0,0-1.84,1.16,6.64,6.64,0,0,0-.66,3.26,8.23,8.23,0,0,0,.3,2.39,3.33,3.33,0,0,0,.85,1.5A1.92,1.92,0,0,0,71.9,590.06Z"/></g><g class="cls-1"><path d="M58.56,530.57v-1.08L63.31,522h.79v1.67h-.53L60,529.32v.09h6.41v1.16Zm5.09,2.22V522H64.9v10.82Z"/><path d="M71.9,532.94a3.25,3.25,0,0,1-2-.65,4,4,0,0,1-1.28-1.9,10.26,10.26,0,0,1,0-6,4.12,4.12,0,0,1,1.29-1.9,3.44,3.44,0,0,1,4,0,4.12,4.12,0,0,1,1.29,1.9,10.26,10.26,0,0,1,0,6,4,4,0,0,1-1.28,1.9A3.24,3.24,0,0,1,71.9,532.94Zm0-1.16a2,2,0,0,0,1.83-1.14,6.59,6.59,0,0,0,.66-3.26,8.28,8.28,0,0,0-.3-2.39,3.37,3.37,0,0,0-.85-1.51A1.94,1.94,0,0,0,71.9,523a2,2,0,0,0-1.84,1.16,6.64,6.64,0,0,0-.66,3.26,8.28,8.28,0,0,0,.3,2.39,3.2,3.2,0,0,0,.85,1.49A1.89,1.89,0,0,0,71.9,531.78Z"/></g><g class="cls-1"><path d="M62.7,474.66a3.63,3.63,0,0,1-1.67-.37,3.15,3.15,0,0,1-1.2-1,2.77,2.77,0,0,1-.49-1.46h1.27a1.71,1.71,0,0,0,.67,1.21,2.18,2.18,0,0,0,1.42.48,2.28,2.28,0,0,0,1.19-.32,2.23,2.23,0,0,0,.82-.85,2.55,2.55,0,0,0,.29-1.24,2.62,2.62,0,0,0-.3-1.27,2.39,2.39,0,0,0-.85-.88,2.51,2.51,0,0,0-1.23-.33,3.71,3.71,0,0,0-1,.15,3,3,0,0,0-.86.4L59.51,469l.65-5.32h5.63v1.16H61.26L60.88,468H61a3.08,3.08,0,0,1,.83-.44,3.35,3.35,0,0,1,1-.17,3.39,3.39,0,0,1,1.77.47,3.46,3.46,0,0,1,1.23,1.29,3.94,3.94,0,0,1,.44,1.87,3.63,3.63,0,0,1-.46,1.85,3.39,3.39,0,0,1-1.27,1.28A3.62,3.62,0,0,1,62.7,474.66Z"/><path d="M71.9,474.66a3.25,3.25,0,0,1-2-.65,4,4,0,0,1-1.28-1.9,10.26,10.26,0,0,1,0-6,4.12,4.12,0,0,1,1.29-1.9,3.44,3.44,0,0,1,4,0,4.12,4.12,0,0,1,1.29,1.9,10.26,10.26,0,0,1,0,6,4,4,0,0,1-1.28,1.9A3.24,3.24,0,0,1,71.9,474.66Zm0-1.16a2,2,0,0,0,1.83-1.15,6.55,6.55,0,0,0,.66-3.25,8.23,8.23,0,0,0-.3-2.39,3.37,3.37,0,0,0-.85-1.51,1.9,1.9,0,0,0-1.34-.52,2,2,0,0,0-1.84,1.16,6.62,6.62,0,0,0-.66,3.26,8.28,8.28,0,0,0,.3,2.39,3.2,3.2,0,0,0,.85,1.49A1.93,1.93,0,0,0,71.9,473.5Z"/></g><g class="cls-1"><path d="M62.68,416.38a3.93,3.93,0,0,1-1.33-.26,3.1,3.1,0,0,1-1.22-.82,4.2,4.2,0,0,1-.88-1.57,8,8,0,0,1-.33-2.49,10.84,10.84,0,0,1,.27-2.55,5.88,5.88,0,0,1,.78-1.88,3.6,3.6,0,0,1,1.24-1.16,3.4,3.4,0,0,1,1.64-.39,3.54,3.54,0,0,1,1.62.36,3.14,3.14,0,0,1,1.16,1,3.51,3.51,0,0,1,.58,1.48H64.92a2.38,2.38,0,0,0-.7-1.21,1.92,1.92,0,0,0-1.37-.48,2.26,2.26,0,0,0-2,1.1,5.61,5.61,0,0,0-.73,3.07h.09a3,3,0,0,1,.7-.77,3.24,3.24,0,0,1,.91-.5,3.3,3.3,0,0,1,1-.17,3.21,3.21,0,0,1,1.7.46,3.39,3.39,0,0,1,1.24,1.28,3.6,3.6,0,0,1,.46,1.85,3.83,3.83,0,0,1-.45,1.84,3.37,3.37,0,0,1-1.25,1.32A3.53,3.53,0,0,1,62.68,416.38Zm0-1.16a2.26,2.26,0,0,0,1.2-.34,2.48,2.48,0,0,0,.84-.89,2.6,2.6,0,0,0,.31-1.25,2.53,2.53,0,0,0-.3-1.22,2.39,2.39,0,0,0-.82-.88,2.17,2.17,0,0,0-1.19-.33,2.25,2.25,0,0,0-.93.2,2.4,2.4,0,0,0-.76.54,2.44,2.44,0,0,0-.51.79,2.4,2.4,0,0,0-.19.92,2.53,2.53,0,0,0,1.14,2.11A2.2,2.2,0,0,0,62.68,415.22Z"/><path d="M71.9,416.38a3.25,3.25,0,0,1-2-.65,4,4,0,0,1-1.28-1.9,10.26,10.26,0,0,1,0-6,4.12,4.12,0,0,1,1.29-1.9,3.44,3.44,0,0,1,4,0,4.12,4.12,0,0,1,1.29,1.9,10.26,10.26,0,0,1,0,6,4,4,0,0,1-1.28,1.9A3.24,3.24,0,0,1,71.9,416.38Zm0-1.16a2,2,0,0,0,1.83-1.15,6.55,6.55,0,0,0,.66-3.25,8.36,8.36,0,0,0-.3-2.4,3.33,3.33,0,0,0-.85-1.5,1.9,1.9,0,0,0-1.34-.52,2,2,0,0,0-1.84,1.16,6.59,6.59,0,0,0-.66,3.26,8.28,8.28,0,0,0,.3,2.39,3.2,3.2,0,0,0,.85,1.49A1.93,1.93,0,0,0,71.9,415.22Z"/></g><g class="cls-1"><path d="M60.44,358l4.84-9.58v-.08H59.7v-1.16h6.93v1.22L61.81,358Z"/><path d="M71.9,358.1a3.2,3.2,0,0,1-2-.66,4,4,0,0,1-1.28-1.89,10.26,10.26,0,0,1,0-6,4.07,4.07,0,0,1,1.29-1.9,3.44,3.44,0,0,1,4,0,4.07,4.07,0,0,1,1.29,1.9,10.26,10.26,0,0,1,0,6,4,4,0,0,1-1.28,1.89A3.19,3.19,0,0,1,71.9,358.1Zm0-1.17a2,2,0,0,0,1.83-1.14,6.55,6.55,0,0,0,.66-3.25,8.36,8.36,0,0,0-.3-2.4,3.28,3.28,0,0,0-.85-1.5,1.9,1.9,0,0,0-1.34-.52,2,2,0,0,0-1.84,1.15,6.66,6.66,0,0,0-.66,3.27,8.21,8.21,0,0,0,.3,2.38,3.19,3.19,0,0,0,.85,1.5A1.92,1.92,0,0,0,71.9,356.93Z"/></g><g class="cls-1"><path d="M62.66,299.81a4.45,4.45,0,0,1-1.92-.39,3.07,3.07,0,0,1-1.3-1.07,2.7,2.7,0,0,1-.46-1.56,3,3,0,0,1,.27-1.27,2.7,2.7,0,0,1,.75-1,2.34,2.34,0,0,1,1.07-.5V294a2.11,2.11,0,0,1-1.23-.88,2.63,2.63,0,0,1-.46-1.53,2.69,2.69,0,0,1,.42-1.48,3,3,0,0,1,1.16-1,3.73,3.73,0,0,1,1.7-.38,3.65,3.65,0,0,1,1.68.38,3,3,0,0,1,1.16,1,2.77,2.77,0,0,1,0,3,2.14,2.14,0,0,1-1.23.88V294a2.26,2.26,0,0,1,1.06.5,2.94,2.94,0,0,1,.75,1,3,3,0,0,1,.29,1.27,2.79,2.79,0,0,1-.48,1.56,3.1,3.1,0,0,1-1.29,1.07A4.43,4.43,0,0,1,62.66,299.81Zm0-1.16a3.09,3.09,0,0,0,1.27-.24,1.8,1.8,0,0,0,1.12-1.68,2,2,0,0,0-.32-1.09,2.19,2.19,0,0,0-.85-.74,2.67,2.67,0,0,0-1.22-.27,2.79,2.79,0,0,0-1.24.27,2.19,2.19,0,0,0-.85.74,2,2,0,0,0-.3,1.09,1.81,1.81,0,0,0,.28,1,1.86,1.86,0,0,0,.83.67A3.14,3.14,0,0,0,62.66,298.65Zm0-5.14a2.14,2.14,0,0,0,1-.23,1.72,1.72,0,0,0,.71-.65,1.84,1.84,0,0,0,.27-1,1.91,1.91,0,0,0-.26-1,1.74,1.74,0,0,0-.71-.63,2.25,2.25,0,0,0-1-.23,2.33,2.33,0,0,0-1.06.23,1.68,1.68,0,0,0-.71.63,1.9,1.9,0,0,0-.24,1,1.83,1.83,0,0,0,.25,1,1.72,1.72,0,0,0,.71.65A2.22,2.22,0,0,0,62.66,293.51Z"/><path d="M71.9,299.81a3.25,3.25,0,0,1-2-.65,4,4,0,0,1-1.28-1.9,10.26,10.26,0,0,1,0-6,4.12,4.12,0,0,1,1.29-1.9,3.44,3.44,0,0,1,4,0,4.12,4.12,0,0,1,1.29,1.9,10.26,10.26,0,0,1,0,6,4,4,0,0,1-1.28,1.9A3.24,3.24,0,0,1,71.9,299.81Zm0-1.16a2,2,0,0,0,1.83-1.14,6.59,6.59,0,0,0,.66-3.26,8.28,8.28,0,0,0-.3-2.39,3.29,3.29,0,0,0-.86-1.51,1.9,1.9,0,0,0-1.33-.52A2,2,0,0,0,70.06,291a6.64,6.64,0,0,0-.66,3.26,8.23,8.23,0,0,0,.3,2.39,3.19,3.19,0,0,0,.85,1.5A1.92,1.92,0,0,0,71.9,298.65Z"/></g><g class="cls-1"><path d="M62.53,230.41a3.88,3.88,0,0,1,1.33.26,3.21,3.21,0,0,1,1.22.82,4,4,0,0,1,.88,1.56,7.92,7.92,0,0,1,.33,2.48,11,11,0,0,1-.27,2.56,5.88,5.88,0,0,1-.78,1.88A3.54,3.54,0,0,1,64,241.14a3.4,3.4,0,0,1-1.64.39,3.57,3.57,0,0,1-1.62-.36,3.14,3.14,0,0,1-1.16-1,3.54,3.54,0,0,1-.58-1.5h1.29a2.44,2.44,0,0,0,.7,1.23,1.92,1.92,0,0,0,1.37.48,2.26,2.26,0,0,0,2-1.1,5.49,5.49,0,0,0,.73-3.09H65a3.22,3.22,0,0,1-.7.77,3.3,3.3,0,0,1-.9.5,3.36,3.36,0,0,1-1.06.17,3.21,3.21,0,0,1-1.7-.46,3.44,3.44,0,0,1-1.24-1.27,3.69,3.69,0,0,1-.46-1.86,3.85,3.85,0,0,1,.44-1.82,3.4,3.4,0,0,1,1.26-1.32A3.5,3.5,0,0,1,62.53,230.41Zm0,1.16a2.29,2.29,0,0,0-1.19.33,2.39,2.39,0,0,0-.84.89,2.48,2.48,0,0,0-.31,1.24,2.66,2.66,0,0,0,.29,1.23,2.37,2.37,0,0,0,.82.87,2.29,2.29,0,0,0,2.12.13,2.29,2.29,0,0,0,.76-.54,2.67,2.67,0,0,0,.51-.79,2.26,2.26,0,0,0,.19-.92,2.35,2.35,0,0,0-.31-1.19,2.47,2.47,0,0,0-.83-.9A2.2,2.2,0,0,0,62.53,231.57Z"/><path d="M71.9,241.53a3.25,3.25,0,0,1-2-.65,4,4,0,0,1-1.28-1.9,10.26,10.26,0,0,1,0-6,4.12,4.12,0,0,1,1.29-1.9,3.44,3.44,0,0,1,4,0,4.12,4.12,0,0,1,1.29,1.9,10.26,10.26,0,0,1,0,6,4,4,0,0,1-1.28,1.9A3.24,3.24,0,0,1,71.9,241.53Zm0-1.16a2,2,0,0,0,1.83-1.14,6.59,6.59,0,0,0,.66-3.26,8.28,8.28,0,0,0-.3-2.39,3.37,3.37,0,0,0-.85-1.51,1.94,1.94,0,0,0-1.34-.52,2,2,0,0,0-1.84,1.16A6.64,6.64,0,0,0,69.4,236a8.23,8.23,0,0,0,.3,2.39,3.24,3.24,0,0,0,.85,1.5A1.92,1.92,0,0,0,71.9,240.37Z"/></g><g class="cls-1"><path d="M56,172.28V183.1H54.65v-9.45h-.07l-2.64,1.76v-1.34l2.71-1.79Z"/><path d="M62.59,183.25a3.24,3.24,0,0,1-2-.65,4,4,0,0,1-1.28-1.9,10.26,10.26,0,0,1,0-6,4.12,4.12,0,0,1,1.29-1.9,3.44,3.44,0,0,1,4.05,0,4.12,4.12,0,0,1,1.29,1.9,10.26,10.26,0,0,1,0,6,4,4,0,0,1-1.28,1.9A3.25,3.25,0,0,1,62.59,183.25Zm0-1.16a2,2,0,0,0,1.84-1.15,6.55,6.55,0,0,0,.66-3.25,8.23,8.23,0,0,0-.3-2.39,3.29,3.29,0,0,0-.86-1.51,1.86,1.86,0,0,0-1.34-.52,2,2,0,0,0-1.83,1.16,6.62,6.62,0,0,0-.66,3.26,8.28,8.28,0,0,0,.3,2.39,3.2,3.2,0,0,0,.85,1.49A1.92,1.92,0,0,0,62.59,182.09Z"/><path d="M71.9,183.25a3.25,3.25,0,0,1-2-.65,4,4,0,0,1-1.28-1.9,10.26,10.26,0,0,1,0-6,4.12,4.12,0,0,1,1.29-1.9,3.44,3.44,0,0,1,4,0,4.12,4.12,0,0,1,1.29,1.9,10.26,10.26,0,0,1,0,6,4,4,0,0,1-1.28,1.9A3.24,3.24,0,0,1,71.9,183.25Zm0-1.16a2,2,0,0,0,1.83-1.15,6.55,6.55,0,0,0,.66-3.25,8.23,8.23,0,0,0-.3-2.39,3.37,3.37,0,0,0-.85-1.51,1.9,1.9,0,0,0-1.34-.52,2,2,0,0,0-1.84,1.16,6.62,6.62,0,0,0-.66,3.26,8.28,8.28,0,0,0,.3,2.39,3.2,3.2,0,0,0,.85,1.49A1.93,1.93,0,0,0,71.9,182.09Z"/></g><path d="M41.16,137.18v-14h1.56v6a3,3,0,0,0,.35,1.45,2.47,2.47,0,0,0,1,1,3.28,3.28,0,0,0,3,0,2.5,2.5,0,0,0,1-1,2.92,2.92,0,0,0,.34-1.44v-6h1.56v10.15H48.32v-1.51h-.07a3,3,0,0,1-1.15,1.22,3.11,3.11,0,0,1-1.58.42,3.08,3.08,0,0,1-1.57-.42,3,3,0,0,1-1.15-1.22h-.08v5.31Z"/><path d="M56.83,137.39a5.89,5.89,0,0,1-1.94-.28,4.37,4.37,0,0,1-1.35-.76,4.13,4.13,0,0,1-.86-1l1.24-.87.54.63a2.82,2.82,0,0,0,.89.63,3.46,3.46,0,0,0,1.48.27,3.28,3.28,0,0,0,2-.6,2.16,2.16,0,0,0,.8-1.86V131.5h-.13c-.12.19-.28.41-.49.68a2.56,2.56,0,0,1-.9.72,3.31,3.31,0,0,1-1.57.32,4.31,4.31,0,0,1-2.21-.58A4,4,0,0,1,52.83,131a5.86,5.86,0,0,1-.57-2.7,6.26,6.26,0,0,1,.55-2.72,4.14,4.14,0,0,1,1.53-1.79,4,4,0,0,1,2.25-.64,3.23,3.23,0,0,1,1.58.33,2.71,2.71,0,0,1,.9.74c.21.27.37.5.48.67h.16v-1.61h1.51v10.44a3.6,3.6,0,0,1-.59,2.13A3.5,3.5,0,0,1,59,137,6.21,6.21,0,0,1,56.83,137.39Zm0-5.57a2.85,2.85,0,0,0,1.58-.43,2.68,2.68,0,0,0,1-1.24,5.65,5.65,0,0,0,0-3.86,2.85,2.85,0,0,0-1-1.31,2.62,2.62,0,0,0-1.6-.48,2.68,2.68,0,0,0-1.65.5,3,3,0,0,0-1,1.35,5.12,5.12,0,0,0-.33,1.88,4.9,4.9,0,0,0,.33,1.86,2.94,2.94,0,0,0,1,1.27A2.86,2.86,0,0,0,56.78,131.82Z"/><path d="M68.85,119.22l-4.36,16.19H63.07l4.36-16.19Z"/><path d="M70.7,133.38V123.23h1.51v1.59h.13a2.53,2.53,0,0,1,1-1.27,3.13,3.13,0,0,1,1.7-.45,3,3,0,0,1,1.68.45,3,3,0,0,1,1,1.27h.11a3,3,0,0,1,1.17-1.26,3.58,3.58,0,0,1,1.87-.46,3,3,0,0,1,2.22.85,3.53,3.53,0,0,1,.87,2.64v6.79H82.46v-6.79a1.92,1.92,0,0,0-.61-1.61,2.3,2.3,0,0,0-1.45-.48,2.13,2.13,0,0,0-1.66.64,2.35,2.35,0,0,0-.59,1.63v6.61H76.57v-6.95A1.86,1.86,0,0,0,76,125a2.05,2.05,0,0,0-1.45-.53,2.17,2.17,0,0,0-1.13.32,2.54,2.54,0,0,0-.85.9,2.69,2.69,0,0,0-.32,1.32v6.34Z"/><path d="M88.93,127.29a3.44,3.44,0,0,1-1.36-.26,2.32,2.32,0,0,1-.94-.73,1.89,1.89,0,0,1-.38-1.09h1a1.17,1.17,0,0,0,.26.66,1.55,1.55,0,0,0,.6.42,2.23,2.23,0,0,0,.83.15,2.29,2.29,0,0,0,.9-.17,1.48,1.48,0,0,0,.62-.5,1.21,1.21,0,0,0,.22-.73,1.41,1.41,0,0,0-.21-.77,1.55,1.55,0,0,0-.63-.52,2.58,2.58,0,0,0-1-.19h-.63v-.84h.63a1.9,1.9,0,0,0,.82-.17,1.39,1.39,0,0,0,.56-.48,1.28,1.28,0,0,0,.21-.73,1.31,1.31,0,0,0-.18-.69,1.23,1.23,0,0,0-.5-.46,1.52,1.52,0,0,0-.76-.17,2,2,0,0,0-.77.15,1.4,1.4,0,0,0-.58.43,1.1,1.1,0,0,0-.25.67h-.92a1.86,1.86,0,0,1,.37-1.09,2.39,2.39,0,0,1,.92-.73,3,3,0,0,1,1.25-.26,2.57,2.57,0,0,1,1.25.29,2.17,2.17,0,0,1,.81.78,2,2,0,0,1,.28,1,1.85,1.85,0,0,1-.35,1.13,1.69,1.69,0,0,1-1,.65v.07a1.83,1.83,0,0,1,1.17.63,1.92,1.92,0,0,1,.42,1.26,2,2,0,0,1-.35,1.16,2.41,2.41,0,0,1-.95.8A3.12,3.12,0,0,1,88.93,127.29Z"/><rect class="cls-2" x="96.07" y="158.06" width="285.03" height="603.27"/><rect class="cls-2" x="881.19" y="158.06" width="207.08" height="603.27"/><path class="cls-3" d="M180.73,761.63a.3.3,0,0,1-.3-.3V158.06a.29.29,0,0,1,.3-.3.3.3,0,0,1,.3.3V761.33A.31.31,0,0,1,180.73,761.63Z"/><path class="cls-3" d="M257,761.63a.3.3,0,0,1-.3-.3V158.06a.29.29,0,0,1,.3-.3.3.3,0,0,1,.3.3V761.33A.31.31,0,0,1,257,761.63Z"/><path class="cls-3" d="M341.52,761.63a.31.31,0,0,1-.3-.3V158.06a.3.3,0,0,1,.3-.3.29.29,0,0,1,.3.3V761.33A.3.3,0,0,1,341.52,761.63Z"/><path class="cls-3" d="M423.28,761.63a.31.31,0,0,1-.3-.3V158.06a.3.3,0,0,1,.3-.3.29.29,0,0,1,.3.3V761.33A.3.3,0,0,1,423.28,761.63Z"/><path class="cls-3" d="M507.77,761.63a.3.3,0,0,1-.3-.3V158.06a.3.3,0,0,1,.6,0V761.33A.3.3,0,0,1,507.77,761.63Z"/><path class="cls-3" d="M589.53,761.63a.3.3,0,0,1-.3-.3V158.06a.3.3,0,1,1,.6,0V761.33A.3.3,0,0,1,589.53,761.63Z"/><path class="cls-3" d="M674,761.63a.3.3,0,0,1-.3-.3V158.06a.29.29,0,0,1,.3-.3.3.3,0,0,1,.3.3V761.33A.31.31,0,0,1,674,761.63Z"/><path class="cls-3" d="M758.5,761.63a.31.31,0,0,1-.3-.3V158.06a.3.3,0,0,1,.3-.3.29.29,0,0,1,.3.3V761.33A.3.3,0,0,1,758.5,761.63Z"/><path class="cls-3" d="M840.26,761.63a.31.31,0,0,1-.3-.3V158.06a.3.3,0,0,1,.3-.3.29.29,0,0,1,.3.3V761.33A.3.3,0,0,1,840.26,761.63Z"/><path class="cls-3" d="M924.75,761.63a.3.3,0,0,1-.3-.3V158.06a.3.3,0,1,1,.6,0V761.33A.3.3,0,0,1,924.75,761.63Z"/><path class="cls-3" d="M1006.51,761.63a.3.3,0,0,1-.3-.3V158.06a.3.3,0,1,1,.6,0V761.33A.3.3,0,0,1,1006.51,761.63Z"/><path class="cls-3" d="M96.24,761.63a.31.31,0,0,1-.3-.3V158.06a.3.3,0,0,1,.3-.3.29.29,0,0,1,.3.3V761.33A.3.3,0,0,1,96.24,761.63Z"/><path class="cls-3" d="M1088.27,761.63a.31.31,0,0,1-.3-.3V158.06a.3.3,0,0,1,.3-.3.29.29,0,0,1,.3.3V761.33A.3.3,0,0,1,1088.27,761.63Z"/><circle cx="101.69" cy="627.52" r="2.97"/><circle cx="104.42" cy="639.18" r="2.97"/><circle cx="107.14" cy="516.79" r="2.97"/><circle cx="109.87" cy="522.62" r="2.97"/><circle cx="120.77" cy="598.38" r="2.97"/><circle cx="123.49" cy="604.21" r="2.97"/><circle cx="126.22" cy="592.56" r="2.97"/><circle cx="131.67" cy="569.24" r="2.97"/><circle cx="134.39" cy="656.67" r="2.97"/><circle cx="137.12" cy="592.56" r="2.97"/><circle cx="145.3" cy="668.32" r="2.97"/><circle cx="148.02" cy="534.27" r="2.97"/><circle cx="153.47" cy="545.93" r="2.97"/><circle cx="156.2" cy="645.01" r="2.97"/><circle cx="158.92" cy="592.56" r="2.97"/><circle cx="161.65" cy="510.96" r="2.97"/><circle cx="169.82" cy="510.96" r="2.97"/><circle cx="172.55" cy="598.38" r="2.97"/><circle cx="175.27" cy="580.9" r="2.97"/><circle cx="178" cy="569.24" r="2.97"/><circle cx="180.73" cy="621.7" r="2.97"/><circle cx="183.45" cy="645.01" r="2.97"/><circle cx="186.18" cy="604.21" r="2.97"/><circle cx="188.9" cy="575.07" r="2.97"/><circle cx="191.63" cy="516.79" r="2.97"/><circle cx="197.08" cy="499.3" r="2.97"/><circle cx="207.98" cy="528.45" r="2.97"/><circle cx="210.7" cy="645.01" r="2.97"/><circle cx="213.43" cy="592.56" r="2.97"/><circle cx="227.06" cy="540.1" r="2.97"/><circle cx="229.78" cy="604.21" r="2.97"/><circle cx="240.68" cy="569.24" r="2.97"/><circle cx="243.41" cy="604.21" r="2.97"/><circle cx="246.13" cy="580.9" r="2.97"/><circle cx="248.86" cy="545.93" r="2.97"/><circle cx="251.58" cy="621.7" r="2.97"/><circle cx="254.31" cy="598.38" r="2.97"/><circle cx="262.49" cy="586.73" r="2.97"/><circle cx="265.21" cy="621.7" r="2.97"/><circle cx="267.94" cy="557.59" r="2.97"/><circle cx="270.66" cy="610.04" r="2.97"/><circle cx="273.39" cy="627.52" r="2.97"/><circle cx="276.11" cy="679.98" r="2.97"/><circle cx="278.84" cy="685.81" r="2.97"/><circle cx="281.56" cy="656.67" r="2.97"/><circle cx="284.29" cy="627.52" r="2.97"/><circle cx="287.01" cy="703.29" r="2.97"/><circle cx="289.74" cy="633.35" r="2.97"/><circle cx="292.47" cy="650.84" r="2.97"/><circle cx="295.19" cy="633.35" r="2.97"/><circle cx="297.92" cy="598.38" r="2.97"/><circle cx="300.64" cy="633.35" r="2.97"/><circle cx="303.37" cy="650.84" r="2.97"/><circle cx="306.09" cy="627.52" r="2.97"/><circle cx="308.82" cy="615.87" r="2.97"/><circle cx="311.54" cy="580.9" r="2.97"/><circle cx="314.27" cy="580.9" r="2.97"/><circle cx="316.99" cy="598.38" r="2.97"/><circle cx="319.72" cy="674.15" r="2.97"/><circle cx="322.44" cy="633.35" r="2.97"/><circle cx="325.17" cy="668.32" r="2.97"/><circle cx="327.9" cy="656.67" r="2.97"/><circle cx="330.62" cy="621.7" r="2.97"/><circle cx="333.35" cy="645.01" r="2.97"/><circle cx="336.07" cy="650.84" r="2.97"/><circle cx="338.8" cy="650.84" r="2.97"/><circle cx="341.52" cy="598.38" r="2.97"/><circle cx="344.25" cy="598.38" r="2.97"/><circle cx="346.97" cy="714.95" r="2.97"/><circle cx="349.7" cy="703.29" r="2.97"/><circle cx="352.42" cy="685.81" r="2.97"/><circle cx="355.15" cy="645.01" r="2.97"/><circle cx="357.87" cy="604.21" r="2.97"/><circle cx="360.6" cy="650.84" r="2.97"/><circle cx="363.32" cy="679.98" r="2.97"/><circle cx="366.05" cy="656.67" r="2.97"/><circle cx="368.78" cy="674.15" r="2.97"/><circle cx="371.5" cy="650.84" r="2.97"/><circle cx="374.23" cy="615.87" r="2.97"/><circle cx="376.95" cy="615.87" r="2.97"/><circle cx="379.68" cy="580.9" r="2.97"/><circle cx="382.4" cy="610.04" r="2.97"/><circle cx="385.13" cy="580.9" r="2.97"/><circle cx="387.85" cy="610.04" r="2.97"/><circle cx="390.58" cy="650.84" r="2.97"/><circle cx="393.3" cy="662.49" r="2.97"/><circle cx="396.03" cy="662.49" r="2.97"/><circle cx="398.75" cy="598.38" r="2.97"/><circle cx="401.48" cy="656.67" r="2.97"/><circle cx="404.21" cy="592.56" r="2.97"/><circle cx="406.93" cy="534.27" r="2.97"/><circle cx="409.66" cy="586.73" r="2.97"/><circle cx="412.38" cy="714.95" r="2.97"/><circle cx="415.11" cy="709.12" r="2.97"/><circle cx="417.83" cy="714.95" r="2.97"/><circle cx="420.56" cy="703.29" r="2.97"/><circle cx="423.28" cy="703.29" r="2.97"/><circle cx="426.01" cy="697.46" r="2.97"/><circle cx="428.73" cy="691.63" r="2.97"/><circle cx="431.46" cy="674.15" r="2.97"/><circle cx="434.18" cy="697.46" r="2.97"/><circle cx="436.91" cy="703.29" r="2.97"/><circle cx="439.64" cy="662.49" r="2.97"/><circle cx="442.36" cy="679.98" r="2.97"/><circle cx="445.09" cy="703.29" r="2.97"/><circle cx="447.81" cy="674.15" r="2.97"/><circle cx="450.54" cy="709.12" r="2.97"/><circle cx="453.26" cy="714.95" r="2.97"/><circle cx="455.99" cy="679.98" r="2.97"/><circle cx="458.71" cy="656.67" r="2.97"/><circle cx="461.44" cy="679.98" r="2.97"/><circle cx="464.16" cy="691.63" r="2.97"/><circle cx="466.89" cy="645.01" r="2.97"/><circle cx="469.61" cy="709.12" r="2.97"/><circle cx="472.34" cy="703.29" r="2.97"/><circle cx="475.06" cy="714.95" r="2.97"/><circle cx="477.79" cy="668.32" r="2.97"/><circle cx="480.52" cy="633.35" r="2.97"/><circle cx="483.24" cy="645.01" r="2.97"/><circle cx="485.97" cy="668.32" r="2.97"/><circle cx="488.69" cy="668.32" r="2.97"/><circle cx="491.42" cy="674.15" r="2.97"/><circle cx="494.14" cy="703.29" r="2.97"/><circle cx="496.87" cy="709.12" r="2.97"/><circle cx="499.59" cy="714.95" r="2.97"/><circle cx="502.32" cy="697.46" r="2.97"/><circle cx="505.04" cy="685.81" r="2.97"/><circle cx="507.77" cy="691.63" r="2.97"/><circle cx="510.49" cy="703.29" r="2.97"/><circle cx="513.22" cy="685.81" r="2.97" transform="translate(-207.24 1149.12) rotate(-85.93)"/><circle cx="515.95" cy="668.32" r="2.97"/><circle cx="518.67" cy="662.49" r="2.97"/><circle cx="521.4" cy="627.52" r="2.97"/><circle cx="524.12" cy="615.87" r="2.97"/><circle cx="526.85" cy="569.24" r="2.97"/><circle cx="529.57" cy="575.07" r="2.97"/><circle cx="532.3" cy="540.1" r="2.97"/><circle cx="535.02" cy="516.79" r="2.97"/><circle cx="537.75" cy="563.41" r="2.97"/><circle cx="540.47" cy="668.32" r="2.97"/><circle cx="543.2" cy="604.21" r="2.97"/><circle cx="545.92" cy="516.79" r="2.97"/><circle cx="548.65" cy="621.7" r="2.97"/><circle cx="551.37" cy="645.01" r="2.97"/><circle cx="554.1" cy="633.35" r="2.97"/><circle cx="556.83" cy="645.01" r="2.97"/><circle cx="559.55" cy="674.15" r="2.97"/><circle cx="562.28" cy="627.52" r="2.97"/><circle cx="565" cy="621.7" r="2.97"/><circle cx="567.73" cy="650.84" r="2.97"/><circle cx="570.45" cy="662.49" r="2.97"/><circle cx="573.18" cy="633.35" r="2.97"/><circle cx="575.9" cy="633.35" r="2.97"/><circle cx="578.63" cy="621.7" r="2.97"/><circle cx="581.35" cy="592.56" r="2.97"/><circle cx="584.08" cy="621.7" r="2.97"/><circle cx="586.8" cy="627.52" r="2.97" transform="translate(-43.1 1211.77) rotate(-89.77)"/><circle cx="589.53" cy="586.73" r="2.97"/><circle cx="592.26" cy="621.7" r="2.97"/><circle cx="594.98" cy="592.56" r="2.97"/><circle cx="597.71" cy="674.15" r="2.97" transform="translate(-2.78 2.48) rotate(-0.24)"/><circle cx="600.43" cy="650.84" r="2.97"/><circle cx="603.16" cy="645.01" r="2.97"/><circle cx="605.88" cy="633.35" r="2.97"/><circle cx="616.78" cy="656.67" r="2.97"/><circle cx="619.51" cy="650.84" r="2.97"/><circle cx="622.23" cy="674.15" r="2.97"/><circle cx="624.96" cy="709.12" r="2.97"/><circle cx="627.69" cy="668.32" r="2.97"/><circle cx="630.41" cy="662.49" r="2.97"/><circle cx="633.14" cy="685.81" r="2.97"/><circle cx="635.86" cy="615.87" r="2.97"/><circle cx="638.59" cy="650.84" r="2.97"/><circle cx="641.31" cy="639.18" r="2.97"/><circle cx="644.04" cy="656.67" r="2.97"/><circle cx="646.76" cy="598.38" r="2.97"/><circle cx="649.49" cy="621.7" r="2.97"/><circle cx="652.21" cy="650.84" r="2.97"/><circle cx="654.94" cy="586.73" r="2.97"/><circle cx="657.66" cy="645.01" r="2.97"/><circle cx="660.39" cy="639.18" r="2.97"/><circle cx="663.11" cy="709.12" r="2.97"/><circle cx="665.84" cy="674.15" r="2.97"/><circle cx="668.57" cy="662.49" r="2.97"/><circle cx="671.29" cy="645.01" r="2.97"/><circle cx="674.02" cy="633.35" r="2.97"/><circle cx="676.74" cy="633.35" r="2.97"/><circle cx="679.47" cy="691.63" r="2.97"/><circle cx="682.19" cy="691.63" r="2.97"/><circle cx="684.92" cy="662.49" r="2.97"/><circle cx="687.64" cy="650.84" r="2.97"/><circle cx="690.37" cy="639.18" r="2.97"/><circle cx="693.09" cy="650.84" r="2.97"/><circle cx="695.82" cy="621.7" r="2.97"/><circle cx="698.54" cy="645.01" r="2.97"/><circle cx="701.27" cy="656.67" r="2.97"/><circle cx="704" cy="633.35" r="2.97"/><circle cx="706.72" cy="639.18" r="2.97"/><circle cx="709.45" cy="662.49" r="2.97"/><circle cx="712.17" cy="697.46" r="2.97"/><circle cx="714.9" cy="679.98" r="2.97"/><circle cx="717.62" cy="679.98" r="2.97"/><circle cx="720.35" cy="685.81" r="2.97"/><circle cx="723.07" cy="662.49" r="2.97"/><circle cx="725.8" cy="645.01" r="2.97"/><circle cx="728.52" cy="621.7" r="2.97"/><circle cx="731.25" cy="627.52" r="2.97"/><circle cx="733.97" cy="639.18" r="2.97"/><circle cx="736.7" cy="627.52" r="2.97"/><circle cx="739.43" cy="656.67" r="2.97"/><circle cx="742.15" cy="627.52" r="2.97"/><circle cx="744.88" cy="598.38" r="2.97"/><circle cx="747.6" cy="586.73" r="2.97"/><circle cx="755.78" cy="598.38" r="2.97"/><circle cx="758.5" cy="650.84" r="2.97"/><circle cx="761.23" cy="610.04" r="2.97"/><circle cx="763.95" cy="662.49" r="2.97"/><circle cx="766.68" cy="679.98" r="2.97"/><circle cx="769.4" cy="645.01" r="2.97"/><circle cx="772.13" cy="656.67" r="2.97"/><circle cx="774.85" cy="679.98" r="2.97"/><circle cx="777.58" cy="685.81" r="2.97"/><circle cx="780.31" cy="720.78" r="2.97"/><circle cx="783.03" cy="674.15" r="2.97"/><circle cx="785.76" cy="639.18" r="2.97"/><circle cx="788.48" cy="627.52" r="2.97"/><circle cx="791.21" cy="639.18" r="2.97"/><circle cx="793.93" cy="668.32" r="2.97"/><circle cx="796.66" cy="703.29" r="2.97"/><circle cx="799.38" cy="685.81" r="2.97"/><circle cx="802.11" cy="662.49" r="2.97"/><circle cx="804.83" cy="633.35" r="2.97"/><circle cx="807.56" cy="656.67" r="2.97"/><circle cx="810.28" cy="645.01" r="2.97"/><circle cx="813.01" cy="662.49" r="2.97"/><circle cx="815.74" cy="639.18" r="2.97"/><circle cx="818.46" cy="580.9" r="2.97"/><circle cx="821.19" cy="674.15" r="2.97"/><circle cx="823.91" cy="639.18" r="2.97"/><circle cx="826.64" cy="604.21" r="2.97"/><circle cx="829.36" cy="645.01" r="2.97"/><circle cx="832.09" cy="679.98" r="2.97"/><circle cx="834.81" cy="714.95" r="2.97"/><circle cx="837.54" cy="679.98" r="2.97"/><circle cx="840.26" cy="674.15" r="2.97"/><circle cx="842.99" cy="697.46" r="2.97"/><circle cx="845.71" cy="697.46" r="2.97"/><circle cx="848.44" cy="714.95" r="2.97"/><circle cx="851.16" cy="645.01" r="2.97"/><circle cx="853.89" cy="662.49" r="2.97"/><circle cx="856.62" cy="674.15" r="2.97"/><circle cx="859.34" cy="656.67" r="2.97"/><circle cx="862.07" cy="639.18" r="2.97"/><circle cx="864.79" cy="493.48" r="2.97"/><circle cx="867.52" cy="522.62" r="2.97"/><circle cx="878.42" cy="575.07" r="2.97"/><circle cx="881.14" cy="691.63" r="2.97"/><circle cx="883.87" cy="691.63" r="2.97"/><circle cx="886.59" cy="668.32" r="2.97"/><circle cx="889.32" cy="668.32" r="2.97"/><circle cx="892.05" cy="668.32" r="2.97"/><circle cx="894.77" cy="604.21" r="2.97"/><circle cx="897.5" cy="557.59" r="2.97"/><circle cx="900.22" cy="528.45" r="2.97"/><circle cx="902.95" cy="516.79" r="2.97"/><circle cx="905.67" cy="534.27" r="2.97"/><circle cx="908.4" cy="575.07" r="2.97"/><circle cx="911.12" cy="615.87" r="2.97"/><circle cx="913.85" cy="516.79" r="2.97"/><circle cx="919.3" cy="633.35" r="2.97"/><circle cx="922.02" cy="685.81" r="2.97"/><circle cx="924.75" cy="662.49" r="2.97"/><circle cx="927.48" cy="592.56" r="2.97"/><circle cx="935.65" cy="656.67" r="2.97"/><circle cx="938.38" cy="709.12" r="2.97"/><circle cx="941.1" cy="627.52" r="2.97"/><circle cx="943.83" cy="691.63" r="2.97"/><circle cx="946.55" cy="685.81" r="2.97"/><circle cx="949.28" cy="604.21" r="2.97"/><circle cx="952" cy="580.9" r="2.97"/><circle cx="954.73" cy="720.78" r="2.97"/><circle cx="957.45" cy="691.63" r="2.97"/><circle cx="960.18" cy="633.35" r="2.97"/><circle cx="962.9" cy="697.46" r="2.97"/><circle cx="965.63" cy="674.15" r="2.97"/><circle cx="968.36" cy="709.12" r="2.97"/><circle cx="971.08" cy="633.35" r="2.97"/><circle cx="973.81" cy="633.35" r="2.97"/><circle cx="976.53" cy="604.21" r="2.97"/><circle cx="981.98" cy="621.7" r="2.97"/><circle cx="984.71" cy="639.18" r="2.97"/><circle cx="987.43" cy="650.84" r="2.97"/><circle cx="990.16" cy="662.49" r="2.97"/><circle cx="992.88" cy="621.7" r="2.97"/><circle cx="995.61" cy="639.18" r="2.97"/><circle cx="998.33" cy="586.73" r="2.97"/><circle cx="1001.06" cy="522.62" r="2.97"/><circle cx="1003.79" cy="563.41" r="2.97"/><circle cx="1006.51" cy="545.93" r="2.97"/><circle cx="1009.24" cy="668.32" r="2.97"/><circle cx="1011.96" cy="650.84" r="2.97"/><circle cx="1014.69" cy="610.04" r="2.97"/><circle cx="1017.41" cy="528.45" r="2.97"/><circle cx="1031.04" cy="516.79" r="2.97"/><circle cx="1033.76" cy="650.84" r="2.97"/><circle cx="1036.49" cy="645.01" r="2.97"/><circle cx="1039.22" cy="668.32" r="2.97"/><circle cx="1041.94" cy="592.56" r="2.97"/><circle cx="1044.67" cy="499.3" r="2.97"/><circle class="cls-4" cx="96.24" cy="371.08" r="2.97"/><circle class="cls-4" cx="98.96" cy="458.51" r="2.97"/><circle class="cls-4" cx="112.59" cy="435.19" r="2.97"/><circle class="cls-4" cx="115.32" cy="306.97" r="2.97"/><circle class="cls-4" cx="118.04" cy="417.71" r="2.97"/><circle class="cls-4" cx="128.94" cy="429.37" r="2.97"/><circle class="cls-4" cx="139.85" cy="464.34" r="2.97"/><circle class="cls-4" cx="142.57" cy="446.85" r="2.97"/><circle class="cls-4" cx="150.75" cy="470.16" r="2.97"/><circle class="cls-4" cx="164.37" cy="470.16" r="2.97"/><circle class="cls-4" cx="167.1" cy="347.77" r="2.97"/><circle class="cls-4" cx="194.35" cy="446.85" r="2.97"/><circle class="cls-4" cx="199.8" cy="458.51" r="2.97"/><circle class="cls-4" cx="202.53" cy="417.71" r="2.97"/><circle class="cls-4" cx="205.25" cy="423.54" r="2.97"/><circle class="cls-4" cx="216.16" cy="470.16" r="2.97"/><circle class="cls-4" cx="218.88" cy="411.88" r="2.97"/><circle class="cls-4" cx="221.61" cy="394.4" r="2.97"/><circle class="cls-4" cx="224.33" cy="423.54" r="2.97"/><circle class="cls-4" cx="232.51" cy="353.6" r="2.97"/><circle class="cls-4" cx="235.23" cy="341.94" r="2.97"/><circle class="cls-4" cx="237.96" cy="417.71" r="2.97"/><circle class="cls-4" cx="257.04" cy="411.88" r="2.97"/><circle class="cls-4" cx="259.76" cy="411.88" r="2.97"/><circle class="cls-4" cx="870.24" cy="441.02" r="2.97"/><circle class="cls-4" cx="872.97" cy="458.51" r="2.97"/><circle class="cls-4" cx="875.69" cy="441.02" r="2.97"/><circle class="cls-4" cx="916.57" cy="452.68" r="2.97"/><circle class="cls-4" cx="1020.14" cy="470.16" r="2.97"/><circle class="cls-4" cx="1022.86" cy="394.4" r="2.97"/><circle class="cls-4" cx="1025.59" cy="446.85" r="2.97"/><circle class="cls-4" cx="1028.31" cy="272" r="2.97"/><circle class="cls-4" cx="1047.39" cy="371.08" r="2.97"/><circle class="cls-4" cx="1050.12" cy="283.66" r="2.97"/><circle class="cls-4" cx="1052.84" cy="452.68" r="2.97"/><circle class="cls-4" cx="1055.57" cy="464.34" r="2.97"/><circle cx="1058.29" cy="674.15" r="2.97"/><circle cx="1061.02" cy="749.92" r="2.97"/><circle cx="1063.74" cy="749.92" r="2.97"/><circle cx="1066.47" cy="685.81" r="2.97"/><circle cx="1069.19" cy="679.98" r="2.97"/><circle cx="1071.92" cy="615.87" r="2.97"/><circle cx="1074.64" cy="610.04" r="2.97"/><circle cx="1077.37" cy="551.76" r="2.97"/><circle cx="1080.1" cy="510.96" r="2.97"/><circle cx="1082.82" cy="493.48" r="2.97"/><circle cx="1085.55" cy="516.79" r="2.97"/><circle cx="1088.27" cy="528.45" r="2.97"/><path d="M287.89,175.3a1.55,1.55,0,0,0-.7-1.17,2.71,2.71,0,0,0-1.54-.41,2.88,2.88,0,0,0-1.15.21,1.71,1.71,0,0,0-.75.57,1.32,1.32,0,0,0-.27.82,1.22,1.22,0,0,0,.18.67,1.51,1.51,0,0,0,.48.46,3.48,3.48,0,0,0,.64.32c.23.08.45.15.66.2l1.06.27a7.72,7.72,0,0,1,1.06.35,3.87,3.87,0,0,1,1,.57,2.89,2.89,0,0,1,.76.87,2.61,2.61,0,0,1,.28,1.26,2.86,2.86,0,0,1-.47,1.63,3.16,3.16,0,0,1-1.37,1.13,5.9,5.9,0,0,1-4.27,0,3.22,3.22,0,0,1-1.38-1.09,3.18,3.18,0,0,1-.56-1.69h1.64a1.65,1.65,0,0,0,.38,1,2.08,2.08,0,0,0,.86.58,3.57,3.57,0,0,0,1.16.19,3.37,3.37,0,0,0,1.23-.22,2,2,0,0,0,.85-.62,1.43,1.43,0,0,0,.32-.92,1.12,1.12,0,0,0-.28-.79,2,2,0,0,0-.73-.5,6.65,6.65,0,0,0-1-.36l-1.28-.35a4.87,4.87,0,0,1-2.06-1,2.32,2.32,0,0,1-.76-1.82,2.7,2.7,0,0,1,.51-1.63,3.29,3.29,0,0,1,1.37-1.08,5.13,5.13,0,0,1,3.9,0,3.36,3.36,0,0,1,1.33,1.06,2.79,2.79,0,0,1,.51,1.55Z"/><path d="M291.44,186.32V175.16H293v1.32h.13a4.41,4.41,0,0,1,.4-.59,2.14,2.14,0,0,1,.72-.58,2.47,2.47,0,0,1,1.21-.25,3.2,3.2,0,0,1,1.76.49,3.36,3.36,0,0,1,1.21,1.43,6,6,0,0,1,0,4.51,3.37,3.37,0,0,1-1.2,1.44,3.1,3.1,0,0,1-1.75.51,2.62,2.62,0,0,1-1.21-.25,2.43,2.43,0,0,1-.73-.58,4.6,4.6,0,0,1-.41-.59H293v4.3Zm1.55-7.1a4.29,4.29,0,0,0,.24,1.5,2.32,2.32,0,0,0,.72,1,2,2,0,0,0,2.34,0,2.31,2.31,0,0,0,.72-1,4.18,4.18,0,0,0,.24-1.46,4,4,0,0,0-.24-1.44,2.23,2.23,0,0,0-.71-1,1.89,1.89,0,0,0-1.2-.37,1.94,1.94,0,0,0-1.16.35,2.22,2.22,0,0,0-.71,1A4.18,4.18,0,0,0,293,179.22Z"/><path d="M304.12,183.44a4,4,0,0,1-2.06-.51,3.51,3.51,0,0,1-1.34-1.46,4.89,4.89,0,0,1-.46-2.2,5,5,0,0,1,.46-2.2,3.49,3.49,0,0,1,3.29-2,4,4,0,0,1,1.33.22,3.14,3.14,0,0,1,1.16.72,3.35,3.35,0,0,1,.81,1.26,5.42,5.42,0,0,1,.29,1.88v.55h-6.45v-1.18h4.9a2.39,2.39,0,0,0-.25-1.11,1.93,1.93,0,0,0-1.78-1,2,2,0,0,0-1.16.33,2.12,2.12,0,0,0-.76.84,2.42,2.42,0,0,0-.27,1.13v.92a3.07,3.07,0,0,0,.29,1.39,2,2,0,0,0,.8.87,2.39,2.39,0,0,0,1.21.3A2.61,2.61,0,0,0,305,182a1.81,1.81,0,0,0,.64-.39A1.78,1.78,0,0,0,306,181l1.49.27a2.67,2.67,0,0,1-.64,1.15,3.06,3.06,0,0,1-1.16.77A4.33,4.33,0,0,1,304.12,183.44Z"/><path d="M312.76,186.49a4.87,4.87,0,0,1-1.66-.25,3.35,3.35,0,0,1-1.13-.67,3,3,0,0,1-.66-.92l1.36-.56a3.68,3.68,0,0,0,.38.5,2,2,0,0,0,.66.44,2.53,2.53,0,0,0,1.07.19,2.41,2.41,0,0,0,1.48-.44,1.59,1.59,0,0,0,.59-1.39V181.8h-.1a3.29,3.29,0,0,1-.41.57,2.1,2.1,0,0,1-.73.55,2.63,2.63,0,0,1-1.21.24,3.27,3.27,0,0,1-1.73-.46,3.16,3.16,0,0,1-1.22-1.33,4.92,4.92,0,0,1-.44-2.18,5,5,0,0,1,.44-2.22,3.33,3.33,0,0,1,1.21-1.42,3.19,3.19,0,0,1,1.75-.49,2.54,2.54,0,0,1,1.22.25,2.28,2.28,0,0,1,.73.58,4.41,4.41,0,0,1,.4.59h.12v-1.32h1.55v8.3a2.7,2.7,0,0,1-1.8,2.71A5.2,5.2,0,0,1,312.76,186.49Zm0-4.64a2,2,0,0,0,1.15-.32,2,2,0,0,0,.72-.92,3.67,3.67,0,0,0,.25-1.44,3.83,3.83,0,0,0-.25-1.45,2.16,2.16,0,0,0-.71-1,1.9,1.9,0,0,0-1.16-.35,1.86,1.86,0,0,0-1.19.37,2.17,2.17,0,0,0-.72,1,3.93,3.93,0,0,0-.24,1.41,3.57,3.57,0,0,0,.25,1.4,2.07,2.07,0,0,0,.72.94A2,2,0,0,0,312.75,181.85Z"/><path d="M320.13,178.46v4.82h-1.58v-8.12h1.51v1.32h.1a2.32,2.32,0,0,1,.88-1,2.75,2.75,0,0,1,1.52-.39,3,3,0,0,1,1.45.34,2.42,2.42,0,0,1,1,1,3.7,3.7,0,0,1,.34,1.68v5.17h-1.58v-5a2,2,0,0,0-.46-1.39,1.65,1.65,0,0,0-1.26-.5,2,2,0,0,0-1,.24,1.74,1.74,0,0,0-.67.7A2.32,2.32,0,0,0,320.13,178.46Z"/><path d="M328.23,173.91a1,1,0,0,1-.7-.28.85.85,0,0,1-.3-.66.87.87,0,0,1,.3-.67,1,1,0,0,1,.7-.28,1,1,0,0,1,.71.28.9.9,0,0,1,.29.67.88.88,0,0,1-.29.66A1,1,0,0,1,328.23,173.91Zm-.8,9.37v-8.12H329v8.12Z"/><path d="M331.14,183.28v-8.12h1.51v1.32h.1a2.17,2.17,0,0,1,.83-1,2.5,2.5,0,0,1,1.38-.37,2.31,2.31,0,0,1,1.37.38,2.24,2.24,0,0,1,.82,1h.08a2.27,2.27,0,0,1,.93-1,2.89,2.89,0,0,1,1.51-.38,2.47,2.47,0,0,1,1.8.69,2.79,2.79,0,0,1,.7,2.09v5.44h-1.58V178a1.45,1.45,0,0,0-.45-1.19,1.62,1.62,0,0,0-1.07-.37,1.55,1.55,0,0,0-1.2.47,1.72,1.72,0,0,0-.43,1.21v5.18h-1.57v-5.4a1.4,1.4,0,0,0-.42-1.06,1.45,1.45,0,0,0-1.07-.4,1.62,1.62,0,0,0-.83.23,1.74,1.74,0,0,0-.6.66,1.87,1.87,0,0,0-.23,1v5Z"/><path d="M347.78,183.44a4,4,0,0,1-2.06-.51,3.42,3.42,0,0,1-1.33-1.46,4.89,4.89,0,0,1-.47-2.2,5,5,0,0,1,.47-2.2,3.49,3.49,0,0,1,3.28-2,4,4,0,0,1,1.33.22,3.14,3.14,0,0,1,1.16.72,3.35,3.35,0,0,1,.81,1.26,5.2,5.2,0,0,1,.29,1.88v.55h-6.45v-1.18h4.91a2.39,2.39,0,0,0-.26-1.11,1.92,1.92,0,0,0-.71-.76,2,2,0,0,0-1.07-.28,2,2,0,0,0-1.16.33,2.12,2.12,0,0,0-.76.84,2.41,2.41,0,0,0-.26,1.13v.92a3.08,3.08,0,0,0,.28,1.39,2,2,0,0,0,.81.87,2.36,2.36,0,0,0,1.21.3,2.66,2.66,0,0,0,.82-.13,1.9,1.9,0,0,0,.64-.39,1.76,1.76,0,0,0,.41-.64l1.5.27a2.8,2.8,0,0,1-.65,1.15,3.11,3.11,0,0,1-1.15.77A4.42,4.42,0,0,1,347.78,183.44Z"/><path d="M354.6,178.46v4.82H353v-8.12h1.52v1.32h.1a2.32,2.32,0,0,1,.88-1,2.75,2.75,0,0,1,1.52-.39,3,3,0,0,1,1.45.34,2.42,2.42,0,0,1,1,1,3.84,3.84,0,0,1,.34,1.68v5.17h-1.58v-5a2,2,0,0,0-.46-1.39,1.65,1.65,0,0,0-1.26-.5,2,2,0,0,0-1,.24,1.68,1.68,0,0,0-.67.7A2.32,2.32,0,0,0,354.6,178.46Z"/><path d="M365.7,175.16v1.27h-4.43v-1.27Zm-3.24-1.94H364v7.68a1.37,1.37,0,0,0,.13.68.74.74,0,0,0,.36.32,1.51,1.51,0,0,0,.48.08,1.55,1.55,0,0,0,.33,0l.22,0,.29,1.3a1.72,1.72,0,0,1-.39.11,2.8,2.8,0,0,1-.63.06,2.68,2.68,0,0,1-1.17-.22,1.91,1.91,0,0,1-.87-.72,2.11,2.11,0,0,1-.33-1.22Z"/><path d="M370.78,183.44a3.69,3.69,0,0,1-2-.52,3.49,3.49,0,0,1-1.32-1.47,4.71,4.71,0,0,1-.47-2.19,4.8,4.8,0,0,1,.47-2.21,3.49,3.49,0,0,1,1.32-1.47,4.07,4.07,0,0,1,4,0,3.49,3.49,0,0,1,1.32,1.47,4.8,4.8,0,0,1,.47,2.21,4.71,4.71,0,0,1-.47,2.19,3.49,3.49,0,0,1-1.32,1.47A3.69,3.69,0,0,1,370.78,183.44Zm0-1.32a1.88,1.88,0,0,0,1.22-.4,2.17,2.17,0,0,0,.72-1,4.38,4.38,0,0,0,0-2.86,2.31,2.31,0,0,0-.72-1,1.88,1.88,0,0,0-1.22-.39,1.94,1.94,0,0,0-1.24.39,2.38,2.38,0,0,0-.72,1,4.38,4.38,0,0,0,0,2.86,2.25,2.25,0,0,0,.72,1A1.94,1.94,0,0,0,370.79,182.12Z"/><path d="M281.86,201.88v-8.12h1.53v1.29h.08a1.94,1.94,0,0,1,.79-1,2.23,2.23,0,0,1,1.27-.38h.36l.32,0v1.51l-.34-.06a2.7,2.7,0,0,0-.49,0,2.08,2.08,0,0,0-1,.24,1.64,1.64,0,0,0-.68.65,1.77,1.77,0,0,0-.26.94v5Z"/><path d="M288.38,192.51a1,1,0,0,1-.71-.28.88.88,0,0,1-.29-.66.92.92,0,0,1,.29-.67,1,1,0,0,1,.71-.28,1,1,0,0,1,.7.28.89.89,0,0,1,.3.67.85.85,0,0,1-.3.66A1,1,0,0,1,288.38,192.51Zm-.8,9.37v-8.12h1.58v8.12Z"/><path d="M297.37,195.74l-1.44.26a1.69,1.69,0,0,0-.28-.53,1.42,1.42,0,0,0-.52-.4,1.82,1.82,0,0,0-.82-.16,2,2,0,0,0-1.12.3.89.89,0,0,0-.45.77.79.79,0,0,0,.3.65,2.45,2.45,0,0,0,1,.41l1.28.29a3.48,3.48,0,0,1,1.67.8,1.87,1.87,0,0,1,.55,1.4,2.13,2.13,0,0,1-.42,1.3,2.76,2.76,0,0,1-1.16.89,4.27,4.27,0,0,1-1.73.32,3.91,3.91,0,0,1-2.23-.58,2.46,2.46,0,0,1-1.06-1.66l1.53-.24a1.49,1.49,0,0,0,.59.91,2,2,0,0,0,1.16.3,2.12,2.12,0,0,0,1.24-.33.93.93,0,0,0,.46-.79.83.83,0,0,0-.28-.64,2,2,0,0,0-.87-.39l-1.37-.3a3.31,3.31,0,0,1-1.68-.83,2,2,0,0,1-.54-1.43,2.1,2.1,0,0,1,.4-1.26,2.65,2.65,0,0,1,1.11-.84,4.19,4.19,0,0,1,1.63-.3,3.46,3.46,0,0,1,2.07.56A2.75,2.75,0,0,1,297.37,195.74Z"/><path d="M302.68,202a3.79,3.79,0,0,1-2-.53,3.56,3.56,0,0,1-1.3-1.49,4.83,4.83,0,0,1-.46-2.16,4.9,4.9,0,0,1,.47-2.19,3.55,3.55,0,0,1,1.31-1.48,3.61,3.61,0,0,1,2-.53,3.77,3.77,0,0,1,1.65.34,3,3,0,0,1,1.17.95,2.92,2.92,0,0,1,.53,1.43h-1.54a1.75,1.75,0,0,0-.58-1,1.73,1.73,0,0,0-1.2-.41,2,2,0,0,0-1.16.34,2.29,2.29,0,0,0-.77,1,3.79,3.79,0,0,0-.27,1.5,4,4,0,0,0,.27,1.53,2.23,2.23,0,0,0,.76,1,2.05,2.05,0,0,0,2,.19,1.62,1.62,0,0,0,.62-.48,1.73,1.73,0,0,0,.35-.75H306a3.11,3.11,0,0,1-.51,1.41,3,3,0,0,1-1.15,1A3.77,3.77,0,0,1,302.68,202Z"/><path d="M310.07,202.06a3.34,3.34,0,0,1-1.4-.29,2.29,2.29,0,0,1-1-.84,2.37,2.37,0,0,1-.36-1.34,2.29,2.29,0,0,1,.26-1.14,2,2,0,0,1,.71-.7,3.93,3.93,0,0,1,1-.39,10.25,10.25,0,0,1,1.13-.2l1.18-.14a1.77,1.77,0,0,0,.66-.18.45.45,0,0,0,.21-.41v0a1.46,1.46,0,0,0-.39-1.08,1.59,1.59,0,0,0-1.15-.37,2,2,0,0,0-1.26.35,1.91,1.91,0,0,0-.63.78l-1.48-.34a2.8,2.8,0,0,1,.77-1.2,3.25,3.25,0,0,1,1.17-.67,5,5,0,0,1,1.4-.2,4.85,4.85,0,0,1,1,.11,3.21,3.21,0,0,1,1,.41,2.44,2.44,0,0,1,.79.86,3.06,3.06,0,0,1,.3,1.45v5.39h-1.54v-1.11h-.06a2.41,2.41,0,0,1-.46.6,2.47,2.47,0,0,1-.79.49A3,3,0,0,1,310.07,202.06Zm.34-1.27a2.36,2.36,0,0,0,1.13-.26,1.77,1.77,0,0,0,.95-1.58v-1a.72.72,0,0,1-.32.16,3.49,3.49,0,0,1-.55.12l-.59.09-.49.07a4,4,0,0,0-.84.19,1.54,1.54,0,0,0-.6.4,1,1,0,0,0-.22.68,1,1,0,0,0,.43.88A1.88,1.88,0,0,0,310.41,200.79Z"/><path d="M317.76,191.06v10.82h-1.58V191.06Z"/><path d="M322.92,202a3.07,3.07,0,0,1-1.75-.51,3.33,3.33,0,0,1-1.21-1.44,5.35,5.35,0,0,1-.43-2.25,5.21,5.21,0,0,1,.44-2.26,3.36,3.36,0,0,1,1.21-1.43,3.19,3.19,0,0,1,1.75-.49,2.54,2.54,0,0,1,1.22.25,2.14,2.14,0,0,1,.72.58,5.63,5.63,0,0,1,.4.59h.09v-4h1.58v10.82H325.4v-1.26h-.13a4.6,4.6,0,0,1-.41.59,2.43,2.43,0,0,1-.73.58A2.65,2.65,0,0,1,322.92,202Zm.35-1.35a1.84,1.84,0,0,0,1.15-.36,2.17,2.17,0,0,0,.72-1,4.07,4.07,0,0,0,.25-1.5,4.18,4.18,0,0,0-.24-1.48,2.24,2.24,0,0,0-.72-1,1.9,1.9,0,0,0-1.16-.35,1.86,1.86,0,0,0-1.19.37,2.17,2.17,0,0,0-.72,1,4,4,0,0,0-.24,1.44,4.18,4.18,0,0,0,.25,1.46,2.24,2.24,0,0,0,.72,1A1.85,1.85,0,0,0,323.27,200.69Z"/><path d="M331.55,202.06a3.32,3.32,0,0,1-1.39-.29,2.32,2.32,0,0,1-1-.84,2.37,2.37,0,0,1-.36-1.34,2.19,2.19,0,0,1,.27-1.14,1.91,1.91,0,0,1,.71-.7,3.86,3.86,0,0,1,1-.39,10.68,10.68,0,0,1,1.13-.2l1.19-.14a1.9,1.9,0,0,0,.66-.18.45.45,0,0,0,.21-.41v0a1.46,1.46,0,0,0-.39-1.08,1.62,1.62,0,0,0-1.16-.37,2,2,0,0,0-1.25.35,1.76,1.76,0,0,0-.63.78l-1.49-.34a2.91,2.91,0,0,1,.78-1.2,3.17,3.17,0,0,1,1.17-.67,4.93,4.93,0,0,1,1.4-.2,4.69,4.69,0,0,1,1,.11,3.18,3.18,0,0,1,1,.41,2.32,2.32,0,0,1,.78.86,2.94,2.94,0,0,1,.31,1.45v5.39H334v-1.11H334a2.19,2.19,0,0,1-.46.6,2.31,2.31,0,0,1-.78.49A3.09,3.09,0,0,1,331.55,202.06Zm.35-1.27a2.29,2.29,0,0,0,1.12-.26,1.79,1.79,0,0,0,.71-.68,1.7,1.7,0,0,0,.25-.9v-1a.78.78,0,0,1-.32.16,3.76,3.76,0,0,1-.55.12l-.6.09-.48.07a4,4,0,0,0-.84.19,1.54,1.54,0,0,0-.6.4,1,1,0,0,0-.23.68,1,1,0,0,0,.43.88A1.91,1.91,0,0,0,331.9,200.79Z"/><path d="M337.66,201.88v-8.12h1.52v1.32h.1a2.21,2.21,0,0,1,.83-1.05,2.45,2.45,0,0,1,1.38-.37,2.33,2.33,0,0,1,1.37.38,2.22,2.22,0,0,1,.81,1h.09a2.31,2.31,0,0,1,.92-1,2.92,2.92,0,0,1,1.51-.38,2.47,2.47,0,0,1,1.81.69,2.85,2.85,0,0,1,.7,2.09v5.44h-1.58v-5.3a1.45,1.45,0,0,0-.45-1.19,1.63,1.63,0,0,0-1.08-.37,1.53,1.53,0,0,0-1.19.47,1.73,1.73,0,0,0-.43,1.22v5.17h-1.58v-5.4a1.39,1.39,0,0,0-.41-1.06,1.45,1.45,0,0,0-1.07-.4,1.6,1.6,0,0,0-.83.23,1.85,1.85,0,0,0-.61.66,2,2,0,0,0-.23,1v5Z"/><path d="M354.31,202a4,4,0,0,1-2.06-.51,3.51,3.51,0,0,1-1.34-1.46,4.86,4.86,0,0,1-.46-2.2,5,5,0,0,1,.46-2.2,3.7,3.7,0,0,1,1.31-1.48,3.6,3.6,0,0,1,2-.53,4,4,0,0,1,1.33.22,3.22,3.22,0,0,1,1.16.72,3.35,3.35,0,0,1,.81,1.26,5.42,5.42,0,0,1,.29,1.88v.56h-6.45v-1.19h4.9A2.32,2.32,0,0,0,356,196a2,2,0,0,0-.71-.77,2,2,0,0,0-1.07-.28,2,2,0,0,0-1.16.33,2.12,2.12,0,0,0-.76.84,2.42,2.42,0,0,0-.27,1.13v.93a3.06,3.06,0,0,0,.29,1.38,2,2,0,0,0,.8.87,2.4,2.4,0,0,0,1.22.3,2.59,2.59,0,0,0,.81-.13,1.81,1.81,0,0,0,.64-.39,1.78,1.78,0,0,0,.42-.64l1.49.27a2.67,2.67,0,0,1-.64,1.15,3.15,3.15,0,0,1-1.16.77A4.33,4.33,0,0,1,354.31,202Z"/><path d="M361.13,197.06v4.82h-1.58v-8.12h1.52v1.32h.1a2.25,2.25,0,0,1,.88-1,2.71,2.71,0,0,1,1.51-.39A2.93,2.93,0,0,1,365,194a2.36,2.36,0,0,1,1,1,3.71,3.71,0,0,1,.35,1.69v5.16h-1.58v-5a2,2,0,0,0-.46-1.39A1.66,1.66,0,0,0,363,195a1.94,1.94,0,0,0-1,.24,1.62,1.62,0,0,0-.67.7A2.21,2.21,0,0,0,361.13,197.06Z"/><path d="M372.23,193.76V195h-4.44v-1.27ZM369,191.82h1.58v7.68a1.42,1.42,0,0,0,.14.69.72.72,0,0,0,.36.31,1.42,1.42,0,0,0,.48.08,1.69,1.69,0,0,0,.33,0l.22,0,.29,1.3a2,2,0,0,1-.4.11,2.74,2.74,0,0,1-.63.06,2.64,2.64,0,0,1-1.16-.22,1.91,1.91,0,0,1-.87-.72,2,2,0,0,1-.34-1.22Z"/><path d="M374.77,192.51a1,1,0,0,1-.71-.28.88.88,0,0,1-.29-.66.92.92,0,0,1,.29-.67,1,1,0,0,1,.71-.28,1,1,0,0,1,.7.28.89.89,0,0,1,.3.67.85.85,0,0,1-.3.66A1,1,0,0,1,374.77,192.51Zm-.8,9.37v-8.12h1.58v8.12Z"/><path d="M888.48,183.28h-1.73l3.89-10.82h1.89l3.89,10.82h-1.73l-3.06-8.86h-.09Zm.29-4.24h5.62v1.37h-5.62Z"/><path d="M901.14,183.44a3.75,3.75,0,0,1-2-.53,3.49,3.49,0,0,1-1.3-1.49,4.83,4.83,0,0,1-.46-2.16,4.9,4.9,0,0,1,.47-2.19,3.49,3.49,0,0,1,1.31-1.48,3.59,3.59,0,0,1,2-.53,3.8,3.8,0,0,1,1.65.34,3,3,0,0,1,1.17.95,2.92,2.92,0,0,1,.53,1.43h-1.54a1.81,1.81,0,0,0-.58-1,1.68,1.68,0,0,0-1.2-.41,2,2,0,0,0-1.16.34,2.29,2.29,0,0,0-.77,1,3.79,3.79,0,0,0-.27,1.5,4,4,0,0,0,.27,1.53,2.23,2.23,0,0,0,.76,1,1.93,1.93,0,0,0,1.17.35,2,2,0,0,0,.81-.16,1.62,1.62,0,0,0,.62-.48,1.86,1.86,0,0,0,.35-.75h1.54a3.16,3.16,0,0,1-.51,1.41,3,3,0,0,1-1.15,1A3.82,3.82,0,0,1,901.14,183.44Z"/><path d="M909.59,183.44a3.75,3.75,0,0,1-2-.53,3.58,3.58,0,0,1-1.31-1.49,5,5,0,0,1-.45-2.16,4.9,4.9,0,0,1,.47-2.19,3.49,3.49,0,0,1,1.31-1.48,3.59,3.59,0,0,1,2-.53,3.84,3.84,0,0,1,1.65.34,3,3,0,0,1,1.17.95,3,3,0,0,1,.53,1.43h-1.54a1.81,1.81,0,0,0-.58-1,1.69,1.69,0,0,0-1.21-.41,2,2,0,0,0-1.15.34,2.22,2.22,0,0,0-.77,1,3.79,3.79,0,0,0-.27,1.5,4,4,0,0,0,.27,1.53,2.23,2.23,0,0,0,.76,1,1.92,1.92,0,0,0,1.16.35,2,2,0,0,0,.82-.16,1.62,1.62,0,0,0,.62-.48,1.86,1.86,0,0,0,.35-.75h1.54a3.16,3.16,0,0,1-.51,1.41,3,3,0,0,1-1.15,1A3.82,3.82,0,0,1,909.59,183.44Z"/><path d="M918.12,183.44a4,4,0,0,1-2.06-.51,3.42,3.42,0,0,1-1.33-1.46,4.89,4.89,0,0,1-.47-2.2,5,5,0,0,1,.47-2.2,3.49,3.49,0,0,1,3.28-2,4,4,0,0,1,1.33.22,3.14,3.14,0,0,1,1.16.72,3.35,3.35,0,0,1,.81,1.26,5.2,5.2,0,0,1,.29,1.88v.55h-6.45v-1.18h4.91a2.39,2.39,0,0,0-.26-1.11,1.92,1.92,0,0,0-.71-.76,2,2,0,0,0-1.07-.28,2,2,0,0,0-1.16.33,2.12,2.12,0,0,0-.76.84,2.41,2.41,0,0,0-.26,1.13v.92a3.08,3.08,0,0,0,.28,1.39,2,2,0,0,0,.81.87,2.36,2.36,0,0,0,1.21.3A2.66,2.66,0,0,0,919,182a1.9,1.9,0,0,0,.64-.39A1.76,1.76,0,0,0,920,181l1.49.27a2.67,2.67,0,0,1-.64,1.15,3.11,3.11,0,0,1-1.15.77A4.42,4.42,0,0,1,918.12,183.44Z"/><path d="M924.94,178.46v4.82h-1.58v-8.12h1.52v1.32h.1a2.32,2.32,0,0,1,.88-1,2.75,2.75,0,0,1,1.52-.39,3,3,0,0,1,1.45.34,2.42,2.42,0,0,1,1,1,3.84,3.84,0,0,1,.34,1.68v5.17h-1.58v-5a2,2,0,0,0-.46-1.39,1.65,1.65,0,0,0-1.26-.5,2,2,0,0,0-1,.24,1.68,1.68,0,0,0-.67.7A2.32,2.32,0,0,0,924.94,178.46Z"/><path d="M938.34,177.14l-1.44.26a1.69,1.69,0,0,0-.28-.53,1.42,1.42,0,0,0-.52-.4,1.82,1.82,0,0,0-.82-.16,2,2,0,0,0-1.12.3.89.89,0,0,0-.45.77.81.81,0,0,0,.3.65,2.47,2.47,0,0,0,1,.41l1.29.29a3.48,3.48,0,0,1,1.67.8,1.87,1.87,0,0,1,.55,1.4,2.13,2.13,0,0,1-.42,1.3,2.84,2.84,0,0,1-1.16.89,4.46,4.46,0,0,1-1.74.32,3.88,3.88,0,0,1-2.22-.58,2.48,2.48,0,0,1-1.06-1.66l1.53-.24a1.44,1.44,0,0,0,.59.9,1.93,1.93,0,0,0,1.15.31,2.13,2.13,0,0,0,1.25-.33.93.93,0,0,0,.46-.79.81.81,0,0,0-.28-.64,2,2,0,0,0-.87-.39l-1.37-.3a3.31,3.31,0,0,1-1.68-.83,2,2,0,0,1-.54-1.43,2,2,0,0,1,.4-1.26,2.65,2.65,0,0,1,1.11-.84,4.14,4.14,0,0,1,1.62-.3,3.4,3.4,0,0,1,2.08.56A2.75,2.75,0,0,1,938.34,177.14Z"/><path d="M941,173.91a1,1,0,0,1-.7-.28A.84.84,0,0,1,940,173a.87.87,0,0,1,.29-.67,1,1,0,0,1,.7-.28,1,1,0,0,1,.71.28.9.9,0,0,1,.29.67.88.88,0,0,1-.29.66A1,1,0,0,1,941,173.91Zm-.79,9.37v-8.12h1.58v8.12Z"/><path d="M947.35,183.44a3.69,3.69,0,0,1-2-.52,3.49,3.49,0,0,1-1.32-1.47,4.71,4.71,0,0,1-.47-2.19,4.8,4.8,0,0,1,.47-2.21,3.49,3.49,0,0,1,1.32-1.47,4.07,4.07,0,0,1,4,0,3.49,3.49,0,0,1,1.32,1.47,4.8,4.8,0,0,1,.47,2.21,4.71,4.71,0,0,1-.47,2.19,3.49,3.49,0,0,1-1.32,1.47A3.72,3.72,0,0,1,947.35,183.44Zm0-1.32a1.89,1.89,0,0,0,1.23-.4,2.17,2.17,0,0,0,.72-1,4.38,4.38,0,0,0,0-2.86,2.31,2.31,0,0,0-.72-1,1.89,1.89,0,0,0-1.23-.39,1.93,1.93,0,0,0-1.23.39,2.38,2.38,0,0,0-.72,1,4.38,4.38,0,0,0,0,2.86,2.25,2.25,0,0,0,.72,1A1.93,1.93,0,0,0,947.35,182.12Z"/><path d="M954.47,178.46v4.82h-1.58v-8.12h1.52v1.32h.1a2.32,2.32,0,0,1,.88-1,2.71,2.71,0,0,1,1.51-.39,3,3,0,0,1,1.46.34,2.4,2.4,0,0,1,1,1,3.7,3.7,0,0,1,.35,1.68v5.17h-1.58v-5a2,2,0,0,0-.46-1.39,1.66,1.66,0,0,0-1.27-.5,1.94,1.94,0,0,0-1,.24,1.68,1.68,0,0,0-.67.7A2.21,2.21,0,0,0,954.47,178.46Z"/><path d="M965.28,183.44a4,4,0,0,1-2.06-.51,3.51,3.51,0,0,1-1.34-1.46,4.89,4.89,0,0,1-.46-2.2,5,5,0,0,1,.46-2.2,3.49,3.49,0,0,1,3.29-2,4,4,0,0,1,1.33.22,3.14,3.14,0,0,1,1.16.72,3.35,3.35,0,0,1,.81,1.26,5.42,5.42,0,0,1,.29,1.88v.55h-6.45v-1.18h4.9a2.39,2.39,0,0,0-.25-1.11,1.93,1.93,0,0,0-1.78-1,2,2,0,0,0-1.16.33,2.12,2.12,0,0,0-.76.84,2.42,2.42,0,0,0-.27,1.13v.92a3.07,3.07,0,0,0,.29,1.39,2,2,0,0,0,.81.87,2.32,2.32,0,0,0,1.2.3,2.61,2.61,0,0,0,.82-.13,1.81,1.81,0,0,0,.64-.39,1.78,1.78,0,0,0,.42-.64l1.49.27a2.67,2.67,0,0,1-.64,1.15,3.06,3.06,0,0,1-1.16.77A4.33,4.33,0,0,1,965.28,183.44Z"/><path d="M887.44,201.88v-8.12H889v1.29h.09a2,2,0,0,1,.78-1,2.27,2.27,0,0,1,1.28-.38h.35l.32,0v1.51l-.34-.06a2.59,2.59,0,0,0-.48,0,2,2,0,0,0-1,.24,1.73,1.73,0,0,0-.69.65,1.76,1.76,0,0,0-.25.94v5Z"/><path d="M894,192.51a1,1,0,0,1-.7-.28.85.85,0,0,1-.3-.66.89.89,0,0,1,.3-.67,1,1,0,0,1,.7-.28,1,1,0,0,1,.71.28.92.92,0,0,1,.29.67.88.88,0,0,1-.29.66A1,1,0,0,1,894,192.51Zm-.8,9.37v-8.12h1.58v8.12Z"/><path d="M902.94,195.74l-1.43.26a1.93,1.93,0,0,0-.28-.53,1.51,1.51,0,0,0-.52-.4,1.85,1.85,0,0,0-.82-.16,2,2,0,0,0-1.12.3.89.89,0,0,0-.45.77.79.79,0,0,0,.3.65,2.4,2.4,0,0,0,1,.41l1.29.29a3.52,3.52,0,0,1,1.67.8,1.87,1.87,0,0,1,.55,1.4,2.13,2.13,0,0,1-.42,1.3,2.73,2.73,0,0,1-1.17.89,4.24,4.24,0,0,1-1.73.32,3.85,3.85,0,0,1-2.22-.58,2.43,2.43,0,0,1-1.06-1.66l1.53-.24a1.48,1.48,0,0,0,.58.91,2,2,0,0,0,1.16.3,2.09,2.09,0,0,0,1.24-.33.94.94,0,0,0,.47-.79.84.84,0,0,0-.29-.64,1.86,1.86,0,0,0-.86-.39l-1.37-.3a3.31,3.31,0,0,1-1.68-.83,2,2,0,0,1-.54-1.43,2,2,0,0,1,.4-1.26,2.65,2.65,0,0,1,1.11-.84,4.11,4.11,0,0,1,1.62-.3,3.42,3.42,0,0,1,2.07.56A2.65,2.65,0,0,1,902.94,195.74Z"/><path d="M908.25,202a3.81,3.81,0,0,1-2-.53,3.63,3.63,0,0,1-1.3-1.49,5,5,0,0,1-.45-2.16,4.9,4.9,0,0,1,.46-2.19,3.49,3.49,0,0,1,3.31-2,3.76,3.76,0,0,1,1.64.34,2.82,2.82,0,0,1,1.17.95,2.93,2.93,0,0,1,.54,1.43h-1.54a1.87,1.87,0,0,0-.58-1,1.74,1.74,0,0,0-1.21-.41,2,2,0,0,0-1.15.34,2.22,2.22,0,0,0-.77,1,3.79,3.79,0,0,0-.28,1.5,4,4,0,0,0,.27,1.53,2.25,2.25,0,0,0,.77,1,1.91,1.91,0,0,0,1.16.36,2,2,0,0,0,.82-.17,1.7,1.7,0,0,0,.62-.48,2,2,0,0,0,.35-.75h1.54a3,3,0,0,1-.52,1.41,2.93,2.93,0,0,1-1.14,1A3.85,3.85,0,0,1,908.25,202Z"/><path d="M915.64,202.06a3.32,3.32,0,0,1-1.39-.29,2.26,2.26,0,0,1-1-.84,2.37,2.37,0,0,1-.36-1.34,2.19,2.19,0,0,1,.27-1.14,1.91,1.91,0,0,1,.71-.7,3.86,3.86,0,0,1,1-.39,10.68,10.68,0,0,1,1.13-.2l1.19-.14a1.9,1.9,0,0,0,.66-.18.44.44,0,0,0,.2-.41v0a1.5,1.5,0,0,0-.38-1.08,1.62,1.62,0,0,0-1.16-.37,2,2,0,0,0-1.25.35,1.86,1.86,0,0,0-.64.78l-1.48-.34a2.9,2.9,0,0,1,.77-1.2,3.29,3.29,0,0,1,1.18-.67,4.93,4.93,0,0,1,1.4-.2,4.76,4.76,0,0,1,1,.11,3.18,3.18,0,0,1,1,.41,2.32,2.32,0,0,1,.78.86,2.94,2.94,0,0,1,.31,1.45v5.39h-1.54v-1.11H918a2.19,2.19,0,0,1-.46.6,2.31,2.31,0,0,1-.78.49A3.09,3.09,0,0,1,915.64,202.06Zm.35-1.27a2.32,2.32,0,0,0,1.12-.26,1.79,1.79,0,0,0,.71-.68,1.7,1.7,0,0,0,.25-.9v-1a.78.78,0,0,1-.32.16,4.07,4.07,0,0,1-.55.12l-.6.09-.49.07a4,4,0,0,0-.83.19,1.51,1.51,0,0,0-.61.4,1,1,0,0,0-.22.68,1,1,0,0,0,.43.88A1.91,1.91,0,0,0,916,200.79Z"/><path d="M923.33,191.06v10.82h-1.58V191.06Z"/><path d="M928.5,202a3.13,3.13,0,0,1-1.76-.51,3.31,3.31,0,0,1-1.2-1.44,6,6,0,0,1,0-4.51,3.38,3.38,0,0,1,1.22-1.43,3.14,3.14,0,0,1,1.75-.49,2.47,2.47,0,0,1,1.21.25,2.14,2.14,0,0,1,.72.58,4.41,4.41,0,0,1,.4.59h.1v-4h1.58v10.82H931v-1.26h-.13a3.77,3.77,0,0,1-.41.59,2.43,2.43,0,0,1-.73.58A2.61,2.61,0,0,1,928.5,202Zm.34-1.35a1.86,1.86,0,0,0,1.16-.36,2.32,2.32,0,0,0,.72-1,4.29,4.29,0,0,0,.24-1.5,4.18,4.18,0,0,0-.24-1.48,2.22,2.22,0,0,0-.71-1,1.93,1.93,0,0,0-1.17-.35,1.83,1.83,0,0,0-1.18.37,2.17,2.17,0,0,0-.72,1,4,4,0,0,0-.24,1.44,4.18,4.18,0,0,0,.24,1.46,2.24,2.24,0,0,0,.72,1A1.87,1.87,0,0,0,928.84,200.69Z"/><path d="M937.13,202.06a3.29,3.29,0,0,1-1.39-.29,2.26,2.26,0,0,1-1-.84,2.37,2.37,0,0,1-.36-1.34,2.29,2.29,0,0,1,.26-1.14,2.07,2.07,0,0,1,.71-.7,3.93,3.93,0,0,1,1-.39,10.68,10.68,0,0,1,1.13-.2l1.18-.14a1.77,1.77,0,0,0,.66-.18.45.45,0,0,0,.21-.41v0a1.46,1.46,0,0,0-.39-1.08,1.59,1.59,0,0,0-1.15-.37,2,2,0,0,0-1.26.35,1.91,1.91,0,0,0-.63.78l-1.48-.34a2.8,2.8,0,0,1,.77-1.2,3.21,3.21,0,0,1,1.18-.67,4.93,4.93,0,0,1,1.4-.2,4.82,4.82,0,0,1,1,.11,3.12,3.12,0,0,1,1,.41,2.44,2.44,0,0,1,.79.86,3.06,3.06,0,0,1,.31,1.45v5.39h-1.55v-1.11h-.06a2.41,2.41,0,0,1-.46.6,2.47,2.47,0,0,1-.79.49A3,3,0,0,1,937.13,202.06Zm.34-1.27a2.36,2.36,0,0,0,1.13-.26,1.81,1.81,0,0,0,1-1.58v-1a.84.84,0,0,1-.33.16,3.49,3.49,0,0,1-.55.12l-.59.09-.49.07a4,4,0,0,0-.84.19,1.54,1.54,0,0,0-.6.4,1,1,0,0,0-.22.68,1,1,0,0,0,.43.88A1.9,1.9,0,0,0,937.47,200.79Z"/><path d="M943.24,201.88v-8.12h1.51v1.32h.11a2.14,2.14,0,0,1,.82-1.05,2.5,2.5,0,0,1,1.38-.37,2.31,2.31,0,0,1,1.37.38,2.24,2.24,0,0,1,.82,1h.08a2.27,2.27,0,0,1,.93-1,2.89,2.89,0,0,1,1.51-.38,2.47,2.47,0,0,1,1.8.69,2.81,2.81,0,0,1,.7,2.09v5.44h-1.58v-5.3a1.45,1.45,0,0,0-.45-1.19,1.6,1.6,0,0,0-1.07-.37,1.57,1.57,0,0,0-1.2.47,1.73,1.73,0,0,0-.43,1.22v5.17H948v-5.4a1.43,1.43,0,0,0-.41-1.06,1.49,1.49,0,0,0-1.08-.4,1.56,1.56,0,0,0-.82.23,1.69,1.69,0,0,0-.61.66,2,2,0,0,0-.23,1v5Z"/><path d="M959.88,202a4,4,0,0,1-2.06-.51,3.42,3.42,0,0,1-1.33-1.46,4.86,4.86,0,0,1-.47-2.2,5,5,0,0,1,.47-2.2,3.62,3.62,0,0,1,1.31-1.48,3.57,3.57,0,0,1,2-.53,4,4,0,0,1,1.33.22,3.14,3.14,0,0,1,1.16.72,3.35,3.35,0,0,1,.81,1.26,5.18,5.18,0,0,1,.3,1.88v.56h-6.46v-1.19h4.91a2.32,2.32,0,0,0-.26-1.1,1.82,1.82,0,0,0-.71-.77,2,2,0,0,0-1.07-.28,2,2,0,0,0-1.16.33,2.12,2.12,0,0,0-.76.84,2.41,2.41,0,0,0-.26,1.13v.93a3.06,3.06,0,0,0,.28,1.38,2.07,2.07,0,0,0,.81.87,2.36,2.36,0,0,0,1.21.3,2.66,2.66,0,0,0,.82-.13,1.9,1.9,0,0,0,.64-.39,1.76,1.76,0,0,0,.41-.64l1.5.27a2.69,2.69,0,0,1-.65,1.15,3,3,0,0,1-1.15.77A4.38,4.38,0,0,1,959.88,202Z"/><path d="M966.71,197.06v4.82h-1.58v-8.12h1.51v1.32h.1a2.32,2.32,0,0,1,.88-1,2.75,2.75,0,0,1,1.52-.39,3,3,0,0,1,1.45.34,2.42,2.42,0,0,1,1,1,3.71,3.71,0,0,1,.34,1.69v5.16h-1.58v-5a2,2,0,0,0-.46-1.39,1.65,1.65,0,0,0-1.26-.5,2,2,0,0,0-1,.24,1.74,1.74,0,0,0-.67.7A2.32,2.32,0,0,0,966.71,197.06Z"/><path d="M977.8,193.76V195h-4.43v-1.27Zm-3.24-1.94h1.58v7.68a1.32,1.32,0,0,0,.14.69.74.74,0,0,0,.35.31,1.51,1.51,0,0,0,.48.08,1.55,1.55,0,0,0,.33,0l.23,0,.28,1.3a1.72,1.72,0,0,1-.39.11,2.84,2.84,0,0,1-.64.06,2.67,2.67,0,0,1-1.16-.22,1.91,1.91,0,0,1-.87-.72,2.11,2.11,0,0,1-.33-1.22Z"/><path d="M980.34,192.51a1,1,0,0,1-.7-.28.84.84,0,0,1-.29-.66.88.88,0,0,1,.29-.67,1,1,0,0,1,1.41,0,.88.88,0,0,1,.29.67.84.84,0,0,1-.29.66A1,1,0,0,1,980.34,192.51Zm-.79,9.37v-8.12h1.58v8.12Z"/><circle cx="287.67" cy="833.07" r="3.45"/><path d="M300.69,838.78V827.87h3.69a4.24,4.24,0,0,1,2.1.46,3,3,0,0,1,1.21,1.24,4.12,4.12,0,0,1,0,3.5,2.91,2.91,0,0,1-1.2,1.26,4.2,4.2,0,0,1-2.09.46h-2.64v-1.17h2.6a2.89,2.89,0,0,0,1.41-.3,1.82,1.82,0,0,0,.77-.83,2.86,2.86,0,0,0,0-2.34,1.7,1.7,0,0,0-.78-.81,2.92,2.92,0,0,0-1.43-.3H302v9.74Z"/><path d="M310.22,827.87h1.57l3.71,9h.13l3.7-9h1.58v10.91h-1.23v-8.29h-.11l-3.41,8.29H315l-3.41-8.29h-.11v8.29h-1.23Z"/><path d="M327.2,827.87v10.91h-1.32v-9.53h-.07L323.15,831v-1.34l2.73-1.81Z"/><path d="M333.89,838.93a3.21,3.21,0,0,1-2.05-.66,4.09,4.09,0,0,1-1.3-1.91,10.43,10.43,0,0,1,0-6.06,4.15,4.15,0,0,1,1.3-1.92,3.5,3.5,0,0,1,4.09,0,4.07,4.07,0,0,1,1.3,1.92,10.43,10.43,0,0,1,0,6.06,4.15,4.15,0,0,1-1.29,1.91A3.25,3.25,0,0,1,333.89,838.93Zm0-1.17a2.05,2.05,0,0,0,1.85-1.16,6.65,6.65,0,0,0,.66-3.28,8.43,8.43,0,0,0-.3-2.41,3.42,3.42,0,0,0-.86-1.52,1.92,1.92,0,0,0-1.35-.52A2.05,2.05,0,0,0,332,830a6.65,6.65,0,0,0-.67,3.29,8.38,8.38,0,0,0,.3,2.41,3.38,3.38,0,0,0,.86,1.51A2,2,0,0,0,333.89,837.76Z"/><path d="M340.09,833.92v-.85l6.86-3.5v1.37l-5.26,2.53,0-.08v.21l0-.09,5.26,2.54v1.36Z"/><path d="M353,838.93a3.72,3.72,0,0,1-1.69-.38,3.15,3.15,0,0,1-1.2-1,2.74,2.74,0,0,1-.5-1.48h1.28a1.73,1.73,0,0,0,.67,1.22,2.37,2.37,0,0,0,2.63.17,2.28,2.28,0,0,0,.83-.86,2.6,2.6,0,0,0,.3-1.25,2.55,2.55,0,0,0-.31-1.28,2.35,2.35,0,0,0-.85-.89,2.58,2.58,0,0,0-1.25-.33,3.71,3.71,0,0,0-1,.15,2.71,2.71,0,0,0-.87.41l-1.24-.15.66-5.37h5.67V829h-4.56l-.38,3.22h.06a2.56,2.56,0,0,1,.84-.44,3.15,3.15,0,0,1,1.06-.18,3.34,3.34,0,0,1,1.78.48,3.3,3.3,0,0,1,1.24,1.3,3.87,3.87,0,0,1,.45,1.88,3.74,3.74,0,0,1-.47,1.87,3.44,3.44,0,0,1-1.28,1.29A3.66,3.66,0,0,1,353,838.93Z"/><path d="M362.27,838.93a3.21,3.21,0,0,1-2-.66,4.09,4.09,0,0,1-1.3-1.91,10.43,10.43,0,0,1,0-6.06,4.15,4.15,0,0,1,1.3-1.92,3.5,3.5,0,0,1,4.09,0,4.07,4.07,0,0,1,1.3,1.92,10.43,10.43,0,0,1,0,6.06,4.15,4.15,0,0,1-1.29,1.91A3.25,3.25,0,0,1,362.27,838.93Zm0-1.17a2.05,2.05,0,0,0,1.85-1.16,6.65,6.65,0,0,0,.66-3.28,8.43,8.43,0,0,0-.3-2.41,3.42,3.42,0,0,0-.86-1.52,1.92,1.92,0,0,0-1.35-.52,2.05,2.05,0,0,0-1.85,1.16,6.76,6.76,0,0,0-.67,3.29,8.38,8.38,0,0,0,.3,2.41,3.38,3.38,0,0,0,.86,1.51A2,2,0,0,0,362.27,837.76Z"/><path d="M368,841.44v-9.75H369v4.19a2.07,2.07,0,0,0,.24,1,1.74,1.74,0,0,0,.69.68,2,2,0,0,0,1,.25,2.12,2.12,0,0,0,1-.25,1.71,1.71,0,0,0,.68-.68,2,2,0,0,0,.25-1v-4.19h1.09v7.09H373v-1.06h-.06a2,2,0,0,1-.8.86,2.23,2.23,0,0,1-2.2,0,2,2,0,0,1-.8-.86H369v3.72Z"/><path d="M378.9,841.58a4,4,0,0,1-1.36-.2,3,3,0,0,1-.94-.52,3,3,0,0,1-.6-.7l.87-.61c.1.13.22.28.37.45a2.06,2.06,0,0,0,.63.44,2.47,2.47,0,0,0,1,.18,2.3,2.3,0,0,0,1.42-.41,1.52,1.52,0,0,0,.56-1.3v-1.44h-.09a5.76,5.76,0,0,1-.34.47,2.07,2.07,0,0,1-.63.51,2.41,2.41,0,0,1-1.1.22,3,3,0,0,1-1.54-.41,2.82,2.82,0,0,1-1.08-1.18,4.18,4.18,0,0,1-.39-1.88,4.47,4.47,0,0,1,.38-1.9,3,3,0,0,1,1.07-1.26,2.79,2.79,0,0,1,1.58-.45,2.31,2.31,0,0,1,1.1.23,1.92,1.92,0,0,1,.62.52c.15.19.26.35.34.47h.11v-1.12H382V839a2.46,2.46,0,0,1-.42,1.49,2.38,2.38,0,0,1-1.1.84A4.27,4.27,0,0,1,378.9,841.58Zm0-3.89a2,2,0,0,0,1.1-.3,1.89,1.89,0,0,0,.69-.87,3.38,3.38,0,0,0,.24-1.34,3.84,3.84,0,0,0-.23-1.36,2.07,2.07,0,0,0-.69-.91,1.77,1.77,0,0,0-1.11-.34,1.88,1.88,0,0,0-1.16.35,2.15,2.15,0,0,0-.68,1,3.43,3.43,0,0,0-.23,1.31,3.31,3.31,0,0,0,.23,1.3,2.06,2.06,0,0,0,.69.89A2,2,0,0,0,378.87,837.69Z"/><path d="M387.3,828.88l-3,11.32h-1l3.05-11.32Z"/><path d="M388.6,838.78v-7.09h1v1.1h.09a1.84,1.84,0,0,1,.72-.88,2.15,2.15,0,0,1,1.18-.32,2,2,0,0,1,1.17.32,2.14,2.14,0,0,1,.74.88h.07a2.08,2.08,0,0,1,.82-.87,2.46,2.46,0,0,1,1.3-.33,2.11,2.11,0,0,1,1.56.6,2.48,2.48,0,0,1,.6,1.84v4.75h-1.09V834a1.33,1.33,0,0,0-.43-1.12,1.6,1.6,0,0,0-1-.34,1.51,1.51,0,0,0-1.16.45,1.64,1.64,0,0,0-.41,1.14v4.62h-1.1v-4.86a1.27,1.27,0,0,0-.4-1,1.44,1.44,0,0,0-1-.37,1.51,1.51,0,0,0-.79.23,1.76,1.76,0,0,0-.59.62,1.88,1.88,0,0,0-.22.93v4.43Z"/><path d="M401.33,834.52a2.4,2.4,0,0,1-.95-.18,1.58,1.58,0,0,1-.65-.51,1.28,1.28,0,0,1-.27-.76h.68a.75.75,0,0,0,.18.46,1.08,1.08,0,0,0,.42.3,1.57,1.57,0,0,0,.58.1,1.54,1.54,0,0,0,.63-.12.94.94,0,0,0,.43-.35.8.8,0,0,0,.16-.51.94.94,0,0,0-.15-.53,1,1,0,0,0-.44-.37,1.7,1.7,0,0,0-.71-.13h-.44v-.59h.44a1.26,1.26,0,0,0,.57-.12.87.87,0,0,0,.39-.34.84.84,0,0,0,.15-.5,1,1,0,0,0-.13-.49.78.78,0,0,0-.35-.32,1.09,1.09,0,0,0-.53-.12,1.36,1.36,0,0,0-.53.11,1,1,0,0,0-.41.29.78.78,0,0,0-.18.47h-.64a1.36,1.36,0,0,1,.26-.76,1.81,1.81,0,0,1,.64-.51,2.13,2.13,0,0,1,.88-.18,1.7,1.7,0,0,1,.87.21,1.45,1.45,0,0,1,.76,1.27,1.3,1.3,0,0,1-.24.79,1.26,1.26,0,0,1-.66.46v0a1.25,1.25,0,0,1,.81.44,1.32,1.32,0,0,1,.3.88,1.44,1.44,0,0,1-.25.81,1.65,1.65,0,0,1-.66.56A2.12,2.12,0,0,1,401.33,834.52Z"/><circle class="cls-4" cx="554.07" cy="833.07" r="3.45"/><path class="cls-4" d="M567.1,838.78V827.87h3.68a4.26,4.26,0,0,1,2.11.46,3,3,0,0,1,1.21,1.24,4.12,4.12,0,0,1,0,3.5,2.88,2.88,0,0,1-1.21,1.26,4.16,4.16,0,0,1-2.08.46h-2.65v-1.17h2.6a2.84,2.84,0,0,0,1.41-.3,1.79,1.79,0,0,0,.78-.83,3,3,0,0,0,0-2.34,1.7,1.7,0,0,0-.78-.81,3,3,0,0,0-1.43-.3h-2.32v9.74Z"/><path class="cls-4" d="M576.62,827.87h1.58l3.71,9H582l3.71-9h1.58v10.91h-1.24v-8.29H586l-3.41,8.29h-1.2L578,830.49h-.1v8.29h-1.24Z"/><path class="cls-4" d="M593.6,827.87v10.91h-1.32v-9.53h-.06L589.55,831v-1.34l2.73-1.81Z"/><path class="cls-4" d="M600.29,838.93a3.25,3.25,0,0,1-2-.66,4.15,4.15,0,0,1-1.29-1.91,10.43,10.43,0,0,1,0-6.06,4.07,4.07,0,0,1,1.3-1.92,3.5,3.5,0,0,1,4.09,0,4.15,4.15,0,0,1,1.3,1.92,10.43,10.43,0,0,1,0,6.06,4.09,4.09,0,0,1-1.3,1.91A3.21,3.21,0,0,1,600.29,838.93Zm0-1.17a2.05,2.05,0,0,0,1.86-1.16,6.65,6.65,0,0,0,.66-3.28,8.43,8.43,0,0,0-.3-2.41,3.34,3.34,0,0,0-.87-1.52,1.89,1.89,0,0,0-1.35-.52,2,2,0,0,0-1.84,1.16,6.65,6.65,0,0,0-.67,3.29,8.38,8.38,0,0,0,.3,2.41,3.29,3.29,0,0,0,.86,1.51A1.93,1.93,0,0,0,600.29,837.76Z"/><path class="cls-4" d="M613.35,833.92l-6.86,3.49v-1.36l5.27-2.54,0,.09v-.21l0,.08-5.27-2.53v-1.37l6.86,3.5Z"/><path class="cls-4" d="M619.41,838.93a3.72,3.72,0,0,1-1.69-.38,3.26,3.26,0,0,1-1.21-1,2.81,2.81,0,0,1-.49-1.48h1.28a1.73,1.73,0,0,0,.67,1.22,2.24,2.24,0,0,0,1.44.49,2.27,2.27,0,0,0,2-1.18,2.6,2.6,0,0,0,.3-1.25,2.66,2.66,0,0,0-.31-1.28,2.37,2.37,0,0,0-.86-.89,2.52,2.52,0,0,0-1.24-.33,3.77,3.77,0,0,0-1,.15,2.93,2.93,0,0,0-.87.41l-1.23-.15.66-5.37h5.67V829H618l-.39,3.22h.07a2.56,2.56,0,0,1,.84-.44,3.13,3.13,0,0,1,1-.18,3.38,3.38,0,0,1,3,1.78,3.87,3.87,0,0,1,.45,1.88,3.74,3.74,0,0,1-.47,1.87,3.52,3.52,0,0,1-1.28,1.29A3.66,3.66,0,0,1,619.41,838.93Z"/><path class="cls-4" d="M628.67,838.93a3.25,3.25,0,0,1-2-.66,4.15,4.15,0,0,1-1.29-1.91,10.43,10.43,0,0,1,0-6.06,4.07,4.07,0,0,1,1.3-1.92,3.5,3.5,0,0,1,4.09,0,4.15,4.15,0,0,1,1.3,1.92,10.43,10.43,0,0,1,0,6.06,4.09,4.09,0,0,1-1.3,1.91A3.21,3.21,0,0,1,628.67,838.93Zm0-1.17a2.05,2.05,0,0,0,1.86-1.16,6.65,6.65,0,0,0,.66-3.28,8.43,8.43,0,0,0-.3-2.41,3.34,3.34,0,0,0-.87-1.52,1.89,1.89,0,0,0-1.35-.52,2,2,0,0,0-1.84,1.16,6.65,6.65,0,0,0-.67,3.29,8.38,8.38,0,0,0,.3,2.41,3.29,3.29,0,0,0,.86,1.51A1.93,1.93,0,0,0,628.67,837.76Z"/><path class="cls-4" d="M634.36,841.44v-9.75h1.09v4.19a2.07,2.07,0,0,0,.24,1,1.71,1.71,0,0,0,.68.68,2.05,2.05,0,0,0,1,.25,2.15,2.15,0,0,0,1-.25,1.71,1.71,0,0,0,.68-.68,2.07,2.07,0,0,0,.24-1v-4.19h1.09v7.09h-1.09v-1.06h-.05a2,2,0,0,1-.8.86,2.25,2.25,0,0,1-2.21,0,2.08,2.08,0,0,1-.8-.86h0v3.72Z"/><path class="cls-4" d="M645.31,841.58a3.94,3.94,0,0,1-1.36-.2,2.91,2.91,0,0,1-.94-.52,3,3,0,0,1-.6-.7l.87-.61c.1.13.22.28.37.45a2,2,0,0,0,.62.44,2.56,2.56,0,0,0,1,.18,2.32,2.32,0,0,0,1.42-.41,1.52,1.52,0,0,0,.55-1.3v-1.44h-.09a4.05,4.05,0,0,1-.34.47,1.85,1.85,0,0,1-.63.51,2.38,2.38,0,0,1-1.1.22,3,3,0,0,1-1.54-.41,2.8,2.8,0,0,1-1.07-1.18,4.17,4.17,0,0,1-.4-1.88,4.33,4.33,0,0,1,.39-1.9,3,3,0,0,1,1.06-1.26,2.84,2.84,0,0,1,1.58-.45,2.28,2.28,0,0,1,1.1.23,1.87,1.87,0,0,1,.63.52c.15.19.26.35.34.47h.11v-1.12h1V839a2.46,2.46,0,0,1-.41,1.49,2.36,2.36,0,0,1-1.11.84A4.22,4.22,0,0,1,645.31,841.58Zm0-3.89a2,2,0,0,0,1.11-.3,1.89,1.89,0,0,0,.69-.87,3.57,3.57,0,0,0,.23-1.34,3.63,3.63,0,0,0-.23-1.36,2,2,0,0,0-.68-.91,1.78,1.78,0,0,0-1.12-.34,1.87,1.87,0,0,0-1.15.35,2.1,2.1,0,0,0-.69,1,3.64,3.64,0,0,0-.23,1.31,3.31,3.31,0,0,0,.24,1.3,1.92,1.92,0,0,0,.69.89A2,2,0,0,0,645.27,837.69Z"/><path class="cls-4" d="M653.71,828.88l-3.05,11.32h-1l3-11.32Z"/><path class="cls-4" d="M655,838.78v-7.09h1.06v1.1h.09a1.82,1.82,0,0,1,.71-.88,2.18,2.18,0,0,1,1.19-.32,2,2,0,0,1,1.17.32,2.11,2.11,0,0,1,.73.88H660a2.12,2.12,0,0,1,.81-.87,2.5,2.5,0,0,1,1.31-.33,2.14,2.14,0,0,1,1.56.6,2.48,2.48,0,0,1,.6,1.84v4.75h-1.09V834a1.33,1.33,0,0,0-.43-1.12,1.6,1.6,0,0,0-1-.34,1.5,1.5,0,0,0-1.16.45,1.64,1.64,0,0,0-.41,1.14v4.62H659.1v-4.86a1.3,1.3,0,0,0-.39-1,1.44,1.44,0,0,0-1-.37,1.48,1.48,0,0,0-.79.23,1.67,1.67,0,0,0-.59.62,1.89,1.89,0,0,0-.23.93v4.43Z"/><path class="cls-4" d="M667.74,834.52a2.4,2.4,0,0,1-1-.18,1.55,1.55,0,0,1-.66-.51,1.34,1.34,0,0,1-.26-.76h.68a.75.75,0,0,0,.18.46,1.08,1.08,0,0,0,.42.3,1.72,1.72,0,0,0,1.21,0,1,1,0,0,0,.43-.35A.86.86,0,0,0,669,833a.94.94,0,0,0-.15-.53,1,1,0,0,0-.45-.37,1.67,1.67,0,0,0-.71-.13h-.44v-.59h.44a1.34,1.34,0,0,0,.58-.12.87.87,0,0,0,.39-.34.92.92,0,0,0,.14-.5,1,1,0,0,0-.12-.49.78.78,0,0,0-.35-.32,1.12,1.12,0,0,0-.53-.12,1.41,1.41,0,0,0-.54.11,1.22,1.22,0,0,0-.41.29.84.84,0,0,0-.17.47H666a1.29,1.29,0,0,1,.26-.76,1.73,1.73,0,0,1,.64-.51,2.05,2.05,0,0,1,.87-.18,1.76,1.76,0,0,1,.88.21,1.39,1.39,0,0,1,.56.54,1.43,1.43,0,0,1,.2.73,1.24,1.24,0,0,1-.25.79,1.26,1.26,0,0,1-.66.46v0a1.3,1.3,0,0,1,.82.44,1.37,1.37,0,0,1,.29.88,1.43,1.43,0,0,1-.24.81,1.65,1.65,0,0,1-.66.56A2.12,2.12,0,0,1,667.74,834.52Z"/><g class="cls-5"><circle class="cls-4" cx="826.78" cy="833.07" r="9.75"/></g><circle class="cls-4" cx="826.78" cy="833.07" r="3.45"/><path d="M839.78,838.78V827.87h6.58V829H841.1v3.69H846v1.17H841.1v3.71h5.35v1.17Z"/><path d="M849.2,827.87l3.24,9.18h.12l3.24-9.18h1.39l-4,10.91h-1.36l-4-10.91Z"/><path d="M858.89,838.78V827.87h6.59V829h-5.27v3.69h4.92v1.17h-4.92v3.71h5.35v1.17Z"/><path d="M876.51,827.87v10.91h-1.28l-5.94-8.57h-.11v8.57h-1.32V827.87h1.28l6,8.59h.1v-8.59Z"/><path d="M878.56,829v-1.17h8.18V829h-3.43v9.74H882V829Z"/><path d="M897.54,833.32a6.76,6.76,0,0,1-.62,3,4.83,4.83,0,0,1-1.71,1.94,4.88,4.88,0,0,1-5,0,4.83,4.83,0,0,1-1.71-1.94,7.5,7.5,0,0,1,0-6,4.77,4.77,0,0,1,1.71-1.94,4.88,4.88,0,0,1,5,0,4.77,4.77,0,0,1,1.71,1.94A6.72,6.72,0,0,1,897.54,833.32Zm-1.28,0a5.39,5.39,0,0,0-.47-2.39,3.41,3.41,0,0,0-1.27-1.47,3.24,3.24,0,0,0-1.79-.5,3.3,3.3,0,0,0-1.8.5,3.48,3.48,0,0,0-1.27,1.47,6.34,6.34,0,0,0,0,4.79,3.54,3.54,0,0,0,1.27,1.47,3.39,3.39,0,0,0,1.8.5,3.33,3.33,0,0,0,1.79-.5,3.47,3.47,0,0,0,1.27-1.47A5.44,5.44,0,0,0,896.26,833.32Z"/></svg>