<svg id="Livello_1" data-name="Livello 1" xmlns="http://www.w3.org/2000/svg" viewBox="0 0 1175.99 901"><defs><style>.cls-1{isolation:isolate;}.cls-2{fill:#b8b8b8;}.cls-3{fill:#efefef;}.cls-4{fill:#ff3a00;}.cls-5{fill:#a8f9ff;}</style></defs><g class="cls-1"><path d="M206.9,774.12h6.79v1.19h-5.42V779h4.29v1.19h-4.29v4.17H206.9Z"/><path d="M215.48,774.12h6.9v1.19h-5.54v3.25h4.41v1.19h-4.41v3.42h5.66v1.19h-7Z"/><path d="M224.52,774.12h4.23c2.21,0,3.27,1,3.27,2.68a2.16,2.16,0,0,1-1.61,2.14V779a2.32,2.32,0,0,1,2,2.32c0,1.75-1.18,3-3.39,3h-4.53Zm1.37,1.19v3.16h2.86a1.67,1.67,0,0,0,1.9-1.68c0-.89-.53-1.48-1.9-1.48Zm0,4.35v3.51h3.16a1.77,1.77,0,0,0,2-1.83c0-1-.66-1.68-2-1.68Z"/></g><g class="cls-1"><path d="M132.34,782.87h-.05a3.6,3.6,0,0,1-3.34,1.67A5.3,5.3,0,0,1,129,774a4.29,4.29,0,0,1,4.47,3.21H132a2.9,2.9,0,0,0-3-2c-2.21,0-3.63,1.72-3.63,4s1.48,4,3.58,4c1.71,0,3.27-1,3.27-2.86v-.3H129v-1.19h4.47v5.42h-.89Z"/><path d="M135.91,774.12h6.9v1.19h-5.53v3.25h4.4v1.19h-4.4v3.42h5.65v1.19h-7Z"/><path d="M145,774.12h1.31L152,782H152l-.06-7.92h1.37v10.24H152l-5.65-7.86h-.06l.06,7.86H145Z"/></g><g class="cls-1"><path d="M284.71,774.12h1.67l3.76,8.4h0l3.71-8.4h1.66v10.24h-1.36l.11-8.09h-.05l-3.58,8.09h-1.07L286,776.44H286l.12,7.92h-1.37Z"/><path d="M300.84,774.12h1.61l3.81,10.24h-1.43l-1-2.68h-4.49l-1,2.68H297Zm.75,1.43-1.79,4.94h3.63l-1.78-4.94Z"/><path d="M307.75,774.12h3.87c2.33,0,3.57,1.12,3.57,3a2.94,2.94,0,0,1-2.25,3.05l2.6,4.15h-1.48l-2.55-4h-2.39v4h-1.37Zm1.37,1.19v3.87h2.56a1.94,1.94,0,0,0,2.14-2c0-1.13-.78-1.85-2.14-1.85Z"/></g><g class="cls-1"><path d="M372.51,774.12h1.61l3.8,10.24H376.5l-1-2.68H371l-1,2.68H368.7Zm.74,1.43-1.78,4.94h3.63l-1.79-4.94Z"/><path d="M379.41,774.12h3.87c2.34,0,3.63,1.36,3.63,3.28a3.3,3.3,0,0,1-3.63,3.39h-2.5v3.57h-1.37Zm1.37,1.19v4.29h2.56a2.06,2.06,0,0,0,2.2-2.2,2,2,0,0,0-2.2-2.09Z"/><path d="M388.88,774.12h3.87c2.33,0,3.57,1.12,3.57,3a2.94,2.94,0,0,1-2.25,3.05l2.6,4.15h-1.48l-2.55-4h-2.39v4h-1.37Zm1.37,1.19v3.87h2.56a1.94,1.94,0,0,0,2.14-2c0-1.13-.78-1.85-2.14-1.85Z"/></g><g class="cls-1"><path d="M450.31,774.12H452l3.77,8.4h0l3.7-8.4h1.67v10.24h-1.37l.12-8.09h-.06l-3.57,8.09h-1.07l-3.57-7.92h-.06l.12,7.92h-1.37Z"/><path d="M466.44,774.12H468l3.81,10.24h-1.43l-1-2.68H465l-1,2.68h-1.37Zm.74,1.43-1.79,4.94H469l-1.79-4.94Z"/><path d="M480.78,782.87h0a3.6,3.6,0,0,1-3.35,1.67,5.3,5.3,0,0,1,.06-10.59,4.28,4.28,0,0,1,4.46,3.21h-1.43a2.89,2.89,0,0,0-3-2c-2.22,0-3.63,1.72-3.63,4s1.47,4,3.57,4c1.71,0,3.27-1,3.27-2.86v-.3h-3.21v-1.19h4.46v5.42H481Z"/></g><g class="cls-1"><path d="M545.36,782.87h0a3.6,3.6,0,0,1-3.35,1.67A5.3,5.3,0,0,1,542,774a4.28,4.28,0,0,1,4.46,3.21h-1.42a2.91,2.91,0,0,0-3-2c-2.22,0-3.63,1.72-3.63,4s1.47,4,3.57,4c1.71,0,3.27-1,3.27-2.86v-.3H542v-1.19h4.46v5.42h-.89Z"/><path d="M548.94,774.12h1.36v10.24h-1.36Z"/><path d="M552.69,774.12h1.36v6.19c0,1.88.88,3,2.74,3s2.74-1.1,2.74-3v-6.19h1.37v6.19c0,3-1.68,4.23-4.11,4.23s-4.1-1.19-4.1-4.23Z"/></g><g class="cls-1"><path d="M618.76,774.12h1.36v9h5v1.19h-6.36Z"/><path d="M626.37,774.12h1.37v6.19c0,1.88.88,3,2.74,3s2.74-1.1,2.74-3v-6.19h1.37v6.19c0,3-1.68,4.23-4.11,4.23s-4.11-1.19-4.11-4.23Z"/><path d="M644.83,782.87h-.05a3.6,3.6,0,0,1-3.35,1.67,5.3,5.3,0,0,1,.06-10.59,4.29,4.29,0,0,1,4.47,3.21h-1.43a2.91,2.91,0,0,0-3-2c-2.21,0-3.63,1.72-3.63,4s1.48,4,3.57,4c1.71,0,3.28-1,3.28-2.86v-.3h-3.22v-1.19H646v5.42h-.9Z"/></g><g class="cls-1"><path d="M704.79,774.12h1.61l3.81,10.24h-1.43l-1-2.68h-4.49l-1,2.68H701Zm.75,1.43-1.79,4.94h3.63l-1.78-4.94Z"/><path d="M719.14,782.87h0a3.6,3.6,0,0,1-3.35,1.67A5.3,5.3,0,0,1,715.8,774a4.3,4.3,0,0,1,4.47,3.21h-1.43a2.91,2.91,0,0,0-3-2c-2.21,0-3.63,1.72-3.63,4s1.48,4,3.57,4c1.71,0,3.28-1,3.28-2.86v-.3H715.8v-1.19h4.47v5.42h-.9Z"/><path d="M727.05,774a5.3,5.3,0,0,1,0,10.59c-3,0-5-2.25-5-5.3S724.06,774,727.05,774Zm0,9.34c2.16,0,3.57-1.73,3.57-4s-1.41-4-3.57-4-3.57,1.72-3.57,4S724.9,783.29,727.05,783.29Z"/></g><g class="cls-1"><path d="M788.33,781.44c0,1.12,1,2,2.56,2s2.62-.7,2.62-1.91c0-2.7-6.4-.65-6.4-4.58,0-1.74,1.51-3,3.78-3s3.75,1.08,3.75,2.91h-1.37c0-1.13-1-1.78-2.38-1.78s-2.38.58-2.38,1.72c0,2.68,6.43.57,6.43,4.64,0,1.85-1.49,3.1-4.05,3.1s-3.93-1.25-3.93-3.1Z"/><path d="M797.08,774.12H804v1.19h-5.54v3.25h4.41v1.19h-4.41v3.42h5.66v1.19h-7Z"/><path d="M805,774.12h8.51v1.16h-3.57v9.08h-1.37v-9.08H805Z"/></g><g class="cls-1"><path d="M874.52,774a5.3,5.3,0,0,1,0,10.59c-3,0-5-2.25-5-5.3S871.53,774,874.52,774Zm0,9.34c2.16,0,3.57-1.73,3.57-4s-1.41-4-3.57-4-3.57,1.72-3.57,4S872.37,783.29,874.52,783.29Z"/><path d="M879.76,774.12h8.51v1.16H884.7v9.08h-1.37v-9.08h-3.57Z"/><path d="M888.51,774.12H897v1.16h-3.57v9.08h-1.37v-9.08h-3.57Z"/></g><g class="cls-1"><path d="M951.84,774.12h1.31l5.66,7.92h.06l-.06-7.92h1.36v10.24h-1.3l-5.66-7.86h-.06l.06,7.86h-1.37Z"/><path d="M967.14,774a5.3,5.3,0,0,1,0,10.59c-3,0-5-2.25-5-5.3S964.15,774,967.14,774Zm0,9.34c2.16,0,3.57-1.73,3.57-4s-1.41-4-3.57-4-3.57,1.72-3.57,4S965,783.29,967.14,783.29Z"/><path d="M972.62,774.12H974l3.07,8.81h.06l3.06-8.81h1.37l-3.75,10.24h-1.51Z"/></g><g class="cls-1"><path d="M1036.67,774.12h3.15c3.53,0,5.36,2.13,5.36,5.12s-1.83,5.12-5.36,5.12h-3.15Zm1.37,1.19v7.86h1.78a3.93,3.93,0,0,0,0-7.86Z"/><path d="M1047.15,774.12h1.37v10.24h-1.37Z"/><path d="M1055.42,774a4.13,4.13,0,0,1,4.34,3.39h-1.41a2.75,2.75,0,0,0-2.93-2.14c-2.1,0-3.51,1.66-3.51,4s1.41,4,3.45,4a2.74,2.74,0,0,0,3-2.14h1.41a4.2,4.2,0,0,1-4.4,3.39c-2.87,0-4.88-2.19-4.88-5.3S1052.49,774,1055.42,774Z"/></g><g class="cls-1"><path class="cls-2" d="M68.4,761.3c0-3,1-5.29,3.57-5.29s3.57,2.32,3.57,5.29-1,5.3-3.57,5.3S68.4,764.28,68.4,761.3Zm5.77,0c0-2.62-.71-4.1-2.2-4.1s-2.2,1.48-2.2,4.1.71,4.11,2.2,4.11S74.17,763.92,74.17,761.3Z"/></g><g class="cls-1"><path class="cls-2" d="M60.19,700.16l3.27-2.26h1V707h2.44v1.13H60.54V707h2.62v-7.49l-2.38,1.65Z"/><path class="cls-2" d="M68.4,703c0-3,1-5.3,3.57-5.3s3.57,2.32,3.57,5.3-1,5.3-3.57,5.3S68.4,706,68.4,703Zm5.77,0c0-2.62-.71-4.11-2.2-4.11s-2.2,1.49-2.2,4.11.71,4.11,2.2,4.11S74.17,705.64,74.17,703Z"/></g><g class="cls-1"><path class="cls-2" d="M62.63,645.45l1.13-.77c1.05-.73,1.72-1.13,1.72-2.32a1.75,1.75,0,0,0-1.9-1.79c-1.31,0-2,.72-2.08,2.09H60.31a3,3,0,0,1,3.27-3.22,2.89,2.89,0,0,1,3.21,2.92c0,1.78-1.14,2.42-2.2,3.15l-1.13.78c-1.55,1.05-1.79,1.8-1.84,2.44h5.29v1.13H60.13A4.83,4.83,0,0,1,62.63,645.45Z"/><path class="cls-2" d="M68.4,644.74c0-3,1-5.3,3.57-5.3s3.57,2.32,3.57,5.3S74.53,650,72,650,68.4,647.71,68.4,644.74Zm5.77,0c0-2.62-.71-4.11-2.2-4.11s-2.2,1.49-2.2,4.11.71,4.1,2.2,4.1S74.17,647.36,74.17,644.74Z"/></g><g class="cls-1"><path class="cls-2" d="M61.26,588.48a2,2,0,0,0,2.2,2.14c1.28,0,2.2-.68,2.2-1.89a2,2,0,0,0-2.2-1.89h-.77v-1.13h.77a1.76,1.76,0,0,0,1.84-1.77,1.67,1.67,0,0,0-1.84-1.65,1.7,1.7,0,0,0-1.84,1.84h-1.2a3.07,3.07,0,0,1,6.13-.2,2.61,2.61,0,0,1-1.48,2.29v.06a2.62,2.62,0,0,1,1.9,2.56c0,1.83-1.56,2.91-3.51,2.91S60,590.68,60,588.48Z"/><path class="cls-2" d="M68.4,586.45c0-3,1-5.29,3.57-5.29s3.57,2.32,3.57,5.29-1,5.3-3.57,5.3S68.4,589.43,68.4,586.45Zm5.77,0c0-2.61-.71-4.1-2.2-4.1s-2.2,1.49-2.2,4.1.71,4.11,2.2,4.11S74.17,589.07,74.17,586.45Z"/></g><g class="cls-1"><path class="cls-2" d="M59.77,529.78l4.94-6.72h1.07v6.54h1.49v1.13H65.78v2.56H64.47v-2.56h-4.7Zm4.7-.18v-4.51l-3.36,4.51Z"/><path class="cls-2" d="M68.4,528.17c0-3,1-5.29,3.57-5.29s3.57,2.32,3.57,5.29-1,5.3-3.57,5.3S68.4,531.15,68.4,528.17Zm5.77,0c0-2.61-.71-4.1-2.2-4.1s-2.2,1.49-2.2,4.1.71,4.11,2.2,4.11S74.17,530.79,74.17,528.17Z"/></g><g class="cls-1"><path class="cls-2" d="M61.32,472.27a2,2,0,0,0,2.2,1.79,2.23,2.23,0,0,0,0-4.46,2.46,2.46,0,0,0-2,1l-1.19-.06.29-5.78h5.78V466H61.85l-.18,3.22h.06a2.7,2.7,0,0,1,2-.72A3.16,3.16,0,0,1,67,471.74a3.32,3.32,0,0,1-3.51,3.45A3.17,3.17,0,0,1,60,472.27Z"/><path class="cls-2" d="M68.4,469.89c0-3,1-5.29,3.57-5.29s3.57,2.32,3.57,5.29-1,5.3-3.57,5.3S68.4,472.87,68.4,469.89Zm5.77,0c0-2.62-.71-4.1-2.2-4.1s-2.2,1.48-2.2,4.1S70.48,474,72,474,74.17,472.51,74.17,469.89Z"/></g><g class="cls-1"><path class="cls-2" d="M63.88,406.31A2.83,2.83,0,0,1,67,409.05H65.66a1.64,1.64,0,0,0-1.78-1.6c-1.21,0-2.43,1.05-2.5,4.09A2.93,2.93,0,0,1,64,410.18a3.1,3.1,0,0,1,3.21,3.34,3.31,3.31,0,0,1-3.45,3.39c-2,0-3.75-1.3-3.75-5.06C60,407.73,61.93,406.31,63.88,406.31Zm-2.32,7.22a2.14,2.14,0,0,0,2.14,2.25,2.24,2.24,0,0,0,.12-4.47A2.2,2.2,0,0,0,61.56,413.53Z"/><path class="cls-2" d="M68.4,411.61c0-3,1-5.3,3.57-5.3s3.57,2.33,3.57,5.3-1,5.3-3.57,5.3S68.4,414.59,68.4,411.61Zm5.77,0c0-2.62-.71-4.1-2.2-4.1s-2.2,1.48-2.2,4.1.71,4.11,2.2,4.11S74.17,414.23,74.17,411.61Z"/></g><g class="cls-1"><path class="cls-2" d="M65.66,349.4H60.07v-1.19h7v1l-4.34,9.29H61.38Z"/><path class="cls-2" d="M68.4,353.33c0-3,1-5.3,3.57-5.3s3.57,2.32,3.57,5.3-1,5.3-3.57,5.3S68.4,356.3,68.4,353.33Zm5.77,0c0-2.62-.71-4.11-2.2-4.11s-2.2,1.49-2.2,4.11.71,4.11,2.2,4.11S74.17,356,74.17,353.33Z"/></g><g class="cls-1"><path class="cls-2" d="M61.85,294.87v-.06a2.49,2.49,0,0,1-1.48-2.29c0-1.61,1.21-2.77,3.15-2.77s3.15,1.16,3.15,2.77a2.49,2.49,0,0,1-1.48,2.29v.06a2.62,2.62,0,0,1,1.9,2.56c0,1.83-1.44,2.91-3.57,2.91S60,299.26,60,297.43A2.62,2.62,0,0,1,61.85,294.87Zm1.67,4.34c1.32,0,2.26-.68,2.26-1.89a2.3,2.3,0,0,0-4.52,0C61.26,298.53,62.2,299.21,63.52,299.21Zm1.9-6.68a1.91,1.91,0,0,0-3.8,0,1.9,1.9,0,0,0,3.8,0Z"/><path class="cls-2" d="M68.4,295.05c0-3,1-5.3,3.57-5.3s3.57,2.32,3.57,5.3-1,5.29-3.57,5.29S68.4,298,68.4,295.05Zm5.77,0c0-2.62-.71-4.11-2.2-4.11s-2.2,1.49-2.2,4.11.71,4.1,2.2,4.1S74.17,297.66,74.17,295.05Z"/></g><g class="cls-1"><path class="cls-2" d="M63.28,242.06a2.94,2.94,0,0,1-3.21-2.74h1.31a1.79,1.79,0,0,0,1.9,1.61c1.38,0,2.32-1.06,2.38-4.08A3,3,0,0,1,63,238.19a3.09,3.09,0,0,1-3.21-3.33,3.3,3.3,0,0,1,3.45-3.39c2,0,3.75,1.29,3.75,5.06C67,240.65,65.41,242.06,63.28,242.06Zm2.2-7.21a2.17,2.17,0,1,0-4.34,0,2.1,2.1,0,0,0,2.08,2.2A2.19,2.19,0,0,0,65.48,234.85Z"/><path class="cls-2" d="M68.4,236.76c0-3,1-5.29,3.57-5.29s3.57,2.32,3.57,5.29-1,5.3-3.57,5.3S68.4,239.74,68.4,236.76Zm5.77,0c0-2.61-.71-4.1-2.2-4.1s-2.2,1.49-2.2,4.1.71,4.11,2.2,4.11S74.17,239.38,74.17,236.76Z"/></g><g class="cls-1"><path class="cls-2" d="M51.73,175.63,55,173.36h1v9.11h2.44v1.13H52.09v-1.13h2.62V175l-2.38,1.65Z"/><path class="cls-2" d="M60,178.48c0-3,1-5.29,3.57-5.29s3.57,2.32,3.57,5.29-1,5.3-3.57,5.3S60,181.46,60,178.48Zm5.77,0c0-2.62-.71-4.1-2.2-4.1s-2.2,1.48-2.2,4.1.71,4.11,2.2,4.11S65.72,181.1,65.72,178.48Z"/><path class="cls-2" d="M68.4,178.48c0-3,1-5.29,3.57-5.29s3.57,2.32,3.57,5.29-1,5.3-3.57,5.3S68.4,181.46,68.4,178.48Zm5.77,0c0-2.62-.71-4.1-2.2-4.1s-2.2,1.48-2.2,4.1.71,4.11,2.2,4.11S74.17,181.1,74.17,178.48Z"/></g><g class="cls-1"><path d="M1107.73,761.3c0-3,1-5.29,3.57-5.29s3.57,2.32,3.57,5.29-1,5.3-3.57,5.3S1107.73,764.28,1107.73,761.3Zm5.77,0c0-2.62-.71-4.1-2.2-4.1s-2.2,1.48-2.2,4.1.71,4.11,2.2,4.11S1113.5,763.92,1113.5,761.3Z"/></g><g class="cls-1"><path d="M1108,700.16l3.27-2.26h1V707h2.44v1.13h-6.36V707h2.61v-7.49l-2.38,1.65Z"/><path d="M1116.18,703c0-3,1-5.3,3.57-5.3s3.57,2.32,3.57,5.3-1,5.3-3.57,5.3S1116.18,706,1116.18,703Zm5.77,0c0-2.62-.71-4.11-2.2-4.11s-2.2,1.49-2.2,4.11.72,4.11,2.2,4.11S1122,705.64,1122,703Z"/></g><g class="cls-1"><path d="M1110.41,645.45l1.13-.77c1.06-.73,1.72-1.13,1.72-2.32a1.75,1.75,0,0,0-1.9-1.79c-1.31,0-2,.72-2.08,2.09h-1.19a3,3,0,0,1,3.27-3.22,2.89,2.89,0,0,1,3.21,2.92c0,1.78-1.14,2.42-2.2,3.15l-1.13.78c-1.55,1.05-1.78,1.8-1.84,2.44h5.29v1.13h-6.78A4.85,4.85,0,0,1,1110.41,645.45Z"/><path d="M1116.18,644.74c0-3,1-5.3,3.57-5.3s3.57,2.32,3.57,5.3-1,5.29-3.57,5.29S1116.18,647.71,1116.18,644.74Zm5.77,0c0-2.62-.71-4.11-2.2-4.11s-2.2,1.49-2.2,4.11.72,4.1,2.2,4.1S1122,647.36,1122,644.74Z"/></g><g class="cls-1"><path d="M1109,588.48a2,2,0,0,0,2.2,2.14c1.28,0,2.2-.68,2.2-1.89a2,2,0,0,0-2.2-1.89h-.77v-1.13h.77a1.77,1.77,0,0,0,1.85-1.77,1.67,1.67,0,0,0-1.85-1.65,1.7,1.7,0,0,0-1.84,1.84h-1.19a3.07,3.07,0,0,1,6.13-.2,2.62,2.62,0,0,1-1.49,2.29v.06a2.62,2.62,0,0,1,1.9,2.56c0,1.83-1.56,2.91-3.51,2.91s-3.45-1.07-3.45-3.27Z"/><path d="M1116.18,586.45c0-3,1-5.29,3.57-5.29s3.57,2.32,3.57,5.29-1,5.3-3.57,5.3S1116.18,589.43,1116.18,586.45Zm5.77,0c0-2.61-.71-4.1-2.2-4.1s-2.2,1.49-2.2,4.1.72,4.11,2.2,4.11S1122,589.07,1122,586.45Z"/></g><g class="cls-1"><path d="M1107.55,529.78l4.94-6.72h1.07v6.54h1.49v1.13h-1.49v2.56h-1.31v-2.56h-4.7Zm4.7-.18v-4.51l-3.36,4.51Z"/><path d="M1116.18,528.17c0-3,1-5.29,3.57-5.29s3.57,2.32,3.57,5.29-1,5.3-3.57,5.3S1116.18,531.15,1116.18,528.17Zm5.77,0c0-2.61-.71-4.1-2.2-4.1s-2.2,1.49-2.2,4.1.72,4.11,2.2,4.11S1122,530.79,1122,528.17Z"/></g><g class="cls-1"><path d="M1109.1,472.27a2,2,0,0,0,2.2,1.79,2.23,2.23,0,0,0,0-4.46,2.46,2.46,0,0,0-2,1l-1.19-.06.29-5.78h5.78V466h-4.59l-.17,3.22h.06a2.67,2.67,0,0,1,2-.72,3.16,3.16,0,0,1,3.33,3.28,3.32,3.32,0,0,1-3.51,3.45,3.17,3.17,0,0,1-3.51-2.92Z"/><path d="M1116.18,469.89c0-3,1-5.29,3.57-5.29s3.57,2.32,3.57,5.29-1,5.3-3.57,5.3S1116.18,472.87,1116.18,469.89Zm5.77,0c0-2.62-.71-4.1-2.2-4.1s-2.2,1.48-2.2,4.1.72,4.11,2.2,4.11S1122,472.51,1122,469.89Z"/></g><g class="cls-1"><path d="M1111.66,406.31a2.83,2.83,0,0,1,3.09,2.74h-1.31a1.64,1.64,0,0,0-1.78-1.6c-1.21,0-2.43,1.05-2.5,4.09a3,3,0,0,1,2.62-1.36,3.1,3.1,0,0,1,3.21,3.34,3.31,3.31,0,0,1-3.45,3.39c-2,0-3.75-1.3-3.75-5.06C1107.79,407.73,1109.71,406.31,1111.66,406.31Zm-2.32,7.22a2.14,2.14,0,0,0,2.14,2.25,2.24,2.24,0,0,0,.12-4.47A2.2,2.2,0,0,0,1109.34,413.53Z"/><path d="M1116.18,411.61c0-3,1-5.3,3.57-5.3s3.57,2.33,3.57,5.3-1,5.3-3.57,5.3S1116.18,414.59,1116.18,411.61Zm5.77,0c0-2.62-.71-4.1-2.2-4.1s-2.2,1.48-2.2,4.1.72,4.11,2.2,4.11S1122,414.23,1122,411.61Z"/></g><g class="cls-1"><path d="M1113.44,349.4h-5.59v-1.19h7v1l-4.34,9.29h-1.37Z"/><path d="M1116.18,353.33c0-3,1-5.3,3.57-5.3s3.57,2.32,3.57,5.3-1,5.3-3.57,5.3S1116.18,356.3,1116.18,353.33Zm5.77,0c0-2.62-.71-4.11-2.2-4.11s-2.2,1.49-2.2,4.11.72,4.11,2.2,4.11S1122,356,1122,353.33Z"/></g><g class="cls-1"><path d="M1109.63,294.87v-.06a2.49,2.49,0,0,1-1.48-2.29c0-1.61,1.22-2.77,3.15-2.77s3.15,1.16,3.15,2.77a2.49,2.49,0,0,1-1.48,2.29v.06a2.62,2.62,0,0,1,1.9,2.56c0,1.83-1.44,2.91-3.57,2.91s-3.57-1.08-3.57-2.91A2.62,2.62,0,0,1,1109.63,294.87Zm1.67,4.34c1.32,0,2.26-.68,2.26-1.89a2.3,2.3,0,0,0-4.52,0C1109,298.53,1110,299.21,1111.3,299.21Zm1.9-6.68a1.91,1.91,0,0,0-3.8,0,1.9,1.9,0,0,0,3.8,0Z"/><path d="M1116.18,295.05c0-3,1-5.3,3.57-5.3s3.57,2.32,3.57,5.3-1,5.29-3.57,5.29S1116.18,298,1116.18,295.05Zm5.77,0c0-2.62-.71-4.11-2.2-4.11s-2.2,1.49-2.2,4.11.72,4.1,2.2,4.1S1122,297.66,1122,295.05Z"/></g><g class="cls-1"><path d="M1111.06,242.06a2.94,2.94,0,0,1-3.21-2.74h1.31a1.79,1.79,0,0,0,1.9,1.61c1.39,0,2.32-1.06,2.38-4.08a3,3,0,0,1-2.62,1.34,3.09,3.09,0,0,1-3.21-3.33,3.3,3.3,0,0,1,3.45-3.39c2,0,3.75,1.29,3.75,5.06C1114.81,240.65,1113.19,242.06,1111.06,242.06Zm2.2-7.21a2.17,2.17,0,1,0-4.34,0,2.1,2.1,0,0,0,2.08,2.2A2.19,2.19,0,0,0,1113.26,234.85Z"/><path d="M1116.18,236.76c0-3,1-5.29,3.57-5.29s3.57,2.32,3.57,5.29-1,5.3-3.57,5.3S1116.18,239.74,1116.18,236.76Zm5.77,0c0-2.61-.71-4.1-2.2-4.1s-2.2,1.49-2.2,4.1.72,4.11,2.2,4.11S1122,239.38,1122,236.76Z"/></g><g class="cls-1"><path d="M1108,175.63l3.27-2.27h1v9.11h2.44v1.13h-6.36v-1.13h2.61V175l-2.38,1.65Z"/><path d="M1116.18,178.48c0-3,1-5.29,3.57-5.29s3.57,2.32,3.57,5.29-1,5.3-3.57,5.3S1116.18,181.46,1116.18,178.48Zm5.77,0c0-2.62-.71-4.1-2.2-4.1s-2.2,1.48-2.2,4.1.72,4.11,2.2,4.11S1122,181.1,1122,178.48Z"/><path d="M1124.63,178.48c0-3,1-5.29,3.57-5.29s3.58,2.32,3.58,5.29-1,5.3-3.58,5.3S1124.63,181.46,1124.63,178.48Zm5.78,0c0-2.62-.72-4.1-2.21-4.1s-2.2,1.48-2.2,4.1.72,4.11,2.2,4.11S1130.41,181.1,1130.41,178.48Z"/></g><path d="M1105,124.8h1.57v1.34h.07a2.86,2.86,0,0,1,2.75-1.56,2.79,2.79,0,0,1,2.83,1.84,3,3,0,0,1,3-1.84c1.71,0,3.13,1,3.13,3.64v5.66h-1.64v-5.44c0-1.78-.6-2.45-1.86-2.45s-2.38,1.21-2.38,3.16v4.73h-1.64v-5.44c0-1.78-.67-2.45-1.86-2.45s-2.38,1.21-2.38,3.18v4.71H1105Z"/><path d="M1121.09,124.8h1.57v1.34h.07a2.86,2.86,0,0,1,2.75-1.56,2.79,2.79,0,0,1,2.83,1.84,3,3,0,0,1,3-1.84c1.71,0,3.13,1,3.13,3.64v5.66h-1.64v-5.44c0-1.78-.6-2.45-1.86-2.45s-2.38,1.21-2.38,3.16v4.73H1127v-5.44c0-1.78-.67-2.45-1.86-2.45s-2.38,1.21-2.38,3.18v4.71h-1.64Z"/><path class="cls-2" d="M43.29,136.56V138H41.65V124.8h1.64v5.28c0,1.94.74,2.61,2.08,2.61s2.38-1.27,2.38-3.2V124.8h1.64v9.08H47.83v-1.34h-.08A2.79,2.79,0,0,1,45,134.1a3.23,3.23,0,0,1-1.82-.52h-.12A20.46,20.46,0,0,1,43.29,136.56Z"/><path class="cls-2" d="M53.33,135c0,1.12,1,1.79,2.46,1.79,1.6,0,2.9-.8,2.9-3.35v-1h-.07a3.2,3.2,0,0,1-3.06,1.64c-2.3,0-4-1.71-4-4.69s1.86-4.83,4.16-4.83a3,3,0,0,1,2.91,1.63h.07V124.8h1.56v8.63c0,3.44-2,4.69-4.46,4.69s-4-1.08-4-3.13Zm2.61-2.3c1.48,0,2.68-1.19,2.68-3.35S57.42,126,55.94,126s-2.68,1.26-2.68,3.42S54.45,132.69,55.94,132.69Z"/><path class="cls-2" d="M67.54,120.86H69L63.23,134.1H61.81Z"/><path class="cls-2" d="M69.18,124.8h1.56v1.34h.08a2.85,2.85,0,0,1,2.75-1.56,2.8,2.8,0,0,1,2.83,1.84,3,3,0,0,1,3-1.84c1.71,0,3.12,1,3.12,3.64v5.66H80.94v-5.44c0-1.78-.6-2.45-1.86-2.45s-2.39,1.21-2.39,3.16v4.73H75.06v-5.44c0-1.78-.67-2.45-1.86-2.45s-2.38,1.21-2.38,3.18v4.71H69.18Z"/><path class="cls-2" d="M85.27,125.43a1.45,1.45,0,0,0,1.6,1.56c.94,0,1.61-.5,1.61-1.38a1.46,1.46,0,0,0-1.61-1.38h-.56v-.82h.56a1.29,1.29,0,0,0,1.35-1.29,1.23,1.23,0,0,0-1.35-1.21,1.25,1.25,0,0,0-1.34,1.35h-.87a2.24,2.24,0,0,1,4.47-.15,1.91,1.91,0,0,1-1.08,1.67v0a1.92,1.92,0,0,1,1.39,1.87c0,1.33-1.14,2.12-2.57,2.12a2.23,2.23,0,0,1-2.51-2.38Z"/><rect class="cls-3" x="96.57" y="158.56" width="285.03" height="603.27"/><rect class="cls-3" x="881.69" y="158.56" width="207.08" height="603.27"/><path class="cls-2" d="M181.23,762.13a.3.3,0,0,1-.3-.3V158.56a.29.29,0,0,1,.3-.3.3.3,0,0,1,.3.3V761.83A.31.31,0,0,1,181.23,762.13Z"/><path class="cls-2" d="M257.54,762.13a.3.3,0,0,1-.3-.3V158.56a.29.29,0,0,1,.3-.3.3.3,0,0,1,.3.3V761.83A.31.31,0,0,1,257.54,762.13Z"/><path class="cls-2" d="M342,762.13a.31.31,0,0,1-.3-.3V158.56a.3.3,0,0,1,.3-.3.29.29,0,0,1,.3.3V761.83A.3.3,0,0,1,342,762.13Z"/><path class="cls-2" d="M423.78,762.13a.31.31,0,0,1-.3-.3V158.56a.3.3,0,0,1,.3-.3.29.29,0,0,1,.3.3V761.83A.3.3,0,0,1,423.78,762.13Z"/><path class="cls-2" d="M508.27,762.13a.3.3,0,0,1-.3-.3V158.56a.3.3,0,0,1,.6,0V761.83A.3.3,0,0,1,508.27,762.13Z"/><path class="cls-2" d="M590,762.13a.3.3,0,0,1-.3-.3V158.56a.3.3,0,1,1,.6,0V761.83A.3.3,0,0,1,590,762.13Z"/><path class="cls-2" d="M674.52,762.13a.3.3,0,0,1-.3-.3V158.56a.29.29,0,0,1,.3-.3.3.3,0,0,1,.3.3V761.83A.31.31,0,0,1,674.52,762.13Z"/><path class="cls-2" d="M759,762.13a.31.31,0,0,1-.3-.3V158.56a.3.3,0,0,1,.3-.3.29.29,0,0,1,.3.3V761.83A.3.3,0,0,1,759,762.13Z"/><path class="cls-2" d="M840.76,762.13a.31.31,0,0,1-.3-.3V158.56a.3.3,0,0,1,.3-.3.29.29,0,0,1,.3.3V761.83A.3.3,0,0,1,840.76,762.13Z"/><path class="cls-2" d="M925.25,762.13a.3.3,0,0,1-.3-.3V158.56a.3.3,0,1,1,.6,0V761.83A.3.3,0,0,1,925.25,762.13Z"/><path class="cls-2" d="M1007,762.13a.3.3,0,0,1-.3-.3V158.56a.3.3,0,1,1,.6,0V761.83A.3.3,0,0,1,1007,762.13Z"/><path class="cls-2" d="M96.74,762.13a.31.31,0,0,1-.3-.3V158.56a.3.3,0,0,1,.3-.3.29.29,0,0,1,.3.3V761.83A.3.3,0,0,1,96.74,762.13Z"/><path class="cls-2" d="M1088.77,762.13a.31.31,0,0,1-.3-.3V158.56a.3.3,0,0,1,.3-.3.29.29,0,0,1,.3.3V761.83A.3.3,0,0,1,1088.77,762.13Z"/><circle cx="102.19" cy="628.02" r="2.97"/><circle cx="104.92" cy="639.68" r="2.97"/><circle cx="107.64" cy="517.29" r="2.97"/><circle cx="110.37" cy="523.12" r="2.97"/><circle cx="121.27" cy="598.88" r="2.97"/><circle cx="123.99" cy="604.71" r="2.97"/><circle cx="126.72" cy="593.06" r="2.97"/><circle cx="132.17" cy="569.74" r="2.97"/><circle cx="134.89" cy="657.17" r="2.97"/><circle cx="137.62" cy="593.06" r="2.97"/><circle cx="145.8" cy="668.82" r="2.97"/><circle cx="148.52" cy="534.77" r="2.97"/><circle cx="153.97" cy="546.43" r="2.97"/><circle cx="156.7" cy="645.51" r="2.97"/><circle cx="159.42" cy="593.06" r="2.97"/><circle cx="162.15" cy="511.46" r="2.97"/><circle cx="170.32" cy="511.46" r="2.97"/><circle cx="173.05" cy="598.88" r="2.97"/><circle cx="175.77" cy="581.4" r="2.97"/><circle cx="178.5" cy="569.74" r="2.97"/><circle cx="181.23" cy="622.2" r="2.97"/><circle cx="183.95" cy="645.51" r="2.97"/><circle cx="186.68" cy="604.71" r="2.97"/><circle cx="189.4" cy="575.57" r="2.97"/><circle cx="192.13" cy="517.29" r="2.97"/><circle cx="197.58" cy="499.8" r="2.97"/><circle cx="208.48" cy="528.95" r="2.97"/><circle cx="211.2" cy="645.51" r="2.97"/><circle cx="213.93" cy="593.06" r="2.97"/><circle cx="227.56" cy="540.6" r="2.97"/><circle cx="230.28" cy="604.71" r="2.97"/><circle cx="241.18" cy="569.74" r="2.97"/><circle cx="243.91" cy="604.71" r="2.97"/><circle cx="246.63" cy="581.4" r="2.97"/><circle cx="249.36" cy="546.43" r="2.97"/><circle cx="252.08" cy="622.2" r="2.97"/><circle cx="254.81" cy="598.88" r="2.97"/><circle cx="262.99" cy="587.23" r="2.97"/><circle cx="265.71" cy="622.2" r="2.97"/><circle cx="268.44" cy="558.09" r="2.97"/><circle cx="271.16" cy="610.54" r="2.97"/><circle cx="273.89" cy="628.02" r="2.97"/><circle cx="276.61" cy="680.48" r="2.97"/><circle cx="279.34" cy="686.31" r="2.97"/><circle cx="282.06" cy="657.17" r="2.97"/><circle cx="284.79" cy="628.02" r="2.97"/><circle cx="287.51" cy="703.79" r="2.97"/><circle cx="290.24" cy="633.85" r="2.97"/><circle cx="292.97" cy="651.34" r="2.97"/><circle cx="295.69" cy="633.85" r="2.97"/><circle cx="298.42" cy="598.88" r="2.97"/><circle cx="301.14" cy="633.85" r="2.97"/><circle cx="303.87" cy="651.34" r="2.97"/><circle cx="306.59" cy="628.02" r="2.97"/><circle cx="309.32" cy="616.37" r="2.97"/><circle cx="312.04" cy="581.4" r="2.97"/><circle cx="314.77" cy="581.4" r="2.97"/><circle cx="317.49" cy="598.88" r="2.97"/><circle cx="320.22" cy="674.65" r="2.97"/><circle cx="322.94" cy="633.85" r="2.97"/><circle cx="325.67" cy="668.82" r="2.97"/><circle cx="328.4" cy="657.17" r="2.97"/><circle cx="331.12" cy="622.2" r="2.97"/><circle cx="333.85" cy="645.51" r="2.97"/><circle cx="336.57" cy="651.34" r="2.97"/><circle cx="339.3" cy="651.34" r="2.97"/><circle cx="342.02" cy="598.88" r="2.97"/><circle cx="344.75" cy="598.88" r="2.97"/><circle cx="347.47" cy="715.45" r="2.97"/><circle cx="350.2" cy="703.79" r="2.97"/><circle cx="352.92" cy="686.31" r="2.97"/><circle cx="355.65" cy="645.51" r="2.97"/><circle cx="358.37" cy="604.71" r="2.97"/><circle cx="361.1" cy="651.34" r="2.97"/><circle cx="363.82" cy="680.48" r="2.97"/><circle cx="366.55" cy="657.17" r="2.97"/><circle cx="369.28" cy="674.65" r="2.97"/><circle cx="372" cy="651.34" r="2.97"/><circle cx="374.73" cy="616.37" r="2.97"/><circle cx="377.45" cy="616.37" r="2.97"/><circle cx="380.18" cy="581.4" r="2.97"/><circle cx="382.9" cy="610.54" r="2.97"/><circle cx="385.63" cy="581.4" r="2.97"/><circle cx="388.35" cy="610.54" r="2.97"/><circle cx="391.08" cy="651.34" r="2.97"/><circle cx="393.8" cy="662.99" r="2.97"/><circle cx="396.53" cy="662.99" r="2.97"/><circle cx="399.25" cy="598.88" r="2.97"/><circle cx="401.98" cy="657.17" r="2.97"/><circle cx="404.71" cy="593.06" r="2.97"/><circle cx="407.43" cy="534.77" r="2.97"/><circle cx="410.16" cy="587.23" r="2.97"/><circle cx="412.88" cy="715.45" r="2.97"/><circle cx="415.61" cy="709.62" r="2.97"/><circle cx="418.33" cy="715.45" r="2.97"/><circle cx="421.06" cy="703.79" r="2.97"/><circle cx="423.78" cy="703.79" r="2.97"/><circle cx="426.51" cy="697.96" r="2.97"/><circle cx="429.23" cy="692.13" r="2.97"/><circle cx="431.96" cy="674.65" r="2.97"/><circle cx="434.68" cy="697.96" r="2.97"/><circle cx="437.41" cy="703.79" r="2.97"/><circle cx="440.14" cy="662.99" r="2.97"/><circle cx="442.86" cy="680.48" r="2.97"/><circle cx="445.59" cy="703.79" r="2.97"/><circle cx="448.31" cy="674.65" r="2.97"/><circle cx="451.04" cy="709.62" r="2.97"/><circle cx="453.76" cy="715.45" r="2.97"/><circle cx="456.49" cy="680.48" r="2.97"/><circle cx="459.21" cy="657.17" r="2.97"/><circle cx="461.94" cy="680.48" r="2.97"/><circle cx="464.66" cy="692.13" r="2.97"/><circle cx="467.39" cy="645.51" r="2.97"/><circle cx="470.11" cy="709.62" r="2.97"/><circle cx="472.84" cy="703.79" r="2.97"/><circle cx="475.56" cy="715.45" r="2.97"/><circle cx="478.29" cy="668.82" r="2.97"/><circle cx="481.02" cy="633.85" r="2.97"/><circle cx="483.74" cy="645.51" r="2.97"/><circle cx="486.47" cy="668.82" r="2.97"/><circle cx="489.19" cy="668.82" r="2.97"/><circle cx="491.92" cy="674.65" r="2.97"/><circle cx="494.64" cy="703.79" r="2.97"/><circle cx="497.37" cy="709.62" r="2.97"/><circle cx="500.09" cy="715.45" r="2.97"/><circle cx="502.82" cy="697.96" r="2.97"/><circle cx="505.54" cy="686.31" r="2.97"/><circle cx="508.27" cy="692.13" r="2.97"/><circle cx="510.99" cy="703.79" r="2.97"/><circle cx="513.72" cy="686.31" r="2.97" transform="translate(-207.28 1150.08) rotate(-85.93)"/><circle cx="516.45" cy="668.82" r="2.97"/><circle cx="519.17" cy="662.99" r="2.97"/><circle cx="521.9" cy="628.02" r="2.97"/><circle cx="524.62" cy="616.37" r="2.97"/><circle cx="527.35" cy="569.74" r="2.97"/><circle cx="530.07" cy="575.57" r="2.97"/><circle cx="532.8" cy="540.6" r="2.97"/><circle cx="535.52" cy="517.29" r="2.97"/><circle cx="538.25" cy="563.91" r="2.97"/><circle cx="540.97" cy="668.82" r="2.97"/><circle cx="543.7" cy="604.71" r="2.97"/><circle cx="546.42" cy="517.29" r="2.97"/><circle cx="549.15" cy="622.2" r="2.97"/><circle cx="551.87" cy="645.51" r="2.97"/><circle cx="554.6" cy="633.85" r="2.97"/><circle cx="557.33" cy="645.51" r="2.97"/><circle cx="560.05" cy="674.65" r="2.97"/><circle cx="562.78" cy="628.02" r="2.97"/><circle cx="565.5" cy="622.2" r="2.97"/><circle cx="568.23" cy="651.34" r="2.97"/><circle cx="570.95" cy="662.99" r="2.97"/><circle cx="573.68" cy="633.85" r="2.97"/><circle cx="576.4" cy="633.85" r="2.97"/><circle cx="579.13" cy="622.2" r="2.97"/><circle cx="581.85" cy="593.06" r="2.97"/><circle cx="584.58" cy="622.2" r="2.97"/><circle cx="587.3" cy="628.02" r="2.97" transform="translate(-43.1 1212.77) rotate(-89.77)"/><circle cx="590.03" cy="587.23" r="2.97"/><circle cx="592.76" cy="622.2" r="2.97"/><circle cx="595.48" cy="593.06" r="2.97"/><circle cx="598.21" cy="674.65" r="2.97" transform="translate(-2.78 2.48) rotate(-0.24)"/><circle cx="600.93" cy="651.34" r="2.97"/><circle cx="603.66" cy="645.51" r="2.97"/><circle cx="606.38" cy="633.85" r="2.97"/><circle cx="617.28" cy="657.17" r="2.97"/><circle cx="620.01" cy="651.34" r="2.97"/><circle cx="622.73" cy="674.65" r="2.97"/><circle cx="625.46" cy="709.62" r="2.97"/><circle cx="628.19" cy="668.82" r="2.97"/><circle cx="630.91" cy="662.99" r="2.97"/><circle cx="633.64" cy="686.31" r="2.97"/><circle cx="636.36" cy="616.37" r="2.97"/><circle cx="639.09" cy="651.34" r="2.97"/><circle cx="641.81" cy="639.68" r="2.97"/><circle cx="644.54" cy="657.17" r="2.97"/><circle cx="647.26" cy="598.88" r="2.97"/><circle cx="649.99" cy="622.2" r="2.97"/><circle cx="652.71" cy="651.34" r="2.97"/><circle cx="655.44" cy="587.23" r="2.97"/><circle cx="658.16" cy="645.51" r="2.97"/><circle cx="660.89" cy="639.68" r="2.97"/><circle cx="663.61" cy="709.62" r="2.97"/><circle cx="666.34" cy="674.65" r="2.97"/><circle cx="669.07" cy="662.99" r="2.97"/><circle cx="671.79" cy="645.51" r="2.97"/><circle cx="674.52" cy="633.85" r="2.97"/><circle cx="677.24" cy="633.85" r="2.97"/><circle cx="679.97" cy="692.13" r="2.97"/><circle cx="682.69" cy="692.13" r="2.97"/><circle cx="685.42" cy="662.99" r="2.97"/><circle cx="688.14" cy="651.34" r="2.97"/><circle cx="690.87" cy="639.68" r="2.97"/><circle cx="693.59" cy="651.34" r="2.97"/><circle cx="696.32" cy="622.2" r="2.97"/><circle cx="699.04" cy="645.51" r="2.97"/><circle cx="701.77" cy="657.17" r="2.97"/><circle cx="704.5" cy="633.85" r="2.97"/><circle cx="707.22" cy="639.68" r="2.97"/><circle cx="709.95" cy="662.99" r="2.97"/><circle cx="712.67" cy="697.96" r="2.97"/><circle cx="715.4" cy="680.48" r="2.97"/><circle cx="718.12" cy="680.48" r="2.97"/><circle cx="720.85" cy="686.31" r="2.97"/><circle cx="723.57" cy="662.99" r="2.97"/><circle cx="726.3" cy="645.51" r="2.97"/><circle cx="729.02" cy="622.2" r="2.97"/><circle cx="731.75" cy="628.02" r="2.97"/><circle cx="734.47" cy="639.68" r="2.97"/><circle cx="737.2" cy="628.02" r="2.97"/><circle cx="739.93" cy="657.17" r="2.97"/><circle cx="742.65" cy="628.02" r="2.97"/><circle cx="745.38" cy="598.88" r="2.97"/><circle cx="748.1" cy="587.23" r="2.97"/><circle cx="756.28" cy="598.88" r="2.97"/><circle cx="759" cy="651.34" r="2.97"/><circle cx="761.73" cy="610.54" r="2.97"/><circle cx="764.45" cy="662.99" r="2.97"/><circle cx="767.18" cy="680.48" r="2.97"/><circle cx="769.9" cy="645.51" r="2.97"/><circle cx="772.63" cy="657.17" r="2.97"/><circle cx="775.35" cy="680.48" r="2.97"/><circle cx="778.08" cy="686.31" r="2.97"/><circle cx="780.81" cy="721.28" r="2.97"/><circle cx="783.53" cy="674.65" r="2.97"/><circle cx="786.26" cy="639.68" r="2.97"/><circle cx="788.98" cy="628.02" r="2.97"/><circle cx="791.71" cy="639.68" r="2.97"/><circle cx="794.43" cy="668.82" r="2.97"/><circle cx="797.16" cy="703.79" r="2.97"/><circle cx="799.88" cy="686.31" r="2.97"/><circle cx="802.61" cy="662.99" r="2.97"/><circle cx="805.33" cy="633.85" r="2.97"/><circle cx="808.06" cy="657.17" r="2.97"/><circle cx="810.78" cy="645.51" r="2.97"/><circle cx="813.51" cy="662.99" r="2.97"/><circle cx="816.24" cy="639.68" r="2.97"/><circle cx="818.96" cy="581.4" r="2.97"/><circle cx="821.69" cy="674.65" r="2.97"/><circle cx="824.41" cy="639.68" r="2.97"/><circle cx="827.14" cy="604.71" r="2.97"/><circle cx="829.86" cy="645.51" r="2.97"/><circle cx="832.59" cy="680.48" r="2.97"/><circle cx="835.31" cy="715.45" r="2.97"/><circle cx="838.04" cy="680.48" r="2.97"/><circle cx="840.76" cy="674.65" r="2.97"/><circle cx="843.49" cy="697.96" r="2.97"/><circle cx="846.21" cy="697.96" r="2.97"/><circle cx="848.94" cy="715.45" r="2.97"/><circle cx="851.66" cy="645.51" r="2.97"/><circle cx="854.39" cy="662.99" r="2.97"/><circle cx="857.12" cy="674.65" r="2.97"/><circle cx="859.84" cy="657.17" r="2.97"/><circle cx="862.57" cy="639.68" r="2.97"/><circle cx="865.29" cy="493.98" r="2.97"/><circle cx="868.02" cy="523.12" r="2.97"/><circle cx="878.92" cy="575.57" r="2.97"/><circle cx="881.64" cy="692.13" r="2.97"/><circle cx="884.37" cy="692.13" r="2.97"/><circle cx="887.09" cy="668.82" r="2.97"/><circle cx="889.82" cy="668.82" r="2.97"/><circle cx="892.55" cy="668.82" r="2.97"/><circle cx="895.27" cy="604.71" r="2.97"/><circle cx="898" cy="558.09" r="2.97"/><circle cx="900.72" cy="528.95" r="2.97"/><circle cx="903.45" cy="517.29" r="2.97"/><circle cx="906.17" cy="534.77" r="2.97"/><circle cx="908.9" cy="575.57" r="2.97"/><circle cx="911.62" cy="616.37" r="2.97"/><circle cx="914.35" cy="517.29" r="2.97"/><circle cx="919.8" cy="633.85" r="2.97"/><circle cx="922.52" cy="686.31" r="2.97"/><circle cx="925.25" cy="662.99" r="2.97"/><circle cx="927.98" cy="593.06" r="2.97"/><circle cx="936.15" cy="657.17" r="2.97"/><circle cx="938.88" cy="709.62" r="2.97"/><circle cx="941.6" cy="628.02" r="2.97"/><circle cx="944.33" cy="692.13" r="2.97"/><circle cx="947.05" cy="686.31" r="2.97"/><circle cx="949.78" cy="604.71" r="2.97"/><circle cx="952.5" cy="581.4" r="2.97"/><circle cx="955.23" cy="721.28" r="2.97"/><circle cx="957.95" cy="692.13" r="2.97"/><circle cx="960.68" cy="633.85" r="2.97"/><circle cx="963.4" cy="697.96" r="2.97"/><circle cx="966.13" cy="674.65" r="2.97"/><circle cx="968.86" cy="709.62" r="2.97"/><circle cx="971.58" cy="633.85" r="2.97"/><circle cx="974.31" cy="633.85" r="2.97"/><circle cx="977.03" cy="604.71" r="2.97"/><circle cx="982.48" cy="622.2" r="2.97"/><circle cx="985.21" cy="639.68" r="2.97"/><circle cx="987.93" cy="651.34" r="2.97"/><circle cx="990.66" cy="662.99" r="2.97"/><circle cx="993.38" cy="622.2" r="2.97"/><circle cx="996.11" cy="639.68" r="2.97"/><circle cx="998.83" cy="587.23" r="2.97"/><circle cx="1001.56" cy="523.12" r="2.97"/><circle cx="1004.29" cy="563.91" r="2.97"/><circle cx="1007.01" cy="546.43" r="2.97"/><circle cx="1009.74" cy="668.82" r="2.97"/><circle cx="1012.46" cy="651.34" r="2.97"/><circle cx="1015.19" cy="610.54" r="2.97"/><circle cx="1017.91" cy="528.95" r="2.97"/><circle cx="1031.54" cy="517.29" r="2.97"/><circle cx="1034.26" cy="651.34" r="2.97"/><circle cx="1036.99" cy="645.51" r="2.97"/><circle cx="1039.72" cy="668.82" r="2.97"/><circle cx="1042.44" cy="593.06" r="2.97"/><circle cx="1045.17" cy="499.8" r="2.97"/><circle class="cls-4" cx="96.74" cy="371.58" r="2.97"/><circle class="cls-4" cx="99.46" cy="459.01" r="2.97"/><circle class="cls-4" cx="113.09" cy="435.69" r="2.97"/><circle class="cls-4" cx="115.82" cy="307.47" r="2.97"/><circle class="cls-4" cx="118.54" cy="418.21" r="2.97"/><circle class="cls-4" cx="129.44" cy="429.87" r="2.97"/><circle class="cls-4" cx="140.35" cy="464.84" r="2.97"/><circle class="cls-4" cx="143.07" cy="447.35" r="2.97"/><circle class="cls-4" cx="151.25" cy="470.66" r="2.97"/><circle class="cls-4" cx="164.87" cy="470.66" r="2.97"/><circle class="cls-4" cx="167.6" cy="348.27" r="2.97"/><circle class="cls-4" cx="194.85" cy="447.35" r="2.97"/><circle class="cls-4" cx="200.3" cy="459.01" r="2.97"/><circle class="cls-4" cx="203.03" cy="418.21" r="2.97"/><circle class="cls-4" cx="205.75" cy="424.04" r="2.97"/><circle class="cls-4" cx="216.66" cy="470.66" r="2.97"/><circle class="cls-4" cx="219.38" cy="412.38" r="2.97"/><circle class="cls-4" cx="222.11" cy="394.9" r="2.97"/><circle class="cls-4" cx="224.83" cy="424.04" r="2.97"/><circle class="cls-4" cx="233.01" cy="354.1" r="2.97"/><circle class="cls-4" cx="235.73" cy="342.44" r="2.97"/><circle class="cls-4" cx="238.46" cy="418.21" r="2.97"/><circle class="cls-4" cx="257.54" cy="412.38" r="2.97"/><circle class="cls-4" cx="260.26" cy="412.38" r="2.97"/><circle class="cls-4" cx="870.74" cy="441.52" r="2.97"/><circle class="cls-4" cx="873.47" cy="459.01" r="2.97"/><circle class="cls-4" cx="876.19" cy="441.52" r="2.97"/><circle class="cls-4" cx="917.07" cy="453.18" r="2.97"/><circle class="cls-4" cx="1020.64" cy="470.66" r="2.97"/><circle class="cls-4" cx="1023.36" cy="394.9" r="2.97"/><circle class="cls-4" cx="1026.09" cy="447.35" r="2.97"/><circle class="cls-4" cx="1028.81" cy="272.5" r="2.97"/><circle class="cls-4" cx="1047.89" cy="371.58" r="2.97"/><circle class="cls-4" cx="1050.62" cy="284.16" r="2.97"/><circle class="cls-4" cx="1053.34" cy="453.18" r="2.97"/><circle class="cls-4" cx="1056.07" cy="464.84" r="2.97"/><circle cx="1058.79" cy="674.65" r="2.97"/><circle cx="1061.52" cy="750.42" r="2.97"/><circle cx="1064.24" cy="750.42" r="2.97"/><circle cx="1066.97" cy="686.31" r="2.97"/><circle cx="1069.69" cy="680.48" r="2.97"/><circle cx="1072.42" cy="616.37" r="2.97"/><circle cx="1075.14" cy="610.54" r="2.97"/><circle cx="1077.87" cy="552.26" r="2.97"/><circle cx="1080.6" cy="511.46" r="2.97"/><circle cx="1083.32" cy="493.98" r="2.97"/><circle cx="1086.05" cy="517.29" r="2.97"/><circle cx="1088.77" cy="528.95" r="2.97"/><path class="cls-5" d="M1063.45,761.83h-8.06c1.3-.53,1.33-17.46,2.65-17.46s1.36-116.47,2.71-116.47S1062.11,761.15,1063.45,761.83Z"/><path class="cls-5" d="M1041.75,761.83H1031c1.33-.21,1.34-11.63,2.68-11.63s1.35-23.3,2.71-23.3,1.36,23.3,2.71,23.3S1040.42,761.62,1041.75,761.83Z"/><path class="cls-5" d="M1028.11,761.83h-5.17c1.23-.35,1.26-5.8,2.58-5.8S1026.87,761.48,1028.11,761.83Z"/><path class="cls-5" d="M1011.84,761.83h-10.59c1.23-.35,1.27-5.8,2.59-5.8s1.35-157.25,2.71-157.25S1007.9,756,1009.26,756,1010.61,761.48,1011.84,761.83Z"/><path class="cls-5" d="M995.67,761.83h-5.34c1.31-.21,1.32-11.63,2.66-11.63S994.36,761.62,995.67,761.83Z"/><path class="cls-5" d="M990.25,761.83h-8.08c1.34-.31,1.34-52.4,2.7-52.4s1.35,40.77,2.7,40.77S988.94,761.62,990.25,761.83Z"/><path class="cls-5" d="M963.18,558c1.35,0,1.35-104.83,2.72-104.83s1.35,192.18,2.7,192.18S970,756,971.32,756s1.35,5.45,2.58,5.8H957.78c1.33-.59,1.33-116.46,2.7-116.46S961.83,558,963.18,558Z"/><path class="cls-5" d="M952.34,558c1.36,0,1.36,174.71,2.72,174.71s1.35,28.75,2.68,29.1H947c1.29-.7,1.31-23.27,2.64-23.27S951,558,952.34,558Z"/><path class="cls-5" d="M946.8,761.83h-8c1.31-1.08,1.32-69.86,2.68-69.86s1.35,64.06,2.7,64.06S945.57,761.48,946.8,761.83Z"/><path class="cls-5" d="M938.67,761.83h-8c1.34-.35,1.35-29.1,2.69-29.1s1.35,23.3,2.72,23.3S937.44,761.48,938.67,761.83Z"/><path class="cls-5" d="M930.64,761.83h-8c1.22-.35,1.26-5.8,2.58-5.8s1.36-40.77,2.71-40.77S929.3,761.56,930.64,761.83Z"/><path class="cls-5" d="M922.51,761.83h-8.1c1.29-.35,1.34-5.8,2.7-5.8s1.36-23.3,2.71-23.3S921.17,761.48,922.51,761.83Z"/><path class="cls-5" d="M903.39,761.83h-5.3c1.29-.7,1.32-23.27,2.64-23.27S902.08,761.13,903.39,761.83Z"/><path class="cls-5" d="M879,761.83h-5.37c1.33-.49,1.34-40.75,2.68-40.75S877.69,761.34,879,761.83Z"/><path class="cls-5" d="M857.34,761.83H852c1.33-.42,1.34-34.93,2.7-34.93S856,761.41,857.34,761.83Z"/><path class="cls-5" d="M846.52,761.83h-8.11c1.34-.35,1.34-58.22,2.7-58.22s1.35,11.65,2.71,11.65S845.18,761.56,846.52,761.83Z"/><path class="cls-5" d="M824.72,761.83h-5.17c1.24-.35,1.28-5.8,2.59-5.8S823.49,761.48,824.72,761.83Z"/><path class="cls-5" d="M819.36,761.83h-8.05c1.34-.27,1.34-46.57,2.69-46.57s1.36,29.11,2.72,29.11S818.07,761.3,819.36,761.83Z"/><path class="cls-5" d="M808.55,761.83H803.2c1.32-1.35,1.33-87.33,2.67-87.33S807.23,760.48,808.55,761.83Z"/><path class="cls-5" d="M778.76,761.83h-5.39c1.34-.27,1.34-46.57,2.69-46.57S777.42,761.56,778.76,761.83Z"/><path class="cls-5" d="M773.32,761.83H768c1.32-1.35,1.33-87.33,2.67-87.33S772,760.48,773.32,761.83Z"/><path class="cls-5" d="M748.94,761.83h-5.38c1.34-.13,1.35-11.63,2.69-11.63S747.6,761.7,748.94,761.83Z"/><path class="cls-5" d="M738.09,761.83H730c1.34-.38,1.34-64.05,2.7-64.05s1.36,52.42,2.71,52.42S736.76,761.7,738.09,761.83Z"/><path class="cls-5" d="M729.87,761.83H724.7c1.22-.35,1.26-5.8,2.58-5.8S728.63,761.48,729.87,761.83Z"/><path class="cls-5" d="M716.31,761.83h-5.17c1.23-.35,1.27-5.8,2.58-5.8S715.09,761.48,716.31,761.83Z"/><path class="cls-5" d="M711,761.83h-5.36c1.32-.13,1.33-11.63,2.67-11.63S709.66,761.7,711,761.83Z"/><path class="cls-5" d="M678.43,761.83h-5.29c1.29-.53,1.31-17.46,2.64-17.46S677.14,761.3,678.43,761.83Z"/><path class="cls-5" d="M664.93,761.83h-8.06c1.3-.53,1.32-17.46,2.65-17.46s1.35-17.47,2.72-17.47S663.59,761.62,664.93,761.83Z"/><path class="cls-5" d="M629.7,761.83h-5.4c1.34-.25,1.34-40.75,2.69-40.75S628.36,761.58,629.7,761.83Z"/><path class="cls-5" d="M618.75,761.83H608c1.36-.17,1.36-29.1,2.71-29.1s1.35-99,2.7-99S614.8,756,616.16,756,617.51,761.48,618.75,761.83Z"/><path class="cls-5" d="M597.12,761.83h-5.33c1.33-.22,1.34-17.47,2.69-17.47S595.83,761.3,597.12,761.83Z"/><path class="cls-5" d="M564.66,581.31c1.36,0,1.36,180.53,2.71,180.53H562C563.31,761.84,563.31,581.31,564.66,581.31Z"/><path class="cls-5" d="M502.31,761.84H488.79c1.34-.36,1.34-58.23,2.69-58.23h2.72c1.35,0,1.35,11.65,2.7,11.65s1.37,11.64,2.72,11.64S501,761.62,502.31,761.84Z"/><path class="cls-5" d="M488.77,761.84H475.24c1.34-.07,1.34-11.64,2.69-11.64h5.42c1.36,0,1.36-23.3,2.71-23.3S487.42,761.62,488.77,761.84Z"/><path class="cls-5" d="M475.21,761.84h-10.8c1.33-.22,1.34-17.47,2.68-17.47s1.35-128.12,2.72-128.12,1.35,104.83,2.7,104.83S473.86,761.58,475.21,761.84Z"/><path class="cls-5" d="M464.36,761.84H459c1.34-.22,1.35-17.47,2.69-17.47S463,761.62,464.36,761.84Z"/><path class="cls-5" d="M453.54,494c1.36,0,1.36,244.6,2.71,244.6s1.35,23,2.68,23.28H448.17c1.3-.14,1.31-5.81,2.66-5.81S452.19,494,453.54,494Z"/><path class="cls-5" d="M448.11,761.84H440c1.35-.07,1.35-11.64,2.7-11.64s1.35-34.94,2.72-34.94S446.77,761.56,448.11,761.84Z"/><path class="cls-5" d="M434.56,470.66c1.37,0,1.37,267.9,2.72,267.9s1.35,23,2.68,23.28H426.47c1.32-.22,1.34-17.47,2.68-17.47S430.5,756,431.86,756,433.21,470.66,434.56,470.66Z"/><path class="cls-5" d="M421,761.84H412.9c1.34-.36,1.34-58.23,2.69-58.23s1.37,23.29,2.72,23.29S419.66,761.62,421,761.84Z"/><path class="cls-5" d="M404.74,761.84h-8.1c1.34-.28,1.36-23.28,2.7-23.28s1.35-23.3,2.71-23.3S403.4,761.56,404.74,761.84Z"/><path class="cls-5" d="M380.35,761.84h-19c1.34-.14,1.34-23.28,2.71-23.28h2.7c1.36,0,1.36-29.13,2.71-29.13s1.36,40.77,2.71,40.77,1.36,5.83,2.71,5.83,1.36-5.83,2.72-5.83S379,761.77,380.35,761.84Z"/><path class="cls-5" d="M353.24,761.84h-5.39c1.35-.48,1.35-93.17,2.7-93.17S351.9,761.36,353.24,761.84Z"/><path class="cls-5" d="M328.85,761.84h-8c1.33-.26,1.33-40.76,2.69-40.76s1.36,17.48,2.71,17.48S327.57,761.7,328.85,761.84Z"/><path class="cls-5" d="M307.29,761.84h-5.4c1.34-.07,1.34-11.64,2.69-11.64S306,761.77,307.29,761.84Z"/><path class="cls-5" d="M190.76,761.84h-19c1.35,0,1.35-11.64,2.7-11.64s1.37-75.7,2.72-75.7,1.35,64.06,2.71,64.06,1.35-64.06,2.71-64.06S184,756,185.34,756s1.35-5.83,2.7-5.83S189.4,761.84,190.76,761.84Z"/><path class="cls-5" d="M171.79,761.84h-8.12c1.34,0,1.34-5.81,2.7-5.81s1.35-17.47,2.7-17.47S170.44,761.84,171.79,761.84Z"/><path class="cls-5" d="M161,761.84H150.1c1.36,0,1.36-11.64,2.72-11.64s1.35,5.83,2.7,5.83,1.36-40.77,2.71-40.77S159.59,761.84,161,761.84Z"/><path class="cls-5" d="M147.4,761.84h-8.14c1.35,0,1.35-17.47,2.72-17.47s1.35-17.47,2.7-17.47S146,761.84,147.4,761.84Z"/><path class="cls-5" d="M1088.77,762.14h-25.43l-.09-.08h0c-.64-1-.91-13.64-1.44-66.84-.28-27-.58-57.21-1.08-65.18-.48,7.28-.78,33-1,56.11-.17,14.31-.34,29.12-.55,40-.36,18.49-.64,18.49-1.11,18.49-.42.39-.78,5-1,8.42-.49,6.17-.75,8.72-1.5,9l-.17,0-13.71,0c-.74-.25-1-2.09-1.5-6.08-.24-2.11-.61-5.3-1.07-5.53h0c-.77,0-1-2-1.63-11.89-.25-4.31-.59-10.11-1.06-11.27-.47,1.16-.81,6.93-1.06,11.23-.57,9.92-.85,11.93-1.65,11.93-.43.23-.8,3.42-1.05,5.53-.46,3.93-.75,5.78-1.46,6.07l0,0h-2.88a.79.79,0,0,1-.2,0,.31.31,0,0,1-.19-.39.31.31,0,0,1,.37-.19h2.72c.45-.23.83-3.45,1.07-5.58.49-4.17.78-6,1.58-6.05.51-.69.86-6.86,1.12-11.38.58-9.92.86-11.93,1.66-11.93s1.08,2,1.66,12c.26,4.51.62,10.65,1.13,11.34.8.1,1.08,1.88,1.57,6.05.25,2.13.62,5.35,1.09,5.58h13.52c.44-.38.8-5.07,1.07-8.49.49-6.38.77-8.61,1.45-8.93.6-2.14.94-31.79,1.25-58,.16-14.32.33-29.12.55-40,.35-18.49.63-18.49,1.1-18.49s.75,0,1.11,21.35c.22,12.63.39,29.72.55,46.25.31,29.91.65,63.72,1.25,66.34h25.11a.3.3,0,0,1,.3.3A.29.29,0,0,1,1088.77,762.14Z"/><path class="cls-5" d="M1028.11,762.13H1028c-.77-.22-1.09-1.56-1.45-3.12-.25-1.06-.62-2.67-1.06-2.67s-.82,1.61-1.07,2.68c-.35,1.55-.67,2.89-1.43,3.11a.3.3,0,0,1-.37-.21.31.31,0,0,1,.21-.37c.42-.12.76-1.59,1-2.66.39-1.69.73-3.15,1.65-3.15s1.25,1.45,1.64,3.13c.26,1.08.6,2.56,1,2.68a.3.3,0,0,1-.08.59Z"/><path class="cls-5" d="M1022.82,762.14H1012a.79.79,0,0,1-.2,0,.31.31,0,0,1-.19-.39.3.3,0,0,1,.37-.19h10.88a.31.31,0,0,1,.38.19.3.3,0,0,1-.18.39A.79.79,0,0,1,1022.82,762.14Z"/><path class="cls-5" d="M1011.84,762.13h-.08c-.76-.22-1.08-1.56-1.43-3.11-.25-1.07-.63-2.68-1.07-2.68s-.75,0-1.11-25c-.21-14.8-.39-34.84-.55-54.23-.28-32.61-.57-66.19-1.05-75.63-.49,9.67-.79,44.6-1.06,75.91-.16,19.32-.33,39.31-.54,54.05-.36,24.87-.64,24.87-1.11,24.87s-.82,1.62-1.07,2.69c-.36,1.55-.68,2.88-1.44,3.1a.3.3,0,0,1-.37-.21.31.31,0,0,1,.21-.37c.42-.12.76-1.58,1-2.65.37-1.57.68-2.93,1.46-3.14.61-2.78,1-42.89,1.25-78.35.17-19.33.34-39.31.55-54,.36-24.87.64-24.87,1.11-24.87s.74,0,1.1,24.76c.21,14.69.38,34.61.55,53.89.3,35.58.65,75.84,1.27,78.62.76.21,1.08,1.57,1.44,3.13.25,1.07.59,2.54,1,2.66a.31.31,0,0,1,.21.37A.3.3,0,0,1,1011.84,762.13Z"/><path class="cls-5" d="M1001.13,762.14l-5.59,0c-.73-.24-1-2-1.48-6-.25-2.13-.62-5.34-1.09-5.57-.41.23-.79,3.43-1,5.55-.46,3.93-.75,5.77-1.46,6.05l0,0h-.29l0,0c-.73-.24-1-2-1.48-6-.25-2.13-.62-5.34-1.09-5.57h0c-.75,0-1-2.45-1.63-20.68-.26-7.74-.57-17.18-1-19.61-.49,2.81-.8,14.83-1.08,25.55-.52,20.37-.79,25.56-1.43,26.28h0l-.09.09H974a.9.9,0,0,1-.21,0,.3.3,0,0,1,.18-.58h8c.56-1.34.9-14.31,1.19-25.79.62-24,.89-26.62,1.67-26.62s1,2.43,1.65,20.67c.28,8.49.63,19,1.18,20.11.77.17,1,2,1.54,6.09.24,2.08.6,5.21,1,5.53.44-.29.81-3.45,1.05-5.55.5-4.32.79-6.08,1.65-6.08s1.16,1.77,1.67,6.1c.24,2.11.61,5.3,1.07,5.54h5.4a.31.31,0,0,1,.38.19.3.3,0,0,1-.18.39A.79.79,0,0,1,1001.13,762.14Zm-19-.6h0Z"/><path class="cls-5" d="M957.76,762.14h-.13l-.08-.07c-.67-.5-.94-4-1.44-14.79-.28-6-.63-13.44-1.15-14.26-.41-.14-.68-2-1-27.7-.21-16.44-.39-38.71-.56-60.25-.28-36.19-.57-73.45-1-84-.48,10.77-.77,49.39-1.06,86.9-.16,22.26-.34,45.27-.55,62.26-.34,27-.61,28.54-1,28.62-.5.69-.86,6.84-1.12,11.36-.46,8-.74,11.5-1.45,11.88a.3.3,0,0,1-.41-.11.3.3,0,0,1,.11-.4c.52-.56.88-6.83,1.15-11.41.52-8.95.8-11.45,1.43-11.85.62-2.65,1-47.23,1.28-90.35.17-22.13.34-45,.55-61.86.36-28.39.62-28.39,1.1-28.39s.75,0,1.11,27.48c.21,16.31.38,38.45.54,59.86.33,41.78.67,85,1.29,87.44.64.48.9,3.48,1.43,14.75.24,5.26.54,11.62,1,13.69.53-4.91.86-32.5,1.14-57,.17-14.38.34-29.25.56-40.23.31-16,.56-18.25.92-18.55.59-1.7.94-23.85,1.24-43.43.61-39.65.88-44,1.65-44a.28.28,0,0,0-.22.11c.61-1.26,1-28.24,1.27-52.05.17-12.92.34-26.28.56-36.15.36-16.74.66-16.74,1.11-16.74s.74,0,1.1,30.32c.21,18,.38,42.44.55,66.06.32,46,.66,93.45,1.28,95.89.34.43.58,3,.88,17.57.21,10.41.39,24.52.56,38.16.3,24.7.64,52.63,1.23,54.86.78.19,1.1,1.56,1.46,3.13.25,1.07.59,2.54,1,2.66a.3.3,0,0,1-.17.58c-.76-.22-1.07-1.56-1.43-3.11-.25-1.07-.62-2.68-1.06-2.68s-.75,0-1.11-17.51c-.21-10.34-.38-24.36-.54-37.92-.32-25.34-.67-54-1.29-55.35h0c-.36-.64-.59-4.68-.89-30.21-.21-18-.38-42.44-.55-66.06-.29-41.18-.59-83.61-1.1-93.72-.46,7.09-.75,29.82-1,50.23-.16,12.85-.34,26.13-.55,35.92-.31,14.32-.56,16.29-.92,16.57-.58,1.73-.93,23.86-1.23,43.42-.56,36-.83,42.87-1.45,43.83l0,0c-.62,1.33-1,31.63-1.29,58.35-.53,45.8-.8,57.08-1.44,58.13h0l-.09.09Z"/><path class="cls-5" d="M946.92,762.14a.79.79,0,0,1-.2,0,.31.31,0,0,1-.19-.39.3.3,0,0,1,.36-.19.33.33,0,0,1,.3.08.31.31,0,0,1,0,.42A.45.45,0,0,1,946.92,762.14Z"/><path class="cls-5" d="M938.79,762.14a.83.83,0,0,1-.2,0,.31.31,0,0,1-.18-.39.33.33,0,0,1,.24-.2c.56-1.72.89-19.1,1.19-34.47.62-31.91.89-35.39,1.67-35.39s1,3.17,1.65,32.32c.3,14.18.63,30.2,1.2,31.75.81.16,1.14,1.55,1.51,3.15.25,1.07.59,2.53,1,2.65a.31.31,0,0,1,.21.37.3.3,0,0,1-.37.21c-.76-.22-1.07-1.55-1.43-3.1-.25-1.07-.63-2.69-1.08-2.69-.77,0-1-3.18-1.65-32.33-.27-12.79-.57-27.1-1-30.9-.49,4-.79,19.84-1.07,34-.5,25.79-.78,34.46-1.42,35l-.09.07Z"/><path class="cls-5" d="M930.66,762.14h-.14l-.09-.09h0c-.64-.66-.91-5.32-1.43-23.46-.26-9-.58-20-1.07-22.57-.47,2.38-.78,11.83-1,19.57-.61,18.31-.89,20.75-1.66,20.75-.45,0-.82,1.61-1.07,2.68-.36,1.55-.67,2.89-1.43,3.11a.29.29,0,0,1-.37-.21.3.3,0,0,1,.21-.37c.42-.12.76-1.59,1-2.66.37-1.62.7-3,1.53-3.14.55-1.12.9-11.67,1.18-20.18.62-18.58.88-20.6,1.65-20.6s1,2.31,1.66,23.6c.26,9.12.58,20.29,1.08,22.64.46-1.72.77-8.47,1-14,.58-12.43.85-14.77,1.65-14.77s1.08,2,1.65,11.89c.27,4.53.63,10.72,1.14,11.41.86.08,1.19,1.5,1.57,3.15.25,1.07.6,2.54,1,2.66a.3.3,0,0,1-.17.58c-.76-.22-1.07-1.56-1.43-3.11-.25-1.07-.62-2.68-1.06-2.68-.81,0-1.09-2-1.67-12-.24-4.22-.57-9.89-1-11.14-.48,1.44-.8,8.37-1.07,14-.5,10.77-.77,14.32-1.45,14.83l-.07.07Z"/><path class="cls-5" d="M922.53,762.14h-.13l-.08-.07c-.68-.49-1-4-1.45-14.84-.27-5.65-.59-12.59-1.07-14-.46,1.25-.79,6.94-1,11.19-.58,9.92-.86,11.93-1.66,11.93-.46,0-.84,1.54-1.12,2.67-.38,1.56-.7,2.91-1.5,3.12a.3.3,0,1,1-.16-.58c.46-.12.82-1.6,1.08-2.68.38-1.57.75-3.05,1.63-3.13.51-.7.86-6.85,1.13-11.37.57-9.92.85-11.93,1.65-11.93s1.07,2.34,1.65,14.77c.28,6,.62,13.43,1.15,14.33h0a.3.3,0,0,1,.1.59A.79.79,0,0,1,922.53,762.14Z"/><path class="cls-5" d="M914.29,762.14h-11l-.14-.1a.29.29,0,0,1,0-.42.3.3,0,0,1,.3-.08h10.8a.28.28,0,0,1,.38.15.31.31,0,0,1-.15.41A.55.55,0,0,1,914.29,762.14Z"/><path class="cls-5" d="M903.39,762.13l-.15,0c-.71-.39-1-3.94-1.46-11.93-.26-4.5-.58-10-1-11.17-.46,1.17-.8,6.93-1.05,11.21-.46,8-.74,11.5-1.44,11.88a.3.3,0,0,1-.41-.11.3.3,0,0,1,.1-.4c.52-.56.89-6.83,1.15-11.41.58-9.91.86-11.91,1.65-11.91s1.07,2,1.65,11.87c.27,4.61.64,10.93,1.17,11.45a.29.29,0,0,1-.16.55Z"/><path class="cls-5" d="M898,762.14h-19.1l-.11-.1h0c-.63-.61-.9-4.75-1.43-20.66-.26-7.78-.58-17.27-1-19.58-.47,2.31-.79,11.84-1.05,19.64-.52,15.79-.79,20-1.41,20.59h0l-.09.1H857.24l-.09-.08c-.63-.51-.9-4-1.44-17.7-.26-6.72-.57-14.93-1.05-16.85-.47,1.92-.79,10.17-1.06,16.91-.52,13.52-.8,17.08-1.42,17.63l-.07.08h-5.7l-.09-.08h0c-.64-.63-.91-5.23-1.44-23.38-.28-9.78-.63-21.91-1.2-23.13-.75-.18-1-2-1.51-6.07-.23-1.93-.55-4.75-1-5.43-.54,2.09-.87,16.26-1.17,28.83-.52,22.7-.79,28.4-1.43,29.16h0l-.09.09H824.84a.53.53,0,0,1-.22,0,.3.3,0,0,1,.22-.56h13.41c.56-1.45.9-15.9,1.2-28.69.62-26.64.88-29.54,1.66-29.54s1.15,1.76,1.65,6.09c.25,2.12.62,5.32,1.08,5.56h0c.76,0,1,2.34,1.64,23.69.3,10.17.63,21.67,1.18,22.89h5.18c.53-1,.88-9.93,1.16-17.14.59-15,.85-17.8,1.67-17.8s1.07,2.82,1.64,17.73c.29,7.25.63,16.23,1.17,17.21h16c.54-1.12.89-11.64,1.17-20.12.62-18.61.88-20.64,1.65-20.64s1,2,1.65,20.58c.28,8.51.64,19.06,1.19,20.18H898a.31.31,0,0,1,.3.08.29.29,0,0,1,0,.42A.4.4,0,0,1,898,762.14Zm-59.71-.6h0Z"/><path class="cls-5" d="M819.55,762.13a.31.31,0,0,1-.29-.22.3.3,0,0,1,.21-.37c.43-.12.77-1.6,1-2.68.39-1.68.73-3.13,1.65-3.13s1.26,1.46,1.65,3.15c.25,1.07.59,2.54,1,2.66a.31.31,0,0,1,.21.37.3.3,0,0,1-.37.21c-.77-.22-1.08-1.56-1.44-3.11-.25-1.07-.62-2.68-1.06-2.68s-.81,1.61-1.06,2.67c-.37,1.56-.68,2.9-1.45,3.12Z"/><path class="cls-5" d="M819.42,762.14h-.12l-.14-.1a.29.29,0,0,1,0-.42.32.32,0,0,1,.28-.08.27.27,0,0,1,.36.14.32.32,0,0,1-.15.42A.55.55,0,0,1,819.42,762.14Z"/><path class="cls-5" d="M811.3,762.14h-2.85l-.11-.11a.3.3,0,0,1,0-.42.31.31,0,0,1,.29-.07h2.52c.55-1.24.9-13.27,1.18-23C813,717.28,813.23,715,814,715s1.08,2.35,1.66,14.79c.28,6,.63,13.51,1.16,14.33.75.16,1,2.3,1.55,9,.26,3.41.63,8.08,1.12,8.48a.3.3,0,0,1,.16.39.32.32,0,0,1-.4.16c-.74-.3-1-2.84-1.48-9-.26-3.4-.62-8.06-1.12-8.47h0c-.74,0-1-2.39-1.58-14.87-.26-5.48-.57-12.16-1-13.88-.5,2.37-.82,13.55-1.09,22.68-.52,18.11-.79,22.78-1.43,23.46h0l-.09.09Zm-2.73-.31h0Zm2.66-.29h0Z"/><path class="cls-5" d="M808.57,762.14a.37.37,0,0,1-.24-.1c-.66-.68-.94-14.5-1.4-43.66-.27-17.55-.57-37.17-1.06-42.4-.48,5.22-.78,24.76-1,42.24-.45,29.27-.74,43.14-1.4,43.82a.3.3,0,0,1-.42,0,.29.29,0,0,1,0-.4c.6-1.26.94-23.67,1.25-43.44.61-39.69.88-44,1.65-44s1,4.33,1.66,44.17c.31,19.74.66,42.13,1.26,43.28a.29.29,0,0,1,0,.41A.3.3,0,0,1,808.57,762.14Z"/><path class="cls-5" d="M803.17,762.14H778.65l-.09-.08h0c-.65-.63-.91-5.23-1.44-23.38-.26-9-.58-19.94-1.07-22.62-.48,2.68-.8,13.59-1,22.53-.53,18.11-.8,22.78-1.43,23.46h0l-.09.09h-.26l-.12-.11a.3.3,0,0,1,0-.42l.09-.06c.55-1.19.9-13.25,1.19-23,.61-21.29.88-23.61,1.65-23.61s1.05,2.32,1.67,23.69c.29,10.17.63,21.67,1.18,22.89h24.2a.31.31,0,0,1,.28.07.29.29,0,0,1,0,.42A.32.32,0,0,1,803.17,762.14Zm-29.83-.31h0Z"/><path class="cls-5" d="M773.34,762.14a.3.3,0,0,1-.23-.1c-.67-.68-1-14.59-1.42-44-.27-17.4-.57-36.84-1.05-42.07-.48,5.24-.78,24.76-1,42.22-.45,29.27-.74,43.14-1.4,43.82a.3.3,0,0,1-.42,0,.29.29,0,0,1,0-.4c.6-1.26.94-23.67,1.25-43.44.61-39.69.88-44,1.65-44s1,4.31,1.65,43.87c.31,19.88.66,42.42,1.27,43.58a.29.29,0,0,1,0,.41A.3.3,0,0,1,773.34,762.14Z"/><path class="cls-5" d="M767.94,762.14H748.83l0,0c-.73-.24-1-2-1.49-6.08-.25-2.11-.62-5.3-1.07-5.53-.41.23-.78,3.42-1,5.53-.48,4.05-.76,5.83-1.49,6.07l0,0h-.15l-5.58,0c-.74-.23-1-2-1.49-6.07-.24-2.11-.62-5.3-1.07-5.54h0c-.75,0-1-2.61-1.63-26.41-.27-10.49-.58-22.21-1-25.33-.49,3.54-.8,18.1-1.07,31.1-.53,25.13-.79,31.38-1.43,32.17h0l-.09.09H730a.49.49,0,0,1-.21,0,.31.31,0,0,1-.13-.41.32.32,0,0,1,.19-.15c.57-1.58.9-17.56,1.2-31.7.62-29.18.88-32.36,1.66-32.36s1,2.62,1.66,26.6c.3,11.51.64,24.53,1.19,25.84.75.19,1,2,1.51,6.06.24,2.12.62,5.32,1.08,5.56h5.39c.45-.23.82-3.44,1.07-5.57.51-4.31.8-6.06,1.65-6.06s1.14,1.75,1.65,6.06c.24,2.13.62,5.34,1.09,5.58h18.89a.31.31,0,0,1,.28.07.29.29,0,0,1,0,.42A.32.32,0,0,1,767.94,762.14Z"/><path class="cls-5" d="M729.87,762.13h-.08c-.77-.22-1.09-1.56-1.45-3.12-.25-1.06-.62-2.67-1.06-2.67s-.82,1.61-1.07,2.68c-.36,1.55-.67,2.89-1.43,3.11a.29.29,0,0,1-.37-.21.3.3,0,0,1,.21-.37c.42-.12.76-1.59,1-2.66.39-1.69.73-3.15,1.65-3.15s1.25,1.45,1.64,3.13c.25,1.08.6,2.56,1,2.68a.3.3,0,0,1-.08.59Z"/><path class="cls-5" d="M724.57,762.14h-8.13a.49.49,0,0,1-.21,0,.3.3,0,0,1-.13-.41.29.29,0,0,1,.35-.15h8.11a.3.3,0,0,1,.35.15.31.31,0,0,1-.12.41A.53.53,0,0,1,724.57,762.14Zm-.06-.58Z"/><path class="cls-5" d="M716.31,762.13h-.08c-.76-.22-1.07-1.55-1.43-3.1-.25-1.07-.63-2.69-1.08-2.69s-.81,1.61-1.06,2.68c-.36,1.55-.67,2.89-1.44,3.11a.3.3,0,0,1-.37-.21.31.31,0,0,1,.21-.37c.42-.12.77-1.59,1-2.66.39-1.69.72-3.15,1.64-3.15s1.27,1.46,1.66,3.16c.25,1.07.59,2.53,1,2.65a.29.29,0,0,1,.2.37A.28.28,0,0,1,716.31,762.13Z"/><path class="cls-5" d="M711,762.14h-.13l0,0c-.74-.24-1-2-1.5-6.08-.24-2.11-.61-5.3-1.07-5.53-.41.24-.78,3.43-1,5.54-.47,4-.75,5.81-1.47,6.06l0,0H678.37l-.13-.1a.31.31,0,0,1,0-.42.32.32,0,0,1,.3-.08h27.05c.45-.23.82-3.43,1.07-5.55.5-4.32.79-6.08,1.64-6.08s1.15,1.75,1.65,6.06c.25,2.13.63,5.34,1.09,5.58a.28.28,0,0,1,.32.15.3.3,0,0,1-.13.41A.49.49,0,0,1,711,762.14Zm-.06-.58h0Z"/><path class="cls-5" d="M678.44,762.13l-.12,0c-.73-.3-1-2.83-1.48-9-.25-3.25-.59-7.66-1.06-8.41-.46.75-.8,5.14-1,8.38-.48,6.15-.75,8.69-1.48,9a.3.3,0,0,1-.39-.16.31.31,0,0,1,.15-.39c.49-.43.86-5.08,1.12-8.48.54-7,.82-9,1.65-9s1.12,2,1.66,9c.26,3.39.63,8,1.12,8.45a.3.3,0,0,1,.16.39A.31.31,0,0,1,678.44,762.13Z"/><path class="cls-5" d="M673.07,762.14h-8.26l-.08-.08c-.65-.54-.91-4.08-1.44-17.66-.27-7-.61-15.73-1.12-17.11-.41.77-.75,5.15-1,8.4-.54,7-.82,9-1.65,9-.42.39-.78,5-1,8.42-.48,6.17-.75,8.72-1.49,9a.3.3,0,0,1-.39-.17.3.3,0,0,1,.15-.38c.5-.43.87-5.1,1.13-8.52.54-6.95.83-9,1.65-9,.43-.38.79-5,1.05-8.43.55-7,.83-9,1.67-9s1.07,2.82,1.65,17.77c.28,7.23.63,16.2,1.16,17.17h8a.31.31,0,0,1,.29.07.29.29,0,0,1,0,.42A.35.35,0,0,1,673.07,762.14Z"/><path class="cls-5" d="M656.8,762.14H629.58l-.09-.09h0c-.64-.6-.9-4.7-1.43-20.48-.26-7.87-.58-17.48-1.06-19.78-.48,2.29-.8,11.87-1.06,19.71-.52,15.8-.79,19.93-1.43,20.55h0l-.09.09H618.8l-.13,0a.32.32,0,0,1-.13-.41.31.31,0,0,1,.36-.15h5.27c.54-1.1.89-11.6,1.17-20.07.61-18.25.88-20.69,1.65-20.69s1.06,2.45,1.67,20.76c.28,8.44.63,18.9,1.17,20h26.92a.31.31,0,0,1,.29.07.29.29,0,0,1,0,.42A.35.35,0,0,1,656.8,762.14Zm-32.58-.6h0Z"/><path class="cls-5" d="M608,762.14h-11l-.13-.1a.31.31,0,0,1,0-.42.32.32,0,0,1,.3-.08h10.69c.54-.81.88-8.28,1.16-14.31.54-11.41.8-14.34,1.47-14.75.59-1.83.94-27,1.24-49.26.62-45.2.86-49.8,1.65-49.8.47,0,.75,0,1.11,19.49.21,11.51.39,27.1.56,42.18.3,27.35.64,58.29,1.24,60.66.77.19,1.09,1.56,1.45,3.11.25,1.08.6,2.56,1,2.68a.31.31,0,0,1,.21.37.3.3,0,0,1-.37.21c-.77-.22-1.09-1.56-1.45-3.12-.25-1.06-.62-2.67-1.06-2.67s-.75,0-1.11-19.33c-.21-11.42-.38-26.92-.54-41.91-.28-24.73-.59-52.36-1.08-59.49-.48,6.23-.77,28.06-1,47.63-.62,45.15-.86,49.79-1.65,49.8a.17.17,0,0,0,.12,0c-.54.62-.89,8.2-1.18,14.28-.53,11.52-.81,14.43-1.47,14.82l-.05,0Zm0-.61h0Zm2.74-28.5Z"/><path class="cls-5" d="M591.79,762.14a.31.31,0,0,1-.3-.25.3.3,0,0,1,.22-.33c.49-.47.85-5.08,1.11-8.45.54-7,.83-9,1.66-9s1.11,2,1.65,9c.26,3.41.63,8.08,1.12,8.48a.3.3,0,0,1,.16.39.32.32,0,0,1-.4.16c-.74-.3-1-2.84-1.48-9-.25-3.24-.59-7.63-1-8.38-.47.75-.81,5.16-1.06,8.41-.54,6.85-.81,8.86-1.58,9Z"/><path class="cls-5" d="M567.37,762.14c-.48,0-.74,0-1.1-28.38-.21-16.86-.38-39.74-.55-61.87-.28-37.78-.57-76.68-1.06-87.51-.48,10.81-.77,49.56-1,87.2-.17,22.19-.34,45.13-.55,62.06-.36,28.5-.64,28.5-1.11,28.5a.3.3,0,0,1-.3-.3.32.32,0,0,1,.07-.19c.63-2.14,1-46.84,1.29-90.08.16-22.19.33-45.13.54-62.06.36-28.5.64-28.5,1.11-28.5s.75,0,1.11,28.62c.21,17,.39,40,.55,62.26.33,43.08.66,87.63,1.28,89.76a.26.26,0,0,1,.07.19A.29.29,0,0,1,567.37,762.14Z"/><path class="cls-5" d="M488.79,762.14a.3.3,0,0,1-.29-.22.33.33,0,0,1,.11-.32c.58-1.15.92-15.85,1.22-28.83.61-26.56.88-29.46,1.65-29.46h2.72c.86,0,1.15,1.76,1.65,6.09.24,2.12.62,5.32,1.07,5.56h0c.84,0,1.13,1.77,1.63,6.1.25,2.11.62,5.31,1.08,5.54h0c.79,0,1.05,2.84,1.63,17.78.28,7.29.63,16.34,1.18,17.2a.28.28,0,0,1,.15.31.29.29,0,0,1-.34.25c-.76-.13-1-3.11-1.59-17.74-.28-7.25-.63-16.24-1.16-17.21-.78-.15-1.06-1.94-1.54-6.06-.25-2.13-.63-5.34-1.09-5.58h0c-.84,0-1.13-1.76-1.63-6.08-.24-2.12-.62-5.32-1.07-5.56h-2.55c-.57,1.52-.9,16-1.2,28.87-.56,24.22-.83,29.16-1.56,29.35Z"/><path class="cls-5" d="M488.77,762.14h0c-.76-.12-1-3.12-1.6-17.79-.27-6.84-.59-15.23-1.08-16.94-.46,1.32-.78,6.93-1,11.12-.58,10-.86,12-1.66,12h-5.42c-.44.23-.81,3.44-1.06,5.56-.49,4.29-.78,6-1.62,6.08a.3.3,0,0,1,0-.59c.45-.27.82-3.45,1.07-5.55.5-4.34.79-6.1,1.65-6.1h5.35c.51-.71.87-6.88,1.13-11.4.58-9.9.86-11.9,1.65-11.9s1.08,2.82,1.66,17.72c.28,7.32.63,16.4,1.18,17.26a.28.28,0,0,1,.16.31A.29.29,0,0,1,488.77,762.14Z"/><path class="cls-5" d="M475.21,762.14h0c-.76-.15-1-3.63-1.6-20.71-.28-8.47-.63-19-1.17-20.06-.4-.13-.66-1.52-1-16.66-.21-9.84-.39-23.16-.55-36.05-.27-20.72-.57-43.83-1-50.42-.5,7.5-.8,36.41-1.08,62.28-.65,61.23-.91,64.15-1.65,64.15-.42.39-.79,5.05-1,8.45-.53,6.87-.8,8.89-1.58,9a.29.29,0,0,1-.34-.25.28.28,0,0,1,.21-.33c.49-.47.85-5.1,1.11-8.48.5-6.38.77-8.62,1.45-9,.6-2.26.95-34.82,1.25-63.6.17-15.79.34-32.12.56-44.18.36-20.39.64-20.39,1.11-20.39s.74,0,1.1,16.67c.21,9.83.38,23.15.55,36,.3,23.66.65,50.45,1.25,52.2.63.51.9,4,1.45,20.56.29,8.57.64,19.23,1.2,20.17a.32.32,0,0,1,.15.32A.3.3,0,0,1,475.21,762.14Zm.06-.59Zm-2.76-40.77Z"/><path class="cls-5" d="M464.37,762.15h-.06c-.78-.13-1.05-2.15-1.59-9-.25-3.23-.59-7.59-1.05-8.35-.46.76-.8,5.12-1.05,8.35-.53,6.9-.81,8.92-1.59,9a.28.28,0,0,1-.34-.25.28.28,0,0,1,.21-.33c.5-.47.86-5.12,1.12-8.52.55-6.95.83-9,1.65-9s1.11,2,1.65,9c.27,3.42.63,8.11,1.14,8.51a.28.28,0,0,1,.22.34A.31.31,0,0,1,464.37,762.15Z"/><path class="cls-5" d="M458.94,762.15h-.07c-.77-.17-1-2.84-1.57-11.93-.26-4.52-.62-10.68-1.13-11.36-.43-.11-.68-2.13-1-38.36-.21-22.85-.38-53.85-.55-83.84-.28-50.91-.57-103.32-1.06-118.34-.48,15.65-.77,71.95-1.05,126.65-.17,32.22-.34,65.53-.55,90.11-.36,41.26-.62,41.26-1.11,41.26S450,758,449.76,759c-.38,1.62-.71,3-1.56,3.12a.28.28,0,0,1-.33-.26.29.29,0,0,1,.26-.33c.43,0,.8-1.63,1-2.67.37-1.55.68-2.9,1.44-3.12.62-3.72.95-68.31,1.28-130.8.16-32.21.33-65.51.55-90.07.35-41.23.62-41.23,1.1-41.23s.75,0,1.11,38.66c.21,23,.39,54.19.55,84.33.33,58.29.66,118.54,1.28,121.68.63.42.91,2.95,1.42,11.85.27,4.59.64,10.88,1.16,11.4a.27.27,0,0,1,.2.34A.32.32,0,0,1,458.94,762.15Z"/><path class="cls-5" d="M448.11,762.14H448c-.74-.16-1-4.12-1.57-23.56-.26-9.06-.59-20.15-1.08-22.63-.46,2.06-.78,10.19-1,16.85-.58,14.89-.84,17.7-1.65,17.7-.44.23-.81,3.43-1.06,5.54-.5,4.3-.78,6.06-1.63,6.1a.28.28,0,0,1-.31-.28.29.29,0,0,1,.27-.31c.46-.26.83-3.46,1.08-5.57.48-4.13.76-5.92,1.54-6.07.53-1,.88-9.92,1.16-17.14.58-15,.85-17.81,1.66-17.81s1,2.32,1.66,23.6c.28,9.82.64,22,1.2,23a.3.3,0,0,1,.13.32A.29.29,0,0,1,448.11,762.14Z"/><path class="cls-5" d="M440,762.15h-.07c-.77-.17-1-2.84-1.57-11.93-.26-4.52-.62-10.68-1.13-11.36-.43-.13-.69-2.35-1-42-.21-25-.38-59-.55-91.82-.28-55.76-.57-113.15-1.06-129.62-.48,17.1-.77,78.36-1.06,137.89-.16,35.08-.33,71.36-.55,98.12-.35,44.9-.62,44.9-1.1,44.9-.86,0-1.16-1.77-1.66-6.11-.24-2.05-.59-5.1-1-5.52-.47.65-.82,5.13-1.07,8.42-.54,6.87-.81,8.89-1.58,9a.3.3,0,0,1-.35-.25.3.3,0,0,1,.21-.33c.5-.47.86-5.1,1.12-8.48.54-7,.82-9,1.65-9s1.14,1.76,1.64,6.08a30.7,30.7,0,0,0,.88,5.27c.6-6.56.93-75.43,1.24-142.12.17-35.06.34-71.32.55-98.07.36-44.87.62-44.87,1.11-44.87s.75,0,1.11,42.32c.21,25.2.38,59.34.55,92.36.32,63.92.66,130,1.28,133.29.63.43.9,3,1.42,11.85.27,4.59.63,10.88,1.15,11.4a.26.26,0,0,1,.2.34A.31.31,0,0,1,440,762.15Z"/><path class="cls-5" d="M412.9,762.14a.3.3,0,0,1-.29-.22.33.33,0,0,1,.11-.32c.58-1.15.92-15.86,1.22-28.85.61-26.55.88-29.44,1.65-29.44s1.09,2,1.67,12c.26,4.52.62,10.68,1.13,11.34.75.19,1,3.31,1.57,17.71.29,7.31.64,16.4,1.19,17.26a.29.29,0,0,1,.16.31.3.3,0,0,1-.35.25c-.76-.12-1-3.12-1.6-17.8-.28-7.23-.63-16.21-1.17-17.15-.71-.21-1-2.48-1.53-11.88-.24-4.12-.56-9.6-1-11.08-.51,2.62-.83,16.33-1.11,28.53-.56,24.24-.83,29.18-1.56,29.37Z"/><path class="cls-5" d="M404.74,762.14h-.06c-.75-.16-1-4.12-1.57-23.55-.27-9.23-.6-20.56-1.11-22.77-.45,1.41-.77,7-1,11.14-.56,9.56-.84,11.75-1.58,11.89-.5.67-.85,6.57-1.12,11.32-.54,9.12-.81,11.8-1.58,12a.3.3,0,0,1-.18-.57c.52-.61.89-6.86,1.16-11.44.56-9.54.83-11.73,1.57-11.87.51-.68.86-6.82,1.13-11.33.58-10,.86-12,1.66-12s1,2.32,1.66,23.62c.28,9.8.63,22,1.19,23a.31.31,0,0,1,.14.32A.3.3,0,0,1,404.74,762.14Z"/><path class="cls-5" d="M361.4,762.14a.3.3,0,0,1-.1-.58c.52-.63.88-6.81,1.14-11.33.58-10,.86-12,1.67-12h2.61c.53-.88.87-8.32,1.15-14.32.58-12.46.85-14.81,1.66-14.81s1,2.43,1.65,20.67c.28,8.48.63,19,1.17,20.11.83.12,1.16,1.53,1.53,3.15.25,1.06.63,2.67,1.06,2.67s.81-1.61,1.06-2.67c.4-1.7.74-3.16,1.66-3.16s1.15,1.76,1.65,6.1c.25,2.11.62,5.31,1.08,5.55a.29.29,0,0,1,.27.31.33.33,0,0,1-.33.28c-.83,0-1.12-1.79-1.61-6.08-.25-2.12-.62-5.33-1.08-5.56-.43,0-.8,1.62-1.05,2.69-.39,1.69-.73,3.14-1.65,3.14s-1.25-1.46-1.64-3.14c-.25-1.07-.63-2.69-1.07-2.69-.77,0-1.05-2.43-1.65-20.68-.27-7.94-.59-17.68-1.08-19.79-.46,1.68-.77,8.42-1,13.93-.58,12.53-.85,14.9-1.66,14.9h-2.63c-.52.7-.88,6.88-1.14,11.41-.54,9.26-.8,11.78-1.6,11.87Z"/><path class="cls-5" d="M353.24,762.14h-.1c-.72-.26-1-8.13-1.53-46.8-.27-18.64-.57-39.47-1.06-45.07-.48,5.59-.78,26.33-1.05,44.9-.56,38.81-.83,46.71-1.55,47a.3.3,0,0,1-.31-.5c.61-1.47.95-25.38,1.26-46.48.62-42.47.86-46.78,1.65-46.78.45,0,.75,0,1.11,14.88.21,8.75.38,20.61.55,32.08.3,21,.65,44.83,1.24,46.3a.31.31,0,0,1,.08.32A.3.3,0,0,1,353.24,762.14Z"/><path class="cls-5" d="M320.87,762.14a.31.31,0,0,1-.3-.24.3.3,0,0,1,.14-.31c.56-1,.91-11.57,1.19-20.11.61-18.26.88-20.7,1.66-20.7s1.12,2,1.66,9.05c.26,3.39.63,8,1.12,8.45h0c.71,0,1,2,1.53,12,.26,4.76.59,10.68,1.08,11.32a.31.31,0,0,1,.19.32.29.29,0,0,1-.33.26c-.74-.08-1-2.08-1.54-11.87-.25-4.53-.6-10.72-1.09-11.42-.76-.14-1.05-2.26-1.57-9-.24-3.13-.57-7.32-1-8.31-.51,1.78-.84,11.8-1.11,19.94-.56,17-.83,20.49-1.58,20.64Z"/><path class="cls-5" d="M307.29,762.14h0c-.83,0-1.12-1.79-1.62-6.06-.24-2.13-.62-5.35-1.09-5.58-.41.23-.79,3.44-1,5.56-.5,4.29-.78,6-1.62,6.08a.3.3,0,0,1-.05-.59c.46-.27.83-3.45,1.07-5.56.5-4.33.79-6.09,1.65-6.09s1.16,1.77,1.67,6.12c.25,2.1.62,5.29,1.07,5.53a.29.29,0,0,1,.28.31A.31.31,0,0,1,307.29,762.14Z"/><path class="cls-5" d="M163.67,762.14a.29.29,0,0,1-.3-.29.3.3,0,0,1,.29-.31c.43,0,.8-1.6,1.05-2.66.39-1.69.73-3.15,1.66-3.15.43-.39.79-5.05,1-8.46.54-7,.82-9,1.65-9s1.09,2,1.67,12c.25,4.42.6,10.42,1.1,11.29.41-.44.76-3.48,1-5.52.47-4,.75-5.84,1.48-6.06.59-1.69.93-20.81,1.24-37.72.61-34.28.87-38,1.65-38s1,3.16,1.65,32.21c.27,12.9.58,27.34,1.06,31.06.48-3.72.78-18.1,1.05-31,.62-29.15.88-32.32,1.66-32.32s1,4,1.65,40.91c.3,18,.63,38.3,1.21,40.56a7.2,7.2,0,0,0,.91-2.62c.39-1.69.73-3.15,1.64-3.15s1.15,1.76,1.65,6.07c.25,2.13.63,5.34,1.09,5.58a.29.29,0,0,1,.29.3.3.3,0,0,1-.31.29c-.86,0-1.16-1.76-1.66-6.1-.25-2.11-.62-5.31-1.08-5.54-.41,0-.79,1.61-1,2.68-.4,1.69-.73,3.15-1.65,3.15s-1-4.05-1.66-41.21c-.28-16.42-.58-34.81-1.07-39.39-.47,3.94-.77,18.12-1,30.8-.61,29.15-.87,32.33-1.65,32.33s-1-3.19-1.66-32.44c-.27-12.69-.57-26.86-1-30.74-.49,4.31-.79,21.33-1.06,36.54-.62,34.52-.89,38.28-1.67,38.28-.43.23-.81,3.44-1.05,5.56-.5,4.32-.79,6.08-1.65,6.08s-1.08-2-1.65-11.88c-.26-4.43-.61-10.45-1.11-11.35-.41.63-.75,5.11-1,8.41-.54,7-.82,9-1.65,9-.45,0-.83,1.62-1.08,2.69-.38,1.66-.72,3.1-1.62,3.12Z"/><path class="cls-5" d="M161,762.14c-.78,0-1-2.32-1.66-23.66-.27-8.94-.58-19.87-1.07-22.46-.46,2.38-.78,11.82-1,19.56-.61,18.31-.88,20.75-1.66,20.75s-1.25-1.46-1.65-3.15c-.24-1.07-.62-2.68-1.05-2.68-.44.23-.81,3.43-1.06,5.54-.5,4.34-.8,6.1-1.66,6.1a.29.29,0,0,1-.3-.3.3.3,0,0,1,.28-.3c.47-.26.84-3.45,1.09-5.57.5-4.31.79-6.07,1.65-6.07s1.25,1.46,1.64,3.15c.23,1,.56,2.43.95,2.65.55-1.31.89-11.72,1.17-20.14.62-18.58.88-20.6,1.65-20.6s1,2.31,1.65,23.5c.29,9.83.65,22,1.21,23.12a.29.29,0,0,1,.16.26A.29.29,0,0,1,161,762.14Z"/><path class="cls-5" d="M147.4,762.14c-.82,0-1.09-2.83-1.67-17.82-.27-7-.61-15.64-1.12-17-.39.78-.73,5.14-1,8.37-.54,7-.82,9-1.65,9-.44.39-.8,5.07-1.07,8.49-.54,7-.82,9-1.65,9a.3.3,0,0,1,0-.59c.49-.49.84-5.08,1.1-8.43.55-7,.83-9,1.67-9,.43-.38.79-5.05,1.05-8.46.54-7,.82-9,1.65-9s1.07,2.81,1.65,17.7c.29,7.3.64,16.37,1.18,17.27a.29.29,0,0,1,.19.27A.3.3,0,0,1,147.4,762.14Z"/><path class="cls-5" d="M591.79,762.14h-495a.3.3,0,0,1-.3-.3.31.31,0,0,1,.3-.3h992a.3.3,0,0,1,.3.3.29.29,0,0,1-.3.3Z"/><path d="M286.87,180.86c0,1.06.91,1.79,2.38,1.79s2.44-.64,2.44-1.73c0-2.53-6.32-.52-6.32-4.52,0-1.76,1.52-3,3.9-3s3.84,1.12,3.84,2.93h-1.66c0-1-.93-1.62-2.18-1.62s-2.22.54-2.22,1.56c0,2.52,6.37.48,6.37,4.56,0,1.89-1.52,3.17-4.17,3.17s-4-1.22-4-3.1Z"/><path d="M296.9,187.05h-1.61V176.52h1.55v1.08h.06a2.52,2.52,0,0,1,2.41-1.26c1.83,0,3.24,1.34,3.24,3.75s-1.5,3.87-3.36,3.87a2.36,2.36,0,0,1-2.29-1.27h-.06c.06.95.06,1.95.06,2.44Zm2-9.42c-1.11,0-1.95.88-2,2.4v.12c0,1.59.86,2.51,2,2.51s2-1,2-2.57S300,177.63,298.9,177.63Z"/><path d="M307.41,176.34a3.21,3.21,0,0,1,3.39,3.54v.54h-5.34c.09,1.41.85,2.27,2,2.27a1.58,1.58,0,0,0,1.68-1.11h1.57a3.08,3.08,0,0,1-3.27,2.38c-2.32,0-3.64-1.42-3.64-3.8A3.54,3.54,0,0,1,307.41,176.34Zm-1.88,3h3.63c-.13-1.21-.74-1.74-1.75-1.74A1.93,1.93,0,0,0,305.53,179.33Z"/><path d="M313.79,184.67c0,.8.77,1.29,1.83,1.29,1.29,0,2.17-.65,2.17-2.55v-.72h-.06a2.5,2.5,0,0,1-2.41,1.27c-1.83,0-3.24-1.34-3.24-3.75s1.5-3.87,3.36-3.87a2.36,2.36,0,0,1,2.29,1.26h.06v-1.08h1.54v6.89c0,2.73-1.58,3.76-3.71,3.76-1.93,0-3.32-.83-3.35-2.5Zm1.93-2c1.15,0,2-.92,2-2.51V180c-.05-1.52-.88-2.4-2-2.4s-2,1-2,2.58S314.59,182.66,315.72,182.66Z"/><path d="M321.51,176.52h1.55v1h.06a2.34,2.34,0,0,1,2.25-1.23c1.44,0,2.72.77,2.72,3v4.41h-1.61v-4.2c0-1.44-.61-1.93-1.54-1.93s-1.82.87-1.82,2.33v3.8h-1.61Z"/><path d="M330.1,172.89h1.73v1.63H330.1Zm.06,3.63h1.61v7.26h-1.61Z"/><path d="M334,176.52h1.55v1h.06a2.58,2.58,0,0,1,4.51.21,2.48,2.48,0,0,1,2.44-1.44c1.41,0,2.57.77,2.57,2.94v4.5h-1.61v-4.3c0-1.36-.47-1.83-1.39-1.83s-1.76.86-1.76,2.3v3.83h-1.61v-4.3c0-1.36-.52-1.83-1.39-1.83s-1.76.86-1.76,2.32v3.81H334Z"/><path d="M350.23,176.34a3.21,3.21,0,0,1,3.39,3.54v.54h-5.34c.09,1.41.85,2.27,2,2.27a1.57,1.57,0,0,0,1.68-1.11h1.58a3.08,3.08,0,0,1-3.27,2.38c-2.32,0-3.65-1.42-3.65-3.8A3.55,3.55,0,0,1,350.23,176.34Zm-1.87,3H352c-.14-1.21-.75-1.74-1.76-1.74A1.92,1.92,0,0,0,348.36,179.33Z"/><path d="M355.25,176.52h1.54v1h.06a2.34,2.34,0,0,1,2.25-1.23c1.44,0,2.72.77,2.72,3v4.41h-1.6v-4.2c0-1.44-.61-1.93-1.55-1.93s-1.82.87-1.82,2.33v3.8h-1.6Z"/><path d="M364,177.77h-1.37v-1.25H364v-2.2h1.61v2.2h1.86v1.25h-1.86v3.6c0,.77.27,1.07,1,1.07h.85v1.34h-1.12c-1.66,0-2.35-.7-2.35-2.32Z"/><path d="M372.15,176.34a3.49,3.49,0,0,1,3.71,3.81,3.55,3.55,0,0,1-3.71,3.81,3.5,3.5,0,0,1-3.7-3.81A3.56,3.56,0,0,1,372.15,176.34Zm0,6.32c1.22,0,2-1,2-2.51s-.82-2.52-2-2.52-2,1-2,2.52S370.93,182.66,372.15,182.66Z"/><path d="M285.5,195.12h1.55v1h.05a2,2,0,0,1,1.91-1.23,1.69,1.69,0,0,1,1,.3l-.42,1.43a1.89,1.89,0,0,0-.89-.24c-1.09,0-1.61,1-1.61,2.32v3.63H285.5Z"/><path d="M291.05,191.49h1.73v1.63h-1.73Zm.06,3.63h1.61v7.26h-1.61Z"/><path d="M295.9,200.29c0,.81.82,1.14,1.61,1.14,1.12,0,1.67-.39,1.67-1.06s-.37-.76-1.1-.88l-1.34-.24c-1.12-.17-2.19-.62-2.19-2s1.32-2.32,3-2.32,3,.68,3,2.2h-1.5c0-.71-.64-1.07-1.5-1.07s-1.49.36-1.49,1,.34.74,1.2.89l1.34.22c1.15.2,2.15.64,2.15,2,0,1.59-1.34,2.38-3.28,2.38s-3.14-.75-3.14-2.27Z"/><path d="M305.58,194.94a3,3,0,0,1,3.3,2.66h-1.59a1.6,1.6,0,0,0-1.71-1.37c-1.13,0-1.95,1-1.95,2.52s.82,2.51,1.95,2.51a1.58,1.58,0,0,0,1.71-1.37h1.59a3,3,0,0,1-3.3,2.67c-2.24,0-3.62-1.43-3.62-3.81A3.52,3.52,0,0,1,305.58,194.94Z"/><path d="M312.56,198.3l1.41-.24c.71-.12.94-.21.94-.49a1.28,1.28,0,0,0-1.43-1.43,1.35,1.35,0,0,0-1.53,1.28h-1.54c.09-1.5,1.25-2.48,3.07-2.48,2,0,3,1,3,2.66v4.78H315v-.91h-.07a2.61,2.61,0,0,1-2.32,1.09c-1.6,0-2.46-.82-2.46-2S310.84,198.58,312.56,198.3Zm2.35.43a1.23,1.23,0,0,1-.75.35l-1.25.2c-.85.14-1.17.51-1.17,1.07s.41,1,1.23,1a1.83,1.83,0,0,0,1.94-1.95Z"/><path d="M318.6,191.49h1.6v10.89h-1.6Z"/><path d="M325.25,194.94a2.37,2.37,0,0,1,2.29,1.26h.06c-.08-.95-.08-1.94-.08-2.44v-2.27h1.61v10.89H327.6v-1.09h-.06a2.51,2.51,0,0,1-2.41,1.27c-1.83,0-3.24-1.34-3.24-3.75S323.39,194.94,325.25,194.94Zm.28,6.32c1.15,0,2-.92,2-2.51s-.84-2.52-2-2.52-2,1-2,2.58S324.4,201.26,325.53,201.26Z"/><path d="M333.33,198.3l1.41-.24c.72-.12.94-.21.94-.49a1.27,1.27,0,0,0-1.43-1.43,1.36,1.36,0,0,0-1.53,1.28h-1.53c.09-1.5,1.25-2.48,3.06-2.48,2,0,3,1,3,2.66v4.78h-1.54v-.91h-.07a2.6,2.6,0,0,1-2.32,1.09c-1.59,0-2.46-.82-2.46-2S331.62,198.58,333.33,198.3Zm2.35.43a1.2,1.2,0,0,1-.74.35l-1.25.2c-.85.14-1.18.51-1.18,1.07s.42,1,1.24,1a1.83,1.83,0,0,0,1.93-1.95Z"/><path d="M339.37,195.12h1.55v1H341a2.57,2.57,0,0,1,4.5.21,2.49,2.49,0,0,1,2.44-1.44c1.42,0,2.58.77,2.58,2.94v4.5h-1.61v-4.3c0-1.36-.47-1.83-1.4-1.83s-1.75.86-1.75,2.3v3.83h-1.61v-4.3c0-1.36-.52-1.83-1.4-1.83s-1.75.86-1.75,2.32v3.81h-1.61Z"/><path d="M355.65,194.94a3.21,3.21,0,0,1,3.39,3.54V199H353.7c.09,1.41.85,2.27,2,2.27a1.58,1.58,0,0,0,1.68-1.11H359a3.1,3.1,0,0,1-3.28,2.38c-2.32,0-3.64-1.42-3.64-3.8A3.55,3.55,0,0,1,355.65,194.94Zm-1.88,3h3.63c-.13-1.21-.74-1.74-1.75-1.74A1.93,1.93,0,0,0,353.77,197.93Z"/><path d="M360.66,195.12h1.55v1h.06a2.32,2.32,0,0,1,2.25-1.23c1.44,0,2.72.77,2.72,3v4.41h-1.61v-4.2c0-1.44-.61-1.93-1.54-1.93s-1.82.88-1.82,2.33v3.8h-1.61Z"/><path d="M369.46,196.37h-1.37v-1.25h1.37v-2.2h1.61v2.2h1.85v1.25h-1.85V200c0,.77.26,1.07,1,1.07h.84v1.34h-1.11c-1.67,0-2.35-.7-2.35-2.32Z"/><path d="M374.31,191.49H376v1.63h-1.73Zm.06,3.63H376v7.26h-1.61Z"/><path d="M890.09,173.54h2l3.8,10.24H894.1l-.87-2.49h-4.38l-.88,2.49h-1.69Zm.93,1.67-1.66,4.68h3.37l-1.65-4.68Z"/><path d="M900.37,176.34a3,3,0,0,1,3.3,2.66h-1.59a1.59,1.59,0,0,0-1.71-1.37c-1.13,0-2,1-2,2.52s.82,2.51,2,2.51a1.58,1.58,0,0,0,1.71-1.37h1.59a3,3,0,0,1-3.3,2.67c-2.23,0-3.62-1.43-3.62-3.81A3.52,3.52,0,0,1,900.37,176.34Z"/><path d="M908.48,176.34a3,3,0,0,1,3.3,2.66h-1.59a1.6,1.6,0,0,0-1.71-1.37c-1.13,0-2,1-2,2.52s.82,2.51,2,2.51a1.58,1.58,0,0,0,1.71-1.37h1.59a3,3,0,0,1-3.3,2.67c-2.23,0-3.62-1.43-3.62-3.81A3.52,3.52,0,0,1,908.48,176.34Z"/><path d="M916.57,176.34a3.21,3.21,0,0,1,3.39,3.54v.54h-5.34c.09,1.41.85,2.27,2,2.27a1.57,1.57,0,0,0,1.68-1.11h1.58a3.08,3.08,0,0,1-3.27,2.38c-2.32,0-3.65-1.42-3.65-3.8A3.55,3.55,0,0,1,916.57,176.34Zm-1.87,3h3.63c-.13-1.21-.75-1.74-1.76-1.74A1.92,1.92,0,0,0,914.7,179.33Z"/><path d="M921.59,176.52h1.55v1h.06a2.32,2.32,0,0,1,2.24-1.23c1.44,0,2.72.77,2.72,3v4.41h-1.6v-4.2c0-1.44-.61-1.93-1.55-1.93s-1.81.87-1.81,2.33v3.8h-1.61Z"/><path d="M931.23,181.69c0,.81.82,1.14,1.61,1.14,1.11,0,1.66-.39,1.66-1.06s-.37-.76-1.1-.88l-1.34-.24c-1.11-.18-2.18-.62-2.18-2s1.32-2.32,3-2.32,3,.68,3,2.2h-1.51c0-.71-.63-1.07-1.5-1.07s-1.49.36-1.49,1,.35.74,1.21.89l1.34.22c1.14.19,2.14.64,2.14,2,0,1.59-1.34,2.38-3.27,2.38s-3.14-.75-3.14-2.27Z"/><path d="M937.75,172.89h1.72v1.63h-1.72Zm.06,3.63h1.6v7.26h-1.6Z"/><path d="M944.8,176.34a3.49,3.49,0,0,1,3.71,3.81A3.55,3.55,0,0,1,944.8,184a3.5,3.5,0,0,1-3.7-3.81A3.56,3.56,0,0,1,944.8,176.34Zm0,6.32c1.22,0,2-1,2-2.51s-.82-2.52-2-2.52-2,1-2,2.52S943.58,182.66,944.8,182.66Z"/><path d="M950.19,176.52h1.55v1h0a2.35,2.35,0,0,1,2.25-1.23c1.44,0,2.72.77,2.72,3v4.41h-1.6v-4.2c0-1.44-.61-1.93-1.55-1.93s-1.82.87-1.82,2.33v3.8h-1.6Z"/><path d="M961.91,176.34a3.22,3.22,0,0,1,3.4,3.54v.54H960c.09,1.41.85,2.27,2,2.27a1.56,1.56,0,0,0,1.68-1.11h1.58A3.08,3.08,0,0,1,962,184c-2.32,0-3.65-1.42-3.65-3.8A3.55,3.55,0,0,1,961.91,176.34Zm-1.87,3h3.63c-.13-1.21-.74-1.74-1.76-1.74A1.92,1.92,0,0,0,960,179.33Z"/><path d="M887.21,195.12h1.55v1h0a2,2,0,0,1,1.92-1.23,1.66,1.66,0,0,1,1,.3l-.42,1.43a1.89,1.89,0,0,0-.89-.24c-1.09,0-1.61,1-1.61,2.32v3.63h-1.61Z"/><path d="M892.77,191.49h1.72v1.63h-1.72Zm.06,3.63h1.6v7.26h-1.6Z"/><path d="M897.62,200.29c0,.81.81,1.14,1.6,1.14,1.12,0,1.67-.39,1.67-1.06s-.37-.76-1.1-.88l-1.34-.24c-1.12-.17-2.19-.62-2.19-2s1.33-2.32,3-2.32,3,.68,3,2.2h-1.5c0-.71-.64-1.07-1.5-1.07s-1.49.36-1.49,1,.34.74,1.21.89l1.33.22c1.15.2,2.15.64,2.15,2,0,1.59-1.34,2.38-3.28,2.38s-3.14-.75-3.14-2.27Z"/><path d="M907.29,194.94a3,3,0,0,1,3.3,2.66H909a1.6,1.6,0,0,0-1.71-1.37c-1.13,0-1.95,1-1.95,2.52s.82,2.51,1.95,2.51a1.58,1.58,0,0,0,1.71-1.37h1.59a3,3,0,0,1-3.3,2.67c-2.23,0-3.62-1.43-3.62-3.81A3.52,3.52,0,0,1,907.29,194.94Z"/><path d="M914.27,198.3l1.41-.24c.71-.12.94-.21.94-.49a1.27,1.27,0,0,0-1.43-1.43,1.36,1.36,0,0,0-1.53,1.28h-1.54c.09-1.5,1.25-2.48,3.07-2.48,2,0,3,1,3,2.66v4.78h-1.53v-.91h-.07a2.6,2.6,0,0,1-2.32,1.09c-1.6,0-2.46-.82-2.46-2S912.56,198.58,914.27,198.3Zm2.35.43a1.2,1.2,0,0,1-.75.35l-1.25.2c-.84.14-1.17.51-1.17,1.07s.42,1,1.23,1a1.83,1.83,0,0,0,1.94-1.95Z"/><path d="M920.31,191.49h1.61v10.89h-1.61Z"/><path d="M927,194.94a2.37,2.37,0,0,1,2.29,1.26h.06c-.07-.95-.07-1.94-.07-2.44v-2.27h1.6v10.89h-1.53v-1.09h-.06a2.51,2.51,0,0,1-2.41,1.27c-1.83,0-3.24-1.34-3.24-3.75S925.1,194.94,927,194.94Zm.28,6.32c1.15,0,2-.92,2-2.51s-.85-2.52-2-2.52-2,1-2,2.58S926.11,201.26,927.24,201.26Z"/><path d="M935,198.3l1.41-.24c.72-.12.94-.21.94-.49a1.27,1.27,0,0,0-1.43-1.43,1.36,1.36,0,0,0-1.53,1.28H932.9c.09-1.5,1.25-2.48,3.06-2.48,2,0,3,1,3,2.66v4.78h-1.54v-.91h-.07a2.59,2.59,0,0,1-2.32,1.09c-1.59,0-2.45-.82-2.45-2S933.33,198.58,935,198.3Zm2.35.43a1.2,1.2,0,0,1-.74.35l-1.25.2c-.85.14-1.18.51-1.18,1.07s.42,1,1.24,1a1.83,1.83,0,0,0,1.93-1.95Z"/><path d="M941.08,195.12h1.55v1h.06a2.58,2.58,0,0,1,4.51.21,2.47,2.47,0,0,1,2.44-1.44c1.41,0,2.57.77,2.57,2.94v4.5H950.6v-4.3c0-1.36-.47-1.83-1.4-1.83s-1.75.86-1.75,2.3v3.83h-1.61v-4.3c0-1.36-.52-1.83-1.4-1.83s-1.75.86-1.75,2.32v3.81h-1.61Z"/><path d="M957.36,194.94a3.21,3.21,0,0,1,3.39,3.54V199h-5.34c.09,1.41.85,2.27,2,2.27a1.57,1.57,0,0,0,1.68-1.11h1.58a3.09,3.09,0,0,1-3.27,2.38c-2.33,0-3.65-1.42-3.65-3.8A3.55,3.55,0,0,1,957.36,194.94Zm-1.87,3h3.63c-.14-1.21-.75-1.74-1.76-1.74A1.92,1.92,0,0,0,955.49,197.93Z"/><path d="M962.37,195.12h1.55v1H964a2.32,2.32,0,0,1,2.25-1.23c1.44,0,2.72.77,2.72,3v4.41h-1.61v-4.2c0-1.44-.61-1.93-1.54-1.93s-1.82.88-1.82,2.33v3.8h-1.61Z"/><path d="M971.17,196.37H969.8v-1.25h1.37v-2.2h1.61v2.2h1.86v1.25h-1.86V200c0,.77.26,1.07,1,1.07h.85v1.34h-1.12c-1.67,0-2.35-.7-2.35-2.32Z"/><path d="M976,191.49h1.73v1.63H976Zm.06,3.63h1.61v7.26h-1.61Z"/></svg>