<svg id="Livello_1" data-name="Livello 1" xmlns="http://www.w3.org/2000/svg" viewBox="0 0 1175.99 901"><defs><style>.cls-1{isolation:isolate;}.cls-2{fill:#b8b8b8;}.cls-3{fill:#efefef;}.cls-4{fill:#ff3a00;}</style></defs><g class="cls-1"><path d="M206.91,774.12h6.78v1.19h-5.42V779h4.29v1.19h-4.29v4.17h-1.36Z"/><path d="M215.48,774.12h6.9v1.19h-5.54v3.25h4.41v1.19h-4.41v3.42h5.66v1.19h-7Z"/><path d="M224.52,774.12h4.23c2.22,0,3.27,1,3.27,2.68a2.16,2.16,0,0,1-1.6,2.14V779a2.32,2.32,0,0,1,2,2.32c0,1.75-1.18,3-3.39,3h-4.53Zm1.37,1.19v3.16h2.86a1.67,1.67,0,0,0,1.9-1.68c0-.89-.53-1.48-1.9-1.48Zm0,4.35v3.51h3.16a1.76,1.76,0,0,0,2-1.83c0-1-.65-1.68-2-1.68Z"/></g><g class="cls-1"><path d="M132.34,782.87h-.05a3.6,3.6,0,0,1-3.34,1.67A5.3,5.3,0,0,1,129,774a4.29,4.29,0,0,1,4.47,3.21H132a2.9,2.9,0,0,0-3-2c-2.21,0-3.63,1.72-3.63,4s1.48,4,3.58,4c1.71,0,3.27-1,3.27-2.86v-.3H129v-1.19h4.47v5.42h-.89Z"/><path d="M135.91,774.12h6.9v1.19h-5.53v3.25h4.4v1.19h-4.4v3.42h5.65v1.19h-7Z"/><path d="M145,774.12h1.31L152,782H152l-.06-7.92h1.37v10.24H152l-5.65-7.86h-.06l.06,7.86H145Z"/></g><g class="cls-1"><path d="M284.71,774.12h1.67l3.76,8.4h0l3.71-8.4h1.66v10.24h-1.36l.11-8.09h-.05l-3.57,8.09h-1.08L286,776.44H286l.12,7.92h-1.37Z"/><path d="M300.84,774.12h1.61l3.81,10.24h-1.43l-1-2.68h-4.49l-1,2.68H297Zm.75,1.43-1.79,4.94h3.63l-1.78-4.94Z"/><path d="M307.75,774.12h3.87c2.33,0,3.57,1.12,3.57,3a2.94,2.94,0,0,1-2.25,3.05l2.6,4.15h-1.48l-2.55-4h-2.39v4h-1.37Zm1.37,1.19v3.87h2.56a1.94,1.94,0,0,0,2.14-2c0-1.13-.78-1.85-2.14-1.85Z"/></g><g class="cls-1"><path d="M372.51,774.12h1.61l3.8,10.24H376.5l-1-2.68H371l-1,2.68H368.7Zm.74,1.43-1.78,4.94h3.63l-1.79-4.94Z"/><path d="M379.41,774.12h3.87c2.34,0,3.63,1.36,3.63,3.28a3.3,3.3,0,0,1-3.63,3.39h-2.5v3.57h-1.37Zm1.37,1.19v4.29h2.56a2.06,2.06,0,0,0,2.2-2.2,2,2,0,0,0-2.2-2.09Z"/><path d="M388.88,774.12h3.87c2.33,0,3.57,1.12,3.57,3a2.94,2.94,0,0,1-2.25,3.05l2.6,4.15h-1.48l-2.55-4h-2.39v4h-1.37Zm1.37,1.19v3.87h2.56a1.94,1.94,0,0,0,2.14-2c0-1.13-.78-1.85-2.14-1.85Z"/></g><g class="cls-1"><path d="M450.31,774.12H452l3.77,8.4h0l3.7-8.4h1.67v10.24h-1.37l.12-8.09h-.06l-3.57,8.09h-1.07l-3.57-7.92h-.06l.11,7.92h-1.36Z"/><path d="M466.44,774.12H468l3.81,10.24h-1.43l-1-2.68H465l-1,2.68h-1.37Zm.74,1.43-1.78,4.94H469l-1.78-4.94Z"/><path d="M480.78,782.87h0a3.6,3.6,0,0,1-3.35,1.67,5.3,5.3,0,0,1,.06-10.59,4.28,4.28,0,0,1,4.46,3.21h-1.43a2.89,2.89,0,0,0-3-2c-2.22,0-3.63,1.72-3.63,4s1.47,4,3.57,4c1.71,0,3.27-1,3.27-2.86v-.3h-3.21v-1.19h4.46v5.42H481Z"/></g><g class="cls-1"><path d="M545.36,782.87h0a3.6,3.6,0,0,1-3.35,1.67A5.3,5.3,0,0,1,542,774a4.28,4.28,0,0,1,4.46,3.21h-1.42a2.91,2.91,0,0,0-3-2c-2.22,0-3.63,1.72-3.63,4s1.47,4,3.57,4c1.71,0,3.27-1,3.27-2.86v-.3H542v-1.19h4.46v5.42h-.89Z"/><path d="M548.94,774.12h1.36v10.24h-1.36Z"/><path d="M552.69,774.12h1.36v6.19c0,1.88.88,3,2.74,3s2.74-1.1,2.74-3v-6.19h1.37v6.19c0,3-1.68,4.23-4.11,4.23s-4.1-1.19-4.1-4.23Z"/></g><g class="cls-1"><path d="M618.76,774.12h1.37v9h5v1.19h-6.36Z"/><path d="M626.38,774.12h1.36v6.19c0,1.88.88,3,2.74,3s2.74-1.1,2.74-3v-6.19h1.37v6.19c0,3-1.68,4.23-4.11,4.23s-4.1-1.19-4.1-4.23Z"/><path d="M644.83,782.87h-.05a3.6,3.6,0,0,1-3.35,1.67,5.3,5.3,0,0,1,.06-10.59,4.3,4.3,0,0,1,4.47,3.21h-1.43a2.91,2.91,0,0,0-3-2c-2.21,0-3.63,1.72-3.63,4s1.48,4,3.57,4c1.71,0,3.28-1,3.28-2.86v-.3h-3.22v-1.19H646v5.42h-.9Z"/></g><g class="cls-1"><path d="M704.79,774.12h1.61l3.81,10.24h-1.43l-1-2.68h-4.49l-1,2.68H701Zm.75,1.43-1.79,4.94h3.63l-1.79-4.94Z"/><path d="M719.14,782.87h0a3.6,3.6,0,0,1-3.35,1.67A5.3,5.3,0,0,1,715.8,774a4.29,4.29,0,0,1,4.47,3.21h-1.43a2.91,2.91,0,0,0-3-2c-2.21,0-3.63,1.72-3.63,4s1.48,4,3.57,4c1.71,0,3.28-1,3.28-2.86v-.3H715.8v-1.19h4.47v5.42h-.9Z"/><path d="M727.05,774a5.3,5.3,0,0,1,0,10.59c-3,0-5-2.25-5-5.3S724.06,774,727.05,774Zm0,9.34c2.16,0,3.57-1.73,3.57-4s-1.41-4-3.57-4-3.57,1.72-3.57,4S724.9,783.29,727.05,783.29Z"/></g><g class="cls-1"><path d="M788.33,781.44c0,1.12,1,2,2.56,2s2.62-.7,2.62-1.91c0-2.7-6.4-.65-6.4-4.58,0-1.74,1.51-3,3.78-3s3.75,1.08,3.75,2.91h-1.37c0-1.13-1-1.78-2.38-1.78s-2.38.58-2.38,1.72c0,2.68,6.43.57,6.43,4.64,0,1.85-1.49,3.1-4.05,3.1s-3.93-1.25-3.93-3.1Z"/><path d="M797.08,774.12H804v1.19h-5.54v3.25h4.41v1.19h-4.41v3.42h5.66v1.19h-7Z"/><path d="M805,774.12h8.51v1.16h-3.57v9.08h-1.37v-9.08H805Z"/></g><g class="cls-1"><path d="M874.52,774a5.3,5.3,0,0,1,0,10.59c-3,0-5-2.25-5-5.3S871.53,774,874.52,774Zm0,9.34c2.16,0,3.57-1.73,3.57-4s-1.41-4-3.57-4-3.57,1.72-3.57,4S872.37,783.29,874.52,783.29Z"/><path d="M879.76,774.12h8.51v1.16H884.7v9.08h-1.37v-9.08h-3.57Z"/><path d="M888.51,774.12H897v1.16h-3.57v9.08h-1.37v-9.08h-3.57Z"/></g><g class="cls-1"><path d="M951.84,774.12h1.31l5.66,7.92h.06l-.06-7.92h1.36v10.24h-1.3l-5.66-7.86h-.06l.06,7.86h-1.37Z"/><path d="M967.14,774a5.3,5.3,0,0,1,0,10.59c-3,0-5-2.25-5-5.3S964.15,774,967.14,774Zm0,9.34c2.16,0,3.57-1.73,3.57-4s-1.41-4-3.57-4-3.57,1.72-3.57,4S965,783.29,967.14,783.29Z"/><path d="M972.62,774.12h1.43l3.06,8.81h.06l3.06-8.81h1.37l-3.75,10.24h-1.51Z"/></g><g class="cls-1"><path d="M1036.67,774.12h3.16c3.52,0,5.35,2.13,5.35,5.12s-1.83,5.12-5.35,5.12h-3.16Zm1.37,1.19v7.86h1.79a3.93,3.93,0,0,0,0-7.86Z"/><path d="M1047.15,774.12h1.36v10.24h-1.36Z"/><path d="M1055.42,774a4.13,4.13,0,0,1,4.34,3.39h-1.41a2.75,2.75,0,0,0-2.93-2.14c-2.1,0-3.51,1.66-3.51,4s1.41,4,3.45,4a2.74,2.74,0,0,0,3-2.14h1.41a4.2,4.2,0,0,1-4.4,3.39c-2.87,0-4.88-2.19-4.88-5.3S1052.49,774,1055.42,774Z"/></g><g class="cls-1"><path d="M68.4,761.3c0-3,1-5.29,3.57-5.29s3.57,2.32,3.57,5.29-1,5.3-3.57,5.3S68.4,764.28,68.4,761.3Zm5.77,0c0-2.62-.71-4.1-2.2-4.1s-2.2,1.48-2.2,4.1.71,4.11,2.2,4.11S74.17,763.92,74.17,761.3Z"/></g><g class="cls-1"><path d="M60.19,700.16l3.27-2.26h1V707h2.44v1.13H60.54V707h2.62v-7.49l-2.38,1.65Z"/><path d="M68.4,703c0-3,1-5.3,3.57-5.3s3.57,2.32,3.57,5.3-1,5.3-3.57,5.3S68.4,706,68.4,703Zm5.77,0c0-2.62-.71-4.11-2.2-4.11s-2.2,1.49-2.2,4.11.71,4.11,2.2,4.11S74.17,705.64,74.17,703Z"/></g><g class="cls-1"><path d="M62.63,645.45l1.13-.77c1.05-.73,1.72-1.13,1.72-2.32a1.75,1.75,0,0,0-1.9-1.79c-1.31,0-2,.72-2.08,2.09H60.31a3,3,0,0,1,3.27-3.22,2.89,2.89,0,0,1,3.21,2.92c0,1.78-1.14,2.42-2.2,3.15l-1.13.78c-1.55,1.05-1.79,1.8-1.84,2.44h5.29v1.13H60.13A4.83,4.83,0,0,1,62.63,645.45Z"/><path d="M68.4,644.74c0-3,1-5.3,3.57-5.3s3.57,2.32,3.57,5.3S74.53,650,72,650,68.4,647.71,68.4,644.74Zm5.77,0c0-2.62-.71-4.11-2.2-4.11s-2.2,1.49-2.2,4.11.71,4.1,2.2,4.1S74.17,647.36,74.17,644.74Z"/></g><g class="cls-1"><path d="M61.26,588.48a2,2,0,0,0,2.2,2.14c1.28,0,2.2-.68,2.2-1.89a2,2,0,0,0-2.2-1.89h-.77v-1.13h.77a1.76,1.76,0,0,0,1.84-1.77,1.67,1.67,0,0,0-1.84-1.65,1.7,1.7,0,0,0-1.84,1.84h-1.2a2.83,2.83,0,0,1,3-3,2.79,2.79,0,0,1,3.09,2.77,2.61,2.61,0,0,1-1.48,2.29v.06a2.62,2.62,0,0,1,1.9,2.56c0,1.83-1.56,2.91-3.51,2.91S60,590.68,60,588.48Z"/><path d="M68.4,586.45c0-3,1-5.29,3.57-5.29s3.57,2.32,3.57,5.29-1,5.3-3.57,5.3S68.4,589.43,68.4,586.45Zm5.77,0c0-2.61-.71-4.1-2.2-4.1s-2.2,1.49-2.2,4.1.71,4.11,2.2,4.11S74.17,589.07,74.17,586.45Z"/></g><g class="cls-1"><path d="M59.77,529.78l4.94-6.72h1.07v6.54h1.49v1.13H65.78v2.56H64.47v-2.56h-4.7Zm4.7-.18v-4.51l-3.36,4.51Z"/><path d="M68.4,528.17c0-3,1-5.29,3.57-5.29s3.57,2.32,3.57,5.29-1,5.3-3.57,5.3S68.4,531.15,68.4,528.17Zm5.77,0c0-2.61-.71-4.1-2.2-4.1s-2.2,1.49-2.2,4.1.71,4.11,2.2,4.11S74.17,530.79,74.17,528.17Z"/></g><g class="cls-1"><path d="M61.32,472.27a2,2,0,0,0,2.2,1.79,2.23,2.23,0,0,0,0-4.46,2.46,2.46,0,0,0-2,1l-1.19-.06.29-5.78h5.78V466H61.85l-.18,3.22h.06a2.72,2.72,0,0,1,2-.72A3.16,3.16,0,0,1,67,471.74a3.32,3.32,0,0,1-3.51,3.45A3.17,3.17,0,0,1,60,472.27Z"/><path d="M68.4,469.89c0-3,1-5.29,3.57-5.29s3.57,2.32,3.57,5.29-1,5.3-3.57,5.3S68.4,472.87,68.4,469.89Zm5.77,0c0-2.62-.71-4.1-2.2-4.1s-2.2,1.48-2.2,4.1S70.48,474,72,474,74.17,472.51,74.17,469.89Z"/></g><g class="cls-1"><path d="M63.88,406.31A2.83,2.83,0,0,1,67,409.05H65.66a1.64,1.64,0,0,0-1.78-1.6c-1.21,0-2.43,1.05-2.5,4.09A2.93,2.93,0,0,1,64,410.18a3.1,3.1,0,0,1,3.21,3.34,3.31,3.31,0,0,1-3.45,3.39c-2,0-3.75-1.3-3.75-5.06C60,407.73,61.93,406.31,63.88,406.31Zm-2.32,7.22a2.14,2.14,0,0,0,2.14,2.25,2.24,2.24,0,0,0,.12-4.47A2.2,2.2,0,0,0,61.56,413.53Z"/><path d="M68.4,411.61c0-3,1-5.3,3.57-5.3s3.57,2.33,3.57,5.3-1,5.3-3.57,5.3S68.4,414.59,68.4,411.61Zm5.77,0c0-2.62-.71-4.1-2.2-4.1s-2.2,1.48-2.2,4.1.71,4.11,2.2,4.11S74.17,414.23,74.17,411.61Z"/></g><g class="cls-1"><path d="M65.66,349.4H60.07v-1.19h7v1l-4.34,9.29H61.38Z"/><path d="M68.4,353.33c0-3,1-5.3,3.57-5.3s3.57,2.32,3.57,5.3-1,5.3-3.57,5.3S68.4,356.3,68.4,353.33Zm5.77,0c0-2.62-.71-4.11-2.2-4.11s-2.2,1.49-2.2,4.11.71,4.11,2.2,4.11S74.17,356,74.17,353.33Z"/></g><g class="cls-1"><path d="M61.85,294.87v-.06a2.49,2.49,0,0,1-1.48-2.29c0-1.61,1.22-2.77,3.15-2.77s3.15,1.16,3.15,2.77a2.49,2.49,0,0,1-1.48,2.29v.06a2.62,2.62,0,0,1,1.9,2.56c0,1.83-1.44,2.91-3.57,2.91S60,299.26,60,297.43A2.62,2.62,0,0,1,61.85,294.87Zm1.67,4.34c1.32,0,2.26-.68,2.26-1.89a2.3,2.3,0,0,0-4.52,0C61.26,298.53,62.2,299.21,63.52,299.21Zm1.9-6.68a1.91,1.91,0,0,0-3.8,0,1.9,1.9,0,0,0,3.8,0Z"/><path d="M68.4,295.05c0-3,1-5.3,3.57-5.3s3.57,2.32,3.57,5.3-1,5.29-3.57,5.29S68.4,298,68.4,295.05Zm5.77,0c0-2.62-.71-4.11-2.2-4.11s-2.2,1.49-2.2,4.11.71,4.1,2.2,4.1S74.17,297.66,74.17,295.05Z"/></g><g class="cls-1"><path d="M63.28,242.06a2.94,2.94,0,0,1-3.21-2.74h1.31a1.79,1.79,0,0,0,1.9,1.61c1.39,0,2.32-1.06,2.38-4.08A3,3,0,0,1,63,238.19a3.09,3.09,0,0,1-3.21-3.33,3.3,3.3,0,0,1,3.45-3.39c2,0,3.75,1.29,3.75,5.06C67,240.65,65.41,242.06,63.28,242.06Zm2.2-7.21a2.17,2.17,0,1,0-4.34,0,2.1,2.1,0,0,0,2.08,2.2A2.19,2.19,0,0,0,65.48,234.85Z"/><path d="M68.4,236.76c0-3,1-5.29,3.57-5.29s3.57,2.32,3.57,5.29-1,5.3-3.57,5.3S68.4,239.74,68.4,236.76Zm5.77,0c0-2.61-.71-4.1-2.2-4.1s-2.2,1.49-2.2,4.1.71,4.11,2.2,4.11S74.17,239.38,74.17,236.76Z"/></g><g class="cls-1"><path d="M51.73,175.63,55,173.36h1v9.11h2.44v1.13H52.09v-1.13h2.62V175l-2.38,1.65Z"/><path d="M60,178.48c0-3,1-5.29,3.57-5.29s3.57,2.32,3.57,5.29-1,5.3-3.57,5.3S60,181.46,60,178.48Zm5.77,0c0-2.62-.71-4.1-2.2-4.1s-2.2,1.48-2.2,4.1.71,4.11,2.2,4.11S65.72,181.1,65.72,178.48Z"/><path d="M68.4,178.48c0-3,1-5.29,3.57-5.29s3.57,2.32,3.57,5.29-1,5.3-3.57,5.3S68.4,181.46,68.4,178.48Zm5.77,0c0-2.62-.71-4.1-2.2-4.1s-2.2,1.48-2.2,4.1.71,4.11,2.2,4.11S74.17,181.1,74.17,178.48Z"/></g><g class="cls-1"><path class="cls-2" d="M1107.73,761.3c0-3,1-5.29,3.57-5.29s3.57,2.32,3.57,5.29-1,5.3-3.57,5.3S1107.73,764.28,1107.73,761.3Zm5.77,0c0-2.62-.71-4.1-2.2-4.1s-2.2,1.48-2.2,4.1.71,4.11,2.2,4.11S1113.5,763.92,1113.5,761.3Z"/></g><g class="cls-1"><path class="cls-2" d="M1108,700.16l3.27-2.26h1V707h2.44v1.13h-6.36V707h2.61v-7.49l-2.38,1.65Z"/><path class="cls-2" d="M1116.18,703c0-3,1-5.3,3.57-5.3s3.57,2.32,3.57,5.3-1,5.3-3.57,5.3S1116.18,706,1116.18,703Zm5.78,0c0-2.62-.72-4.11-2.21-4.11s-2.2,1.49-2.2,4.11.71,4.11,2.2,4.11S1122,705.64,1122,703Z"/></g><g class="cls-1"><path class="cls-2" d="M1110.41,645.45l1.13-.77c1-.73,1.72-1.13,1.72-2.32a1.75,1.75,0,0,0-1.9-1.79c-1.31,0-2,.72-2.08,2.09h-1.19a3,3,0,0,1,3.27-3.22c1.88,0,3.21,1.09,3.21,2.92s-1.14,2.42-2.2,3.15l-1.13.78c-1.55,1.05-1.78,1.8-1.84,2.44h5.29v1.13h-6.78A4.85,4.85,0,0,1,1110.41,645.45Z"/><path class="cls-2" d="M1116.18,644.74c0-3,1-5.3,3.57-5.3s3.57,2.32,3.57,5.3-1,5.29-3.57,5.29S1116.18,647.71,1116.18,644.74Zm5.78,0c0-2.62-.72-4.11-2.21-4.11s-2.2,1.49-2.2,4.11.71,4.1,2.2,4.1S1122,647.36,1122,644.74Z"/></g><g class="cls-1"><path class="cls-2" d="M1109,588.48a2,2,0,0,0,2.2,2.14c1.28,0,2.2-.68,2.2-1.89a2,2,0,0,0-2.2-1.89h-.77v-1.13h.77a1.77,1.77,0,0,0,1.85-1.77,1.67,1.67,0,0,0-1.85-1.65,1.7,1.7,0,0,0-1.84,1.84h-1.19a3.07,3.07,0,0,1,6.13-.2,2.62,2.62,0,0,1-1.49,2.29v.06a2.62,2.62,0,0,1,1.9,2.56c0,1.83-1.56,2.91-3.51,2.91s-3.45-1.07-3.45-3.27Z"/><path class="cls-2" d="M1116.18,586.45c0-3,1-5.29,3.57-5.29s3.57,2.32,3.57,5.29-1,5.3-3.57,5.3S1116.18,589.43,1116.18,586.45Zm5.78,0c0-2.61-.72-4.1-2.21-4.1s-2.2,1.49-2.2,4.1.71,4.11,2.2,4.11S1122,589.07,1122,586.45Z"/></g><g class="cls-1"><path class="cls-2" d="M1107.55,529.78l4.94-6.72h1.07v6.54h1.49v1.13h-1.49v2.56h-1.31v-2.56h-4.7Zm4.7-.18v-4.51l-3.36,4.51Z"/><path class="cls-2" d="M1116.18,528.17c0-3,1-5.29,3.57-5.29s3.57,2.32,3.57,5.29-1,5.3-3.57,5.3S1116.18,531.15,1116.18,528.17Zm5.78,0c0-2.61-.72-4.1-2.21-4.1s-2.2,1.49-2.2,4.1.71,4.11,2.2,4.11S1122,530.79,1122,528.17Z"/></g><g class="cls-1"><path class="cls-2" d="M1109.1,472.27a2,2,0,0,0,2.2,1.79,2.23,2.23,0,0,0,0-4.46,2.46,2.46,0,0,0-2,1l-1.19-.06.29-5.78h5.78V466h-4.59l-.17,3.22h.06a2.67,2.67,0,0,1,2-.72,3.16,3.16,0,0,1,3.33,3.28,3.32,3.32,0,0,1-3.51,3.45,3.17,3.17,0,0,1-3.51-2.92Z"/><path class="cls-2" d="M1116.18,469.89c0-3,1-5.29,3.57-5.29s3.57,2.32,3.57,5.29-1,5.3-3.57,5.3S1116.18,472.87,1116.18,469.89Zm5.78,0c0-2.62-.72-4.1-2.21-4.1s-2.2,1.48-2.2,4.1.71,4.11,2.2,4.11S1122,472.51,1122,469.89Z"/></g><g class="cls-1"><path class="cls-2" d="M1111.66,406.31a2.83,2.83,0,0,1,3.09,2.74h-1.31a1.64,1.64,0,0,0-1.78-1.6c-1.21,0-2.43,1.05-2.5,4.09a3,3,0,0,1,2.62-1.36,3.1,3.1,0,0,1,3.21,3.34,3.31,3.31,0,0,1-3.45,3.39c-2,0-3.75-1.3-3.75-5.06C1107.79,407.73,1109.71,406.31,1111.66,406.31Zm-2.32,7.22a2.14,2.14,0,0,0,2.14,2.25,2.24,2.24,0,0,0,.12-4.47A2.2,2.2,0,0,0,1109.34,413.53Z"/><path class="cls-2" d="M1116.18,411.61c0-3,1-5.3,3.57-5.3s3.57,2.33,3.57,5.3-1,5.3-3.57,5.3S1116.18,414.59,1116.18,411.61Zm5.78,0c0-2.62-.72-4.1-2.21-4.1s-2.2,1.48-2.2,4.1.71,4.11,2.2,4.11S1122,414.23,1122,411.61Z"/></g><g class="cls-1"><path class="cls-2" d="M1113.44,349.4h-5.59v-1.19h7v1l-4.34,9.29h-1.37Z"/><path class="cls-2" d="M1116.18,353.33c0-3,1-5.3,3.57-5.3s3.57,2.32,3.57,5.3-1,5.3-3.57,5.3S1116.18,356.3,1116.18,353.33Zm5.78,0c0-2.62-.72-4.11-2.21-4.11s-2.2,1.49-2.2,4.11.71,4.11,2.2,4.11S1122,356,1122,353.33Z"/></g><g class="cls-1"><path class="cls-2" d="M1109.63,294.87v-.06a2.49,2.49,0,0,1-1.48-2.29c0-1.61,1.22-2.77,3.15-2.77s3.16,1.16,3.16,2.77a2.5,2.5,0,0,1-1.49,2.29v.06a2.62,2.62,0,0,1,1.9,2.56c0,1.83-1.44,2.91-3.57,2.91s-3.57-1.08-3.57-2.91A2.62,2.62,0,0,1,1109.63,294.87Zm1.67,4.34c1.33,0,2.26-.68,2.26-1.89a2.3,2.3,0,0,0-4.52,0C1109,298.53,1110,299.21,1111.3,299.21Zm1.91-6.68a1.92,1.92,0,0,0-3.81,0,1.91,1.91,0,0,0,3.81,0Z"/><path class="cls-2" d="M1116.18,295.05c0-3,1-5.3,3.57-5.3s3.57,2.32,3.57,5.3-1,5.29-3.57,5.29S1116.18,298,1116.18,295.05Zm5.78,0c0-2.62-.72-4.11-2.21-4.11s-2.2,1.49-2.2,4.11.71,4.1,2.2,4.1S1122,297.66,1122,295.05Z"/></g><g class="cls-1"><path class="cls-2" d="M1111.06,242.06a2.94,2.94,0,0,1-3.21-2.74h1.31a1.79,1.79,0,0,0,1.9,1.61c1.39,0,2.32-1.06,2.38-4.08a3,3,0,0,1-2.61,1.34,3.1,3.1,0,0,1-3.22-3.33,3.3,3.3,0,0,1,3.45-3.39c2,0,3.75,1.29,3.75,5.06C1114.81,240.65,1113.19,242.06,1111.06,242.06Zm2.2-7.21a2.17,2.17,0,1,0-4.34,0,2.1,2.1,0,0,0,2.08,2.2A2.19,2.19,0,0,0,1113.26,234.85Z"/><path class="cls-2" d="M1116.18,236.76c0-3,1-5.29,3.57-5.29s3.57,2.32,3.57,5.29-1,5.3-3.57,5.3S1116.18,239.74,1116.18,236.76Zm5.78,0c0-2.61-.72-4.1-2.21-4.1s-2.2,1.49-2.2,4.1.71,4.11,2.2,4.11S1122,239.38,1122,236.76Z"/></g><g class="cls-1"><path class="cls-2" d="M1108,175.63l3.27-2.27h1v9.11h2.44v1.13h-6.36v-1.13h2.61V175l-2.38,1.65Z"/><path class="cls-2" d="M1116.18,178.48c0-3,1-5.29,3.57-5.29s3.57,2.32,3.57,5.29-1,5.3-3.57,5.3S1116.18,181.46,1116.18,178.48Zm5.78,0c0-2.62-.72-4.1-2.21-4.1s-2.2,1.48-2.2,4.1.71,4.11,2.2,4.11S1122,181.1,1122,178.48Z"/><path class="cls-2" d="M1124.63,178.48c0-3,1-5.29,3.58-5.29s3.57,2.32,3.57,5.29-1,5.3-3.57,5.3S1124.63,181.46,1124.63,178.48Zm5.78,0c0-2.62-.72-4.1-2.2-4.1s-2.21,1.48-2.21,4.1.72,4.11,2.21,4.11S1130.41,181.1,1130.41,178.48Z"/></g><path class="cls-2" d="M1105,124.8h1.57v1.34h.07a2.86,2.86,0,0,1,2.75-1.56,2.79,2.79,0,0,1,2.83,1.84,3,3,0,0,1,3-1.84c1.71,0,3.13,1,3.13,3.64v5.66h-1.64v-5.44c0-1.78-.6-2.45-1.86-2.45s-2.38,1.21-2.38,3.16v4.73h-1.64v-5.44c0-1.78-.67-2.45-1.86-2.45s-2.38,1.21-2.38,3.18v4.71H1105Z"/><path class="cls-2" d="M1121.09,124.8h1.57v1.34h.07a2.86,2.86,0,0,1,2.75-1.56,2.79,2.79,0,0,1,2.83,1.84,3,3,0,0,1,3-1.84c1.71,0,3.13,1,3.13,3.64v5.66h-1.64v-5.44c0-1.78-.6-2.45-1.86-2.45s-2.38,1.21-2.38,3.16v4.73H1127v-5.44c0-1.78-.67-2.45-1.86-2.45s-2.38,1.21-2.38,3.18v4.71h-1.64Z"/><path d="M43.29,136.56V138H41.65V124.8h1.64v5.28c0,1.94.74,2.61,2.08,2.61s2.38-1.27,2.38-3.2V124.8h1.64v9.08H47.83v-1.34h-.08A2.79,2.79,0,0,1,45,134.1a3.23,3.23,0,0,1-1.82-.52h-.12A20.46,20.46,0,0,1,43.29,136.56Z"/><path d="M53.33,135c0,1.12,1,1.79,2.46,1.79,1.6,0,2.9-.8,2.9-3.35v-1h-.08a3.17,3.17,0,0,1-3,1.64c-2.3,0-4-1.71-4-4.69s1.86-4.83,4.16-4.83a3,3,0,0,1,2.9,1.63h.08V124.8h1.56v8.63c0,3.44-2,4.69-4.46,4.69-2.27,0-4-1.08-4-3.13Zm2.61-2.3c1.48,0,2.67-1.19,2.67-3.35S57.42,126,55.94,126s-2.68,1.26-2.68,3.42S54.45,132.69,55.94,132.69Z"/><path d="M67.54,120.86H69L63.23,134.1H61.81Z"/><path d="M69.18,124.8h1.56v1.34h.08a2.85,2.85,0,0,1,2.75-1.56,2.8,2.8,0,0,1,2.83,1.84,3,3,0,0,1,3-1.84c1.71,0,3.12,1,3.12,3.64v5.66H80.94v-5.44c0-1.78-.6-2.45-1.86-2.45s-2.39,1.21-2.39,3.16v4.73H75.06v-5.44c0-1.78-.67-2.45-1.86-2.45s-2.38,1.21-2.38,3.18v4.71H69.18Z"/><path d="M85.27,125.43A1.45,1.45,0,0,0,86.88,127c.93,0,1.6-.5,1.6-1.38a1.45,1.45,0,0,0-1.6-1.38h-.57v-.82h.57a1.29,1.29,0,0,0,1.34-1.29,1.22,1.22,0,0,0-1.34-1.21,1.25,1.25,0,0,0-1.35,1.35h-.87a2.06,2.06,0,0,1,2.22-2.17,2,2,0,0,1,2.25,2,1.91,1.91,0,0,1-1.08,1.67v0a1.92,1.92,0,0,1,1.39,1.87c0,1.33-1.14,2.12-2.56,2.12a2.23,2.23,0,0,1-2.52-2.38Z"/><rect class="cls-3" x="96.57" y="158.56" width="285.03" height="603.27"/><rect class="cls-3" x="881.69" y="158.56" width="207.08" height="603.27"/><path class="cls-2" d="M181.23,762.13a.3.3,0,0,1-.3-.3V158.56a.29.29,0,0,1,.3-.3.3.3,0,0,1,.3.3V761.83A.31.31,0,0,1,181.23,762.13Z"/><path class="cls-2" d="M257.54,762.13a.3.3,0,0,1-.3-.3V158.56a.29.29,0,0,1,.3-.3.3.3,0,0,1,.3.3V761.83A.31.31,0,0,1,257.54,762.13Z"/><path class="cls-2" d="M342,762.13a.31.31,0,0,1-.3-.3V158.56a.3.3,0,0,1,.3-.3.29.29,0,0,1,.3.3V761.83A.3.3,0,0,1,342,762.13Z"/><path class="cls-2" d="M423.78,762.13a.31.31,0,0,1-.3-.3V158.56a.3.3,0,0,1,.3-.3.29.29,0,0,1,.3.3V761.83A.3.3,0,0,1,423.78,762.13Z"/><path class="cls-2" d="M508.27,762.13a.3.3,0,0,1-.3-.3V158.56a.3.3,0,0,1,.6,0V761.83A.3.3,0,0,1,508.27,762.13Z"/><path class="cls-2" d="M590,762.13a.3.3,0,0,1-.3-.3V158.56a.3.3,0,1,1,.6,0V761.83A.3.3,0,0,1,590,762.13Z"/><path class="cls-2" d="M674.52,762.13a.3.3,0,0,1-.3-.3V158.56a.29.29,0,0,1,.3-.3.3.3,0,0,1,.3.3V761.83A.31.31,0,0,1,674.52,762.13Z"/><path class="cls-2" d="M759,762.13a.31.31,0,0,1-.3-.3V158.56a.3.3,0,0,1,.3-.3.29.29,0,0,1,.3.3V761.83A.3.3,0,0,1,759,762.13Z"/><path class="cls-2" d="M840.76,762.13a.31.31,0,0,1-.3-.3V158.56a.3.3,0,0,1,.3-.3.29.29,0,0,1,.3.3V761.83A.3.3,0,0,1,840.76,762.13Z"/><path class="cls-2" d="M925.25,762.13a.3.3,0,0,1-.3-.3V158.56a.3.3,0,1,1,.6,0V761.83A.3.3,0,0,1,925.25,762.13Z"/><path class="cls-2" d="M1007,762.13a.3.3,0,0,1-.3-.3V158.56a.3.3,0,1,1,.6,0V761.83A.3.3,0,0,1,1007,762.13Z"/><path class="cls-2" d="M96.74,762.13a.31.31,0,0,1-.3-.3V158.56a.3.3,0,0,1,.3-.3.29.29,0,0,1,.3.3V761.83A.3.3,0,0,1,96.74,762.13Z"/><path class="cls-2" d="M1088.77,762.13a.31.31,0,0,1-.3-.3V158.56a.3.3,0,0,1,.3-.3.29.29,0,0,1,.3.3V761.83A.3.3,0,0,1,1088.77,762.13Z"/><circle cx="102.19" cy="628.02" r="2.97"/><circle cx="104.92" cy="639.68" r="2.97"/><circle cx="107.64" cy="517.29" r="2.97"/><circle cx="110.37" cy="523.12" r="2.97"/><circle cx="121.27" cy="598.88" r="2.97"/><circle cx="123.99" cy="604.71" r="2.97"/><circle cx="126.72" cy="593.06" r="2.97"/><circle cx="132.17" cy="569.74" r="2.97"/><circle cx="134.89" cy="657.17" r="2.97"/><circle cx="137.62" cy="593.06" r="2.97"/><circle cx="145.8" cy="668.82" r="2.97"/><circle cx="148.52" cy="534.77" r="2.97"/><circle cx="153.97" cy="546.43" r="2.97"/><circle cx="156.7" cy="645.51" r="2.97"/><circle cx="159.42" cy="593.06" r="2.97"/><circle cx="162.15" cy="511.46" r="2.97"/><circle cx="170.32" cy="511.46" r="2.97"/><circle cx="173.05" cy="598.88" r="2.97"/><circle cx="175.77" cy="581.4" r="2.97"/><circle cx="178.5" cy="569.74" r="2.97"/><circle cx="181.23" cy="622.2" r="2.97"/><circle cx="183.95" cy="645.51" r="2.97"/><circle cx="186.68" cy="604.71" r="2.97"/><circle cx="189.4" cy="575.57" r="2.97"/><circle cx="192.13" cy="517.29" r="2.97"/><circle cx="197.58" cy="499.8" r="2.97"/><circle cx="208.48" cy="528.95" r="2.97"/><circle cx="211.2" cy="645.51" r="2.97"/><circle cx="213.93" cy="593.06" r="2.97"/><circle cx="227.56" cy="540.6" r="2.97"/><circle cx="230.28" cy="604.71" r="2.97"/><circle cx="241.18" cy="569.74" r="2.97"/><circle cx="243.91" cy="604.71" r="2.97"/><circle cx="246.63" cy="581.4" r="2.97"/><circle cx="249.36" cy="546.43" r="2.97"/><circle cx="252.08" cy="622.2" r="2.97"/><circle cx="254.81" cy="598.88" r="2.97"/><circle cx="262.99" cy="587.23" r="2.97"/><circle cx="265.71" cy="622.2" r="2.97"/><circle cx="268.44" cy="558.09" r="2.97"/><circle cx="271.16" cy="610.54" r="2.97"/><circle cx="273.89" cy="628.02" r="2.97"/><circle cx="276.61" cy="680.48" r="2.97"/><circle cx="279.34" cy="686.31" r="2.97"/><circle cx="282.06" cy="657.17" r="2.97"/><circle cx="284.79" cy="628.02" r="2.97"/><circle cx="287.51" cy="703.79" r="2.97"/><circle cx="290.24" cy="633.85" r="2.97"/><circle cx="292.97" cy="651.34" r="2.97"/><circle cx="295.69" cy="633.85" r="2.97"/><circle cx="298.42" cy="598.88" r="2.97"/><circle cx="301.14" cy="633.85" r="2.97"/><circle cx="303.87" cy="651.34" r="2.97"/><circle cx="306.59" cy="628.02" r="2.97"/><circle cx="309.32" cy="616.37" r="2.97"/><circle cx="312.04" cy="581.4" r="2.97"/><circle cx="314.77" cy="581.4" r="2.97"/><circle cx="317.49" cy="598.88" r="2.97"/><circle cx="320.22" cy="674.65" r="2.97"/><circle cx="322.94" cy="633.85" r="2.97"/><circle cx="325.67" cy="668.82" r="2.97"/><circle cx="328.4" cy="657.17" r="2.97"/><circle cx="331.12" cy="622.2" r="2.97"/><circle cx="333.85" cy="645.51" r="2.97"/><circle cx="336.57" cy="651.34" r="2.97"/><circle cx="339.3" cy="651.34" r="2.97"/><circle cx="342.02" cy="598.88" r="2.97"/><circle cx="344.75" cy="598.88" r="2.97"/><circle cx="347.47" cy="715.45" r="2.97"/><circle cx="350.2" cy="703.79" r="2.97"/><circle cx="352.92" cy="686.31" r="2.97"/><circle cx="355.65" cy="645.51" r="2.97"/><circle cx="358.37" cy="604.71" r="2.97"/><circle cx="361.1" cy="651.34" r="2.97"/><circle cx="363.82" cy="680.48" r="2.97"/><circle cx="366.55" cy="657.17" r="2.97"/><circle cx="369.28" cy="674.65" r="2.97"/><circle cx="372" cy="651.34" r="2.97"/><circle cx="374.73" cy="616.37" r="2.97"/><circle cx="377.45" cy="616.37" r="2.97"/><circle cx="380.18" cy="581.4" r="2.97"/><circle cx="382.9" cy="610.54" r="2.97"/><circle cx="385.63" cy="581.4" r="2.97"/><circle cx="388.35" cy="610.54" r="2.97"/><circle cx="391.08" cy="651.34" r="2.97"/><circle cx="393.8" cy="662.99" r="2.97"/><circle cx="396.53" cy="662.99" r="2.97"/><circle cx="399.25" cy="598.88" r="2.97"/><circle cx="401.98" cy="657.17" r="2.97"/><circle cx="404.71" cy="593.06" r="2.97"/><circle cx="407.43" cy="534.77" r="2.97"/><circle cx="410.16" cy="587.23" r="2.97"/><circle cx="412.88" cy="715.45" r="2.97"/><circle cx="415.61" cy="709.62" r="2.97"/><circle cx="418.33" cy="715.45" r="2.97"/><circle cx="421.06" cy="703.79" r="2.97"/><circle cx="423.78" cy="703.79" r="2.97"/><circle cx="426.51" cy="697.96" r="2.97"/><circle cx="429.23" cy="692.13" r="2.97"/><circle cx="431.96" cy="674.65" r="2.97"/><circle cx="434.68" cy="697.96" r="2.97"/><circle cx="437.41" cy="703.79" r="2.97"/><circle cx="440.14" cy="662.99" r="2.97"/><circle cx="442.86" cy="680.48" r="2.97"/><circle cx="445.59" cy="703.79" r="2.97"/><circle cx="448.31" cy="674.65" r="2.97"/><circle cx="451.04" cy="709.62" r="2.97"/><circle cx="453.76" cy="715.45" r="2.97"/><circle cx="456.49" cy="680.48" r="2.97"/><circle cx="459.21" cy="657.17" r="2.97"/><circle cx="461.94" cy="680.48" r="2.97"/><circle cx="464.66" cy="692.13" r="2.97"/><circle cx="467.39" cy="645.51" r="2.97"/><circle cx="470.11" cy="709.62" r="2.97"/><circle cx="472.84" cy="703.79" r="2.97"/><circle cx="475.56" cy="715.45" r="2.97"/><circle cx="478.29" cy="668.82" r="2.97"/><circle cx="481.02" cy="633.85" r="2.97"/><circle cx="483.74" cy="645.51" r="2.97"/><circle cx="486.47" cy="668.82" r="2.97"/><circle cx="489.19" cy="668.82" r="2.97"/><circle cx="491.92" cy="674.65" r="2.97"/><circle cx="494.64" cy="703.79" r="2.97"/><circle cx="497.37" cy="709.62" r="2.97"/><circle cx="500.09" cy="715.45" r="2.97"/><circle cx="502.82" cy="697.96" r="2.97"/><circle cx="505.54" cy="686.31" r="2.97"/><circle cx="508.27" cy="692.13" r="2.97"/><circle cx="510.99" cy="703.79" r="2.97"/><circle cx="513.72" cy="686.31" r="2.97" transform="translate(-207.28 1150.08) rotate(-85.93)"/><circle cx="516.45" cy="668.82" r="2.97"/><circle cx="519.17" cy="662.99" r="2.97"/><circle cx="521.9" cy="628.02" r="2.97"/><circle cx="524.62" cy="616.37" r="2.97"/><circle cx="527.35" cy="569.74" r="2.97"/><circle cx="530.07" cy="575.57" r="2.97"/><circle cx="532.8" cy="540.6" r="2.97"/><circle cx="535.52" cy="517.29" r="2.97"/><circle cx="538.25" cy="563.91" r="2.97"/><circle cx="540.97" cy="668.82" r="2.97"/><circle cx="543.7" cy="604.71" r="2.97"/><circle cx="546.42" cy="517.29" r="2.97"/><circle cx="549.15" cy="622.2" r="2.97"/><circle cx="551.87" cy="645.51" r="2.97"/><circle cx="554.6" cy="633.85" r="2.97"/><circle cx="557.33" cy="645.51" r="2.97"/><circle cx="560.05" cy="674.65" r="2.97"/><circle cx="562.78" cy="628.02" r="2.97"/><circle cx="565.5" cy="622.2" r="2.97"/><circle cx="568.23" cy="651.34" r="2.97"/><circle cx="570.95" cy="662.99" r="2.97"/><circle cx="573.68" cy="633.85" r="2.97"/><circle cx="576.4" cy="633.85" r="2.97"/><circle cx="579.13" cy="622.2" r="2.97"/><circle cx="581.85" cy="593.06" r="2.97"/><circle cx="584.58" cy="622.2" r="2.97"/><circle cx="587.3" cy="628.02" r="2.97" transform="translate(-43.1 1212.77) rotate(-89.77)"/><circle cx="590.03" cy="587.23" r="2.97"/><circle cx="592.76" cy="622.2" r="2.97"/><circle cx="595.48" cy="593.06" r="2.97"/><circle cx="598.21" cy="674.65" r="2.97" transform="translate(-2.78 2.48) rotate(-0.24)"/><circle cx="600.93" cy="651.34" r="2.97"/><circle cx="603.66" cy="645.51" r="2.97"/><circle cx="606.38" cy="633.85" r="2.97"/><circle cx="617.28" cy="657.17" r="2.97"/><circle cx="620.01" cy="651.34" r="2.97"/><circle cx="622.73" cy="674.65" r="2.97"/><circle cx="625.46" cy="709.62" r="2.97"/><circle cx="628.19" cy="668.82" r="2.97"/><circle cx="630.91" cy="662.99" r="2.97"/><circle cx="633.64" cy="686.31" r="2.97"/><circle cx="636.36" cy="616.37" r="2.97"/><circle cx="639.09" cy="651.34" r="2.97"/><circle cx="641.81" cy="639.68" r="2.97"/><circle cx="644.54" cy="657.17" r="2.97"/><circle cx="647.26" cy="598.88" r="2.97"/><circle cx="649.99" cy="622.2" r="2.97"/><circle cx="652.71" cy="651.34" r="2.97"/><circle cx="655.44" cy="587.23" r="2.97"/><circle cx="658.16" cy="645.51" r="2.97"/><circle cx="660.89" cy="639.68" r="2.97"/><circle cx="663.61" cy="709.62" r="2.97"/><circle cx="666.34" cy="674.65" r="2.97"/><circle cx="669.07" cy="662.99" r="2.97"/><circle cx="671.79" cy="645.51" r="2.97"/><circle cx="674.52" cy="633.85" r="2.97"/><circle cx="677.24" cy="633.85" r="2.97"/><circle cx="679.97" cy="692.13" r="2.97"/><circle cx="682.69" cy="692.13" r="2.97"/><circle cx="685.42" cy="662.99" r="2.97"/><circle cx="688.14" cy="651.34" r="2.97"/><circle cx="690.87" cy="639.68" r="2.97"/><circle cx="693.59" cy="651.34" r="2.97"/><circle cx="696.32" cy="622.2" r="2.97"/><circle cx="699.04" cy="645.51" r="2.97"/><circle cx="701.77" cy="657.17" r="2.97"/><circle cx="704.5" cy="633.85" r="2.97"/><circle cx="707.22" cy="639.68" r="2.97"/><circle cx="709.95" cy="662.99" r="2.97"/><circle cx="712.67" cy="697.96" r="2.97"/><circle cx="715.4" cy="680.48" r="2.97"/><circle cx="718.12" cy="680.48" r="2.97"/><circle cx="720.85" cy="686.31" r="2.97"/><circle cx="723.57" cy="662.99" r="2.97"/><circle cx="726.3" cy="645.51" r="2.97"/><circle cx="729.02" cy="622.2" r="2.97"/><circle cx="731.75" cy="628.02" r="2.97"/><circle cx="734.47" cy="639.68" r="2.97"/><circle cx="737.2" cy="628.02" r="2.97"/><circle cx="739.93" cy="657.17" r="2.97"/><circle cx="742.65" cy="628.02" r="2.97"/><circle cx="745.38" cy="598.88" r="2.97"/><circle cx="748.1" cy="587.23" r="2.97"/><circle cx="756.28" cy="598.88" r="2.97"/><circle cx="759" cy="651.34" r="2.97"/><circle cx="761.73" cy="610.54" r="2.97"/><circle cx="764.45" cy="662.99" r="2.97"/><circle cx="767.18" cy="680.48" r="2.97"/><circle cx="769.9" cy="645.51" r="2.97"/><circle cx="772.63" cy="657.17" r="2.97"/><circle cx="775.35" cy="680.48" r="2.97"/><circle cx="778.08" cy="686.31" r="2.97"/><circle cx="780.81" cy="721.28" r="2.97"/><circle cx="783.53" cy="674.65" r="2.97"/><circle cx="786.26" cy="639.68" r="2.97"/><circle cx="788.98" cy="628.02" r="2.97"/><circle cx="791.71" cy="639.68" r="2.97"/><circle cx="794.43" cy="668.82" r="2.97"/><circle cx="797.16" cy="703.79" r="2.97"/><circle cx="799.88" cy="686.31" r="2.97"/><circle cx="802.61" cy="662.99" r="2.97"/><circle cx="805.33" cy="633.85" r="2.97"/><circle cx="808.06" cy="657.17" r="2.97"/><circle cx="810.78" cy="645.51" r="2.97"/><circle cx="813.51" cy="662.99" r="2.97"/><circle cx="816.24" cy="639.68" r="2.97"/><circle cx="818.96" cy="581.4" r="2.97"/><circle cx="821.69" cy="674.65" r="2.97"/><circle cx="824.41" cy="639.68" r="2.97"/><circle cx="827.14" cy="604.71" r="2.97"/><circle cx="829.86" cy="645.51" r="2.97"/><circle cx="832.59" cy="680.48" r="2.97"/><circle cx="835.31" cy="715.45" r="2.97"/><circle cx="838.04" cy="680.48" r="2.97"/><circle cx="840.76" cy="674.65" r="2.97"/><circle cx="843.49" cy="697.96" r="2.97"/><circle cx="846.21" cy="697.96" r="2.97"/><circle cx="848.94" cy="715.45" r="2.97"/><circle cx="851.66" cy="645.51" r="2.97"/><circle cx="854.39" cy="662.99" r="2.97"/><circle cx="857.12" cy="674.65" r="2.97"/><circle cx="859.84" cy="657.17" r="2.97"/><circle cx="862.57" cy="639.68" r="2.97"/><circle cx="865.29" cy="493.98" r="2.97"/><circle cx="868.02" cy="523.12" r="2.97"/><circle cx="878.92" cy="575.57" r="2.97"/><circle cx="881.64" cy="692.13" r="2.97"/><circle cx="884.37" cy="692.13" r="2.97"/><circle cx="887.09" cy="668.82" r="2.97"/><circle cx="889.82" cy="668.82" r="2.97"/><circle cx="892.55" cy="668.82" r="2.97"/><circle cx="895.27" cy="604.71" r="2.97"/><circle cx="898" cy="558.09" r="2.97"/><circle cx="900.72" cy="528.95" r="2.97"/><circle cx="903.45" cy="517.29" r="2.97"/><circle cx="906.17" cy="534.77" r="2.97"/><circle cx="908.9" cy="575.57" r="2.97"/><circle cx="911.62" cy="616.37" r="2.97"/><circle cx="914.35" cy="517.29" r="2.97"/><circle cx="919.8" cy="633.85" r="2.97"/><circle cx="922.52" cy="686.31" r="2.97"/><circle cx="925.25" cy="662.99" r="2.97"/><circle cx="927.98" cy="593.06" r="2.97"/><circle cx="936.15" cy="657.17" r="2.97"/><circle cx="938.88" cy="709.62" r="2.97"/><circle cx="941.6" cy="628.02" r="2.97"/><circle cx="944.33" cy="692.13" r="2.97"/><circle cx="947.05" cy="686.31" r="2.97"/><circle cx="949.78" cy="604.71" r="2.97"/><circle cx="952.5" cy="581.4" r="2.97"/><circle cx="955.23" cy="721.28" r="2.97"/><circle cx="957.95" cy="692.13" r="2.97"/><circle cx="960.68" cy="633.85" r="2.97"/><circle cx="963.4" cy="697.96" r="2.97"/><circle cx="966.13" cy="674.65" r="2.97"/><circle cx="968.86" cy="709.62" r="2.97"/><circle cx="971.58" cy="633.85" r="2.97"/><circle cx="974.31" cy="633.85" r="2.97"/><circle cx="977.03" cy="604.71" r="2.97"/><circle cx="982.48" cy="622.2" r="2.97"/><circle cx="985.21" cy="639.68" r="2.97"/><circle cx="987.93" cy="651.34" r="2.97"/><circle cx="990.66" cy="662.99" r="2.97"/><circle cx="993.38" cy="622.2" r="2.97"/><circle cx="996.11" cy="639.68" r="2.97"/><circle cx="998.83" cy="587.23" r="2.97"/><circle cx="1001.56" cy="523.12" r="2.97"/><circle cx="1004.29" cy="563.91" r="2.97"/><circle cx="1007.01" cy="546.43" r="2.97"/><circle cx="1009.74" cy="668.82" r="2.97"/><circle cx="1012.46" cy="651.34" r="2.97"/><circle cx="1015.19" cy="610.54" r="2.97"/><circle cx="1017.91" cy="528.95" r="2.97"/><circle cx="1031.54" cy="517.29" r="2.97"/><circle cx="1034.26" cy="651.34" r="2.97"/><circle cx="1036.99" cy="645.51" r="2.97"/><circle cx="1039.72" cy="668.82" r="2.97"/><circle cx="1042.44" cy="593.06" r="2.97"/><circle cx="1045.17" cy="499.8" r="2.97"/><circle class="cls-4" cx="96.74" cy="371.58" r="2.97"/><circle class="cls-4" cx="99.46" cy="459.01" r="2.97"/><circle class="cls-4" cx="113.09" cy="435.69" r="2.97"/><circle class="cls-4" cx="115.82" cy="307.47" r="2.97"/><circle class="cls-4" cx="118.54" cy="418.21" r="2.97"/><circle class="cls-4" cx="129.44" cy="429.87" r="2.97"/><circle class="cls-4" cx="140.35" cy="464.84" r="2.97"/><circle class="cls-4" cx="143.07" cy="447.35" r="2.97"/><circle class="cls-4" cx="151.25" cy="470.66" r="2.97"/><circle class="cls-4" cx="164.87" cy="470.66" r="2.97"/><circle class="cls-4" cx="167.6" cy="348.27" r="2.97"/><circle class="cls-4" cx="194.85" cy="447.35" r="2.97"/><circle class="cls-4" cx="200.3" cy="459.01" r="2.97"/><circle class="cls-4" cx="203.03" cy="418.21" r="2.97"/><circle class="cls-4" cx="205.75" cy="424.04" r="2.97"/><circle class="cls-4" cx="216.66" cy="470.66" r="2.97"/><circle class="cls-4" cx="219.38" cy="412.38" r="2.97"/><circle class="cls-4" cx="222.11" cy="394.9" r="2.97"/><circle class="cls-4" cx="224.83" cy="424.04" r="2.97"/><circle class="cls-4" cx="233.01" cy="354.1" r="2.97"/><circle class="cls-4" cx="235.73" cy="342.44" r="2.97"/><circle class="cls-4" cx="238.46" cy="418.21" r="2.97"/><circle class="cls-4" cx="257.54" cy="412.38" r="2.97"/><circle class="cls-4" cx="260.26" cy="412.38" r="2.97"/><circle class="cls-4" cx="870.74" cy="441.52" r="2.97"/><circle class="cls-4" cx="873.47" cy="459.01" r="2.97"/><circle class="cls-4" cx="876.19" cy="441.52" r="2.97"/><circle class="cls-4" cx="917.07" cy="453.18" r="2.97"/><circle class="cls-4" cx="1020.64" cy="470.66" r="2.97"/><circle class="cls-4" cx="1023.36" cy="394.9" r="2.97"/><circle class="cls-4" cx="1026.09" cy="447.35" r="2.97"/><circle class="cls-4" cx="1028.81" cy="272.5" r="2.97"/><circle class="cls-4" cx="1047.89" cy="371.58" r="2.97"/><circle class="cls-4" cx="1050.62" cy="284.16" r="2.97"/><circle class="cls-4" cx="1053.34" cy="453.18" r="2.97"/><circle class="cls-4" cx="1056.07" cy="464.84" r="2.97"/><circle cx="1058.79" cy="674.65" r="2.97"/><circle cx="1061.52" cy="750.42" r="2.97"/><circle cx="1064.24" cy="750.42" r="2.97"/><circle cx="1066.97" cy="686.31" r="2.97"/><circle cx="1069.69" cy="680.48" r="2.97"/><circle cx="1072.42" cy="616.37" r="2.97"/><circle cx="1075.14" cy="610.54" r="2.97"/><circle cx="1077.87" cy="552.26" r="2.97"/><circle cx="1080.6" cy="511.46" r="2.97"/><circle cx="1083.32" cy="493.98" r="2.97"/><circle cx="1086.05" cy="517.29" r="2.97"/><circle cx="1088.77" cy="528.95" r="2.97"/><path d="M286.87,180.86c0,1.06.91,1.79,2.38,1.79s2.44-.64,2.44-1.73c0-2.53-6.32-.52-6.32-4.52,0-1.76,1.52-3,3.9-3s3.84,1.12,3.84,2.93h-1.66c0-1-.93-1.62-2.18-1.62s-2.22.54-2.22,1.56c0,2.52,6.37.48,6.37,4.56,0,1.89-1.52,3.17-4.17,3.17s-4-1.22-4-3.1Z"/><path d="M296.9,187.05h-1.61V176.52h1.55v1.08h.06a2.52,2.52,0,0,1,2.41-1.26c1.83,0,3.25,1.34,3.25,3.75s-1.51,3.87-3.37,3.87a2.36,2.36,0,0,1-2.29-1.27h-.06c.06.95.06,1.95.06,2.44Zm2-9.42c-1.11,0-1.95.88-2,2.4v.12c0,1.59.86,2.51,2,2.51s2-1,2-2.57S300,177.63,298.9,177.63Z"/><path d="M307.41,176.34a3.21,3.21,0,0,1,3.39,3.54v.54h-5.34c.09,1.41.85,2.27,2,2.27a1.58,1.58,0,0,0,1.68-1.11h1.57a3.08,3.08,0,0,1-3.27,2.38c-2.32,0-3.64-1.42-3.64-3.8A3.54,3.54,0,0,1,307.41,176.34Zm-1.88,3h3.63c-.13-1.21-.74-1.74-1.75-1.74A1.93,1.93,0,0,0,305.53,179.33Z"/><path d="M313.79,184.67c0,.8.77,1.29,1.83,1.29,1.3,0,2.17-.65,2.17-2.55v-.72h-.06a2.5,2.5,0,0,1-2.41,1.27c-1.83,0-3.24-1.34-3.24-3.75s1.5-3.87,3.36-3.87a2.36,2.36,0,0,1,2.29,1.26h.06v-1.08h1.54v6.89c0,2.73-1.58,3.76-3.71,3.76-1.93,0-3.32-.83-3.35-2.5Zm1.93-2c1.15,0,2-.92,2-2.51V180c-.05-1.52-.88-2.4-2-2.4s-2,1-2,2.58S314.59,182.66,315.72,182.66Z"/><path d="M321.51,176.52h1.55v1h.06a2.34,2.34,0,0,1,2.25-1.23c1.44,0,2.72.77,2.72,3v4.41h-1.61v-4.2c0-1.44-.61-1.93-1.54-1.93s-1.82.87-1.82,2.33v3.8h-1.61Z"/><path d="M330.1,172.89h1.73v1.63H330.1Zm.06,3.63h1.61v7.26h-1.61Z"/><path d="M334,176.52h1.55v1h.06a2.58,2.58,0,0,1,4.51.21,2.48,2.48,0,0,1,2.44-1.44c1.41,0,2.57.77,2.57,2.94v4.5h-1.6v-4.3c0-1.36-.48-1.83-1.4-1.83s-1.76.86-1.76,2.3v3.83h-1.61v-4.3c0-1.36-.52-1.83-1.39-1.83s-1.76.86-1.76,2.32v3.81H334Z"/><path d="M350.23,176.34a3.21,3.21,0,0,1,3.39,3.54v.54h-5.34c.09,1.41.85,2.27,2,2.27a1.57,1.57,0,0,0,1.68-1.11h1.58a3.08,3.08,0,0,1-3.27,2.38c-2.32,0-3.65-1.42-3.65-3.8A3.55,3.55,0,0,1,350.23,176.34Zm-1.87,3H352c-.14-1.21-.75-1.74-1.76-1.74A1.92,1.92,0,0,0,348.36,179.33Z"/><path d="M355.25,176.52h1.54v1h.06a2.34,2.34,0,0,1,2.25-1.23c1.44,0,2.72.77,2.72,3v4.41h-1.6v-4.2c0-1.44-.61-1.93-1.55-1.93s-1.82.87-1.82,2.33v3.8h-1.6Z"/><path d="M364,177.77h-1.37v-1.25H364v-2.2h1.61v2.2h1.86v1.25h-1.86v3.6c0,.77.27,1.07,1,1.07h.85v1.34h-1.12c-1.66,0-2.35-.7-2.35-2.32Z"/><path d="M372.15,176.34a3.49,3.49,0,0,1,3.71,3.81,3.55,3.55,0,0,1-3.71,3.81,3.5,3.5,0,0,1-3.7-3.81A3.56,3.56,0,0,1,372.15,176.34Zm0,6.32c1.22,0,2-1,2-2.51s-.82-2.52-2-2.52-2,1-2,2.52S370.93,182.66,372.15,182.66Z"/><path d="M285.5,195.12h1.55v1h.05a2,2,0,0,1,1.91-1.23,1.69,1.69,0,0,1,1,.3l-.42,1.43a1.89,1.89,0,0,0-.89-.24c-1.09,0-1.61,1-1.61,2.32v3.63H285.5Z"/><path d="M291.05,191.49h1.73v1.63h-1.73Zm.06,3.63h1.61v7.26h-1.61Z"/><path d="M295.91,200.29c0,.81.81,1.14,1.6,1.14,1.12,0,1.67-.39,1.67-1.06s-.37-.76-1.1-.88l-1.34-.24c-1.12-.17-2.19-.62-2.19-2s1.33-2.32,3-2.32,3,.68,3,2.2h-1.5c0-.71-.64-1.07-1.5-1.07s-1.49.36-1.49,1,.34.74,1.2.89l1.34.22c1.15.2,2.14.64,2.14,2,0,1.59-1.33,2.38-3.27,2.38s-3.14-.75-3.14-2.27Z"/><path d="M305.58,194.94a3,3,0,0,1,3.3,2.66h-1.59a1.6,1.6,0,0,0-1.71-1.37c-1.13,0-1.95,1-1.95,2.52s.82,2.51,1.95,2.51a1.58,1.58,0,0,0,1.71-1.37h1.59a3,3,0,0,1-3.3,2.67c-2.24,0-3.62-1.43-3.62-3.81A3.52,3.52,0,0,1,305.58,194.94Z"/><path d="M312.56,198.3l1.41-.24c.71-.12.94-.21.94-.49a1.28,1.28,0,0,0-1.43-1.43,1.35,1.35,0,0,0-1.53,1.28h-1.54c.09-1.5,1.25-2.48,3.07-2.48,2,0,3,1,3,2.66v4.78H315v-.91h-.07a2.61,2.61,0,0,1-2.32,1.09c-1.6,0-2.46-.82-2.46-2S310.84,198.58,312.56,198.3Zm2.35.43a1.23,1.23,0,0,1-.75.35l-1.25.2c-.85.14-1.17.51-1.17,1.07s.41,1,1.23,1a1.83,1.83,0,0,0,1.94-1.95Z"/><path d="M318.6,191.49h1.6v10.89h-1.6Z"/><path d="M325.25,194.94a2.37,2.37,0,0,1,2.29,1.26h.06c-.08-.95-.08-1.94-.08-2.44v-2.27h1.61v10.89H327.6v-1.09h-.06a2.51,2.51,0,0,1-2.41,1.27c-1.83,0-3.24-1.34-3.24-3.75S323.39,194.94,325.25,194.94Zm.28,6.32c1.15,0,2-.92,2-2.51s-.84-2.52-2-2.52-2,1-2,2.58S324.4,201.26,325.53,201.26Z"/><path d="M333.33,198.3l1.41-.24c.72-.12.94-.21.94-.49a1.27,1.27,0,0,0-1.43-1.43,1.36,1.36,0,0,0-1.53,1.28h-1.53c.09-1.5,1.25-2.48,3.06-2.48,2,0,3,1,3,2.66v4.78h-1.54v-.91h-.07a2.6,2.6,0,0,1-2.32,1.09c-1.59,0-2.46-.82-2.46-2S331.62,198.58,333.33,198.3Zm2.35.43a1.2,1.2,0,0,1-.75.35l-1.24.2c-.85.14-1.18.51-1.18,1.07s.42,1,1.24,1a1.83,1.83,0,0,0,1.93-1.95Z"/><path d="M339.37,195.12h1.55v1H341a2.58,2.58,0,0,1,4.51.21,2.47,2.47,0,0,1,2.43-1.44c1.42,0,2.58.77,2.58,2.94v4.5h-1.61v-4.3c0-1.36-.47-1.83-1.4-1.83s-1.75.86-1.75,2.3v3.83h-1.61v-4.3c0-1.36-.52-1.83-1.4-1.83s-1.75.86-1.75,2.32v3.81h-1.61Z"/><path d="M355.65,194.94a3.21,3.21,0,0,1,3.39,3.54V199H353.7c.09,1.41.85,2.27,2,2.27a1.57,1.57,0,0,0,1.68-1.11H359a3.1,3.1,0,0,1-3.28,2.38c-2.32,0-3.64-1.42-3.64-3.8A3.55,3.55,0,0,1,355.65,194.94Zm-1.88,3h3.63c-.13-1.21-.74-1.74-1.75-1.74A1.93,1.93,0,0,0,353.77,197.93Z"/><path d="M360.66,195.12h1.55v1h.06a2.32,2.32,0,0,1,2.25-1.23c1.44,0,2.72.77,2.72,3v4.41h-1.61v-4.2c0-1.44-.61-1.93-1.54-1.93s-1.82.88-1.82,2.33v3.8h-1.61Z"/><path d="M369.46,196.37h-1.37v-1.25h1.37v-2.2h1.61v2.2h1.85v1.25h-1.85V200c0,.77.26,1.07,1,1.07h.84v1.34h-1.11c-1.67,0-2.35-.7-2.35-2.32Z"/><path d="M374.31,191.49H376v1.63h-1.73Zm.06,3.63H376v7.26h-1.61Z"/><path d="M890.09,173.54h2l3.8,10.24H894.1l-.87-2.49h-4.38l-.88,2.49h-1.69Zm.93,1.67-1.66,4.68h3.38l-1.66-4.68Z"/><path d="M900.37,176.34a3,3,0,0,1,3.3,2.66h-1.59a1.6,1.6,0,0,0-1.71-1.37c-1.13,0-2,1-2,2.52s.82,2.51,2,2.51a1.58,1.58,0,0,0,1.71-1.37h1.59a3,3,0,0,1-3.3,2.67c-2.23,0-3.62-1.43-3.62-3.81A3.52,3.52,0,0,1,900.37,176.34Z"/><path d="M908.48,176.34a3,3,0,0,1,3.3,2.66h-1.59a1.6,1.6,0,0,0-1.71-1.37c-1.13,0-2,1-2,2.52s.82,2.51,2,2.51a1.58,1.58,0,0,0,1.71-1.37h1.59a3,3,0,0,1-3.3,2.67c-2.23,0-3.62-1.43-3.62-3.81A3.52,3.52,0,0,1,908.48,176.34Z"/><path d="M916.57,176.34a3.22,3.22,0,0,1,3.4,3.54v.54h-5.35c.09,1.41.85,2.27,2,2.27a1.56,1.56,0,0,0,1.68-1.11h1.58a3.08,3.08,0,0,1-3.27,2.38c-2.32,0-3.65-1.42-3.65-3.8A3.55,3.55,0,0,1,916.57,176.34Zm-1.87,3h3.63c-.14-1.21-.74-1.74-1.76-1.74A1.92,1.92,0,0,0,914.7,179.33Z"/><path d="M921.59,176.52h1.55v1h.06a2.32,2.32,0,0,1,2.24-1.23c1.44,0,2.72.77,2.72,3v4.41h-1.6v-4.2c0-1.44-.61-1.93-1.55-1.93s-1.81.87-1.81,2.33v3.8h-1.61Z"/><path d="M931.23,181.69c0,.81.82,1.14,1.61,1.14,1.11,0,1.66-.39,1.66-1.06s-.37-.76-1.1-.88l-1.34-.24c-1.11-.18-2.18-.62-2.18-2s1.32-2.32,3-2.32,3,.68,3,2.2h-1.5c0-.71-.65-1.07-1.51-1.07s-1.49.36-1.49,1,.35.74,1.21.89l1.34.22c1.14.19,2.14.64,2.14,2,0,1.59-1.34,2.38-3.27,2.38s-3.14-.75-3.14-2.27Z"/><path d="M937.75,172.89h1.72v1.63h-1.72Zm.06,3.63h1.61v7.26h-1.61Z"/><path d="M944.8,176.34a3.49,3.49,0,0,1,3.71,3.81A3.55,3.55,0,0,1,944.8,184a3.5,3.5,0,0,1-3.7-3.81A3.56,3.56,0,0,1,944.8,176.34Zm0,6.32c1.22,0,2-1,2-2.51s-.82-2.52-2-2.52-2,1-2,2.52S943.58,182.66,944.8,182.66Z"/><path d="M950.19,176.52h1.55v1h.06a2.32,2.32,0,0,1,2.24-1.23c1.45,0,2.72.77,2.72,3v4.41h-1.6v-4.2c0-1.44-.61-1.93-1.55-1.93s-1.81.87-1.81,2.33v3.8h-1.61Z"/><path d="M961.91,176.34a3.22,3.22,0,0,1,3.4,3.54v.54H960c.09,1.41.85,2.27,2,2.27a1.57,1.57,0,0,0,1.68-1.11h1.58A3.08,3.08,0,0,1,962,184c-2.32,0-3.65-1.42-3.65-3.8A3.55,3.55,0,0,1,961.91,176.34Zm-1.87,3h3.63c-.13-1.21-.75-1.74-1.76-1.74A1.92,1.92,0,0,0,960,179.33Z"/><path d="M887.22,195.12h1.54v1h0a2,2,0,0,1,1.92-1.23,1.66,1.66,0,0,1,1,.3l-.42,1.43a1.89,1.89,0,0,0-.89-.24c-1.09,0-1.61,1-1.61,2.32v3.63h-1.6Z"/><path d="M892.77,191.49h1.72v1.63h-1.72Zm.06,3.63h1.6v7.26h-1.6Z"/><path d="M897.62,200.29c0,.81.81,1.14,1.6,1.14,1.12,0,1.67-.39,1.67-1.06s-.37-.76-1.1-.88l-1.34-.24c-1.12-.17-2.19-.62-2.19-2s1.33-2.32,3-2.32,3,.68,3,2.2h-1.5c0-.71-.64-1.07-1.5-1.07s-1.49.36-1.49,1,.34.74,1.2.89l1.34.22c1.15.2,2.15.64,2.15,2,0,1.59-1.34,2.38-3.28,2.38s-3.14-.75-3.14-2.27Z"/><path d="M907.29,194.94a3,3,0,0,1,3.3,2.66H909a1.6,1.6,0,0,0-1.71-1.37c-1.13,0-1.95,1-1.95,2.52s.82,2.51,1.95,2.51a1.58,1.58,0,0,0,1.71-1.37h1.59a3,3,0,0,1-3.3,2.67c-2.23,0-3.62-1.43-3.62-3.81A3.52,3.52,0,0,1,907.29,194.94Z"/><path d="M914.27,198.3l1.41-.24c.72-.12.94-.21.94-.49a1.27,1.27,0,0,0-1.43-1.43,1.36,1.36,0,0,0-1.53,1.28h-1.53c.08-1.5,1.24-2.48,3.06-2.48,2,0,3,1,3,2.66v4.78h-1.53v-.91h-.07a2.6,2.6,0,0,1-2.32,1.09c-1.59,0-2.46-.82-2.46-2S912.56,198.58,914.27,198.3Zm2.35.43a1.2,1.2,0,0,1-.75.35l-1.25.2c-.84.14-1.17.51-1.17,1.07s.42,1,1.23,1a1.83,1.83,0,0,0,1.94-1.95Z"/><path d="M920.31,191.49h1.61v10.89h-1.61Z"/><path d="M927,194.94a2.37,2.37,0,0,1,2.29,1.26h.06c-.07-.95-.07-1.94-.07-2.44v-2.27h1.6v10.89h-1.53v-1.09h-.06a2.51,2.51,0,0,1-2.41,1.27c-1.83,0-3.24-1.34-3.24-3.75S925.1,194.94,927,194.94Zm.28,6.32c1.15,0,2-.92,2-2.51s-.85-2.52-2-2.52-2,1-2,2.58S926.11,201.26,927.24,201.26Z"/><path d="M935,198.3l1.41-.24c.72-.12.94-.21.94-.49a1.27,1.27,0,0,0-1.43-1.43,1.36,1.36,0,0,0-1.53,1.28H932.9c.09-1.5,1.25-2.48,3.06-2.48,2,0,3,1,3,2.66v4.78h-1.53v-.91h-.08a2.59,2.59,0,0,1-2.32,1.09c-1.59,0-2.45-.82-2.45-2S933.33,198.58,935,198.3Zm2.35.43a1.2,1.2,0,0,1-.74.35l-1.25.2c-.85.14-1.18.51-1.18,1.07s.42,1,1.24,1a1.83,1.83,0,0,0,1.93-1.95Z"/><path d="M941.08,195.12h1.55v1h.06a2.58,2.58,0,0,1,4.51.21,2.48,2.48,0,0,1,2.44-1.44c1.41,0,2.57.77,2.57,2.94v4.5H950.6v-4.3c0-1.36-.47-1.83-1.4-1.83s-1.75.86-1.75,2.3v3.83h-1.61v-4.3c0-1.36-.52-1.83-1.4-1.83s-1.75.86-1.75,2.32v3.81h-1.61Z"/><path d="M957.36,194.94a3.21,3.21,0,0,1,3.39,3.54V199h-5.34c.09,1.41.85,2.27,2,2.27a1.57,1.57,0,0,0,1.68-1.11h1.58a3.08,3.08,0,0,1-3.27,2.38c-2.32,0-3.65-1.42-3.65-3.8A3.55,3.55,0,0,1,957.36,194.94Zm-1.87,3h3.63c-.14-1.21-.75-1.74-1.76-1.74A1.92,1.92,0,0,0,955.49,197.93Z"/><path d="M962.38,195.12h1.54v1H964a2.32,2.32,0,0,1,2.25-1.23c1.44,0,2.72.77,2.72,3v4.41h-1.61v-4.2c0-1.44-.6-1.93-1.54-1.93s-1.82.88-1.82,2.33v3.8h-1.6Z"/><path d="M971.17,196.37H969.8v-1.25h1.37v-2.2h1.61v2.2h1.86v1.25h-1.86V200c0,.77.26,1.07,1,1.07h.85v1.34h-1.12c-1.67,0-2.35-.7-2.35-2.32Z"/><path d="M976,191.49h1.73v1.63H976Zm.06,3.63h1.61v7.26h-1.61Z"/></svg>