<?xml version="1.0" encoding="utf-8"?>
<!-- Generator: Adobe Illustrator 24.0.1, SVG Export Plug-In . SVG Version: 6.00 Build 0)  -->
<svg version="1.1" id="Layer_1" xmlns="http://www.w3.org/2000/svg" xmlns:xlink="http://www.w3.org/1999/xlink" x="0px" y="0px"
	 viewBox="0 0 1125 1815" style="enable-background:new 0 0 1125 1815;" xml:space="preserve">
<style type="text/css">
	.st0{fill:#B6B6B6;}
	.st1{fill:#EFEFEF;}
	.st2{fill:#B8B8B8;}
	.st3{enable-background:new    ;}
	.st4{fill:#FE5000;}
	.st5{opacity:0.3;}
	.st6{fill:none;stroke:#FFFFFF;stroke-width:1.7551;stroke-miterlimit:10;}
	.st7{fill:none;}
	.st8{font-family:'KareliaWeb-Outtakes';}
	.st9{font-size:57px;}
	.st10{fill:#A2A2A2;}
</style>
<g>
	<g>
		<path class="st0" d="M160.2,1454.9c0-4.1,1.4-7.3,4.9-7.3c3.5,0,4.9,3.2,4.9,7.3c0,4.1-1.4,7.3-4.9,7.3
			C161.6,1462.2,160.2,1459,160.2,1454.9z M168.1,1454.9c0-3.6-1-5.6-3-5.6c-2,0-3,2-3,5.6s1,5.6,3,5.6
			C167.2,1460.5,168.1,1458.5,168.1,1454.9z"/>
	</g>
	<g>
		<path class="st0" d="M234.4,1451l4.5-3.1l1.4,0l0,12.5l3.4,0l0,1.5l-8.8,0l0-1.5l3.6,0l0-10.2l-3.3,2.3L234.4,1451z"/>
		<path class="st0" d="M245.8,1454.9c0-4.1,1.4-7.3,4.9-7.3c3.5,0,4.9,3.2,4.9,7.3s-1.4,7.3-4.9,7.3
			C247.1,1462.2,245.7,1459,245.8,1454.9z M253.7,1454.9c0-3.6-1-5.6-3-5.6c-2,0-3,2-3,5.6s1,5.6,3,5.6
			C252.7,1460.5,253.6,1458.5,253.7,1454.9L253.7,1454.9z"/>
	</g>
	<g>
		<path class="st0" d="M317.7,1455.9l1.5-1.1c1.4-1,2.4-1.5,2.4-3.2c0-1.3-1-2.4-2.3-2.5c-0.1,0-0.2,0-0.3,0c-1.8,0-2.7,1-2.9,2.9
			l-1.7,0c-0.1-2.3,1.6-4.3,3.9-4.4c0.2,0,0.4,0,0.6,0c2.2-0.2,4.1,1.3,4.4,3.5c0,0.2,0,0.3,0,0.5c0,2.4-1.6,3.4-3,4.3l-1.4,1
			c-2.1,1.4-2.4,2.5-2.5,3.4l7.3,0l0,1.5l-9.3,0C314.2,1459.5,315.5,1457.1,317.7,1455.9z"/>
		<path class="st0" d="M325.7,1454.9c0-4.1,1.4-7.3,4.9-7.3c3.5,0,4.9,3.2,4.9,7.3c0,4.1-1.4,7.3-4.9,7.3
			C327.1,1462.2,325.7,1459,325.7,1454.9z M333.6,1454.9c0-3.6-1-5.6-3-5.6c-2,0-3,2-3,5.6s1,5.6,3,5.6
			C332.6,1460.6,333.5,1458.5,333.6,1454.9L333.6,1454.9z"/>
	</g>
	<g>
		<path class="st0" d="M395.7,1457.7c-0.1,1.5,1,2.8,2.5,2.9c0.2,0,0.4,0,0.6,0c1.7,0,3-0.9,3-2.6c-0.1-1.5-1.4-2.7-2.9-2.6
			c0,0-0.1,0-0.1,0l-1.1,0l0-1.5l1.1,0c1.3,0.1,2.5-1,2.5-2.3c0,0,0-0.1,0-0.1c0-1.3-1-2.3-2.3-2.3c-0.1,0-0.2,0-0.2,0
			c-1.3-0.1-2.4,0.9-2.5,2.1c0,0.1,0,0.3,0,0.4l-1.6,0c-0.1-2.1,1.5-4,3.7-4.1c0.2,0,0.3,0,0.5,0c2.1-0.2,4,1.3,4.2,3.4
			c0,0.1,0,0.2,0,0.3c0,1.3-0.8,2.6-2,3.1l0,0.1c1.6,0.4,2.6,1.9,2.6,3.5c0,2.5-2.1,4-4.8,4c-2.3,0.3-4.4-1.3-4.7-3.6
			c0-0.3,0-0.6,0-0.9L395.7,1457.7z"/>
		<path class="st0" d="M405.6,1454.9c0-4.1,1.4-7.3,4.9-7.3s4.9,3.2,4.9,7.3c0,4.1-1.4,7.3-4.9,7.3
			C407,1462.2,405.6,1459,405.6,1454.9z M413.5,1454.9c0-3.6-1-5.6-3-5.6c-2,0-3,2-3,5.6c0,3.6,1,5.6,3,5.6
			C412.5,1460.6,413.4,1458.5,413.5,1454.9L413.5,1454.9z"/>
	</g>
	<g>
		<path class="st0" d="M473.7,1457.1l6.8-9.2l1.5,0l0,9l2,0l0,1.6l-2,0l0,3.5l-1.8,0l0-3.5l-6.5,0L473.7,1457.1z M480.2,1456.9
			l0-6.2l-4.6,6.2L480.2,1456.9z"/>
		<path class="st0" d="M485.6,1454.9c0-4.1,1.4-7.3,4.9-7.3c3.5,0,4.9,3.2,4.9,7.3c0,4.1-1.4,7.3-4.9,7.3
			C487,1462.2,485.6,1459,485.6,1454.9z M493.5,1454.9c0-3.6-1-5.6-3-5.6c-2,0-3,2-3,5.6s1,5.6,3,5.6
			C492.6,1460.5,493.5,1458.5,493.5,1454.9L493.5,1454.9z"/>
	</g>
	<g>
		<path class="st0" d="M555.6,1458.2c0.2,1.5,1.5,2.5,3,2.4c1.7,0,3.1-1.4,3.1-3.1c0-1.7-1.4-3.1-3.1-3.1c-1.1,0-2.1,0.5-2.7,1.4
			l-1.7-0.1l0.4-7.9l7.9,0l0,1.7l-6.2,0l-0.3,4.4h0.1c0.7-0.7,1.7-1,2.7-1c2.4-0.1,4.4,1.7,4.6,4.1c0,0.1,0,0.3,0,0.4
			c0.1,2.5-1.9,4.6-4.4,4.7c-0.2,0-0.3,0-0.5,0c-2.4,0.3-4.5-1.4-4.8-3.8c0-0.1,0-0.1,0-0.2L555.6,1458.2z"/>
		<path class="st0" d="M565.3,1454.9c0-4.1,1.4-7.3,4.9-7.3c3.5,0,4.9,3.2,4.9,7.3s-1.4,7.3-4.9,7.3
			C566.7,1462.2,565.3,1459,565.3,1454.9z M573.2,1454.9c0-3.6-1-5.6-3-5.6c-2,0-3,2-3,5.6s1,5.6,3,5.6
			C572.3,1460.5,573.2,1458.5,573.2,1454.9L573.2,1454.9z"/>
	</g>
	<g>
		<path class="st0" d="M638.9,1447.7c2.1-0.2,4,1.3,4.2,3.5c0,0.1,0,0.2,0,0.3l-1.7,0c0-1.2-1.1-2.2-2.3-2.2c0,0-0.1,0-0.1,0
			c-1.7,0-3.4,1.5-3.4,5.6c0.8-1.2,2.1-1.9,3.6-1.9c2.3,0,4.3,1.8,4.3,4.2c0,0.1,0,0.3,0,0.4c0.1,2.5-1.9,4.6-4.4,4.6
			c-0.1,0-0.2,0-0.3,0c-2.8,0-5.1-1.7-5.1-6.9C633.6,1449.6,636.3,1447.7,638.9,1447.7z M635.7,1457.6c-0.1,1.6,1.2,3,2.8,3.1
			c0.1,0,0.1,0,0.2,0c1.7,0,3.1-1.3,3.1-3s-1.3-3.1-3-3.1c-1.7,0-3,1.3-3.1,2.9C635.7,1457.5,635.7,1457.5,635.7,1457.6
			L635.7,1457.6z"/>
		<path class="st0" d="M645.2,1454.9c0-4.1,1.4-7.3,4.9-7.3c3.5,0,4.9,3.2,4.9,7.3s-1.4,7.3-4.9,7.3
			C646.6,1462.2,645.2,1459,645.2,1454.9z M653.1,1454.9c0-3.6-1-5.6-3-5.6c-2,0-3,2-3,5.6s1,5.6,3,5.6
			C652.1,1460.6,653,1458.5,653.1,1454.9L653.1,1454.9z"/>
	</g>
	<g>
		<path class="st0" d="M721.2,1449.5l-7.7,0l0-1.7l9.6,0l0,1.3l-5.9,12.7l-1.9,0L721.2,1449.5z"/>
		<path class="st0" d="M725,1454.9c0-4.1,1.4-7.3,4.9-7.3c3.5,0,4.9,3.2,4.9,7.3s-1.4,7.3-4.9,7.3C726.4,1462.2,725,1459,725,1454.9
			z M732.9,1454.9c0-3.6-1-5.6-3-5.6c-2,0-3,2-3,5.6s1,5.6,3,5.6C731.9,1460.5,732.9,1458.5,732.9,1454.9L732.9,1454.9z"/>
	</g>
	<g>
		<path class="st0" d="M796,1454.7L796,1454.7c-1.2-0.5-2-1.8-2-3.1c0-2.1,1.7-3.9,3.8-3.9c0.1,0,0.3,0,0.4,0c2.1-0.2,4,1.3,4.3,3.4
			c0,0.1,0,0.3,0,0.4c0,1.4-0.8,2.6-2,3.1l0,0c1.6,0.4,2.6,1.9,2.6,3.5c0,2.5-2,4-4.9,4c-2.9,0-4.9-1.5-4.9-4
			C793.3,1456.5,794.4,1455.1,796,1454.7z M798.2,1460.7c1.8,0,3.1-0.9,3.1-2.6c-0.1-1.5-1.4-2.7-2.9-2.6c-0.1,0-0.1,0-0.2,0
			c-1.5-0.2-2.9,0.9-3.1,2.4c0,0.1,0,0.1,0,0.2C795.2,1459.7,796.5,1460.7,798.2,1460.7L798.2,1460.7z M800.9,1451.5
			c0-1.3-1.1-2.4-2.4-2.4c-0.1,0-0.2,0-0.2,0c-1.3-0.1-2.5,0.8-2.6,2.2c0,0.1,0,0.1,0,0.2c0.2,1.4,1.5,2.5,2.9,2.3
			C799.7,1453.7,800.7,1452.7,800.9,1451.5L800.9,1451.5z"/>
		<path class="st0" d="M805,1454.9c0-4.1,1.4-7.3,4.9-7.3c3.5,0,4.9,3.2,4.9,7.3c0,4.1-1.4,7.3-4.9,7.3
			C806.4,1462.2,805,1459,805,1454.9z M812.9,1454.9c0-3.6-1-5.6-3-5.6c-2,0-3,2-3,5.6c0,3.6,1,5.6,3,5.6
			C811.9,1460.6,812.8,1458.5,812.9,1454.9L812.9,1454.9z"/>
	</g>
	<g>
		<path class="st0" d="M877.8,1462.2c-2.2,0.2-4.2-1.4-4.4-3.6c0,0,0-0.1,0-0.1l1.8,0c0.2,1.3,1.3,2.3,2.6,2.2
			c1.9,0,3.2-1.4,3.3-5.6c-0.8,1.2-2.2,1.9-3.6,1.8c-2.3,0.1-4.3-1.7-4.4-4c0-0.2,0-0.4,0-0.5c-0.1-2.5,1.9-4.6,4.4-4.7
			c0.1,0,0.2,0,0.3,0c2.8,0,5.1,1.7,5.1,6.9C883,1460.3,880.7,1462.2,877.8,1462.2z M880.8,1452.3c0-1.6-1.3-3-3-3c-1.6,0-3,1.3-3,3
			c-0.1,1.6,1.2,2.9,2.7,3c0,0,0.1,0,0.1,0c1.7,0.1,3-1.2,3.1-2.9C880.8,1452.4,880.8,1452.3,880.8,1452.3z"/>
		<path class="st0" d="M884.9,1454.9c0-4.1,1.4-7.3,4.9-7.3c3.5,0,4.9,3.2,4.9,7.3c0,4.1-1.4,7.3-4.9,7.3
			C886.3,1462.2,884.9,1459,884.9,1454.9z M892.8,1454.9c0-3.6-1-5.6-3-5.6s-3,2-3,5.6c0,3.6,1,5.6,3,5.6
			C891.8,1460.5,892.7,1458.5,892.8,1454.9L892.8,1454.9z"/>
	</g>
	<g>
		<path class="st0" d="M947.4,1451l4.5-3.1l1.4,0l0,12.5l3.4,0l0,1.5l-8.8,0l0-1.5l3.6,0l0-10.2l-3.3,2.2L947.4,1451z"/>
		<path class="st0" d="M958.8,1454.9c0-4.1,1.4-7.3,4.9-7.3c3.5,0,4.9,3.2,4.9,7.3s-1.4,7.3-4.9,7.3
			C960.1,1462.2,958.8,1459,958.8,1454.9z M966.7,1454.9c0-3.6-1-5.6-3-5.6c-2,0-3,2-3,5.6s1,5.6,3,5.6
			C965.7,1460.5,966.6,1458.5,966.7,1454.9L966.7,1454.9z"/>
		<path class="st0" d="M970.3,1454.9c0-4.1,1.4-7.3,4.9-7.3c3.5,0,4.9,3.2,4.9,7.3c0,4.1-1.4,7.3-4.9,7.3
			C971.7,1462.2,970.3,1459,970.3,1454.9z M978.2,1454.9c0-3.6-1-5.6-3-5.6c-2,0-3,2-3,5.6c0,3.6,1,5.6,3,5.6
			C977.2,1460.5,978.2,1458.5,978.2,1454.9z"/>
	</g>
	<g>
		<path class="st0" d="M928.1,1508.3l0,1.9l-2.2,0l0-18.1l2.2,0l0,7.2c0,2.7,1,3.6,2.9,3.6c1.8,0,3.3-1.7,3.3-4.4l0-6.4l2.2,0
			l0,12.4l-2.1,0l0-1.8h-0.1c-0.7,1.4-2.2,2.3-3.8,2.2c-0.9,0-1.8-0.2-2.5-0.7h-0.2C928,1505.5,928.1,1506.9,928.1,1508.3z"/>
		<path class="st0" d="M941.7,1505.9c0,1.5,1.4,2.4,3.4,2.4c2,0,4-1.1,4-4.6l0-1.3h-0.1c-0.8,1.5-2.5,2.4-4.2,2.3
			c-3.2,0-5.5-2.3-5.5-6.4c0-4.1,2.5-6.6,5.7-6.6c1.7-0.1,3.2,0.8,4,2.2h0.1l0-2l2.1,0l0,11.9c0,4.7-2.8,6.4-6.1,6.4
			c-3.3,0-5.5-1.5-5.5-4.3L941.7,1505.9z M945.2,1502.8c2,0,3.7-1.7,3.7-4.6c0-2.9-1.7-4.6-3.7-4.6c-2,0-3.7,1.7-3.7,4.7
			S943.2,1502.8,945.2,1502.8z"/>
		<path class="st0" d="M961.1,1486.6l1.9,0l-7.8,18.2l-2,0L961.1,1486.6z"/>
		<path class="st0" d="M963.4,1492l2.1,0l0,1.8l0.1,0c0.7-1.4,2.2-2.2,3.8-2.1c1.7-0.2,3.4,0.9,3.9,2.5c0.7-1.7,2.4-2.7,4.2-2.5
			c2.3,0,4.3,1.3,4.3,5l0,7.7l-2.2,0l0-7.4c0-2.4-0.8-3.4-2.5-3.4s-3.3,1.7-3.3,4.3l0,6.5l-2.2,0l0-7.4c0-2.4-0.9-3.4-2.5-3.4
			c-1.6,0-3.3,1.7-3.3,4.4l0,6.4l-2.2,0L963.4,1492z"/>
		<path class="st0" d="M985.4,1492.8c-0.1,1.1,0.7,2.1,1.8,2.1c0.1,0,0.3,0,0.4,0c1.3,0,2.2-0.7,2.2-1.9c0-1.1-0.9-2-2-2
			c-0.1,0-0.1,0-0.2,0l-0.8,0l0-1.1h0.8c0.9,0.1,1.8-0.6,1.8-1.6c0,0,0-0.1,0-0.1c0-0.9-0.8-1.7-1.7-1.7c0,0-0.1,0-0.1,0
			c-0.9-0.1-1.7,0.7-1.8,1.6c0,0.1,0,0.2,0,0.3l-1.2,0c0.1-1.7,1.6-3,3.3-2.9c1.5,0.1,2.7,1.2,2.9,2.7c0,1-0.6,1.9-1.5,2.3l0,0
			c1.1,0.3,1.9,1.4,1.9,2.5c-0.1,1.7-1.6,3-3.3,2.9c-0.1,0-0.1,0-0.2,0c-1.7,0.2-3.2-0.9-3.5-2.6c0-0.2,0-0.4,0-0.6L985.4,1492.8z"
			/>
	</g>
	<g>
		
			<rect x="381.5" y="-162.3" transform="matrix(-1.836970e-16 1 -1 -1.836970e-16 829.6357 -326.6684)" class="st1" width="393.4" height="827.6"/>
	</g>
	<g>
		<path class="st2" d="M163.9,395.8c0-0.2,0.2-0.4,0.4-0.4h827.2c0.2,0,0.4,0.2,0.4,0.4c0,0.2-0.2,0.4-0.4,0.4H164.4
			C164.1,396.2,163.9,396,163.9,395.8z"/>
	</g>
	<g>
		<g class="st3">
			<path d="M147.4,206.6v9.4h-1.6v-7.5h-5.1v5.9H139v-5.9h-5.7v-1.9H147.4z"/>
			<path d="M147.4,218.4v9.5h-1.6v-7.6h-4.5v6.1h-1.6v-6.1h-4.7v7.8h-1.6v-9.7H147.4z"/>
			<path d="M147.4,230.9v5.8c0,3.1-1.4,4.5-3.7,4.5c-1.3,0-2.5-0.7-3-2.2h-0.1c-0.3,1.7-1.6,2.8-3.2,2.8c-2.4,0-4.2-1.6-4.2-4.7
				v-6.2H147.4z M145.8,232.8h-4.4v3.9c0,1.7,1,2.6,2.3,2.6c1.2,0,2-0.7,2-2.6V232.8z M139.8,232.8h-4.8v4.3c0,1.9,1,2.8,2.5,2.8
				c1.3,0,2.3-0.9,2.3-2.8V232.8z"/>
		</g>
	</g>
	<g>
		<g class="st3">
			<path d="M135.3,103.8L135.3,103.8c-1.6-1.1-2.3-2.5-2.3-4.7c0-4,3.1-6.9,7.3-6.9c4.2,0,7.3,2.9,7.3,7c0,3.4-1.9,5.6-4.4,6.2v-2
				c1.5-0.4,2.7-1.8,2.7-4.2c0-3.1-2.4-5-5.6-5c-3.2,0-5.6,2-5.6,4.9c0,2.4,1.4,4.5,3.9,4.5h0.4v-4.4h1.6v6.2h-7.5v-1.2L135.3,103.8
				z"/>
			<path d="M147.4,108.7v9.5h-1.6v-7.6h-4.5v6.1h-1.6v-6.1h-4.7v7.8h-1.6v-9.7H147.4z"/>
			<path d="M147.4,121.3v1.8l-10.9,7.8v0.1l10.9-0.1v1.9h-14.1v-1.8l10.8-7.8v-0.1l-10.8,0.1v-1.9H147.4z"/>
		</g>
	</g>
	<g>
		<g class="st3">
			<path d="M147.4,314v2.3l-11.6,5.2v0l11.6,5.1v2.3h-14.1V327l11.2,0.2v-0.1l-11.2-4.9v-1.5l10.9-4.9v-0.1l-10.9,0.2V314H147.4z"/>
			<path d="M147.4,336.2v2.2l-14.1,5.3v-2l3.7-1.3v-6.2l-3.7-1.3V331L147.4,336.2z M145.4,337.2l-6.8-2.5v5L145.4,337.2L145.4,337.2
				z"/>
			<path d="M147.4,345.7v5.3c0,3.2-1.5,4.9-4.2,4.9c-2.1,0-3.7-1.1-4.2-3.1l-5.7,3.6v-2.1l5.5-3.5v-3.3h-5.5v-1.9H147.4z
				 M145.8,347.6h-5.3v3.5c0,2,1.2,3,2.8,3c1.6,0,2.5-1.1,2.5-3V347.6z"/>
		</g>
	</g>
	<g>
		<g class="st3">
			<path d="M147.4,435.1v2.2l-14.1,5.3v-2l3.7-1.3V433l-3.7-1.3v-1.9L147.4,435.1z M145.4,436.1l-6.8-2.5v5L145.4,436.1L145.4,436.1
				z"/>
			<path d="M147.4,444.6v5.3c0,3.2-1.9,5-4.5,5c-2.6,0-4.7-1.8-4.7-5v-3.4h-4.9v-1.9H147.4z M145.8,446.5h-5.9v3.5c0,2.1,1.4,3,3,3
				c1.6,0,2.9-1,2.9-3V446.5z"/>
			<path d="M147.4,457.7v5.3c0,3.2-1.5,4.9-4.2,4.9c-2.1,0-3.7-1.1-4.2-3.1l-5.7,3.6v-2.1l5.5-3.5v-3.3h-5.5v-1.9H147.4z
				 M145.8,459.5h-5.3v3.5c0,2,1.2,3,2.8,3c1.6,0,2.5-1.1,2.5-3V459.5z"/>
		</g>
	</g>
	<g>
		<g class="st3">
			<path d="M147.4,542.4v2.3l-11.6,5.2v0l11.6,5.1v2.3h-14.1v-1.9l11.2,0.2v-0.1l-11.2-4.9v-1.5l10.9-4.9v-0.1l-10.9,0.2v-1.9H147.4
				z"/>
			<path d="M147.4,564.6v2.2l-14.1,5.3v-2l3.7-1.3v-6.2l-3.7-1.3v-1.9L147.4,564.6z M145.4,565.7l-6.8-2.5v5L145.4,565.7
				L145.4,565.7z"/>
			<path d="M135.3,584.4L135.3,584.4c-1.6-1.1-2.3-2.5-2.3-4.7c0-4,3.1-6.9,7.3-6.9c4.2,0,7.3,2.9,7.3,7c0,3.4-1.9,5.6-4.4,6.2v-2
				c1.5-0.5,2.7-1.8,2.7-4.2c0-3.1-2.4-5-5.6-5c-3.2,0-5.6,2-5.6,4.9c0,2.4,1.4,4.5,3.9,4.5h0.4v-4.4h1.6v6.2h-7.5v-1.2L135.3,584.4
				z"/>
		</g>
	</g>
	<g>
		<g class="st3">
			<path d="M135.3,673.5L135.3,673.5c-1.6-1.1-2.3-2.5-2.3-4.7c0-4,3.1-6.9,7.3-6.9c4.2,0,7.3,2.9,7.3,7c0,3.4-1.9,5.6-4.4,6.2v-2
				c1.5-0.5,2.7-1.8,2.7-4.2c0-3.1-2.4-5-5.6-5c-3.2,0-5.6,2-5.6,4.9c0,2.4,1.4,4.5,3.9,4.5h0.4v-4.4h1.6v6.2h-7.5v-1.2L135.3,673.5
				z"/>
			<path d="M147.4,678.5v1.9h-14.1v-1.9H147.4z"/>
			<path d="M147.4,683.6v1.9h-8.5c-2.6,0-4.1,1.2-4.1,3.8c0,2.6,1.5,3.8,4.1,3.8h8.5v1.9h-8.5c-4.2,0-5.8-2.3-5.8-5.7
				c0-3.3,1.6-5.7,5.8-5.7H147.4z"/>
		</g>
	</g>
	<g>
		<g class="st3">
			<path d="M147.4,774.8v1.9h-12.5v6.9h-1.6v-8.8H147.4z"/>
			<path d="M147.4,785.3v1.9h-8.5c-2.6,0-4.1,1.2-4.1,3.8c0,2.6,1.5,3.8,4.1,3.8h8.5v1.9h-8.5c-4.2,0-5.8-2.3-5.8-5.7
				c0-3.3,1.6-5.7,5.8-5.7H147.4z"/>
			<path d="M135.3,810.7L135.3,810.7c-1.6-1.1-2.3-2.5-2.3-4.7c0-4,3.1-6.9,7.3-6.9c4.2,0,7.3,2.9,7.3,7c0,3.4-1.9,5.6-4.4,6.2v-2
				c1.5-0.5,2.7-1.8,2.7-4.2c0-3.1-2.4-5-5.6-5c-3.2,0-5.6,2-5.6,4.9c0,2.4,1.4,4.5,3.9,4.5h0.4v-4.4h1.6v6.2h-7.5v-1.2L135.3,810.7
				z"/>
		</g>
	</g>
	<g>
		<g class="st3">
			<path d="M147.4,893.5v2.2l-14.1,5.3v-2l3.7-1.3v-6.2l-3.7-1.3v-1.9L147.4,893.5z M145.4,894.5l-6.8-2.5v5L145.4,894.5
				L145.4,894.5z"/>
			<path d="M135.3,913.2L135.3,913.2c-1.6-1.1-2.3-2.5-2.3-4.7c0-4,3.1-6.9,7.3-6.9c4.2,0,7.3,2.9,7.3,7c0,3.4-1.9,5.6-4.4,6.2v-2
				c1.5-0.5,2.7-1.8,2.7-4.2c0-3.1-2.4-5-5.6-5c-3.2,0-5.6,2-5.6,4.9c0,2.4,1.4,4.5,3.9,4.5h0.4v-4.4h1.6v6.2h-7.5v-1.2L135.3,913.2
				z"/>
			<path d="M147.7,924.2c0,4-3.1,6.9-7.3,6.9c-4.2,0-7.3-2.9-7.3-6.9c0-4.1,3.1-6.9,7.3-6.9C144.6,917.3,147.7,920,147.7,924.2z
				 M134.8,924.2c0,3,2.4,4.9,5.6,4.9c3.2,0,5.6-1.9,5.6-4.9c0-3-2.4-4.9-5.6-4.9C137.2,919.2,134.8,921.2,134.8,924.2z"/>
		</g>
	</g>
	<g>
		<g class="st3">
			<path d="M137.3,1008.7c-1.5,0-2.7,1.3-2.7,3.5c0,2.3,1,3.6,2.6,3.6c3.7,0,0.9-8.8,6.3-8.8c2.4,0,4.1,2.1,4.1,5.2
				c0,3-1.5,5.2-4,5.2v-1.9c1.6,0,2.5-1.4,2.5-3.3c0-1.8-0.8-3.3-2.4-3.3c-3.7,0-0.8,8.9-6.4,8.9c-2.5,0-4.3-2.1-4.3-5.6
				c0-3.4,1.7-5.4,4.3-5.4V1008.7z"/>
			<path d="M147.4,1020.8v9.5h-1.6v-7.6h-4.5v6.1h-1.6v-6.1h-4.7v7.8h-1.6v-9.7H147.4z"/>
			<path d="M147.4,1031.7v11.7h-1.6v-4.9h-12.5v-1.9h12.5v-4.9H147.4z"/>
		</g>
	</g>
	<g>
		<g class="st3">
			<path d="M147.7,1127.6c0,4-3.1,6.9-7.3,6.9c-4.2,0-7.3-2.9-7.3-6.9c0-4.1,3.1-6.9,7.3-6.9
				C144.6,1120.7,147.7,1123.5,147.7,1127.6z M134.8,1127.6c0,3,2.4,4.9,5.6,4.9c3.2,0,5.6-2,5.6-4.9c0-3-2.4-4.9-5.6-4.9
				C137.2,1122.7,134.8,1124.6,134.8,1127.6z"/>
			<path d="M147.4,1134.8v11.7h-1.6v-4.9h-12.5v-1.9h12.5v-4.9H147.4z"/>
			<path d="M147.4,1146.9v11.7h-1.6v-4.9h-12.5v-1.9h12.5v-4.9H147.4z"/>
		</g>
	</g>
	<g>
		<g class="st3">
			<path d="M147.4,1234.3v1.8l-10.9,7.8v0.1l10.9-0.1v1.9h-14.1v-1.8l10.8-7.8v-0.1l-10.8,0.1v-1.9H147.4z"/>
			<path d="M147.7,1255.4c0,4-3.1,6.9-7.3,6.9c-4.2,0-7.3-2.9-7.3-6.9c0-4.1,3.1-6.9,7.3-6.9
				C144.6,1248.5,147.7,1251.2,147.7,1255.4z M134.8,1255.4c0,3,2.4,4.9,5.6,4.9c3.2,0,5.6-2,5.6-4.9c0-3-2.4-4.9-5.6-4.9
				C137.2,1250.4,134.8,1252.4,134.8,1255.4z"/>
			<path d="M147.4,1262.9v2l-12.1,4.2v0.1l12.1,4.2v1.9l-14.1-5.2v-2.1L147.4,1262.9z"/>
		</g>
	</g>
	<g>
		<g class="st3">
			<path d="M147.4,1351.3v4.4c0,4.9-2.9,7.4-7.1,7.4s-7.1-2.5-7.1-7.4v-4.4H147.4z M145.8,1353.2h-10.8v2.5c0,4,2.5,5.4,5.4,5.4
				c2.9,0,5.4-1.5,5.4-5.4V1353.2z"/>
			<path d="M147.4,1365.7v1.9h-14.1v-1.9H147.4z"/>
			<path d="M147.7,1377.1c0,3.3-1.9,5.4-4.7,6v-2c1.9-0.5,3-1.9,3-4c0-2.9-2.3-4.8-5.6-4.8c-3.2,0-5.6,1.9-5.6,4.8
				c0,2.3,1,3.6,3,4.1v2c-2.8-0.6-4.7-2.8-4.7-6.1c0-4,3-6.7,7.3-6.7C144.6,1370.3,147.7,1373.1,147.7,1377.1z"/>
		</g>
	</g>
	<g>
		
			<rect x="435.7" y="866.8" transform="matrix(-1.836970e-16 1 -1 -1.836970e-16 1858.7972 702.4932)" class="st1" width="285" height="827.6"/>
	</g>
	<g>
		<path class="st2" d="M163.9,170.8c0-0.2,0.2-0.4,0.4-0.4h827.2c0.2,0,0.4,0.2,0.4,0.4s-0.2,0.4-0.4,0.4H164.4
			C164.1,171.2,163.9,171.1,163.9,170.8z"/>
	</g>
	<g>
		<path class="st2" d="M163.9,279.6c0-0.2,0.2-0.4,0.4-0.4h827.2c0.2,0,0.4,0.2,0.4,0.4c0,0.2-0.2,0.4-0.4,0.4H164.4
			C164.1,280,163.9,279.8,163.9,279.6z"/>
	</g>
	<g>
		<path class="st2" d="M163.9,508.3c0-0.2,0.2-0.4,0.4-0.4h827.2c0.2,0,0.4,0.2,0.4,0.4c0,0.2-0.2,0.4-0.4,0.4H164.4
			C164.1,508.7,163.9,508.5,163.9,508.3z"/>
	</g>
	<g>
		<path class="st2" d="M163.9,624.5c0-0.2,0.2-0.4,0.4-0.4h827.2c0.2,0,0.4,0.2,0.4,0.4s-0.2,0.4-0.4,0.4H164.4
			C164.1,624.9,163.9,624.7,163.9,624.5z"/>
	</g>
	<g>
		<path class="st2" d="M163.9,737c0-0.2,0.2-0.4,0.4-0.4h827.2c0.2,0,0.4,0.2,0.4,0.4c0,0.2-0.2,0.4-0.4,0.4H164.4
			C164.1,737.4,163.9,737.2,163.9,737z"/>
	</g>
	<g>
		<path class="st2" d="M163.9,853.2c0-0.2,0.2-0.4,0.4-0.4h827.2c0.2,0,0.4,0.2,0.4,0.4s-0.2,0.4-0.4,0.4H164.4
			C164.1,853.6,163.9,853.4,163.9,853.2z"/>
	</g>
	<g>
		<path class="st2" d="M163.9,969.4c0-0.2,0.2-0.4,0.4-0.4h827.2c0.2,0,0.4,0.2,0.4,0.4s-0.2,0.4-0.4,0.4H164.4
			C164.1,969.8,163.9,969.6,163.9,969.4z"/>
	</g>
	<g>
		<path class="st2" d="M163.9,1081.9c0-0.2,0.2-0.4,0.4-0.4h827.2c0.2,0,0.4,0.2,0.4,0.4s-0.2,0.4-0.4,0.4H164.4
			C164.1,1082.3,163.9,1082.1,163.9,1081.9z"/>
	</g>
	<g>
		<path class="st2" d="M163.9,1198.1c0-0.2,0.2-0.4,0.4-0.4h827.2c0.2,0,0.4,0.2,0.4,0.4s-0.2,0.4-0.4,0.4H164.4
			C164.1,1198.5,163.9,1198.4,163.9,1198.1z"/>
	</g>
	<g>
		<path class="st2" d="M163.9,1310.6c0-0.2,0.2-0.4,0.4-0.4h827.2c0.2,0,0.4,0.2,0.4,0.4c0,0.2-0.2,0.4-0.4,0.4H164.4
			C164.1,1311,163.9,1310.8,163.9,1310.6z"/>
	</g>
	<g>
		<path class="st2" d="M163.9,54.7c0-0.2,0.2-0.4,0.4-0.4h827.2c0.2,0,0.4,0.2,0.4,0.4s-0.2,0.4-0.4,0.4H164.4
			C164.1,55.1,163.9,54.9,163.9,54.7z"/>
	</g>
	<g>
		<path class="st2" d="M163.9,1423.1c0-0.2,0.2-0.4,0.4-0.4h827.2c0.2,0,0.4,0.2,0.4,0.4c0,0.2-0.2,0.4-0.4,0.4H164.4
			C164.1,1423.6,163.9,1423.4,163.9,1423.1z"/>
	</g>
	<g transform="translate(0,0)">
		<g>
			<circle cx="453.7" cy="54.6" r="4.1"/>
		</g>
	</g>
	<g transform="translate(0,0)">
		<g>
			<circle cx="429.6" cy="62.1" r="4.1"/>
		</g>
	</g>
	<g transform="translate(0,0)">
		<g>
			<circle cx="373.3" cy="65.8" r="4.1"/>
		</g>
	</g>
	<g transform="translate(0,0)">
		<g>
			<circle cx="397.4" cy="69.6" r="4.1"/>
		</g>
	</g>
	<g transform="translate(0,0)">
		<g>
			<circle cx="453.7" cy="73.3" r="4.1"/>
		</g>
	</g>
	<g transform="translate(0,0)">
		<g>
			<circle cx="542.1" cy="95.8" r="4.1"/>
		</g>
	</g>
	<g transform="translate(0,0)">
		<g>
			<circle cx="550.2" cy="114.6" r="4.1"/>
		</g>
	</g>
	<g transform="translate(0,0)">
		<g>
			<circle cx="397.4" cy="118.3" r="4.1"/>
		</g>
	</g>
	<g transform="translate(0,0)">
		<g>
			<circle cx="413.5" cy="122.1" r="4.1"/>
		</g>
	</g>
	<g transform="translate(0,0)">
		<g>
			<circle cx="453.7" cy="125.8" r="4.1"/>
		</g>
	</g>
	<g transform="translate(0,0)">
		<g>
			<circle cx="469.8" cy="129.6" r="4.1"/>
		</g>
	</g>
	<g transform="translate(0,0)">
		<g>
			<circle cx="437.6" cy="133.3" r="4.1"/>
		</g>
	</g>
	<g transform="translate(0,0)">
		<g>
			<circle cx="453.7" cy="152.1" r="4.1"/>
		</g>
	</g>
	<g transform="translate(0,0)">
		<g>
			<circle cx="325.1" cy="159.6" r="4.1"/>
		</g>
	</g>
	<g transform="translate(0,0)">
		<g>
			<circle cx="445.7" cy="163.3" r="4.1"/>
		</g>
	</g>
	<g transform="translate(0,0)">
		<g>
			<circle cx="501.9" cy="167.1" r="4.1"/>
		</g>
	</g>
	<g transform="translate(0,0)">
		<g>
			<circle cx="518" cy="174.6" r="4.1"/>
		</g>
	</g>
	<g transform="translate(0,0)">
		<g>
			<circle cx="397.4" cy="178.3" r="4.1"/>
		</g>
	</g>
	<g transform="translate(0,0)">
		<g>
			<circle cx="276.8" cy="182.1" r="4.1"/>
		</g>
	</g>
	<g transform="translate(0,0)">
		<g>
			<circle cx="276.8" cy="185.8" r="4.1"/>
		</g>
	</g>
	<g transform="translate(0,0)">
		<g>
			<circle cx="413.5" cy="215.8" r="4.1"/>
		</g>
	</g>
	<g transform="translate(0,0)">
		<g>
			<circle cx="550.2" cy="219.6" r="4.1"/>
		</g>
	</g>
	<g transform="translate(0,0)">
		<g>
			<circle cx="461.7" cy="223.3" r="4.1"/>
		</g>
	</g>
	<g transform="translate(0,0)">
		<g>
			<circle cx="445.7" cy="245.8" r="4.1"/>
		</g>
	</g>
	<g transform="translate(0,0)">
		<g>
			<circle cx="558.2" cy="253.3" r="4.1"/>
		</g>
	</g>
	<g transform="translate(0,0)">
		<g>
			<circle cx="542.1" cy="260.8" r="4.1"/>
		</g>
	</g>
	<g transform="translate(0,0)">
		<g>
			<circle cx="309" cy="264.6" r="4.1"/>
		</g>
	</g>
	<g transform="translate(0,0)">
		<g>
			<circle cx="196.4" cy="268.3" r="4.1"/>
		</g>
	</g>
	<g transform="translate(0,0)">
		<g>
			<circle cx="276.8" cy="272.1" r="4.1"/>
		</g>
	</g>
	<g transform="translate(0,0)">
		<g>
			<circle cx="333.1" cy="275.8" r="4.1"/>
		</g>
	</g>
	<g transform="translate(0,0)">
		<g>
			<circle cx="453.7" cy="279.6" r="4.1"/>
		</g>
	</g>
	<g transform="translate(0,0)">
		<g>
			<circle cx="301" cy="283.3" r="4.1"/>
		</g>
	</g>
	<g transform="translate(0,0)">
		<g>
			<circle cx="236.6" cy="287" r="4.1"/>
		</g>
	</g>
	<g transform="translate(0,0)">
		<g>
			<circle cx="301" cy="290.8" r="4.1"/>
		</g>
	</g>
	<g transform="translate(0,0)">
		<g>
			<circle cx="333.1" cy="294.5" r="4.1"/>
		</g>
	</g>
	<g transform="translate(0,0)">
		<g>
			<circle cx="349.2" cy="298.3" r="4.1"/>
		</g>
	</g>
	<g transform="translate(0,0)">
		<g>
			<circle cx="437.6" cy="302" r="4.1"/>
		</g>
	</g>
	<g transform="translate(0,0)">
		<g>
			<circle cx="276.8" cy="305.8" r="4.1"/>
		</g>
	</g>
	<g transform="translate(0,0)">
		<g>
			<circle cx="357.2" cy="309.5" r="4.1"/>
		</g>
	</g>
	<g transform="translate(0,0)">
		<g>
			<circle cx="365.3" cy="313.3" r="4.1"/>
		</g>
	</g>
	<g transform="translate(0,0)">
		<g>
			<circle cx="333.1" cy="317" r="4.1"/>
		</g>
	</g>
	<g transform="translate(0,0)">
		<g>
			<circle cx="429.6" cy="320.8" r="4.1"/>
		</g>
	</g>
	<g transform="translate(0,0)">
		<g>
			<circle cx="333.1" cy="324.5" r="4.1"/>
		</g>
	</g>
	<g transform="translate(0,0)">
		<g>
			<circle cx="389.4" cy="328.3" r="4.1"/>
		</g>
	</g>
	<g transform="translate(0,0)">
		<g>
			<circle cx="260.8" cy="332" r="4.1"/>
		</g>
	</g>
	<g transform="translate(0,0)">
		<g>
			<circle cx="317" cy="335.8" r="4.1"/>
		</g>
	</g>
	<g transform="translate(0,0)">
		<g>
			<circle cx="373.3" cy="339.5" r="4.1"/>
		</g>
	</g>
	<g transform="translate(0,0)">
		<g>
			<circle cx="445.7" cy="343.3" r="4.1"/>
		</g>
	</g>
	<g transform="translate(0,0)">
		<g>
			<circle cx="397.4" cy="347" r="4.1"/>
		</g>
	</g>
	<g transform="translate(0,0)">
		<g>
			<circle cx="437.6" cy="350.8" r="4.1"/>
		</g>
	</g>
	<g transform="translate(0,0)">
		<g>
			<circle cx="373.3" cy="354.5" r="4.1"/>
		</g>
	</g>
	<g transform="translate(0,0)">
		<g>
			<circle cx="325.1" cy="358.3" r="4.1"/>
		</g>
	</g>
	<g transform="translate(0,0)">
		<g>
			<circle cx="284.9" cy="362" r="4.1"/>
		</g>
	</g>
	<g transform="translate(0,0)">
		<g>
			<circle cx="309" cy="365.8" r="4.1"/>
		</g>
	</g>
	<g transform="translate(0,0)">
		<g>
			<circle cx="341.2" cy="369.5" r="4.1"/>
		</g>
	</g>
	<g transform="translate(0,0)">
		<g>
			<circle cx="284.9" cy="373.3" r="4.1"/>
		</g>
	</g>
	<g transform="translate(0,0)">
		<g>
			<circle cx="477.8" cy="377" r="4.1"/>
		</g>
	</g>
	<g transform="translate(0,0)">
		<g>
			<circle cx="534.1" cy="388.3" r="4.1"/>
		</g>
	</g>
	<g transform="translate(0,0)">
		<g>
			<circle cx="244.7" cy="392" r="4.1"/>
		</g>
	</g>
	<g transform="translate(0,0)">
		<g>
			<circle cx="284.9" cy="395.8" r="4.1"/>
		</g>
	</g>
	<g transform="translate(0,0)">
		<g>
			<circle cx="325.1" cy="399.5" r="4.1"/>
		</g>
	</g>
	<g transform="translate(0,0)">
		<g>
			<circle cx="333.1" cy="403.3" r="4.1"/>
		</g>
	</g>
	<g transform="translate(0,0)">
		<g>
			<circle cx="349.2" cy="407" r="4.1"/>
		</g>
	</g>
	<g transform="translate(0,0)">
		<g>
			<circle cx="333.1" cy="410.8" r="4.1"/>
		</g>
	</g>
	<g transform="translate(0,0)">
		<g>
			<circle cx="397.4" cy="414.5" r="4.1"/>
		</g>
	</g>
	<g transform="translate(0,0)">
		<g>
			<circle cx="397.4" cy="418.3" r="4.1"/>
		</g>
	</g>
	<g transform="translate(0,0)">
		<g>
			<circle cx="325.1" cy="422" r="4.1"/>
		</g>
	</g>
	<g transform="translate(0,0)">
		<g>
			<circle cx="309" cy="425.8" r="4.1"/>
		</g>
	</g>
	<g transform="translate(0,0)">
		<g>
			<circle cx="317" cy="429.5" r="4.1"/>
		</g>
	</g>
	<g transform="translate(0,0)">
		<g>
			<circle cx="325.1" cy="433.3" r="4.1"/>
		</g>
	</g>
	<g transform="translate(0,0)">
		<g>
			<circle cx="236.6" cy="437" r="4.1"/>
		</g>
	</g>
	<g transform="translate(0,0)">
		<g>
			<circle cx="276.8" cy="440.8" r="4.1"/>
		</g>
	</g>
	<g transform="translate(0,0)">
		<g>
			<circle cx="309" cy="444.5" r="4.1"/>
		</g>
	</g>
	<g transform="translate(0,0)">
		<g>
			<circle cx="301" cy="448.3" r="4.1"/>
		</g>
	</g>
	<g transform="translate(0,0)">
		<g>
			<circle cx="284.9" cy="452" r="4.1"/>
		</g>
	</g>
	<g transform="translate(0,0)">
		<g>
			<circle cx="317" cy="455.8" r="4.1"/>
		</g>
	</g>
	<g transform="translate(0,0)">
		<g>
			<circle cx="309" cy="459.5" r="4.1"/>
		</g>
	</g>
	<g transform="translate(0,0)">
		<g>
			<circle cx="341.2" cy="463.3" r="4.1"/>
		</g>
	</g>
	<g transform="translate(0,0)">
		<g>
			<circle cx="284.9" cy="467" r="4.1"/>
		</g>
	</g>
	<g transform="translate(0,0)">
		<g>
			<circle cx="301" cy="470.8" r="4.1"/>
		</g>
	</g>
	<g transform="translate(0,0)">
		<g>
			<circle cx="349.2" cy="474.5" r="4.1"/>
		</g>
	</g>
	<g transform="translate(0,0)">
		<g>
			<circle cx="381.3" cy="478.3" r="4.1"/>
		</g>
	</g>
	<g transform="translate(0,0)">
		<g>
			<circle cx="341.2" cy="482" r="4.1"/>
		</g>
	</g>
	<g transform="translate(0,0)">
		<g>
			<circle cx="284.9" cy="485.8" r="4.1"/>
		</g>
	</g>
	<g transform="translate(0,0)">
		<g>
			<circle cx="260.8" cy="489.5" r="4.1"/>
		</g>
	</g>
	<g transform="translate(0,0)">
		<g>
			<circle cx="244.7" cy="493.3" r="4.1"/>
		</g>
	</g>
	<g transform="translate(0,0)">
		<g>
			<circle cx="228.6" cy="497" r="4.1"/>
		</g>
	</g>
	<g transform="translate(0,0)">
		<g>
			<circle cx="260.8" cy="500.8" r="4.1"/>
		</g>
	</g>
	<g transform="translate(0,0)">
		<g>
			<circle cx="228.6" cy="504.5" r="4.1"/>
		</g>
	</g>
	<g transform="translate(0,0)">
		<g>
			<circle cx="212.5" cy="508.3" r="4.1"/>
		</g>
	</g>
	<g transform="translate(0,0)">
		<g>
			<circle cx="236.6" cy="512" r="4.1"/>
		</g>
	</g>
	<g transform="translate(0,0)">
		<g>
			<circle cx="268.8" cy="515.8" r="4.1"/>
		</g>
	</g>
	<g transform="translate(0,0)">
		<g>
			<ellipse transform="matrix(0.1602 -0.9871 0.9871 0.1602 -287.0602 701.6097)" cx="268.8" cy="519.5" rx="4.1" ry="4.1"/>
		</g>
	</g>
	<g transform="translate(0,0)">
		<g>
			<circle cx="268.8" cy="523.3" r="4.1"/>
		</g>
	</g>
	<g transform="translate(0,0)">
		<g>
			<circle cx="309" cy="527" r="4.1"/>
		</g>
	</g>
	<g transform="translate(0,0)">
		<g>
			<circle cx="292.9" cy="530.8" r="4.1"/>
		</g>
	</g>
	<g transform="translate(0,0)">
		<g>
			<circle cx="309" cy="534.5" r="4.1"/>
		</g>
	</g>
	<g transform="translate(0,0)">
		<g>
			<circle cx="244.7" cy="538.3" r="4.1"/>
		</g>
	</g>
	<g transform="translate(0,0)">
		<g>
			<circle cx="268.8" cy="542" r="4.1"/>
		</g>
	</g>
	<g transform="translate(0,0)">
		<g>
			<circle cx="196.4" cy="545.7" r="4.1"/>
		</g>
	</g>
	<g transform="translate(0,0)">
		<g>
			<circle cx="228.6" cy="549.5" r="4.1"/>
		</g>
	</g>
	<g transform="translate(0,0)">
		<g>
			<circle cx="276.8" cy="553.2" r="4.1"/>
		</g>
	</g>
	<g transform="translate(0,0)">
		<g>
			<circle cx="389.4" cy="557" r="4.1"/>
		</g>
	</g>
	<g transform="translate(0,0)">
		<g>
			<circle cx="292.9" cy="560.7" r="4.1"/>
		</g>
	</g>
	<g transform="translate(0,0)">
		<g>
			<circle cx="260.8" cy="564.5" r="4.1"/>
		</g>
	</g>
	<g transform="translate(0,0)">
		<g>
			<circle cx="333.1" cy="568.2" r="4.1"/>
		</g>
	</g>
	<g transform="translate(0,0)">
		<g>
			<circle cx="365.3" cy="572" r="4.1"/>
		</g>
	</g>
	<g transform="translate(0,0)">
		<g>
			<circle cx="357.2" cy="575.7" r="4.1"/>
		</g>
	</g>
	<g transform="translate(0,0)">
		<g>
			<circle cx="292.9" cy="579.5" r="4.1"/>
		</g>
	</g>
	<g transform="translate(0,0)">
		<g>
			<circle cx="260.8" cy="583.2" r="4.1"/>
		</g>
	</g>
	<g transform="translate(0,0)">
		<g>
			<circle cx="292.9" cy="587" r="4.1"/>
		</g>
	</g>
	<g transform="translate(0,0)">
		<g>
			<circle cx="284.9" cy="590.7" r="4.1"/>
		</g>
	</g>
	<g transform="translate(0,0)">
		<g>
			<circle cx="276.8" cy="594.5" r="4.1"/>
		</g>
	</g>
	<g transform="translate(0,0)">
		<g>
			<circle cx="252.7" cy="598.2" r="4.1"/>
		</g>
	</g>
	<g transform="translate(0,0)">
		<g>
			<circle cx="292.9" cy="602" r="4.1"/>
		</g>
	</g>
	<g transform="translate(0,0)">
		<g>
			<circle cx="236.6" cy="605.7" r="4.1"/>
		</g>
	</g>
	<g transform="translate(0,0)">
		<g>
			<circle cx="228.6" cy="609.5" r="4.1"/>
		</g>
	</g>
	<g transform="translate(0,0)">
		<g>
			<circle cx="212.5" cy="613.2" r="4.1"/>
		</g>
	</g>
	<g transform="translate(0,0)">
		<g>
			<circle cx="228.6" cy="617" r="4.1"/>
		</g>
	</g>
	<g transform="translate(0,0)">
		<g>
			<circle cx="252.7" cy="620.7" r="4.1"/>
		</g>
	</g>
	<g transform="translate(0,0)">
		<g>
			<circle cx="260.8" cy="624.5" r="4.1"/>
		</g>
	</g>
	<g transform="translate(0,0)">
		<g>
			<circle cx="236.6" cy="628.2" r="4.1"/>
		</g>
	</g>
	<g transform="translate(0,0)">
		<g>
			<circle cx="204.5" cy="632" r="4.1"/>
		</g>
	</g>
	<g transform="translate(0,0)">
		<g>
			<circle cx="196.4" cy="635.7" r="4.1"/>
		</g>
	</g>
	<g transform="translate(0,0)">
		<g>
			<circle cx="220.6" cy="639.5" r="4.1"/>
		</g>
	</g>
	<g transform="translate(0,0)">
		<g>
			<circle cx="220.6" cy="643.2" r="4.1"/>
		</g>
	</g>
	<g transform="translate(0,0)">
		<g>
			<circle cx="228.6" cy="647" r="4.1"/>
		</g>
	</g>
	<g transform="translate(0,0)">
		<g>
			<circle cx="276.8" cy="650.7" r="4.1"/>
		</g>
	</g>
	<g transform="translate(0,0)">
		<g>
			<circle cx="212.5" cy="658.2" r="4.1"/>
		</g>
	</g>
	<g transform="translate(0,0)">
		<g>
			<circle cx="236.6" cy="662" r="4.1"/>
		</g>
	</g>
	<g transform="translate(0,0)">
		<g>
			<circle cx="228.6" cy="665.7" r="4.1"/>
		</g>
	</g>
	<g transform="translate(0,0)">
		<g>
			<circle cx="236.6" cy="669.5" r="4.1"/>
		</g>
	</g>
	<g transform="translate(0,0)">
		<g>
			<circle cx="228.6" cy="673.2" r="4.1"/>
		</g>
	</g>
	<g transform="translate(0,0)">
		<g>
			<circle cx="212.5" cy="677" r="4.1"/>
		</g>
	</g>
	<g transform="translate(0,0)">
		<g>
			<circle cx="260.8" cy="680.7" r="4.1"/>
		</g>
	</g>
	<g transform="translate(0,0)">
		<g>
			<circle cx="228.6" cy="684.5" r="4.1"/>
		</g>
	</g>
	<g transform="translate(0,0)">
		<g>
			<circle cx="220.6" cy="688.2" r="4.1"/>
		</g>
	</g>
	<g transform="translate(0,0)">
		<g>
			<circle cx="204.5" cy="692" r="4.1"/>
		</g>
	</g>
	<g transform="translate(0,0)">
		<g>
			<circle cx="220.6" cy="695.7" r="4.1"/>
		</g>
	</g>
	<g transform="translate(0,0)">
		<g>
			<circle cx="228.6" cy="699.5" r="4.1"/>
		</g>
	</g>
	<g transform="translate(0,0)">
		<g>
			<circle cx="252.7" cy="703.2" r="4.1"/>
		</g>
	</g>
	<g transform="translate(0,0)">
		<g>
			<circle cx="325.1" cy="718.2" r="4.1"/>
		</g>
	</g>
	<g transform="translate(0,0)">
		<g>
			<circle cx="268.8" cy="722" r="4.1"/>
		</g>
	</g>
	<g transform="translate(0,0)">
		<g>
			<circle cx="284.9" cy="725.7" r="4.1"/>
		</g>
	</g>
	<g transform="translate(0,0)">
		<g>
			<ellipse transform="matrix(1 -4.000115e-03 4.000115e-03 1 -2.9158 1.081)" cx="268.8" cy="729.5" rx="4.1" ry="4.1"/>
		</g>
	</g>
	<g transform="translate(0,0)">
		<g>
			<circle cx="325.1" cy="733.2" r="4.1"/>
		</g>
	</g>
	<g transform="translate(0,0)">
		<g>
			<ellipse transform="matrix(2.024264e-03 -1 1 2.024264e-03 -420.5717 1052.5002)" cx="317" cy="737" rx="4.1" ry="4.1"/>
		</g>
	</g>
	<g transform="translate(0,0)">
		<g>
			<ellipse transform="matrix(1 -2.040787e-03 2.040787e-03 1 -1.5109 0.7306)" cx="357.2" cy="740.7" rx="4.1" ry="4.1"/>
		</g>
	</g>
	<g transform="translate(0,0)">
		<g>
			<circle cx="260.8" cy="744.5" r="4.1"/>
		</g>
	</g>
	<g transform="translate(0,0)">
		<g>
			<ellipse transform="matrix(3.936706e-03 -1 1 3.936706e-03 -520.5116 973.8549)" cx="228.6" cy="748.2" rx="4.1" ry="4.1"/>
		</g>
	</g>
	<g transform="translate(0,0)">
		<g>
			<circle cx="244.7" cy="752" r="4.1"/>
		</g>
	</g>
	<g transform="translate(0,0)">
		<g>
			<circle cx="292.9" cy="755.7" r="4.1"/>
		</g>
	</g>
	<g transform="translate(0,0)">
		<g>
			<circle cx="349.2" cy="759.5" r="4.1"/>
		</g>
	</g>
	<g transform="translate(0,0)">
		<g>
			<ellipse transform="matrix(0.9999 -1.723384e-02 1.723384e-02 0.9999 -13.1059 5.577)" cx="317" cy="763.2" rx="4.1" ry="4.1"/>
		</g>
	</g>
	<g transform="translate(0,0)">
		<g>
			<circle cx="309" cy="767" r="4.1"/>
		</g>
	</g>
	<g transform="translate(0,0)">
		<g>
			<circle cx="341.2" cy="770.7" r="4.1"/>
		</g>
	</g>
	<g transform="translate(0,0)">
		<g>
			<circle cx="357.2" cy="774.5" r="4.1"/>
		</g>
	</g>
	<g transform="translate(0,0)">
		<g>
			<circle cx="252.7" cy="778.2" r="4.1"/>
		</g>
	</g>
	<g transform="translate(0,0)">
		<g>
			<circle cx="276.8" cy="782" r="4.1"/>
		</g>
	</g>
	<g transform="translate(0,0)">
		<g>
			<circle cx="276.8" cy="785.7" r="4.1"/>
		</g>
	</g>
	<g transform="translate(0,0)">
		<g>
			<circle cx="244.7" cy="789.5" r="4.1"/>
		</g>
	</g>
	<g transform="translate(0,0)">
		<g>
			<circle cx="309" cy="793.2" r="4.1"/>
		</g>
	</g>
	<g transform="translate(0,0)">
		<g>
			<circle cx="301" cy="797" r="4.1"/>
		</g>
	</g>
	<g transform="translate(0,0)">
		<g>
			<circle cx="252.7" cy="800.7" r="4.1"/>
		</g>
	</g>
	<g transform="translate(0,0)">
		<g>
			<circle cx="244.7" cy="804.4" r="4.1"/>
		</g>
	</g>
	<g transform="translate(0,0)">
		<g>
			<circle cx="317" cy="808.2" r="4.1"/>
		</g>
	</g>
	<g transform="translate(0,0)">
		<g>
			<circle cx="301" cy="811.9" r="4.1"/>
		</g>
	</g>
	<g transform="translate(0,0)">
		<g>
			<circle cx="349.2" cy="815.7" r="4.1"/>
		</g>
	</g>
	<g transform="translate(0,0)">
		<g>
			<circle cx="268.8" cy="819.4" r="4.1"/>
		</g>
	</g>
	<g transform="translate(0,0)">
		<g>
			<circle cx="268.8" cy="823.2" r="4.1"/>
		</g>
	</g>
	<g transform="translate(0,0)">
		<g>
			<circle cx="236.6" cy="826.9" r="4.1"/>
		</g>
	</g>
	<g transform="translate(0,0)">
		<g>
			<circle cx="276.8" cy="830.7" r="4.1"/>
		</g>
	</g>
	<g transform="translate(0,0)">
		<g>
			<circle cx="309" cy="834.4" r="4.1"/>
		</g>
	</g>
	<g transform="translate(0,0)">
		<g>
			<circle cx="333.1" cy="838.2" r="4.1"/>
		</g>
	</g>
	<g transform="translate(0,0)">
		<g>
			<circle cx="357.2" cy="841.9" r="4.1"/>
		</g>
	</g>
	<g transform="translate(0,0)">
		<g>
			<circle cx="228.6" cy="864.4" r="4.1"/>
		</g>
	</g>
	<g transform="translate(0,0)">
		<g>
			<circle cx="260.8" cy="868.2" r="4.1"/>
		</g>
	</g>
	<g transform="translate(0,0)">
		<g>
			<circle cx="349.2" cy="871.9" r="4.1"/>
		</g>
	</g>
	<g transform="translate(0,0)">
		<g>
			<circle cx="349.2" cy="875.7" r="4.1"/>
		</g>
	</g>
	<g transform="translate(0,0)">
		<g>
			<circle cx="373.3" cy="879.4" r="4.1"/>
		</g>
	</g>
	<g transform="translate(0,0)">
		<g>
			<circle cx="341.2" cy="883.2" r="4.1"/>
		</g>
	</g>
	<g transform="translate(0,0)">
		<g>
			<circle cx="389.4" cy="886.9" r="4.1"/>
		</g>
	</g>
	<g transform="translate(0,0)">
		<g>
			<circle cx="373.3" cy="890.7" r="4.1"/>
		</g>
	</g>
	<g transform="translate(0,0)">
		<g>
			<circle cx="365.3" cy="894.4" r="4.1"/>
		</g>
	</g>
	<g transform="translate(0,0)">
		<g>
			<circle cx="373.3" cy="898.2" r="4.1"/>
		</g>
	</g>
	<g transform="translate(0,0)">
		<g>
			<circle cx="333.1" cy="901.9" r="4.1"/>
		</g>
	</g>
	<g transform="translate(0,0)">
		<g>
			<circle cx="333.1" cy="905.7" r="4.1"/>
		</g>
	</g>
	<g transform="translate(0,0)">
		<g>
			<circle cx="317" cy="909.4" r="4.1"/>
		</g>
	</g>
	<g transform="translate(0,0)">
		<g>
			<circle cx="317" cy="913.2" r="4.1"/>
		</g>
	</g>
	<g transform="translate(0,0)">
		<g>
			<circle cx="260.8" cy="916.9" r="4.1"/>
		</g>
	</g>
	<g transform="translate(0,0)">
		<g>
			<circle cx="276.8" cy="920.7" r="4.1"/>
		</g>
	</g>
	<g transform="translate(0,0)">
		<g>
			<circle cx="325.1" cy="924.4" r="4.1"/>
		</g>
	</g>
	<g transform="translate(0,0)">
		<g>
			<circle cx="276.8" cy="928.2" r="4.1"/>
		</g>
	</g>
	<g transform="translate(0,0)">
		<g>
			<circle cx="276.8" cy="931.9" r="4.1"/>
		</g>
	</g>
	<g transform="translate(0,0)">
		<g>
			<circle cx="317" cy="935.7" r="4.1"/>
		</g>
	</g>
	<g transform="translate(0,0)">
		<g>
			<circle cx="268.8" cy="939.4" r="4.1"/>
		</g>
	</g>
	<g transform="translate(0,0)">
		<g>
			<circle cx="268.8" cy="943.2" r="4.1"/>
		</g>
	</g>
	<g transform="translate(0,0)">
		<g>
			<circle cx="284.9" cy="946.9" r="4.1"/>
		</g>
	</g>
	<g transform="translate(0,0)">
		<g>
			<circle cx="325.1" cy="950.7" r="4.1"/>
		</g>
	</g>
	<g transform="translate(0,0)">
		<g>
			<circle cx="252.7" cy="954.4" r="4.1"/>
		</g>
	</g>
	<g transform="translate(0,0)">
		<g>
			<circle cx="260.8" cy="958.2" r="4.1"/>
		</g>
	</g>
	<g transform="translate(0,0)">
		<g>
			<circle cx="260.8" cy="961.9" r="4.1"/>
		</g>
	</g>
	<g transform="translate(0,0)">
		<g>
			<circle cx="260.8" cy="965.7" r="4.1"/>
		</g>
	</g>
	<g transform="translate(0,0)">
		<g>
			<circle cx="284.9" cy="969.4" r="4.1"/>
		</g>
	</g>
	<g transform="translate(0,0)">
		<g>
			<circle cx="284.9" cy="973.2" r="4.1"/>
		</g>
	</g>
	<g transform="translate(0,0)">
		<g>
			<circle cx="284.9" cy="976.9" r="4.1"/>
		</g>
	</g>
	<g transform="translate(0,0)">
		<g>
			<circle cx="292.9" cy="980.7" r="4.1"/>
		</g>
	</g>
	<g transform="translate(0,0)">
		<g>
			<circle cx="292.9" cy="984.4" r="4.1"/>
		</g>
	</g>
	<g transform="translate(0,0)">
		<g>
			<circle cx="252.7" cy="988.2" r="4.1"/>
		</g>
	</g>
	<g transform="translate(0,0)">
		<g>
			<circle cx="413.5" cy="991.9" r="4.1"/>
		</g>
	</g>
	<g transform="translate(0,0)">
		<g>
			<circle cx="317" cy="995.7" r="4.1"/>
		</g>
	</g>
	<g transform="translate(0,0)">
		<g>
			<circle cx="301" cy="999.4" r="4.1"/>
		</g>
	</g>
	<g transform="translate(0,0)">
		<g>
			<circle cx="373.3" cy="1003.2" r="4.1"/>
		</g>
	</g>
	<g transform="translate(0,0)">
		<g>
			<circle cx="365.3" cy="1006.9" r="4.1"/>
		</g>
	</g>
	<g transform="translate(0,0)">
		<g>
			<circle cx="349.2" cy="1010.7" r="4.1"/>
		</g>
	</g>
	<g transform="translate(0,0)">
		<g>
			<circle cx="429.6" cy="1014.4" r="4.1"/>
		</g>
	</g>
	<g transform="translate(0,0)">
		<g>
			<circle cx="429.6" cy="1018.2" r="4.1"/>
		</g>
	</g>
	<g transform="translate(0,0)">
		<g>
			<circle cx="421.5" cy="1021.9" r="4.1"/>
		</g>
	</g>
	<g transform="translate(0,0)">
		<g>
			<circle cx="429.6" cy="1025.7" r="4.1"/>
		</g>
	</g>
	<g transform="translate(0,0)">
		<g>
			<circle cx="389.4" cy="1029.4" r="4.1"/>
		</g>
	</g>
	<g transform="translate(0,0)">
		<g>
			<circle cx="373.3" cy="1033.2" r="4.1"/>
		</g>
	</g>
	<g transform="translate(0,0)">
		<g>
			<circle cx="365.3" cy="1036.9" r="4.1"/>
		</g>
	</g>
	<g transform="translate(0,0)">
		<g>
			<circle cx="333.1" cy="1040.7" r="4.1"/>
		</g>
	</g>
	<g transform="translate(0,0)">
		<g>
			<circle cx="276.8" cy="1044.4" r="4.1"/>
		</g>
	</g>
	<g transform="translate(0,0)">
		<g>
			<circle cx="292.9" cy="1048.2" r="4.1"/>
		</g>
	</g>
	<g transform="translate(0,0)">
		<g>
			<circle cx="220.6" cy="1051.9" r="4.1"/>
		</g>
	</g>
	<g transform="translate(0,0)">
		<g>
			<circle cx="212.5" cy="1055.7" r="4.1"/>
		</g>
	</g>
	<g transform="translate(0,0)">
		<g>
			<circle cx="196.4" cy="1059.4" r="4.1"/>
		</g>
	</g>
	<g transform="translate(0,0)">
		<g>
			<circle cx="188.4" cy="1063.1" r="4.1"/>
		</g>
	</g>
	<g transform="translate(0,0)">
		<g>
			<circle cx="196.4" cy="1066.9" r="4.1"/>
		</g>
	</g>
	<g transform="translate(0,0)">
		<g>
			<circle cx="260.8" cy="1070.6" r="4.1"/>
		</g>
	</g>
	<g transform="translate(0,0)">
		<g>
			<circle cx="309" cy="1074.4" r="4.1"/>
		</g>
	</g>
	<g transform="translate(0,0)">
		<g>
			<circle cx="309" cy="1078.1" r="4.1"/>
		</g>
	</g>
	<g transform="translate(0,0)">
		<g>
			<circle cx="268.8" cy="1081.9" r="4.1"/>
		</g>
	</g>
	<g transform="translate(0,0)">
		<g>
			<circle cx="244.7" cy="1085.6" r="4.1"/>
		</g>
	</g>
	<g transform="translate(0,0)">
		<g>
			<circle cx="228.6" cy="1089.4" r="4.1"/>
		</g>
	</g>
	<g transform="translate(0,0)">
		<g>
			<circle cx="236.6" cy="1093.1" r="4.1"/>
		</g>
	</g>
	<g transform="translate(0,0)">
		<g>
			<circle cx="260.8" cy="1096.9" r="4.1"/>
		</g>
	</g>
	<g transform="translate(0,0)">
		<g>
			<circle cx="292.9" cy="1100.6" r="4.1"/>
		</g>
	</g>
	<g transform="translate(0,0)">
		<g>
			<circle cx="381.3" cy="1104.4" r="4.1"/>
		</g>
	</g>
	<g transform="translate(0,0)">
		<g>
			<circle cx="357.2" cy="1108.1" r="4.1"/>
		</g>
	</g>
	<g transform="translate(0,0)">
		<g>
			<circle cx="397.4" cy="1111.9" r="4.1"/>
		</g>
	</g>
	<g transform="translate(0,0)">
		<g>
			<circle cx="357.2" cy="1115.6" r="4.1"/>
		</g>
	</g>
	<g transform="translate(0,0)">
		<g>
			<circle cx="220.6" cy="1119.4" r="4.1"/>
		</g>
	</g>
	<g transform="translate(0,0)">
		<g>
			<circle cx="212.5" cy="1123.1" r="4.1"/>
		</g>
	</g>
	<g transform="translate(0,0)">
		<g>
			<circle cx="220.6" cy="1126.9" r="4.1"/>
		</g>
	</g>
	<g transform="translate(0,0)">
		<g>
			<circle cx="260.8" cy="1130.6" r="4.1"/>
		</g>
	</g>
	<g transform="translate(0,0)">
		<g>
			<circle cx="276.8" cy="1134.4" r="4.1"/>
		</g>
	</g>
	<g transform="translate(0,0)">
		<g>
			<circle cx="260.8" cy="1138.1" r="4.1"/>
		</g>
	</g>
	<g transform="translate(0,0)">
		<g>
			<circle cx="317" cy="1141.9" r="4.1"/>
		</g>
	</g>
	<g transform="translate(0,0)">
		<g>
			<circle cx="309" cy="1145.6" r="4.1"/>
		</g>
	</g>
	<g transform="translate(0,0)">
		<g>
			<circle cx="341.2" cy="1149.4" r="4.1"/>
		</g>
	</g>
	<g transform="translate(0,0)">
		<g>
			<circle cx="357.2" cy="1153.1" r="4.1"/>
		</g>
	</g>
	<g transform="translate(0,0)">
		<g>
			<circle cx="381.3" cy="1156.9" r="4.1"/>
		</g>
	</g>
	<g transform="translate(0,0)">
		<g>
			<circle cx="477.8" cy="1160.6" r="4.1"/>
		</g>
	</g>
	<g transform="translate(0,0)">
		<g>
			<circle cx="558.2" cy="1168.1" r="4.1"/>
		</g>
	</g>
	<g transform="translate(0,0)">
		<g>
			<circle cx="309" cy="1171.9" r="4.1"/>
		</g>
	</g>
	<g transform="translate(0,0)">
		<g>
			<circle cx="204.5" cy="1175.6" r="4.1"/>
		</g>
	</g>
	<g transform="translate(0,0)">
		<g>
			<circle cx="252.7" cy="1179.4" r="4.1"/>
		</g>
	</g>
	<g transform="translate(0,0)">
		<g>
			<circle cx="276.8" cy="1183.1" r="4.1"/>
		</g>
	</g>
	<g transform="translate(0,0)">
		<g>
			<circle cx="309" cy="1186.9" r="4.1"/>
		</g>
	</g>
	<g transform="translate(0,0)">
		<g>
			<circle cx="437.6" cy="1190.6" r="4.1"/>
		</g>
	</g>
	<g transform="translate(0,0)">
		<g>
			<circle cx="453.7" cy="1194.4" r="4.1"/>
		</g>
	</g>
	<g transform="translate(0,0)">
		<g>
			<circle cx="413.5" cy="1198.1" r="4.1"/>
		</g>
	</g>
	<g transform="translate(0,0)">
		<g>
			<circle cx="437.6" cy="1201.9" r="4.1"/>
		</g>
	</g>
	<g transform="translate(0,0)">
		<g>
			<circle cx="397.4" cy="1213.1" r="4.1"/>
		</g>
	</g>
	<g transform="translate(0,0)">
		<g>
			<circle cx="325.1" cy="1216.9" r="4.1"/>
		</g>
	</g>
	<g transform="translate(0,0)">
		<g>
			<circle cx="445.7" cy="1220.6" r="4.1"/>
		</g>
	</g>
	<g transform="translate(0,0)">
		<g>
			<circle cx="421.5" cy="1224.4" r="4.1"/>
		</g>
	</g>
	<g transform="translate(0,0)">
		<g>
			<circle cx="365.3" cy="1228.1" r="4.1"/>
		</g>
	</g>
	<g transform="translate(0,0)">
		<g>
			<circle cx="485.9" cy="1231.9" r="4.1"/>
		</g>
	</g>
	<g transform="translate(0,0)">
		<g>
			<circle cx="477.8" cy="1254.4" r="4.1"/>
		</g>
	</g>
	<g transform="translate(0,0)">
		<g>
			<circle cx="445.7" cy="1258.1" r="4.1"/>
		</g>
	</g>
	<g transform="translate(0,0)">
		<g>
			<circle cx="405.5" cy="1261.9" r="4.1"/>
		</g>
	</g>
	<g transform="translate(0,0)">
		<g>
			<circle cx="413.5" cy="1265.6" r="4.1"/>
		</g>
	</g>
	<g transform="translate(0,0)">
		<g>
			<circle cx="317" cy="1269.4" r="4.1"/>
		</g>
	</g>
	<g transform="translate(0,0)">
		<g>
			<circle cx="301" cy="1273.1" r="4.1"/>
		</g>
	</g>
	<g transform="translate(0,0)">
		<g>
			<circle cx="301" cy="1276.9" r="4.1"/>
		</g>
	</g>
	<g transform="translate(0,0)">
		<g>
			<circle cx="333.1" cy="1280.6" r="4.1"/>
		</g>
	</g>
	<g transform="translate(0,0)">
		<g>
			<circle cx="461.7" cy="1284.4" r="4.1"/>
		</g>
	</g>
	<g transform="translate(0,0)">
		<g>
			<circle cx="453.7" cy="1288.1" r="4.1"/>
		</g>
	</g>
	<g transform="translate(0,0)">
		<g>
			<circle cx="381.3" cy="1306.9" r="4.1"/>
		</g>
	</g>
	<g transform="translate(0,0)">
		<g>
			<circle cx="389.4" cy="1310.6" r="4.1"/>
		</g>
	</g>
	<g transform="translate(0,0)">
		<g>
			<circle cx="260.8" cy="1314.3" r="4.1"/>
		</g>
	</g>
	<g transform="translate(0,0)">
		<g>
			<circle cx="252.7" cy="1318.1" r="4.1"/>
		</g>
	</g>
	<g transform="translate(0,0)">
		<g>
			<circle cx="276.8" cy="1321.8" r="4.1"/>
		</g>
	</g>
	<g transform="translate(0,0)">
		<g>
			<circle cx="244.7" cy="1325.6" r="4.1"/>
		</g>
	</g>
	<g transform="translate(0,0)">
		<g>
			<circle cx="317" cy="1329.3" r="4.1"/>
		</g>
	</g>
	<g transform="translate(0,0)">
		<g>
			<circle cx="236.6" cy="1333.1" r="4.1"/>
		</g>
	</g>
	<g transform="translate(0,0)">
		<g>
			<circle cx="268.8" cy="1336.8" r="4.1"/>
		</g>
	</g>
	<g transform="translate(0,0)">
		<g>
			<circle cx="228.6" cy="1340.6" r="4.1"/>
		</g>
	</g>
	<g transform="translate(0,0)">
		<g>
			<circle cx="373.3" cy="1344.3" r="4.1"/>
		</g>
	</g>
	<g transform="translate(0,0)">
		<g>
			<circle cx="493.9" cy="1348.1" r="4.1"/>
		</g>
	</g>
	<g transform="translate(0,0)">
		<g>
			<circle cx="445.7" cy="1351.8" r="4.1"/>
		</g>
	</g>
	<g transform="translate(0,0)">
		<g>
			<circle cx="389.4" cy="1355.6" r="4.1"/>
		</g>
	</g>
	<g transform="translate(0,0)">
		<g>
			<circle cx="453.7" cy="1359.3" r="4.1"/>
		</g>
	</g>
	<g transform="translate(0,0)">
		<g>
			<circle cx="453.7" cy="1363.1" r="4.1"/>
		</g>
	</g>
	<g transform="translate(0,0)">
		<g>
			<circle cx="510" cy="1366.8" r="4.1"/>
		</g>
	</g>
	<g transform="translate(0,0)">
		<g>
			<circle cx="501.9" cy="1385.6" r="4.1"/>
		</g>
	</g>
	<g transform="translate(0,0)">
		<g>
			<circle cx="493.9" cy="1389.3" r="4.1"/>
		</g>
	</g>
	<g transform="translate(0,0)">
		<g>
			<circle cx="542.1" cy="1393.1" r="4.1"/>
		</g>
	</g>
	<g transform="translate(0,0)">
		<g>
			<circle class="st4" cx="622.5" cy="58.3" r="4.1"/>
		</g>
	</g>
	<g transform="translate(0,0)">
		<g>
			<circle class="st4" cx="598.4" cy="77.1" r="4.1"/>
		</g>
	</g>
	<g transform="translate(0,0)">
		<g>
			<circle class="st4" cx="590.4" cy="80.8" r="4.1"/>
		</g>
	</g>
	<g transform="translate(0,0)">
		<g>
			<circle class="st4" cx="582.3" cy="84.6" r="4.1"/>
		</g>
	</g>
	<g transform="translate(0,0)">
		<g>
			<circle class="st4" cx="686.9" cy="88.3" r="4.1"/>
		</g>
	</g>
	<g transform="translate(0,0)">
		<g>
			<circle class="st4" cx="686.9" cy="92.1" r="4.1"/>
		</g>
	</g>
	<g transform="translate(0,0)">
		<g>
			<circle class="st4" cx="614.5" cy="99.6" r="4.1"/>
		</g>
	</g>
	<g transform="translate(0,0)">
		<g>
			<circle class="st4" cx="807.5" cy="103.3" r="4.1"/>
		</g>
	</g>
	<g transform="translate(0,0)">
		<g>
			<circle class="st4" cx="582.3" cy="137.1" r="4.1"/>
		</g>
	</g>
	<g transform="translate(0,0)">
		<g>
			<circle class="st4" cx="791.4" cy="140.8" r="4.1"/>
		</g>
	</g>
	<g transform="translate(0,0)">
		<g>
			<circle class="st4" cx="903.9" cy="144.6" r="4.1"/>
		</g>
	</g>
	<g transform="translate(0,0)">
		<g>
			<circle class="st4" cx="638.6" cy="148.3" r="4.1"/>
		</g>
	</g>
	<g transform="translate(0,0)">
		<g>
			<circle class="st4" cx="670.8" cy="155.8" r="4.1"/>
		</g>
	</g>
	<g transform="translate(0,0)">
		<g>
			<circle class="st4" cx="727.1" cy="170.8" r="4.1"/>
		</g>
	</g>
	<g transform="translate(0,0)">
		<g>
			<circle class="st4" cx="590.4" cy="197.1" r="4.1"/>
		</g>
	</g>
	<g transform="translate(0,0)">
		<g>
			<circle class="st4" cx="582.3" cy="200.8" r="4.1"/>
		</g>
	</g>
	<g transform="translate(0,0)">
		<g>
			<circle class="st4" cx="783.3" cy="204.6" r="4.1"/>
		</g>
	</g>
	<g transform="translate(0,0)">
		<g>
			<circle class="st4" cx="686.9" cy="227.1" r="4.1"/>
		</g>
	</g>
	<g transform="translate(0,0)">
		<g>
			<circle class="st4" cx="566.3" cy="230.8" r="4.1"/>
		</g>
	</g>
	<g transform="translate(0,0)">
		<g>
			<circle class="st4" cx="702.9" cy="234.6" r="4.1"/>
		</g>
	</g>
	<g transform="translate(0,0)">
		<g>
			<circle class="st4" cx="694.9" cy="249.6" r="4.1"/>
		</g>
	</g>
	<g transform="translate(0,0)">
		<g>
			<circle class="st4" cx="590.4" cy="257.1" r="4.1"/>
		</g>
	</g>
	<g transform="translate(0,0)">
		<g>
			<circle class="st4" cx="952.2" cy="380.8" r="4.1"/>
		</g>
	</g>
	<g transform="translate(0,0)">
		<g>
			<circle class="st4" cx="871.8" cy="384.5" r="4.1"/>
		</g>
	</g>
	<g transform="translate(0,0)">
		<g>
			<circle class="st4" cx="646.7" cy="1164.4" r="4.1"/>
		</g>
	</g>
	<g transform="translate(0,0)">
		<g>
			<circle class="st4" cx="751.2" cy="1205.6" r="4.1"/>
		</g>
	</g>
	<g transform="translate(0,0)">
		<g>
			<circle class="st4" cx="590.4" cy="1209.4" r="4.1"/>
		</g>
	</g>
	<g transform="translate(0,0)">
		<g>
			<circle class="st4" cx="630.6" cy="1235.6" r="4.1"/>
		</g>
	</g>
	<g transform="translate(0,0)">
		<g>
			<circle class="st4" cx="646.7" cy="1239.4" r="4.1"/>
		</g>
	</g>
	<g transform="translate(0,0)">
		<g>
			<circle class="st4" cx="702.9" cy="1243.1" r="4.1"/>
		</g>
	</g>
	<g transform="translate(0,0)">
		<g>
			<circle class="st4" cx="936.1" cy="1246.9" r="4.1"/>
		</g>
	</g>
	<g transform="translate(0,0)">
		<g>
			<circle class="st4" cx="751.2" cy="1250.6" r="4.1"/>
		</g>
	</g>
	<g transform="translate(0,0)">
		<g>
			<circle class="st4" cx="622.5" cy="1291.9" r="4.1"/>
		</g>
	</g>
	<g transform="translate(0,0)">
		<g>
			<circle class="st4" cx="783.3" cy="1295.6" r="4.1"/>
		</g>
	</g>
	<g transform="translate(0,0)">
		<g>
			<circle class="st4" cx="751.2" cy="1303.1" r="4.1"/>
		</g>
	</g>
	<g transform="translate(0,0)">
		<g>
			<circle class="st4" cx="590.4" cy="1370.6" r="4.1"/>
		</g>
	</g>
	<g transform="translate(0,0)">
		<g>
			<circle class="st4" cx="670.8" cy="1374.3" r="4.1"/>
		</g>
	</g>
	<g transform="translate(0,0)">
		<g>
			<circle class="st4" cx="654.7" cy="1378.1" r="4.1"/>
		</g>
	</g>
	<g transform="translate(0,0)">
		<g>
			<circle class="st4" cx="590.4" cy="1381.8" r="4.1"/>
		</g>
	</g>
	<g transform="translate(0,0)">
		<g>
			<circle class="st4" cx="598.4" cy="1396.8" r="4.1"/>
		</g>
	</g>
	<g transform="translate(0,0)">
		<g>
			<circle cx="292.9" cy="1400.6" r="4.1"/>
		</g>
	</g>
	<g transform="translate(0,0)">
		<g>
			<circle cx="244.7" cy="1404.3" r="4.1"/>
		</g>
	</g>
	<g transform="translate(0,0)">
		<g>
			<circle cx="260.8" cy="1408.1" r="4.1"/>
		</g>
	</g>
	<g transform="translate(0,0)">
		<g>
			<circle cx="228.6" cy="1411.8" r="4.1"/>
		</g>
	</g>
	<g transform="translate(0,0)">
		<g>
			<circle cx="341.2" cy="1415.6" r="4.1"/>
		</g>
	</g>
	<g transform="translate(0,0)">
		<g>
			<circle cx="461.7" cy="1419.3" r="4.1"/>
		</g>
	</g>
	<g transform="translate(0,0)">
		<g>
			<circle cx="381.3" cy="1423.1" r="4.1"/>
		</g>
	</g>
	<g class="st5">
		<g>
			<circle class="st4" cx="276.8" cy="553.2" r="14.3"/>
		</g>
	</g>
	<g class="st5">
		<g>
			<circle class="st4" cx="952.2" cy="380.8" r="14.3"/>
		</g>
	</g>
	<g class="st5">
		<g>
			<circle class="st4" cx="357.2" cy="309.5" r="14.3"/>
		</g>
	</g>
	<g>
		<circle class="st4" cx="968.9" cy="795.7" r="23.1"/>
		<line class="st6" x1="968.9" y1="779.6" x2="968.9" y2="811.8"/>
		<line class="st6" x1="985" y1="795.7" x2="952.8" y2="795.7"/>
	</g>
</g>
<g>
	<rect x="161.3" y="1578.8" class="st7" width="663.9" height="194.6"/>
	<text transform="matrix(1 0 0 1 161.2578 1619.517)"><tspan x="0" y="0" class="st4 st8 st9">PM10&gt;50ug/m3</tspan><tspan x="0" y="68.4" class="st8 st9">PM10&lt;50ug/m3</tspan><tspan x="0.1" y="136.8" class="st10 st8 st9">riscaldamenti</tspan></text>
	<circle class="st4" cx="104.3" cy="1601.2" r="20"/>
	<circle cx="104.3" cy="1666.2" r="20"/>
	<rect x="86.8" y="1719.7" class="st0" width="35" height="35"/>
</g>
</svg>
