<svg xmlns="http://www.w3.org/2000/svg" viewBox="0 0 1174.99 900"><defs><style>.cls-1{fill:#efefef;}.cls-2{fill:#b8b8b8;}.cls-3{isolation:isolate;}.cls-4{fill:#ff3a00;}.cls-5{opacity:0.3;}</style></defs><g id="base"><rect class="cls-1" x="96.2" y="74.04" width="285.45" height="687.3"/><path class="cls-2" d="M343.52,761.64a.3.3,0,0,1-.3-.3V158.08a.31.31,0,0,1,.3-.3.3.3,0,0,1,.3.3V761.34A.29.29,0,0,1,343.52,761.64Z"/><path d="M287,180.36c0,1,.9,1.78,2.38,1.78s2.44-.64,2.44-1.72c0-2.53-6.33-.52-6.33-4.52,0-1.76,1.52-3,3.9-3s3.84,1.12,3.84,2.93h-1.65c0-1-.94-1.62-2.19-1.62s-2.22.53-2.22,1.56c0,2.52,6.37.48,6.37,4.55,0,1.89-1.52,3.17-4.16,3.17s-4.05-1.22-4.05-3.09Z"/><path d="M297,186.55h-1.61V176H297v1.09H297a2.49,2.49,0,0,1,2.41-1.26c1.83,0,3.24,1.33,3.24,3.74s-1.5,3.87-3.36,3.87a2.35,2.35,0,0,1-2.29-1.26H297c.06.95.06,1.95.06,2.44Zm2-9.42c-1.1,0-1.95.88-2,2.4v.11c0,1.6.86,2.52,2,2.52s2-1,2-2.58S300.15,177.13,299,177.13Z"/><path d="M307.52,175.84a3.21,3.21,0,0,1,3.39,3.54v.53h-5.34c.09,1.41.85,2.28,2,2.28a1.57,1.57,0,0,0,1.68-1.12h1.58a3.08,3.08,0,0,1-3.27,2.38c-2.33,0-3.65-1.41-3.65-3.79A3.54,3.54,0,0,1,307.52,175.84Zm-1.87,3h3.63c-.14-1.21-.75-1.75-1.76-1.75A1.93,1.93,0,0,0,305.65,178.83Z"/><path d="M313.9,184.17c0,.8.78,1.29,1.83,1.29,1.3,0,2.18-.65,2.18-2.56v-.71h-.06a2.51,2.51,0,0,1-2.41,1.26c-1.83,0-3.25-1.34-3.25-3.75s1.51-3.86,3.37-3.86a2.35,2.35,0,0,1,2.29,1.26h.06V176h1.53v6.89c0,2.74-1.58,3.77-3.71,3.77-1.93,0-3.31-.84-3.34-2.5Zm1.94-2c1.14,0,2-.92,2-2.52v-.11c0-1.52-.88-2.4-2-2.4s-2,1-2,2.57S314.71,182.16,315.84,182.16Z"/><path d="M321.63,176h1.54v1.06h.06a2.32,2.32,0,0,1,2.25-1.23c1.44,0,2.72.77,2.72,3v4.4h-1.6v-4.19c0-1.44-.61-1.94-1.55-1.94s-1.82.88-1.82,2.34v3.79h-1.6Z"/><path d="M330.21,172.38h1.73V174h-1.73Zm.06,3.63h1.61v7.26h-1.61Z"/><path d="M334.07,176h1.55v1.06h.05a2.3,2.3,0,0,1,2.21-1.23,2.27,2.27,0,0,1,2.3,1.44,2.49,2.49,0,0,1,2.44-1.44c1.42,0,2.58.77,2.58,2.94v4.49h-1.61V179c0-1.35-.48-1.83-1.4-1.83s-1.75.87-1.75,2.31v3.82h-1.61V179c0-1.35-.52-1.83-1.4-1.83s-1.76.87-1.76,2.33v3.8h-1.6Z"/><path d="M350.35,175.84a3.21,3.21,0,0,1,3.39,3.54v.53H348.4c.09,1.41.85,2.28,2,2.28a1.57,1.57,0,0,0,1.68-1.12h1.57a3.08,3.08,0,0,1-3.27,2.38c-2.32,0-3.64-1.41-3.64-3.79A3.54,3.54,0,0,1,350.35,175.84Zm-1.88,3h3.63c-.13-1.21-.74-1.75-1.75-1.75A1.93,1.93,0,0,0,348.47,178.83Z"/><path d="M355.36,176h1.55v1.06H357a2.31,2.31,0,0,1,2.24-1.23c1.45,0,2.73.77,2.73,3v4.4h-1.61v-4.19c0-1.44-.61-1.94-1.55-1.94S357,178,357,179.48v3.79h-1.61Z"/><path d="M364.16,177.26h-1.37V176h1.37v-2.2h1.6V176h1.86v1.25h-1.86v3.6c0,.78.27,1.08,1,1.08h.85v1.33h-1.11c-1.67,0-2.35-.7-2.35-2.32Z"/><path d="M372.26,175.84a3.49,3.49,0,0,1,3.71,3.8,3.55,3.55,0,0,1-3.71,3.81,3.5,3.5,0,0,1-3.7-3.81A3.55,3.55,0,0,1,372.26,175.84Zm0,6.32c1.22,0,2-1,2-2.52s-.82-2.51-2-2.51-2,1-2,2.51S371,182.16,372.26,182.16Z"/><path d="M285.62,194.61h1.54v1.06h0a2,2,0,0,1,1.92-1.23,1.69,1.69,0,0,1,1,.29l-.42,1.43a2,2,0,0,0-.89-.24c-1.08,0-1.61,1.06-1.61,2.32v3.63h-1.6Z"/><path d="M291.17,191h1.72v1.64h-1.72Zm.06,3.63h1.6v7.26h-1.6Z"/><path d="M296,199.79c0,.81.82,1.13,1.6,1.13,1.12,0,1.67-.38,1.67-1s-.37-.76-1.1-.88l-1.34-.24c-1.11-.18-2.19-.62-2.19-2s1.33-2.32,3-2.32,3,.68,3,2.2h-1.5c0-.72-.64-1.07-1.5-1.07s-1.49.35-1.49,1c0,.49.34.75,1.21.9l1.34.22c1.14.19,2.14.64,2.14,2,0,1.59-1.34,2.38-3.28,2.38s-3.13-.74-3.13-2.26Z"/><path d="M305.69,194.44a3,3,0,0,1,3.3,2.66H307.4a1.59,1.59,0,0,0-1.71-1.37c-1.13,0-1.95,1-1.95,2.51s.82,2.52,1.95,2.52a1.58,1.58,0,0,0,1.71-1.37H309a3,3,0,0,1-3.3,2.66c-2.23,0-3.61-1.43-3.61-3.81A3.5,3.5,0,0,1,305.69,194.44Z"/><path d="M312.67,197.8l1.41-.24c.72-.12.94-.21.94-.49a1.27,1.27,0,0,0-1.43-1.43,1.35,1.35,0,0,0-1.53,1.28h-1.53c.09-1.5,1.25-2.48,3.06-2.48,2,0,3,1,3,2.66v4.77h-1.54V201H315a2.58,2.58,0,0,1-2.32,1.08c-1.59,0-2.46-.81-2.46-2S311,198.08,312.67,197.8Zm2.35.43a1.19,1.19,0,0,1-.74.34l-1.25.21c-.85.13-1.18.51-1.18,1.07s.42,1,1.24,1A1.83,1.83,0,0,0,315,198.9Z"/><path d="M318.71,191h1.61v10.89h-1.61Z"/><path d="M325.36,194.44a2.35,2.35,0,0,1,2.29,1.26h.06c-.07-.95-.07-1.95-.07-2.44V191h1.61v10.89h-1.54v-1.08h-.06a2.5,2.5,0,0,1-2.41,1.26c-1.83,0-3.24-1.34-3.24-3.75S323.5,194.44,325.36,194.44Zm.28,6.32c1.15,0,2-.92,2-2.52s-.85-2.51-2-2.51-2,1-2,2.57S324.51,200.76,325.64,200.76Z"/><path d="M333.44,197.8l1.42-.24c.71-.12.93-.21.93-.49a1.27,1.27,0,0,0-1.43-1.43,1.36,1.36,0,0,0-1.53,1.28H331.3c.09-1.5,1.25-2.48,3.06-2.48,2,0,3,1,3,2.66v4.77h-1.53V201h-.08a2.58,2.58,0,0,1-2.32,1.08c-1.59,0-2.45-.81-2.45-2S331.73,198.08,333.44,197.8Zm2.35.43a1.19,1.19,0,0,1-.74.34l-1.25.21c-.85.13-1.18.51-1.18,1.07s.42,1,1.24,1a1.83,1.83,0,0,0,1.93-1.95Z"/><path d="M339.48,194.61H341v1.06h.06a2.58,2.58,0,0,1,4.51.21,2.48,2.48,0,0,1,2.44-1.44c1.41,0,2.57.77,2.57,2.94v4.49H349v-4.3c0-1.35-.48-1.83-1.4-1.83s-1.76.87-1.76,2.31v3.82h-1.61v-4.3c0-1.35-.52-1.83-1.39-1.83s-1.76.87-1.76,2.33v3.8h-1.61Z"/><path d="M355.76,194.44a3.21,3.21,0,0,1,3.39,3.54v.53h-5.34c.09,1.42.85,2.28,2,2.28a1.57,1.57,0,0,0,1.68-1.12h1.58a3.08,3.08,0,0,1-3.27,2.38c-2.32,0-3.65-1.41-3.65-3.79A3.54,3.54,0,0,1,355.76,194.44Zm-1.87,3h3.63c-.14-1.21-.75-1.74-1.76-1.74A1.92,1.92,0,0,0,353.89,197.43Z"/><path d="M360.78,194.61h1.55v1.06h.05a2.33,2.33,0,0,1,2.25-1.23c1.44,0,2.72.77,2.72,3v4.4h-1.6v-4.19c0-1.44-.61-1.94-1.55-1.94s-1.82.88-1.82,2.34v3.79h-1.6Z"/><path d="M369.57,195.86H368.2v-1.25h1.37v-2.2h1.61v2.2H373v1.25h-1.86v3.6c0,.78.27,1.08,1,1.08H373v1.33h-1.12c-1.66,0-2.35-.69-2.35-2.32Z"/><path d="M374.42,191h1.73v1.64h-1.73Zm.06,3.63h1.61v7.26h-1.61Z"/><g class="cls-3"><path d="M206.4,773.62h6.79v1.19h-5.42v3.69h4.29v1.19h-4.29v4.17H206.4Z"/><path d="M215,773.62h6.91v1.19h-5.54v3.25h4.41v1.18h-4.41v3.43H222v1.19h-7Z"/><path d="M224,773.62h4.23c2.21,0,3.27,1,3.27,2.68a2.17,2.17,0,0,1-1.61,2.14v.06a2.31,2.31,0,0,1,2,2.32c0,1.74-1.18,3-3.4,3H224Zm1.37,1.19V778h2.86a1.68,1.68,0,0,0,1.9-1.69c0-.89-.53-1.47-1.9-1.47Zm0,4.35v3.51h3.15c1.37,0,2-.76,2-1.83s-.66-1.68-2-1.68Z"/></g><g class="cls-3"><path d="M131.83,782.37h0a3.6,3.6,0,0,1-3.35,1.67,5.31,5.31,0,0,1,.06-10.6,4.3,4.3,0,0,1,4.47,3.22h-1.43a2.92,2.92,0,0,0-3-2c-2.21,0-3.63,1.73-3.63,4s1.48,4,3.57,4c1.71,0,3.28-1,3.28-2.86v-.3H128.5v-1.19H133v5.42h-.9Z"/><path d="M135.41,773.62h6.9v1.19h-5.53v3.25h4.4v1.18h-4.4v3.43h5.65v1.19h-7Z"/><path d="M144.52,773.62h1.3l5.66,7.92h.06l-.06-7.92h1.37v10.24h-1.31L145.88,776h-.06l.06,7.86h-1.36Z"/></g><g class="cls-3"><path d="M284.21,773.62h1.67l3.76,8.39h0l3.71-8.39H295v10.24h-1.37l.12-8.1h-.06l-3.57,8.1h-1.07l-3.57-7.92h-.06l.12,7.92h-1.37Z"/><path d="M300.34,773.62H302l3.81,10.24h-1.43l-1-2.68h-4.49l-1,2.68h-1.37Zm.75,1.43L299.3,780h3.63l-1.78-4.94Z"/><path d="M307.25,773.62h3.87c2.33,0,3.57,1.12,3.57,3a3,3,0,0,1-2.25,3.05l2.6,4.15h-1.49l-2.54-4h-2.39v4h-1.37Zm1.37,1.19v3.87h2.55a1.94,1.94,0,0,0,2.15-2c0-1.13-.78-1.85-2.15-1.85Z"/></g><g class="cls-3"><path d="M372,773.62h1.6l3.81,10.24H376l-1-2.68h-4.5l-1,2.68H368.2Zm.74,1.43L371,780h3.63l-1.79-4.94Z"/><path d="M378.91,773.62h3.87c2.34,0,3.63,1.36,3.63,3.27a3.3,3.3,0,0,1-3.63,3.4h-2.5v3.57h-1.37Zm1.37,1.19v4.29h2.56a2.06,2.06,0,0,0,2.2-2.21,2,2,0,0,0-2.2-2.08Z"/><path d="M388.38,773.62h3.86c2.34,0,3.57,1.12,3.57,3a2.94,2.94,0,0,1-2.24,3.05l2.6,4.15h-1.49l-2.54-4h-2.39v4h-1.37Zm1.37,1.19v3.87h2.55a1.94,1.94,0,0,0,2.15-2c0-1.13-.78-1.85-2.15-1.85Z"/></g><g class="cls-3"><path d="M449.8,773.62h1.67l3.76,8.39h0l3.71-8.39h1.66v10.24h-1.36l.12-8.1h-.06l-3.57,8.1h-1.08l-3.57-7.92h-.06l.12,7.92H449.8Z"/><path d="M465.93,773.62h1.61l3.81,10.24h-1.43l-1-2.68h-4.49l-1,2.68h-1.36Zm.75,1.43L464.89,780h3.63l-1.78-4.94Z"/><path d="M480.28,782.37h0a3.6,3.6,0,0,1-3.34,1.67,5.31,5.31,0,0,1,.06-10.6,4.28,4.28,0,0,1,4.46,3.22H480a2.91,2.91,0,0,0-3-2c-2.22,0-3.63,1.73-3.63,4s1.47,4,3.57,4c1.71,0,3.27-1,3.27-2.86v-.3H477v-1.19h4.46v5.42h-.89Z"/></g><g class="cls-3"><path d="M544.86,782.37h0a3.6,3.6,0,0,1-3.35,1.67,5.31,5.31,0,0,1,.06-10.6,4.28,4.28,0,0,1,4.46,3.22h-1.43a2.9,2.9,0,0,0-3-2c-2.22,0-3.63,1.73-3.63,4s1.47,4,3.57,4c1.71,0,3.27-1,3.27-2.86v-.3h-3.21v-1.19H546v5.42h-.89Z"/><path d="M548.43,773.62h1.37v10.24h-1.37Z"/><path d="M552.18,773.62h1.37v6.19c0,1.88.88,3,2.74,3s2.74-1.1,2.74-3v-6.19h1.37v6.19c0,3-1.69,4.23-4.11,4.23s-4.11-1.19-4.11-4.23Z"/></g><g class="cls-3"><path d="M618.25,773.62h1.37v9h5v1.19h-6.37Z"/><path d="M625.87,773.62h1.37v6.19c0,1.88.88,3,2.74,3s2.74-1.1,2.74-3v-6.19h1.37v6.19c0,3-1.69,4.23-4.11,4.23s-4.11-1.19-4.11-4.23Z"/><path d="M644.32,782.37h0a3.6,3.6,0,0,1-3.35,1.67,5.31,5.31,0,0,1,.06-10.6,4.28,4.28,0,0,1,4.46,3.22H644a2.92,2.92,0,0,0-3-2c-2.22,0-3.63,1.73-3.63,4s1.47,4,3.57,4c1.71,0,3.27-1,3.27-2.86v-.3H641v-1.19h4.46v5.42h-.89Z"/></g><g class="cls-3"><path d="M704.29,773.62h1.61l3.8,10.24h-1.42l-1-2.68h-4.49l-1,2.68h-1.37Zm.74,1.43L703.25,780h3.63l-1.79-4.94Z"/><path d="M718.63,782.37h0a3.6,3.6,0,0,1-3.35,1.67,5.31,5.31,0,0,1,.06-10.6,4.28,4.28,0,0,1,4.46,3.22h-1.42a2.92,2.92,0,0,0-3-2c-2.22,0-3.63,1.73-3.63,4s1.47,4,3.57,4c1.71,0,3.27-1,3.27-2.86v-.3H715.3v-1.19h4.46v5.42h-.89Z"/><path d="M726.55,773.44a5.31,5.31,0,0,1,0,10.6c-3,0-5-2.25-5-5.3S723.56,773.44,726.55,773.44Zm0,9.35c2.16,0,3.57-1.73,3.57-4s-1.41-4-3.57-4-3.57,1.73-3.57,4S724.39,782.79,726.55,782.79Z"/></g><g class="cls-3"><path d="M787.83,780.94c0,1.12.95,2,2.56,2s2.62-.69,2.62-1.9c0-2.71-6.4-.65-6.4-4.58,0-1.74,1.5-3,3.78-3s3.75,1.09,3.75,2.92h-1.37c0-1.13-1-1.79-2.38-1.79s-2.38.58-2.38,1.73c0,2.68,6.43.56,6.43,4.64,0,1.85-1.49,3.1-4.05,3.1s-3.93-1.25-3.93-3.1Z"/><path d="M796.58,773.62h6.9v1.19H798v3.25h4.4v1.18H798v3.43h5.65v1.19h-7Z"/><path d="M804.5,773.62H813v1.16h-3.57v9.08h-1.37v-9.08H804.5Z"/></g><g class="cls-3"><path d="M874,773.44a5.31,5.31,0,0,1,0,10.6c-3,0-5-2.25-5-5.3S871,773.44,874,773.44Zm0,9.35c2.16,0,3.57-1.73,3.57-4s-1.41-4-3.57-4-3.57,1.73-3.57,4S871.86,782.79,874,782.79Z"/><path d="M879.26,773.62h8.51v1.16H884.2v9.08h-1.37v-9.08h-3.57Z"/><path d="M888,773.62h8.51v1.16H893v9.08h-1.37v-9.08H888Z"/></g><g class="cls-3"><path d="M951.34,773.62h1.31l5.65,7.92h.06l-.06-7.92h1.37v10.24h-1.31L952.71,776h-.06l.06,7.86h-1.37Z"/><path d="M966.64,773.44a5.31,5.31,0,0,1,0,10.6c-3,0-5-2.25-5-5.3S963.65,773.44,966.64,773.44Zm0,9.35c2.15,0,3.57-1.73,3.57-4s-1.42-4-3.57-4-3.57,1.73-3.57,4S964.48,782.79,966.64,782.79Z"/><path d="M972.12,773.62h1.42l3.07,8.81h.06l3.06-8.81h1.37l-3.75,10.24h-1.52Z"/></g><g class="cls-3"><path d="M1036.17,773.62h3.15c3.53,0,5.36,2.13,5.36,5.12s-1.83,5.12-5.36,5.12h-3.15Zm1.37,1.19v7.86h1.78a3.93,3.93,0,0,0,0-7.86Z"/><path d="M1046.64,773.62H1048v10.24h-1.37Z"/><path d="M1054.92,773.44a4.14,4.14,0,0,1,4.34,3.39h-1.41a2.76,2.76,0,0,0-2.93-2.14c-2.1,0-3.51,1.67-3.51,4s1.41,4,3.45,4a2.74,2.74,0,0,0,3-2.15h1.41a4.21,4.21,0,0,1-4.4,3.4c-2.87,0-4.88-2.19-4.88-5.3S1052,773.44,1054.92,773.44Z"/></g><g class="cls-3"><path d="M67.9,760.8c0-3,1-5.3,3.57-5.3S75,757.82,75,760.8s-1,5.3-3.57,5.3S67.9,763.78,67.9,760.8Zm5.77,0c0-2.62-.71-4.11-2.2-4.11s-2.2,1.49-2.2,4.11.71,4.11,2.2,4.11S73.67,763.42,73.67,760.8Z"/></g><g class="cls-3"><path d="M59.68,699.66,63,697.4h1v9.1h2.44v1.13H60V706.5h2.62V699l-2.38,1.65Z"/><path d="M67.9,702.52c0-3,1-5.3,3.57-5.3s3.57,2.32,3.57,5.3-1,5.29-3.57,5.29S67.9,705.49,67.9,702.52Zm5.77,0c0-2.62-.71-4.11-2.2-4.11s-2.2,1.49-2.2,4.11.71,4.1,2.2,4.1S73.67,705.14,73.67,702.52Z"/></g><g class="cls-3"><path d="M62.12,645l1.14-.77c1.05-.73,1.72-1.13,1.72-2.32a1.75,1.75,0,0,0-1.9-1.79c-1.31,0-2,.71-2.09,2.08H59.8a3,3,0,0,1,3.28-3.21,2.89,2.89,0,0,1,3.21,2.92c0,1.78-1.15,2.42-2.2,3.15l-1.13.77c-1.55,1.06-1.79,1.8-1.85,2.44h5.3v1.13H59.62A4.86,4.86,0,0,1,62.12,645Z"/><path d="M67.9,644.24c0-3,1-5.3,3.57-5.3s3.57,2.32,3.57,5.3-1,5.29-3.57,5.29S67.9,647.21,67.9,644.24Zm5.77,0c0-2.62-.71-4.11-2.2-4.11s-2.2,1.49-2.2,4.11.71,4.1,2.2,4.1S73.67,646.85,73.67,644.24Z"/></g><g class="cls-3"><path d="M60.76,588a2,2,0,0,0,2.2,2.14c1.28,0,2.2-.69,2.2-1.89a2,2,0,0,0-2.2-1.89h-.78v-1.13H63a1.76,1.76,0,0,0,1.84-1.77A1.67,1.67,0,0,0,63,581.79a1.71,1.71,0,0,0-1.85,1.84H59.92a2.83,2.83,0,0,1,3-3,2.8,2.8,0,0,1,3.09,2.76,2.58,2.58,0,0,1-1.49,2.29v.06a2.63,2.63,0,0,1,1.91,2.56c0,1.83-1.56,2.92-3.51,2.92s-3.45-1.07-3.45-3.27Z"/><path d="M67.9,586c0-3,1-5.29,3.57-5.29S75,583,75,586s-1,5.3-3.57,5.3S67.9,588.93,67.9,586Zm5.77,0c0-2.62-.71-4.1-2.2-4.1s-2.2,1.48-2.2,4.1.71,4.11,2.2,4.11S73.67,588.57,73.67,586Z"/></g><g class="cls-3"><path d="M59.27,529.28l4.94-6.73h1.07v6.55h1.49v1.13H65.28v2.56H64v-2.56h-4.7Zm4.7-.18v-4.51l-3.36,4.51Z"/><path d="M67.9,527.67c0-3,1-5.3,3.57-5.3S75,524.7,75,527.67s-1,5.3-3.57,5.3S67.9,530.65,67.9,527.67Zm5.77,0c0-2.62-.71-4.1-2.2-4.1s-2.2,1.48-2.2,4.1.71,4.11,2.2,4.11S73.67,530.29,73.67,527.67Z"/></g><g class="cls-3"><path d="M60.82,471.77a2,2,0,0,0,2.2,1.79,2.24,2.24,0,0,0,0-4.47,2.5,2.5,0,0,0-2,1L59.86,470l.3-5.77h5.77v1.19H61.35l-.18,3.22h.06a2.7,2.7,0,0,1,2-.72,3.16,3.16,0,0,1,3.33,3.27A3.32,3.32,0,0,1,63,474.69c-2.09,0-3.35-1.16-3.51-2.92Z"/><path d="M67.9,469.39c0-3,1-5.3,3.57-5.3s3.57,2.32,3.57,5.3-1,5.3-3.57,5.3S67.9,472.36,67.9,469.39Zm5.77,0c0-2.62-.71-4.11-2.2-4.11s-2.2,1.49-2.2,4.11.71,4.11,2.2,4.11S73.67,472,73.67,469.39Z"/></g><g class="cls-3"><path d="M63.37,405.81a2.83,2.83,0,0,1,3.1,2.74H65.16a1.66,1.66,0,0,0-1.79-1.61c-1.2,0-2.42,1.06-2.5,4.09a3,3,0,0,1,2.62-1.35A3.1,3.1,0,0,1,66.71,413a3.3,3.3,0,0,1-3.45,3.39c-2,0-3.75-1.29-3.75-5C59.51,407.23,61.43,405.81,63.37,405.81ZM61.05,413a2.14,2.14,0,0,0,2.15,2.24,2.23,2.23,0,0,0,.11-4.46A2.2,2.2,0,0,0,61.05,413Z"/><path d="M67.9,411.11c0-3,1-5.3,3.57-5.3s3.57,2.32,3.57,5.3-1,5.29-3.57,5.29S67.9,414.08,67.9,411.11Zm5.77,0c0-2.62-.71-4.11-2.2-4.11s-2.2,1.49-2.2,4.11.71,4.1,2.2,4.1S73.67,413.73,73.67,411.11Z"/></g><g class="cls-3"><path d="M65.16,348.9H59.57v-1.19h7v1l-4.35,9.28H60.87Z"/><path d="M67.9,352.83c0-3,1-5.3,3.57-5.3s3.57,2.32,3.57,5.3-1,5.29-3.57,5.29S67.9,355.8,67.9,352.83Zm5.77,0c0-2.62-.71-4.11-2.2-4.11s-2.2,1.49-2.2,4.11.71,4.1,2.2,4.1S73.67,355.44,73.67,352.83Z"/></g><g class="cls-3"><path d="M61.35,294.36v-.05a2.5,2.5,0,0,1-1.49-2.3c0-1.6,1.22-2.76,3.16-2.76s3.15,1.16,3.15,2.76a2.49,2.49,0,0,1-1.49,2.3v.05a2.64,2.64,0,0,1,1.91,2.56c0,1.83-1.45,2.92-3.57,2.92s-3.57-1.09-3.57-2.92A2.63,2.63,0,0,1,61.35,294.36ZM63,298.71c1.32,0,2.26-.69,2.26-1.89a2.3,2.3,0,0,0-4.52,0C60.76,298,61.69,298.71,63,298.71Zm1.9-6.68a1.92,1.92,0,0,0-3.81,0,1.91,1.91,0,0,0,3.81,0Z"/><path d="M67.9,294.54c0-3,1-5.29,3.57-5.29S75,291.57,75,294.54s-1,5.3-3.57,5.3S67.9,297.52,67.9,294.54Zm5.77,0c0-2.62-.71-4.1-2.2-4.1s-2.2,1.48-2.2,4.1.71,4.11,2.2,4.11S73.67,297.16,73.67,294.54Z"/></g><g class="cls-3"><path d="M62.78,241.56a2.93,2.93,0,0,1-3.21-2.74h1.3a1.81,1.81,0,0,0,1.91,1.61c1.38,0,2.32-1.06,2.38-4.08a3,3,0,0,1-2.62,1.34,3.09,3.09,0,0,1-3.21-3.33A3.3,3.3,0,0,1,62.78,231c2,0,3.75,1.29,3.75,5.05C66.53,240.15,64.91,241.56,62.78,241.56Zm2.2-7.22a2.17,2.17,0,1,0-4.34,0,2.1,2.1,0,0,0,2.08,2.2A2.19,2.19,0,0,0,65,234.34Z"/><path d="M67.9,236.26c0-3,1-5.29,3.57-5.29S75,233.29,75,236.26s-1,5.3-3.57,5.3S67.9,239.24,67.9,236.26Zm5.77,0c0-2.62-.71-4.1-2.2-4.1s-2.2,1.48-2.2,4.1.71,4.11,2.2,4.11S73.67,238.88,73.67,236.26Z"/></g><g class="cls-3"><path d="M51.23,175.12l3.28-2.26h1V182H58v1.13H51.59V182h2.62v-7.49l-2.38,1.65Z"/><path d="M59.45,178c0-3,1-5.3,3.57-5.3s3.57,2.32,3.57,5.3-1,5.3-3.57,5.3S59.45,181,59.45,178Zm5.77,0c0-2.62-.71-4.11-2.2-4.11s-2.2,1.49-2.2,4.11.71,4.11,2.2,4.11S65.22,180.6,65.22,178Z"/><path d="M67.9,178c0-3,1-5.3,3.57-5.3S75,175,75,178s-1,5.3-3.57,5.3S67.9,181,67.9,178Zm5.77,0c0-2.62-.71-4.11-2.2-4.11s-2.2,1.49-2.2,4.11.71,4.11,2.2,4.11S73.67,180.6,73.67,178Z"/></g><g class="cls-3"><path d="M51.23,83.46l3.28-2.26h1v9.1H58v1.13H51.59V90.3h2.62V82.82l-2.38,1.65Z"/><path d="M62.12,87l1.14-.78c1.05-.72,1.72-1.13,1.72-2.32a1.75,1.75,0,0,0-1.9-1.78c-1.31,0-2,.71-2.09,2.08H59.8A3,3,0,0,1,63.08,81c1.87,0,3.21,1.08,3.21,2.91s-1.14,2.43-2.2,3.16L63,87.86c-1.55,1.06-1.79,1.8-1.85,2.44h5.3v1.13H59.63A4.84,4.84,0,0,1,62.12,87Z"/><path d="M67.9,86.31c0-3,1-5.29,3.57-5.29S75,83.34,75,86.31s-1,5.3-3.57,5.3S67.9,89.29,67.9,86.31Zm5.77,0c0-2.61-.71-4.1-2.2-4.1s-2.2,1.49-2.2,4.1.71,4.11,2.2,4.11S73.67,88.93,73.67,86.31Z"/></g><g class="cls-3"><path class="cls-2" d="M1107.47,83.46l3.27-2.26h1v9.1h2.44v1.13h-6.37V90.3h2.62V82.82l-2.38,1.65Z"/><path class="cls-2" d="M1118.36,87l1.13-.78c1.06-.72,1.72-1.13,1.72-2.32a1.75,1.75,0,0,0-1.9-1.78c-1.31,0-2,.71-2.08,2.08H1116a3,3,0,0,1,3.27-3.21c1.88,0,3.21,1.08,3.21,2.91s-1.14,2.43-2.2,3.16l-1.13.77c-1.55,1.06-1.78,1.8-1.84,2.44h5.29v1.13h-6.78A4.84,4.84,0,0,1,1118.36,87Z"/><path class="cls-2" d="M1124.13,86.31c0-3,1-5.29,3.57-5.29s3.57,2.32,3.57,5.29-1,5.3-3.57,5.3S1124.13,89.29,1124.13,86.31Zm5.78,0c0-2.61-.72-4.1-2.21-4.1s-2.2,1.49-2.2,4.1.71,4.11,2.2,4.11S1129.91,88.93,1129.91,86.31Z"/></g><g class="cls-3"><path class="cls-2" d="M1107.23,760.8c0-3,1-5.3,3.57-5.3s3.57,2.32,3.57,5.3-1,5.3-3.57,5.3S1107.23,763.78,1107.23,760.8Zm5.77,0c0-2.62-.71-4.11-2.2-4.11s-2.2,1.49-2.2,4.11.71,4.11,2.2,4.11S1113,763.42,1113,760.8Z"/></g><g class="cls-3"><path class="cls-2" d="M1107.47,699.66l3.27-2.26h1v9.1h2.44v1.13h-6.37V706.5h2.62V699l-2.38,1.65Z"/><path class="cls-2" d="M1115.68,702.52c0-3,1-5.3,3.57-5.3s3.57,2.32,3.57,5.3-1,5.29-3.57,5.29S1115.68,705.49,1115.68,702.52Zm5.77,0c0-2.62-.71-4.11-2.2-4.11s-2.2,1.49-2.2,4.11.71,4.1,2.2,4.1S1121.45,705.14,1121.45,702.52Z"/></g><g class="cls-3"><path class="cls-2" d="M1109.91,645l1.13-.77c1-.73,1.72-1.13,1.72-2.32a1.75,1.75,0,0,0-1.9-1.79c-1.31,0-2,.71-2.08,2.08h-1.19a3,3,0,0,1,3.27-3.21,2.89,2.89,0,0,1,3.21,2.92c0,1.78-1.14,2.42-2.2,3.15l-1.13.77c-1.55,1.06-1.79,1.8-1.85,2.44h5.3v1.13h-6.78A4.83,4.83,0,0,1,1109.91,645Z"/><path class="cls-2" d="M1115.68,644.24c0-3,1-5.3,3.57-5.3s3.57,2.32,3.57,5.3-1,5.29-3.57,5.29S1115.68,647.21,1115.68,644.24Zm5.77,0c0-2.62-.71-4.11-2.2-4.11s-2.2,1.49-2.2,4.11.71,4.1,2.2,4.1S1121.45,646.85,1121.45,644.24Z"/></g><g class="cls-3"><path class="cls-2" d="M1108.54,588a2,2,0,0,0,2.2,2.14c1.28,0,2.2-.69,2.2-1.89a2,2,0,0,0-2.2-1.89H1110v-1.13h.77a1.76,1.76,0,0,0,1.84-1.77,1.67,1.67,0,0,0-1.84-1.65,1.71,1.71,0,0,0-1.85,1.84h-1.19a2.83,2.83,0,0,1,3-3,2.8,2.8,0,0,1,3.09,2.76,2.59,2.59,0,0,1-1.48,2.29v.06a2.63,2.63,0,0,1,1.9,2.56c0,1.83-1.56,2.92-3.51,2.92s-3.45-1.07-3.45-3.27Z"/><path class="cls-2" d="M1115.68,586c0-3,1-5.29,3.57-5.29s3.57,2.32,3.57,5.29-1,5.3-3.57,5.3S1115.68,588.93,1115.68,586Zm5.77,0c0-2.62-.71-4.1-2.2-4.1s-2.2,1.48-2.2,4.1.71,4.11,2.2,4.11S1121.45,588.57,1121.45,586Z"/></g><g class="cls-3"><path class="cls-2" d="M1107.05,529.28l4.94-6.73h1.07v6.55h1.49v1.13h-1.49v2.56h-1.31v-2.56h-4.7Zm4.7-.18v-4.51l-3.36,4.51Z"/><path class="cls-2" d="M1115.68,527.67c0-3,1-5.3,3.57-5.3s3.57,2.33,3.57,5.3-1,5.3-3.57,5.3S1115.68,530.65,1115.68,527.67Zm5.77,0c0-2.62-.71-4.1-2.2-4.1s-2.2,1.48-2.2,4.1.71,4.11,2.2,4.11S1121.45,530.29,1121.45,527.67Z"/></g><g class="cls-3"><path class="cls-2" d="M1108.6,471.77a2,2,0,0,0,2.2,1.79,2.24,2.24,0,0,0,0-4.47,2.52,2.52,0,0,0-2,1l-1.19-.06.3-5.77h5.77v1.19h-4.58l-.18,3.22h.06a2.7,2.7,0,0,1,2-.72,3.16,3.16,0,0,1,3.33,3.27,3.32,3.32,0,0,1-3.51,3.46,3.17,3.17,0,0,1-3.51-2.92Z"/><path class="cls-2" d="M1115.68,469.39c0-3,1-5.3,3.57-5.3s3.57,2.32,3.57,5.3-1,5.3-3.57,5.3S1115.68,472.36,1115.68,469.39Zm5.77,0c0-2.62-.71-4.11-2.2-4.11s-2.2,1.49-2.2,4.11.71,4.11,2.2,4.11S1121.45,472,1121.45,469.39Z"/></g><g class="cls-3"><path class="cls-2" d="M1111.16,405.81a2.83,2.83,0,0,1,3.09,2.74h-1.31a1.65,1.65,0,0,0-1.78-1.61c-1.21,0-2.43,1.06-2.5,4.09a3,3,0,0,1,2.62-1.35,3.09,3.09,0,0,1,3.21,3.33,3.3,3.3,0,0,1-3.45,3.39c-2,0-3.75-1.29-3.75-5C1107.29,407.23,1109.21,405.81,1111.16,405.81Zm-2.33,7.22a2.14,2.14,0,0,0,2.15,2.24,2.23,2.23,0,0,0,.12-4.46A2.2,2.2,0,0,0,1108.83,413Z"/><path class="cls-2" d="M1115.68,411.11c0-3,1-5.3,3.57-5.3s3.57,2.32,3.57,5.3-1,5.29-3.57,5.29S1115.68,414.08,1115.68,411.11Zm5.77,0c0-2.62-.71-4.11-2.2-4.11s-2.2,1.49-2.2,4.11.71,4.1,2.2,4.1S1121.45,413.73,1121.45,411.11Z"/></g><g class="cls-3"><path class="cls-2" d="M1112.94,348.9h-5.59v-1.19h7v1l-4.34,9.28h-1.37Z"/><path class="cls-2" d="M1115.68,352.83c0-3,1-5.3,3.57-5.3s3.57,2.32,3.57,5.3-1,5.29-3.57,5.29S1115.68,355.8,1115.68,352.83Zm5.77,0c0-2.62-.71-4.11-2.2-4.11s-2.2,1.49-2.2,4.11.71,4.1,2.2,4.1S1121.45,355.44,1121.45,352.83Z"/></g><g class="cls-3"><path class="cls-2" d="M1109.13,294.36v-.05a2.5,2.5,0,0,1-1.49-2.3c0-1.6,1.23-2.76,3.16-2.76s3.15,1.16,3.15,2.76a2.49,2.49,0,0,1-1.49,2.3v.05a2.63,2.63,0,0,1,1.91,2.56c0,1.83-1.44,2.92-3.57,2.92s-3.57-1.09-3.57-2.92A2.63,2.63,0,0,1,1109.13,294.36Zm1.67,4.35c1.32,0,2.26-.69,2.26-1.89a2.3,2.3,0,0,0-4.52,0C1108.54,298,1109.47,298.71,1110.8,298.71Zm1.9-6.68a1.92,1.92,0,0,0-3.81,0,1.91,1.91,0,0,0,3.81,0Z"/><path class="cls-2" d="M1115.68,294.54c0-3,1-5.29,3.57-5.29s3.57,2.32,3.57,5.29-1,5.3-3.57,5.3S1115.68,297.52,1115.68,294.54Zm5.77,0c0-2.62-.71-4.1-2.2-4.1s-2.2,1.48-2.2,4.1.71,4.11,2.2,4.11S1121.45,297.16,1121.45,294.54Z"/></g><g class="cls-3"><path class="cls-2" d="M1110.56,241.56a2.94,2.94,0,0,1-3.21-2.74h1.31a1.79,1.79,0,0,0,1.9,1.61c1.38,0,2.32-1.06,2.38-4.08a3,3,0,0,1-2.62,1.34,3.09,3.09,0,0,1-3.21-3.33,3.3,3.3,0,0,1,3.45-3.39c2,0,3.75,1.29,3.75,5.05C1114.31,240.15,1112.69,241.56,1110.56,241.56Zm2.2-7.22a2.17,2.17,0,1,0-4.34,0,2.1,2.1,0,0,0,2.08,2.2A2.19,2.19,0,0,0,1112.76,234.34Z"/><path class="cls-2" d="M1115.68,236.26c0-3,1-5.29,3.57-5.29s3.57,2.32,3.57,5.29-1,5.3-3.57,5.3S1115.68,239.24,1115.68,236.26Zm5.77,0c0-2.62-.71-4.1-2.2-4.1s-2.2,1.48-2.2,4.1.71,4.11,2.2,4.11S1121.45,238.88,1121.45,236.26Z"/></g><g class="cls-3"><path class="cls-2" d="M1107.47,175.12l3.27-2.26h1V182h2.44v1.13h-6.37V182h2.62v-7.49l-2.38,1.65Z"/><path class="cls-2" d="M1115.68,178c0-3,1-5.3,3.57-5.3s3.57,2.32,3.57,5.3-1,5.3-3.57,5.3S1115.68,181,1115.68,178Zm5.77,0c0-2.62-.71-4.11-2.2-4.11s-2.2,1.49-2.2,4.11.71,4.11,2.2,4.11S1121.45,180.6,1121.45,178Z"/><path class="cls-2" d="M1124.13,178c0-3,1-5.3,3.57-5.3s3.57,2.32,3.57,5.3-1,5.3-3.57,5.3S1124.13,181,1124.13,178Zm5.78,0c0-2.62-.72-4.11-2.21-4.11s-2.2,1.49-2.2,4.11.71,4.11,2.2,4.11S1129.91,180.6,1129.91,178Z"/></g><path class="cls-2" d="M1104.52,43.34h1.56v1.34h.08a2.87,2.87,0,0,1,2.75-1.57,2.8,2.8,0,0,1,2.83,1.85,3,3,0,0,1,3-1.85c1.71,0,3.12,1,3.12,3.65v5.65h-1.63V47c0-1.78-.6-2.45-1.86-2.45s-2.38,1.21-2.38,3.16v4.72h-1.64V47c0-1.78-.67-2.45-1.86-2.45s-2.38,1.21-2.38,3.18v4.7h-1.64Z"/><path class="cls-2" d="M1120.59,43.34h1.56v1.34h.08a2.87,2.87,0,0,1,2.75-1.57,2.8,2.8,0,0,1,2.83,1.85,3,3,0,0,1,3-1.85c1.71,0,3.12,1,3.12,3.65v5.65h-1.63V47c0-1.78-.6-2.45-1.86-2.45s-2.38,1.21-2.38,3.16v4.72h-1.64V47c0-1.78-.67-2.45-1.86-2.45s-2.38,1.21-2.38,3.18v4.7h-1.64Z"/><path d="M42.79,50.85v1.42H41.15V39.1h1.64v5.28c0,1.93.74,2.6,2.08,2.6s2.38-1.26,2.38-3.2V39.1h1.64v9.07H47.32V46.83h-.07A2.78,2.78,0,0,1,44.5,48.4a3.29,3.29,0,0,1-1.83-.52h-.11A20.43,20.43,0,0,1,42.79,50.85Z"/><path d="M52.83,49.29c0,1.12,1,1.78,2.46,1.78,1.59,0,2.9-.79,2.9-3.34v-1h-.08a3.17,3.17,0,0,1-3,1.64c-2.3,0-4-1.71-4-4.69s1.86-4.84,4.17-4.84a3,3,0,0,1,2.9,1.64h.08V39.1h1.56v8.63c0,3.44-2,4.68-4.46,4.68s-4-1.07-4-3.12ZM55.43,47c1.49,0,2.68-1.19,2.68-3.34s-1.19-3.35-2.68-3.35-2.67,1.26-2.67,3.42S54,47,55.43,47Z"/><path d="M67,35.15h1.41L62.73,48.4H61.31Z"/><path d="M68.68,39.1h1.56v1.34h.07a2.87,2.87,0,0,1,2.76-1.57,2.79,2.79,0,0,1,2.82,1.84A3.06,3.06,0,0,1,79,38.87c1.71,0,3.12,1,3.12,3.65v5.65H80.43V42.74c0-1.78-.59-2.45-1.86-2.45s-2.38,1.21-2.38,3.16v4.72H74.56V42.74c0-1.78-.67-2.45-1.86-2.45s-2.39,1.21-2.39,3.18v4.7H68.68Z"/><path d="M84.77,39.72a1.45,1.45,0,0,0,1.6,1.56c.94,0,1.61-.49,1.61-1.37a1.46,1.46,0,0,0-1.61-1.38h-.56V37.7h.56a1.29,1.29,0,0,0,1.35-1.29,1.22,1.22,0,0,0-1.35-1.2A1.24,1.24,0,0,0,85,36.55h-.87a2.24,2.24,0,0,1,4.47-.15,1.88,1.88,0,0,1-1.09,1.67v0A1.9,1.9,0,0,1,88.93,40c0,1.34-1.14,2.13-2.56,2.13a2.23,2.23,0,0,1-2.51-2.39Z"/><rect class="cls-1" x="881.67" y="74.04" width="206.59" height="687.3"/><path class="cls-2" d="M180.45,761.64a.29.29,0,0,1-.3-.3V158.08a.3.3,0,1,1,.6,0V761.34A.29.29,0,0,1,180.45,761.64Z"/><path class="cls-2" d="M259.27,761.64a.29.29,0,0,1-.3-.3V158.08a.3.3,0,0,1,.3-.3.31.31,0,0,1,.3.3V761.34A.3.3,0,0,1,259.27,761.64Z"/><path class="cls-2" d="M425.06,761.64a.29.29,0,0,1-.3-.3V158.08a.3.3,0,0,1,.3-.3.31.31,0,0,1,.3.3V761.34A.3.3,0,0,1,425.06,761.64Z"/><path class="cls-2" d="M509.31,761.64a.29.29,0,0,1-.3-.3V158.08a.3.3,0,0,1,.6,0V761.34A.29.29,0,0,1,509.31,761.64Z"/><path class="cls-2" d="M590.85,761.64a.29.29,0,0,1-.3-.3V158.08a.3.3,0,0,1,.3-.3.31.31,0,0,1,.3.3V761.34A.3.3,0,0,1,590.85,761.64Z"/><path class="cls-2" d="M675.1,761.64a.29.29,0,0,1-.3-.3V158.08a.3.3,0,0,1,.6,0V761.34A.29.29,0,0,1,675.1,761.64Z"/><path class="cls-2" d="M759.35,761.64a.3.3,0,0,1-.3-.3V158.08a.31.31,0,0,1,.3-.3.3.3,0,0,1,.3.3V761.34A.29.29,0,0,1,759.35,761.64Z"/><path class="cls-2" d="M840.89,761.64a.29.29,0,0,1-.3-.3V158.08a.3.3,0,1,1,.6,0V761.34A.29.29,0,0,1,840.89,761.64Z"/><path class="cls-2" d="M925.14,761.64a.3.3,0,0,1-.3-.3V158.08a.31.31,0,0,1,.3-.3.3.3,0,0,1,.3.3V761.34A.29.29,0,0,1,925.14,761.64Z"/><path class="cls-2" d="M1006.68,761.64a.29.29,0,0,1-.3-.3V158.08a.3.3,0,0,1,.3-.3.31.31,0,0,1,.3.3V761.34A.3.3,0,0,1,1006.68,761.64Z"/><path class="cls-2" d="M96.24,761.64a.3.3,0,0,1-.3-.3V158.08a.31.31,0,0,1,.3-.3.3.3,0,0,1,.3.3V761.34A.29.29,0,0,1,96.24,761.64Z"/><path class="cls-2" d="M1088.26,761.64a.29.29,0,0,1-.3-.3V158.08a.3.3,0,1,1,.6,0V761.34A.29.29,0,0,1,1088.26,761.64Z"/><circle cx="96.2" cy="551.59" r="2.97"/><circle cx="101.63" cy="569.07" r="2.97"/><circle cx="104.35" cy="609.87" r="2.97"/><circle cx="107.07" cy="592.39" r="2.97"/><circle cx="109.79" cy="551.59" r="2.97"/><circle cx="126.09" cy="487.48" r="2.97"/><circle cx="139.68" cy="481.65" r="2.97"/><circle cx="142.4" cy="592.39" r="2.97"/><circle cx="145.12" cy="580.73" r="2.97"/><circle cx="147.84" cy="551.59" r="2.97"/><circle cx="150.55" cy="539.93" r="2.97"/><circle cx="153.27" cy="563.25" r="2.97"/><circle cx="166.86" cy="551.59" r="2.97"/><circle cx="172.3" cy="644.84" r="2.97"/><circle cx="175.01" cy="557.42" r="2.97"/><circle cx="177.73" cy="516.62" r="2.97"/><circle cx="183.17" cy="504.96" r="2.97"/><circle cx="185.89" cy="592.39" r="2.97"/><circle cx="188.6" cy="679.81" r="2.97"/><circle cx="191.32" cy="679.81" r="2.97"/><circle cx="213.06" cy="580.73" r="2.97"/><circle cx="215.78" cy="481.65" r="2.97"/><circle cx="218.5" cy="545.76" r="2.97"/><circle cx="234.81" cy="557.42" r="2.97"/><circle cx="240.24" cy="475.82" r="2.97"/><circle cx="245.68" cy="487.48" r="2.97"/><circle cx="248.4" cy="656.49" r="2.97"/><circle cx="251.11" cy="738.09" r="2.97"/><circle cx="253.83" cy="679.81" r="2.97"/><circle cx="256.55" cy="639.01" r="2.97"/><circle cx="259.27" cy="551.59" r="2.97"/><circle cx="261.99" cy="662.32" r="2.97"/><circle cx="264.7" cy="708.95" r="2.97"/><circle cx="267.42" cy="662.32" r="2.97"/><circle cx="270.14" cy="639.01" r="2.97"/><circle cx="272.86" cy="627.35" r="2.97"/><circle cx="275.58" cy="563.25" r="2.97"/><circle cx="278.29" cy="679.81" r="2.97"/><circle cx="281.01" cy="621.53" r="2.97"/><circle cx="283.73" cy="615.7" r="2.97"/><circle cx="286.45" cy="639.01" r="2.97"/><circle cx="289.16" cy="569.07" r="2.97"/><circle cx="291.88" cy="639.01" r="2.97"/><circle cx="294.6" cy="598.21" r="2.97"/><circle cx="297.32" cy="691.46" r="2.97"/><circle cx="300.04" cy="650.67" r="2.97"/><circle cx="302.75" cy="609.87" r="2.97"/><circle cx="305.47" cy="557.42" r="2.97"/><circle cx="308.19" cy="592.39" r="2.97"/><circle cx="310.91" cy="563.25" r="2.97"/><circle cx="313.63" cy="609.87" r="2.97"/><circle cx="316.34" cy="644.84" r="2.97"/><circle cx="319.06" cy="673.98" r="2.97"/><circle cx="321.78" cy="656.49" r="2.97"/><circle cx="324.5" cy="633.18" r="2.97"/><circle cx="327.21" cy="673.98" r="2.97"/><circle cx="329.93" cy="534.1" r="2.97"/><circle cx="338.09" cy="493.31" r="2.97"/><circle cx="340.8" cy="703.12" r="2.97"/><circle cx="343.52" cy="673.98" r="2.97"/><circle cx="346.24" cy="644.84" r="2.97"/><circle cx="348.96" cy="639.01" r="2.97"/><circle cx="351.68" cy="627.35" r="2.97"/><circle cx="354.39" cy="639.01" r="2.97"/><circle cx="357.11" cy="592.39" r="2.97"/><circle cx="359.83" cy="592.39" r="2.97"/><circle cx="362.55" cy="644.84" r="2.97"/><circle cx="365.26" cy="656.49" r="2.97"/><circle cx="367.98" cy="650.67" r="2.97"/><circle cx="370.7" cy="644.84" r="2.97"/><circle cx="373.42" cy="708.95" r="2.97"/><circle cx="376.14" cy="679.81" r="2.97"/><circle cx="378.85" cy="656.49" r="2.97"/><circle cx="381.57" cy="662.32" r="2.97"/><circle cx="384.29" cy="673.98" r="2.97"/><circle cx="387.01" cy="650.67" r="2.97"/><circle cx="389.73" cy="656.49" r="2.97"/><circle cx="392.44" cy="633.18" r="2.97"/><circle cx="395.16" cy="673.98" r="2.97"/><circle cx="397.88" cy="662.32" r="2.97"/><circle cx="400.6" cy="627.35" r="2.97"/><circle cx="403.31" cy="604.04" r="2.97"/><circle cx="406.03" cy="633.18" r="2.97"/><circle cx="408.75" cy="673.98" r="2.97"/><circle cx="411.47" cy="691.46" r="2.97"/><circle cx="414.19" cy="703.12" r="2.97"/><circle cx="416.9" cy="714.78" r="2.97"/><circle cx="419.62" cy="691.46" r="2.97"/><circle cx="422.34" cy="714.78" r="2.97"/><circle cx="425.06" cy="726.43" r="2.97"/><circle cx="427.78" cy="708.95" r="2.97"/><circle cx="430.49" cy="685.64" r="2.97"/><circle cx="433.21" cy="685.64" r="2.97"/><circle cx="435.93" cy="685.64" r="2.97"/><circle cx="438.65" cy="656.49" r="2.97"/><circle cx="441.36" cy="668.15" r="2.97"/><circle cx="444.08" cy="656.49" r="2.97"/><circle cx="446.8" cy="703.12" r="2.97"/><circle cx="449.52" cy="685.64" r="2.97"/><circle cx="452.24" cy="738.09" r="2.97"/><circle cx="454.95" cy="714.78" r="2.97"/><circle cx="457.67" cy="679.81" r="2.97"/><circle cx="460.39" cy="598.21" r="2.97"/><circle cx="463.11" cy="668.15" r="2.97"/><circle cx="465.83" cy="691.46" r="2.97"/><circle cx="468.54" cy="639.01" r="2.97"/><circle cx="471.26" cy="615.7" r="2.97"/><circle cx="473.98" cy="621.53" r="2.97"/><circle cx="476.7" cy="668.15" r="2.97"/><circle cx="479.41" cy="691.46" r="2.97"/><circle cx="482.13" cy="668.15" r="2.97"/><circle cx="484.85" cy="673.98" r="2.97"/><circle cx="487.57" cy="679.81" r="2.97"/><circle cx="490.29" cy="697.29" r="2.97"/><circle cx="493" cy="668.15" r="2.97"/><circle cx="495.72" cy="708.95" r="2.97"/><circle cx="498.44" cy="714.78" r="2.97"/><circle cx="501.16" cy="726.43" r="2.97"/><circle cx="503.88" cy="714.78" r="2.97"/><circle cx="506.59" cy="697.29" r="2.97"/><circle cx="509.31" cy="691.46" r="2.97"/><circle cx="512.03" cy="708.95" r="2.97"/><circle cx="514.75" cy="732.26" r="2.97"/><circle cx="517.46" cy="738.09" r="2.97"/><circle cx="520.18" cy="720.6" r="2.97"/><circle cx="522.9" cy="720.6" r="2.97"/><circle cx="525.62" cy="714.78" r="2.97"/><circle cx="528.34" cy="679.81" r="2.97"/><circle cx="533.77" cy="726.43" r="2.97"/><circle cx="536.49" cy="708.95" r="2.97"/><circle cx="539.21" cy="714.78" r="2.97"/><circle cx="541.93" cy="708.95" r="2.97"/><circle cx="544.64" cy="714.78" r="2.97"/><circle cx="547.36" cy="726.43" r="2.97"/><circle cx="550.08" cy="691.46" r="2.97"/><circle cx="552.8" cy="714.78" r="2.97"/><circle cx="555.51" cy="720.6" r="2.97"/><circle cx="558.23" cy="732.26" r="2.97"/><circle cx="560.95" cy="720.6" r="2.97"/><circle cx="563.67" cy="714.78" r="2.97"/><circle cx="566.39" cy="697.29" r="2.97"/><circle cx="577.26" cy="644.84" r="2.97"/><circle cx="579.98" cy="685.64" r="2.97"/><circle cx="582.69" cy="673.98" r="2.97"/><circle cx="585.41" cy="685.64" r="2.97" transform="translate(-2.74 2.35) rotate(-0.23)"/><circle cx="588.13" cy="644.84" r="2.97"/><circle cx="590.85" cy="650.67" r="2.97" transform="translate(-61.01 1240.19) rotate(-89.88)"/><circle cx="593.56" cy="621.53" r="2.97" transform="translate(-1.27 1.21) rotate(-0.12)"/><circle cx="596.28" cy="691.46" r="2.97"/><circle cx="599" cy="714.78" r="2.97" transform="translate(-118.13 1310.96) rotate(-89.77)"/><circle cx="601.72" cy="703.12" r="2.97"/><circle cx="604.44" cy="668.15" r="2.97"/><circle cx="607.15" cy="627.35" r="2.97"/><circle cx="609.87" cy="650.67" r="2.97" transform="translate(-11.12 10.61) rotate(-0.99)"/><circle cx="612.59" cy="656.49" r="2.97"/><circle cx="615.31" cy="633.18" r="2.97"/><circle cx="618.02" cy="621.53" r="2.97"/><circle cx="620.74" cy="697.29" r="2.97"/><circle cx="623.46" cy="679.81" r="2.97"/><circle cx="626.18" cy="679.81" r="2.97"/><circle cx="628.9" cy="703.12" r="2.97"/><circle cx="631.61" cy="656.49" r="2.97"/><circle cx="634.33" cy="662.32" r="2.97"/><circle cx="637.05" cy="697.29" r="2.97"/><circle cx="639.77" cy="703.12" r="2.97"/><circle cx="642.49" cy="650.67" r="2.97"/><circle cx="645.2" cy="662.32" r="2.97"/><circle cx="647.92" cy="627.35" r="2.97"/><circle cx="650.64" cy="685.64" r="2.97"/><circle cx="653.36" cy="685.64" r="2.97"/><circle cx="656.07" cy="708.95" r="2.97"/><circle cx="658.79" cy="679.81" r="2.97"/><circle cx="661.51" cy="656.49" r="2.97"/><circle cx="664.23" cy="639.01" r="2.97"/><circle cx="666.95" cy="621.53" r="2.97"/><circle cx="683.25" cy="714.78" r="2.97"/><circle cx="685.97" cy="691.46" r="2.97"/><circle cx="688.69" cy="627.35" r="2.97"/><circle cx="691.41" cy="627.35" r="2.97"/><circle cx="694.12" cy="609.87" r="2.97"/><circle cx="696.84" cy="633.18" r="2.97"/><circle cx="699.56" cy="598.21" r="2.97"/><circle cx="702.28" cy="609.87" r="2.97"/><circle cx="705" cy="615.7" r="2.97"/><circle cx="707.71" cy="609.87" r="2.97"/><circle cx="710.43" cy="639.01" r="2.97"/><circle cx="713.15" cy="639.01" r="2.97"/><circle cx="715.87" cy="650.67" r="2.97"/><circle cx="718.59" cy="650.67" r="2.97"/><circle cx="721.3" cy="691.46" r="2.97"/><circle cx="724.02" cy="679.81" r="2.97"/><circle cx="726.74" cy="644.84" r="2.97"/><circle cx="729.46" cy="679.81" r="2.97"/><circle cx="732.17" cy="679.81" r="2.97"/><circle cx="734.89" cy="650.67" r="2.97"/><circle cx="737.61" cy="685.64" r="2.97"/><circle cx="740.33" cy="685.64" r="2.97"/><circle cx="743.05" cy="673.98" r="2.97"/><circle cx="745.76" cy="644.84" r="2.97"/><circle cx="748.48" cy="697.29" r="2.97"/><circle cx="751.2" cy="691.46" r="2.97"/><circle cx="753.92" cy="691.46" r="2.97"/><circle cx="756.64" cy="691.46" r="2.97"/><circle cx="759.35" cy="673.98" r="2.97"/><circle cx="762.07" cy="673.98" r="2.97"/><circle cx="764.79" cy="673.98" r="2.97"/><circle cx="767.51" cy="668.15" r="2.97"/><circle cx="770.22" cy="668.15" r="2.97"/><circle cx="772.94" cy="697.29" r="2.97"/><circle cx="775.66" cy="580.73" r="2.97"/><circle cx="778.38" cy="650.67" r="2.97"/><circle cx="781.1" cy="662.32" r="2.97"/><circle cx="783.81" cy="609.87" r="2.97"/><circle cx="786.53" cy="615.7" r="2.97"/><circle cx="789.25" cy="627.35" r="2.97"/><circle cx="791.97" cy="569.07" r="2.97"/><circle cx="794.69" cy="569.07" r="2.97"/><circle cx="797.4" cy="574.9" r="2.97"/><circle cx="800.12" cy="569.07" r="2.97"/><circle cx="802.84" cy="598.21" r="2.97"/><circle cx="805.56" cy="609.87" r="2.97"/><circle cx="808.27" cy="615.7" r="2.97"/><circle cx="810.99" cy="639.01" r="2.97"/><circle cx="813.71" cy="679.81" r="2.97"/><circle cx="816.43" cy="668.15" r="2.97"/><circle cx="819.15" cy="720.6" r="2.97"/><circle cx="821.86" cy="726.43" r="2.97"/><circle cx="824.58" cy="738.09" r="2.97"/><circle cx="827.3" cy="743.92" r="2.97"/><circle cx="830.02" cy="738.09" r="2.97"/><circle cx="832.74" cy="691.46" r="2.97"/><circle cx="835.45" cy="656.49" r="2.97"/><circle cx="838.17" cy="656.49" r="2.97"/><circle cx="840.89" cy="685.64" r="2.97"/><circle cx="843.61" cy="703.12" r="2.97"/><circle cx="846.32" cy="714.78" r="2.97"/><circle cx="849.04" cy="708.95" r="2.97"/><circle cx="851.76" cy="691.46" r="2.97"/><circle cx="854.48" cy="668.15" r="2.97"/><circle cx="857.2" cy="604.04" r="2.97"/><circle cx="859.91" cy="621.53" r="2.97"/><circle cx="862.63" cy="592.39" r="2.97"/><circle cx="865.35" cy="621.53" r="2.97"/><circle cx="868.07" cy="720.6" r="2.97"/><circle cx="870.79" cy="726.43" r="2.97"/><circle cx="873.5" cy="720.6" r="2.97"/><circle cx="876.22" cy="691.46" r="2.97"/><circle cx="878.94" cy="679.81" r="2.97"/><circle cx="881.66" cy="691.46" r="2.97"/><circle cx="884.37" cy="650.67" r="2.97"/><circle cx="887.09" cy="656.49" r="2.97"/><circle cx="889.81" cy="633.18" r="2.97"/><circle cx="892.53" cy="621.53" r="2.97"/><circle cx="895.25" cy="604.04" r="2.97"/><circle cx="897.96" cy="534.1" r="2.97"/><circle cx="903.4" cy="475.82" r="2.97"/><circle cx="906.12" cy="656.49" r="2.97"/><circle cx="908.84" cy="732.26" r="2.97"/><circle cx="911.55" cy="697.29" r="2.97"/><circle cx="914.27" cy="679.81" r="2.97"/><circle cx="916.99" cy="656.49" r="2.97"/><circle cx="919.71" cy="563.25" r="2.97"/><circle cx="922.42" cy="551.59" r="2.97"/><circle cx="925.14" cy="580.73" r="2.97"/><circle cx="927.86" cy="563.25" r="2.97"/><circle cx="936.01" cy="592.39" r="2.97"/><circle cx="938.73" cy="644.84" r="2.97"/><circle cx="941.45" cy="557.42" r="2.97"/><circle cx="944.17" cy="574.9" r="2.97"/><circle cx="946.89" cy="615.7" r="2.97"/><circle cx="949.6" cy="528.28" r="2.97"/><circle cx="965.91" cy="534.1" r="2.97"/><circle cx="968.63" cy="557.42" r="2.97"/><circle cx="971.35" cy="586.56" r="2.97"/><circle cx="974.06" cy="580.73" r="2.97"/><circle cx="976.78" cy="650.67" r="2.97"/><circle cx="979.5" cy="662.32" r="2.97"/><circle cx="982.22" cy="662.32" r="2.97"/><circle cx="984.94" cy="639.01" r="2.97"/><circle cx="987.65" cy="545.76" r="2.97"/><circle cx="990.37" cy="551.59" r="2.97"/><circle cx="1003.96" cy="604.04" r="2.97"/><circle cx="1006.68" cy="598.21" r="2.97"/><circle cx="1009.4" cy="691.46" r="2.97"/><circle cx="1012.11" cy="697.29" r="2.97"/><circle cx="1014.83" cy="679.81" r="2.97"/><circle cx="1017.55" cy="703.12" r="2.97"/><circle cx="1020.27" cy="650.67" r="2.97"/><circle cx="1022.99" cy="708.95" r="2.97"/><circle cx="1025.7" cy="685.64" r="2.97"/><circle cx="1028.42" cy="714.78" r="2.97"/><circle cx="1031.14" cy="609.87" r="2.97"/><circle cx="1033.86" cy="522.45" r="2.97"/><circle cx="1036.57" cy="557.42" r="2.97"/><circle cx="1039.29" cy="598.21" r="2.97"/><circle cx="1042.01" cy="551.59" r="2.97"/><circle cx="1044.73" cy="551.59" r="2.97"/><circle cx="1047.45" cy="510.79" r="2.97"/><circle cx="1061.04" cy="516.62" r="2.97"/><circle cx="1063.75" cy="522.45" r="2.97"/><circle cx="1066.47" cy="487.48" r="2.97"/><circle class="cls-4" cx="98.91" cy="429.2" r="2.97"/><circle class="cls-4" cx="112.5" cy="446.68" r="2.97"/><circle class="cls-4" cx="115.22" cy="452.51" r="2.97"/><circle class="cls-4" cx="117.94" cy="458.34" r="2.97"/><circle class="cls-4" cx="120.66" cy="382.57" r="2.97"/><circle class="cls-4" cx="123.38" cy="382.57" r="2.97"/><circle class="cls-4" cx="128.81" cy="435.03" r="2.97"/><circle class="cls-4" cx="131.53" cy="295.15" r="2.97"/><circle class="cls-4" cx="134.25" cy="92.29" r="2.97"/><circle class="cls-4" cx="136.96" cy="121.92" r="2.97"/><circle class="cls-4" cx="155.99" cy="458.34" r="2.97"/><circle class="cls-4" cx="158.71" cy="306.81" r="2.97"/><circle class="cls-4" cx="161.43" cy="225.22" r="2.97"/><circle class="cls-4" cx="164.14" cy="417.54" r="2.97"/><circle class="cls-4" cx="169.58" cy="394.23" r="2.97"/><circle class="cls-4" cx="180.45" cy="353.43" r="2.97"/><circle class="cls-4" cx="199.48" cy="452.51" r="2.97"/><circle class="cls-4" cx="202.19" cy="458.34" r="2.97"/><circle class="cls-4" cx="204.91" cy="312.64" r="2.97"/><circle class="cls-4" cx="221.22" cy="382.57" r="2.97"/><circle class="cls-4" cx="223.94" cy="470" r="2.97"/><circle class="cls-4" cx="226.65" cy="370.92" r="2.97"/><circle class="cls-4" cx="237.53" cy="376.75" r="2.97"/><circle class="cls-4" cx="242.96" cy="452.51" r="2.97"/><circle class="cls-4" cx="332.65" cy="190.25" r="2.97"/><circle class="cls-4" cx="335.37" cy="248.53" r="2.97"/><circle class="cls-4" cx="900.68" cy="411.71" r="2.97"/><circle class="cls-4" cx="930.58" cy="335.95" r="2.97"/><circle class="cls-4" cx="933.3" cy="452.51" r="2.97"/><circle class="cls-4" cx="952.32" cy="423.37" r="2.97"/><circle class="cls-4" cx="955.04" cy="411.71" r="2.97"/><circle class="cls-4" cx="957.76" cy="370.92" r="2.97"/><circle class="cls-4" cx="960.47" cy="201.9" r="2.97"/><circle class="cls-4" cx="963.19" cy="335.95" r="2.97"/><circle class="cls-4" cx="993.09" cy="429.2" r="2.97"/><circle class="cls-4" cx="995.81" cy="312.64" r="2.97"/><circle class="cls-4" cx="998.52" cy="133.58" r="2.97"/><circle class="cls-4" cx="1001.24" cy="335.95" r="2.97"/><circle class="cls-4" cx="1050.16" cy="452.51" r="2.97"/><circle class="cls-4" cx="1052.88" cy="394.23" r="2.97"/><circle class="cls-4" cx="1055.6" cy="405.89" r="2.97"/><circle class="cls-4" cx="1058.32" cy="452.51" r="2.97"/><circle class="cls-4" cx="1069.19" cy="446.68" r="2.97"/><circle cx="1071.91" cy="668.15" r="2.97"/><circle cx="1074.62" cy="703.12" r="2.97"/><circle cx="1077.34" cy="691.46" r="2.97"/><circle cx="1080.06" cy="714.78" r="2.97"/><circle cx="1082.78" cy="633.18" r="2.97"/><circle cx="1085.5" cy="545.76" r="2.97"/><circle cx="1088.21" cy="604.04" r="2.97"/><path class="cls-2" d="M96.2,102.6a.3.3,0,0,1-.3-.3V74a.3.3,0,0,1,.3-.3.31.31,0,0,1,.3.3V102.3A.31.31,0,0,1,96.2,102.6Z"/><path class="cls-2" d="M96.2,150.22a.29.29,0,0,1-.3-.3v-6a.3.3,0,0,1,.3-.3.31.31,0,0,1,.3.3v6A.3.3,0,0,1,96.2,150.22Z"/><path class="cls-2" d="M96.2,135.1a.29.29,0,0,1-.3-.3v-9.12a.29.29,0,0,1,.3-.3.3.3,0,0,1,.3.3v9.12A.3.3,0,0,1,96.2,135.1Z"/><path class="cls-2" d="M96.2,116.86a.3.3,0,0,1-.3-.3v-6a.29.29,0,0,1,.3-.3.3.3,0,0,1,.3.3v6A.31.31,0,0,1,96.2,116.86Z"/><path class="cls-2" d="M180.45,102.6a.3.3,0,0,1-.3-.3V74a.3.3,0,1,1,.6,0V102.3A.3.3,0,0,1,180.45,102.6Z"/><path class="cls-2" d="M180.45,150.22a.29.29,0,0,1-.3-.3v-6a.3.3,0,1,1,.6,0v6A.29.29,0,0,1,180.45,150.22Z"/><path class="cls-2" d="M180.45,135.1a.29.29,0,0,1-.3-.3v-9.12a.3.3,0,0,1,.6,0v9.12A.29.29,0,0,1,180.45,135.1Z"/><path class="cls-2" d="M180.45,116.86a.3.3,0,0,1-.3-.3v-6a.3.3,0,1,1,.6,0v6A.3.3,0,0,1,180.45,116.86Z"/><path class="cls-2" d="M259.27,102.6a.3.3,0,0,1-.3-.3V74a.3.3,0,0,1,.3-.3.31.31,0,0,1,.3.3V102.3A.31.31,0,0,1,259.27,102.6Z"/><path class="cls-2" d="M259.27,150.22a.29.29,0,0,1-.3-.3v-6a.3.3,0,0,1,.3-.3.31.31,0,0,1,.3.3v6A.3.3,0,0,1,259.27,150.22Z"/><path class="cls-2" d="M259.27,135.1a.29.29,0,0,1-.3-.3v-9.12a.29.29,0,0,1,.3-.3.3.3,0,0,1,.3.3v9.12A.3.3,0,0,1,259.27,135.1Z"/><path class="cls-2" d="M259.27,116.86a.3.3,0,0,1-.3-.3v-6a.29.29,0,0,1,.3-.3.3.3,0,0,1,.3.3v6A.31.31,0,0,1,259.27,116.86Z"/><path class="cls-2" d="M343.52,102.6a.31.31,0,0,1-.3-.3V74a.31.31,0,0,1,.3-.3.3.3,0,0,1,.3.3V102.3A.3.3,0,0,1,343.52,102.6Z"/><path class="cls-2" d="M343.52,150.22a.3.3,0,0,1-.3-.3v-6a.31.31,0,0,1,.3-.3.3.3,0,0,1,.3.3v6A.29.29,0,0,1,343.52,150.22Z"/><path class="cls-2" d="M343.52,135.1a.3.3,0,0,1-.3-.3v-9.12a.3.3,0,0,1,.3-.3.29.29,0,0,1,.3.3v9.12A.29.29,0,0,1,343.52,135.1Z"/><path class="cls-2" d="M343.52,116.86a.31.31,0,0,1-.3-.3v-6a.3.3,0,0,1,.3-.3.29.29,0,0,1,.3.3v6A.3.3,0,0,1,343.52,116.86Z"/><path class="cls-2" d="M425.06,102.6a.3.3,0,0,1-.3-.3V74a.3.3,0,0,1,.3-.3.31.31,0,0,1,.3.3V102.3A.31.31,0,0,1,425.06,102.6Z"/><path class="cls-2" d="M425.06,150.22a.29.29,0,0,1-.3-.3v-6a.3.3,0,0,1,.3-.3.31.31,0,0,1,.3.3v6A.3.3,0,0,1,425.06,150.22Z"/><path class="cls-2" d="M425.06,135.1a.29.29,0,0,1-.3-.3v-9.12a.29.29,0,0,1,.3-.3.3.3,0,0,1,.3.3v9.12A.3.3,0,0,1,425.06,135.1Z"/><path class="cls-2" d="M425.06,116.86a.3.3,0,0,1-.3-.3v-6a.29.29,0,0,1,.3-.3.3.3,0,0,1,.3.3v6A.31.31,0,0,1,425.06,116.86Z"/><path class="cls-2" d="M509.31,102.6a.3.3,0,0,1-.3-.3V74a.3.3,0,0,1,.6,0V102.3A.3.3,0,0,1,509.31,102.6Z"/><path class="cls-2" d="M509.31,150.22a.29.29,0,0,1-.3-.3v-6a.3.3,0,0,1,.6,0v6A.29.29,0,0,1,509.31,150.22Z"/><path class="cls-2" d="M509.31,135.1a.29.29,0,0,1-.3-.3v-9.12a.3.3,0,0,1,.6,0v9.12A.29.29,0,0,1,509.31,135.1Z"/><path class="cls-2" d="M509.31,116.86a.3.3,0,0,1-.3-.3v-6a.3.3,0,0,1,.6,0v6A.3.3,0,0,1,509.31,116.86Z"/><path class="cls-2" d="M590.85,102.6a.3.3,0,0,1-.3-.3V74a.3.3,0,0,1,.3-.3.31.31,0,0,1,.3.3V102.3A.31.31,0,0,1,590.85,102.6Z"/><path class="cls-2" d="M590.85,150.22a.29.29,0,0,1-.3-.3v-6a.3.3,0,0,1,.3-.3.31.31,0,0,1,.3.3v6A.3.3,0,0,1,590.85,150.22Z"/><path class="cls-2" d="M590.85,135.1a.29.29,0,0,1-.3-.3v-9.12a.29.29,0,0,1,.3-.3.3.3,0,0,1,.3.3v9.12A.3.3,0,0,1,590.85,135.1Z"/><path class="cls-2" d="M590.85,116.86a.3.3,0,0,1-.3-.3v-6a.29.29,0,0,1,.3-.3.3.3,0,0,1,.3.3v6A.31.31,0,0,1,590.85,116.86Z"/><path class="cls-2" d="M675.1,102.6a.3.3,0,0,1-.3-.3V74a.3.3,0,0,1,.6,0V102.3A.3.3,0,0,1,675.1,102.6Z"/><path class="cls-2" d="M675.1,150.22a.29.29,0,0,1-.3-.3v-6a.3.3,0,0,1,.6,0v6A.29.29,0,0,1,675.1,150.22Z"/><path class="cls-2" d="M675.1,135.1a.29.29,0,0,1-.3-.3v-9.12a.3.3,0,0,1,.6,0v9.12A.29.29,0,0,1,675.1,135.1Z"/><path class="cls-2" d="M675.1,116.86a.3.3,0,0,1-.3-.3v-6a.3.3,0,1,1,.6,0v6A.3.3,0,0,1,675.1,116.86Z"/><path class="cls-2" d="M759.35,102.6a.31.31,0,0,1-.3-.3V74a.31.31,0,0,1,.3-.3.3.3,0,0,1,.3.3V102.3A.3.3,0,0,1,759.35,102.6Z"/><path class="cls-2" d="M759.35,150.22a.3.3,0,0,1-.3-.3v-6a.31.31,0,0,1,.3-.3.3.3,0,0,1,.3.3v6A.29.29,0,0,1,759.35,150.22Z"/><path class="cls-2" d="M759.35,135.1a.3.3,0,0,1-.3-.3v-9.12a.3.3,0,0,1,.3-.3.29.29,0,0,1,.3.3v9.12A.29.29,0,0,1,759.35,135.1Z"/><path class="cls-2" d="M759.35,116.86a.31.31,0,0,1-.3-.3v-6a.3.3,0,0,1,.3-.3.29.29,0,0,1,.3.3v6A.3.3,0,0,1,759.35,116.86Z"/><path class="cls-2" d="M840.89,102.6a.3.3,0,0,1-.3-.3V74a.3.3,0,1,1,.6,0V102.3A.3.3,0,0,1,840.89,102.6Z"/><path class="cls-2" d="M840.89,150.22a.29.29,0,0,1-.3-.3v-6a.3.3,0,0,1,.3-.3.31.31,0,0,1,.3.3v6A.3.3,0,0,1,840.89,150.22Z"/><path class="cls-2" d="M840.89,135.1a.29.29,0,0,1-.3-.3v-9.12a.29.29,0,0,1,.3-.3.3.3,0,0,1,.3.3v9.12A.3.3,0,0,1,840.89,135.1Z"/><path class="cls-2" d="M840.89,116.86a.3.3,0,0,1-.3-.3v-6a.29.29,0,0,1,.3-.3.3.3,0,0,1,.3.3v6A.31.31,0,0,1,840.89,116.86Z"/><path class="cls-2" d="M925.14,102.6a.31.31,0,0,1-.3-.3V74a.31.31,0,0,1,.3-.3.3.3,0,0,1,.3.3V102.3A.3.3,0,0,1,925.14,102.6Z"/><path class="cls-2" d="M925.14,150.22a.3.3,0,0,1-.3-.3v-6a.31.31,0,0,1,.3-.3.3.3,0,0,1,.3.3v6A.29.29,0,0,1,925.14,150.22Z"/><path class="cls-2" d="M925.14,135.1a.3.3,0,0,1-.3-.3v-9.12a.3.3,0,0,1,.3-.3.29.29,0,0,1,.3.3v9.12A.29.29,0,0,1,925.14,135.1Z"/><path class="cls-2" d="M925.14,116.86a.31.31,0,0,1-.3-.3v-6a.3.3,0,0,1,.3-.3.29.29,0,0,1,.3.3v6A.3.3,0,0,1,925.14,116.86Z"/><path class="cls-2" d="M1006.68,102.6a.3.3,0,0,1-.3-.3V74a.3.3,0,0,1,.3-.3.31.31,0,0,1,.3.3V102.3A.31.31,0,0,1,1006.68,102.6Z"/><path class="cls-2" d="M1006.68,150.22a.29.29,0,0,1-.3-.3v-6a.3.3,0,0,1,.3-.3.31.31,0,0,1,.3.3v6A.3.3,0,0,1,1006.68,150.22Z"/><path class="cls-2" d="M1006.68,135.1a.29.29,0,0,1-.3-.3v-9.12a.29.29,0,0,1,.3-.3.3.3,0,0,1,.3.3v9.12A.3.3,0,0,1,1006.68,135.1Z"/><path class="cls-2" d="M1006.68,116.86a.3.3,0,0,1-.3-.3v-6a.29.29,0,0,1,.3-.3.3.3,0,0,1,.3.3v6A.31.31,0,0,1,1006.68,116.86Z"/><path class="cls-2" d="M1088.26,102.6a.3.3,0,0,1-.3-.3V74a.3.3,0,1,1,.6,0V102.3A.3.3,0,0,1,1088.26,102.6Z"/><path class="cls-2" d="M1088.26,150.22a.29.29,0,0,1-.3-.3v-6a.3.3,0,1,1,.6,0v6A.29.29,0,0,1,1088.26,150.22Z"/><path class="cls-2" d="M1088.26,135.1a.29.29,0,0,1-.3-.3v-9.12a.3.3,0,1,1,.6,0v9.12A.29.29,0,0,1,1088.26,135.1Z"/><path class="cls-2" d="M1088.26,116.86a.3.3,0,0,1-.3-.3v-6a.3.3,0,0,1,.6,0v6A.3.3,0,0,1,1088.26,116.86Z"/><path d="M891.14,173h2l3.81,10.23h-1.77l-.88-2.48H889.9l-.87,2.48h-1.7Zm.94,1.66-1.67,4.69h3.38l-1.65-4.69Z"/><path d="M901.42,175.84a3,3,0,0,1,3.3,2.66h-1.59a1.58,1.58,0,0,0-1.71-1.37c-1.13,0-1.95,1-1.95,2.51s.82,2.52,1.95,2.52a1.58,1.58,0,0,0,1.71-1.37h1.59a3,3,0,0,1-3.3,2.66c-2.23,0-3.61-1.43-3.61-3.81A3.5,3.5,0,0,1,901.42,175.84Z"/><path d="M909.53,175.84a3,3,0,0,1,3.3,2.66h-1.59a1.58,1.58,0,0,0-1.71-1.37c-1.13,0-1.95,1-1.95,2.51s.82,2.52,1.95,2.52a1.58,1.58,0,0,0,1.71-1.37h1.59a3,3,0,0,1-3.3,2.66c-2.23,0-3.61-1.43-3.61-3.81A3.5,3.5,0,0,1,909.53,175.84Z"/><path d="M917.62,175.84a3.22,3.22,0,0,1,3.4,3.54v.53h-5.34c.09,1.41.85,2.28,2,2.28a1.57,1.57,0,0,0,1.68-1.12h1.57a3.08,3.08,0,0,1-3.27,2.38c-2.32,0-3.64-1.41-3.64-3.79A3.54,3.54,0,0,1,917.62,175.84Zm-1.87,3h3.63c-.13-1.21-.74-1.75-1.76-1.75A1.93,1.93,0,0,0,915.75,178.83Z"/><path d="M922.64,176h1.55v1.06h.06a2.31,2.31,0,0,1,2.24-1.23c1.45,0,2.73.77,2.73,3v4.4h-1.61v-4.19c0-1.44-.61-1.94-1.55-1.94s-1.81.88-1.81,2.34v3.79h-1.61Z"/><path d="M932.28,181.19c0,.8.82,1.13,1.61,1.13,1.12,0,1.67-.38,1.67-1s-.38-.76-1.11-.88l-1.33-.24c-1.12-.18-2.19-.62-2.19-2s1.32-2.32,3-2.32,3,.68,3,2.2h-1.5c0-.72-.64-1.07-1.51-1.07s-1.48.35-1.48,1c0,.49.34.75,1.2.9l1.34.22c1.15.19,2.14.64,2.14,2,0,1.59-1.34,2.38-3.27,2.38s-3.14-.74-3.14-2.26Z"/><path d="M938.8,172.38h1.73V174H938.8Zm.06,3.63h1.61v7.26h-1.61Z"/><path d="M945.85,175.84a3.49,3.49,0,0,1,3.71,3.8,3.55,3.55,0,0,1-3.71,3.81,3.5,3.5,0,0,1-3.7-3.81A3.55,3.55,0,0,1,945.85,175.84Zm0,6.32c1.22,0,2-1,2-2.52s-.82-2.51-2-2.51-2,1-2,2.51S944.63,182.16,945.85,182.16Z"/><path d="M951.24,176h1.55v1.06h.06a2.31,2.31,0,0,1,2.24-1.23c1.45,0,2.73.77,2.73,3v4.4h-1.61v-4.19c0-1.44-.61-1.94-1.55-1.94s-1.81.88-1.81,2.34v3.79h-1.61Z"/><path d="M963,175.84a3.21,3.21,0,0,1,3.39,3.54v.53H961c.09,1.41.85,2.28,2,2.28a1.57,1.57,0,0,0,1.68-1.12h1.57a3.07,3.07,0,0,1-3.27,2.38c-2.32,0-3.64-1.41-3.64-3.79A3.54,3.54,0,0,1,963,175.84Zm-1.88,3h3.63c-.13-1.21-.74-1.75-1.75-1.75A1.93,1.93,0,0,0,961.09,178.83Z"/><path d="M888.27,194.61h1.54v1.06h.05a2,2,0,0,1,1.92-1.23,1.69,1.69,0,0,1,1,.29l-.42,1.43a2,2,0,0,0-.89-.24c-1.09,0-1.61,1.06-1.61,2.32v3.63h-1.6Z"/><path d="M893.82,191h1.72v1.64h-1.72Zm.06,3.63h1.6v7.26h-1.6Z"/><path d="M898.67,199.79c0,.81.82,1.13,1.61,1.13,1.11,0,1.66-.38,1.66-1s-.37-.76-1.1-.88l-1.34-.24c-1.11-.18-2.19-.62-2.19-2s1.33-2.32,3-2.32,3,.68,3,2.2h-1.51c0-.72-.64-1.07-1.5-1.07s-1.49.35-1.49,1c0,.49.34.75,1.21.9l1.34.22c1.14.19,2.14.64,2.14,2,0,1.59-1.34,2.38-3.27,2.38s-3.14-.74-3.14-2.26Z"/><path d="M908.34,194.44a3,3,0,0,1,3.3,2.66h-1.59a1.59,1.59,0,0,0-1.71-1.37c-1.13,0-2,1-2,2.51s.82,2.52,2,2.52a1.58,1.58,0,0,0,1.71-1.37h1.59a3,3,0,0,1-3.3,2.66c-2.23,0-3.61-1.43-3.61-3.81A3.5,3.5,0,0,1,908.34,194.44Z"/><path d="M915.32,197.8l1.41-.24c.72-.12.94-.21.94-.49a1.27,1.27,0,0,0-1.43-1.43,1.36,1.36,0,0,0-1.53,1.28h-1.53c.09-1.5,1.25-2.48,3.06-2.48,2,0,3,1,3,2.66v4.77h-1.54V201h-.07a2.58,2.58,0,0,1-2.32,1.08c-1.59,0-2.46-.81-2.46-2S913.61,198.08,915.32,197.8Zm2.35.43a1.19,1.19,0,0,1-.74.34l-1.25.21c-.85.13-1.18.51-1.18,1.07s.42,1,1.24,1a1.83,1.83,0,0,0,1.93-1.95Z"/><path d="M921.36,191H923v10.89h-1.61Z"/><path d="M928,194.44a2.35,2.35,0,0,1,2.29,1.26h.06c-.07-.95-.07-1.95-.07-2.44V191h1.61v10.89h-1.54v-1.08h-.06a2.5,2.5,0,0,1-2.41,1.26c-1.83,0-3.24-1.34-3.24-3.75S926.15,194.44,928,194.44Zm.28,6.32c1.15,0,2-.92,2-2.52s-.85-2.51-2-2.51-2,1-2,2.57S927.16,200.76,928.29,200.76Z"/><path d="M936.09,197.8l1.42-.24c.71-.12.93-.21.93-.49a1.27,1.27,0,0,0-1.42-1.43,1.36,1.36,0,0,0-1.54,1.28H934c.09-1.5,1.25-2.48,3.07-2.48,2,0,3,1,3,2.66v4.77h-1.53V201h-.08a2.58,2.58,0,0,1-2.32,1.08c-1.59,0-2.45-.81-2.45-2S934.38,198.08,936.09,197.8Zm2.35.43a1.19,1.19,0,0,1-.74.34l-1.25.21c-.85.13-1.18.51-1.18,1.07s.42,1,1.24,1a1.82,1.82,0,0,0,1.93-1.95Z"/><path d="M942.13,194.61h1.55v1.06h.06a2.58,2.58,0,0,1,4.51.21,2.48,2.48,0,0,1,2.44-1.44c1.41,0,2.57.77,2.57,2.94v4.49h-1.6v-4.3c0-1.35-.48-1.83-1.4-1.83s-1.76.87-1.76,2.31v3.82h-1.61v-4.3c0-1.35-.52-1.83-1.39-1.83s-1.76.87-1.76,2.33v3.8h-1.61Z"/><path d="M958.41,194.44A3.21,3.21,0,0,1,961.8,198v.53h-5.34c.09,1.42.85,2.28,2,2.28a1.57,1.57,0,0,0,1.68-1.12h1.58a3.08,3.08,0,0,1-3.27,2.38c-2.32,0-3.65-1.41-3.65-3.79A3.54,3.54,0,0,1,958.41,194.44Zm-1.87,3h3.63c-.14-1.21-.75-1.74-1.76-1.74A1.92,1.92,0,0,0,956.54,197.43Z"/><path d="M963.43,194.61H965v1.06H965a2.3,2.3,0,0,1,2.24-1.23c1.44,0,2.72.77,2.72,3v4.4h-1.6v-4.19c0-1.44-.61-1.94-1.55-1.94s-1.81.88-1.81,2.34v3.79h-1.61Z"/><path d="M972.22,195.86h-1.37v-1.25h1.37v-2.2h1.61v2.2h1.86v1.25h-1.86v3.6c0,.78.27,1.08,1,1.08h.85v1.33h-1.12c-1.66,0-2.35-.69-2.35-2.32Z"/><path d="M977.07,191h1.73v1.64h-1.73Zm.06,3.63h1.61v7.26h-1.61Z"/></g><g id="info_3"><g class="cls-5"><circle class="cls-4" cx="457.67" cy="679.81" r="10.4"/></g></g><g id="info_2"><g class="cls-5"><circle class="cls-4" cx="332.65" cy="190.25" r="10.4"/></g></g><g id="info_1"><g class="cls-5"><circle class="cls-4" cx="281.01" cy="621.53" r="10.4"/></g></g></svg>