<?xml version="1.0" encoding="utf-8"?>
<!-- Generator: Adobe Illustrator 24.0.1, SVG Export Plug-In . SVG Version: 6.00 Build 0)  -->
<svg version="1.1" id="Layer_1" xmlns="http://www.w3.org/2000/svg" xmlns:xlink="http://www.w3.org/1999/xlink" x="0px" y="0px"
	 viewBox="0 0 1125 1815" style="enable-background:new 0 0 1125 1815;" xml:space="preserve">
<style type="text/css">
	.st0{fill:#B6B6B6;}
	.st1{enable-background:new    ;}
	.st2{fill:#EFEFEF;}
	.st3{fill:#B8B8B8;}
	.st4{fill:#FE5000;}
	.st5{fill:none;stroke:#FFFFFF;stroke-width:1.7552;stroke-miterlimit:10;}
	.st6{fill:none;}
	.st7{font-family:'KareliaWeb-Outtakes';}
	.st8{font-size:57px;}
	.st9{fill:#A2A2A2;}
</style>
<g>
	<g>
		<path class="st0" d="M160.2,1454.9c0-4.1,1.4-7.3,4.9-7.3c3.5,0,4.9,3.2,4.9,7.3s-1.4,7.3-4.9,7.3
			C161.6,1462.2,160.2,1459,160.2,1454.9z M168.1,1454.9c0-3.6-1-5.6-3-5.6c-2,0-3,2-3,5.6s1,5.6,3,5.6
			C167.1,1460.5,168.1,1458.5,168.1,1454.9z"/>
	</g>
	<g>
		<path class="st0" d="M234.4,1451l4.5-3.1l1.4,0l0,12.5l3.4,0l0,1.5l-8.8,0l0-1.5l3.6,0l0-10.2l-3.3,2.3L234.4,1451z"/>
		<path class="st0" d="M245.7,1454.9c0-4.1,1.4-7.3,4.9-7.3c3.5,0,4.9,3.2,4.9,7.3c0,4.1-1.4,7.3-4.9,7.3
			C247.1,1462.2,245.7,1459,245.7,1454.9z M253.6,1454.9c0-3.6-1-5.6-3-5.6c-2,0-3,2-3,5.6c0,3.6,1,5.6,3,5.6
			C252.7,1460.5,253.6,1458.5,253.6,1454.9L253.6,1454.9z"/>
	</g>
	<g>
		<path class="st0" d="M317.7,1455.9l1.5-1.1c1.4-1,2.4-1.5,2.4-3.2c0-1.3-1-2.4-2.3-2.5c-0.1,0-0.2,0-0.3,0c-1.8,0-2.7,1-2.9,2.9
			l-1.7,0c-0.1-2.3,1.6-4.3,3.9-4.4c0.2,0,0.4,0,0.6,0c2.2-0.2,4.1,1.3,4.4,3.5c0,0.2,0,0.3,0,0.5c0,2.4-1.6,3.4-3,4.3l-1.4,1
			c-2.1,1.4-2.4,2.5-2.5,3.4l7.3,0l0,1.5l-9.3,0C314.2,1459.5,315.5,1457.1,317.7,1455.9z"/>
		<path class="st0" d="M325.7,1454.9c0-4.1,1.4-7.3,4.9-7.3c3.5,0,4.9,3.2,4.9,7.3c0,4.1-1.4,7.3-4.9,7.3
			C327,1462.2,325.7,1459,325.7,1454.9z M333.6,1454.9c0-3.6-1-5.6-3-5.6c-2,0-3,2-3,5.6s1,5.6,3,5.6
			C332.6,1460.6,333.5,1458.5,333.6,1454.9L333.6,1454.9z"/>
	</g>
	<g>
		<path class="st0" d="M395.7,1457.7c-0.1,1.5,1,2.8,2.5,2.9c0.2,0,0.4,0,0.6,0c1.7,0,3-0.9,3-2.6c-0.1-1.5-1.4-2.7-2.9-2.6
			c0,0-0.1,0-0.1,0l-1.1,0l0-1.5l1.1,0c1.3,0.1,2.5-1,2.5-2.3c0,0,0-0.1,0-0.1c0-1.3-1-2.3-2.3-2.3c-0.1,0-0.2,0-0.2,0
			c-1.3-0.1-2.4,0.9-2.5,2.1c0,0.1,0,0.3,0,0.4l-1.6,0c-0.1-2.1,1.5-4,3.7-4.1c0.2,0,0.3,0,0.5,0c2.1-0.2,4,1.3,4.2,3.4
			c0,0.1,0,0.2,0,0.3c0,1.3-0.8,2.6-2,3.1l0,0.1c1.6,0.4,2.6,1.9,2.6,3.5c0,2.5-2.1,4-4.8,4c-2.3,0.3-4.4-1.3-4.7-3.6
			c0-0.3,0-0.6,0-0.9L395.7,1457.7z"/>
		<path class="st0" d="M405.6,1454.9c0-4.1,1.4-7.3,4.9-7.3c3.5,0,4.9,3.2,4.9,7.3c0,4.1-1.4,7.3-4.9,7.3
			C407,1462.2,405.6,1459,405.6,1454.9z M413.5,1454.9c0-3.6-1-5.6-3-5.6s-3,2-3,5.6c0,3.6,1,5.6,3,5.6
			C412.5,1460.6,413.4,1458.5,413.5,1454.9L413.5,1454.9z"/>
	</g>
	<g>
		<path class="st0" d="M473.7,1457.1l6.8-9.2l1.5,0l0,9l2,0l0,1.6l-2,0l0,3.5l-1.8,0l0-3.5l-6.5,0L473.7,1457.1z M480.2,1456.9
			l0-6.2l-4.6,6.2L480.2,1456.9z"/>
		<path class="st0" d="M485.6,1454.9c0-4.1,1.4-7.3,4.9-7.3c3.5,0,4.9,3.2,4.9,7.3c0,4.1-1.4,7.3-4.9,7.3
			C487,1462.2,485.6,1459,485.6,1454.9z M493.5,1454.9c0-3.6-1-5.6-3-5.6c-2,0-3,2-3,5.6s1,5.6,3,5.6
			C492.6,1460.5,493.5,1458.5,493.5,1454.9L493.5,1454.9z"/>
	</g>
	<g>
		<path class="st0" d="M555.6,1458.2c0.2,1.5,1.5,2.5,3,2.4c1.7,0,3.1-1.4,3.1-3.1c0-1.7-1.4-3.1-3.1-3.1c-1.1,0-2.1,0.5-2.7,1.4
			l-1.7-0.1l0.4-7.9l7.9,0l0,1.7l-6.2,0l-0.3,4.4h0.1c0.7-0.7,1.7-1,2.7-1c2.4-0.1,4.4,1.7,4.6,4.1c0,0.1,0,0.3,0,0.4
			c0.1,2.5-1.9,4.6-4.4,4.7c-0.2,0-0.3,0-0.5,0c-2.4,0.3-4.5-1.4-4.8-3.8c0-0.1,0-0.1,0-0.2L555.6,1458.2z"/>
		<path class="st0" d="M565.3,1454.9c0-4.1,1.4-7.3,4.9-7.3c3.5,0,4.9,3.2,4.9,7.3c0,4.1-1.4,7.3-4.9,7.3
			C566.7,1462.2,565.3,1459,565.3,1454.9z M573.2,1454.9c0-3.6-1-5.6-3-5.6c-2,0-3,2-3,5.6s1,5.6,3,5.6
			C572.3,1460.5,573.2,1458.5,573.2,1454.9L573.2,1454.9z"/>
	</g>
	<g>
		<path class="st0" d="M638.9,1447.7c2.1-0.2,4,1.3,4.2,3.5c0,0.1,0,0.2,0,0.3l-1.7,0c0-1.2-1.1-2.2-2.3-2.2c0,0-0.1,0-0.1,0
			c-1.7,0-3.4,1.5-3.4,5.6c0.8-1.2,2.1-1.9,3.6-1.9c2.3,0,4.3,1.8,4.3,4.2c0,0.1,0,0.3,0,0.4c0.1,2.5-1.9,4.6-4.4,4.6
			c-0.1,0-0.2,0-0.3,0c-2.8,0-5.1-1.7-5.1-6.9C633.6,1449.6,636.3,1447.7,638.9,1447.7z M635.7,1457.6c-0.1,1.6,1.2,3,2.8,3.1
			c0.1,0,0.1,0,0.2,0c1.7,0,3.1-1.3,3.1-3c0-1.7-1.3-3.1-3-3.1c-1.7,0-3,1.3-3.1,2.9C635.7,1457.5,635.7,1457.5,635.7,1457.6
			L635.7,1457.6z"/>
		<path class="st0" d="M645.2,1454.9c0-4.1,1.4-7.3,4.9-7.3s4.9,3.2,4.9,7.3s-1.4,7.3-4.9,7.3C646.6,1462.2,645.2,1459,645.2,1454.9
			z M653.1,1454.9c0-3.6-1-5.6-3-5.6c-2,0-3,2-3,5.6s1,5.6,3,5.6C652.1,1460.6,653,1458.5,653.1,1454.9L653.1,1454.9z"/>
	</g>
	<g>
		<path class="st0" d="M721.2,1449.5l-7.7,0l0-1.7l9.6,0l0,1.3l-5.9,12.7l-1.9,0L721.2,1449.5z"/>
		<path class="st0" d="M725,1454.9c0-4.1,1.4-7.3,4.9-7.3c3.5,0,4.9,3.2,4.9,7.3c0,4.1-1.4,7.3-4.9,7.3
			C726.4,1462.2,725,1459,725,1454.9z M732.9,1454.9c0-3.6-1-5.6-3-5.6c-2,0-3,2-3,5.6s1,5.6,3,5.6
			C731.9,1460.5,732.9,1458.5,732.9,1454.9L732.9,1454.9z"/>
	</g>
	<g>
		<path class="st0" d="M796,1454.7L796,1454.7c-1.2-0.5-2-1.8-2-3.1c0-2.1,1.7-3.9,3.8-3.9c0.1,0,0.3,0,0.4,0c2.1-0.2,4,1.3,4.3,3.4
			c0,0.1,0,0.3,0,0.4c0,1.4-0.8,2.6-2,3.1l0,0c1.6,0.4,2.6,1.9,2.6,3.5c0,2.5-2,4-4.9,4c-2.9,0-4.9-1.5-4.9-4
			C793.3,1456.5,794.4,1455.1,796,1454.7z M798.3,1460.7c1.8,0,3.1-0.9,3.1-2.6c-0.1-1.5-1.4-2.7-2.9-2.6c-0.1,0-0.1,0-0.2,0
			c-1.5-0.2-2.9,0.9-3.1,2.4c0,0.1,0,0.1,0,0.2C795.2,1459.7,796.5,1460.7,798.3,1460.7L798.3,1460.7z M800.9,1451.5
			c0-1.3-1.1-2.4-2.4-2.4c-0.1,0-0.2,0-0.2,0c-1.3-0.1-2.5,0.8-2.6,2.2c0,0.1,0,0.1,0,0.2c0.2,1.4,1.5,2.5,2.9,2.3
			C799.7,1453.7,800.7,1452.7,800.9,1451.5L800.9,1451.5z"/>
		<path class="st0" d="M805,1454.9c0-4.1,1.4-7.3,4.9-7.3c3.5,0,4.9,3.2,4.9,7.3c0,4.1-1.4,7.3-4.9,7.3
			C806.4,1462.2,805,1459,805,1454.9z M812.9,1454.9c0-3.6-1-5.6-3-5.6c-2,0-3,2-3,5.6c0,3.6,1,5.6,3,5.6
			C811.9,1460.6,812.9,1458.5,812.9,1454.9L812.9,1454.9z"/>
	</g>
	<g>
		<path class="st0" d="M877.8,1462.2c-2.2,0.2-4.2-1.4-4.4-3.6c0,0,0-0.1,0-0.1l1.8,0c0.2,1.3,1.3,2.3,2.6,2.2
			c1.9,0,3.2-1.4,3.3-5.6c-0.8,1.2-2.2,1.9-3.6,1.8c-2.3,0.1-4.3-1.7-4.4-4c0-0.2,0-0.4,0-0.5c-0.1-2.5,1.9-4.6,4.4-4.7
			c0.1,0,0.2,0,0.3,0c2.8,0,5.1,1.7,5.1,6.9C883,1460.3,880.7,1462.2,877.8,1462.2z M880.8,1452.3c0-1.6-1.3-3-3-3c-1.6,0-3,1.3-3,3
			c-0.1,1.6,1.2,2.9,2.7,3c0,0,0.1,0,0.1,0c1.7,0.1,3-1.2,3.1-2.9C880.8,1452.4,880.8,1452.3,880.8,1452.3z"/>
		<path class="st0" d="M884.9,1454.9c0-4.1,1.4-7.3,4.9-7.3c3.5,0,4.9,3.2,4.9,7.3s-1.4,7.3-4.9,7.3S884.9,1459,884.9,1454.9z
			 M892.8,1454.9c0-3.6-1-5.6-3-5.6c-2,0-3,2-3,5.6c0,3.6,1,5.6,3,5.6C891.8,1460.5,892.8,1458.5,892.8,1454.9L892.8,1454.9z"/>
	</g>
	<g>
		<path class="st0" d="M947.5,1451l4.5-3.1l1.4,0l0,12.5l3.4,0l0,1.5l-8.8,0l0-1.5l3.6,0l0-10.2l-3.3,2.2L947.5,1451z"/>
		<path class="st0" d="M958.8,1454.9c0-4.1,1.4-7.3,4.9-7.3c3.5,0,4.9,3.2,4.9,7.3c0,4.1-1.4,7.3-4.9,7.3
			C960.2,1462.2,958.8,1459,958.8,1454.9z M966.7,1454.9c0-3.6-1-5.6-3-5.6c-2,0-3,2-3,5.6c0,3.6,1,5.6,3,5.6
			C965.7,1460.5,966.6,1458.5,966.7,1454.9L966.7,1454.9z"/>
		<path class="st0" d="M970.3,1454.9c0-4.1,1.4-7.3,4.9-7.3c3.5,0,4.9,3.2,4.9,7.3c0,4.1-1.4,7.3-4.9,7.3
			C971.7,1462.2,970.3,1459,970.3,1454.9z M978.2,1454.9c0-3.6-1-5.6-3-5.6s-3,2-3,5.6c0,3.6,1,5.6,3,5.6
			C977.2,1460.5,978.2,1458.5,978.2,1454.9z"/>
	</g>
	<g>
		<path class="st0" d="M928.1,1508.3l0,1.9l-2.2,0l0-18.1l2.2,0l0,7.2c0,2.7,1,3.6,2.9,3.6c1.8,0,3.3-1.7,3.3-4.4l0-6.4l2.2,0
			l0,12.4l-2.1,0l0-1.8h-0.1c-0.7,1.4-2.2,2.3-3.8,2.2c-0.9,0-1.8-0.2-2.5-0.7h-0.2C928,1505.5,928.1,1506.9,928.1,1508.3z"/>
		<path class="st0" d="M941.7,1505.9c0,1.5,1.4,2.4,3.4,2.4c2,0,4-1.1,4-4.6l0-1.3h-0.1c-0.8,1.5-2.5,2.4-4.2,2.3
			c-3.2,0-5.5-2.3-5.5-6.4c0-4.1,2.5-6.6,5.7-6.6c1.7-0.1,3.2,0.8,4,2.2h0.1l0-2l2.1,0l0,11.9c0,4.7-2.8,6.4-6.1,6.4
			c-3.3,0-5.5-1.5-5.5-4.3L941.7,1505.9z M945.2,1502.8c2,0,3.7-1.7,3.7-4.6s-1.7-4.6-3.7-4.6c-2,0-3.7,1.7-3.7,4.7
			C941.6,1501.3,943.2,1502.8,945.2,1502.8z"/>
		<path class="st0" d="M961.1,1486.6l1.9,0l-7.8,18.2l-2,0L961.1,1486.6z"/>
		<path class="st0" d="M963.4,1492l2.1,0l0,1.8h0.1c0.7-1.4,2.2-2.2,3.8-2.1c1.7-0.2,3.4,0.9,3.9,2.5c0.7-1.7,2.4-2.7,4.2-2.5
			c2.3,0,4.3,1.3,4.3,5l0,7.7l-2.2,0l0-7.4c0-2.4-0.8-3.4-2.5-3.4c-1.7,0-3.3,1.7-3.3,4.3l0,6.5l-2.2,0l0-7.4c0-2.4-0.9-3.4-2.5-3.4
			c-1.6,0-3.3,1.7-3.3,4.4l0,6.4l-2.2,0L963.4,1492z"/>
		<path class="st0" d="M985.4,1492.8c-0.1,1.1,0.7,2.1,1.8,2.1c0.1,0,0.3,0,0.4,0c1.3,0,2.2-0.7,2.2-1.9c0-1.1-0.9-2-2-2
			c-0.1,0-0.1,0-0.2,0l-0.8,0l0-1.1l0.8,0c0.9,0.1,1.8-0.6,1.8-1.6c0,0,0-0.1,0-0.1c0-0.9-0.8-1.7-1.7-1.7c0,0-0.1,0-0.1,0
			c-0.9-0.1-1.7,0.7-1.8,1.6c0,0.1,0,0.2,0,0.3l-1.2,0c0.1-1.7,1.6-3,3.3-2.9c1.5,0.1,2.7,1.2,2.9,2.7c0,1-0.6,1.9-1.5,2.3l0,0
			c1.1,0.3,1.9,1.4,1.9,2.5c-0.1,1.7-1.6,3-3.3,2.9c-0.1,0-0.1,0-0.2,0c-1.7,0.2-3.2-0.9-3.5-2.6c0-0.2,0-0.4,0-0.6L985.4,1492.8z"
			/>
	</g>
	<g>
		<g class="st1">
			<path d="M147.4,206.6v9.4h-1.6v-7.5h-5.1v5.9H139v-5.9h-5.7v-1.9H147.4z"/>
			<path d="M147.4,218.4v9.5h-1.6v-7.6h-4.5v6.1h-1.6v-6.1h-4.7v7.8h-1.6v-9.7H147.4z"/>
			<path d="M147.4,230.9v5.8c0,3.1-1.4,4.5-3.7,4.5c-1.3,0-2.5-0.7-3-2.2h-0.1c-0.3,1.7-1.6,2.8-3.2,2.8c-2.4,0-4.2-1.6-4.2-4.7
				v-6.2H147.4z M145.8,232.8h-4.4v3.9c0,1.7,1,2.6,2.3,2.6c1.2,0,2-0.7,2-2.6V232.8z M139.8,232.8h-4.8v4.4c0,1.9,1,2.8,2.5,2.8
				c1.3,0,2.3-0.9,2.3-2.8V232.8z"/>
		</g>
	</g>
	<g>
		<g class="st1">
			<path d="M135.3,103.7L135.3,103.7c-1.6-1.1-2.3-2.5-2.3-4.7c0-4,3.1-6.9,7.3-6.9s7.3,2.9,7.3,7c0,3.4-1.9,5.6-4.4,6.2v-2
				c1.5-0.5,2.7-1.8,2.7-4.2c0-3.1-2.4-5-5.6-5c-3.2,0-5.6,2-5.6,4.9c0,2.4,1.4,4.5,3.9,4.5h0.4v-4.4h1.6v6.2h-7.5V104L135.3,103.7z
				"/>
			<path d="M147.4,108.6v9.5h-1.6v-7.6h-4.5v6.1h-1.6v-6.1h-4.7v7.8h-1.6v-9.7H147.4z"/>
			<path d="M147.4,121.2v1.8l-10.9,7.8v0.1l10.9-0.1v1.9h-14.1v-1.8l10.8-7.8V123l-10.8,0.1v-1.9H147.4z"/>
		</g>
	</g>
	<g>
		<g class="st1">
			<path d="M147.4,313.9v2.3l-11.6,5.2v0l11.6,5.1v2.3h-14.1V327l11.2,0.2V327l-11.2-4.9v-1.5l10.9-4.9v-0.1l-10.9,0.2v-1.9H147.4z"
				/>
			<path d="M147.4,336.2v2.2l-14.1,5.3v-2l3.7-1.3v-6.2l-3.7-1.3v-1.9L147.4,336.2z M145.4,337.2l-6.8-2.5v5L145.4,337.2
				L145.4,337.2z"/>
			<path d="M147.4,345.7v5.3c0,3.2-1.5,4.9-4.2,4.9c-2.1,0-3.7-1.1-4.2-3.1l-5.7,3.6v-2.1l5.5-3.5v-3.3h-5.5v-1.9H147.4z
				 M145.8,347.6h-5.3v3.5c0,2,1.2,3,2.8,3c1.6,0,2.5-1.1,2.5-3V347.6z"/>
		</g>
	</g>
	<g>
		<g class="st1">
			<path d="M147.4,435v2.2l-14.1,5.3v-2l3.7-1.3V433l-3.7-1.3v-1.9L147.4,435z M145.4,436l-6.8-2.5v5L145.4,436L145.4,436z"/>
			<path d="M147.4,444.5v5.3c0,3.2-1.9,5-4.5,5c-2.6,0-4.7-1.8-4.7-5v-3.4h-4.9v-1.9H147.4z M145.8,446.4h-5.9v3.5c0,2.1,1.4,3,3,3
				c1.6,0,2.9-1,2.9-3V446.4z"/>
			<path d="M147.4,457.6v5.3c0,3.2-1.5,4.9-4.2,4.9c-2.1,0-3.7-1.1-4.2-3.1l-5.7,3.6v-2.1l5.5-3.5v-3.3h-5.5v-1.9H147.4z
				 M145.8,459.5h-5.3v3.5c0,2,1.2,3,2.8,3c1.6,0,2.5-1.1,2.5-3V459.5z"/>
		</g>
	</g>
	<g>
		<g class="st1">
			<path d="M147.4,542.3v2.3l-11.6,5.2v0l11.6,5.1v2.3h-14.1v-1.9l11.2,0.2v-0.1l-11.2-4.9v-1.5l10.9-4.9v-0.1l-10.9,0.2v-1.9H147.4
				z"/>
			<path d="M147.4,564.6v2.2l-14.1,5.3v-2l3.7-1.3v-6.2l-3.7-1.3v-1.9L147.4,564.6z M145.4,565.6l-6.8-2.5v5L145.4,565.6
				L145.4,565.6z"/>
			<path d="M135.3,584.4L135.3,584.4c-1.6-1.1-2.3-2.5-2.3-4.7c0-4,3.1-6.9,7.3-6.9s7.3,2.9,7.3,7c0,3.4-1.9,5.6-4.4,6.2v-2
				c1.5-0.5,2.7-1.8,2.7-4.2c0-3.1-2.4-5-5.6-5c-3.2,0-5.6,2-5.6,4.9c0,2.4,1.4,4.5,3.9,4.5h0.4v-4.4h1.6v6.2h-7.5v-1.2L135.3,584.4
				z"/>
		</g>
	</g>
	<g>
		<g class="st1">
			<path d="M135.3,673.5L135.3,673.5c-1.6-1.1-2.3-2.5-2.3-4.7c0-4,3.1-6.9,7.3-6.9s7.3,2.9,7.3,7c0,3.4-1.9,5.6-4.4,6.2v-2
				c1.5-0.5,2.7-1.8,2.7-4.2c0-3.1-2.4-5-5.6-5c-3.2,0-5.6,2-5.6,4.9c0,2.4,1.4,4.5,3.9,4.5h0.4v-4.4h1.6v6.2h-7.5v-1.2L135.3,673.5
				z"/>
			<path d="M147.4,678.4v1.9h-14.1v-1.9H147.4z"/>
			<path d="M147.4,683.6v1.9h-8.5c-2.6,0-4.1,1.2-4.1,3.8c0,2.6,1.5,3.8,4.1,3.8h8.5v1.9h-8.5c-4.2,0-5.8-2.3-5.8-5.7
				c0-3.3,1.6-5.7,5.8-5.7H147.4z"/>
		</g>
	</g>
	<g>
		<g class="st1">
			<path d="M147.4,774.7v1.9h-12.5v6.9h-1.6v-8.8H147.4z"/>
			<path d="M147.4,785.2v1.9h-8.5c-2.6,0-4.1,1.2-4.1,3.8c0,2.6,1.5,3.8,4.1,3.8h8.5v1.9h-8.5c-4.2,0-5.8-2.3-5.8-5.7
				c0-3.3,1.6-5.7,5.8-5.7H147.4z"/>
			<path d="M135.3,810.7L135.3,810.7c-1.6-1.1-2.3-2.5-2.3-4.7c0-4,3.1-6.9,7.3-6.9s7.3,2.9,7.3,7c0,3.4-1.9,5.6-4.4,6.2v-2
				c1.5-0.5,2.7-1.8,2.7-4.2c0-3.1-2.4-5-5.6-5c-3.2,0-5.6,2-5.6,4.9c0,2.4,1.4,4.5,3.9,4.5h0.4v-4.4h1.6v6.2h-7.5V811L135.3,810.7z
				"/>
		</g>
	</g>
	<g>
		<g class="st1">
			<path d="M147.4,893.4v2.2l-14.1,5.3v-2l3.7-1.3v-6.2l-3.7-1.3v-1.9L147.4,893.4z M145.4,894.4l-6.8-2.5v5L145.4,894.4
				L145.4,894.4z"/>
			<path d="M135.3,913.2L135.3,913.2c-1.6-1.1-2.3-2.5-2.3-4.7c0-4,3.1-6.9,7.3-6.9s7.3,2.9,7.3,7c0,3.4-1.9,5.6-4.4,6.2v-2
				c1.5-0.5,2.7-1.8,2.7-4.2c0-3.1-2.4-5-5.6-5c-3.2,0-5.6,2-5.6,4.9c0,2.4,1.4,4.5,3.9,4.5h0.4v-4.4h1.6v6.2h-7.5v-1.2L135.3,913.2
				z"/>
			<path d="M147.6,924.1c0,4-3.1,6.9-7.3,6.9s-7.3-2.9-7.3-6.9c0-4.1,3.1-6.9,7.3-6.9S147.6,920,147.6,924.1z M134.8,924.1
				c0,3,2.4,4.9,5.6,4.9c3.2,0,5.6-2,5.6-4.9c0-3-2.4-4.9-5.6-4.9C137.1,919.2,134.8,921.1,134.8,924.1z"/>
		</g>
	</g>
	<g>
		<g class="st1">
			<path d="M137.3,1008.6c-1.5,0-2.7,1.3-2.7,3.5c0,2.3,1,3.6,2.6,3.6c3.7,0,0.9-8.8,6.3-8.8c2.4,0,4.1,2.1,4.1,5.2
				c0,3-1.5,5.2-4,5.2v-1.9c1.6,0,2.5-1.4,2.5-3.3c0-1.8-0.8-3.3-2.4-3.3c-3.7,0-0.8,8.9-6.4,8.9c-2.5,0-4.3-2.1-4.3-5.6
				c0-3.4,1.7-5.4,4.3-5.4V1008.6z"/>
			<path d="M147.4,1020.7v9.5h-1.6v-7.6h-4.5v6.1h-1.6v-6.1h-4.7v7.8h-1.6v-9.7H147.4z"/>
			<path d="M147.4,1031.6v11.7h-1.6v-4.9h-12.5v-1.9h12.5v-4.9H147.4z"/>
		</g>
	</g>
	<g>
		<g class="st1">
			<path d="M147.6,1127.5c0,4-3.1,6.9-7.3,6.9s-7.3-2.9-7.3-6.9c0-4.1,3.1-6.9,7.3-6.9S147.6,1123.4,147.6,1127.5z M134.8,1127.5
				c0,3,2.4,4.9,5.6,4.9c3.2,0,5.6-2,5.6-4.9s-2.4-4.9-5.6-4.9C137.1,1122.6,134.8,1124.6,134.8,1127.5z"/>
			<path d="M147.4,1134.8v11.7h-1.6v-4.9h-12.5v-1.9h12.5v-4.9H147.4z"/>
			<path d="M147.4,1146.8v11.7h-1.6v-4.9h-12.5v-1.9h12.5v-4.9H147.4z"/>
		</g>
	</g>
	<g>
		<g class="st1">
			<path d="M147.4,1234.2v1.8l-10.9,7.8v0.1l10.9-0.1v1.9h-14.1v-1.8l10.8-7.8v-0.1l-10.8,0.1v-1.9H147.4z"/>
			<path d="M147.6,1255.3c0,4-3.1,6.9-7.3,6.9s-7.3-2.9-7.3-6.9c0-4.1,3.1-6.9,7.3-6.9S147.6,1251.2,147.6,1255.3z M134.8,1255.3
				c0,3,2.4,4.9,5.6,4.9c3.2,0,5.6-1.9,5.6-4.9c0-3-2.4-4.9-5.6-4.9C137.1,1250.4,134.8,1252.3,134.8,1255.3z"/>
			<path d="M147.4,1262.9v2l-12.1,4.2v0.1l12.1,4.2v1.9l-14.1-5.2v-2.1L147.4,1262.9z"/>
		</g>
	</g>
	<g>
		<g class="st1">
			<path d="M147.4,1351.2v4.4c0,4.9-2.9,7.4-7.1,7.4s-7.1-2.5-7.1-7.4v-4.4H147.4z M145.8,1353.1h-10.8v2.5c0,4,2.5,5.4,5.4,5.4
				c2.9,0,5.4-1.5,5.4-5.4V1353.1z"/>
			<path d="M147.4,1365.7v1.9h-14.1v-1.9H147.4z"/>
			<path d="M147.6,1377.1c0,3.3-1.9,5.4-4.7,6v-1.9c1.9-0.5,3-1.9,3-4c0-2.9-2.3-4.8-5.6-4.8c-3.2,0-5.6,1.9-5.6,4.8
				c0,2.3,1,3.6,3,4.1v1.9c-2.8-0.6-4.7-2.8-4.7-6.1c0-4,3-6.7,7.3-6.7C144.5,1370.3,147.6,1373.1,147.6,1377.1z"/>
		</g>
	</g>
	<g>
		
			<rect x="381" y="-162.1" transform="matrix(-1.836970e-16 1 -1 -1.836970e-16 829.8397 -326.3973)" class="st2" width="394.2" height="827.6"/>
	</g>
	<g>
		
			<rect x="435.3" y="866.4" transform="matrix(-1.836970e-16 1 -1 -1.836970e-16 1858.3949 702.0909)" class="st2" width="285.7" height="827.6"/>
	</g>
	<g>
		<path class="st3" d="M163.9,171.1c0-0.2,0.2-0.4,0.4-0.4h827.2c0.2,0,0.4,0.2,0.4,0.4s-0.2,0.4-0.4,0.4H164.3
			C164.1,171.6,163.9,171.4,163.9,171.1z"/>
	</g>
	<g>
		<path class="st3" d="M163.9,276.4c0-0.2,0.2-0.4,0.4-0.4h827.2c0.2,0,0.4,0.2,0.4,0.4c0,0.2-0.2,0.4-0.4,0.4H164.3
			C164.1,276.8,163.9,276.6,163.9,276.4z"/>
	</g>
	<g>
		<path class="st3" d="M163.9,393c0-0.2,0.2-0.4,0.4-0.4h827.2c0.2,0,0.4,0.2,0.4,0.4c0,0.2-0.2,0.4-0.4,0.4H164.3
			C164.1,393.4,163.9,393.2,163.9,393z"/>
	</g>
	<g>
		<path class="st3" d="M163.9,505.7c0-0.2,0.2-0.4,0.4-0.4h827.2c0.2,0,0.4,0.2,0.4,0.4c0,0.2-0.2,0.4-0.4,0.4H164.3
			C164.1,506.2,163.9,506,163.9,505.7z"/>
	</g>
	<g>
		<path class="st3" d="M163.9,622.3c0-0.2,0.2-0.4,0.4-0.4h827.2c0.2,0,0.4,0.2,0.4,0.4s-0.2,0.4-0.4,0.4H164.3
			C164.1,622.7,163.9,622.5,163.9,622.3z"/>
	</g>
	<g>
		<path class="st3" d="M163.9,735.1c0-0.2,0.2-0.4,0.4-0.4h827.2c0.2,0,0.4,0.2,0.4,0.4c0,0.2-0.2,0.4-0.4,0.4H164.3
			C164.1,735.5,163.9,735.3,163.9,735.1z"/>
	</g>
	<g>
		<path class="st3" d="M163.9,851.6c0-0.2,0.2-0.4,0.4-0.4h827.2c0.2,0,0.4,0.2,0.4,0.4c0,0.2-0.2,0.4-0.4,0.4H164.3
			C164.1,852,163.9,851.9,163.9,851.6z"/>
	</g>
	<g>
		<path class="st3" d="M163.9,968.2c0-0.2,0.2-0.4,0.4-0.4h827.2c0.2,0,0.4,0.2,0.4,0.4c0,0.2-0.2,0.4-0.4,0.4H164.3
			C164.1,968.6,163.9,968.4,163.9,968.2z"/>
	</g>
	<g>
		<path class="st3" d="M163.9,1081c0-0.2,0.2-0.4,0.4-0.4h827.2c0.2,0,0.4,0.2,0.4,0.4c0,0.2-0.2,0.4-0.4,0.4H164.3
			C164.1,1081.4,163.9,1081.2,163.9,1081z"/>
	</g>
	<g>
		<path class="st3" d="M163.9,1197.5c0-0.2,0.2-0.4,0.4-0.4h827.2c0.2,0,0.4,0.2,0.4,0.4c0,0.2-0.2,0.4-0.4,0.4H164.3
			C164.1,1197.9,163.9,1197.7,163.9,1197.5z"/>
	</g>
	<g>
		<path class="st3" d="M163.9,1310.3c0-0.2,0.2-0.4,0.4-0.4h827.2c0.2,0,0.4,0.2,0.4,0.4s-0.2,0.4-0.4,0.4H164.3
			C164.1,1310.7,163.9,1310.5,163.9,1310.3z"/>
	</g>
	<g>
		<path class="st3" d="M163.9,54.6c0-0.2,0.2-0.4,0.4-0.4h827.2c0.2,0,0.4,0.2,0.4,0.4s-0.2,0.4-0.4,0.4H164.3
			C164.1,55,163.9,54.8,163.9,54.6z"/>
	</g>
	<g>
		<path class="st3" d="M163.9,1423.1c0-0.2,0.2-0.4,0.4-0.4h827.2c0.2,0,0.4,0.2,0.4,0.4s-0.2,0.4-0.4,0.4H164.3
			C164.1,1423.5,163.9,1423.3,163.9,1423.1z"/>
	</g>
	<g transform="translate(0,0)">
		<g>
			<circle cx="429.6" cy="58.4" r="4.1"/>
		</g>
	</g>
	<g transform="translate(0,0)">
		<g>
			<circle cx="292.9" cy="62.1" r="4.1"/>
		</g>
	</g>
	<g transform="translate(0,0)">
		<g>
			<circle cx="381.3" cy="65.9" r="4.1"/>
		</g>
	</g>
	<g transform="translate(0,0)">
		<g>
			<circle cx="341.1" cy="69.6" r="4.1"/>
		</g>
	</g>
	<g transform="translate(0,0)">
		<g>
			<circle cx="365.3" cy="73.4" r="4.1"/>
		</g>
	</g>
	<g transform="translate(0,0)">
		<g>
			<circle cx="413.5" cy="77.2" r="4.1"/>
		</g>
	</g>
	<g transform="translate(0,0)">
		<g>
			<circle cx="485.9" cy="80.9" r="4.1"/>
		</g>
	</g>
	<g transform="translate(0,0)">
		<g>
			<circle cx="477.8" cy="84.7" r="4.1"/>
		</g>
	</g>
	<g transform="translate(0,0)">
		<g>
			<circle cx="381.3" cy="88.4" r="4.1"/>
		</g>
	</g>
	<g transform="translate(0,0)">
		<g>
			<circle cx="381.3" cy="92.2" r="4.1"/>
		</g>
	</g>
	<g transform="translate(0,0)">
		<g>
			<circle cx="453.7" cy="96" r="4.1"/>
		</g>
	</g>
	<g transform="translate(0,0)">
		<g>
			<circle cx="485.9" cy="99.7" r="4.1"/>
		</g>
	</g>
	<g transform="translate(0,0)">
		<g>
			<circle cx="453.7" cy="111" r="4.1"/>
		</g>
	</g>
	<g transform="translate(0,0)">
		<g>
			<circle cx="542.1" cy="114.7" r="4.1"/>
		</g>
	</g>
	<g transform="translate(0,0)">
		<g>
			<circle cx="172.3" cy="137.3" r="4.1"/>
		</g>
	</g>
	<g transform="translate(0,0)">
		<g>
			<circle cx="252.7" cy="141.1" r="4.1"/>
		</g>
	</g>
	<g transform="translate(0,0)">
		<g>
			<circle cx="381.3" cy="144.8" r="4.1"/>
		</g>
	</g>
	<g transform="translate(0,0)">
		<g>
			<circle cx="317" cy="148.6" r="4.1"/>
		</g>
	</g>
	<g transform="translate(0,0)">
		<g>
			<circle cx="373.3" cy="152.3" r="4.1"/>
		</g>
	</g>
	<g transform="translate(0,0)">
		<g>
			<circle cx="421.5" cy="156.1" r="4.1"/>
		</g>
	</g>
	<g transform="translate(0,0)">
		<g>
			<circle cx="558.2" cy="163.6" r="4.1"/>
		</g>
	</g>
	<g transform="translate(0,0)">
		<g>
			<circle cx="317" cy="167.4" r="4.1"/>
		</g>
	</g>
	<g transform="translate(0,0)">
		<g>
			<circle cx="397.4" cy="171.1" r="4.1"/>
		</g>
	</g>
	<g transform="translate(0,0)">
		<g>
			<circle cx="534.1" cy="182.4" r="4.1"/>
		</g>
	</g>
	<g transform="translate(0,0)">
		<g>
			<circle cx="461.7" cy="189.9" r="4.1"/>
		</g>
	</g>
	<g transform="translate(0,0)">
		<g>
			<circle cx="381.3" cy="193.7" r="4.1"/>
		</g>
	</g>
	<g transform="translate(0,0)">
		<g>
			<circle cx="341.1" cy="197.5" r="4.1"/>
		</g>
	</g>
	<g transform="translate(0,0)">
		<g>
			<circle cx="373.3" cy="201.2" r="4.1"/>
		</g>
	</g>
	<g transform="translate(0,0)">
		<g>
			<circle cx="317" cy="205" r="4.1"/>
		</g>
	</g>
	<g transform="translate(0,0)">
		<g>
			<circle cx="397.4" cy="208.7" r="4.1"/>
		</g>
	</g>
	<g transform="translate(0,0)">
		<g>
			<circle cx="397.4" cy="212.5" r="4.1"/>
		</g>
	</g>
	<g transform="translate(0,0)">
		<g>
			<circle cx="461.7" cy="216.3" r="4.1"/>
		</g>
	</g>
	<g transform="translate(0,0)">
		<g>
			<circle cx="526" cy="220" r="4.1"/>
		</g>
	</g>
	<g transform="translate(0,0)">
		<g>
			<circle cx="373.3" cy="223.8" r="4.1"/>
		</g>
	</g>
	<g transform="translate(0,0)">
		<g>
			<circle cx="317" cy="227.5" r="4.1"/>
		</g>
	</g>
	<g transform="translate(0,0)">
		<g>
			<circle cx="534.1" cy="246.3" r="4.1"/>
		</g>
	</g>
	<g transform="translate(0,0)">
		<g>
			<circle cx="518" cy="250.1" r="4.1"/>
		</g>
	</g>
	<g transform="translate(0,0)">
		<g>
			<circle cx="292.9" cy="272.7" r="4.1"/>
		</g>
	</g>
	<g transform="translate(0,0)">
		<g>
			<circle cx="325.1" cy="276.4" r="4.1"/>
		</g>
	</g>
	<g transform="translate(0,0)">
		<g>
			<circle cx="429.6" cy="280.2" r="4.1"/>
		</g>
	</g>
	<g transform="translate(0,0)">
		<g>
			<circle cx="381.3" cy="283.9" r="4.1"/>
		</g>
	</g>
	<g transform="translate(0,0)">
		<g>
			<circle cx="477.8" cy="287.7" r="4.1"/>
		</g>
	</g>
	<g transform="translate(0,0)">
		<g>
			<circle cx="405.5" cy="291.5" r="4.1"/>
		</g>
	</g>
	<g transform="translate(0,0)">
		<g>
			<circle cx="341.1" cy="295.2" r="4.1"/>
		</g>
	</g>
	<g transform="translate(0,0)">
		<g>
			<circle cx="300.9" cy="299" r="4.1"/>
		</g>
	</g>
	<g transform="translate(0,0)">
		<g>
			<ellipse transform="matrix(0.3827 -0.9239 0.9239 0.3827 -29.3943 561.4678)" cx="405.5" cy="302.7" rx="4.1" ry="4.1"/>
		</g>
	</g>
	<g transform="translate(0,0)">
		<g>
			<circle cx="437.6" cy="310.2" r="4.1"/>
		</g>
	</g>
	<g transform="translate(0,0)">
		<g>
			<circle cx="413.5" cy="314" r="4.1"/>
		</g>
	</g>
	<g transform="translate(0,0)">
		<g>
			<circle cx="300.9" cy="321.5" r="4.1"/>
		</g>
	</g>
	<g transform="translate(0,0)">
		<g>
			<circle cx="220.5" cy="325.3" r="4.1"/>
		</g>
	</g>
	<g transform="translate(0,0)">
		<g>
			<circle cx="284.9" cy="329" r="4.1"/>
		</g>
	</g>
	<g transform="translate(0,0)">
		<g>
			<circle cx="276.8" cy="332.8" r="4.1"/>
		</g>
	</g>
	<g transform="translate(0,0)">
		<g>
			<circle cx="284.9" cy="336.6" r="4.1"/>
		</g>
	</g>
	<g transform="translate(0,0)">
		<g>
			<circle cx="276.8" cy="340.3" r="4.1"/>
		</g>
	</g>
	<g transform="translate(0,0)">
		<g>
			<circle cx="357.2" cy="344.1" r="4.1"/>
		</g>
	</g>
	<g transform="translate(0,0)">
		<g>
			<circle cx="309" cy="347.8" r="4.1"/>
		</g>
	</g>
	<g transform="translate(0,0)">
		<g>
			<circle cx="260.7" cy="351.6" r="4.1"/>
		</g>
	</g>
	<g transform="translate(0,0)">
		<g>
			<circle cx="284.9" cy="355.4" r="4.1"/>
		</g>
	</g>
	<g transform="translate(0,0)">
		<g>
			<circle cx="284.9" cy="359.1" r="4.1"/>
		</g>
	</g>
	<g transform="translate(0,0)">
		<g>
			<circle cx="349.2" cy="362.9" r="4.1"/>
		</g>
	</g>
	<g transform="translate(0,0)">
		<g>
			<circle cx="429.6" cy="366.6" r="4.1"/>
		</g>
	</g>
	<g transform="translate(0,0)">
		<g>
			<circle cx="389.4" cy="370.4" r="4.1"/>
		</g>
	</g>
	<g transform="translate(0,0)">
		<g>
			<circle cx="357.2" cy="374.2" r="4.1"/>
		</g>
	</g>
	<g transform="translate(0,0)">
		<g>
			<circle cx="292.9" cy="377.9" r="4.1"/>
		</g>
	</g>
	<g transform="translate(0,0)">
		<g>
			<circle cx="373.3" cy="381.7" r="4.1"/>
		</g>
	</g>
	<g transform="translate(0,0)">
		<g>
			<circle cx="413.5" cy="385.4" r="4.1"/>
		</g>
	</g>
	<g transform="translate(0,0)">
		<g>
			<circle cx="349.2" cy="389.2" r="4.1"/>
		</g>
	</g>
	<g transform="translate(0,0)">
		<g>
			<circle cx="300.9" cy="393" r="4.1"/>
		</g>
	</g>
	<g transform="translate(0,0)">
		<g>
			<circle cx="252.7" cy="396.7" r="4.1"/>
		</g>
	</g>
	<g transform="translate(0,0)">
		<g>
			<circle cx="325.1" cy="400.5" r="4.1"/>
		</g>
	</g>
	<g transform="translate(0,0)">
		<g>
			<circle cx="260.7" cy="404.2" r="4.1"/>
		</g>
	</g>
	<g transform="translate(0,0)">
		<g>
			<circle cx="236.6" cy="408" r="4.1"/>
		</g>
	</g>
	<g transform="translate(0,0)">
		<g>
			<circle cx="309" cy="411.8" r="4.1"/>
		</g>
	</g>
	<g transform="translate(0,0)">
		<g>
			<circle cx="284.9" cy="415.5" r="4.1"/>
		</g>
	</g>
	<g transform="translate(0,0)">
		<g>
			<circle cx="260.7" cy="419.3" r="4.1"/>
		</g>
	</g>
	<g transform="translate(0,0)">
		<g>
			<circle cx="317" cy="423" r="4.1"/>
		</g>
	</g>
	<g transform="translate(0,0)">
		<g>
			<circle cx="236.6" cy="438.1" r="4.1"/>
		</g>
	</g>
	<g transform="translate(0,0)">
		<g>
			<circle cx="317" cy="441.8" r="4.1"/>
		</g>
	</g>
	<g transform="translate(0,0)">
		<g>
			<circle cx="333.1" cy="445.6" r="4.1"/>
		</g>
	</g>
	<g transform="translate(0,0)">
		<g>
			<circle cx="341.1" cy="449.4" r="4.1"/>
		</g>
	</g>
	<g transform="translate(0,0)">
		<g>
			<circle cx="317" cy="453.1" r="4.1"/>
		</g>
	</g>
	<g transform="translate(0,0)">
		<g>
			<circle cx="300.9" cy="456.9" r="4.1"/>
		</g>
	</g>
	<g transform="translate(0,0)">
		<g>
			<circle cx="292.9" cy="460.6" r="4.1"/>
		</g>
	</g>
	<g transform="translate(0,0)">
		<g>
			<circle cx="276.8" cy="464.4" r="4.1"/>
		</g>
	</g>
	<g transform="translate(0,0)">
		<g>
			<circle cx="276.8" cy="468.2" r="4.1"/>
		</g>
	</g>
	<g transform="translate(0,0)">
		<g>
			<circle cx="349.2" cy="471.9" r="4.1"/>
		</g>
	</g>
	<g transform="translate(0,0)">
		<g>
			<circle cx="333.1" cy="475.7" r="4.1"/>
		</g>
	</g>
	<g transform="translate(0,0)">
		<g>
			<circle cx="276.8" cy="479.4" r="4.1"/>
		</g>
	</g>
	<g transform="translate(0,0)">
		<g>
			<circle cx="276.8" cy="483.2" r="4.1"/>
		</g>
	</g>
	<g transform="translate(0,0)">
		<g>
			<circle cx="357.2" cy="487" r="4.1"/>
		</g>
	</g>
	<g transform="translate(0,0)">
		<g>
			<circle cx="333.1" cy="490.7" r="4.1"/>
		</g>
	</g>
	<g transform="translate(0,0)">
		<g>
			<circle cx="341.1" cy="494.5" r="4.1"/>
		</g>
	</g>
	<g transform="translate(0,0)">
		<g>
			<circle cx="333.1" cy="498.2" r="4.1"/>
		</g>
	</g>
	<g transform="translate(0,0)">
		<g>
			<circle cx="325.1" cy="502" r="4.1"/>
		</g>
	</g>
	<g transform="translate(0,0)">
		<g>
			<circle cx="300.9" cy="505.7" r="4.1"/>
		</g>
	</g>
	<g transform="translate(0,0)">
		<g>
			<circle cx="284.9" cy="509.5" r="4.1"/>
		</g>
	</g>
	<g transform="translate(0,0)">
		<g>
			<circle cx="292.9" cy="513.3" r="4.1"/>
		</g>
	</g>
	<g transform="translate(0,0)">
		<g>
			<ellipse transform="matrix(0.1602 -0.9871 0.9871 0.1602 -277.8809 707.4467)" cx="276.8" cy="517" rx="4.1" ry="4.1"/>
		</g>
	</g>
	<g transform="translate(0,0)">
		<g>
			<circle cx="268.8" cy="520.8" r="4.1"/>
		</g>
	</g>
	<g transform="translate(0,0)">
		<g>
			<circle cx="292.9" cy="524.5" r="4.1"/>
		</g>
	</g>
	<g transform="translate(0,0)">
		<g>
			<circle cx="292.9" cy="528.3" r="4.1"/>
		</g>
	</g>
	<g transform="translate(0,0)">
		<g>
			<circle cx="317" cy="532.1" r="4.1"/>
		</g>
	</g>
	<g transform="translate(0,0)">
		<g>
			<circle cx="284.9" cy="535.8" r="4.1"/>
		</g>
	</g>
	<g transform="translate(0,0)">
		<g>
			<circle cx="349.2" cy="539.6" r="4.1"/>
		</g>
	</g>
	<g transform="translate(0,0)">
		<g>
			<circle cx="284.9" cy="543.3" r="4.1"/>
		</g>
	</g>
	<g transform="translate(0,0)">
		<g>
			<circle cx="252.7" cy="547.1" r="4.1"/>
		</g>
	</g>
	<g transform="translate(0,0)">
		<g>
			<circle cx="252.7" cy="550.9" r="4.1"/>
		</g>
	</g>
	<g transform="translate(0,0)">
		<g>
			<circle cx="268.8" cy="554.6" r="4.1"/>
		</g>
	</g>
	<g transform="translate(0,0)">
		<g>
			<circle cx="252.7" cy="558.4" r="4.1"/>
		</g>
	</g>
	<g transform="translate(0,0)">
		<g>
			<circle cx="212.5" cy="562.1" r="4.1"/>
		</g>
	</g>
	<g transform="translate(0,0)">
		<g>
			<circle cx="284.9" cy="565.9" r="4.1"/>
		</g>
	</g>
	<g transform="translate(0,0)">
		<g>
			<circle cx="276.8" cy="569.7" r="4.1"/>
		</g>
	</g>
	<g transform="translate(0,0)">
		<g>
			<circle cx="276.8" cy="573.4" r="4.1"/>
		</g>
	</g>
	<g transform="translate(0,0)">
		<g>
			<circle cx="268.8" cy="577.2" r="4.1"/>
		</g>
	</g>
	<g transform="translate(0,0)">
		<g>
			<circle cx="252.7" cy="580.9" r="4.1"/>
		</g>
	</g>
	<g transform="translate(0,0)">
		<g>
			<circle cx="268.8" cy="584.7" r="4.1"/>
		</g>
	</g>
	<g transform="translate(0,0)">
		<g>
			<circle cx="284.9" cy="588.5" r="4.1"/>
		</g>
	</g>
	<g transform="translate(0,0)">
		<g>
			<circle cx="268.8" cy="592.2" r="4.1"/>
		</g>
	</g>
	<g transform="translate(0,0)">
		<g>
			<circle cx="309" cy="596" r="4.1"/>
		</g>
	</g>
	<g transform="translate(0,0)">
		<g>
			<circle cx="300.9" cy="599.7" r="4.1"/>
		</g>
	</g>
	<g transform="translate(0,0)">
		<g>
			<circle cx="284.9" cy="603.5" r="4.1"/>
		</g>
	</g>
	<g transform="translate(0,0)">
		<g>
			<circle cx="268.8" cy="607.3" r="4.1"/>
		</g>
	</g>
	<g transform="translate(0,0)">
		<g>
			<circle cx="244.7" cy="611" r="4.1"/>
		</g>
	</g>
	<g transform="translate(0,0)">
		<g>
			<circle cx="236.6" cy="614.8" r="4.1"/>
		</g>
	</g>
	<g transform="translate(0,0)">
		<g>
			<circle cx="268.8" cy="618.5" r="4.1"/>
		</g>
	</g>
	<g transform="translate(0,0)">
		<g>
			<circle cx="284.9" cy="622.3" r="4.1"/>
		</g>
	</g>
	<g transform="translate(0,0)">
		<g>
			<circle cx="300.9" cy="626.1" r="4.1"/>
		</g>
	</g>
	<g transform="translate(0,0)">
		<g>
			
				<ellipse transform="matrix(7.088901e-02 -0.9975 0.9975 7.088901e-02 -318.7539 917.4229)" cx="333.1" cy="629.8" rx="4.1" ry="4.1"/>
		</g>
	</g>
	<g transform="translate(0,0)">
		<g>
			<circle cx="309" cy="633.6" r="4.1"/>
		</g>
	</g>
	<g transform="translate(0,0)">
		<g>
			<circle cx="292.9" cy="637.3" r="4.1"/>
		</g>
	</g>
	<g transform="translate(0,0)">
		<g>
			<circle cx="276.8" cy="641.1" r="4.1"/>
		</g>
	</g>
	<g transform="translate(0,0)">
		<g>
			<circle cx="276.8" cy="644.9" r="4.1"/>
		</g>
	</g>
	<g transform="translate(0,0)">
		<g>
			<circle cx="309" cy="648.6" r="4.1"/>
		</g>
	</g>
	<g transform="translate(0,0)">
		<g>
			<circle cx="333.1" cy="652.4" r="4.1"/>
		</g>
	</g>
	<g transform="translate(0,0)">
		<g>
			<circle cx="325.1" cy="656.1" r="4.1"/>
		</g>
	</g>
	<g transform="translate(0,0)">
		<g>
			<circle cx="309" cy="659.9" r="4.1"/>
		</g>
	</g>
	<g transform="translate(0,0)">
		<g>
			<circle cx="244.7" cy="663.7" r="4.1"/>
		</g>
	</g>
	<g transform="translate(0,0)">
		<g>
			<circle cx="276.8" cy="667.4" r="4.1"/>
		</g>
	</g>
	<g transform="translate(0,0)">
		<g>
			<circle cx="325.1" cy="671.2" r="4.1"/>
		</g>
	</g>
	<g transform="translate(0,0)">
		<g>
			<circle cx="317" cy="674.9" r="4.1"/>
		</g>
	</g>
	<g transform="translate(0,0)">
		<g>
			<circle cx="325.1" cy="678.7" r="4.1"/>
		</g>
	</g>
	<g transform="translate(0,0)">
		<g>
			<circle cx="333.1" cy="682.5" r="4.1"/>
		</g>
	</g>
	<g transform="translate(0,0)">
		<g>
			<circle cx="300.9" cy="686.2" r="4.1"/>
		</g>
	</g>
	<g transform="translate(0,0)">
		<g>
			<circle cx="276.8" cy="690" r="4.1"/>
		</g>
	</g>
	<g transform="translate(0,0)">
		<g>
			<circle cx="485.9" cy="693.7" r="4.1"/>
		</g>
	</g>
	<g transform="translate(0,0)">
		<g>
			<circle cx="510" cy="697.5" r="4.1"/>
		</g>
	</g>
	<g transform="translate(0,0)">
		<g>
			<circle cx="405.5" cy="701.2" r="4.1"/>
		</g>
	</g>
	<g transform="translate(0,0)">
		<g>
			<circle cx="341.1" cy="705" r="4.1"/>
		</g>
	</g>
	<g transform="translate(0,0)">
		<g>
			<circle cx="325.1" cy="708.8" r="4.1"/>
		</g>
	</g>
	<g transform="translate(0,0)">
		<g>
			<circle cx="268.8" cy="712.5" r="4.1"/>
		</g>
	</g>
	<g transform="translate(0,0)">
		<g>
			<circle cx="284.9" cy="716.3" r="4.1"/>
		</g>
	</g>
	<g transform="translate(0,0)">
		<g>
			<circle cx="276.8" cy="720" r="4.1"/>
		</g>
	</g>
	<g transform="translate(0,0)">
		<g>
			<ellipse transform="matrix(4.065088e-03 -1 1 4.065088e-03 -471.6491 989.0832)" cx="260.7" cy="731.3" rx="4.1" ry="4.1"/>
		</g>
	</g>
	<g transform="translate(0,0)">
		<g>
			<circle cx="292.9" cy="735.1" r="4.1"/>
		</g>
	</g>
	<g transform="translate(0,0)">
		<g>
			<circle cx="325.1" cy="738.8" r="4.1"/>
		</g>
	</g>
	<g transform="translate(0,0)">
		<g>
			<circle cx="341.1" cy="742.6" r="4.1"/>
		</g>
	</g>
	<g transform="translate(0,0)">
		<g>
			<ellipse transform="matrix(1 -4.132072e-03 4.132072e-03 1 -3.0814 1.2831)" cx="309" cy="746.4" rx="4.1" ry="4.1"/>
		</g>
	</g>
	<g transform="translate(0,0)">
		<g>
			<circle cx="268.8" cy="750.1" r="4.1"/>
		</g>
	</g>
	<g transform="translate(0,0)">
		<g>
			<circle cx="292.9" cy="753.9" r="4.1"/>
		</g>
	</g>
	<g transform="translate(0,0)">
		<g>
			<circle cx="309" cy="757.6" r="4.1"/>
		</g>
	</g>
	<g transform="translate(0,0)">
		<g>
			<circle cx="357.2" cy="761.4" r="4.1"/>
		</g>
	</g>
	<g transform="translate(0,0)">
		<g>
			<circle cx="260.7" cy="765.2" r="4.1"/>
		</g>
	</g>
	<g transform="translate(0,0)">
		<g>
			<circle cx="284.9" cy="768.9" r="4.1"/>
		</g>
	</g>
	<g transform="translate(0,0)">
		<g>
			<circle cx="300.9" cy="772.7" r="4.1"/>
		</g>
	</g>
	<g transform="translate(0,0)">
		<g>
			<circle cx="300.9" cy="776.4" r="4.1"/>
		</g>
	</g>
	<g transform="translate(0,0)">
		<g>
			<circle cx="300.9" cy="780.2" r="4.1"/>
		</g>
	</g>
	<g transform="translate(0,0)">
		<g>
			<circle cx="276.8" cy="784" r="4.1"/>
		</g>
	</g>
	<g transform="translate(0,0)">
		<g>
			<circle cx="276.8" cy="787.7" r="4.1"/>
		</g>
	</g>
	<g transform="translate(0,0)">
		<g>
			<circle cx="309" cy="791.5" r="4.1"/>
		</g>
	</g>
	<g transform="translate(0,0)">
		<g>
			<circle cx="325.1" cy="795.2" r="4.1"/>
		</g>
	</g>
	<g transform="translate(0,0)">
		<g>
			<circle cx="284.9" cy="799" r="4.1"/>
		</g>
	</g>
	<g transform="translate(0,0)">
		<g>
			<circle cx="317" cy="802.8" r="4.1"/>
		</g>
	</g>
	<g transform="translate(0,0)">
		<g>
			<circle cx="341.1" cy="806.5" r="4.1"/>
		</g>
	</g>
	<g transform="translate(0,0)">
		<g>
			<circle cx="365.3" cy="810.3" r="4.1"/>
		</g>
	</g>
	<g transform="translate(0,0)">
		<g>
			<circle cx="365.3" cy="814" r="4.1"/>
		</g>
	</g>
	<g transform="translate(0,0)">
		<g>
			<circle cx="357.2" cy="817.8" r="4.1"/>
		</g>
	</g>
	<g transform="translate(0,0)">
		<g>
			<circle cx="333.1" cy="821.6" r="4.1"/>
		</g>
	</g>
	<g transform="translate(0,0)">
		<g>
			<circle cx="309" cy="825.3" r="4.1"/>
		</g>
	</g>
	<g transform="translate(0,0)">
		<g>
			<circle cx="429.6" cy="829.1" r="4.1"/>
		</g>
	</g>
	<g transform="translate(0,0)">
		<g>
			<circle cx="389.4" cy="832.8" r="4.1"/>
		</g>
	</g>
	<g transform="translate(0,0)">
		<g>
			<circle cx="397.4" cy="836.6" r="4.1"/>
		</g>
	</g>
	<g transform="translate(0,0)">
		<g>
			<circle cx="397.4" cy="840.4" r="4.1"/>
		</g>
	</g>
	<g transform="translate(0,0)">
		<g>
			<circle cx="341.1" cy="844.1" r="4.1"/>
		</g>
	</g>
	<g transform="translate(0,0)">
		<g>
			
				<ellipse transform="matrix(0.9951 -9.853771e-02 9.853771e-02 0.9951 -81.9266 36.9484)" cx="333.1" cy="847.9" rx="4.1" ry="4.1"/>
		</g>
	</g>
	<g transform="translate(0,0)">
		<g>
			<circle cx="325.1" cy="851.6" r="4.1"/>
		</g>
	</g>
	<g transform="translate(0,0)">
		<g>
			<circle cx="317" cy="855.4" r="4.1"/>
		</g>
	</g>
	<g transform="translate(0,0)">
		<g>
			<circle cx="300.9" cy="859.2" r="4.1"/>
		</g>
	</g>
	<g transform="translate(0,0)">
		<g>
			<circle cx="333.1" cy="862.9" r="4.1"/>
		</g>
	</g>
	<g transform="translate(0,0)">
		<g>
			<circle cx="292.9" cy="866.7" r="4.1"/>
		</g>
	</g>
	<g transform="translate(0,0)">
		<g>
			<circle cx="268.8" cy="870.4" r="4.1"/>
		</g>
	</g>
	<g transform="translate(0,0)">
		<g>
			<circle cx="260.7" cy="874.2" r="4.1"/>
		</g>
	</g>
	<g transform="translate(0,0)">
		<g>
			<circle cx="260.7" cy="878" r="4.1"/>
		</g>
	</g>
	<g transform="translate(0,0)">
		<g>
			<circle cx="309" cy="881.7" r="4.1"/>
		</g>
	</g>
	<g transform="translate(0,0)">
		<g>
			<circle cx="325.1" cy="885.5" r="4.1"/>
		</g>
	</g>
	<g transform="translate(0,0)">
		<g>
			<circle cx="397.4" cy="889.2" r="4.1"/>
		</g>
	</g>
	<g transform="translate(0,0)">
		<g>
			<circle cx="365.3" cy="893" r="4.1"/>
		</g>
	</g>
	<g transform="translate(0,0)">
		<g>
			<circle cx="365.3" cy="896.8" r="4.1"/>
		</g>
	</g>
	<g transform="translate(0,0)">
		<g>
			<circle cx="341.1" cy="900.5" r="4.1"/>
		</g>
	</g>
	<g transform="translate(0,0)">
		<g>
			<circle cx="365.3" cy="904.3" r="4.1"/>
		</g>
	</g>
	<g transform="translate(0,0)">
		<g>
			<circle cx="501.9" cy="908" r="4.1"/>
		</g>
	</g>
	<g transform="translate(0,0)">
		<g>
			<circle cx="292.9" cy="911.8" r="4.1"/>
		</g>
	</g>
	<g transform="translate(0,0)">
		<g>
			<circle cx="292.9" cy="915.5" r="4.1"/>
		</g>
	</g>
	<g transform="translate(0,0)">
		<g>
			<circle cx="284.9" cy="919.3" r="4.1"/>
		</g>
	</g>
	<g transform="translate(0,0)">
		<g>
			<circle cx="300.9" cy="923.1" r="4.1"/>
		</g>
	</g>
	<g transform="translate(0,0)">
		<g>
			<circle cx="292.9" cy="926.8" r="4.1"/>
		</g>
	</g>
	<g transform="translate(0,0)">
		<g>
			<circle cx="300.9" cy="930.6" r="4.1"/>
		</g>
	</g>
	<g transform="translate(0,0)">
		<g>
			<circle cx="300.9" cy="934.3" r="4.1"/>
		</g>
	</g>
	<g transform="translate(0,0)">
		<g>
			<circle cx="268.8" cy="938.1" r="4.1"/>
		</g>
	</g>
	<g transform="translate(0,0)">
		<g>
			<circle cx="260.7" cy="941.9" r="4.1"/>
		</g>
	</g>
	<g transform="translate(0,0)">
		<g>
			<circle cx="260.7" cy="945.6" r="4.1"/>
		</g>
	</g>
	<g transform="translate(0,0)">
		<g>
			<circle cx="268.8" cy="949.4" r="4.1"/>
		</g>
	</g>
	<g transform="translate(0,0)">
		<g>
			<circle cx="228.6" cy="953.1" r="4.1"/>
		</g>
	</g>
	<g transform="translate(0,0)">
		<g>
			<circle cx="212.5" cy="956.9" r="4.1"/>
		</g>
	</g>
	<g transform="translate(0,0)">
		<g>
			<circle cx="284.9" cy="960.7" r="4.1"/>
		</g>
	</g>
	<g transform="translate(0,0)">
		<g>
			<circle cx="292.9" cy="964.4" r="4.1"/>
		</g>
	</g>
	<g transform="translate(0,0)">
		<g>
			<circle cx="309" cy="968.2" r="4.1"/>
		</g>
	</g>
	<g transform="translate(0,0)">
		<g>
			<circle cx="309" cy="971.9" r="4.1"/>
		</g>
	</g>
	<g transform="translate(0,0)">
		<g>
			<circle cx="292.9" cy="975.7" r="4.1"/>
		</g>
	</g>
	<g transform="translate(0,0)">
		<g>
			<circle cx="276.8" cy="979.5" r="4.1"/>
		</g>
	</g>
	<g transform="translate(0,0)">
		<g>
			<circle cx="276.8" cy="983.2" r="4.1"/>
		</g>
	</g>
	<g transform="translate(0,0)">
		<g>
			<circle cx="333.1" cy="987" r="4.1"/>
		</g>
	</g>
	<g transform="translate(0,0)">
		<g>
			<circle cx="365.3" cy="990.7" r="4.1"/>
		</g>
	</g>
	<g transform="translate(0,0)">
		<g>
			<circle cx="437.6" cy="994.5" r="4.1"/>
		</g>
	</g>
	<g transform="translate(0,0)">
		<g>
			<circle cx="365.3" cy="998.3" r="4.1"/>
		</g>
	</g>
	<g transform="translate(0,0)">
		<g>
			<circle cx="381.3" cy="1002" r="4.1"/>
		</g>
	</g>
	<g transform="translate(0,0)">
		<g>
			<circle cx="381.3" cy="1005.8" r="4.1"/>
		</g>
	</g>
	<g transform="translate(0,0)">
		<g>
			<circle cx="365.3" cy="1009.5" r="4.1"/>
		</g>
	</g>
	<g transform="translate(0,0)">
		<g>
			<circle cx="373.3" cy="1013.3" r="4.1"/>
		</g>
	</g>
	<g transform="translate(0,0)">
		<g>
			<circle cx="397.4" cy="1017.1" r="4.1"/>
		</g>
	</g>
	<g transform="translate(0,0)">
		<g>
			<circle cx="373.3" cy="1020.8" r="4.1"/>
		</g>
	</g>
	<g transform="translate(0,0)">
		<g>
			<circle cx="365.3" cy="1024.6" r="4.1"/>
		</g>
	</g>
	<g transform="translate(0,0)">
		<g>
			<circle cx="349.2" cy="1028.3" r="4.1"/>
		</g>
	</g>
	<g transform="translate(0,0)">
		<g>
			<circle cx="309" cy="1032.1" r="4.1"/>
		</g>
	</g>
	<g transform="translate(0,0)">
		<g>
			<circle cx="228.6" cy="1035.9" r="4.1"/>
		</g>
	</g>
	<g transform="translate(0,0)">
		<g>
			<circle cx="276.8" cy="1039.6" r="4.1"/>
		</g>
	</g>
	<g transform="translate(0,0)">
		<g>
			<circle cx="300.9" cy="1043.4" r="4.1"/>
		</g>
	</g>
	<g transform="translate(0,0)">
		<g>
			<circle cx="292.9" cy="1047.1" r="4.1"/>
		</g>
	</g>
	<g transform="translate(0,0)">
		<g>
			<circle cx="292.9" cy="1050.9" r="4.1"/>
		</g>
	</g>
	<g transform="translate(0,0)">
		<g>
			<circle cx="309" cy="1054.7" r="4.1"/>
		</g>
	</g>
	<g transform="translate(0,0)">
		<g>
			<circle cx="333.1" cy="1058.4" r="4.1"/>
		</g>
	</g>
	<g transform="translate(0,0)">
		<g>
			<circle cx="317" cy="1062.2" r="4.1"/>
		</g>
	</g>
	<g transform="translate(0,0)">
		<g>
			<circle cx="413.5" cy="1065.9" r="4.1"/>
		</g>
	</g>
	<g transform="translate(0,0)">
		<g>
			<circle cx="437.6" cy="1069.7" r="4.1"/>
		</g>
	</g>
	<g transform="translate(0,0)">
		<g>
			<circle cx="485.9" cy="1073.5" r="4.1"/>
		</g>
	</g>
	<g transform="translate(0,0)">
		<g>
			<circle cx="349.2" cy="1077.2" r="4.1"/>
		</g>
	</g>
	<g transform="translate(0,0)">
		<g>
			<circle cx="284.9" cy="1081" r="4.1"/>
		</g>
	</g>
	<g transform="translate(0,0)">
		<g>
			<circle cx="292.9" cy="1084.7" r="4.1"/>
		</g>
	</g>
	<g transform="translate(0,0)">
		<g>
			<circle cx="309" cy="1088.5" r="4.1"/>
		</g>
	</g>
	<g transform="translate(0,0)">
		<g>
			<circle cx="300.9" cy="1092.3" r="4.1"/>
		</g>
	</g>
	<g transform="translate(0,0)">
		<g>
			<circle cx="252.7" cy="1096" r="4.1"/>
		</g>
	</g>
	<g transform="translate(0,0)">
		<g>
			<circle cx="268.8" cy="1099.8" r="4.1"/>
		</g>
	</g>
	<g transform="translate(0,0)">
		<g>
			<circle cx="260.7" cy="1103.5" r="4.1"/>
		</g>
	</g>
	<g transform="translate(0,0)">
		<g>
			<circle cx="357.2" cy="1107.3" r="4.1"/>
		</g>
	</g>
	<g transform="translate(0,0)">
		<g>
			<circle cx="381.3" cy="1111" r="4.1"/>
		</g>
	</g>
	<g transform="translate(0,0)">
		<g>
			<circle cx="349.2" cy="1114.8" r="4.1"/>
		</g>
	</g>
	<g transform="translate(0,0)">
		<g>
			<circle cx="357.2" cy="1118.6" r="4.1"/>
		</g>
	</g>
	<g transform="translate(0,0)">
		<g>
			<circle cx="284.9" cy="1122.3" r="4.1"/>
		</g>
	</g>
	<g transform="translate(0,0)">
		<g>
			<circle cx="309" cy="1126.1" r="4.1"/>
		</g>
	</g>
	<g transform="translate(0,0)">
		<g>
			<circle cx="276.8" cy="1129.8" r="4.1"/>
		</g>
	</g>
	<g transform="translate(0,0)">
		<g>
			<circle cx="325.1" cy="1133.6" r="4.1"/>
		</g>
	</g>
	<g transform="translate(0,0)">
		<g>
			<circle cx="397.4" cy="1137.4" r="4.1"/>
		</g>
	</g>
	<g transform="translate(0,0)">
		<g>
			<circle cx="325.1" cy="1141.1" r="4.1"/>
		</g>
	</g>
	<g transform="translate(0,0)">
		<g>
			<circle cx="317" cy="1144.9" r="4.1"/>
		</g>
	</g>
	<g transform="translate(0,0)">
		<g>
			<circle cx="373.3" cy="1148.6" r="4.1"/>
		</g>
	</g>
	<g transform="translate(0,0)">
		<g>
			<circle cx="317" cy="1152.4" r="4.1"/>
		</g>
	</g>
	<g transform="translate(0,0)">
		<g>
			<circle cx="373.3" cy="1156.2" r="4.1"/>
		</g>
	</g>
	<g transform="translate(0,0)">
		<g>
			<circle cx="309" cy="1167.4" r="4.1"/>
		</g>
	</g>
	<g transform="translate(0,0)">
		<g>
			<circle cx="333.1" cy="1171.2" r="4.1"/>
		</g>
	</g>
	<g transform="translate(0,0)">
		<g>
			<ellipse transform="matrix(0.3827 -0.9239 0.9239 0.3827 -815.3794 1129.6226)" cx="437.6" cy="1175" rx="4.1" ry="4.1"/>
		</g>
	</g>
	<g transform="translate(0,0)">
		<g>
			<circle cx="437.6" cy="1178.7" r="4.1"/>
		</g>
	</g>
	<g transform="translate(0,0)">
		<g>
			<circle cx="397.4" cy="1182.5" r="4.1"/>
		</g>
	</g>
	<g transform="translate(0,0)">
		<g>
			<circle cx="501.9" cy="1186.2" r="4.1"/>
		</g>
	</g>
	<g transform="translate(0,0)">
		<g>
			<circle cx="485.9" cy="1197.5" r="4.1"/>
		</g>
	</g>
	<g transform="translate(0,0)">
		<g>
			<circle cx="268.8" cy="1201.3" r="4.1"/>
		</g>
	</g>
	<g transform="translate(0,0)">
		<g>
			<circle cx="276.8" cy="1205" r="4.1"/>
		</g>
	</g>
	<g transform="translate(0,0)">
		<g>
			<circle cx="260.7" cy="1208.8" r="4.1"/>
		</g>
	</g>
	<g transform="translate(0,0)">
		<g>
			<circle cx="397.4" cy="1212.6" r="4.1"/>
		</g>
	</g>
	<g transform="translate(0,0)">
		<g>
			<circle cx="381.3" cy="1216.3" r="4.1"/>
		</g>
	</g>
	<g transform="translate(0,0)">
		<g>
			<circle cx="357.2" cy="1220.1" r="4.1"/>
		</g>
	</g>
	<g transform="translate(0,0)">
		<g>
			<circle cx="333.1" cy="1223.8" r="4.1"/>
		</g>
	</g>
	<g transform="translate(0,0)">
		<g>
			<circle cx="373.3" cy="1227.6" r="4.1"/>
		</g>
	</g>
	<g transform="translate(0,0)">
		<g>
			<circle cx="445.7" cy="1231.4" r="4.1"/>
		</g>
	</g>
	<g transform="translate(0,0)">
		<g>
			<circle cx="461.7" cy="1235.1" r="4.1"/>
		</g>
	</g>
	<g transform="translate(0,0)">
		<g>
			<circle cx="413.5" cy="1238.9" r="4.1"/>
		</g>
	</g>
	<g transform="translate(0,0)">
		<g>
			<circle cx="510" cy="1242.6" r="4.1"/>
		</g>
	</g>
	<g transform="translate(0,0)">
		<g>
			<circle cx="300.9" cy="1246.4" r="4.1"/>
		</g>
	</g>
	<g transform="translate(0,0)">
		<g>
			<circle cx="317" cy="1250.2" r="4.1"/>
		</g>
	</g>
	<g transform="translate(0,0)">
		<g>
			<circle cx="453.7" cy="1253.9" r="4.1"/>
		</g>
	</g>
	<g transform="translate(0,0)">
		<g>
			<circle cx="542.1" cy="1257.7" r="4.1"/>
		</g>
	</g>
	<g transform="translate(0,0)">
		<g>
			<circle cx="501.9" cy="1265.2" r="4.1"/>
		</g>
	</g>
	<g transform="translate(0,0)">
		<g>
			<circle cx="437.6" cy="1269" r="4.1"/>
		</g>
	</g>
	<g transform="translate(0,0)">
		<g>
			<circle cx="300.9" cy="1272.7" r="4.1"/>
		</g>
	</g>
	<g transform="translate(0,0)">
		<g>
			<circle cx="260.7" cy="1276.5" r="4.1"/>
		</g>
	</g>
	<g transform="translate(0,0)">
		<g>
			<circle cx="325.1" cy="1280.2" r="4.1"/>
		</g>
	</g>
	<g transform="translate(0,0)">
		<g>
			<circle cx="325.1" cy="1284" r="4.1"/>
		</g>
	</g>
	<g transform="translate(0,0)">
		<g>
			<circle cx="341.1" cy="1287.8" r="4.1"/>
		</g>
	</g>
	<g transform="translate(0,0)">
		<g>
			<circle cx="292.9" cy="1291.5" r="4.1"/>
		</g>
	</g>
	<g transform="translate(0,0)">
		<g>
			<circle cx="212.5" cy="1295.3" r="4.1"/>
		</g>
	</g>
	<g transform="translate(0,0)">
		<g>
			<circle cx="196.4" cy="1299" r="4.1"/>
		</g>
	</g>
	<g transform="translate(0,0)">
		<g>
			<circle cx="300.9" cy="1302.8" r="4.1"/>
		</g>
	</g>
	<g transform="translate(0,0)">
		<g>
			<circle cx="309" cy="1306.5" r="4.1"/>
		</g>
	</g>
	<g transform="translate(0,0)">
		<g>
			<circle cx="429.6" cy="1310.3" r="4.1"/>
		</g>
	</g>
	<g transform="translate(0,0)">
		<g>
			<circle cx="437.6" cy="1314.1" r="4.1"/>
		</g>
	</g>
	<g transform="translate(0,0)">
		<g>
			<circle cx="333.1" cy="1317.8" r="4.1"/>
		</g>
	</g>
	<g transform="translate(0,0)">
		<g>
			<circle cx="373.3" cy="1321.6" r="4.1"/>
		</g>
	</g>
	<g transform="translate(0,0)">
		<g>
			<circle cx="461.7" cy="1325.3" r="4.1"/>
		</g>
	</g>
	<g transform="translate(0,0)">
		<g>
			<circle cx="477.8" cy="1329.1" r="4.1"/>
		</g>
	</g>
	<g transform="translate(0,0)">
		<g>
			<circle cx="389.4" cy="1332.9" r="4.1"/>
		</g>
	</g>
	<g transform="translate(0,0)">
		<g>
			<circle cx="389.4" cy="1336.6" r="4.1"/>
		</g>
	</g>
	<g transform="translate(0,0)">
		<g>
			<circle cx="292.9" cy="1340.4" r="4.1"/>
		</g>
	</g>
	<g transform="translate(0,0)">
		<g>
			<circle cx="373.3" cy="1344.1" r="4.1"/>
		</g>
	</g>
	<g transform="translate(0,0)">
		<g>
			<circle cx="373.3" cy="1347.9" r="4.1"/>
		</g>
	</g>
	<g transform="translate(0,0)">
		<g>
			<circle cx="317" cy="1351.7" r="4.1"/>
		</g>
	</g>
	<g transform="translate(0,0)">
		<g>
			<circle cx="397.4" cy="1355.4" r="4.1"/>
		</g>
	</g>
	<g transform="translate(0,0)">
		<g>
			<circle cx="477.8" cy="1359.2" r="4.1"/>
		</g>
	</g>
	<g transform="translate(0,0)">
		<g>
			<circle cx="558.2" cy="1370.5" r="4.1"/>
		</g>
	</g>
	<g transform="translate(0,0)">
		<g>
			<circle cx="526" cy="1374.2" r="4.1"/>
		</g>
	</g>
	<g transform="translate(0,0)">
		<g>
			<circle cx="437.6" cy="1378" r="4.1"/>
		</g>
	</g>
	<g transform="translate(0,0)">
		<g>
			<circle cx="501.9" cy="1381.7" r="4.1"/>
		</g>
	</g>
	<g transform="translate(0,0)">
		<g>
			<circle cx="510" cy="1393" r="4.1"/>
		</g>
	</g>
	<g transform="translate(0,0)">
		<g>
			<circle cx="558.2" cy="1396.8" r="4.1"/>
		</g>
	</g>
	<g transform="translate(0,0)">
		<g>
			<circle class="st4" cx="614.5" cy="257.6" r="4.1"/>
		</g>
	</g>
	<g transform="translate(0,0)">
		<g>
			<circle class="st4" cx="582.3" cy="54.6" r="4.1"/>
		</g>
	</g>
	<g transform="translate(0,0)">
		<g>
			<circle class="st4" cx="638.6" cy="103.5" r="4.1"/>
		</g>
	</g>
	<g transform="translate(0,0)">
		<g>
			<circle class="st4" cx="566.2" cy="107.2" r="4.1"/>
		</g>
	</g>
	<g transform="translate(0,0)">
		<g>
			<circle class="st4" cx="791.4" cy="118.5" r="4.1"/>
		</g>
	</g>
	<g transform="translate(0,0)">
		<g>
			<circle class="st4" cx="831.6" cy="122.3" r="4.1"/>
		</g>
	</g>
	<g transform="translate(0,0)">
		<g>
			<circle class="st4" cx="903.9" cy="126" r="4.1"/>
		</g>
	</g>
	<g transform="translate(0,0)">
		<g>
			<circle class="st4" cx="711" cy="133.5" r="4.1"/>
		</g>
	</g>
	<g transform="translate(0,0)">
		<g>
			<circle class="st4" cx="654.7" cy="159.9" r="4.1"/>
		</g>
	</g>
	<g transform="translate(0,0)">
		<g>
			<circle class="st4" cx="574.3" cy="174.9" r="4.1"/>
		</g>
	</g>
	<g transform="translate(0,0)">
		<g>
			<circle class="st4" cx="727" cy="178.7" r="4.1"/>
		</g>
	</g>
	<g transform="translate(0,0)">
		<g>
			<circle class="st4" cx="566.2" cy="186.2" r="4.1"/>
		</g>
	</g>
	<g transform="translate(0,0)">
		<g>
			<circle class="st4" cx="630.6" cy="231.3" r="4.1"/>
		</g>
	</g>
	<g transform="translate(0,0)">
		<g>
			<circle class="st4" cx="751.2" cy="235.1" r="4.1"/>
		</g>
	</g>
	<g transform="translate(0,0)">
		<g>
			<circle class="st4" cx="751.2" cy="238.8" r="4.1"/>
		</g>
	</g>
	<g transform="translate(0,0)">
		<g>
			<circle class="st4" cx="694.9" cy="242.6" r="4.1"/>
		</g>
	</g>
	<g transform="translate(0,0)">
		<g>
			<circle class="st4" cx="711" cy="253.9" r="4.1"/>
		</g>
	</g>
	<g transform="translate(0,0)">
		<g>
			<circle class="st4" cx="719" cy="261.4" r="4.1"/>
		</g>
	</g>
	<g transform="translate(0,0)">
		<g>
			<circle class="st4" cx="735.1" cy="265.1" r="4.1"/>
		</g>
	</g>
	<g transform="translate(0,0)">
		<g>
			<circle class="st4" cx="606.4" cy="268.9" r="4.1"/>
		</g>
	</g>
	<g transform="translate(0,0)">
		<g>
			<circle class="st4" cx="590.4" cy="317.8" r="4.1"/>
		</g>
	</g>
	<g transform="translate(0,0)">
		<g>
			<circle class="st4" cx="743.1" cy="1159.9" r="4.1"/>
		</g>
	</g>
	<g transform="translate(0,0)">
		<g>
			<circle class="st4" cx="606.4" cy="1163.7" r="4.1"/>
		</g>
	</g>
	<g transform="translate(0,0)">
		<g>
			<circle class="st4" cx="622.5" cy="1190" r="4.1"/>
		</g>
	</g>
	<g transform="translate(0,0)">
		<g>
			<circle class="st4" cx="775.3" cy="1193.8" r="4.1"/>
		</g>
	</g>
	<g transform="translate(0,0)">
		<g>
			<circle class="st4" cx="590.4" cy="1261.4" r="4.1"/>
		</g>
	</g>
	<g transform="translate(0,0)">
		<g>
			<circle class="st4" cx="630.6" cy="1362.9" r="4.1"/>
		</g>
	</g>
	<g transform="translate(0,0)">
		<g>
			<circle class="st4" cx="775.3" cy="1366.7" r="4.1"/>
		</g>
	</g>
	<g transform="translate(0,0)">
		<g>
			<circle class="st4" cx="606.4" cy="1385.5" r="4.1"/>
		</g>
	</g>
	<g transform="translate(0,0)">
		<g>
			<circle class="st4" cx="566.2" cy="1389.3" r="4.1"/>
		</g>
	</g>
	<g transform="translate(0,0)">
		<g>
			<circle class="st4" cx="654.7" cy="1400.5" r="4.1"/>
		</g>
	</g>
	<g transform="translate(0,0)">
		<g>
			<circle cx="413.5" cy="1404.3" r="4.1"/>
		</g>
	</g>
	<g transform="translate(0,0)">
		<g>
			<circle cx="477.8" cy="1408.1" r="4.1"/>
		</g>
	</g>
	<g transform="translate(0,0)">
		<g>
			<circle cx="429.6" cy="1411.8" r="4.1"/>
		</g>
	</g>
	<g transform="translate(0,0)">
		<g>
			<circle cx="453.7" cy="1415.6" r="4.1"/>
		</g>
	</g>
	<g transform="translate(0,0)">
		<g>
			<circle cx="429.6" cy="1419.3" r="4.1"/>
		</g>
	</g>
	<g transform="translate(0,0)">
		<g>
			<circle cx="453.7" cy="1423.1" r="4.1"/>
		</g>
	</g>
	<g>
		<circle class="st4" cx="968.9" cy="795.7" r="23.1"/>
		<line class="st5" x1="968.9" y1="779.6" x2="968.9" y2="811.8"/>
		<line class="st5" x1="985" y1="795.7" x2="952.8" y2="795.7"/>
	</g>
</g>
<g>
	<rect x="161.3" y="1578.8" class="st6" width="663.9" height="194.6"/>
	<text transform="matrix(1 0 0 1 161.2578 1619.517)"><tspan x="0" y="0" class="st4 st7 st8">PM10&gt;50ug/m3</tspan><tspan x="0" y="68.4" class="st7 st8">PM10&lt;50ug/m3</tspan><tspan x="0.1" y="136.8" class="st9 st7 st8">riscaldamenti</tspan></text>
	<circle class="st4" cx="104.3" cy="1601.2" r="20"/>
	<circle cx="104.3" cy="1666.2" r="20"/>
	<rect x="86.8" y="1719.7" class="st0" width="35" height="35"/>
</g>
</svg>
