<svg xmlns="http://www.w3.org/2000/svg" viewBox="0 0 1174.99 900"><defs><style>.cls-1{isolation:isolate;}.cls-2{fill:#b8b8b8;}.cls-3{fill:#efefef;}.cls-4{fill:#ff3a00;}.cls-5{fill:#a8f9ff;}.cls-6{opacity:0.3;}</style></defs><g id="base"><g class="cls-1"><path d="M206.4,773.62h6.79v1.19h-5.42v3.69h4.29v1.19h-4.29v4.17H206.4Z"/><path d="M215,773.62h6.9v1.19h-5.54v3.24h4.41v1.19h-4.41v3.43H222v1.19h-7Z"/><path d="M224,773.62h4.23c2.22,0,3.27,1,3.27,2.68a2.16,2.16,0,0,1-1.61,2.14v.06a2.31,2.31,0,0,1,2,2.32c0,1.74-1.18,3-3.39,3H224Zm1.37,1.19V778h2.86a1.67,1.67,0,0,0,1.9-1.68c0-.89-.53-1.47-1.9-1.47Zm0,4.34v3.52h3.16a1.77,1.77,0,0,0,2-1.83c0-1-.66-1.69-2-1.69Z"/></g><g class="cls-1"><path d="M131.84,782.37h-.05a3.61,3.61,0,0,1-3.34,1.66,5.3,5.3,0,0,1,.05-10.59,4.29,4.29,0,0,1,4.47,3.22h-1.43a2.91,2.91,0,0,0-3-2c-2.21,0-3.63,1.73-3.63,4s1.48,4,3.58,4c1.71,0,3.27-1,3.27-2.85v-.3H128.5v-1.19H133v5.42h-.9Z"/><path d="M135.41,773.62h6.9v1.19h-5.53v3.24h4.4v1.19h-4.4v3.43h5.65v1.19h-7Z"/><path d="M144.52,773.62h1.31l5.65,7.91h.06l-.06-7.91h1.37v10.24h-1.31L145.89,776h-.06l.06,7.86h-1.37Z"/></g><g class="cls-1"><path d="M284.21,773.62h1.67l3.76,8.39h0l3.71-8.39H295v10.24h-1.36l.12-8.1h-.06l-3.58,8.1h-1.07l-3.57-7.92h-.06l.12,7.92h-1.37Z"/><path d="M300.34,773.62H302l3.81,10.24h-1.43l-1-2.68h-4.49l-1,2.68h-1.36Zm.75,1.43L299.3,780h3.63l-1.78-4.94Z"/><path d="M307.25,773.62h3.87c2.33,0,3.57,1.12,3.57,3a3,3,0,0,1-2.25,3.05l2.6,4.15h-1.48l-2.55-4h-2.39v4h-1.37Zm1.37,1.19v3.87h2.56a1.93,1.93,0,0,0,2.14-2c0-1.13-.77-1.85-2.14-1.85Z"/></g><g class="cls-1"><path d="M372,773.62h1.61l3.8,10.24H376l-1-2.68h-4.49l-1,2.68H368.2Zm.74,1.43L371,780h3.63l-1.79-4.94Z"/><path d="M378.91,773.62h3.87c2.34,0,3.63,1.35,3.63,3.27a3.3,3.3,0,0,1-3.63,3.4h-2.5v3.57h-1.37Zm1.37,1.19v4.29h2.56a2.06,2.06,0,0,0,2.2-2.21,2,2,0,0,0-2.2-2.08Z"/><path d="M388.38,773.62h3.87c2.33,0,3.57,1.12,3.57,3a3,3,0,0,1-2.25,3.05l2.6,4.15h-1.48l-2.55-4h-2.39v4h-1.37Zm1.37,1.19v3.87h2.56a1.94,1.94,0,0,0,2.14-2c0-1.13-.78-1.85-2.14-1.85Z"/></g><g class="cls-1"><path d="M449.81,773.62h1.66l3.77,8.39h0l3.7-8.39h1.67v10.24h-1.37l.12-8.1h-.06l-3.57,8.1h-1.07l-3.57-7.92h-.06l.12,7.92h-1.37Z"/><path d="M465.94,773.62h1.6l3.81,10.24h-1.43l-1-2.68h-4.5l-1,2.68h-1.37Zm.74,1.43L464.9,780h3.63l-1.79-4.94Z"/><path d="M480.28,782.37h0a3.62,3.62,0,0,1-3.35,1.66,5.3,5.3,0,0,1,.06-10.59,4.28,4.28,0,0,1,4.46,3.22H480a2.91,2.91,0,0,0-3-2c-2.22,0-3.63,1.73-3.63,4s1.47,4,3.57,4c1.71,0,3.27-1,3.27-2.85v-.3H477v-1.19h4.46v5.42h-.89Z"/></g><g class="cls-1"><path d="M544.86,782.37h0a3.62,3.62,0,0,1-3.35,1.66,5.3,5.3,0,0,1,.06-10.59,4.28,4.28,0,0,1,4.46,3.22h-1.42a2.92,2.92,0,0,0-3-2c-2.22,0-3.63,1.73-3.63,4s1.47,4,3.57,4c1.71,0,3.27-1,3.27-2.85v-.3h-3.21v-1.19H546v5.42h-.89Z"/><path d="M548.44,773.62h1.36v10.24h-1.36Z"/><path d="M552.19,773.62h1.36v6.19c0,1.87.88,3,2.74,3s2.74-1.1,2.74-3v-6.19h1.37v6.19c0,3-1.68,4.22-4.11,4.22s-4.1-1.19-4.1-4.22Z"/></g><g class="cls-1"><path d="M618.26,773.62h1.37v9h5v1.19h-6.36Z"/><path d="M625.88,773.62h1.36v6.19c0,1.87.88,3,2.74,3s2.74-1.1,2.74-3v-6.19h1.37v6.19c0,3-1.68,4.22-4.11,4.22s-4.1-1.19-4.1-4.22Z"/><path d="M644.33,782.37h-.05a3.62,3.62,0,0,1-3.35,1.66,5.3,5.3,0,0,1,.06-10.59,4.29,4.29,0,0,1,4.47,3.22H644a2.92,2.92,0,0,0-3-2c-2.21,0-3.63,1.73-3.63,4s1.48,4,3.57,4c1.72,0,3.28-1,3.28-2.85v-.3H641v-1.19h4.47v5.42h-.9Z"/></g><g class="cls-1"><path d="M704.29,773.62h1.61l3.81,10.24h-1.43l-1-2.68h-4.49l-1,2.68h-1.37Zm.75,1.43L703.25,780h3.63l-1.78-4.94Z"/><path d="M718.64,782.37h0a3.62,3.62,0,0,1-3.35,1.66,5.3,5.3,0,0,1,.06-10.59,4.3,4.3,0,0,1,4.47,3.22h-1.43a2.92,2.92,0,0,0-3-2c-2.21,0-3.63,1.73-3.63,4s1.48,4,3.57,4c1.71,0,3.28-1,3.28-2.85v-.3H715.3v-1.19h4.47v5.42h-.9Z"/><path d="M726.55,773.44a5.3,5.3,0,0,1,0,10.59c-3,0-5-2.24-5-5.29S723.56,773.44,726.55,773.44Zm0,9.34c2.16,0,3.57-1.72,3.57-4s-1.41-4-3.57-4-3.57,1.73-3.57,4S724.4,782.78,726.55,782.78Z"/></g><g class="cls-1"><path d="M787.83,780.94c0,1.12,1,2,2.56,2s2.62-.7,2.62-1.9c0-2.71-6.4-.65-6.4-4.58,0-1.74,1.51-3,3.78-3s3.75,1.09,3.75,2.92h-1.37c0-1.13-1-1.79-2.38-1.79s-2.38.58-2.38,1.73c0,2.68,6.43.56,6.43,4.64,0,1.84-1.49,3.09-4.05,3.09s-3.93-1.25-3.93-3.09Z"/><path d="M796.58,773.62h6.91v1.19H798v3.24h4.41v1.19H798v3.43h5.66v1.19h-7Z"/><path d="M804.5,773.62H813v1.16h-3.57v9.08h-1.37v-9.08H804.5Z"/></g><g class="cls-1"><path d="M874,773.44A5.3,5.3,0,0,1,874,784c-3,0-5-2.24-5-5.29S871,773.44,874,773.44Zm0,9.34c2.16,0,3.57-1.72,3.57-4s-1.41-4-3.57-4-3.57,1.73-3.57,4S871.87,782.78,874,782.78Z"/><path d="M879.26,773.62h8.51v1.16H884.2v9.08h-1.37v-9.08h-3.57Z"/><path d="M888,773.62h8.51v1.16H893v9.08h-1.37v-9.08H888Z"/></g><g class="cls-1"><path d="M951.34,773.62h1.31l5.66,7.91h.06l-.06-7.91h1.36v10.24h-1.3L952.71,776h-.06l.06,7.86h-1.37Z"/><path d="M966.64,773.44a5.3,5.3,0,0,1,0,10.59c-3,0-5-2.24-5-5.29S963.65,773.44,966.64,773.44Zm0,9.34c2.16,0,3.57-1.72,3.57-4s-1.41-4-3.57-4-3.57,1.73-3.57,4S964.48,782.78,966.64,782.78Z"/><path d="M972.12,773.62h1.43l3.06,8.81h.06l3.07-8.81h1.36l-3.75,10.24h-1.51Z"/></g><g class="cls-1"><path d="M1036.17,773.62h3.15c3.53,0,5.36,2.13,5.36,5.12s-1.83,5.12-5.36,5.12h-3.15Zm1.37,1.19v7.86h1.78a3.93,3.93,0,0,0,0-7.86Z"/><path d="M1046.65,773.62H1048v10.24h-1.37Z"/><path d="M1054.92,773.44a4.13,4.13,0,0,1,4.34,3.39h-1.41a2.75,2.75,0,0,0-2.93-2.14c-2.1,0-3.51,1.67-3.51,4s1.41,4,3.45,4a2.73,2.73,0,0,0,3-2.14h1.41a4.19,4.19,0,0,1-4.4,3.39c-2.87,0-4.88-2.18-4.88-5.29S1052,773.44,1054.92,773.44Z"/></g><g class="cls-1"><path class="cls-2" d="M67.9,760.8c0-3,1-5.3,3.57-5.3S75,757.82,75,760.8s-1,5.3-3.57,5.3S67.9,763.77,67.9,760.8Zm5.77,0c0-2.62-.71-4.11-2.2-4.11s-2.2,1.49-2.2,4.11.71,4.1,2.2,4.1S73.67,763.42,73.67,760.8Z"/></g><g class="cls-1"><path class="cls-2" d="M59.69,699.66,63,697.4h1v9.1h2.44v1.13H60V706.5h2.62V699l-2.38,1.65Z"/><path class="cls-2" d="M67.9,702.52c0-3,1-5.3,3.57-5.3s3.57,2.32,3.57,5.3-1,5.29-3.57,5.29S67.9,705.49,67.9,702.52Zm5.77,0c0-2.62-.71-4.11-2.2-4.11s-2.2,1.49-2.2,4.11.71,4.1,2.2,4.1S73.67,705.13,73.67,702.52Z"/></g><g class="cls-1"><path class="cls-2" d="M62.13,645l1.13-.78c1.05-.72,1.72-1.13,1.72-2.32a1.75,1.75,0,0,0-1.9-1.78c-1.31,0-2,.71-2.08,2.08H59.81a3,3,0,0,1,3.27-3.21c1.87,0,3.21,1.08,3.21,2.91s-1.14,2.43-2.2,3.16l-1.13.77c-1.55,1.06-1.79,1.8-1.85,2.44h5.3v1.13H59.63A4.84,4.84,0,0,1,62.13,645Z"/><path class="cls-2" d="M67.9,644.23c0-3,1-5.29,3.57-5.29S75,641.26,75,644.23s-1,5.3-3.57,5.3S67.9,647.21,67.9,644.23Zm5.77,0c0-2.61-.71-4.1-2.2-4.1s-2.2,1.49-2.2,4.1.71,4.11,2.2,4.11S73.67,646.85,73.67,644.23Z"/></g><g class="cls-1"><path class="cls-2" d="M60.76,588a2,2,0,0,0,2.2,2.15c1.28,0,2.2-.69,2.2-1.89a2,2,0,0,0-2.2-1.89h-.77v-1.13H63a1.77,1.77,0,0,0,1.85-1.77A1.67,1.67,0,0,0,63,581.79a1.71,1.71,0,0,0-1.85,1.84H59.92a2.84,2.84,0,0,1,3-3,2.8,2.8,0,0,1,3.09,2.77,2.59,2.59,0,0,1-1.48,2.29v.06a2.63,2.63,0,0,1,1.9,2.56c0,1.83-1.56,2.92-3.51,2.92s-3.45-1.07-3.45-3.28Z"/><path class="cls-2" d="M67.9,586c0-3,1-5.3,3.57-5.3S75,583,75,586s-1,5.3-3.57,5.3S67.9,588.93,67.9,586Zm5.77,0c0-2.62-.71-4.1-2.2-4.1s-2.2,1.48-2.2,4.1.71,4.11,2.2,4.11S73.67,588.57,73.67,586Z"/></g><g class="cls-1"><path class="cls-2" d="M59.27,529.28l4.94-6.73h1.07v6.55h1.49v1.13H65.28v2.56H64v-2.56h-4.7Zm4.7-.18v-4.51l-3.36,4.51Z"/><path class="cls-2" d="M67.9,527.67c0-3,1-5.3,3.57-5.3s3.57,2.32,3.57,5.3-1,5.3-3.57,5.3S67.9,530.65,67.9,527.67Zm5.77,0c0-2.62-.71-4.11-2.2-4.11s-2.2,1.49-2.2,4.11.71,4.11,2.2,4.11S73.67,530.29,73.67,527.67Z"/></g><g class="cls-1"><path class="cls-2" d="M60.82,471.77a2,2,0,0,0,2.2,1.78,2.23,2.23,0,0,0,0-4.46,2.48,2.48,0,0,0-2,1L59.87,470l.29-5.77h5.78v1.19H61.35l-.18,3.21h.06a2.75,2.75,0,0,1,2-.71,3.16,3.16,0,0,1,3.33,3.27A3.32,3.32,0,0,1,63,474.69a3.17,3.17,0,0,1-3.51-2.92Z"/><path class="cls-2" d="M67.9,469.39c0-3,1-5.3,3.57-5.3s3.57,2.32,3.57,5.3-1,5.3-3.57,5.3S67.9,472.36,67.9,469.39Zm5.77,0c0-2.62-.71-4.11-2.2-4.11s-2.2,1.49-2.2,4.11.71,4.1,2.2,4.1S73.67,472,73.67,469.39Z"/></g><g class="cls-1"><path class="cls-2" d="M63.38,405.81a2.83,2.83,0,0,1,3.09,2.74H65.16a1.65,1.65,0,0,0-1.78-1.61c-1.21,0-2.43,1.06-2.5,4.09a3,3,0,0,1,2.62-1.35A3.09,3.09,0,0,1,66.71,413a3.3,3.3,0,0,1-3.45,3.39c-2,0-3.75-1.29-3.75-5C59.51,407.22,61.43,405.81,63.38,405.81ZM61.06,413a2.13,2.13,0,0,0,2.14,2.24,2.23,2.23,0,0,0,.12-4.46A2.19,2.19,0,0,0,61.06,413Z"/><path class="cls-2" d="M67.9,411.11c0-3,1-5.3,3.57-5.3s3.57,2.32,3.57,5.3-1,5.29-3.57,5.29S67.9,414.08,67.9,411.11Zm5.77,0c0-2.62-.71-4.11-2.2-4.11s-2.2,1.49-2.2,4.11.71,4.1,2.2,4.1S73.67,413.73,73.67,411.11Z"/></g><g class="cls-1"><path class="cls-2" d="M65.16,348.9H59.57v-1.19h7v1l-4.34,9.28H60.88Z"/><path class="cls-2" d="M67.9,352.82c0-3,1-5.29,3.57-5.29S75,349.85,75,352.82s-1,5.3-3.57,5.3S67.9,355.8,67.9,352.82Zm5.77,0c0-2.61-.71-4.1-2.2-4.1s-2.2,1.49-2.2,4.1.71,4.11,2.2,4.11S73.67,355.44,73.67,352.82Z"/></g><g class="cls-1"><path class="cls-2" d="M61.35,294.36v-.06A2.48,2.48,0,0,1,59.87,292c0-1.6,1.22-2.76,3.15-2.76s3.15,1.16,3.15,2.76a2.48,2.48,0,0,1-1.48,2.29v.06a2.63,2.63,0,0,1,1.9,2.56c0,1.83-1.44,2.92-3.57,2.92s-3.57-1.09-3.57-2.92A2.63,2.63,0,0,1,61.35,294.36ZM63,298.71c1.32,0,2.26-.69,2.26-1.89a2.3,2.3,0,0,0-4.52,0C60.76,298,61.7,298.71,63,298.71Zm1.9-6.68a1.92,1.92,0,0,0-3.81,0,1.91,1.91,0,0,0,3.81,0Z"/><path class="cls-2" d="M67.9,294.54c0-3,1-5.29,3.57-5.29S75,291.57,75,294.54s-1,5.3-3.57,5.3S67.9,297.52,67.9,294.54Zm5.77,0c0-2.62-.71-4.1-2.2-4.1s-2.2,1.48-2.2,4.1.71,4.11,2.2,4.11S73.67,297.16,73.67,294.54Z"/></g><g class="cls-1"><path class="cls-2" d="M62.78,241.56a2.94,2.94,0,0,1-3.21-2.74h1.31a1.8,1.8,0,0,0,1.9,1.61c1.38,0,2.32-1.06,2.38-4.08a3,3,0,0,1-2.62,1.34,3.09,3.09,0,0,1-3.21-3.33,3.31,3.31,0,0,1,3.45-3.4c2,0,3.75,1.3,3.75,5.06C66.53,240.14,64.91,241.56,62.78,241.56Zm2.2-7.22a2.17,2.17,0,1,0-4.34,0,2.1,2.1,0,0,0,2.08,2.2A2.19,2.19,0,0,0,65,234.34Z"/><path class="cls-2" d="M67.9,236.26c0-3,1-5.3,3.57-5.3s3.57,2.32,3.57,5.3-1,5.3-3.57,5.3S67.9,239.24,67.9,236.26Zm5.77,0c0-2.62-.71-4.11-2.2-4.11s-2.2,1.49-2.2,4.11.71,4.11,2.2,4.11S73.67,238.88,73.67,236.26Z"/></g><g class="cls-1"><path class="cls-2" d="M51.24,175.12l3.27-2.26h1V182H58v1.13H51.59V182h2.62v-7.49l-2.38,1.65Z"/><path class="cls-2" d="M59.45,178c0-3,1-5.3,3.57-5.3s3.57,2.32,3.57,5.3-1,5.3-3.57,5.3S59.45,181,59.45,178Zm5.77,0c0-2.62-.71-4.11-2.2-4.11s-2.2,1.49-2.2,4.11.71,4.1,2.2,4.1S65.22,180.6,65.22,178Z"/><path class="cls-2" d="M67.9,178c0-3,1-5.3,3.57-5.3S75,175,75,178s-1,5.3-3.57,5.3S67.9,181,67.9,178Zm5.77,0c0-2.62-.71-4.11-2.2-4.11s-2.2,1.49-2.2,4.11.71,4.1,2.2,4.1S73.67,180.6,73.67,178Z"/></g><g class="cls-1"><path class="cls-2" d="M51.24,83.46l3.27-2.26h1v9.1H58v1.13H51.59V90.3h2.62V82.82l-2.38,1.65Z"/><path class="cls-2" d="M62.13,87l1.13-.78c1.05-.73,1.72-1.13,1.72-2.32a1.75,1.75,0,0,0-1.9-1.78c-1.31,0-2,.71-2.08,2.08H59.81A3,3,0,0,1,63.08,81c1.87,0,3.21,1.08,3.21,2.91s-1.14,2.43-2.2,3.16L63,87.86c-1.55,1.06-1.78,1.8-1.84,2.44h5.29v1.13H59.63A4.84,4.84,0,0,1,62.13,87Z"/><path class="cls-2" d="M67.9,86.31c0-3,1-5.29,3.57-5.29S75,83.34,75,86.31s-1,5.3-3.57,5.3S67.9,89.29,67.9,86.31Zm5.77,0c0-2.62-.71-4.1-2.2-4.1s-2.2,1.48-2.2,4.1.71,4.11,2.2,4.11S73.67,88.93,73.67,86.31Z"/></g><g class="cls-1"><path d="M1107.47,83.46l3.27-2.26h1v9.1h2.44v1.13h-6.37V90.3h2.62V82.82l-2.38,1.65Z"/><path d="M1118.36,87l1.13-.78c1.06-.73,1.73-1.13,1.73-2.32a1.76,1.76,0,0,0-1.91-1.78c-1.31,0-2,.71-2.08,2.08H1116a3,3,0,0,1,3.27-3.21c1.88,0,3.22,1.08,3.22,2.91s-1.15,2.43-2.21,3.16l-1.13.77c-1.54,1.06-1.78,1.8-1.84,2.44h5.29v1.13h-6.78A4.84,4.84,0,0,1,1118.36,87Z"/><path d="M1124.13,86.31c0-3,1-5.29,3.57-5.29s3.57,2.32,3.57,5.29-1,5.3-3.57,5.3S1124.13,89.29,1124.13,86.31Zm5.78,0c0-2.62-.72-4.1-2.21-4.1s-2.2,1.48-2.2,4.1.72,4.11,2.2,4.11S1129.91,88.93,1129.91,86.31Z"/></g><g class="cls-1"><path d="M1107.23,760.8c0-3,1-5.3,3.57-5.3s3.57,2.32,3.57,5.3-1,5.3-3.57,5.3S1107.23,763.77,1107.23,760.8Zm5.77,0c0-2.62-.71-4.11-2.2-4.11s-2.2,1.49-2.2,4.11.71,4.1,2.2,4.1S1113,763.42,1113,760.8Z"/></g><g class="cls-1"><path d="M1107.47,699.66l3.27-2.26h1v9.1h2.44v1.13h-6.37V706.5h2.62V699l-2.38,1.65Z"/><path d="M1115.68,702.52c0-3,1-5.3,3.57-5.3s3.57,2.32,3.57,5.3-1,5.29-3.57,5.29S1115.68,705.49,1115.68,702.52Zm5.78,0c0-2.62-.72-4.11-2.21-4.11s-2.2,1.49-2.2,4.11.72,4.1,2.2,4.1S1121.46,705.13,1121.46,702.52Z"/></g><g class="cls-1"><path d="M1109.91,645l1.13-.78c1.06-.72,1.72-1.13,1.72-2.32a1.75,1.75,0,0,0-1.9-1.78c-1.31,0-2,.71-2.08,2.08h-1.19a3,3,0,0,1,3.27-3.21c1.88,0,3.21,1.08,3.21,2.91s-1.14,2.43-2.2,3.16l-1.13.77c-1.55,1.06-1.78,1.8-1.84,2.44h5.29v1.13h-6.78A4.84,4.84,0,0,1,1109.91,645Z"/><path d="M1115.68,644.23c0-3,1-5.29,3.57-5.29s3.57,2.32,3.57,5.29-1,5.3-3.57,5.3S1115.68,647.21,1115.68,644.23Zm5.78,0c0-2.61-.72-4.1-2.21-4.1s-2.2,1.49-2.2,4.1.72,4.11,2.2,4.11S1121.46,646.85,1121.46,644.23Z"/></g><g class="cls-1"><path d="M1108.54,588a2,2,0,0,0,2.2,2.15c1.28,0,2.2-.69,2.2-1.89a2,2,0,0,0-2.2-1.89H1110v-1.13h.77a1.77,1.77,0,0,0,1.85-1.77,1.67,1.67,0,0,0-1.85-1.65,1.7,1.7,0,0,0-1.84,1.84h-1.19a3.07,3.07,0,0,1,6.13-.21,2.6,2.6,0,0,1-1.49,2.29v.06a2.63,2.63,0,0,1,1.9,2.56c0,1.83-1.56,2.92-3.51,2.92s-3.45-1.07-3.45-3.28Z"/><path d="M1115.68,586c0-3,1-5.3,3.57-5.3s3.57,2.33,3.57,5.3-1,5.3-3.57,5.3S1115.68,588.93,1115.68,586Zm5.78,0c0-2.62-.72-4.1-2.21-4.1s-2.2,1.48-2.2,4.1.72,4.11,2.2,4.11S1121.46,588.57,1121.46,586Z"/></g><g class="cls-1"><path d="M1107.05,529.28l4.94-6.73h1.07v6.55h1.49v1.13h-1.49v2.56h-1.31v-2.56h-4.7Zm4.7-.18v-4.51l-3.36,4.51Z"/><path d="M1115.68,527.67c0-3,1-5.3,3.57-5.3s3.57,2.32,3.57,5.3-1,5.3-3.57,5.3S1115.68,530.65,1115.68,527.67Zm5.78,0c0-2.62-.72-4.11-2.21-4.11s-2.2,1.49-2.2,4.11.72,4.11,2.2,4.11S1121.46,530.29,1121.46,527.67Z"/></g><g class="cls-1"><path d="M1108.6,471.77a2,2,0,0,0,2.2,1.78,2.23,2.23,0,0,0,0-4.46,2.48,2.48,0,0,0-2,1l-1.19-.06.29-5.77h5.78v1.19h-4.58l-.18,3.21h.06a2.71,2.71,0,0,1,2-.71,3.16,3.16,0,0,1,3.33,3.27,3.32,3.32,0,0,1-3.51,3.46,3.17,3.17,0,0,1-3.51-2.92Z"/><path d="M1115.68,469.39c0-3,1-5.3,3.57-5.3s3.57,2.32,3.57,5.3-1,5.3-3.57,5.3S1115.68,472.36,1115.68,469.39Zm5.78,0c0-2.62-.72-4.11-2.21-4.11s-2.2,1.49-2.2,4.11.72,4.1,2.2,4.1S1121.46,472,1121.46,469.39Z"/></g><g class="cls-1"><path d="M1111.16,405.81a2.83,2.83,0,0,1,3.09,2.74h-1.31a1.65,1.65,0,0,0-1.78-1.61c-1.21,0-2.43,1.06-2.5,4.09a3,3,0,0,1,2.62-1.35,3.09,3.09,0,0,1,3.21,3.33,3.3,3.3,0,0,1-3.45,3.39c-2,0-3.75-1.29-3.75-5C1107.29,407.22,1109.21,405.81,1111.16,405.81Zm-2.32,7.22a2.13,2.13,0,0,0,2.14,2.24,2.23,2.23,0,0,0,.12-4.46A2.19,2.19,0,0,0,1108.84,413Z"/><path d="M1115.68,411.11c0-3,1-5.3,3.57-5.3s3.57,2.32,3.57,5.3-1,5.29-3.57,5.29S1115.68,414.08,1115.68,411.11Zm5.78,0c0-2.62-.72-4.11-2.21-4.11s-2.2,1.49-2.2,4.11.72,4.1,2.2,4.1S1121.46,413.73,1121.46,411.11Z"/></g><g class="cls-1"><path d="M1112.94,348.9h-5.59v-1.19h7v1l-4.34,9.28h-1.37Z"/><path d="M1115.68,352.82c0-3,1-5.29,3.57-5.29s3.57,2.32,3.57,5.29-1,5.3-3.57,5.3S1115.68,355.8,1115.68,352.82Zm5.78,0c0-2.61-.72-4.1-2.21-4.1s-2.2,1.49-2.2,4.1.72,4.11,2.2,4.11S1121.46,355.44,1121.46,352.82Z"/></g><g class="cls-1"><path d="M1109.14,294.36v-.06a2.47,2.47,0,0,1-1.49-2.29c0-1.6,1.22-2.76,3.15-2.76s3.16,1.16,3.16,2.76a2.49,2.49,0,0,1-1.49,2.29v.06a2.63,2.63,0,0,1,1.9,2.56c0,1.83-1.44,2.92-3.57,2.92s-3.57-1.09-3.57-2.92A2.63,2.63,0,0,1,1109.14,294.36Zm1.66,4.35c1.33,0,2.26-.69,2.26-1.89a2.3,2.3,0,0,0-4.52,0C1108.54,298,1109.48,298.71,1110.8,298.71Zm1.91-6.68a1.92,1.92,0,0,0-3.81,0,1.91,1.91,0,0,0,3.81,0Z"/><path d="M1115.68,294.54c0-3,1-5.29,3.57-5.29s3.57,2.32,3.57,5.29-1,5.3-3.57,5.3S1115.68,297.52,1115.68,294.54Zm5.78,0c0-2.62-.72-4.1-2.21-4.1s-2.2,1.48-2.2,4.1.72,4.11,2.2,4.11S1121.46,297.16,1121.46,294.54Z"/></g><g class="cls-1"><path d="M1110.56,241.56a2.94,2.94,0,0,1-3.21-2.74h1.31a1.8,1.8,0,0,0,1.9,1.61c1.39,0,2.32-1.06,2.38-4.08a3,3,0,0,1-2.62,1.34,3.09,3.09,0,0,1-3.21-3.33,3.31,3.31,0,0,1,3.45-3.4c2,0,3.75,1.3,3.75,5.06C1114.31,240.14,1112.69,241.56,1110.56,241.56Zm2.2-7.22a2.17,2.17,0,1,0-4.34,0,2.1,2.1,0,0,0,2.08,2.2A2.19,2.19,0,0,0,1112.76,234.34Z"/><path d="M1115.68,236.26c0-3,1-5.3,3.57-5.3s3.57,2.32,3.57,5.3-1,5.3-3.57,5.3S1115.68,239.24,1115.68,236.26Zm5.78,0c0-2.62-.72-4.11-2.21-4.11s-2.2,1.49-2.2,4.11.72,4.11,2.2,4.11S1121.46,238.88,1121.46,236.26Z"/></g><g class="cls-1"><path d="M1107.47,175.12l3.27-2.26h1V182h2.44v1.13h-6.37V182h2.62v-7.49l-2.38,1.65Z"/><path d="M1115.68,178c0-3,1-5.3,3.57-5.3s3.57,2.32,3.57,5.3-1,5.3-3.57,5.3S1115.68,181,1115.68,178Zm5.78,0c0-2.62-.72-4.11-2.21-4.11s-2.2,1.49-2.2,4.11.72,4.1,2.2,4.1S1121.46,180.6,1121.46,178Z"/><path d="M1124.14,178c0-3,1-5.3,3.57-5.3s3.57,2.32,3.57,5.3-1,5.3-3.57,5.3S1124.14,181,1124.14,178Zm5.77,0c0-2.62-.72-4.11-2.2-4.11s-2.21,1.49-2.21,4.11.72,4.1,2.21,4.1S1129.91,180.6,1129.91,178Z"/></g><path d="M1104.52,43.34h1.57v1.33h.07a2.86,2.86,0,0,1,2.75-1.56,2.79,2.79,0,0,1,2.83,1.84,3.05,3.05,0,0,1,3-1.84c1.71,0,3.13,1,3.13,3.65v5.65h-1.64V47c0-1.78-.6-2.45-1.86-2.45s-2.38,1.21-2.38,3.16v4.72h-1.64V47c0-1.78-.67-2.45-1.86-2.45s-2.38,1.21-2.38,3.18v4.7h-1.64Z"/><path d="M1120.59,43.34h1.57v1.33h.07a2.86,2.86,0,0,1,2.75-1.56,2.79,2.79,0,0,1,2.83,1.84,3.05,3.05,0,0,1,3-1.84c1.71,0,3.13,1,3.13,3.65v5.65h-1.64V47c0-1.78-.6-2.45-1.86-2.45s-2.38,1.21-2.38,3.16v4.72h-1.64V47c0-1.78-.67-2.45-1.86-2.45s-2.38,1.21-2.38,3.18v4.7h-1.64Z"/><path class="cls-2" d="M42.79,50.85v1.41H41.15V39.09h1.64v5.29c0,1.93.74,2.6,2.08,2.6s2.38-1.26,2.38-3.2V39.09h1.64v9.08H47.33V46.83h-.08A2.79,2.79,0,0,1,44.5,48.4a3.16,3.16,0,0,1-1.82-.53h-.11A22,22,0,0,1,42.79,50.85Z"/><path class="cls-2" d="M52.83,49.29c0,1.11,1,1.78,2.46,1.78,1.6,0,2.9-.8,2.9-3.34v-1h-.08a3.17,3.17,0,0,1-3,1.64c-2.3,0-4-1.72-4-4.69s1.86-4.84,4.16-4.84a3,3,0,0,1,2.9,1.64h.08V39.09h1.56v8.64c0,3.44-2,4.68-4.46,4.68-2.27,0-4-1.08-4-3.12ZM55.44,47c1.48,0,2.67-1.19,2.67-3.35s-1.19-3.34-2.67-3.34-2.68,1.26-2.68,3.42S54,47,55.44,47Z"/><path class="cls-2" d="M67,35.15h1.42L62.73,48.4H61.31Z"/><path class="cls-2" d="M68.68,39.09h1.56v1.34h.08a2.86,2.86,0,0,1,2.75-1.56,2.79,2.79,0,0,1,2.83,1.84,3.05,3.05,0,0,1,3-1.84c1.71,0,3.12,1,3.12,3.65v5.65H80.44V42.74c0-1.78-.6-2.45-1.86-2.45s-2.38,1.2-2.38,3.16v4.72H74.56V42.74c0-1.78-.67-2.45-1.86-2.45s-2.38,1.2-2.38,3.18v4.7H68.68Z"/><path class="cls-2" d="M84.77,39.72a1.45,1.45,0,0,0,1.61,1.56c.93,0,1.6-.5,1.6-1.37a1.45,1.45,0,0,0-1.6-1.38h-.57V37.7h.57a1.29,1.29,0,0,0,1.34-1.29,1.22,1.22,0,0,0-1.34-1.2A1.25,1.25,0,0,0,85,36.55h-.87a2.07,2.07,0,0,1,2.22-2.17,2,2,0,0,1,2.25,2,1.9,1.9,0,0,1-1.08,1.67v0A1.91,1.91,0,0,1,88.94,40c0,1.34-1.14,2.13-2.56,2.13a2.24,2.24,0,0,1-2.52-2.39Z"/><rect class="cls-3" x="96.25" y="73.59" width="285.79" height="687.76"/><rect class="cls-3" x="881.16" y="73.59" width="207.11" height="687.76"/><path class="cls-2" d="M180.73,761.64a.3.3,0,0,1-.3-.3V158.08a.3.3,0,0,1,.3-.3.29.29,0,0,1,.3.3V761.34A.29.29,0,0,1,180.73,761.64Z"/><path class="cls-2" d="M257,761.64a.29.29,0,0,1-.3-.3V158.08a.3.3,0,1,1,.6,0V761.34A.29.29,0,0,1,257,761.64Z"/><path class="cls-2" d="M341.53,761.64a.29.29,0,0,1-.3-.3V158.08a.29.29,0,0,1,.3-.3.3.3,0,0,1,.3.3V761.34A.3.3,0,0,1,341.53,761.64Z"/><path class="cls-2" d="M423.29,761.64a.29.29,0,0,1-.3-.3V158.08a.29.29,0,0,1,.3-.3.3.3,0,0,1,.3.3V761.34A.3.3,0,0,1,423.29,761.64Z"/><path class="cls-2" d="M507.77,761.64a.3.3,0,0,1-.3-.3V158.08a.3.3,0,0,1,.3-.3.29.29,0,0,1,.3.3V761.34A.29.29,0,0,1,507.77,761.64Z"/><path class="cls-2" d="M589.53,761.64a.29.29,0,0,1-.3-.3V158.08a.3.3,0,1,1,.6,0V761.34A.29.29,0,0,1,589.53,761.64Z"/><path class="cls-2" d="M674,761.64a.29.29,0,0,1-.3-.3V158.08a.29.29,0,0,1,.3-.3.3.3,0,0,1,.3.3V761.34A.3.3,0,0,1,674,761.64Z"/><path class="cls-2" d="M758.5,761.64a.3.3,0,0,1-.3-.3V158.08a.3.3,0,0,1,.3-.3.29.29,0,0,1,.3.3V761.34A.29.29,0,0,1,758.5,761.64Z"/><path class="cls-2" d="M840.26,761.64a.3.3,0,0,1-.3-.3V158.08a.3.3,0,0,1,.3-.3.29.29,0,0,1,.3.3V761.34A.29.29,0,0,1,840.26,761.64Z"/><path class="cls-2" d="M924.75,761.64a.29.29,0,0,1-.3-.3V158.08a.29.29,0,0,1,.3-.3.3.3,0,0,1,.3.3V761.34A.3.3,0,0,1,924.75,761.64Z"/><path class="cls-2" d="M1006.51,761.64a.29.29,0,0,1-.3-.3V158.08a.29.29,0,0,1,.3-.3.3.3,0,0,1,.3.3V761.34A.3.3,0,0,1,1006.51,761.64Z"/><path class="cls-2" d="M96.25,761.64a.29.29,0,0,1-.3-.3V158.08a.29.29,0,0,1,.3-.3.3.3,0,0,1,.3.3V761.34A.3.3,0,0,1,96.25,761.64Z"/><path class="cls-2" d="M1088.27,761.64a.29.29,0,0,1-.3-.3V158.08a.29.29,0,0,1,.3-.3.3.3,0,0,1,.3.3V761.34A.3.3,0,0,1,1088.27,761.64Z"/><circle cx="98.97" cy="569.08" r="2.97"/><circle cx="101.7" cy="668.15" r="2.97"/><circle cx="104.42" cy="604.04" r="2.97"/><circle cx="107.15" cy="633.18" r="2.97"/><circle cx="109.87" cy="615.7" r="2.97"/><circle cx="112.6" cy="580.73" r="2.97"/><circle cx="115.32" cy="528.28" r="2.97"/><circle cx="118.05" cy="534.11" r="2.97"/><circle cx="120.77" cy="604.04" r="2.97"/><circle cx="123.5" cy="604.04" r="2.97"/><circle cx="126.23" cy="551.59" r="2.97"/><circle cx="128.95" cy="528.28" r="2.97"/><circle cx="137.13" cy="551.59" r="2.97"/><circle cx="139.85" cy="487.48" r="2.97"/><circle cx="156.2" cy="755.57" r="2.97"/><circle cx="158.93" cy="697.29" r="2.97"/><circle cx="161.65" cy="604.04" r="2.97"/><circle cx="164.38" cy="650.67" r="2.97"/><circle cx="167.11" cy="609.87" r="2.97"/><circle cx="169.83" cy="574.9" r="2.97"/><circle cx="175.28" cy="475.83" r="2.97"/><circle cx="178.01" cy="650.67" r="2.97"/><circle cx="180.73" cy="592.39" r="2.97"/><circle cx="188.91" cy="493.31" r="2.97"/><circle cx="194.36" cy="545.76" r="2.97"/><circle cx="197.08" cy="604.04" r="2.97"/><circle cx="199.81" cy="633.18" r="2.97"/><circle cx="202.53" cy="609.87" r="2.97"/><circle cx="205.26" cy="650.67" r="2.97"/><circle cx="207.98" cy="592.39" r="2.97"/><circle cx="210.71" cy="592.39" r="2.97"/><circle cx="213.44" cy="545.76" r="2.97"/><circle cx="216.16" cy="499.14" r="2.97"/><circle cx="218.89" cy="609.87" r="2.97"/><circle cx="221.61" cy="650.67" r="2.97"/><circle cx="235.24" cy="493.31" r="2.97"/><circle cx="237.96" cy="504.97" r="2.97"/><circle cx="254.32" cy="668.15" r="2.97"/><circle cx="257.04" cy="644.84" r="2.97"/><circle cx="259.77" cy="569.08" r="2.97"/><circle cx="262.49" cy="604.04" r="2.97"/><circle cx="265.22" cy="534.11" r="2.97"/><circle cx="267.94" cy="586.56" r="2.97"/><circle cx="270.67" cy="633.18" r="2.97"/><circle cx="273.39" cy="662.32" r="2.97"/><circle cx="276.12" cy="586.56" r="2.97"/><circle cx="281.57" cy="563.25" r="2.97"/><circle cx="284.29" cy="580.73" r="2.97"/><circle cx="289.74" cy="662.32" r="2.97"/><circle cx="292.47" cy="720.61" r="2.97"/><circle cx="295.2" cy="673.98" r="2.97"/><circle cx="297.92" cy="679.81" r="2.97"/><circle cx="300.65" cy="673.98" r="2.97"/><circle cx="303.37" cy="679.81" r="2.97"/><circle cx="306.1" cy="621.53" r="2.97"/><circle cx="308.82" cy="656.5" r="2.97"/><circle cx="311.55" cy="691.47" r="2.97"/><circle cx="314.27" cy="673.98" r="2.97"/><circle cx="317" cy="673.98" r="2.97"/><circle cx="319.72" cy="627.36" r="2.97"/><circle cx="322.45" cy="569.08" r="2.97"/><circle cx="325.17" cy="598.22" r="2.97"/><circle cx="327.9" cy="621.53" r="2.97"/><circle cx="330.62" cy="668.15" r="2.97"/><circle cx="333.35" cy="609.87" r="2.97"/><circle cx="336.08" cy="580.73" r="2.97"/><circle cx="338.8" cy="627.36" r="2.97"/><circle cx="341.53" cy="662.32" r="2.97"/><circle cx="344.25" cy="697.29" r="2.97"/><circle cx="346.98" cy="644.84" r="2.97"/><circle cx="349.7" cy="691.47" r="2.97"/><circle cx="352.43" cy="708.95" r="2.97"/><circle cx="355.15" cy="656.5" r="2.97"/><circle cx="357.88" cy="673.98" r="2.97"/><circle cx="360.6" cy="691.47" r="2.97"/><circle cx="363.33" cy="650.67" r="2.97"/><circle cx="374.23" cy="708.95" r="2.97"/><circle cx="376.96" cy="650.67" r="2.97"/><circle cx="379.68" cy="639.01" r="2.97"/><circle cx="382.41" cy="633.18" r="2.97"/><circle cx="385.13" cy="650.67" r="2.97"/><circle cx="387.86" cy="662.32" r="2.97"/><circle cx="390.58" cy="668.15" r="2.97"/><circle cx="393.31" cy="679.81" r="2.97"/><circle cx="396.03" cy="679.81" r="2.97"/><circle cx="398.76" cy="627.36" r="2.97"/><circle cx="401.48" cy="639.01" r="2.97"/><circle cx="404.21" cy="679.81" r="2.97"/><circle cx="406.93" cy="679.81" r="2.97"/><circle cx="409.66" cy="621.53" r="2.97"/><circle cx="412.38" cy="639.01" r="2.97"/><circle cx="415.11" cy="633.18" r="2.97"/><circle cx="417.84" cy="639.01" r="2.97"/><circle cx="420.56" cy="644.84" r="2.97"/><circle cx="423.29" cy="662.32" r="2.97"/><circle cx="426.01" cy="673.98" r="2.97"/><circle cx="428.74" cy="668.15" r="2.97"/><circle cx="431.46" cy="679.81" r="2.97"/><circle cx="434.19" cy="685.64" r="2.97"/><circle cx="436.91" cy="668.15" r="2.97"/><circle cx="439.64" cy="668.15" r="2.97"/><circle cx="442.36" cy="650.67" r="2.97"/><circle cx="445.09" cy="673.98" r="2.97"/><circle cx="447.81" cy="627.36" r="2.97"/><circle cx="450.54" cy="673.98" r="2.97"/><circle cx="453.26" cy="697.29" r="2.97"/><circle cx="455.99" cy="697.29" r="2.97"/><circle cx="458.72" cy="685.64" r="2.97"/><circle cx="461.44" cy="697.29" r="2.97"/><circle cx="464.17" cy="726.43" r="2.97"/><circle cx="466.89" cy="673.98" r="2.97"/><circle cx="469.62" cy="679.81" r="2.97"/><circle cx="472.34" cy="679.81" r="2.97"/><circle cx="475.07" cy="685.64" r="2.97"/><circle cx="477.79" cy="697.29" r="2.97"/><circle cx="480.52" cy="685.64" r="2.97"/><circle cx="483.24" cy="673.98" r="2.97"/><circle cx="485.97" cy="685.64" r="2.97"/><circle cx="488.69" cy="656.5" r="2.97"/><circle cx="491.42" cy="662.32" r="2.97"/><circle cx="494.14" cy="673.98" r="2.97"/><circle cx="496.87" cy="685.64" r="2.97"/><circle cx="499.6" cy="703.12" r="2.97"/><circle cx="502.32" cy="708.95" r="2.97"/><circle cx="505.05" cy="685.64" r="2.97"/><circle cx="507.77" cy="673.98" r="2.97"/><circle cx="510.5" cy="662.32" r="2.97"/><circle cx="513.22" cy="639.01" r="2.97" transform="translate(-160.56 1105.64) rotate(-85.93)"/><circle cx="515.95" cy="656.5" r="2.97"/><circle cx="518.67" cy="668.15" r="2.97"/><circle cx="521.4" cy="679.81" r="2.97"/><circle cx="524.12" cy="679.81" r="2.97"/><circle cx="526.85" cy="656.5" r="2.97"/><circle cx="529.57" cy="639.01" r="2.97"/><circle cx="532.3" cy="644.84" r="2.97"/><circle cx="535.02" cy="656.5" r="2.97"/><circle cx="537.75" cy="703.12" r="2.97"/><circle cx="540.48" cy="679.81" r="2.97"/><circle cx="543.2" cy="644.84" r="2.97"/><circle cx="545.93" cy="650.67" r="2.97"/><circle cx="548.65" cy="644.84" r="2.97"/><circle cx="551.38" cy="639.01" r="2.97"/><circle cx="554.1" cy="662.32" r="2.97"/><circle cx="556.83" cy="679.81" r="2.97"/><circle cx="559.55" cy="528.28" r="2.97"/><circle cx="562.28" cy="510.79" r="2.97"/><circle cx="565" cy="586.56" r="2.97"/><circle cx="567.73" cy="633.18" r="2.97"/><circle cx="570.45" cy="644.84" r="2.97"/><circle cx="573.18" cy="685.64" r="2.97"/><circle cx="575.9" cy="673.98" r="2.97"/><circle cx="578.63" cy="679.81" r="2.97"/><circle cx="586.81" cy="691.47" r="2.97" transform="translate(-107.04 1275.46) rotate(-89.77)"/><circle cx="589.53" cy="668.15" r="2.97"/><circle cx="592.26" cy="644.84" r="2.97"/><circle cx="594.98" cy="633.18" r="2.97"/><circle cx="597.71" cy="656.5" r="2.97" transform="translate(-2.71 2.48) rotate(-0.24)"/><circle cx="600.43" cy="685.64" r="2.97"/><circle cx="603.16" cy="668.15" r="2.97"/><circle cx="605.88" cy="656.5" r="2.97"/><circle cx="608.61" cy="621.53" r="2.97"/><circle cx="611.33" cy="691.47" r="2.97"/><circle cx="614.06" cy="673.98" r="2.97"/><circle cx="616.78" cy="662.32" r="2.97"/><circle cx="619.51" cy="662.32" r="2.97"/><circle cx="622.24" cy="662.32" r="2.97"/><circle cx="624.96" cy="679.81" r="2.97"/><circle cx="627.69" cy="679.81" r="2.97"/><circle cx="630.41" cy="656.5" r="2.97"/><circle cx="633.14" cy="644.84" r="2.97"/><circle cx="635.86" cy="673.98" r="2.97"/><circle cx="638.59" cy="650.67" r="2.97"/><circle cx="641.31" cy="633.18" r="2.97"/><circle cx="644.04" cy="615.7" r="2.97"/><circle cx="646.76" cy="615.7" r="2.97"/><circle cx="649.49" cy="621.53" r="2.97"/><circle cx="652.21" cy="639.01" r="2.97"/><circle cx="654.94" cy="656.5" r="2.97"/><circle cx="657.66" cy="569.08" r="2.97"/><circle cx="660.39" cy="598.22" r="2.97"/><circle cx="663.12" cy="592.39" r="2.97"/><circle cx="665.84" cy="592.39" r="2.97"/><circle cx="668.57" cy="633.18" r="2.97"/><circle cx="671.29" cy="639.01" r="2.97"/><circle cx="674.02" cy="644.84" r="2.97"/><circle cx="676.74" cy="650.67" r="2.97"/><circle cx="679.47" cy="662.32" r="2.97"/><circle cx="682.19" cy="639.01" r="2.97"/><circle cx="684.92" cy="668.15" r="2.97"/><circle cx="687.64" cy="685.64" r="2.97"/><circle cx="690.37" cy="691.47" r="2.97"/><circle cx="693.09" cy="691.47" r="2.97"/><circle cx="695.82" cy="656.5" r="2.97"/><circle cx="698.54" cy="644.84" r="2.97"/><circle cx="701.27" cy="592.39" r="2.97"/><circle cx="704" cy="615.7" r="2.97"/><circle cx="706.72" cy="615.7" r="2.97"/><circle cx="709.45" cy="633.18" r="2.97"/><circle cx="712.17" cy="615.7" r="2.97"/><circle cx="714.9" cy="516.62" r="2.97"/><circle cx="717.62" cy="668.15" r="2.97"/><circle cx="720.35" cy="668.15" r="2.97"/><circle cx="723.07" cy="673.98" r="2.97"/><circle cx="725.8" cy="662.32" r="2.97"/><circle cx="728.52" cy="668.15" r="2.97"/><circle cx="731.25" cy="662.32" r="2.97"/><circle cx="733.97" cy="662.32" r="2.97"/><circle cx="736.7" cy="685.64" r="2.97"/><circle cx="739.42" cy="691.47" r="2.97"/><circle cx="742.15" cy="691.47" r="2.97"/><circle cx="744.88" cy="685.64" r="2.97"/><circle cx="747.6" cy="714.78" r="2.97"/><circle cx="750.33" cy="726.43" r="2.97"/><circle cx="753.05" cy="673.98" r="2.97"/><circle cx="755.78" cy="668.15" r="2.97"/><circle cx="758.5" cy="656.5" r="2.97"/><circle cx="761.23" cy="656.5" r="2.97"/><circle cx="763.95" cy="668.15" r="2.97"/><circle cx="766.68" cy="679.81" r="2.97"/><circle cx="769.4" cy="679.81" r="2.97"/><circle cx="772.13" cy="639.01" r="2.97"/><circle cx="774.85" cy="615.7" r="2.97"/><circle cx="777.58" cy="563.25" r="2.97"/><circle cx="780.3" cy="615.7" r="2.97"/><circle cx="783.03" cy="604.04" r="2.97"/><circle cx="785.76" cy="604.04" r="2.97"/><circle cx="788.48" cy="615.7" r="2.97"/><circle cx="791.21" cy="609.87" r="2.97"/><circle cx="793.93" cy="592.39" r="2.97"/><circle cx="796.66" cy="609.87" r="2.97"/><circle cx="799.38" cy="615.7" r="2.97"/><circle cx="802.11" cy="627.36" r="2.97"/><circle cx="804.83" cy="656.5" r="2.97"/><circle cx="807.56" cy="714.78" r="2.97"/><circle cx="810.28" cy="679.81" r="2.97"/><circle cx="813.01" cy="662.32" r="2.97"/><circle cx="815.73" cy="668.15" r="2.97"/><circle cx="818.46" cy="668.15" r="2.97"/><circle cx="821.18" cy="656.5" r="2.97"/><circle cx="823.91" cy="639.01" r="2.97"/><circle cx="826.63" cy="650.67" r="2.97"/><circle cx="829.36" cy="580.73" r="2.97"/><circle cx="832.09" cy="563.25" r="2.97"/><circle cx="834.81" cy="528.28" r="2.97"/><circle cx="837.54" cy="627.36" r="2.97"/><circle cx="840.26" cy="673.98" r="2.97"/><circle cx="842.99" cy="668.15" r="2.97"/><circle cx="845.71" cy="656.5" r="2.97"/><circle cx="848.44" cy="662.32" r="2.97"/><circle cx="851.16" cy="697.29" r="2.97"/><circle cx="853.89" cy="685.64" r="2.97"/><circle cx="856.61" cy="691.47" r="2.97"/><circle cx="859.34" cy="621.53" r="2.97"/><circle cx="862.06" cy="604.04" r="2.97"/><circle cx="864.79" cy="627.36" r="2.97"/><circle cx="867.51" cy="621.53" r="2.97"/><circle cx="870.24" cy="673.98" r="2.97"/><circle cx="872.97" cy="656.5" r="2.97"/><circle cx="875.69" cy="679.81" r="2.97"/><circle cx="878.42" cy="644.84" r="2.97"/><circle cx="881.14" cy="592.39" r="2.97"/><circle cx="883.87" cy="644.84" r="2.97"/><circle cx="886.59" cy="650.67" r="2.97"/><circle cx="889.32" cy="609.87" r="2.97"/><circle cx="892.04" cy="650.67" r="2.97"/><circle cx="894.77" cy="609.87" r="2.97"/><circle cx="902.94" cy="656.5" r="2.97"/><circle cx="905.67" cy="639.01" r="2.97"/><circle cx="908.39" cy="563.25" r="2.97"/><circle cx="911.12" cy="563.25" r="2.97"/><circle cx="913.85" cy="592.39" r="2.97"/><circle cx="916.57" cy="516.62" r="2.97"/><circle cx="924.75" cy="528.28" r="2.97"/><circle cx="927.47" cy="685.64" r="2.97"/><circle cx="930.2" cy="679.81" r="2.97"/><circle cx="932.92" cy="691.47" r="2.97"/><circle cx="935.65" cy="592.39" r="2.97"/><circle cx="938.37" cy="604.04" r="2.97"/><circle cx="941.1" cy="621.53" r="2.97"/><circle cx="943.82" cy="639.01" r="2.97"/><circle cx="946.55" cy="609.87" r="2.97"/><circle cx="949.27" cy="557.42" r="2.97"/><circle cx="952" cy="545.76" r="2.97"/><circle cx="954.73" cy="580.73" r="2.97"/><circle cx="957.45" cy="510.79" r="2.97"/><circle cx="960.18" cy="662.32" r="2.97"/><circle cx="962.9" cy="650.67" r="2.97"/><circle cx="965.63" cy="551.59" r="2.97"/><circle cx="968.35" cy="487.48" r="2.97"/><circle cx="973.8" cy="516.62" r="2.97"/><circle cx="976.53" cy="563.25" r="2.97"/><circle cx="979.25" cy="662.32" r="2.97"/><circle cx="981.98" cy="691.47" r="2.97"/><circle cx="984.7" cy="644.84" r="2.97"/><circle cx="987.43" cy="644.84" r="2.97"/><circle cx="990.15" cy="633.18" r="2.97"/><circle cx="992.88" cy="668.15" r="2.97"/><circle cx="995.61" cy="726.43" r="2.97"/><circle cx="998.33" cy="738.09" r="2.97"/><circle cx="1001.06" cy="662.32" r="2.97"/><circle cx="1003.78" cy="656.5" r="2.97"/><circle cx="1006.51" cy="569.08" r="2.97"/><circle cx="1009.23" cy="563.25" r="2.97"/><circle cx="1011.96" cy="639.01" r="2.97"/><circle cx="1014.68" cy="609.87" r="2.97"/><circle cx="1017.41" cy="545.76" r="2.97"/><circle cx="1020.13" cy="534.11" r="2.97"/><circle cx="1022.86" cy="598.22" r="2.97"/><circle cx="1025.58" cy="598.22" r="2.97"/><circle cx="1028.31" cy="668.15" r="2.97"/><circle cx="1031.03" cy="609.87" r="2.97"/><circle cx="1033.76" cy="609.87" r="2.97"/><circle cx="1036.49" cy="650.67" r="2.97"/><circle cx="1039.21" cy="592.39" r="2.97"/><circle cx="1041.94" cy="534.11" r="2.97"/><circle cx="1050.11" cy="475.83" r="2.97"/><circle cx="1052.84" cy="499.14" r="2.97"/><circle cx="1055.56" cy="563.25" r="2.97"/><circle cx="1058.29" cy="516.62" r="2.97"/><circle cx="1066.46" cy="510.79" r="2.97"/><circle cx="1069.19" cy="475.83" r="2.97"/><circle class="cls-4" cx="243.41" cy="435.03" r="2.97"/><circle class="cls-4" cx="96.25" cy="458.34" r="2.97"/><circle class="cls-4" cx="131.68" cy="417.54" r="2.97"/><circle class="cls-4" cx="134.4" cy="470" r="2.97"/><circle class="cls-4" cx="142.58" cy="306.81" r="2.97"/><circle class="cls-4" cx="145.3" cy="277.67" r="2.97"/><circle class="cls-4" cx="148.03" cy="225.22" r="2.97"/><circle class="cls-4" cx="150.75" cy="108.65" r="2.97"/><circle class="cls-4" cx="153.48" cy="365.09" r="2.97"/><circle class="cls-4" cx="172.56" cy="405.89" r="2.97"/><circle class="cls-4" cx="183.46" cy="464.17" r="2.97"/><circle class="cls-4" cx="186.18" cy="353.43" r="2.97"/><circle class="cls-4" cx="191.63" cy="470" r="2.97"/><circle class="cls-4" cx="224.34" cy="423.37" r="2.97"/><circle class="cls-4" cx="227.06" cy="335.95" r="2.97"/><circle class="cls-4" cx="229.79" cy="335.95" r="2.97"/><circle class="cls-4" cx="232.51" cy="376.75" r="2.97"/><circle class="cls-4" cx="240.69" cy="365.09" r="2.97"/><circle class="cls-4" cx="246.14" cy="359.26" r="2.97"/><circle class="cls-4" cx="248.86" cy="347.61" r="2.97"/><circle class="cls-4" cx="251.59" cy="440.86" r="2.97"/><circle class="cls-4" cx="287.02" cy="452.51" r="2.97"/><circle class="cls-4" cx="897.49" cy="341.78" r="2.97"/><circle class="cls-4" cx="900.22" cy="440.86" r="2.97"/><circle class="cls-4" cx="919.3" cy="429.2" r="2.97"/><circle class="cls-4" cx="922.02" cy="318.47" r="2.97"/><circle class="cls-4" cx="971.08" cy="452.51" r="2.97"/><circle class="cls-4" cx="1044.66" cy="423.37" r="2.97"/><circle class="cls-4" cx="1047.39" cy="318.47" r="2.97"/><circle class="cls-4" cx="1061.01" cy="440.86" r="2.97"/><circle class="cls-4" cx="1063.74" cy="470" r="2.97"/><circle class="cls-4" cx="1071.91" cy="405.89" r="2.97"/><circle cx="1074.64" cy="580.73" r="2.97"/><circle cx="1077.37" cy="534.11" r="2.97"/><circle cx="1080.09" cy="569.08" r="2.97"/><circle cx="1082.82" cy="551.59" r="2.97"/><circle cx="1085.54" cy="569.08" r="2.97"/><circle cx="1088.27" cy="551.59" r="2.97"/><path class="cls-5" d="M1076.53,761.35H1065.7c1.36,0,1.36-57.92,2.71-57.92s1.35,29,2.7,29,1.35-5.79,2.72-5.79S1075.18,761.35,1076.53,761.35Z"/><path class="cls-5" d="M1030.55,761.35h-5.41c1.35,0,1.35-34.76,2.71-34.76S1029.2,761.35,1030.55,761.35Z"/><path class="cls-5" d="M1025.14,761.35h-5.4c1.35,0,1.36-29,2.7-29S1023.79,761.35,1025.14,761.35Z"/><path class="cls-5" d="M1014.33,744c1.38,0,1.35,18,2.78,17.36l2.53,0a.11.11,0,0,0,.1.05h-8.11C1013,761.35,1013,744,1014.33,744Z"/><path class="cls-5" d="M1011.63,761.35h-8.11c1.35,0,1.35-23.18,2.7-23.18s1.35-17.37,2.7-17.37S1010.27,761.35,1011.63,761.35Z"/><path class="cls-5" d="M998.11,761.35H992.7c1.35,0,1.35-5.81,2.71-5.81S996.76,761.35,998.11,761.35Z"/><path class="cls-5" d="M990,761.35h-5.41c1.35,0,1.35-57.92,2.7-57.92S988.64,761.35,990,761.35Z"/><path class="cls-5" d="M984.58,761.35h-8.11c1.35,0,1.35-34.76,2.7-34.76s1.36,23.16,2.71,23.16S983.23,761.35,984.58,761.35Z"/><path class="cls-5" d="M968.36,761.35H952.14c1.35,0,1.35-40.55,2.71-40.55s1.35-46.33,2.7-46.33,1.35-23.16,2.7-23.16,1.35,40.53,2.71,40.53,1.35,63.7,2.7,63.7S967,761.35,968.36,761.35Z"/><path class="cls-5" d="M946.72,761.35h-8.11c1.35,0,1.35-40.55,2.71-40.55s1.35,34.74,2.7,34.74S945.37,761.35,946.72,761.35Z"/><path class="cls-5" d="M938.61,761.35H925.1c1.35,0,1.35-23.18,2.7-23.18s1.35,17.36,2.7,17.37h2.71c1.35,0,1.35-17.37,2.7-17.37S937.26,761.35,938.61,761.35Z"/><path class="cls-5" d="M925.1,761.35h-5.41c1.35,0,1.35-86.88,2.7-86.88S923.75,761.35,925.1,761.35Z"/><path class="cls-5" d="M857.38,761.35h-8.11c1.35,0,1.35-5.81,2.7-5.81S853.32,715,854.68,715,856,761.35,857.38,761.35Z"/><path class="cls-5" d="M849.27,761.35h-5.41c1.35,0,1.35-46.34,2.71-46.34S847.92,761.35,849.27,761.35Z"/><path class="cls-5" d="M824.93,396.47c1.35,0,1.35,364.88,2.7,364.88h-5.41C823.58,761.35,823.58,396.47,824.93,396.47Z"/><path class="cls-5" d="M811.41,761.35H803.3c1.35,0,1.35-5.81,2.71-5.81s1.35-46.32,2.7-46.32S810.06,761.35,811.41,761.35Z"/><path class="cls-5" d="M800.6,761.35h-5.41c1.35,0,1.35-40.55,2.71-40.55S799.25,761.35,800.6,761.35Z"/><path class="cls-5" d="M735.7,761.35h-5.41c1.35,0,1.35-52.13,2.7-52.13S734.34,761.35,735.7,761.35Z"/><path class="cls-5" d="M633,761.35h-5.41c1.35,0,1.35-40.55,2.7-40.55S631.6,761.35,633,761.35Z"/><path class="cls-5" d="M600.5,761.35h-5.41c1.35,0,1.35-5.81,2.7-5.81S599.14,761.35,600.5,761.35Z"/><path class="cls-5" d="M530.19,761.35H519.37c1.35,0,1.35-17.39,2.71-17.39s1.35,5.79,2.7,5.79,1.35-133.2,2.7-133.2S528.83,761.35,530.19,761.35Z"/><path class="cls-5" d="M489.62,761.35h-5.4c1.35,0,1.35-104.25,2.7-104.25S488.27,761.35,489.62,761.35Z"/><path class="cls-5" d="M476.11,761.35H470.7c1.35,0,1.35-34.76,2.71-34.76S474.76,761.35,476.11,761.35Z"/><path class="cls-5" d="M454.47,761.35h-5.41c1.36,0,1.36-17.39,2.71-17.39S453.12,761.35,454.47,761.35Z"/><path class="cls-5" d="M462.59,761.35h-8.12c1.35,0,1.35-5.81,2.7-5.81S458.54,744,459.89,744,461.24,761.35,462.59,761.35Z"/><path class="cls-5" d="M427.44,761.35H416.61c1.37,0,1.37-5.81,2.72-5.81h5.4C426.09,755.54,426.09,761.35,427.44,761.35Z"/><path class="cls-5" d="M416.61,761.35H408.5c1.35,0,1.35-5.81,2.71-5.81s1.35-23.16,2.7-23.16S415.26,761.35,416.61,761.35Z"/><path class="cls-5" d="M384.17,761.35h-5.4c1.35,0,1.35-5.81,2.7-5.81S382.82,761.35,384.17,761.35Z"/><path class="cls-5" d="M359.83,761.35h-5.41c1.36,0,1.36-63.71,2.71-63.71S358.48,761.35,359.83,761.35Z"/><path class="cls-5" d="M378.77,761.35H365.24c1.35,0,1.35-34.76,2.7-34.76s1.35,17.37,2.7,17.37,1.36-52.12,2.71-52.12,1.35-11.58,2.71-11.58S377.42,761.35,378.77,761.35Z"/><path class="cls-5" d="M297.76,761.35h-5.41c1.35,0,1.35-34.76,2.7-34.76S296.4,761.35,297.76,761.35Z"/><path class="cls-5" d="M276.12,761.35h-5.41c1.35,0,1.35-5.81,2.7-5.81S274.77,761.35,276.12,761.35Z"/><path class="cls-5" d="M216.63,761.35h-5.4c1.35,0,1.35-40.55,2.7-40.55S215.28,761.35,216.63,761.35Z"/><path class="cls-5" d="M208.52,761.35H203.1c1.36,0,1.36-5.81,2.71-5.81S207.16,761.35,208.52,761.35Z"/><path class="cls-5" d="M200.41,761.35H195c1.36,0,1.36-11.6,2.71-11.6S199.05,761.35,200.41,761.35Z"/><path class="cls-5" d="M181.48,761.35h-8.11c1.35,0,1.35-34.76,2.7-34.76s1.35-40.54,2.71-40.54S180.13,761.35,181.48,761.35Z"/><path class="cls-5" d="M162.54,761.35H151.73c1.35,0,1.35-34.76,2.7-34.76s1.36-5.79,2.71-5.79,1.35-11.58,2.7-11.58S161.19,761.35,162.54,761.35Z"/><path class="cls-5" d="M127.4,761.35h-8.12c1.35,0,1.35-23.18,2.7-23.18s1.35,17.37,2.71,17.37S126.05,761.35,127.4,761.35Z"/><path class="cls-5" d="M111.17,761.35h-5.41c1.35,0,1.35-17.39,2.71-17.39S109.82,761.35,111.17,761.35Z"/><path class="cls-5" d="M103.06,761.35h-6.8s0,0,0,0V726.59c1.35,0,2.75,17.37,4.11,17.37S101.71,761.32,103.06,761.35Z"/><path class="cls-5" d="M1076.53,761.65H1065.7a.31.31,0,0,1-.3-.3.3.3,0,0,1,.3-.3h10.83a.29.29,0,0,1,.3.3A.3.3,0,0,1,1076.53,761.65Z"/><path class="cls-5" d="M1030.55,761.65h-27a.3.3,0,0,1-.3-.3.29.29,0,0,1,.3-.3h27a.3.3,0,0,1,.3.3A.31.31,0,0,1,1030.55,761.65Z"/><path class="cls-5" d="M998.11,761.65H992.7a.31.31,0,0,1-.3-.3.3.3,0,0,1,.3-.3h5.41a.29.29,0,0,1,.3.3A.3.3,0,0,1,998.11,761.65Z"/><path class="cls-5" d="M990,761.65H976.47a.31.31,0,0,1-.3-.3.3.3,0,0,1,.3-.3H990a.3.3,0,0,1,.3.3A.31.31,0,0,1,990,761.65Z"/><path class="cls-5" d="M968.36,761.65H952.14a.31.31,0,0,1-.3-.3.3.3,0,0,1,.3-.3h16.22a.29.29,0,0,1,.3.3A.3.3,0,0,1,968.36,761.65Z"/><path class="cls-5" d="M946.72,761.65h-27a.3.3,0,0,1-.3-.3.29.29,0,0,1,.3-.3h27a.29.29,0,0,1,.3.3A.3.3,0,0,1,946.72,761.65Z"/><path class="cls-5" d="M857.38,761.65H843.86a.31.31,0,0,1-.3-.3.3.3,0,0,1,.3-.3h13.52a.29.29,0,0,1,.3.3A.3.3,0,0,1,857.38,761.65Z"/><path class="cls-5" d="M827.63,761.65h-5.41a.31.31,0,0,1-.3-.3.3.3,0,0,1,.3-.3h5.41a.29.29,0,0,1,.3.3A.3.3,0,0,1,827.63,761.65Z"/><path class="cls-5" d="M811.41,761.65H803.3a.31.31,0,0,1-.3-.3.3.3,0,0,1,.3-.3h8.11a.29.29,0,0,1,.3.3A.3.3,0,0,1,811.41,761.65Z"/><path class="cls-5" d="M800.6,761.65h-5.41a.31.31,0,0,1-.3-.3.3.3,0,0,1,.3-.3h5.41a.3.3,0,0,1,.3.3A.31.31,0,0,1,800.6,761.65Z"/><path class="cls-5" d="M735.7,761.65h-5.41a.3.3,0,0,1-.3-.3.29.29,0,0,1,.3-.3h5.41a.3.3,0,0,1,.3.3A.31.31,0,0,1,735.7,761.65Z"/><path class="cls-5" d="M633,761.65h-5.41a.3.3,0,0,1-.3-.3.29.29,0,0,1,.3-.3H633a.3.3,0,0,1,.3.3A.31.31,0,0,1,633,761.65Z"/><path class="cls-5" d="M600.5,761.65h-5.41a.3.3,0,0,1-.3-.3.29.29,0,0,1,.3-.3h5.41a.3.3,0,0,1,.3.3A.31.31,0,0,1,600.5,761.65Z"/><path class="cls-5" d="M530.19,761.65H519.37a.31.31,0,0,1-.3-.3.3.3,0,0,1,.3-.3h10.82a.3.3,0,0,1,.3.3A.31.31,0,0,1,530.19,761.65Z"/><path class="cls-5" d="M489.62,761.65h-5.4a.3.3,0,0,1-.3-.3.29.29,0,0,1,.3-.3h5.4a.29.29,0,0,1,.3.3A.3.3,0,0,1,489.62,761.65Z"/><path class="cls-5" d="M476.11,761.65H470.7a.31.31,0,0,1-.3-.3.3.3,0,0,1,.3-.3h5.41a.29.29,0,0,1,.3.3A.3.3,0,0,1,476.11,761.65Z"/><path class="cls-5" d="M462.59,761.65H449.06a.31.31,0,0,1-.3-.3.3.3,0,0,1,.3-.3h13.53a.29.29,0,0,1,.3.3A.3.3,0,0,1,462.59,761.65Z"/><path class="cls-5" d="M427.44,761.65H408.5a.31.31,0,0,1-.3-.3.3.3,0,0,1,.3-.3h18.94a.3.3,0,0,1,.3.3A.31.31,0,0,1,427.44,761.65Z"/><path class="cls-5" d="M384.17,761.65H365.24a.3.3,0,0,1-.3-.3.29.29,0,0,1,.3-.3h18.93a.29.29,0,0,1,.3.3A.3.3,0,0,1,384.17,761.65Z"/><path class="cls-5" d="M359.83,761.65h-5.4a.3.3,0,0,1-.3-.3.29.29,0,0,1,.3-.3h5.4a.29.29,0,0,1,.3.3A.3.3,0,0,1,359.83,761.65Z"/><path class="cls-5" d="M297.76,761.65h-5.41a.3.3,0,0,1-.3-.3.29.29,0,0,1,.3-.3h5.41a.3.3,0,0,1,.3.3A.31.31,0,0,1,297.76,761.65Z"/><path class="cls-5" d="M276.12,761.65h-5.41a.3.3,0,0,1-.3-.3.29.29,0,0,1,.3-.3h5.41a.3.3,0,0,1,.3.3A.31.31,0,0,1,276.12,761.65Z"/><path class="cls-5" d="M216.63,761.65h-5.4a.3.3,0,0,1-.3-.3.29.29,0,0,1,.3-.3h5.4a.29.29,0,0,1,.3.3A.3.3,0,0,1,216.63,761.65Z"/><path class="cls-5" d="M208.52,761.65H195a.3.3,0,0,1-.29-.3.29.29,0,0,1,.29-.3h13.53a.29.29,0,0,1,.3.3A.3.3,0,0,1,208.52,761.65Z"/><path class="cls-5" d="M181.48,761.65h-8.11a.3.3,0,0,1-.3-.3.29.29,0,0,1,.3-.3h8.11a.3.3,0,0,1,.3.3A.31.31,0,0,1,181.48,761.65Z"/><path class="cls-5" d="M162.54,761.65H151.73a.3.3,0,0,1-.3-.3.29.29,0,0,1,.3-.3h10.81a.29.29,0,0,1,.3.3A.3.3,0,0,1,162.54,761.65Z"/><path class="cls-5" d="M127.4,761.65h-8.12a.3.3,0,0,1-.3-.3.29.29,0,0,1,.3-.3h8.12a.29.29,0,0,1,.3.3A.3.3,0,0,1,127.4,761.65Z"/><path class="cls-5" d="M111.17,761.65h-5.41a.31.31,0,0,1-.3-.3.3.3,0,0,1,.3-.3h5.41a.29.29,0,0,1,.3.3A.3.3,0,0,1,111.17,761.65Z"/><path class="cls-5" d="M103.06,761.65H96l0-.33v-35h.3c.81,0,1.25,2,2.35,8.94.54,3.41,1.28,8.08,1.81,8.45h0c.77,0,1,2,1.59,9,.26,3.39.62,8,1.12,8.44Zm-6.51-.6h5.9c-.41-1-.66-3.46-1-8.38-.26-3.38-.63-8-1.12-8.43h0c-.74,0-1.18-2-2.27-8.92a75.8,75.8,0,0,0-1.46-7.7Z"/><path class="cls-5" d="M105.76,761.65h-2.7a.3.3,0,0,1-.3-.3.29.29,0,0,1,.3-.3h2.7a.29.29,0,0,1,.3.3A.3.3,0,0,1,105.76,761.65Z"/><path class="cls-5" d="M105.76,761.65a.31.31,0,0,1-.3-.3.3.3,0,0,1,.3-.3c.43-.39.79-5,1-8.42.55-7,.83-9,1.66-9s1.11,2,1.65,9c.26,3.39.62,8,1.12,8.44a.26.26,0,0,1,.26.29.32.32,0,0,1-.33.29c-.83,0-1.11-2-1.65-9-.25-3.23-.59-7.6-1-8.35-.47.75-.81,5.11-1.06,8.34-.54,6.94-.82,9-1.64,9Z"/><path class="cls-5" d="M119.28,761.65h-8.11a.3.3,0,0,1-.3-.3.29.29,0,0,1,.3-.3h8.11a.29.29,0,0,1,.3.3A.3.3,0,0,1,119.28,761.65Z"/><path class="cls-5" d="M127.4,761.65c-.91,0-1.25-1.45-1.64-3.12-.25-1.07-.63-2.69-1.07-2.69-.83,0-1.12-2-1.66-9-.24-3.18-.58-7.47-1-8.31-.48,1-.82,6.88-1.07,11.21-.58,9.87-.85,11.87-1.65,11.87a.3.3,0,0,1-.3-.3.29.29,0,0,1,.22-.29c.51-.66.87-6.81,1.13-11.32.58-9.87.85-11.87,1.65-11.87s1.11,2,1.65,9c.27,3.38.63,8,1.12,8.42h0c.84,0,1.18,1.45,1.57,3.13.25,1.06.62,2.66,1.06,2.66a.29.29,0,0,1,.3.3A.3.3,0,0,1,127.4,761.65Z"/><path class="cls-5" d="M151.73,761.65H127.4a.31.31,0,0,1-.3-.3.3.3,0,0,1,.3-.3h24.33a.29.29,0,0,1,.3.3A.3.3,0,0,1,151.73,761.65Z"/><path class="cls-5" d="M162.54,761.65c-.77,0-1-2.59-1.65-26.36-.29-11.2-.61-23.82-1.15-25.67-.39.62-.73,3.48-1,5.42-.51,4.31-.8,6.06-1.65,6.06-.44,0-.82,1.6-1.06,2.66-.38,1.61-.71,3-1.54,3.12-.53,1-.88,9.91-1.16,17.1-.58,14.86-.84,17.67-1.65,17.67a.3.3,0,0,1-.3-.3.31.31,0,0,1,.18-.28c.54-.89.89-9.88,1.17-17.11.58-14.86.84-17.67,1.65-17.67.44,0,.81-1.6,1.06-2.66.39-1.68.73-3.13,1.65-3.13.43-.23.81-3.42,1.05-5.53.5-4.3.79-6.05,1.65-6.05s1,2.59,1.65,26.36c.3,11.56.64,24.66,1.21,25.81a.31.31,0,0,1,.14.26A.3.3,0,0,1,162.54,761.65Z"/><path class="cls-5" d="M173.37,761.65H162.54a.31.31,0,0,1-.3-.3.3.3,0,0,1,.3-.3h10.83a.3.3,0,0,1,.3.3A.31.31,0,0,1,173.37,761.65Z"/><path class="cls-5" d="M181.48,761.65c-.78,0-1-3.73-1.65-37.94-.28-15.5-.59-32.88-1.1-36.72-.45,2.63-.75,11.8-1,19.34-.57,17.18-.85,20.26-1.53,20.54-.54.91-.89,9.88-1.17,17.11-.58,14.86-.84,17.67-1.65,17.67a.3.3,0,0,1-.3-.3.31.31,0,0,1,.18-.28c.54-.89.89-9.88,1.17-17.11.55-14,.81-17.32,1.52-17.64.55-1,.9-11.53,1.18-20,.61-18.14.88-20.56,1.66-20.56s1,3.73,1.65,38c.3,16.88.64,36,1.23,37.41a.3.3,0,0,1,.12.24A.31.31,0,0,1,181.48,761.65Zm0-.6"/><path class="cls-5" d="M195,761.65H181.48a.3.3,0,0,1-.3-.3.29.29,0,0,1,.3-.3H195a.29.29,0,0,1,.3.3A.3.3,0,0,1,195,761.65Z"/><path class="cls-5" d="M208.52,761.65c-.92,0-1.26-1.46-1.65-3.14-.25-1.06-.63-2.67-1.06-2.67s-.81,1.61-1.06,2.67c-.39,1.69-.73,3.14-1.64,3.14h-2.69c-.87,0-1.16-1.76-1.67-6.08-.25-2.11-.62-5.28-1.07-5.52-.42.24-.79,3.43-1,5.54-.5,4.3-.79,6.06-1.65,6.06a.3.3,0,0,1-.29-.3.29.29,0,0,1,.29-.3c.44-.23.81-3.42,1.06-5.53.5-4.31.79-6.07,1.65-6.07s1.14,1.75,1.65,6c.25,2.12.62,5.32,1.08,5.55h2.71c.4,0,.78-1.61,1-2.67.4-1.68.73-3.13,1.65-3.13s1.25,1.44,1.64,3.12c.25,1.07.63,2.68,1.07,2.68a.29.29,0,0,1,.3.3A.3.3,0,0,1,208.52,761.65Z"/><path class="cls-5" d="M211.23,761.65h-2.71a.31.31,0,0,1-.3-.3.3.3,0,0,1,.3-.3h2.71a.3.3,0,0,1,.3.3A.31.31,0,0,1,211.23,761.65Z"/><path class="cls-5" d="M216.63,761.65c-.77,0-1-2.42-1.65-20.57-.26-7.78-.57-17.28-1-19.57-.48,2.29-.79,11.79-1.05,19.57-.61,18.15-.88,20.57-1.65,20.57a.3.3,0,0,1-.3-.3.29.29,0,0,1,.16-.27c.56-1,.91-11.53,1.19-20,.6-18.14.88-20.56,1.65-20.56s1,2.42,1.65,20.56c.28,8.49.64,19,1.19,20a.29.29,0,0,1,.16.27A.3.3,0,0,1,216.63,761.65Z"/><path class="cls-5" d="M270.71,761.65H216.63a.31.31,0,0,1-.3-.3.3.3,0,0,1,.3-.3h54.08a.29.29,0,0,1,.3.3A.3.3,0,0,1,270.71,761.65Z"/><path class="cls-5" d="M276.12,761.65c-.92,0-1.26-1.45-1.65-3.14-.24-1.06-.62-2.67-1.06-2.67s-.81,1.61-1.06,2.67c-.39,1.69-.73,3.14-1.64,3.14a.3.3,0,0,1-.3-.3.29.29,0,0,1,.3-.3c.44,0,.81-1.61,1.06-2.67.39-1.68.73-3.13,1.64-3.13s1.26,1.45,1.65,3.13c.25,1.06.62,2.67,1.06,2.67a.3.3,0,0,1,.3.3A.31.31,0,0,1,276.12,761.65Z"/><path class="cls-5" d="M292.35,761.65H276.12a.3.3,0,0,1-.3-.3.29.29,0,0,1,.3-.3h16.23a.29.29,0,0,1,.3.3A.3.3,0,0,1,292.35,761.65Z"/><path class="cls-5" d="M297.76,761.65c-.82,0-1.08-2.81-1.66-17.67-.26-6.69-.57-14.87-1.05-16.78-.47,1.91-.79,10.09-1.05,16.78-.58,14.86-.84,17.67-1.65,17.67a.3.3,0,0,1-.3-.3.31.31,0,0,1,.18-.28c.54-.89.89-9.88,1.17-17.11.58-14.86.84-17.67,1.65-17.67s1.08,2.81,1.65,17.67c.29,7.23.63,16.22,1.18,17.11a.33.33,0,0,1,.18.28A.31.31,0,0,1,297.76,761.65Z"/><path class="cls-5" d="M354.43,761.65H297.76a.3.3,0,0,1-.3-.3.29.29,0,0,1,.3-.3h56.67a.3.3,0,0,1,.3.3A.31.31,0,0,1,354.43,761.65Z"/><path class="cls-5" d="M359.83,761.65c-.77,0-1-3.16-1.65-32.15-.27-12.77-.57-27.06-1.05-30.78-.48,3.72-.78,18-1.05,30.78-.62,29-.88,32.15-1.65,32.15a.3.3,0,0,1-.17-.55c.57-1.29.92-17.39,1.22-31.61.61-29,.88-32.15,1.65-32.15s1,3.15,1.65,32.15c.3,14.22.64,30.32,1.22,31.61a.3.3,0,0,1-.17.55Z"/><path class="cls-5" d="M365.24,761.65h-5.41a.31.31,0,0,1-.3-.3.3.3,0,0,1,.3-.3h5.41a.3.3,0,0,1,.3.3A.31.31,0,0,1,365.24,761.65Z"/><path class="cls-5" d="M384.17,761.65c-.91,0-1.25-1.45-1.64-3.14-.25-1.06-.62-2.67-1.06-2.67s-.81,1.61-1.06,2.68c-.39,1.68-.73,3.13-1.64,3.13s-1-4-1.66-40.84c-.29-17.6-.62-37.45-1.17-40.1-.39.69-.72,3.49-.94,5.4-.48,4-.76,5.82-1.51,6-.56,1.3-.9,14.29-1.19,25.78-.62,23.76-.88,26.35-1.66,26.35s-1.11-2-1.65-9c-.24-3.12-.56-7.31-1-8.26-.5,1.55-.83,10-1.1,16.94-.58,14.86-.84,17.67-1.65,17.67a.3.3,0,0,1-.3-.3.31.31,0,0,1,.18-.28c.54-.89.89-9.88,1.17-17.11.58-14.86.84-17.67,1.65-17.67s1.11,2,1.65,9c.24,3.06.56,7.14,1,8.2.52-2.18.84-14.56,1.13-25.55.61-23.77.87-26.35,1.65-26.35.43-.24.8-3.41,1-5.51.51-4.32.8-6.08,1.66-6.08s1,4,1.65,40.84c.3,17.81.64,37.93,1.2,40.19a6.93,6.93,0,0,0,.92-2.61c.39-1.68.73-3.13,1.64-3.13s1.25,1.45,1.64,3.13c.25,1.06.63,2.67,1.06,2.67a.29.29,0,0,1,.3.3A.3.3,0,0,1,384.17,761.65Z"/><path class="cls-5" d="M408.5,761.65H384.17a.31.31,0,0,1-.3-.3.3.3,0,0,1,.3-.3H408.5a.29.29,0,0,1,.3.3A.3.3,0,0,1,408.5,761.65Z"/><path class="cls-5" d="M427.44,761.65c-.92,0-1.25-1.45-1.65-3.14-.24-1.06-.62-2.67-1.06-2.67h-5.4c-.44,0-.81,1.61-1.06,2.66-.4,1.69-.74,3.15-1.66,3.15s-1.07-2.35-1.65-14.77c-.26-5.65-.59-12.59-1.07-14-.46,1.24-.79,6.9-1,11.12-.58,9.87-.86,11.86-1.65,11.86-.44,0-.82,1.61-1.06,2.67-.4,1.69-.73,3.14-1.65,3.14a.31.31,0,0,1-.3-.3.3.3,0,0,1,.3-.3c.44,0,.81-1.61,1.06-2.67.38-1.64.71-3,1.57-3.13.51-.69.87-6.82,1.13-11.3.57-9.87.85-11.87,1.65-11.87s1.07,2.35,1.65,14.77c.28,5.91.62,13.23,1.13,14.18.41-.18.76-1.66,1-2.66.39-1.68.73-3.12,1.64-3.12h5.4c.92,0,1.26,1.45,1.65,3.13.25,1.06.62,2.67,1.06,2.67a.3.3,0,0,1,.3.3A.31.31,0,0,1,427.44,761.65Z"/><path class="cls-5" d="M449.06,761.65H427.44a.3.3,0,0,1-.3-.3.29.29,0,0,1,.3-.3h21.62a.29.29,0,0,1,.3.3A.3.3,0,0,1,449.06,761.65Z"/><path class="cls-5" d="M462.59,761.65c-.83,0-1.11-2-1.65-9-.25-3.29-.6-7.75-1.07-8.39-.44.42-.8,3.45-1,5.48-.51,4.32-.8,6.07-1.67,6.07-.43,0-.81,1.61-1.06,2.67-.39,1.69-.73,3.14-1.64,3.14s-1.11-2-1.65-9c-.25-3.23-.59-7.6-1.05-8.35-.46.75-.8,5.12-1.06,8.35-.54,7-.82,9-1.65,9a.31.31,0,0,1-.3-.3.3.3,0,0,1,.3-.3c.43-.39.79-5,1.06-8.42.54-7,.82-9,1.65-9s1.11,2,1.65,9c.26,3.39.62,8,1.12,8.44.37,0,.74-1.63,1-2.69.39-1.68.73-3.13,1.64-3.13.45-.23.82-3.43,1.07-5.55.5-4.29.79-6,1.65-6s1.11,2,1.65,9c.26,3.39.62,8,1.12,8.44a.26.26,0,0,1,.27.29A.33.33,0,0,1,462.59,761.65Z"/><path class="cls-5" d="M470.7,761.65h-8.11a.31.31,0,0,1-.3-.3.3.3,0,0,1,.3-.3h8.11a.29.29,0,0,1,.3.3A.3.3,0,0,1,470.7,761.65Z"/><path class="cls-5" d="M476.11,761.65c-.81,0-1.07-2.81-1.65-17.66-.26-6.69-.58-14.88-1.06-16.79-.47,1.91-.79,10.09-1,16.78-.57,14.86-.84,17.67-1.65,17.67a.31.31,0,0,1-.3-.3.33.33,0,0,1,.18-.28c.54-.89.89-9.88,1.17-17.11.58-14.86.84-17.67,1.65-17.67s1.08,2.81,1.66,17.67c.28,7.24.63,16.22,1.17,17.11a.33.33,0,0,1,.18.28A.3.3,0,0,1,476.11,761.65Z"/><path class="cls-5" d="M484.22,761.65h-8.11a.3.3,0,0,1-.3-.3.29.29,0,0,1,.3-.3h8.11a.3.3,0,0,1,.3.3A.31.31,0,0,1,484.22,761.65Z"/><path class="cls-5" d="M489.62,761.65c-.46,0-.74,0-1.1-16.58-.21-9.78-.38-23-.55-35.84-.27-20.8-.57-44-1.05-50.33-.48,6.31-.78,29.53-1.05,50.33-.17,12.81-.34,26.06-.55,35.84-.36,16.58-.64,16.58-1.1,16.58a.3.3,0,0,1-.3-.3.29.29,0,0,1,.1-.22c.6-1.68.94-28.35,1.25-51.91.17-12.81.34-26.06.55-35.84.36-16.58.64-16.58,1.1-16.58s.75,0,1.1,16.58c.22,9.78.39,23,.55,35.84.31,23.56.65,50.23,1.26,51.91a.28.28,0,0,1,.09.22A.3.3,0,0,1,489.62,761.65Zm0-.6Zm-5.41,0Zm5.4,0h0Zm-5.4,0Z"/><path class="cls-5" d="M519.37,761.65H489.62a.31.31,0,0,1-.3-.3.3.3,0,0,1,.3-.3h29.75a.29.29,0,0,1,.3.3A.3.3,0,0,1,519.37,761.65Z"/><path class="cls-5" d="M530.19,761.65c-.47,0-.75,0-1.11-22.92-.21-13.58-.38-32-.55-49.78-.27-28.92-.57-61.21-1-70-.48,8.32-.78,37.78-1.05,64.19-.65,63.85-.91,66.89-1.65,66.89-.91,0-1.25-1.45-1.64-3.12-.25-1.06-.63-2.67-1.06-2.67-.43.39-.79,5-1.06,8.42-.54,7-.82,9-1.65,9a.31.31,0,0,1-.3-.3.3.3,0,0,1,.3-.3c.43-.39.79-5,1.06-8.42.54-7,.82-9,1.65-9s1.25,1.45,1.64,3.13a7.22,7.22,0,0,0,.89,2.58c.58-3.24.92-36.64,1.22-66.22.65-63.85.91-66.9,1.65-66.9.47,0,.75,0,1.11,22.92.21,13.58.38,32,.54,49.78.31,32.93.66,70.24,1.28,72.19a.32.32,0,0,1,.08.21A.31.31,0,0,1,530.19,761.65Z"/><path class="cls-5" d="M595.09,761.65h-64.9a.3.3,0,0,1-.3-.3.29.29,0,0,1,.3-.3h64.9a.29.29,0,0,1,.3.3A.3.3,0,0,1,595.09,761.65Z"/><path class="cls-5" d="M600.5,761.65c-.92,0-1.26-1.45-1.65-3.14-.25-1.06-.62-2.67-1.06-2.67s-.81,1.61-1.06,2.67c-.39,1.69-.73,3.14-1.64,3.14a.3.3,0,0,1-.3-.3.29.29,0,0,1,.3-.3c.44,0,.81-1.61,1.06-2.67.39-1.68.73-3.13,1.64-3.13s1.25,1.45,1.65,3.13c.24,1.06.62,2.67,1.06,2.67a.3.3,0,0,1,.3.3A.31.31,0,0,1,600.5,761.65Z"/><path class="cls-5" d="M627.54,761.65h-27a.3.3,0,0,1-.3-.3.29.29,0,0,1,.3-.3h27a.29.29,0,0,1,.3.3A.3.3,0,0,1,627.54,761.65Z"/><path class="cls-5" d="M633,761.65c-.77,0-1.05-2.42-1.65-20.57-.26-7.78-.58-17.28-1.06-19.57-.47,2.29-.79,11.79-1,19.57-.6,18.15-.88,20.57-1.65,20.57a.3.3,0,0,1-.13-.57c.55-1,.9-11.53,1.18-20,.61-18.14.88-20.56,1.65-20.56s1,2.42,1.66,20.56c.28,8.49.63,19,1.18,20a.3.3,0,0,1,.17.27A.31.31,0,0,1,633,761.65Z"/><path class="cls-5" d="M730.29,761.65H633a.3.3,0,0,1-.3-.3.29.29,0,0,1,.3-.3h97.34a.3.3,0,0,1,.3.3A.31.31,0,0,1,730.29,761.65Z"/><path class="cls-5" d="M735.7,761.65c-.78,0-1-2.59-1.66-26.35-.27-10.48-.57-22.22-1-25.19-.47,3-.78,14.7-1,25.18-.62,23.77-.88,26.36-1.65,26.36a.3.3,0,0,1-.3-.3.31.31,0,0,1,.14-.26c.57-1.15.91-14.25,1.21-25.81.62-23.77.88-26.36,1.65-26.36s1,2.59,1.65,26.36c.3,11.57.64,24.66,1.21,25.81a.3.3,0,0,1,.15.26A.31.31,0,0,1,735.7,761.65Z"/><path class="cls-5" d="M795.19,761.65H735.7a.3.3,0,0,1-.3-.3.29.29,0,0,1,.3-.3h59.49a.29.29,0,0,1,.3.3A.3.3,0,0,1,795.19,761.65Z"/><path class="cls-5" d="M800.6,761.65c-.77,0-1.05-2.42-1.65-20.57-.26-7.78-.58-17.28-1.05-19.57-.48,2.29-.8,11.79-1.06,19.57-.6,18.15-.88,20.57-1.65,20.57a.31.31,0,0,1-.3-.3.3.3,0,0,1,.17-.27c.55-1,.9-11.53,1.18-20,.61-18.14.88-20.56,1.66-20.56s1,2.42,1.65,20.56c.28,8.49.63,19,1.18,20a.3.3,0,0,1,.17.27A.31.31,0,0,1,800.6,761.65Z"/><path class="cls-5" d="M803.3,761.65h-2.7a.3.3,0,0,1-.3-.3.29.29,0,0,1,.3-.3h2.7a.29.29,0,0,1,.3.3A.3.3,0,0,1,803.3,761.65Z"/><path class="cls-5" d="M811.41,761.65c-.77,0-1-2.59-1.65-26.36-.27-10.53-.58-22.33-1.06-25.23-.47,2.75-.79,13.5-1,22.32-.62,21.16-.88,23.46-1.66,23.46-.43,0-.81,1.61-1,2.67-.4,1.69-.73,3.14-1.65,3.14a.31.31,0,0,1-.3-.3.3.3,0,0,1,.3-.3c.44,0,.81-1.61,1.06-2.67.37-1.6.7-3,1.51-3.12.56-1.24.91-13.23,1.19-22.89.61-21.15.88-23.45,1.65-23.45s1,2.59,1.65,26.36c.3,11.56.64,24.66,1.21,25.81a.31.31,0,0,1,.14.26A.3.3,0,0,1,811.41,761.65Z"/><path class="cls-5" d="M822.22,761.65H811.41a.31.31,0,0,1-.3-.3.3.3,0,0,1,.3-.3h10.81a.29.29,0,0,1,.3.3A.3.3,0,0,1,822.22,761.65Z"/><path class="cls-5" d="M827.63,761.65c-.42,0-.54,0-.75-16-.12-9.4-.24-22.93-.35-41.35-.21-34.22-.38-80.6-.55-125.46-.28-75.72-.57-153.66-1.05-176-.48,22.32-.77,100.28-1,176-.17,44.85-.34,91.22-.55,125.43-.12,18.41-.23,31.93-.36,41.33-.21,16-.32,16-.75,16a.31.31,0,0,1-.3-.3.3.3,0,0,1,.05-.16c.64-2.87,1-94.07,1.31-182.28.16-44.85.33-91.22.54-125.43.12-18.41.23-31.93.36-41.33.21-16,.32-16,.75-16s.53,0,.75,16c.12,9.4.24,22.91.35,41.32.21,34.2.38,80.56.55,125.4.33,88.23.66,179.46,1.31,182.33a.42.42,0,0,1,0,.16A.3.3,0,0,1,827.63,761.65Z"/><path class="cls-5" d="M843.86,761.65H827.63a.31.31,0,0,1-.3-.3.3.3,0,0,1,.3-.3h16.23a.29.29,0,0,1,.3.3A.3.3,0,0,1,843.86,761.65Z"/><path class="cls-5" d="M857.38,761.65c-.77,0-1-2.31-1.65-23.46-.26-8.93-.58-19.84-1.06-22.43-.47,2.37-.79,11.8-1,19.53-.6,18.14-.88,20.55-1.65,20.55-.44,0-.81,1.61-1.06,2.67-.39,1.69-.73,3.14-1.64,3.14s-1-2.31-1.65-23.46c-.26-8.87-.58-19.7-1-22.38-.48,2.68-.8,13.51-1.06,22.38-.61,21.15-.88,23.46-1.65,23.46a.31.31,0,0,1-.3-.3.3.3,0,0,1,.16-.26c.56-1.09.91-13.18,1.19-22.92.62-21.16.88-23.46,1.66-23.46s1,2.3,1.65,23.46c.28,9.56.62,21.38,1.16,22.84.39-.24.72-1.66,1-2.63.37-1.61.7-3,1.52-3.13.55-1.11.89-11.56,1.17-20,.61-18.14.88-20.56,1.66-20.56s1,2.3,1.65,23.46c.28,9.74.63,21.83,1.19,22.92a.28.28,0,0,1,.16.26A.3.3,0,0,1,857.38,761.65Z"/><path class="cls-5" d="M919.69,761.65H857.38a.3.3,0,0,1-.3-.3.29.29,0,0,1,.3-.3h62.31a.29.29,0,0,1,.3.3A.3.3,0,0,1,919.69,761.65Z"/><path class="cls-5" d="M946.72,761.65c-.91,0-1.25-1.45-1.64-3.14-.25-1.06-.62-2.67-1.06-2.67-.81,0-1.07-2.8-1.65-17.66-.26-6.63-.57-14.74-1-16.72-.48,2.2-.8,11.79-1.07,19.63-.6,18.14-.88,20.56-1.65,20.56s-1.07-2-1.65-11.87c-.25-4.39-.6-10.35-1.09-11.26-.41.64-.76,5.08-1,8.36-.54,6.94-.82,9-1.65,9H930.5c-.83,0-1.11-2-1.65-9-.24-3.18-.58-7.47-1-8.31-.48,1-.82,6.88-1.07,11.21-.58,9.87-.85,11.87-1.65,11.87s-1-4.3-1.65-43.74c-.27-17.35-.58-36.74-1.06-41.95-.48,5.2-.78,24.59-1,41.94-.61,39.45-.87,43.75-1.65,43.75a.3.3,0,0,1-.3-.3.27.27,0,0,1,.11-.23c.59-1.53.94-23.67,1.24-43.23.62-39.42.88-43.72,1.65-43.72s1,4.3,1.66,43.74c.28,18.39.6,39.06,1.14,42.72.42-1.61.73-6.89,1-10.89.58-9.87.85-11.87,1.65-11.87s1.11,2,1.65,9c.26,3.39.63,8,1.12,8.43h2.64c.42-.39.79-5,1-8.42.54-6.94.82-9,1.65-9s1.08,2,1.65,11.87c.24,4.15.57,9.7,1,11.06.49-2,.82-11.75,1.08-19.73.61-18.15.88-20.57,1.66-20.57s1.07,2.81,1.65,17.66c.28,7.19.62,16.1,1.16,17.09.83.11,1.16,1.52,1.53,3.13.25,1.06.63,2.67,1.06,2.67a.29.29,0,0,1,.3.3A.3.3,0,0,1,946.72,761.65Zm-27-.6Z"/><path class="cls-5" d="M952.14,761.65h-5.42a.31.31,0,0,1-.3-.3.3.3,0,0,1,.3-.3h5.42a.29.29,0,0,1,.3.3A.3.3,0,0,1,952.14,761.65Z"/><path class="cls-5" d="M968.36,761.65c-.91,0-1.25-1.45-1.64-3.14-.25-1.06-.62-2.67-1.06-2.67-.78,0-1-3.15-1.65-32.14-.31-14.2-.65-30.27-1.22-31.6-.65-.41-.93-3.75-1.49-20.51-.26-8-.59-17.78-1.09-19.74-.44,1.36-.77,6.91-1,11.06-.54,9.28-.82,11.59-1.51,11.84-.56,1.17-.91,13.2-1.19,22.89-.58,19.91-.85,23.12-1.52,23.43-.55,1-.9,11.54-1.19,20-.6,18.15-.88,20.57-1.65,20.57a.31.31,0,0,1-.3-.3.3.3,0,0,1,.17-.27c.55-1,.9-11.53,1.18-20,.57-17,.85-20.18,1.51-20.53.56-1.1.91-13.18,1.2-22.9.59-20.41.86-23.27,1.57-23.45.51-.66.87-6.81,1.13-11.31.58-9.87.85-11.86,1.65-11.86s1,2.42,1.65,20.56c.29,8.52.64,19.1,1.2,20,.66.46.93,4.94,1.51,32.1.29,14.09.63,30,1.2,31.57.8.16,1.12,1.54,1.49,3.12.25,1.06.62,2.67,1.06,2.67a.29.29,0,0,1,.3.3A.3.3,0,0,1,968.36,761.65Zm-16.22-.6Zm2.71-39.95Zm0-.6h0Zm8.1-28.36Z"/><path class="cls-5" d="M976.47,761.65h-8.11a.31.31,0,0,1-.3-.3.3.3,0,0,1,.3-.3h8.11a.29.29,0,0,1,.3.3A.3.3,0,0,1,976.47,761.65Z"/><path class="cls-5" d="M990,761.65c-.77,0-1-2.87-1.65-29.25-.27-11.63-.58-24.64-1.06-28-.47,3.35-.78,16.36-1,28-.61,26.38-.88,29.26-1.65,29.26s-1.15-1.76-1.65-6.06c-.24-2.11-.62-5.3-1.07-5.54h0c-.77,0-1.05-2-1.62-11.86-.25-4.18-.57-9.78-1-11.09-.49,1.7-.81,10.07-1.08,16.88-.58,14.86-.84,17.67-1.65,17.67a.31.31,0,0,1-.3-.3.33.33,0,0,1,.18-.28c.54-.89.89-9.88,1.17-17.11.58-14.86.84-17.67,1.65-17.67s1.08,2,1.66,11.86c.26,4.5.62,10.62,1.12,11.31.8.1,1.09,1.88,1.58,6.06.22,1.91.55,4.72,1,5.39.54-2.08.86-16.09,1.15-28.53.62-26.38.88-29.25,1.65-29.25s1,2.87,1.66,29.26c.3,12.89.64,27.48,1.21,28.71a.29.29,0,0,1,.14.25A.31.31,0,0,1,990,761.65Z"/><path class="cls-5" d="M992.7,761.65H990a.3.3,0,0,1-.3-.3.29.29,0,0,1,.3-.3h2.71a.29.29,0,0,1,.3.3A.3.3,0,0,1,992.7,761.65Z"/><path class="cls-5" d="M998.11,761.65c-.91,0-1.25-1.45-1.64-3.14-.25-1.06-.63-2.67-1.06-2.67s-.81,1.61-1.06,2.67c-.39,1.69-.73,3.14-1.65,3.14a.31.31,0,0,1-.3-.3.3.3,0,0,1,.3-.3c.44,0,.82-1.61,1.06-2.67.39-1.68.73-3.13,1.65-3.13s1.25,1.45,1.64,3.13c.25,1.06.62,2.67,1.06,2.67a.29.29,0,0,1,.3.3A.3.3,0,0,1,998.11,761.65Z"/><path class="cls-5" d="M1003.52,761.65h-5.41a.3.3,0,0,1-.3-.3.29.29,0,0,1,.3-.3h5.41a.3.3,0,0,1,.3.3A.31.31,0,0,1,1003.52,761.65Z"/><path class="cls-5" d="M1030.55,761.65c-.81,0-1.07-2.81-1.65-17.67-.26-6.69-.58-14.87-1.05-16.78-.48,1.91-.8,10.09-1.06,16.78-.57,14.86-.84,17.67-1.65,17.67s-1.07-2.35-1.65-14.77c-.26-5.59-.58-12.44-1-14-.46,1.53-.79,8.35-1.05,13.92-.58,12.46-.84,14.82-1.65,14.82a.39.39,0,0,1-.2,0h-2.38a.45.45,0,0,1-.37,0c-.68-.4-.95-3-1.41-8.89-.25-3.23-.59-7.6-1-8.35-.46.75-.8,5.12-1.05,8.35-.54,7-.83,9-1.65,9s-1-2.42-1.66-20.57c-.27-8.18-.61-18.27-1.12-19.87-.4.82-.73,5.11-1,8.3-.52,6.72-.8,8.83-1.57,9-.51.68-.87,6.81-1.13,11.31-.58,9.87-.86,11.87-1.65,11.87a.3.3,0,0,1-.3-.3.29.29,0,0,1,.22-.29c.51-.66.87-6.81,1.13-11.32.57-9.87.85-11.87,1.65-11.87.43-.38.79-5,1-8.41.54-6.94.82-9,1.65-9s1.05,2.42,1.65,20.56c.28,8.19.61,18.27,1.13,19.88.4-.82.73-5.12,1-8.31.54-7,.82-9,1.65-9s1.11,2,1.65,9c.26,3.31.61,7.81,1.09,8.39h2.6c.51-1.08.85-8.33,1.12-14.2.59-12.38.85-14.72,1.65-14.72s1.07,2.35,1.65,14.77c.26,5.55.58,12.33,1,13.93.48-1.81.8-10.08,1.06-16.82.58-14.86.84-17.67,1.66-17.67s1.07,2.81,1.65,17.67c.28,7.23.63,16.22,1.17,17.11a.33.33,0,0,1,.18.28A.31.31,0,0,1,1030.55,761.65Z"/><path class="cls-5" d="M1065.7,761.65h-35.15a.3.3,0,0,1-.3-.3.29.29,0,0,1,.3-.3h35.15a.29.29,0,0,1,.3.3A.3.3,0,0,1,1065.7,761.65Z"/><path class="cls-5" d="M1088.27,761.65h-11.74c-.81,0-1.07-2.81-1.65-17.67-.28-7.12-.62-15.94-1.15-17.07-.4.21-.74,1.67-1,2.65-.39,1.68-.73,3.12-1.64,3.12s-1.07-2.34-1.65-14.76c-.25-5.41-.56-12-1-13.8-.5,2.8-.81,16.27-1.09,28.27-.62,26.38-.88,29.26-1.66,29.26a.31.31,0,0,1-.3-.3.29.29,0,0,1,.14-.25c.57-1.23.91-15.83,1.22-28.72.61-26.38.87-29.25,1.65-29.25s1.07,2.34,1.65,14.76c.27,5.91.62,13.22,1.13,14.17.4-.18.75-1.64,1-2.63.39-1.69.73-3.14,1.66-3.14s1.07,2.81,1.65,17.67c.28,7.17.62,16.06,1.15,17.09h11.64a.29.29,0,0,1,.3.3A.3.3,0,0,1,1088.27,761.65Z"/><path class="cls-2" d="M96.25,102.14a.29.29,0,0,1-.3-.3V73.59a.3.3,0,0,1,.6,0v28.25A.29.29,0,0,1,96.25,102.14Z"/><path class="cls-2" d="M96.25,149.76a.29.29,0,0,1-.3-.3v-6a.3.3,0,0,1,.6,0v6A.29.29,0,0,1,96.25,149.76Z"/><path class="cls-2" d="M96.25,134.64a.29.29,0,0,1-.3-.3v-9.12a.3.3,0,0,1,.6,0v9.12A.29.29,0,0,1,96.25,134.64Z"/><path class="cls-2" d="M96.25,116.4a.29.29,0,0,1-.3-.3v-6a.3.3,0,0,1,.6,0v6A.29.29,0,0,1,96.25,116.4Z"/><path class="cls-2" d="M180.73,102.14a.3.3,0,0,1-.3-.3V73.59a.3.3,0,0,1,.3-.3.29.29,0,0,1,.3.3v28.25A.29.29,0,0,1,180.73,102.14Z"/><path class="cls-2" d="M180.73,149.76a.3.3,0,0,1-.3-.3v-6a.3.3,0,0,1,.3-.29.29.29,0,0,1,.3.29v6A.29.29,0,0,1,180.73,149.76Z"/><path class="cls-2" d="M180.73,134.64a.3.3,0,0,1-.3-.3v-9.12a.31.31,0,0,1,.3-.3.3.3,0,0,1,.3.3v9.12A.29.29,0,0,1,180.73,134.64Z"/><path class="cls-2" d="M180.73,116.4a.3.3,0,0,1-.3-.3v-6a.31.31,0,0,1,.3-.3.3.3,0,0,1,.3.3v6A.29.29,0,0,1,180.73,116.4Z"/><path class="cls-2" d="M257,102.14a.29.29,0,0,1-.3-.3V73.59a.3.3,0,0,1,.6,0v28.25A.29.29,0,0,1,257,102.14Z"/><path class="cls-2" d="M257,149.76a.29.29,0,0,1-.3-.3v-6a.3.3,0,0,1,.6,0v6A.29.29,0,0,1,257,149.76Z"/><path class="cls-2" d="M257,134.64a.29.29,0,0,1-.3-.3v-9.12a.3.3,0,0,1,.6,0v9.12A.29.29,0,0,1,257,134.64Z"/><path class="cls-2" d="M257,116.4a.29.29,0,0,1-.3-.3v-6a.3.3,0,0,1,.6,0v6A.29.29,0,0,1,257,116.4Z"/><path class="cls-2" d="M341.53,102.14a.29.29,0,0,1-.3-.3V73.59a.29.29,0,0,1,.3-.3.3.3,0,0,1,.3.3v28.25A.3.3,0,0,1,341.53,102.14Z"/><path class="cls-2" d="M341.53,149.76a.29.29,0,0,1-.3-.3v-6a.3.3,0,0,1,.3-.3.31.31,0,0,1,.3.3v6A.3.3,0,0,1,341.53,149.76Z"/><path class="cls-2" d="M341.53,134.64a.29.29,0,0,1-.3-.3v-9.12a.3.3,0,0,1,.3-.3.31.31,0,0,1,.3.3v9.12A.3.3,0,0,1,341.53,134.64Z"/><path class="cls-2" d="M341.53,116.4a.29.29,0,0,1-.3-.3v-6a.3.3,0,0,1,.3-.3.31.31,0,0,1,.3.3v6A.3.3,0,0,1,341.53,116.4Z"/><path class="cls-2" d="M423.29,102.14a.29.29,0,0,1-.3-.3V73.59a.29.29,0,0,1,.3-.3.3.3,0,0,1,.3.3v28.25A.3.3,0,0,1,423.29,102.14Z"/><path class="cls-2" d="M423.29,149.76a.29.29,0,0,1-.3-.3v-6a.3.3,0,0,1,.3-.3.31.31,0,0,1,.3.3v6A.3.3,0,0,1,423.29,149.76Z"/><path class="cls-2" d="M423.29,134.64a.29.29,0,0,1-.3-.3v-9.12a.3.3,0,0,1,.3-.3.31.31,0,0,1,.3.3v9.12A.3.3,0,0,1,423.29,134.64Z"/><path class="cls-2" d="M423.29,116.4a.29.29,0,0,1-.3-.3v-6a.3.3,0,0,1,.3-.3.31.31,0,0,1,.3.3v6A.3.3,0,0,1,423.29,116.4Z"/><path class="cls-2" d="M507.77,102.14a.3.3,0,0,1-.3-.3V73.59a.3.3,0,0,1,.3-.3.29.29,0,0,1,.3.3v28.25A.29.29,0,0,1,507.77,102.14Z"/><path class="cls-2" d="M507.77,149.76a.3.3,0,0,1-.3-.3v-6a.31.31,0,0,1,.3-.3.3.3,0,0,1,.3.3v6A.29.29,0,0,1,507.77,149.76Z"/><path class="cls-2" d="M507.77,134.64a.3.3,0,0,1-.3-.3v-9.12a.31.31,0,0,1,.3-.3.3.3,0,0,1,.3.3v9.12A.29.29,0,0,1,507.77,134.64Z"/><path class="cls-2" d="M507.77,116.4a.3.3,0,0,1-.3-.3v-6a.31.31,0,0,1,.3-.3.3.3,0,0,1,.3.3v6A.29.29,0,0,1,507.77,116.4Z"/><path class="cls-2" d="M589.53,102.14a.29.29,0,0,1-.3-.3V73.59a.3.3,0,0,1,.6,0v28.25A.29.29,0,0,1,589.53,102.14Z"/><path class="cls-2" d="M589.53,149.76a.29.29,0,0,1-.3-.3v-6a.3.3,0,1,1,.6,0v6A.29.29,0,0,1,589.53,149.76Z"/><path class="cls-2" d="M589.53,134.64a.29.29,0,0,1-.3-.3v-9.12a.3.3,0,1,1,.6,0v9.12A.29.29,0,0,1,589.53,134.64Z"/><path class="cls-2" d="M589.53,116.4a.29.29,0,0,1-.3-.3v-6a.3.3,0,1,1,.6,0v6A.29.29,0,0,1,589.53,116.4Z"/><path class="cls-2" d="M674,102.14a.29.29,0,0,1-.3-.3V73.59a.29.29,0,0,1,.3-.3.3.3,0,0,1,.3.3v28.25A.3.3,0,0,1,674,102.14Z"/><path class="cls-2" d="M674,149.76a.29.29,0,0,1-.3-.3v-6a.3.3,0,0,1,.3-.3.31.31,0,0,1,.3.3v6A.3.3,0,0,1,674,149.76Z"/><path class="cls-2" d="M674,134.64a.29.29,0,0,1-.3-.3v-9.12a.3.3,0,0,1,.3-.3.31.31,0,0,1,.3.3v9.12A.3.3,0,0,1,674,134.64Z"/><path class="cls-2" d="M674,116.4a.29.29,0,0,1-.3-.3v-6a.3.3,0,0,1,.3-.3.31.31,0,0,1,.3.3v6A.3.3,0,0,1,674,116.4Z"/><path class="cls-2" d="M758.5,102.14a.3.3,0,0,1-.3-.3V73.59a.3.3,0,0,1,.3-.3.29.29,0,0,1,.3.3v28.25A.29.29,0,0,1,758.5,102.14Z"/><path class="cls-2" d="M758.5,149.76a.3.3,0,0,1-.3-.3v-6a.31.31,0,0,1,.3-.3.3.3,0,0,1,.3.3v6A.29.29,0,0,1,758.5,149.76Z"/><path class="cls-2" d="M758.5,134.64a.3.3,0,0,1-.3-.3v-9.12a.31.31,0,0,1,.3-.3.3.3,0,0,1,.3.3v9.12A.29.29,0,0,1,758.5,134.64Z"/><path class="cls-2" d="M758.5,116.4a.3.3,0,0,1-.3-.3v-6a.31.31,0,0,1,.3-.3.3.3,0,0,1,.3.3v6A.29.29,0,0,1,758.5,116.4Z"/><path class="cls-2" d="M840.26,102.14a.3.3,0,0,1-.3-.3V73.59a.3.3,0,0,1,.3-.3.29.29,0,0,1,.3.3v28.25A.29.29,0,0,1,840.26,102.14Z"/><path class="cls-2" d="M840.26,149.76a.3.3,0,0,1-.3-.3v-6a.31.31,0,0,1,.3-.3.3.3,0,0,1,.3.3v6A.29.29,0,0,1,840.26,149.76Z"/><path class="cls-2" d="M840.26,134.64a.3.3,0,0,1-.3-.3v-9.12a.31.31,0,0,1,.3-.3.3.3,0,0,1,.3.3v9.12A.29.29,0,0,1,840.26,134.64Z"/><path class="cls-2" d="M840.26,116.4a.3.3,0,0,1-.3-.3v-6a.31.31,0,0,1,.3-.3.3.3,0,0,1,.3.3v6A.29.29,0,0,1,840.26,116.4Z"/><path class="cls-2" d="M924.75,102.14a.29.29,0,0,1-.3-.3V73.59a.29.29,0,0,1,.3-.3.3.3,0,0,1,.3.3v28.25A.3.3,0,0,1,924.75,102.14Z"/><path class="cls-2" d="M924.75,149.76a.29.29,0,0,1-.3-.3v-6a.3.3,0,0,1,.3-.3.31.31,0,0,1,.3.3v6A.3.3,0,0,1,924.75,149.76Z"/><path class="cls-2" d="M924.75,134.64a.29.29,0,0,1-.3-.3v-9.12a.3.3,0,0,1,.3-.3.31.31,0,0,1,.3.3v9.12A.3.3,0,0,1,924.75,134.64Z"/><path class="cls-2" d="M924.75,116.4a.29.29,0,0,1-.3-.3v-6a.3.3,0,0,1,.3-.3.31.31,0,0,1,.3.3v6A.3.3,0,0,1,924.75,116.4Z"/><path class="cls-2" d="M1006.51,102.14a.29.29,0,0,1-.3-.3V73.59a.29.29,0,0,1,.3-.3.3.3,0,0,1,.3.3v28.25A.3.3,0,0,1,1006.51,102.14Z"/><path class="cls-2" d="M1006.51,149.76a.29.29,0,0,1-.3-.3v-6a.3.3,0,0,1,.3-.3.31.31,0,0,1,.3.3v6A.3.3,0,0,1,1006.51,149.76Z"/><path class="cls-2" d="M1006.51,134.64a.29.29,0,0,1-.3-.3v-9.12a.3.3,0,0,1,.3-.3.31.31,0,0,1,.3.3v9.12A.3.3,0,0,1,1006.51,134.64Z"/><path class="cls-2" d="M1006.51,116.4a.29.29,0,0,1-.3-.3v-6a.3.3,0,0,1,.3-.3.31.31,0,0,1,.3.3v6A.3.3,0,0,1,1006.51,116.4Z"/><path class="cls-2" d="M1088.27,102.14a.29.29,0,0,1-.3-.3V73.59a.3.3,0,0,1,.6,0v28.25A.29.29,0,0,1,1088.27,102.14Z"/><path class="cls-2" d="M1088.27,149.76a.29.29,0,0,1-.3-.3v-6a.3.3,0,0,1,.6,0v6A.29.29,0,0,1,1088.27,149.76Z"/><path class="cls-2" d="M1088.27,134.64a.29.29,0,0,1-.3-.3v-9.12a.3.3,0,0,1,.6,0v9.12A.29.29,0,0,1,1088.27,134.64Z"/><path class="cls-2" d="M1088.27,116.4a.29.29,0,0,1-.3-.3v-6a.3.3,0,0,1,.6,0v6A.29.29,0,0,1,1088.27,116.4Z"/><path d="M287.5,180.36c0,1,.91,1.78,2.38,1.78s2.44-.64,2.44-1.72c0-2.53-6.32-.52-6.32-4.53,0-1.75,1.52-3,3.9-3s3.83,1.12,3.83,2.93h-1.65c0-1-.93-1.62-2.18-1.62s-2.22.53-2.22,1.56c0,2.51,6.37.48,6.37,4.55,0,1.89-1.52,3.17-4.17,3.17s-4.05-1.22-4.05-3.09Z"/><path d="M297.53,186.55h-1.61V176h1.55v1.09h.06a2.51,2.51,0,0,1,2.41-1.27c1.83,0,3.24,1.34,3.24,3.75s-1.5,3.87-3.36,3.87a2.35,2.35,0,0,1-2.29-1.26h-.06c.06.95.06,1.95.06,2.44Zm2-9.42c-1.1,0-1.95.88-2,2.39v.12c0,1.59.86,2.52,2,2.52s2-1,2-2.58S300.67,177.13,299.52,177.13Z"/><path d="M308,175.83a3.22,3.22,0,0,1,3.4,3.55v.53h-5.34c.09,1.41.84,2.28,2,2.28a1.58,1.58,0,0,0,1.69-1.12h1.57a3.08,3.08,0,0,1-3.27,2.38c-2.32,0-3.65-1.41-3.65-3.79A3.55,3.55,0,0,1,308,175.83Zm-1.87,3h3.63c-.13-1.2-.74-1.74-1.76-1.74A1.92,1.92,0,0,0,306.16,178.82Z"/><path d="M314.42,184.17c0,.8.77,1.29,1.83,1.29,1.29,0,2.17-.65,2.17-2.56v-.71h-.06a2.51,2.51,0,0,1-2.41,1.26c-1.83,0-3.24-1.34-3.24-3.75s1.5-3.87,3.36-3.87a2.36,2.36,0,0,1,2.29,1.27h.06V176H320v6.89c0,2.74-1.57,3.76-3.7,3.76-1.93,0-3.32-.83-3.35-2.49Zm1.93-2c1.15,0,2-.93,2-2.52v-.12c-.05-1.51-.88-2.39-2-2.39s-2,1-2,2.57S315.22,182.16,316.35,182.16Z"/><path d="M322.14,176h1.55v1.06h.06a2.32,2.32,0,0,1,2.24-1.24c1.45,0,2.73.78,2.73,3v4.4h-1.61v-4.19c0-1.45-.61-1.94-1.55-1.94s-1.81.88-1.81,2.34v3.79h-1.61Z"/><path d="M330.73,172.38h1.72V174h-1.72Zm.06,3.63h1.6v7.26h-1.6Z"/><path d="M334.58,176h1.55v1.06h.06a2.57,2.57,0,0,1,4.51.21,2.49,2.49,0,0,1,2.44-1.45c1.41,0,2.57.78,2.57,2.95v4.49H344.1V179c0-1.35-.47-1.83-1.4-1.83S341,178,341,179.45v3.82h-1.61V179c0-1.35-.52-1.83-1.4-1.83s-1.75.87-1.75,2.32v3.81h-1.61Z"/><path d="M350.86,175.83a3.22,3.22,0,0,1,3.39,3.55v.53h-5.34c.09,1.41.85,2.28,2,2.28a1.57,1.57,0,0,0,1.68-1.12h1.58a3.08,3.08,0,0,1-3.28,2.38c-2.32,0-3.64-1.41-3.64-3.79A3.55,3.55,0,0,1,350.86,175.83Zm-1.87,3h3.63c-.14-1.2-.75-1.74-1.76-1.74A1.92,1.92,0,0,0,349,178.82Z"/><path d="M355.88,176h1.54v1.06h.06a2.33,2.33,0,0,1,2.25-1.24c1.44,0,2.72.78,2.72,3v4.4h-1.61v-4.19c0-1.45-.6-1.94-1.54-1.94s-1.82.88-1.82,2.34v3.79h-1.6Z"/><path d="M364.67,177.26H363.3V176h1.37v-2.2h1.61V176h1.86v1.25h-1.86v3.6c0,.78.26,1.07,1,1.07h.85v1.34H367c-1.67,0-2.35-.7-2.35-2.32Z"/><path d="M372.78,175.83a3.49,3.49,0,0,1,3.7,3.81,3.55,3.55,0,0,1-3.7,3.81,3.5,3.5,0,0,1-3.71-3.81A3.56,3.56,0,0,1,372.78,175.83Zm0,6.33c1.22,0,2-1,2-2.52s-.82-2.51-2-2.51-2,1-2,2.51S371.56,182.16,372.78,182.16Z"/><path d="M286.13,194.61h1.55v1.06h0a2,2,0,0,1,1.92-1.23,1.69,1.69,0,0,1,1,.29l-.41,1.43a2,2,0,0,0-.89-.24c-1.09,0-1.61,1.06-1.61,2.32v3.63h-1.61Z"/><path d="M291.68,191h1.73v1.64h-1.73Zm.06,3.63h1.61v7.26h-1.61Z"/><path d="M296.53,199.79c0,.8.82,1.13,1.61,1.13,1.12,0,1.67-.39,1.67-1.06s-.38-.75-1.11-.87l-1.33-.24c-1.12-.18-2.19-.63-2.19-2s1.32-2.32,3-2.32,3,.68,3,2.2h-1.5c0-.72-.64-1.07-1.51-1.07s-1.48.35-1.48,1c0,.49.34.75,1.2.89l1.34.23c1.15.19,2.14.64,2.14,2,0,1.59-1.34,2.38-3.27,2.38s-3.14-.74-3.14-2.26Z"/><path d="M306.2,194.44a3,3,0,0,1,3.31,2.66h-1.59a1.6,1.6,0,0,0-1.72-1.37c-1.13,0-1.94,1-1.94,2.51s.81,2.52,1.94,2.52a1.59,1.59,0,0,0,1.72-1.37h1.59a3,3,0,0,1-3.31,2.66c-2.23,0-3.61-1.43-3.61-3.81A3.51,3.51,0,0,1,306.2,194.44Z"/><path d="M313.18,197.8l1.42-.24c.71-.12.93-.21.93-.49a1.27,1.27,0,0,0-1.42-1.43,1.36,1.36,0,0,0-1.54,1.28H311c.09-1.5,1.25-2.48,3.07-2.48,2,0,3,1,3,2.66v4.77h-1.53V201h-.08a2.58,2.58,0,0,1-2.32,1.08c-1.59,0-2.45-.82-2.45-2S311.47,198.08,313.18,197.8Zm2.35.43a1.17,1.17,0,0,1-.74.34l-1.25.21c-.85.13-1.17.5-1.17,1.07s.41,1,1.23,1a1.82,1.82,0,0,0,1.93-1.95Z"/><path d="M319.23,191h1.6v10.89h-1.6Z"/><path d="M325.88,194.44a2.35,2.35,0,0,1,2.29,1.26h.06c-.08-.95-.08-1.95-.08-2.44V191h1.61v10.89h-1.53v-1.08h-.06a2.51,2.51,0,0,1-2.41,1.26c-1.83,0-3.25-1.34-3.25-3.75S324,194.44,325.88,194.44Zm.28,6.32c1.14,0,2-.92,2-2.52s-.85-2.51-2-2.51-2,1-2,2.57S325,200.76,326.16,200.76Z"/><path d="M334,197.8l1.41-.24c.71-.12.94-.21.94-.49a1.27,1.27,0,0,0-1.43-1.43,1.35,1.35,0,0,0-1.53,1.28h-1.54c.09-1.5,1.25-2.48,3.07-2.48,2,0,3,1,3,2.66v4.77h-1.53V201h-.07a2.59,2.59,0,0,1-2.32,1.08c-1.6,0-2.46-.82-2.46-2S332.25,198.08,334,197.8Zm2.35.43a1.22,1.22,0,0,1-.75.34l-1.25.21c-.84.13-1.17.5-1.17,1.07s.42,1,1.23,1a1.83,1.83,0,0,0,1.94-1.95Z"/><path d="M340,194.61h1.55v1.06h.06a2.57,2.57,0,0,1,4.5.21,2.49,2.49,0,0,1,2.44-1.44c1.42,0,2.58.77,2.58,2.94v4.49h-1.61v-4.3c0-1.35-.48-1.83-1.4-1.83s-1.75.87-1.75,2.31v3.82h-1.61v-4.3c0-1.35-.52-1.83-1.4-1.83s-1.75.87-1.75,2.33v3.8H340Z"/><path d="M356.28,194.44a3.21,3.21,0,0,1,3.39,3.54v.53h-5.34c.09,1.41.85,2.28,2,2.28a1.57,1.57,0,0,0,1.68-1.12h1.57a3.07,3.07,0,0,1-3.27,2.38c-2.32,0-3.64-1.41-3.64-3.79A3.54,3.54,0,0,1,356.28,194.44Zm-1.88,3H358c-.13-1.21-.74-1.74-1.75-1.74A1.92,1.92,0,0,0,354.4,197.43Z"/><path d="M361.29,194.61h1.55v1.06h.06a2.32,2.32,0,0,1,2.25-1.23c1.44,0,2.72.77,2.72,3v4.4h-1.61v-4.19c0-1.45-.61-1.94-1.55-1.94s-1.81.88-1.81,2.34v3.79h-1.61Z"/><path d="M370.09,195.86h-1.37v-1.25h1.37v-2.2h1.6v2.2h1.86v1.25h-1.86v3.6c0,.78.27,1.07,1,1.07h.84v1.34h-1.11c-1.67,0-2.35-.7-2.35-2.32Z"/><path d="M374.94,191h1.72v1.64h-1.72Zm.06,3.63h1.6v7.26H375Z"/><path d="M890.62,173h2l3.81,10.23h-1.77l-.88-2.48h-4.37l-.88,2.48h-1.69Zm.93,1.66-1.66,4.69h3.37l-1.65-4.69Z"/><path d="M900.9,175.83a3,3,0,0,1,3.3,2.67h-1.59a1.6,1.6,0,0,0-1.71-1.37c-1.13,0-1.95,1-1.95,2.51s.82,2.52,1.95,2.52a1.59,1.59,0,0,0,1.71-1.37h1.59a3,3,0,0,1-3.3,2.66c-2.23,0-3.62-1.43-3.62-3.81A3.52,3.52,0,0,1,900.9,175.83Z"/><path d="M909,175.83a3,3,0,0,1,3.3,2.67h-1.59a1.6,1.6,0,0,0-1.71-1.37c-1.13,0-2,1-2,2.51s.82,2.52,2,2.52a1.59,1.59,0,0,0,1.71-1.37h1.59a3,3,0,0,1-3.3,2.66c-2.23,0-3.62-1.43-3.62-3.81A3.52,3.52,0,0,1,909,175.83Z"/><path d="M917.1,175.83a3.22,3.22,0,0,1,3.39,3.55v.53h-5.34c.09,1.41.85,2.28,2,2.28a1.57,1.57,0,0,0,1.68-1.12h1.58a3.08,3.08,0,0,1-3.27,2.38c-2.32,0-3.65-1.41-3.65-3.79A3.55,3.55,0,0,1,917.1,175.83Zm-1.87,3h3.63c-.14-1.2-.75-1.74-1.76-1.74A1.92,1.92,0,0,0,915.23,178.82Z"/><path d="M922.12,176h1.54v1.06h.06a2.33,2.33,0,0,1,2.25-1.24c1.44,0,2.72.78,2.72,3v4.4h-1.6v-4.19c0-1.45-.61-1.94-1.55-1.94s-1.82.88-1.82,2.34v3.79h-1.6Z"/><path d="M931.76,181.19c0,.8.82,1.13,1.61,1.13,1.11,0,1.66-.39,1.66-1.06s-.37-.75-1.1-.87l-1.34-.24c-1.11-.18-2.19-.63-2.19-2s1.33-2.32,3-2.32,3,.69,3,2.21h-1.51c0-.72-.64-1.07-1.5-1.07s-1.49.35-1.49,1c0,.49.35.75,1.21.89l1.34.23c1.14.19,2.14.64,2.14,2,0,1.59-1.34,2.38-3.27,2.38s-3.14-.74-3.14-2.26Z"/><path d="M938.28,172.38H940V174h-1.72Zm.06,3.63h1.6v7.26h-1.6Z"/><path d="M945.33,175.83a3.49,3.49,0,0,1,3.7,3.81,3.55,3.55,0,0,1-3.7,3.81,3.49,3.49,0,0,1-3.7-3.81A3.56,3.56,0,0,1,945.33,175.83Zm0,6.33c1.22,0,2-1,2-2.52s-.82-2.51-2-2.51-2,1-2,2.51S944.11,182.16,945.33,182.16Z"/><path d="M950.72,176h1.54v1.06h.06a2.33,2.33,0,0,1,2.25-1.24c1.44,0,2.72.78,2.72,3v4.4h-1.6v-4.19c0-1.45-.61-1.94-1.55-1.94s-1.82.88-1.82,2.34v3.79h-1.6Z"/><path d="M962.44,175.83a3.22,3.22,0,0,1,3.39,3.55v.53h-5.34c.09,1.41.85,2.28,2,2.28a1.57,1.57,0,0,0,1.68-1.12h1.58a3.08,3.08,0,0,1-3.27,2.38c-2.32,0-3.65-1.41-3.65-3.79A3.55,3.55,0,0,1,962.44,175.83Zm-1.87,3h3.63c-.14-1.2-.75-1.74-1.76-1.74A1.92,1.92,0,0,0,960.57,178.82Z"/><path d="M887.74,194.61h1.55v1.06h.05a2,2,0,0,1,1.91-1.23,1.72,1.72,0,0,1,1,.29l-.42,1.43a2,2,0,0,0-.89-.24c-1.09,0-1.61,1.06-1.61,2.32v3.63h-1.61Z"/><path d="M893.29,191H895v1.64h-1.73Zm.06,3.63H895v7.26h-1.61Z"/><path d="M898.15,199.79c0,.8.81,1.13,1.6,1.13,1.12,0,1.67-.39,1.67-1.06s-.37-.75-1.1-.87l-1.34-.24c-1.12-.18-2.19-.63-2.19-2s1.33-2.32,3-2.32,3,.68,3,2.2h-1.5c0-.72-.64-1.07-1.5-1.07s-1.49.35-1.49,1c0,.49.34.75,1.2.89l1.34.23c1.15.19,2.14.64,2.14,2,0,1.59-1.33,2.38-3.27,2.38s-3.14-.74-3.14-2.26Z"/><path d="M907.82,194.44a3,3,0,0,1,3.3,2.66h-1.59a1.6,1.6,0,0,0-1.71-1.37c-1.13,0-2,1-2,2.51s.82,2.52,2,2.52a1.59,1.59,0,0,0,1.71-1.37h1.59a3,3,0,0,1-3.3,2.66c-2.24,0-3.62-1.43-3.62-3.81A3.51,3.51,0,0,1,907.82,194.44Z"/><path d="M914.8,197.8l1.41-.24c.71-.12.94-.21.94-.49a1.27,1.27,0,0,0-1.43-1.43,1.35,1.35,0,0,0-1.53,1.28h-1.54c.09-1.5,1.25-2.48,3.07-2.48,2,0,3,1,3,2.66v4.77h-1.53V201h-.07a2.6,2.6,0,0,1-2.33,1.08c-1.59,0-2.45-.82-2.45-2S913.08,198.08,914.8,197.8Zm2.35.43a1.22,1.22,0,0,1-.75.34l-1.25.21c-.84.13-1.17.5-1.17,1.07s.41,1,1.23,1a1.83,1.83,0,0,0,1.94-1.95Z"/><path d="M920.84,191h1.6v10.89h-1.6Z"/><path d="M927.49,194.44a2.35,2.35,0,0,1,2.29,1.26h.06c-.08-.95-.08-1.95-.08-2.44V191h1.61v10.89h-1.53v-1.08h-.06a2.51,2.51,0,0,1-2.41,1.26c-1.83,0-3.24-1.34-3.24-3.75S925.63,194.44,927.49,194.44Zm.28,6.32c1.15,0,2-.92,2-2.52s-.84-2.51-2-2.51-2,1-2,2.57S926.64,200.76,927.77,200.76Z"/><path d="M935.57,197.8l1.41-.24c.72-.12.94-.21.94-.49a1.27,1.27,0,0,0-1.43-1.43,1.35,1.35,0,0,0-1.53,1.28h-1.53c.09-1.5,1.25-2.48,3.06-2.48,2,0,3,1,3,2.66v4.77H938V201h-.07a2.59,2.59,0,0,1-2.32,1.08c-1.59,0-2.46-.82-2.46-2S933.86,198.08,935.57,197.8Zm2.35.43a1.19,1.19,0,0,1-.74.34l-1.25.21c-.85.13-1.18.5-1.18,1.07s.42,1,1.24,1a1.83,1.83,0,0,0,1.93-1.95Z"/><path d="M941.61,194.61h1.55v1.06h.06a2.58,2.58,0,0,1,4.51.21,2.47,2.47,0,0,1,2.43-1.44c1.42,0,2.58.77,2.58,2.94v4.49h-1.61v-4.3c0-1.35-.48-1.83-1.4-1.83s-1.75.87-1.75,2.31v3.82h-1.61v-4.3c0-1.35-.52-1.83-1.4-1.83s-1.75.87-1.75,2.33v3.8h-1.61Z"/><path d="M957.89,194.44a3.21,3.21,0,0,1,3.39,3.54v.53h-5.34c.09,1.41.85,2.28,2,2.28a1.57,1.57,0,0,0,1.68-1.12h1.58a3.09,3.09,0,0,1-3.28,2.38c-2.32,0-3.64-1.41-3.64-3.79A3.54,3.54,0,0,1,957.89,194.44Zm-1.88,3h3.64c-.14-1.21-.75-1.74-1.76-1.74A1.92,1.92,0,0,0,956,197.43Z"/><path d="M962.9,194.61h1.55v1.06h.06a2.32,2.32,0,0,1,2.25-1.23c1.44,0,2.72.77,2.72,3v4.4h-1.61v-4.19c0-1.45-.61-1.94-1.54-1.94s-1.82.88-1.82,2.34v3.79H962.9Z"/><path d="M971.7,195.86h-1.37v-1.25h1.37v-2.2h1.61v2.2h1.85v1.25h-1.85v3.6c0,.78.26,1.07,1,1.07h.84v1.34h-1.11c-1.67,0-2.35-.7-2.35-2.32Z"/><path d="M976.55,191h1.73v1.64h-1.73Zm.06,3.63h1.61v7.26h-1.61Z"/></g><g id="info_1"><g class="cls-6"><circle class="cls-4" cx="150.75" cy="108.65" r="10.4"/></g></g></svg>