<?xml version="1.0" encoding="utf-8"?>
<!-- Generator: Adobe Illustrator 26.2.1, SVG Export Plug-In . SVG Version: 6.00 Build 0)  -->
<svg version="1.1" id="Livello_1" xmlns="http://www.w3.org/2000/svg" xmlns:xlink="http://www.w3.org/1999/xlink" x="0px" y="0px"
	 viewBox="0 0 999.1 1710.8" style="enable-background:new 0 0 999.1 1710.8;" xml:space="preserve">
<style type="text/css">
	.st0{fill:#EEEEEE;}
	.st1{fill:#B7B7B7;}
	.st2{fill:#EA4D27;}
	.st3{fill:#E84D27;}
	.st4{fill:none;stroke:#FFFFFF;stroke-linecap:round;stroke-linejoin:round;}
	.st5{opacity:0.7;fill:#FFFFFF;enable-background:new    ;}
	.st6{fill:none;stroke:#E64D27;stroke-miterlimit:10;}
	.st7{fill:#FF3A00;}
	.st8{opacity:0.2;}
</style>
<g id="Layer_1">
	<rect x="52.7" y="86" class="st0" width="934" height="383.6"/>
	<rect x="52.7" y="1139.7" class="st0" width="934" height="278"/>
	<path class="st1" d="M52.3,199.4c0-0.2,0.2-0.4,0.5-0.4c0,0,0,0,0,0h933.7c0.2,0,0.4,0.2,0.5,0.4l0,0c0,0.2-0.2,0.4-0.4,0.4
		c0,0,0,0,0,0H52.8C52.5,199.8,52.3,199.6,52.3,199.4L52.3,199.4z"/>
	<path class="st1" d="M52.3,301.8c0-0.2,0.2-0.4,0.4-0.4h933.7c0.2,0,0.4,0.2,0.4,0.4c0,0.2-0.2,0.4-0.4,0.4c0,0,0,0,0,0H52.8
		C52.5,302.2,52.3,302,52.3,301.8L52.3,301.8z"/>
	<path class="st1" d="M52.3,415.2c0-0.2,0.2-0.4,0.4-0.4h933.7c0.2,0,0.4,0.1,0.5,0.4c0,0,0,0,0,0l0,0c0,0.2-0.2,0.4-0.5,0.4H52.8
		C52.5,415.6,52.3,415.5,52.3,415.2z"/>
	<path class="st1" d="M52.3,525c0-0.2,0.2-0.4,0.4-0.4c0,0,0,0,0,0h933.7c0.2,0,0.4,0.1,0.5,0.4l0,0c0,0.2-0.2,0.4-0.5,0.4H52.8
		C52.5,525.4,52.3,525.2,52.3,525z"/>
	<path class="st1" d="M52.3,638.4c0-0.2,0.2-0.4,0.5-0.4c0,0,0,0,0,0h933.7c0.2,0,0.4,0.2,0.5,0.4c0,0.2-0.2,0.4-0.4,0.4
		c0,0,0,0,0,0H52.8C52.5,638.8,52.3,638.7,52.3,638.4L52.3,638.4z"/>
	<path class="st1" d="M52.3,748.2c0-0.2,0.2-0.4,0.4-0.4h933.7c0.2,0,0.4,0.2,0.5,0.4c0,0.2-0.2,0.4-0.5,0.4H52.8
		C52.5,748.6,52.3,748.4,52.3,748.2L52.3,748.2z"/>
	<path class="st1" d="M52.3,861.5c0-0.2,0.2-0.4,0.4-0.4h933.7c0.2,0,0.4,0.1,0.5,0.4c0,0,0,0,0,0l0,0c0,0.2-0.2,0.4-0.5,0.4H52.8
		C52.5,862,52.3,861.8,52.3,861.5z"/>
	<path class="st1" d="M52.3,975c0-0.2,0.2-0.4,0.5-0.4h933.7c0.2,0,0.4,0.2,0.5,0.4c0,0.2-0.2,0.4-0.4,0.4c0,0,0,0,0,0H52.8
		C52.5,975.4,52.3,975.3,52.3,975L52.3,975z"/>
	<path class="st1" d="M52.3,1084.7c0-0.2,0.2-0.4,0.5-0.4h933.7c0.2,0,0.4,0.2,0.5,0.4c0,0.2-0.2,0.4-0.4,0.4c0,0,0,0,0,0H52.8
		C52.5,1085.2,52.3,1085,52.3,1084.7L52.3,1084.7z"/>
	<path class="st1" d="M52.3,1198.2c0-0.2,0.2-0.4,0.4-0.4h933.7c0.2,0,0.4,0.1,0.5,0.4c0,0,0,0,0,0l0,0c0,0.2-0.2,0.4-0.5,0.4H52.8
		C52.5,1198.6,52.3,1198.4,52.3,1198.2z"/>
	<path class="st1" d="M52.3,1307.9c0-0.2,0.2-0.4,0.4-0.4c0,0,0,0,0,0h933.7c0.2,0,0.4,0.1,0.5,0.4l0,0c0,0.2-0.2,0.4-0.5,0.4H52.8
		C52.5,1308.3,52.3,1308.1,52.3,1307.9z"/>
	<path class="st1" d="M52.3,86c0-0.2,0.2-0.4,0.4-0.4c0,0,0,0,0,0h933.7c0.2,0,0.4,0.1,0.5,0.4l0,0c0,0.2-0.2,0.4-0.5,0.4H52.8
		C52.5,86.4,52.3,86.2,52.3,86z"/>
	<path class="st1" d="M52.3,1417.7c0-0.2,0.2-0.4,0.4-0.4c0,0,0,0,0,0h933.7c0.2,0,0.4,0.1,0.5,0.4c0,0,0,0,0,0l0,0
		c0,0.2-0.2,0.4-0.5,0.4H52.8C52.5,1418.1,52.3,1417.9,52.3,1417.7C52.3,1417.7,52.3,1417.7,52.3,1417.7L52.3,1417.7z"/>
	<ellipse cx="350.3" cy="89.6" rx="4.6" ry="4"/>
	<ellipse cx="197" cy="93.3" rx="4.6" ry="4"/>
	<ellipse cx="296.2" cy="96.9" rx="4.6" ry="4"/>
	<ellipse cx="251.1" cy="100.6" rx="4.6" ry="4"/>
	<ellipse cx="278.2" cy="104.3" rx="4.6" ry="4"/>
	<ellipse cx="332.3" cy="107.9" rx="4.6" ry="4"/>
	<ellipse cx="413.5" cy="111.6" rx="4.6" ry="4"/>
	<ellipse cx="404.4" cy="115.2" rx="4.6" ry="4"/>
	<ellipse cx="296.2" cy="118.9" rx="4.6" ry="4"/>
	<ellipse cx="296.2" cy="122.6" rx="4.6" ry="4"/>
	<ellipse cx="377.4" cy="126.2" rx="4.6" ry="4"/>
	<ellipse cx="413.5" cy="129.9" rx="4.6" ry="4"/>
	<ellipse cx="377.4" cy="140.9" rx="4.6" ry="4"/>
	<ellipse cx="476.6" cy="144.5" rx="4.6" ry="4"/>
	<ellipse cx="151.9" cy="170.1" rx="4.6" ry="4"/>
	<ellipse cx="296.2" cy="173.8" rx="4.6" ry="4"/>
	<ellipse cx="224" cy="177.4" rx="4.6" ry="4"/>
	<ellipse cx="287.2" cy="181.1" rx="4.6" ry="4"/>
	<ellipse cx="341.3" cy="184.7" rx="4.6" ry="4"/>
	<ellipse cx="494.6" cy="192.1" rx="4.6" ry="4"/>
	<ellipse cx="224" cy="195.7" rx="4.6" ry="4"/>
	<ellipse cx="314.2" cy="199.4" rx="4.6" ry="4"/>
	<ellipse cx="467.6" cy="210.4" rx="4.6" ry="4"/>
	<ellipse cx="386.4" cy="217.7" rx="4.6" ry="4"/>
	<ellipse cx="296.2" cy="221.3" rx="4.6" ry="4"/>
	<ellipse cx="251.1" cy="225" rx="4.6" ry="4"/>
	<ellipse cx="287.2" cy="228.6" rx="4.6" ry="4"/>
	<ellipse cx="224" cy="232.3" rx="4.6" ry="4"/>
	<ellipse cx="314.2" cy="236" rx="4.6" ry="4"/>
	<ellipse cx="314.2" cy="239.6" rx="4.6" ry="4"/>
	<ellipse cx="386.4" cy="243.3" rx="4.6" ry="4"/>
	<ellipse cx="458.6" cy="246.9" rx="4.6" ry="4"/>
	<ellipse cx="287.2" cy="250.6" rx="4.6" ry="4"/>
	<ellipse cx="224" cy="254.3" rx="4.6" ry="4"/>
	<ellipse cx="467.6" cy="272.6" rx="4.6" ry="4"/>
	<ellipse cx="449.5" cy="276.2" rx="4.6" ry="4"/>
	<ellipse cx="197" cy="298.2" rx="4.6" ry="4"/>
	<ellipse cx="233.1" cy="301.8" rx="4.6" ry="4"/>
	<ellipse cx="350.3" cy="305.5" rx="4.6" ry="4"/>
	<ellipse cx="296.2" cy="309.1" rx="4.6" ry="4"/>
	<ellipse cx="404.4" cy="312.8" rx="4.6" ry="4"/>
	<ellipse cx="323.3" cy="316.5" rx="4.6" ry="4"/>
	<ellipse cx="251.1" cy="320.1" rx="4.6" ry="4"/>
	<ellipse cx="206" cy="323.8" rx="4.6" ry="4"/>
	<ellipse cx="323.3" cy="327.4" rx="4.6" ry="4"/>
	<ellipse cx="359.3" cy="334.8" rx="4.6" ry="4"/>
	<ellipse cx="332.3" cy="338.4" rx="4.6" ry="4"/>
	<ellipse cx="206" cy="345.7" rx="4.6" ry="4"/>
	<ellipse cx="115.8" cy="349.4" rx="4.6" ry="4"/>
	<ellipse cx="188" cy="353" rx="4.6" ry="4"/>
	<ellipse cx="178.9" cy="356.7" rx="4.6" ry="4"/>
	<ellipse cx="188" cy="360.4" rx="4.6" ry="4"/>
	<ellipse cx="178.9" cy="364" rx="4.6" ry="4"/>
	<ellipse cx="269.1" cy="367.7" rx="4.6" ry="4"/>
	<ellipse cx="215" cy="371.3" rx="4.6" ry="4"/>
	<ellipse cx="160.9" cy="375" rx="4.6" ry="4"/>
	<ellipse cx="188" cy="378.6" rx="4.6" ry="4"/>
	<ellipse cx="188" cy="382.3" rx="4.6" ry="4"/>
	<ellipse cx="260.1" cy="386" rx="4.6" ry="4"/>
	<ellipse cx="350.3" cy="389.6" rx="4.6" ry="4"/>
	<ellipse cx="305.2" cy="393.3" rx="4.6" ry="4"/>
	<ellipse cx="269.1" cy="397" rx="4.6" ry="4"/>
	<ellipse cx="197" cy="400.6" rx="4.6" ry="4"/>
	<ellipse cx="287.2" cy="404.3" rx="4.6" ry="4"/>
	<ellipse cx="332.3" cy="407.9" rx="4.6" ry="4"/>
	<ellipse cx="260.1" cy="411.6" rx="4.6" ry="4"/>
	<ellipse cx="206" cy="415.2" rx="4.6" ry="4"/>
	<ellipse cx="151.9" cy="418.9" rx="4.6" ry="4"/>
	<ellipse cx="233.1" cy="422.6" rx="4.6" ry="4"/>
	<ellipse cx="160.9" cy="426.2" rx="4.6" ry="4"/>
	<ellipse cx="133.8" cy="429.9" rx="4.6" ry="4"/>
	<ellipse cx="215" cy="433.5" rx="4.6" ry="4"/>
	<ellipse cx="188" cy="437.2" rx="4.6" ry="4"/>
	<ellipse cx="160.9" cy="440.8" rx="4.6" ry="4"/>
	<ellipse cx="224" cy="444.5" rx="4.6" ry="4"/>
	<ellipse cx="133.8" cy="459.1" rx="4.6" ry="4"/>
	<ellipse cx="224" cy="462.8" rx="4.6" ry="4"/>
	<ellipse cx="242.1" cy="466.5" rx="4.6" ry="4"/>
	<ellipse cx="251.1" cy="470.1" rx="4.6" ry="4"/>
	<ellipse cx="224" cy="473.8" rx="4.6" ry="4"/>
	<ellipse cx="206" cy="477.4" rx="4.6" ry="4"/>
	<ellipse cx="197" cy="481.1" rx="4.6" ry="4"/>
	<ellipse cx="178.9" cy="484.8" rx="4.6" ry="4"/>
	<ellipse cx="178.9" cy="488.4" rx="4.6" ry="4"/>
	<ellipse cx="260.1" cy="492.1" rx="4.6" ry="4"/>
	<ellipse cx="242.1" cy="495.7" rx="4.6" ry="4"/>
	<ellipse cx="178.9" cy="499.4" rx="4.6" ry="4"/>
	<ellipse cx="178.9" cy="503" rx="4.6" ry="4"/>
	<ellipse cx="269.1" cy="506.7" rx="4.6" ry="4"/>
	<ellipse cx="242.1" cy="510.4" rx="4.6" ry="4"/>
	<ellipse cx="251.1" cy="514" rx="4.6" ry="4"/>
	<ellipse cx="242.1" cy="517.7" rx="4.6" ry="4"/>
	<ellipse cx="233.1" cy="521.3" rx="4.6" ry="4"/>
	<ellipse cx="206" cy="525" rx="4.6" ry="4"/>
	<ellipse cx="188" cy="528.7" rx="4.6" ry="4"/>
	<ellipse cx="197" cy="532.3" rx="4.6" ry="4"/>
	<ellipse cx="178.9" cy="536" rx="4.6" ry="4"/>
	<ellipse cx="169.9" cy="539.6" rx="4.6" ry="4"/>
	<ellipse cx="197" cy="543.3" rx="4.6" ry="4"/>
	<ellipse cx="197" cy="547" rx="4.6" ry="4"/>
	<ellipse cx="224" cy="550.6" rx="4.6" ry="4"/>
	<ellipse cx="188" cy="554.3" rx="4.6" ry="4"/>
	<ellipse cx="260.1" cy="557.9" rx="4.6" ry="4"/>
	<ellipse cx="188" cy="561.6" rx="4.6" ry="4"/>
	<ellipse cx="151.9" cy="565.2" rx="4.6" ry="4"/>
	<ellipse cx="151.9" cy="568.9" rx="4.6" ry="4"/>
	<ellipse cx="169.9" cy="572.6" rx="4.6" ry="4"/>
	<ellipse cx="151.9" cy="576.2" rx="4.6" ry="4"/>
	<ellipse cx="106.8" cy="579.9" rx="4.6" ry="4"/>
	<ellipse cx="188" cy="583.5" rx="4.6" ry="4"/>
	<ellipse cx="178.9" cy="587.2" rx="4.6" ry="4"/>
	<ellipse cx="178.9" cy="590.8" rx="4.6" ry="4"/>
	<ellipse cx="169.9" cy="594.5" rx="4.6" ry="4"/>
	<ellipse cx="151.9" cy="598.2" rx="4.6" ry="4"/>
	<ellipse cx="169.9" cy="601.8" rx="4.6" ry="4"/>
	<ellipse cx="188" cy="605.5" rx="4.6" ry="4"/>
	<ellipse cx="169.9" cy="609.1" rx="4.6" ry="4"/>
	<ellipse cx="215" cy="612.8" rx="4.6" ry="4"/>
	<ellipse cx="206" cy="616.5" rx="4.6" ry="4"/>
	<ellipse cx="188" cy="620.1" rx="4.6" ry="4"/>
	<ellipse cx="169.9" cy="623.8" rx="4.6" ry="4"/>
	<ellipse cx="142.9" cy="627.4" rx="4.6" ry="4"/>
	<ellipse cx="133.8" cy="631.1" rx="4.6" ry="4"/>
	<ellipse cx="169.9" cy="634.8" rx="4.6" ry="4"/>
	<ellipse cx="188" cy="638.4" rx="4.6" ry="4"/>
	<ellipse cx="206" cy="642.1" rx="4.6" ry="4"/>
	<ellipse cx="242" cy="645.8" rx="4.6" ry="4"/>
	<ellipse cx="215" cy="649.4" rx="4.6" ry="4"/>
	<ellipse cx="197" cy="653" rx="4.6" ry="4"/>
	<ellipse cx="178.9" cy="656.7" rx="4.6" ry="4"/>
	<ellipse cx="178.9" cy="660.3" rx="4.6" ry="4"/>
	<ellipse cx="215" cy="664" rx="4.6" ry="4"/>
	<ellipse cx="242.1" cy="667.7" rx="4.6" ry="4"/>
	<ellipse cx="233.1" cy="671.3" rx="4.6" ry="4"/>
	<ellipse cx="215" cy="675" rx="4.6" ry="4"/>
	<ellipse cx="142.9" cy="678.7" rx="4.6" ry="4"/>
	<ellipse cx="178.9" cy="682.3" rx="4.6" ry="4"/>
	<ellipse cx="233.1" cy="686" rx="4.6" ry="4"/>
	<ellipse cx="224" cy="689.6" rx="4.6" ry="4"/>
	<ellipse cx="233.1" cy="693.3" rx="4.6" ry="4"/>
	<ellipse cx="242.1" cy="697" rx="4.6" ry="4"/>
	<ellipse cx="206" cy="700.6" rx="4.6" ry="4"/>
	<ellipse cx="178.9" cy="704.3" rx="4.6" ry="4"/>
	<ellipse cx="413.5" cy="707.9" rx="4.6" ry="4"/>
	<ellipse cx="440.5" cy="711.6" rx="4.6" ry="4"/>
	<ellipse cx="323.3" cy="715.2" rx="4.6" ry="4"/>
	<ellipse cx="251.1" cy="718.9" rx="4.6" ry="4"/>
	<ellipse cx="233.1" cy="722.5" rx="4.6" ry="4"/>
	<ellipse cx="169.9" cy="726.2" rx="4.6" ry="4"/>
	<ellipse cx="188" cy="729.9" rx="4.6" ry="4"/>
	<ellipse cx="178.9" cy="733.5" rx="4.6" ry="4"/>
	<ellipse cx="160.9" cy="744.5" rx="4.6" ry="4"/>
	<ellipse cx="197" cy="748.2" rx="4.6" ry="4"/>
	<ellipse cx="233.1" cy="751.8" rx="4.6" ry="4"/>
	<ellipse cx="251.1" cy="755.5" rx="4.6" ry="4"/>
	<ellipse cx="211.2" cy="755.5" rx="4.6" ry="4"/>
	<ellipse cx="169.9" cy="762.8" rx="4.6" ry="4"/>
	<ellipse cx="197" cy="766.5" rx="4.6" ry="4"/>
	<ellipse cx="215" cy="770.1" rx="4.6" ry="4"/>
	<ellipse cx="269.1" cy="773.8" rx="4.6" ry="4"/>
	<ellipse cx="160.9" cy="777.4" rx="4.6" ry="4"/>
	<ellipse cx="188" cy="781.1" rx="4.6" ry="4"/>
	<ellipse cx="206" cy="784.7" rx="4.6" ry="4"/>
	<ellipse cx="206" cy="788.4" rx="4.6" ry="4"/>
	<ellipse cx="206" cy="792.1" rx="4.6" ry="4"/>
	<ellipse cx="178.9" cy="795.7" rx="4.6" ry="4"/>
	<ellipse cx="178.9" cy="799.4" rx="4.6" ry="4"/>
	<ellipse cx="215" cy="803" rx="4.6" ry="4"/>
	<ellipse cx="233.1" cy="806.7" rx="4.6" ry="4"/>
	<ellipse cx="188" cy="810.4" rx="4.6" ry="4"/>
	<ellipse cx="224" cy="814" rx="4.6" ry="4"/>
	<ellipse cx="251.1" cy="817.7" rx="4.6" ry="4"/>
	<ellipse cx="278.2" cy="821.3" rx="4.6" ry="4"/>
	<ellipse cx="278.2" cy="825" rx="4.6" ry="4"/>
	<ellipse cx="269.1" cy="828.7" rx="4.6" ry="4"/>
	<ellipse cx="242.1" cy="832.3" rx="4.6" ry="4"/>
	<ellipse cx="215" cy="836" rx="4.6" ry="4"/>
	<ellipse cx="350.3" cy="839.6" rx="4.6" ry="4"/>
	<ellipse cx="305.2" cy="843.3" rx="4.6" ry="4"/>
	<ellipse cx="314.2" cy="847" rx="4.6" ry="4"/>
	<ellipse cx="314.2" cy="850.6" rx="4.6" ry="4"/>
	<ellipse cx="251.1" cy="854.3" rx="4.6" ry="4"/>
	<ellipse cx="242.1" cy="857.9" rx="4.6" ry="4"/>
	<ellipse cx="233.1" cy="861.6" rx="4.6" ry="4"/>
	<ellipse cx="224" cy="865.2" rx="4.6" ry="4"/>
	<ellipse cx="206" cy="868.9" rx="4.6" ry="4"/>
	<ellipse cx="242.1" cy="872.5" rx="4.6" ry="4"/>
	<ellipse cx="197" cy="876.2" rx="4.6" ry="4"/>
	<ellipse cx="169.9" cy="879.9" rx="4.6" ry="4"/>
	<ellipse cx="160.9" cy="883.5" rx="4.6" ry="4"/>
	<ellipse cx="160.9" cy="887.2" rx="4.6" ry="4"/>
	<ellipse cx="215" cy="890.8" rx="4.6" ry="4"/>
	<ellipse cx="233.1" cy="894.5" rx="4.6" ry="4"/>
	<ellipse cx="314.2" cy="898.2" rx="4.6" ry="4"/>
	<ellipse cx="278.2" cy="901.8" rx="4.6" ry="4"/>
	<ellipse cx="278.2" cy="905.5" rx="4.6" ry="4"/>
	<ellipse cx="251.1" cy="909.1" rx="4.6" ry="4"/>
	<ellipse cx="278.2" cy="912.8" rx="4.6" ry="4"/>
	<ellipse cx="431.5" cy="916.5" rx="4.6" ry="4"/>
	<ellipse cx="197" cy="920.1" rx="4.6" ry="4"/>
	<ellipse cx="197" cy="923.8" rx="4.6" ry="4"/>
	<ellipse cx="188" cy="927.4" rx="4.6" ry="4"/>
	<ellipse cx="206" cy="931.1" rx="4.6" ry="4"/>
	<ellipse cx="197" cy="934.7" rx="4.6" ry="4"/>
	<ellipse cx="206" cy="938.4" rx="4.6" ry="4"/>
	<ellipse cx="206" cy="942.1" rx="4.6" ry="4"/>
	<ellipse cx="169.9" cy="945.7" rx="4.6" ry="4"/>
	<ellipse cx="160.9" cy="949.4" rx="4.6" ry="4"/>
	<ellipse cx="160.9" cy="953" rx="4.6" ry="4"/>
	<ellipse cx="169.9" cy="956.7" rx="4.6" ry="4"/>
	<ellipse cx="124.8" cy="960.4" rx="4.6" ry="4"/>
	<ellipse cx="106.8" cy="964" rx="4.6" ry="4"/>
	<ellipse cx="188" cy="967.7" rx="4.6" ry="4"/>
	<ellipse cx="197" cy="971.3" rx="4.6" ry="4"/>
	<ellipse cx="215" cy="975" rx="4.6" ry="4"/>
	<ellipse cx="215" cy="978.7" rx="4.6" ry="4"/>
	<ellipse cx="197" cy="982.3" rx="4.6" ry="4"/>
	<ellipse cx="178.9" cy="986" rx="4.6" ry="4"/>
	<ellipse cx="178.9" cy="989.6" rx="4.6" ry="4"/>
	<ellipse cx="242.1" cy="993.3" rx="4.6" ry="4"/>
	<ellipse cx="278.2" cy="996.9" rx="4.6" ry="4"/>
	<ellipse cx="359.3" cy="1000.6" rx="4.6" ry="4"/>
	<ellipse cx="278.2" cy="1004.2" rx="4.6" ry="4"/>
	<ellipse cx="296.2" cy="1007.9" rx="4.6" ry="4"/>
	<ellipse cx="296.2" cy="1011.6" rx="4.6" ry="4"/>
	<ellipse cx="278.2" cy="1015.2" rx="4.6" ry="4"/>
	<ellipse cx="287.2" cy="1018.9" rx="4.6" ry="4"/>
	<path d="M314.2,1018.6c2.5,0,4.6,1.8,4.6,4c0,2.2-2.1,4-4.6,4s-4.6-1.8-4.6-4C309.6,1020.3,311.7,1018.6,314.2,1018.6z"/>
	<ellipse cx="287.2" cy="1026.2" rx="4.6" ry="4"/>
	<ellipse cx="278.2" cy="1029.9" rx="4.6" ry="4"/>
	<ellipse cx="260.1" cy="1033.5" rx="4.6" ry="4"/>
	<ellipse cx="215" cy="1037.2" rx="4.6" ry="4"/>
	<ellipse cx="124.8" cy="1040.8" rx="4.6" ry="4"/>
	<ellipse cx="178.9" cy="1044.5" rx="4.6" ry="4"/>
	<ellipse cx="206" cy="1048.2" rx="4.6" ry="4"/>
	<ellipse cx="197" cy="1051.8" rx="4.6" ry="4"/>
	<ellipse cx="197" cy="1055.5" rx="4.6" ry="4"/>
	<ellipse cx="215" cy="1059.1" rx="4.6" ry="4"/>
	<ellipse cx="242.1" cy="1062.8" rx="4.6" ry="4"/>
	<ellipse cx="224" cy="1066.4" rx="4.6" ry="4"/>
	<ellipse cx="332.3" cy="1070.1" rx="4.6" ry="4"/>
	<ellipse cx="359.3" cy="1073.8" rx="4.6" ry="4"/>
	<ellipse cx="413.5" cy="1077.4" rx="4.6" ry="4"/>
	<ellipse cx="260.1" cy="1081.1" rx="4.6" ry="4"/>
	<ellipse cx="188" cy="1084.7" rx="4.6" ry="4"/>
	<ellipse cx="197" cy="1088.4" rx="4.6" ry="4"/>
	<ellipse cx="215" cy="1092.1" rx="4.6" ry="4"/>
	<ellipse cx="206" cy="1095.7" rx="4.6" ry="4"/>
	<ellipse cx="151.9" cy="1099.4" rx="4.6" ry="4"/>
	<ellipse cx="169.9" cy="1103" rx="4.6" ry="4"/>
	<ellipse cx="160.9" cy="1106.7" rx="4.6" ry="4"/>
	<ellipse cx="269.1" cy="1110.4" rx="4.6" ry="4"/>
	<ellipse cx="296.2" cy="1114" rx="4.6" ry="4"/>
	<ellipse cx="260.1" cy="1117.7" rx="4.6" ry="4"/>
	<ellipse cx="269.1" cy="1121.3" rx="4.6" ry="4"/>
	<ellipse cx="188" cy="1125" rx="4.6" ry="4"/>
	<ellipse cx="215" cy="1128.7" rx="4.6" ry="4"/>
	<ellipse cx="178.9" cy="1132.3" rx="4.6" ry="4"/>
	<ellipse cx="233.1" cy="1136" rx="4.6" ry="4"/>
	<ellipse cx="314.2" cy="1139.6" rx="4.6" ry="4"/>
	<ellipse cx="233.1" cy="1143.3" rx="4.6" ry="4"/>
	<ellipse cx="224" cy="1146.9" rx="4.6" ry="4"/>
	<ellipse cx="287.2" cy="1150.6" rx="4.6" ry="4"/>
	<ellipse cx="224" cy="1154.2" rx="4.6" ry="4"/>
	<ellipse cx="287.2" cy="1157.9" rx="4.6" ry="4"/>
	<ellipse cx="215" cy="1168.9" rx="4.6" ry="4"/>
	<ellipse cx="242.1" cy="1172.6" rx="4.6" ry="4"/>
	<ellipse cx="359.3" cy="1176.2" rx="4.6" ry="4"/>
	<ellipse cx="359.3" cy="1179.9" rx="4.6" ry="4"/>
	<ellipse cx="314.2" cy="1183.5" rx="4.6" ry="4"/>
	<ellipse cx="431.5" cy="1187.2" rx="4.6" ry="4"/>
	<ellipse cx="413.5" cy="1198.2" rx="4.6" ry="4"/>
	<ellipse cx="169.9" cy="1201.8" rx="4.6" ry="4"/>
	<ellipse cx="178.9" cy="1205.5" rx="4.6" ry="4"/>
	<ellipse cx="160.9" cy="1209.1" rx="4.6" ry="4"/>
	<ellipse cx="314.2" cy="1212.8" rx="4.6" ry="4"/>
	<ellipse cx="296.2" cy="1216.4" rx="4.6" ry="4"/>
	<ellipse cx="269.1" cy="1220.1" rx="4.6" ry="4"/>
	<ellipse cx="242.1" cy="1223.8" rx="4.6" ry="4"/>
	<ellipse cx="287.2" cy="1227.4" rx="4.6" ry="4"/>
	<ellipse cx="368.4" cy="1231.1" rx="4.6" ry="4"/>
	<ellipse cx="386.4" cy="1234.7" rx="4.6" ry="4"/>
	<ellipse cx="332.3" cy="1238.4" rx="4.6" ry="4"/>
	<ellipse cx="440.5" cy="1242.1" rx="4.6" ry="4"/>
	<ellipse cx="206" cy="1245.7" rx="4.6" ry="4"/>
	<ellipse cx="224" cy="1249.4" rx="4.6" ry="4"/>
	<ellipse cx="377.4" cy="1253" rx="4.6" ry="4"/>
	<ellipse cx="476.6" cy="1256.7" rx="4.6" ry="4"/>
	<ellipse cx="431.5" cy="1264" rx="4.6" ry="4"/>
	<ellipse cx="359.3" cy="1267.7" rx="4.6" ry="4"/>
	<ellipse cx="206" cy="1271.3" rx="4.6" ry="4"/>
	<ellipse cx="160.9" cy="1275" rx="4.6" ry="4"/>
	<ellipse cx="233.1" cy="1278.6" rx="4.6" ry="4"/>
	<ellipse cx="233.1" cy="1282.3" rx="4.6" ry="4"/>
	<ellipse cx="251.1" cy="1286" rx="4.6" ry="4"/>
	<ellipse cx="197" cy="1289.6" rx="4.6" ry="4"/>
	<ellipse cx="106.8" cy="1293.3" rx="4.6" ry="4"/>
	<ellipse cx="88.7" cy="1296.9" rx="4.6" ry="4"/>
	<ellipse cx="206" cy="1300.6" rx="4.6" ry="4"/>
	<ellipse cx="215" cy="1304.2" rx="4.6" ry="4"/>
	<ellipse cx="350.3" cy="1307.9" rx="4.6" ry="4"/>
	<ellipse cx="359.3" cy="1311.6" rx="4.6" ry="4"/>
	<ellipse cx="242.1" cy="1315.2" rx="4.6" ry="4"/>
	<ellipse cx="287.2" cy="1318.9" rx="4.6" ry="4"/>
	<ellipse cx="386.4" cy="1322.6" rx="4.6" ry="4"/>
	<ellipse cx="404.4" cy="1326.2" rx="4.6" ry="4"/>
	<ellipse cx="305.2" cy="1329.9" rx="4.6" ry="4"/>
	<ellipse cx="305.2" cy="1333.5" rx="4.6" ry="4"/>
	<ellipse cx="197" cy="1337.2" rx="4.6" ry="4"/>
	<ellipse cx="287.2" cy="1340.8" rx="4.6" ry="4"/>
	<ellipse cx="287.2" cy="1344.5" rx="4.6" ry="4"/>
	<ellipse cx="224" cy="1348.2" rx="4.6" ry="4"/>
	<ellipse cx="314.2" cy="1351.8" rx="4.6" ry="4"/>
	<ellipse cx="404.4" cy="1355.5" rx="4.6" ry="4"/>
	<ellipse cx="494.6" cy="1366.4" rx="4.6" ry="4"/>
	<ellipse cx="458.6" cy="1370.1" rx="4.6" ry="4"/>
	<ellipse cx="359.3" cy="1373.8" rx="4.6" ry="4"/>
	<ellipse cx="431.5" cy="1377.4" rx="4.6" ry="4"/>
	<ellipse cx="440.5" cy="1388.4" rx="4.6" ry="4"/>
	<ellipse cx="494.6" cy="1392.1" rx="4.6" ry="4"/>
	<ellipse class="st2" cx="557.8" cy="283.5" rx="4.6" ry="4"/>
	<ellipse class="st2" cx="521.7" cy="86" rx="4.6" ry="4"/>
	<ellipse class="st2" cx="584.9" cy="133.5" rx="4.6" ry="4"/>
	<ellipse class="st2" cx="503.7" cy="137.2" rx="4.6" ry="4"/>
	<ellipse class="st2" cx="756.2" cy="148.2" rx="4.6" ry="4"/>
	<ellipse class="st2" cx="801.3" cy="151.8" rx="4.6" ry="4"/>
	<ellipse class="st2" cx="882.5" cy="155.5" rx="4.6" ry="4"/>
	<ellipse class="st2" cx="666" cy="162.8" rx="4.6" ry="4"/>
	<ellipse class="st2" cx="602.9" cy="188.4" rx="4.6" ry="4"/>
	<ellipse class="st2" cx="512.7" cy="203" rx="4.6" ry="4"/>
	<ellipse class="st2" cx="684.1" cy="206.7" rx="4.6" ry="4"/>
	<ellipse class="st2" cx="503.7" cy="214" rx="4.6" ry="4"/>
	<ellipse class="st2" cx="575.8" cy="257.9" rx="4.6" ry="4"/>
	<ellipse class="st2" cx="711.1" cy="261.6" rx="4.6" ry="4"/>
	<ellipse class="st2" cx="711.1" cy="265.2" rx="4.6" ry="4"/>
	<ellipse class="st2" cx="648" cy="268.9" rx="4.6" ry="4"/>
	<ellipse class="st2" cx="666" cy="279.9" rx="4.6" ry="4"/>
	<ellipse class="st2" cx="675.1" cy="287.2" rx="4.6" ry="4"/>
	<ellipse class="st2" cx="693.1" cy="290.8" rx="4.6" ry="4"/>
	<ellipse class="st2" cx="548.8" cy="294.5" rx="4.6" ry="4"/>
	<ellipse class="st2" cx="530.7" cy="342.1" rx="4.6" ry="4"/>
	<ellipse class="st2" cx="702.1" cy="1161.6" rx="4.6" ry="4"/>
	<ellipse class="st2" cx="548.8" cy="1165.2" rx="4.6" ry="4"/>
	<ellipse class="st2" cx="566.8" cy="1190.8" rx="4.6" ry="4"/>
	<ellipse class="st2" cx="738.2" cy="1194.5" rx="4.6" ry="4"/>
	<ellipse class="st2" cx="530.7" cy="1260.4" rx="4.6" ry="4"/>
	<ellipse class="st2" cx="575.8" cy="1359.1" rx="4.6" ry="4"/>
	<ellipse class="st2" cx="738.2" cy="1362.8" rx="4.6" ry="4"/>
	<ellipse class="st2" cx="548.8" cy="1381.1" rx="4.6" ry="4"/>
	<ellipse class="st2" cx="503.7" cy="1384.7" rx="4.6" ry="4"/>
	<ellipse class="st2" cx="602.9" cy="1395.7" rx="4.6" ry="4"/>
	<ellipse cx="332.3" cy="1399.4" rx="4.6" ry="4"/>
	<ellipse cx="404.4" cy="1403" rx="4.6" ry="4"/>
	<ellipse cx="350.3" cy="1406.7" rx="4.6" ry="4"/>
	<ellipse cx="377.4" cy="1410.4" rx="4.6" ry="4"/>
	<ellipse cx="350.3" cy="1414" rx="4.6" ry="4"/>
	<ellipse cx="377.4" cy="1417.7" rx="4.6" ry="4"/>
	<path class="st3" d="M987.2,153.1c3.3,0,6,2.7,6,6s-2.7,6-6,6s-6-2.7-6-6S983.9,153.1,987.2,153.1"/>
	<line class="st4" x1="983.9" y1="159.1" x2="990.4" y2="159.1"/>
	<line class="st4" x1="987.2" y1="155.9" x2="987.2" y2="162.4"/>
	<path class="st5" d="M752.3,180.8H955c1.6,0,3,1.3,3,2.9v106.6c0,1.6-1.3,3-3,3H752.3c-1.6,0-3-1.3-3-3V183.8
		C749.3,182.1,750.7,180.8,752.3,180.8z"/>
	<path class="st6" d="M752.3,180.8H955c1.6,0,3,1.3,3,2.9v106.6c0,1.6-1.3,3-3,3H752.3c-1.6,0-3-1.3-3-3V183.8
		C749.3,182.1,750.7,180.8,752.3,180.8z"/>
	<path d="M761.8,209.9v-1.6l4.9-5.1c0.5-0.6,1-1,1.3-1.5c0.3-0.4,0.6-0.8,0.8-1.2c0.2-0.4,0.3-0.8,0.2-1.2c0-0.4-0.1-0.9-0.3-1.2
		c-0.2-0.4-0.6-0.6-0.9-0.8c-0.4-0.2-0.9-0.3-1.3-0.3c-0.5,0-0.9,0.1-1.4,0.3c-0.4,0.2-0.7,0.5-0.9,0.9c-0.2,0.4-0.3,0.9-0.3,1.4
		h-2.1c0-0.8,0.2-1.6,0.6-2.3c0.4-0.7,1-1.2,1.7-1.6c0.8-0.4,1.6-0.6,2.4-0.6c0.8,0,1.7,0.2,2.4,0.6c0.7,0.3,1.2,0.8,1.6,1.5
		c0.4,0.6,0.6,1.4,0.6,2.1c0,0.5-0.1,1.1-0.3,1.6c-0.3,0.6-0.6,1.2-1,1.7c-0.6,0.8-1.3,1.6-2.1,2.3l-2.9,3v0.1h6.5v1.9L761.8,209.9z
		"/>
	<path d="M774,209.9v-1.6l4.9-5.1c0.5-0.6,1-1,1.3-1.5c0.3-0.4,0.6-0.8,0.8-1.2c0.2-0.4,0.3-0.8,0.3-1.2c0-0.9-0.5-1.7-1.3-2.1
		c-0.4-0.2-0.9-0.3-1.3-0.3c-0.5,0-0.9,0.1-1.4,0.3c-0.4,0.2-0.7,0.5-0.9,0.9c-0.2,0.4-0.3,0.9-0.3,1.4H774c0-0.8,0.2-1.6,0.6-2.3
		c0.4-0.7,1-1.2,1.7-1.6c0.8-0.4,1.6-0.6,2.4-0.6c0.8,0,1.7,0.2,2.4,0.6c0.7,0.3,1.2,0.8,1.6,1.5c0.4,0.6,0.6,1.4,0.6,2.1
		c0,0.5-0.1,1.1-0.3,1.6c-0.2,0.6-0.6,1.2-1,1.7c-0.6,0.8-1.3,1.6-2.1,2.3l-2.9,3v0.1h6.5v1.9L774,209.9z"/>
	<path d="M801.7,199.9c-0.1-0.4-0.3-0.8-0.5-1.2c-0.2-0.3-0.5-0.6-0.8-0.9c-0.3-0.2-0.7-0.4-1.1-0.6c-0.4-0.1-0.9-0.2-1.3-0.2
		c-0.8,0-1.6,0.2-2.2,0.6c-0.7,0.5-1.2,1.1-1.6,1.9c-0.4,0.9-0.6,2-0.6,3c0,1,0.2,2.1,0.6,3c0.3,0.8,0.9,1.4,1.6,1.9
		c0.7,0.4,1.5,0.6,2.3,0.6c0.7,0,1.4-0.1,2.1-0.5c0.6-0.3,1.1-0.8,1.4-1.4c0.3-0.6,0.5-1.4,0.5-2.1l0.6,0.1h-4.2v-1.8h5.7v1.7
		c0,1.1-0.2,2.2-0.8,3.2c-0.5,0.9-1.3,1.6-2.2,2.1c-1,0.5-2,0.8-3.1,0.7c-1.2,0-2.4-0.3-3.5-0.9c-1-0.6-1.8-1.5-2.3-2.6
		c-0.6-1.3-0.9-2.6-0.8-4c0-1.1,0.1-2.1,0.5-3.1c0.3-0.9,0.8-1.7,1.4-2.4c0.6-0.6,1.3-1.1,2.1-1.5c0.8-0.4,1.7-0.5,2.6-0.5
		c0.7,0,1.5,0.1,2.2,0.4c0.7,0.2,1.3,0.6,1.8,1c1.1,0.9,1.8,2.1,2,3.5L801.7,199.9z"/>
	<path d="M811.3,210.1c-1,0-1.9-0.2-2.8-0.7c-0.8-0.5-1.4-1.1-1.8-1.9c-0.8-1.9-0.8-4,0-5.9c0.8-1.7,2.5-2.8,4.4-2.7
		c0.6,0,1.2,0.1,1.8,0.3c0.6,0.2,1.1,0.6,1.5,1c0.5,0.5,0.9,1.1,1.1,1.7c0.3,0.8,0.4,1.7,0.4,2.5v0.8h-8.7v-1.6h6.6
		c0-0.5-0.1-1-0.3-1.5c-0.2-0.4-0.6-0.8-1-1c-0.4-0.3-0.9-0.4-1.4-0.4c-0.5,0-1.1,0.1-1.5,0.4c-0.4,0.3-0.8,0.7-1,1.1
		c-0.2,0.5-0.4,1-0.4,1.5v1.2c0,0.6,0.1,1.3,0.4,1.9c0.2,0.5,0.6,0.9,1.1,1.2c0.5,0.3,1.1,0.4,1.6,0.4c0.4,0,0.7-0.1,1.1-0.2
		c0.3-0.1,0.6-0.3,0.9-0.5c0.2-0.2,0.4-0.5,0.5-0.9l2,0.4c-0.2,0.6-0.4,1.1-0.9,1.6c-0.4,0.4-1,0.8-1.5,1
		C812.8,210,812,210.1,811.3,210.1z"/>
	<path d="M820.5,203.4v6.5h-2.1V199h2v1.8h0.1c0.2-0.6,0.7-1.1,1.2-1.4c0.6-0.4,1.3-0.5,2-0.5c0.7,0,1.4,0.1,2,0.5
		c0.6,0.3,1,0.8,1.3,1.4c0.3,0.7,0.5,1.5,0.5,2.3v6.9h-2.1v-6.7c0-0.7-0.2-1.3-0.6-1.9c-0.4-0.5-1.1-0.7-1.7-0.7
		c-0.5,0-0.9,0.1-1.3,0.3c-0.4,0.2-0.7,0.5-0.9,0.9C820.6,202.4,820.5,202.9,820.5,203.4z"/>
	<path d="M832.4,203.4v6.5h-2.1V199h2v1.8h0.1c0.2-0.6,0.7-1.1,1.2-1.4c0.6-0.4,1.3-0.5,2-0.5c0.7,0,1.4,0.1,2,0.5
		c0.6,0.3,1,0.8,1.3,1.4c0.3,0.7,0.5,1.5,0.5,2.3v6.9h-2.1v-6.7c0-0.7-0.2-1.3-0.6-1.9c-0.4-0.5-1.1-0.7-1.7-0.7
		c-0.5,0-0.9,0.1-1.3,0.3c-0.4,0.2-0.7,0.5-0.9,0.9C832.5,202.4,832.4,202.9,832.4,203.4z"/>
	<path d="M845.4,210.1c-0.6,0-1.3-0.1-1.9-0.4c-0.5-0.2-1-0.6-1.3-1.1c-0.3-0.5-0.5-1.2-0.5-1.8c0-0.5,0.1-1.1,0.4-1.5
		c0.2-0.4,0.6-0.7,1-0.9c0.4-0.2,0.9-0.4,1.3-0.5c0.5-0.1,1-0.2,1.5-0.3l1.6-0.2c0.3,0,0.6-0.1,0.9-0.2c0.2-0.1,0.3-0.3,0.3-0.6l0,0
		c0-0.5-0.2-1.1-0.5-1.4c-0.4-0.4-1-0.6-1.5-0.5c-0.6,0-1.2,0.1-1.7,0.5c-0.4,0.3-0.7,0.6-0.8,1l-2-0.4c0.2-0.6,0.5-1.2,1-1.6
		c0.5-0.4,1-0.7,1.6-0.9c0.6-0.2,1.2-0.3,1.9-0.3c0.5,0,1,0.1,1.4,0.2c0.5,0.1,1,0.3,1.4,0.6c0.4,0.3,0.8,0.7,1,1.1
		c0.3,0.6,0.4,1.3,0.4,1.9v7.2h-2.1v-1.5h-0.1c-0.2,0.3-0.4,0.6-0.6,0.8c-0.3,0.3-0.7,0.5-1.1,0.7
		C846.5,210.1,845.9,210.1,845.4,210.1z M845.9,208.4c0.5,0,1-0.1,1.5-0.3c0.4-0.2,0.8-0.5,1-0.9c0.2-0.4,0.3-0.8,0.3-1.2v-1.4
		c-0.1,0.1-0.3,0.2-0.4,0.2c-0.2,0.1-0.5,0.1-0.7,0.2l-0.8,0.1l-0.7,0.1c-0.4,0-0.8,0.1-1.1,0.3c-0.3,0.1-0.6,0.3-0.8,0.5
		c-0.2,0.3-0.3,0.6-0.3,0.9c0,0.5,0.2,0.9,0.6,1.2C844.9,208.3,845.4,208.4,845.9,208.4z"/>
	<path d="M854.7,197.3c-0.4,0-0.7-0.1-1-0.4c-0.3-0.2-0.4-0.6-0.4-0.9c0-0.3,0.1-0.7,0.4-0.9c0.3-0.3,0.6-0.4,1-0.4
		c0.4,0,0.7,0.1,1,0.4c0.3,0.2,0.4,0.6,0.4,0.9c0,0.3-0.1,0.7-0.4,0.9C855.4,197.1,855.1,197.3,854.7,197.3z M853.6,209.9V199h2.1
		v10.9L853.6,209.9z"/>
	<path d="M863.2,210.1c-0.9,0-1.9-0.2-2.7-0.7c-0.8-0.5-1.4-1.2-1.8-2c-0.8-1.9-0.8-4,0-5.9c0.4-0.8,1-1.5,1.8-2
		c1.7-0.9,3.7-0.9,5.3,0c0.8,0.5,1.4,1.2,1.8,2c0.8,1.9,0.8,4,0,5.9c-0.4,0.8-1,1.5-1.8,2C865.1,209.9,864.2,210.1,863.2,210.1z
		 M863.2,208.3c0.6,0,1.2-0.2,1.7-0.5c0.5-0.4,0.8-0.8,1-1.4c0.2-0.6,0.3-1.3,0.3-1.9c0-0.7-0.1-1.3-0.3-1.9c-0.2-0.6-0.5-1-1-1.4
		c-1-0.7-2.3-0.7-3.3,0c-0.5,0.4-0.8,0.9-1,1.4c-0.2,0.6-0.3,1.3-0.3,1.9c0,0.7,0.1,1.3,0.3,1.9c0.2,0.6,0.5,1,1,1.4
		C862,208.1,862.6,208.3,863.2,208.3L863.2,208.3z"/>
	<path d="M762.7,233.9h-1.8l5.3-14.6h1.8l5.3,14.6h-1.8l-4.3-12.2h-0.1L762.7,233.9z M763.4,228.2h7.5v1.6h-7.5V228.2z"/>
	<path d="M777.1,219.3v14.6h-1.7v-14.6H777.1z"/>
	<path d="M784.9,223v1.4h-5.7V223H784.9z M780.9,220.4h1.7v10.4c0,0.4,0,0.7,0.2,1.1c0.1,0.2,0.3,0.4,0.5,0.5
		c0.2,0.1,0.5,0.1,0.7,0.1c0.1,0,0.3,0,0.5,0l0.3-0.1l0.3,1.5c-0.2,0.1-0.3,0.1-0.5,0.1c-0.3,0.1-0.5,0.1-0.8,0.1
		c-0.5,0-1-0.1-1.4-0.3c-0.5-0.2-0.8-0.5-1.1-0.9c-0.3-0.5-0.5-1-0.5-1.6V220.4z"/>
	<path d="M790.7,234.1c-0.7,0-1.3-0.1-1.9-0.4c-1.2-0.5-1.9-1.7-1.8-3c0-0.5,0.1-1.1,0.4-1.5c0.2-0.4,0.6-0.7,1-0.9
		c0.4-0.2,0.9-0.4,1.4-0.5c0.5-0.1,1-0.2,1.5-0.3l1.6-0.2c0.3,0,0.6-0.1,0.9-0.2c0.2-0.1,0.3-0.3,0.3-0.6v-0.1
		c0-0.6-0.2-1.2-0.6-1.6c-0.5-0.4-1.1-0.6-1.7-0.6c-1.2-0.1-2.3,0.6-2.8,1.6l-1.6-0.6c0.2-0.6,0.6-1.1,1.1-1.6
		c0.5-0.4,1-0.6,1.6-0.8c0.5-0.1,1.1-0.2,1.7-0.2c0.4,0,0.8,0,1.2,0.1c0.5,0.1,0.9,0.3,1.3,0.5c0.5,0.3,0.8,0.7,1.1,1.2
		c0.3,0.6,0.5,1.4,0.4,2.1v7.2H794v-1.5h-0.1c-0.1,0.3-0.3,0.5-0.6,0.8c-0.3,0.3-0.7,0.5-1.1,0.7C791.8,234,791.2,234.1,790.7,234.1
		z M790.9,232.6c0.6,0,1.2-0.1,1.7-0.4c0.4-0.2,0.8-0.6,1-1c0.2-0.4,0.3-0.8,0.3-1.3v-1.5c-0.1,0.1-0.3,0.2-0.5,0.2
		c-0.3,0.1-0.5,0.1-0.8,0.2l-0.9,0.1L791,229c-0.4,0.1-0.8,0.1-1.2,0.3c-0.3,0.1-0.7,0.3-0.9,0.6c-0.2,0.3-0.4,0.6-0.3,1
		c0,0.5,0.2,1,0.7,1.3C789.7,232.5,790.3,232.6,790.9,232.6z"/>
	<path d="M808.8,234.1c-1.9,0.1-3.6-1-4.3-2.7c-0.4-0.9-0.6-1.9-0.6-2.9c0-1,0.2-2,0.6-2.9c0.4-0.8,1-1.5,1.7-2
		c0.8-0.5,1.7-0.7,2.6-0.7c0.7,0,1.4,0.1,2.1,0.4c0.6,0.3,1.1,0.7,1.5,1.2c0.4,0.5,0.6,1.1,0.7,1.8h-1.7c-0.1-0.5-0.4-1-0.8-1.3
		c-0.5-0.4-1.1-0.6-1.8-0.6c-0.6,0-1.2,0.2-1.7,0.5c-0.5,0.4-0.9,0.9-1.2,1.4c-0.3,0.7-0.4,1.4-0.4,2.1c0,0.8,0.1,1.5,0.4,2.2
		c0.2,0.6,0.6,1.1,1.1,1.5c0.5,0.4,1.1,0.5,1.7,0.5c0.4,0,0.8-0.1,1.2-0.2c0.3-0.1,0.7-0.4,0.9-0.6c0.2-0.3,0.4-0.6,0.5-1h1.7
		c-0.2,1.3-1,2.4-2.2,2.9C810.2,234,809.5,234.1,808.8,234.1z"/>
	<path d="M820,234.1c-0.9,0-1.8-0.2-2.6-0.7c-0.8-0.5-1.4-1.2-1.7-2c-0.4-0.9-0.6-1.9-0.6-2.9c0-1,0.2-2.1,0.6-3
		c0.4-0.8,1-1.5,1.7-2c1.6-0.9,3.6-0.9,5.2,0c0.8,0.5,1.4,1.2,1.7,2c0.4,0.9,0.6,2,0.6,3c0,1-0.2,2-0.6,2.9
		C823.5,233.1,821.8,234.1,820,234.1L820,234.1z M820,232.6c0.7,0,1.3-0.2,1.8-0.6c0.5-0.4,0.9-0.9,1.1-1.5c0.2-0.6,0.4-1.3,0.3-2
		c0-0.7-0.1-1.4-0.3-2c-0.2-0.6-0.6-1.1-1.1-1.5c-1.1-0.8-2.6-0.8-3.7,0c-0.5,0.4-0.9,0.9-1.1,1.5c-0.2,0.6-0.4,1.3-0.3,2
		c0,0.7,0.1,1.4,0.3,2c0.2,0.6,0.6,1.1,1.1,1.5C818.7,232.4,819.3,232.6,820,232.6z"/>
	<path d="M829.1,227.3v6.6h-1.7V223h1.6v1.7h0.2c0.2-0.5,0.7-1,1.2-1.3c0.6-0.4,1.3-0.5,2-0.5c0.7,0,1.3,0.1,1.9,0.4
		c0.6,0.3,1,0.8,1.3,1.4c0.3,0.7,0.5,1.5,0.5,2.3v6.9h-1.7v-6.8c0-0.7-0.2-1.4-0.7-2c-0.5-0.5-1.1-0.8-1.8-0.7c-0.5,0-1,0.1-1.4,0.4
		c-0.4,0.2-0.8,0.6-1,1C829.2,226.2,829.1,226.8,829.1,227.3z"/>
	<path d="M843.6,234.1c-1.9,0.1-3.6-1-4.3-2.7c-0.4-0.9-0.6-1.9-0.6-2.9c0-1,0.2-2,0.6-2.9c0.4-0.8,1-1.5,1.7-2
		c0.8-0.5,1.7-0.7,2.6-0.7c0.7,0,1.4,0.1,2.1,0.4c0.6,0.3,1.1,0.7,1.5,1.2c0.4,0.5,0.6,1.1,0.7,1.8h-1.7c-0.1-0.5-0.4-1-0.8-1.3
		c-0.5-0.4-1.1-0.6-1.8-0.6c-0.6,0-1.2,0.2-1.7,0.5c-0.5,0.4-0.9,0.9-1.2,1.4c-0.3,0.7-0.4,1.4-0.4,2.1c0,0.8,0.1,1.5,0.4,2.2
		c0.2,0.6,0.6,1.1,1.1,1.5c0.5,0.4,1.1,0.5,1.7,0.5c0.4,0,0.8-0.1,1.2-0.2c0.3-0.1,0.7-0.4,0.9-0.6c0.2-0.3,0.4-0.6,0.5-1h1.7
		c-0.2,1.3-1,2.4-2.2,2.9C845,234,844.3,234.1,843.6,234.1z"/>
	<path d="M854.9,234.1c-1,0-1.9-0.2-2.7-0.7c-0.8-0.5-1.4-1.2-1.8-2c-0.4-0.9-0.6-1.9-0.6-2.9c0-1,0.2-2.1,0.6-3
		c0.4-0.8,1-1.5,1.7-2c0.8-0.5,1.7-0.7,2.6-0.7c0.6,0,1.1,0.1,1.7,0.3c0.6,0.2,1.1,0.5,1.5,0.9c0.5,0.5,0.9,1.1,1.1,1.8
		c0.3,0.8,0.4,1.7,0.4,2.6v0.7H851v-1.4h6.7c0-0.6-0.1-1.1-0.4-1.6c-0.2-0.5-0.6-0.9-1-1.1c-0.5-0.3-1-0.4-1.6-0.4
		c-0.6,0-1.2,0.2-1.7,0.5c-0.5,0.3-0.9,0.8-1.1,1.3c-0.3,0.5-0.4,1.1-0.4,1.7v1c0,0.7,0.1,1.4,0.4,2.1c0.3,0.5,0.7,1,1.2,1.3
		c0.5,0.3,1.2,0.5,1.8,0.4c0.4,0,0.8-0.1,1.2-0.2c0.3-0.1,0.7-0.3,0.9-0.6c0.3-0.3,0.5-0.6,0.6-1l1.6,0.5c-0.2,0.5-0.5,1-0.8,1.4
		c-0.4,0.4-0.9,0.8-1.5,1C856.3,234,855.6,234.1,854.9,234.1z"/>
	<path d="M863.7,227.3v6.6H862V223h1.6v1.7h0.1c0.3-0.5,0.7-1,1.2-1.3c0.6-0.4,1.3-0.5,2-0.5c0.7,0,1.3,0.1,1.9,0.4
		c0.6,0.3,1,0.8,1.3,1.4c0.3,0.7,0.5,1.5,0.5,2.3v6.9h-1.7v-6.8c0-0.7-0.2-1.4-0.7-2c-0.5-0.5-1.1-0.8-1.8-0.7c-0.5,0-1,0.1-1.4,0.4
		c-0.4,0.2-0.8,0.6-1,1C863.8,226.2,863.6,226.8,863.7,227.3z"/>
	<path d="M878.4,223v1.4h-5.7V223H878.4z M874.4,220.4h1.7v10.4c0,0.4,0,0.7,0.2,1.1c0.1,0.2,0.3,0.4,0.5,0.5
		c0.2,0.1,0.5,0.1,0.7,0.1c0.1,0,0.3,0,0.5,0l0.3-0.1l0.3,1.5c-0.2,0.1-0.3,0.1-0.5,0.1c-0.3,0.1-0.5,0.1-0.8,0.1
		c-0.5,0-1-0.1-1.4-0.3c-0.5-0.2-0.8-0.5-1.1-0.9c-0.3-0.5-0.5-1-0.5-1.6V220.4z"/>
	<path d="M881,233.9V223h1.6v1.6h0.1c0.2-0.5,0.6-1,1.1-1.3c0.5-0.3,1.1-0.5,1.8-0.5h0.4h0.4v1.7l-0.4-0.1c-0.2,0-0.4,0-0.6,0
		c-0.5,0-1,0.1-1.4,0.3c-0.4,0.2-0.8,0.5-1,0.9c-0.2,0.4-0.4,0.8-0.4,1.3v6.9L881,233.9z"/>
	<path d="M891.6,234.1c-0.6,0-1.3-0.1-1.9-0.4c-1.2-0.5-1.9-1.7-1.8-3c0-0.5,0.1-1.1,0.4-1.5c0.2-0.4,0.6-0.7,1-0.9
		c0.4-0.2,0.9-0.4,1.4-0.5c0.5-0.1,1-0.2,1.5-0.3l1.6-0.2c0.3,0,0.6-0.1,0.9-0.2c0.2-0.1,0.3-0.3,0.3-0.6v-0.1
		c0-0.6-0.2-1.2-0.6-1.6c-0.5-0.4-1.1-0.6-1.7-0.6c-0.7,0-1.3,0.1-1.9,0.5c-0.4,0.3-0.8,0.7-1,1.1l-1.6-0.6c0.2-0.6,0.6-1.1,1.1-1.6
		c0.5-0.4,1-0.6,1.6-0.8c0.5-0.1,1.1-0.2,1.7-0.2c0.4,0,0.8,0,1.2,0.1c0.5,0.1,0.9,0.3,1.3,0.5c0.5,0.3,0.8,0.7,1.1,1.2
		c0.3,0.6,0.5,1.4,0.4,2.1v7.2h-1.7v-1.5h-0.1c-0.1,0.3-0.3,0.5-0.6,0.8c-0.3,0.3-0.7,0.5-1.1,0.7
		C892.7,234,892.1,234.1,891.6,234.1z M891.9,232.6c0.6,0,1.2-0.1,1.7-0.4c0.4-0.2,0.8-0.6,1-1c0.2-0.4,0.4-0.8,0.4-1.3v-1.5
		c-0.1,0.1-0.3,0.2-0.5,0.2c-0.3,0.1-0.5,0.1-0.8,0.2l-0.9,0.1L892,229c-0.4,0.1-0.8,0.1-1.2,0.3c-0.3,0.1-0.7,0.3-0.9,0.6
		c-0.6,0.7-0.4,1.8,0.3,2.3C890.7,232.5,891.3,232.7,891.9,232.6z"/>
	<path d="M899.4,233.9v-1.3l6.2-8v-0.1h-6V223h8.2v1.3l-6,7.9v0.1h6.2v1.6L899.4,233.9z"/>
	<path d="M911.3,221.1c-0.3,0-0.6-0.1-0.8-0.3c-0.2-0.2-0.4-0.5-0.3-0.8c0-0.3,0.1-0.6,0.3-0.8c0.5-0.4,1.2-0.4,1.7,0
		c0.2,0.2,0.4,0.5,0.3,0.8c0,0.3-0.1,0.6-0.3,0.8C912,221,911.7,221.1,911.3,221.1z M910.5,233.9V223h1.7v10.9L910.5,233.9z"/>
	<path d="M919.7,234.1c-1.8,0.1-3.5-1-4.3-2.7c-0.4-0.9-0.6-1.9-0.6-2.9c0-1,0.2-2.1,0.6-3c1.1-2.4,4-3.4,6.4-2.3
		c1,0.5,1.8,1.3,2.3,2.3c0.4,0.9,0.6,2,0.6,3c0,1-0.2,2-0.6,2.9c-0.4,0.8-1,1.5-1.7,2C921.5,233.9,920.6,234.1,919.7,234.1z
		 M919.7,232.6c0.7,0,1.3-0.2,1.8-0.6c0.5-0.4,0.9-0.9,1.1-1.5c0.2-0.6,0.4-1.3,0.3-2c0-0.7-0.1-1.4-0.3-2c-0.2-0.6-0.6-1.1-1.1-1.5
		c-1.1-0.8-2.6-0.8-3.7,0c-0.5,0.4-0.9,0.9-1.1,1.5c-0.2,0.6-0.3,1.3-0.3,2c0,0.7,0.1,1.4,0.3,2c0.2,0.6,0.6,1.1,1.1,1.5
		C918.4,232.4,919,232.6,919.7,232.6z"/>
	<path d="M928.8,227.3v6.6h-1.7V223h1.6v1.7h0.1c0.3-0.5,0.7-1,1.2-1.3c0.6-0.4,1.3-0.5,2-0.5c0.7,0,1.3,0.1,1.9,0.4
		c0.6,0.3,1,0.8,1.3,1.4c0.3,0.7,0.5,1.5,0.5,2.3v6.9h-1.7v-6.8c0-0.7-0.2-1.4-0.7-2c-0.5-0.5-1.1-0.8-1.8-0.7c-0.5,0-1,0.1-1.4,0.4
		c-0.4,0.2-0.8,0.6-1,1C928.9,226.2,928.8,226.8,928.8,227.3z"/>
	<path d="M943.5,234.1c-1,0-1.9-0.2-2.7-0.7c-0.8-0.5-1.4-1.2-1.8-2c-0.4-0.9-0.6-1.9-0.6-2.9c0-1,0.2-2.1,0.6-3
		c0.4-0.8,1-1.5,1.7-2c0.8-0.5,1.7-0.7,2.6-0.7c0.6,0,1.1,0.1,1.7,0.3c0.6,0.2,1.1,0.5,1.5,0.9c0.5,0.5,0.9,1,1.1,1.7
		c0.3,0.8,0.4,1.7,0.4,2.6v0.8h-8.4v-1.4h6.7c0-0.6-0.1-1.1-0.4-1.6c-0.2-0.5-0.6-0.9-1-1.1c-0.5-0.3-1-0.4-1.6-0.4
		c-0.6,0-1.2,0.2-1.7,0.5c-0.5,0.3-0.9,0.8-1.1,1.3c-0.3,0.5-0.4,1.1-0.4,1.7v1c0,0.7,0.1,1.4,0.4,2.1c0.3,0.5,0.7,1,1.2,1.3
		c0.5,0.3,1.2,0.5,1.8,0.4c0.4,0,0.8-0.1,1.2-0.2c0.3-0.1,0.7-0.3,0.9-0.6c0.3-0.3,0.5-0.6,0.6-1l1.6,0.5c-0.2,0.5-0.5,1-0.9,1.4
		c-0.4,0.4-0.9,0.8-1.5,1C944.8,234,944.1,234.1,943.5,234.1z"/>
	<path d="M766,258.1c-0.9,0-1.7-0.2-2.4-0.7c-0.7-0.5-1.3-1.2-1.6-2c-0.8-1.9-0.8-4.1,0-6c0.3-0.8,0.9-1.5,1.7-2
		c0.7-0.5,1.6-0.7,2.4-0.7c0.6,0,1.2,0.1,1.7,0.4c0.4,0.2,0.7,0.5,1,0.8l0.5,0.7h0.1v-5.4h1.6v14.6h-1.6v-1.7h-0.2
		c-0.1,0.2-0.3,0.5-0.5,0.8c-0.3,0.3-0.6,0.6-1,0.8C767.1,257.9,766.6,258.1,766,258.1z M766.2,256.6c0.6,0,1.2-0.2,1.7-0.5
		c0.5-0.4,0.8-0.9,1.1-1.5c0.3-0.7,0.4-1.4,0.4-2.2c0-0.7-0.1-1.5-0.4-2.1c-0.2-0.6-0.5-1.1-1-1.4c-0.5-0.4-1.1-0.5-1.7-0.5
		c-0.6,0-1.3,0.2-1.8,0.5c-0.5,0.4-0.8,0.9-1.1,1.5c-0.5,1.4-0.5,2.8,0,4.2c0.2,0.6,0.6,1.1,1.1,1.5
		C765,256.4,765.6,256.6,766.2,256.6L766.2,256.6z"/>
	<path d="M775.2,245.1c-0.3,0-0.6-0.1-0.8-0.3c-0.2-0.2-0.3-0.5-0.3-0.8c0-0.3,0.1-0.6,0.3-0.8c0.2-0.2,0.5-0.3,0.8-0.3
		c0.3,0,0.6,0.1,0.8,0.3c0.2,0.2,0.4,0.5,0.4,0.8c0,0.3-0.1,0.6-0.4,0.8C775.8,245,775.5,245.1,775.2,245.1z M774.3,257.9V247h1.7
		v10.9L774.3,257.9z"/>
	<path d="M792.4,249.4l-1.5,0.4c-0.1-0.3-0.2-0.5-0.4-0.7c-0.2-0.3-0.5-0.5-0.8-0.6c-0.4-0.2-0.8-0.3-1.2-0.2
		c-0.6,0-1.2,0.1-1.7,0.5c-0.4,0.2-0.7,0.7-0.7,1.2c0,0.4,0.2,0.8,0.5,1c0.4,0.3,0.9,0.5,1.4,0.6l1.6,0.4c0.8,0.2,1.6,0.5,2.2,1.1
		c0.5,0.5,0.7,1.2,0.7,1.9c0,0.6-0.2,1.2-0.5,1.7c-0.4,0.5-0.9,0.9-1.5,1.2c-0.7,0.3-1.5,0.4-2.2,0.4c-1,0-1.9-0.2-2.8-0.7
		c-0.7-0.5-1.2-1.3-1.4-2.1l1.6-0.4c0.1,0.5,0.4,1,0.9,1.3c0.5,0.3,1.1,0.5,1.7,0.4c0.7,0,1.3-0.1,1.9-0.5c0.4-0.3,0.7-0.7,0.7-1.2
		c0-0.4-0.1-0.7-0.4-0.9c-0.3-0.3-0.8-0.5-1.2-0.6l-1.8-0.4c-0.8-0.1-1.6-0.5-2.2-1.1c-0.9-1-0.9-2.4-0.2-3.5
		c0.4-0.5,0.9-0.9,1.4-1.1c0.6-0.3,1.3-0.4,2-0.4c0.9-0.1,1.8,0.2,2.5,0.7C791.7,248,792.2,248.7,792.4,249.4z"/>
	<path d="M795.2,257.9V247h1.6v1.7h0.2c0.2-0.6,0.6-1,1.1-1.4c0.5-0.3,1.2-0.5,1.8-0.5c0.6,0,1.3,0.1,1.8,0.5
		c0.5,0.3,0.9,0.8,1.1,1.4h0.1c0.3-0.6,0.7-1,1.3-1.3c0.6-0.3,1.3-0.5,2-0.5c0.9,0,1.7,0.3,2.4,0.9c0.7,0.8,1,1.8,0.9,2.8v7.3h-1.7
		v-7.3c0.1-0.6-0.2-1.3-0.7-1.7c-0.4-0.3-1-0.5-1.6-0.5c-0.7,0-1.3,0.2-1.8,0.7c-0.4,0.5-0.7,1.1-0.6,1.8v7.1h-1.7v-7.5
		c0-0.6-0.2-1.1-0.6-1.5c-0.4-0.4-1-0.6-1.6-0.6c-0.4,0-0.9,0.1-1.2,0.4c-0.4,0.2-0.7,0.6-0.9,1c-0.2,0.4-0.4,0.9-0.3,1.4v6.8
		L795.2,257.9z"/>
	<path d="M817,258.1c-0.9,0-1.8-0.2-2.6-0.7c-0.8-0.5-1.4-1.2-1.7-2c-0.4-0.9-0.6-1.9-0.6-2.9c0-1,0.2-2.1,0.6-3
		c1.1-2.4,4-3.4,6.4-2.3c1,0.5,1.8,1.3,2.3,2.3c0.4,0.9,0.6,2,0.6,3c0,1-0.2,2-0.6,2.9C820.5,257.1,818.8,258.1,817,258.1L817,258.1
		z M817,256.6c0.7,0,1.3-0.2,1.8-0.6c0.5-0.4,0.9-0.9,1.1-1.5c0.2-0.6,0.4-1.3,0.3-2c0-0.7-0.1-1.4-0.3-2c-0.2-0.6-0.6-1.1-1.1-1.5
		c-1.1-0.8-2.6-0.8-3.7,0c-0.5,0.4-0.9,0.9-1.1,1.5c-0.2,0.6-0.3,1.3-0.3,2c0,0.7,0.1,1.4,0.3,2c0.2,0.6,0.6,1.1,1.1,1.5
		C815.7,256.4,816.3,256.6,817,256.6z"/>
	<path d="M828.9,262.2c-0.7,0-1.4-0.1-2.1-0.3c-0.5-0.2-1-0.5-1.5-0.8c-0.4-0.3-0.7-0.7-0.9-1.1l1.3-0.9c0.1,0.2,0.3,0.4,0.6,0.7
		c0.3,0.3,0.6,0.5,1,0.7c0.5,0.2,1,0.3,1.6,0.3c0.8,0,1.5-0.2,2.2-0.6c0.6-0.5,0.9-1.2,0.8-2v-2.2h-0.1c-0.1,0.2-0.3,0.4-0.5,0.7
		c-0.3,0.3-0.6,0.6-1,0.8c-0.5,0.2-1.1,0.4-1.7,0.3c-0.8,0-1.7-0.2-2.4-0.6c-0.7-0.4-1.3-1.1-1.7-1.8c-0.4-0.9-0.6-1.9-0.6-2.9
		c0-1,0.2-2,0.6-2.9c0.4-0.8,0.9-1.5,1.6-1.9c0.7-0.5,1.6-0.7,2.4-0.7c0.6,0,1.2,0.1,1.7,0.4c0.4,0.2,0.7,0.5,1,0.8
		c0.2,0.3,0.4,0.5,0.5,0.7h0.2V247h1.6v11.2c0,0.8-0.2,1.6-0.6,2.3c-0.4,0.6-1,1-1.7,1.3C830.5,262.1,829.7,262.2,828.9,262.2z
		 M828.9,256.2c0.6,0,1.2-0.1,1.7-0.5c0.5-0.3,0.9-0.8,1.1-1.3c0.3-0.7,0.4-1.4,0.4-2.1c0-0.7-0.1-1.4-0.3-2.1
		c-0.2-0.6-0.6-1.1-1-1.4c-1.1-0.7-2.4-0.7-3.5,0c-0.5,0.4-0.9,0.9-1.1,1.4c-0.5,1.3-0.5,2.7,0,4c0.2,0.6,0.6,1,1.1,1.4
		C827.6,256,828.2,256.2,828.9,256.2L828.9,256.2z"/>
	<path d="M846.4,258.1c-0.9,0-1.7-0.2-2.4-0.7c-0.7-0.5-1.3-1.2-1.6-2c-0.8-1.9-0.8-4.1,0-6c0.3-0.8,0.9-1.5,1.6-2
		c0.7-0.5,1.6-0.7,2.4-0.7c0.6,0,1.2,0.1,1.7,0.4c0.4,0.2,0.7,0.5,1,0.8c0.2,0.3,0.4,0.5,0.5,0.7h0.2v-5.4h1.7v14.6h-1.6v-1.7h-0.2
		c-0.2,0.3-0.3,0.5-0.5,0.8c-0.3,0.3-0.6,0.6-1,0.8C847.6,257.9,847,258.1,846.4,258.1z M846.6,256.6c0.6,0,1.2-0.2,1.7-0.5
		c0.5-0.4,0.9-0.9,1.1-1.5c0.3-0.7,0.4-1.4,0.4-2.2c0-0.7-0.1-1.5-0.4-2.1c-0.2-0.6-0.5-1.1-1-1.4c-0.5-0.4-1.1-0.5-1.7-0.5
		c-0.6,0-1.3,0.2-1.8,0.5c-0.5,0.4-0.9,0.9-1.1,1.5c-0.5,1.4-0.5,2.8,0,4.2c0.2,0.6,0.6,1.1,1.1,1.5
		C845.4,256.4,846,256.6,846.6,256.6z"/>
	<path d="M859.1,258.1c-1.8,0.1-3.5-1-4.3-2.7c-0.4-0.9-0.6-1.9-0.6-2.9c0-1,0.2-2.1,0.6-3c1.1-2.4,4-3.4,6.4-2.3
		c1,0.5,1.8,1.3,2.3,2.3c0.4,0.9,0.6,2,0.6,3c0,1-0.2,2-0.6,2.9c-0.4,0.8-1,1.5-1.7,2C860.9,257.9,860,258.1,859.1,258.1z
		 M859.1,256.6c0.7,0,1.3-0.2,1.9-0.6c0.5-0.4,0.9-0.9,1.1-1.5c0.2-0.6,0.4-1.3,0.3-2c0-0.7-0.1-1.4-0.3-2c-0.2-0.6-0.6-1.2-1.1-1.6
		c-1.1-0.8-2.6-0.8-3.7,0c-0.5,0.4-0.9,0.9-1.1,1.5c-0.2,0.6-0.3,1.3-0.3,2c0,0.7,0.1,1.4,0.3,2c0.2,0.6,0.6,1.1,1.1,1.5
		C857.8,256.4,858.5,256.6,859.1,256.6z"/>
	<path d="M875.2,247l-4,10.9h-1.7l-4-10.9h1.8l3,8.7h0.1l3-8.7H875.2z"/>
	<path d="M884.2,253.4V247h1.7v10.9h-1.7V256h-0.1c-0.3,0.6-0.7,1-1.2,1.4c-0.6,0.4-1.3,0.6-2,0.6c-0.6,0-1.3-0.1-1.8-0.5
		c-0.5-0.3-1-0.8-1.2-1.4c-0.3-0.7-0.5-1.5-0.5-2.3V247h1.6v6.8c0,0.7,0.2,1.4,0.7,1.9c0.4,0.5,1.1,0.7,1.7,0.7
		c0.4,0,0.9-0.1,1.3-0.3c0.5-0.2,0.8-0.6,1.1-1C884.1,254.6,884.3,254,884.2,253.4z"/>
	<path d="M893.7,247v1.4h-5.7V247H893.7z M889.7,244.4h1.7v10.4c0,0.4,0,0.7,0.2,1.1c0.1,0.2,0.3,0.4,0.5,0.5
		c0.2,0.1,0.5,0.1,0.7,0.1c0.2,0,0.3,0,0.5,0l0.3-0.1l0.3,1.5c-0.2,0.1-0.3,0.1-0.5,0.1c-0.3,0.1-0.5,0.1-0.8,0.1
		c-0.5,0-1-0.1-1.4-0.3c-0.5-0.2-0.8-0.5-1.1-0.9c-0.3-0.5-0.5-1-0.5-1.6L889.7,244.4z"/>
	<path d="M899.5,258.1c-0.6,0-1.3-0.1-1.9-0.4c-0.5-0.2-1-0.6-1.3-1.1c-0.3-0.5-0.5-1.2-0.5-1.8c0-0.5,0.1-1.1,0.4-1.5
		c0.2-0.4,0.6-0.7,1-0.9c0.4-0.2,0.9-0.4,1.4-0.5c0.5-0.1,1-0.2,1.5-0.3l1.6-0.2c0.3,0,0.6-0.1,0.9-0.2c0.2-0.1,0.3-0.3,0.3-0.6
		v-0.1c0-0.6-0.2-1.2-0.6-1.6c-0.5-0.4-1.1-0.6-1.7-0.6c-0.7,0-1.3,0.1-1.9,0.5c-0.4,0.3-0.8,0.7-1,1.1l-1.6-0.6
		c0.2-0.6,0.6-1.1,1.1-1.6c0.5-0.4,1-0.6,1.6-0.8c0.5-0.1,1.1-0.2,1.7-0.2c0.4,0,0.8,0,1.2,0.1c0.5,0.1,0.9,0.3,1.3,0.5
		c0.5,0.3,0.8,0.7,1.1,1.2c0.3,0.6,0.5,1.4,0.4,2.1v7.2h-1.7v-1.5h-0.1c-0.2,0.3-0.3,0.5-0.6,0.8c-0.3,0.3-0.7,0.5-1.1,0.7
		C900.6,258,900,258.1,899.5,258.1z M899.7,256.6c0.6,0,1.2-0.1,1.7-0.4c0.4-0.2,0.8-0.6,1-1c0.2-0.4,0.4-0.8,0.3-1.3v-1.5
		c-0.1,0.1-0.3,0.2-0.5,0.2c-0.3,0.1-0.5,0.1-0.8,0.2l-0.9,0.1l-0.7,0.1c-0.4,0.1-0.8,0.1-1.2,0.3c-0.3,0.1-0.7,0.3-0.9,0.6
		c-0.2,0.3-0.4,0.6-0.3,1c0,0.5,0.2,1,0.7,1.3C898.5,256.5,899.1,256.6,899.7,256.6z"/>
	<path d="M916.4,258.1c-0.6,0-1.3-0.1-1.9-0.4c-1.2-0.5-1.9-1.7-1.8-3c0-0.5,0.1-1.1,0.4-1.5c0.2-0.4,0.6-0.7,1-0.9
		c0.4-0.2,0.9-0.4,1.4-0.5c0.5-0.1,1-0.2,1.5-0.3l1.6-0.2c0.3,0,0.6-0.1,0.9-0.2c0.2-0.1,0.3-0.3,0.3-0.6v-0.1
		c0-0.6-0.2-1.2-0.6-1.6c-0.5-0.4-1.1-0.6-1.7-0.6c-0.7,0-1.3,0.1-1.9,0.5c-0.4,0.3-0.8,0.7-1,1.1l-1.6-0.6c0.2-0.6,0.6-1.1,1.1-1.6
		c0.5-0.4,1-0.6,1.6-0.8c0.5-0.1,1.1-0.2,1.7-0.2c0.4,0,0.8,0,1.2,0.1c0.5,0.1,0.9,0.3,1.3,0.5c0.5,0.3,0.8,0.7,1.1,1.2
		c0.3,0.6,0.5,1.4,0.4,2.1v7.2h-1.6v-1.5h-0.1c-0.1,0.3-0.3,0.5-0.6,0.8c-0.3,0.3-0.7,0.5-1.1,0.7
		C917.5,258,916.9,258.1,916.4,258.1z M916.6,256.6c0.6,0,1.2-0.1,1.7-0.4c0.4-0.2,0.8-0.6,1-1c0.2-0.4,0.3-0.8,0.3-1.3v-1.5
		c-0.1,0.1-0.3,0.2-0.5,0.2c-0.3,0.1-0.5,0.1-0.8,0.2l-0.9,0.1l-0.7,0.1c-0.4,0.1-0.8,0.1-1.2,0.3c-0.3,0.1-0.7,0.3-0.9,0.6
		c-0.6,0.7-0.4,1.8,0.3,2.3C915.4,256.5,916,256.7,916.6,256.6z"/>
	<path d="M926.1,243.3v14.6h-1.7v-14.6H926.1z"/>
	<path d="M766.7,271v1.4H761V271H766.7z M762.7,268.4h1.7v10.4c0,0.4,0,0.7,0.2,1.1c0.1,0.2,0.3,0.4,0.5,0.5
		c0.2,0.1,0.5,0.1,0.7,0.1c0.1,0,0.3,0,0.5,0l0.3-0.1l0.3,1.5c-0.2,0.1-0.3,0.1-0.5,0.1c-0.3,0.1-0.5,0.1-0.8,0.1
		c-0.5,0-1-0.1-1.4-0.3c-0.5-0.2-0.8-0.5-1.1-0.9c-0.3-0.5-0.5-1-0.5-1.6V268.4z"/>
	<path d="M769.2,281.9V271h1.6v1.6h0.1c0.2-0.5,0.6-1,1.1-1.3c0.5-0.3,1.1-0.5,1.8-0.5h0.5h0.4v1.7l-0.4-0.1c-0.2,0-0.4,0-0.6,0
		c-0.5,0-1,0.1-1.4,0.3c-0.4,0.2-0.8,0.5-1,0.9c-0.2,0.4-0.4,0.8-0.4,1.3v6.9L769.2,281.9z"/>
	<path d="M779.8,282.1c-0.6,0-1.3-0.1-1.9-0.4c-1.2-0.5-1.9-1.7-1.8-3c0-0.5,0.1-1.1,0.4-1.5c0.2-0.4,0.6-0.7,1-0.9
		c0.4-0.2,0.9-0.4,1.4-0.5c0.5-0.1,1-0.2,1.5-0.3l1.6-0.2c0.3,0,0.6-0.1,0.9-0.2c0.2-0.1,0.3-0.3,0.3-0.6v-0.1
		c0-0.6-0.2-1.2-0.6-1.6c-0.5-0.4-1.1-0.6-1.7-0.6c-0.7,0-1.3,0.1-1.9,0.5c-0.4,0.3-0.8,0.7-1,1.1l-1.6-0.6c0.2-0.6,0.6-1.1,1.1-1.5
		c0.5-0.4,1-0.6,1.6-0.8c0.5-0.1,1.1-0.2,1.7-0.2c0.4,0,0.8,0,1.2,0.1c0.5,0.1,0.9,0.3,1.3,0.5c0.5,0.3,0.8,0.7,1.1,1.2
		c0.3,0.6,0.5,1.4,0.4,2.1v7.2h-1.7v-1.5H783c-0.1,0.3-0.3,0.5-0.6,0.8c-0.3,0.3-0.7,0.5-1.1,0.7C780.9,282,780.4,282.1,779.8,282.1
		z M780.1,280.6c0.6,0,1.2-0.1,1.7-0.4c0.4-0.2,0.8-0.6,1-1c0.2-0.4,0.4-0.8,0.4-1.3v-1.5c-0.1,0.1-0.3,0.2-0.5,0.2
		c-0.3,0.1-0.5,0.1-0.8,0.2l-0.9,0.1l-0.7,0.1c-0.4,0.1-0.8,0.1-1.2,0.3c-0.3,0.1-0.7,0.3-0.9,0.6c-0.6,0.7-0.4,1.8,0.3,2.3
		C778.9,280.5,779.5,280.7,780.1,280.6L780.1,280.6z"/>
	<path d="M792.8,271v1.4h-5.9V271H792.8z M788.7,281.9v-12.5c0-1.1,0.6-2.1,1.6-2.5c0.5-0.2,1-0.3,1.5-0.3c0.3,0,0.7,0,1,0.1
		c0.3,0.1,0.5,0.1,0.6,0.2l-0.5,1.5l-0.4-0.1c-0.2-0.1-0.4-0.1-0.6-0.1c-0.4,0-0.9,0.1-1.2,0.4c-0.3,0.4-0.4,0.8-0.4,1.2v12
		L788.7,281.9z"/>
	<path d="M800,271v1.4h-5.9V271H800z M795.9,281.9v-12.5c0-0.6,0.1-1.1,0.5-1.6c0.3-0.4,0.7-0.7,1.1-0.9c0.5-0.2,1-0.3,1.5-0.3
		c0.3,0,0.7,0,1,0.1c0.2,0,0.4,0.1,0.6,0.2l-0.5,1.5l-0.3-0.1c-0.2-0.1-0.4-0.1-0.6-0.1c-0.4,0-0.9,0.1-1.2,0.4
		c-0.3,0.4-0.4,0.8-0.4,1.2v12L795.9,281.9z"/>
	<path d="M803.2,269.1c-0.3,0-0.6-0.1-0.8-0.3c-0.2-0.2-0.4-0.5-0.3-0.8c0-0.3,0.1-0.6,0.3-0.8c0.5-0.4,1.2-0.4,1.7,0
		c0.2,0.2,0.4,0.5,0.3,0.8c0,0.3-0.1,0.6-0.3,0.8C803.8,269,803.5,269.1,803.2,269.1z M802.3,281.9V271h1.7v10.9L802.3,281.9z"/>
	<path d="M811.5,282.1c-1.9,0.1-3.6-1-4.3-2.7c-0.8-1.9-0.8-4,0-5.8c0.4-0.8,1-1.5,1.7-2c0.8-0.5,1.7-0.7,2.6-0.7
		c0.7,0,1.4,0.1,2.1,0.4c0.6,0.3,1.1,0.7,1.5,1.2c0.4,0.5,0.6,1.1,0.7,1.8h-1.7c-0.1-0.5-0.4-1-0.8-1.3c-0.5-0.4-1.1-0.6-1.8-0.6
		c-0.6,0-1.2,0.2-1.7,0.5c-0.5,0.4-0.9,0.9-1.1,1.4c-0.3,0.7-0.4,1.4-0.4,2.1c0,0.8,0.1,1.5,0.4,2.2c0.2,0.6,0.6,1.1,1.1,1.5
		c0.5,0.4,1.1,0.5,1.7,0.5c0.4,0,0.8-0.1,1.2-0.2c0.3-0.1,0.7-0.4,0.9-0.6c0.2-0.3,0.4-0.6,0.5-1h1.7c-0.1,0.6-0.3,1.2-0.7,1.7
		c-0.4,0.5-0.9,0.9-1.5,1.2C813,282,812.2,282.1,811.5,282.1z"/>
	<path d="M822.7,282.1c-0.9,0-1.8-0.2-2.6-0.7c-0.8-0.5-1.4-1.2-1.7-2c-0.4-0.9-0.6-1.9-0.6-3c0-1,0.2-2.1,0.6-3
		c1.1-2.4,4-3.4,6.4-2.3c1,0.5,1.8,1.3,2.3,2.3c0.4,0.9,0.7,2,0.6,3c0,1-0.2,2-0.6,3C826.2,281.1,824.5,282.1,822.7,282.1
		L822.7,282.1z M822.7,280.6c0.7,0,1.3-0.2,1.8-0.6c0.5-0.4,0.9-0.9,1.1-1.5c0.2-0.6,0.4-1.3,0.3-2c0-0.7-0.1-1.4-0.3-2
		c-0.2-0.6-0.6-1.1-1.1-1.5c-0.5-0.4-1.2-0.6-1.8-0.6c-0.7,0-1.3,0.2-1.8,0.6c-0.5,0.4-0.9,0.9-1.1,1.5c-0.2,0.6-0.3,1.3-0.3,2
		c0,0.7,0.1,1.4,0.3,2c0.2,0.6,0.6,1.1,1.1,1.5C821.4,280.4,822,280.6,822.7,280.6z"/>
	<path d="M844.7,271l-4,10.9H839l-4-10.9h1.8l3,8.7h0.1l3-8.7H844.7z"/>
	<path d="M851.1,282.1c-1,0-1.9-0.2-2.7-0.7c-0.8-0.5-1.4-1.2-1.8-2c-0.4-0.9-0.6-1.9-0.6-2.9c0-1,0.2-2.1,0.6-3
		c0.4-0.8,1-1.5,1.7-2c0.8-0.5,1.7-0.7,2.6-0.7c0.6,0,1.1,0.1,1.7,0.3c0.6,0.2,1.1,0.5,1.5,0.9c0.5,0.5,0.9,1,1.1,1.7
		c0.3,0.8,0.4,1.7,0.4,2.6v0.8h-8.4v-1.5h6.7c0-0.6-0.1-1.1-0.4-1.6c-0.2-0.5-0.6-0.9-1-1.1c-0.5-0.3-1-0.4-1.6-0.4
		c-0.6,0-1.2,0.2-1.7,0.5c-0.5,0.3-0.9,0.8-1.1,1.3c-0.3,0.5-0.4,1.1-0.4,1.7v1c0,0.7,0.1,1.4,0.4,2.1c0.3,0.5,0.7,1,1.2,1.3
		c0.5,0.3,1.2,0.5,1.8,0.5c0.4,0,0.8-0.1,1.2-0.2c0.3-0.1,0.7-0.3,0.9-0.6c0.3-0.3,0.5-0.6,0.6-1l1.6,0.5c-0.2,0.5-0.5,1-0.9,1.4
		c-0.4,0.4-0.9,0.8-1.5,1C852.5,282.1,851.8,282.1,851.1,282.1z"/>
	<path d="M859,269.1c-0.3,0-0.6-0.1-0.8-0.3c-0.2-0.2-0.4-0.5-0.3-0.8c0-0.3,0.1-0.6,0.3-0.8c0.5-0.4,1.2-0.4,1.7,0
		c0.2,0.2,0.4,0.5,0.3,0.8c0,0.3-0.1,0.6-0.3,0.8C859.7,269,859.4,269.1,859,269.1z M858.2,281.9V271h1.7v10.9L858.2,281.9z"/>
	<path d="M867.4,282.1c-1.9,0.1-3.6-1-4.3-2.7c-0.8-1.9-0.8-4,0-5.8c0.4-0.8,1-1.5,1.7-2c0.8-0.5,1.7-0.7,2.6-0.7
		c0.7,0,1.4,0.1,2.1,0.4c0.6,0.3,1.1,0.7,1.5,1.2c0.4,0.5,0.6,1.1,0.7,1.8H870c-0.1-0.5-0.4-1-0.8-1.3c-0.5-0.4-1.1-0.6-1.8-0.6
		c-0.6,0-1.2,0.2-1.7,0.5c-0.5,0.4-0.9,0.9-1.1,1.4c-0.3,0.7-0.4,1.4-0.4,2.1c0,0.8,0.1,1.5,0.4,2.2c0.2,0.6,0.6,1.1,1.1,1.5
		c0.5,0.4,1.1,0.5,1.7,0.5c0.4,0,0.8-0.1,1.2-0.2c0.3-0.1,0.7-0.4,0.9-0.6c0.2-0.3,0.4-0.6,0.5-1h1.7c-0.1,0.6-0.3,1.2-0.7,1.7
		c-0.4,0.5-0.9,0.9-1.5,1.2C868.8,282,868.1,282.1,867.4,282.1z"/>
	<path d="M878.5,282.1c-1.8,0.1-3.5-1-4.3-2.7c-0.4-0.9-0.6-1.9-0.6-3c0-1,0.2-2.1,0.6-3c0.4-0.8,1-1.5,1.7-2
		c2.2-1.4,5.2-0.8,6.6,1.4c0.1,0.2,0.2,0.4,0.3,0.6c0.4,0.9,0.7,2,0.6,3c0,1-0.2,2-0.6,3C882.1,281.1,880.4,282.2,878.5,282.1
		L878.5,282.1z M878.5,280.6c0.7,0,1.3-0.2,1.8-0.6c0.5-0.4,0.9-0.9,1.1-1.5c0.2-0.6,0.4-1.3,0.3-2c0-0.7-0.1-1.4-0.3-2
		c-0.2-0.6-0.6-1.1-1.1-1.5c-0.5-0.4-1.2-0.6-1.8-0.6c-0.7,0-1.3,0.2-1.8,0.6c-0.5,0.4-0.9,0.9-1.1,1.5c-0.2,0.6-0.3,1.3-0.3,2
		c0,0.7,0.1,1.4,0.3,2c0.2,0.6,0.6,1.1,1.1,1.5C877.2,280.4,877.9,280.6,878.5,280.6z"/>
	<path d="M887.7,267.3v14.5H886v-14.5H887.7z"/>
	<path d="M894,282.1c-0.7,0-1.3-0.1-1.9-0.4c-1.2-0.5-1.9-1.7-1.8-3c0-0.5,0.1-1.1,0.4-1.5c0.2-0.4,0.6-0.7,1-0.9
		c0.4-0.2,0.9-0.4,1.4-0.5c0.5-0.1,1-0.2,1.5-0.3l1.6-0.2c0.3,0,0.6-0.1,0.9-0.2c0.2-0.1,0.3-0.3,0.3-0.6v-0.1
		c0-0.6-0.2-1.2-0.6-1.6c-0.5-0.4-1.1-0.6-1.7-0.6c-1.2-0.1-2.3,0.6-2.8,1.6l-1.6-0.6c0.2-0.6,0.6-1.1,1.1-1.5
		c0.5-0.4,1-0.6,1.6-0.8c0.5-0.1,1.1-0.2,1.7-0.2c0.4,0,0.8,0,1.2,0.1c0.5,0.1,0.9,0.3,1.3,0.5c0.5,0.3,0.8,0.7,1.1,1.2
		c0.3,0.6,0.5,1.4,0.4,2.1v7.2h-1.7v-1.5h-0.1c-0.2,0.3-0.3,0.5-0.6,0.8c-0.3,0.3-0.7,0.5-1.1,0.7C895.1,282,894.6,282.1,894,282.1z
		 M894.2,280.6c0.6,0,1.2-0.1,1.7-0.4c0.4-0.2,0.8-0.6,1-1c0.2-0.4,0.3-0.8,0.3-1.3v-1.5c-0.1,0.1-0.3,0.2-0.5,0.2
		c-0.3,0.1-0.5,0.1-0.8,0.2l-0.9,0.1l-0.7,0.1c-0.4,0.1-0.8,0.1-1.2,0.3c-0.3,0.1-0.7,0.3-0.9,0.6c-0.2,0.3-0.4,0.6-0.3,1
		c0,0.5,0.2,1,0.7,1.3C893.1,280.5,893.6,280.6,894.2,280.6L894.2,280.6z"/>
	<path d="M902.1,281.9V271h1.6v1.6h0.1c0.2-0.5,0.6-1,1.1-1.3c0.5-0.3,1.1-0.5,1.8-0.5h0.5h0.4v1.7l-0.4-0.1c-0.2,0-0.4,0-0.6,0
		c-0.5,0-1,0.1-1.4,0.3c-0.4,0.2-0.8,0.5-1,0.9c-0.2,0.4-0.4,0.8-0.4,1.3v6.9L902.1,281.9z"/>
	<path d="M913.7,282.1c-1,0-1.9-0.2-2.7-0.7c-0.8-0.5-1.4-1.2-1.8-2c-0.4-0.9-0.6-1.9-0.6-2.9c0-1,0.2-2.1,0.6-3
		c0.4-0.8,1-1.5,1.7-2c0.8-0.5,1.7-0.7,2.6-0.7c0.6,0,1.1,0.1,1.7,0.3c0.6,0.2,1.1,0.5,1.5,0.9c0.5,0.5,0.9,1,1.1,1.7
		c0.3,0.8,0.4,1.7,0.4,2.6v0.8h-8.4v-1.5h6.7c0-0.6-0.1-1.1-0.4-1.6c-0.2-0.5-0.6-0.9-1-1.1c-0.5-0.3-1-0.4-1.6-0.4
		c-0.6,0-1.2,0.2-1.7,0.5c-0.5,0.3-0.9,0.8-1.1,1.3c-0.3,0.5-0.4,1.1-0.4,1.7v1c0,0.7,0.1,1.4,0.4,2.1c0.3,0.5,0.7,1,1.2,1.3
		c0.5,0.3,1.2,0.5,1.8,0.5c0.4,0,0.8-0.1,1.2-0.2c0.3-0.1,0.7-0.3,0.9-0.6c0.3-0.3,0.5-0.6,0.6-1l1.6,0.5c-0.2,0.5-0.5,1-0.9,1.4
		c-0.4,0.4-0.9,0.8-1.5,1C915.1,282.1,914.4,282.1,913.7,282.1z"/>
	<line class="st6" x1="984.2" y1="161.6" x2="957.4" y2="181.7"/>
</g>
<g id="no_piogge">
	<path d="M52.5,1447.1c0-5,1.7-8.8,6-8.8s6,3.9,6,8.8s-1.7,8.8-6,8.8S52.5,1452,52.5,1447.1z M62.1,1447.1c0-4.4-1.2-6.8-3.7-6.8
		s-3.7,2.4-3.7,6.8s1.3,6.9,3.7,6.9S62,1451.4,62.1,1447.1z"/>
	<path d="M129.7,1442.4l5.5-3.8h1.7v15.1h4.1v1.8h-10.7v-1.8h4.4v-12.3l-3.9,2.7L129.7,1442.4z"/>
	<path d="M143.4,1447.1c0-5,1.7-8.8,6-8.8s5.9,3.9,5.9,8.8s-1.7,8.8-5.9,8.8S143.4,1452,143.4,1447.1z M153,1447.1
		c0-4.4-1.2-6.8-3.7-6.8s-3.7,2.4-3.7,6.8s1.2,6.8,3.7,6.8S152.9,1451.4,153,1447.1z"/>
	<path d="M224.6,1448.4l1.8-1.3c1.7-1.2,2.8-1.8,2.8-3.9c0-1.6-1.2-2.9-2.8-2.9c0,0,0,0,0,0h-0.4c-2.2,0-3.3,1.2-3.4,3.4h-2.1
		c-0.1-2.7,1.9-5.1,4.6-5.4h0.8c2.6-0.3,4.9,1.6,5.2,4.2c0,0,0,0.1,0,0.1v0.6c0,2.9-1.9,4.2-3.7,5.2l-1.7,1.2
		c-2.6,1.7-2.9,2.9-3.1,4.2h8.8v1.8h-11.2C220.4,1452.6,222,1449.8,224.6,1448.4z"/>
	<path d="M234.3,1447.1c0-5,1.7-8.8,6-8.8s5.9,3.9,5.9,8.8s-1.7,8.8-5.9,8.8S234.3,1452,234.3,1447.1z M243.8,1447.1
		c0-4.4-1.2-6.8-3.7-6.8s-3.7,2.4-3.7,6.8s1.2,6.8,3.7,6.8S243.8,1451.5,243.8,1447.1z"/>
	<path d="M313.4,1450.4c-0.2,1.8,1.2,3.4,2.9,3.5h0.7c2.1,0,3.7-1.1,3.7-3.2c-0.1-1.8-1.7-3.3-3.5-3.2h-1.3v-1.8h1.2
		c1.6,0,2.9-1.2,3-2.8v-0.1c0-1.5-1.2-2.8-2.7-2.8c0,0-0.1,0-0.1,0H317c-1.5-0.2-2.9,1-3,2.5c0,0,0,0,0,0.1v0.5h-2
		c-0.1-2.6,1.8-4.8,4.4-5h0.6c2.6-0.3,4.9,1.6,5.1,4.2v0.4c0,1.6-1,3.1-2.4,3.8v0.1c1.9,0.6,3.2,2.3,3.2,4.3c0,3-2.6,4.9-5.9,4.9
		c-2.8,0.4-5.3-1.6-5.7-4.4c0,0,0,0,0,0v-1.1L313.4,1450.4z"/>
	<path d="M325.3,1447.1c0-5,1.7-8.8,6-8.8s5.9,3.9,5.9,8.8s-1.7,8.8-5.9,8.8C326.9,1455.9,325.3,1452,325.3,1447.1z M334.9,1447.1
		c0-4.4-1.2-6.8-3.7-6.8s-3.7,2.4-3.7,6.8s1.2,6.8,3.7,6.8S334.7,1451.4,334.9,1447.1z"/>
	<path d="M402.4,1449.8l8.3-11.1h1.8v10.9h2.4v2h-2.4v4.3h-2.2v-4.3h-7.8L402.4,1449.8z M410.2,1449.5v-7.5l-5.6,7.4L410.2,1449.5z"
		/>
	<path d="M416.9,1447.1c0-5,1.7-8.8,6-8.8s5.9,3.9,5.9,8.8s-1.7,8.8-5.9,8.8C418.5,1455.9,416.9,1452,416.9,1447.1z M426.4,1447.1
		c0-4.4-1.2-6.8-3.7-6.8s-3.7,2.4-3.7,6.8s1.2,6.8,3.7,6.8S426.4,1451.4,426.4,1447.1z"/>
	<path d="M496.4,1451c0.2,1.8,1.8,3.2,3.6,3c2,0,3.7-1.6,3.7-3.6c0-2-1.6-3.7-3.6-3.7c0,0,0,0,0,0c-1.3,0-2.5,0.6-3.3,1.7l-2.1-0.1
		l0.5-9.5h9.5v2.1h-7.4l-0.4,5.4h0.2c0.9-0.8,2.1-1.3,3.3-1.2c2.9-0.2,5.3,2.1,5.5,4.9c0,0,0,0,0,0.1v0.5c0.1,3-2.2,5.5-5.2,5.6
		c-0.1,0-0.1,0-0.2,0h-0.6c-2.9,0.4-5.5-1.7-5.8-4.6c0,0,0-0.1,0-0.1v-0.2L496.4,1451z"/>
	<path d="M508.2,1447.1c0-5,1.7-8.8,6-8.8c4.3,0,5.9,3.9,5.9,8.8s-1.7,8.8-5.9,8.8S508.2,1452,508.2,1447.1z M517.8,1447.1
		c0-4.4-1.2-6.8-3.7-6.8s-3.7,2.4-3.7,6.8s1.2,6.8,3.7,6.8S517.7,1451.4,517.8,1447.1z"/>
	<path d="M591.6,1438.3c2.6-0.3,4.9,1.6,5.1,4.1c0,0,0,0,0,0v0.4h-2.1c0-1.5-1.3-2.7-2.8-2.7c0,0,0,0,0,0h-0.1
		c-2.1,0-4.2,1.8-4.2,6.8c0.9-1.5,2.6-2.3,4.4-2.2c2.8,0,5.1,2.2,5.2,5v0.5c0.1,3-2.3,5.5-5.3,5.6c0,0,0,0,0,0h-0.4
		c-3.4,0-6.2-2.1-6.2-8.4C585.1,1440.7,588.4,1438.3,591.6,1438.3z M587.8,1450.3c-0.1,2,1.3,3.6,3.3,3.8h0.2c2.1,0,3.7-1.6,3.8-3.7
		c0-2.1-1.6-3.7-3.7-3.8c-2,0-3.6,1.6-3.8,3.5C587.7,1450.2,587.8,1450.3,587.8,1450.3L587.8,1450.3z"/>
	<path d="M599.1,1447.1c0-5,1.7-8.8,6-8.8s5.9,3.9,5.9,8.8s-1.7,8.8-5.9,8.8S599.1,1452,599.1,1447.1z M608.8,1447.1
		c0-4.4-1.2-6.8-3.7-6.8s-3.7,2.4-3.7,6.8s1.2,6.8,3.7,6.8S608.6,1451.4,608.8,1447.1z"/>
	<path d="M685.4,1440.6h-9.3v-2.1h11.7v1.6l-7.2,15.4h-2.3L685.4,1440.6z"/>
	<path d="M690.1,1447.1c0-4.9,1.7-8.8,6-8.8s5.9,3.9,5.9,8.8s-1.7,8.8-5.9,8.8S690.1,1452,690.1,1447.1z M699.7,1447.1
		c0-4.4-1.2-6.8-3.7-6.8s-3.7,2.4-3.7,6.8s1.2,6.8,3.7,6.8S699.6,1451.4,699.7,1447.1z"/>
	<path d="M770.4,1446.9L770.4,1446.9c-1.5-0.7-2.4-2.2-2.4-3.8c0-2.6,2.1-4.7,4.6-4.8h0.5c2.6-0.2,4.9,1.6,5.2,4.2v0.5
		c0,1.6-1,3.1-2.5,3.8l0,0c1.9,0.5,3.2,2.3,3.1,4.2c0,3-2.4,4.9-6,4.9s-6-1.8-6-4.9C767.1,1449,768.5,1447.4,770.4,1446.9z
		 M773.2,1454.1c2.2,0,3.8-1.1,3.8-3.2c-0.1-1.8-1.7-3.3-3.5-3.2h-0.2c-1.9-0.2-3.5,1.1-3.8,2.9v0.2
		C769.4,1452.9,771,1454.1,773.2,1454.1L773.2,1454.1z M776.3,1443c0-1.5-1.2-2.8-2.8-2.8c-0.1,0-0.1,0-0.2,0h-0.2
		c-1.6-0.2-3,1-3.2,2.6v0.2c0.2,1.7,1.8,3,3.5,2.8C775,1445.5,776.1,1444.4,776.3,1443L776.3,1443z"/>
	<path d="M781.4,1447.1c0-4.9,1.7-8.8,6-8.8s5.9,3.9,5.9,8.8s-1.7,8.8-5.9,8.8C782.9,1455.9,781.4,1452,781.4,1447.1z M790.9,1447.1
		c0-4.4-1.2-6.8-3.7-6.8s-3.7,2.4-3.7,6.8s1.2,6.8,3.7,6.8S790.9,1451.5,790.9,1447.1z"/>
	<path d="M864.2,1455.9c-2.7,0.2-5.1-1.7-5.4-4.4v-0.1h2.2c0.2,1.6,1.6,2.8,3.2,2.7c2.3,0,3.9-1.7,3.9-6.7c-1,1.5-2.6,2.3-4.4,2.2
		c-2.8,0.1-5.2-2.1-5.4-4.9v-0.6c-0.1-3,2.2-5.5,5.2-5.6c0.1,0,0.1,0,0.2,0h0.4c3.4,0,6.2,2.1,6.2,8.4
		C870.5,1453.6,867.8,1455.9,864.2,1455.9z M867.9,1443.9c0-2-1.6-3.7-3.7-3.7l0,0c-2,0-3.6,1.5-3.7,3.5c0,0,0,0.1,0,0.1
		c-0.1,1.9,1.4,3.5,3.3,3.7h0.1c2,0.1,3.7-1.5,3.8-3.5L867.9,1443.9z"/>
	<path d="M872.8,1447.1c0-4.9,1.7-8.8,6-8.8s5.9,3.9,5.9,8.8s-1.7,8.8-5.9,8.8S872.8,1452,872.8,1447.1z M882.4,1447.1
		c0-4.4-1.2-6.8-3.7-6.8s-3.7,2.4-3.7,6.8s1.2,6.8,3.7,6.8S882.3,1451.4,882.4,1447.1z"/>
	<path d="M949.8,1442.4l5.5-3.8h1.7v15.1h4.1v1.8h-10.7v-1.8h4.4v-12.3l-3.9,2.7L949.8,1442.4z"/>
	<path d="M963.6,1447.1c0-4.9,1.7-8.8,6-8.8s5.9,3.9,5.9,8.8s-1.7,8.8-5.9,8.8S963.6,1452,963.6,1447.1z M973.1,1447.1
		c0-4.4-1.2-6.8-3.7-6.8s-3.7,2.4-3.7,6.8s1.2,6.8,3.7,6.8S973.1,1451.4,973.1,1447.1z"/>
	<path d="M977.5,1447.1c0-4.9,1.7-8.8,6-8.8s6,3.9,6,8.8s-1.7,8.8-6,8.8S977.5,1452,977.5,1447.1z M987.1,1447.1
		c0-4.4-1.2-6.8-3.7-6.8s-3.7,2.4-3.7,6.8s1.2,6.8,3.7,6.8S987.1,1451.4,987.1,1447.1z"/>
	<path d="M936.5,1501.8v1.9h-2.2v-18h2.2v7.2c0,2.6,1,3.5,2.8,3.5s3.2-1.7,3.2-4.4v-6.4h2.2v12.5h-2.1v-1.8h-0.1
		c-0.7,1.4-2.1,2.2-3.7,2.1c-0.9,0-1.8-0.2-2.5-0.7h-0.2C936.4,1499,936.5,1500.4,936.5,1501.8z"/>
	<path d="M950,1499.3c0,1.5,1.4,2.4,3.4,2.4s3.9-1.1,3.9-4.6v-1.3h-0.1c-0.8,1.5-2.5,2.4-4.2,2.2c-3.1,0-5.5-2.3-5.5-6.4
		s2.5-6.6,5.7-6.6c1.6-0.1,3.2,0.7,3.9,2.2h0.1v-1.9h2.1v11.8c0,4.7-2.8,6.4-6.1,6.4s-5.5-1.5-5.5-4.3L950,1499.3z M953.5,1496.2
		c2,0,3.6-1.7,3.6-4.6s-1.7-4.6-3.6-4.6s-3.6,1.7-3.6,4.7S951.5,1496.2,953.5,1496.2L953.5,1496.2z"/>
	<path d="M969.3,1480.2h1.9l-7.8,18h-2L969.3,1480.2z"/>
	<path d="M971.6,1485.6h2.1v1.8h0.1c0.7-1.4,2.2-2.2,3.7-2.1c1.7-0.2,3.3,0.9,3.9,2.5c0.7-1.7,2.4-2.7,4.2-2.5c2.3,0,4.3,1.3,4.3,5
		v7.7h-2.2v-7.4c0-2.4-0.8-3.4-2.5-3.4s-3.2,1.7-3.2,4.3v6.4h-2.2v-7.4c0-2.4-0.9-3.4-2.5-3.4s-3.2,1.7-3.2,4.3v6.4h-2.2
		L971.6,1485.6z"/>
	<path d="M993.5,1486.3c-0.1,1.1,0.7,2,1.7,2.1c0,0,0,0,0.1,0h0.4c1.3,0,2.2-0.7,2.2-1.9c0-1.1-0.9-2-2-2h-1v-1.1h0.8
		c0.9,0.1,1.7-0.6,1.8-1.5v-0.1c0-0.9-0.7-1.7-1.7-1.7c0,0,0,0,0,0h-0.1c-0.9,0-1.7,0.7-1.8,1.6v0.3h-1.2c0.1-1.7,1.5-3,3.2-2.9
		c1.4,0.1,2.6,1.2,2.8,2.6c0,1-0.6,1.9-1.5,2.3l0,0c1.1,0.3,1.9,1.3,1.9,2.5c-0.1,1.7-1.6,3-3.3,2.9h-0.2c-1.6,0.2-3.2-0.9-3.4-2.5
		c0,0,0,0,0-0.1v-0.6L993.5,1486.3z"/>
</g>
<g id="Livello_2_00000112610733473698579070000002887603813500902800_">
	<g>
		<path d="M18.5,231.6v12h-2.1V234H9.8v7.6H7.8V234H0.4v-2.5L18.5,231.6z"/>
		<path d="M18.5,246.7V259h-2.1v-9.8h-5.7v7.8H8.7v-7.8H2.6v10H0.5v-12.5H18.5z"/>
		<path d="M18.5,262.7v7.5c0,3.9-1.8,5.8-4.8,5.8c-1.8,0-3.3-1.1-3.7-2.9H9.8c-0.2,2.1-2,3.7-4.1,3.6c-3.1,0-5.4-2.1-5.4-5.9v-8
			h18.2V262.7z M16.4,265.2h-5.6v5c0,2.2,1.3,3.4,3,3.4s2.6-0.9,2.6-3.4L16.4,265.2z M8.8,265.2H2.6v5.6c0,2.5,1.3,3.6,3.2,3.6
			c1.7,0,3-1.2,3-3.6L8.8,265.2z"/>
	</g>
	<g>
		<path d="M3.1,132.8L3.1,132.8c-2-1.3-3.2-3.6-3-5.9c0-5.2,4-8.8,9.4-8.8s9.5,3.6,9.5,8.9c0,4.3-2.5,7.1-5.7,7.9v-2.6
			c1.8-0.5,3.5-2.3,3.5-5.4c0-3.9-3.1-6.5-7.1-6.5s-7.1,2.6-7.1,6.3c0,3,1.8,5.8,5,5.8h0.5V127h2.1v7.9H0.6v-1.6L3.1,132.8z"/>
		<path d="M18.5,139.1v12.3h-2.1v-9.8h-5.7v7.8H8.7v-7.8H2.6v10H0.5v-12.4L18.5,139.1z"/>
		<path d="M18.5,155.3v2.3l-14,10v0.1l14-0.1v2.4H0.4v-2.3l14-10v-0.1l-14,0.1v-2.4H18.5z"/>
	</g>
	<g>
		<path d="M18.5,338.4v3L3.6,348l0,0l14.9,6.6v3H0.4v-2.5l14.3,0.3v-0.1L0.4,349v-2l14-6.3v-0.1l-14,0.3v-2.5L18.5,338.4z"/>
		<path d="M18.5,366.9v2.9l-18.1,6.7v-2.6l4.8-1.7v-8l-4.8-1.7v-2.5L18.5,366.9z M16,368.2l-8.8-3.1v6.5L16,368.2z"/>
		<path d="M18.5,379.1v6.9c0,4.1-1.9,6.3-5.4,6.3c-2.5,0.1-4.8-1.5-5.4-4l-7.4,4.6v-2.6l7.1-4.5v-4.3H0.3v-2.5L18.5,379.1z
			 M16.4,381.5H9.6v4.5c0,2.6,1.6,3.8,3.6,3.8s3.2-1.4,3.2-3.8V381.5z"/>
	</g>
	<g>
		<path d="M18.5,461.3v2.8l-18.1,6.7v-2.6l4.8-1.7v-8l-4.8-1.7v-2.5L18.5,461.3z M16,462.7l-8.8-3.1v6.5L16,462.7z"/>
		<path d="M18.5,473.6v6.9c0,4.1-2.5,6.5-5.8,6.5s-5.9-2.3-5.9-6.5V476H0.4v-2.5L18.5,473.6z M16.4,476H8.8v4.5
			c-0.1,2,1.4,3.8,3.4,3.9c0.2,0,0.3,0,0.5,0c2,0.1,3.6-1.4,3.7-3.4c0-0.2,0-0.3,0-0.5V476z"/>
		<path d="M18.5,490.4v6.9c0,4.1-1.9,6.3-5.4,6.3c-2.5,0.1-4.8-1.5-5.4-4l-7.4,4.6v-2.6l7.1-4.5v-4.3H0.3v-2.5L18.5,490.4z
			 M16.4,492.7H9.6v4.5c0,2.6,1.6,3.8,3.6,3.8s3.2-1.4,3.2-3.8V492.7z"/>
	</g>
	<g>
		<path d="M18.5,565.7v3l-14.9,6.7l0,0l14.9,6.6v3H0.4v-2.5l14.3,0.3v-0.1l-14.3-6.3v-1.9l14-6.3v-0.1l-14,0.2v-2.5H18.5z"/>
		<path d="M18.5,594.3v2.8l-18.1,6.7v-2.6l4.8-1.7v-8l-4.8-1.7v-2.3L18.5,594.3z M16,595.6l-8.8-3.1v6.5L16,595.6z"/>
		<path d="M3.1,619.8L3.1,619.8c-2-1.3-3.2-3.6-3-6c0-5.2,4-8.8,9.4-8.8s9.5,3.7,9.5,9c0,4.3-2.5,7.1-5.7,7.9v-2.6
			c1.8-0.5,3.5-2.3,3.5-5.4c0-3.9-3.1-6.5-7.1-6.5s-7.1,2.6-7.1,6.3c0,3,1.8,5.8,5,5.8h0.5v-5.7h2.1v7.9H0.6v-1.5L3.1,619.8z"/>
	</g>
	<g>
		<path d="M3.1,698.1L3.1,698.1c-2-1.3-3.2-3.6-3-6c0-5.2,4-8.8,9.4-8.8s9.5,3.7,9.5,9c0,4.3-2.5,7.1-5.7,7.9v-2.6
			c1.8-0.5,3.5-2.3,3.5-5.4c0-3.9-3.1-6.5-7.1-6.5s-7.1,2.6-7.1,6.3c0,3,1.8,5.8,5,5.8h0.5v-5.7h2.1v7.8H0.6v-1.5L3.1,698.1z"/>
		<path d="M18.5,704.4v2.5H0.4v-2.5H18.5z"/>
		<path d="M18.5,711.2v2.5h-11c-3.4,0-5.3,1.5-5.3,4.8s1.9,4.8,5.3,4.8h11v2.5h-11c-5.4,0-7.5-3-7.5-7.2s2.1-7.2,7.5-7.2L18.5,711.2
			z"/>
	</g>
	<g>
		<path d="M18.5,787.2v2.5h-16v8.8H0.4v-11.2H18.5z"/>
		<path d="M18.5,800.6v2.5h-11c-3.4,0-5.3,1.5-5.3,4.8s1.9,4.8,5.3,4.8h11v2.5h-11c-5.4,0-7.5-3-7.5-7.2s2.1-7.2,7.5-7.2L18.5,800.6
			z"/>
		<path d="M3.1,833.3L3.1,833.3c-2-1.3-3.2-3.6-3-6c0-5.2,4-8.8,9.4-8.8s9.5,3.6,9.5,8.9c0,4.3-2.5,7.1-5.7,7.9v-2.6
			c1.8-0.5,3.5-2.3,3.5-5.4c0-3.9-3.1-6.5-7.1-6.5s-7.1,2.6-7.1,6.3c0,3,1.8,5.8,5,5.8h0.5v-5.7h2.1v7.9H0.6v-1.5L3.1,833.3z"/>
	</g>
	<g>
		<path d="M18.5,903.8v2.8l-18.1,6.7v-2.6l4.8-1.7v-8l-4.8-1.7v-2.5L18.5,903.8z M16,905l-8.8-3v6.5L16,905z"/>
		<path d="M3.1,929.1L3.1,929.1c-2-1.3-3.2-3.6-3-5.9c0-5.2,4-8.8,9.4-8.8s9.5,3.6,9.5,8.9c0,4.3-2.5,7.1-5.7,7.9v-2.6
			c1.8-0.5,3.5-2.3,3.5-5.4c0-3.9-3.1-6.5-7.1-6.5s-7.1,2.6-7.1,6.3c0,3,1.8,5.8,5,5.8h0.5v-5.7h2.1v7.8H0.6v-1.5L3.1,929.1z"/>
		<path d="M18.9,943.2c0,5.2-4,8.8-9.4,8.8S0,948.3,0,943.2s4-8.8,9.4-8.8S18.9,937.9,18.9,943.2z M2.3,943.2c0,3.9,3.1,6.3,7.1,6.3
			s7.1-2.5,7.1-6.3s-3.1-6.3-7.1-6.3S2.3,939.3,2.3,943.2z"/>
	</g>
	<g>
		<path d="M5.6,1016.1c-1.9,0-3.5,1.7-3.5,4.5s1.3,4.6,3.4,4.6c4.8,0,1.2-11.4,8.1-11.4c3.1,0,5.3,2.7,5.3,6.7c0,4-1.9,6.6-5.2,6.6
			v-2.5c1.9,0,3.1-1.8,3.1-4.3s-1-4.3-3.1-4.3c-4.8,0-1,11.4-8.3,11.4c-3.2,0-5.4-2.6-5.4-7.1s2.2-7,5.4-7v2.6L5.6,1016.1z"/>
		<path d="M18.5,1031.6v12.3h-2.1v-9.8h-5.7v7.8H8.7v-7.8H2.6v10H0.5v-12.5H18.5z"/>
		<path d="M18.5,1045.6v15.1h-2.1v-6.3h-16v-2.4h16v-6.3L18.5,1045.6z"/>
	</g>
	<g>
		<path d="M18.9,1131c0,5.2-4,8.8-9.4,8.8S0,1136.2,0,1131s4-8.8,9.4-8.8S18.9,1125.7,18.9,1131z M2.3,1131c0,3.9,3.1,6.3,7.1,6.3
			s7.1-2.5,7.1-6.3s-3.1-6.3-7.1-6.3S2.3,1127.1,2.3,1131z"/>
		<path d="M18.5,1140.3v15.1h-2.1v-6.3h-16v-2.5h16v-6.3L18.5,1140.3z"/>
		<path d="M18.5,1155.7v15.1h-2.1v-6.3h-16v-2.5h16v-6.3L18.5,1155.7z"/>
	</g>
	<g>
		<path d="M18.5,1232.4v2.3l-14,10v0.1l14-0.1v2.5H0.4v-2.3l14-10v-0.1l-14,0.1v-2.5H18.5z"/>
		<path d="M18.9,1259.5c0,5.2-4,8.8-9.4,8.8s-9.4-3.6-9.4-8.8s4-8.8,9.4-8.8S18.9,1254.2,18.9,1259.5z M2.3,1259.5
			c0,3.9,3.1,6.3,7.1,6.3s7.1-2.5,7.1-6.3s-3.1-6.3-7.1-6.3S2.3,1255.6,2.3,1259.5z"/>
		<path d="M18.5,1269.2v2.6l-15.6,5.4v0.1l15.6,5.4v2.4l-18.1-6.6v-2.7L18.5,1269.2z"/>
	</g>
	<g>
		<path d="M18.5,1346.8v5.6c0,6.2-3.8,9.4-9,9.4s-9-3.2-9-9.4v-5.6H18.5z M16.4,1349.2H2.5v3.1c0,5,3.2,7,7,7s7-1.8,7-7L16.4,1349.2
			L16.4,1349.2z"/>
		<path d="M18.5,1365.4v2.5H0.4v-2.5H18.5z"/>
		<path d="M18.9,1380c0,4.3-2.5,7-5.9,7.8v-2.4c2.4-0.7,3.7-2.5,3.7-5.2c0-3.8-3-6.2-7.1-6.2s-7.1,2.5-7.1,6.1c0,3,1.3,4.7,3.7,5.3
			v2.4c-3.6-0.8-5.9-3.6-5.9-7.8c0-5,3.9-8.7,9.4-8.7C14.9,1371.2,18.9,1374.8,18.9,1380z"/>
	</g>
	<path d="M790.3,410.8c-0.1-0.8-0.5-1.4-1.1-1.8c-0.7-0.5-1.6-0.7-2.5-0.7c-0.6,0-1.3,0.1-1.8,0.3c-0.5,0.2-0.9,0.5-1.2,1
		c-0.3,0.4-0.4,0.9-0.4,1.4c0,0.4,0.1,0.8,0.3,1.1c0.2,0.3,0.5,0.6,0.8,0.8c0.3,0.2,0.7,0.4,1,0.5c0.3,0.1,0.7,0.2,1,0.3l1.6,0.4
		c0.4,0.1,0.9,0.3,1.4,0.5c0.5,0.2,1,0.5,1.5,0.8c0.5,0.3,0.9,0.8,1.2,1.3c0.3,0.6,0.5,1.2,0.5,1.9c0,0.8-0.2,1.6-0.7,2.3
		c-0.5,0.7-1.2,1.3-2,1.7c-2,0.8-4.1,0.8-6.1,0.1c-0.8-0.3-1.5-0.9-2-1.5c-0.5-0.7-0.8-1.5-0.8-2.3h2c0,0.6,0.2,1.1,0.6,1.5
		c0.4,0.4,0.8,0.7,1.4,0.9c0.6,0.2,1.2,0.3,1.8,0.3c0.7,0,1.4-0.1,2-0.4c0.5-0.2,1-0.5,1.4-1c0.3-0.4,0.5-1,0.5-1.5
		c0-0.5-0.1-0.9-0.5-1.3c-0.3-0.4-0.7-0.6-1.2-0.8c-0.5-0.2-1-0.4-1.6-0.5l-2-0.6c-1.1-0.3-2.1-0.8-3-1.5c-0.7-0.7-1.1-1.6-1.1-2.6
		c0-0.8,0.2-1.7,0.7-2.4c0.5-0.7,1.2-1.2,2-1.6c1.8-0.7,3.8-0.7,5.5,0c0.8,0.3,1.4,0.9,1.9,1.5c0.5,0.6,0.7,1.4,0.7,2.2L790.3,410.8
		z"/>
	<path d="M795.3,427.3v-16.5h1.8v1.9h0.2c0.2-0.3,0.4-0.5,0.6-0.8c0.3-0.4,0.6-0.7,1-0.9c0.6-0.3,1.2-0.4,1.9-0.4
		c0.9,0,1.9,0.2,2.7,0.8c0.8,0.5,1.4,1.3,1.8,2.1c0.9,2.1,0.9,4.5,0,6.6c-0.4,0.9-1,1.6-1.8,2.2c-0.8,0.5-1.7,0.8-2.7,0.8
		c-0.6,0-1.3-0.1-1.8-0.4c-0.4-0.2-0.8-0.5-1.1-0.9c-0.2-0.3-0.5-0.6-0.6-0.8h-0.2v6.3L795.3,427.3z M797.1,416.8
		c0,0.8,0.1,1.6,0.4,2.4c0.2,0.6,0.6,1.2,1.2,1.6c1.1,0.8,2.7,0.8,3.8,0c0.5-0.4,0.9-1,1.2-1.7c0.5-1.5,0.5-3.1,0-4.6
		c-0.2-0.6-0.6-1.2-1.2-1.6c-1.2-0.8-2.7-0.8-3.8,0c-0.5,0.4-0.9,0.9-1.2,1.6C797.2,415.2,797.1,416,797.1,416.8z"/>
	<path d="M813.8,423c-1.1,0-2.1-0.2-3-0.8c-0.8-0.5-1.5-1.3-1.9-2.2c-0.5-1-0.7-2.1-0.7-3.2c0-1.1,0.2-2.2,0.7-3.2
		c0.4-0.9,1.1-1.7,1.9-2.2c0.8-0.5,1.8-0.8,2.8-0.8c0.6,0,1.3,0.1,1.8,0.3c0.6,0.2,1.2,0.6,1.7,1c0.5,0.5,0.9,1.1,1.2,1.9
		c0.3,0.9,0.5,1.9,0.5,2.8v0.8h-9.2v-1.6h7.4c0-0.6-0.1-1.2-0.4-1.8c-0.3-0.5-0.7-1-1.1-1.3c-0.5-0.3-1.1-0.5-1.7-0.5
		c-0.7,0-1.3,0.2-1.9,0.5c-0.5,0.4-1,0.8-1.2,1.4c-0.3,0.6-0.4,1.2-0.4,1.9v1.1c0,0.8,0.1,1.6,0.5,2.3c0.3,0.6,0.7,1.1,1.3,1.4
		c0.6,0.3,1.3,0.5,2,0.5c0.4,0,0.9-0.1,1.3-0.2c0.4-0.1,0.7-0.3,1-0.6c0.3-0.3,0.5-0.6,0.7-1l1.8,0.5c-0.2,0.6-0.5,1.1-1,1.6
		c-0.5,0.5-1,0.8-1.6,1.1C815.3,423,814.5,423.1,813.8,423z"/>
	<path d="M826.4,427.5c-0.8,0-1.6-0.1-2.3-0.3c-0.6-0.2-1.1-0.5-1.6-0.9c-0.4-0.3-0.7-0.7-1-1.2l1.5-1c0.2,0.2,0.4,0.5,0.6,0.8
		c0.3,0.3,0.6,0.6,1,0.7c0.6,0.2,1.2,0.3,1.8,0.3c0.9,0,1.7-0.2,2.4-0.7c0.7-0.5,1.1-1.3,1-2.2v-2.4h-0.2c-0.1,0.2-0.3,0.5-0.6,0.8
		c-0.3,0.4-0.7,0.6-1.1,0.9c-0.6,0.3-1.2,0.4-1.9,0.4c-0.9,0-1.8-0.2-2.6-0.7c-0.8-0.5-1.4-1.2-1.8-2c-0.5-1-0.7-2.1-0.7-3.2
		c0-1.1,0.2-2.2,0.6-3.2c0.4-0.9,1-1.6,1.8-2.1c0.8-0.5,1.7-0.8,2.7-0.8c0.6-0.1,1.3,0.1,1.9,0.3c0.4,0.2,0.8,0.5,1.1,0.9
		c0.2,0.3,0.4,0.6,0.6,0.8h0.2v-1.9h1.8v12.3c0,0.9-0.2,1.8-0.7,2.5c-0.5,0.7-1.1,1.2-1.9,1.4C828.2,427.4,827.3,427.6,826.4,427.5z
		 M826.3,421c0.7,0,1.3-0.2,1.9-0.5c0.5-0.4,0.9-0.9,1.2-1.5c0.3-0.7,0.4-1.5,0.4-2.3c0-0.8-0.1-1.6-0.4-2.3
		c-0.2-0.6-0.6-1.2-1.2-1.6c-1.2-0.8-2.7-0.8-3.8,0c-0.5,0.4-0.9,1-1.2,1.6c-0.3,0.7-0.4,1.5-0.4,2.2c0,0.8,0.1,1.5,0.4,2.2
		c0.2,0.6,0.6,1.1,1.2,1.5C825,420.8,825.6,421,826.3,421L826.3,421z"/>
	<path d="M836.8,415.6v7.2h-1.8v-12h1.8v1.9h0.2c0.3-0.6,0.7-1.1,1.3-1.5c0.7-0.4,1.4-0.6,2.2-0.6c0.7,0,1.5,0.2,2.1,0.5
		c0.6,0.3,1.1,0.9,1.4,1.5c0.4,0.8,0.5,1.7,0.5,2.5v7.6h-1.8v-7.5c0-0.8-0.2-1.6-0.7-2.2c-0.5-0.5-1.3-0.8-2-0.8
		c-0.5,0-1.1,0.1-1.6,0.4c-0.5,0.3-0.8,0.6-1.1,1.1C836.9,414.3,836.8,415,836.8,415.6z"/>
	<path d="M848.8,408.8c-0.3,0-0.7-0.1-0.9-0.4c-0.5-0.4-0.5-1.2-0.1-1.7c0,0,0.1-0.1,0.1-0.1c0.2-0.2,0.6-0.4,0.9-0.4
		c0.3,0,0.7,0.1,0.9,0.4c0.5,0.4,0.5,1.2,0.1,1.7c0,0-0.1,0.1-0.1,0.1C849.4,408.7,849.1,408.8,848.8,408.8z M847.8,422.8v-12h1.8
		v12H847.8z"/>
	<path d="M853,422.8v-12h1.8v1.9h0.2c0.2-0.6,0.7-1.1,1.2-1.5c0.6-0.4,1.3-0.6,2-0.5c0.7,0,1.4,0.2,2,0.5c0.5,0.4,1,0.9,1.2,1.5h0.1
		c0.3-0.6,0.8-1.1,1.4-1.5c0.7-0.4,1.4-0.6,2.2-0.6c1,0,1.9,0.3,2.6,1c0.7,0.9,1.1,2,1,3.1v8H867v-8c0.1-0.7-0.2-1.4-0.7-1.9
		c-0.5-0.4-1.1-0.6-1.7-0.6c-0.7-0.1-1.5,0.2-2,0.8c-0.5,0.5-0.7,1.2-0.7,1.9v7.8H860v-8.2c0-0.6-0.2-1.2-0.7-1.6
		c-0.5-0.4-1.1-0.7-1.7-0.6c-0.5,0-0.9,0.1-1.3,0.4c-0.4,0.3-0.8,0.6-1,1.1c-0.3,0.5-0.4,1-0.4,1.6v7.5L853,422.8z"/>
	<path d="M877.2,423c-1.1,0-2.1-0.2-3-0.8c-0.8-0.5-1.5-1.3-1.9-2.2c-0.5-1-0.7-2.1-0.7-3.2c0-1.1,0.2-2.2,0.7-3.2
		c0.4-0.9,1.1-1.7,1.9-2.2c0.8-0.5,1.8-0.8,2.8-0.8c0.6,0,1.3,0.1,1.8,0.3c0.6,0.2,1.2,0.6,1.7,1c0.5,0.5,0.9,1.1,1.2,1.9
		c0.3,0.9,0.5,1.9,0.4,2.8v0.8h-9.2v-1.6h7.4c0-0.6-0.1-1.2-0.4-1.8c-0.3-0.5-0.7-1-1.2-1.3c-0.5-0.3-1.1-0.5-1.7-0.5
		c-0.7,0-1.3,0.2-1.9,0.5c-0.5,0.4-0.9,0.8-1.2,1.4c-0.3,0.6-0.4,1.2-0.4,1.9v1.1c0,0.8,0.1,1.6,0.5,2.3c0.3,0.6,0.7,1.1,1.3,1.4
		c0.6,0.3,1.3,0.5,2,0.5c0.4,0,0.9-0.1,1.3-0.2c0.4-0.1,0.7-0.4,1-0.6c0.3-0.3,0.5-0.6,0.7-1l1.8,0.5c-0.2,0.6-0.5,1.1-1,1.6
		c-0.5,0.5-1,0.8-1.6,1.1C878.7,422.9,877.9,423.1,877.2,423z"/>
	<path d="M886.8,415.6v7.2H885v-12h1.8v1.9h0.2c0.3-0.6,0.7-1.1,1.3-1.5c0.7-0.4,1.4-0.6,2.2-0.6c0.7,0,1.5,0.2,2.1,0.5
		c0.6,0.3,1.1,0.9,1.4,1.5c0.4,0.8,0.5,1.7,0.5,2.5v7.6h-1.8v-7.5c0-0.8-0.2-1.6-0.7-2.2c-0.5-0.5-1.3-0.8-2-0.8
		c-0.5,0-1.1,0.1-1.6,0.4c-0.5,0.3-0.8,0.6-1.1,1.1C887,414.3,886.8,415,886.8,415.6z"/>
	<path d="M903.1,410.8v1.6h-6.2v-1.6H903.1z M898.7,407.9h1.8v11.4c0,0.4,0.1,0.8,0.2,1.2c0.1,0.2,0.3,0.4,0.6,0.5
		c0.2,0.1,0.5,0.1,0.8,0.1c0.2,0,0.3,0,0.5,0l0.3-0.1l0.4,1.7c-0.1,0-0.3,0.1-0.5,0.1c-0.3,0.1-0.6,0.1-0.8,0.1
		c-0.5,0-1-0.1-1.5-0.3c-0.5-0.2-0.9-0.6-1.2-1c-0.3-0.5-0.5-1.1-0.5-1.7V407.9z"/>
	<path d="M910.6,423c-1,0-2-0.2-2.8-0.8c-0.8-0.5-1.5-1.3-1.9-2.2c-0.5-1-0.7-2.1-0.7-3.2c0-1.1,0.2-2.2,0.7-3.3
		c1.2-2.6,4.4-3.7,7-2.5c1.1,0.5,2,1.4,2.5,2.5c0.5,1,0.7,2.1,0.7,3.3c0,1.1-0.2,2.2-0.7,3.2c-0.4,0.9-1.1,1.6-1.9,2.2
		C912.6,422.8,911.6,423.1,910.6,423z M910.6,421.4c0.7,0,1.4-0.2,2-0.6c0.5-0.4,0.9-1,1.2-1.7c0.5-1.5,0.5-3,0-4.5
		c-0.2-0.7-0.6-1.2-1.2-1.7c-1.2-0.9-2.8-0.9-4.1,0c-0.5,0.4-0.9,1-1.2,1.7c-0.5,1.5-0.5,3,0,4.5c0.2,0.7,0.6,1.2,1.2,1.7
		C909.1,421.2,909.9,421.4,910.6,421.4L910.6,421.4z"/>
	<path d="M781.3,449.2v-12h1.8v1.8h0.1c0.2-0.6,0.6-1.1,1.2-1.5c0.6-0.4,1.3-0.6,1.9-0.5h0.5h0.5v1.9l-0.4-0.1c-0.2,0-0.5,0-0.7,0
		c-0.5,0-1.1,0.1-1.6,0.4c-0.4,0.2-0.8,0.6-1.1,1c-0.3,0.4-0.4,0.9-0.4,1.5v7.6L781.3,449.2z"/>
	<path d="M790.4,435.2c-0.3,0-0.7-0.1-0.9-0.4c-0.3-0.2-0.4-0.5-0.4-0.9c0-0.3,0.1-0.7,0.4-0.9c0.2-0.2,0.6-0.4,0.9-0.4
		c0.3,0,0.7,0.1,0.9,0.4c0.3,0.2,0.4,0.6,0.4,0.9c0,0.3-0.1,0.7-0.4,0.9C791.1,435.1,790.8,435.2,790.4,435.2z M789.5,449.2v-12h1.8
		v12H789.5z"/>
	<path d="M803.2,439.9l-1.7,0.5c-0.1-0.3-0.3-0.6-0.5-0.8c-0.2-0.3-0.5-0.5-0.8-0.6c-0.4-0.2-0.9-0.3-1.3-0.3
		c-0.6,0-1.3,0.2-1.8,0.5c-0.5,0.3-0.7,0.8-0.7,1.3c0,0.4,0.2,0.8,0.5,1.1c0.5,0.3,1,0.6,1.6,0.7l1.8,0.4c0.9,0.2,1.7,0.6,2.4,1.2
		c0.5,0.5,0.8,1.3,0.8,2.1c0,0.7-0.2,1.3-0.6,1.9c-0.4,0.6-1,1-1.6,1.3c-0.8,0.3-1.6,0.5-2.5,0.5c-1.1,0-2.1-0.2-3-0.8
		c-0.8-0.5-1.4-1.4-1.5-2.3l1.8-0.4c0.1,0.6,0.5,1.1,1,1.5c0.5,0.3,1.2,0.5,1.8,0.5c0.7,0,1.4-0.2,2-0.5c0.5-0.3,0.8-0.8,0.8-1.3
		c0-0.4-0.2-0.8-0.4-1.1c-0.4-0.3-0.8-0.5-1.3-0.6l-2-0.5c-0.9-0.2-1.8-0.6-2.4-1.2c-0.5-0.6-0.8-1.3-0.8-2.1c0-0.6,0.2-1.3,0.6-1.8
		c0.4-0.5,0.9-1,1.6-1.2c0.7-0.3,1.5-0.5,2.3-0.5c1-0.1,2,0.2,2.8,0.8C802.4,438.3,802.9,439.1,803.2,439.9z"/>
	<path d="M811.1,449.4c-2.1,0.1-4-1.1-4.8-3c-0.9-2-0.9-4.4,0-6.4c0.4-0.9,1.1-1.7,1.9-2.2c0.8-0.5,1.8-0.8,2.8-0.8
		c0.8,0,1.6,0.2,2.3,0.5c0.7,0.3,1.2,0.7,1.7,1.3c0.4,0.6,0.7,1.3,0.8,2h-1.8c-0.2-0.6-0.5-1.1-0.9-1.5c-0.5-0.4-1.2-0.7-1.9-0.6
		c-0.7,0-1.3,0.2-1.9,0.6c-0.6,0.4-1,0.9-1.3,1.6c-0.3,0.8-0.5,1.6-0.4,2.4c0,0.8,0.1,1.7,0.4,2.4c0.3,0.6,0.7,1.2,1.2,1.6
		c0.9,0.6,2.1,0.7,3.2,0.3c0.4-0.2,0.7-0.4,1-0.7c0.3-0.3,0.5-0.7,0.6-1.1h1.8c-0.2,1.4-1.1,2.7-2.3,3.3
		C812.7,449.3,811.9,449.5,811.1,449.4z"/>
	<path d="M822,449.5c-0.7,0-1.4-0.1-2.1-0.4c-1.3-0.6-2.1-1.9-2-3.2c0-0.6,0.1-1.2,0.4-1.7c0.3-0.4,0.6-0.8,1.1-1
		c0.5-0.3,1-0.4,1.5-0.5c0.5-0.1,1.1-0.2,1.7-0.3l1.8-0.2c0.3,0,0.7-0.1,1-0.2c0.2-0.1,0.3-0.4,0.3-0.6v-0.1c0-0.7-0.2-1.3-0.6-1.8
		c-0.5-0.5-1.2-0.7-1.9-0.6c-0.7,0-1.5,0.2-2.1,0.6c-0.4,0.3-0.8,0.8-1,1.2l-1.8-0.6c0.3-0.7,0.7-1.3,1.2-1.7
		c0.5-0.4,1.1-0.7,1.7-0.9c0.6-0.2,1.2-0.2,1.8-0.2c0.4,0,0.9,0.1,1.3,0.1c0.5,0.1,1,0.3,1.5,0.6c0.5,0.3,0.8,0.7,1.1,1.2
		c0.3,0.7,0.5,1.5,0.5,2.3v7.9h-1.8v-1.6h-0.1c-0.2,0.3-0.4,0.6-0.6,0.8c-0.3,0.3-0.7,0.6-1.2,0.8
		C823.2,449.4,822.6,449.5,822,449.5z M822.3,447.8c0.6,0,1.3-0.1,1.8-0.4c0.5-0.3,0.9-0.6,1.1-1.1c0.2-0.4,0.4-0.9,0.4-1.4v-1.7
		c-0.1,0.1-0.3,0.2-0.5,0.3c-0.3,0.1-0.6,0.1-0.9,0.2c-0.3,0.1-0.7,0.1-1,0.1l-0.8,0.1c-0.5,0.1-0.9,0.2-1.3,0.3
		c-0.4,0.1-0.7,0.3-1,0.6c-0.3,0.3-0.4,0.7-0.4,1.1c0,0.6,0.2,1.1,0.7,1.5C821,447.7,821.6,447.9,822.3,447.8L822.3,447.8z"/>
	<path d="M832.7,433.2v16h-1.8v-16H832.7z"/>
	<path d="M840.6,449.4c-0.9,0-1.9-0.2-2.7-0.8c-0.8-0.5-1.4-1.3-1.8-2.1c-0.5-1-0.7-2.2-0.7-3.3c0-1.1,0.2-2.2,0.7-3.3
		c0.4-0.9,1-1.6,1.8-2.1c0.8-0.5,1.7-0.8,2.7-0.8c0.6,0,1.3,0.1,1.9,0.4c0.4,0.2,0.7,0.5,1,0.9c0.2,0.3,0.4,0.6,0.6,0.8h0.2v-5.9
		h1.8v16h-1.8v-1.8h-0.2c-0.2,0.3-0.4,0.6-0.6,0.8c-0.3,0.4-0.7,0.7-1.1,0.9C841.9,449.3,841.3,449.5,840.6,449.4z M840.9,447.8
		c0.7,0,1.3-0.2,1.9-0.6c0.5-0.4,0.9-1,1.2-1.6c0.5-1.5,0.5-3.2,0-4.8c-0.2-0.6-0.6-1.2-1.2-1.6c-1.2-0.8-2.7-0.8-3.8,0
		c-0.5,0.4-0.9,1-1.2,1.6c-0.5,1.5-0.5,3.1,0,4.6c0.2,0.7,0.6,1.2,1.2,1.7C839.5,447.6,840.2,447.8,840.9,447.8z"/>
	<path d="M853.3,449.5c-0.7,0-1.4-0.1-2.1-0.4c-1.3-0.6-2.1-1.9-2-3.2c0-0.6,0.1-1.2,0.4-1.7c0.3-0.4,0.6-0.8,1.1-1
		c0.5-0.3,1-0.4,1.5-0.5c0.5-0.1,1.1-0.2,1.7-0.3l1.8-0.2c0.3,0,0.7-0.1,1-0.2c0.2-0.1,0.3-0.4,0.3-0.6v-0.1c0-0.7-0.2-1.3-0.6-1.8
		c-0.5-0.5-1.2-0.7-1.9-0.6c-0.7,0-1.5,0.2-2.1,0.6c-0.4,0.3-0.8,0.7-1,1.2l-1.8-0.6c0.3-0.7,0.7-1.3,1.2-1.7
		c0.5-0.4,1.1-0.7,1.7-0.9c0.6-0.2,1.2-0.2,1.8-0.2c0.4,0,0.9,0.1,1.3,0.1c0.5,0.1,1,0.3,1.5,0.6c0.5,0.3,0.9,0.7,1.2,1.3
		c0.3,0.7,0.5,1.5,0.5,2.3v7.9H857v-1.6h-0.1c-0.2,0.3-0.4,0.6-0.6,0.8c-0.3,0.3-0.7,0.6-1.2,0.8
		C854.5,449.4,853.9,449.5,853.3,449.5z M853.6,447.8c0.6,0,1.3-0.1,1.8-0.4c0.5-0.3,0.9-0.6,1.1-1.1c0.2-0.4,0.4-0.9,0.4-1.4v-1.7
		c-0.1,0.1-0.3,0.2-0.5,0.3c-0.3,0.1-0.6,0.1-0.9,0.2c-0.3,0.1-0.7,0.1-1,0.1l-0.8,0.1c-0.5,0.1-0.9,0.2-1.3,0.3
		c-0.4,0.1-0.7,0.3-1,0.6c-0.3,0.3-0.4,0.7-0.4,1.1c0,0.6,0.2,1.1,0.7,1.5C852.3,447.7,852.9,447.8,853.6,447.8z"/>
	<path d="M862.2,449.2v-12h1.8v1.9h0.2c0.2-0.6,0.7-1.1,1.2-1.5c0.6-0.4,1.3-0.6,2-0.5c0.7,0,1.4,0.2,2,0.5c0.5,0.4,1,0.9,1.2,1.5
		h0.1c0.3-0.6,0.8-1.1,1.4-1.5c0.7-0.4,1.4-0.6,2.2-0.5c1,0,1.9,0.3,2.6,1c0.7,0.9,1.1,2,1,3.1v8h-1.8v-8c0.1-0.7-0.2-1.4-0.7-1.9
		c-0.5-0.4-1.1-0.6-1.7-0.6c-0.7-0.1-1.5,0.2-2,0.8c-0.5,0.5-0.7,1.2-0.7,1.9v7.8h-1.8V441c0-0.6-0.2-1.2-0.7-1.6
		c-0.5-0.4-1.1-0.7-1.7-0.6c-0.5,0-0.9,0.1-1.3,0.4c-0.4,0.3-0.8,0.6-1,1.1c-0.3,0.5-0.4,1-0.4,1.6v7.5L862.2,449.2z"/>
	<path d="M886.3,449.4c-1.1,0-2.1-0.2-3-0.8c-0.8-0.5-1.5-1.3-1.9-2.2c-0.5-1-0.7-2.1-0.7-3.2c0-1.1,0.2-2.2,0.7-3.2
		c0.4-0.9,1.1-1.7,1.9-2.2c0.8-0.5,1.8-0.8,2.8-0.8c0.6,0,1.3,0.1,1.8,0.3c0.6,0.2,1.2,0.6,1.7,1c0.5,0.5,0.9,1.2,1.2,1.9
		c0.3,0.9,0.5,1.9,0.5,2.8v0.8H882v-1.6h7.4c0-0.6-0.1-1.2-0.4-1.8c-0.3-0.5-0.6-1-1.1-1.3c-0.5-0.3-1.1-0.5-1.7-0.5
		c-0.7,0-1.3,0.2-1.9,0.5c-0.5,0.3-1,0.8-1.2,1.4c-0.3,0.6-0.4,1.2-0.4,1.9v1.1c0,0.8,0.1,1.6,0.5,2.3c0.3,0.6,0.7,1.1,1.3,1.4
		c0.6,0.3,1.3,0.5,2,0.5c0.4,0,0.9-0.1,1.3-0.2c0.4-0.1,0.7-0.3,1-0.6c0.3-0.3,0.5-0.6,0.7-1l1.8,0.5c-0.2,0.6-0.5,1.2-1,1.6
		c-0.5,0.5-1,0.8-1.6,1.1C887.8,449.3,887,449.5,886.3,449.4z"/>
	<path d="M895.9,442v7.2h-1.8v-12h1.8v1.9h0.1c0.3-0.6,0.7-1.1,1.3-1.5c0.7-0.4,1.4-0.6,2.2-0.6c0.7,0,1.5,0.2,2.1,0.5
		c0.6,0.3,1.1,0.9,1.4,1.5c0.4,0.8,0.5,1.7,0.5,2.5v7.6h-1.8v-7.5c0-0.8-0.2-1.6-0.7-2.2c-0.5-0.5-1.3-0.8-2-0.8
		c-0.6,0-1.1,0.1-1.6,0.4c-0.5,0.3-0.8,0.6-1.1,1.1C896,440.8,895.9,441.4,895.9,442z"/>
	<path d="M912.2,437.2v1.6H906v-1.6H912.2z M907.8,434.3h1.8v11.4c0,0.4,0.1,0.8,0.2,1.2c0.1,0.2,0.3,0.4,0.6,0.5
		c0.2,0.1,0.5,0.1,0.8,0.1c0.2,0,0.3,0,0.5,0l0.3-0.1l0.4,1.6c-0.2,0.1-0.3,0.1-0.5,0.1c-0.3,0.1-0.6,0.1-0.8,0.1
		c-0.5,0-1-0.1-1.5-0.3c-0.5-0.2-0.9-0.6-1.2-1c-0.3-0.5-0.5-1.1-0.5-1.7V434.3z"/>
	<path d="M915.9,435.2c-0.3,0-0.7-0.1-0.9-0.4c-0.3-0.2-0.4-0.5-0.4-0.9c0-0.3,0.1-0.7,0.4-0.9c0.2-0.2,0.6-0.4,0.9-0.4
		c0.3,0,0.7,0.1,0.9,0.4c0.3,0.2,0.4,0.6,0.4,0.9c0,0.3-0.1,0.7-0.4,0.9C916.6,435.1,916.3,435.2,915.9,435.2z M915,449.2v-12h1.8
		v12H915z"/>
	<path d="M782.9,1171.7h-2l5.9-16h2l5.9,16h-2l-4.8-13.5h-0.1L782.9,1171.7z M783.6,1165.5h8.2v1.7h-8.2V1165.5z"/>
	<path d="M801.7,1172c-2.1,0.1-4-1.1-4.8-3c-0.4-1-0.7-2.1-0.7-3.2c0-1.1,0.2-2.2,0.7-3.2c0.4-0.9,1.1-1.6,1.9-2.2
		c0.8-0.5,1.8-0.8,2.8-0.8c0.8,0,1.6,0.1,2.3,0.5c0.7,0.3,1.2,0.7,1.7,1.3c0.4,0.6,0.7,1.3,0.8,2h-1.8c-0.2-0.6-0.5-1.1-0.9-1.4
		c-0.5-0.5-1.2-0.7-1.9-0.6c-0.7,0-1.3,0.2-1.9,0.6c-0.6,0.4-1,0.9-1.3,1.6c-0.3,0.7-0.5,1.6-0.5,2.4c0,0.8,0.1,1.7,0.4,2.4
		c0.3,0.6,0.7,1.2,1.2,1.6c1,0.6,2.2,0.7,3.2,0.3c0.4-0.2,0.7-0.4,1-0.7c0.3-0.3,0.5-0.7,0.6-1.1h1.8c-0.2,1.4-1.1,2.6-2.4,3.2
		C803.3,1171.9,802.5,1172,801.7,1172z"/>
	<path d="M814,1172c-1,0-2-0.3-2.9-0.8c-0.8-0.5-1.5-1.3-1.9-2.2c-0.9-2.1-0.9-4.4,0-6.4c0.4-0.9,1.1-1.6,1.9-2.2
		c0.8-0.5,1.8-0.8,2.8-0.8c0.8,0,1.6,0.2,2.3,0.5c0.7,0.3,1.2,0.7,1.7,1.3c0.4,0.6,0.7,1.3,0.8,2h-1.8c-0.2-0.6-0.5-1.1-0.9-1.4
		c-0.5-0.5-1.2-0.7-1.9-0.6c-0.7,0-1.3,0.2-1.9,0.6c-0.6,0.4-1,0.9-1.3,1.6c-0.3,0.7-0.5,1.6-0.5,2.4c0,0.8,0.1,1.7,0.4,2.4
		c0.3,0.6,0.7,1.2,1.2,1.6c0.6,0.4,1.2,0.6,1.9,0.6c0.4,0,0.9-0.1,1.3-0.2c0.4-0.2,0.7-0.4,1-0.7c0.3-0.3,0.5-0.7,0.6-1.1h1.8
		c-0.1,0.7-0.4,1.3-0.8,1.9c-0.4,0.6-1,1-1.6,1.3C815.6,1171.9,814.8,1172,814,1172z"/>
	<path d="M826.4,1172c-1.1,0-2.1-0.2-3-0.8c-0.8-0.5-1.5-1.3-1.9-2.2c-0.5-1-0.7-2.1-0.7-3.2c0-1.1,0.2-2.2,0.7-3.2
		c0.4-0.9,1.1-1.7,1.9-2.2c0.8-0.5,1.8-0.8,2.8-0.8c0.6,0,1.3,0.1,1.8,0.3c0.6,0.2,1.2,0.5,1.7,1c0.5,0.5,0.9,1.1,1.2,1.8
		c0.3,0.9,0.5,1.9,0.4,2.8v0.8h-9.2v-1.6h7.4c0-0.6-0.1-1.2-0.4-1.8c-0.3-0.5-0.7-1-1.2-1.3c-0.5-0.3-1.1-0.5-1.7-0.5
		c-0.7,0-1.3,0.2-1.9,0.5c-0.5,0.4-0.9,0.8-1.2,1.4c-0.3,0.6-0.4,1.2-0.4,1.9v1.1c0,0.8,0.1,1.6,0.5,2.3c0.3,0.6,0.7,1.1,1.3,1.4
		c0.6,0.3,1.3,0.5,2,0.5c0.4,0,0.9-0.1,1.3-0.2c0.4-0.1,0.7-0.3,1-0.6c0.3-0.3,0.5-0.6,0.7-1l1.8,0.5c-0.2,0.6-0.5,1.1-1,1.6
		c-0.5,0.5-1,0.8-1.6,1.1C827.9,1171.9,827.2,1172,826.4,1172z"/>
	<path d="M836.1,1164.5v7.2h-1.8v-12h1.8v1.9h0.2c0.3-0.6,0.7-1.1,1.3-1.5c0.7-0.4,1.4-0.6,2.2-0.6c0.7,0,1.5,0.2,2.1,0.5
		c0.6,0.3,1.1,0.9,1.4,1.5c0.4,0.8,0.5,1.7,0.5,2.5v7.6h-1.8v-7.5c0-0.8-0.2-1.6-0.7-2.2c-0.5-0.5-1.3-0.8-2-0.8
		c-0.5,0-1.1,0.1-1.6,0.4c-0.5,0.3-0.8,0.6-1.1,1.1C836.2,1163.3,836.1,1163.9,836.1,1164.5z"/>
	<path d="M855.6,1162.4l-1.7,0.5c-0.1-0.3-0.3-0.6-0.5-0.8c-0.2-0.3-0.5-0.5-0.8-0.7c-0.4-0.2-0.9-0.3-1.3-0.2
		c-0.6,0-1.3,0.2-1.8,0.5c-0.5,0.3-0.7,0.8-0.7,1.3c0,0.4,0.2,0.8,0.5,1.1c0.5,0.3,1,0.6,1.6,0.7l1.8,0.4c0.9,0.2,1.7,0.6,2.4,1.2
		c0.5,0.5,0.8,1.3,0.8,2.1c0,0.7-0.2,1.3-0.6,1.8c-0.4,0.6-1,1-1.7,1.3c-0.8,0.3-1.6,0.5-2.5,0.5c-1.1,0-2.1-0.2-3-0.8
		c-0.8-0.5-1.4-1.4-1.5-2.3l1.8-0.4c0.1,0.6,0.5,1.1,1,1.4c0.5,0.3,1.2,0.5,1.8,0.5c0.7,0,1.4-0.2,2-0.6c0.5-0.3,0.7-0.8,0.8-1.3
		c0-0.4-0.2-0.7-0.4-1c-0.4-0.3-0.9-0.6-1.3-0.6l-2-0.5c-0.9-0.2-1.7-0.6-2.4-1.2c-0.5-0.6-0.8-1.3-0.8-2.1c0-0.6,0.2-1.3,0.6-1.8
		c0.4-0.5,0.9-1,1.6-1.2c0.7-0.3,1.5-0.5,2.3-0.4c1-0.1,2,0.2,2.8,0.8C854.8,1160.9,855.3,1161.6,855.6,1162.4z"/>
	<path d="M859.5,1157.7c-0.3,0-0.7-0.1-0.9-0.4c-0.5-0.5-0.5-1.2,0-1.7c0,0,0,0,0,0c0.2-0.2,0.6-0.4,0.9-0.4c0.3,0,0.7,0.1,0.9,0.4
		c0.5,0.4,0.5,1.2,0.1,1.7c0,0-0.1,0.1-0.1,0.1C860.2,1157.6,859.9,1157.7,859.5,1157.7z M858.6,1171.7v-12h1.8v12H858.6z"/>
	<path d="M868.7,1172c-2,0-3.9-1.1-4.8-2.9c-0.9-2.1-0.9-4.4,0-6.5c1.2-2.6,4.4-3.7,7-2.5c1.1,0.5,2,1.4,2.5,2.5
		c0.9,2.1,0.9,4.4,0,6.5C872.6,1170.9,870.7,1172.1,868.7,1172z M868.7,1170.3c0.7,0,1.4-0.2,2-0.6c0.5-0.4,0.9-1,1.2-1.7
		c0.5-1.4,0.5-3,0-4.5c-0.2-0.7-0.6-1.2-1.2-1.7c-1.2-0.9-2.8-0.9-4.1,0c-0.5,0.4-0.9,1-1.2,1.7c-0.5,1.5-0.5,3,0,4.5
		c0.2,0.7,0.6,1.2,1.2,1.7C867.2,1170.2,867.9,1170.4,868.7,1170.3L868.7,1170.3z"/>
	<path d="M878.8,1164.5v7.2h-1.8v-12h1.8v1.9h0.2c0.3-0.6,0.7-1.1,1.3-1.5c0.7-0.4,1.4-0.6,2.2-0.6c0.7,0,1.5,0.2,2.1,0.5
		c0.6,0.3,1.1,0.9,1.4,1.5c0.4,0.8,0.5,1.7,0.5,2.5v7.6h-1.8v-7.5c0-0.8-0.2-1.6-0.7-2.2c-0.5-0.5-1.3-0.8-2-0.8
		c-0.5,0-1.1,0.1-1.6,0.4c-0.5,0.3-0.8,0.6-1.1,1.1C878.9,1163.3,878.8,1163.9,878.8,1164.5z"/>
	<path d="M894.8,1172c-1.1,0-2.1-0.2-3-0.8c-0.8-0.5-1.5-1.3-1.9-2.2c-0.5-1-0.7-2.1-0.7-3.2c0-1.1,0.2-2.2,0.7-3.2
		c0.4-0.9,1.1-1.7,1.9-2.2c0.8-0.5,1.8-0.8,2.8-0.8c0.6,0,1.3,0.1,1.8,0.3c0.6,0.2,1.2,0.5,1.7,1c0.5,0.5,0.9,1.1,1.2,1.8
		c0.3,0.9,0.5,1.9,0.5,2.8v0.8h-9.2v-1.6h7.4c0-0.6-0.1-1.2-0.4-1.8c-0.5-1.1-1.7-1.8-2.9-1.7c-0.7,0-1.3,0.2-1.9,0.5
		c-0.5,0.4-0.9,0.8-1.2,1.4c-0.3,0.6-0.4,1.2-0.4,1.9v1.1c0,0.8,0.1,1.6,0.5,2.3c0.3,0.6,0.7,1.1,1.3,1.4c0.6,0.3,1.3,0.5,2,0.5
		c0.4,0,0.9-0.1,1.3-0.2c0.4-0.1,0.7-0.3,1-0.6c0.3-0.3,0.5-0.6,0.7-1l1.8,0.5c-0.2,0.6-0.5,1.1-0.9,1.6c-0.5,0.5-1,0.8-1.6,1.1
		C896.4,1171.9,895.6,1172,894.8,1172z"/>
	<path d="M782,1198.1v-12h1.8v1.9h0.1c0.2-0.6,0.6-1.1,1.2-1.4c0.6-0.4,1.2-0.6,1.9-0.6h0.5h0.5v1.9l-0.4-0.1c-0.2,0-0.5,0-0.7,0
		c-0.5,0-1.1,0.1-1.6,0.4c-0.4,0.2-0.8,0.6-1.1,1c-0.3,0.4-0.4,0.9-0.4,1.4v7.6L782,1198.1z"/>
	<path d="M791.1,1184.1c-0.3,0-0.7-0.1-0.9-0.4c-0.5-0.5-0.5-1.2,0-1.7c0,0,0,0,0,0c0.5-0.5,1.3-0.5,1.9,0c0.5,0.5,0.5,1.2,0,1.7
		c0,0,0,0,0,0C791.8,1184,791.4,1184.1,791.1,1184.1z M790.2,1198.1v-12h1.8v12H790.2z"/>
	<path d="M803.9,1188.8l-1.7,0.5c-0.1-0.3-0.3-0.6-0.5-0.8c-0.2-0.3-0.5-0.5-0.8-0.7c-0.4-0.2-0.9-0.3-1.3-0.3
		c-0.6,0-1.3,0.2-1.8,0.5c-0.5,0.3-0.7,0.7-0.7,1.3c0,0.4,0.2,0.8,0.5,1.1c0.5,0.3,1,0.6,1.6,0.7l1.8,0.4c0.9,0.2,1.7,0.6,2.4,1.2
		c0.5,0.5,0.8,1.3,0.8,2.1c0,0.7-0.2,1.3-0.6,1.8c-0.4,0.6-1,1-1.6,1.3c-0.8,0.3-1.6,0.5-2.5,0.5c-1.1,0-2.1-0.2-3-0.8
		c-0.8-0.5-1.4-1.4-1.5-2.3l1.8-0.4c0.1,0.6,0.5,1.1,1,1.4c0.5,0.3,1.2,0.5,1.8,0.5c0.7,0,1.4-0.2,2-0.6c0.5-0.3,0.7-0.8,0.8-1.3
		c0-0.4-0.1-0.8-0.4-1.1c-0.4-0.3-0.9-0.5-1.3-0.6l-2-0.5c-0.9-0.2-1.7-0.6-2.4-1.2c-0.5-0.6-0.8-1.3-0.8-2.1c0-0.6,0.2-1.3,0.6-1.8
		c0.4-0.5,0.9-1,1.6-1.2c0.7-0.3,1.5-0.5,2.3-0.4c1-0.1,2,0.2,2.8,0.8C803.1,1187.3,803.6,1188,803.9,1188.8z"/>
	<path d="M811.8,1198.4c-2.1,0.1-4-1.1-4.8-3c-0.9-2-0.9-4.4,0-6.4c0.4-0.9,1.1-1.7,1.9-2.2c0.8-0.5,1.8-0.8,2.8-0.8
		c0.8,0,1.6,0.2,2.3,0.5c0.7,0.3,1.2,0.7,1.7,1.3c0.4,0.6,0.7,1.3,0.8,2h-1.8c-0.2-0.6-0.5-1.1-0.9-1.5c-0.5-0.4-1.2-0.7-1.9-0.6
		c-0.7,0-1.3,0.2-1.9,0.6c-0.6,0.4-1,0.9-1.3,1.6c-0.3,0.8-0.5,1.6-0.5,2.4c0,0.8,0.1,1.7,0.4,2.4c0.3,0.6,0.7,1.2,1.2,1.6
		c0.6,0.4,1.2,0.6,1.9,0.6c0.4,0,0.9-0.1,1.3-0.2c0.4-0.2,0.7-0.4,1-0.7c0.3-0.3,0.5-0.7,0.6-1.1h1.8c-0.1,0.7-0.4,1.3-0.8,1.9
		c-0.4,0.6-1,1-1.6,1.3C813.4,1198.2,812.6,1198.4,811.8,1198.4z"/>
	<path d="M822.7,1198.4c-0.7,0-1.4-0.1-2.1-0.4c-1.3-0.6-2.1-1.9-2-3.2c0-0.6,0.1-1.2,0.4-1.7c0.3-0.4,0.6-0.8,1.1-1
		c0.5-0.3,1-0.4,1.5-0.6c0.5-0.1,1.1-0.2,1.7-0.3l1.7-0.2c0.3,0,0.7-0.1,1-0.2c0.2-0.1,0.3-0.4,0.3-0.6v-0.1c0-0.7-0.2-1.3-0.6-1.8
		c-0.5-0.5-1.2-0.7-1.9-0.6c-0.7,0-1.5,0.2-2.1,0.6c-0.4,0.3-0.8,0.7-1.1,1.2l-1.8-0.6c0.3-0.7,0.7-1.3,1.3-1.7
		c0.5-0.4,1.1-0.7,1.7-0.8c0.6-0.2,1.2-0.2,1.8-0.2c0.4,0,0.9,0.1,1.3,0.1c0.5,0.1,1,0.3,1.5,0.6c0.5,0.3,0.9,0.8,1.2,1.3
		c0.3,0.7,0.5,1.5,0.5,2.3v7.9h-1.8v-1.6h-0.1c-0.2,0.3-0.4,0.6-0.6,0.8c-0.3,0.3-0.7,0.6-1.2,0.8
		C823.9,1198.3,823.3,1198.4,822.7,1198.4z M823,1196.8c0.6,0,1.3-0.1,1.8-0.4c0.5-0.3,0.9-0.6,1.1-1.1c0.3-0.4,0.4-0.9,0.4-1.4
		v-1.7c-0.1,0.1-0.3,0.2-0.5,0.3c-0.3,0.1-0.6,0.1-0.9,0.2c-0.3,0.1-0.7,0.1-1,0.1l-0.8,0.1c-0.5,0.1-0.9,0.2-1.3,0.3
		c-0.4,0.1-0.7,0.3-1,0.6c-0.3,0.3-0.4,0.7-0.4,1.1c0,0.6,0.2,1.1,0.7,1.4C821.7,1196.6,822.3,1196.8,823,1196.8L823,1196.8z"/>
	<path d="M833.4,1182.1v16h-1.8v-16H833.4z"/>
	<path d="M841.3,1198.4c-0.9,0-1.9-0.2-2.7-0.8c-0.8-0.5-1.4-1.3-1.8-2.2c-0.5-1-0.7-2.2-0.6-3.3c0-1.1,0.2-2.2,0.6-3.3
		c0.4-0.9,1-1.6,1.8-2.2c0.8-0.5,1.7-0.8,2.7-0.8c0.6,0,1.3,0.1,1.9,0.4c0.4,0.2,0.7,0.5,1,0.9c0.2,0.3,0.4,0.6,0.6,0.8h0.2v-5.9
		h1.8v16H845v-1.8h-0.2c-0.1,0.2-0.3,0.5-0.6,0.8c-0.3,0.4-0.7,0.7-1.1,0.9C842.6,1198.3,841.9,1198.4,841.3,1198.4z M841.6,1196.7
		c0.7,0,1.3-0.2,1.9-0.6c0.5-0.4,0.9-1,1.2-1.6c0.3-0.8,0.4-1.6,0.4-2.4c0-0.8-0.1-1.6-0.4-2.3c-0.2-0.6-0.6-1.2-1.2-1.6
		c-1.2-0.8-2.7-0.8-3.8,0c-0.5,0.4-0.9,1-1.2,1.6c-0.3,0.7-0.4,1.5-0.4,2.3c0,0.8,0.1,1.6,0.4,2.3c0.2,0.6,0.6,1.2,1.2,1.7
		C840.2,1196.5,840.9,1196.7,841.6,1196.7z"/>
	<path d="M854,1198.4c-0.7,0-1.4-0.1-2.1-0.4c-1.3-0.6-2.1-1.9-2-3.2c0-0.6,0.1-1.2,0.4-1.7c0.3-0.4,0.6-0.8,1.1-1
		c0.5-0.3,1-0.4,1.5-0.6c0.5-0.1,1.1-0.2,1.7-0.3l1.8-0.2c0.3,0,0.7-0.1,1-0.2c0.2-0.1,0.3-0.4,0.3-0.6v-0.1c0-0.7-0.2-1.3-0.6-1.8
		c-0.5-0.5-1.2-0.7-1.9-0.6c-0.7,0-1.5,0.2-2.1,0.6c-0.4,0.3-0.8,0.8-1,1.2l-1.8-0.6c0.3-0.7,0.7-1.3,1.2-1.7
		c0.5-0.4,1.1-0.7,1.7-0.8c0.6-0.1,1.1-0.2,1.7-0.2c0.4,0,0.9,0.1,1.3,0.1c0.5,0.1,1,0.3,1.5,0.6c0.5,0.3,0.9,0.8,1.2,1.3
		c0.3,0.7,0.5,1.5,0.5,2.3v7.9h-1.8v-1.6h-0.1c-0.2,0.3-0.4,0.6-0.6,0.8c-0.3,0.3-0.7,0.6-1.2,0.8
		C855.2,1198.4,854.6,1198.4,854,1198.4z M854.3,1196.8c0.6,0,1.3-0.1,1.8-0.4c0.5-0.3,0.9-0.6,1.1-1.1c0.3-0.4,0.4-0.9,0.4-1.4
		v-1.7c-0.1,0.1-0.3,0.2-0.5,0.3c-0.3,0.1-0.6,0.1-0.9,0.2c-0.3,0.1-0.7,0.1-1,0.1l-0.8,0.1c-0.5,0.1-0.9,0.2-1.3,0.3
		c-0.4,0.1-0.7,0.3-1,0.6c-0.3,0.3-0.4,0.7-0.4,1.1c0,0.6,0.2,1.1,0.7,1.4C853,1196.6,853.6,1196.8,854.3,1196.8L854.3,1196.8z"/>
	<path d="M862.8,1198.1v-12h1.8v1.9h0.2c0.2-0.6,0.7-1.1,1.2-1.5c0.6-0.4,1.3-0.5,2-0.5c0.7,0,1.4,0.2,2,0.5c0.5,0.4,1,0.9,1.2,1.5
		h0.1c0.3-0.6,0.8-1.1,1.4-1.5c0.7-0.4,1.4-0.6,2.2-0.6c1,0,1.9,0.3,2.6,1c0.7,0.9,1.1,2,1,3.1v8h-1.8v-8c0.1-0.7-0.2-1.4-0.7-1.9
		c-0.5-0.4-1.1-0.6-1.7-0.6c-0.7-0.1-1.5,0.2-2,0.8c-0.5,0.5-0.7,1.2-0.7,1.9v7.8h-1.9v-8.2c0-0.6-0.2-1.2-0.7-1.7
		c-0.5-0.4-1.1-0.6-1.7-0.6c-0.5,0-0.9,0.1-1.3,0.4c-0.4,0.3-0.8,0.6-1,1.1c-0.3,0.5-0.4,1-0.4,1.6v7.5L862.8,1198.1z"/>
	<path d="M887,1198.4c-1.1,0-2.1-0.2-3-0.8c-0.8-0.5-1.5-1.3-1.9-2.2c-0.5-1-0.7-2.1-0.7-3.2c0-1.1,0.2-2.2,0.7-3.2
		c0.4-0.9,1.1-1.7,1.9-2.2c0.8-0.5,1.8-0.8,2.8-0.8c0.6,0,1.3,0.1,1.8,0.3c0.6,0.2,1.2,0.6,1.7,1c0.5,0.5,0.9,1.2,1.2,1.8
		c0.3,0.9,0.5,1.9,0.5,2.9v0.8h-9.2v-1.6h7.4c0-0.6-0.1-1.3-0.4-1.8c-0.3-0.5-0.7-0.9-1.1-1.2c-0.5-0.3-1.1-0.5-1.7-0.5
		c-0.7,0-1.3,0.2-1.9,0.5c-0.5,0.3-1,0.8-1.2,1.4c-0.3,0.6-0.4,1.2-0.4,1.9v1.1c0,0.8,0.1,1.6,0.5,2.3c0.3,0.6,0.7,1.1,1.3,1.4
		c0.6,0.3,1.3,0.5,2,0.5c0.4,0,0.9-0.1,1.3-0.2c0.4-0.1,0.7-0.3,1-0.6c0.3-0.3,0.5-0.7,0.7-1.1l1.8,0.5c-0.2,0.6-0.5,1.1-1,1.6
		c-0.5,0.5-1,0.8-1.6,1.1C888.5,1198.3,887.8,1198.4,887,1198.4z"/>
	<path d="M896.6,1190.9v7.2h-1.8v-12h1.8v1.9h0.2c0.3-0.6,0.7-1.1,1.3-1.5c0.7-0.4,1.4-0.6,2.2-0.6c0.7,0,1.5,0.2,2.1,0.5
		c0.6,0.3,1.1,0.9,1.4,1.5c0.4,0.8,0.5,1.7,0.5,2.5v7.6h-1.8v-7.5c0.1-0.8-0.2-1.6-0.7-2.2c-0.5-0.5-1.3-0.8-2-0.8
		c-0.5,0-1.1,0.1-1.6,0.4c-0.5,0.3-0.8,0.6-1.1,1.1C896.8,1189.7,896.6,1190.3,896.6,1190.9z"/>
	<path d="M912.9,1186.1v1.6h-6.2v-1.6H912.9z M908.5,1183.3h1.8v11.4c0,0.4,0.1,0.8,0.2,1.2c0.1,0.2,0.3,0.4,0.6,0.5
		c0.2,0.1,0.5,0.1,0.8,0.1c0.2,0,0.3,0,0.5,0h0.3l0.4,1.7c-0.2,0.1-0.3,0.1-0.5,0.2c-0.3,0.1-0.6,0.1-0.8,0.1
		c-0.5,0-1.1-0.1-1.5-0.3c-0.5-0.2-0.9-0.6-1.2-1c-0.3-0.5-0.5-1.1-0.5-1.7L908.5,1183.3z"/>
	<path d="M916.6,1184.1c-0.3,0-0.7-0.1-0.9-0.4c-0.5-0.5-0.5-1.2,0-1.7c0,0,0,0,0,0c0.5-0.5,1.3-0.5,1.9,0c0.5,0.5,0.5,1.2,0,1.7
		c0,0,0,0,0,0C917.3,1184,916.9,1184.1,916.6,1184.1z M915.7,1198.1v-12h1.8v12H915.7z"/>
</g>
<g>
	<circle cx="267.9" cy="1552.4" r="14.3"/>
	<path d="M322,1576.1v-45.3h15.3c3-0.1,6,0.5,8.7,1.9c2.1,1.2,3.9,3,5,5.2c2.2,4.6,2.2,9.9,0,14.5c-1.1,2.2-2.8,4-5,5.2
		c-2.7,1.4-5.7,2-8.7,1.9h-11v-4.8h10.8c2,0.1,4-0.3,5.9-1.2c1.4-0.8,2.5-2,3.2-3.4c1.4-3.1,1.4-6.6,0-9.7c-0.7-1.5-1.8-2.6-3.2-3.4
		c-1.8-0.9-3.9-1.3-5.9-1.2h-9.7v40.4L322,1576.1z"/>
	<path d="M361.5,1530.8h6.5l15.4,37.4h0.5l15.4-37.4h6.6v45.3h-5.1v-34.4h-0.4l-14.2,34.4h-4.8l-14.2-34.4h-0.5v34.4h-5.1
		L361.5,1530.8z"/>
	<path d="M432,1530.8v45.3h-5.5v-39.6h-0.3l-11,7.3v-5.6l11.3-7.5L432,1530.8z"/>
	<path d="M459.8,1576.7c-3.1,0.1-6.1-0.9-8.5-2.7c-2.5-2.1-4.4-4.8-5.4-7.9c-2.5-8.2-2.5-17,0-25.2c1-3.1,2.9-5.9,5.4-8
		c5.1-3.7,11.9-3.7,17,0c2.5,2.1,4.4,4.9,5.4,8c2.5,8.2,2.5,17,0,25.2c-1,3.1-2.9,5.8-5.4,7.9
		C465.8,1575.8,462.8,1576.8,459.8,1576.7z M459.8,1571.9c3.3,0,6.3-1.9,7.7-4.8c2.1-4.2,3-8.9,2.7-13.6c0.1-3.4-0.4-6.7-1.2-10
		c-0.6-2.4-1.9-4.6-3.6-6.3c-1.5-1.4-3.5-2.2-5.6-2.2c-3.3-0.1-6.4,1.7-7.9,4.7c-2.1,4.2-3,8.9-2.8,13.7c-0.1,3.4,0.4,6.7,1.2,10
		c0.6,2.4,1.8,4.5,3.6,6.3C455.5,1571.1,457.6,1571.9,459.8,1571.9z"/>
	<path d="M485.5,1555.9v-3.5l28.5-14.5v5.7l-21.8,10.5v0.2l21.8,10.5v5.7L485.5,1555.9z"/>
	<path d="M539.1,1576.7c-2.4,0-4.8-0.5-7-1.6c-2-0.9-3.7-2.4-5-4.2c-1.3-1.8-2-3.9-2.1-6.1h5.3c0.2,2,1.2,3.8,2.8,5.1
		c3.2,2.4,7.5,2.7,10.9,0.7c1.4-0.9,2.6-2.1,3.5-3.6c0.8-1.6,1.3-3.4,1.2-5.2c0-1.9-0.4-3.7-1.3-5.3c-0.8-1.5-2-2.8-3.5-3.7
		c-1.6-0.9-3.4-1.4-5.2-1.4c-1.4,0-2.8,0.2-4.1,0.6c-1.3,0.3-2.5,0.9-3.6,1.7l-5.2-0.6l2.7-22.3h23.5v4.6h-18.9l-1.6,13.4h0.2
		c1-0.8,2.2-1.4,3.5-1.8c1.4-0.5,2.9-0.8,4.4-0.8c2.6,0,5.2,0.7,7.4,2c2.2,1.3,4,3.2,5.1,5.4c1.3,2.4,1.9,5.1,1.9,7.8
		c0,2.7-0.7,5.4-2,7.8c-1.3,2.2-3.1,4.1-5.3,5.3C544.5,1576,541.8,1576.7,539.1,1576.7z"/>
	<path d="M577.6,1576.7c-3,0-5.9-0.9-8.3-2.7c-2.5-2.1-4.4-4.8-5.4-7.9c-2.5-8.2-2.5-17,0-25.2c1-3.1,2.9-5.9,5.4-8
		c5.1-3.7,11.9-3.7,17,0c2.5,2.1,4.4,4.9,5.4,8c2.5,8.2,2.5,17,0,25.2c-1,3.1-2.9,5.8-5.4,7.9
		C583.8,1575.9,580.7,1576.9,577.6,1576.7z M577.6,1571.9c3.3,0,6.3-1.9,7.7-4.8c2.1-4.2,3-8.9,2.7-13.6c0.1-3.4-0.3-6.7-1.2-10
		c-0.6-2.4-1.9-4.5-3.6-6.3c-1.5-1.4-3.5-2.2-5.6-2.2c-3.3,0-6.3,1.9-7.7,4.8c-2.1,4.2-3,8.9-2.8,13.7c-0.1,3.4,0.4,6.7,1.2,10
		c0.6,2.4,1.9,4.5,3.6,6.3C573.5,1571.1,575.5,1571.9,577.6,1571.9z"/>
	<path d="M601.4,1587.2v-40.5h4.2v17.4c0,1.4,0.3,2.9,1,4.2c0.7,1.2,1.7,2.2,2.9,2.8c1.3,0.7,2.7,1,4.1,1c1.4,0,2.9-0.3,4.2-1
		c1.2-0.7,2.2-1.6,2.8-2.8c0.7-1.3,1-2.7,1-4.2v-17.4h4.5v29.4h-4v-4.4h-0.2c-0.7,1.5-1.9,2.7-3.3,3.6c-2.8,1.6-6.3,1.6-9.1,0
		c-1.4-0.8-2.6-2.1-3.3-3.6h-0.6v15.4H601.4z"/>
	<path d="M646.6,1587.7c-1.9,0.1-3.8-0.2-5.6-0.8c-1.4-0.5-2.7-1.2-3.9-2.2c-1-0.8-1.8-1.8-2.5-2.9l3.6-2.5c0.4,0.5,0.9,1.2,1.5,1.9
		c0.8,0.8,1.6,1.4,2.6,1.8c1.3,0.5,2.7,0.8,4.1,0.7c2.1,0.1,4.2-0.5,5.9-1.7c1.6-1.3,2.5-3.3,2.3-5.4v-6h-0.4
		c-0.4,0.7-0.9,1.3-1.4,1.9c-0.7,0.9-1.6,1.6-2.6,2.1c-1.4,0.7-3,1-4.6,0.9c-2.2,0-4.5-0.6-6.4-1.7c-1.9-1.2-3.5-2.9-4.5-4.9
		c-1.1-2.4-1.7-5.1-1.6-7.8c-0.1-2.7,0.5-5.4,1.6-7.9c1-2.1,2.5-3.9,4.4-5.2c1.9-1.3,4.2-1.9,6.6-1.9c1.6,0,3.1,0.3,4.6,1
		c1,0.5,1.9,1.3,2.6,2.2c0.6,0.8,1.1,1.5,1.4,2h0.5v-4.6h4.6v30.3c0.1,2.2-0.5,4.4-1.7,6.2c-1.1,1.6-2.7,2.8-4.6,3.5
		C651,1587.4,648.8,1587.8,646.6,1587.7z M646.6,1571.6c1.6,0,3.2-0.4,4.6-1.2c1.3-0.9,2.3-2.1,2.9-3.6c0.7-1.8,1-3.7,1-5.6
		c0-1.9-0.3-3.8-1-5.6c-0.6-1.5-1.6-2.8-2.9-3.8c-1.3-1-3-1.5-4.6-1.4c-1.7-0.1-3.4,0.5-4.8,1.4c-1.3,1.1-2.3,2.5-2.8,4.2
		c-0.7,1.7-1,3.6-1,5.4c0,1.8,0.3,3.7,1,5.4c0.6,1.5,1.6,2.8,2.9,3.7c1.4,0.8,3,1.2,4.6,1.1L646.6,1571.6z"/>
	<path d="M681.5,1535l-12.5,47h-4.2l12.7-47H681.5z"/>
	<path d="M686.9,1576.1v-29.4h4.2v4.6h0.4c0.6-1.5,1.6-2.8,3-3.7c1.5-0.9,3.2-1.4,4.9-1.3c1.7-0.1,3.4,0.4,4.9,1.3
		c1.3,0.9,2.4,2.2,3.1,3.7h0.2c0.8-1.5,1.9-2.8,3.4-3.6c1.6-0.9,3.5-1.4,5.4-1.4c2.4-0.1,4.7,0.8,6.5,2.5c1.8,2.1,2.7,4.9,2.5,7.6
		v19.7h-4.5v-19.8c0.2-1.7-0.5-3.5-1.8-4.6c-1.2-0.9-2.7-1.4-4.2-1.4c-1.8-0.1-3.5,0.6-4.8,1.9c-1.1,1.3-1.8,3-1.7,4.7v19.2h-4.6
		v-20.2c0.1-1.6-0.5-3.1-1.7-4.2c-1.1-1-2.6-1.6-4.1-1.5c-1.2,0-2.3,0.4-3.3,1c-1,0.6-1.9,1.5-2.5,2.6c-0.6,1.2-0.9,2.5-0.9,3.9
		v18.4L686.9,1576.1z"/>
	<path d="M739.7,1558.4c-1.3,0-2.7-0.2-3.9-0.7c-1.1-0.5-2-1.2-2.7-2.1c-0.7-0.9-1.1-2-1.1-3.2h2.8c0,0.7,0.3,1.4,0.8,1.9
		c0.5,0.6,1.1,1,1.7,1.2c1.6,0.6,3.4,0.5,5-0.1c0.7-0.3,1.4-0.8,1.8-1.5c0.5-0.6,0.7-1.4,0.7-2.1c0-0.8-0.2-1.5-0.6-2.2
		c-0.4-0.7-1.1-1.2-1.8-1.5c-0.9-0.4-1.9-0.6-2.9-0.5h-1.8v-2.4h1.8c0.8,0,1.6-0.2,2.4-0.5c0.7-0.3,1.2-0.8,1.6-1.4
		c0.4-0.6,0.6-1.3,0.6-2.1c0-0.7-0.2-1.4-0.5-2c-0.3-0.6-0.8-1-1.5-1.3c-0.7-0.3-1.4-0.5-2.2-0.5c-0.8,0-1.5,0.2-2.2,0.4
		c-0.7,0.3-1.2,0.7-1.7,1.2c-0.5,0.6-0.7,1.3-0.8,2h-2.6c0-1.1,0.4-2.2,1.1-3.2c0.7-0.9,1.6-1.6,2.7-2.1c1.2-0.5,2.4-0.8,3.7-0.8
		c1.3,0,2.5,0.3,3.6,0.9c1.9,1,3.1,3.1,3.2,5.3c0,1.2-0.3,2.3-1,3.3c-0.7,0.9-1.6,1.6-2.7,1.9l0,0c1.3,0.2,2.5,0.8,3.4,1.8
		c0.8,1,1.3,2.3,1.2,3.7c0,1.2-0.3,2.4-1,3.4c-0.7,1-1.6,1.8-2.7,2.3C742.5,1558.1,741.1,1558.4,739.7,1558.4z"/>
	<circle class="st7" cx="267.9" cy="1622.1" r="14.3"/>
	<path class="st7" d="M322,1645.8v-45.3h15.3c3-0.1,6,0.5,8.8,1.9c2.1,1.2,3.9,3,5,5.1c2.2,4.6,2.2,9.9,0,14.5c-1.1,2.2-2.8,4-5,5.2
		c-2.7,1.4-5.6,2-8.6,1.9h-11v-4.8h10.8c2,0.1,4-0.3,5.9-1.2c1.4-0.8,2.6-2,3.2-3.4c1.3-3.1,1.3-6.6,0-9.7c-0.7-1.5-1.8-2.6-3.2-3.4
		c-1.8-0.9-3.9-1.3-5.9-1.2h-9.6v40.4L322,1645.8z"/>
	<path class="st7" d="M361.5,1600.6h6.6l15.4,37.4h0.4l15.4-37.4h6.6v45.3h-5.1v-34.4h-0.2l-14.2,34.4h-5l-14.1-34.4h-0.4v34.4h-5.1
		L361.5,1600.6z"/>
	<path class="st7" d="M432,1600.6v45.3h-5.5v-39.6h-0.2l-11.1,7.3v-5.5l11.3-7.5L432,1600.6z"/>
	<path class="st7" d="M459.8,1646.5c-3,0-5.9-0.9-8.3-2.7c-2.5-2.1-4.3-4.8-5.4-7.9c-2.5-8.2-2.5-17,0-25.2c1-3.1,2.9-5.9,5.4-8
		c5.1-3.7,11.9-3.7,17,0c2.5,2.1,4.4,4.9,5.4,8c2.5,8.2,2.5,17,0,25.2c-1,3.1-2.9,5.9-5.4,7.9C466,1645.6,462.9,1646.6,459.8,1646.5
		z M459.8,1641.6c3.3,0,6.3-1.8,7.7-4.8c2.1-4.2,3-8.9,2.7-13.6c0.1-3.4-0.4-6.7-1.2-10c-0.6-2.4-1.9-4.6-3.6-6.3
		c-1.5-1.4-3.5-2.2-5.6-2.2c-3.3,0-6.3,1.8-7.6,4.8c-2.1,4.2-3,8.9-2.8,13.7c-0.1,3.4,0.3,6.7,1.2,10c0.6,2.4,1.8,4.5,3.6,6.3
		C455.7,1640.9,457.7,1641.6,459.8,1641.6z"/>
	<path class="st7" d="M514,1625.7l-28.5,14.5v-5.7l21.9-10.5v-0.2l-21.9-10.5v-5.7l28.5,14.5V1625.7z"/>
	<path class="st7" d="M539.1,1646.5c-2.4,0-4.8-0.5-7-1.6c-2-1-3.7-2.4-5-4.2c-1.2-1.8-1.9-3.9-2-6.1h5.3c0.2,2,1.2,3.8,2.8,5.1
		c1.7,1.3,3.8,2.1,6,2c3.5,0,6.6-1.9,8.3-4.9c0.8-1.6,1.3-3.4,1.2-5.2c0-1.9-0.4-3.7-1.3-5.3c-0.8-1.5-2.1-2.8-3.6-3.7
		c-1.6-0.9-3.3-1.4-5.1-1.4c-1.4,0-2.8,0.2-4.2,0.6c-1.3,0.4-2.5,0.9-3.6,1.7l-5.1-0.6l2.7-22.3h23.5v4.6h-18.9l-1.6,13.4h0.3
		c1-0.8,2.2-1.4,3.5-1.8c1.3-0.5,2.7-0.7,4.1-0.8c5.2,0,10,2.8,12.5,7.4c1.3,2.4,1.9,5.1,1.9,7.8c0,2.7-0.6,5.4-2,7.8
		c-1.3,2.2-3.1,4.1-5.3,5.3C544.4,1645.7,541.8,1646.4,539.1,1646.5z"/>
	<path class="st7" d="M577.6,1646.5c-3,0-5.9-0.9-8.3-2.7c-2.5-2.1-4.3-4.8-5.4-7.9c-2.5-8.2-2.5-17,0-25.2c1-3.1,2.9-5.9,5.4-8
		c5.1-3.7,11.9-3.7,17,0c2.5,2.1,4.4,4.9,5.4,8c2.5,8.2,2.5,17,0,25.2c-1,3.1-2.9,5.9-5.4,7.9
		C583.8,1645.6,580.7,1646.6,577.6,1646.5z M577.6,1641.6c3.3,0,6.3-1.8,7.7-4.8c2.1-4.2,3-8.9,2.7-13.6c0.1-3.4-0.3-6.7-1.2-10
		c-0.6-2.4-1.9-4.6-3.6-6.3c-1.5-1.4-3.5-2.2-5.6-2.2c-3.3,0-6.3,1.8-7.6,4.8c-2.1,4.2-3,8.9-2.8,13.7c-0.1,3.4,0.4,6.7,1.2,10
		c0.6,2.4,1.8,4.5,3.6,6.3C573.5,1640.9,575.5,1641.6,577.6,1641.6z"/>
	<path class="st7" d="M601.2,1656.9v-40.5h4.5v17.4c0,1.4,0.3,2.9,1,4.2c0.7,1.2,1.6,2.2,2.8,2.8c1.3,0.7,2.7,1,4.1,1
		c1.4,0,2.9-0.3,4.2-1c1.2-0.7,2.2-1.6,2.8-2.8c0.7-1.3,1-2.7,1-4.2v-17.4h4.5v29.4h-4.5v-4.4h-0.2c-0.7,1.5-1.9,2.7-3.3,3.6
		c-2.8,1.6-6.3,1.6-9.2,0c-1.4-0.8-2.6-2.1-3.3-3.6l0,0v15.4H601.2z"/>
	<path class="st7" d="M646.7,1657.5c-1.9,0.1-3.8-0.2-5.7-0.8c-1.4-0.5-2.7-1.2-3.9-2.2c-1-0.8-1.8-1.8-2.5-2.9l3.6-2.5
		c0.4,0.5,0.9,1.2,1.5,1.9c0.7,0.8,1.6,1.4,2.6,1.8c1.3,0.5,2.7,0.8,4.2,0.7c2.1,0.1,4.2-0.5,5.9-1.7c1.6-1.3,2.5-3.3,2.3-5.4v-6
		h-0.4c-0.4,0.7-0.9,1.3-1.4,1.9c-0.7,0.9-1.6,1.6-2.6,2.1c-1.4,0.7-3,1-4.6,0.9c-2.2,0-4.5-0.6-6.4-1.7c-1.9-1.2-3.5-2.9-4.4-4.9
		c-1.2-2.4-1.7-5.1-1.7-7.8c-0.1-2.7,0.5-5.4,1.6-7.9c0.9-2.1,2.5-3.9,4.4-5.2c2-1.3,4.2-1.9,6.6-1.9c1.6-0.1,3.1,0.3,4.6,1
		c1,0.5,1.9,1.3,2.6,2.2c0.6,0.8,1.1,1.4,1.4,2h0.5v-4.7h4.2v30.3c0.1,2.2-0.5,4.4-1.7,6.2c-1.1,1.6-2.8,2.8-4.6,3.5
		C650.7,1657.2,648.7,1657.5,646.7,1657.5z M646.7,1641.3c1.6,0,3.2-0.4,4.6-1.2c1.3-0.9,2.3-2.1,2.9-3.6c0.7-1.8,1-3.7,1-5.6
		c0.1-1.9-0.3-3.8-1-5.6c-0.6-1.5-1.5-2.8-2.8-3.8c-1.3-1-3-1.5-4.7-1.4c-1.7-0.1-3.4,0.5-4.8,1.4c-1.3,1.1-2.3,2.5-2.9,4.2
		c-0.7,1.7-1,3.6-1,5.4c0,1.8,0.3,3.7,1,5.4c0.6,1.5,1.6,2.8,2.9,3.7c1.4,0.8,3,1.2,4.6,1.1L646.7,1641.3z"/>
	<path class="st7" d="M681.5,1604.7l-12.7,47h-4.1l12.5-47H681.5z"/>
	<path class="st7" d="M686.9,1645.8v-29.4h4.4v4.6h0.4c0.6-1.5,1.6-2.8,2.9-3.7c1.5-0.9,3.2-1.4,4.9-1.3c1.7-0.1,3.4,0.4,4.9,1.3
		c1.3,0.9,2.4,2.2,3,3.7h0.2c0.8-1.5,1.9-2.8,3.4-3.6c1.7-1,3.6-1.4,5.5-1.4c2.4-0.1,4.7,0.8,6.4,2.5c1.9,2.1,2.8,4.9,2.5,7.6v19.7
		h-4.5V1626c0.2-1.7-0.5-3.5-1.8-4.7c-1.2-0.9-2.6-1.4-4.2-1.4c-1.8-0.1-3.6,0.6-4.8,1.9c-1.1,1.3-1.8,3-1.7,4.7v19.2h-4.5v-20.2
		c0.1-1.6-0.5-3.1-1.6-4.2c-1.1-1-2.6-1.6-4.1-1.5c-1.2,0-2.3,0.4-3.3,1c-1,0.6-1.9,1.5-2.5,2.6c-0.6,1.2-1,2.5-1,3.9v18.4
		L686.9,1645.8z"/>
	<path class="st7" d="M739.8,1627.2c-1.4,0.1-2.8-0.2-4.2-0.8c-1.1-0.4-2-1.2-2.7-2.1c-0.7-0.9-1.1-2-1.1-3.2h2.8
		c0.1,0.7,0.3,1.4,0.8,1.9c0.5,0.6,1.1,1,1.7,1.2c1.6,0.6,3.4,0.6,5,0c0.7-0.3,1.3-0.8,1.8-1.5c1.3-1.1,1.4-2.9,0.4-4.2
		c-0.4-0.7-1.1-1.2-1.8-1.5c-0.9-0.4-1.9-0.6-3-0.5h-1.8v-2.4h1.8c0.8,0,1.7-0.2,2.4-0.5c0.7-0.3,1.2-0.8,1.6-1.4
		c0.4-0.6,0.6-1.3,0.6-2.1c0-0.7-0.2-1.4-0.5-2c-0.3-0.6-0.8-1-1.5-1.3c-0.7-0.3-1.4-0.5-2.2-0.5c-0.8,0-1.5,0.2-2.2,0.5
		c-0.6,0.3-1.2,0.7-1.7,1.2c-0.4,0.6-0.7,1.3-0.7,2h-2.8c0-1.1,0.4-2.2,1.1-3.2c0.7-0.9,1.6-1.6,2.7-2.1c1.1-0.5,2.4-0.8,3.6-0.8
		c1.3,0,2.5,0.3,3.7,0.9c1,0.5,1.8,1.3,2.3,2.2c0.5,0.9,0.8,1.9,0.8,3c0,1.2-0.3,2.3-1,3.3c-0.7,0.9-1.6,1.6-2.7,1.9l0,0
		c1.3,0.2,2.5,0.8,3.4,1.8c0.8,1,1.2,2.3,1.2,3.7c0,1.2-0.3,2.4-1,3.4c-0.7,1-1.6,1.8-2.7,2.3C742.5,1627,741.2,1627.2,739.8,1627.2
		z"/>
	<g class="st8">
		
			<ellipse transform="matrix(1 -9.432686e-03 9.432686e-03 1 -15.9258 2.583)" class="st7" cx="265.9" cy="1689.6" rx="14.3" ry="14.3"/>
	</g>
	
		<ellipse transform="matrix(8.473616e-03 -1 1 8.473616e-03 -1425.9481 1941.1572)" class="st7" cx="265.9" cy="1689.6" rx="5.1" ry="5.1"/>
	<path d="M322,1708.2v-37.8h22.8v4.1h-18.2v12.8h17.1v4.1h-17.1v12.8h18.5v4.1L322,1708.2z"/>
	<path d="M375.7,1679.9l-10.5,28.4h-4.4l-10.5-28.4h4.7l7.8,22.6h0.3l7.8-22.6H375.7z"/>
	<path d="M392.3,1708.8c-2.5,0.1-4.9-0.6-7.1-1.8c-2-1.2-3.6-3-4.6-5.1c-1.1-2.4-1.6-5-1.6-7.6c-0.1-2.7,0.5-5.3,1.6-7.7
		c1-2.1,2.5-3.9,4.5-5.2c2-1.3,4.3-1.9,6.7-1.9c1.5,0,3,0.3,4.4,0.7c1.5,0.5,2.8,1.3,3.9,2.4c1.3,1.2,2.2,2.7,2.8,4.4
		c0.7,2.1,1.1,4.4,1,6.7v1.8h-21.8v-3.8h17.4c0-1.5-0.3-2.9-1-4.3c-0.6-1.2-1.5-2.3-2.7-3c-1.2-0.7-2.7-1.1-4.1-1.1
		c-1.6,0-3.2,0.4-4.5,1.3c-1.2,0.8-2.3,2-2.9,3.3c-0.7,1.4-1,2.9-1,4.4v2.5c-0.1,1.9,0.3,3.7,1.1,5.4c0.7,1.4,1.8,2.6,3.1,3.4
		c1.4,0.8,3,1.2,4.6,1.2c1.1,0,2.1-0.2,3.1-0.5c0.9-0.3,1.7-0.8,2.4-1.5c0.7-0.7,1.2-1.5,1.6-2.5l4.2,1.2c-0.4,1.4-1.2,2.7-2.2,3.8
		c-1.1,1.1-2.4,2-3.9,2.5C395.9,1708.5,394.1,1708.8,392.3,1708.8z"/>
	<path d="M415.1,1691.2v17.1h-4.4v-28.4h4.2v4.4h0.4c0.6-1.4,1.7-2.6,3-3.5c1.6-0.9,3.4-1.4,5.2-1.3c1.7,0,3.5,0.4,5,1.2
		c1.5,0.8,2.6,2,3.4,3.6c0.9,1.9,1.3,3.9,1.2,6v18h-4.4v-17.7c0.1-1.9-0.5-3.8-1.7-5.2c-1.2-1.3-3-2-4.8-1.9c-1.3,0-2.6,0.3-3.7,0.9
		c-1.1,0.6-2,1.5-2.6,2.6C415.3,1688.3,415,1689.7,415.1,1691.2z"/>
	<path d="M453.5,1679.9v3.7h-14.7v-3.7H453.5z M443,1673.1h4.4v27c-0.1,1,0.1,1.9,0.5,2.8c0.3,0.6,0.8,1,1.4,1.2
		c0.6,0.2,1.2,0.3,1.8,0.3c0.4,0,0.8,0,1.2-0.1l0.7-0.1l0.9,3.9c-0.4,0.1-0.8,0.3-1.2,0.3c-0.7,0.1-1.3,0.2-2,0.2
		c-1.2,0-2.5-0.3-3.6-0.8c-1.2-0.5-2.2-1.4-2.9-2.4c-0.8-1.2-1.2-2.6-1.1-4.1L443,1673.1z"/>
	<path d="M471.3,1708.8c-4.8,0.1-9.2-2.6-11.2-6.9c-1.1-2.4-1.7-5-1.6-7.7c-0.1-2.7,0.5-5.3,1.6-7.7c2.9-6.2,10.3-8.9,16.6-5.9
		c2.6,1.2,4.7,3.3,5.9,5.9c1.1,2.4,1.7,5.1,1.6,7.7c0.1,2.7-0.5,5.3-1.6,7.7C480.5,1706.2,476.1,1709,471.3,1708.8z M471.3,1704.9
		c1.7,0.1,3.4-0.5,4.8-1.5c1.3-1,2.2-2.4,2.8-3.9c0.6-1.7,0.9-3.5,0.9-5.3c0-1.8-0.3-3.6-0.9-5.3c-0.5-1.6-1.5-2.9-2.8-4
		c-2.9-2-6.7-2-9.6,0c-1.3,1-2.3,2.4-2.8,4c-0.6,1.7-0.9,3.5-0.9,5.3c0,1.8,0.3,3.6,0.9,5.3c0.5,1.5,1.5,2.9,2.8,3.9
		C467.9,1704.5,469.5,1705,471.3,1704.9L471.3,1704.9z"/>
</g>
</svg>
