<svg xmlns="http://www.w3.org/2000/svg" viewBox="0 0 1174.99 900"><defs><style>.cls-1{isolation:isolate;}.cls-2{fill:#b8b8b8;}.cls-3{fill:#efefef;}.cls-4{fill:#ff3a00;}.cls-5{opacity:0.3;}</style></defs><g id="Livello_1" data-name="Livello 1"><g class="cls-1"><path d="M206.4,773.62h6.79v1.19h-5.42v3.69h4.29v1.19h-4.29v4.17H206.4Z"/><path d="M215,773.62h6.9v1.19h-5.54v3.24h4.41v1.19h-4.41v3.43H222v1.19h-7Z"/><path d="M224,773.62h4.23c2.22,0,3.27,1,3.27,2.68a2.16,2.16,0,0,1-1.61,2.14v.06a2.31,2.31,0,0,1,2,2.32c0,1.74-1.18,3-3.39,3H224Zm1.37,1.19V778h2.86a1.67,1.67,0,0,0,1.9-1.68c0-.89-.53-1.47-1.9-1.47Zm0,4.34v3.52h3.16a1.77,1.77,0,0,0,2-1.83c0-1-.66-1.69-2-1.69Z"/></g><g class="cls-1"><path d="M131.84,782.37h-.05a3.61,3.61,0,0,1-3.34,1.66,5.3,5.3,0,0,1,.05-10.59,4.29,4.29,0,0,1,4.47,3.22h-1.43a2.91,2.91,0,0,0-3-2c-2.21,0-3.63,1.73-3.63,4s1.48,4,3.58,4c1.71,0,3.27-1,3.27-2.85v-.3H128.5v-1.19H133v5.42h-.9Z"/><path d="M135.41,773.62h6.9v1.19h-5.53v3.24h4.4v1.19h-4.4v3.43h5.65v1.19h-7Z"/><path d="M144.52,773.62h1.31l5.65,7.91h.06l-.06-7.91h1.37v10.24h-1.31L145.89,776h-.06l.06,7.86h-1.37Z"/></g><g class="cls-1"><path d="M284.21,773.62h1.67l3.76,8.39h0l3.71-8.39H295v10.24h-1.36l.12-8.1h-.06l-3.58,8.1h-1.07l-3.57-7.92h-.06l.12,7.92h-1.37Z"/><path d="M300.34,773.62H302l3.81,10.24h-1.43l-1-2.68h-4.49l-1,2.68h-1.36Zm.75,1.43L299.3,780h3.63l-1.78-4.94Z"/><path d="M307.25,773.62h3.87c2.33,0,3.57,1.12,3.57,3a3,3,0,0,1-2.25,3.05l2.6,4.15h-1.48l-2.55-4h-2.39v4h-1.37Zm1.37,1.19v3.87h2.56a1.93,1.93,0,0,0,2.14-2c0-1.13-.77-1.85-2.14-1.85Z"/></g><g class="cls-1"><path d="M372,773.62h1.61l3.8,10.24H376l-1-2.68h-4.49l-1,2.68H368.2Zm.74,1.43L371,780h3.63l-1.79-4.94Z"/><path d="M378.91,773.62h3.87c2.34,0,3.63,1.35,3.63,3.27a3.3,3.3,0,0,1-3.63,3.4h-2.5v3.57h-1.37Zm1.37,1.19v4.29h2.56a2.06,2.06,0,0,0,2.2-2.21,2,2,0,0,0-2.2-2.08Z"/><path d="M388.38,773.62h3.87c2.33,0,3.57,1.12,3.57,3a3,3,0,0,1-2.25,3.05l2.6,4.15h-1.48l-2.55-4h-2.39v4h-1.37Zm1.37,1.19v3.87h2.56a1.94,1.94,0,0,0,2.14-2c0-1.13-.78-1.85-2.14-1.85Z"/></g><g class="cls-1"><path d="M449.81,773.62h1.66l3.77,8.39h0l3.7-8.39h1.67v10.24h-1.37l.12-8.1h-.06l-3.57,8.1h-1.07l-3.57-7.92h-.06l.12,7.92h-1.37Z"/><path d="M465.94,773.62h1.6l3.81,10.24h-1.43l-1-2.68h-4.5l-1,2.68h-1.37Zm.74,1.43L464.9,780h3.63l-1.79-4.94Z"/><path d="M480.28,782.37h0a3.62,3.62,0,0,1-3.35,1.66,5.3,5.3,0,0,1,.06-10.59,4.28,4.28,0,0,1,4.46,3.22H480a2.91,2.91,0,0,0-3-2c-2.22,0-3.63,1.73-3.63,4s1.47,4,3.57,4c1.71,0,3.27-1,3.27-2.85v-.3H477v-1.19h4.46v5.42h-.89Z"/></g><g class="cls-1"><path d="M544.86,782.37h0a3.62,3.62,0,0,1-3.35,1.66,5.3,5.3,0,0,1,.06-10.59,4.28,4.28,0,0,1,4.46,3.22h-1.42a2.92,2.92,0,0,0-3-2c-2.22,0-3.63,1.73-3.63,4s1.47,4,3.57,4c1.71,0,3.27-1,3.27-2.85v-.3h-3.21v-1.19H546v5.42h-.89Z"/><path d="M548.44,773.62h1.36v10.24h-1.36Z"/><path d="M552.19,773.62h1.36v6.19c0,1.87.88,3,2.74,3s2.74-1.1,2.74-3v-6.19h1.37v6.19c0,3-1.68,4.22-4.11,4.22s-4.1-1.19-4.1-4.22Z"/></g><g class="cls-1"><path d="M618.26,773.62h1.37v9h5v1.19h-6.36Z"/><path d="M625.88,773.62h1.36v6.19c0,1.87.88,3,2.74,3s2.74-1.1,2.74-3v-6.19h1.37v6.19c0,3-1.68,4.22-4.11,4.22s-4.1-1.19-4.1-4.22Z"/><path d="M644.33,782.37h-.05a3.62,3.62,0,0,1-3.35,1.66,5.3,5.3,0,0,1,.06-10.59,4.29,4.29,0,0,1,4.47,3.22H644a2.92,2.92,0,0,0-3-2c-2.21,0-3.63,1.73-3.63,4s1.48,4,3.57,4c1.72,0,3.28-1,3.28-2.85v-.3H641v-1.19h4.47v5.42h-.9Z"/></g><g class="cls-1"><path d="M704.29,773.62h1.61l3.81,10.24h-1.43l-1-2.68h-4.49l-1,2.68h-1.37Zm.75,1.43L703.25,780h3.63l-1.78-4.94Z"/><path d="M718.64,782.37h0a3.62,3.62,0,0,1-3.35,1.66,5.3,5.3,0,0,1,.06-10.59,4.3,4.3,0,0,1,4.47,3.22h-1.43a2.92,2.92,0,0,0-3-2c-2.21,0-3.63,1.73-3.63,4s1.48,4,3.57,4c1.71,0,3.28-1,3.28-2.85v-.3H715.3v-1.19h4.47v5.42h-.9Z"/><path d="M726.55,773.44a5.3,5.3,0,0,1,0,10.59c-3,0-5-2.24-5-5.29S723.56,773.44,726.55,773.44Zm0,9.34c2.16,0,3.57-1.72,3.57-4s-1.41-4-3.57-4-3.57,1.73-3.57,4S724.4,782.78,726.55,782.78Z"/></g><g class="cls-1"><path d="M787.83,780.94c0,1.12,1,2,2.56,2s2.62-.7,2.62-1.9c0-2.71-6.4-.65-6.4-4.58,0-1.74,1.51-3,3.78-3s3.75,1.09,3.75,2.92h-1.37c0-1.13-1-1.79-2.38-1.79s-2.38.58-2.38,1.73c0,2.68,6.43.56,6.43,4.64,0,1.84-1.49,3.09-4.05,3.09s-3.93-1.25-3.93-3.09Z"/><path d="M796.58,773.62h6.91v1.19H798v3.24h4.41v1.19H798v3.43h5.66v1.19h-7Z"/><path d="M804.5,773.62H813v1.16h-3.57v9.08h-1.37v-9.08H804.5Z"/></g><g class="cls-1"><path d="M874,773.44A5.3,5.3,0,0,1,874,784c-3,0-5-2.24-5-5.29S871,773.44,874,773.44Zm0,9.34c2.16,0,3.57-1.72,3.57-4s-1.41-4-3.57-4-3.57,1.73-3.57,4S871.87,782.78,874,782.78Z"/><path d="M879.26,773.62h8.51v1.16H884.2v9.08h-1.37v-9.08h-3.57Z"/><path d="M888,773.62h8.51v1.16H893v9.08h-1.37v-9.08H888Z"/></g><g class="cls-1"><path d="M951.34,773.62h1.31l5.66,7.91h.06l-.06-7.91h1.36v10.24h-1.3L952.71,776h-.06l.06,7.86h-1.37Z"/><path d="M966.64,773.44a5.3,5.3,0,0,1,0,10.59c-3,0-5-2.24-5-5.29S963.65,773.44,966.64,773.44Zm0,9.34c2.16,0,3.57-1.72,3.57-4s-1.41-4-3.57-4-3.57,1.73-3.57,4S964.48,782.78,966.64,782.78Z"/><path d="M972.12,773.62h1.43l3.06,8.81h.06l3.07-8.81h1.36l-3.75,10.24h-1.51Z"/></g><g class="cls-1"><path d="M1036.17,773.62h3.15c3.53,0,5.36,2.13,5.36,5.12s-1.83,5.12-5.36,5.12h-3.15Zm1.37,1.19v7.86h1.78a3.93,3.93,0,0,0,0-7.86Z"/><path d="M1046.65,773.62H1048v10.24h-1.37Z"/><path d="M1054.92,773.44a4.13,4.13,0,0,1,4.34,3.39h-1.41a2.75,2.75,0,0,0-2.93-2.14c-2.1,0-3.51,1.67-3.51,4s1.41,4,3.45,4a2.73,2.73,0,0,0,3-2.14h1.41a4.19,4.19,0,0,1-4.4,3.39c-2.87,0-4.88-2.18-4.88-5.29S1052,773.44,1054.92,773.44Z"/></g><g class="cls-1"><path d="M67.9,760.8c0-3,1-5.3,3.57-5.3S75,757.82,75,760.8s-1,5.3-3.57,5.3S67.9,763.77,67.9,760.8Zm5.77,0c0-2.62-.71-4.11-2.2-4.11s-2.2,1.49-2.2,4.11.71,4.1,2.2,4.1S73.67,763.42,73.67,760.8Z"/></g><g class="cls-1"><path d="M59.69,699.66,63,697.4h1v9.1h2.44v1.13H60V706.5h2.62V699l-2.38,1.65Z"/><path d="M67.9,702.52c0-3,1-5.3,3.57-5.3s3.57,2.32,3.57,5.3-1,5.29-3.57,5.29S67.9,705.49,67.9,702.52Zm5.77,0c0-2.62-.71-4.11-2.2-4.11s-2.2,1.49-2.2,4.11.71,4.1,2.2,4.1S73.67,705.13,73.67,702.52Z"/></g><g class="cls-1"><path d="M62.13,645l1.13-.78c1.05-.72,1.72-1.13,1.72-2.32a1.75,1.75,0,0,0-1.9-1.78c-1.31,0-2,.71-2.08,2.08H59.81a3,3,0,0,1,3.27-3.21c1.87,0,3.21,1.08,3.21,2.91s-1.14,2.43-2.2,3.16l-1.13.77c-1.55,1.06-1.79,1.8-1.85,2.44h5.3v1.13H59.63A4.84,4.84,0,0,1,62.13,645Z"/><path d="M67.9,644.23c0-3,1-5.29,3.57-5.29S75,641.26,75,644.23s-1,5.3-3.57,5.3S67.9,647.21,67.9,644.23Zm5.77,0c0-2.61-.71-4.1-2.2-4.1s-2.2,1.49-2.2,4.1.71,4.11,2.2,4.11S73.67,646.85,73.67,644.23Z"/></g><g class="cls-1"><path d="M60.76,588a2,2,0,0,0,2.2,2.15c1.28,0,2.2-.69,2.2-1.89a2,2,0,0,0-2.2-1.89h-.77v-1.13H63a1.77,1.77,0,0,0,1.85-1.77A1.67,1.67,0,0,0,63,581.79a1.71,1.71,0,0,0-1.85,1.84H59.92a2.84,2.84,0,0,1,3-3,2.8,2.8,0,0,1,3.09,2.77,2.59,2.59,0,0,1-1.48,2.29v.06a2.63,2.63,0,0,1,1.9,2.56c0,1.83-1.56,2.92-3.51,2.92s-3.45-1.07-3.45-3.28Z"/><path d="M67.9,586c0-3,1-5.3,3.57-5.3S75,583,75,586s-1,5.3-3.57,5.3S67.9,588.93,67.9,586Zm5.77,0c0-2.62-.71-4.1-2.2-4.1s-2.2,1.48-2.2,4.1.71,4.11,2.2,4.11S73.67,588.57,73.67,586Z"/></g><g class="cls-1"><path d="M59.27,529.28l4.94-6.73h1.07v6.55h1.49v1.13H65.28v2.56H64v-2.56h-4.7Zm4.7-.18v-4.51l-3.36,4.51Z"/><path d="M67.9,527.67c0-3,1-5.3,3.57-5.3s3.57,2.32,3.57,5.3-1,5.3-3.57,5.3S67.9,530.65,67.9,527.67Zm5.77,0c0-2.62-.71-4.11-2.2-4.11s-2.2,1.49-2.2,4.11.71,4.11,2.2,4.11S73.67,530.29,73.67,527.67Z"/></g><g class="cls-1"><path d="M60.82,471.77a2,2,0,0,0,2.2,1.78,2.23,2.23,0,0,0,0-4.46,2.48,2.48,0,0,0-2,1L59.87,470l.29-5.77h5.78v1.19H61.35l-.18,3.21h.06a2.75,2.75,0,0,1,2-.71,3.16,3.16,0,0,1,3.33,3.27A3.32,3.32,0,0,1,63,474.69a3.17,3.17,0,0,1-3.51-2.92Z"/><path d="M67.9,469.39c0-3,1-5.3,3.57-5.3s3.57,2.32,3.57,5.3-1,5.3-3.57,5.3S67.9,472.36,67.9,469.39Zm5.77,0c0-2.62-.71-4.11-2.2-4.11s-2.2,1.49-2.2,4.11.71,4.1,2.2,4.1S73.67,472,73.67,469.39Z"/></g><g class="cls-1"><path d="M63.38,405.81a2.83,2.83,0,0,1,3.09,2.74H65.16a1.65,1.65,0,0,0-1.78-1.61c-1.21,0-2.43,1.06-2.5,4.09a3,3,0,0,1,2.62-1.35A3.09,3.09,0,0,1,66.71,413a3.3,3.3,0,0,1-3.45,3.39c-2,0-3.75-1.29-3.75-5C59.51,407.22,61.43,405.81,63.38,405.81ZM61.06,413a2.13,2.13,0,0,0,2.14,2.24,2.23,2.23,0,0,0,.12-4.46A2.19,2.19,0,0,0,61.06,413Z"/><path d="M67.9,411.11c0-3,1-5.3,3.57-5.3s3.57,2.32,3.57,5.3-1,5.29-3.57,5.29S67.9,414.08,67.9,411.11Zm5.77,0c0-2.62-.71-4.11-2.2-4.11s-2.2,1.49-2.2,4.11.71,4.1,2.2,4.1S73.67,413.73,73.67,411.11Z"/></g><g class="cls-1"><path d="M65.16,348.9H59.57v-1.19h7v1l-4.34,9.28H60.88Z"/><path d="M67.9,352.82c0-3,1-5.29,3.57-5.29S75,349.85,75,352.82s-1,5.3-3.57,5.3S67.9,355.8,67.9,352.82Zm5.77,0c0-2.61-.71-4.1-2.2-4.1s-2.2,1.49-2.2,4.1.71,4.11,2.2,4.11S73.67,355.44,73.67,352.82Z"/></g><g class="cls-1"><path d="M61.35,294.36v-.06A2.48,2.48,0,0,1,59.87,292c0-1.6,1.22-2.76,3.15-2.76s3.15,1.16,3.15,2.76a2.48,2.48,0,0,1-1.48,2.29v.06a2.63,2.63,0,0,1,1.9,2.56c0,1.83-1.44,2.92-3.57,2.92s-3.57-1.09-3.57-2.92A2.63,2.63,0,0,1,61.35,294.36ZM63,298.71c1.32,0,2.26-.69,2.26-1.89a2.3,2.3,0,0,0-4.52,0C60.76,298,61.7,298.71,63,298.71Zm1.9-6.68a1.92,1.92,0,0,0-3.81,0,1.91,1.91,0,0,0,3.81,0Z"/><path d="M67.9,294.54c0-3,1-5.29,3.57-5.29S75,291.57,75,294.54s-1,5.3-3.57,5.3S67.9,297.52,67.9,294.54Zm5.77,0c0-2.62-.71-4.1-2.2-4.1s-2.2,1.48-2.2,4.1.71,4.11,2.2,4.11S73.67,297.16,73.67,294.54Z"/></g><g class="cls-1"><path d="M62.78,241.56a2.94,2.94,0,0,1-3.21-2.74h1.31a1.8,1.8,0,0,0,1.9,1.61c1.38,0,2.32-1.06,2.38-4.08a3,3,0,0,1-2.62,1.34,3.09,3.09,0,0,1-3.21-3.33,3.31,3.31,0,0,1,3.45-3.4c2,0,3.75,1.3,3.75,5.06C66.53,240.14,64.91,241.56,62.78,241.56Zm2.2-7.22a2.17,2.17,0,1,0-4.34,0,2.1,2.1,0,0,0,2.08,2.2A2.19,2.19,0,0,0,65,234.34Z"/><path d="M67.9,236.26c0-3,1-5.3,3.57-5.3s3.57,2.32,3.57,5.3-1,5.3-3.57,5.3S67.9,239.24,67.9,236.26Zm5.77,0c0-2.62-.71-4.11-2.2-4.11s-2.2,1.49-2.2,4.11.71,4.11,2.2,4.11S73.67,238.88,73.67,236.26Z"/></g><g class="cls-1"><path d="M51.24,175.12l3.27-2.26h1V182H58v1.13H51.59V182h2.62v-7.49l-2.38,1.65Z"/><path d="M59.45,178c0-3,1-5.3,3.57-5.3s3.57,2.32,3.57,5.3-1,5.3-3.57,5.3S59.45,181,59.45,178Zm5.77,0c0-2.62-.71-4.11-2.2-4.11s-2.2,1.49-2.2,4.11.71,4.1,2.2,4.1S65.22,180.6,65.22,178Z"/><path d="M67.9,178c0-3,1-5.3,3.57-5.3S75,175,75,178s-1,5.3-3.57,5.3S67.9,181,67.9,178Zm5.77,0c0-2.62-.71-4.11-2.2-4.11s-2.2,1.49-2.2,4.11.71,4.1,2.2,4.1S73.67,180.6,73.67,178Z"/></g><g class="cls-1"><path d="M51.24,83.46l3.27-2.26h1v9.1H58v1.13H51.59V90.3h2.62V82.82l-2.38,1.65Z"/><path d="M62.13,87l1.13-.78c1.05-.73,1.72-1.13,1.72-2.32a1.75,1.75,0,0,0-1.9-1.78c-1.31,0-2,.71-2.08,2.08H59.81A3,3,0,0,1,63.08,81c1.87,0,3.21,1.08,3.21,2.91s-1.14,2.43-2.2,3.16L63,87.86c-1.55,1.06-1.78,1.8-1.84,2.44h5.29v1.13H59.63A4.84,4.84,0,0,1,62.13,87Z"/><path d="M67.9,86.31c0-3,1-5.29,3.57-5.29S75,83.34,75,86.31s-1,5.3-3.57,5.3S67.9,89.29,67.9,86.31Zm5.77,0c0-2.62-.71-4.1-2.2-4.1s-2.2,1.48-2.2,4.1.71,4.11,2.2,4.11S73.67,88.93,73.67,86.31Z"/></g><g class="cls-1"><path class="cls-2" d="M1107.47,83.46l3.27-2.26h1v9.1h2.44v1.13h-6.37V90.3h2.62V82.82l-2.38,1.65Z"/><path class="cls-2" d="M1118.36,87l1.13-.78c1.06-.73,1.73-1.13,1.73-2.32a1.76,1.76,0,0,0-1.91-1.78c-1.31,0-2,.71-2.08,2.08H1116a3,3,0,0,1,3.27-3.21c1.88,0,3.22,1.08,3.22,2.91s-1.15,2.43-2.21,3.16l-1.13.77c-1.54,1.06-1.78,1.8-1.84,2.44h5.29v1.13h-6.78A4.84,4.84,0,0,1,1118.36,87Z"/><path class="cls-2" d="M1124.13,86.31c0-3,1-5.29,3.57-5.29s3.57,2.32,3.57,5.29-1,5.3-3.57,5.3S1124.13,89.29,1124.13,86.31Zm5.78,0c0-2.62-.72-4.1-2.21-4.1s-2.2,1.48-2.2,4.1.72,4.11,2.2,4.11S1129.91,88.93,1129.91,86.31Z"/></g><g class="cls-1"><path class="cls-2" d="M1107.23,760.8c0-3,1-5.3,3.57-5.3s3.57,2.32,3.57,5.3-1,5.3-3.57,5.3S1107.23,763.77,1107.23,760.8Zm5.77,0c0-2.62-.71-4.11-2.2-4.11s-2.2,1.49-2.2,4.11.71,4.1,2.2,4.1S1113,763.42,1113,760.8Z"/></g><g class="cls-1"><path class="cls-2" d="M1107.47,699.66l3.27-2.26h1v9.1h2.44v1.13h-6.37V706.5h2.62V699l-2.38,1.65Z"/><path class="cls-2" d="M1115.68,702.52c0-3,1-5.3,3.57-5.3s3.57,2.32,3.57,5.3-1,5.29-3.57,5.29S1115.68,705.49,1115.68,702.52Zm5.78,0c0-2.62-.72-4.11-2.21-4.11s-2.2,1.49-2.2,4.11.72,4.1,2.2,4.1S1121.46,705.13,1121.46,702.52Z"/></g><g class="cls-1"><path class="cls-2" d="M1109.91,645l1.13-.78c1.06-.72,1.72-1.13,1.72-2.32a1.75,1.75,0,0,0-1.9-1.78c-1.31,0-2,.71-2.08,2.08h-1.19a3,3,0,0,1,3.27-3.21c1.88,0,3.21,1.08,3.21,2.91s-1.14,2.43-2.2,3.16l-1.13.77c-1.55,1.06-1.78,1.8-1.84,2.44h5.29v1.13h-6.78A4.84,4.84,0,0,1,1109.91,645Z"/><path class="cls-2" d="M1115.68,644.23c0-3,1-5.29,3.57-5.29s3.57,2.32,3.57,5.29-1,5.3-3.57,5.3S1115.68,647.21,1115.68,644.23Zm5.78,0c0-2.61-.72-4.1-2.21-4.1s-2.2,1.49-2.2,4.1.72,4.11,2.2,4.11S1121.46,646.85,1121.46,644.23Z"/></g><g class="cls-1"><path class="cls-2" d="M1108.54,588a2,2,0,0,0,2.2,2.15c1.28,0,2.2-.69,2.2-1.89a2,2,0,0,0-2.2-1.89H1110v-1.13h.77a1.77,1.77,0,0,0,1.85-1.77,1.67,1.67,0,0,0-1.85-1.65,1.7,1.7,0,0,0-1.84,1.84h-1.19a3.07,3.07,0,0,1,6.13-.21,2.6,2.6,0,0,1-1.49,2.29v.06a2.63,2.63,0,0,1,1.9,2.56c0,1.83-1.56,2.92-3.51,2.92s-3.45-1.07-3.45-3.28Z"/><path class="cls-2" d="M1115.68,586c0-3,1-5.3,3.57-5.3s3.57,2.33,3.57,5.3-1,5.3-3.57,5.3S1115.68,588.93,1115.68,586Zm5.78,0c0-2.62-.72-4.1-2.21-4.1s-2.2,1.48-2.2,4.1.72,4.11,2.2,4.11S1121.46,588.57,1121.46,586Z"/></g><g class="cls-1"><path class="cls-2" d="M1107.05,529.28l4.94-6.73h1.07v6.55h1.49v1.13h-1.49v2.56h-1.31v-2.56h-4.7Zm4.7-.18v-4.51l-3.36,4.51Z"/><path class="cls-2" d="M1115.68,527.67c0-3,1-5.3,3.57-5.3s3.57,2.32,3.57,5.3-1,5.3-3.57,5.3S1115.68,530.65,1115.68,527.67Zm5.78,0c0-2.62-.72-4.11-2.21-4.11s-2.2,1.49-2.2,4.11.72,4.11,2.2,4.11S1121.46,530.29,1121.46,527.67Z"/></g><g class="cls-1"><path class="cls-2" d="M1108.6,471.77a2,2,0,0,0,2.2,1.78,2.23,2.23,0,0,0,0-4.46,2.48,2.48,0,0,0-2,1l-1.19-.06.29-5.77h5.78v1.19h-4.58l-.18,3.21h.06a2.71,2.71,0,0,1,2-.71,3.16,3.16,0,0,1,3.33,3.27,3.32,3.32,0,0,1-3.51,3.46,3.17,3.17,0,0,1-3.51-2.92Z"/><path class="cls-2" d="M1115.68,469.39c0-3,1-5.3,3.57-5.3s3.57,2.32,3.57,5.3-1,5.3-3.57,5.3S1115.68,472.36,1115.68,469.39Zm5.78,0c0-2.62-.72-4.11-2.21-4.11s-2.2,1.49-2.2,4.11.72,4.1,2.2,4.1S1121.46,472,1121.46,469.39Z"/></g><g class="cls-1"><path class="cls-2" d="M1111.16,405.81a2.83,2.83,0,0,1,3.09,2.74h-1.31a1.65,1.65,0,0,0-1.78-1.61c-1.21,0-2.43,1.06-2.5,4.09a3,3,0,0,1,2.62-1.35,3.09,3.09,0,0,1,3.21,3.33,3.3,3.3,0,0,1-3.45,3.39c-2,0-3.75-1.29-3.75-5C1107.29,407.22,1109.21,405.81,1111.16,405.81Zm-2.32,7.22a2.13,2.13,0,0,0,2.14,2.24,2.23,2.23,0,0,0,.12-4.46A2.19,2.19,0,0,0,1108.84,413Z"/><path class="cls-2" d="M1115.68,411.11c0-3,1-5.3,3.57-5.3s3.57,2.32,3.57,5.3-1,5.29-3.57,5.29S1115.68,414.08,1115.68,411.11Zm5.78,0c0-2.62-.72-4.11-2.21-4.11s-2.2,1.49-2.2,4.11.72,4.1,2.2,4.1S1121.46,413.73,1121.46,411.11Z"/></g><g class="cls-1"><path class="cls-2" d="M1112.94,348.9h-5.59v-1.19h7v1l-4.34,9.28h-1.37Z"/><path class="cls-2" d="M1115.68,352.82c0-3,1-5.29,3.57-5.29s3.57,2.32,3.57,5.29-1,5.3-3.57,5.3S1115.68,355.8,1115.68,352.82Zm5.78,0c0-2.61-.72-4.1-2.21-4.1s-2.2,1.49-2.2,4.1.72,4.11,2.2,4.11S1121.46,355.44,1121.46,352.82Z"/></g><g class="cls-1"><path class="cls-2" d="M1109.14,294.36v-.06a2.47,2.47,0,0,1-1.49-2.29c0-1.6,1.22-2.76,3.15-2.76s3.16,1.16,3.16,2.76a2.49,2.49,0,0,1-1.49,2.29v.06a2.63,2.63,0,0,1,1.9,2.56c0,1.83-1.44,2.92-3.57,2.92s-3.57-1.09-3.57-2.92A2.63,2.63,0,0,1,1109.14,294.36Zm1.66,4.35c1.33,0,2.26-.69,2.26-1.89a2.3,2.3,0,0,0-4.52,0C1108.54,298,1109.48,298.71,1110.8,298.71Zm1.91-6.68a1.92,1.92,0,0,0-3.81,0,1.91,1.91,0,0,0,3.81,0Z"/><path class="cls-2" d="M1115.68,294.54c0-3,1-5.29,3.57-5.29s3.57,2.32,3.57,5.29-1,5.3-3.57,5.3S1115.68,297.52,1115.68,294.54Zm5.78,0c0-2.62-.72-4.1-2.21-4.1s-2.2,1.48-2.2,4.1.72,4.11,2.2,4.11S1121.46,297.16,1121.46,294.54Z"/></g><g class="cls-1"><path class="cls-2" d="M1110.56,241.56a2.94,2.94,0,0,1-3.21-2.74h1.31a1.8,1.8,0,0,0,1.9,1.61c1.39,0,2.32-1.06,2.38-4.08a3,3,0,0,1-2.62,1.34,3.09,3.09,0,0,1-3.21-3.33,3.31,3.31,0,0,1,3.45-3.4c2,0,3.75,1.3,3.75,5.06C1114.31,240.14,1112.69,241.56,1110.56,241.56Zm2.2-7.22a2.17,2.17,0,1,0-4.34,0,2.1,2.1,0,0,0,2.08,2.2A2.19,2.19,0,0,0,1112.76,234.34Z"/><path class="cls-2" d="M1115.68,236.26c0-3,1-5.3,3.57-5.3s3.57,2.32,3.57,5.3-1,5.3-3.57,5.3S1115.68,239.24,1115.68,236.26Zm5.78,0c0-2.62-.72-4.11-2.21-4.11s-2.2,1.49-2.2,4.11.72,4.11,2.2,4.11S1121.46,238.88,1121.46,236.26Z"/></g><g class="cls-1"><path class="cls-2" d="M1107.47,175.12l3.27-2.26h1V182h2.44v1.13h-6.37V182h2.62v-7.49l-2.38,1.65Z"/><path class="cls-2" d="M1115.68,178c0-3,1-5.3,3.57-5.3s3.57,2.32,3.57,5.3-1,5.3-3.57,5.3S1115.68,181,1115.68,178Zm5.78,0c0-2.62-.72-4.11-2.21-4.11s-2.2,1.49-2.2,4.11.72,4.1,2.2,4.1S1121.46,180.6,1121.46,178Z"/><path class="cls-2" d="M1124.14,178c0-3,1-5.3,3.57-5.3s3.57,2.32,3.57,5.3-1,5.3-3.57,5.3S1124.14,181,1124.14,178Zm5.77,0c0-2.62-.72-4.11-2.2-4.11s-2.21,1.49-2.21,4.11.72,4.1,2.21,4.1S1129.91,180.6,1129.91,178Z"/></g><path class="cls-2" d="M1104.52,43.34h1.57v1.33h.07a2.86,2.86,0,0,1,2.75-1.56,2.79,2.79,0,0,1,2.83,1.84,3.05,3.05,0,0,1,3-1.84c1.71,0,3.13,1,3.13,3.65v5.65h-1.64V47c0-1.78-.6-2.45-1.86-2.45s-2.38,1.21-2.38,3.16v4.72h-1.64V47c0-1.78-.67-2.45-1.86-2.45s-2.38,1.21-2.38,3.18v4.7h-1.64Z"/><path class="cls-2" d="M1120.59,43.34h1.57v1.33h.07a2.86,2.86,0,0,1,2.75-1.56,2.79,2.79,0,0,1,2.83,1.84,3.05,3.05,0,0,1,3-1.84c1.71,0,3.13,1,3.13,3.65v5.65h-1.64V47c0-1.78-.6-2.45-1.86-2.45s-2.38,1.21-2.38,3.16v4.72h-1.64V47c0-1.78-.67-2.45-1.86-2.45s-2.38,1.21-2.38,3.18v4.7h-1.64Z"/><path d="M42.79,50.85v1.41H41.15V39.09h1.64v5.29c0,1.93.74,2.6,2.08,2.6s2.38-1.26,2.38-3.2V39.09h1.64v9.08H47.33V46.83h-.08A2.79,2.79,0,0,1,44.5,48.4a3.16,3.16,0,0,1-1.82-.53h-.11A22,22,0,0,1,42.79,50.85Z"/><path d="M52.83,49.29c0,1.11,1,1.78,2.46,1.78,1.6,0,2.9-.8,2.9-3.34v-1h-.08a3.17,3.17,0,0,1-3,1.64c-2.3,0-4-1.72-4-4.69s1.86-4.84,4.16-4.84a3,3,0,0,1,2.9,1.64h.08V39.09h1.56v8.64c0,3.44-2,4.68-4.46,4.68-2.27,0-4-1.08-4-3.12ZM55.44,47c1.48,0,2.67-1.19,2.67-3.35s-1.19-3.34-2.67-3.34-2.68,1.26-2.68,3.42S54,47,55.44,47Z"/><path d="M67,35.15h1.42L62.73,48.4H61.31Z"/><path d="M68.68,39.09h1.56v1.34h.08a2.86,2.86,0,0,1,2.75-1.56,2.79,2.79,0,0,1,2.83,1.84,3.05,3.05,0,0,1,3-1.84c1.71,0,3.12,1,3.12,3.65v5.65H80.44V42.74c0-1.78-.6-2.45-1.86-2.45s-2.38,1.2-2.38,3.16v4.72H74.56V42.74c0-1.78-.67-2.45-1.86-2.45s-2.38,1.2-2.38,3.18v4.7H68.68Z"/><path d="M84.77,39.72a1.45,1.45,0,0,0,1.61,1.56c.93,0,1.6-.5,1.6-1.37a1.45,1.45,0,0,0-1.6-1.38h-.57V37.7h.57a1.29,1.29,0,0,0,1.34-1.29,1.22,1.22,0,0,0-1.34-1.2A1.25,1.25,0,0,0,85,36.55h-.87a2.07,2.07,0,0,1,2.22-2.17,2,2,0,0,1,2.25,2,1.9,1.9,0,0,1-1.08,1.67v0A1.91,1.91,0,0,1,88.94,40c0,1.34-1.14,2.13-2.56,2.13a2.24,2.24,0,0,1-2.52-2.39Z"/><rect class="cls-3" x="96.25" y="73.59" width="285.79" height="687.76"/><rect class="cls-3" x="881.16" y="73.59" width="207.11" height="687.76"/><path class="cls-2" d="M180.73,761.64a.3.3,0,0,1-.3-.3V158.08a.3.3,0,0,1,.3-.3.29.29,0,0,1,.3.3V761.34A.29.29,0,0,1,180.73,761.64Z"/><path class="cls-2" d="M257,761.64a.29.29,0,0,1-.3-.3V158.08a.3.3,0,1,1,.6,0V761.34A.29.29,0,0,1,257,761.64Z"/><path class="cls-2" d="M341.53,761.64a.29.29,0,0,1-.3-.3V158.08a.29.29,0,0,1,.3-.3.3.3,0,0,1,.3.3V761.34A.3.3,0,0,1,341.53,761.64Z"/><path class="cls-2" d="M423.29,761.64a.29.29,0,0,1-.3-.3V158.08a.29.29,0,0,1,.3-.3.3.3,0,0,1,.3.3V761.34A.3.3,0,0,1,423.29,761.64Z"/><path class="cls-2" d="M507.77,761.64a.3.3,0,0,1-.3-.3V158.08a.3.3,0,0,1,.3-.3.29.29,0,0,1,.3.3V761.34A.29.29,0,0,1,507.77,761.64Z"/><path class="cls-2" d="M589.53,761.64a.29.29,0,0,1-.3-.3V158.08a.3.3,0,1,1,.6,0V761.34A.29.29,0,0,1,589.53,761.64Z"/><path class="cls-2" d="M674,761.64a.29.29,0,0,1-.3-.3V158.08a.29.29,0,0,1,.3-.3.3.3,0,0,1,.3.3V761.34A.3.3,0,0,1,674,761.64Z"/><path class="cls-2" d="M758.5,761.64a.3.3,0,0,1-.3-.3V158.08a.3.3,0,0,1,.3-.3.29.29,0,0,1,.3.3V761.34A.29.29,0,0,1,758.5,761.64Z"/><path class="cls-2" d="M840.26,761.64a.3.3,0,0,1-.3-.3V158.08a.3.3,0,0,1,.3-.3.29.29,0,0,1,.3.3V761.34A.29.29,0,0,1,840.26,761.64Z"/><path class="cls-2" d="M924.75,761.64a.29.29,0,0,1-.3-.3V158.08a.29.29,0,0,1,.3-.3.3.3,0,0,1,.3.3V761.34A.3.3,0,0,1,924.75,761.64Z"/><path class="cls-2" d="M1006.51,761.64a.29.29,0,0,1-.3-.3V158.08a.29.29,0,0,1,.3-.3.3.3,0,0,1,.3.3V761.34A.3.3,0,0,1,1006.51,761.64Z"/><path class="cls-2" d="M96.25,761.64a.29.29,0,0,1-.3-.3V158.08a.29.29,0,0,1,.3-.3.3.3,0,0,1,.3.3V761.34A.3.3,0,0,1,96.25,761.64Z"/><path class="cls-2" d="M1088.27,761.64a.29.29,0,0,1-.3-.3V158.08a.29.29,0,0,1,.3-.3.3.3,0,0,1,.3.3V761.34A.3.3,0,0,1,1088.27,761.64Z"/><circle cx="98.97" cy="569.08" r="2.97"/><circle cx="101.7" cy="668.15" r="2.97"/><circle cx="104.42" cy="604.04" r="2.97"/><circle cx="107.15" cy="633.18" r="2.97"/><circle cx="109.87" cy="615.7" r="2.97"/><circle cx="112.6" cy="580.73" r="2.97"/><circle cx="115.32" cy="528.28" r="2.97"/><circle cx="118.05" cy="534.11" r="2.97"/><circle cx="120.77" cy="604.04" r="2.97"/><circle cx="123.5" cy="604.04" r="2.97"/><circle cx="126.23" cy="551.59" r="2.97"/><circle cx="128.95" cy="528.28" r="2.97"/><circle cx="137.13" cy="551.59" r="2.97"/><circle cx="139.85" cy="487.48" r="2.97"/><circle cx="156.2" cy="755.57" r="2.97"/><circle cx="158.93" cy="697.29" r="2.97"/><circle cx="161.65" cy="604.04" r="2.97"/><circle cx="164.38" cy="650.67" r="2.97"/><circle cx="167.11" cy="609.87" r="2.97"/><circle cx="169.83" cy="574.9" r="2.97"/><circle cx="175.28" cy="475.83" r="2.97"/><circle cx="178.01" cy="650.67" r="2.97"/><circle cx="180.73" cy="592.39" r="2.97"/><circle cx="188.91" cy="493.31" r="2.97"/><circle cx="194.36" cy="545.76" r="2.97"/><circle cx="197.08" cy="604.04" r="2.97"/><circle cx="199.81" cy="633.18" r="2.97"/><circle cx="202.53" cy="609.87" r="2.97"/><circle cx="205.26" cy="650.67" r="2.97"/><circle cx="207.98" cy="592.39" r="2.97"/><circle cx="210.71" cy="592.39" r="2.97"/><circle cx="213.44" cy="545.76" r="2.97"/><circle cx="216.16" cy="499.14" r="2.97"/><circle cx="218.89" cy="609.87" r="2.97"/><circle cx="221.61" cy="650.67" r="2.97"/><circle cx="235.24" cy="493.31" r="2.97"/><circle cx="237.96" cy="504.97" r="2.97"/><circle cx="254.32" cy="668.15" r="2.97"/><circle cx="257.04" cy="644.84" r="2.97"/><circle cx="259.77" cy="569.08" r="2.97"/><circle cx="262.49" cy="604.04" r="2.97"/><circle cx="265.22" cy="534.11" r="2.97"/><circle cx="267.94" cy="586.56" r="2.97"/><circle cx="270.67" cy="633.18" r="2.97"/><circle cx="273.39" cy="662.32" r="2.97"/><circle cx="276.12" cy="586.56" r="2.97"/><circle cx="281.57" cy="563.25" r="2.97"/><circle cx="284.29" cy="580.73" r="2.97"/><circle cx="289.74" cy="662.32" r="2.97"/><circle cx="292.47" cy="720.61" r="2.97"/><circle cx="295.2" cy="673.98" r="2.97"/><circle cx="297.92" cy="679.81" r="2.97"/><circle cx="300.65" cy="673.98" r="2.97"/><circle cx="303.37" cy="679.81" r="2.97"/><circle cx="306.1" cy="621.53" r="2.97"/><circle cx="308.82" cy="656.5" r="2.97"/><circle cx="311.55" cy="691.47" r="2.97"/><circle cx="314.27" cy="673.98" r="2.97"/><circle cx="317" cy="673.98" r="2.97"/><circle cx="319.72" cy="627.36" r="2.97"/><circle cx="322.45" cy="569.08" r="2.97"/><circle cx="325.17" cy="598.22" r="2.97"/><circle cx="327.9" cy="621.53" r="2.97"/><circle cx="330.62" cy="668.15" r="2.97"/><circle cx="333.35" cy="609.87" r="2.97"/><circle cx="336.08" cy="580.73" r="2.97"/><circle cx="338.8" cy="627.36" r="2.97"/><circle cx="341.53" cy="662.32" r="2.97"/><circle cx="344.25" cy="697.29" r="2.97"/><circle cx="346.98" cy="644.84" r="2.97"/><circle cx="349.7" cy="691.47" r="2.97"/><circle cx="352.43" cy="708.95" r="2.97"/><circle cx="355.15" cy="656.5" r="2.97"/><circle cx="357.88" cy="673.98" r="2.97"/><circle cx="360.6" cy="691.47" r="2.97"/><circle cx="363.33" cy="650.67" r="2.97"/><circle cx="374.23" cy="708.95" r="2.97"/><circle cx="376.96" cy="650.67" r="2.97"/><circle cx="379.68" cy="639.01" r="2.97"/><circle cx="382.41" cy="633.18" r="2.97"/><circle cx="385.13" cy="650.67" r="2.97"/><circle cx="387.86" cy="662.32" r="2.97"/><circle cx="390.58" cy="668.15" r="2.97"/><circle cx="393.31" cy="679.81" r="2.97"/><circle cx="396.03" cy="679.81" r="2.97"/><circle cx="398.76" cy="627.36" r="2.97"/><circle cx="401.48" cy="639.01" r="2.97"/><circle cx="404.21" cy="679.81" r="2.97"/><circle cx="406.93" cy="679.81" r="2.97"/><circle cx="409.66" cy="621.53" r="2.97"/><circle cx="412.38" cy="639.01" r="2.97"/><circle cx="415.11" cy="633.18" r="2.97"/><circle cx="417.84" cy="639.01" r="2.97"/><circle cx="420.56" cy="644.84" r="2.97"/><circle cx="423.29" cy="662.32" r="2.97"/><circle cx="426.01" cy="673.98" r="2.97"/><circle cx="428.74" cy="668.15" r="2.97"/><circle cx="431.46" cy="679.81" r="2.97"/><circle cx="434.19" cy="685.64" r="2.97"/><circle cx="436.91" cy="668.15" r="2.97"/><circle cx="439.64" cy="668.15" r="2.97"/><circle cx="442.36" cy="650.67" r="2.97"/><circle cx="445.09" cy="673.98" r="2.97"/><circle cx="447.81" cy="627.36" r="2.97"/><circle cx="450.54" cy="673.98" r="2.97"/><circle cx="453.26" cy="697.29" r="2.97"/><circle cx="455.99" cy="697.29" r="2.97"/><circle cx="458.72" cy="685.64" r="2.97"/><circle cx="461.44" cy="697.29" r="2.97"/><circle cx="464.17" cy="726.43" r="2.97"/><circle cx="466.89" cy="673.98" r="2.97"/><circle cx="469.62" cy="679.81" r="2.97"/><circle cx="472.34" cy="679.81" r="2.97"/><circle cx="475.07" cy="685.64" r="2.97"/><circle cx="477.79" cy="697.29" r="2.97"/><circle cx="480.52" cy="685.64" r="2.97"/><circle cx="483.24" cy="673.98" r="2.97"/><circle cx="485.97" cy="685.64" r="2.97"/><circle cx="488.69" cy="656.5" r="2.97"/><circle cx="491.42" cy="662.32" r="2.97"/><circle cx="494.14" cy="673.98" r="2.97"/><circle cx="496.87" cy="685.64" r="2.97"/><circle cx="499.6" cy="703.12" r="2.97"/><circle cx="502.32" cy="708.95" r="2.97"/><circle cx="505.05" cy="685.64" r="2.97"/><circle cx="507.77" cy="673.98" r="2.97"/><circle cx="510.5" cy="662.32" r="2.97"/><circle cx="513.22" cy="639.01" r="2.97" transform="translate(-160.56 1105.64) rotate(-85.93)"/><circle cx="515.95" cy="656.5" r="2.97"/><circle cx="518.67" cy="668.15" r="2.97"/><circle cx="521.4" cy="679.81" r="2.97"/><circle cx="524.12" cy="679.81" r="2.97"/><circle cx="526.85" cy="656.5" r="2.97"/><circle cx="529.57" cy="639.01" r="2.97"/><circle cx="532.3" cy="644.84" r="2.97"/><circle cx="535.02" cy="656.5" r="2.97"/><circle cx="537.75" cy="703.12" r="2.97"/><circle cx="540.48" cy="679.81" r="2.97"/><circle cx="543.2" cy="644.84" r="2.97"/><circle cx="545.93" cy="650.67" r="2.97"/><circle cx="548.65" cy="644.84" r="2.97"/><circle cx="551.38" cy="639.01" r="2.97"/><circle cx="554.1" cy="662.32" r="2.97"/><circle cx="556.83" cy="679.81" r="2.97"/><circle cx="559.55" cy="528.28" r="2.97"/><circle cx="562.28" cy="510.79" r="2.97"/><circle cx="565" cy="586.56" r="2.97"/><circle cx="567.73" cy="633.18" r="2.97"/><circle cx="570.45" cy="644.84" r="2.97"/><circle cx="573.18" cy="685.64" r="2.97"/><circle cx="575.9" cy="673.98" r="2.97"/><circle cx="578.63" cy="679.81" r="2.97"/><circle cx="586.81" cy="691.47" r="2.97" transform="translate(-107.04 1275.46) rotate(-89.77)"/><circle cx="589.53" cy="668.15" r="2.97"/><circle cx="592.26" cy="644.84" r="2.97"/><circle cx="594.98" cy="633.18" r="2.97"/><circle cx="597.71" cy="656.5" r="2.97" transform="translate(-2.71 2.48) rotate(-0.24)"/><circle cx="600.43" cy="685.64" r="2.97"/><circle cx="603.16" cy="668.15" r="2.97"/><circle cx="605.88" cy="656.5" r="2.97"/><circle cx="608.61" cy="621.53" r="2.97"/><circle cx="611.33" cy="691.47" r="2.97"/><circle cx="614.06" cy="673.98" r="2.97"/><circle cx="616.78" cy="662.32" r="2.97"/><circle cx="619.51" cy="662.32" r="2.97"/><circle cx="622.24" cy="662.32" r="2.97"/><circle cx="624.96" cy="679.81" r="2.97"/><circle cx="627.69" cy="679.81" r="2.97"/><circle cx="630.41" cy="656.5" r="2.97"/><circle cx="633.14" cy="644.84" r="2.97"/><circle cx="635.86" cy="673.98" r="2.97"/><circle cx="638.59" cy="650.67" r="2.97"/><circle cx="641.31" cy="633.18" r="2.97"/><circle cx="644.04" cy="615.7" r="2.97"/><circle cx="646.76" cy="615.7" r="2.97"/><circle cx="649.49" cy="621.53" r="2.97"/><circle cx="652.21" cy="639.01" r="2.97"/><circle cx="654.94" cy="656.5" r="2.97"/><circle cx="657.66" cy="569.08" r="2.97"/><circle cx="660.39" cy="598.22" r="2.97"/><circle cx="663.12" cy="592.39" r="2.97"/><circle cx="665.84" cy="592.39" r="2.97"/><circle cx="668.57" cy="633.18" r="2.97"/><circle cx="671.29" cy="639.01" r="2.97"/><circle cx="674.02" cy="644.84" r="2.97"/><circle cx="676.74" cy="650.67" r="2.97"/><circle cx="679.47" cy="662.32" r="2.97"/><circle cx="682.19" cy="639.01" r="2.97"/><circle cx="684.92" cy="668.15" r="2.97"/><circle cx="687.64" cy="685.64" r="2.97"/><circle cx="690.37" cy="691.47" r="2.97"/><circle cx="693.09" cy="691.47" r="2.97"/><circle cx="695.82" cy="656.5" r="2.97"/><circle cx="698.54" cy="644.84" r="2.97"/><circle cx="701.27" cy="592.39" r="2.97"/><circle cx="704" cy="615.7" r="2.97"/><circle cx="706.72" cy="615.7" r="2.97"/><circle cx="709.45" cy="633.18" r="2.97"/><circle cx="712.17" cy="615.7" r="2.97"/><circle cx="714.9" cy="516.62" r="2.97"/><circle cx="717.62" cy="668.15" r="2.97"/><circle cx="720.35" cy="668.15" r="2.97"/><circle cx="723.07" cy="673.98" r="2.97"/><circle cx="725.8" cy="662.32" r="2.97"/><circle cx="728.52" cy="668.15" r="2.97"/><circle cx="731.25" cy="662.32" r="2.97"/><circle cx="733.97" cy="662.32" r="2.97"/><circle cx="736.7" cy="685.64" r="2.97"/><circle cx="739.42" cy="691.47" r="2.97"/><circle cx="742.15" cy="691.47" r="2.97"/><circle cx="744.88" cy="685.64" r="2.97"/><circle cx="747.6" cy="714.78" r="2.97"/><circle cx="750.33" cy="726.43" r="2.97"/><circle cx="753.05" cy="673.98" r="2.97"/><circle cx="755.78" cy="668.15" r="2.97"/><circle cx="758.5" cy="656.5" r="2.97"/><circle cx="761.23" cy="656.5" r="2.97"/><circle cx="763.95" cy="668.15" r="2.97"/><circle cx="766.68" cy="679.81" r="2.97"/><circle cx="769.4" cy="679.81" r="2.97"/><circle cx="772.13" cy="639.01" r="2.97"/><circle cx="774.85" cy="615.7" r="2.97"/><circle cx="777.58" cy="563.25" r="2.97"/><circle cx="780.3" cy="615.7" r="2.97"/><circle cx="783.03" cy="604.04" r="2.97"/><circle cx="785.76" cy="604.04" r="2.97"/><circle cx="788.48" cy="615.7" r="2.97"/><circle cx="791.21" cy="609.87" r="2.97"/><circle cx="793.93" cy="592.39" r="2.97"/><circle cx="796.66" cy="609.87" r="2.97"/><circle cx="799.38" cy="615.7" r="2.97"/><circle cx="802.11" cy="627.36" r="2.97"/><circle cx="804.83" cy="656.5" r="2.97"/><circle cx="807.56" cy="714.78" r="2.97"/><circle cx="810.28" cy="679.81" r="2.97"/><circle cx="813.01" cy="662.32" r="2.97"/><circle cx="815.73" cy="668.15" r="2.97"/><circle cx="818.46" cy="668.15" r="2.97"/><circle cx="821.18" cy="656.5" r="2.97"/><circle cx="823.91" cy="639.01" r="2.97"/><circle cx="826.63" cy="650.67" r="2.97"/><circle cx="829.36" cy="580.73" r="2.97"/><circle cx="832.09" cy="563.25" r="2.97"/><circle cx="834.81" cy="528.28" r="2.97"/><circle cx="837.54" cy="627.36" r="2.97"/><circle cx="840.26" cy="673.98" r="2.97"/><circle cx="842.99" cy="668.15" r="2.97"/><circle cx="845.71" cy="656.5" r="2.97"/><circle cx="848.44" cy="662.32" r="2.97"/><circle cx="851.16" cy="697.29" r="2.97"/><circle cx="853.89" cy="685.64" r="2.97"/><circle cx="856.61" cy="691.47" r="2.97"/><circle cx="859.34" cy="621.53" r="2.97"/><circle cx="862.06" cy="604.04" r="2.97"/><circle cx="864.79" cy="627.36" r="2.97"/><circle cx="867.51" cy="621.53" r="2.97"/><circle cx="870.24" cy="673.98" r="2.97"/><circle cx="872.97" cy="656.5" r="2.97"/><circle cx="875.69" cy="679.81" r="2.97"/><circle cx="878.42" cy="644.84" r="2.97"/><circle cx="881.14" cy="592.39" r="2.97"/><circle cx="883.87" cy="644.84" r="2.97"/><circle cx="886.59" cy="650.67" r="2.97"/><circle cx="889.32" cy="609.87" r="2.97"/><circle cx="892.04" cy="650.67" r="2.97"/><circle cx="894.77" cy="609.87" r="2.97"/><circle cx="902.94" cy="656.5" r="2.97"/><circle cx="905.67" cy="639.01" r="2.97"/><circle cx="908.39" cy="563.25" r="2.97"/><circle cx="911.12" cy="563.25" r="2.97"/><circle cx="913.85" cy="592.39" r="2.97"/><circle cx="916.57" cy="516.62" r="2.97"/><circle cx="924.75" cy="528.28" r="2.97"/><circle cx="927.47" cy="685.64" r="2.97"/><circle cx="930.2" cy="679.81" r="2.97"/><circle cx="932.92" cy="691.47" r="2.97"/><circle cx="935.65" cy="592.39" r="2.97"/><circle cx="938.37" cy="604.04" r="2.97"/><circle cx="941.1" cy="621.53" r="2.97"/><circle cx="943.82" cy="639.01" r="2.97"/><circle cx="946.55" cy="609.87" r="2.97"/><circle cx="949.27" cy="557.42" r="2.97"/><circle cx="952" cy="545.76" r="2.97"/><circle cx="954.73" cy="580.73" r="2.97"/><circle cx="957.45" cy="510.79" r="2.97"/><circle cx="960.18" cy="662.32" r="2.97"/><circle cx="962.9" cy="650.67" r="2.97"/><circle cx="965.63" cy="551.59" r="2.97"/><circle cx="968.35" cy="487.48" r="2.97"/><circle cx="973.8" cy="516.62" r="2.97"/><circle cx="976.53" cy="563.25" r="2.97"/><circle cx="979.25" cy="662.32" r="2.97"/><circle cx="981.98" cy="691.47" r="2.97"/><circle cx="984.7" cy="644.84" r="2.97"/><circle cx="987.43" cy="644.84" r="2.97"/><circle cx="990.15" cy="633.18" r="2.97"/><circle cx="992.88" cy="668.15" r="2.97"/><circle cx="995.61" cy="726.43" r="2.97"/><circle cx="998.33" cy="738.09" r="2.97"/><circle cx="1001.06" cy="662.32" r="2.97"/><circle cx="1003.78" cy="656.5" r="2.97"/><circle cx="1006.51" cy="569.08" r="2.97"/><circle cx="1009.23" cy="563.25" r="2.97"/><circle cx="1011.96" cy="639.01" r="2.97"/><circle cx="1014.68" cy="609.87" r="2.97"/><circle cx="1017.41" cy="545.76" r="2.97"/><circle cx="1020.13" cy="534.11" r="2.97"/><circle cx="1022.86" cy="598.22" r="2.97"/><circle cx="1025.58" cy="598.22" r="2.97"/><circle cx="1028.31" cy="668.15" r="2.97"/><circle cx="1031.03" cy="609.87" r="2.97"/><circle cx="1033.76" cy="609.87" r="2.97"/><circle cx="1036.49" cy="650.67" r="2.97"/><circle cx="1039.21" cy="592.39" r="2.97"/><circle cx="1041.94" cy="534.11" r="2.97"/><circle cx="1050.11" cy="475.83" r="2.97"/><circle cx="1052.84" cy="499.14" r="2.97"/><circle cx="1055.56" cy="563.25" r="2.97"/><circle cx="1058.29" cy="516.62" r="2.97"/><circle cx="1066.46" cy="510.79" r="2.97"/><circle cx="1069.19" cy="475.83" r="2.97"/><circle class="cls-4" cx="243.41" cy="435.03" r="2.97"/><circle class="cls-4" cx="96.25" cy="458.34" r="2.97"/><circle class="cls-4" cx="131.68" cy="417.54" r="2.97"/><circle class="cls-4" cx="134.4" cy="470" r="2.97"/><circle class="cls-4" cx="142.58" cy="306.81" r="2.97"/><circle class="cls-4" cx="145.3" cy="277.67" r="2.97"/><circle class="cls-4" cx="148.03" cy="225.22" r="2.97"/><circle class="cls-4" cx="150.75" cy="108.65" r="2.97"/><circle class="cls-4" cx="153.48" cy="365.09" r="2.97"/><circle class="cls-4" cx="172.56" cy="405.89" r="2.97"/><circle class="cls-4" cx="183.46" cy="464.17" r="2.97"/><circle class="cls-4" cx="186.18" cy="353.43" r="2.97"/><circle class="cls-4" cx="191.63" cy="470" r="2.97"/><circle class="cls-4" cx="224.34" cy="423.37" r="2.97"/><circle class="cls-4" cx="227.06" cy="335.95" r="2.97"/><circle class="cls-4" cx="229.79" cy="335.95" r="2.97"/><circle class="cls-4" cx="232.51" cy="376.75" r="2.97"/><circle class="cls-4" cx="240.69" cy="365.09" r="2.97"/><circle class="cls-4" cx="246.14" cy="359.26" r="2.97"/><circle class="cls-4" cx="248.86" cy="347.61" r="2.97"/><circle class="cls-4" cx="251.59" cy="440.86" r="2.97"/><circle class="cls-4" cx="287.02" cy="452.51" r="2.97"/><circle class="cls-4" cx="897.49" cy="341.78" r="2.97"/><circle class="cls-4" cx="900.22" cy="440.86" r="2.97"/><circle class="cls-4" cx="919.3" cy="429.2" r="2.97"/><circle class="cls-4" cx="922.02" cy="318.47" r="2.97"/><circle class="cls-4" cx="971.08" cy="452.51" r="2.97"/><circle class="cls-4" cx="1044.66" cy="423.37" r="2.97"/><circle class="cls-4" cx="1047.39" cy="318.47" r="2.97"/><circle class="cls-4" cx="1061.01" cy="440.86" r="2.97"/><circle class="cls-4" cx="1063.74" cy="470" r="2.97"/><circle class="cls-4" cx="1071.91" cy="405.89" r="2.97"/><circle cx="1074.64" cy="580.73" r="2.97"/><circle cx="1077.37" cy="534.11" r="2.97"/><circle cx="1080.09" cy="569.08" r="2.97"/><circle cx="1082.82" cy="551.59" r="2.97"/><circle cx="1085.54" cy="569.08" r="2.97"/><circle cx="1088.27" cy="551.59" r="2.97"/><path class="cls-2" d="M96.25,102.14a.29.29,0,0,1-.3-.3V73.59a.3.3,0,0,1,.6,0v28.25A.29.29,0,0,1,96.25,102.14Z"/><path class="cls-2" d="M96.25,149.76a.29.29,0,0,1-.3-.3v-6a.3.3,0,0,1,.6,0v6A.29.29,0,0,1,96.25,149.76Z"/><path class="cls-2" d="M96.25,134.64a.29.29,0,0,1-.3-.3v-9.12a.3.3,0,0,1,.6,0v9.12A.29.29,0,0,1,96.25,134.64Z"/><path class="cls-2" d="M96.25,116.4a.29.29,0,0,1-.3-.3v-6a.3.3,0,0,1,.6,0v6A.29.29,0,0,1,96.25,116.4Z"/><path class="cls-2" d="M180.73,102.14a.3.3,0,0,1-.3-.3V73.59a.3.3,0,0,1,.3-.3.29.29,0,0,1,.3.3v28.25A.29.29,0,0,1,180.73,102.14Z"/><path class="cls-2" d="M180.73,149.76a.3.3,0,0,1-.3-.3v-6a.3.3,0,0,1,.3-.29.29.29,0,0,1,.3.29v6A.29.29,0,0,1,180.73,149.76Z"/><path class="cls-2" d="M180.73,134.64a.3.3,0,0,1-.3-.3v-9.12a.31.31,0,0,1,.3-.3.3.3,0,0,1,.3.3v9.12A.29.29,0,0,1,180.73,134.64Z"/><path class="cls-2" d="M180.73,116.4a.3.3,0,0,1-.3-.3v-6a.31.31,0,0,1,.3-.3.3.3,0,0,1,.3.3v6A.29.29,0,0,1,180.73,116.4Z"/><path class="cls-2" d="M257,102.14a.29.29,0,0,1-.3-.3V73.59a.3.3,0,0,1,.6,0v28.25A.29.29,0,0,1,257,102.14Z"/><path class="cls-2" d="M257,149.76a.29.29,0,0,1-.3-.3v-6a.3.3,0,0,1,.6,0v6A.29.29,0,0,1,257,149.76Z"/><path class="cls-2" d="M257,134.64a.29.29,0,0,1-.3-.3v-9.12a.3.3,0,0,1,.6,0v9.12A.29.29,0,0,1,257,134.64Z"/><path class="cls-2" d="M257,116.4a.29.29,0,0,1-.3-.3v-6a.3.3,0,0,1,.6,0v6A.29.29,0,0,1,257,116.4Z"/><path class="cls-2" d="M341.53,102.14a.29.29,0,0,1-.3-.3V73.59a.29.29,0,0,1,.3-.3.3.3,0,0,1,.3.3v28.25A.3.3,0,0,1,341.53,102.14Z"/><path class="cls-2" d="M341.53,149.76a.29.29,0,0,1-.3-.3v-6a.3.3,0,0,1,.3-.3.31.31,0,0,1,.3.3v6A.3.3,0,0,1,341.53,149.76Z"/><path class="cls-2" d="M341.53,134.64a.29.29,0,0,1-.3-.3v-9.12a.3.3,0,0,1,.3-.3.31.31,0,0,1,.3.3v9.12A.3.3,0,0,1,341.53,134.64Z"/><path class="cls-2" d="M341.53,116.4a.29.29,0,0,1-.3-.3v-6a.3.3,0,0,1,.3-.3.31.31,0,0,1,.3.3v6A.3.3,0,0,1,341.53,116.4Z"/><path class="cls-2" d="M423.29,102.14a.29.29,0,0,1-.3-.3V73.59a.29.29,0,0,1,.3-.3.3.3,0,0,1,.3.3v28.25A.3.3,0,0,1,423.29,102.14Z"/><path class="cls-2" d="M423.29,149.76a.29.29,0,0,1-.3-.3v-6a.3.3,0,0,1,.3-.3.31.31,0,0,1,.3.3v6A.3.3,0,0,1,423.29,149.76Z"/><path class="cls-2" d="M423.29,134.64a.29.29,0,0,1-.3-.3v-9.12a.3.3,0,0,1,.3-.3.31.31,0,0,1,.3.3v9.12A.3.3,0,0,1,423.29,134.64Z"/><path class="cls-2" d="M423.29,116.4a.29.29,0,0,1-.3-.3v-6a.3.3,0,0,1,.3-.3.31.31,0,0,1,.3.3v6A.3.3,0,0,1,423.29,116.4Z"/><path class="cls-2" d="M507.77,102.14a.3.3,0,0,1-.3-.3V73.59a.3.3,0,0,1,.3-.3.29.29,0,0,1,.3.3v28.25A.29.29,0,0,1,507.77,102.14Z"/><path class="cls-2" d="M507.77,149.76a.3.3,0,0,1-.3-.3v-6a.31.31,0,0,1,.3-.3.3.3,0,0,1,.3.3v6A.29.29,0,0,1,507.77,149.76Z"/><path class="cls-2" d="M507.77,134.64a.3.3,0,0,1-.3-.3v-9.12a.31.31,0,0,1,.3-.3.3.3,0,0,1,.3.3v9.12A.29.29,0,0,1,507.77,134.64Z"/><path class="cls-2" d="M507.77,116.4a.3.3,0,0,1-.3-.3v-6a.31.31,0,0,1,.3-.3.3.3,0,0,1,.3.3v6A.29.29,0,0,1,507.77,116.4Z"/><path class="cls-2" d="M589.53,102.14a.29.29,0,0,1-.3-.3V73.59a.3.3,0,0,1,.6,0v28.25A.29.29,0,0,1,589.53,102.14Z"/><path class="cls-2" d="M589.53,149.76a.29.29,0,0,1-.3-.3v-6a.3.3,0,1,1,.6,0v6A.29.29,0,0,1,589.53,149.76Z"/><path class="cls-2" d="M589.53,134.64a.29.29,0,0,1-.3-.3v-9.12a.3.3,0,1,1,.6,0v9.12A.29.29,0,0,1,589.53,134.64Z"/><path class="cls-2" d="M589.53,116.4a.29.29,0,0,1-.3-.3v-6a.3.3,0,1,1,.6,0v6A.29.29,0,0,1,589.53,116.4Z"/><path class="cls-2" d="M674,102.14a.29.29,0,0,1-.3-.3V73.59a.29.29,0,0,1,.3-.3.3.3,0,0,1,.3.3v28.25A.3.3,0,0,1,674,102.14Z"/><path class="cls-2" d="M674,149.76a.29.29,0,0,1-.3-.3v-6a.3.3,0,0,1,.3-.3.31.31,0,0,1,.3.3v6A.3.3,0,0,1,674,149.76Z"/><path class="cls-2" d="M674,134.64a.29.29,0,0,1-.3-.3v-9.12a.3.3,0,0,1,.3-.3.31.31,0,0,1,.3.3v9.12A.3.3,0,0,1,674,134.64Z"/><path class="cls-2" d="M674,116.4a.29.29,0,0,1-.3-.3v-6a.3.3,0,0,1,.3-.3.31.31,0,0,1,.3.3v6A.3.3,0,0,1,674,116.4Z"/><path class="cls-2" d="M758.5,102.14a.3.3,0,0,1-.3-.3V73.59a.3.3,0,0,1,.3-.3.29.29,0,0,1,.3.3v28.25A.29.29,0,0,1,758.5,102.14Z"/><path class="cls-2" d="M758.5,149.76a.3.3,0,0,1-.3-.3v-6a.31.31,0,0,1,.3-.3.3.3,0,0,1,.3.3v6A.29.29,0,0,1,758.5,149.76Z"/><path class="cls-2" d="M758.5,134.64a.3.3,0,0,1-.3-.3v-9.12a.31.31,0,0,1,.3-.3.3.3,0,0,1,.3.3v9.12A.29.29,0,0,1,758.5,134.64Z"/><path class="cls-2" d="M758.5,116.4a.3.3,0,0,1-.3-.3v-6a.31.31,0,0,1,.3-.3.3.3,0,0,1,.3.3v6A.29.29,0,0,1,758.5,116.4Z"/><path class="cls-2" d="M840.26,102.14a.3.3,0,0,1-.3-.3V73.59a.3.3,0,0,1,.3-.3.29.29,0,0,1,.3.3v28.25A.29.29,0,0,1,840.26,102.14Z"/><path class="cls-2" d="M840.26,149.76a.3.3,0,0,1-.3-.3v-6a.31.31,0,0,1,.3-.3.3.3,0,0,1,.3.3v6A.29.29,0,0,1,840.26,149.76Z"/><path class="cls-2" d="M840.26,134.64a.3.3,0,0,1-.3-.3v-9.12a.31.31,0,0,1,.3-.3.3.3,0,0,1,.3.3v9.12A.29.29,0,0,1,840.26,134.64Z"/><path class="cls-2" d="M840.26,116.4a.3.3,0,0,1-.3-.3v-6a.31.31,0,0,1,.3-.3.3.3,0,0,1,.3.3v6A.29.29,0,0,1,840.26,116.4Z"/><path class="cls-2" d="M924.75,102.14a.29.29,0,0,1-.3-.3V73.59a.29.29,0,0,1,.3-.3.3.3,0,0,1,.3.3v28.25A.3.3,0,0,1,924.75,102.14Z"/><path class="cls-2" d="M924.75,149.76a.29.29,0,0,1-.3-.3v-6a.3.3,0,0,1,.3-.3.31.31,0,0,1,.3.3v6A.3.3,0,0,1,924.75,149.76Z"/><path class="cls-2" d="M924.75,134.64a.29.29,0,0,1-.3-.3v-9.12a.3.3,0,0,1,.3-.3.31.31,0,0,1,.3.3v9.12A.3.3,0,0,1,924.75,134.64Z"/><path class="cls-2" d="M924.75,116.4a.29.29,0,0,1-.3-.3v-6a.3.3,0,0,1,.3-.3.31.31,0,0,1,.3.3v6A.3.3,0,0,1,924.75,116.4Z"/><path class="cls-2" d="M1006.51,102.14a.29.29,0,0,1-.3-.3V73.59a.29.29,0,0,1,.3-.3.3.3,0,0,1,.3.3v28.25A.3.3,0,0,1,1006.51,102.14Z"/><path class="cls-2" d="M1006.51,149.76a.29.29,0,0,1-.3-.3v-6a.3.3,0,0,1,.3-.3.31.31,0,0,1,.3.3v6A.3.3,0,0,1,1006.51,149.76Z"/><path class="cls-2" d="M1006.51,134.64a.29.29,0,0,1-.3-.3v-9.12a.3.3,0,0,1,.3-.3.31.31,0,0,1,.3.3v9.12A.3.3,0,0,1,1006.51,134.64Z"/><path class="cls-2" d="M1006.51,116.4a.29.29,0,0,1-.3-.3v-6a.3.3,0,0,1,.3-.3.31.31,0,0,1,.3.3v6A.3.3,0,0,1,1006.51,116.4Z"/><path class="cls-2" d="M1088.27,102.14a.29.29,0,0,1-.3-.3V73.59a.3.3,0,0,1,.6,0v28.25A.29.29,0,0,1,1088.27,102.14Z"/><path class="cls-2" d="M1088.27,149.76a.29.29,0,0,1-.3-.3v-6a.3.3,0,0,1,.6,0v6A.29.29,0,0,1,1088.27,149.76Z"/><path class="cls-2" d="M1088.27,134.64a.29.29,0,0,1-.3-.3v-9.12a.3.3,0,0,1,.6,0v9.12A.29.29,0,0,1,1088.27,134.64Z"/><path class="cls-2" d="M1088.27,116.4a.29.29,0,0,1-.3-.3v-6a.3.3,0,0,1,.6,0v6A.29.29,0,0,1,1088.27,116.4Z"/><path d="M287.5,180.36c0,1,.91,1.78,2.38,1.78s2.44-.64,2.44-1.72c0-2.53-6.32-.52-6.32-4.53,0-1.75,1.52-3,3.9-3s3.83,1.12,3.83,2.93h-1.65c0-1-.93-1.62-2.18-1.62s-2.22.53-2.22,1.56c0,2.51,6.37.48,6.37,4.55,0,1.89-1.52,3.17-4.17,3.17s-4.05-1.22-4.05-3.09Z"/><path d="M297.53,186.55h-1.61V176h1.55v1.09h.06a2.51,2.51,0,0,1,2.41-1.27c1.83,0,3.24,1.34,3.24,3.75s-1.5,3.87-3.36,3.87a2.35,2.35,0,0,1-2.29-1.26h-.06c.06.95.06,1.95.06,2.44Zm2-9.42c-1.1,0-1.95.88-2,2.39v.12c0,1.59.86,2.52,2,2.52s2-1,2-2.58S300.67,177.13,299.52,177.13Z"/><path d="M308,175.83a3.22,3.22,0,0,1,3.4,3.55v.53h-5.34c.09,1.41.84,2.28,2,2.28a1.58,1.58,0,0,0,1.69-1.12h1.57a3.08,3.08,0,0,1-3.27,2.38c-2.32,0-3.65-1.41-3.65-3.79A3.55,3.55,0,0,1,308,175.83Zm-1.87,3h3.63c-.13-1.2-.74-1.74-1.76-1.74A1.92,1.92,0,0,0,306.16,178.82Z"/><path d="M314.42,184.17c0,.8.77,1.29,1.83,1.29,1.29,0,2.17-.65,2.17-2.56v-.71h-.06a2.51,2.51,0,0,1-2.41,1.26c-1.83,0-3.24-1.34-3.24-3.75s1.5-3.87,3.36-3.87a2.36,2.36,0,0,1,2.29,1.27h.06V176H320v6.89c0,2.74-1.57,3.76-3.7,3.76-1.93,0-3.32-.83-3.35-2.49Zm1.93-2c1.15,0,2-.93,2-2.52v-.12c-.05-1.51-.88-2.39-2-2.39s-2,1-2,2.57S315.22,182.16,316.35,182.16Z"/><path d="M322.14,176h1.55v1.06h.06a2.32,2.32,0,0,1,2.24-1.24c1.45,0,2.73.78,2.73,3v4.4h-1.61v-4.19c0-1.45-.61-1.94-1.55-1.94s-1.81.88-1.81,2.34v3.79h-1.61Z"/><path d="M330.73,172.38h1.72V174h-1.72Zm.06,3.63h1.6v7.26h-1.6Z"/><path d="M334.58,176h1.55v1.06h.06a2.57,2.57,0,0,1,4.51.21,2.49,2.49,0,0,1,2.44-1.45c1.41,0,2.57.78,2.57,2.95v4.49H344.1V179c0-1.35-.47-1.83-1.4-1.83S341,178,341,179.45v3.82h-1.61V179c0-1.35-.52-1.83-1.4-1.83s-1.75.87-1.75,2.32v3.81h-1.61Z"/><path d="M350.86,175.83a3.22,3.22,0,0,1,3.39,3.55v.53h-5.34c.09,1.41.85,2.28,2,2.28a1.57,1.57,0,0,0,1.68-1.12h1.58a3.08,3.08,0,0,1-3.28,2.38c-2.32,0-3.64-1.41-3.64-3.79A3.55,3.55,0,0,1,350.86,175.83Zm-1.87,3h3.63c-.14-1.2-.75-1.74-1.76-1.74A1.92,1.92,0,0,0,349,178.82Z"/><path d="M355.88,176h1.54v1.06h.06a2.33,2.33,0,0,1,2.25-1.24c1.44,0,2.72.78,2.72,3v4.4h-1.61v-4.19c0-1.45-.6-1.94-1.54-1.94s-1.82.88-1.82,2.34v3.79h-1.6Z"/><path d="M364.67,177.26H363.3V176h1.37v-2.2h1.61V176h1.86v1.25h-1.86v3.6c0,.78.26,1.07,1,1.07h.85v1.34H367c-1.67,0-2.35-.7-2.35-2.32Z"/><path d="M372.78,175.83a3.49,3.49,0,0,1,3.7,3.81,3.55,3.55,0,0,1-3.7,3.81,3.5,3.5,0,0,1-3.71-3.81A3.56,3.56,0,0,1,372.78,175.83Zm0,6.33c1.22,0,2-1,2-2.52s-.82-2.51-2-2.51-2,1-2,2.51S371.56,182.16,372.78,182.16Z"/><path d="M286.13,194.61h1.55v1.06h0a2,2,0,0,1,1.92-1.23,1.69,1.69,0,0,1,1,.29l-.41,1.43a2,2,0,0,0-.89-.24c-1.09,0-1.61,1.06-1.61,2.32v3.63h-1.61Z"/><path d="M291.68,191h1.73v1.64h-1.73Zm.06,3.63h1.61v7.26h-1.61Z"/><path d="M296.53,199.79c0,.8.82,1.13,1.61,1.13,1.12,0,1.67-.39,1.67-1.06s-.38-.75-1.11-.87l-1.33-.24c-1.12-.18-2.19-.63-2.19-2s1.32-2.32,3-2.32,3,.68,3,2.2h-1.5c0-.72-.64-1.07-1.51-1.07s-1.48.35-1.48,1c0,.49.34.75,1.2.89l1.34.23c1.15.19,2.14.64,2.14,2,0,1.59-1.34,2.38-3.27,2.38s-3.14-.74-3.14-2.26Z"/><path d="M306.2,194.44a3,3,0,0,1,3.31,2.66h-1.59a1.6,1.6,0,0,0-1.72-1.37c-1.13,0-1.94,1-1.94,2.51s.81,2.52,1.94,2.52a1.59,1.59,0,0,0,1.72-1.37h1.59a3,3,0,0,1-3.31,2.66c-2.23,0-3.61-1.43-3.61-3.81A3.51,3.51,0,0,1,306.2,194.44Z"/><path d="M313.18,197.8l1.42-.24c.71-.12.93-.21.93-.49a1.27,1.27,0,0,0-1.42-1.43,1.36,1.36,0,0,0-1.54,1.28H311c.09-1.5,1.25-2.48,3.07-2.48,2,0,3,1,3,2.66v4.77h-1.53V201h-.08a2.58,2.58,0,0,1-2.32,1.08c-1.59,0-2.45-.82-2.45-2S311.47,198.08,313.18,197.8Zm2.35.43a1.17,1.17,0,0,1-.74.34l-1.25.21c-.85.13-1.17.5-1.17,1.07s.41,1,1.23,1a1.82,1.82,0,0,0,1.93-1.95Z"/><path d="M319.23,191h1.6v10.89h-1.6Z"/><path d="M325.88,194.44a2.35,2.35,0,0,1,2.29,1.26h.06c-.08-.95-.08-1.95-.08-2.44V191h1.61v10.89h-1.53v-1.08h-.06a2.51,2.51,0,0,1-2.41,1.26c-1.83,0-3.25-1.34-3.25-3.75S324,194.44,325.88,194.44Zm.28,6.32c1.14,0,2-.92,2-2.52s-.85-2.51-2-2.51-2,1-2,2.57S325,200.76,326.16,200.76Z"/><path d="M334,197.8l1.41-.24c.71-.12.94-.21.94-.49a1.27,1.27,0,0,0-1.43-1.43,1.35,1.35,0,0,0-1.53,1.28h-1.54c.09-1.5,1.25-2.48,3.07-2.48,2,0,3,1,3,2.66v4.77h-1.53V201h-.07a2.59,2.59,0,0,1-2.32,1.08c-1.6,0-2.46-.82-2.46-2S332.25,198.08,334,197.8Zm2.35.43a1.22,1.22,0,0,1-.75.34l-1.25.21c-.84.13-1.17.5-1.17,1.07s.42,1,1.23,1a1.83,1.83,0,0,0,1.94-1.95Z"/><path d="M340,194.61h1.55v1.06h.06a2.57,2.57,0,0,1,4.5.21,2.49,2.49,0,0,1,2.44-1.44c1.42,0,2.58.77,2.58,2.94v4.49h-1.61v-4.3c0-1.35-.48-1.83-1.4-1.83s-1.75.87-1.75,2.31v3.82h-1.61v-4.3c0-1.35-.52-1.83-1.4-1.83s-1.75.87-1.75,2.33v3.8H340Z"/><path d="M356.28,194.44a3.21,3.21,0,0,1,3.39,3.54v.53h-5.34c.09,1.41.85,2.28,2,2.28a1.57,1.57,0,0,0,1.68-1.12h1.57a3.07,3.07,0,0,1-3.27,2.38c-2.32,0-3.64-1.41-3.64-3.79A3.54,3.54,0,0,1,356.28,194.44Zm-1.88,3H358c-.13-1.21-.74-1.74-1.75-1.74A1.92,1.92,0,0,0,354.4,197.43Z"/><path d="M361.29,194.61h1.55v1.06h.06a2.32,2.32,0,0,1,2.25-1.23c1.44,0,2.72.77,2.72,3v4.4h-1.61v-4.19c0-1.45-.61-1.94-1.55-1.94s-1.81.88-1.81,2.34v3.79h-1.61Z"/><path d="M370.09,195.86h-1.37v-1.25h1.37v-2.2h1.6v2.2h1.86v1.25h-1.86v3.6c0,.78.27,1.07,1,1.07h.84v1.34h-1.11c-1.67,0-2.35-.7-2.35-2.32Z"/><path d="M374.94,191h1.72v1.64h-1.72Zm.06,3.63h1.6v7.26H375Z"/><path d="M890.62,173h2l3.81,10.23h-1.77l-.88-2.48h-4.37l-.88,2.48h-1.69Zm.93,1.66-1.66,4.69h3.37l-1.65-4.69Z"/><path d="M900.9,175.83a3,3,0,0,1,3.3,2.67h-1.59a1.6,1.6,0,0,0-1.71-1.37c-1.13,0-1.95,1-1.95,2.51s.82,2.52,1.95,2.52a1.59,1.59,0,0,0,1.71-1.37h1.59a3,3,0,0,1-3.3,2.66c-2.23,0-3.62-1.43-3.62-3.81A3.52,3.52,0,0,1,900.9,175.83Z"/><path d="M909,175.83a3,3,0,0,1,3.3,2.67h-1.59a1.6,1.6,0,0,0-1.71-1.37c-1.13,0-2,1-2,2.51s.82,2.52,2,2.52a1.59,1.59,0,0,0,1.71-1.37h1.59a3,3,0,0,1-3.3,2.66c-2.23,0-3.62-1.43-3.62-3.81A3.52,3.52,0,0,1,909,175.83Z"/><path d="M917.1,175.83a3.22,3.22,0,0,1,3.39,3.55v.53h-5.34c.09,1.41.85,2.28,2,2.28a1.57,1.57,0,0,0,1.68-1.12h1.58a3.08,3.08,0,0,1-3.27,2.38c-2.32,0-3.65-1.41-3.65-3.79A3.55,3.55,0,0,1,917.1,175.83Zm-1.87,3h3.63c-.14-1.2-.75-1.74-1.76-1.74A1.92,1.92,0,0,0,915.23,178.82Z"/><path d="M922.12,176h1.54v1.06h.06a2.33,2.33,0,0,1,2.25-1.24c1.44,0,2.72.78,2.72,3v4.4h-1.6v-4.19c0-1.45-.61-1.94-1.55-1.94s-1.82.88-1.82,2.34v3.79h-1.6Z"/><path d="M931.76,181.19c0,.8.82,1.13,1.61,1.13,1.11,0,1.66-.39,1.66-1.06s-.37-.75-1.1-.87l-1.34-.24c-1.11-.18-2.19-.63-2.19-2s1.33-2.32,3-2.32,3,.69,3,2.21h-1.51c0-.72-.64-1.07-1.5-1.07s-1.49.35-1.49,1c0,.49.35.75,1.21.89l1.34.23c1.14.19,2.14.64,2.14,2,0,1.59-1.34,2.38-3.27,2.38s-3.14-.74-3.14-2.26Z"/><path d="M938.28,172.38H940V174h-1.72Zm.06,3.63h1.6v7.26h-1.6Z"/><path d="M945.33,175.83a3.49,3.49,0,0,1,3.7,3.81,3.55,3.55,0,0,1-3.7,3.81,3.49,3.49,0,0,1-3.7-3.81A3.56,3.56,0,0,1,945.33,175.83Zm0,6.33c1.22,0,2-1,2-2.52s-.82-2.51-2-2.51-2,1-2,2.51S944.11,182.16,945.33,182.16Z"/><path d="M950.72,176h1.54v1.06h.06a2.33,2.33,0,0,1,2.25-1.24c1.44,0,2.72.78,2.72,3v4.4h-1.6v-4.19c0-1.45-.61-1.94-1.55-1.94s-1.82.88-1.82,2.34v3.79h-1.6Z"/><path d="M962.44,175.83a3.22,3.22,0,0,1,3.39,3.55v.53h-5.34c.09,1.41.85,2.28,2,2.28a1.57,1.57,0,0,0,1.68-1.12h1.58a3.08,3.08,0,0,1-3.27,2.38c-2.32,0-3.65-1.41-3.65-3.79A3.55,3.55,0,0,1,962.44,175.83Zm-1.87,3h3.63c-.14-1.2-.75-1.74-1.76-1.74A1.92,1.92,0,0,0,960.57,178.82Z"/><path d="M887.74,194.61h1.55v1.06h.05a2,2,0,0,1,1.91-1.23,1.72,1.72,0,0,1,1,.29l-.42,1.43a2,2,0,0,0-.89-.24c-1.09,0-1.61,1.06-1.61,2.32v3.63h-1.61Z"/><path d="M893.29,191H895v1.64h-1.73Zm.06,3.63H895v7.26h-1.61Z"/><path d="M898.15,199.79c0,.8.81,1.13,1.6,1.13,1.12,0,1.67-.39,1.67-1.06s-.37-.75-1.1-.87l-1.34-.24c-1.12-.18-2.19-.63-2.19-2s1.33-2.32,3-2.32,3,.68,3,2.2h-1.5c0-.72-.64-1.07-1.5-1.07s-1.49.35-1.49,1c0,.49.34.75,1.2.89l1.34.23c1.15.19,2.14.64,2.14,2,0,1.59-1.33,2.38-3.27,2.38s-3.14-.74-3.14-2.26Z"/><path d="M907.82,194.44a3,3,0,0,1,3.3,2.66h-1.59a1.6,1.6,0,0,0-1.71-1.37c-1.13,0-2,1-2,2.51s.82,2.52,2,2.52a1.59,1.59,0,0,0,1.71-1.37h1.59a3,3,0,0,1-3.3,2.66c-2.24,0-3.62-1.43-3.62-3.81A3.51,3.51,0,0,1,907.82,194.44Z"/><path d="M914.8,197.8l1.41-.24c.71-.12.94-.21.94-.49a1.27,1.27,0,0,0-1.43-1.43,1.35,1.35,0,0,0-1.53,1.28h-1.54c.09-1.5,1.25-2.48,3.07-2.48,2,0,3,1,3,2.66v4.77h-1.53V201h-.07a2.6,2.6,0,0,1-2.33,1.08c-1.59,0-2.45-.82-2.45-2S913.08,198.08,914.8,197.8Zm2.35.43a1.22,1.22,0,0,1-.75.34l-1.25.21c-.84.13-1.17.5-1.17,1.07s.41,1,1.23,1a1.83,1.83,0,0,0,1.94-1.95Z"/><path d="M920.84,191h1.6v10.89h-1.6Z"/><path d="M927.49,194.44a2.35,2.35,0,0,1,2.29,1.26h.06c-.08-.95-.08-1.95-.08-2.44V191h1.61v10.89h-1.53v-1.08h-.06a2.51,2.51,0,0,1-2.41,1.26c-1.83,0-3.24-1.34-3.24-3.75S925.63,194.44,927.49,194.44Zm.28,6.32c1.15,0,2-.92,2-2.52s-.84-2.51-2-2.51-2,1-2,2.57S926.64,200.76,927.77,200.76Z"/><path d="M935.57,197.8l1.41-.24c.72-.12.94-.21.94-.49a1.27,1.27,0,0,0-1.43-1.43,1.35,1.35,0,0,0-1.53,1.28h-1.53c.09-1.5,1.25-2.48,3.06-2.48,2,0,3,1,3,2.66v4.77H938V201h-.07a2.59,2.59,0,0,1-2.32,1.08c-1.59,0-2.46-.82-2.46-2S933.86,198.08,935.57,197.8Zm2.35.43a1.19,1.19,0,0,1-.74.34l-1.25.21c-.85.13-1.18.5-1.18,1.07s.42,1,1.24,1a1.83,1.83,0,0,0,1.93-1.95Z"/><path d="M941.61,194.61h1.55v1.06h.06a2.58,2.58,0,0,1,4.51.21,2.47,2.47,0,0,1,2.43-1.44c1.42,0,2.58.77,2.58,2.94v4.49h-1.61v-4.3c0-1.35-.48-1.83-1.4-1.83s-1.75.87-1.75,2.31v3.82h-1.61v-4.3c0-1.35-.52-1.83-1.4-1.83s-1.75.87-1.75,2.33v3.8h-1.61Z"/><path d="M957.89,194.44a3.21,3.21,0,0,1,3.39,3.54v.53h-5.34c.09,1.41.85,2.28,2,2.28a1.57,1.57,0,0,0,1.68-1.12h1.58a3.09,3.09,0,0,1-3.28,2.38c-2.32,0-3.64-1.41-3.64-3.79A3.54,3.54,0,0,1,957.89,194.44Zm-1.88,3h3.64c-.14-1.21-.75-1.74-1.76-1.74A1.92,1.92,0,0,0,956,197.43Z"/><path d="M962.9,194.61h1.55v1.06h.06a2.32,2.32,0,0,1,2.25-1.23c1.44,0,2.72.77,2.72,3v4.4h-1.61v-4.19c0-1.45-.61-1.94-1.54-1.94s-1.82.88-1.82,2.34v3.79H962.9Z"/><path d="M971.7,195.86h-1.37v-1.25h1.37v-2.2h1.61v2.2h1.85v1.25h-1.85v3.6c0,.78.26,1.07,1,1.07h.84v1.34h-1.11c-1.67,0-2.35-.7-2.35-2.32Z"/><path d="M976.55,191h1.73v1.64h-1.73Zm.06,3.63h1.61v7.26h-1.61Z"/></g><g id="Livello_2" data-name="Livello 2"><g class="cls-5"><circle class="cls-4" cx="150.75" cy="108.65" r="10.4"/></g></g></svg>