<?xml version="1.0" encoding="utf-8"?>
<!-- Generator: Adobe Illustrator 26.2.1, SVG Export Plug-In . SVG Version: 6.00 Build 0)  -->
<svg version="1.1" id="Livello_1" xmlns="http://www.w3.org/2000/svg" xmlns:xlink="http://www.w3.org/1999/xlink" x="0px" y="0px"
	 viewBox="0 0 1175 900" style="enable-background:new 0 0 1175 900;" xml:space="preserve">
<style type="text/css">
	.st0{fill:#B8B8B8;}
	.st1{fill:#EFEFEF;}
	.st2{fill:#FF3A00;}
	.st3{fill:#A8F9FF;}
	.st4{fill:none;stroke:#A8F9FF;stroke-width:0.6;stroke-linecap:round;stroke-miterlimit:10;}
	.st5{opacity:0.2;}
</style>
<g>
	<path d="M206.4,783.9V773h6.5v1.2h-5.2v3.7h4.7v1.2h-4.7v4.8L206.4,783.9z"/>
	<path d="M215.1,783.9V773h6.5v1.2h-5.2v3.7h4.9v1.2h-4.9v3.7h5.3v1.2L215.1,783.9z"/>
	<path d="M224,783.9V773h3.8c0.6,0,1.3,0.1,1.9,0.4c0.5,0.2,0.8,0.6,1.1,1c0.2,0.4,0.4,0.9,0.4,1.5c0,0.4-0.1,0.8-0.2,1.2
		c-0.2,0.3-0.4,0.5-0.6,0.7c-0.3,0.2-0.6,0.3-0.9,0.4v0.1c0.4,0,0.7,0.2,1,0.3c0.4,0.2,0.6,0.5,0.8,0.9c0.2,0.4,0.4,0.9,0.3,1.4
		c0,0.5-0.1,1-0.4,1.5c-0.3,0.4-0.7,0.8-1.2,1c-0.7,0.3-1.4,0.4-2.1,0.4L224,783.9z M225.3,777.8h2.4c0.4,0,0.7-0.1,1.1-0.2
		c0.3-0.1,0.6-0.4,0.8-0.7c0.2-0.3,0.3-0.6,0.3-1c0-0.5-0.2-0.9-0.5-1.2c-0.4-0.4-1-0.6-1.6-0.5h-2.5V777.8z M225.3,782.7h2.6
		c0.7,0.1,1.3-0.1,1.8-0.5c0.3-0.3,0.5-0.8,0.5-1.2c0-0.4-0.1-0.7-0.3-1c-0.2-0.3-0.5-0.6-0.8-0.8c-0.4-0.2-0.8-0.3-1.2-0.3h-2.7
		V782.7z"/>
</g>
<g>
	<path d="M131.5,776.4c-0.1-0.4-0.3-0.7-0.5-1c-0.4-0.6-0.9-1-1.6-1.2c-0.3-0.1-0.7-0.2-1.1-0.2c-0.6,0-1.2,0.2-1.7,0.5
		c-0.6,0.4-1,0.9-1.3,1.5c-0.3,0.7-0.5,1.6-0.5,2.4c0,0.8,0.1,1.6,0.5,2.4c0.3,0.6,0.7,1.1,1.3,1.5c0.5,0.3,1.2,0.5,1.8,0.5
		c0.6,0,1.1-0.1,1.6-0.4c0.5-0.3,0.9-0.7,1.1-1.1c0.3-0.5,0.4-1.1,0.4-1.7l0.4,0.1h-3.2v-1.2h4.1v1.2c0,0.8-0.2,1.6-0.6,2.3
		c-0.4,0.6-0.9,1.2-1.6,1.5c-0.7,0.4-1.5,0.6-2.3,0.5c-0.9,0-1.8-0.2-2.5-0.7c-0.7-0.5-1.3-1.1-1.7-1.9c-0.4-0.9-0.6-2-0.6-3
		c0-0.8,0.1-1.6,0.3-2.3c0.2-0.6,0.6-1.2,1-1.8c0.4-0.5,0.9-0.9,1.5-1.1c0.6-0.3,1.2-0.4,1.9-0.4c0.5,0,1.1,0.1,1.6,0.2
		c0.5,0.2,0.9,0.4,1.3,0.7c0.4,0.3,0.7,0.7,1,1.1c0.3,0.4,0.5,0.9,0.5,1.4L131.5,776.4z"/>
	<path d="M135.2,783.9V773h6.5v1.2h-5.2v3.7h4.9v1.2h-4.9v3.7h5.3v1.2L135.2,783.9z"/>
	<path d="M152.6,773v10.8h-1.3l-5.9-8.5h-0.1v8.5h-1.3V773h1.3l5.9,8.5h0.1V773H152.6z"/>
</g>
<g>
	<path d="M284.2,773h1.6l3.7,9h0.1l3.7-9h1.6v10.8h-1.2v-8.2h-0.1l-3.4,8.2h-1.2l-3.4-8.2h-0.1v8.2h-1.2V773z"/>
	<path d="M297.9,783.9h-1.4l4-10.8h1.4l4,10.8h-1.4l-3.2-9.1h-0.1L297.9,783.9z M298.4,779.6h5.5v1.2h-5.5L298.4,779.6z"/>
	<path d="M307.5,783.9V773h3.7c0.7,0,1.4,0.1,2.1,0.4c0.5,0.3,0.9,0.7,1.2,1.2c0.3,0.5,0.4,1.1,0.4,1.7c0,0.6-0.1,1.2-0.4,1.7
		c-0.3,0.5-0.7,0.9-1.2,1.2c-0.6,0.3-1.3,0.4-2.1,0.4h-3v-1.2h2.9c0.5,0,1-0.1,1.4-0.3c0.3-0.1,0.6-0.4,0.8-0.7
		c0.2-0.3,0.3-0.7,0.2-1.1c0-0.4-0.1-0.8-0.2-1.1c-0.2-0.3-0.4-0.6-0.8-0.8c-0.4-0.2-0.9-0.3-1.4-0.3h-2.3v9.7L307.5,783.9z
		 M312.6,779l2.7,4.9h-1.5l-2.6-4.9H312.6z"/>
</g>
<g>
	<path d="M369.8,783.9h-1.4l4-10.8h1.4l4,10.8h-1.4l-3.2-9.1H373L369.8,783.9z M370.3,779.6h5.5v1.2h-5.5V779.6z"/>
	<path d="M379.4,783.9V773h3.7c0.7,0,1.4,0.1,2.1,0.5c0.5,0.3,0.9,0.7,1.2,1.2c0.3,0.5,0.4,1.1,0.4,1.7c0,0.6-0.1,1.2-0.4,1.7
		c-0.3,0.5-0.7,1-1.2,1.2c-0.6,0.3-1.4,0.5-2.1,0.5h-2.6v-1.2h2.5c0.5,0,1-0.1,1.4-0.3c0.3-0.2,0.6-0.5,0.8-0.8
		c0.2-0.4,0.2-0.8,0.2-1.2c0-0.4-0.1-0.8-0.2-1.2c-0.2-0.3-0.4-0.6-0.8-0.8c-0.4-0.2-0.9-0.3-1.4-0.3h-2.3v9.7L379.4,783.9z"/>
	<path d="M388.8,783.9V773h3.7c0.7,0,1.4,0.1,2.1,0.4c0.5,0.3,0.9,0.7,1.2,1.2c0.3,0.5,0.4,1.1,0.4,1.7c0,0.6-0.1,1.2-0.4,1.7
		c-0.3,0.5-0.7,0.9-1.2,1.2c-0.6,0.3-1.4,0.4-2.1,0.4h-3v-1.2h2.9c0.5,0,1-0.1,1.4-0.3c0.3-0.1,0.6-0.4,0.8-0.7
		c0.3-0.7,0.3-1.5,0-2.2c-0.2-0.3-0.4-0.6-0.8-0.8c-0.4-0.2-0.9-0.3-1.4-0.3h-2.3v9.7L388.8,783.9z M393.9,779l2.7,4.9h-1.5
		l-2.6-4.9H393.9z"/>
</g>
<g>
	<path d="M449.8,773h1.6l3.7,9h0.1l3.7-9h1.6v10.8h-1.2v-8.2h-0.1l-3.4,8.2h-1.2l-3.4-8.2H451v8.2h-1.2L449.8,773z"/>
	<path d="M463.5,783.9h-1.4l4-10.8h1.4l4,10.8H470l-3.2-9.1h-0.1L463.5,783.9z M464,779.6h5.5v1.2H464L464,779.6z"/>
	<path d="M480,776.4c-0.1-0.4-0.3-0.7-0.5-1c-0.2-0.3-0.4-0.5-0.7-0.7c-0.3-0.2-0.6-0.4-0.9-0.5c-0.3-0.1-0.7-0.2-1.1-0.2
		c-0.6,0-1.2,0.2-1.8,0.5c-0.6,0.4-1,0.9-1.3,1.5c-0.6,1.5-0.6,3.2,0,4.8c0.3,0.6,0.7,1.1,1.3,1.5c0.5,0.3,1.2,0.5,1.8,0.5
		c0.6,0,1.1-0.1,1.6-0.4c0.5-0.3,0.9-0.7,1.1-1.1c0.3-0.5,0.4-1.1,0.4-1.7l0.4,0.1h-3.2v-1.2h4.1v1.2c0,0.8-0.2,1.6-0.6,2.3
		c-0.4,0.6-0.9,1.2-1.6,1.5c-1.5,0.8-3.3,0.7-4.8-0.1c-0.7-0.5-1.3-1.1-1.7-1.9c-0.4-0.9-0.6-2-0.6-3c0-0.8,0.1-1.6,0.4-2.3
		c0.2-0.6,0.6-1.2,1-1.8c0.4-0.5,0.9-0.9,1.5-1.1c0.6-0.3,1.3-0.4,1.9-0.4c0.5,0,1.1,0.1,1.6,0.2c0.5,0.2,0.9,0.4,1.3,0.7
		c0.4,0.3,0.7,0.7,1,1.1c0.3,0.4,0.4,0.9,0.5,1.4L480,776.4z"/>
</g>
<g>
	<path d="M544.5,776.4c-0.1-0.4-0.3-0.7-0.5-1c-0.4-0.6-0.9-1-1.5-1.2c-0.4-0.1-0.7-0.2-1.1-0.2c-0.6,0-1.2,0.2-1.8,0.5
		c-0.5,0.4-1,0.9-1.2,1.5c-0.6,1.5-0.6,3.2,0,4.8c0.3,0.6,0.7,1.1,1.3,1.5c0.5,0.3,1.2,0.5,1.8,0.5c0.6,0,1.1-0.1,1.7-0.4
		c0.5-0.3,0.9-0.7,1.1-1.1c0.3-0.5,0.4-1.1,0.4-1.7l0.4,0.1h-3.3v-1.2h4.1v1.2c0,0.8-0.2,1.6-0.6,2.3c-0.4,0.6-0.9,1.2-1.6,1.5
		c-0.7,0.4-1.5,0.6-2.3,0.5c-0.9,0-1.8-0.2-2.5-0.7c-0.7-0.5-1.3-1.1-1.7-1.9c-0.4-0.9-0.6-2-0.6-3c0-0.8,0.1-1.6,0.3-2.3
		c0.2-0.6,0.6-1.2,1-1.8c0.4-0.5,0.9-0.9,1.5-1.1c0.6-0.3,1.3-0.4,1.9-0.4c0.5,0,1.1,0.1,1.6,0.2c0.5,0.2,0.9,0.4,1.3,0.7
		c0.4,0.3,0.7,0.7,1,1.1c0.3,0.4,0.4,0.9,0.5,1.4L544.5,776.4z"/>
	<path d="M549.5,773v10.8h-1.3V773H549.5z"/>
	<path d="M559.2,773h1.3v7.2c0,0.7-0.2,1.4-0.5,2c-0.4,0.6-0.9,1.1-1.5,1.4c-1.4,0.7-3,0.7-4.4,0c-0.6-0.3-1.1-0.8-1.5-1.4
		c-0.4-0.6-0.5-1.3-0.5-2V773h1.3v7c0,0.5,0.1,1,0.3,1.4c0.2,0.4,0.6,0.8,1,1c1,0.5,2.1,0.5,3.1,0c0.4-0.2,0.8-0.6,1-1
		c0.2-0.4,0.4-0.9,0.3-1.4L559.2,773z"/>
</g>
<g>
	<path d="M618.3,783.9V773h1.3v9.7h5v1.2L618.3,783.9z"/>
	<path d="M633.7,773h1.3v7.2c0,0.7-0.2,1.4-0.5,2c-0.4,0.6-0.9,1.1-1.5,1.4c-0.7,0.3-1.5,0.5-2.2,0.5c-0.8,0-1.5-0.2-2.2-0.5
		c-0.6-0.3-1.1-0.8-1.5-1.4c-0.4-0.6-0.5-1.3-0.5-2V773h1.3v7c0,0.5,0.1,1,0.3,1.4c0.2,0.4,0.6,0.8,1,1c1,0.5,2.1,0.5,3.1,0
		c0.4-0.2,0.8-0.6,1-1c0.2-0.4,0.4-0.9,0.3-1.4L633.7,773z"/>
	<path d="M645.1,776.4c-0.1-0.4-0.3-0.7-0.5-1c-0.4-0.6-0.9-1-1.5-1.2c-0.4-0.1-0.7-0.2-1.1-0.2c-0.6,0-1.2,0.2-1.8,0.5
		c-0.5,0.4-1,0.9-1.2,1.5c-0.3,0.7-0.5,1.6-0.5,2.4c0,0.8,0.1,1.6,0.5,2.4c0.3,0.6,0.7,1.1,1.3,1.5c0.5,0.3,1.2,0.5,1.8,0.5
		c0.6,0,1.1-0.1,1.6-0.4c0.5-0.3,0.9-0.7,1.1-1.1c0.3-0.5,0.4-1.1,0.4-1.7l0.4,0.1h-3.3v-1.2h4.1v1.2c0,0.8-0.2,1.6-0.6,2.3
		c-0.4,0.6-0.9,1.2-1.6,1.5c-0.7,0.4-1.5,0.6-2.3,0.5c-0.9,0-1.8-0.2-2.5-0.7c-0.7-0.5-1.3-1.1-1.7-1.9c-0.4-0.9-0.6-2-0.6-3
		c0-0.8,0.1-1.6,0.3-2.3c0.2-0.6,0.6-1.2,1-1.8c0.4-0.5,0.9-0.9,1.5-1.1c0.6-0.3,1.2-0.4,1.9-0.4c0.5,0,1.1,0.1,1.6,0.2
		c0.5,0.2,0.9,0.4,1.3,0.7c0.4,0.3,0.7,0.7,1,1.1c0.3,0.4,0.4,0.9,0.5,1.4L645.1,776.4z"/>
</g>
<g>
	<path d="M702.1,783.9h-1.4l4-10.8h1.3l4,10.8h-1.4l-3.2-9.1h-0.1L702.1,783.9z M702.6,779.6h5.5v1.2h-5.5V779.6z"/>
	<path d="M718.6,776.4c-0.1-0.4-0.3-0.7-0.5-1c-0.4-0.6-0.9-1-1.5-1.2c-0.4-0.1-0.7-0.2-1.1-0.2c-0.6,0-1.2,0.2-1.8,0.5
		c-0.5,0.4-1,0.9-1.2,1.5c-0.3,0.7-0.5,1.6-0.5,2.4c0,0.8,0.1,1.6,0.5,2.4c0.5,1.2,1.7,2,3.1,2c0.6,0,1.1-0.1,1.6-0.4
		c0.5-0.3,0.9-0.7,1.1-1.1c0.3-0.5,0.4-1.1,0.4-1.7l0.4,0.1h-3.3v-1.2h4.1v1.2c0,0.8-0.2,1.6-0.6,2.3c-0.4,0.6-0.9,1.2-1.6,1.5
		c-0.7,0.4-1.5,0.6-2.3,0.5c-0.9,0-1.8-0.2-2.5-0.7c-0.7-0.5-1.3-1.1-1.7-1.9c-0.4-0.9-0.6-2-0.6-3c0-0.8,0.1-1.6,0.3-2.3
		c0.2-0.6,0.6-1.2,1-1.8c0.4-0.5,0.9-0.8,1.5-1.1c0.6-0.3,1.3-0.4,1.9-0.4c0.5,0,1.1,0.1,1.6,0.2c0.5,0.2,0.9,0.4,1.3,0.7
		c0.4,0.3,0.7,0.7,1,1.1c0.3,0.4,0.4,0.9,0.5,1.4L718.6,776.4z"/>
	<path d="M731.3,778.5c0,1-0.2,2.1-0.6,3c-0.4,0.8-1,1.5-1.7,1.9c-1.5,0.9-3.4,0.9-4.9,0c-0.7-0.5-1.3-1.1-1.7-1.9
		c-0.8-1.9-0.8-4,0-5.9c0.4-0.8,1-1.5,1.7-1.9c1.5-0.9,3.4-0.9,4.9,0c0.7,0.5,1.3,1.1,1.7,1.9C731.2,776.4,731.4,777.4,731.3,778.5z
		 M730.1,778.5c0-0.8-0.1-1.6-0.5-2.4c-0.3-0.6-0.7-1.1-1.3-1.5c-1.1-0.7-2.5-0.7-3.6,0c-0.6,0.4-1,0.9-1.3,1.5
		c-0.6,1.5-0.6,3.2,0,4.8c0.3,0.6,0.7,1.1,1.3,1.5c1.1,0.7,2.5,0.7,3.6,0c0.6-0.4,1-0.9,1.3-1.5C730,780.1,730.1,779.3,730.1,778.5
		L730.1,778.5z"/>
</g>
<g>
	<path d="M792.9,775.7c0-0.5-0.3-1-0.8-1.2c-0.5-0.3-1.1-0.5-1.7-0.4c-0.4,0-0.9,0.1-1.3,0.2c-0.3,0.1-0.6,0.4-0.8,0.6
		c-0.2,0.3-0.3,0.6-0.3,0.9c0,0.3,0.1,0.5,0.2,0.7c0.1,0.2,0.3,0.4,0.5,0.5c0.2,0.1,0.4,0.2,0.7,0.3c0.2,0.1,0.4,0.2,0.7,0.2
		l1.1,0.3c0.3,0.1,0.6,0.2,1,0.3c0.4,0.1,0.7,0.3,1,0.5c0.3,0.2,0.6,0.5,0.8,0.9c0.2,0.4,0.3,0.8,0.3,1.3c0,0.6-0.2,1.1-0.5,1.6
		c-0.3,0.5-0.8,0.9-1.3,1.1c-1.3,0.5-2.8,0.5-4.1,0c-0.5-0.2-1-0.6-1.3-1c-0.3-0.5-0.5-1-0.5-1.6h1.3c0,0.4,0.2,0.7,0.4,1
		c0.2,0.3,0.6,0.5,0.9,0.6c0.4,0.1,0.8,0.2,1.2,0.2c0.5,0,0.9-0.1,1.3-0.2c0.4-0.1,0.7-0.4,1-0.7c0.2-0.3,0.3-0.6,0.3-1
		c0-0.3-0.1-0.6-0.3-0.9c-0.2-0.2-0.5-0.4-0.8-0.5c-0.3-0.1-0.7-0.3-1.1-0.4l-1.3-0.4c-0.7-0.2-1.4-0.5-2-1
		c-0.5-0.5-0.8-1.1-0.7-1.8c0-0.6,0.2-1.1,0.5-1.6c0.3-0.5,0.8-0.8,1.3-1.1c0.6-0.3,1.2-0.4,1.9-0.4c0.6,0,1.3,0.1,1.9,0.4
		c0.5,0.2,1,0.6,1.3,1c0.3,0.4,0.5,0.9,0.5,1.5L792.9,775.7z"/>
	<path d="M796.4,783.9V773h6.6v1.2h-5.2v3.7h4.9v1.2h-4.9v3.7h5.3v1.2L796.4,783.9z"/>
	<path d="M804.7,774.2V773h8.1v1.2h-3.4v9.7h-1.3v-9.6H804.7z"/>
</g>
<g>
	<path d="M878.8,778.5c0,1-0.2,2.1-0.6,3c-0.8,1.6-2.4,2.6-4.2,2.5c-0.9,0-1.7-0.2-2.5-0.7c-0.7-0.5-1.3-1.1-1.7-1.9
		c-0.8-1.9-0.8-4,0-5.9c0.4-0.8,1-1.5,1.7-1.9c1.5-0.9,3.4-0.9,4.9,0c0.7,0.5,1.3,1.1,1.7,1.9C878.6,776.4,878.8,777.4,878.8,778.5z
		 M877.5,778.5c0-0.8-0.1-1.6-0.5-2.4c-0.3-0.6-0.7-1.1-1.3-1.5c-1.1-0.7-2.5-0.7-3.5,0c-0.6,0.4-1,0.9-1.3,1.5
		c-0.6,1.5-0.6,3.2,0,4.8c0.3,0.6,0.7,1.1,1.3,1.5c1.1,0.7,2.5,0.7,3.5,0c0.6-0.4,1-0.9,1.3-1.5
		C877.4,780.1,877.6,779.3,877.5,778.5z"/>
	<path d="M880,774.2V773h8.1v1.2h-3.4v9.7h-1.3v-9.6H880z"/>
	<path d="M889.5,774.2V773h8.1v1.2h-3.4v9.7h-1.3v-9.6H889.5z"/>
</g>
<g>
	<path d="M959.9,773v10.8h-1.3l-5.9-8.5h-0.1v8.5h-1.3V773h1.3l5.9,8.5h0.1V773H959.9z"/>
	<path d="M971.7,778.5c0,1-0.2,2.1-0.6,3c-0.4,0.8-1,1.5-1.7,1.9c-0.7,0.5-1.6,0.7-2.5,0.7c-0.9,0-1.7-0.2-2.5-0.7
		c-0.7-0.5-1.3-1.1-1.7-1.9c-0.8-1.9-0.8-4,0-5.9c0.4-0.8,1-1.5,1.7-1.9c0.7-0.5,1.6-0.7,2.5-0.7c0.9,0,1.7,0.2,2.5,0.7
		c0.7,0.5,1.3,1.1,1.7,1.9C971.5,776.4,971.7,777.4,971.7,778.5z M970.4,778.5c0-0.8-0.1-1.6-0.5-2.4c-0.3-0.6-0.7-1.1-1.3-1.5
		c-1.1-0.7-2.5-0.7-3.6,0c-0.6,0.4-1,0.9-1.3,1.5c-0.6,1.5-0.6,3.2,0,4.8c0.3,0.6,0.7,1.1,1.3,1.5c1.1,0.7,2.5,0.7,3.6,0
		c0.6-0.4,1-0.9,1.3-1.5C970.3,780.1,970.4,779.3,970.4,778.5z"/>
	<path d="M973.8,773l3.2,9.1h0.1l3.2-9.1h1.4l-4,10.8h-1.4l-4-10.8H973.8z"/>
</g>
<g>
	<path d="M1039.5,783.9h-3.3V773h3.5c0.9,0,1.9,0.2,2.7,0.6c0.7,0.4,1.3,1.1,1.7,1.9c0.4,0.9,0.6,1.9,0.6,2.9c0,1-0.2,2-0.6,2.9
		c-0.4,0.8-1,1.4-1.8,1.9C1041.5,783.6,1040.5,783.9,1039.5,783.9z M1037.5,782.7h2c0.8,0,1.5-0.2,2.2-0.5c0.6-0.3,1-0.9,1.3-1.5
		c0.3-0.7,0.5-1.5,0.4-2.3c0-0.8-0.1-1.5-0.4-2.2c-0.3-0.6-0.7-1.1-1.3-1.5c-0.6-0.4-1.4-0.5-2.1-0.5h-2.1L1037.5,782.7z"/>
	<path d="M1048.2,773v10.8h-1.3V773H1048.2z"/>
	<path d="M1059.5,776.4h-1.3c-0.1-0.4-0.2-0.7-0.4-1c-0.2-0.3-0.4-0.5-0.7-0.7c-0.3-0.2-0.6-0.3-0.9-0.4c-0.3-0.1-0.7-0.1-1-0.2
		c-0.6,0-1.2,0.2-1.8,0.5c-0.6,0.4-1,0.9-1.3,1.5c-0.6,1.5-0.6,3.2,0,4.8c0.3,0.6,0.7,1.1,1.3,1.5c0.5,0.3,1.1,0.5,1.8,0.5
		c0.3,0,0.7-0.1,1-0.2c0.3-0.1,0.6-0.2,0.9-0.4c0.3-0.2,0.5-0.4,0.7-0.7c0.2-0.3,0.3-0.6,0.4-1h1.3c-0.1,0.5-0.2,1.1-0.5,1.5
		c-0.3,0.4-0.6,0.8-1,1.1c-0.4,0.3-0.8,0.5-1.3,0.7c-0.5,0.2-1,0.2-1.5,0.2c-0.9,0-1.7-0.2-2.5-0.7c-0.7-0.5-1.3-1.1-1.7-1.9
		c-0.8-1.9-0.8-4,0-5.9c0.4-0.8,1-1.5,1.7-1.9c0.7-0.5,1.6-0.7,2.5-0.7c0.5,0,1,0.1,1.5,0.2c0.5,0.2,0.9,0.4,1.3,0.7
		c0.4,0.3,0.7,0.7,1,1.1C1059.3,775.4,1059.4,775.9,1059.5,776.4z"/>
</g>
<g>
	<path class="st0" d="M71.9,766.1c-0.7,0-1.4-0.2-2-0.7c-0.6-0.5-1-1.1-1.3-1.9c-0.6-2-0.6-4,0-6c0.2-0.7,0.7-1.4,1.3-1.9
		c1.2-0.9,2.8-0.9,4,0c0.6,0.5,1.1,1.2,1.3,1.9c0.3,1,0.5,2,0.4,3c0,1-0.1,2-0.4,3c-0.2,0.7-0.7,1.4-1.3,1.9
		C73.3,765.9,72.6,766.1,71.9,766.1z M71.9,764.9c0.8,0,1.5-0.4,1.8-1.1c0.5-1,0.7-2.1,0.7-3.2c0-0.8-0.1-1.6-0.3-2.4
		c-0.1-0.6-0.4-1.1-0.8-1.5c-0.4-0.3-0.8-0.5-1.3-0.5c-0.8,0-1.5,0.4-1.8,1.2c-0.5,1-0.7,2.1-0.7,3.3c0,0.8,0.1,1.6,0.3,2.4
		c0.1,0.6,0.4,1.1,0.8,1.5C70.9,764.7,71.4,764.9,71.9,764.9z"/>
</g>
<g>
	<path class="st0" d="M65.3,696.8v10.8H64v-9.4h-0.1l-2.6,1.8v-1.3l2.7-1.8H65.3z"/>
	<path class="st0" d="M71.9,707.8c-0.7,0-1.4-0.2-2-0.7c-0.6-0.5-1-1.2-1.3-1.9c-0.6-2-0.6-4,0-6c0.2-0.7,0.7-1.4,1.3-1.9
		c1.2-0.8,2.8-0.8,4,0c0.6,0.5,1,1.2,1.3,1.9c0.6,2,0.6,4,0,6c-0.2,0.7-0.7,1.4-1.3,1.9C73.3,707.6,72.6,707.8,71.9,707.8z
		 M71.9,706.6c0.8,0,1.5-0.4,1.8-1.1c0.5-1,0.7-2.1,0.7-3.3c0-0.8-0.1-1.6-0.3-2.4c-0.1-0.6-0.4-1.1-0.9-1.5
		c-0.4-0.3-0.8-0.5-1.3-0.5c-0.8,0-1.5,0.5-1.8,1.2c-0.5,1-0.7,2.1-0.7,3.3c0,0.8,0.1,1.6,0.3,2.4c0.1,0.6,0.4,1.1,0.8,1.5
		C70.9,706.5,71.4,706.6,71.9,706.6L71.9,706.6z"/>
</g>
<g>
	<path class="st0" d="M59.4,649.3v-1l3.6-3.9c0.4-0.5,0.8-0.9,1-1.2c0.2-0.3,0.5-0.6,0.6-1c0.1-0.3,0.2-0.7,0.2-1
		c0-0.4-0.1-0.7-0.3-1c-0.2-0.3-0.4-0.5-0.7-0.7c-0.3-0.2-0.7-0.2-1.1-0.2c-0.4,0-0.7,0.1-1.1,0.3c-0.3,0.2-0.6,0.4-0.7,0.7
		c-0.2,0.3-0.3,0.7-0.2,1.1h-1.2c0-0.6,0.1-1.2,0.4-1.7c0.3-0.5,0.7-0.9,1.2-1.1c0.5-0.3,1.1-0.4,1.7-0.4c0.6,0,1.2,0.1,1.7,0.4
		c0.5,0.2,0.9,0.6,1.2,1.1c0.3,0.5,0.4,1,0.4,1.5c0,0.4-0.1,0.8-0.2,1.2c-0.2,0.5-0.4,0.9-0.7,1.3c-0.4,0.5-0.8,1-1.5,1.7l-2.4,2.6
		v0.1h5v1.2L59.4,649.3z"/>
	<path class="st0" d="M71.9,649.5c-0.7,0-1.4-0.2-2-0.7c-0.6-0.5-1-1.2-1.3-1.9c-0.6-2-0.6-4,0-6c0.2-0.7,0.7-1.4,1.3-1.9
		c1.2-0.9,2.8-0.9,4,0c0.6,0.5,1,1.2,1.3,1.9c0.6,2,0.6,4,0,6c-0.2,0.7-0.7,1.4-1.3,1.9C73.3,649.3,72.6,649.5,71.9,649.5z
		 M71.9,648.3c0.8,0,1.5-0.4,1.8-1.1c0.5-1,0.7-2.1,0.7-3.3c0-0.8-0.1-1.6-0.3-2.4c-0.1-0.6-0.4-1.1-0.8-1.5
		c-0.4-0.3-0.8-0.5-1.3-0.5c-0.8,0-1.5,0.4-1.8,1.2c-0.5,1-0.7,2.1-0.7,3.3c0,0.8,0.1,1.6,0.3,2.4c0.1,0.6,0.4,1.1,0.8,1.5
		C70.9,648.2,71.4,648.4,71.9,648.3z"/>
</g>
<g>
	<path class="st0" d="M62.5,591.2c-0.6,0-1.3-0.1-1.9-0.4c-0.5-0.2-1-0.6-1.3-1c-0.3-0.4-0.5-1-0.5-1.5h1.3c0,0.3,0.2,0.6,0.4,0.9
		c0.2,0.3,0.5,0.5,0.8,0.6c0.4,0.1,0.7,0.2,1.1,0.2c0.4,0,0.8-0.1,1.2-0.2c0.3-0.1,0.6-0.4,0.8-0.7c0.2-0.3,0.3-0.6,0.3-1
		c0-0.4-0.1-0.7-0.3-1c-0.2-0.3-0.5-0.6-0.9-0.7c-0.4-0.2-0.9-0.3-1.4-0.3h-0.9V585h0.9c0.4,0,0.8-0.1,1.1-0.2
		c0.3-0.1,0.6-0.4,0.8-0.7c0.2-0.3,0.3-0.6,0.3-1c0-0.3-0.1-0.7-0.2-1c-0.2-0.3-0.4-0.5-0.7-0.6c-0.3-0.2-0.7-0.2-1-0.2
		c-0.4,0-0.7,0.1-1.1,0.2c-0.3,0.1-0.6,0.3-0.8,0.6c-0.2,0.3-0.3,0.6-0.3,0.9h-1.3c0-0.5,0.2-1.1,0.5-1.5c0.3-0.4,0.8-0.8,1.3-1
		c0.5-0.2,1.1-0.4,1.7-0.4c0.6,0,1.2,0.1,1.7,0.4c0.5,0.2,0.8,0.6,1.1,1.1c0.3,0.4,0.4,0.9,0.4,1.4c0,1.1-0.7,2.1-1.8,2.4v0.1
		c0.6,0.1,1.2,0.4,1.6,0.9c0.4,0.5,0.6,1.1,0.6,1.7c0,0.6-0.2,1.1-0.5,1.6c-0.3,0.5-0.8,0.9-1.3,1.1
		C63.8,591.1,63.2,591.2,62.5,591.2z"/>
	<path class="st0" d="M71.9,591.2c-0.7,0-1.4-0.2-2-0.7c-0.6-0.5-1-1.2-1.3-1.9c-0.6-2-0.6-4,0-6c0.2-0.7,0.7-1.4,1.3-1.9
		c1.2-0.9,2.8-0.9,4,0c0.6,0.5,1,1.2,1.3,1.9c0.3,1,0.5,2,0.4,3c0,1-0.1,2-0.4,3c-0.2,0.7-0.7,1.4-1.3,1.9
		C73.3,591,72.6,591.2,71.9,591.2z M71.9,590.1c0.8,0,1.5-0.4,1.8-1.2c0.5-1,0.7-2.1,0.7-3.2c0-0.8-0.1-1.6-0.3-2.4
		c-0.1-0.6-0.4-1.1-0.8-1.5c-0.4-0.3-0.8-0.5-1.3-0.5c-0.8,0-1.5,0.4-1.8,1.2c-0.5,1-0.7,2.1-0.7,3.3c0,0.8,0.1,1.6,0.3,2.4
		c0.1,0.6,0.4,1.1,0.8,1.5C70.9,589.9,71.4,590.1,71.9,590.1z"/>
</g>
<g>
	<path class="st0" d="M58.6,530.6v-1.1l4.8-7.5h0.8v1.7h-0.5l-3.6,5.7v0.1h6.4v1.2H58.6z M63.7,532.8V522h1.2v10.8L63.7,532.8z"/>
	<path class="st0" d="M71.9,532.9c-0.7,0-1.4-0.2-2-0.7c-0.6-0.5-1-1.1-1.3-1.9c-0.6-2-0.6-4,0-6c0.2-0.7,0.7-1.4,1.3-1.9
		c1.2-0.9,2.8-0.9,4,0c0.6,0.5,1,1.2,1.3,1.9c0.6,2,0.6,4,0,6c-0.2,0.7-0.7,1.4-1.3,1.9C73.3,532.7,72.6,533,71.9,532.9z
		 M71.9,531.8c0.8,0,1.5-0.4,1.8-1.1c0.5-1,0.7-2.1,0.7-3.2c0-0.8-0.1-1.6-0.3-2.4c-0.1-0.6-0.4-1.1-0.8-1.5
		c-0.4-0.3-0.8-0.5-1.3-0.5c-0.8,0-1.5,0.4-1.8,1.2c-0.5,1-0.7,2.1-0.7,3.3c0,0.8,0.1,1.6,0.3,2.4c0.1,0.6,0.4,1.1,0.8,1.5
		C70.9,531.6,71.4,531.8,71.9,531.8z"/>
</g>
<g>
	<path class="st0" d="M62.7,474.7c-0.6,0-1.1-0.1-1.7-0.4c-0.5-0.2-0.9-0.6-1.2-1c-0.3-0.4-0.5-0.9-0.5-1.5h1.3
		c0,0.5,0.3,0.9,0.7,1.2c0.4,0.3,0.9,0.5,1.4,0.5c0.8,0,1.6-0.4,2-1.2c0.2-0.4,0.3-0.8,0.3-1.2c0-0.4-0.1-0.9-0.3-1.3
		c-0.4-0.8-1.2-1.2-2.1-1.2c-0.3,0-0.7,0.1-1,0.1c-0.3,0.1-0.6,0.2-0.9,0.4l-1.2-0.2l0.7-5.3h5.6v1.2h-4.5l-0.4,3.2H61
		c0.3-0.2,0.5-0.3,0.8-0.4c0.3-0.1,0.7-0.2,1-0.2c0.6,0,1.2,0.1,1.8,0.5c0.5,0.3,0.9,0.8,1.2,1.3c0.3,0.6,0.4,1.2,0.4,1.9
		c0,0.6-0.1,1.3-0.5,1.9c-0.3,0.5-0.7,1-1.3,1.3C64,474.5,63.3,474.7,62.7,474.7z"/>
	<path class="st0" d="M71.9,474.7c-0.7,0-1.4-0.2-2-0.7c-0.6-0.5-1-1.1-1.3-1.9c-0.6-2-0.6-4,0-6c0.2-0.7,0.7-1.4,1.3-1.9
		c1.2-0.9,2.8-0.9,4,0c0.6,0.5,1.1,1.2,1.3,1.9c0.6,2,0.6,4,0,6c-0.2,0.7-0.7,1.4-1.3,1.9C73.3,474.4,72.6,474.7,71.9,474.7z
		 M71.9,473.5c0.8,0,1.5-0.4,1.8-1.1c0.5-1,0.7-2.1,0.7-3.2c0-0.8-0.1-1.6-0.3-2.4c-0.1-0.6-0.4-1.1-0.8-1.5
		c-0.4-0.3-0.8-0.5-1.3-0.5c-0.8,0-1.5,0.4-1.8,1.1c-0.5,1-0.7,2.1-0.7,3.3c0,0.8,0.1,1.6,0.3,2.4c0.1,0.6,0.4,1.1,0.8,1.5
		C70.9,473.3,71.4,473.5,71.9,473.5z"/>
</g>
<g>
	<path class="st0" d="M62.7,416.4c-0.5,0-0.9-0.1-1.3-0.3c-0.5-0.2-0.9-0.5-1.2-0.8c-0.4-0.5-0.7-1-0.9-1.6
		c-0.2-0.8-0.4-1.6-0.3-2.5c0-0.9,0.1-1.7,0.3-2.5c0.1-0.7,0.4-1.3,0.8-1.9c0.3-0.5,0.7-0.9,1.2-1.2c0.5-0.3,1.1-0.4,1.6-0.4
		c0.6,0,1.1,0.1,1.6,0.4c0.5,0.2,0.9,0.6,1.2,1c0.3,0.4,0.5,0.9,0.6,1.5h-1.3c-0.1-0.5-0.3-0.9-0.7-1.2c-0.4-0.3-0.9-0.5-1.4-0.5
		c-0.8,0-1.6,0.4-2,1.1c-0.5,0.9-0.8,2-0.7,3.1h0.1c0.2-0.3,0.4-0.6,0.7-0.8c0.3-0.2,0.6-0.4,0.9-0.5c0.3-0.1,0.7-0.2,1-0.2
		c0.6,0,1.2,0.2,1.7,0.5c0.5,0.3,0.9,0.7,1.2,1.3c0.3,0.6,0.5,1.2,0.5,1.9c0,0.6-0.1,1.3-0.4,1.8c-0.3,0.5-0.7,1-1.2,1.3
		C64,416.2,63.3,416.4,62.7,416.4z M62.7,415.2c0.4,0,0.8-0.1,1.2-0.3c0.3-0.2,0.6-0.5,0.8-0.9c0.2-0.4,0.3-0.8,0.3-1.2
		c0-0.4-0.1-0.8-0.3-1.2c-0.2-0.4-0.5-0.7-0.8-0.9c-0.4-0.2-0.8-0.3-1.2-0.3c-0.3,0-0.6,0.1-0.9,0.2c-0.3,0.1-0.5,0.3-0.8,0.5
		c-0.4,0.5-0.7,1.1-0.7,1.7c0,0.4,0.1,0.8,0.3,1.2c0.2,0.4,0.5,0.7,0.8,0.9C61.8,415.1,62.3,415.2,62.7,415.2z"/>
	<path class="st0" d="M71.9,416.4c-0.7,0-1.4-0.2-2-0.7c-0.6-0.5-1-1.1-1.3-1.9c-0.6-2-0.6-4,0-6c0.2-0.7,0.7-1.4,1.3-1.9
		c1.2-0.8,2.8-0.8,4,0c0.6,0.5,1,1.2,1.3,1.9c0.6,2,0.6,4,0,6c-0.2,0.7-0.7,1.4-1.3,1.9C73.3,416.2,72.6,416.4,71.9,416.4z
		 M71.9,415.2c0.8,0,1.5-0.4,1.8-1.1c0.5-1,0.7-2.1,0.7-3.2c0-0.8-0.1-1.6-0.3-2.4c-0.1-0.6-0.4-1.1-0.8-1.5
		c-0.4-0.3-0.8-0.5-1.3-0.5c-0.8,0-1.5,0.4-1.8,1.1c-0.5,1-0.7,2.1-0.7,3.3c0,0.8,0.1,1.6,0.3,2.4c0.1,0.6,0.4,1.1,0.8,1.5
		C70.9,415,71.4,415.2,71.9,415.2z"/>
</g>
<g>
	<path class="st0" d="M60.4,357.9l4.8-9.6v-0.1h-5.6v-1.2h6.9v1.2l-4.8,9.6H60.4z"/>
	<path class="st0" d="M71.9,358.1c-0.7,0-1.4-0.2-2-0.6c-0.6-0.5-1-1.2-1.3-1.9c-0.6-2-0.6-4,0-6c0.2-0.7,0.7-1.4,1.3-1.9
		c1.2-0.9,2.8-0.9,4,0c0.6,0.5,1,1.2,1.3,1.9c0.6,2,0.6,4,0,6c-0.2,0.7-0.7,1.4-1.3,1.9C73.3,357.9,72.6,358.1,71.9,358.1z
		 M71.9,356.9c0.8,0,1.5-0.4,1.8-1.1c0.5-1,0.7-2.1,0.7-3.3c0-0.8-0.1-1.6-0.3-2.4c-0.1-0.6-0.4-1.1-0.8-1.5
		c-0.4-0.3-0.8-0.5-1.3-0.5c-0.8,0-1.5,0.4-1.8,1.1c-0.5,1-0.7,2.1-0.7,3.3c0,0.8,0.1,1.6,0.3,2.4c0.1,0.6,0.4,1.1,0.8,1.5
		C70.9,356.8,71.4,356.9,71.9,356.9z"/>
</g>
<g>
	<path class="st0" d="M62.7,299.8c-0.7,0-1.3-0.1-1.9-0.4c-0.5-0.2-1-0.6-1.3-1.1c-0.3-0.5-0.5-1-0.5-1.6c0-0.4,0.1-0.9,0.3-1.3
		c0.2-0.4,0.4-0.7,0.8-1c0.3-0.3,0.7-0.4,1.1-0.5v0c-0.5-0.1-0.9-0.4-1.2-0.9c-0.3-0.4-0.5-1-0.5-1.5c0-0.5,0.1-1,0.4-1.5
		c0.3-0.4,0.7-0.8,1.2-1c1.1-0.5,2.3-0.5,3.4,0c0.5,0.2,0.9,0.6,1.2,1c0.3,0.4,0.4,1,0.4,1.5c0,0.5-0.2,1.1-0.5,1.5
		c-0.3,0.4-0.7,0.7-1.2,0.9l0,0c0.4,0.1,0.8,0.2,1.1,0.5c0.3,0.3,0.6,0.6,0.8,1c0.2,0.4,0.3,0.8,0.3,1.3c0,0.6-0.2,1.1-0.5,1.6
		c-0.3,0.5-0.8,0.8-1.3,1.1C64,299.7,63.3,299.8,62.7,299.8z M62.7,298.6c0.4,0,0.9-0.1,1.3-0.2c0.3-0.1,0.6-0.4,0.8-0.7
		c0.2-0.3,0.3-0.6,0.3-1c0-0.4-0.1-0.8-0.3-1.1c-0.2-0.3-0.5-0.6-0.8-0.7c-0.4-0.2-0.8-0.3-1.2-0.3c-0.4,0-0.9,0.1-1.2,0.3
		c-0.3,0.2-0.6,0.4-0.8,0.7c-0.2,0.3-0.3,0.7-0.3,1.1c0,0.4,0.1,0.7,0.3,1c0.2,0.3,0.5,0.5,0.8,0.7
		C61.8,298.6,62.2,298.7,62.7,298.6z M62.7,293.5c0.3,0,0.7-0.1,1-0.2c0.3-0.1,0.5-0.4,0.7-0.6c0.4-0.6,0.4-1.3,0-1.9
		c-0.2-0.3-0.4-0.5-0.7-0.6c-0.3-0.2-0.7-0.2-1-0.2c-0.4,0-0.7,0.1-1.1,0.2c-0.3,0.1-0.5,0.4-0.7,0.6c-0.3,0.6-0.3,1.3,0,1.9
		c0.2,0.3,0.4,0.5,0.7,0.6C61.9,293.4,62.3,293.5,62.7,293.5L62.7,293.5z"/>
	<path class="st0" d="M71.9,299.8c-0.7,0-1.4-0.2-2-0.6c-0.6-0.5-1-1.2-1.3-1.9c-0.6-2-0.6-4,0-6c0.2-0.7,0.7-1.4,1.3-1.9
		c1.2-0.9,2.8-0.9,4,0c0.6,0.5,1,1.2,1.3,1.9c0.6,2,0.6,4,0,6c-0.2,0.7-0.7,1.4-1.3,1.9C73.3,299.6,72.6,299.8,71.9,299.8z
		 M71.9,298.6c0.8,0,1.5-0.4,1.8-1.1c0.5-1,0.7-2.1,0.7-3.2c0-0.8-0.1-1.6-0.3-2.4c-0.1-0.6-0.4-1.1-0.9-1.5
		c-0.4-0.3-0.8-0.5-1.3-0.5c-0.8,0-1.5,0.5-1.8,1.2c-0.5,1-0.7,2.1-0.7,3.3c0,0.8,0.1,1.6,0.3,2.4c0.1,0.6,0.4,1.1,0.8,1.5
		C70.9,298.5,71.4,298.7,71.9,298.6z"/>
</g>
<g>
	<path class="st0" d="M62.5,230.4c0.5,0,0.9,0.1,1.3,0.2c0.5,0.2,0.9,0.5,1.2,0.8c0.4,0.4,0.7,1,0.9,1.6c0.2,0.8,0.4,1.6,0.3,2.5
		c0,0.9-0.1,1.7-0.3,2.6c-0.1,0.7-0.4,1.3-0.8,1.9c-0.3,0.5-0.7,0.9-1.2,1.2c-0.5,0.3-1.1,0.4-1.6,0.4c-0.6,0-1.1-0.1-1.6-0.4
		c-0.5-0.2-0.9-0.6-1.2-1c-0.3-0.5-0.5-1-0.6-1.5h1.3c0.1,0.5,0.3,0.9,0.7,1.2c0.4,0.3,0.9,0.5,1.4,0.5c0.8,0,1.6-0.4,2-1.1
		c0.5-0.9,0.8-2,0.7-3.1H65c-0.2,0.3-0.4,0.6-0.7,0.8c-0.3,0.2-0.6,0.4-0.9,0.5c-0.3,0.1-0.7,0.2-1.1,0.2c-0.6,0-1.2-0.2-1.7-0.5
		c-0.5-0.3-0.9-0.8-1.2-1.3c-0.3-0.6-0.5-1.2-0.5-1.9c0-0.6,0.1-1.3,0.4-1.8c0.3-0.5,0.7-1,1.3-1.3
		C61.2,230.6,61.9,230.4,62.5,230.4z M62.5,231.6c-0.4,0-0.8,0.1-1.2,0.3c-0.4,0.2-0.6,0.5-0.8,0.9c-0.2,0.4-0.3,0.8-0.3,1.2
		c0,0.4,0.1,0.8,0.3,1.2c0.2,0.4,0.5,0.7,0.8,0.9c0.6,0.4,1.4,0.4,2.1,0.1c0.3-0.1,0.5-0.3,0.8-0.6c0.2-0.2,0.4-0.5,0.5-0.8
		c0.1-0.3,0.2-0.6,0.2-0.9c0-0.8-0.4-1.6-1.1-2.1C63.4,231.7,63,231.6,62.5,231.6z"/>
	<path class="st0" d="M71.9,241.5c-0.7,0-1.4-0.2-2-0.6c-0.6-0.5-1-1.2-1.3-1.9c-0.6-2-0.6-4,0-6c0.2-0.7,0.7-1.4,1.3-1.9
		c1.2-0.9,2.8-0.9,4,0c0.6,0.5,1,1.2,1.3,1.9c0.6,2,0.6,4,0,6c-0.2,0.7-0.7,1.4-1.3,1.9C73.3,241.3,72.6,241.5,71.9,241.5z
		 M71.9,240.4c0.8,0,1.5-0.4,1.8-1.1c0.5-1,0.7-2.1,0.7-3.2c0-0.8-0.1-1.6-0.3-2.4c-0.1-0.6-0.4-1.1-0.8-1.5
		c-0.4-0.3-0.8-0.5-1.3-0.5c-0.8,0-1.5,0.4-1.8,1.2c-0.5,1-0.7,2.2-0.7,3.3c0,0.8,0.1,1.6,0.3,2.4c0.1,0.6,0.4,1.1,0.8,1.5
		C70.9,240.2,71.4,240.4,71.9,240.4z"/>
</g>
<g>
	<path class="st0" d="M56,172.3v10.8h-1.3v-9.4h-0.1l-2.7,1.8v-1.3l2.7-1.8L56,172.3z"/>
	<path class="st0" d="M62.6,183.2c-0.7,0-1.4-0.2-2-0.7c-0.6-0.5-1-1.1-1.3-1.9c-0.6-2-0.6-4,0-6c0.2-0.7,0.7-1.4,1.3-1.9
		c1.2-0.9,2.8-0.9,4.1,0c0.6,0.5,1.1,1.2,1.3,1.9c0.6,2,0.6,4,0,6c-0.2,0.7-0.7,1.4-1.3,1.9C64.1,183,63.3,183.3,62.6,183.2z
		 M62.6,182.1c0.8,0,1.5-0.4,1.8-1.1c0.5-1,0.7-2.1,0.7-3.2c0-0.8-0.1-1.6-0.3-2.4c-0.1-0.6-0.4-1.1-0.8-1.5
		c-0.4-0.3-0.8-0.5-1.3-0.5c-0.8,0-1.5,0.4-1.8,1.1c-0.5,1-0.7,2.1-0.7,3.3c0,0.8,0.1,1.6,0.3,2.4c0.1,0.6,0.4,1.1,0.8,1.5
		C61.6,181.9,62.1,182.1,62.6,182.1z"/>
	<path class="st0" d="M71.9,183.2c-0.7,0-1.4-0.2-2-0.7c-0.6-0.5-1-1.1-1.3-1.9c-0.6-2-0.6-4,0-6c0.2-0.7,0.7-1.4,1.3-1.9
		c1.2-0.9,2.8-0.9,4,0c0.6,0.5,1.1,1.2,1.3,1.9c0.3,1,0.5,2,0.4,3c0,1-0.1,2-0.4,3c-0.2,0.7-0.7,1.4-1.3,1.9
		C73.3,183,72.6,183.3,71.9,183.2z M71.9,182.1c0.8,0,1.5-0.4,1.8-1.1c0.5-1,0.7-2.1,0.7-3.2c0-0.8-0.1-1.6-0.3-2.4
		c-0.1-0.6-0.4-1.1-0.8-1.5c-0.4-0.3-0.8-0.5-1.3-0.5c-0.8,0-1.5,0.4-1.8,1.1c-0.5,1-0.7,2.1-0.7,3.3c0,0.8,0.1,1.6,0.3,2.4
		c0.1,0.6,0.4,1.1,0.8,1.5C70.9,181.9,71.4,182.1,71.9,182.1z"/>
</g>
<g>
	<path d="M1111.2,766.1c-0.7,0-1.4-0.2-2-0.7c-0.6-0.5-1-1.1-1.3-1.9c-0.6-2-0.6-4,0-6c0.2-0.7,0.7-1.4,1.3-1.9c1.2-0.9,2.8-0.9,4,0
		c0.6,0.5,1.1,1.2,1.3,1.9c0.6,2,0.6,4,0,6c-0.2,0.7-0.7,1.4-1.3,1.9C1112.7,765.9,1112,766.1,1111.2,766.1z M1111.2,764.9
		c0.8,0,1.5-0.4,1.8-1.1c0.5-1,0.7-2.1,0.7-3.2c0-0.8-0.1-1.6-0.3-2.4c-0.1-0.6-0.4-1.1-0.8-1.5c-0.4-0.3-0.8-0.5-1.3-0.5
		c-0.8,0-1.5,0.4-1.8,1.2c-0.5,1-0.7,2.1-0.7,3.3c0,0.8,0.1,1.6,0.3,2.4c0.1,0.6,0.4,1.1,0.8,1.5
		C1110.2,764.7,1110.7,764.9,1111.2,764.9z"/>
</g>
<g>
	<path d="M1111.5,696.8v10.8h-1.3v-9.4h-0.1l-2.7,1.8v-1.3l2.7-1.8H1111.5z"/>
	<path d="M1118.1,707.8c-0.7,0-1.4-0.2-2-0.7c-0.6-0.5-1-1.2-1.3-1.9c-0.6-2-0.6-4,0-6c0.2-0.7,0.7-1.4,1.3-1.9
		c1.2-0.9,2.8-0.9,4.1,0c0.6,0.5,1.1,1.2,1.3,1.9c0.3,1,0.5,2,0.4,3c0,1-0.1,2-0.4,3c-0.2,0.7-0.7,1.4-1.3,1.9
		C1119.6,707.6,1118.9,707.8,1118.1,707.8z M1118.1,706.6c0.8,0,1.5-0.4,1.8-1.1c0.5-1,0.7-2.1,0.7-3.3c0-0.8-0.1-1.6-0.3-2.4
		c-0.1-0.6-0.4-1.1-0.8-1.5c-0.4-0.3-0.8-0.5-1.3-0.5c-0.8,0-1.5,0.4-1.8,1.2c-0.5,1-0.7,2.1-0.7,3.3c0,0.8,0.1,1.6,0.3,2.4
		c0.1,0.6,0.4,1.1,0.8,1.5C1117.2,706.4,1117.6,706.6,1118.1,706.6L1118.1,706.6z"/>
</g>
<g>
	<path d="M1107.7,649.3v-1l3.6-3.9c0.4-0.5,0.8-0.9,1-1.2c0.3-0.3,0.5-0.6,0.6-1c0.1-0.3,0.2-0.7,0.2-1c0-0.4-0.1-0.7-0.3-1
		c-0.2-0.3-0.4-0.5-0.8-0.7c-0.3-0.1-0.7-0.2-1-0.2c-0.4,0-0.8,0.1-1.1,0.3c-0.3,0.2-0.6,0.4-0.7,0.7c-0.2,0.3-0.3,0.7-0.2,1.1h-1.2
		c0-0.6,0.1-1.2,0.4-1.7c0.3-0.5,0.7-0.9,1.2-1.1c0.5-0.3,1.1-0.4,1.7-0.4c0.6,0,1.2,0.1,1.7,0.4c0.5,0.2,0.9,0.6,1.2,1.1
		c0.3,0.5,0.4,1,0.4,1.5c0,0.4-0.1,0.8-0.2,1.2c-0.2,0.5-0.4,0.9-0.7,1.3c-0.5,0.6-0.9,1.2-1.5,1.7l-2.4,2.6v0.1h5v1.2L1107.7,649.3
		z"/>
	<path d="M1120.2,649.5c-0.7,0-1.4-0.2-2-0.7c-0.6-0.5-1-1.2-1.3-1.9c-0.3-1-0.5-2-0.4-3c0-1,0.1-2,0.4-3c0.2-0.7,0.7-1.4,1.3-1.9
		c1.2-0.9,2.8-0.9,4.1,0c0.6,0.5,1,1.2,1.3,1.9c0.6,2,0.6,4,0,6c-0.2,0.7-0.7,1.4-1.3,1.9C1121.7,649.3,1121,649.5,1120.2,649.5z
		 M1120.2,648.3c0.8,0,1.5-0.4,1.8-1.1c0.5-1,0.7-2.1,0.7-3.3c0-0.8-0.1-1.6-0.3-2.4c-0.2-0.6-0.4-1.1-0.9-1.5
		c-0.4-0.3-0.8-0.5-1.3-0.5c-0.8,0-1.5,0.4-1.8,1.2c-0.5,1-0.7,2.1-0.7,3.3c0,0.8,0.1,1.6,0.3,2.4c0.1,0.6,0.4,1.1,0.9,1.5
		C1119.3,648.2,1119.7,648.3,1120.2,648.3z"/>
</g>
<g>
	<path d="M1111.3,591.2c-0.6,0-1.3-0.1-1.9-0.4c-0.5-0.2-1-0.6-1.3-1c-0.3-0.4-0.5-1-0.5-1.5h1.3c0,0.3,0.1,0.6,0.4,0.9
		c0.2,0.3,0.5,0.5,0.8,0.6c0.4,0.1,0.7,0.2,1.1,0.2c0.4,0,0.8-0.1,1.2-0.2c0.3-0.1,0.6-0.4,0.8-0.7c0.2-0.3,0.3-0.6,0.3-1
		c0-0.4-0.1-0.7-0.3-1c-0.2-0.3-0.5-0.6-0.9-0.7c-0.4-0.2-0.9-0.3-1.4-0.3h-0.9V585h0.9c0.4,0,0.8-0.1,1.1-0.2
		c0.3-0.1,0.6-0.4,0.8-0.7c0.2-0.3,0.3-0.6,0.3-1c0-0.3-0.1-0.7-0.2-1c-0.2-0.3-0.4-0.5-0.7-0.6c-0.3-0.2-0.7-0.2-1-0.2
		c-0.3,0-0.7,0.1-1,0.2c-0.3,0.1-0.6,0.3-0.8,0.6c-0.2,0.3-0.3,0.6-0.3,0.9h-1.3c0-0.5,0.2-1.1,0.5-1.5c0.3-0.4,0.8-0.8,1.3-1
		c0.5-0.2,1.1-0.4,1.7-0.4c0.6,0,1.2,0.1,1.7,0.4c0.5,0.2,0.8,0.6,1.1,1.1c0.3,0.4,0.4,0.9,0.4,1.4c0,1.1-0.7,2.1-1.8,2.5v0.1
		c0.6,0.1,1.2,0.4,1.6,0.9c0.4,0.5,0.6,1.1,0.6,1.7c0,0.6-0.2,1.1-0.5,1.6c-0.3,0.5-0.8,0.9-1.3,1.1
		C1112.7,591.1,1112,591.2,1111.3,591.2z"/>
	<path d="M1120.7,591.2c-0.7,0-1.4-0.2-2-0.7c-0.6-0.5-1-1.2-1.3-1.9c-0.6-2-0.6-4,0-6c0.2-0.7,0.7-1.4,1.3-1.9c1.2-0.9,2.8-0.9,4,0
		c0.6,0.5,1,1.2,1.3,1.9c0.6,2,0.6,4,0,6c-0.2,0.7-0.7,1.4-1.3,1.9C1122.1,591,1121.4,591.2,1120.7,591.2z M1120.7,590.1
		c0.8,0,1.5-0.4,1.8-1.2c0.5-1,0.7-2.1,0.7-3.2c0-0.8-0.1-1.6-0.3-2.4c-0.1-0.6-0.4-1.1-0.9-1.5c-0.4-0.3-0.8-0.5-1.3-0.5
		c-0.8,0-1.5,0.4-1.8,1.2c-0.5,1-0.7,2.1-0.7,3.3c0,0.8,0.1,1.6,0.3,2.4c0.1,0.6,0.4,1.1,0.8,1.5
		C1119.7,589.9,1120.2,590.1,1120.7,590.1z"/>
</g>
<g>
	<path d="M1107.4,530.6v-1.1l4.8-7.5h0.8v1.7h-0.5l-3.6,5.7v0.1h6.4v1.2L1107.4,530.6z M1112.5,532.8V522h1.2v10.8L1112.5,532.8z"/>
	<path d="M1120.8,532.9c-0.7,0-1.4-0.2-2-0.7c-0.6-0.5-1.1-1.1-1.3-1.9c-0.6-2-0.6-4,0-6c0.2-0.7,0.7-1.4,1.3-1.9
		c1.2-0.9,2.8-0.9,4.1,0c0.6,0.5,1,1.2,1.3,1.9c0.6,2,0.6,4,0,6c-0.2,0.7-0.7,1.4-1.3,1.9C1122.3,532.7,1121.5,533,1120.8,532.9z
		 M1120.8,531.8c0.8,0,1.5-0.4,1.8-1.1c0.5-1,0.7-2.1,0.7-3.2c0-0.8-0.1-1.6-0.3-2.4c-0.2-0.6-0.4-1.1-0.9-1.5
		c-0.4-0.3-0.8-0.5-1.3-0.5c-0.8,0-1.5,0.4-1.8,1.2c-0.5,1-0.7,2.1-0.7,3.3c0,0.8,0.1,1.6,0.3,2.4c0.1,0.6,0.4,1.1,0.8,1.5
		C1119.8,531.6,1120.3,531.8,1120.8,531.8z"/>
</g>
<g>
	<path d="M1111.1,474.7c-0.6,0-1.2-0.1-1.7-0.4c-0.5-0.2-0.9-0.6-1.2-1c-0.3-0.4-0.5-0.9-0.5-1.5h1.3c0,0.5,0.3,0.9,0.7,1.2
		c1,0.8,2.4,0.6,3.2-0.4c0.1-0.1,0.2-0.2,0.2-0.3c0.4-0.8,0.4-1.7,0-2.5c-0.2-0.4-0.5-0.7-0.8-0.9c-0.4-0.2-0.8-0.3-1.2-0.3
		c-0.3,0-0.7,0.1-1,0.1c-0.3,0.1-0.6,0.2-0.9,0.4l-1.2-0.1l0.7-5.3h5.6v1.2h-4.5l-0.4,3.2h0.1c0.3-0.2,0.5-0.3,0.8-0.4
		c1.5-0.5,3.2,0.2,4,1.6c0.3,0.6,0.5,1.2,0.4,1.9c0,0.6-0.1,1.3-0.5,1.9c-0.3,0.5-0.7,1-1.3,1.3
		C1112.4,474.5,1111.7,474.7,1111.1,474.7z"/>
	<path d="M1120.3,474.7c-0.7,0-1.4-0.2-2-0.7c-0.6-0.5-1.1-1.1-1.3-1.9c-0.3-1-0.5-2-0.4-3c0-1,0.1-2,0.4-3c0.2-0.7,0.7-1.4,1.3-1.9
		c1.2-0.9,2.8-0.9,4,0c0.6,0.5,1.1,1.2,1.3,1.9c0.6,2,0.6,4,0,6c-0.2,0.7-0.7,1.4-1.3,1.9C1121.7,474.4,1121,474.7,1120.3,474.7z
		 M1120.3,473.5c0.8,0,1.5-0.4,1.8-1.1c0.5-1,0.7-2.1,0.7-3.2c0-0.8-0.1-1.6-0.3-2.4c-0.1-0.6-0.4-1.1-0.9-1.5
		c-0.4-0.3-0.8-0.5-1.3-0.5c-0.8,0-1.5,0.4-1.8,1.1c-0.5,1-0.7,2.1-0.7,3.3c0,0.8,0.1,1.6,0.3,2.4c0.1,0.6,0.4,1.1,0.9,1.5
		C1119.3,473.3,1119.8,473.5,1120.3,473.5z"/>
</g>
<g>
	<path d="M1111.3,416.4c-0.5,0-0.9-0.1-1.3-0.3c-0.5-0.2-0.9-0.5-1.2-0.8c-0.4-0.5-0.7-1-0.9-1.6c-0.2-0.8-0.4-1.6-0.3-2.5
		c0-0.9,0.1-1.7,0.3-2.5c0.1-0.7,0.4-1.3,0.8-1.9c0.3-0.5,0.7-0.9,1.2-1.2c0.5-0.3,1.1-0.4,1.6-0.4c0.6,0,1.1,0.1,1.6,0.4
		c0.5,0.2,0.9,0.6,1.2,1c0.3,0.4,0.5,0.9,0.6,1.5h-1.3c-0.1-0.5-0.3-0.9-0.7-1.2c-0.4-0.3-0.9-0.5-1.4-0.5c-0.8,0-1.6,0.4-2,1.1
		c-0.5,0.9-0.8,2-0.7,3.1h0.1c0.2-0.3,0.4-0.6,0.7-0.8c0.3-0.2,0.6-0.4,0.9-0.5c0.3-0.1,0.7-0.2,1-0.2c0.6,0,1.2,0.2,1.7,0.5
		c0.5,0.3,0.9,0.7,1.2,1.3c0.3,0.6,0.5,1.2,0.5,1.9c0,0.6-0.1,1.3-0.4,1.8c-0.3,0.5-0.7,1-1.3,1.3
		C1112.6,416.2,1111.9,416.4,1111.3,416.4z M1111.3,415.2c0.4,0,0.8-0.1,1.2-0.3c0.3-0.2,0.6-0.5,0.8-0.9c0.2-0.4,0.3-0.8,0.3-1.2
		c0-0.4-0.1-0.8-0.3-1.2c-0.2-0.4-0.5-0.7-0.8-0.9c-0.4-0.2-0.8-0.3-1.2-0.3c-0.3,0-0.6,0.1-0.9,0.2c-0.3,0.1-0.5,0.3-0.8,0.5
		c-0.4,0.5-0.7,1.1-0.7,1.7c0,0.4,0.1,0.8,0.3,1.2c0.2,0.4,0.5,0.7,0.8,0.9C1110.4,415.1,1110.9,415.2,1111.3,415.2z"/>
	<path d="M1120.5,416.4c-0.7,0-1.4-0.2-2-0.7c-0.6-0.5-1-1.1-1.3-1.9c-0.6-2-0.6-4,0-6c0.2-0.7,0.7-1.4,1.3-1.9c1.2-0.8,2.8-0.8,4,0
		c0.6,0.5,1,1.2,1.3,1.9c0.6,2,0.6,4,0,6c-0.2,0.7-0.7,1.4-1.3,1.9C1122,416.2,1121.2,416.4,1120.5,416.4z M1120.5,415.2
		c0.8,0,1.5-0.4,1.8-1.1c0.5-1,0.7-2.1,0.7-3.2c0-0.8-0.1-1.6-0.3-2.4c-0.1-0.6-0.4-1.1-0.9-1.5c-0.4-0.3-0.8-0.5-1.3-0.5
		c-0.8,0-1.5,0.4-1.8,1.1c-0.5,1-0.7,2.1-0.7,3.3c0,0.8,0.1,1.6,0.3,2.4c0.1,0.6,0.4,1.1,0.8,1.5
		C1119.5,415,1120,415.2,1120.5,415.2z"/>
</g>
<g>
	<path d="M1108,357.9l4.8-9.6v-0.1h-5.6v-1.2h6.9v1.2l-4.8,9.6H1108z"/>
	<path d="M1119.5,358.1c-0.7,0-1.4-0.2-2-0.6c-0.6-0.5-1-1.2-1.3-1.9c-0.6-2-0.6-4,0-6c0.2-0.7,0.7-1.4,1.3-1.9
		c1.2-0.9,2.8-0.9,4.1,0c0.6,0.5,1,1.2,1.3,1.9c0.6,2,0.6,4,0,6c-0.2,0.7-0.7,1.4-1.3,1.9C1121,357.9,1120.2,358.1,1119.5,358.1z
		 M1119.5,356.9c0.8,0,1.5-0.4,1.8-1.1c0.5-1,0.7-2.1,0.7-3.3c0-0.8-0.1-1.6-0.3-2.4c-0.2-0.6-0.4-1.1-0.9-1.5
		c-0.4-0.3-0.8-0.5-1.3-0.5c-0.8,0-1.5,0.4-1.8,1.1c-0.5,1-0.7,2.1-0.7,3.3c0,0.8,0.1,1.6,0.3,2.4c0.1,0.6,0.4,1.1,0.9,1.5
		C1118.5,356.8,1119,356.9,1119.5,356.9z"/>
</g>
<g>
	<path d="M1111.2,299.8c-0.7,0-1.3-0.1-1.9-0.4c-0.5-0.2-1-0.6-1.3-1.1c-0.3-0.5-0.5-1-0.5-1.6c0-0.4,0.1-0.9,0.3-1.3
		c0.2-0.4,0.4-0.7,0.8-1c0.3-0.3,0.7-0.4,1.1-0.5v0c-0.5-0.1-0.9-0.4-1.2-0.9c-0.3-0.4-0.5-1-0.4-1.5c0-0.5,0.1-1,0.4-1.5
		c0.3-0.4,0.7-0.8,1.2-1c0.5-0.3,1.1-0.4,1.7-0.4c0.6,0,1.2,0.1,1.7,0.4c0.5,0.2,0.9,0.6,1.2,1c0.3,0.4,0.4,1,0.4,1.5
		c0,0.5-0.2,1.1-0.5,1.5c-0.3,0.4-0.7,0.7-1.2,0.9l0,0c0.4,0.1,0.7,0.3,1,0.5c0.3,0.3,0.6,0.6,0.8,1c0.2,0.4,0.3,0.8,0.3,1.3
		c0,0.6-0.2,1.1-0.5,1.6c-0.3,0.5-0.8,0.8-1.3,1.1C1112.4,299.7,1111.8,299.8,1111.2,299.8z M1111.2,298.6c0.4,0,0.9-0.1,1.3-0.2
		c0.3-0.1,0.6-0.4,0.8-0.7c0.2-0.3,0.3-0.6,0.3-1c0-0.4-0.1-0.8-0.3-1.1c-0.2-0.3-0.5-0.6-0.8-0.7c-0.8-0.4-1.7-0.4-2.5,0
		c-0.3,0.2-0.6,0.4-0.8,0.7c-0.2,0.3-0.3,0.7-0.3,1.1c0,0.4,0.1,0.7,0.3,1c0.2,0.3,0.5,0.5,0.8,0.7
		C1110.3,298.6,1110.7,298.7,1111.2,298.6z M1111.2,293.5c0.3,0,0.7-0.1,1-0.2c0.6-0.3,1-0.9,1-1.6c0-0.4-0.1-0.7-0.3-1
		c-0.2-0.3-0.4-0.5-0.7-0.6c-0.3-0.2-0.7-0.2-1-0.2c-0.4,0-0.7,0.1-1.1,0.2c-0.3,0.1-0.5,0.4-0.7,0.6c-0.3,0.6-0.3,1.3,0,1.9
		c0.2,0.3,0.4,0.5,0.7,0.6C1110.5,293.4,1110.8,293.5,1111.2,293.5L1111.2,293.5z"/>
	<path d="M1120.4,299.8c-0.7,0-1.4-0.2-2-0.6c-0.6-0.5-1-1.2-1.3-1.9c-0.3-1-0.5-2-0.4-3c0-1,0.1-2,0.4-3c0.2-0.7,0.7-1.4,1.3-1.9
		c1.2-0.9,2.8-0.9,4.1,0c0.6,0.5,1,1.2,1.3,1.9c0.6,2,0.6,4,0,6c-0.2,0.7-0.7,1.4-1.3,1.9C1121.9,299.6,1121.1,299.8,1120.4,299.8z
		 M1120.4,298.6c0.8,0,1.5-0.4,1.8-1.1c0.5-1,0.7-2.1,0.7-3.2c0-0.8-0.1-1.6-0.3-2.4c-0.1-0.6-0.4-1.1-0.8-1.5
		c-0.4-0.3-0.8-0.5-1.3-0.5c-0.8,0-1.5,0.4-1.8,1.2c-0.5,1-0.7,2.1-0.7,3.3c0,0.8,0.1,1.6,0.3,2.4c0.1,0.6,0.4,1.1,0.8,1.5
		C1119.4,298.5,1119.9,298.7,1120.4,298.6z"/>
</g>
<g>
	<path d="M1111.1,230.4c0.5,0,0.9,0.1,1.3,0.2c0.5,0.2,0.9,0.5,1.2,0.8c0.4,0.4,0.7,1,0.9,1.6c0.2,0.8,0.4,1.6,0.3,2.5
		c0,0.9-0.1,1.7-0.3,2.6c-0.1,0.7-0.4,1.3-0.8,1.9c-0.3,0.5-0.7,0.9-1.2,1.2c-0.5,0.3-1.1,0.4-1.6,0.4c-0.6,0-1.1-0.1-1.6-0.4
		c-0.5-0.2-0.9-0.6-1.2-1c-0.3-0.5-0.5-1-0.6-1.5h1.3c0.1,0.5,0.3,0.9,0.7,1.2c0.4,0.3,0.9,0.5,1.4,0.5c0.8,0,1.6-0.4,2-1.1
		c0.5-0.9,0.8-2,0.7-3.1h-0.1c-0.2,0.3-0.4,0.6-0.7,0.8c-0.3,0.2-0.6,0.4-0.9,0.5c-0.3,0.1-0.7,0.2-1.1,0.2c-0.6,0-1.2-0.2-1.7-0.5
		c-0.5-0.3-0.9-0.8-1.2-1.3c-0.3-0.6-0.5-1.2-0.5-1.9c0-0.6,0.1-1.3,0.4-1.8c0.3-0.5,0.7-1,1.3-1.3
		C1109.8,230.6,1110.5,230.4,1111.1,230.4z M1111.1,231.6c-0.4,0-0.8,0.1-1.2,0.3c-0.3,0.2-0.6,0.5-0.8,0.9
		c-0.2,0.4-0.3,0.8-0.3,1.2c0,0.4,0.1,0.9,0.3,1.2c0.2,0.4,0.5,0.7,0.8,0.9c0.6,0.4,1.4,0.4,2.1,0.1c0.3-0.1,0.5-0.3,0.8-0.6
		c0.2-0.2,0.4-0.5,0.5-0.8c0.1-0.3,0.2-0.6,0.2-0.9c0-0.8-0.4-1.6-1.1-2.1C1112,231.7,1111.6,231.6,1111.1,231.6z"/>
	<path d="M1120.5,241.5c-0.7,0-1.4-0.2-2-0.6c-0.6-0.5-1-1.2-1.3-1.9c-0.6-2-0.6-4,0-6c0.2-0.7,0.7-1.4,1.3-1.9c1.2-0.9,2.8-0.9,4,0
		c0.6,0.5,1,1.2,1.3,1.9c0.6,2,0.6,4,0,6c-0.2,0.7-0.7,1.4-1.3,1.9C1121.9,241.3,1121.2,241.5,1120.5,241.5z M1120.5,240.4
		c0.8,0,1.5-0.4,1.8-1.1c0.5-1,0.7-2.1,0.7-3.2c0-0.8-0.1-1.6-0.3-2.4c-0.1-0.6-0.4-1.1-0.9-1.5c-0.4-0.3-0.8-0.5-1.3-0.5
		c-0.8,0-1.5,0.4-1.8,1.2c-0.5,1-0.7,2.1-0.7,3.3c0,0.8,0.1,1.6,0.3,2.4c0.1,0.6,0.4,1.1,0.8,1.5
		C1119.5,240.2,1120,240.4,1120.5,240.4z"/>
</g>
<g>
	<path d="M1111.5,172.3v10.8h-1.3v-9.4h-0.1l-2.7,1.8v-1.3l2.7-1.8L1111.5,172.3z"/>
	<path d="M1118.1,183.2c-0.7,0-1.4-0.2-2-0.7c-0.6-0.5-1-1.1-1.3-1.9c-0.6-2-0.6-4,0-6c0.2-0.7,0.7-1.4,1.3-1.9
		c1.2-0.9,2.8-0.9,4.1,0c0.6,0.5,1.1,1.2,1.3,1.9c0.3,1,0.5,2,0.4,3c0,1-0.1,2-0.4,3c-0.2,0.7-0.7,1.4-1.3,1.9
		C1119.6,183,1118.9,183.3,1118.1,183.2z M1118.1,182.1c0.8,0,1.5-0.4,1.8-1.1c0.5-1,0.7-2.1,0.7-3.2c0-0.8-0.1-1.6-0.3-2.4
		c-0.1-0.6-0.4-1.1-0.8-1.5c-0.4-0.3-0.8-0.5-1.3-0.5c-0.8,0-1.5,0.4-1.8,1.1c-0.5,1-0.7,2.1-0.7,3.3c0,0.8,0.1,1.6,0.3,2.4
		c0.1,0.6,0.4,1.1,0.8,1.5C1117.2,181.9,1117.6,182.1,1118.1,182.1z"/>
	<path d="M1127.4,183.2c-0.7,0-1.4-0.2-2-0.7c-0.6-0.5-1-1.1-1.3-1.9c-0.6-2-0.6-4,0-6c0.2-0.7,0.7-1.4,1.3-1.9c1.2-0.9,2.8-0.9,4,0
		c0.6,0.5,1.1,1.2,1.3,1.9c0.3,1,0.5,2,0.4,3c0,1-0.1,2-0.4,3c-0.2,0.7-0.7,1.4-1.3,1.9C1128.9,183,1128.2,183.3,1127.4,183.2z
		 M1127.4,182.1c0.8,0,1.5-0.4,1.8-1.1c0.5-1,0.7-2.1,0.7-3.2c0-0.8-0.1-1.6-0.3-2.4c-0.1-0.6-0.4-1.1-0.8-1.5
		c-0.4-0.3-0.8-0.5-1.3-0.5c-0.8,0-1.5,0.4-1.8,1.1c-0.5,1-0.7,2.1-0.7,3.3c0,0.8,0.1,1.6,0.3,2.4c0.1,0.6,0.4,1.1,0.8,1.5
		C1126.5,181.9,1126.9,182.1,1127.4,182.1z"/>
</g>
<path d="M1104.5,134.1v-10.1h1.5v1.6h0.1c0.2-0.5,0.5-1,1-1.3c0.5-0.3,1.1-0.5,1.7-0.4c0.6,0,1.2,0.1,1.7,0.4c0.4,0.3,0.8,0.8,1,1.3
	h0.1c0.3-0.5,0.7-1,1.2-1.2c0.6-0.3,1.2-0.5,1.9-0.5c0.8,0,1.6,0.3,2.2,0.8c0.6,0.7,0.9,1.7,0.9,2.6v6.8h-1.6v-6.8
	c0.1-0.6-0.2-1.2-0.6-1.6c-0.4-0.3-0.9-0.5-1.4-0.5c-0.6,0-1.2,0.2-1.7,0.6c-0.4,0.4-0.6,1-0.6,1.6v6.6h-1.6v-6.9
	c0-0.5-0.2-1-0.6-1.4c-0.4-0.4-0.9-0.6-1.4-0.5c-0.4,0-0.8,0.1-1.1,0.3c-0.4,0.2-0.6,0.5-0.8,0.9c-0.2,0.4-0.3,0.9-0.3,1.3v6.3
	L1104.5,134.1z"/>
<path d="M1120.7,134.1v-10.1h1.5v1.6h0.1c0.2-0.5,0.5-1,1-1.3c0.5-0.3,1.1-0.5,1.7-0.4c0.6,0,1.2,0.1,1.7,0.4c0.4,0.3,0.8,0.8,1,1.3
	h0.1c0.3-0.5,0.7-1,1.2-1.2c0.6-0.3,1.2-0.5,1.9-0.5c0.8,0,1.6,0.3,2.2,0.8c0.6,0.7,0.9,1.7,0.9,2.6v6.8h-1.6v-6.8
	c0.1-0.6-0.2-1.2-0.6-1.6c-0.4-0.3-0.9-0.5-1.4-0.5c-0.6,0-1.2,0.2-1.7,0.6c-0.4,0.4-0.6,1-0.6,1.6v6.6h-1.6v-6.9
	c0-0.5-0.2-1-0.6-1.4c-0.4-0.4-0.9-0.6-1.4-0.5c-0.4,0-0.8,0.1-1.1,0.3c-0.4,0.2-0.6,0.5-0.8,0.9c-0.2,0.4-0.3,0.9-0.3,1.3v6.3
	L1120.7,134.1z"/>
<path class="st0" d="M41.2,137.9v-14h1.6v6c0,0.5,0.1,1,0.3,1.4c0.2,0.4,0.6,0.8,1,1c0.9,0.5,2.1,0.5,3,0c0.4-0.2,0.8-0.6,1-1
	c0.2-0.4,0.3-0.9,0.3-1.4v-6H50v10.1h-1.7v-1.5h-0.1c-0.3,0.5-0.7,0.9-1.2,1.2c-0.5,0.3-1,0.4-1.6,0.4c-0.6,0-1.1-0.1-1.6-0.4
	c-0.5-0.3-0.9-0.7-1.2-1.2h-0.1v5.3L41.2,137.9z"/>
<path class="st0" d="M56.8,138.1c-0.7,0-1.3-0.1-1.9-0.3c-0.9-0.3-1.7-0.9-2.2-1.7l1.2-0.9c0.2,0.2,0.3,0.4,0.5,0.6
	c0.3,0.3,0.6,0.5,0.9,0.6c0.5,0.2,1,0.3,1.5,0.3c0.7,0,1.4-0.2,2-0.6c0.6-0.4,0.9-1.1,0.8-1.9v-2.1h-0.1c-0.1,0.2-0.3,0.4-0.5,0.7
	c-0.2,0.3-0.6,0.5-0.9,0.7c-0.5,0.2-1,0.3-1.6,0.3c-0.8,0-1.5-0.2-2.2-0.6c-0.7-0.4-1.2-1-1.5-1.7c-0.4-0.8-0.6-1.8-0.6-2.7
	c0-0.9,0.2-1.9,0.5-2.7c0.3-0.7,0.9-1.4,1.5-1.8c0.7-0.4,1.5-0.6,2.2-0.6c0.5,0,1.1,0.1,1.6,0.3c0.3,0.2,0.7,0.4,0.9,0.7
	c0.2,0.3,0.4,0.5,0.5,0.7h0.2v-1.6h1.5v10.4c0,0.8-0.2,1.5-0.6,2.1c-0.4,0.5-1,1-1.6,1.2C58.3,138,57.6,138.1,56.8,138.1z
	 M56.8,132.5c0.6,0,1.1-0.1,1.6-0.4c0.5-0.3,0.8-0.7,1-1.2c0.5-1.2,0.5-2.6,0-3.9c-0.2-0.5-0.5-1-1-1.3c-0.5-0.3-1-0.5-1.6-0.5
	c-0.6,0-1.2,0.2-1.7,0.5c-0.5,0.3-0.8,0.8-1,1.3c-0.2,0.6-0.3,1.2-0.3,1.9c0,0.6,0.1,1.3,0.3,1.9c0.2,0.5,0.6,0.9,1,1.3
	C55.6,132.4,56.2,132.5,56.8,132.5L56.8,132.5z"/>
<path class="st0" d="M68.8,119.9l-4.4,16.2h-1.4l4.4-16.2H68.8z"/>
<path class="st0" d="M70.7,134.1v-10.1h1.5v1.6h0.1c0.2-0.5,0.5-1,1-1.3c0.5-0.3,1.1-0.5,1.7-0.4c0.6,0,1.2,0.1,1.7,0.4
	c0.4,0.3,0.8,0.8,1,1.3h0.1c0.3-0.5,0.7-1,1.2-1.2c0.6-0.3,1.2-0.5,1.9-0.5c0.8,0,1.6,0.3,2.2,0.8c0.6,0.7,1,1.7,0.9,2.6v6.8h-1.5
	v-6.8c0.1-0.6-0.2-1.2-0.6-1.6c-0.4-0.3-0.9-0.5-1.4-0.5c-0.6,0-1.2,0.2-1.7,0.6c-0.4,0.4-0.6,1-0.6,1.6v6.6h-1.6v-6.9
	c0-0.5-0.2-1-0.6-1.4c-0.4-0.4-0.9-0.6-1.4-0.5c-0.4,0-0.8,0.1-1.1,0.3c-0.4,0.2-0.6,0.5-0.8,0.9c-0.2,0.4-0.3,0.9-0.3,1.3v6.3
	L70.7,134.1z"/>
<path class="st0" d="M88.9,128c-0.5,0-0.9-0.1-1.4-0.3c-0.4-0.2-0.7-0.4-0.9-0.7c-0.2-0.3-0.4-0.7-0.4-1.1h1c0,0.2,0.1,0.5,0.3,0.7
	c0.2,0.2,0.4,0.3,0.6,0.4c0.3,0.1,0.5,0.2,0.8,0.2c0.3,0,0.6-0.1,0.9-0.2c0.2-0.1,0.5-0.3,0.6-0.5c0.2-0.2,0.2-0.5,0.2-0.7
	c0-0.3-0.1-0.5-0.2-0.8c-0.2-0.2-0.4-0.4-0.6-0.5c-0.3-0.1-0.7-0.2-1-0.2h-0.6v-0.8h0.6c0.3,0,0.6,0,0.8-0.2
	c0.2-0.1,0.4-0.3,0.6-0.5c0.3-0.4,0.3-1,0-1.4c-0.1-0.2-0.3-0.4-0.5-0.5c-0.2-0.1-0.5-0.2-0.8-0.2c-0.3,0-0.5,0-0.8,0.2
	c-0.2,0.1-0.4,0.2-0.6,0.4c-0.2,0.2-0.2,0.4-0.2,0.7h-0.9c0-0.4,0.1-0.8,0.4-1.1c0.2-0.3,0.6-0.6,0.9-0.7c0.4-0.2,0.8-0.3,1.2-0.3
	c0.4,0,0.9,0.1,1.2,0.3c0.3,0.2,0.6,0.5,0.8,0.8c0.2,0.3,0.3,0.6,0.3,1c0,0.4-0.1,0.8-0.3,1.1c-0.2,0.3-0.6,0.5-0.9,0.7v0.1
	c0.5,0.1,0.9,0.3,1.2,0.6c0.5,0.7,0.6,1.7,0.1,2.4c-0.2,0.3-0.6,0.6-0.9,0.8C89.9,127.9,89.4,128,88.9,128z"/>
<rect x="96.8" y="158.4" class="st1" width="285.6" height="602.9"/>
<rect x="941.3" y="158.4" class="st1" width="146.9" height="602.9"/>
<path class="st0" d="M181.2,761.6c-0.2,0-0.3-0.1-0.3-0.3c0,0,0,0,0,0V158.4c0-0.2,0.1-0.3,0.3-0.3l0,0c0.2,0,0.3,0.1,0.3,0.3v602.9
	C181.6,761.5,181.4,761.6,181.2,761.6z"/>
<path class="st0" d="M257.5,761.6c-0.2,0-0.3-0.1-0.3-0.3c0,0,0,0,0,0V158.4c0-0.2,0.1-0.3,0.3-0.3c0.2,0,0.3,0.1,0.3,0.3v602.9
	C257.8,761.5,257.7,761.6,257.5,761.6z"/>
<path class="st0" d="M341.9,761.6c-0.2,0-0.3-0.1-0.3-0.3c0,0,0,0,0,0V158.4c0-0.2,0.1-0.3,0.3-0.3c0.2,0,0.3,0.1,0.3,0.3v602.9
	C342.2,761.5,342.1,761.6,341.9,761.6C342,761.6,341.9,761.6,341.9,761.6z"/>
<path class="st0" d="M423.6,761.6c-0.2,0-0.3-0.1-0.3-0.3c0,0,0,0,0,0V158.4c0-0.2,0.1-0.3,0.3-0.3c0.2,0,0.3,0.1,0.3,0.3v602.9
	C423.9,761.5,423.8,761.6,423.6,761.6z"/>
<path class="st0" d="M508.1,761.6c-0.2,0-0.3-0.1-0.3-0.3V158.4c0-0.2,0.1-0.3,0.3-0.3c0.2,0,0.3,0.1,0.3,0.3v602.9
	C508.4,761.5,508.3,761.6,508.1,761.6C508.1,761.6,508.1,761.6,508.1,761.6z"/>
<path class="st0" d="M589.8,761.6c-0.2,0-0.3-0.1-0.3-0.3c0,0,0,0,0,0V158.4c0-0.2,0.1-0.3,0.3-0.3c0.2,0,0.3,0.1,0.3,0.3v602.9
	C590.1,761.5,590,761.6,589.8,761.6C589.8,761.6,589.8,761.6,589.8,761.6z"/>
<path class="st0" d="M674.2,761.6c-0.2,0-0.3-0.1-0.3-0.3V158.4c0-0.2,0.1-0.3,0.3-0.3c0.2,0,0.3,0.1,0.3,0.3v602.9
	C674.5,761.5,674.4,761.6,674.2,761.6C674.2,761.6,674.2,761.6,674.2,761.6z"/>
<path class="st0" d="M758.7,761.6c-0.2,0-0.3-0.1-0.3-0.3c0,0,0,0,0,0V158.4c0-0.2,0.1-0.3,0.3-0.3c0.2,0,0.3,0.1,0.3,0.3v602.9
	C759,761.5,758.8,761.6,758.7,761.6z"/>
<path class="st0" d="M840.4,761.6c-0.2,0-0.3-0.1-0.3-0.3c0,0,0,0,0,0V158.4c0-0.2,0.1-0.3,0.3-0.3c0.2,0,0.3,0.1,0.3,0.3v602.9
	C840.7,761.5,840.5,761.6,840.4,761.6z"/>
<path class="st0" d="M924.8,761.6c-0.2,0-0.3-0.1-0.3-0.3c0,0,0,0,0,0V158.4c0-0.2,0.1-0.3,0.3-0.3c0.2,0,0.3,0.1,0.3,0.3v602.9
	C925.1,761.5,925,761.6,924.8,761.6z"/>
<path class="st0" d="M1006.5,761.6c-0.2,0-0.3-0.1-0.3-0.3c0,0,0,0,0,0V158.4c0-0.2,0.1-0.3,0.3-0.3c0.2,0,0.3,0.1,0.3,0.3v602.9
	C1006.8,761.5,1006.7,761.6,1006.5,761.6z"/>
<path class="st0" d="M96.8,761.6c-0.2,0-0.3-0.1-0.3-0.3V158.4c0-0.2,0.1-0.3,0.3-0.3c0.2,0,0.3,0.1,0.3,0.3l0,0v602.9
	C97.1,761.5,97,761.6,96.8,761.6C96.8,761.6,96.8,761.6,96.8,761.6z"/>
<path class="st0" d="M1088.2,761.6c-0.2,0-0.3-0.1-0.3-0.3c0,0,0,0,0,0V158.4c0-0.2,0.1-0.3,0.3-0.3l0,0c0.2,0,0.3,0.1,0.3,0.3
	v602.9C1088.5,761.5,1088.4,761.6,1088.2,761.6L1088.2,761.6z"/>
<circle class="st2" cx="96.8" cy="429.4" r="3"/>
<circle class="st2" cx="143.1" cy="464.4" r="3"/>
<circle class="st2" cx="145.8" cy="365.4" r="3"/>
<circle class="st2" cx="148.6" cy="359.5" r="3"/>
<circle class="st2" cx="151.3" cy="417.8" r="3"/>
<circle class="st2" cx="156.7" cy="417.8" r="3"/>
<circle class="st2" cx="159.5" cy="359.5" r="3"/>
<circle class="st2" cx="162.2" cy="342" r="3"/>
<circle class="st2" cx="167.6" cy="435.2" r="3"/>
<circle class="st2" cx="178.5" cy="429.4" r="3"/>
<circle class="st2" cx="189.4" cy="446.9" r="3"/>
<circle class="st2" cx="192.1" cy="347.9" r="3"/>
<circle class="st2" cx="194.9" cy="411.9" r="3"/>
<circle class="st2" cx="227.6" cy="342" r="3"/>
<circle class="st2" cx="230.3" cy="266.3" r="3"/>
<circle class="st2" cx="233" cy="278" r="3"/>
<circle class="st2" cx="301.1" cy="452.7" r="3"/>
<circle class="st2" cx="894.8" cy="423.6" r="3"/>
<circle class="st2" cx="911.2" cy="464.4" r="3"/>
<circle class="st2" cx="913.9" cy="417.8" r="3"/>
<circle class="st2" cx="930.2" cy="446.9" r="3"/>
<circle class="st2" cx="946.6" cy="382.8" r="3"/>
<circle class="st2" cx="949.3" cy="365.4" r="3"/>
<circle class="st2" cx="952" cy="435.2" r="3"/>
<circle class="st2" cx="992.9" cy="400.3" r="3"/>
<circle class="st2" cx="1025.6" cy="464.4" r="3"/>
<circle class="st2" cx="1058.3" cy="417.8" r="3"/>
<circle class="st2" cx="1061" cy="429.4" r="3"/>
<circle class="st2" cx="1066.4" cy="464.4" r="3"/>
<circle class="st2" cx="1069.2" cy="318.8" r="3"/>
<circle class="st2" cx="1071.9" cy="441.1" r="3"/>
<circle class="st2" cx="1074.6" cy="470.2" r="3"/>
<circle class="st2" cx="1077.3" cy="452.7" r="3"/>
<circle class="st2" cx="1082.8" cy="452.7" r="3"/>
<circle cx="99.5" cy="580.9" r="3"/>
<circle cx="102.3" cy="615.8" r="3"/>
<circle cx="107.7" cy="691.5" r="3"/>
<circle cx="110.4" cy="720.6" r="3"/>
<circle cx="113.2" cy="621.6" r="3"/>
<circle cx="115.9" cy="580.9" r="3"/>
<circle cx="118.6" cy="545.9" r="3"/>
<circle cx="121.3" cy="551.7" r="3"/>
<circle cx="124.1" cy="516.8" r="3"/>
<circle cx="126.8" cy="476" r="3"/>
<circle cx="129.5" cy="493.5" r="3"/>
<circle cx="132.2" cy="621.6" r="3"/>
<circle cx="134.9" cy="545.9" r="3"/>
<circle cx="137.7" cy="511" r="3"/>
<circle cx="140.4" cy="598.3" r="3"/>
<circle cx="154" cy="476" r="3"/>
<circle cx="164.9" cy="481.8" r="3"/>
<circle cx="170.4" cy="516.8" r="3"/>
<circle cx="173.1" cy="499.3" r="3"/>
<circle cx="175.8" cy="511" r="3"/>
<circle cx="181.2" cy="697.3" r="3"/>
<circle cx="184" cy="563.4" r="3"/>
<circle cx="186.7" cy="528.4" r="3"/>
<circle cx="197.6" cy="557.6" r="3"/>
<circle cx="200.3" cy="621.6" r="3"/>
<circle cx="203" cy="604.2" r="3"/>
<circle cx="205.8" cy="580.9" r="3"/>
<circle cx="208.5" cy="598.3" r="3"/>
<circle cx="211.2" cy="604.2" r="3"/>
<circle cx="213.9" cy="644.9" r="3"/>
<circle cx="216.6" cy="534.3" r="3"/>
<circle cx="219.4" cy="586.7" r="3"/>
<circle cx="222.1" cy="586.7" r="3"/>
<circle cx="224.8" cy="528.4" r="3"/>
<circle cx="235.7" cy="650.8" r="3"/>
<circle cx="238.4" cy="679.9" r="3"/>
<circle cx="241.2" cy="580.9" r="3"/>
<circle cx="243.9" cy="476" r="3"/>
<circle cx="246.6" cy="592.5" r="3"/>
<circle cx="249.3" cy="679.9" r="3"/>
<circle cx="252.1" cy="656.6" r="3"/>
<ellipse transform="matrix(0.9951 -9.853735e-02 9.853735e-02 0.9951 -57.7179 28.0182)" cx="254.8" cy="598.3" rx="3" ry="3"/>
<circle cx="257.5" cy="639.1" r="3"/>
<circle cx="260.2" cy="604.2" r="3"/>
<circle cx="263" cy="575" r="3"/>
<circle cx="265.7" cy="540.1" r="3"/>
<circle cx="268.4" cy="610" r="3"/>
<circle cx="271.1" cy="627.5" r="3"/>
<circle cx="273.9" cy="569.2" r="3"/>
<circle cx="276.6" cy="604.2" r="3"/>
<circle cx="279.3" cy="604.2" r="3"/>
<circle cx="282" cy="557.6" r="3"/>
<circle cx="284.8" cy="545.9" r="3"/>
<circle cx="287.5" cy="604.2" r="3"/>
<circle cx="290.2" cy="627.5" r="3"/>
<circle cx="292.9" cy="563.4" r="3"/>
<circle cx="295.6" cy="499.3" r="3"/>
<circle cx="298.4" cy="499.3" r="3"/>
<circle cx="303.8" cy="522.6" r="3"/>
<circle cx="306.5" cy="557.6" r="3"/>
<circle cx="309.3" cy="563.4" r="3"/>
<circle cx="314.7" cy="540.1" r="3"/>
<circle cx="317.4" cy="575" r="3"/>
<circle cx="320.1" cy="563.4" r="3"/>
<circle cx="322.9" cy="604.2" r="3"/>
<circle cx="325.6" cy="586.7" r="3"/>
<circle cx="328.3" cy="540.1" r="3"/>
<circle cx="331" cy="516.8" r="3"/>
<circle cx="333.8" cy="493.5" r="3"/>
<circle cx="336.5" cy="511" r="3"/>
<circle cx="339.2" cy="703.2" r="3"/>
<circle cx="341.9" cy="703.2" r="3"/>
<circle cx="344.7" cy="691.5" r="3"/>
<circle cx="347.4" cy="644.9" r="3"/>
<circle cx="350.1" cy="598.3" r="3"/>
<circle cx="352.8" cy="621.6" r="3"/>
<circle cx="355.6" cy="633.3" r="3"/>
<circle cx="358.3" cy="662.4" r="3"/>
<circle cx="361" cy="697.3" r="3"/>
<circle cx="363.7" cy="662.4" r="3"/>
<circle cx="366.5" cy="714.8" r="3"/>
<circle cx="369.2" cy="668.2" r="3"/>
<circle cx="371.9" cy="621.6" r="3"/>
<circle cx="374.6" cy="633.3" r="3"/>
<circle cx="377.4" cy="662.4" r="3"/>
<circle cx="380.1" cy="639.1" r="3"/>
<circle cx="382.8" cy="662.4" r="3"/>
<circle cx="385.5" cy="650.8" r="3"/>
<circle cx="388.2" cy="691.5" r="3"/>
<circle cx="391" cy="650.8" r="3"/>
<circle cx="393.7" cy="639.1" r="3"/>
<circle cx="396.4" cy="720.6" r="3"/>
<circle cx="399.1" cy="726.5" r="3"/>
<circle cx="401.9" cy="679.9" r="3"/>
<circle cx="404.6" cy="720.6" r="3"/>
<circle cx="407.3" cy="691.5" r="3"/>
<circle cx="410" cy="639.1" r="3"/>
<circle cx="412.8" cy="644.9" r="3"/>
<circle cx="415.5" cy="650.8" r="3"/>
<circle cx="418.2" cy="650.8" r="3"/>
<circle cx="420.9" cy="668.2" r="3"/>
<circle cx="423.6" cy="674" r="3"/>
<circle cx="426.4" cy="697.3" r="3"/>
<circle cx="429.1" cy="668.2" r="3"/>
<circle cx="431.8" cy="662.4" r="3"/>
<circle cx="434.5" cy="639.1" r="3"/>
<circle cx="437.3" cy="691.5" r="3"/>
<circle cx="440" cy="644.9" r="3"/>
<circle cx="442.7" cy="639.1" r="3"/>
<circle cx="445.4" cy="604.2" r="3"/>
<circle cx="448.2" cy="610" r="3"/>
<circle cx="450.9" cy="650.8" r="3"/>
<circle cx="453.6" cy="644.9" r="3"/>
<circle cx="456.3" cy="656.6" r="3"/>
<circle cx="459.1" cy="621.6" r="3"/>
<circle cx="461.8" cy="639.1" r="3"/>
<circle cx="464.5" cy="644.9" r="3"/>
<circle cx="470" cy="592.5" r="3"/>
<circle cx="472.7" cy="627.5" r="3"/>
<circle cx="475.4" cy="627.5" r="3"/>
<circle cx="478.1" cy="668.2" r="3"/>
<circle cx="480.9" cy="674" r="3"/>
<circle cx="483.6" cy="656.6" r="3"/>
<circle cx="486.3" cy="644.9" r="3"/>
<circle cx="489" cy="598.3" r="3"/>
<circle cx="491.7" cy="563.4" r="3"/>
<circle cx="494.5" cy="563.4" r="3"/>
<circle cx="497.2" cy="569.2" r="3"/>
<circle cx="499.9" cy="679.9" r="3"/>
<circle cx="502.6" cy="662.4" r="3"/>
<circle cx="505.4" cy="569.2" r="3"/>
<circle cx="508.1" cy="592.5" r="3"/>
<ellipse transform="matrix(0.9239 -0.3827 0.3827 0.9239 -196.7736 242.354)" cx="510.8" cy="615.8" rx="3" ry="3"/>
<ellipse transform="matrix(0.9239 -0.3827 0.3827 0.9239 -176.5063 239.4046)" cx="513.5" cy="563.4" rx="3" ry="3"/>
<circle cx="516.2" cy="540.1" r="3"/>
<circle cx="519" cy="545.9" r="3"/>
<circle cx="521.7" cy="575" r="3"/>
<circle cx="524.4" cy="644.9" r="3"/>
<circle cx="527.2" cy="697.3" r="3"/>
<circle cx="529.9" cy="668.2" r="3"/>
<circle cx="532.6" cy="685.7" r="3"/>
<circle cx="535.3" cy="691.5" r="3"/>
<circle cx="538" cy="685.7" r="3"/>
<circle cx="540.8" cy="639.1" r="3"/>
<circle cx="543.5" cy="639.1" r="3"/>
<circle cx="546.2" cy="627.5" r="3"/>
<circle cx="548.9" cy="598.3" r="3"/>
<circle cx="551.7" cy="592.5" r="3"/>
<circle cx="554.4" cy="644.9" r="3"/>
<circle cx="557.1" cy="674" r="3"/>
<circle cx="559.8" cy="656.6" r="3"/>
<circle cx="562.6" cy="668.2" r="3"/>
<circle cx="565.3" cy="610" r="3"/>
<circle cx="568" cy="545.9" r="3"/>
<circle cx="570.7" cy="633.3" r="3"/>
<circle cx="573.5" cy="650.8" r="3"/>
<circle cx="576.2" cy="644.9" r="3"/>
<circle cx="578.9" cy="534.3" r="3"/>
<circle cx="589.8" cy="598.3" r="3"/>
<circle cx="592.5" cy="615.8" r="3"/>
<circle cx="595.2" cy="615.8" r="3"/>
<circle cx="598" cy="575" r="3"/>
<circle cx="600.7" cy="656.6" r="3"/>
<circle cx="603.4" cy="656.6" r="3"/>
<circle cx="606.1" cy="633.3" r="3"/>
<circle cx="608.9" cy="691.5" r="3"/>
<circle cx="611.6" cy="703.2" r="3"/>
<circle cx="614.3" cy="709" r="3"/>
<circle cx="617" cy="656.6" r="3"/>
<circle cx="619.8" cy="650.8" r="3"/>
<circle cx="622.5" cy="674" r="3"/>
<circle cx="625.2" cy="679.9" r="3"/>
<circle cx="627.9" cy="656.6" r="3"/>
<circle cx="630.7" cy="633.3" r="3"/>
<circle cx="633.4" cy="644.9" r="3"/>
<circle cx="636.1" cy="633.3" r="3"/>
<circle cx="638.8" cy="650.8" r="3"/>
<circle cx="641.5" cy="639.1" r="3"/>
<circle cx="644.3" cy="621.6" r="3"/>
<circle cx="647" cy="621.6" r="3"/>
<circle cx="649.7" cy="633.3" r="3"/>
<circle cx="652.4" cy="633.3" r="3"/>
<circle cx="655.2" cy="604.2" r="3"/>
<circle cx="657.9" cy="621.6" r="3"/>
<circle cx="660.6" cy="668.2" r="3"/>
<circle cx="663.3" cy="650.8" r="3"/>
<circle cx="666" cy="639.1" r="3"/>
<circle cx="668.8" cy="685.7" r="3"/>
<circle cx="671.5" cy="697.3" r="3"/>
<circle cx="674.2" cy="662.4" r="3"/>
<circle cx="677" cy="662.4" r="3"/>
<circle cx="679.7" cy="674" r="3"/>
<circle cx="682.4" cy="679.9" r="3"/>
<circle cx="685.1" cy="650.8" r="3"/>
<circle cx="687.8" cy="633.3" r="3"/>
<circle cx="690.6" cy="703.2" r="3"/>
<circle cx="693.3" cy="662.4" r="3"/>
<circle cx="696" cy="650.8" r="3"/>
<circle cx="698.7" cy="668.2" r="3"/>
<circle cx="701.5" cy="674" r="3"/>
<circle cx="704.2" cy="697.3" r="3"/>
<circle cx="706.9" cy="714.8" r="3"/>
<circle cx="709.6" cy="720.6" r="3"/>
<circle cx="712.4" cy="703.2" r="3"/>
<circle cx="715.1" cy="668.2" r="3"/>
<circle cx="717.8" cy="633.3" r="3"/>
<circle cx="720.5" cy="679.9" r="3"/>
<circle cx="723.2" cy="709" r="3"/>
<circle cx="726" cy="697.3" r="3"/>
<circle cx="728.7" cy="714.8" r="3"/>
<circle cx="731.4" cy="697.3" r="3"/>
<circle cx="734.2" cy="703.2" r="3"/>
<circle cx="736.9" cy="697.3" r="3"/>
<circle cx="739.6" cy="668.2" r="3"/>
<circle cx="742.3" cy="650.8" r="3"/>
<circle cx="745" cy="650.8" r="3"/>
<circle cx="747.8" cy="674" r="3"/>
<circle cx="750.5" cy="668.2" r="3"/>
<circle cx="753.2" cy="668.2" r="3"/>
<circle cx="755.9" cy="650.8" r="3"/>
<circle cx="758.7" cy="679.9" r="3"/>
<circle cx="761.4" cy="685.7" r="3"/>
<circle cx="764.1" cy="662.4" r="3"/>
<circle cx="766.8" cy="668.2" r="3"/>
<circle cx="769.5" cy="668.2" r="3"/>
<circle cx="772.3" cy="662.4" r="3"/>
<circle cx="775" cy="644.9" r="3"/>
<circle cx="777.7" cy="662.4" r="3"/>
<circle cx="780.5" cy="668.2" r="3"/>
<circle cx="783.2" cy="685.7" r="3"/>
<circle cx="785.9" cy="697.3" r="3"/>
<circle cx="788.6" cy="679.9" r="3"/>
<circle cx="791.3" cy="662.4" r="3"/>
<circle cx="794.1" cy="668.2" r="3"/>
<circle cx="796.8" cy="592.5" r="3"/>
<circle cx="799.5" cy="691.5" r="3"/>
<circle cx="802.2" cy="703.2" r="3"/>
<circle cx="805" cy="720.6" r="3"/>
<circle cx="807.7" cy="679.9" r="3"/>
<circle cx="810.4" cy="656.6" r="3"/>
<circle cx="813.1" cy="691.5" r="3"/>
<circle cx="815.8" cy="697.3" r="3"/>
<circle cx="818.6" cy="691.5" r="3"/>
<circle cx="821.3" cy="685.7" r="3"/>
<circle cx="824" cy="662.4" r="3"/>
<circle cx="826.8" cy="697.3" r="3"/>
<circle cx="829.5" cy="703.2" r="3"/>
<circle cx="832.2" cy="703.2" r="3"/>
<circle cx="834.9" cy="674" r="3"/>
<circle cx="837.6" cy="679.9" r="3"/>
<circle cx="840.4" cy="679.9" r="3"/>
<circle cx="845.8" cy="662.4" r="3"/>
<circle cx="848.5" cy="674" r="3"/>
<circle cx="851.3" cy="627.5" r="3"/>
<circle cx="854" cy="586.7" r="3"/>
<circle cx="856.7" cy="586.7" r="3"/>
<circle cx="859.4" cy="598.3" r="3"/>
<circle cx="862.2" cy="621.6" r="3"/>
<circle cx="864.9" cy="627.5" r="3"/>
<circle cx="867.6" cy="557.6" r="3"/>
<circle cx="870.3" cy="575" r="3"/>
<circle cx="873" cy="569.2" r="3"/>
<circle cx="875.8" cy="575" r="3"/>
<circle cx="878.5" cy="586.7" r="3"/>
<circle cx="881.2" cy="621.6" r="3"/>
<circle cx="884" cy="580.9" r="3"/>
<circle cx="886.7" cy="534.3" r="3"/>
<circle cx="889.4" cy="557.6" r="3"/>
<circle cx="892.1" cy="516.8" r="3"/>
<circle cx="897.6" cy="604.2" r="3"/>
<circle cx="900.3" cy="575" r="3"/>
<circle cx="903" cy="540.1" r="3"/>
<circle cx="905.7" cy="540.1" r="3"/>
<circle cx="908.5" cy="545.9" r="3"/>
<circle cx="916.6" cy="580.9" r="3"/>
<circle cx="919.3" cy="644.9" r="3"/>
<circle cx="922.1" cy="633.3" r="3"/>
<circle cx="924.8" cy="633.3" r="3"/>
<circle cx="927.5" cy="557.6" r="3"/>
<circle cx="933" cy="703.2" r="3"/>
<circle cx="935.7" cy="703.2" r="3"/>
<circle cx="938.4" cy="709" r="3"/>
<circle cx="941.1" cy="615.8" r="3"/>
<circle cx="943.9" cy="545.9" r="3"/>
<circle cx="954.8" cy="615.8" r="3"/>
<circle cx="957.5" cy="604.2" r="3"/>
<circle cx="960.2" cy="610" r="3"/>
<circle cx="962.9" cy="615.8" r="3"/>
<circle cx="965.7" cy="650.8" r="3"/>
<circle cx="968.4" cy="569.2" r="3"/>
<circle cx="971.1" cy="575" r="3"/>
<circle cx="973.8" cy="545.9" r="3"/>
<circle cx="976.5" cy="580.9" r="3"/>
<circle cx="979.3" cy="610" r="3"/>
<circle cx="982" cy="714.8" r="3"/>
<circle cx="984.7" cy="679.9" r="3"/>
<circle cx="987.4" cy="633.3" r="3"/>
<circle cx="990.2" cy="487.7" r="3"/>
<circle cx="995.6" cy="551.7" r="3"/>
<circle cx="998.3" cy="575" r="3"/>
<circle cx="1001.1" cy="545.9" r="3"/>
<circle cx="1003.8" cy="540.1" r="3"/>
<circle cx="1006.5" cy="522.6" r="3"/>
<circle cx="1009.2" cy="580.9" r="3"/>
<circle cx="1012" cy="650.8" r="3"/>
<circle cx="1014.7" cy="691.5" r="3"/>
<circle cx="1017.4" cy="644.9" r="3"/>
<circle cx="1020.1" cy="615.8" r="3"/>
<circle cx="1022.8" cy="493.5" r="3"/>
<circle cx="1028.3" cy="668.2" r="3"/>
<circle cx="1031" cy="639.1" r="3"/>
<circle cx="1033.8" cy="674" r="3"/>
<circle cx="1036.5" cy="621.6" r="3"/>
<circle cx="1039.2" cy="592.5" r="3"/>
<circle cx="1041.9" cy="563.4" r="3"/>
<circle cx="1044.6" cy="551.7" r="3"/>
<circle cx="1047.4" cy="621.6" r="3"/>
<circle cx="1050.1" cy="569.2" r="3"/>
<circle cx="1052.8" cy="551.7" r="3"/>
<circle cx="1055.5" cy="487.7" r="3"/>
<circle cx="1063.7" cy="487.7" r="3"/>
<circle cx="1080.1" cy="505.1" r="3"/>
<circle cx="1085.5" cy="476" r="3"/>
<circle cx="1088.2" cy="516.8" r="3"/>
<path class="st3" d="M1084.5,761.3h-5.4c1.3,0,1.3-5.8,2.7-5.8S1083.2,761.3,1084.5,761.3z"/>
<path class="st3" d="M1062.8,761.3h-8.1c1.4,0,1.4-5.8,2.7-5.8h2.7C1061.5,755.5,1061.5,761.3,1062.8,761.3z"/>
<path class="st3" d="M1043.9,761.3h-10.8c1.3,0,1.3-5.8,2.7-5.8h2.7c1.3,0,1.3-110.3,2.7-110.3S1042.5,761.3,1043.9,761.3z"/>
<path class="st3" d="M1033.1,761.3h-5.4c1.3,0,1.3-23.2,2.7-23.2S1031.7,761.3,1033.1,761.3z"/>
<path class="st3" d="M1027.7,761.3h-8.1c1.3,0,1.3-11.6,2.7-11.6s1.3-116.1,2.7-116.1C1026.3,633.6,1026.3,761.3,1027.7,761.3z"/>
<path class="st3" d="M1016.8,761.3H1006c1.4,0,1.4-52.2,2.7-52.2h2.7c1.3,0,1.3,34.8,2.7,34.8S1015.5,761.3,1016.8,761.3z"/>
<path class="st3" d="M1000.6,761.3h-5.4c1.3,0,1.3-46.5,2.7-46.5S999.2,761.3,1000.6,761.3z"/>
<path class="st3" d="M992.5,761.3h-8.1c1.3,0,1.3-11.6,2.7-11.6h2.7C991.1,749.7,991.1,761.3,992.5,761.3z"/>
<path class="st3" d="M981.6,761.3h-5.4c1.4,0,1.4-354.1,2.7-354.1S980.3,761.3,981.6,761.3z"/>
<path class="st3" d="M973.5,761.3h-5.4c1.3,0,1.3-92.9,2.7-92.9S972.2,761.3,973.5,761.3z"/>
<path class="st3" d="M968.1,761.3h-10.8c1.3,0,1.3-40.6,2.7-40.6s1.4,23.2,2.7,23.2s1.3-11.6,2.7-11.6S966.7,761.3,968.1,761.3z"/>
<path class="st3" d="M957.3,761.3h-5.4c1.3,0,1.3-11.6,2.7-11.6S955.9,761.3,957.3,761.3z"/>
<path class="st3" d="M949.1,761.3h-5.4c1.4,0,1.4-11.6,2.7-11.6S947.8,761.3,949.1,761.3z"/>
<path class="st3" d="M932.9,761.3h-10.8c1.3,0,1.3-11.6,2.7-11.6s1.3-11.6,2.7-11.6s1.3,17.4,2.7,17.4S931.5,761.3,932.9,761.3z"/>
<path class="st3" d="M838,761.3h-5.4c1.3,0,1.3-23.2,2.7-23.2S836.7,761.3,838,761.3z"/>
<path class="st3" d="M824.5,761.3h-8.1c1.4,0,1.4-46.5,2.7-46.5s1.3,34.8,2.7,34.8S823.1,761.3,824.5,761.3z"/>
<path class="st3" d="M802.8,761.3h-5.4c1.3,0,1.3-81.3,2.7-81.3S801.5,761.3,802.8,761.3z"/>
<path class="st3" d="M797.4,761.3H792c1.3,0,1.3-23.2,2.7-23.2S796,761.3,797.4,761.3z"/>
<path class="st3" d="M759.5,761.3h-10.8c1.3,0,1.3-23.2,2.7-23.2h2.7c1.3,0,1.3,11.6,2.7,11.6S758.1,761.3,759.5,761.3z"/>
<path class="st3" d="M746,761.3h-5.4c1.4,0,1.4-17.4,2.7-17.4S744.6,761.3,746,761.3z"/>
<path class="st3" d="M724.3,761.3h-10.8c1.3,0,1.3-34.8,2.7-34.8s1.3-180,2.7-180s1.3,139.3,2.7,139.3S722.9,761.3,724.3,761.3z"/>
<path class="st3" d="M705.3,761.3h-5.4c1.3,0,1.3-5.8,2.7-5.8S704,761.3,705.3,761.3z"/>
<path class="st3" d="M607.8,761.3h-5.4c1.3,0,1.3-5.8,2.7-5.8S606.5,761.3,607.8,761.3z"/>
<path class="st3" d="M599.7,761.3h-5.4c1.4,0,1.4-34.8,2.7-34.8S598.4,761.3,599.7,761.3z"/>
<path class="st3" d="M532,761.3h-10.8c1.3,0,1.3-52.2,2.7-52.2s1.4,17.4,2.7,17.4s1.3,23.2,2.7,23.2S530.7,761.3,532,761.3z"/>
<path class="st3" d="M502.2,761.3h-8.1c1.4,0,1.4-29,2.7-29s1.4-23.2,2.7-23.2S500.9,761.3,502.2,761.3z"/>
<path class="st3" d="M491.4,761.3H486c1.4,0,1.4-5.8,2.7-5.8S490.1,761.3,491.4,761.3z"/>
<path class="st3" d="M445.4,761.3h-13.5c1.4,0,1.4-52.2,2.7-52.2s1.4-92.9,2.7-92.9s1.4,133.5,2.7,133.5s1.4,5.8,2.7,5.8
	S444,761.3,445.4,761.3z"/>
<path class="st3" d="M407.5,761.3H394c1.4,0,1.4-180,2.7-180s1.4-133.5,2.7-133.5s1.4,296.1,2.7,296.1s1.4-11.6,2.7-11.6
	S406.1,761.3,407.5,761.3z"/>
<path class="st3" d="M366.9,761.3h-5.4c1.4,0,1.4-69.7,2.7-69.7S365.5,761.3,366.9,761.3z"/>
<path class="st3" d="M353.3,761.3h-8.1c1.4,0,1.4-5.8,2.7-5.8h2.7C352,755.5,352,761.3,353.3,761.3z"/>
<path class="st3" d="M342.5,761.3h-8.1c1.4,0,1.4-40.6,2.7-40.6s1.4-232.2,2.7-232.2S341.1,761.3,342.5,761.3z"/>
<path class="st3" d="M247.8,761.3h-5.4c1.4,0,1.4-29,2.7-29S246.5,761.3,247.8,761.3z"/>
<path class="st3" d="M220.8,761.3h-5.4c1.4,0,1.4-58.1,2.7-58.1S219.4,761.3,220.8,761.3z"/>
<path class="st3" d="M212.6,761.3h-8.1c1.4,0,1.4-5.8,2.7-5.8h2.7C211.3,755.5,211.3,761.3,212.6,761.3z"/>
<path class="st3" d="M120.6,761.3h-5.4c1.3,0,1.3-29,2.7-29S119.2,761.3,120.6,761.3z"/>
<path class="st3" d="M112.5,761.3h-8.1c1.4,0,1.4-156.8,2.7-156.8s1.3,98.7,2.7,98.7S111.1,761.3,112.5,761.3z"/>
<path class="st4" d="M1079.1,761.3c1.3,0,1.3-5.8,2.7-5.8s1.3,5.8,2.7,5.8"/>
<path class="st4" d="M1054.7,761.3c1.4,0,1.4-5.8,2.7-5.8h2.7c1.3,0,1.3,5.8,2.7,5.8"/>
<path class="st4" d="M1019.5,761.3c1.3,0,1.3-11.6,2.7-11.6s1.3-116.1,2.7-116.1c1.3,0,1.3,127.7,2.7,127.7s1.3-23.2,2.7-23.2
	s1.3,23.2,2.7,23.2s1.3-5.8,2.7-5.8h2.7c1.3,0,1.3-110.3,2.7-110.3s1.3,116.1,2.7,116.1"/>
<path class="st4" d="M1006,761.3c1.4,0,1.4-52.2,2.7-52.2h2.7c1.3,0,1.3,34.8,2.7,34.8s1.3,17.4,2.7,17.4"/>
<path class="st4" d="M995.2,761.3c1.3,0,1.3-46.5,2.7-46.5s1.4,46.5,2.7,46.5"/>
<path class="st4" d="M984.3,761.3c1.3,0,1.3-11.6,2.7-11.6h2.7c1.3,0,1.3,11.6,2.7,11.6"/>
<path class="st4" d="M976.2,761.3c1.4,0,1.4-354.1,2.7-354.1s1.3,354.1,2.7,354.1"/>
<path class="st4" d="M951.8,761.3c1.3,0,1.3-11.6,2.7-11.6s1.4,11.6,2.7,11.6s1.3-40.6,2.7-40.6s1.4,23.2,2.7,23.2
	s1.3-11.6,2.7-11.6s1.4,29,2.7,29s1.3-92.9,2.7-92.9s1.4,92.9,2.7,92.9"/>
<path class="st4" d="M943.7,761.3c1.4,0,1.4-11.6,2.7-11.6s1.3,11.6,2.7,11.6"/>
<path class="st4" d="M922.1,761.3c1.3,0,1.3-11.6,2.7-11.6s1.3-11.6,2.7-11.6s1.3,17.4,2.7,17.4s1.3,5.8,2.7,5.8"/>
<path class="st4" d="M832.6,761.3c1.3,0,1.3-23.2,2.7-23.2s1.3,23.2,2.7,23.2"/>
<path class="st4" d="M816.3,761.3c1.4,0,1.4-46.5,2.7-46.5s1.3,34.8,2.7,34.8s1.4,11.6,2.7,11.6"/>
<path class="st4" d="M792,761.3c1.3,0,1.3-23.2,2.7-23.2s1.4,23.2,2.7,23.2s1.3-81.3,2.7-81.3s1.4,81.3,2.7,81.3"/>
<path class="st4" d="M748.7,761.3c1.3,0,1.3-23.2,2.7-23.2h2.7c1.3,0,1.3,11.6,2.7,11.6s1.4,11.6,2.7,11.6"/>
<path class="st4" d="M740.5,761.3c1.4,0,1.4-17.4,2.7-17.4s1.3,17.4,2.7,17.4"/>
<path class="st4" d="M713.5,761.3c1.3,0,1.3-34.8,2.7-34.8s1.3-180,2.7-180s1.3,139.3,2.7,139.3s1.3,75.5,2.7,75.5"/>
<path class="st4" d="M699.9,761.3c1.3,0,1.3-5.8,2.7-5.8s1.3,5.8,2.7,5.8"/>
<path class="st4" d="M602.4,761.3c1.3,0,1.3-5.8,2.7-5.8s1.3,5.8,2.7,5.8"/>
<path class="st4" d="M594.3,761.3c1.4,0,1.4-34.8,2.7-34.8s1.3,34.8,2.7,34.8"/>
<path class="st4" d="M521.2,761.3c1.3,0,1.3-52.2,2.7-52.2s1.4,17.4,2.7,17.4s1.3,23.2,2.7,23.2s1.3,11.6,2.7,11.6"/>
<path class="st4" d="M494.1,761.3c1.4,0,1.4-29,2.7-29s1.4-23.2,2.7-23.2s1.4,52.2,2.7,52.2"/>
<path class="st4" d="M486,761.3c1.4,0,1.4-5.8,2.7-5.8s1.4,5.8,2.7,5.8"/>
<path class="st4" d="M431.9,761.3c1.4,0,1.4-52.2,2.7-52.2s1.4-92.9,2.7-92.9s1.4,133.5,2.7,133.5s1.4,5.8,2.7,5.8s1.4,5.8,2.7,5.8"
	/>
<path class="st4" d="M394,761.3c1.4,0,1.4-180,2.7-180s1.4-133.5,2.7-133.5s1.4,296.1,2.7,296.1s1.4-11.6,2.7-11.6s1.4,29,2.7,29"/>
<path class="st4" d="M361.5,761.3c1.4,0,1.4-69.7,2.7-69.7s1.4,69.7,2.7,69.7"/>
<path class="st4" d="M345.2,761.3c1.4,0,1.4-5.8,2.7-5.8h2.7c1.4,0,1.4,5.8,2.7,5.8"/>
<path class="st4" d="M334.4,761.3c1.4,0,1.4-40.6,2.7-40.6s1.4-232.2,2.7-232.2s1.4,272.9,2.7,272.9"/>
<path class="st4" d="M242.4,761.3c1.4,0,1.4-29,2.7-29s1.4,29,2.7,29"/>
<path class="st4" d="M215.4,761.3c1.4,0,1.4-58.1,2.7-58.1s1.4,58.1,2.7,58.1"/>
<path class="st4" d="M204.5,761.3c1.4,0,1.4-5.8,2.7-5.8h2.7c1.4,0,1.4,5.8,2.7,5.8"/>
<path class="st4" d="M115.2,761.3c1.3,0,1.3-29,2.7-29s1.3,29,2.7,29"/>
<path class="st4" d="M104.3,761.3c1.4,0,1.4-156.8,2.7-156.8s1.3,98.7,2.7,98.7s1.3,58.1,2.7,58.1"/>
<polyline class="st4" points="96.8,761.3 104.3,761.3 112.5,761.3 115.2,761.3 120.6,761.3 204.5,761.3 212.6,761.3 215.4,761.3 
	220.8,761.3 242.4,761.3 247.8,761.3 334.4,761.3 342.5,761.3 345.2,761.3 353.3,761.3 361.5,761.3 366.9,761.3 394,761.3 
	407.5,761.3 431.9,761.3 445.4,761.3 486,761.3 491.4,761.3 494.1,761.3 502.2,761.3 521.2,761.3 532,761.3 594.3,761.3 
	599.7,761.3 602.4,761.3 607.8,761.3 699.9,761.3 705.3,761.3 713.5,761.3 724.3,761.3 740.5,761.3 746,761.3 748.7,761.3 
	759.5,761.3 792,761.3 797.4,761.3 802.8,761.3 816.3,761.3 824.5,761.3 832.6,761.3 838,761.3 922.1,761.3 932.9,761.3 
	943.7,761.3 949.1,761.3 951.8,761.3 957.2,761.3 968.1,761.3 973.5,761.3 976.2,761.3 981.6,761.3 984.3,761.3 992.5,761.3 
	995.2,761.3 1000.6,761.3 1006,761.3 1016.8,761.3 1019.5,761.3 1027.7,761.3 1033.1,761.3 1043.9,761.3 1054.7,761.3 1062.8,761.3 
	1079.1,761.3 1084.5,761.3 1088.2,761.3 "/>
<path d="M289.2,175.3c0-0.5-0.3-0.9-0.7-1.2c-0.5-0.3-1-0.4-1.5-0.4c-0.4,0-0.8,0.1-1.1,0.2c-0.3,0.1-0.6,0.3-0.8,0.6
	c-0.2,0.2-0.3,0.5-0.3,0.8c0,0.2,0.1,0.5,0.2,0.7c0.1,0.2,0.3,0.3,0.5,0.5c0.2,0.1,0.4,0.2,0.6,0.3c0.2,0.1,0.5,0.1,0.7,0.2l1,0.3
	c0.4,0.1,0.7,0.2,1.1,0.3c0.4,0.1,0.7,0.3,1,0.6c0.3,0.2,0.6,0.5,0.8,0.9c0.2,0.4,0.3,0.8,0.3,1.2c0,0.6-0.2,1.2-0.5,1.6
	c-0.3,0.5-0.8,0.9-1.4,1.1c-0.7,0.3-1.4,0.4-2.2,0.4c-0.7,0-1.4-0.1-2.1-0.4c-0.6-0.2-1-0.6-1.4-1.1c-0.3-0.5-0.5-1.1-0.6-1.7h1.6
	c0,0.4,0.1,0.7,0.4,1c0.2,0.3,0.5,0.5,0.9,0.6c0.4,0.1,0.8,0.2,1.1,0.2c0.4,0,0.8-0.1,1.2-0.2c0.3-0.1,0.6-0.3,0.9-0.6
	c0.2-0.3,0.3-0.6,0.3-0.9c0-0.3-0.1-0.6-0.3-0.8c-0.2-0.2-0.5-0.4-0.7-0.5c-0.3-0.1-0.7-0.3-1-0.4l-1.3-0.4c-0.8-0.2-1.5-0.5-2.1-1
	c-0.5-0.5-0.8-1.1-0.8-1.8c0-0.6,0.2-1.2,0.5-1.6c0.4-0.5,0.8-0.9,1.4-1.1c0.6-0.3,1.3-0.4,2-0.4c0.7,0,1.3,0.1,1.9,0.4
	c0.5,0.2,1,0.6,1.3,1.1c0.3,0.5,0.5,1,0.5,1.6L289.2,175.3z"/>
<path d="M292.8,186.3v-11.2h1.5v1.3h0.1c0.1-0.2,0.2-0.4,0.4-0.6c0.2-0.2,0.4-0.4,0.7-0.6c0.4-0.2,0.8-0.3,1.2-0.2
	c0.6,0,1.2,0.2,1.8,0.5c0.5,0.4,1,0.8,1.2,1.4c0.3,0.7,0.5,1.5,0.4,2.2c0,0.8-0.1,1.5-0.4,2.3c-0.3,0.6-0.7,1.1-1.2,1.4
	c-0.5,0.3-1.1,0.5-1.8,0.5c-0.4,0-0.8-0.1-1.2-0.2c-0.3-0.1-0.5-0.3-0.7-0.6c-0.2-0.2-0.3-0.4-0.4-0.6h-0.1v4.3L292.8,186.3z
	 M294.3,179.2c0,0.5,0.1,1,0.2,1.5c0.1,0.4,0.4,0.7,0.7,1c0.3,0.3,0.7,0.4,1.1,0.4c0.4,0,0.8-0.1,1.2-0.4c0.3-0.3,0.6-0.6,0.7-1
	c0.2-0.5,0.3-1,0.2-1.5c0-0.5-0.1-1-0.2-1.4c-0.1-0.4-0.4-0.7-0.7-1c-0.3-0.2-0.8-0.4-1.2-0.4c-0.4,0-0.8,0.1-1.2,0.4
	c-0.3,0.3-0.6,0.6-0.7,1C294.4,178.2,294.3,178.7,294.3,179.2z"/>
<path d="M305.5,183.4c-0.7,0-1.4-0.2-2.1-0.5c-0.6-0.3-1-0.8-1.3-1.4c-0.3-0.7-0.5-1.4-0.5-2.2c0-0.8,0.1-1.5,0.5-2.2
	c0.6-1.3,1.9-2,3.3-2c0.5,0,0.9,0.1,1.3,0.2c0.4,0.2,0.8,0.4,1.2,0.7c0.4,0.4,0.6,0.8,0.8,1.3c0.2,0.6,0.3,1.2,0.3,1.9v0.6h-6.5
	v-1.2h4.9c0-0.4-0.1-0.8-0.3-1.1c-0.2-0.3-0.4-0.6-0.7-0.8c-0.3-0.2-0.7-0.3-1.1-0.3c-0.4,0-0.8,0.1-1.2,0.3
	c-0.3,0.2-0.6,0.5-0.8,0.9c-0.2,0.3-0.3,0.7-0.3,1.1v0.9c0,0.5,0.1,1,0.3,1.4c0.2,0.4,0.5,0.7,0.8,0.9c0.4,0.2,0.8,0.3,1.2,0.3
	c0.3,0,0.6,0,0.8-0.1c0.2-0.1,0.5-0.2,0.6-0.4c0.2-0.2,0.3-0.4,0.4-0.6l1.5,0.3c-0.1,0.4-0.3,0.8-0.6,1.1c-0.3,0.3-0.7,0.6-1.1,0.8
	C306.5,183.4,306,183.5,305.5,183.4z"/>
<path d="M314.1,186.5c-0.6,0-1.1-0.1-1.7-0.3c-0.4-0.1-0.8-0.4-1.1-0.7c-0.3-0.3-0.5-0.6-0.6-0.9l1.4-0.6c0.1,0.2,0.2,0.3,0.4,0.5
	c0.2,0.2,0.4,0.3,0.6,0.4c0.3,0.1,0.7,0.2,1.1,0.2c0.5,0,1.1-0.1,1.5-0.4c0.4-0.3,0.6-0.9,0.6-1.4v-1.6h-0.1
	c-0.1,0.2-0.3,0.4-0.4,0.6c-0.2,0.2-0.4,0.4-0.7,0.6c-0.4,0.2-0.8,0.2-1.2,0.2c-0.6,0-1.2-0.1-1.7-0.4c-0.5-0.3-0.9-0.8-1.2-1.3
	c-0.3-0.7-0.5-1.4-0.5-2.2c0-0.8,0.1-1.5,0.4-2.2c0.3-0.6,0.7-1.1,1.2-1.4c0.5-0.3,1.1-0.5,1.8-0.5c0.4,0,0.8,0.1,1.2,0.2
	c0.3,0.1,0.5,0.3,0.7,0.6c0.1,0.2,0.3,0.4,0.4,0.6h0.1v-1.3h1.5v8.3c0,0.6-0.1,1.2-0.5,1.7c-0.3,0.5-0.8,0.8-1.3,1
	C315.4,186.4,314.7,186.5,314.1,186.5z M314.1,181.8c0.4,0,0.8-0.1,1.2-0.3c0.3-0.2,0.6-0.5,0.7-0.9c0.2-0.5,0.3-0.9,0.2-1.4
	c0-0.5-0.1-1-0.2-1.4c-0.1-0.4-0.4-0.7-0.7-1c-0.3-0.2-0.7-0.4-1.2-0.4c-0.4,0-0.8,0.1-1.2,0.4c-0.3,0.3-0.6,0.6-0.7,1
	c-0.2,0.4-0.2,0.9-0.2,1.4c0,0.5,0.1,1,0.2,1.4C312.5,181.3,313.3,181.8,314.1,181.8L314.1,181.8z"/>
<path d="M321.5,178.5v4.8h-1.6v-8.1h1.5v1.3h0.1c0.2-0.4,0.5-0.8,0.9-1c0.5-0.3,1-0.4,1.5-0.4c0.5,0,1,0.1,1.5,0.4
	c0.4,0.2,0.8,0.6,1,1c0.2,0.5,0.4,1.1,0.3,1.7v5.2h-1.6v-5c0-0.5-0.1-1-0.5-1.4c-0.3-0.3-0.8-0.5-1.3-0.5c-0.3,0-0.7,0.1-1,0.2
	c-0.3,0.2-0.5,0.4-0.7,0.7C321.5,177.7,321.5,178.1,321.5,178.5z"/>
<path d="M329.6,173.9c-0.3,0-0.5-0.1-0.7-0.3c-0.2-0.2-0.3-0.4-0.3-0.7c0-0.3,0.1-0.5,0.3-0.7c0.2-0.2,0.4-0.3,0.7-0.3
	c0.3,0,0.5,0.1,0.7,0.3c0.2,0.2,0.3,0.4,0.3,0.7c0,0.3-0.1,0.5-0.3,0.7C330.1,173.8,329.8,173.9,329.6,173.9z M328.8,183.3v-8.1h1.6
	v8.1H328.8z"/>
<path d="M332.5,183.3v-8.1h1.5v1.3h0.1c0.2-0.4,0.5-0.8,0.8-1c0.4-0.3,0.9-0.4,1.4-0.4c0.5,0,1,0.1,1.4,0.4c0.4,0.2,0.6,0.6,0.8,1
	h0.1c0.2-0.4,0.5-0.8,0.9-1c0.5-0.3,1-0.4,1.5-0.4c0.7,0,1.3,0.2,1.8,0.7c0.5,0.6,0.8,1.3,0.7,2.1v5.4h-1.6V178
	c0-0.4-0.1-0.9-0.5-1.2c-0.3-0.2-0.7-0.4-1.1-0.4c-0.4,0-0.9,0.1-1.2,0.5c-0.3,0.3-0.4,0.8-0.4,1.2v5.2h-1.6v-5.4
	c0-0.4-0.1-0.8-0.4-1.1c-0.5-0.5-1.3-0.5-1.9-0.2c-0.3,0.2-0.5,0.4-0.6,0.6c-0.2,0.3-0.2,0.7-0.2,1v5L332.5,183.3z"/>
<path d="M349.1,183.4c-0.7,0-1.4-0.2-2.1-0.5c-0.6-0.3-1-0.8-1.3-1.4c-0.3-0.7-0.5-1.4-0.5-2.2c0-0.8,0.1-1.5,0.5-2.2
	c0.6-1.3,1.9-2,3.3-2c0.5,0,0.9,0.1,1.3,0.2c0.4,0.2,0.8,0.4,1.1,0.7c0.4,0.4,0.6,0.8,0.8,1.3c0.2,0.6,0.3,1.2,0.3,1.9v0.6h-6.5
	v-1.2h4.9c0-0.4-0.1-0.8-0.2-1.1c-0.2-0.3-0.4-0.6-0.7-0.8c-0.3-0.2-0.7-0.3-1.1-0.3c-0.4,0-0.8,0.1-1.2,0.3
	c-0.3,0.2-0.6,0.5-0.8,0.9c-0.2,0.4-0.3,0.7-0.3,1.1v0.9c0,0.5,0.1,1,0.3,1.4c0.2,0.4,0.5,0.7,0.8,0.9c0.6,0.3,1.3,0.4,2,0.2
	c0.2-0.1,0.5-0.2,0.6-0.4c0.2-0.2,0.3-0.4,0.4-0.6l1.5,0.3c-0.1,0.4-0.3,0.8-0.6,1.1c-0.3,0.3-0.7,0.6-1.2,0.8
	C350.2,183.4,349.7,183.5,349.1,183.4z"/>
<path d="M356,178.5v4.8h-1.6v-8.1h1.5v1.3h0.1c0.2-0.4,0.5-0.8,0.9-1c0.5-0.3,1-0.4,1.5-0.4c0.5,0,1,0.1,1.5,0.4
	c0.4,0.2,0.8,0.6,1,1c0.2,0.5,0.4,1.1,0.3,1.7v5.2h-1.6v-5c0-0.5-0.1-1-0.5-1.4c-0.3-0.3-0.8-0.5-1.3-0.5c-0.3,0-0.7,0.1-1,0.2
	c-0.3,0.2-0.5,0.4-0.7,0.7C356.1,177.7,356,178.1,356,178.5z"/>
<path d="M367,175.2v1.3h-4.4v-1.3H367z M363.8,173.2h1.6v7.7c0,0.2,0,0.5,0.1,0.7c0.1,0.1,0.2,0.3,0.4,0.3c0.2,0.1,0.3,0.1,0.5,0.1
	c0.1,0,0.2,0,0.3,0h0.2l0.3,1.3c-0.1,0-0.3,0.1-0.4,0.1c-0.2,0-0.4,0.1-0.6,0.1c-0.4,0-0.8-0.1-1.2-0.2c-0.4-0.2-0.7-0.4-0.9-0.7
	c-0.2-0.4-0.3-0.8-0.3-1.2V173.2z"/>
<path d="M372.1,183.4c-0.7,0-1.4-0.2-2-0.5c-0.6-0.4-1-0.9-1.3-1.5c-0.3-0.7-0.5-1.4-0.5-2.2c0-0.8,0.1-1.5,0.5-2.2
	c0.3-0.6,0.7-1.1,1.3-1.5c1.2-0.7,2.8-0.7,4,0c0.6,0.4,1,0.9,1.3,1.5c0.3,0.7,0.5,1.4,0.5,2.2c0,0.8-0.1,1.5-0.5,2.2
	c-0.3,0.6-0.8,1.1-1.3,1.5C373.5,183.3,372.8,183.5,372.1,183.4z M372.1,182.1c0.4,0,0.9-0.1,1.2-0.4c0.3-0.3,0.6-0.6,0.7-1
	c0.3-0.9,0.3-1.9,0-2.9c-0.1-0.4-0.4-0.7-0.7-1c-0.3-0.3-0.8-0.4-1.2-0.4c-0.4,0-0.9,0.1-1.2,0.4c-0.3,0.3-0.6,0.6-0.7,1
	c-0.3,0.9-0.3,1.9,0,2.9c0.1,0.4,0.4,0.7,0.7,1C371.2,182,371.7,182.1,372.1,182.1L372.1,182.1z"/>
<path d="M283.2,201.9v-8.1h1.5v1.3h0.1c0.1-0.4,0.4-0.8,0.8-1c0.4-0.3,0.8-0.4,1.3-0.4h0.4h0.3v1.5l-0.3-0.1c-0.2,0-0.3,0-0.5,0
	c-0.3,0-0.7,0.1-1,0.2c-0.3,0.1-0.5,0.4-0.7,0.6c-0.2,0.3-0.3,0.6-0.3,0.9v5L283.2,201.9z"/>
<path d="M289.7,192.5c-0.3,0-0.5-0.1-0.7-0.3c-0.2-0.2-0.3-0.4-0.3-0.7c0-0.3,0.1-0.5,0.3-0.7c0.2-0.2,0.4-0.3,0.7-0.3
	c0.3,0,0.5,0.1,0.7,0.3c0.2,0.2,0.3,0.4,0.3,0.7c0,0.3-0.1,0.5-0.3,0.7C290.2,192.4,290,192.5,289.7,192.5z M288.9,201.9v-8.1h1.6
	v8.1H288.9z"/>
<path d="M298.7,195.7l-1.4,0.2c-0.1-0.2-0.2-0.4-0.3-0.5c-0.1-0.2-0.3-0.3-0.5-0.4c-0.3-0.1-0.5-0.2-0.8-0.1c-0.4,0-0.8,0.1-1.1,0.3
	c-0.3,0.2-0.4,0.5-0.4,0.8c0,0.3,0.1,0.5,0.3,0.7c0.3,0.2,0.6,0.3,1,0.4l1.3,0.3c0.6,0.1,1.2,0.4,1.7,0.8c0.4,0.4,0.6,0.9,0.5,1.4
	c0,0.5-0.1,0.9-0.4,1.3c-0.3,0.4-0.7,0.7-1.2,0.9c-0.5,0.2-1.1,0.3-1.7,0.3c-0.8,0-1.6-0.2-2.2-0.6c-0.6-0.4-0.9-1-1-1.7l1.5-0.2
	c0.1,0.4,0.3,0.7,0.6,0.9c0.3,0.2,0.8,0.3,1.2,0.3c0.4,0,0.9-0.1,1.2-0.3c0.3-0.2,0.5-0.5,0.5-0.8c0-0.2-0.1-0.5-0.3-0.7
	c-0.2-0.2-0.5-0.3-0.9-0.4l-1.4-0.3c-0.6-0.1-1.2-0.4-1.7-0.8c-0.4-0.4-0.6-0.9-0.5-1.4c0-0.5,0.1-0.9,0.4-1.3
	c0.3-0.4,0.6-0.6,1.1-0.8c0.5-0.2,1.1-0.3,1.6-0.3c0.7,0,1.5,0.2,2.1,0.6C298.2,194.6,298.5,195.1,298.7,195.7z"/>
<path d="M304,202c-0.7,0-1.4-0.2-2-0.5c-0.6-0.4-1-0.9-1.3-1.5c-0.3-0.7-0.5-1.4-0.5-2.2c0-0.8,0.1-1.5,0.5-2.2
	c0.3-0.6,0.7-1.1,1.3-1.5c0.6-0.4,1.3-0.6,2-0.5c0.6,0,1.1,0.1,1.6,0.3c0.5,0.2,0.9,0.6,1.2,1c0.3,0.4,0.5,0.9,0.5,1.4h-1.5
	c-0.1-0.4-0.3-0.7-0.6-1c-0.4-0.3-0.8-0.4-1.3-0.4c-0.4,0-0.8,0.1-1.1,0.4c-0.3,0.3-0.6,0.6-0.8,1c-0.2,0.5-0.3,1-0.3,1.5
	c0,0.5,0.1,1,0.3,1.5c0.2,0.4,0.4,0.7,0.8,1c0.6,0.4,1.3,0.5,2,0.2c0.2-0.1,0.4-0.3,0.6-0.5c0.2-0.2,0.3-0.5,0.4-0.8h1.5
	c0,0.5-0.2,1-0.5,1.4c-0.3,0.4-0.7,0.8-1.1,1C305.1,202,304.6,202,304,202z"/>
<path d="M311.4,202.1c-0.5,0-1-0.1-1.4-0.3c-0.4-0.2-0.8-0.5-1-0.8c-0.2-0.4-0.4-0.9-0.4-1.4c0-0.4,0.1-0.8,0.3-1.1
	c0.2-0.3,0.4-0.5,0.7-0.7c0.3-0.2,0.7-0.3,1-0.4c0.4-0.1,0.7-0.2,1.1-0.2l1.2-0.2c0.2,0,0.5-0.1,0.7-0.2c0.1-0.1,0.2-0.2,0.2-0.4
	l0,0c0-0.4-0.1-0.8-0.4-1.1c-0.3-0.3-0.7-0.4-1.1-0.4c-0.8-0.1-1.6,0.4-1.9,1.1l-1.5-0.3c0.1-0.5,0.4-0.9,0.8-1.2
	c0.3-0.3,0.7-0.5,1.2-0.7c0.5-0.1,0.9-0.2,1.4-0.2c0.3,0,0.7,0,1,0.1c0.4,0.1,0.7,0.2,1,0.4c0.3,0.2,0.6,0.5,0.8,0.9
	c0.2,0.4,0.3,0.9,0.3,1.4v5.4h-1.5v-1.1h-0.1c-0.1,0.2-0.3,0.4-0.5,0.6c-0.2,0.2-0.5,0.4-0.8,0.5C312.2,202,311.8,202.1,311.4,202.1
	z M311.8,200.8c0.4,0,0.8-0.1,1.1-0.3c0.3-0.2,0.5-0.4,0.7-0.7c0.2-0.3,0.3-0.6,0.2-0.9v-1c-0.1,0.1-0.2,0.1-0.3,0.2
	c-0.2,0.1-0.4,0.1-0.5,0.1l-0.6,0.1l-0.5,0.1c-0.3,0-0.6,0.1-0.8,0.2c-0.2,0.1-0.4,0.2-0.6,0.4c-0.4,0.5-0.3,1.2,0.2,1.6
	C311,200.7,311.4,200.8,311.8,200.8z"/>
<path d="M319.1,191v10.8h-1.6V191H319.1z"/>
<path d="M324.3,202c-0.6,0-1.2-0.2-1.8-0.5c-0.5-0.4-0.9-0.9-1.2-1.4c-0.6-1.4-0.6-3.1,0-4.5c0.3-0.6,0.7-1.1,1.2-1.4
	c0.5-0.3,1.1-0.5,1.8-0.5c0.4,0,0.8,0.1,1.2,0.2c0.3,0.1,0.5,0.3,0.7,0.6c0.1,0.2,0.3,0.4,0.4,0.6h0.1v-4h1.6v10.8h-1.5v-1.3h-0.1
	c-0.1,0.2-0.3,0.4-0.4,0.6c-0.2,0.2-0.4,0.4-0.7,0.6C325.1,201.9,324.7,202,324.3,202z M324.6,200.7c0.4,0,0.8-0.1,1.2-0.4
	c0.3-0.3,0.6-0.6,0.7-1c0.2-0.5,0.2-1,0.2-1.5c0-0.5-0.1-1-0.2-1.5c-0.1-0.4-0.4-0.7-0.7-1c-0.3-0.2-0.7-0.4-1.2-0.4
	c-0.4,0-0.8,0.1-1.2,0.4c-0.3,0.3-0.6,0.6-0.7,1c-0.2,0.5-0.2,1-0.2,1.4c0,0.5,0.1,1,0.2,1.5c0.1,0.4,0.4,0.7,0.7,1
	C323.8,200.5,324.2,200.7,324.6,200.7L324.6,200.7z"/>
<path d="M332.9,202.1c-0.5,0-1-0.1-1.4-0.3c-0.4-0.2-0.8-0.5-1-0.8c-0.2-0.4-0.4-0.9-0.4-1.4c0-0.4,0.1-0.8,0.3-1.1
	c0.2-0.3,0.4-0.5,0.7-0.7c0.3-0.2,0.7-0.3,1-0.4c0.4-0.1,0.7-0.2,1.1-0.2l1.2-0.1c0.2,0,0.5-0.1,0.7-0.2c0.1-0.1,0.2-0.2,0.2-0.4
	l0,0c0-0.4-0.1-0.8-0.4-1.1c-0.3-0.3-0.7-0.4-1.2-0.4c-0.4,0-0.9,0.1-1.2,0.4c-0.3,0.2-0.5,0.5-0.6,0.8l-1.5-0.3
	c0.2-0.5,0.4-0.9,0.8-1.2c0.3-0.3,0.7-0.5,1.2-0.7c0.5-0.1,0.9-0.2,1.4-0.2c0.3,0,0.7,0,1,0.1c0.4,0.1,0.7,0.2,1,0.4
	c0.3,0.2,0.6,0.5,0.8,0.9c0.2,0.5,0.3,0.9,0.3,1.4v5.4h-1.5v-1.1h-0.1c-0.1,0.2-0.3,0.4-0.5,0.6c-0.2,0.2-0.5,0.4-0.8,0.5
	C333.6,202,333.3,202.1,332.9,202.1z M333.2,200.8c0.4,0,0.8-0.1,1.1-0.3c0.3-0.2,0.5-0.4,0.7-0.7c0.2-0.3,0.2-0.6,0.2-0.9v-1
	c-0.1,0.1-0.2,0.1-0.3,0.2c-0.2,0.1-0.4,0.1-0.5,0.1l-0.6,0.1l-0.5,0.1c-0.3,0-0.6,0.1-0.8,0.2c-0.2,0.1-0.4,0.2-0.6,0.4
	c-0.4,0.5-0.3,1.2,0.2,1.6c0,0,0,0,0,0C332.5,200.7,332.9,200.8,333.2,200.8z"/>
<path d="M339,201.9v-8.1h1.5v1.3h0.1c0.2-0.4,0.4-0.8,0.8-1.1c0.4-0.3,0.9-0.4,1.4-0.4c0.5,0,1,0.1,1.4,0.4c0.4,0.3,0.7,0.6,0.8,1.1
	h0.1c0.2-0.4,0.5-0.8,0.9-1c0.5-0.3,1-0.4,1.5-0.4c0.7,0,1.3,0.2,1.8,0.7c0.5,0.6,0.8,1.3,0.7,2.1v5.4h-1.6v-5.3
	c0-0.4-0.1-0.9-0.5-1.2c-0.3-0.2-0.7-0.4-1.1-0.4c-0.5,0-0.9,0.1-1.2,0.5c-0.3,0.3-0.4,0.8-0.4,1.2v5.2h-1.6v-5.4
	c0-0.4-0.1-0.8-0.4-1.1c-0.3-0.3-0.7-0.4-1.1-0.4c-0.3,0-0.6,0.1-0.8,0.2c-0.3,0.2-0.5,0.4-0.6,0.6c-0.2,0.3-0.2,0.7-0.2,1v5
	L339,201.9z"/>
<path d="M355.6,202c-0.7,0-1.4-0.2-2.1-0.5c-0.6-0.3-1-0.8-1.3-1.4c-0.3-0.7-0.5-1.4-0.5-2.2c0-0.8,0.1-1.5,0.5-2.2
	c0.6-1.3,1.9-2,3.3-2c0.5,0,0.9,0.1,1.3,0.2c0.4,0.2,0.8,0.4,1.2,0.7c0.4,0.4,0.6,0.8,0.8,1.3c0.2,0.6,0.3,1.2,0.3,1.9v0.6h-6.5
	v-1.2h4.9c0-0.4-0.1-0.8-0.3-1.1c-0.2-0.3-0.4-0.6-0.7-0.8c-0.3-0.2-0.7-0.3-1.1-0.3c-0.4,0-0.8,0.1-1.2,0.3
	c-0.3,0.2-0.6,0.5-0.8,0.9c-0.2,0.3-0.3,0.7-0.3,1.1v0.9c0,0.5,0.1,1,0.3,1.4c0.2,0.4,0.5,0.7,0.8,0.9c0.4,0.2,0.8,0.3,1.2,0.3
	c0.3,0,0.6,0,0.8-0.1c0.2-0.1,0.5-0.2,0.6-0.4c0.2-0.2,0.3-0.4,0.4-0.6l1.5,0.3c-0.1,0.4-0.3,0.8-0.6,1.1c-0.3,0.3-0.7,0.6-1.2,0.8
	C356.7,201.9,356.2,202,355.6,202z"/>
<path d="M362.5,197.1v4.8h-1.6v-8.1h1.5v1.3h0.1c0.2-0.4,0.5-0.8,0.9-1c0.5-0.3,1-0.4,1.5-0.4c0.5,0,1,0.1,1.5,0.4
	c0.4,0.2,0.8,0.6,1,1c0.2,0.5,0.4,1.1,0.3,1.7v5.2h-1.6v-5c0-0.5-0.1-1-0.5-1.4c-0.3-0.3-0.8-0.5-1.3-0.5c-0.3,0-0.7,0.1-1,0.2
	c-0.3,0.2-0.5,0.4-0.7,0.7C362.6,196.3,362.5,196.7,362.5,197.1z"/>
<path d="M373.6,193.8v1.2h-4.4v-1.3L373.6,193.8z M370.3,191.8h1.6v7.7c0,0.2,0,0.5,0.1,0.7c0.1,0.1,0.2,0.3,0.4,0.3
	c0.2,0.1,0.3,0.1,0.5,0.1c0.1,0,0.2,0,0.3,0h0.2l0.3,1.3c-0.1,0-0.3,0.1-0.4,0.1c-0.6,0.1-1.2,0.1-1.8-0.2c-0.4-0.2-0.7-0.4-0.9-0.7
	c-0.2-0.4-0.3-0.8-0.3-1.2V191.8z"/>
<path d="M376.1,192.5c-0.3,0-0.5-0.1-0.7-0.3c-0.2-0.2-0.3-0.4-0.3-0.7c0-0.3,0.1-0.5,0.3-0.7c0.2-0.2,0.4-0.3,0.7-0.3
	c0.3,0,0.5,0.1,0.7,0.3c0.2,0.2,0.3,0.4,0.3,0.7c0,0.3-0.1,0.5-0.3,0.7C376.6,192.4,376.4,192.5,376.1,192.5z M375.3,201.9v-8.1h1.6
	v8.1H375.3z"/>
<path d="M948.6,183.3h-1.7l3.9-10.8h1.9l3.9,10.8h-1.7l-3-8.9h-0.1L948.6,183.3z M948.9,179h5.6v1.4h-5.6L948.9,179z"/>
<path d="M961.3,183.4c-0.7,0-1.4-0.2-2-0.5c-0.6-0.4-1-0.9-1.3-1.5c-0.3-0.7-0.5-1.4-0.5-2.2c0-0.8,0.1-1.5,0.5-2.2
	c0.3-0.6,0.7-1.1,1.3-1.5c0.6-0.4,1.3-0.6,2-0.5c0.6,0,1.1,0.1,1.7,0.3c0.5,0.2,0.9,0.6,1.2,1c0.3,0.4,0.5,0.9,0.5,1.4h-1.5
	c-0.1-0.4-0.3-0.7-0.6-1c-0.3-0.3-0.8-0.4-1.2-0.4c-0.4,0-0.8,0.1-1.2,0.4c-0.3,0.3-0.6,0.6-0.8,1c-0.2,0.5-0.3,1-0.3,1.5
	c0,0.5,0.1,1,0.3,1.5c0.2,0.4,0.4,0.7,0.8,1c0.6,0.4,1.3,0.5,2,0.2c0.2-0.1,0.4-0.3,0.6-0.5c0.2-0.2,0.3-0.5,0.3-0.8h1.5
	c-0.1,0.5-0.2,1-0.5,1.4c-0.3,0.4-0.7,0.8-1.1,1C962.4,183.4,961.9,183.5,961.3,183.4z"/>
<path d="M969.7,183.4c-0.7,0-1.4-0.2-2-0.5c-0.6-0.4-1-0.9-1.3-1.5c-0.3-0.7-0.5-1.4-0.5-2.2c0-0.8,0.1-1.5,0.5-2.2
	c0.3-0.6,0.7-1.1,1.3-1.5c0.6-0.4,1.3-0.6,2-0.5c0.6,0,1.1,0.1,1.6,0.3c1,0.4,1.6,1.3,1.7,2.4h-1.5c-0.1-0.4-0.3-0.7-0.6-1
	c-0.3-0.3-0.8-0.4-1.2-0.4c-0.4,0-0.8,0.1-1.2,0.4c-0.3,0.3-0.6,0.6-0.8,1c-0.2,0.5-0.3,1-0.3,1.5c0,0.5,0.1,1,0.3,1.5
	c0.2,0.4,0.4,0.7,0.8,1c0.6,0.4,1.3,0.5,2,0.2c0.2-0.1,0.4-0.3,0.6-0.5c0.2-0.2,0.3-0.5,0.3-0.8h1.5c-0.1,0.5-0.2,1-0.5,1.4
	c-0.3,0.4-0.7,0.8-1.1,1C970.9,183.4,970.3,183.5,969.7,183.4z"/>
<path d="M978.2,183.4c-0.7,0-1.4-0.2-2.1-0.5c-0.6-0.3-1-0.8-1.3-1.4c-0.3-0.7-0.5-1.4-0.5-2.2c0-0.8,0.1-1.5,0.5-2.2
	c0.6-1.3,1.9-2,3.3-2c0.5,0,0.9,0.1,1.3,0.2c0.4,0.2,0.8,0.4,1.2,0.7c0.4,0.4,0.6,0.8,0.8,1.3c0.2,0.6,0.3,1.2,0.3,1.9v0.6h-6.5
	v-1.2h4.9c0-0.4-0.1-0.8-0.2-1.1c-0.2-0.3-0.4-0.6-0.7-0.8c-0.3-0.2-0.7-0.3-1.1-0.3c-0.4,0-0.8,0.1-1.2,0.3
	c-0.3,0.2-0.6,0.5-0.8,0.9c-0.2,0.3-0.3,0.7-0.3,1.1v0.9c0,0.5,0.1,1,0.3,1.4c0.2,0.4,0.5,0.7,0.8,0.9c0.4,0.2,0.8,0.3,1.2,0.3
	c0.3,0,0.6,0,0.8-0.1c0.2-0.1,0.5-0.2,0.6-0.4c0.2-0.2,0.3-0.4,0.4-0.6l1.5,0.3c-0.1,0.4-0.3,0.8-0.6,1.1c-0.3,0.3-0.7,0.6-1.2,0.8
	C979.3,183.4,978.8,183.5,978.2,183.4z"/>
<path d="M985.1,178.5v4.8h-1.6v-8.1h1.5v1.3h0.1c0.2-0.4,0.5-0.8,0.9-1c0.5-0.3,1-0.4,1.5-0.4c0.5,0,1,0.1,1.5,0.4
	c0.4,0.2,0.8,0.6,1,1c0.2,0.5,0.4,1.1,0.3,1.7v5.2h-1.6v-5c0-0.5-0.1-1-0.5-1.4c-0.3-0.3-0.8-0.5-1.3-0.5c-0.3,0-0.7,0.1-1,0.2
	c-0.3,0.2-0.5,0.4-0.7,0.7C985.1,177.7,985.1,178.1,985.1,178.5z"/>
<path d="M998.5,177.1l-1.4,0.2c-0.1-0.2-0.2-0.4-0.3-0.5c-0.1-0.2-0.3-0.3-0.5-0.4c-0.6-0.2-1.3-0.2-1.9,0.1
	c-0.3,0.2-0.4,0.5-0.5,0.8c0,0.3,0.1,0.5,0.3,0.7c0.3,0.2,0.6,0.3,1,0.4l1.3,0.3c0.6,0.1,1.2,0.4,1.7,0.8c0.4,0.4,0.6,0.9,0.5,1.4
	c0,0.5-0.1,0.9-0.4,1.3c-0.3,0.4-0.7,0.7-1.2,0.9c-0.5,0.2-1.1,0.3-1.7,0.3c-0.8,0-1.6-0.2-2.2-0.6c-0.6-0.4-1-1-1.1-1.7l1.5-0.2
	c0.1,0.4,0.3,0.7,0.6,0.9c0.3,0.2,0.8,0.3,1.2,0.3c0.4,0,0.9-0.1,1.2-0.3c0.3-0.2,0.5-0.5,0.5-0.8c0-0.2-0.1-0.5-0.3-0.6
	c-0.3-0.2-0.6-0.3-0.9-0.4l-1.4-0.3c-0.6-0.1-1.2-0.4-1.7-0.8c-0.4-0.4-0.6-0.9-0.5-1.4c0-0.5,0.1-0.9,0.4-1.3
	c0.3-0.4,0.7-0.7,1.1-0.8c0.5-0.2,1.1-0.3,1.6-0.3c0.7,0,1.5,0.2,2.1,0.6C998,176,998.3,176.5,998.5,177.1z"/>
<path d="M1001.2,173.9c-0.3,0-0.5-0.1-0.7-0.3c-0.2-0.2-0.3-0.4-0.3-0.7c0-0.3,0.1-0.5,0.3-0.7c0.2-0.2,0.4-0.3,0.7-0.3
	c0.3,0,0.5,0.1,0.7,0.3c0.2,0.2,0.3,0.4,0.3,0.7c0,0.3-0.1,0.5-0.3,0.7C1001.7,173.8,1001.4,173.9,1001.2,173.9z M1000.4,183.3v-8.1
	h1.6v8.1H1000.4z"/>
<path d="M1007.5,183.4c-0.7,0-1.4-0.2-2-0.5c-0.6-0.4-1-0.9-1.3-1.5c-0.3-0.7-0.5-1.4-0.5-2.2c0-0.8,0.1-1.5,0.5-2.2
	c0.3-0.6,0.7-1.1,1.3-1.5c1.2-0.7,2.8-0.7,4,0c0.6,0.3,1,0.9,1.3,1.5c0.3,0.7,0.5,1.4,0.5,2.2c0,0.8-0.1,1.5-0.5,2.2
	c-0.3,0.6-0.7,1.1-1.3,1.5C1008.9,183.3,1008.2,183.5,1007.5,183.4z M1007.5,182.1c0.4,0,0.9-0.1,1.2-0.4c0.3-0.3,0.6-0.6,0.7-1
	c0.3-0.9,0.3-1.9,0-2.9c-0.1-0.4-0.4-0.7-0.7-1c-0.4-0.3-0.8-0.4-1.2-0.4c-0.4,0-0.9,0.1-1.2,0.4c-0.3,0.3-0.6,0.6-0.7,1
	c-0.3,0.9-0.3,1.9,0,2.9c0.1,0.4,0.4,0.7,0.7,1C1006.6,182,1007,182.1,1007.5,182.1z"/>
<path d="M1014.6,178.5v4.8h-1.6v-8.1h1.5v1.3h0.1c0.2-0.4,0.5-0.8,0.9-1c0.5-0.3,1-0.4,1.5-0.4c0.5,0,1,0.1,1.5,0.4
	c0.4,0.2,0.8,0.6,1,1c0.2,0.5,0.4,1.1,0.3,1.7v5.2h-1.6v-5c0-0.5-0.1-1-0.5-1.4c-0.3-0.3-0.8-0.5-1.3-0.5c-0.3,0-0.7,0.1-1,0.2
	c-0.3,0.2-0.5,0.4-0.7,0.7C1014.7,177.7,1014.6,178.1,1014.6,178.5z"/>
<path d="M1025.4,183.4c-0.7,0-1.4-0.2-2.1-0.5c-0.6-0.3-1-0.8-1.3-1.4c-0.3-0.7-0.5-1.4-0.5-2.2c0-0.8,0.1-1.5,0.5-2.2
	c0.6-1.3,1.9-2,3.3-2c0.5,0,0.9,0.1,1.3,0.2c0.9,0.3,1.7,1.1,2,2c0.2,0.6,0.3,1.2,0.3,1.9v0.6h-6.5v-1.2h4.9c0-0.4-0.1-0.8-0.2-1.1
	c-0.2-0.3-0.4-0.6-0.7-0.8c-0.3-0.2-0.7-0.3-1.1-0.3c-0.4,0-0.8,0.1-1.2,0.3c-0.3,0.2-0.6,0.5-0.8,0.9c-0.2,0.3-0.3,0.7-0.3,1.1v0.9
	c0,0.5,0.1,1,0.3,1.4c0.2,0.4,0.5,0.7,0.8,0.9c0.4,0.2,0.8,0.3,1.2,0.3c0.3,0,0.6,0,0.8-0.1c0.2-0.1,0.5-0.2,0.6-0.4
	c0.2-0.2,0.3-0.4,0.4-0.6l1.5,0.3c-0.1,0.4-0.3,0.8-0.6,1.1c-0.3,0.3-0.7,0.6-1.2,0.8C1026.5,183.4,1026,183.5,1025.4,183.4z"/>
<path d="M947.6,201.9v-8.1h1.5v1.3h0.1c0.1-0.4,0.4-0.8,0.8-1c0.4-0.3,0.8-0.4,1.3-0.4h0.3h0.3v1.5l-0.3-0.1c-0.2,0-0.3,0-0.5,0
	c-0.3,0-0.7,0.1-1,0.2c-0.3,0.1-0.5,0.4-0.7,0.6c-0.2,0.3-0.3,0.6-0.3,0.9v5L947.6,201.9z"/>
<path d="M954.1,192.5c-0.3,0-0.5-0.1-0.7-0.3c-0.2-0.2-0.3-0.4-0.3-0.7c0-0.3,0.1-0.5,0.3-0.7c0.2-0.2,0.4-0.3,0.7-0.3
	c0.3,0,0.5,0.1,0.7,0.3c0.2,0.2,0.3,0.4,0.3,0.7c0,0.3-0.1,0.5-0.3,0.7C954.6,192.4,954.3,192.5,954.1,192.5z M953.3,201.9v-8.1h1.6
	v8.1H953.3z"/>
<path d="M963.1,195.7l-1.4,0.2c-0.1-0.2-0.2-0.4-0.3-0.5c-0.1-0.2-0.3-0.3-0.5-0.4c-0.3-0.1-0.5-0.2-0.8-0.1c-0.4,0-0.8,0.1-1.1,0.3
	c-0.3,0.2-0.4,0.5-0.5,0.8c0,0.3,0.1,0.5,0.3,0.7c0.3,0.2,0.6,0.3,1,0.4l1.3,0.3c0.6,0.1,1.2,0.4,1.7,0.8c0.4,0.4,0.6,0.9,0.5,1.4
	c0,0.5-0.1,0.9-0.4,1.3c-0.3,0.4-0.7,0.7-1.2,0.9c-0.5,0.2-1.1,0.3-1.7,0.3c-0.8,0-1.6-0.2-2.2-0.6c-0.5-0.4-0.9-1-1-1.7l1.5-0.2
	c0.1,0.4,0.3,0.7,0.6,0.9c0.3,0.2,0.8,0.3,1.2,0.3c0.4,0,0.9-0.1,1.2-0.3c0.3-0.2,0.5-0.5,0.5-0.8c0-0.2-0.1-0.5-0.3-0.6
	c-0.2-0.2-0.5-0.3-0.9-0.4l-1.4-0.3c-0.6-0.1-1.2-0.4-1.7-0.8c-0.4-0.4-0.6-0.9-0.5-1.4c0-0.5,0.1-0.9,0.4-1.3
	c0.3-0.4,0.7-0.7,1.1-0.8c0.5-0.2,1.1-0.3,1.6-0.3c0.7,0,1.5,0.2,2.1,0.6C962.6,194.6,962.9,195.1,963.1,195.7z"/>
<path d="M968.4,202c-0.7,0-1.4-0.2-2-0.5c-0.6-0.4-1-0.9-1.3-1.5c-0.3-0.7-0.5-1.4-0.5-2.2c0-0.8,0.1-1.5,0.5-2.2
	c0.3-0.6,0.7-1.1,1.3-1.5c0.6-0.4,1.3-0.6,2-0.5c0.6,0,1.1,0.1,1.6,0.4c0.5,0.2,0.9,0.6,1.2,1c0.3,0.4,0.5,0.9,0.5,1.4h-1.5
	c-0.1-0.4-0.3-0.7-0.6-1c-0.3-0.3-0.8-0.4-1.2-0.4c-0.4,0-0.8,0.1-1.2,0.4c-0.3,0.3-0.6,0.6-0.8,1c-0.2,0.5-0.3,1-0.3,1.5
	c0,0.5,0.1,1,0.3,1.5c0.2,0.4,0.4,0.7,0.8,1c0.6,0.4,1.3,0.5,2,0.2c0.2-0.1,0.4-0.3,0.6-0.5c0.2-0.2,0.3-0.5,0.4-0.8h1.5
	c0,0.5-0.2,1-0.5,1.4c-0.3,0.4-0.7,0.8-1.1,1C969.5,202,969,202,968.4,202z"/>
<path d="M975.8,202.1c-0.5,0-1-0.1-1.4-0.3c-0.4-0.2-0.8-0.5-1-0.8c-0.2-0.4-0.4-0.9-0.4-1.4c0-0.4,0.1-0.8,0.3-1.1
	c0.2-0.3,0.4-0.5,0.7-0.7c0.3-0.2,0.7-0.3,1-0.4c0.4-0.1,0.7-0.2,1.1-0.2l1.2-0.1c0.2,0,0.5-0.1,0.7-0.2c0.1-0.1,0.2-0.2,0.2-0.4
	l0,0c0-0.4-0.1-0.8-0.4-1.1c-0.3-0.3-0.7-0.4-1.2-0.4c-0.8-0.1-1.6,0.4-1.9,1.1l-1.5-0.3c0.1-0.5,0.4-0.9,0.8-1.2
	c0.3-0.3,0.7-0.5,1.2-0.7c0.5-0.1,0.9-0.2,1.4-0.2c0.3,0,0.7,0,1,0.1c0.4,0.1,0.7,0.2,1,0.4c0.3,0.2,0.6,0.5,0.8,0.9
	c0.2,0.4,0.3,0.9,0.3,1.4v5.4h-1.5v-1.1h-0.1c-0.1,0.2-0.3,0.4-0.5,0.6c-0.2,0.2-0.5,0.4-0.8,0.5C976.5,202,976.1,202.1,975.8,202.1
	z M976.1,200.8c0.4,0,0.8-0.1,1.1-0.3c0.3-0.2,0.5-0.4,0.7-0.7c0.2-0.3,0.3-0.6,0.2-0.9v-1c-0.1,0.1-0.2,0.1-0.3,0.2
	c-0.2,0.1-0.4,0.1-0.5,0.1l-0.6,0.1l-0.5,0.1c-0.3,0-0.6,0.1-0.8,0.2c-0.2,0.1-0.4,0.2-0.6,0.4c-0.4,0.5-0.3,1.2,0.2,1.6
	C975.3,200.7,975.7,200.8,976.1,200.8z"/>
<path d="M983.5,191v10.8h-1.6V191H983.5z"/>
<path d="M988.6,202c-0.6,0-1.2-0.2-1.8-0.5c-0.5-0.4-0.9-0.9-1.2-1.4c-0.6-1.4-0.6-3.1,0-4.5c0.3-0.6,0.7-1.1,1.2-1.4
	c0.5-0.3,1.1-0.5,1.8-0.5c0.4,0,0.8,0.1,1.2,0.2c0.3,0.1,0.5,0.3,0.7,0.6c0.1,0.2,0.3,0.4,0.4,0.6h0.1v-4h1.6v10.8h-1.5v-1.3H991
	c-0.1,0.2-0.3,0.4-0.4,0.6c-0.2,0.2-0.4,0.4-0.7,0.6C989.5,202,989,202,988.6,202z M989,200.7c0.4,0,0.8-0.1,1.2-0.4
	c0.3-0.3,0.6-0.6,0.7-1c0.2-0.5,0.3-1,0.2-1.5c0-0.5-0.1-1-0.2-1.5c-0.1-0.4-0.4-0.7-0.7-1c-0.3-0.2-0.7-0.3-1.1-0.3
	c-0.4,0-0.8,0.1-1.2,0.4c-0.3,0.3-0.6,0.6-0.7,1c-0.2,0.5-0.2,1-0.2,1.4c0,0.5,0.1,1,0.2,1.5c0.1,0.4,0.4,0.7,0.7,1
	C988.2,200.5,988.6,200.7,989,200.7L989,200.7z"/>
<path d="M997.3,202.1c-0.5,0-1-0.1-1.4-0.3c-0.4-0.2-0.8-0.5-1-0.8c-0.3-0.4-0.4-0.9-0.4-1.4c0-0.4,0.1-0.8,0.3-1.1
	c0.2-0.3,0.4-0.5,0.7-0.7c0.3-0.2,0.7-0.3,1-0.4c0.4-0.1,0.7-0.2,1.1-0.2l1.2-0.1c0.2,0,0.5-0.1,0.7-0.2c0.1-0.1,0.2-0.2,0.2-0.4
	l0,0c0-0.4-0.1-0.8-0.4-1.1c-0.3-0.3-0.7-0.4-1.2-0.4c-0.4,0-0.9,0.1-1.2,0.4c-0.3,0.2-0.5,0.5-0.6,0.8l-1.5-0.3
	c0.2-0.5,0.4-0.9,0.8-1.2c0.3-0.3,0.7-0.5,1.2-0.7c0.5-0.1,0.9-0.2,1.4-0.2c0.3,0,0.7,0,1,0.1c0.4,0.1,0.7,0.2,1,0.4
	c0.3,0.2,0.6,0.5,0.8,0.9c0.2,0.5,0.3,0.9,0.3,1.4v5.4h-1.5v-1.1h-0.1c-0.1,0.2-0.3,0.4-0.5,0.6c-0.2,0.2-0.5,0.4-0.8,0.5
	C998,202,997.6,202.1,997.3,202.1z M997.6,200.8c0.4,0,0.8-0.1,1.1-0.3c0.3-0.2,0.5-0.4,0.7-0.7c0.2-0.3,0.2-0.6,0.2-0.9v-1
	c-0.1,0.1-0.2,0.1-0.3,0.2c-0.2,0.1-0.4,0.1-0.5,0.1l-0.6,0.1l-0.5,0.1c-0.3,0-0.6,0.1-0.8,0.2c-0.2,0.1-0.4,0.2-0.6,0.4
	c-0.4,0.5-0.3,1.2,0.2,1.6c0,0,0,0,0,0C996.8,200.7,997.2,200.8,997.6,200.8L997.6,200.8z"/>
<path d="M1003.4,201.9v-8.1h1.5v1.3h0.1c0.2-0.4,0.4-0.8,0.8-1.1c0.4-0.3,0.9-0.4,1.4-0.4c0.5,0,1,0.1,1.4,0.4
	c0.4,0.3,0.7,0.6,0.8,1.1h0.1c0.2-0.4,0.5-0.8,0.9-1c0.5-0.3,1-0.4,1.5-0.4c0.7,0,1.3,0.2,1.8,0.7c0.5,0.6,0.8,1.3,0.7,2.1v5.4h-1.6
	v-5.3c0-0.4-0.1-0.9-0.5-1.2c-0.3-0.2-0.7-0.4-1.1-0.4c-0.5,0-0.9,0.1-1.2,0.5c-0.3,0.3-0.4,0.8-0.4,1.2v5.2h-1.6v-5.4
	c0-0.4-0.1-0.8-0.4-1.1c-0.3-0.3-0.7-0.4-1.1-0.4c-0.3,0-0.6,0.1-0.8,0.2c-0.3,0.2-0.5,0.4-0.6,0.6c-0.2,0.3-0.2,0.7-0.2,1v5
	L1003.4,201.9z"/>
<path d="M1020,202c-0.7,0-1.4-0.2-2.1-0.5c-0.6-0.3-1-0.8-1.3-1.4c-0.3-0.7-0.5-1.4-0.5-2.2c0-0.8,0.1-1.5,0.5-2.2
	c0.3-0.6,0.7-1.1,1.3-1.5c0.6-0.4,1.3-0.6,2-0.5c0.5,0,0.9,0.1,1.3,0.2c0.4,0.2,0.8,0.4,1.2,0.7c0.4,0.4,0.6,0.8,0.8,1.3
	c0.2,0.6,0.3,1.2,0.3,1.9v0.6h-6.5v-1.2h5c0-0.4-0.1-0.8-0.3-1.1c-0.2-0.3-0.4-0.6-0.7-0.8c-0.3-0.2-0.7-0.3-1.1-0.3
	c-0.4,0-0.8,0.1-1.2,0.3c-0.3,0.2-0.6,0.5-0.8,0.9c-0.2,0.3-0.3,0.7-0.3,1.1v0.9c0,0.5,0.1,1,0.3,1.4c0.2,0.4,0.5,0.7,0.8,0.9
	c0.4,0.2,0.8,0.3,1.2,0.3c0.3,0,0.6,0,0.8-0.1c0.2-0.1,0.5-0.2,0.6-0.4c0.2-0.2,0.3-0.4,0.4-0.6l1.5,0.3c-0.1,0.4-0.3,0.8-0.6,1.1
	c-0.3,0.3-0.7,0.6-1.2,0.8C1021.1,201.9,1020.6,202,1020,202z"/>
<path d="M1026.8,197.1v4.8h-1.6v-8.1h1.5v1.3h0.1c0.2-0.4,0.5-0.8,0.9-1c0.5-0.3,1-0.4,1.5-0.4c0.5,0,1,0.1,1.5,0.4
	c0.4,0.2,0.8,0.6,1,1c0.2,0.5,0.4,1.1,0.3,1.7v5.2h-1.6v-5c0-0.5-0.1-1-0.5-1.4c-0.3-0.3-0.8-0.5-1.3-0.5c-0.3,0-0.7,0.1-1,0.2
	c-0.3,0.2-0.5,0.4-0.7,0.7C1026.9,196.3,1026.8,196.7,1026.8,197.1z"/>
<path d="M1037.9,193.8v1.2h-4.4v-1.3L1037.9,193.8z M1034.7,191.8h1.6v7.7c0,0.2,0,0.5,0.1,0.7c0.1,0.1,0.2,0.3,0.4,0.3
	c0.2,0.1,0.3,0.1,0.5,0.1c0.1,0,0.2,0,0.3,0h0.2l0.3,1.3c-0.1,0-0.3,0.1-0.4,0.1c-0.6,0.1-1.2,0.1-1.8-0.2c-0.4-0.2-0.7-0.4-0.9-0.7
	c-0.2-0.4-0.3-0.8-0.3-1.2L1034.7,191.8z"/>
<path d="M1040.5,192.5c-0.3,0-0.5-0.1-0.7-0.3c-0.2-0.2-0.3-0.4-0.3-0.7c0-0.3,0.1-0.5,0.3-0.7c0.2-0.2,0.4-0.3,0.7-0.3
	c0.3,0,0.5,0.1,0.7,0.3c0.2,0.2,0.3,0.4,0.3,0.7c0,0.3-0.1,0.5-0.3,0.7C1041,192.4,1040.7,192.5,1040.5,192.5z M1039.7,201.9v-8.1
	h1.6v8.1H1039.7z"/>
<circle cx="287.7" cy="833.1" r="3.5"/>
<path d="M300.7,838.8v-10.9h3.7c0.7,0,1.5,0.1,2.1,0.5c0.5,0.3,0.9,0.7,1.2,1.2c0.5,1.1,0.5,2.4,0,3.5c-0.3,0.5-0.7,1-1.2,1.3
	c-0.6,0.3-1.4,0.5-2.1,0.5h-2.6v-1.2h2.6c0.5,0,1-0.1,1.4-0.3c0.3-0.2,0.6-0.5,0.8-0.8c0.3-0.7,0.3-1.6,0-2.3
	c-0.2-0.4-0.4-0.6-0.8-0.8c-0.4-0.2-0.9-0.3-1.4-0.3H302v9.7H300.7z"/>
<path d="M310.2,827.9h1.6l3.7,9h0.1l3.7-9h1.6v10.9h-1.2v-8.3h-0.1l-3.4,8.3H315l-3.4-8.3h-0.1v8.3h-1.2L310.2,827.9z"/>
<path d="M327.2,827.9v10.9h-1.3v-9.5h-0.1l-2.7,1.8v-1.3l2.7-1.8L327.2,827.9z"/>
<path d="M333.9,838.9c-0.7,0-1.5-0.2-2-0.7c-0.6-0.5-1.1-1.2-1.3-1.9c-0.6-2-0.6-4.1,0-6.1c0.2-0.8,0.7-1.4,1.3-1.9
	c1.2-0.9,2.9-0.9,4.1,0c0.6,0.5,1.1,1.2,1.3,1.9c0.6,2,0.6,4.1,0,6.1c-0.2,0.7-0.7,1.4-1.3,1.9C335.4,838.7,334.6,838.9,333.9,838.9
	z M333.9,837.8c0.8,0,1.5-0.4,1.9-1.2c0.5-1,0.7-2.1,0.7-3.3c0-0.8-0.1-1.6-0.3-2.4c-0.2-0.6-0.4-1.1-0.9-1.5
	c-0.4-0.3-0.8-0.5-1.4-0.5c-0.8,0-1.5,0.4-1.9,1.1c-0.5,1-0.7,2.2-0.7,3.3c0,0.8,0.1,1.6,0.3,2.4c0.2,0.6,0.4,1.1,0.9,1.5
	C332.9,837.6,333.4,837.8,333.9,837.8z"/>
<path d="M340.1,833.9v-0.8l6.9-3.5v1.4l-5.3,2.5v-0.1v0.2v-0.1l5.3,2.5v1.4L340.1,833.9z"/>
<path d="M353,838.9c-0.6,0-1.2-0.1-1.7-0.4c-0.5-0.2-0.9-0.6-1.2-1c-0.3-0.4-0.5-0.9-0.5-1.5h1.3c0,0.5,0.3,0.9,0.7,1.2
	c0.8,0.6,1.8,0.7,2.6,0.2c0.3-0.2,0.6-0.5,0.8-0.9c0.2-0.4,0.3-0.8,0.3-1.2c0-0.4-0.1-0.9-0.3-1.3c-0.2-0.4-0.5-0.7-0.9-0.9
	c-0.4-0.2-0.8-0.3-1.2-0.3c-0.3,0-0.7,0.1-1,0.2c-0.3,0.1-0.6,0.2-0.9,0.4l-1.2-0.2l0.7-5.4h5.7v1.1h-4.6l-0.4,3.2h0.1
	c0.3-0.2,0.5-0.3,0.8-0.4c0.3-0.1,0.7-0.2,1.1-0.2c0.6,0,1.2,0.2,1.8,0.5c0.5,0.3,1,0.8,1.2,1.3c0.3,0.6,0.5,1.2,0.5,1.9
	c0,0.7-0.2,1.3-0.5,1.9c-0.3,0.5-0.7,1-1.3,1.3C354.3,838.8,353.7,838.9,353,838.9z"/>
<path d="M362.3,838.9c-0.7,0-1.4-0.2-2-0.7c-0.6-0.5-1.1-1.2-1.3-1.9c-0.6-2-0.6-4.1,0-6.1c0.2-0.8,0.7-1.4,1.3-1.9
	c1.2-0.9,2.9-0.9,4.1,0c0.6,0.5,1.1,1.2,1.3,1.9c0.6,2,0.6,4.1,0,6.1c-0.2,0.7-0.7,1.4-1.3,1.9C363.8,838.7,363,839,362.3,838.9z
	 M362.3,837.8c0.8,0,1.5-0.4,1.9-1.2c0.5-1,0.7-2.1,0.7-3.3c0-0.8-0.1-1.6-0.3-2.4c-0.2-0.6-0.4-1.1-0.9-1.5
	c-0.4-0.3-0.8-0.5-1.4-0.5c-0.8,0-1.5,0.4-1.9,1.2c-0.5,1-0.7,2.2-0.7,3.3c0,0.8,0.1,1.6,0.3,2.4c0.2,0.6,0.4,1.1,0.9,1.5
	C361.3,837.6,361.8,837.8,362.3,837.8z"/>
<path d="M368,841.4v-9.8h1v4.2c0,0.3,0.1,0.7,0.2,1c0.2,0.3,0.4,0.5,0.7,0.7c0.3,0.2,0.7,0.3,1,0.2c0.3,0,0.7-0.1,1-0.2
	c0.3-0.2,0.5-0.4,0.7-0.7c0.2-0.3,0.3-0.7,0.2-1v-4.2h1.1v7.1H373v-1.1h-0.1c-0.2,0.4-0.5,0.7-0.8,0.9c-0.7,0.4-1.5,0.4-2.2,0
	c-0.3-0.2-0.6-0.5-0.8-0.9H369v3.7H368z"/>
<path d="M378.9,841.6c-0.5,0-0.9-0.1-1.4-0.2c-0.3-0.1-0.7-0.3-0.9-0.5c-0.2-0.2-0.4-0.4-0.6-0.7l0.9-0.6c0.1,0.1,0.2,0.3,0.4,0.5
	c0.2,0.2,0.4,0.3,0.6,0.4c0.3,0.1,0.7,0.2,1,0.2c0.5,0,1-0.1,1.4-0.4c0.4-0.3,0.6-0.8,0.6-1.3v-1.4h-0.1c-0.1,0.2-0.2,0.3-0.3,0.5
	c-0.2,0.2-0.4,0.4-0.6,0.5c-0.3,0.2-0.7,0.2-1.1,0.2c-0.5,0-1.1-0.1-1.5-0.4c-0.5-0.3-0.8-0.7-1.1-1.2c-0.3-0.6-0.4-1.2-0.4-1.9
	c0-0.7,0.1-1.3,0.4-1.9c0.2-0.5,0.6-0.9,1.1-1.3c0.5-0.3,1-0.5,1.6-0.5c0.4,0,0.8,0.1,1.1,0.2c0.2,0.1,0.5,0.3,0.6,0.5
	c0.1,0.2,0.3,0.3,0.3,0.5h0.1v-1.1h1.1v7.3c0,0.5-0.1,1.1-0.4,1.5c-0.3,0.4-0.7,0.7-1.1,0.8C380,841.5,379.4,841.6,378.9,841.6z
	 M378.9,837.7c0.4,0,0.8-0.1,1.1-0.3c0.3-0.2,0.6-0.5,0.7-0.9c0.2-0.4,0.3-0.9,0.2-1.3c0-0.5-0.1-0.9-0.2-1.4
	c-0.1-0.4-0.4-0.7-0.7-0.9c-0.3-0.2-0.7-0.4-1.1-0.3c-0.4,0-0.8,0.1-1.2,0.3c-0.3,0.3-0.6,0.6-0.7,1c-0.2,0.4-0.2,0.9-0.2,1.3
	c0,0.4,0.1,0.9,0.2,1.3c0.1,0.4,0.4,0.7,0.7,0.9C378.1,837.6,378.5,837.7,378.9,837.7L378.9,837.7z"/>
<path d="M387.3,828.9l-3,11.3h-1l3-11.3H387.3z"/>
<path d="M388.6,838.8v-7.1h1v1.1h0.1c0.1-0.4,0.4-0.7,0.7-0.9c0.4-0.2,0.8-0.3,1.2-0.3c0.4,0,0.8,0.1,1.2,0.3
	c0.3,0.2,0.6,0.5,0.7,0.9h0.1c0.2-0.4,0.5-0.7,0.8-0.9c0.4-0.2,0.8-0.3,1.3-0.3c0.6,0,1.1,0.2,1.6,0.6c0.4,0.5,0.7,1.2,0.6,1.8v4.8
	h-1.1V834c0-0.4-0.1-0.8-0.4-1.1c-0.3-0.2-0.6-0.3-1-0.3c-0.4,0-0.9,0.1-1.2,0.5c-0.3,0.3-0.4,0.7-0.4,1.1v4.6h-1.1v-4.9
	c0-0.4-0.1-0.7-0.4-1c-0.3-0.2-0.6-0.4-1-0.4c-0.3,0-0.6,0.1-0.8,0.2c-0.2,0.2-0.4,0.4-0.6,0.6c-0.2,0.3-0.2,0.6-0.2,0.9v4.4
	L388.6,838.8z"/>
<path d="M401.3,834.5c-0.3,0-0.6-0.1-1-0.2c-0.3-0.1-0.5-0.3-0.6-0.5c-0.2-0.2-0.3-0.5-0.3-0.8h0.7c0,0.2,0.1,0.3,0.2,0.5
	c0.1,0.1,0.3,0.2,0.4,0.3c0.2,0.1,0.4,0.1,0.6,0.1c0.2,0,0.4,0,0.6-0.1c0.2-0.1,0.3-0.2,0.4-0.3c0.1-0.1,0.2-0.3,0.2-0.5
	c0-0.2,0-0.4-0.1-0.5c-0.1-0.2-0.3-0.3-0.4-0.4c-0.2-0.1-0.5-0.1-0.7-0.1h-0.4v-0.6h0.4c0.2,0,0.4,0,0.6-0.1
	c0.2-0.1,0.3-0.2,0.4-0.3c0.1-0.1,0.2-0.3,0.1-0.5c0-0.2,0-0.3-0.1-0.5c-0.1-0.1-0.2-0.3-0.4-0.3c-0.2-0.1-0.3-0.1-0.5-0.1
	c-0.2,0-0.4,0-0.5,0.1c-0.2,0.1-0.3,0.2-0.4,0.3c-0.1,0.1-0.2,0.3-0.2,0.5h-0.6c0-0.3,0.1-0.5,0.3-0.8c0.2-0.2,0.4-0.4,0.6-0.5
	c0.3-0.1,0.6-0.2,0.9-0.2c0.3,0,0.6,0.1,0.9,0.2c0.5,0.3,0.8,0.7,0.8,1.3c0,0.3-0.1,0.6-0.2,0.8c-0.2,0.2-0.4,0.4-0.7,0.5l0,0
	c0.3,0,0.6,0.2,0.8,0.4c0.2,0.2,0.3,0.6,0.3,0.9c0,0.3-0.1,0.6-0.2,0.8c-0.2,0.2-0.4,0.4-0.7,0.6C402,834.4,401.7,834.5,401.3,834.5
	z"/>
<circle class="st2" cx="554.1" cy="833.1" r="3.5"/>
<path class="st2" d="M567.1,838.8v-10.9h3.7c0.7,0,1.5,0.1,2.1,0.5c0.5,0.3,0.9,0.7,1.2,1.2c0.5,1.1,0.5,2.4,0,3.5
	c-0.3,0.5-0.7,1-1.2,1.3c-0.6,0.3-1.4,0.5-2.1,0.5h-2.7v-1.2h2.6c0.5,0,1-0.1,1.4-0.3c0.3-0.2,0.6-0.5,0.8-0.8
	c0.3-0.7,0.3-1.6,0-2.3c-0.2-0.4-0.4-0.6-0.8-0.8c-0.4-0.2-0.9-0.3-1.4-0.3h-2.3v9.7H567.1z"/>
<path class="st2" d="M576.6,827.9h1.6l3.7,9h0.1l3.7-9h1.6v10.9h-1.2v-8.3H586l-3.4,8.3h-1.2l-3.4-8.3h-0.1v8.3h-1.2L576.6,827.9z"
	/>
<path class="st2" d="M593.6,827.9v10.9h-1.3v-9.5h-0.1l-2.7,1.8v-1.3l2.7-1.8L593.6,827.9z"/>
<path class="st2" d="M600.3,838.9c-0.7,0-1.4-0.2-2-0.7c-0.6-0.5-1-1.2-1.3-1.9c-0.6-2-0.6-4.1,0-6.1c0.2-0.8,0.7-1.4,1.3-1.9
	c1.2-0.9,2.9-0.9,4.1,0c0.6,0.5,1.1,1.2,1.3,1.9c0.6,2,0.6,4.1,0,6.1c-0.2,0.7-0.7,1.4-1.3,1.9C601.8,838.7,601,839,600.3,838.9z
	 M600.3,837.8c0.8,0,1.5-0.4,1.9-1.2c0.5-1,0.7-2.1,0.7-3.3c0-0.8-0.1-1.6-0.3-2.4c-0.1-0.6-0.4-1.1-0.9-1.5
	c-0.4-0.3-0.8-0.5-1.3-0.5c-0.8,0-1.5,0.4-1.8,1.2c-0.5,1-0.7,2.2-0.7,3.3c0,0.8,0.1,1.6,0.3,2.4c0.1,0.6,0.4,1.1,0.9,1.5
	C599.3,837.6,599.8,837.8,600.3,837.8z"/>
<path class="st2" d="M613.3,833.9l-6.9,3.5V836l5.3-2.5v0.1v-0.2v0.1l-5.3-2.5v-1.4l6.9,3.5V833.9z"/>
<path class="st2" d="M619.4,838.9c-0.6,0-1.2-0.1-1.7-0.4c-0.5-0.2-0.9-0.6-1.2-1c-0.3-0.4-0.5-1-0.5-1.5h1.3c0,0.5,0.3,0.9,0.7,1.2
	c0.4,0.3,0.9,0.5,1.4,0.5c0.8,0,1.6-0.4,2-1.2c0.2-0.4,0.3-0.8,0.3-1.2c0-0.4-0.1-0.9-0.3-1.3c-0.2-0.4-0.5-0.7-0.9-0.9
	c-0.4-0.2-0.8-0.3-1.2-0.3c-0.3,0-0.7,0.1-1,0.2c-0.3,0.1-0.6,0.2-0.9,0.4l-1.2-0.2l0.7-5.4h5.7v1.1H618l-0.4,3.2h0.1
	c0.3-0.2,0.5-0.3,0.8-0.4c0.3-0.1,0.7-0.2,1-0.2c1.3,0,2.4,0.7,3,1.8c0.3,0.6,0.5,1.2,0.5,1.9c0,0.7-0.2,1.3-0.5,1.9
	c-0.3,0.5-0.7,1-1.3,1.3C620.7,838.7,620,838.9,619.4,838.9z"/>
<path class="st2" d="M628.7,838.9c-0.7,0-1.4-0.2-2-0.7c-0.6-0.5-1-1.2-1.3-1.9c-0.6-2-0.6-4.1,0-6.1c0.2-0.8,0.7-1.4,1.3-1.9
	c1.2-0.9,2.9-0.9,4.1,0c0.6,0.5,1.1,1.2,1.3,1.9c0.6,2,0.6,4.1,0,6.1c-0.2,0.7-0.7,1.4-1.3,1.9C630.2,838.7,629.4,839,628.7,838.9z
	 M628.7,837.8c0.8,0,1.5-0.4,1.9-1.2c0.5-1,0.7-2.1,0.7-3.3c0-0.8-0.1-1.6-0.3-2.4c-0.1-0.6-0.4-1.1-0.9-1.5
	c-0.4-0.3-0.8-0.5-1.3-0.5c-0.8,0-1.5,0.4-1.8,1.2c-0.5,1-0.7,2.2-0.7,3.3c0,0.8,0.1,1.6,0.3,2.4c0.1,0.6,0.4,1.1,0.9,1.5
	C627.7,837.6,628.2,837.8,628.7,837.8z"/>
<path class="st2" d="M634.4,841.4v-9.8h1.1v4.2c0,0.3,0.1,0.7,0.2,1c0.2,0.3,0.4,0.5,0.7,0.7c0.3,0.2,0.7,0.3,1,0.2
	c0.3,0,0.7-0.1,1-0.2c0.3-0.2,0.5-0.4,0.7-0.7c0.2-0.3,0.2-0.7,0.2-1v-4.2h1.1v7.1h-1.1v-1.1h0c-0.2,0.4-0.5,0.7-0.8,0.9
	c-0.7,0.4-1.5,0.4-2.2,0c-0.3-0.2-0.6-0.5-0.8-0.9l0,0v3.7H634.4z"/>
<path class="st2" d="M645.3,841.6c-0.5,0-0.9-0.1-1.4-0.2c-0.3-0.1-0.7-0.3-0.9-0.5c-0.2-0.2-0.4-0.4-0.6-0.7l0.9-0.6
	c0.1,0.1,0.2,0.3,0.4,0.5c0.2,0.2,0.4,0.3,0.6,0.4c0.3,0.1,0.7,0.2,1,0.2c0.5,0,1-0.1,1.4-0.4c0.4-0.3,0.6-0.8,0.5-1.3v-1.4h-0.1
	c-0.1,0.2-0.2,0.3-0.3,0.5c-0.2,0.2-0.4,0.4-0.6,0.5c-0.3,0.2-0.7,0.2-1.1,0.2c-0.5,0-1.1-0.1-1.5-0.4c-0.5-0.3-0.8-0.7-1.1-1.2
	c-0.3-0.6-0.4-1.2-0.4-1.9c0-0.7,0.1-1.3,0.4-1.9c0.2-0.5,0.6-0.9,1.1-1.3c0.5-0.3,1-0.5,1.6-0.5c0.4,0,0.8,0.1,1.1,0.2
	c0.2,0.1,0.5,0.3,0.6,0.5c0.2,0.2,0.3,0.3,0.3,0.5h0.1v-1.1h1v7.3c0,0.5-0.1,1.1-0.4,1.5c-0.3,0.4-0.7,0.7-1.1,0.8
	C646.3,841.5,645.8,841.6,645.3,841.6z M645.3,837.7c0.4,0,0.8-0.1,1.1-0.3c0.3-0.2,0.6-0.5,0.7-0.9c0.2-0.4,0.2-0.9,0.2-1.3
	c0-0.5-0.1-0.9-0.2-1.4c-0.1-0.4-0.4-0.7-0.7-0.9c-0.3-0.2-0.7-0.4-1.1-0.3c-0.4,0-0.8,0.1-1.2,0.3c-0.3,0.3-0.6,0.6-0.7,1
	c-0.2,0.4-0.2,0.9-0.2,1.3c0,0.4,0.1,0.9,0.2,1.3c0.1,0.4,0.4,0.7,0.7,0.9C644.5,837.6,644.9,837.7,645.3,837.7L645.3,837.7z"/>
<path class="st2" d="M653.7,828.9l-3,11.3h-1l3-11.3H653.7z"/>
<path class="st2" d="M655,838.8v-7.1h1.1v1.1h0.1c0.1-0.4,0.4-0.7,0.7-0.9c0.4-0.2,0.8-0.3,1.2-0.3c0.4,0,0.8,0.1,1.2,0.3
	c0.3,0.2,0.6,0.5,0.7,0.9h0c0.2-0.4,0.5-0.7,0.8-0.9c0.4-0.2,0.9-0.3,1.3-0.3c0.6,0,1.1,0.2,1.6,0.6c0.4,0.5,0.7,1.2,0.6,1.8v4.8
	h-1.1V834c0-0.4-0.1-0.8-0.4-1.1c-0.3-0.2-0.6-0.3-1-0.3c-0.4,0-0.9,0.1-1.2,0.5c-0.3,0.3-0.4,0.7-0.4,1.1v4.6h-1.1v-4.9
	c0-0.4-0.1-0.7-0.4-1c-0.3-0.2-0.6-0.4-1-0.4c-0.3,0-0.6,0.1-0.8,0.2c-0.2,0.2-0.5,0.4-0.6,0.6c-0.2,0.3-0.2,0.6-0.2,0.9v4.4
	L655,838.8z"/>
<path class="st2" d="M667.7,834.5c-0.3,0-0.7,0-1-0.2c-0.3-0.1-0.5-0.3-0.7-0.5c-0.2-0.2-0.3-0.5-0.3-0.8h0.7c0,0.2,0.1,0.3,0.2,0.5
	c0.1,0.1,0.3,0.2,0.4,0.3c0.4,0.1,0.8,0.1,1.2,0c0.2-0.1,0.3-0.2,0.4-0.3c0.1-0.1,0.2-0.3,0.3-0.5c0-0.2,0-0.4-0.2-0.5
	c-0.1-0.2-0.3-0.3-0.5-0.4c-0.2-0.1-0.5-0.1-0.7-0.1h-0.4v-0.6h0.4c0.2,0,0.4,0,0.6-0.1c0.2-0.1,0.3-0.2,0.4-0.3
	c0.1-0.1,0.1-0.3,0.1-0.5c0-0.2,0-0.3-0.1-0.5c-0.1-0.1-0.2-0.3-0.3-0.3c-0.2-0.1-0.3-0.1-0.5-0.1c-0.2,0-0.4,0-0.5,0.1
	c-0.2,0.1-0.3,0.2-0.4,0.3c-0.1,0.1-0.2,0.3-0.2,0.5H666c0-0.3,0.1-0.5,0.3-0.8c0.2-0.2,0.4-0.4,0.6-0.5c0.3-0.1,0.6-0.2,0.9-0.2
	c0.3,0,0.6,0.1,0.9,0.2c0.2,0.1,0.4,0.3,0.6,0.5c0.1,0.2,0.2,0.5,0.2,0.7c0,0.3-0.1,0.6-0.2,0.8c-0.2,0.2-0.4,0.4-0.7,0.5l0,0
	c0.3,0,0.6,0.2,0.8,0.4c0.2,0.3,0.3,0.6,0.3,0.9c0,0.3-0.1,0.6-0.2,0.8c-0.2,0.2-0.4,0.4-0.7,0.6
	C668.4,834.5,668.1,834.5,667.7,834.5z"/>
<g class="st5">
	<circle class="st2" cx="826.8" cy="833.1" r="9.8"/>
</g>
<circle class="st2" cx="826.8" cy="833.1" r="3.5"/>
<path d="M839.8,838.8v-10.9h6.6v1.1h-5.3v3.7h4.9v1.2h-4.9v3.7h5.3v1.2L839.8,838.8z"/>
<path d="M849.2,827.9l3.2,9.2h0.1l3.2-9.2h1.4l-4,10.9h-1.4l-4-10.9H849.2z"/>
<path d="M858.9,838.8v-10.9h6.6v1.1h-5.3v3.7h4.9v1.2h-4.9v3.7h5.3v1.2L858.9,838.8z"/>
<path d="M876.5,827.9v10.9h-1.3l-5.9-8.6h-0.1v8.6h-1.3v-10.9h1.3l6,8.6h0.1v-8.6H876.5z"/>
<path d="M878.6,829v-1.2h8.2v1.2h-3.4v9.7H882V829H878.6z"/>
<path d="M897.5,833.3c0,1-0.2,2.1-0.6,3c-0.4,0.8-1,1.5-1.7,1.9c-1.5,0.9-3.5,0.9-5,0c-0.7-0.5-1.3-1.1-1.7-1.9
	c-0.8-1.9-0.8-4.1,0-6c0.4-0.8,1-1.5,1.7-1.9c1.5-0.9,3.5-0.9,5,0c0.7,0.5,1.3,1.1,1.7,1.9C897.4,831.3,897.6,832.3,897.5,833.3z
	 M896.3,833.3c0-0.8-0.1-1.6-0.5-2.4c-0.3-0.6-0.7-1.1-1.3-1.5c-0.5-0.3-1.2-0.5-1.8-0.5c-0.6,0-1.3,0.2-1.8,0.5
	c-0.6,0.4-1,0.9-1.3,1.5c-0.6,1.5-0.6,3.3,0,4.8c0.3,0.6,0.7,1.1,1.3,1.5c0.5,0.3,1.2,0.5,1.8,0.5c0.6,0,1.3-0.2,1.8-0.5
	c0.6-0.4,1-0.9,1.3-1.5C896.1,835,896.3,834.1,896.3,833.3L896.3,833.3z"/>
</svg>
