<svg id="Livello_1" data-name="Livello 1" xmlns="http://www.w3.org/2000/svg" viewBox="0 0 1174.99 900"><defs><style>.cls-1{isolation:isolate;}.cls-2{fill:#efefef;}.cls-3{fill:#b8b8b8;}.cls-4{fill:#ff3a00;}.cls-5{opacity:0.2;}</style></defs><g class="cls-1"><path d="M206.41,783.86V773h6.49v1.16h-5.18v3.65h4.69V779h-4.69v4.84Z"/><path d="M215.14,783.86V773h6.53v1.16h-5.22v3.65h4.88V779h-4.88v3.68h5.3v1.16Z"/><path d="M224,783.86V773h3.79a4.08,4.08,0,0,1,1.86.38,2.64,2.64,0,0,1,1.1,1,3,3,0,0,1,.36,1.45,2.42,2.42,0,0,1-.25,1.15,2,2,0,0,1-.64.72,2.84,2.84,0,0,1-.87.39v.11a2.12,2.12,0,0,1,1,.35,2.47,2.47,0,0,1,.84.91,2.79,2.79,0,0,1,.34,1.44,2.89,2.89,0,0,1-.37,1.47,2.64,2.64,0,0,1-1.17,1,4.89,4.89,0,0,1-2.08.38Zm1.31-6.07h2.44a2.5,2.5,0,0,0,1.07-.23,1.94,1.94,0,0,0,.76-.66,1.8,1.8,0,0,0,.28-1,1.65,1.65,0,0,0-.5-1.21,2.1,2.1,0,0,0-1.57-.5h-2.48Zm0,4.91h2.6a2.69,2.69,0,0,0,1.83-.5,1.61,1.61,0,0,0,.54-1.22,1.9,1.9,0,0,0-.28-1,2,2,0,0,0-.8-.76,2.59,2.59,0,0,0-1.22-.28h-2.67Z"/></g><g class="cls-1"><path d="M131.5,776.42a3.88,3.88,0,0,0-.46-1,2.88,2.88,0,0,0-1.55-1.19,3.65,3.65,0,0,0-1.08-.16,3.24,3.24,0,0,0-1.75.5,3.47,3.47,0,0,0-1.25,1.46,5.49,5.49,0,0,0-.46,2.38,5.33,5.33,0,0,0,.47,2.37,3.44,3.44,0,0,0,1.27,1.46,3.4,3.4,0,0,0,1.81.5,3.24,3.24,0,0,0,1.64-.4,2.87,2.87,0,0,0,1.11-1.13,3.62,3.62,0,0,0,.4-1.73l.4.09h-3.26v-1.16h4.13v1.16a4.53,4.53,0,0,1-.57,2.32,3.92,3.92,0,0,1-1.57,1.53,4.58,4.58,0,0,1-2.28.55,4.66,4.66,0,0,1-2.52-.68,4.55,4.55,0,0,1-1.7-1.92,6.8,6.8,0,0,1-.6-3,7,7,0,0,1,.35-2.32,5.06,5.06,0,0,1,1-1.75,4.32,4.32,0,0,1,1.5-1.11,4.71,4.71,0,0,1,1.9-.38,4.84,4.84,0,0,1,1.6.25,4.4,4.4,0,0,1,1.33.73,4.21,4.21,0,0,1,1.51,2.55Z"/><path d="M135.16,783.86V773h6.53v1.16h-5.22v3.65h4.88V779h-4.88v3.68h5.3v1.16Z"/><path d="M152.64,773v10.82h-1.27l-5.9-8.5h-.1v8.5h-1.31V773h1.26l5.92,8.51h.11V773Z"/></g><g class="cls-1"><path d="M284.22,773h1.56l3.68,9h.12l3.68-9h1.57v10.82H293.6v-8.23h-.11l-3.38,8.23h-1.18l-3.38-8.23h-.11v8.23h-1.22Z"/><path d="M297.89,783.86h-1.37l4-10.82h1.35l4,10.82h-1.38l-3.23-9.11h-.09Zm.51-4.23h5.54v1.16H298.4Z"/><path d="M307.51,783.86V773h3.65a4.44,4.44,0,0,1,2.09.43,2.74,2.74,0,0,1,1.2,1.18,3.64,3.64,0,0,1,.39,1.7,3.58,3.58,0,0,1-.39,1.7,2.75,2.75,0,0,1-1.2,1.16,4.47,4.47,0,0,1-2.06.42h-3v-1.18h2.91a3.24,3.24,0,0,0,1.4-.26,1.59,1.59,0,0,0,.77-.72,2.41,2.41,0,0,0,.24-1.12,2.51,2.51,0,0,0-.24-1.13,1.65,1.65,0,0,0-.78-.76,3.26,3.26,0,0,0-1.41-.26h-2.3v9.66ZM312.6,779l2.67,4.86h-1.53L311.12,779Z"/></g><g class="cls-1"><path d="M369.78,783.86H368.4l4-10.82h1.35l4,10.82h-1.37l-3.24-9.11H373Zm.5-4.23h5.54v1.16h-5.54Z"/><path d="M379.39,783.86V773h3.66a4.31,4.31,0,0,1,2.09.45,2.92,2.92,0,0,1,1.2,1.24,3.76,3.76,0,0,1,.39,1.73,3.84,3.84,0,0,1-.39,1.74,2.92,2.92,0,0,1-1.2,1.24,4.12,4.12,0,0,1-2.07.46h-2.62v-1.16H383a2.82,2.82,0,0,0,1.4-.3,1.82,1.82,0,0,0,.77-.81,2.78,2.78,0,0,0,.24-1.17,2.7,2.7,0,0,0-.24-1.16,1.79,1.79,0,0,0-.78-.81,3,3,0,0,0-1.41-.29H380.7v9.66Z"/><path d="M388.84,783.86V773h3.66a4.4,4.4,0,0,1,2.08.43,2.82,2.82,0,0,1,1.21,1.18,3.64,3.64,0,0,1,.39,1.7,3.58,3.58,0,0,1-.39,1.7,2.86,2.86,0,0,1-1.2,1.16,4.48,4.48,0,0,1-2.07.42h-3v-1.18h2.92a3.19,3.19,0,0,0,1.39-.26,1.62,1.62,0,0,0,.78-.72,2.71,2.71,0,0,0,0-2.25,1.67,1.67,0,0,0-.77-.76,3.32,3.32,0,0,0-1.41-.26h-2.31v9.66Zm5.1-4.86,2.66,4.86h-1.52L392.46,779Z"/></g><g class="cls-1"><path d="M449.81,773h1.56l3.68,9h.13l3.67-9h1.57v10.82h-1.23v-8.23h-.1l-3.39,8.23h-1.18l-3.38-8.23H451v8.23h-1.22Z"/><path d="M463.48,783.86h-1.37l4-10.82h1.36l4,10.82H470l-3.24-9.11h-.08Zm.51-4.23h5.54v1.16H464Z"/><path d="M480,776.42a3.56,3.56,0,0,0-.46-1,2.75,2.75,0,0,0-.67-.73,3,3,0,0,0-.88-.46,3.59,3.59,0,0,0-1.07-.16,3.19,3.19,0,0,0-1.75.5,3.42,3.42,0,0,0-1.26,1.46,6.3,6.3,0,0,0,0,4.75,3.44,3.44,0,0,0,1.27,1.46,3.4,3.4,0,0,0,1.81.5,3.24,3.24,0,0,0,1.64-.4,2.87,2.87,0,0,0,1.11-1.13,3.51,3.51,0,0,0,.4-1.73l.4.09h-3.25v-1.16h4.12v1.16a4.53,4.53,0,0,1-.57,2.32,4,4,0,0,1-1.56,1.53,5,5,0,0,1-4.81-.13,4.46,4.46,0,0,1-1.69-1.92,6.66,6.66,0,0,1-.61-3,7.29,7.29,0,0,1,.35-2.32,5.23,5.23,0,0,1,1-1.75,4.32,4.32,0,0,1,1.5-1.11,4.75,4.75,0,0,1,1.91-.38,4.82,4.82,0,0,1,1.59.25,4.4,4.4,0,0,1,1.33.73,4.35,4.35,0,0,1,1,1.11,4.28,4.28,0,0,1,.53,1.44Z"/></g><g class="cls-1"><path d="M544.53,776.42a3.88,3.88,0,0,0-.46-1,2.88,2.88,0,0,0-1.55-1.19,3.71,3.71,0,0,0-1.08-.16,3.24,3.24,0,0,0-1.75.5,3.47,3.47,0,0,0-1.25,1.46,6.24,6.24,0,0,0,0,4.75,3.46,3.46,0,0,0,1.28,1.46,3.34,3.34,0,0,0,1.8.5,3.24,3.24,0,0,0,1.64-.4,2.75,2.75,0,0,0,1.11-1.13,3.51,3.51,0,0,0,.4-1.73l.41.09h-3.26v-1.16h4.12v1.16a4.53,4.53,0,0,1-.57,2.32,4,4,0,0,1-1.56,1.53,4.62,4.62,0,0,1-2.29.55,4.71,4.71,0,0,1-2.52-.68,4.53,4.53,0,0,1-1.69-1.92,6.8,6.8,0,0,1-.61-3,7.29,7.29,0,0,1,.35-2.32,5.23,5.23,0,0,1,1-1.75,4.32,4.32,0,0,1,1.5-1.11,4.75,4.75,0,0,1,1.91-.38,4.92,4.92,0,0,1,1.6.25,4.35,4.35,0,0,1,1.32.73,4.17,4.17,0,0,1,1,1.11,4.3,4.3,0,0,1,.54,1.44Z"/><path d="M549.49,773v10.82h-1.31V773Z"/><path d="M559.22,773h1.31v7.16a3.85,3.85,0,0,1-.52,2,3.67,3.67,0,0,1-1.47,1.37,5.18,5.18,0,0,1-4.44,0,3.67,3.67,0,0,1-1.47-1.37,3.85,3.85,0,0,1-.52-2V773h1.31v7.05a2.83,2.83,0,0,0,.35,1.41,2.46,2.46,0,0,0,1,1,3.61,3.61,0,0,0,3.1,0,2.4,2.4,0,0,0,1-1,2.83,2.83,0,0,0,.35-1.41Z"/></g><g class="cls-1"><path d="M618.26,783.86V773h1.31v9.66h5v1.16Z"/><path d="M633.73,773H635v7.16a3.75,3.75,0,0,1-.52,2,3.67,3.67,0,0,1-1.47,1.37,5.18,5.18,0,0,1-4.44,0,3.58,3.58,0,0,1-1.46-1.37,3.75,3.75,0,0,1-.52-2V773h1.31v7.05a2.73,2.73,0,0,0,.35,1.41,2.43,2.43,0,0,0,1,1,3.14,3.14,0,0,0,1.55.35,3.18,3.18,0,0,0,1.56-.35,2.43,2.43,0,0,0,1-1,2.83,2.83,0,0,0,.35-1.41Z"/><path d="M645.06,776.42a3.88,3.88,0,0,0-.46-1,2.88,2.88,0,0,0-1.55-1.19,3.71,3.71,0,0,0-1.08-.16,3.24,3.24,0,0,0-1.75.5,3.47,3.47,0,0,0-1.25,1.46,5.49,5.49,0,0,0-.46,2.38,5.33,5.33,0,0,0,.47,2.37,3.44,3.44,0,0,0,1.27,1.46,3.4,3.4,0,0,0,1.81.5,3.24,3.24,0,0,0,1.64-.4,2.87,2.87,0,0,0,1.11-1.13,3.51,3.51,0,0,0,.4-1.73l.4.09h-3.26v-1.16h4.13v1.16a4.53,4.53,0,0,1-.57,2.32,3.92,3.92,0,0,1-1.57,1.53,4.58,4.58,0,0,1-2.28.55,4.72,4.72,0,0,1-2.53-.68,4.6,4.6,0,0,1-1.69-1.92,6.8,6.8,0,0,1-.6-3,7.3,7.3,0,0,1,.34-2.32,5.25,5.25,0,0,1,1-1.75,4.32,4.32,0,0,1,1.5-1.11,4.71,4.71,0,0,1,1.9-.38,4.88,4.88,0,0,1,1.6.25,4.4,4.4,0,0,1,1.33.73,4.13,4.13,0,0,1,1,1.11,4.3,4.3,0,0,1,.54,1.44Z"/></g><g class="cls-1"><path d="M702.06,783.86h-1.38l4-10.82H706l4,10.82h-1.38l-3.23-9.11h-.09Zm.51-4.23h5.53v1.16h-5.53Z"/><path d="M718.57,776.42a3.88,3.88,0,0,0-.46-1,2.88,2.88,0,0,0-1.55-1.19,3.71,3.71,0,0,0-1.08-.16,3.24,3.24,0,0,0-1.75.5,3.47,3.47,0,0,0-1.25,1.46,5.49,5.49,0,0,0-.47,2.38,5.33,5.33,0,0,0,.48,2.37,3.3,3.3,0,0,0,3.08,2,3.27,3.27,0,0,0,1.64-.4,2.87,2.87,0,0,0,1.11-1.13,3.62,3.62,0,0,0,.4-1.73l.4.09h-3.26v-1.16H720v1.16a4.53,4.53,0,0,1-.57,2.32,3.83,3.83,0,0,1-1.56,1.53,4.61,4.61,0,0,1-2.28.55,4.72,4.72,0,0,1-2.53-.68,4.53,4.53,0,0,1-1.69-1.92,6.8,6.8,0,0,1-.6-3,7.3,7.3,0,0,1,.34-2.32,5.23,5.23,0,0,1,1-1.75,4.41,4.41,0,0,1,1.5-1.11,4.79,4.79,0,0,1,1.91-.38,4.92,4.92,0,0,1,1.6.25,4.4,4.4,0,0,1,1.33.73,4.13,4.13,0,0,1,1,1.11,4.3,4.3,0,0,1,.54,1.44Z"/><path d="M731.35,778.45a6.66,6.66,0,0,1-.61,3,4.69,4.69,0,0,1-1.7,1.92,4.79,4.79,0,0,1-4.92,0,4.62,4.62,0,0,1-1.7-1.92,7.38,7.38,0,0,1,0-5.92,4.65,4.65,0,0,1,1.7-1.93,4.85,4.85,0,0,1,4.92,0,4.72,4.72,0,0,1,1.7,1.93A6.6,6.6,0,0,1,731.35,778.45Zm-1.26,0a5.49,5.49,0,0,0-.47-2.38,3.42,3.42,0,0,0-1.26-1.46,3.42,3.42,0,0,0-3.56,0,3.42,3.42,0,0,0-1.26,1.46,6.24,6.24,0,0,0,0,4.75,3.42,3.42,0,0,0,1.26,1.46,3.42,3.42,0,0,0,3.56,0,3.42,3.42,0,0,0,1.26-1.46A5.47,5.47,0,0,0,730.09,778.45Z"/></g><g class="cls-1"><path d="M792.86,775.74a1.67,1.67,0,0,0-.77-1.25,3,3,0,0,0-1.66-.44,3.26,3.26,0,0,0-1.26.23,2.08,2.08,0,0,0-.83.64,1.52,1.52,0,0,0-.3.93,1.29,1.29,0,0,0,.21.74,1.76,1.76,0,0,0,.54.51,2.85,2.85,0,0,0,.68.33,6.14,6.14,0,0,0,.66.21l1.1.3a9.39,9.39,0,0,1,.95.31,4.13,4.13,0,0,1,1,.53,2.61,2.61,0,0,1,.79.86,2.41,2.41,0,0,1,.32,1.28,2.89,2.89,0,0,1-.46,1.58,3.16,3.16,0,0,1-1.33,1.13,5.53,5.53,0,0,1-4.13,0,3.28,3.28,0,0,1-1.34-1,3,3,0,0,1-.54-1.56h1.35a1.65,1.65,0,0,0,.41,1,2.21,2.21,0,0,0,.92.59,3.7,3.7,0,0,0,1.21.19,3.52,3.52,0,0,0,1.34-.24,2.28,2.28,0,0,0,.95-.69,1.62,1.62,0,0,0,.35-1,1.29,1.29,0,0,0-.3-.88,2.27,2.27,0,0,0-.8-.55,8.74,8.74,0,0,0-1.06-.37l-1.33-.38a5,5,0,0,1-2-1,2.29,2.29,0,0,1-.74-1.77,2.62,2.62,0,0,1,.5-1.59,3.36,3.36,0,0,1,1.33-1.06,4.52,4.52,0,0,1,1.87-.37,4.38,4.38,0,0,1,1.86.37,3.23,3.23,0,0,1,1.29,1,2.53,2.53,0,0,1,.51,1.46Z"/><path d="M796.43,783.86V773H803v1.16h-5.22v3.65h4.89V779h-4.89v3.68h5.31v1.16Z"/><path d="M804.74,774.2V773h8.12v1.16h-3.41v9.66h-1.31V774.2Z"/></g><g class="cls-1"><path d="M878.81,778.45a6.52,6.52,0,0,1-.62,3A4.47,4.47,0,0,1,874,784a4.55,4.55,0,0,1-2.46-.68,4.6,4.6,0,0,1-1.69-1.92,7.38,7.38,0,0,1,0-5.92,4.62,4.62,0,0,1,1.69-1.93,4.87,4.87,0,0,1,4.93,0,4.62,4.62,0,0,1,1.69,1.93A6.47,6.47,0,0,1,878.81,778.45Zm-1.27,0a5.49,5.49,0,0,0-.46-2.38,3.51,3.51,0,0,0-1.27-1.46,3.4,3.4,0,0,0-3.55,0,3.51,3.51,0,0,0-1.27,1.46,6.36,6.36,0,0,0,0,4.75,3.51,3.51,0,0,0,1.27,1.46,3.4,3.4,0,0,0,3.55,0,3.51,3.51,0,0,0,1.27-1.46A5.48,5.48,0,0,0,877.54,778.45Z"/><path d="M880,774.2V773h8.12v1.16h-3.4v9.66h-1.31V774.2Z"/><path d="M889.53,774.2V773h8.11v1.16h-3.4v9.66h-1.31V774.2Z"/></g><g class="cls-1"><path d="M959.93,773v10.82h-1.27l-5.9-8.5h-.1v8.5h-1.32V773h1.27l5.92,8.51h.11V773Z"/><path d="M971.68,778.45a6.66,6.66,0,0,1-.62,3,4.62,4.62,0,0,1-1.7,1.92,4.5,4.5,0,0,1-2.46.68,4.55,4.55,0,0,1-2.46-.68,4.69,4.69,0,0,1-1.7-1.92,7.38,7.38,0,0,1,0-5.92,4.72,4.72,0,0,1,1.7-1.93,4.54,4.54,0,0,1,2.46-.67,4.49,4.49,0,0,1,2.46.67,4.65,4.65,0,0,1,1.7,1.93A6.6,6.6,0,0,1,971.68,778.45Zm-1.27,0a5.49,5.49,0,0,0-.47-2.38,3.42,3.42,0,0,0-1.26-1.46,3.42,3.42,0,0,0-3.56,0,3.42,3.42,0,0,0-1.26,1.46,6.24,6.24,0,0,0,0,4.75,3.42,3.42,0,0,0,1.26,1.46,3.42,3.42,0,0,0,3.56,0,3.42,3.42,0,0,0,1.26-1.46A5.47,5.47,0,0,0,970.41,778.45Z"/><path d="M973.81,773l3.22,9.11h.12l3.22-9.11h1.37l-4,10.82h-1.36l-4-10.82Z"/></g><g class="cls-1"><path d="M1039.51,783.86h-3.34V773h3.49a5.28,5.28,0,0,1,2.69.64,4.25,4.25,0,0,1,1.72,1.86,6.38,6.38,0,0,1,.6,2.88,6.51,6.51,0,0,1-.6,2.91,4.33,4.33,0,0,1-1.76,1.88A5.66,5.66,0,0,1,1039.51,783.86Zm-2-1.16h2a4.39,4.39,0,0,0,2.22-.52,3.22,3.22,0,0,0,1.32-1.48,5.43,5.43,0,0,0,.43-2.28,5.35,5.35,0,0,0-.43-2.25,3.1,3.1,0,0,0-1.28-1.46,4,4,0,0,0-2.11-.51h-2.1Z"/><path d="M1048.18,773v10.82h-1.31V773Z"/><path d="M1059.51,776.42h-1.31a2.89,2.89,0,0,0-.41-1,2.82,2.82,0,0,0-.7-.72,3.14,3.14,0,0,0-.9-.44,3.58,3.58,0,0,0-1-.15,3.34,3.34,0,0,0-1.78.5,3.42,3.42,0,0,0-1.26,1.46,6.24,6.24,0,0,0,0,4.75,3.42,3.42,0,0,0,1.26,1.46,3.34,3.34,0,0,0,1.78.5,3.58,3.58,0,0,0,1-.15,2.9,2.9,0,0,0,.9-.44,2.67,2.67,0,0,0,.7-.72,2.92,2.92,0,0,0,.41-1h1.31A4.43,4.43,0,0,1,1059,782a4,4,0,0,1-1,1.11,4.24,4.24,0,0,1-1.31.7,4.82,4.82,0,0,1-1.54.24,4.55,4.55,0,0,1-2.46-.68,4.69,4.69,0,0,1-1.7-1.92,7.49,7.49,0,0,1,0-5.92,4.72,4.72,0,0,1,1.7-1.93,4.54,4.54,0,0,1,2.46-.67,4.82,4.82,0,0,1,1.54.24,4.22,4.22,0,0,1,1.31.69,4.15,4.15,0,0,1,1,1.11A4.33,4.33,0,0,1,1059.51,776.42Z"/></g><g class="cls-1"><path d="M67.9,760.8c0-3,1-5.3,3.57-5.3S75,757.83,75,760.8s-1,5.3-3.57,5.3S67.9,763.78,67.9,760.8Zm5.77,0c0-2.62-.71-4.11-2.2-4.11s-2.2,1.49-2.2,4.11.71,4.11,2.2,4.11S73.67,763.42,73.67,760.8Z"/></g><g class="cls-1"><path d="M59.69,699.66,63,697.4h1v9.1h2.44v1.13H60V706.5h2.62V699l-2.38,1.65Z"/><path d="M67.9,702.52c0-3,1-5.3,3.57-5.3s3.57,2.32,3.57,5.3-1,5.29-3.57,5.29S67.9,705.49,67.9,702.52Zm5.77,0c0-2.62-.71-4.11-2.2-4.11s-2.2,1.49-2.2,4.11.71,4.1,2.2,4.1S73.67,705.14,73.67,702.52Z"/></g><g class="cls-1"><path d="M62.13,645l1.13-.77c1.05-.73,1.72-1.13,1.72-2.32a1.75,1.75,0,0,0-1.9-1.79c-1.31,0-2,.71-2.08,2.08H59.81a3,3,0,0,1,3.27-3.21,2.89,2.89,0,0,1,3.21,2.92c0,1.78-1.14,2.42-2.2,3.15l-1.13.77c-1.55,1.06-1.79,1.8-1.84,2.44h5.29v1.13H59.63A4.83,4.83,0,0,1,62.13,645Z"/><path d="M67.9,644.24c0-3,1-5.3,3.57-5.3s3.57,2.32,3.57,5.3-1,5.29-3.57,5.29S67.9,647.21,67.9,644.24Zm5.77,0c0-2.62-.71-4.11-2.2-4.11s-2.2,1.49-2.2,4.11.71,4.1,2.2,4.1S73.67,646.85,73.67,644.24Z"/></g><g class="cls-1"><path d="M60.76,588a2,2,0,0,0,2.2,2.14c1.28,0,2.2-.69,2.2-1.89a2,2,0,0,0-2.2-1.89h-.77v-1.13H63a1.76,1.76,0,0,0,1.84-1.77A1.67,1.67,0,0,0,63,581.79a1.7,1.7,0,0,0-1.84,1.84h-1.2a2.83,2.83,0,0,1,3-3,2.8,2.8,0,0,1,3.09,2.76,2.59,2.59,0,0,1-1.48,2.29v.06a2.63,2.63,0,0,1,1.9,2.56c0,1.83-1.56,2.92-3.51,2.92s-3.45-1.07-3.45-3.27Z"/><path d="M67.9,586c0-3,1-5.29,3.57-5.29S75,583,75,586s-1,5.3-3.57,5.3S67.9,588.93,67.9,586Zm5.77,0c0-2.62-.71-4.1-2.2-4.1s-2.2,1.48-2.2,4.1.71,4.11,2.2,4.11S73.67,588.57,73.67,586Z"/></g><g class="cls-1"><path d="M59.27,529.28l4.94-6.73h1.07v6.55h1.49v1.13H65.28v2.56H64v-2.56h-4.7Zm4.7-.18v-4.51l-3.36,4.51Z"/><path d="M67.9,527.67c0-3,1-5.29,3.57-5.29S75,524.7,75,527.67s-1,5.3-3.57,5.3S67.9,530.65,67.9,527.67Zm5.77,0c0-2.62-.71-4.1-2.2-4.1s-2.2,1.48-2.2,4.1.71,4.11,2.2,4.11S73.67,530.29,73.67,527.67Z"/></g><g class="cls-1"><path d="M60.82,471.77a2,2,0,0,0,2.2,1.79,2.24,2.24,0,0,0,0-4.47,2.48,2.48,0,0,0-2,1L59.87,470l.29-5.77h5.78v1.19H61.35l-.18,3.22h.06a2.72,2.72,0,0,1,2-.72,3.16,3.16,0,0,1,3.33,3.27A3.32,3.32,0,0,1,63,474.69a3.17,3.17,0,0,1-3.51-2.92Z"/><path d="M67.9,469.39c0-3,1-5.3,3.57-5.3s3.57,2.33,3.57,5.3-1,5.3-3.57,5.3S67.9,472.37,67.9,469.39Zm5.77,0c0-2.62-.71-4.11-2.2-4.11s-2.2,1.49-2.2,4.11.71,4.11,2.2,4.11S73.67,472,73.67,469.39Z"/></g><g class="cls-1"><path d="M63.38,405.81a2.83,2.83,0,0,1,3.09,2.74H65.16a1.65,1.65,0,0,0-1.78-1.61c-1.21,0-2.43,1.06-2.5,4.09a2.94,2.94,0,0,1,2.61-1.35A3.1,3.1,0,0,1,66.71,413a3.31,3.31,0,0,1-3.45,3.4c-2,0-3.75-1.3-3.75-5.06C59.51,407.23,61.43,405.81,63.38,405.81ZM61.06,413a2.13,2.13,0,0,0,2.14,2.24,2.23,2.23,0,0,0,.12-4.46A2.19,2.19,0,0,0,61.06,413Z"/><path d="M67.9,411.11c0-3,1-5.3,3.57-5.3s3.57,2.32,3.57,5.3-1,5.3-3.57,5.3S67.9,414.08,67.9,411.11Zm5.77,0c0-2.62-.71-4.11-2.2-4.11s-2.2,1.49-2.2,4.11.71,4.1,2.2,4.1S73.67,413.73,73.67,411.11Z"/></g><g class="cls-1"><path d="M65.16,348.9H59.57v-1.19h7v1l-4.35,9.28H60.88Z"/><path d="M67.9,352.83c0-3,1-5.3,3.57-5.3s3.57,2.32,3.57,5.3-1,5.29-3.57,5.29S67.9,355.8,67.9,352.83Zm5.77,0c0-2.62-.71-4.11-2.2-4.11s-2.2,1.49-2.2,4.11.71,4.1,2.2,4.1S73.67,355.45,73.67,352.83Z"/></g><g class="cls-1"><path d="M61.35,294.37v-.06a2.49,2.49,0,0,1-1.48-2.3c0-1.6,1.21-2.76,3.15-2.76s3.15,1.16,3.15,2.76a2.49,2.49,0,0,1-1.48,2.3v.06a2.61,2.61,0,0,1,1.9,2.55c0,1.83-1.44,2.92-3.57,2.92s-3.57-1.09-3.57-2.92A2.61,2.61,0,0,1,61.35,294.37ZM63,298.71c1.32,0,2.26-.69,2.26-1.89a2.3,2.3,0,0,0-4.52,0C60.76,298,61.7,298.71,63,298.71Zm1.9-6.68a1.91,1.91,0,0,0-3.8,0,1.9,1.9,0,0,0,3.8,0Z"/><path d="M67.9,294.54c0-3,1-5.29,3.57-5.29S75,291.57,75,294.54s-1,5.3-3.57,5.3S67.9,297.52,67.9,294.54Zm5.77,0c0-2.62-.71-4.1-2.2-4.1s-2.2,1.48-2.2,4.1.71,4.11,2.2,4.11S73.67,297.16,73.67,294.54Z"/></g><g class="cls-1"><path d="M62.78,241.56a2.94,2.94,0,0,1-3.21-2.74h1.31a1.8,1.8,0,0,0,1.9,1.61c1.38,0,2.32-1.06,2.38-4.08a3,3,0,0,1-2.62,1.34,3.09,3.09,0,0,1-3.21-3.33A3.3,3.3,0,0,1,62.78,231c2,0,3.75,1.29,3.75,5.05C66.53,240.15,64.91,241.56,62.78,241.56Zm2.2-7.22a2.17,2.17,0,1,0-4.34,0,2.1,2.1,0,0,0,2.08,2.2A2.19,2.19,0,0,0,65,234.34Z"/><path d="M67.9,236.26c0-3,1-5.29,3.57-5.29S75,233.29,75,236.26s-1,5.3-3.57,5.3S67.9,239.24,67.9,236.26Zm5.77,0c0-2.62-.71-4.1-2.2-4.1s-2.2,1.48-2.2,4.1.71,4.11,2.2,4.11S73.67,238.88,73.67,236.26Z"/></g><g class="cls-1"><path d="M51.24,175.12l3.27-2.26h1V182H58v1.13H51.59V182h2.62v-7.49l-2.38,1.65Z"/><path d="M59.45,178c0-3,1-5.3,3.57-5.3s3.57,2.32,3.57,5.3-1,5.3-3.57,5.3S59.45,181,59.45,178Zm5.77,0c0-2.62-.71-4.11-2.2-4.11s-2.2,1.49-2.2,4.11.71,4.11,2.2,4.11S65.22,180.6,65.22,178Z"/><path d="M67.9,178c0-3,1-5.3,3.57-5.3S75,175,75,178s-1,5.3-3.57,5.3S67.9,181,67.9,178Zm5.77,0c0-2.62-.71-4.11-2.2-4.11s-2.2,1.49-2.2,4.11.71,4.11,2.2,4.11S73.67,180.6,73.67,178Z"/></g><path d="M41.16,137.88V123.93h1.56v6a3,3,0,0,0,.35,1.45,2.47,2.47,0,0,0,1,1,3.28,3.28,0,0,0,3,0,2.5,2.5,0,0,0,1-1,3,3,0,0,0,.34-1.44v-6h1.56v10.14H48.32v-1.5h-.08a2.87,2.87,0,0,1-1.14,1.22,3.11,3.11,0,0,1-1.58.42,3.08,3.08,0,0,1-1.57-.42,3,3,0,0,1-1.15-1.22h-.08v5.31Z"/><path d="M56.83,138.09a5.87,5.87,0,0,1-1.94-.29,4.12,4.12,0,0,1-2.21-1.74l1.24-.88c.15.19.32.4.54.64a2.82,2.82,0,0,0,.89.63,3.46,3.46,0,0,0,1.48.27,3.28,3.28,0,0,0,2-.6,2.16,2.16,0,0,0,.8-1.86V132.2h-.13c-.12.18-.28.41-.49.68a2.8,2.8,0,0,1-.9.72,3.31,3.31,0,0,1-1.57.32,4.22,4.22,0,0,1-2.21-.59,3.94,3.94,0,0,1-1.53-1.69,5.81,5.81,0,0,1-.57-2.69,6.23,6.23,0,0,1,.55-2.72,4.28,4.28,0,0,1,1.52-1.8,4.11,4.11,0,0,1,2.26-.63,3.35,3.35,0,0,1,1.58.32,3,3,0,0,1,.9.74c.21.28.37.5.48.68h.16v-1.61h1.51v10.44a3.6,3.6,0,0,1-.59,2.13A3.48,3.48,0,0,1,59,137.7,6,6,0,0,1,56.83,138.09Zm0-5.57a2.85,2.85,0,0,0,1.58-.43,2.68,2.68,0,0,0,1-1.24,5.65,5.65,0,0,0,0-3.86,2.93,2.93,0,0,0-1-1.32,2.68,2.68,0,0,0-1.6-.47,2.61,2.61,0,0,0-1.65.5,2.9,2.9,0,0,0-1,1.35,5.1,5.1,0,0,0-.33,1.87,4.92,4.92,0,0,0,.33,1.87,2.94,2.94,0,0,0,1,1.27A2.86,2.86,0,0,0,56.78,132.52Z"/><path d="M68.85,119.91l-4.36,16.2H63.07l4.36-16.2Z"/><path d="M70.7,134.07V123.93h1.51v1.58h.13a2.55,2.55,0,0,1,1-1.26,3.13,3.13,0,0,1,1.7-.45,3,3,0,0,1,1.68.45,3,3,0,0,1,1,1.26h.11a3,3,0,0,1,1.17-1.25,3.58,3.58,0,0,1,1.87-.46,3,3,0,0,1,2.22.85,3.52,3.52,0,0,1,.87,2.63v6.79H82.46v-6.79a1.92,1.92,0,0,0-.61-1.6,2.3,2.3,0,0,0-1.45-.48,2.13,2.13,0,0,0-1.66.64,2.33,2.33,0,0,0-.59,1.63v6.6H76.57v-6.94a1.84,1.84,0,0,0-.56-1.4,2,2,0,0,0-1.45-.53,2.17,2.17,0,0,0-1.13.32,2.46,2.46,0,0,0-.85.9,2.67,2.67,0,0,0-.32,1.31v6.34Z"/><path d="M88.93,128a3.44,3.44,0,0,1-1.36-.26,2.32,2.32,0,0,1-.94-.73,1.89,1.89,0,0,1-.38-1.09h1a1.14,1.14,0,0,0,.26.65,1.41,1.41,0,0,0,.6.43,2.23,2.23,0,0,0,.83.15,2.13,2.13,0,0,0,.9-.18,1.39,1.39,0,0,0,.62-.49,1.21,1.21,0,0,0,.22-.73,1.41,1.41,0,0,0-.21-.77,1.48,1.48,0,0,0-.63-.52,2.41,2.41,0,0,0-1-.19h-.63v-.85h.63a1.77,1.77,0,0,0,.82-.17,1.3,1.3,0,0,0,.56-.47,1.46,1.46,0,0,0,0-1.42,1.26,1.26,0,0,0-.5-.47,1.64,1.64,0,0,0-.76-.16,2,2,0,0,0-.77.15,1.38,1.38,0,0,0-.58.42,1.13,1.13,0,0,0-.25.68h-.92a1.86,1.86,0,0,1,.37-1.09,2.3,2.3,0,0,1,.92-.73,2.86,2.86,0,0,1,1.25-.26,2.46,2.46,0,0,1,1.25.29A2.17,2.17,0,0,1,91,121a2,2,0,0,1,.28,1,1.85,1.85,0,0,1-.35,1.13,1.74,1.74,0,0,1-1,.65v.06a1.88,1.88,0,0,1,1.17.64,2.08,2.08,0,0,1,.07,2.41,2.44,2.44,0,0,1-.95.81A3.12,3.12,0,0,1,88.93,128Z"/><rect class="cls-2" x="96.81" y="158.45" width="285.61" height="602.89"/><rect class="cls-2" x="941.35" y="158.45" width="146.87" height="602.89"/><path class="cls-3" d="M181.24,761.64a.29.29,0,0,1-.29-.3V158.45a.3.3,0,1,1,.59,0V761.34A.29.29,0,0,1,181.24,761.64Z"/><path class="cls-3" d="M257.51,761.64a.29.29,0,0,1-.3-.3V158.45a.3.3,0,0,1,.3-.3.31.31,0,0,1,.3.3V761.34A.3.3,0,0,1,257.51,761.64Z"/><path class="cls-3" d="M341.94,761.64a.29.29,0,0,1-.3-.3V158.45a.3.3,0,1,1,.6,0V761.34A.29.29,0,0,1,341.94,761.64Z"/><path class="cls-3" d="M423.65,761.64a.29.29,0,0,1-.3-.3V158.45a.3.3,0,1,1,.6,0V761.34A.29.29,0,0,1,423.65,761.64Z"/><path class="cls-3" d="M508.08,761.64a.3.3,0,0,1-.3-.3V158.45a.31.31,0,0,1,.3-.3.3.3,0,0,1,.3.3V761.34A.29.29,0,0,1,508.08,761.64Z"/><path class="cls-3" d="M589.79,761.64a.29.29,0,0,1-.3-.3V158.45a.3.3,0,0,1,.6,0V761.34A.29.29,0,0,1,589.79,761.64Z"/><path class="cls-3" d="M674.22,761.64a.3.3,0,0,1-.3-.3V158.45a.31.31,0,0,1,.3-.3.3.3,0,0,1,.3.3V761.34A.29.29,0,0,1,674.22,761.64Z"/><path class="cls-3" d="M758.66,761.64a.29.29,0,0,1-.3-.3V158.45a.3.3,0,0,1,.3-.3.31.31,0,0,1,.3.3V761.34A.3.3,0,0,1,758.66,761.64Z"/><path class="cls-3" d="M840.37,761.64a.29.29,0,0,1-.3-.3V158.45a.3.3,0,1,1,.59,0V761.34A.29.29,0,0,1,840.37,761.64Z"/><path class="cls-3" d="M924.8,761.64a.29.29,0,0,1-.3-.3V158.45a.3.3,0,0,1,.3-.3.31.31,0,0,1,.3.3V761.34A.3.3,0,0,1,924.8,761.64Z"/><path class="cls-3" d="M1006.51,761.64a.29.29,0,0,1-.3-.3V158.45a.3.3,0,0,1,.3-.3.31.31,0,0,1,.3.3V761.34A.3.3,0,0,1,1006.51,761.64Z"/><path class="cls-3" d="M96.81,761.64a.3.3,0,0,1-.3-.3V158.45a.31.31,0,0,1,.3-.3.3.3,0,0,1,.3.3V761.34A.29.29,0,0,1,96.81,761.64Z"/><path class="cls-3" d="M1088.22,761.64a.29.29,0,0,1-.3-.3V158.45a.3.3,0,0,1,.3-.3.31.31,0,0,1,.3.3V761.34A.3.3,0,0,1,1088.22,761.64Z"/><circle class="cls-4" cx="96.81" cy="429.42" r="2.97"/><circle class="cls-4" cx="143.12" cy="464.37" r="2.97"/><circle class="cls-4" cx="145.84" cy="365.35" r="2.97"/><circle class="cls-4" cx="148.56" cy="359.52" r="2.97"/><circle class="cls-4" cx="151.29" cy="417.77" r="2.97"/><circle class="cls-4" cx="156.73" cy="417.77" r="2.97"/><circle class="cls-4" cx="159.46" cy="359.52" r="2.97"/><circle class="cls-4" cx="162.18" cy="342.05" r="2.97"/><circle class="cls-4" cx="167.63" cy="435.24" r="2.97"/><circle class="cls-4" cx="178.52" cy="429.42" r="2.97"/><circle class="cls-4" cx="189.42" cy="446.89" r="2.97"/><circle class="cls-4" cx="192.14" cy="347.88" r="2.97"/><circle class="cls-4" cx="194.87" cy="411.94" r="2.97"/><circle class="cls-4" cx="227.55" cy="342.05" r="2.97"/><circle class="cls-4" cx="230.27" cy="266.33" r="2.97"/><circle class="cls-4" cx="233" cy="277.98" r="2.97"/><circle class="cls-4" cx="301.09" cy="452.72" r="2.97"/><circle class="cls-4" cx="894.84" cy="423.59" r="2.97"/><circle class="cls-4" cx="911.18" cy="464.37" r="2.97"/><circle class="cls-4" cx="913.91" cy="417.77" r="2.97"/><circle class="cls-4" cx="930.25" cy="446.89" r="2.97"/><circle class="cls-4" cx="946.59" cy="382.82" r="2.97"/><circle class="cls-4" cx="949.31" cy="365.35" r="2.97"/><circle class="cls-4" cx="952.04" cy="435.24" r="2.97"/><circle class="cls-4" cx="992.89" cy="400.3" r="2.97"/><circle class="cls-4" cx="1025.57" cy="464.37" r="2.97"/><circle class="cls-4" cx="1058.26" cy="417.77" r="2.97"/><circle class="cls-4" cx="1060.98" cy="429.42" r="2.97"/><circle class="cls-4" cx="1066.43" cy="464.37" r="2.97"/><circle class="cls-4" cx="1069.15" cy="318.75" r="2.97"/><circle class="cls-4" cx="1071.88" cy="441.07" r="2.97"/><circle class="cls-4" cx="1074.6" cy="470.19" r="2.97"/><circle class="cls-4" cx="1077.32" cy="452.72" r="2.97"/><circle class="cls-4" cx="1082.77" cy="452.72" r="2.97"/><circle cx="99.54" cy="580.86" r="2.97"/><circle cx="102.26" cy="615.8" r="2.97"/><circle cx="107.71" cy="691.52" r="2.97"/><circle cx="110.43" cy="720.64" r="2.97"/><circle cx="113.16" cy="621.63" r="2.97"/><circle cx="115.88" cy="580.86" r="2.97"/><circle cx="118.6" cy="545.91" r="2.97"/><circle cx="121.33" cy="551.73" r="2.97"/><circle cx="124.05" cy="516.79" r="2.97"/><circle cx="126.77" cy="476.01" r="2.97"/><circle cx="129.5" cy="493.49" r="2.97"/><circle cx="132.22" cy="621.63" r="2.97"/><circle cx="134.95" cy="545.91" r="2.97"/><circle cx="137.67" cy="510.96" r="2.97"/><circle cx="140.39" cy="598.33" r="2.97"/><circle cx="154.01" cy="476.01" r="2.97"/><circle cx="164.91" cy="481.84" r="2.97"/><circle cx="170.35" cy="516.79" r="2.97"/><circle cx="173.08" cy="499.31" r="2.97"/><circle cx="175.8" cy="510.96" r="2.97"/><circle cx="181.25" cy="697.35" r="2.97"/><circle cx="183.97" cy="563.38" r="2.97"/><circle cx="186.69" cy="528.43" r="2.97"/><circle cx="197.59" cy="557.56" r="2.97"/><circle cx="200.31" cy="621.63" r="2.97"/><circle cx="203.04" cy="604.15" r="2.97"/><circle cx="205.76" cy="580.86" r="2.97"/><circle cx="208.48" cy="598.33" r="2.97"/><circle cx="211.21" cy="604.15" r="2.97"/><circle cx="213.93" cy="644.92" r="2.97"/><circle cx="216.65" cy="534.26" r="2.97"/><circle cx="219.38" cy="586.68" r="2.97"/><circle cx="222.1" cy="586.68" r="2.97"/><circle cx="224.83" cy="528.43" r="2.97"/><circle cx="235.72" cy="650.75" r="2.97"/><circle cx="238.44" cy="679.87" r="2.97"/><circle cx="241.17" cy="580.86" r="2.97"/><circle cx="243.89" cy="476.01" r="2.97"/><circle cx="246.61" cy="592.5" r="2.97"/><circle cx="249.34" cy="679.87" r="2.97"/><circle cx="252.06" cy="656.57" r="2.97"/><circle cx="254.79" cy="598.33" r="2.97"/><circle cx="257.51" cy="639.1" r="2.97"/><circle cx="260.23" cy="604.15" r="2.97"/><circle cx="262.96" cy="575.03" r="2.97"/><circle cx="265.68" cy="540.08" r="2.97"/><circle cx="268.4" cy="609.98" r="2.97"/><circle cx="271.13" cy="627.45" r="2.97"/><circle cx="273.85" cy="569.21" r="2.97"/><circle cx="276.57" cy="604.15" r="2.97"/><circle cx="279.3" cy="604.15" r="2.97"/><circle cx="282.02" cy="557.56" r="2.97"/><circle cx="284.75" cy="545.91" r="2.97"/><circle cx="287.47" cy="604.15" r="2.97"/><circle cx="290.19" cy="627.45" r="2.97"/><circle cx="292.92" cy="563.38" r="2.97"/><circle cx="295.64" cy="499.31" r="2.97"/><circle cx="298.36" cy="499.31" r="2.97"/><circle cx="303.81" cy="522.61" r="2.97"/><circle cx="306.53" cy="557.56" r="2.97"/><circle cx="309.26" cy="563.38" r="2.97"/><circle cx="314.71" cy="540.08" r="2.97"/><circle cx="317.43" cy="575.03" r="2.97"/><circle cx="320.15" cy="563.38" r="2.97"/><circle cx="322.88" cy="604.15" r="2.97"/><circle cx="325.6" cy="586.68" r="2.97"/><circle cx="328.32" cy="540.08" r="2.97"/><circle cx="331.05" cy="516.79" r="2.97"/><circle cx="333.77" cy="493.49" r="2.97"/><circle cx="336.49" cy="510.96" r="2.97"/><circle cx="339.22" cy="703.17" r="2.97"/><circle cx="341.94" cy="703.17" r="2.97"/><circle cx="344.67" cy="691.52" r="2.97"/><circle cx="347.39" cy="644.92" r="2.97"/><circle cx="350.11" cy="598.33" r="2.97"/><circle cx="352.84" cy="621.63" r="2.97"/><circle cx="355.56" cy="633.28" r="2.97"/><circle cx="358.28" cy="662.4" r="2.97"/><circle cx="361.01" cy="697.35" r="2.97"/><circle cx="363.73" cy="662.4" r="2.97"/><circle cx="366.45" cy="714.82" r="2.97"/><circle cx="369.18" cy="668.22" r="2.97"/><circle cx="371.9" cy="621.63" r="2.97"/><circle cx="374.63" cy="633.28" r="2.97"/><circle cx="377.35" cy="662.4" r="2.97"/><circle cx="380.07" cy="639.1" r="2.97"/><circle cx="382.8" cy="662.4" r="2.97"/><circle cx="385.52" cy="650.75" r="2.97"/><circle cx="388.24" cy="691.52" r="2.97"/><circle cx="390.97" cy="650.75" r="2.97"/><circle cx="393.69" cy="639.1" r="2.97"/><circle cx="396.41" cy="720.64" r="2.97"/><circle cx="399.14" cy="726.47" r="2.97"/><circle cx="401.86" cy="679.87" r="2.97"/><circle cx="404.59" cy="720.64" r="2.97"/><circle cx="407.31" cy="691.52" r="2.97"/><circle cx="410.03" cy="639.1" r="2.97"/><circle cx="412.76" cy="644.92" r="2.97"/><circle cx="415.48" cy="650.75" r="2.97"/><circle cx="418.2" cy="650.75" r="2.97"/><circle cx="420.93" cy="668.22" r="2.97"/><circle cx="423.65" cy="674.05" r="2.97"/><circle cx="426.37" cy="697.35" r="2.97"/><circle cx="429.1" cy="668.22" r="2.97"/><circle cx="431.82" cy="662.4" r="2.97"/><circle cx="434.55" cy="639.1" r="2.97"/><circle cx="437.27" cy="691.52" r="2.97"/><circle cx="439.99" cy="644.92" r="2.97"/><circle cx="442.72" cy="639.1" r="2.97"/><circle cx="445.44" cy="604.15" r="2.97"/><circle cx="448.16" cy="609.98" r="2.97"/><circle cx="450.89" cy="650.75" r="2.97"/><circle cx="453.61" cy="644.92" r="2.97"/><circle cx="456.33" cy="656.57" r="2.97"/><circle cx="459.06" cy="621.63" r="2.97"/><circle cx="461.78" cy="639.1" r="2.97"/><circle cx="464.51" cy="644.92" r="2.97"/><circle cx="469.95" cy="592.5" r="2.97"/><circle cx="472.68" cy="627.45" r="2.97"/><circle cx="475.4" cy="627.45" r="2.97"/><circle cx="478.12" cy="668.22" r="2.97"/><circle cx="480.85" cy="674.05" r="2.97"/><circle cx="483.57" cy="656.57" r="2.97"/><circle cx="486.29" cy="644.92" r="2.97"/><circle cx="489.02" cy="598.33" r="2.97"/><circle cx="491.74" cy="563.38" r="2.97"/><circle cx="494.47" cy="563.38" r="2.97"/><circle cx="497.19" cy="569.21" r="2.97"/><circle cx="499.91" cy="679.87" r="2.97"/><circle cx="502.64" cy="662.4" r="2.97"/><circle cx="505.36" cy="569.21" r="2.97"/><circle cx="508.08" cy="592.5" r="2.97"/><circle cx="510.81" cy="615.8" r="2.97"/><circle cx="513.53" cy="563.38" r="2.97"/><circle cx="516.25" cy="540.08" r="2.97"/><circle cx="518.98" cy="545.91" r="2.97"/><circle cx="521.7" cy="575.03" r="2.97"/><circle cx="524.43" cy="644.92" r="2.97"/><circle cx="527.15" cy="697.35" r="2.97"/><circle cx="529.87" cy="668.22" r="2.97"/><circle cx="532.6" cy="685.7" r="2.97"/><circle cx="535.32" cy="691.52" r="2.97"/><circle cx="538.04" cy="685.7" r="2.97"/><circle cx="540.77" cy="639.1" r="2.97"/><circle cx="543.49" cy="639.1" r="2.97"/><circle cx="546.21" cy="627.45" r="2.97"/><circle cx="548.94" cy="598.33" r="2.97"/><circle cx="551.66" cy="592.5" r="2.97"/><circle cx="554.39" cy="644.92" r="2.97"/><circle cx="557.11" cy="674.05" r="2.97"/><circle cx="559.83" cy="656.57" r="2.97"/><circle cx="562.56" cy="668.22" r="2.97"/><circle cx="565.28" cy="609.98" r="2.97"/><circle cx="568" cy="545.91" r="2.97"/><circle cx="570.73" cy="633.28" r="2.97"/><circle cx="573.45" cy="650.75" r="2.97"/><circle cx="576.17" cy="644.92" r="2.97"/><circle cx="578.9" cy="534.26" r="2.97"/><circle cx="589.79" cy="598.33" r="2.97"/><circle cx="592.52" cy="615.8" r="2.97"/><circle cx="595.24" cy="615.8" r="2.97"/><circle cx="597.96" cy="575.03" r="2.97"/><circle cx="600.69" cy="656.57" r="2.97"/><circle cx="603.41" cy="656.57" r="2.97"/><circle cx="606.13" cy="633.28" r="2.97"/><circle cx="608.86" cy="691.52" r="2.97"/><circle cx="611.58" cy="703.17" r="2.97"/><circle cx="614.31" cy="708.99" r="2.97"/><circle cx="617.03" cy="656.57" r="2.97"/><circle cx="619.75" cy="650.75" r="2.97"/><circle cx="622.48" cy="674.05" r="2.97"/><circle cx="625.2" cy="679.87" r="2.97"/><circle cx="627.92" cy="656.57" r="2.97"/><circle cx="630.65" cy="633.28" r="2.97"/><circle cx="633.37" cy="644.92" r="2.97"/><circle cx="636.09" cy="633.28" r="2.97"/><circle cx="638.82" cy="650.75" r="2.97"/><circle cx="641.54" cy="639.1" r="2.97"/><circle cx="644.27" cy="621.63" r="2.97"/><circle cx="646.99" cy="621.63" r="2.97"/><circle cx="649.71" cy="633.28" r="2.97"/><circle cx="652.44" cy="633.28" r="2.97"/><circle cx="655.16" cy="604.15" r="2.97"/><circle cx="657.88" cy="621.63" r="2.97"/><circle cx="660.61" cy="668.22" r="2.97"/><circle cx="663.33" cy="650.75" r="2.97"/><circle cx="666.05" cy="639.1" r="2.97"/><circle cx="668.78" cy="685.7" r="2.97"/><circle cx="671.5" cy="697.35" r="2.97"/><circle cx="674.23" cy="662.4" r="2.97"/><circle cx="676.95" cy="662.4" r="2.97"/><circle cx="679.67" cy="674.05" r="2.97"/><circle cx="682.4" cy="679.87" r="2.97"/><circle cx="685.12" cy="650.75" r="2.97"/><circle cx="687.84" cy="633.28" r="2.97"/><circle cx="690.57" cy="703.17" r="2.97"/><circle cx="693.29" cy="662.4" r="2.97"/><circle cx="696.01" cy="650.75" r="2.97"/><circle cx="698.74" cy="668.22" r="2.97"/><circle cx="701.46" cy="674.05" r="2.97"/><circle cx="704.19" cy="697.35" r="2.97"/><circle cx="706.91" cy="714.82" r="2.97"/><circle cx="709.63" cy="720.64" r="2.97"/><circle cx="712.36" cy="703.17" r="2.97"/><circle cx="715.08" cy="668.22" r="2.97"/><circle cx="717.8" cy="633.28" r="2.97"/><circle cx="720.53" cy="679.87" r="2.97"/><circle cx="723.25" cy="708.99" r="2.97"/><circle cx="725.97" cy="697.35" r="2.97"/><circle cx="728.7" cy="714.82" r="2.97"/><circle cx="731.42" cy="697.35" r="2.97"/><circle cx="734.15" cy="703.17" r="2.97"/><circle cx="736.87" cy="697.35" r="2.97"/><circle cx="739.59" cy="668.22" r="2.97"/><circle cx="742.32" cy="650.75" r="2.97"/><circle cx="745.04" cy="650.75" r="2.97"/><circle cx="747.76" cy="674.05" r="2.97"/><circle cx="750.49" cy="668.22" r="2.97"/><circle cx="753.21" cy="668.22" r="2.97"/><circle cx="755.93" cy="650.75" r="2.97"/><circle cx="758.66" cy="679.87" r="2.97"/><circle cx="761.38" cy="685.7" r="2.97"/><circle cx="764.11" cy="662.4" r="2.97"/><circle cx="766.83" cy="668.22" r="2.97"/><circle cx="769.55" cy="668.22" r="2.97"/><circle cx="772.28" cy="662.4" r="2.97"/><circle cx="775" cy="644.92" r="2.97"/><circle cx="777.72" cy="662.4" r="2.97"/><circle cx="780.45" cy="668.22" r="2.97"/><circle cx="783.17" cy="685.7" r="2.97"/><circle cx="785.89" cy="697.35" r="2.97"/><circle cx="788.62" cy="679.87" r="2.97"/><circle cx="791.34" cy="662.4" r="2.97"/><circle cx="794.07" cy="668.22" r="2.97"/><circle cx="796.79" cy="592.5" r="2.97"/><circle cx="799.51" cy="691.52" r="2.97"/><circle cx="802.24" cy="703.17" r="2.97"/><circle cx="804.96" cy="720.64" r="2.97"/><circle cx="807.68" cy="679.87" r="2.97"/><circle cx="810.41" cy="656.57" r="2.97"/><circle cx="813.13" cy="691.52" r="2.97"/><circle cx="815.85" cy="697.35" r="2.97"/><circle cx="818.58" cy="691.52" r="2.97"/><circle cx="821.3" cy="685.7" r="2.97"/><circle cx="824.03" cy="662.4" r="2.97"/><circle cx="826.75" cy="697.35" r="2.97"/><circle cx="829.47" cy="703.17" r="2.97"/><circle cx="832.2" cy="703.17" r="2.97"/><circle cx="834.92" cy="674.05" r="2.97"/><circle cx="837.64" cy="679.87" r="2.97"/><circle cx="840.37" cy="679.87" r="2.97"/><circle cx="845.81" cy="662.4" r="2.97"/><circle cx="848.54" cy="674.05" r="2.97"/><circle cx="851.26" cy="627.45" r="2.97"/><circle cx="853.99" cy="586.68" r="2.97"/><circle cx="856.71" cy="586.68" r="2.97"/><circle cx="859.43" cy="598.33" r="2.97"/><circle cx="862.16" cy="621.63" r="2.97"/><circle cx="864.88" cy="627.45" r="2.97"/><circle cx="867.6" cy="557.56" r="2.97"/><circle cx="870.33" cy="575.03" r="2.97"/><circle cx="873.05" cy="569.21" r="2.97"/><circle cx="875.77" cy="575.03" r="2.97"/><circle cx="878.5" cy="586.68" r="2.97"/><circle cx="881.22" cy="621.63" r="2.97"/><circle cx="883.95" cy="580.86" r="2.97"/><circle cx="886.67" cy="534.26" r="2.97"/><circle cx="889.39" cy="557.56" r="2.97"/><circle cx="892.12" cy="516.79" r="2.97"/><circle cx="897.56" cy="604.15" r="2.97"/><circle cx="900.29" cy="575.03" r="2.97"/><circle cx="903.01" cy="540.08" r="2.97"/><circle cx="905.73" cy="540.08" r="2.97"/><circle cx="908.46" cy="545.91" r="2.97"/><circle cx="916.63" cy="580.86" r="2.97"/><circle cx="919.35" cy="644.92" r="2.97"/><circle cx="922.08" cy="633.28" r="2.97"/><circle cx="924.8" cy="633.28" r="2.97"/><circle cx="927.52" cy="557.56" r="2.97"/><circle cx="932.97" cy="703.17" r="2.97"/><circle cx="935.69" cy="703.17" r="2.97"/><circle cx="938.42" cy="708.99" r="2.97"/><circle cx="941.14" cy="615.8" r="2.97"/><circle cx="943.87" cy="545.91" r="2.97"/><circle cx="954.76" cy="615.8" r="2.97"/><circle cx="957.48" cy="604.15" r="2.97"/><circle cx="960.21" cy="609.98" r="2.97"/><circle cx="962.93" cy="615.8" r="2.97"/><circle cx="965.65" cy="650.75" r="2.97"/><circle cx="968.38" cy="569.21" r="2.97"/><circle cx="971.1" cy="575.03" r="2.97"/><circle cx="973.83" cy="545.91" r="2.97"/><circle cx="976.55" cy="580.86" r="2.97"/><circle cx="979.27" cy="609.98" r="2.97"/><circle cx="982" cy="714.82" r="2.97"/><circle cx="984.72" cy="679.87" r="2.97"/><circle cx="987.44" cy="633.28" r="2.97"/><circle cx="990.17" cy="487.66" r="2.97"/><circle cx="995.61" cy="551.73" r="2.97"/><circle cx="998.34" cy="575.03" r="2.97"/><circle cx="1001.06" cy="545.91" r="2.97"/><circle cx="1003.79" cy="540.08" r="2.97"/><circle cx="1006.51" cy="522.61" r="2.97"/><circle cx="1009.23" cy="580.86" r="2.97"/><circle cx="1011.96" cy="650.75" r="2.97"/><circle cx="1014.68" cy="691.52" r="2.97"/><circle cx="1017.4" cy="644.92" r="2.97"/><circle cx="1020.13" cy="615.8" r="2.97"/><circle cx="1022.85" cy="493.49" r="2.97"/><circle cx="1028.3" cy="668.22" r="2.97"/><circle cx="1031.02" cy="639.1" r="2.97"/><circle cx="1033.75" cy="674.05" r="2.97"/><circle cx="1036.47" cy="621.63" r="2.97"/><circle cx="1039.19" cy="592.5" r="2.97"/><circle cx="1041.92" cy="563.38" r="2.97"/><circle cx="1044.64" cy="551.73" r="2.97"/><circle cx="1047.36" cy="621.63" r="2.97"/><circle cx="1050.09" cy="569.21" r="2.97"/><circle cx="1052.81" cy="551.73" r="2.97"/><circle cx="1055.53" cy="487.66" r="2.97"/><circle cx="1063.71" cy="487.66" r="2.97"/><circle cx="1080.05" cy="505.14" r="2.97"/><circle cx="1085.49" cy="476.01" r="2.97"/><circle cx="1088.22" cy="516.79" r="2.97"/><path d="M289.23,175.3a1.54,1.54,0,0,0-.69-1.17,2.69,2.69,0,0,0-1.55-.41,3.07,3.07,0,0,0-1.15.2,1.83,1.83,0,0,0-.75.57,1.37,1.37,0,0,0-.27.83,1.19,1.19,0,0,0,.18.66,1.54,1.54,0,0,0,.48.47,3,3,0,0,0,.65.31c.23.09.45.15.66.21l1,.27a8.22,8.22,0,0,1,1.07.34,4.47,4.47,0,0,1,1,.57,2.68,2.68,0,0,1,.76.88,2.59,2.59,0,0,1,.29,1.25,2.87,2.87,0,0,1-.48,1.64,3.17,3.17,0,0,1-1.36,1.12,5.09,5.09,0,0,1-2.17.41,5.18,5.18,0,0,1-2.1-.38,3.2,3.2,0,0,1-1.39-1.1,3.13,3.13,0,0,1-.56-1.69h1.64a1.66,1.66,0,0,0,.38,1,2,2,0,0,0,.87.57,3.27,3.27,0,0,0,1.15.19,3.17,3.17,0,0,0,1.23-.22,2,2,0,0,0,.86-.61,1.42,1.42,0,0,0,.31-.92,1.17,1.17,0,0,0-.27-.79,2.2,2.2,0,0,0-.74-.51,7.43,7.43,0,0,0-1-.35l-1.28-.35a5,5,0,0,1-2.06-1,2.35,2.35,0,0,1-.76-1.82,2.68,2.68,0,0,1,.51-1.63,3.34,3.34,0,0,1,1.38-1.09,4.65,4.65,0,0,1,1.95-.38,4.57,4.57,0,0,1,1.94.38,3.29,3.29,0,0,1,1.33,1.06,2.69,2.69,0,0,1,.51,1.55Z"/><path d="M292.78,186.32V175.16h1.54v1.31h.13a7,7,0,0,1,.4-.58,2.28,2.28,0,0,1,.72-.59,2.62,2.62,0,0,1,1.21-.25,3.18,3.18,0,0,1,1.76.5,3.36,3.36,0,0,1,1.21,1.43,6,6,0,0,1,0,4.51,3.43,3.43,0,0,1-1.2,1.44,3.07,3.07,0,0,1-1.75.5,2.69,2.69,0,0,1-1.21-.24,2.31,2.31,0,0,1-.73-.59,4.94,4.94,0,0,1-.41-.59h-.09v4.31Zm1.55-7.1a4.07,4.07,0,0,0,.25,1.5,2.2,2.2,0,0,0,.71,1,1.81,1.81,0,0,0,1.16.37,1.85,1.85,0,0,0,1.18-.38,2.29,2.29,0,0,0,.72-1,4,4,0,0,0,.25-1.46,4.12,4.12,0,0,0-.24-1.45,2.28,2.28,0,0,0-.72-1,1.93,1.93,0,0,0-1.19-.36,1.84,1.84,0,0,0-1.16.35,2.07,2.07,0,0,0-.72,1A4.14,4.14,0,0,0,294.33,179.22Z"/><path d="M305.46,183.44a3.87,3.87,0,0,1-2.06-.52,3.34,3.34,0,0,1-1.33-1.45,4.76,4.76,0,0,1-.47-2.2,4.84,4.84,0,0,1,.47-2.2,3.52,3.52,0,0,1,3.28-2,4,4,0,0,1,1.33.23,3.25,3.25,0,0,1,1.16.71,3.51,3.51,0,0,1,.81,1.26,5.27,5.27,0,0,1,.29,1.88v.56h-6.45v-1.18h4.91a2.33,2.33,0,0,0-.26-1.11,1.86,1.86,0,0,0-.71-.76,2,2,0,0,0-1.07-.28,2.12,2.12,0,0,0-1.16.32,2.22,2.22,0,0,0-.76.85,2.42,2.42,0,0,0-.27,1.13v.92a3.1,3.1,0,0,0,.29,1.39,1.93,1.93,0,0,0,.81.86,2.36,2.36,0,0,0,1.21.3,2.39,2.39,0,0,0,.82-.13,1.73,1.73,0,0,0,.64-.38,1.85,1.85,0,0,0,.41-.64l1.49.27a2.67,2.67,0,0,1-.64,1.15,3.19,3.19,0,0,1-1.16.77A4.33,4.33,0,0,1,305.46,183.44Z"/><path d="M314.11,186.49a4.78,4.78,0,0,1-1.66-.26,3.16,3.16,0,0,1-1.14-.67,2.78,2.78,0,0,1-.65-.91l1.35-.56a3.78,3.78,0,0,0,.39.49,1.88,1.88,0,0,0,.65.45,2.75,2.75,0,0,0,1.07.18,2.44,2.44,0,0,0,1.49-.43,1.62,1.62,0,0,0,.58-1.39V181.8h-.1a3.29,3.29,0,0,1-.41.57,2.12,2.12,0,0,1-.73.55,2.64,2.64,0,0,1-1.21.23,3.36,3.36,0,0,1-1.73-.45,3.1,3.1,0,0,1-1.21-1.34,4.74,4.74,0,0,1-.45-2.17,5.14,5.14,0,0,1,.44-2.22,3.33,3.33,0,0,1,1.21-1.42,3.19,3.19,0,0,1,1.75-.5,2.64,2.64,0,0,1,1.22.25,2.33,2.33,0,0,1,.73.59,5.16,5.16,0,0,1,.4.58h.12v-1.31h1.55v8.29a2.83,2.83,0,0,1-.49,1.72,2.87,2.87,0,0,1-1.31,1A5.18,5.18,0,0,1,314.11,186.49Zm0-4.65a2,2,0,0,0,1.16-.32,2,2,0,0,0,.71-.92,3.67,3.67,0,0,0,.25-1.44,4,4,0,0,0-.24-1.44,2.11,2.11,0,0,0-.72-1,1.84,1.84,0,0,0-1.16-.35,1.93,1.93,0,0,0-1.19.36,2.23,2.23,0,0,0-.71,1,3.92,3.92,0,0,0-.24,1.4,3.73,3.73,0,0,0,.24,1.4,1.93,1.93,0,0,0,1.9,1.28Z"/><path d="M321.47,178.46v4.81h-1.58v-8.11h1.52v1.32h.09a2.41,2.41,0,0,1,.88-1,2.75,2.75,0,0,1,1.52-.39,2.94,2.94,0,0,1,1.45.35,2.31,2.31,0,0,1,1,1,3.67,3.67,0,0,1,.34,1.68v5.16h-1.58v-5a1.93,1.93,0,0,0-.46-1.38,1.62,1.62,0,0,0-1.26-.5,2,2,0,0,0-1,.24,1.78,1.78,0,0,0-.67.69A2.39,2.39,0,0,0,321.47,178.46Z"/><path d="M329.57,173.91a1,1,0,0,1-.7-.28.87.87,0,0,1-.29-.66.85.85,0,0,1,.29-.67,1,1,0,0,1,.7-.28,1,1,0,0,1,.71.28.88.88,0,0,1,.29.67.91.91,0,0,1-.29.66A1,1,0,0,1,329.57,173.91Zm-.79,9.36v-8.11h1.58v8.11Z"/><path d="M332.48,183.27v-8.11H334v1.32h.1a2.07,2.07,0,0,1,.83-1,2.46,2.46,0,0,1,1.38-.38,2.37,2.37,0,0,1,1.36.38,2.32,2.32,0,0,1,.82,1h.08a2.39,2.39,0,0,1,.93-1,2.8,2.8,0,0,1,1.51-.39,2.45,2.45,0,0,1,1.8.69,2.82,2.82,0,0,1,.7,2.09v5.44h-1.58V178a1.44,1.44,0,0,0-.45-1.19,1.6,1.6,0,0,0-1.07-.37,1.53,1.53,0,0,0-1.2.47,1.75,1.75,0,0,0-.43,1.21v5.17h-1.57v-5.39a1.43,1.43,0,0,0-.41-1.06,1.62,1.62,0,0,0-1.9-.17,1.81,1.81,0,0,0-.61.65,2,2,0,0,0-.23,1v5Z"/><path d="M349.13,183.44a3.93,3.93,0,0,1-2.07-.52,3.4,3.4,0,0,1-1.33-1.45,4.89,4.89,0,0,1-.47-2.2,5,5,0,0,1,.47-2.2,3.52,3.52,0,0,1,3.28-2,4.06,4.06,0,0,1,1.34.23,3.21,3.21,0,0,1,1.15.71,3.51,3.51,0,0,1,.81,1.26,5.26,5.26,0,0,1,.3,1.88v.56h-6.45v-1.18h4.9a2.33,2.33,0,0,0-.25-1.11,1.88,1.88,0,0,0-.72-.76,2,2,0,0,0-1.06-.28,2.08,2.08,0,0,0-1.16.32,2.25,2.25,0,0,0-.77.85,2.54,2.54,0,0,0-.26,1.13v.92a3,3,0,0,0,.29,1.39,2,2,0,0,0,.8.86,2.61,2.61,0,0,0,2,.17,1.65,1.65,0,0,0,.64-.38A1.72,1.72,0,0,0,351,181l1.5.27a2.78,2.78,0,0,1-.64,1.15,3.27,3.27,0,0,1-1.16.77A4.36,4.36,0,0,1,349.13,183.44Z"/><path d="M356,178.46v4.81h-1.58v-8.11h1.51v1.32h.1a2.34,2.34,0,0,1,.88-1,2.75,2.75,0,0,1,1.52-.39,2.94,2.94,0,0,1,1.45.35,2.31,2.31,0,0,1,1,1,3.67,3.67,0,0,1,.34,1.68v5.16h-1.58v-5a1.93,1.93,0,0,0-.46-1.38,1.63,1.63,0,0,0-1.26-.5,2,2,0,0,0-1,.24,1.78,1.78,0,0,0-.67.69A2.39,2.39,0,0,0,356,178.46Z"/><path d="M367,175.16v1.27h-4.43v-1.27Zm-3.24-1.95h1.58v7.68a1.37,1.37,0,0,0,.14.69.69.69,0,0,0,.35.31,1.28,1.28,0,0,0,.48.09,1.72,1.72,0,0,0,.34,0l.22,0,.28,1.3a2.47,2.47,0,0,1-.39.11,2.8,2.8,0,0,1-.63.06,2.84,2.84,0,0,1-1.17-.22,2,2,0,0,1-1.2-1.94Z"/><path d="M372.12,183.44a3.81,3.81,0,0,1-2-.52,3.49,3.49,0,0,1-1.32-1.47,4.92,4.92,0,0,1-.47-2.2,5,5,0,0,1,.47-2.21,3.41,3.41,0,0,1,1.32-1.46,4,4,0,0,1,4,0,3.53,3.53,0,0,1,1.32,1.46,5,5,0,0,1,.47,2.21,4.92,4.92,0,0,1-.47,2.2,3.63,3.63,0,0,1-1.32,1.47A3.84,3.84,0,0,1,372.12,183.44Zm0-1.33a1.88,1.88,0,0,0,1.22-.39,2.32,2.32,0,0,0,.73-1,4.56,4.56,0,0,0,0-2.86,2.29,2.29,0,0,0-.73-1,1.88,1.88,0,0,0-1.22-.4,1.94,1.94,0,0,0-1.24.4,2.35,2.35,0,0,0-.72,1,4.38,4.38,0,0,0,0,2.86,2.38,2.38,0,0,0,.72,1A1.94,1.94,0,0,0,372.13,182.11Z"/><path d="M283.2,201.88v-8.12h1.53v1.29h.09a1.92,1.92,0,0,1,.78-1,2.19,2.19,0,0,1,1.28-.38h.35l.32,0v1.52l-.34-.07a3.91,3.91,0,0,0-.49,0,2,2,0,0,0-1,.24,1.73,1.73,0,0,0-.69.65,1.75,1.75,0,0,0-.26.94v5Z"/><path d="M289.72,192.51a1,1,0,0,1-.71-.28.91.91,0,0,1-.29-.66.9.9,0,0,1,.29-.67,1,1,0,0,1,.71-.28,1,1,0,0,1,.7.28.87.87,0,0,1,.3.67.88.88,0,0,1-.3.66A1,1,0,0,1,289.72,192.51Zm-.8,9.37v-8.12h1.58v8.12Z"/><path d="M298.71,195.74l-1.43.25a1.8,1.8,0,0,0-.29-.52,1.46,1.46,0,0,0-.52-.41,2,2,0,0,0-.82-.15,2.07,2.07,0,0,0-1.12.29.9.9,0,0,0-.45.77.83.83,0,0,0,.31.66,2.41,2.41,0,0,0,1,.4l1.29.3a3.48,3.48,0,0,1,1.67.8,1.91,1.91,0,0,1,.55,1.4,2.13,2.13,0,0,1-.42,1.3,2.81,2.81,0,0,1-1.17.89,4.45,4.45,0,0,1-1.73.32,4,4,0,0,1-2.23-.58,2.47,2.47,0,0,1-1.05-1.67l1.52-.23a1.44,1.44,0,0,0,.59.9,2,2,0,0,0,1.16.31,2.09,2.09,0,0,0,1.24-.33.94.94,0,0,0,.46-.79A.81.81,0,0,0,297,199a1.82,1.82,0,0,0-.86-.4l-1.38-.3a3.24,3.24,0,0,1-1.67-.82,2,2,0,0,1-.55-1.43,2,2,0,0,1,.41-1.26A2.53,2.53,0,0,1,294,194a3.94,3.94,0,0,1,1.62-.31,3.35,3.35,0,0,1,2.07.57A2.7,2.7,0,0,1,298.71,195.74Z"/><path d="M304,202a3.71,3.71,0,0,1-2-.54,3.47,3.47,0,0,1-1.3-1.48,5,5,0,0,1-.45-2.17,4.89,4.89,0,0,1,.46-2.18,3.56,3.56,0,0,1,1.31-1.48,3.64,3.64,0,0,1,2-.54,3.92,3.92,0,0,1,1.65.34,3.06,3.06,0,0,1,1.17,1,2.79,2.79,0,0,1,.53,1.43h-1.53a1.87,1.87,0,0,0-.58-1A1.71,1.71,0,0,0,304,195a2,2,0,0,0-1.16.35,2.3,2.3,0,0,0-.76,1,3.7,3.7,0,0,0-.28,1.51,4,4,0,0,0,.27,1.53,2.28,2.28,0,0,0,.76,1,2.15,2.15,0,0,0,2,.19,1.59,1.59,0,0,0,.61-.48,1.87,1.87,0,0,0,.36-.75h1.53a2.86,2.86,0,0,1-.51,1.4,2.94,2.94,0,0,1-1.14,1A3.85,3.85,0,0,1,304,202Z"/><path d="M311.41,202.06a3.29,3.29,0,0,1-1.39-.29,2.33,2.33,0,0,1-1-.84,2.43,2.43,0,0,1-.36-1.35,2.25,2.25,0,0,1,.26-1.13,2,2,0,0,1,.72-.7,3.86,3.86,0,0,1,1-.39,8.62,8.62,0,0,1,1.13-.2L313,197a1.68,1.68,0,0,0,.66-.19.45.45,0,0,0,.2-.41v0a1.44,1.44,0,0,0-.39-1.08,1.59,1.59,0,0,0-1.15-.38,1.89,1.89,0,0,0-1.89,1.13l-1.48-.34a2.77,2.77,0,0,1,.77-1.19,3.07,3.07,0,0,1,1.18-.67,4.61,4.61,0,0,1,1.4-.21,4.8,4.8,0,0,1,1,.12,3,3,0,0,1,1,.41,2.33,2.33,0,0,1,.78.86,2.92,2.92,0,0,1,.31,1.45v5.39h-1.55v-1.11h-.06a2.19,2.19,0,0,1-.46.6,2.36,2.36,0,0,1-.79.49A3,3,0,0,1,311.41,202.06Zm.34-1.27a2.33,2.33,0,0,0,1.13-.26,1.81,1.81,0,0,0,1-1.58v-1a.84.84,0,0,1-.33.16,3.61,3.61,0,0,1-.54.12l-.6.09-.49.07a3.68,3.68,0,0,0-.84.19,1.42,1.42,0,0,0-.6.39,1.15,1.15,0,0,0,.21,1.57A1.9,1.9,0,0,0,311.75,200.79Z"/><path d="M319.1,191.05v10.83h-1.58V191.05Z"/><path d="M324.26,202a3.09,3.09,0,0,1-1.75-.5,3.43,3.43,0,0,1-1.2-1.44,6,6,0,0,1,0-4.51,3.43,3.43,0,0,1,1.21-1.43,3.19,3.19,0,0,1,1.75-.5,2.64,2.64,0,0,1,1.22.25,2.28,2.28,0,0,1,.72.59,7,7,0,0,1,.4.58h.09v-4h1.58v10.83h-1.54v-1.27h-.13a4,4,0,0,1-.41.59,2.31,2.31,0,0,1-.73.59A2.63,2.63,0,0,1,324.26,202Zm.35-1.34a1.81,1.81,0,0,0,1.16-.37,2.29,2.29,0,0,0,.72-1,4.29,4.29,0,0,0,.24-1.5,4.14,4.14,0,0,0-.24-1.48,2.11,2.11,0,0,0-.72-1,1.84,1.84,0,0,0-1.16-.35,1.93,1.93,0,0,0-1.19.36,2.34,2.34,0,0,0-.71,1,4.12,4.12,0,0,0-.24,1.45,4.18,4.18,0,0,0,.24,1.46,2.29,2.29,0,0,0,.72,1A1.85,1.85,0,0,0,324.61,200.69Z"/><path d="M332.9,202.06a3.34,3.34,0,0,1-1.4-.29,2.36,2.36,0,0,1-1-.84,2.43,2.43,0,0,1-.36-1.35,2.15,2.15,0,0,1,.26-1.13,2,2,0,0,1,.71-.7,3.93,3.93,0,0,1,1-.39,8.34,8.34,0,0,1,1.13-.2l1.18-.14a1.68,1.68,0,0,0,.66-.19.44.44,0,0,0,.21-.41v0a1.44,1.44,0,0,0-.39-1.08,1.6,1.6,0,0,0-1.16-.38,2,2,0,0,0-1.25.35,1.88,1.88,0,0,0-.63.78l-1.49-.34a2.88,2.88,0,0,1,.78-1.19,3.11,3.11,0,0,1,1.17-.67,4.65,4.65,0,0,1,1.4-.21,4.89,4.89,0,0,1,1,.12,3,3,0,0,1,1,.41,2.35,2.35,0,0,1,.79.86,3,3,0,0,1,.3,1.45v5.39h-1.54v-1.11h-.06a2.67,2.67,0,0,1-.46.6,2.47,2.47,0,0,1-.79.49A3.07,3.07,0,0,1,332.9,202.06Zm.34-1.27a2.29,2.29,0,0,0,1.12-.26,1.82,1.82,0,0,0,.72-.68,1.78,1.78,0,0,0,.24-.9v-1a.72.72,0,0,1-.32.16,3.49,3.49,0,0,1-.55.12l-.6.09-.48.07a3.45,3.45,0,0,0-.84.19,1.42,1.42,0,0,0-.6.39,1.12,1.12,0,0,0,.21,1.57A1.88,1.88,0,0,0,333.24,200.79Z"/><path d="M339,201.88v-8.12h1.51v1.32h.1a2.12,2.12,0,0,1,.83-1.05,2.5,2.5,0,0,1,1.38-.38,2.4,2.4,0,0,1,1.37.38,2.23,2.23,0,0,1,.81,1.05h.09a2.31,2.31,0,0,1,.92-1,2.85,2.85,0,0,1,1.51-.39,2.44,2.44,0,0,1,1.81.7,2.78,2.78,0,0,1,.7,2.08v5.45h-1.58v-5.3a1.44,1.44,0,0,0-.45-1.19,1.62,1.62,0,0,0-1.07-.37,1.5,1.5,0,0,0-1.2.47,1.72,1.72,0,0,0-.43,1.21v5.18h-1.57v-5.4a1.4,1.4,0,0,0-.42-1.06,1.45,1.45,0,0,0-1.07-.4,1.62,1.62,0,0,0-.83.23,1.79,1.79,0,0,0-.6.65,1.93,1.93,0,0,0-.23,1v5Z"/><path d="M355.65,202a3.87,3.87,0,0,1-2.06-.52,3.34,3.34,0,0,1-1.33-1.45,4.76,4.76,0,0,1-.47-2.2,4.84,4.84,0,0,1,.47-2.2,3.49,3.49,0,0,1,1.31-1.48,3.57,3.57,0,0,1,2-.54,4,4,0,0,1,1.33.23,3.25,3.25,0,0,1,1.16.71,3.51,3.51,0,0,1,.81,1.26,5.5,5.5,0,0,1,.29,1.88v.56h-6.45v-1.18h4.91a2.33,2.33,0,0,0-.26-1.11,1.92,1.92,0,0,0-.71-.76,2,2,0,0,0-1.07-.28,2.12,2.12,0,0,0-1.16.32,2.22,2.22,0,0,0-.76.85,2.42,2.42,0,0,0-.27,1.13v.92a3.1,3.1,0,0,0,.29,1.39,2,2,0,0,0,.81.87,2.46,2.46,0,0,0,1.21.29,2.66,2.66,0,0,0,.82-.12,1.9,1.9,0,0,0,.64-.39,1.85,1.85,0,0,0,.41-.64l1.49.27a2.67,2.67,0,0,1-.64,1.15,3.06,3.06,0,0,1-1.16.77A4.33,4.33,0,0,1,355.65,202Z"/><path d="M362.47,197.06v4.82h-1.58v-8.12h1.52v1.32h.1a2.4,2.4,0,0,1,.88-1,2.71,2.71,0,0,1,1.51-.39,3,3,0,0,1,1.46.35,2.36,2.36,0,0,1,1,1,3.81,3.81,0,0,1,.34,1.68v5.17h-1.58v-5a2,2,0,0,0-.46-1.38,1.65,1.65,0,0,0-1.26-.5,2,2,0,0,0-1,.24,1.71,1.71,0,0,0-.67.69A2.39,2.39,0,0,0,362.47,197.06Z"/><path d="M373.57,193.76V195h-4.43v-1.27Zm-3.24-1.95h1.58v7.68a1.38,1.38,0,0,0,.13.69.64.64,0,0,0,.36.31,1.28,1.28,0,0,0,.48.09,1.61,1.61,0,0,0,.33,0l.22,0,.29,1.3a2.47,2.47,0,0,1-.39.11,3.26,3.26,0,0,1-1.8-.16,2,2,0,0,1-.87-.72,2.11,2.11,0,0,1-.33-1.22Z"/><path d="M376.11,192.51a1,1,0,0,1-.7-.28.88.88,0,0,1-.3-.66.87.87,0,0,1,.3-.67,1,1,0,0,1,.7-.28,1,1,0,0,1,.71.28.9.9,0,0,1,.29.67.91.91,0,0,1-.29.66A1,1,0,0,1,376.11,192.51Zm-.8,9.37v-8.12h1.58v8.12Z"/><path d="M948.61,183.27h-1.74l3.9-10.82h1.88l3.9,10.82h-1.74l-3.06-8.85h-.08Zm.29-4.23h5.62v1.37H948.9Z"/><path d="M961.27,183.44a3.73,3.73,0,0,1-2-.54,3.6,3.6,0,0,1-1.3-1.48,5,5,0,0,1-.45-2.17,4.89,4.89,0,0,1,.46-2.18,3.56,3.56,0,0,1,1.31-1.48,3.65,3.65,0,0,1,2-.54,4,4,0,0,1,1.65.34,3.06,3.06,0,0,1,1.17,1,3,3,0,0,1,.53,1.43h-1.54a1.87,1.87,0,0,0-.58-1,1.7,1.7,0,0,0-1.21-.42,2,2,0,0,0-1.15.35,2.24,2.24,0,0,0-.77,1,3.87,3.87,0,0,0-.28,1.51,4,4,0,0,0,.27,1.53,2.3,2.3,0,0,0,.77,1,2,2,0,0,0,1.16.35,2,2,0,0,0,.82-.16,2,2,0,0,0,.62-.48,2,2,0,0,0,.35-.75h1.54a3,3,0,0,1-.52,1.4,2.85,2.85,0,0,1-1.14,1A3.71,3.71,0,0,1,961.27,183.44Z"/><path d="M969.72,183.44a3.67,3.67,0,0,1-2-.54,3.55,3.55,0,0,1-1.31-1.48,5,5,0,0,1-.45-2.17,4.89,4.89,0,0,1,.46-2.18,3.56,3.56,0,0,1,1.31-1.48,3.65,3.65,0,0,1,2-.54,3.91,3.91,0,0,1,1.64.34,2.94,2.94,0,0,1,1.71,2.39h-1.54a1.87,1.87,0,0,0-.58-1,1.7,1.7,0,0,0-1.21-.42,2,2,0,0,0-1.15.35,2.24,2.24,0,0,0-.77,1,3.87,3.87,0,0,0-.28,1.51,4,4,0,0,0,.27,1.53,2.3,2.3,0,0,0,.77,1,2,2,0,0,0,1.16.35,2,2,0,0,0,.82-.16,2,2,0,0,0,.62-.48,2,2,0,0,0,.35-.75h1.54a3,3,0,0,1-.52,1.4,2.85,2.85,0,0,1-1.14,1A3.71,3.71,0,0,1,969.72,183.44Z"/><path d="M978.25,183.44a3.87,3.87,0,0,1-2.06-.52,3.42,3.42,0,0,1-1.34-1.45,4.89,4.89,0,0,1-.46-2.2,5,5,0,0,1,.46-2.2,3.52,3.52,0,0,1,3.29-2,4,4,0,0,1,1.33.23,3.25,3.25,0,0,1,1.16.71,3.51,3.51,0,0,1,.81,1.26,5.5,5.5,0,0,1,.29,1.88v.56h-6.45v-1.18h4.9a2.33,2.33,0,0,0-.25-1.11,1.93,1.93,0,0,0-.71-.76,2,2,0,0,0-1.07-.28,2.12,2.12,0,0,0-1.16.32,2.22,2.22,0,0,0-.76.85,2.42,2.42,0,0,0-.27,1.13v.92a3.1,3.1,0,0,0,.29,1.39,1.93,1.93,0,0,0,.81.86,2.34,2.34,0,0,0,1.21.3,2.3,2.3,0,0,0,.81-.13,1.65,1.65,0,0,0,.64-.38,1.87,1.87,0,0,0,.42-.64l1.49.27a2.67,2.67,0,0,1-.64,1.15,3.19,3.19,0,0,1-1.16.77A4.33,4.33,0,0,1,978.25,183.44Z"/><path d="M985.07,178.46v4.81h-1.58v-8.11H985v1.32h.1a2.34,2.34,0,0,1,.88-1,2.71,2.71,0,0,1,1.51-.39,3,3,0,0,1,1.46.35,2.34,2.34,0,0,1,1,1,3.67,3.67,0,0,1,.35,1.68v5.16h-1.58v-5a2,2,0,0,0-.46-1.38,1.66,1.66,0,0,0-1.27-.5,1.94,1.94,0,0,0-1,.24,1.71,1.71,0,0,0-.67.69A2.28,2.28,0,0,0,985.07,178.46Z"/><path d="M998.46,177.14l-1.43.25a1.76,1.76,0,0,0-.28-.52,1.44,1.44,0,0,0-.52-.41,2.31,2.31,0,0,0-1.94.14.9.9,0,0,0-.45.77.83.83,0,0,0,.3.66,2.41,2.41,0,0,0,1,.4l1.29.3a3.43,3.43,0,0,1,1.67.8,1.87,1.87,0,0,1,.55,1.4,2.15,2.15,0,0,1-.42,1.3,2.81,2.81,0,0,1-1.17.89,4.41,4.41,0,0,1-1.73.32,3.93,3.93,0,0,1-2.22-.58,2.45,2.45,0,0,1-1.06-1.67l1.53-.23a1.43,1.43,0,0,0,.58.9,2.06,2.06,0,0,0,1.16.31,2.09,2.09,0,0,0,1.24-.33,1,1,0,0,0,.47-.79.81.81,0,0,0-.28-.64,1.86,1.86,0,0,0-.87-.4l-1.37-.3a3.23,3.23,0,0,1-1.68-.82,2,2,0,0,1-.54-1.43,2,2,0,0,1,.4-1.26,2.65,2.65,0,0,1,1.11-.84,3.94,3.94,0,0,1,1.62-.31,3.35,3.35,0,0,1,2.07.57A2.65,2.65,0,0,1,998.46,177.14Z"/><path d="M1001.15,173.91a1,1,0,0,1-.7-.28.88.88,0,0,1-.3-.66.86.86,0,0,1,.3-.67,1,1,0,0,1,.7-.28,1,1,0,0,1,.71.28.88.88,0,0,1,.29.67.91.91,0,0,1-.29.66A1,1,0,0,1,1001.15,173.91Zm-.8,9.36v-8.11h1.58v8.11Z"/><path d="M1007.48,183.44a3.78,3.78,0,0,1-2-.52,3.58,3.58,0,0,1-1.33-1.47,4.92,4.92,0,0,1-.47-2.2,5,5,0,0,1,.47-2.21,3.49,3.49,0,0,1,1.33-1.46,4,4,0,0,1,4,0,3.41,3.41,0,0,1,1.32,1.46,5,5,0,0,1,.47,2.21,4.92,4.92,0,0,1-.47,2.2,3.49,3.49,0,0,1-1.32,1.47A3.81,3.81,0,0,1,1007.48,183.44Zm0-1.33a1.91,1.91,0,0,0,1.23-.39,2.38,2.38,0,0,0,.72-1,4.56,4.56,0,0,0,0-2.86,2.35,2.35,0,0,0-.72-1,1.91,1.91,0,0,0-1.23-.4,1.93,1.93,0,0,0-1.23.4,2.29,2.29,0,0,0-.73,1,4.56,4.56,0,0,0,0,2.86,2.32,2.32,0,0,0,.73,1A1.93,1.93,0,0,0,1007.48,182.11Z"/><path d="M1014.6,178.46v4.81H1013v-8.11h1.52v1.32h.1a2.28,2.28,0,0,1,.88-1,2.71,2.71,0,0,1,1.51-.39,2.94,2.94,0,0,1,1.45.35,2.31,2.31,0,0,1,1,1,3.67,3.67,0,0,1,.34,1.68v5.16h-1.57v-5a1.94,1.94,0,0,0-.47-1.38,1.62,1.62,0,0,0-1.26-.5,1.94,1.94,0,0,0-1,.24,1.65,1.65,0,0,0-.67.69A2.28,2.28,0,0,0,1014.6,178.46Z"/><path d="M1025.41,183.44a3.93,3.93,0,0,1-2.07-.52,3.4,3.4,0,0,1-1.33-1.45,4.89,4.89,0,0,1-.47-2.2,5,5,0,0,1,.47-2.2,3.52,3.52,0,0,1,3.29-2,4,4,0,0,1,1.33.23,3.21,3.21,0,0,1,1.15.71,3.26,3.26,0,0,1,.81,1.26,5.26,5.26,0,0,1,.3,1.88v.56h-6.45v-1.18h4.9a2.33,2.33,0,0,0-.25-1.11,1.93,1.93,0,0,0-.71-.76,2,2,0,0,0-1.07-.28,2.1,2.1,0,0,0-1.16.32,2.14,2.14,0,0,0-.76.85,2.42,2.42,0,0,0-.27,1.13v.92a3,3,0,0,0,.29,1.39,2,2,0,0,0,.8.86,2.61,2.61,0,0,0,2,.17,1.65,1.65,0,0,0,.64-.38,1.72,1.72,0,0,0,.41-.64l1.5.27a2.78,2.78,0,0,1-.64,1.15,3.27,3.27,0,0,1-1.16.77A4.33,4.33,0,0,1,1025.41,183.44Z"/><path d="M947.56,201.88v-8.12h1.53v1.29h.09a1.92,1.92,0,0,1,.78-1,2.19,2.19,0,0,1,1.28-.38h.35l.32,0v1.52l-.34-.07a3.91,3.91,0,0,0-.49,0,2,2,0,0,0-1,.24,1.73,1.73,0,0,0-.69.65,1.75,1.75,0,0,0-.26.94v5Z"/><path d="M954.08,192.51a1,1,0,0,1-.71-.28.91.91,0,0,1-.29-.66.9.9,0,0,1,.29-.67,1,1,0,0,1,1.42,0,.9.9,0,0,1,.29.67.91.91,0,0,1-.29.66A1,1,0,0,1,954.08,192.51Zm-.8,9.37v-8.12h1.58v8.12Z"/><path d="M963.07,195.74l-1.43.25a1.8,1.8,0,0,0-.29-.52,1.46,1.46,0,0,0-.52-.41,2,2,0,0,0-.82-.15,2.07,2.07,0,0,0-1.12.29.9.9,0,0,0-.45.77.83.83,0,0,0,.31.66,2.41,2.41,0,0,0,1,.4l1.29.3a3.48,3.48,0,0,1,1.67.8,1.91,1.91,0,0,1,.55,1.4,2.13,2.13,0,0,1-.42,1.3,2.81,2.81,0,0,1-1.17.89,4.45,4.45,0,0,1-1.73.32,4,4,0,0,1-2.23-.58,2.47,2.47,0,0,1-1-1.67l1.52-.23a1.44,1.44,0,0,0,.59.9,2,2,0,0,0,1.16.31,2.09,2.09,0,0,0,1.24-.33.94.94,0,0,0,.46-.79.81.81,0,0,0-.28-.64,1.82,1.82,0,0,0-.86-.4l-1.38-.3a3.24,3.24,0,0,1-1.67-.82,2,2,0,0,1-.55-1.43,2,2,0,0,1,.41-1.26,2.53,2.53,0,0,1,1.11-.84,3.94,3.94,0,0,1,1.62-.31,3.35,3.35,0,0,1,2.07.57A2.7,2.7,0,0,1,963.07,195.74Z"/><path d="M968.38,202a3.71,3.71,0,0,1-2-.54,3.47,3.47,0,0,1-1.3-1.48,5,5,0,0,1-.45-2.17,4.89,4.89,0,0,1,.46-2.18,3.56,3.56,0,0,1,1.31-1.48,3.62,3.62,0,0,1,2-.54A3.92,3.92,0,0,1,970,194a3.06,3.06,0,0,1,1.17,1,2.79,2.79,0,0,1,.53,1.43h-1.53a1.87,1.87,0,0,0-.58-1,1.71,1.71,0,0,0-1.21-.42,1.94,1.94,0,0,0-1.15.35,2.24,2.24,0,0,0-.77,1,3.7,3.7,0,0,0-.28,1.51,4,4,0,0,0,.27,1.53,2.36,2.36,0,0,0,.76,1,2.15,2.15,0,0,0,2,.19,1.59,1.59,0,0,0,.61-.48,1.87,1.87,0,0,0,.36-.75h1.53a2.86,2.86,0,0,1-.51,1.4,3,3,0,0,1-1.14,1A3.85,3.85,0,0,1,968.38,202Z"/><path d="M975.77,202.06a3.29,3.29,0,0,1-1.39-.29,2.33,2.33,0,0,1-1-.84,2.43,2.43,0,0,1-.36-1.35,2.25,2.25,0,0,1,.26-1.13,2,2,0,0,1,.72-.7,3.86,3.86,0,0,1,1-.39,8.62,8.62,0,0,1,1.13-.2l1.19-.14a1.68,1.68,0,0,0,.66-.19.45.45,0,0,0,.2-.41v0a1.44,1.44,0,0,0-.39-1.08,1.59,1.59,0,0,0-1.15-.38,1.89,1.89,0,0,0-1.89,1.13l-1.48-.34a2.77,2.77,0,0,1,.77-1.19,3.07,3.07,0,0,1,1.18-.67,4.61,4.61,0,0,1,1.4-.21,4.8,4.8,0,0,1,1,.12,3,3,0,0,1,1,.41,2.33,2.33,0,0,1,.78.86,3,3,0,0,1,.31,1.45v5.39h-1.55v-1.11h-.06a2.41,2.41,0,0,1-.46.6,2.36,2.36,0,0,1-.79.49A3,3,0,0,1,975.77,202.06Zm.35-1.27a2.32,2.32,0,0,0,1.12-.26,1.79,1.79,0,0,0,.71-.68,1.7,1.7,0,0,0,.25-.9v-1a.84.84,0,0,1-.33.16,3.61,3.61,0,0,1-.54.12l-.6.09-.49.07a3.48,3.48,0,0,0-.83.19,1.4,1.4,0,0,0-.61.39,1.15,1.15,0,0,0,.21,1.57A1.91,1.91,0,0,0,976.12,200.79Z"/><path d="M983.46,191.05v10.83h-1.58V191.05Z"/><path d="M988.62,202a3.09,3.09,0,0,1-1.75-.5,3.43,3.43,0,0,1-1.2-1.44,6,6,0,0,1,0-4.51,3.43,3.43,0,0,1,1.21-1.43,3.19,3.19,0,0,1,1.75-.5,2.64,2.64,0,0,1,1.22.25,2.28,2.28,0,0,1,.72.59,7,7,0,0,1,.4.58h.09v-4h1.58v10.83H991.1v-1.27H991a4,4,0,0,1-.41.59,2.31,2.31,0,0,1-.73.59A2.63,2.63,0,0,1,988.62,202Zm.35-1.34a1.81,1.81,0,0,0,1.16-.37,2.2,2.2,0,0,0,.71-1,4.07,4.07,0,0,0,.25-1.5,4.14,4.14,0,0,0-.24-1.48,2.11,2.11,0,0,0-.72-1A1.84,1.84,0,0,0,989,195a1.93,1.93,0,0,0-1.19.36,2.34,2.34,0,0,0-.71,1,4.12,4.12,0,0,0-.24,1.45,4.18,4.18,0,0,0,.24,1.46,2.29,2.29,0,0,0,.72,1A1.85,1.85,0,0,0,989,200.69Z"/><path d="M997.26,202.06a3.34,3.34,0,0,1-1.4-.29,2.36,2.36,0,0,1-1-.84,2.43,2.43,0,0,1-.37-1.35,2.15,2.15,0,0,1,.27-1.13,2,2,0,0,1,.71-.7,3.93,3.93,0,0,1,1-.39,8.34,8.34,0,0,1,1.13-.2l1.18-.14a1.68,1.68,0,0,0,.66-.19.44.44,0,0,0,.21-.41v0a1.44,1.44,0,0,0-.39-1.08,1.6,1.6,0,0,0-1.16-.38,2,2,0,0,0-1.25.35,2,2,0,0,0-.63.78l-1.49-.34a2.88,2.88,0,0,1,.78-1.19,3.11,3.11,0,0,1,1.17-.67,4.65,4.65,0,0,1,1.4-.21,4.89,4.89,0,0,1,1,.12,3,3,0,0,1,1,.41,2.35,2.35,0,0,1,.79.86,3,3,0,0,1,.3,1.45v5.39h-1.54v-1.11h-.06a2.67,2.67,0,0,1-.46.6,2.47,2.47,0,0,1-.79.49A3.07,3.07,0,0,1,997.26,202.06Zm.34-1.27a2.29,2.29,0,0,0,1.12-.26,1.82,1.82,0,0,0,.72-.68,1.78,1.78,0,0,0,.24-.9v-1a.72.72,0,0,1-.32.16,3.49,3.49,0,0,1-.55.12l-.6.09-.48.07a3.45,3.45,0,0,0-.84.19,1.42,1.42,0,0,0-.6.39,1.12,1.12,0,0,0,.21,1.57A1.88,1.88,0,0,0,997.6,200.79Z"/><path d="M1003.37,201.88v-8.12h1.51v1.32h.1a2.12,2.12,0,0,1,.83-1.05,2.5,2.5,0,0,1,1.38-.38,2.38,2.38,0,0,1,1.37.38,2.23,2.23,0,0,1,.81,1.05h.09a2.31,2.31,0,0,1,.92-1,2.86,2.86,0,0,1,1.52-.39,2.43,2.43,0,0,1,1.8.7,2.78,2.78,0,0,1,.7,2.08v5.45h-1.58v-5.3a1.44,1.44,0,0,0-.45-1.19,1.62,1.62,0,0,0-1.07-.37,1.5,1.5,0,0,0-1.2.47,1.72,1.72,0,0,0-.43,1.21v5.18h-1.57v-5.4a1.4,1.4,0,0,0-.42-1.06,1.45,1.45,0,0,0-1.07-.4,1.62,1.62,0,0,0-.83.23,1.79,1.79,0,0,0-.6.65,1.93,1.93,0,0,0-.23,1v5Z"/><path d="M1020,202a3.87,3.87,0,0,1-2.06-.52,3.34,3.34,0,0,1-1.33-1.45,4.76,4.76,0,0,1-.47-2.2,4.84,4.84,0,0,1,.47-2.2,3.49,3.49,0,0,1,1.31-1.48,3.57,3.57,0,0,1,2-.54,4,4,0,0,1,1.33.23,3.25,3.25,0,0,1,1.16.71,3.51,3.51,0,0,1,.81,1.26,5.27,5.27,0,0,1,.29,1.88v.56H1017v-1.18H1022a2.33,2.33,0,0,0-.26-1.11,1.92,1.92,0,0,0-.71-.76,2,2,0,0,0-1.07-.28,2.12,2.12,0,0,0-1.16.32,2.22,2.22,0,0,0-.76.85,2.42,2.42,0,0,0-.27,1.13v.92a3.1,3.1,0,0,0,.29,1.39,2,2,0,0,0,.81.87,2.46,2.46,0,0,0,1.21.29,2.66,2.66,0,0,0,.82-.12,1.9,1.9,0,0,0,.64-.39,2,2,0,0,0,.41-.64l1.49.27a2.67,2.67,0,0,1-.64,1.15,3.06,3.06,0,0,1-1.16.77A4.33,4.33,0,0,1,1020,202Z"/><path d="M1026.83,197.06v4.82h-1.58v-8.12h1.52v1.32h.1a2.4,2.4,0,0,1,.88-1,2.73,2.73,0,0,1,1.51-.39,3,3,0,0,1,1.46.35,2.29,2.29,0,0,1,1,1,3.67,3.67,0,0,1,.35,1.68v5.17h-1.58v-5a2,2,0,0,0-.46-1.38,1.65,1.65,0,0,0-1.26-.5,2,2,0,0,0-1,.24,1.71,1.71,0,0,0-.67.69A2.28,2.28,0,0,0,1026.83,197.06Z"/><path d="M1037.93,193.76V195h-4.43v-1.27Zm-3.24-1.95h1.58v7.68a1.38,1.38,0,0,0,.13.69.64.64,0,0,0,.36.31,1.28,1.28,0,0,0,.48.09,1.55,1.55,0,0,0,.33,0l.22,0,.29,1.3a2.47,2.47,0,0,1-.39.11,3.26,3.26,0,0,1-1.8-.16,2,2,0,0,1-.87-.72,2.11,2.11,0,0,1-.33-1.22Z"/><path d="M1040.47,192.51a1,1,0,0,1-.7-.28.88.88,0,0,1-.3-.66.87.87,0,0,1,.3-.67,1,1,0,0,1,.7-.28,1,1,0,0,1,.71.28.9.9,0,0,1,.29.67.91.91,0,0,1-.29.66A1,1,0,0,1,1040.47,192.51Zm-.8,9.37v-8.12h1.58v8.12Z"/><circle cx="287.67" cy="833.07" r="3.45"/><path d="M300.69,838.78V827.87h3.69a4.24,4.24,0,0,1,2.1.46,3,3,0,0,1,1.21,1.24,4.12,4.12,0,0,1,0,3.5,2.91,2.91,0,0,1-1.2,1.26,4.2,4.2,0,0,1-2.09.46h-2.64v-1.17h2.6a2.89,2.89,0,0,0,1.41-.3,1.82,1.82,0,0,0,.77-.83,2.86,2.86,0,0,0,0-2.34,1.7,1.7,0,0,0-.78-.81,2.92,2.92,0,0,0-1.43-.3H302v9.74Z"/><path d="M310.22,827.87h1.57l3.71,9h.13l3.7-9h1.58v10.91h-1.23v-8.29h-.11l-3.41,8.29H315l-3.41-8.29h-.11v8.29h-1.23Z"/><path d="M327.2,827.87v10.91h-1.32v-9.53h-.07L323.15,831v-1.34l2.73-1.81Z"/><path d="M333.89,838.93a3.21,3.21,0,0,1-2.05-.66,4.09,4.09,0,0,1-1.3-1.91,10.43,10.43,0,0,1,0-6.06,4.15,4.15,0,0,1,1.3-1.92,3.5,3.5,0,0,1,4.09,0,4.07,4.07,0,0,1,1.3,1.92,10.43,10.43,0,0,1,0,6.06,4.15,4.15,0,0,1-1.29,1.91A3.25,3.25,0,0,1,333.89,838.93Zm0-1.17a2.05,2.05,0,0,0,1.85-1.16,6.65,6.65,0,0,0,.66-3.28,8.43,8.43,0,0,0-.3-2.41,3.42,3.42,0,0,0-.86-1.52,1.92,1.92,0,0,0-1.35-.52A2.05,2.05,0,0,0,332,830a6.65,6.65,0,0,0-.67,3.29,8.38,8.38,0,0,0,.3,2.41,3.38,3.38,0,0,0,.86,1.51A2,2,0,0,0,333.89,837.76Z"/><path d="M340.09,833.92v-.85l6.86-3.5v1.37l-5.26,2.53,0-.08v.21l0-.09,5.26,2.54v1.36Z"/><path d="M353,838.93a3.72,3.72,0,0,1-1.69-.38,3.15,3.15,0,0,1-1.2-1,2.74,2.74,0,0,1-.5-1.48h1.28a1.73,1.73,0,0,0,.67,1.22,2.37,2.37,0,0,0,2.63.17,2.28,2.28,0,0,0,.83-.86,2.6,2.6,0,0,0,.3-1.25,2.55,2.55,0,0,0-.31-1.28,2.35,2.35,0,0,0-.85-.89,2.58,2.58,0,0,0-1.25-.33,3.71,3.71,0,0,0-1,.15,2.71,2.71,0,0,0-.87.41l-1.24-.15.66-5.37h5.67V829h-4.56l-.38,3.22h.06a2.56,2.56,0,0,1,.84-.44,3.15,3.15,0,0,1,1.06-.18,3.34,3.34,0,0,1,1.78.48,3.3,3.3,0,0,1,1.24,1.3,3.87,3.87,0,0,1,.45,1.88,3.74,3.74,0,0,1-.47,1.87,3.44,3.44,0,0,1-1.28,1.29A3.66,3.66,0,0,1,353,838.93Z"/><path d="M362.27,838.93a3.21,3.21,0,0,1-2-.66,4.09,4.09,0,0,1-1.3-1.91,10.43,10.43,0,0,1,0-6.06,4.15,4.15,0,0,1,1.3-1.92,3.5,3.5,0,0,1,4.09,0,4.07,4.07,0,0,1,1.3,1.92,10.43,10.43,0,0,1,0,6.06,4.15,4.15,0,0,1-1.29,1.91A3.25,3.25,0,0,1,362.27,838.93Zm0-1.17a2.05,2.05,0,0,0,1.85-1.16,6.65,6.65,0,0,0,.66-3.28,8.43,8.43,0,0,0-.3-2.41,3.42,3.42,0,0,0-.86-1.52,1.92,1.92,0,0,0-1.35-.52,2.05,2.05,0,0,0-1.85,1.16,6.76,6.76,0,0,0-.67,3.29,8.38,8.38,0,0,0,.3,2.41,3.38,3.38,0,0,0,.86,1.51A2,2,0,0,0,362.27,837.76Z"/><path d="M368,841.44v-9.75H369v4.19a2.07,2.07,0,0,0,.24,1,1.74,1.74,0,0,0,.69.68,2,2,0,0,0,1,.25,2.12,2.12,0,0,0,1-.25,1.71,1.71,0,0,0,.68-.68,2,2,0,0,0,.25-1v-4.19h1.09v7.09H373v-1.06h-.06a2,2,0,0,1-.8.86,2.23,2.23,0,0,1-2.2,0,2,2,0,0,1-.8-.86H369v3.72Z"/><path d="M378.9,841.58a4,4,0,0,1-1.36-.2,3,3,0,0,1-.94-.52,3,3,0,0,1-.6-.7l.87-.61c.1.13.22.28.37.45a2.06,2.06,0,0,0,.63.44,2.47,2.47,0,0,0,1,.18,2.3,2.3,0,0,0,1.42-.41,1.52,1.52,0,0,0,.56-1.3v-1.44h-.09a5.76,5.76,0,0,1-.34.47,2.07,2.07,0,0,1-.63.51,2.41,2.41,0,0,1-1.1.22,3,3,0,0,1-1.54-.41,2.82,2.82,0,0,1-1.08-1.18,4.18,4.18,0,0,1-.39-1.88,4.47,4.47,0,0,1,.38-1.9,3,3,0,0,1,1.07-1.26,2.79,2.79,0,0,1,1.58-.45,2.31,2.31,0,0,1,1.1.23,1.92,1.92,0,0,1,.62.52c.15.19.26.35.34.47h.11v-1.12H382V839a2.46,2.46,0,0,1-.42,1.49,2.38,2.38,0,0,1-1.1.84A4.27,4.27,0,0,1,378.9,841.58Zm0-3.89a2,2,0,0,0,1.1-.3,1.89,1.89,0,0,0,.69-.87,3.38,3.38,0,0,0,.24-1.34,3.84,3.84,0,0,0-.23-1.36,2.07,2.07,0,0,0-.69-.91,1.77,1.77,0,0,0-1.11-.34,1.88,1.88,0,0,0-1.16.35,2.15,2.15,0,0,0-.68,1,3.43,3.43,0,0,0-.23,1.31,3.31,3.31,0,0,0,.23,1.3,2.06,2.06,0,0,0,.69.89A2,2,0,0,0,378.87,837.69Z"/><path d="M387.3,828.88l-3,11.32h-1l3.05-11.32Z"/><path d="M388.6,838.78v-7.09h1v1.1h.09a1.84,1.84,0,0,1,.72-.88,2.15,2.15,0,0,1,1.18-.32,2,2,0,0,1,1.17.32,2.14,2.14,0,0,1,.74.88h.07a2.08,2.08,0,0,1,.82-.87,2.46,2.46,0,0,1,1.3-.33,2.11,2.11,0,0,1,1.56.6,2.48,2.48,0,0,1,.6,1.84v4.75h-1.09V834a1.33,1.33,0,0,0-.43-1.12,1.6,1.6,0,0,0-1-.34,1.51,1.51,0,0,0-1.16.45,1.64,1.64,0,0,0-.41,1.14v4.62h-1.1v-4.86a1.27,1.27,0,0,0-.4-1,1.44,1.44,0,0,0-1-.37,1.51,1.51,0,0,0-.79.23,1.76,1.76,0,0,0-.59.62,1.88,1.88,0,0,0-.22.93v4.43Z"/><path d="M401.33,834.52a2.4,2.4,0,0,1-.95-.18,1.58,1.58,0,0,1-.65-.51,1.28,1.28,0,0,1-.27-.76h.68a.75.75,0,0,0,.18.46,1.08,1.08,0,0,0,.42.3,1.57,1.57,0,0,0,.58.1,1.54,1.54,0,0,0,.63-.12.94.94,0,0,0,.43-.35.8.8,0,0,0,.16-.51.94.94,0,0,0-.15-.53,1,1,0,0,0-.44-.37,1.7,1.7,0,0,0-.71-.13h-.44v-.59h.44a1.26,1.26,0,0,0,.57-.12.87.87,0,0,0,.39-.34.84.84,0,0,0,.15-.5,1,1,0,0,0-.13-.49.78.78,0,0,0-.35-.32,1.09,1.09,0,0,0-.53-.12,1.36,1.36,0,0,0-.53.11,1,1,0,0,0-.41.29.78.78,0,0,0-.18.47h-.64a1.36,1.36,0,0,1,.26-.76,1.81,1.81,0,0,1,.64-.51,2.13,2.13,0,0,1,.88-.18,1.7,1.7,0,0,1,.87.21,1.45,1.45,0,0,1,.76,1.27,1.3,1.3,0,0,1-.24.79,1.26,1.26,0,0,1-.66.46v0a1.25,1.25,0,0,1,.81.44,1.32,1.32,0,0,1,.3.88,1.44,1.44,0,0,1-.25.81,1.65,1.65,0,0,1-.66.56A2.12,2.12,0,0,1,401.33,834.52Z"/><circle class="cls-4" cx="554.07" cy="833.07" r="3.45"/><path class="cls-4" d="M567.1,838.78V827.87h3.68a4.26,4.26,0,0,1,2.11.46,3,3,0,0,1,1.21,1.24,4.12,4.12,0,0,1,0,3.5,2.88,2.88,0,0,1-1.21,1.26,4.16,4.16,0,0,1-2.08.46h-2.65v-1.17h2.6a2.84,2.84,0,0,0,1.41-.3,1.79,1.79,0,0,0,.78-.83,3,3,0,0,0,0-2.34,1.7,1.7,0,0,0-.78-.81,3,3,0,0,0-1.43-.3h-2.32v9.74Z"/><path class="cls-4" d="M576.62,827.87h1.58l3.71,9H582l3.71-9h1.58v10.91h-1.24v-8.29H586l-3.41,8.29h-1.2L578,830.49h-.1v8.29h-1.24Z"/><path class="cls-4" d="M593.6,827.87v10.91h-1.32v-9.53h-.06L589.55,831v-1.34l2.73-1.81Z"/><path class="cls-4" d="M600.29,838.93a3.25,3.25,0,0,1-2-.66,4.15,4.15,0,0,1-1.29-1.91,10.43,10.43,0,0,1,0-6.06,4.07,4.07,0,0,1,1.3-1.92,3.5,3.5,0,0,1,4.09,0,4.15,4.15,0,0,1,1.3,1.92,10.43,10.43,0,0,1,0,6.06,4.09,4.09,0,0,1-1.3,1.91A3.21,3.21,0,0,1,600.29,838.93Zm0-1.17a2.05,2.05,0,0,0,1.86-1.16,6.65,6.65,0,0,0,.66-3.28,8.43,8.43,0,0,0-.3-2.41,3.34,3.34,0,0,0-.87-1.52,1.89,1.89,0,0,0-1.35-.52,2,2,0,0,0-1.84,1.16,6.65,6.65,0,0,0-.67,3.29,8.38,8.38,0,0,0,.3,2.41,3.29,3.29,0,0,0,.86,1.51A1.93,1.93,0,0,0,600.29,837.76Z"/><path class="cls-4" d="M613.35,833.92l-6.86,3.49v-1.36l5.27-2.54,0,.09v-.21l0,.08-5.27-2.53v-1.37l6.86,3.5Z"/><path class="cls-4" d="M619.41,838.93a3.72,3.72,0,0,1-1.69-.38,3.26,3.26,0,0,1-1.21-1,2.81,2.81,0,0,1-.49-1.48h1.28a1.73,1.73,0,0,0,.67,1.22,2.24,2.24,0,0,0,1.44.49,2.27,2.27,0,0,0,2-1.18,2.6,2.6,0,0,0,.3-1.25,2.66,2.66,0,0,0-.31-1.28,2.37,2.37,0,0,0-.86-.89,2.52,2.52,0,0,0-1.24-.33,3.77,3.77,0,0,0-1,.15,2.93,2.93,0,0,0-.87.41l-1.23-.15.66-5.37h5.67V829H618l-.39,3.22h.07a2.56,2.56,0,0,1,.84-.44,3.13,3.13,0,0,1,1-.18,3.38,3.38,0,0,1,3,1.78,3.87,3.87,0,0,1,.45,1.88,3.74,3.74,0,0,1-.47,1.87,3.52,3.52,0,0,1-1.28,1.29A3.66,3.66,0,0,1,619.41,838.93Z"/><path class="cls-4" d="M628.67,838.93a3.25,3.25,0,0,1-2-.66,4.15,4.15,0,0,1-1.29-1.91,10.43,10.43,0,0,1,0-6.06,4.07,4.07,0,0,1,1.3-1.92,3.5,3.5,0,0,1,4.09,0,4.15,4.15,0,0,1,1.3,1.92,10.43,10.43,0,0,1,0,6.06,4.09,4.09,0,0,1-1.3,1.91A3.21,3.21,0,0,1,628.67,838.93Zm0-1.17a2.05,2.05,0,0,0,1.86-1.16,6.65,6.65,0,0,0,.66-3.28,8.43,8.43,0,0,0-.3-2.41,3.34,3.34,0,0,0-.87-1.52,1.89,1.89,0,0,0-1.35-.52,2,2,0,0,0-1.84,1.16,6.65,6.65,0,0,0-.67,3.29,8.38,8.38,0,0,0,.3,2.41,3.29,3.29,0,0,0,.86,1.51A1.93,1.93,0,0,0,628.67,837.76Z"/><path class="cls-4" d="M634.36,841.44v-9.75h1.09v4.19a2.07,2.07,0,0,0,.24,1,1.71,1.71,0,0,0,.68.68,2.05,2.05,0,0,0,1,.25,2.15,2.15,0,0,0,1-.25,1.71,1.71,0,0,0,.68-.68,2.07,2.07,0,0,0,.24-1v-4.19h1.09v7.09h-1.09v-1.06h-.05a2,2,0,0,1-.8.86,2.25,2.25,0,0,1-2.21,0,2.08,2.08,0,0,1-.8-.86h0v3.72Z"/><path class="cls-4" d="M645.31,841.58a3.94,3.94,0,0,1-1.36-.2,2.91,2.91,0,0,1-.94-.52,3,3,0,0,1-.6-.7l.87-.61c.1.13.22.28.37.45a2,2,0,0,0,.62.44,2.56,2.56,0,0,0,1,.18,2.32,2.32,0,0,0,1.42-.41,1.52,1.52,0,0,0,.55-1.3v-1.44h-.09a4.05,4.05,0,0,1-.34.47,1.85,1.85,0,0,1-.63.51,2.38,2.38,0,0,1-1.1.22,3,3,0,0,1-1.54-.41,2.8,2.8,0,0,1-1.07-1.18,4.17,4.17,0,0,1-.4-1.88,4.33,4.33,0,0,1,.39-1.9,3,3,0,0,1,1.06-1.26,2.84,2.84,0,0,1,1.58-.45,2.28,2.28,0,0,1,1.1.23,1.87,1.87,0,0,1,.63.52c.15.19.26.35.34.47h.11v-1.12h1V839a2.46,2.46,0,0,1-.41,1.49,2.36,2.36,0,0,1-1.11.84A4.22,4.22,0,0,1,645.31,841.58Zm0-3.89a2,2,0,0,0,1.11-.3,1.89,1.89,0,0,0,.69-.87,3.57,3.57,0,0,0,.23-1.34,3.63,3.63,0,0,0-.23-1.36,2,2,0,0,0-.68-.91,1.78,1.78,0,0,0-1.12-.34,1.87,1.87,0,0,0-1.15.35,2.1,2.1,0,0,0-.69,1,3.64,3.64,0,0,0-.23,1.31,3.31,3.31,0,0,0,.24,1.3,1.92,1.92,0,0,0,.69.89A2,2,0,0,0,645.27,837.69Z"/><path class="cls-4" d="M653.71,828.88l-3.05,11.32h-1l3-11.32Z"/><path class="cls-4" d="M655,838.78v-7.09h1.06v1.1h.09a1.82,1.82,0,0,1,.71-.88,2.18,2.18,0,0,1,1.19-.32,2,2,0,0,1,1.17.32,2.11,2.11,0,0,1,.73.88H660a2.12,2.12,0,0,1,.81-.87,2.5,2.5,0,0,1,1.31-.33,2.14,2.14,0,0,1,1.56.6,2.48,2.48,0,0,1,.6,1.84v4.75h-1.09V834a1.33,1.33,0,0,0-.43-1.12,1.6,1.6,0,0,0-1-.34,1.5,1.5,0,0,0-1.16.45,1.64,1.64,0,0,0-.41,1.14v4.62H659.1v-4.86a1.3,1.3,0,0,0-.39-1,1.44,1.44,0,0,0-1-.37,1.48,1.48,0,0,0-.79.23,1.67,1.67,0,0,0-.59.62,1.89,1.89,0,0,0-.23.93v4.43Z"/><path class="cls-4" d="M667.74,834.52a2.4,2.4,0,0,1-1-.18,1.55,1.55,0,0,1-.66-.51,1.34,1.34,0,0,1-.26-.76h.68a.75.75,0,0,0,.18.46,1.08,1.08,0,0,0,.42.3,1.72,1.72,0,0,0,1.21,0,1,1,0,0,0,.43-.35A.86.86,0,0,0,669,833a.94.94,0,0,0-.15-.53,1,1,0,0,0-.45-.37,1.67,1.67,0,0,0-.71-.13h-.44v-.59h.44a1.34,1.34,0,0,0,.58-.12.87.87,0,0,0,.39-.34.92.92,0,0,0,.14-.5,1,1,0,0,0-.12-.49.78.78,0,0,0-.35-.32,1.12,1.12,0,0,0-.53-.12,1.41,1.41,0,0,0-.54.11,1.22,1.22,0,0,0-.41.29.84.84,0,0,0-.17.47H666a1.29,1.29,0,0,1,.26-.76,1.73,1.73,0,0,1,.64-.51,2.05,2.05,0,0,1,.87-.18,1.76,1.76,0,0,1,.88.21,1.39,1.39,0,0,1,.56.54,1.43,1.43,0,0,1,.2.73,1.24,1.24,0,0,1-.25.79,1.26,1.26,0,0,1-.66.46v0a1.3,1.3,0,0,1,.82.44,1.37,1.37,0,0,1,.29.88,1.43,1.43,0,0,1-.24.81,1.65,1.65,0,0,1-.66.56A2.12,2.12,0,0,1,667.74,834.52Z"/><g class="cls-5"><circle class="cls-4" cx="826.78" cy="833.07" r="9.75"/></g><circle class="cls-4" cx="826.78" cy="833.07" r="3.45"/><path d="M839.78,838.78V827.87h6.58V829H841.1v3.69H846v1.17H841.1v3.71h5.35v1.17Z"/><path d="M849.2,827.87l3.24,9.18h.12l3.24-9.18h1.39l-4,10.91h-1.36l-4-10.91Z"/><path d="M858.89,838.78V827.87h6.59V829h-5.27v3.69h4.92v1.17h-4.92v3.71h5.35v1.17Z"/><path d="M876.51,827.87v10.91h-1.28l-5.94-8.57h-.11v8.57h-1.32V827.87h1.28l6,8.59h.1v-8.59Z"/><path d="M878.56,829v-1.17h8.18V829h-3.43v9.74H882V829Z"/><path d="M897.54,833.32a6.76,6.76,0,0,1-.62,3,4.83,4.83,0,0,1-1.71,1.94,4.88,4.88,0,0,1-5,0,4.83,4.83,0,0,1-1.71-1.94,7.5,7.5,0,0,1,0-6,4.77,4.77,0,0,1,1.71-1.94,4.88,4.88,0,0,1,5,0,4.77,4.77,0,0,1,1.71,1.94A6.72,6.72,0,0,1,897.54,833.32Zm-1.28,0a5.39,5.39,0,0,0-.47-2.39,3.41,3.41,0,0,0-1.27-1.47,3.24,3.24,0,0,0-1.79-.5,3.3,3.3,0,0,0-1.8.5,3.48,3.48,0,0,0-1.27,1.47,6.34,6.34,0,0,0,0,4.79,3.54,3.54,0,0,0,1.27,1.47,3.39,3.39,0,0,0,1.8.5,3.33,3.33,0,0,0,1.79-.5,3.47,3.47,0,0,0,1.27-1.47A5.44,5.44,0,0,0,896.26,833.32Z"/></svg>