<svg id="Livello_1" data-name="Livello 1" xmlns="http://www.w3.org/2000/svg" viewBox="0 0 262 900"><defs><style>.cls-1{fill:#fff;}</style></defs><rect width="262" height="900"/><path class="cls-1" d="M186,777.9l-51.22-65.58c-17.34-22-28.18-32.25-42-32.25H83c-21.68,0-30.89,8.67-30.89,36.32,0,27.91,11.11,40.92,36.58,40.92v25.74C54,777.63,31,752.43,31,716.39c0-38.76,25.2-62.33,55.28-62.33,22,0,42,13.55,62.61,40.38l45.52,59.62h10.84V650.26h23V777.9Z"/><path class="cls-1" d="M131.27,613.68C72.73,613.68,31,585,31,540.51s41.73-73.17,100.27-73.17c58.27,0,99.73,28.19,99.73,73.17S189.54,613.68,131.27,613.68Zm21.95-119.51h-43.9c-40.11,0-57.18,13.82-57.18,46.34s17.07,46.34,57.18,46.34h43.9c39.3,0,56.37-13.82,56.37-46.34S192.52,494.17,153.22,494.17Z"/><path class="cls-1" d="M164.33,434.28c-23,0-39.56-10-58-25.47L33.71,347.29V317.21l89.43,76.42V376c-13.55-8.94-23.58-23-23.58-37.4,0-29.54,27.64-46.61,64.77-46.61,38.48,0,66.67,29.54,66.67,71S202.81,434.28,164.33,434.28Zm3.25-116.53H153c-21.14,0-34.69,4.07-34.69,22.5,0,10.84,7.32,20.59,24.93,20.59v44.72c4.88,2.17,9.76,2.71,15.18,2.71h11.92c27.92,0,39.3-13.28,39.3-45.26S197.39,317.75,167.58,317.75Z"/><path class="cls-1" d="M173.82,252.72v-26c24.93,0,35.77-9.48,35.77-42.27,0-25.75-7.59-41.2-26-41.2H172.46c-13,0-20.32,11.11-20.32,35v3.53H138.32v34.41H118.26V181.72h-14.9V176c0-22.76-5.69-26.55-17.89-26.55H77.34c-12.74,0-25.2,5.69-25.2,35.5,0,28.45,10,36.85,33.33,36.85V247.3C55.12,244.05,31,218.3,31,185c0-39.57,23.58-61.79,48.78-61.79,20.87,0,39,18.16,40.92,34.15h13.55C137,137.27,153,117,175.71,117c31.71,0,55.29,31.16,55.29,67.48C231,224.26,207.15,250,173.82,252.72Z"/></svg>