<svg id="Livello_1" data-name="Livello 1" xmlns="http://www.w3.org/2000/svg" viewBox="0 0 262 900"><defs><style>.cls-1{fill:#fff;}</style></defs><rect width="262" height="900"/><path class="cls-1" d="M186,766.6,134.79,701c-17.34-21.95-28.18-32.25-42-32.25H83c-21.68,0-30.89,8.67-30.89,36.32C52.14,733,63.25,746,88.72,746v25.74C54,766.33,31,741.13,31,705.09c0-38.76,25.2-62.33,55.28-62.33,22,0,42,13.55,62.61,40.38l45.52,59.62h10.84V639h23V766.6Z"/><path class="cls-1" d="M131.27,602.38C72.73,602.38,31,573.66,31,529.21S72.73,456,131.27,456c58.27,0,99.73,28.19,99.73,73.17S189.54,602.38,131.27,602.38Zm21.95-119.51h-43.9c-40.11,0-57.18,13.82-57.18,46.34s17.07,46.34,57.18,46.34h43.9c39.3,0,56.37-13.82,56.37-46.34S192.52,482.87,153.22,482.87Z"/><path class="cls-1" d="M163.25,325.69v88.62H33.71V390.46H143.2V325.69h-65V301.85h65V266.62h20.05v35.23h65v23.84Z"/><path class="cls-1" d="M163.25,140.06v88.62H33.71V204.83H143.2V140.06h-65V116.21h65V81h20.05v35.23h65v23.85Z"/><path class="cls-1" d="M112.12,815l-1-.71L112,813l.44-.37-.21-.65-.59-.06-1.41-.46.37-1.16,1.41.44.5.31.54-.39-.12-.6v-1.46h1.26v1.46l-.12.6.54.39.5-.31,1.41-.44.37,1.16-1.41.46-.59.06-.21.65.44.37.87,1.23-1,.71-.87-1.17-.22-.54h-.68l-.22.54Z"/><path class="cls-1" d="M121.23,821a2.78,2.78,0,0,1-2-.78,2.62,2.62,0,0,1-.79-1.94,2.17,2.17,0,0,1,.94-1.82,3.86,3.86,0,0,1,2.43-.72h2.55V815a2,2,0,0,0-.42-1.48,2.46,2.46,0,0,0-1.59-.38,2.66,2.66,0,0,0-1.66.37,2,2,0,0,0-.5,1.49h-1.53a3.59,3.59,0,0,1,1.24-2.33,3.77,3.77,0,0,1,2.5-.85,3.55,3.55,0,0,1,2.52.86,3.1,3.1,0,0,1,.93,2.4v5.8h-1.49v-1.12h-.68A2.76,2.76,0,0,1,121.23,821Zm.26-1.33c1,0,1.58-.41,1.68-1.22h1.16V817h-2.94c-.91,0-1.36.34-1.36,1v.47a1.14,1.14,0,0,0,.33.91A1.75,1.75,0,0,0,121.49,819.69Z"/><path class="cls-1" d="M128.24,820.85V812h1.49v1.66h.67a3.39,3.39,0,0,1,1.16-1.36,2.8,2.8,0,0,1,1.59-.47,2.75,2.75,0,0,1,2.07.84,2.94,2.94,0,0,1,.82,2.15v6.07h-1.5v-6.07a1.81,1.81,0,0,0-.37-1.28,1.64,1.64,0,0,0-1.22-.39,1.75,1.75,0,0,0-1.28.42,1.85,1.85,0,0,0-.42,1.35h-1.52v6Z"/><path class="cls-1" d="M138.45,820.85V812H140v1.66h.66a3.41,3.41,0,0,1,1.17-1.36,2.8,2.8,0,0,1,1.59-.47,2.75,2.75,0,0,1,2.07.84,3,3,0,0,1,.82,2.15v6.07h-1.5v-6.07a1.81,1.81,0,0,0-.37-1.28,1.65,1.65,0,0,0-1.23-.39,1.74,1.74,0,0,0-1.27.42,1.81,1.81,0,0,0-.43,1.35H140v6Z"/><path class="cls-1" d="M155.29,819.68a4,4,0,0,1-6,0,5.06,5.06,0,0,1,0-6.57,4.07,4.07,0,0,1,6,0,5,5,0,0,1,0,6.57Zm-4.95-.61a2.63,2.63,0,0,0,1.95.62,2.59,2.59,0,0,0,2-.62,2.8,2.8,0,0,0,.6-2v-1.36a2.79,2.79,0,0,0-.6-2,2.64,2.64,0,0,0-2-.62,2.67,2.67,0,0,0-1.95.62,2.79,2.79,0,0,0-.6,2v1.36A2.8,2.8,0,0,0,150.34,819.07Z"/><path class="cls-1" d="M171.62,821a3.05,3.05,0,0,1-1.67-.51,3.25,3.25,0,0,1-1.22-1.33h-.68v1.69h-1.5V808.64h1.5v5h.68A3.29,3.29,0,0,1,170,812.3a3.05,3.05,0,0,1,1.67-.51,3.33,3.33,0,0,1,2.69,1.39,5.25,5.25,0,0,1,0,6.43A3.33,3.33,0,0,1,171.62,821Zm0-1.33a1.93,1.93,0,0,0,1.62-.62,3.12,3.12,0,0,0,.51-2v-1.33a3.16,3.16,0,0,0-.51-2,2,2,0,0,0-1.62-.62,1.83,1.83,0,0,0-2.09,1.77h-1.48v3h1.48A1.82,1.82,0,0,0,171.62,819.67Z"/><path class="cls-1" d="M178.93,810.52a1.11,1.11,0,0,1-.82.33,1.17,1.17,0,0,1-.82-2,1.16,1.16,0,0,1,.82-.32,1.14,1.14,0,0,1,.82.32,1.24,1.24,0,0,1,0,1.66Zm-1.56,10.33V812h1.49v8.89Z"/><path class="cls-1" d="M184.66,821a4.21,4.21,0,0,1-2.58-.78,2.89,2.89,0,0,1-1.18-2h1.58a1.48,1.48,0,0,0,.52,1.18,3,3,0,0,0,1.63.32c1.37,0,2.05-.38,2.05-1.15v-.38a.83.83,0,0,0-.3-.69,2.32,2.32,0,0,0-1-.31l-1.67-.17a2.94,2.94,0,0,1-1.84-.77,2.24,2.24,0,0,1-.64-1.66,2.45,2.45,0,0,1,1-1.94,3.52,3.52,0,0,1,2.33-.83,3.77,3.77,0,0,1,2.38.76,3,3,0,0,1,1.16,2.06H186.5a1.52,1.52,0,0,0-.46-1.17,2.49,2.49,0,0,0-1.47-.33,2.83,2.83,0,0,0-1.41.27.92.92,0,0,0-.44.85v.34a.87.87,0,0,0,.3.72,1.81,1.81,0,0,0,1,.3l1.63.17a3.06,3.06,0,0,1,1.89.78,2.2,2.2,0,0,1,.68,1.65,2.53,2.53,0,0,1-1,2A3.82,3.82,0,0,1,184.66,821Z"/><path class="cls-1" d="M193.77,821a4,4,0,0,1-3-1.25,4.42,4.42,0,0,1-1.2-3.19,5,5,0,0,1,1.21-3.41,3.87,3.87,0,0,1,3-1.38,3.66,3.66,0,0,1,2.84,1.28,4.56,4.56,0,0,1,1.16,3.15v.63H191.2v.39a2.45,2.45,0,0,0,.61,1.87,2.73,2.73,0,0,0,2,.58,2.78,2.78,0,0,0,1.6-.37,1.65,1.65,0,0,0,.63-1.21h1.73a4.28,4.28,0,0,1-1.57,2.08A4,4,0,0,1,193.77,821Zm-2.57-5.43h4.9v-.22a2.39,2.39,0,0,0-.53-1.73,2.46,2.46,0,0,0-1.78-.53,3,3,0,0,0-2,.55,2.21,2.21,0,0,0-.63,1.75Z"/><path class="cls-1" d="M203,821a4.21,4.21,0,0,1-2.58-.78,2.86,2.86,0,0,1-1.18-2h1.58a1.48,1.48,0,0,0,.52,1.18,3,3,0,0,0,1.62.32c1.37,0,2.06-.38,2.06-1.15v-.38a.81.81,0,0,0-.31-.69,2.23,2.23,0,0,0-1-.31L202,817a2.94,2.94,0,0,1-1.84-.77,2.24,2.24,0,0,1-.64-1.66,2.45,2.45,0,0,1,1-1.94,3.5,3.5,0,0,1,2.33-.83,3.77,3.77,0,0,1,2.38.76,3,3,0,0,1,1.15,2.06H204.8a1.45,1.45,0,0,0-.46-1.17,2.43,2.43,0,0,0-1.46-.33,2.83,2.83,0,0,0-1.41.27.92.92,0,0,0-.44.85v.34a.87.87,0,0,0,.3.72,1.81,1.81,0,0,0,1,.3l1.63.17a3.09,3.09,0,0,1,1.89.78,2.2,2.2,0,0,1,.68,1.65,2.53,2.53,0,0,1-1,2A3.82,3.82,0,0,1,203,821Z"/><path class="cls-1" d="M212,820.93a2.77,2.77,0,0,1-2-.69,2.43,2.43,0,0,1-.74-1.84v-5.19h-1.93V812h1.93v-3.32h1.5V812h2.55v1.25h-2.55v5.36a.9.9,0,0,0,1,1h1.36v1.34Z"/><path class="cls-1" d="M216.84,810.52a1.18,1.18,0,0,1-1.64,0,1.17,1.17,0,0,1,1.64-1.66,1.24,1.24,0,0,1,0,1.66Zm-1.56,10.33V812h1.49v8.89Z"/><path class="cls-1" d="M219.32,820.85V808.64h1.5v12.21Z"/><path class="cls-1" d="M227,821a4,4,0,0,1-3-1.25,4.42,4.42,0,0,1-1.2-3.19,5,5,0,0,1,1.22-3.41,3.85,3.85,0,0,1,3-1.38,3.65,3.65,0,0,1,2.84,1.28,4.56,4.56,0,0,1,1.16,3.15v.63h-6.56v.39a2.48,2.48,0,0,0,.6,1.87,3.62,3.62,0,0,0,3.56.21,1.65,1.65,0,0,0,.63-1.21H231a4.3,4.3,0,0,1-1.58,2.08A4,4,0,0,1,227,821Zm-2.56-5.43h4.89v-.22a2.39,2.39,0,0,0-.52-1.73,2.49,2.49,0,0,0-1.79-.53,3,3,0,0,0-2,.55,2.21,2.21,0,0,0-.63,1.75Z"/></svg>