<svg id="Livello_1" data-name="Livello 1" xmlns="http://www.w3.org/2000/svg" viewBox="0 0 1177 800"><defs><style>.cls-1{fill:#ff3a00;}.cls-2{fill:#d3d3d3;}</style></defs><rect x="-0.5" width="1178" height="800"/><path class="cls-1" d="M586.25,86.78a5.18,5.18,0,0,1-3.5-1.15,4,4,0,0,1-1.38-3.18h1.8a3.26,3.26,0,0,0,.58,2.23,3.81,3.81,0,0,0,2.5.54,3.38,3.38,0,0,0,2.42-.64,3.58,3.58,0,0,0,.62-2.44V80.06h-.8a3.7,3.7,0,0,1-1.32,1.56,3.28,3.28,0,0,1-1.85.6,3.72,3.72,0,0,1-3.14-1.54A5.84,5.84,0,0,1,581,77a5.78,5.78,0,0,1,1.14-3.67,3.74,3.74,0,0,1,3.13-1.56,3.26,3.26,0,0,1,1.85.6,3.72,3.72,0,0,1,1.33,1.56h.8V72H591l0,10.36a4.21,4.21,0,0,1-1.35,3.15A4.79,4.79,0,0,1,586.25,86.78Zm-1-6.12a2,2,0,0,0,2.26-2.08h1.74V75.42h-1.75a2,2,0,0,0-2.26-2.08,2.13,2.13,0,0,0-1.76.69,3.54,3.54,0,0,0-.53,2.2v1.56a3.57,3.57,0,0,0,.54,2.2A2.1,2.1,0,0,0,585.28,80.66Z"/><path class="cls-1" d="M595.87,70.28a1.39,1.39,0,0,1-1.93,0,1.36,1.36,0,0,1-.4-1,1.3,1.3,0,0,1,.39-1,1.36,1.36,0,0,1,1-.38,1.27,1.27,0,0,1,1,.38,1.3,1.3,0,0,1,.38,1A1.31,1.31,0,0,1,595.87,70.28Zm-1.82,12.15L594,72h1.76l0,10.46Z"/><path class="cls-1" d="M606.59,81a4.74,4.74,0,0,1-7.06,0,5.53,5.53,0,0,1-1.43-3.87,5.47,5.47,0,0,1,1.42-3.86,4.78,4.78,0,0,1,7.06,0,5.92,5.92,0,0,1,0,7.73Zm-5.82-.71a3.93,3.93,0,0,0,4.58,0,3.24,3.24,0,0,0,.71-2.35v-1.6a3.26,3.26,0,0,0-.72-2.33,4,4,0,0,0-4.58,0,3.22,3.22,0,0,0-.7,2.33V78A3.3,3.3,0,0,0,600.77,80.33Z"/><path class="cls-1" d="M610.33,82.4l0-10.46h1.76v2.6h.8a3.8,3.8,0,0,1,.36-.84,4.29,4.29,0,0,1,.7-.89,3.38,3.38,0,0,1,1.26-.77,5.14,5.14,0,0,1,1.82-.31V74h-1.22a1.73,1.73,0,0,0-1.34.44,2.43,2.43,0,0,0-.39,1.62h-2l0,6.38Z"/><path class="cls-1" d="M618.77,82.39l0-10.46h1.76v2h.78a3.94,3.94,0,0,1,1.37-1.6,3.29,3.29,0,0,1,1.87-.57,3.25,3.25,0,0,1,2.44,1,3.48,3.48,0,0,1,1,2.53l0,7.14h-1.76l0-7.14a2.1,2.1,0,0,0-.44-1.5,1.9,1.9,0,0,0-1.44-.46,2.08,2.08,0,0,0-1.5.49,2.19,2.19,0,0,0-.5,1.6h-1.78l0,7Z"/><path class="cls-1" d="M632.61,70.22a1.39,1.39,0,0,1-1.93,0,1.4,1.4,0,0,1,0-2,1.36,1.36,0,0,1,1-.38A1.3,1.3,0,0,1,633,69.25,1.35,1.35,0,0,1,632.61,70.22Zm-1.82,12.15,0-10.46h1.76l0,10.46Z"/><path class="cls-1" d="M641.48,82.35v-9h-2.28V71.9h2.28V70.68a2.63,2.63,0,0,1,.8-2,3,3,0,0,1,2.15-.77H646v1.58h-1.8a.88.88,0,0,0-1,1v1.42h3v1.48h-3l0,9Z"/><path class="cls-1" d="M650.56,82.54a3.23,3.23,0,0,1-2.39-.92,3.06,3.06,0,0,1-.93-2.27,2.58,2.58,0,0,1,1.1-2.15,4.56,4.56,0,0,1,2.86-.84h3v-.94a2.29,2.29,0,0,0-.49-1.73,2.85,2.85,0,0,0-1.87-.44,3.2,3.2,0,0,0-2,.43,2.37,2.37,0,0,0-.58,1.75h-1.8A4.23,4.23,0,0,1,649,72.68a4.47,4.47,0,0,1,2.94-1,4.23,4.23,0,0,1,3,1,3.68,3.68,0,0,1,1.1,2.83v6.82h-1.75V81h-.8A3.23,3.23,0,0,1,650.56,82.54Zm.3-1.56q1.8,0,2-1.44h1.36v-1.7h-3.46c-1.07,0-1.6.4-1.6,1.18v.56a1.32,1.32,0,0,0,.39,1.07A2.09,2.09,0,0,0,650.86,81Z"/><path class="cls-1" d="M660.8,82.32l-3-10.45h1.92l2.35,9h.8l2.31-9h1.92l-2.94,10.47Z"/><path class="cls-1" d="M677,80.93a4.55,4.55,0,0,1-3.52,1.57,4.6,4.6,0,0,1-3.54-1.56,5.56,5.56,0,0,1-1.43-3.87,5.47,5.47,0,0,1,1.42-3.86,4.76,4.76,0,0,1,7.06,0,5.92,5.92,0,0,1,0,7.73Zm-5.82-.71a3.13,3.13,0,0,0,2.29.72,3.06,3.06,0,0,0,2.29-.73,3.3,3.3,0,0,0,.71-2.35v-1.6a3.26,3.26,0,0,0-.72-2.33,3.07,3.07,0,0,0-2.29-.73,3.11,3.11,0,0,0-2.29.74,3.22,3.22,0,0,0-.7,2.33v1.6A3.3,3.3,0,0,0,671.17,80.22Z"/><path class="cls-1" d="M680.72,82.29V71.83h1.76v2.6h.8a3.8,3.8,0,0,1,.36-.84,4.29,4.29,0,0,1,.7-.89,3.39,3.39,0,0,1,1.26-.78,5.15,5.15,0,0,1,1.82-.3v2.22h-1.22a1.72,1.72,0,0,0-1.34.45,2.48,2.48,0,0,0-.4,1.62h-2v6.38Z"/><path class="cls-1" d="M693.15,82.47A4.76,4.76,0,0,1,689.57,81a5.2,5.2,0,0,1-1.41-3.75,5.83,5.83,0,0,1,1.42-4,4.52,4.52,0,0,1,3.55-1.64,4.32,4.32,0,0,1,3.34,1.51,5.36,5.36,0,0,1,1.37,3.7v.74l-7.72,0V78a3,3,0,0,0,.71,2.2,4.28,4.28,0,0,0,4.19.23,1.9,1.9,0,0,0,.74-1.42h2A5.11,5.11,0,0,1,696,81.5,4.64,4.64,0,0,1,693.15,82.47Zm-3-6.37h5.75v-.26a2.77,2.77,0,0,0-.62-2,2.91,2.91,0,0,0-2.1-.62,3.38,3.38,0,0,0-2.3.66,2.59,2.59,0,0,0-.74,2Z"/><path class="cls-1" d="M702.25,82.26l-3-10.46h1.92l2.35,9h.8l2.31-9h1.92l-2.94,10.46Z"/><path class="cls-1" d="M718.43,80.86a4.56,4.56,0,0,1-3.52,1.58,4.61,4.61,0,0,1-3.54-1.57,6,6,0,0,1,0-7.73,4.78,4.78,0,0,1,7.06,0,5.92,5.92,0,0,1,0,7.73Zm-5.82-.71a3.93,3.93,0,0,0,4.58,0,3.29,3.29,0,0,0,.71-2.35v-1.6a3.28,3.28,0,0,0-.72-2.33,3.11,3.11,0,0,0-2.29-.72,3.07,3.07,0,0,0-2.29.73,3.23,3.23,0,0,0-.7,2.33v1.6A3.29,3.29,0,0,0,712.61,80.15Z"/><path class="cls-1" d="M722.17,82.23l0-14.36h1.76l0,14.36Z"/><path class="cls-1" d="M728.75,70.06a1.28,1.28,0,0,1-1,.4,1.36,1.36,0,1,1,0-2.72,1.27,1.27,0,0,1,1,.38,1.29,1.29,0,0,1,.38,1A1.34,1.34,0,0,1,728.75,70.06Zm-1.83,12.16V71.76h1.76V82.22Z"/><path class="cls-1" d="M584.38,106.65a3.27,3.27,0,0,1-2.39-.92,3.07,3.07,0,0,1-.93-2.28,2.57,2.57,0,0,1,1.1-2.14,4.63,4.63,0,0,1,2.86-.85h3v-.94a2.3,2.3,0,0,0-.49-1.74,2.92,2.92,0,0,0-1.87-.44,3.26,3.26,0,0,0-2,.44,2.36,2.36,0,0,0-.58,1.75h-1.8a4.23,4.23,0,0,1,1.46-2.74,4.48,4.48,0,0,1,2.94-1,4.23,4.23,0,0,1,3,1,3.65,3.65,0,0,1,1.1,2.83v6.82H588v-1.32h-.8A3.24,3.24,0,0,1,584.38,106.65Zm.3-1.56c1.2,0,1.86-.49,2-1.45H588v-1.7h-3.46c-1.07,0-1.6.39-1.6,1.18v.56a1.33,1.33,0,0,0,.39,1.07A2.09,2.09,0,0,0,584.68,105.09Z"/><path class="cls-1" d="M592.62,106.43l0-14.36h1.76l0,14.36Z"/><path class="cls-1" d="M597.38,106.43l0-14.37h1.76l0,14.36Z"/><path class="cls-1" d="M602.21,97.44l.47-2.94V92.06h2v2.44l-.88,2.94Z"/><path class="cls-1" d="M610.42,106.6a3.23,3.23,0,0,1-2.39-.91,3.07,3.07,0,0,1-.93-2.28,2.56,2.56,0,0,1,1.1-2.14,4.56,4.56,0,0,1,2.85-.85h3v-.94a2.3,2.3,0,0,0-.49-1.74,2.92,2.92,0,0,0-1.87-.44,3.19,3.19,0,0,0-2,.44,2.36,2.36,0,0,0-.58,1.75h-1.8a4.23,4.23,0,0,1,1.46-2.74,4.43,4.43,0,0,1,2.94-1,4.23,4.23,0,0,1,3,1,3.65,3.65,0,0,1,1.1,2.83v6.82h-1.76v-1.32h-.8A3.23,3.23,0,0,1,610.42,106.6Zm.3-1.56q1.8,0,2-1.44h1.36v-1.7H610.6c-1.07,0-1.6.4-1.6,1.19v.56a1.33,1.33,0,0,0,.39,1.07A2.08,2.08,0,0,0,610.72,105Z"/><path class="cls-1" d="M622.76,106.58a4.34,4.34,0,0,1-3.41-1.56,6.07,6.07,0,0,1,0-7.73,4.43,4.43,0,0,1,3.42-1.57,4.36,4.36,0,0,1,3,1.18,4.74,4.74,0,0,1,1.58,2.94h-1.88a2.78,2.78,0,0,0-.72-2,2.89,2.89,0,0,0-2-.58,2.76,2.76,0,0,0-2.13.73,3.36,3.36,0,0,0-.67,2.33V102a3.45,3.45,0,0,0,.66,2.35,2.74,2.74,0,0,0,2.14.72,2.89,2.89,0,0,0,2-.59,2.82,2.82,0,0,0,.72-2h1.88a4.76,4.76,0,0,1-1.58,2.94A4.36,4.36,0,0,1,622.76,106.58Z"/><path class="cls-1" d="M633.84,106.57a4.39,4.39,0,0,1-3.41-1.57,6.07,6.07,0,0,1,0-7.73,4.48,4.48,0,0,1,6.42-.39,4.76,4.76,0,0,1,1.58,2.94h-1.88a2.8,2.8,0,0,0-.72-2,2.94,2.94,0,0,0-2-.58,2.75,2.75,0,0,0-2.13.73,3.38,3.38,0,0,0-.67,2.33v1.6a3.45,3.45,0,0,0,.66,2.35,2.74,2.74,0,0,0,2.14.73,2.89,2.89,0,0,0,2-.6,2.82,2.82,0,0,0,.72-2h1.88a4.76,4.76,0,0,1-1.58,2.94A4.37,4.37,0,0,1,633.84,106.57Z"/><path class="cls-1" d="M643.82,106.55a3,3,0,0,1-2.34-1,3.92,3.92,0,0,1-.92-2.67V95.9h1.75l0,6.94a2.6,2.6,0,0,0,.41,1.65,1.61,1.61,0,0,0,1.33.51,1.78,1.78,0,0,0,1.39-.49,2.32,2.32,0,0,0,.45-1.59h1.78v-7h1.76v10.46h-1.76v-2h-.76A3.35,3.35,0,0,1,643.82,106.55Z"/><path class="cls-1" d="M652.44,106.34V95.88h1.75v1.76H655a3.26,3.26,0,0,1,3-2,3.18,3.18,0,0,1,1.84.53A2.94,2.94,0,0,1,661,97.62h.82a3.25,3.25,0,0,1,3-2,3.08,3.08,0,0,1,2.29.93A3.32,3.32,0,0,1,668,99v7.34h-1.76V99a1.85,1.85,0,0,0-.4-1.34,1.72,1.72,0,0,0-1.28-.42,1.81,1.81,0,0,0-1.36.45,2,2,0,0,0-.44,1.43h-1.58v7.22h-1.76V99a1.87,1.87,0,0,0-.4-1.34,1.72,1.72,0,0,0-1.28-.42,1.81,1.81,0,0,0-1.36.45,2,2,0,0,0-.44,1.43h-1.78v7.22Z"/><path class="cls-1" d="M674,106.5a3,3,0,0,1-2.34-1,3.92,3.92,0,0,1-.92-2.67V95.85h1.76v6.94a2.61,2.61,0,0,0,.41,1.64,1.61,1.61,0,0,0,1.33.51,1.78,1.78,0,0,0,1.39-.49,2.32,2.32,0,0,0,.45-1.59h1.78v-7h1.76v10.46h-1.76v-2h-.76A3.35,3.35,0,0,1,674,106.5Z"/><path class="cls-1" d="M682.6,106.29l0-14.36h1.76l0,14.36Z"/><path class="cls-1" d="M695.15,104.9a4.76,4.76,0,0,1-7.06,0,5.92,5.92,0,0,1,0-7.73,4.76,4.76,0,0,1,7.06,0,6,6,0,0,1,0,7.73Zm-5.82-.71a4,4,0,0,0,4.58,0,3.26,3.26,0,0,0,.7-2.35v-1.6a3.26,3.26,0,0,0-.71-2.33,4,4,0,0,0-4.58,0,3.26,3.26,0,0,0-.71,2.33v1.6A3.3,3.3,0,0,0,689.33,104.19Z"/><path class="cls-1" d="M707.42,106.43a3.94,3.94,0,0,1-3.18-1.64,6.13,6.13,0,0,1,0-7.56,4,4,0,0,1,3.17-1.64,3.63,3.63,0,0,1,2,.6,3.91,3.91,0,0,1,1.42,1.55h.8V91.88h1.76l0,14.36H711.6v-2h-.8a4,4,0,0,1-1.42,1.57A3.6,3.6,0,0,1,707.42,106.43Zm0-1.56a2.16,2.16,0,0,0,2.46-2.08h1.74V99.22h-1.74a2.16,2.16,0,0,0-2.46-2.08,2.33,2.33,0,0,0-1.91.73,3.77,3.77,0,0,0-.59,2.35v1.56a3.74,3.74,0,0,0,.6,2.35A2.3,2.3,0,0,0,707.4,104.87Z"/><path class="cls-1" d="M718.18,94.08a1.27,1.27,0,0,1-1,.39,1.33,1.33,0,0,1-1.36-1.35,1.33,1.33,0,0,1,1.36-1.37,1.34,1.34,0,0,1,1,.38,1.44,1.44,0,0,1,0,2Zm-1.82,12.16,0-10.46h1.76l0,10.46Z"/><path class="cls-1" d="M726,106.22l0-14.36h4.68A4.65,4.65,0,0,1,734,93.2a4.54,4.54,0,0,1,0,6.52,4.55,4.55,0,0,1-3.3,1.35h-2.94v5.14Zm1.79-6.74h2.8c1.92,0,2.88-.8,2.88-2.38V95.83c0-1.59-1-2.38-2.92-2.38H727.8Z"/><path class="cls-1" d="M737.88,106.2l0-14.36h3.94l2.94,12.76h.72l2.9-12.77h3.94l0,14.36h-1.68l0-12.76h-.9l-3,12.77h-3.28l-3-12.75h-.9l0,12.76Z"/><path class="cls-1" d="M755.24,106.17v-1.7h4.2l0-11h-3.74v-1.7h5.5l0,12.66h4.2v1.7Z"/><path class="cls-1" d="M776.29,104.29a4.79,4.79,0,0,1-7.86,0,10.35,10.35,0,0,1,0-10.65,4.77,4.77,0,0,1,7.84,0,10.35,10.35,0,0,1,0,10.65Zm-6.54-.51a3.18,3.18,0,0,0,2.61,1,3.22,3.22,0,0,0,2.61-1,5.07,5.07,0,0,0,.8-3.17V97.36a5.12,5.12,0,0,0-.81-3.22,3.92,3.92,0,0,0-5.22,0,5.12,5.12,0,0,0-.81,3.22v3.24A4.94,4.94,0,0,0,769.75,103.78Z"/><path class="cls-2" d="M1067.18,86a5.15,5.15,0,0,1-3.5-1.15,4,4,0,0,1-1.39-3.18h1.8a3.26,3.26,0,0,0,.59,2.23,3.79,3.79,0,0,0,2.5.54,3.39,3.39,0,0,0,2.42-.64,3.59,3.59,0,0,0,.61-2.44V79.3h-.8a3.72,3.72,0,0,1-1.33,1.56,3.27,3.27,0,0,1-1.85.61,3.73,3.73,0,0,1-3.13-1.55,6.41,6.41,0,0,1,0-7.34,3.72,3.72,0,0,1,3.12-1.55,3.2,3.2,0,0,1,1.86.59,3.79,3.79,0,0,1,1.33,1.56h.8v-2H1072V81.58a4.18,4.18,0,0,1-1.34,3.15A4.79,4.79,0,0,1,1067.18,86Zm-1-6.11a2,2,0,0,0,2.26-2.09h1.74V74.66h-1.74a2,2,0,0,0-2.26-2.07,2.12,2.12,0,0,0-1.76.68,3.55,3.55,0,0,0-.54,2.2V77a3.55,3.55,0,0,0,.54,2.2A2.13,2.13,0,0,0,1066.21,79.91Z"/><path class="cls-2" d="M1076.79,69.52a1.27,1.27,0,0,1-1,.39,1.33,1.33,0,0,1-1-.39,1.41,1.41,0,0,1,0-2,1.34,1.34,0,0,1,1-.38,1.3,1.3,0,0,1,1,.38,1.33,1.33,0,0,1,.38,1A1.3,1.3,0,0,1,1076.79,69.52ZM1075,81.67V71.21h1.76V81.67Z"/><path class="cls-2" d="M1087.52,80.28a4.74,4.74,0,0,1-7.06,0,5.92,5.92,0,0,1,0-7.73,4.78,4.78,0,0,1,7.06,0,6,6,0,0,1,0,7.73Zm-5.82-.71a3.93,3.93,0,0,0,4.58,0,3.24,3.24,0,0,0,.7-2.35v-1.6a3.28,3.28,0,0,0-.71-2.33,3.13,3.13,0,0,0-2.29-.72,3.06,3.06,0,0,0-2.29.73,3.28,3.28,0,0,0-.71,2.33v1.6A3.29,3.29,0,0,0,1081.7,79.57Z"/><path class="cls-2" d="M1091.25,81.65l0-10.46H1093v2.6h.8a3.8,3.8,0,0,1,.36-.84,4.29,4.29,0,0,1,.7-.89,3.38,3.38,0,0,1,1.25-.77,5.18,5.18,0,0,1,1.82-.3v2.21h-1.22a1.74,1.74,0,0,0-1.34.44,2.42,2.42,0,0,0-.4,1.62h-2v6.38Z"/><path class="cls-2" d="M1099.69,81.63V71.17h1.75v2h.78a3.87,3.87,0,0,1,1.37-1.6,3.44,3.44,0,0,1,4.31.42,3.48,3.48,0,0,1,1,2.53v7.14h-1.76V74.48a2.15,2.15,0,0,0-.44-1.5,2,2,0,0,0-1.44-.46,2.08,2.08,0,0,0-1.5.5,2.15,2.15,0,0,0-.5,1.59h-1.78v7Z"/><path class="cls-2" d="M1113.53,69.46a1.27,1.27,0,0,1-1,.39,1.33,1.33,0,0,1-1-.39,1.41,1.41,0,0,1,0-1.95,1.34,1.34,0,0,1,1-.38,1.32,1.32,0,0,1,1,.38,1.44,1.44,0,0,1,0,1.95Zm-1.82,12.15,0-10.46h1.76l0,10.46Z"/><path class="cls-2" d="M1062.59,105.69l0-10.46h1.76v2.6h.8a3.8,3.8,0,0,1,.36-.84,4.29,4.29,0,0,1,.7-.89,3.26,3.26,0,0,1,1.25-.78,5.18,5.18,0,0,1,1.82-.3v2.22h-1.22a1.7,1.7,0,0,0-1.34.45,2.42,2.42,0,0,0-.4,1.62h-2v6.38Z"/><path class="cls-2" d="M1075,105.87a4.73,4.73,0,0,1-3.57-1.46,5.25,5.25,0,0,1-1.42-3.75,5.83,5.83,0,0,1,1.43-4A4.51,4.51,0,0,1,1075,95a4.34,4.34,0,0,1,3.35,1.51,5.35,5.35,0,0,1,1.36,3.7V101l-7.72,0v.46a3,3,0,0,0,.72,2.2,4.28,4.28,0,0,0,4.19.23,1.94,1.94,0,0,0,.74-1.42h2a5.08,5.08,0,0,1-1.85,2.46A4.67,4.67,0,0,1,1075,105.87Zm-3-6.37h5.76v-.26a2.81,2.81,0,0,0-.62-2,2.94,2.94,0,0,0-2.1-.62,3.38,3.38,0,0,0-2.3.66,2.59,2.59,0,0,0-.74,2Z"/><path class="cls-2" d="M1085.83,105.85a4.87,4.87,0,0,1-3-.91,3.3,3.3,0,0,1-1.39-2.4h1.86a1.68,1.68,0,0,0,.61,1.38,3.48,3.48,0,0,0,1.91.37c1.61,0,2.42-.45,2.42-1.36v-.44a.93.93,0,0,0-.37-.81,2.61,2.61,0,0,0-1.2-.37l-2-.19a3.41,3.41,0,0,1-2.16-.9,2.64,2.64,0,0,1-.76-2,2.88,2.88,0,0,1,1.18-2.28,4.2,4.2,0,0,1,2.73-1,4.46,4.46,0,0,1,2.81.9,3.53,3.53,0,0,1,1.36,2.42H1088a1.77,1.77,0,0,0-.54-1.37,2.82,2.82,0,0,0-1.72-.38,3.32,3.32,0,0,0-1.66.31,1.08,1.08,0,0,0-.52,1v.4a1,1,0,0,0,.35.84,2.3,2.3,0,0,0,1.13.36l1.92.19a3.59,3.59,0,0,1,2.22.91,2.56,2.56,0,0,1,.81,2,3,3,0,0,1-1.2,2.33A4.47,4.47,0,0,1,1085.83,105.85Z"/><path class="cls-2" d="M1096.41,105.74a3.18,3.18,0,0,1-2.29-.82,2.81,2.81,0,0,1-.87-2.16v-6.1H1091V95.19h2.28v-3.9H1095v3.9h3v1.47h-3V103a1.06,1.06,0,0,0,1.2,1.2h1.6v1.58Z"/><path class="cls-2" d="M1102.93,105.83a3.27,3.27,0,0,1-2.39-.92,3.07,3.07,0,0,1-.93-2.28,2.56,2.56,0,0,1,1.09-2.14,4.58,4.58,0,0,1,2.86-.84h3V98.7a2.38,2.38,0,0,0-.49-1.74,2.86,2.86,0,0,0-1.87-.43,3.18,3.18,0,0,0-2,.43,2.37,2.37,0,0,0-.58,1.75h-1.8a4.23,4.23,0,0,1,1.46-2.74,4.38,4.38,0,0,1,2.93-1,4.17,4.17,0,0,1,3,1,3.63,3.63,0,0,1,1.11,2.83v6.82h-1.76V104.3h-.8A3.23,3.23,0,0,1,1102.93,105.83Zm.3-1.56c1.2,0,1.86-.49,2-1.45h1.36v-1.7h-3.46c-1.06,0-1.6.39-1.59,1.18v.56a1.33,1.33,0,0,0,.39,1.07A2.07,2.07,0,0,0,1103.23,104.27Z"/><path class="cls-2" d="M1111.17,105.61l0-10.46h1.76v2h.78a4,4,0,0,1,1.36-1.6,3.37,3.37,0,0,1,1.87-.57,3.25,3.25,0,0,1,2.44,1,3.45,3.45,0,0,1,1,2.53v7.14h-1.76V98.46a2.15,2.15,0,0,0-.44-1.5,1.93,1.93,0,0,0-1.44-.45,2,2,0,0,0-1.5.49,2.14,2.14,0,0,0-.5,1.59h-1.78v7Z"/><path class="cls-2" d="M1127.23,105.69a3.18,3.18,0,0,1-2.29-.82,2.81,2.81,0,0,1-.87-2.16v-6.1h-2.28V95.14h2.28v-3.9h1.76v3.9h3v1.48h-3v6.3a1.06,1.06,0,0,0,1.2,1.2h1.6v1.58Z"/><path class="cls-2" d="M1133,93.43a1.27,1.27,0,0,1-1,.39,1.38,1.38,0,0,1-1-2.34,1.37,1.37,0,0,1,1.93,2Zm-1.82,12.15,0-10.46h1.76l0,10.46Z"/><circle class="cls-1" cx="88.56" cy="155.59" r="21.14"/><circle class="cls-1" cx="133.07" cy="155.52" r="21.14"/><circle class="cls-1" cx="177.58" cy="155.44" r="21.14"/><circle class="cls-1" cx="222.09" cy="155.37" r="21.14"/><circle class="cls-1" cx="266.6" cy="155.3" r="21.14"/><circle class="cls-2" cx="311.11" cy="155.23" r="21.14"/><circle class="cls-1" cx="88.63" cy="200.1" r="21.14"/><circle class="cls-1" cx="133.14" cy="200.03" r="21.14"/><circle class="cls-1" cx="177.65" cy="199.95" r="21.14"/><circle class="cls-1" cx="222.16" cy="199.88" r="21.14"/><circle class="cls-1" cx="266.67" cy="199.81" r="21.14"/><circle class="cls-2" cx="311.18" cy="199.74" r="21.14"/><circle class="cls-1" cx="88.7" cy="244.61" r="21.14"/><circle class="cls-1" cx="133.21" cy="244.54" r="21.14"/><circle class="cls-1" cx="177.72" cy="244.46" r="21.14"/><circle class="cls-1" cx="222.23" cy="244.39" r="21.14"/><circle class="cls-1" cx="266.74" cy="244.32" r="21.14"/><circle class="cls-2" cx="311.25" cy="244.25" r="21.14"/><circle class="cls-1" cx="88.77" cy="289.12" r="21.14"/><circle class="cls-1" cx="133.28" cy="289.05" r="21.14"/><circle class="cls-1" cx="177.79" cy="288.97" r="21.14"/><circle class="cls-1" cx="222.3" cy="288.9" r="21.14"/><circle class="cls-1" cx="266.81" cy="288.83" r="21.14"/><circle class="cls-2" cx="311.32" cy="288.76" r="21.14"/><circle class="cls-1" cx="88.84" cy="333.63" r="21.14"/><circle class="cls-1" cx="133.35" cy="333.56" r="21.14"/><circle class="cls-1" cx="177.86" cy="333.48" r="21.14"/><circle class="cls-1" cx="222.37" cy="333.41" r="21.14"/><circle class="cls-1" cx="266.88" cy="333.34" r="21.14"/><circle class="cls-2" cx="311.39" cy="333.27" r="21.14"/><circle class="cls-1" cx="88.92" cy="378.14" r="21.14"/><circle class="cls-1" cx="133.42" cy="378.07" r="21.14"/><circle class="cls-1" cx="177.93" cy="377.99" r="21.14"/><circle class="cls-1" cx="222.44" cy="377.92" r="21.14"/><circle class="cls-1" cx="266.95" cy="377.85" r="21.14"/><circle class="cls-2" cx="311.46" cy="377.78" r="21.14"/><circle class="cls-1" cx="88.99" cy="422.65" r="21.14"/><circle class="cls-1" cx="133.5" cy="422.57" r="21.14"/><circle class="cls-1" cx="178.01" cy="422.5" r="21.14"/><circle class="cls-1" cx="222.52" cy="422.43" r="21.14"/><circle class="cls-1" cx="267.03" cy="422.36" r="21.14"/><circle class="cls-2" cx="311.54" cy="422.29" r="21.14"/><circle class="cls-1" cx="89.06" cy="467.16" r="21.14"/><circle class="cls-1" cx="133.57" cy="467.08" r="21.14"/><circle class="cls-1" cx="178.08" cy="467.01" r="21.14"/><circle class="cls-1" cx="222.59" cy="466.94" r="21.14"/><circle class="cls-1" cx="267.1" cy="466.87" r="21.14"/><circle class="cls-2" cx="311.61" cy="466.8" r="21.14"/><circle class="cls-1" cx="89.13" cy="511.67" r="21.14"/><circle class="cls-1" cx="133.64" cy="511.59" r="21.14"/><circle class="cls-1" cx="178.15" cy="511.52" r="21.14"/><circle class="cls-1" cx="222.66" cy="511.45" r="21.14"/><circle class="cls-1" cx="267.17" cy="511.38" r="21.14"/><circle class="cls-2" cx="311.68" cy="511.31" r="21.14"/><circle class="cls-1" cx="89.2" cy="556.18" r="21.14"/><circle class="cls-1" cx="133.71" cy="556.1" r="21.14"/><circle class="cls-1" cx="178.22" cy="556.03" r="21.14"/><circle class="cls-1" cx="222.73" cy="555.96" r="21.14"/><circle class="cls-1" cx="267.24" cy="555.89" r="21.14"/><circle class="cls-2" cx="311.75" cy="555.82" r="21.14"/><circle class="cls-1" cx="89.27" cy="600.69" r="21.14"/><circle class="cls-1" cx="133.78" cy="600.61" r="21.14"/><circle class="cls-1" cx="178.29" cy="600.54" r="21.14"/><circle class="cls-1" cx="222.8" cy="600.47" r="21.14"/><circle class="cls-1" cx="267.31" cy="600.4" r="21.14"/><circle class="cls-2" cx="311.82" cy="600.33" r="21.14"/><circle class="cls-1" cx="89.34" cy="645.2" r="21.14"/><circle class="cls-1" cx="133.85" cy="645.12" r="21.14"/><circle class="cls-1" cx="178.36" cy="645.05" r="21.14"/><circle class="cls-1" cx="222.87" cy="644.98" r="21.14"/><circle class="cls-1" cx="267.38" cy="644.91" r="21.14"/><circle class="cls-2" cx="311.89" cy="644.84" r="21.14"/><circle class="cls-1" cx="89.41" cy="689.7" r="21.14"/><circle class="cls-1" cx="133.92" cy="689.63" r="21.14"/><circle class="cls-1" cx="178.43" cy="689.56" r="21.14"/><circle class="cls-1" cx="222.94" cy="689.49" r="21.14"/><circle class="cls-1" cx="267.45" cy="689.42" r="21.14"/><circle class="cls-2" cx="311.96" cy="689.35" r="21.14"/><circle class="cls-1" cx="89.48" cy="734.21" r="21.14"/><circle class="cls-1" cx="133.99" cy="734.14" r="21.14"/><circle class="cls-1" cx="178.5" cy="734.07" r="21.14"/><circle class="cls-1" cx="223.01" cy="734" r="21.14"/><circle class="cls-1" cx="267.52" cy="733.93" r="21.14"/><circle class="cls-2" cx="312.03" cy="733.86" r="21.14"/><circle class="cls-2" cx="355.62" cy="155.16" r="21.14"/><circle class="cls-2" cx="400.13" cy="155.09" r="21.14"/><circle class="cls-2" cx="444.64" cy="155.02" r="21.14"/><circle class="cls-2" cx="489.15" cy="154.95" r="21.14"/><circle class="cls-2" cx="533.66" cy="154.88" r="21.14"/><circle class="cls-2" cx="578.17" cy="154.8" r="21.14"/><circle class="cls-2" cx="622.68" cy="154.73" r="21.14"/><circle class="cls-2" cx="667.19" cy="154.66" r="21.14"/><circle class="cls-2" cx="711.7" cy="154.59" r="21.14"/><circle class="cls-2" cx="756.21" cy="154.52" r="21.14"/><circle class="cls-2" cx="800.72" cy="154.45" r="21.14"/><circle class="cls-2" cx="845.23" cy="154.38" r="21.14"/><circle class="cls-2" cx="889.74" cy="154.31" r="21.14"/><circle class="cls-2" cx="934.25" cy="154.24" r="21.14"/><circle class="cls-2" cx="978.76" cy="154.17" r="21.14"/><circle class="cls-2" cx="1023.27" cy="154.09" r="21.14"/><circle class="cls-2" cx="1067.78" cy="154.02" r="21.14"/><circle class="cls-2" cx="1112.29" cy="153.95" r="21.14"/><circle class="cls-2" cx="355.69" cy="199.67" r="21.14"/><circle class="cls-2" cx="400.2" cy="199.6" r="21.14"/><circle class="cls-2" cx="444.71" cy="199.53" r="21.14"/><circle class="cls-2" cx="489.22" cy="199.46" r="21.14"/><circle class="cls-2" cx="533.73" cy="199.39" r="21.14"/><circle class="cls-2" cx="578.24" cy="199.31" r="21.14"/><circle class="cls-2" cx="622.75" cy="199.24" r="21.14"/><circle class="cls-2" cx="667.26" cy="199.17" r="21.14"/><circle class="cls-2" cx="711.77" cy="199.1" r="21.14"/><circle class="cls-2" cx="756.28" cy="199.03" r="21.14"/><circle class="cls-2" cx="800.79" cy="198.96" r="21.14"/><circle class="cls-2" cx="845.3" cy="198.89" r="21.14"/><circle class="cls-2" cx="889.81" cy="198.82" r="21.14"/><circle class="cls-2" cx="934.32" cy="198.75" r="21.14"/><circle class="cls-2" cx="978.83" cy="198.67" r="21.14"/><circle class="cls-2" cx="1023.34" cy="198.6" r="21.14"/><circle class="cls-2" cx="1067.85" cy="198.53" r="21.14"/><circle class="cls-2" cx="1112.36" cy="198.46" r="21.14"/><circle class="cls-2" cx="355.76" cy="244.18" r="21.14"/><circle class="cls-2" cx="400.27" cy="244.11" r="21.14"/><circle class="cls-2" cx="444.78" cy="244.04" r="21.14"/><circle class="cls-2" cx="489.29" cy="243.97" r="21.14"/><circle class="cls-2" cx="533.8" cy="243.9" r="21.14"/><circle class="cls-2" cx="578.31" cy="243.82" r="21.14"/><circle class="cls-2" cx="622.82" cy="243.75" r="21.14"/><circle class="cls-2" cx="667.33" cy="243.68" r="21.14"/><circle class="cls-2" cx="711.84" cy="243.61" r="21.14"/><circle class="cls-2" cx="756.35" cy="243.54" r="21.14"/><circle class="cls-2" cx="800.86" cy="243.47" r="21.14"/><circle class="cls-2" cx="845.37" cy="243.4" r="21.14"/><circle class="cls-2" cx="889.88" cy="243.33" r="21.14"/><circle class="cls-2" cx="934.39" cy="243.26" r="21.14"/><circle class="cls-2" cx="978.9" cy="243.18" r="21.14"/><circle class="cls-2" cx="1023.41" cy="243.11" r="21.14"/><circle class="cls-2" cx="1067.92" cy="243.04" r="21.14"/><circle class="cls-2" cx="1112.43" cy="242.97" r="21.14"/><circle class="cls-2" cx="355.83" cy="288.69" r="21.14"/><circle class="cls-2" cx="400.34" cy="288.62" r="21.14"/><circle class="cls-2" cx="444.85" cy="288.55" r="21.14"/><circle class="cls-2" cx="489.36" cy="288.48" r="21.14"/><circle class="cls-2" cx="533.87" cy="288.41" r="21.14"/><circle class="cls-2" cx="578.38" cy="288.33" r="21.14"/><circle class="cls-2" cx="622.89" cy="288.26" r="21.14"/><circle class="cls-2" cx="667.4" cy="288.19" r="21.14"/><circle class="cls-2" cx="711.91" cy="288.12" r="21.14"/><circle class="cls-2" cx="756.42" cy="288.05" r="21.14"/><circle class="cls-2" cx="800.93" cy="287.98" r="21.14"/><circle class="cls-2" cx="845.44" cy="287.91" r="21.14"/><circle class="cls-2" cx="889.95" cy="287.84" r="21.14"/><circle class="cls-2" cx="934.46" cy="287.77" r="21.14"/><circle class="cls-2" cx="978.97" cy="287.69" r="21.14"/><circle class="cls-2" cx="1023.48" cy="287.62" r="21.14"/><circle class="cls-2" cx="1067.99" cy="287.55" r="21.14"/><circle class="cls-2" cx="1112.5" cy="287.48" r="21.14"/><circle class="cls-2" cx="355.9" cy="333.2" r="21.14"/><circle class="cls-2" cx="400.41" cy="333.13" r="21.14"/><circle class="cls-2" cx="444.92" cy="333.06" r="21.14"/><circle class="cls-2" cx="489.43" cy="332.99" r="21.14"/><circle class="cls-2" cx="533.94" cy="332.92" r="21.14"/><circle class="cls-2" cx="578.45" cy="332.84" r="21.14"/><circle class="cls-2" cx="622.96" cy="332.77" r="21.14"/><circle class="cls-2" cx="667.47" cy="332.7" r="21.14"/><circle class="cls-2" cx="711.98" cy="332.63" r="21.14"/><circle class="cls-2" cx="756.49" cy="332.56" r="21.14"/><circle class="cls-2" cx="801" cy="332.49" r="21.14"/><circle class="cls-2" cx="845.51" cy="332.42" r="21.14"/><circle class="cls-2" cx="890.02" cy="332.35" r="21.14"/><circle class="cls-2" cx="934.53" cy="332.28" r="21.14"/><circle class="cls-2" cx="979.04" cy="332.2" r="21.14"/><circle class="cls-2" cx="1023.55" cy="332.13" r="21.14"/><circle class="cls-2" cx="1068.06" cy="332.06" r="21.14"/><circle class="cls-2" cx="1112.57" cy="331.99" r="21.14"/><circle class="cls-2" cx="355.97" cy="377.71" r="21.14"/><circle class="cls-2" cx="400.48" cy="377.64" r="21.14"/><circle class="cls-2" cx="444.99" cy="377.57" r="21.14"/><circle class="cls-2" cx="489.5" cy="377.5" r="21.14"/><circle class="cls-2" cx="534.01" cy="377.43" r="21.14"/><circle class="cls-2" cx="578.52" cy="377.35" r="21.14"/><circle class="cls-2" cx="623.03" cy="377.28" r="21.14"/><circle class="cls-2" cx="667.54" cy="377.21" r="21.14"/><circle class="cls-2" cx="712.05" cy="377.14" r="21.14"/><circle class="cls-2" cx="756.56" cy="377.07" r="21.14"/><circle class="cls-2" cx="801.07" cy="377" r="21.14"/><circle class="cls-2" cx="845.58" cy="376.93" r="21.14"/><circle class="cls-2" cx="890.09" cy="376.86" r="21.14"/><circle class="cls-2" cx="934.6" cy="376.79" r="21.14"/><circle class="cls-2" cx="979.11" cy="376.71" r="21.14"/><circle class="cls-2" cx="1023.62" cy="376.64" r="21.14"/><circle class="cls-2" cx="1068.13" cy="376.57" r="21.14"/><circle class="cls-2" cx="1112.64" cy="376.5" r="21.14"/><circle class="cls-2" cx="356.05" cy="422.22" r="21.14"/><circle class="cls-2" cx="400.55" cy="422.15" r="21.14"/><circle class="cls-2" cx="445.06" cy="422.08" r="21.14"/><circle class="cls-2" cx="489.57" cy="422.01" r="21.14"/><circle class="cls-2" cx="534.08" cy="421.93" r="21.14"/><circle class="cls-2" cx="578.59" cy="421.86" r="21.14"/><circle class="cls-2" cx="623.1" cy="421.79" r="21.14"/><circle class="cls-2" cx="667.61" cy="421.72" r="21.14"/><circle class="cls-2" cx="712.12" cy="421.65" r="21.14"/><circle class="cls-2" cx="756.63" cy="421.58" r="21.14"/><circle class="cls-2" cx="801.14" cy="421.51" r="21.14"/><circle class="cls-2" cx="845.65" cy="421.44" r="21.14"/><circle class="cls-2" cx="890.16" cy="421.37" r="21.14"/><circle class="cls-2" cx="934.67" cy="421.3" r="21.14"/><circle class="cls-2" cx="979.18" cy="421.22" r="21.14"/><circle class="cls-2" cx="1023.69" cy="421.15" r="21.14"/><circle class="cls-2" cx="1068.2" cy="421.08" r="21.14"/><circle class="cls-2" cx="1112.71" cy="421.01" r="21.14"/><circle class="cls-2" cx="356.12" cy="466.73" r="21.14"/><circle class="cls-2" cx="400.63" cy="466.66" r="21.14"/><circle class="cls-2" cx="445.14" cy="466.59" r="21.14"/><circle class="cls-2" cx="489.65" cy="466.52" r="21.14"/><circle class="cls-2" cx="534.16" cy="466.44" r="21.14"/><circle class="cls-2" cx="578.67" cy="466.37" r="21.14"/><circle class="cls-2" cx="623.18" cy="466.3" r="21.14"/><circle class="cls-2" cx="667.68" cy="466.23" r="21.14"/><circle class="cls-2" cx="712.19" cy="466.16" r="21.14"/><circle class="cls-2" cx="756.7" cy="466.09" r="21.14"/><circle class="cls-2" cx="801.21" cy="466.02" r="21.14"/><circle class="cls-2" cx="845.72" cy="465.95" r="21.14"/><circle class="cls-2" cx="890.23" cy="465.88" r="21.14"/><circle class="cls-2" cx="934.74" cy="465.8" r="21.14"/><circle class="cls-2" cx="979.25" cy="465.73" r="21.14"/><circle class="cls-2" cx="1023.76" cy="465.66" r="21.14"/><circle class="cls-2" cx="1068.27" cy="465.59" r="21.14"/><circle class="cls-2" cx="1112.78" cy="465.52" r="21.14"/><circle class="cls-2" cx="356.19" cy="511.24" r="21.14"/><circle class="cls-2" cx="400.7" cy="511.17" r="21.14"/><circle class="cls-2" cx="445.21" cy="511.1" r="21.14"/><circle class="cls-2" cx="489.72" cy="511.03" r="21.14"/><circle class="cls-2" cx="534.23" cy="510.95" r="21.14"/><circle class="cls-2" cx="578.74" cy="510.88" r="21.14"/><circle class="cls-2" cx="623.25" cy="510.81" r="21.14"/><circle class="cls-2" cx="667.76" cy="510.74" r="21.14"/><circle class="cls-2" cx="712.27" cy="510.67" r="21.14"/><circle class="cls-2" cx="756.78" cy="510.6" r="21.14"/><circle class="cls-2" cx="801.29" cy="510.53" r="21.14"/><circle class="cls-2" cx="845.8" cy="510.46" r="21.14"/><circle class="cls-2" cx="890.31" cy="510.39" r="21.14"/><circle class="cls-2" cx="934.81" cy="510.31" r="21.14"/><circle class="cls-2" cx="979.32" cy="510.24" r="21.14"/><circle class="cls-2" cx="1023.83" cy="510.17" r="21.14"/><circle class="cls-2" cx="1068.34" cy="510.1" r="21.14"/><circle class="cls-2" cx="1112.85" cy="510.03" r="21.14"/><circle class="cls-2" cx="356.26" cy="555.75" r="21.14"/><circle class="cls-2" cx="400.77" cy="555.68" r="21.14"/><circle class="cls-2" cx="445.28" cy="555.61" r="21.14"/><circle class="cls-2" cx="489.79" cy="555.54" r="21.14"/><circle class="cls-2" cx="534.3" cy="555.46" r="21.14"/><circle class="cls-2" cx="578.81" cy="555.39" r="21.14"/><circle class="cls-2" cx="623.32" cy="555.32" r="21.14"/><circle class="cls-2" cx="667.83" cy="555.25" r="21.14"/><circle class="cls-2" cx="712.34" cy="555.18" r="21.14"/><circle class="cls-2" cx="756.85" cy="555.11" r="21.14"/><circle class="cls-2" cx="801.36" cy="555.04" r="21.14"/><circle class="cls-2" cx="845.87" cy="554.97" r="21.14"/><circle class="cls-2" cx="890.38" cy="554.9" r="21.14"/><circle class="cls-2" cx="934.89" cy="554.82" r="21.14"/><circle class="cls-2" cx="979.4" cy="554.75" r="21.14"/><circle class="cls-2" cx="1023.91" cy="554.68" r="21.14"/><circle class="cls-2" cx="1068.42" cy="554.61" r="21.14"/><circle class="cls-2" cx="1112.93" cy="554.54" r="21.14"/><circle class="cls-2" cx="356.33" cy="600.26" r="21.14"/><circle class="cls-2" cx="400.84" cy="600.19" r="21.14"/><circle class="cls-2" cx="445.35" cy="600.12" r="21.14"/><circle class="cls-2" cx="489.86" cy="600.05" r="21.14"/><circle class="cls-2" cx="534.37" cy="599.97" r="21.14"/><circle class="cls-2" cx="578.88" cy="599.9" r="21.14"/><circle class="cls-2" cx="623.39" cy="599.83" r="21.14"/><circle class="cls-2" cx="667.9" cy="599.76" r="21.14"/><circle class="cls-2" cx="712.41" cy="599.69" r="21.14"/><circle class="cls-2" cx="756.92" cy="599.62" r="21.14"/><circle class="cls-2" cx="801.43" cy="599.55" r="21.14"/><circle class="cls-2" cx="845.94" cy="599.48" r="21.14"/><circle class="cls-2" cx="890.45" cy="599.41" r="21.14"/><circle class="cls-2" cx="934.96" cy="599.33" r="21.14"/><circle class="cls-2" cx="979.47" cy="599.26" r="21.14"/><circle class="cls-2" cx="1023.98" cy="599.19" r="21.14"/><circle class="cls-2" cx="1068.49" cy="599.12" r="21.14"/><circle class="cls-2" cx="1113" cy="599.05" r="21.14"/><circle class="cls-2" cx="356.4" cy="644.77" r="21.14"/><circle class="cls-2" cx="400.91" cy="644.7" r="21.14"/><circle class="cls-2" cx="445.42" cy="644.63" r="21.14"/><circle class="cls-2" cx="489.93" cy="644.56" r="21.14"/><circle class="cls-2" cx="534.44" cy="644.48" r="21.14"/><circle class="cls-2" cx="578.95" cy="644.41" r="21.14"/><circle class="cls-2" cx="623.46" cy="644.34" r="21.14"/><circle class="cls-2" cx="667.97" cy="644.27" r="21.14"/><circle class="cls-2" cx="712.48" cy="644.2" r="21.14"/><circle class="cls-2" cx="756.99" cy="644.13" r="21.14"/><circle class="cls-2" cx="801.5" cy="644.06" r="21.14"/><circle class="cls-2" cx="846.01" cy="643.99" r="21.14"/><circle class="cls-2" cx="890.52" cy="643.92" r="21.14"/><circle class="cls-2" cx="935.03" cy="643.84" r="21.14"/><circle class="cls-2" cx="979.54" cy="643.77" r="21.14"/><circle class="cls-2" cx="1024.05" cy="643.7" r="21.14"/><circle class="cls-2" cx="1068.56" cy="643.63" r="21.14"/><circle class="cls-2" cx="1113.07" cy="643.56" r="21.14"/><circle class="cls-2" cx="356.47" cy="689.28" r="21.14"/><circle class="cls-2" cx="400.98" cy="689.21" r="21.14"/><circle class="cls-2" cx="445.49" cy="689.14" r="21.14"/><circle class="cls-2" cx="490" cy="689.06" r="21.14"/><circle class="cls-2" cx="534.51" cy="688.99" r="21.14"/><circle class="cls-2" cx="579.02" cy="688.92" r="21.14"/><circle class="cls-2" cx="623.53" cy="688.85" r="21.14"/><circle class="cls-2" cx="668.04" cy="688.78" r="21.14"/><circle class="cls-2" cx="712.55" cy="688.71" r="21.14"/><circle class="cls-2" cx="757.06" cy="688.64" r="21.14"/><circle class="cls-2" cx="801.57" cy="688.57" r="21.14"/><circle class="cls-2" cx="846.08" cy="688.5" r="21.14"/><circle class="cls-2" cx="890.59" cy="688.43" r="21.14"/><circle class="cls-2" cx="935.1" cy="688.35" r="21.14"/><circle class="cls-2" cx="979.61" cy="688.28" r="21.14"/><circle class="cls-2" cx="1024.12" cy="688.21" r="21.14"/><circle class="cls-2" cx="1068.63" cy="688.14" r="21.14"/><circle class="cls-2" cx="1113.14" cy="688.07" r="21.14"/><circle class="cls-2" cx="356.54" cy="733.79" r="21.14"/><circle class="cls-2" cx="401.05" cy="733.72" r="21.14"/><circle class="cls-2" cx="445.56" cy="733.65" r="21.14"/><circle class="cls-2" cx="490.07" cy="733.57" r="21.14"/><circle class="cls-2" cx="534.58" cy="733.5" r="21.14"/><circle class="cls-2" cx="579.09" cy="733.43" r="21.14"/><circle class="cls-2" cx="623.6" cy="733.36" r="21.14"/><circle class="cls-2" cx="668.11" cy="733.29" r="21.14"/><circle class="cls-2" cx="712.62" cy="733.22" r="21.14"/><circle class="cls-2" cx="757.13" cy="733.15" r="21.14"/><circle class="cls-2" cx="801.64" cy="733.08" r="21.14"/><circle class="cls-2" cx="846.15" cy="733.01" r="21.14"/><circle class="cls-2" cx="890.66" cy="732.93" r="21.14"/><circle class="cls-2" cx="935.17" cy="732.86" r="21.14"/><circle class="cls-2" cx="979.68" cy="732.79" r="21.14"/><circle class="cls-2" cx="1024.19" cy="732.72" r="21.14"/><circle class="cls-2" cx="1068.7" cy="732.65" r="21.14"/><circle class="cls-2" cx="1113.21" cy="732.58" r="21.14"/><circle class="cls-1" cx="43.79" cy="155.66" r="21.14"/><circle class="cls-1" cx="43.86" cy="200.17" r="21.14"/><circle class="cls-1" cx="43.93" cy="244.68" r="21.14"/><circle class="cls-1" cx="88.56" cy="66.07" r="21.14"/><circle class="cls-1" cx="133.07" cy="66" r="21.14"/><circle class="cls-1" cx="177.58" cy="65.93" r="21.14"/><circle class="cls-1" cx="222.09" cy="65.86" r="21.14"/><circle class="cls-1" cx="266.6" cy="65.78" r="21.14"/><circle class="cls-2" cx="311.11" cy="65.71" r="21.14"/><circle class="cls-2" cx="355.69" cy="110.22" r="21.14"/><circle class="cls-1" cx="88.63" cy="110.58" r="21.14"/><circle class="cls-1" cx="133.14" cy="110.51" r="21.14"/><circle class="cls-1" cx="177.65" cy="110.44" r="21.14"/><circle class="cls-1" cx="222.16" cy="110.37" r="21.14"/><circle class="cls-1" cx="266.67" cy="110.29" r="21.14"/><circle class="cls-2" cx="311.18" cy="110.22" r="21.14"/><circle class="cls-1" cx="43.79" cy="66.14" r="21.14"/><circle class="cls-1" cx="43.86" cy="110.65" r="21.14"/><circle class="cls-1" cx="44" cy="289.19" r="21.14"/><circle class="cls-1" cx="44.07" cy="333.7" r="21.14"/><circle class="cls-1" cx="44.15" cy="378.21" r="21.14"/><circle class="cls-1" cx="44.22" cy="422.72" r="21.14"/><circle class="cls-1" cx="44.29" cy="467.23" r="21.14"/><circle class="cls-1" cx="44.36" cy="511.74" r="21.14"/><circle class="cls-1" cx="44.43" cy="556.25" r="21.14"/><circle class="cls-1" cx="44.5" cy="600.76" r="21.14"/><circle class="cls-1" cx="44.57" cy="645.27" r="21.14"/><circle class="cls-1" cx="44.64" cy="689.78" r="21.14"/><circle class="cls-1" cx="44.71" cy="734.29" r="21.14"/><path class="cls-2" d="M902.44,104.42V91.63l19.85-15.5a47.73,47.73,0,0,0,7.55-7,9.16,9.16,0,0,0,2.21-5.74V60.46c0-3.33-.81-5.73-2.42-7.18s-4.47-2.17-8.57-2.17q-6.4,0-9.39,2.67c-2,1.77-3,4.58-3,8.4h-7.79a20.46,20.46,0,0,1,6.65-12.71,19.75,19.75,0,0,1,13.53-4.76q8.54,0,13.7,4.84a15.67,15.67,0,0,1,5.16,11.89q0,9.6-12.22,19l-18,13.78v3.28h31.41v7Z"/><path class="cls-2" d="M972.16,105.24a22.9,22.9,0,0,1-13.66-4.06,15.77,15.77,0,0,1-6.77-10.7h8q.66,4.76,3.45,6.48t9.26,1.72q6.81,0,9.85-2.38c2-1.58,3-4.21,3-7.87v-7q0-5.17-2.21-7.51c-1.48-1.56-3.86-2.33-7.14-2.33q-8.85,0-9,8.2H952.06V45.53h38.39v7H958.87V74.32h3.28a17,17,0,0,1,5.54-6.64,14.48,14.48,0,0,1,8.65-2.54,15.37,15.37,0,0,1,12.1,5.25q4.63,5.25,4.63,13.94,0,9.27-5.37,15.09T972.16,105.24Z"/><path class="cls-2" d="M1026.29,105.24a22.94,22.94,0,0,1-13.66-4.06,15.76,15.76,0,0,1-6.76-10.7h8q.66,4.76,3.45,6.48t9.27,1.72q6.81,0,9.84-2.38c2-1.58,3-4.21,3-7.87v-7c0-3.45-.73-5.95-2.21-7.51s-3.85-2.33-7.14-2.33q-8.85,0-9,8.2H1006.2V45.53h38.38v7H1013V74.32h3.28a17.12,17.12,0,0,1,5.54-6.64,14.48,14.48,0,0,1,8.65-2.54,15.37,15.37,0,0,1,12.1,5.25q4.64,5.25,4.64,13.94,0,9.27-5.38,15.09T1026.29,105.24Z"/><path class="cls-1" d="M461.67,97.9a19.65,19.65,0,0,1-32.24,0q-6-8.4-6-21.78t6.07-21.9q6.06-8.44,16.07-8.44t16.08,8.44q6.06,8.46,6.07,21.9T461.67,97.9Zm-26.82-2.13q3.31,4,10.7,4.06t10.71-4.06q3.32-4.06,3.32-13V69.48q0-9.11-3.32-13.2t-10.71-4.11q-7.38,0-10.7,4.11t-3.32,13.2V82.77Q431.53,91.71,434.85,95.77Z"/><path class="cls-1" d="M485.25,105.49l23.54-28.22h-6.07a17.65,17.65,0,0,1-5,5.17,10.64,10.64,0,0,1-6,2,11.49,11.49,0,0,1-10-5.33q-3.64-5.34-3.65-13.54a18.59,18.59,0,0,1,5.95-14.19q5.94-5.58,15.13-5.57t15.18,5.7a19.12,19.12,0,0,1,6,14.47,17.6,17.6,0,0,1-2.06,8.49A60.42,60.42,0,0,1,512,83.51l-17.72,22Zm7.05-26.74a5.41,5.41,0,0,0,4.19-1.93,8,8,0,0,0,1.64-5.62h13.61a12.64,12.64,0,0,0,.82-4.75V63.66c0-4-1-7-3.11-8.78s-5.47-2.71-10.17-2.71-8.11,1.06-10.22,3.16-3.15,5.48-3.15,10.13v4.27c0,3,.45,5.26,1.35,6.76S489.84,78.75,492.3,78.75Z"/><path class="cls-1" d="M550.13,106.31q-9.43,0-15.5-5.7a19,19,0,0,1-6.07-14.48,20.48,20.48,0,0,1,1.92-8.94,42.14,42.14,0,0,1,5.79-8.61l18.62-22H564L540.86,73.66h5.33a18,18,0,0,1,5.13-5.16,11.05,11.05,0,0,1,6.19-2A11.91,11.91,0,0,1,567.85,72q3.76,5.51,3.77,14.11a19,19,0,0,1-6.07,14.48Q559.48,106.31,550.13,106.31ZM539.63,97q3.2,2.79,10.5,2.79t10.5-3q3.2-3,3.2-9.71V82.69q0-5.25-1.44-7.88T557,72.19a5.86,5.86,0,0,0-4.47,1.88c-1.18,1.26-1.76,3.15-1.76,5.66H537.25a11.14,11.14,0,0,0-.82,4.6v3.61Q536.43,94.26,539.63,97Z"/></svg>