<svg id="Livello_1" data-name="Livello 1" xmlns="http://www.w3.org/2000/svg" viewBox="0 0 262 900"><defs><style>.cls-1{fill:#fff;}</style></defs><rect width="262" height="900"/><path class="cls-1" d="M186,781.56,134.79,716c-17.34-22-28.18-32.25-42-32.25H83c-21.68,0-30.89,8.67-30.89,36.32C52.14,748,63.25,761,88.72,761v25.74C54,781.29,31,756.09,31,720.05c0-38.76,25.2-62.34,55.28-62.34,22,0,42,13.55,62.61,40.38l45.52,59.62h10.84V653.92h23V781.56Z"/><path class="cls-1" d="M131.27,617.34C72.73,617.34,31,588.61,31,544.17S72.73,471,131.27,471c58.27,0,99.73,28.18,99.73,73.17S189.54,617.34,131.27,617.34Zm21.95-119.51h-43.9c-40.11,0-57.18,13.82-57.18,46.34s17.07,46.34,57.18,46.34h43.9c39.3,0,56.37-13.82,56.37-46.34S192.52,497.83,153.22,497.83Z"/><path class="cls-1" d="M182.22,431.71V405.42c21.14-3,27.1-13.82,27.1-42,0-29.54-9.22-42.55-33.88-42.55h-23c-23,0-32.52,9.49-32.52,30.89,0,21.14,10.3,29.54,27.1,29.81v49.06H33.71V303.8h23V408.13h72.08V397.29c-16.53-7.86-30.35-23-30.35-46.88,0-32.52,24.66-55.29,63.41-55.29,39,0,69.11,22.5,69.11,69.11C231,398.92,211.76,426.83,182.22,431.71Z"/><path class="cls-1" d="M131.27,259.63C72.73,259.63,31,230.9,31,186.46s41.73-73.17,100.27-73.17c58.27,0,99.73,28.18,99.73,73.17S189.54,259.63,131.27,259.63Zm21.95-119.51h-43.9c-40.11,0-57.18,13.82-57.18,46.34s17.07,46.34,57.18,46.34h43.9c39.3,0,56.37-13.82,56.37-46.34S192.52,140.12,153.22,140.12Z"/></svg>