<svg id="Livello_1" data-name="Livello 1" xmlns="http://www.w3.org/2000/svg" viewBox="0 0 1125 2436"><defs><style>.cls-1{fill:#fff;}.cls-2{fill:#ff3a00;}.cls-3{fill:#d3d3d3;}</style></defs><rect width="1125" height="2436"/><path class="cls-1" d="M204.69,295.13V250.67l69-53.87q18.51-14.53,26.22-24.22t7.69-20V142.37q0-17.39-8.41-24.94t-29.78-7.55q-22.23,0-32.63,9.26t-10.4,29.21H199.27q4.28-27.65,23.09-44.17t47-16.53q29.64,0,47.6,16.81t17.95,41.33q0,33.35-42.46,65.83l-62.7,47.88v11.4H338.92v24.23Z"/><path class="cls-1" d="M510.35,268.76q-21,29.22-56,29.22t-56-29.22q-21-29.2-20.95-75.66,0-46.74,21.09-76.1t55.86-29.35q34.77,0,55.86,29.35t21.09,76.1Q531.29,239.56,510.35,268.76Zm-93.2-7.41q11.55,14.11,37.19,14.11t37.19-14.11q11.55-14.1,11.55-45.17V170q0-31.63-11.55-45.88t-37.19-14.25q-25.65,0-37.19,14.25T405.61,170v46.17Q405.61,247.24,417.15,261.35Z"/><path class="cls-1" d="M668.37,295.13v-68.4H575.18V90.5h25.08V205.64h68.11v-68.4h25.08v68.4h37v21.09h-37v68.4Z"/><path class="cls-1" d="M863.6,295.13v-68.4H770.4V90.5h25.08V205.64H863.6v-68.4h25.08v68.4h37.05v21.09H888.68v68.4Z"/><path class="cls-2" d="M73.86,2173.52v-17h42v-109.6H78.46v-17h55v126.6h42v17Z"/><path class="cls-2" d="M195.86,2173.52v-17h42v-109.6h-37.4v-17h55v126.6h42v17Z"/><path class="cls-2" d="M323.86,2173.52v-31.2l48.4-37.8q13-10.2,18.4-17t5.4-14v-7.2q0-12.2-5.9-17.5t-20.9-5.3q-15.6,0-22.9,6.5t-7.3,20.5h-19q3-19.39,16.2-31t33-11.6q20.81,0,33.4,11.8a38.19,38.19,0,0,1,12.6,29q0,23.4-29.8,46.2l-44,33.6v8h76.6v17Z"/><path class="cls-2" d="M503.63,2111.33a14.82,14.82,0,0,1-10-3.31,11.44,11.44,0,0,1-3.93-9.06h5.13q.06,4.78,1.65,6.36c1.07,1,3.44,1.56,7.13,1.56,3.42,0,5.72-.6,6.89-1.82s1.77-3.53,1.77-6.95v-5.93H510a10.64,10.64,0,0,1-3.79,4.44,9.3,9.3,0,0,1-5.27,1.71,10.61,10.61,0,0,1-8.92-4.41,18.32,18.32,0,0,1,0-20.92,10.59,10.59,0,0,1,8.92-4.42,9.3,9.3,0,0,1,5.27,1.71,10.61,10.61,0,0,1,3.79,4.45h2.28v-5.59h5v29.52a12,12,0,0,1-3.85,9A13.66,13.66,0,0,1,503.63,2111.33Zm-2.74-17.44q5.92,0,6.44-5.93h5v-9h-5q-.51-5.92-6.44-5.92-3.48,0-5,1.93t-1.54,6.27v4.45q0,4.34,1.54,6.27T500.89,2093.89Z"/><path class="cls-2" d="M531.1,2064.33a3.65,3.65,0,0,1-2.74,1.11,3.88,3.88,0,1,1,0-7.75,3.68,3.68,0,0,1,2.74,1.09,4.11,4.11,0,0,1,0,5.55ZM525.86,2099v-29.81h5V2099Z"/><path class="cls-2" d="M561.62,2095.06a13.56,13.56,0,0,1-20.12,0,16.94,16.94,0,0,1,0-22,13.6,13.6,0,0,1,20.12,0,16.91,16.91,0,0,1,0,22ZM545,2093c1.34,1.39,3.52,2.08,6.52,2.08s5.18-.69,6.53-2.08,2-3.62,2-6.69v-4.56c0-3-.67-5.26-2-6.64s-3.53-2.08-6.53-2.08-5.18.69-6.52,2.08-2,3.6-2,6.64v4.56C543,2089.38,543.69,2091.62,545,2093Z"/><path class="cls-2" d="M572.25,2099v-29.81h5v7.41h2.28a11,11,0,0,1,1-2.39,13.05,13.05,0,0,1,2-2.54,9.72,9.72,0,0,1,3.59-2.2,14.71,14.71,0,0,1,5.19-.85v6.33h-3.48a5,5,0,0,0-3.82,1.25q-1.14,1.26-1.14,4.62h-5.64V2099Z"/><path class="cls-2" d="M596.31,2099v-29.81h5v5.59h2.23a11.35,11.35,0,0,1,3.9-4.57,9.5,9.5,0,0,1,5.33-1.59,9.26,9.26,0,0,1,7,2.82,9.91,9.91,0,0,1,2.74,7.21V2099h-5v-20.35a6.07,6.07,0,0,0-1.25-4.27,5.46,5.46,0,0,0-4.1-1.31,5.88,5.88,0,0,0-4.28,1.39c-1,.93-1.42,2.44-1.42,4.53h-5.08v20Z"/><path class="cls-2" d="M635.81,2064.33a3.67,3.67,0,0,1-2.74,1.11,3.88,3.88,0,1,1,0-7.75,3.69,3.69,0,0,1,2.74,1.09,4.11,4.11,0,0,1,0,5.55ZM630.56,2099v-29.81h5V2099Z"/><path class="cls-2" d="M661.06,2099v-25.59h-6.5v-4.22h6.5v-3.48a7.56,7.56,0,0,1,2.31-5.73,8.51,8.51,0,0,1,6.12-2.19h4.56v4.5h-5.13a2.52,2.52,0,0,0-2.85,2.85v4.05h8.55v4.22h-8.55V2099Z"/><path class="cls-2" d="M686.94,2099.53a9.28,9.28,0,0,1-6.82-2.62,8.8,8.8,0,0,1-2.65-6.5,7.37,7.37,0,0,1,3.14-6.1,13.11,13.11,0,0,1,8.15-2.39h8.55v-2.68q0-3.7-1.4-5c-.93-.84-2.7-1.25-5.33-1.25s-4.59.4-5.58,1.22-1.54,2.48-1.66,5h-5.13a12.06,12.06,0,0,1,4.17-7.81,12.64,12.64,0,0,1,8.37-2.85,12,12,0,0,1,8.44,2.88q3.13,2.88,3.14,8.06V2099h-5v-3.76H695A9.22,9.22,0,0,1,686.94,2099.53Zm.85-4.45c3.42,0,5.3-1.36,5.64-4.1h3.88v-4.84h-9.86q-4.56,0-4.56,3.36v1.59a3.78,3.78,0,0,0,1.11,3A5.89,5.89,0,0,0,687.79,2095.08Z"/><path class="cls-2" d="M716.12,2099l-8.55-29.81H713l6.67,25.59H722l6.61-25.59h5.47L725.64,2099Z"/><path class="cls-2" d="M762.26,2095.06a13.56,13.56,0,0,1-20.12,0,16.91,16.91,0,0,1,0-22,13.6,13.6,0,0,1,20.12,0,16.91,16.91,0,0,1,0,22ZM745.67,2093q2,2.09,6.53,2.08t6.53-2.08c1.34-1.38,2-3.62,2-6.69v-4.56c0-3-.68-5.26-2-6.64s-3.53-2.08-6.53-2.08-5.18.69-6.53,2.08-2,3.6-2,6.64v4.56C743.65,2089.38,744.32,2091.62,745.67,2093Z"/><path class="cls-2" d="M772.89,2099v-29.81h5v7.41h2.28a10.05,10.05,0,0,1,1-2.39,12.68,12.68,0,0,1,2-2.54,9.72,9.72,0,0,1,3.59-2.2,14.69,14.69,0,0,1,5.18-.85v6.33h-3.47a5,5,0,0,0-3.82,1.25q-1.14,1.26-1.14,4.62h-5.64V2099Z"/><path class="cls-2" d="M808.29,2099.53a13.51,13.51,0,0,1-10.18-4.19,14.79,14.79,0,0,1-4-10.69,16.67,16.67,0,0,1,4.08-11.42,12.92,12.92,0,0,1,10.12-4.65,12.32,12.32,0,0,1,9.52,4.3,15.26,15.26,0,0,1,3.87,10.58v2.11h-22v1.31q0,4.32,2,6.27t6.59,1.93a9.23,9.23,0,0,0,5.35-1.25,5.44,5.44,0,0,0,2.11-4h5.82a14.48,14.48,0,0,1-5.27,7A13.4,13.4,0,0,1,808.29,2099.53Zm-8.61-18.18H816.1v-.74q0-4.05-1.77-5.82c-1.18-1.17-3.17-1.76-6-1.76s-5.15.61-6.55,1.85-2.11,3.18-2.11,5.84Z"/><path class="cls-2" d="M834.22,2099l-8.55-29.81h5.47l6.67,25.59h2.28l6.61-25.59h5.48L843.74,2099Z"/><path class="cls-2" d="M880.36,2095.06a13.56,13.56,0,0,1-20.12,0,16.94,16.94,0,0,1,0-22,13.6,13.6,0,0,1,20.12,0,16.91,16.91,0,0,1,0,22ZM863.78,2093c1.34,1.39,3.52,2.08,6.52,2.08s5.18-.69,6.53-2.08,2-3.62,2-6.69v-4.56c0-3-.67-5.26-2-6.64s-3.53-2.08-6.53-2.08-5.18.69-6.52,2.08-2,3.6-2,6.64v4.56C861.75,2089.38,862.43,2091.62,863.78,2093Z"/><path class="cls-2" d="M891,2099V2058h5V2099Z"/><path class="cls-2" d="M909.8,2064.33a3.65,3.65,0,0,1-2.73,1.11,3.88,3.88,0,1,1,0-7.75,3.67,3.67,0,0,1,2.73,1.09,4.11,4.11,0,0,1,0,5.55ZM904.56,2099v-29.81h5V2099Z"/><path class="cls-2" d="M498.25,2167.93a9.28,9.28,0,0,1-6.82-2.62,8.8,8.8,0,0,1-2.65-6.5,7.37,7.37,0,0,1,3.14-6.1,13.09,13.09,0,0,1,8.15-2.39h8.55v-2.68q0-3.7-1.4-5t-5.33-1.26q-4.09,0-5.58,1.23t-1.66,5h-5.13a12.09,12.09,0,0,1,4.16-7.81,12.67,12.67,0,0,1,8.38-2.85,12,12,0,0,1,8.44,2.88q3.13,2.88,3.13,8.06v19.44h-5v-3.76h-2.28A9.22,9.22,0,0,1,498.25,2167.93Zm.85-4.45c3.42,0,5.3-1.36,5.64-4.1h3.88v-4.84h-9.86q-4.56,0-4.56,3.36v1.59a3.78,3.78,0,0,0,1.11,3.05A5.89,5.89,0,0,0,499.1,2163.48Z"/><path class="cls-2" d="M521.73,2167.36v-40.93h5v40.93Z"/><path class="cls-2" d="M535.29,2167.36v-40.93h5v40.93Z"/><path class="cls-2" d="M549.09,2141.77l1.37-8.38v-7h5.64v7l-2.51,8.38Z"/><path class="cls-2" d="M572.46,2167.93a9.24,9.24,0,0,1-6.81-2.62,8.76,8.76,0,0,1-2.65-6.5,7.36,7.36,0,0,1,3.13-6.1,13.11,13.11,0,0,1,8.15-2.39h8.55v-2.68c0-2.47-.46-4.12-1.4-5s-2.7-1.26-5.33-1.26-4.59.41-5.58,1.23-1.54,2.48-1.65,5h-5.13a12,12,0,0,1,4.16-7.81,12.65,12.65,0,0,1,8.38-2.85,12,12,0,0,1,8.43,2.88q3.13,2.88,3.14,8.06v19.44h-5v-3.76h-2.28A9.22,9.22,0,0,1,572.46,2167.93Zm.85-4.45c3.42,0,5.3-1.36,5.65-4.1h3.87v-4.84H573q-4.56,0-4.56,3.36v1.59a3.78,3.78,0,0,0,1.11,3.05A5.91,5.91,0,0,0,573.31,2163.48Z"/><path class="cls-2" d="M607.63,2167.93a12.49,12.49,0,0,1-9.72-4.47,17.36,17.36,0,0,1,0-22,12.74,12.74,0,0,1,18.29-1.08,13.6,13.6,0,0,1,4.51,8.38h-5.36c-.15-2.62-.84-4.49-2.05-5.61s-3.14-1.69-5.76-1.69-4.8.7-6.07,2.09-1.91,3.6-1.91,6.64v4.56c0,3.07.63,5.31,1.88,6.69s3.29,2.08,6.1,2.08q3.93,0,5.76-1.68c1.21-1.12,1.9-3,2.05-5.61h5.36a13.6,13.6,0,0,1-4.51,8.38A12.45,12.45,0,0,1,607.63,2167.93Z"/><path class="cls-2" d="M639.2,2167.93a12.49,12.49,0,0,1-9.72-4.47,17.35,17.35,0,0,1,0-22,12.74,12.74,0,0,1,18.29-1.08,13.54,13.54,0,0,1,4.5,8.38H646.9q-.23-3.93-2.06-5.61c-1.21-1.12-3.13-1.69-5.75-1.69q-4.17,0-6.07,2.09c-1.28,1.38-1.91,3.6-1.91,6.64v4.56c0,3.07.63,5.31,1.88,6.69s3.29,2.08,6.1,2.08q3.93,0,5.75-1.68t2.06-5.61h5.35a13.54,13.54,0,0,1-4.5,8.38A12.49,12.49,0,0,1,639.2,2167.93Z"/><path class="cls-2" d="M667.65,2167.93a8.48,8.48,0,0,1-6.67-3,11.13,11.13,0,0,1-2.63-7.61v-19.78h5v19.78a7.52,7.52,0,0,0,1.17,4.7,4.57,4.57,0,0,0,3.79,1.45,5.11,5.11,0,0,0,4-1.39c.86-.93,1.28-2.44,1.28-4.53h5.08v-20h5v29.81h-5v-5.59h-2.17Q673.47,2167.94,667.65,2167.93Z"/><path class="cls-2" d="M692.21,2167.36v-29.81h5v5h2.22q2.91-5.59,8.67-5.59a9.11,9.11,0,0,1,5.21,1.51,8.33,8.33,0,0,1,3.22,4.08h2.34q2.91-5.59,8.66-5.59a8.7,8.7,0,0,1,6.53,2.68,9.34,9.34,0,0,1,2.59,6.78v20.92h-5v-20.92a5.4,5.4,0,0,0-1.14-3.82,4.85,4.85,0,0,0-3.65-1.2,5.2,5.2,0,0,0-3.88,1.29,5.67,5.67,0,0,0-1.25,4.07h-4.5v20.58h-5v-20.92a5.4,5.4,0,0,0-1.14-3.82,4.85,4.85,0,0,0-3.65-1.2,5.16,5.16,0,0,0-3.87,1.29,5.62,5.62,0,0,0-1.26,4.07h-5.07v20.58Z"/><path class="cls-2" d="M753.6,2167.93a8.49,8.49,0,0,1-6.67-3,11.12,11.12,0,0,1-2.62-7.61v-19.78h5v19.78a7.52,7.52,0,0,0,1.17,4.7,4.56,4.56,0,0,0,3.79,1.45,5.14,5.14,0,0,0,4-1.39c.85-.93,1.28-2.44,1.28-4.53h5.07v-20h5v29.81h-5v-5.59h-2.16Q759.41,2167.94,753.6,2167.93Z"/><path class="cls-2" d="M778.17,2167.36v-40.93h5v40.93Z"/><path class="cls-2" d="M813.94,2163.46a13.57,13.57,0,0,1-20.13,0,17,17,0,0,1,0-22,13.63,13.63,0,0,1,20.13,0,17,17,0,0,1,0,22Zm-16.59-2.06c1.35,1.39,3.52,2.08,6.53,2.08s5.17-.69,6.52-2.08,2-3.62,2-6.69v-4.56c0-3-.67-5.26-2-6.64s-3.52-2.09-6.52-2.09-5.18.7-6.53,2.09-2,3.6-2,6.64v4.56C795.33,2157.78,796,2160,797.35,2161.4Z"/><path class="cls-2" d="M848.9,2167.87a11.28,11.28,0,0,1-9.06-4.67,17.54,17.54,0,0,1,0-21.55,11.31,11.31,0,0,1,9.06-4.67,10.25,10.25,0,0,1,5.59,1.71,11.1,11.1,0,0,1,4,4.45h2.28v-16.71h5v40.93h-5v-5.64h-2.28a11.14,11.14,0,0,1-4,4.44A10.25,10.25,0,0,1,848.9,2167.87Zm0-4.44q6.38,0,7-5.93h5v-10.15h-5q-.63-5.92-7-5.93-3.76,0-5.45,2.09c-1.12,1.38-1.68,3.62-1.68,6.69v4.45q0,4.62,1.68,6.7C844.52,2162.73,846.34,2163.43,848.85,2163.43Z"/><path class="cls-2" d="M879.63,2132.73a3.69,3.69,0,0,1-2.74,1.11,3.92,3.92,0,0,1-2.76-6.67,3.8,3.8,0,0,1,2.76-1.08,3.74,3.74,0,0,1,2.74,1.08,4.12,4.12,0,0,1,0,5.56Zm-5.25,34.63v-29.81h5v29.81Z"/><path class="cls-2" d="M901.91,2167.36v-40.93h13.34a13.24,13.24,0,0,1,9.55,3.85,12.91,12.91,0,0,1,0,18.58,13,13,0,0,1-9.41,3.85H907v14.65Zm5.13-19.21h8q8.21,0,8.21-6.78v-3.59q0-6.78-8.32-6.79H907Z"/><path class="cls-2" d="M935.71,2167.36v-40.93h11.23l8.32,36.37h2l8.33-36.37h11.23v40.93h-4.79V2131h-2.57l-8.66,36.37H951.5L943,2131h-2.57v36.37Z"/><path class="cls-2" d="M985.19,2167.36v-4.85h12v-31.23H986.5v-4.85h15.67v36.08h12v4.85Z"/><path class="cls-2" d="M1045.18,2162.09a13.66,13.66,0,0,1-22.4,0q-4.2-5.85-4.19-15.14t4.22-15.21a13.55,13.55,0,0,1,22.34,0q4.21,5.87,4.22,15.21T1045.18,2162.09Zm-18.64-1.48q2.31,2.82,7.44,2.82t7.44-2.82c1.54-1.89,2.3-4.9,2.3-9v-9.23c0-4.22-.76-7.28-2.3-9.18s-4-2.85-7.44-2.85-5.9,1-7.44,2.85-2.31,5-2.31,9.18v9.23Q1024.23,2157.78,1026.54,2160.61Z"/><path class="cls-3" d="M504.76,2378.73a14.78,14.78,0,0,1-10-3.31,11.42,11.42,0,0,1-3.94-9.06H496q.06,4.79,1.66,6.35t7.12,1.57q5.13,0,6.9-1.82c1.18-1.22,1.76-3.54,1.76-7v-5.92h-2.28a10.57,10.57,0,0,1-3.79,4.44,9.28,9.28,0,0,1-5.27,1.71,10.62,10.62,0,0,1-8.92-4.41,18.32,18.32,0,0,1,0-20.92,10.6,10.6,0,0,1,8.92-4.42,9.28,9.28,0,0,1,5.27,1.71,10.57,10.57,0,0,1,3.79,4.44h2.28v-5.58h5v29.52a11.92,11.92,0,0,1-3.85,9A13.65,13.65,0,0,1,504.76,2378.73ZM502,2361.29c4,0,6.1-2,6.45-5.93h4.95v-9h-4.95c-.35-3.95-2.49-5.93-6.45-5.93-2.31,0-4,.65-5,1.94s-1.54,3.39-1.54,6.27v4.45q0,4.34,1.54,6.27C498,2360.64,499.71,2361.29,502,2361.29Z"/><path class="cls-3" d="M532.23,2331.73a3.65,3.65,0,0,1-2.73,1.11,3.93,3.93,0,0,1-2.77-6.67,3.82,3.82,0,0,1,2.77-1.08,3.7,3.7,0,0,1,2.73,1.08,4.09,4.09,0,0,1,0,5.56ZM527,2366.36v-29.81h5v29.81Z"/><path class="cls-3" d="M562.76,2362.46a13.56,13.56,0,0,1-20.12,0,16.92,16.92,0,0,1,0-22,13.62,13.62,0,0,1,20.12,0,17,17,0,0,1,0,22Zm-16.59-2.06c1.35,1.39,3.52,2.08,6.53,2.08s5.17-.69,6.52-2.08,2-3.62,2-6.69v-4.56q0-4.56-2-6.65c-1.35-1.38-3.52-2.08-6.52-2.08s-5.18.7-6.53,2.08-2,3.61-2,6.65v4.56C544.15,2356.78,544.82,2359,546.17,2360.4Z"/><path class="cls-3" d="M573.39,2366.36v-29.81h5V2344h2.28a10.79,10.79,0,0,1,1-2.4,12.84,12.84,0,0,1,2-2.53,9.8,9.8,0,0,1,3.59-2.2,14.71,14.71,0,0,1,5.19-.85v6.33H589a4.93,4.93,0,0,0-3.81,1.25c-.77.84-1.14,2.37-1.14,4.62H578.4v18.18Z"/><path class="cls-3" d="M597.44,2366.36v-29.81h5v5.58h2.22a11.55,11.55,0,0,1,3.9-4.56,9.52,9.52,0,0,1,5.33-1.59,9.3,9.3,0,0,1,7,2.82,9.93,9.93,0,0,1,2.73,7.21v20.35h-5V2346a6,6,0,0,0-1.26-4.27,5.44,5.44,0,0,0-4.1-1.32,5.9,5.9,0,0,0-4.28,1.4c-1,.93-1.42,2.44-1.42,4.53h-5.07v20Z"/><path class="cls-3" d="M636.94,2331.73a3.65,3.65,0,0,1-2.73,1.11,3.93,3.93,0,0,1-2.77-6.67,3.81,3.81,0,0,1,2.77-1.08,3.7,3.7,0,0,1,2.73,1.08,4.12,4.12,0,0,1,0,5.56Zm-5.24,34.63v-29.81h5v29.81Z"/><path class="cls-3" d="M658.83,2366.36v-29.81h5V2344h2.28a10.79,10.79,0,0,1,1-2.4,13.23,13.23,0,0,1,2-2.53,9.85,9.85,0,0,1,3.6-2.2,14.62,14.62,0,0,1,5.18-.85v6.33h-3.47a4.94,4.94,0,0,0-3.82,1.25c-.76.84-1.14,2.37-1.14,4.62h-5.65v18.18Z"/><path class="cls-3" d="M694.22,2366.93a13.51,13.51,0,0,1-10.17-4.19,14.81,14.81,0,0,1-4-10.69,16.71,16.71,0,0,1,4.08-11.43,12.92,12.92,0,0,1,10.11-4.64,12.29,12.29,0,0,1,9.52,4.3,15.22,15.22,0,0,1,3.88,10.58v2.1h-22v1.32q0,4.32,2,6.27t6.58,1.93a9.26,9.26,0,0,0,5.36-1.25,5.51,5.51,0,0,0,2.11-4.05h5.82a14.44,14.44,0,0,1-5.28,7A13.36,13.36,0,0,1,694.22,2366.93Zm-8.6-18.18H702V2348q0-4-1.76-5.81t-6-1.77c-3,0-5.15.62-6.55,1.86s-2.11,3.18-2.11,5.84Z"/><path class="cls-3" d="M725.06,2366.93a14,14,0,0,1-8.63-2.62,9.54,9.54,0,0,1-4-6.84h5.31c.11,1.9.69,3.21,1.73,3.93s2.86,1.08,5.45,1.08c4.6,0,6.89-1.29,6.89-3.87v-1.26a2.73,2.73,0,0,0-1-2.31,7.4,7.4,0,0,0-3.42-1.05l-5.59-.57a9.73,9.73,0,0,1-6.15-2.56,7.56,7.56,0,0,1-2.17-5.59,8.27,8.27,0,0,1,3.36-6.5,11.87,11.87,0,0,1,7.81-2.79,12.61,12.61,0,0,1,8,2.56,10,10,0,0,1,3.88,6.9h-5.3c-.08-1.86-.59-3.16-1.54-3.9s-2.59-1.12-4.9-1.12a9.55,9.55,0,0,0-4.73.89,3.1,3.1,0,0,0-1.49,2.88v1.14a2.89,2.89,0,0,0,1,2.39,6.34,6.34,0,0,0,3.22,1l5.47.57a10.26,10.26,0,0,1,6.33,2.59,7.39,7.39,0,0,1,2.28,5.56,8.41,8.41,0,0,1-3.42,6.64A12.73,12.73,0,0,1,725.06,2366.93Z"/><path class="cls-3" d="M755.21,2366.64a9.09,9.09,0,0,1-6.52-2.33,8,8,0,0,1-2.48-6.16v-17.38h-6.5v-4.22h6.5v-11.12h5v11.12h8.55v4.22h-8.55v17.95q0,3.42,3.42,3.42h4.56v4.5Z"/><path class="cls-3" d="M773.8,2366.93a9.24,9.24,0,0,1-6.81-2.62,8.78,8.78,0,0,1-2.65-6.5,7.36,7.36,0,0,1,3.13-6.1,13,13,0,0,1,8.15-2.39h8.55v-2.68c0-2.47-.46-4.13-1.4-5s-2.7-1.26-5.33-1.26-4.59.41-5.58,1.23-1.54,2.48-1.65,5h-5.13a12,12,0,0,1,4.16-7.81,12.65,12.65,0,0,1,8.38-2.85,12,12,0,0,1,8.43,2.88c2.09,1.92,3.14,4.6,3.14,8.06v19.44h-5v-3.76h-2.28A9.22,9.22,0,0,1,773.8,2366.93Zm.85-4.45c3.42,0,5.3-1.36,5.65-4.1h3.87v-4.85h-9.86c-3,0-4.56,1.13-4.56,3.37v1.59a3.78,3.78,0,0,0,1.11,3.05A5.91,5.91,0,0,0,774.65,2362.48Z"/><path class="cls-3" d="M797.28,2366.36v-29.81h5v5.58h2.22a11.55,11.55,0,0,1,3.9-4.56,9.52,9.52,0,0,1,5.33-1.59,9.3,9.3,0,0,1,7,2.82,9.93,9.93,0,0,1,2.73,7.21v20.35h-5V2346a6,6,0,0,0-1.26-4.27,5.44,5.44,0,0,0-4.1-1.32,5.9,5.9,0,0,0-4.28,1.4c-.95.93-1.42,2.44-1.42,4.53H802.3v20Z"/><path class="cls-3" d="M843.05,2366.64a9.13,9.13,0,0,1-6.53-2.33,8.08,8.08,0,0,1-2.47-6.16v-17.38h-6.5v-4.22h6.5v-11.12h5v11.12h8.55v4.22h-8.55v17.95q0,3.42,3.42,3.42H847v4.5Z"/><path class="cls-3" d="M859.41,2331.73a3.65,3.65,0,0,1-2.74,1.11,3.93,3.93,0,0,1-2.76-6.67,3.8,3.8,0,0,1,2.76-1.08,3.71,3.71,0,0,1,2.74,1.08,4.12,4.12,0,0,1,0,5.56Zm-5.24,34.63v-29.81h5v29.81Z"/><circle class="cls-3" cx="105.24" cy="1946.42" r="31.38"/><circle class="cls-3" cx="170.56" cy="1946.42" r="31.38"/><circle class="cls-3" cx="235.89" cy="1946.42" r="31.38"/><circle class="cls-3" cx="301.21" cy="1946.42" r="31.38"/><circle class="cls-3" cx="366.53" cy="1946.42" r="31.38"/><circle class="cls-3" cx="431.85" cy="1946.42" r="31.38"/><circle class="cls-3" cx="497.18" cy="1946.42" r="31.38"/><circle class="cls-3" cx="562.5" cy="1946.42" r="31.38"/><circle class="cls-3" cx="627.82" cy="1946.42" r="31.38"/><circle class="cls-3" cx="693.15" cy="1946.42" r="31.38"/><circle class="cls-3" cx="758.47" cy="1946.42" r="31.38"/><circle class="cls-3" cx="823.79" cy="1946.42" r="31.38"/><circle class="cls-3" cx="889.11" cy="1946.42" r="31.38"/><circle class="cls-3" cx="954.44" cy="1946.42" r="31.38"/><circle class="cls-3" cx="1019.76" cy="1946.42" r="31.38"/><circle class="cls-3" cx="105.24" cy="1881.1" r="31.38"/><circle class="cls-3" cx="170.56" cy="1881.1" r="31.38"/><circle class="cls-3" cx="235.89" cy="1881.1" r="31.38"/><circle class="cls-3" cx="301.21" cy="1881.1" r="31.38"/><circle class="cls-3" cx="366.53" cy="1881.1" r="31.38"/><circle class="cls-3" cx="431.85" cy="1881.1" r="31.38"/><circle class="cls-3" cx="497.18" cy="1881.1" r="31.38"/><circle class="cls-3" cx="562.5" cy="1881.1" r="31.38"/><circle class="cls-3" cx="627.82" cy="1881.1" r="31.38"/><circle class="cls-3" cx="693.15" cy="1881.1" r="31.38"/><circle class="cls-3" cx="758.47" cy="1881.1" r="31.38"/><circle class="cls-3" cx="823.79" cy="1881.1" r="31.38"/><circle class="cls-3" cx="889.11" cy="1881.1" r="31.38"/><circle class="cls-3" cx="954.44" cy="1881.1" r="31.38"/><circle class="cls-3" cx="1019.76" cy="1881.1" r="31.38"/><circle class="cls-3" cx="105.24" cy="1815.78" r="31.38"/><circle class="cls-3" cx="170.56" cy="1815.78" r="31.38"/><circle class="cls-3" cx="235.89" cy="1815.78" r="31.38"/><circle class="cls-3" cx="301.21" cy="1815.78" r="31.38"/><circle class="cls-3" cx="366.53" cy="1815.78" r="31.38"/><circle class="cls-3" cx="431.85" cy="1815.78" r="31.38"/><circle class="cls-3" cx="497.18" cy="1815.78" r="31.38"/><circle class="cls-3" cx="562.5" cy="1815.78" r="31.38"/><circle class="cls-3" cx="627.82" cy="1815.78" r="31.38"/><circle class="cls-3" cx="693.15" cy="1815.78" r="31.38"/><circle class="cls-3" cx="758.47" cy="1815.78" r="31.38"/><circle class="cls-3" cx="823.79" cy="1815.78" r="31.38"/><circle class="cls-3" cx="889.11" cy="1815.78" r="31.38"/><circle class="cls-3" cx="954.44" cy="1815.78" r="31.38"/><circle class="cls-3" cx="1019.76" cy="1815.78" r="31.38"/><circle class="cls-3" cx="105.24" cy="1750.46" r="31.38"/><circle class="cls-3" cx="170.56" cy="1750.46" r="31.38"/><circle class="cls-3" cx="235.89" cy="1750.46" r="31.38"/><circle class="cls-3" cx="301.21" cy="1750.46" r="31.38"/><circle class="cls-3" cx="366.53" cy="1750.46" r="31.38"/><circle class="cls-3" cx="431.85" cy="1750.46" r="31.38"/><circle class="cls-3" cx="497.18" cy="1750.46" r="31.38"/><circle class="cls-3" cx="562.5" cy="1750.46" r="31.38"/><circle class="cls-3" cx="627.82" cy="1750.46" r="31.38"/><circle class="cls-3" cx="693.15" cy="1750.46" r="31.38"/><circle class="cls-3" cx="758.47" cy="1750.46" r="31.38"/><circle class="cls-3" cx="823.79" cy="1750.46" r="31.38"/><circle class="cls-3" cx="889.11" cy="1750.46" r="31.38"/><circle class="cls-3" cx="954.44" cy="1750.46" r="31.38"/><circle class="cls-3" cx="1019.76" cy="1750.46" r="31.38"/><circle class="cls-3" cx="105.24" cy="1685.13" r="31.38"/><circle class="cls-3" cx="170.56" cy="1685.13" r="31.38"/><circle class="cls-3" cx="235.89" cy="1685.13" r="31.38"/><circle class="cls-3" cx="301.21" cy="1685.13" r="31.38"/><circle class="cls-3" cx="366.53" cy="1685.13" r="31.38"/><circle class="cls-3" cx="431.85" cy="1685.13" r="31.38"/><circle class="cls-3" cx="497.18" cy="1685.13" r="31.38"/><circle class="cls-3" cx="562.5" cy="1685.13" r="31.38"/><circle class="cls-3" cx="627.82" cy="1685.13" r="31.38"/><circle class="cls-3" cx="693.15" cy="1685.13" r="31.38"/><circle class="cls-3" cx="758.47" cy="1685.13" r="31.38"/><circle class="cls-3" cx="823.79" cy="1685.13" r="31.38"/><circle class="cls-3" cx="889.11" cy="1685.13" r="31.38"/><circle class="cls-3" cx="954.44" cy="1685.13" r="31.38"/><circle class="cls-3" cx="1019.76" cy="1685.13" r="31.38"/><circle class="cls-3" cx="105.24" cy="1619.81" r="31.38"/><circle class="cls-3" cx="170.56" cy="1619.81" r="31.38"/><circle class="cls-3" cx="235.89" cy="1619.81" r="31.38"/><circle class="cls-3" cx="301.21" cy="1619.81" r="31.38"/><circle class="cls-3" cx="366.53" cy="1619.81" r="31.38"/><circle class="cls-3" cx="431.85" cy="1619.81" r="31.38"/><circle class="cls-3" cx="497.18" cy="1619.81" r="31.38"/><circle class="cls-3" cx="562.5" cy="1619.81" r="31.38"/><circle class="cls-3" cx="627.82" cy="1619.81" r="31.38"/><circle class="cls-3" cx="693.15" cy="1619.81" r="31.38"/><circle class="cls-3" cx="758.47" cy="1619.81" r="31.38"/><circle class="cls-3" cx="823.79" cy="1619.81" r="31.38"/><circle class="cls-3" cx="889.11" cy="1619.81" r="31.38"/><circle class="cls-3" cx="954.44" cy="1619.81" r="31.38"/><circle class="cls-3" cx="1019.76" cy="1619.81" r="31.38"/><circle class="cls-3" cx="105.24" cy="1554.49" r="31.38"/><circle class="cls-3" cx="170.56" cy="1554.49" r="31.38"/><circle class="cls-3" cx="235.89" cy="1554.49" r="31.38"/><circle class="cls-3" cx="301.21" cy="1554.49" r="31.38"/><circle class="cls-3" cx="366.53" cy="1554.49" r="31.38"/><circle class="cls-3" cx="431.85" cy="1554.49" r="31.38"/><circle class="cls-3" cx="497.18" cy="1554.49" r="31.38"/><circle class="cls-3" cx="562.5" cy="1554.49" r="31.38"/><circle class="cls-3" cx="627.82" cy="1554.49" r="31.38"/><circle class="cls-3" cx="693.15" cy="1554.49" r="31.38"/><circle class="cls-3" cx="758.47" cy="1554.49" r="31.38"/><circle class="cls-3" cx="823.79" cy="1554.49" r="31.38"/><circle class="cls-3" cx="889.11" cy="1554.49" r="31.38"/><circle class="cls-3" cx="954.44" cy="1554.49" r="31.38"/><circle class="cls-3" cx="1019.76" cy="1554.49" r="31.38"/><circle class="cls-3" cx="105.24" cy="1489.16" r="31.38"/><circle class="cls-3" cx="170.56" cy="1489.16" r="31.38"/><circle class="cls-3" cx="235.89" cy="1489.16" r="31.38"/><circle class="cls-3" cx="301.21" cy="1489.16" r="31.38"/><circle class="cls-3" cx="366.53" cy="1489.16" r="31.38"/><circle class="cls-3" cx="431.85" cy="1489.16" r="31.38"/><circle class="cls-3" cx="497.18" cy="1489.16" r="31.38"/><circle class="cls-3" cx="562.5" cy="1489.16" r="31.38"/><circle class="cls-3" cx="627.82" cy="1489.16" r="31.38"/><circle class="cls-3" cx="693.15" cy="1489.16" r="31.38"/><circle class="cls-3" cx="758.47" cy="1489.16" r="31.38"/><circle class="cls-3" cx="823.79" cy="1489.16" r="31.38"/><circle class="cls-3" cx="889.11" cy="1489.16" r="31.38"/><circle class="cls-3" cx="954.44" cy="1489.16" r="31.38"/><circle class="cls-3" cx="1019.76" cy="1489.16" r="31.38"/><circle class="cls-3" cx="105.24" cy="1423.84" r="31.38"/><circle class="cls-3" cx="170.56" cy="1423.84" r="31.38"/><circle class="cls-3" cx="235.89" cy="1423.84" r="31.38"/><circle class="cls-3" cx="301.21" cy="1423.84" r="31.38"/><circle class="cls-3" cx="366.53" cy="1423.84" r="31.38"/><circle class="cls-3" cx="431.85" cy="1423.84" r="31.38"/><circle class="cls-3" cx="497.18" cy="1423.84" r="31.38"/><circle class="cls-3" cx="562.5" cy="1423.84" r="31.38"/><circle class="cls-3" cx="627.82" cy="1423.84" r="31.38"/><circle class="cls-3" cx="693.15" cy="1423.84" r="31.38"/><circle class="cls-3" cx="758.47" cy="1423.84" r="31.38"/><circle class="cls-3" cx="823.79" cy="1423.84" r="31.38"/><circle class="cls-3" cx="889.11" cy="1423.84" r="31.38"/><circle class="cls-3" cx="954.44" cy="1423.84" r="31.38"/><circle class="cls-3" cx="1019.76" cy="1423.84" r="31.38"/><circle class="cls-3" cx="105.24" cy="1355.52" r="31.38"/><circle class="cls-3" cx="170.56" cy="1355.52" r="31.38"/><circle class="cls-3" cx="235.89" cy="1355.52" r="31.38"/><circle class="cls-3" cx="301.21" cy="1355.52" r="31.38"/><circle class="cls-3" cx="366.53" cy="1355.52" r="31.38"/><circle class="cls-3" cx="431.85" cy="1355.52" r="31.38"/><circle class="cls-3" cx="497.18" cy="1355.52" r="31.38"/><circle class="cls-3" cx="562.5" cy="1355.52" r="31.38"/><circle class="cls-3" cx="627.82" cy="1355.52" r="31.38"/><circle class="cls-3" cx="693.15" cy="1355.52" r="31.38"/><circle class="cls-3" cx="758.47" cy="1355.52" r="31.38"/><circle class="cls-3" cx="823.79" cy="1355.52" r="31.38"/><circle class="cls-3" cx="889.11" cy="1355.52" r="31.38"/><circle class="cls-3" cx="954.44" cy="1355.52" r="31.38"/><circle class="cls-3" cx="1019.76" cy="1355.52" r="31.38"/><circle class="cls-3" cx="105.24" cy="1290.2" r="31.38"/><circle class="cls-3" cx="170.56" cy="1290.2" r="31.38"/><circle class="cls-3" cx="235.89" cy="1290.2" r="31.38"/><circle class="cls-3" cx="301.21" cy="1290.2" r="31.38"/><circle class="cls-3" cx="366.53" cy="1290.2" r="31.38"/><circle class="cls-3" cx="431.85" cy="1290.2" r="31.38"/><circle class="cls-3" cx="497.18" cy="1290.2" r="31.38"/><circle class="cls-3" cx="562.5" cy="1290.2" r="31.38"/><circle class="cls-3" cx="627.82" cy="1290.2" r="31.38"/><circle class="cls-3" cx="693.15" cy="1290.2" r="31.38"/><circle class="cls-3" cx="758.47" cy="1290.2" r="31.38"/><circle class="cls-3" cx="823.79" cy="1290.2" r="31.38"/><circle class="cls-3" cx="889.11" cy="1290.2" r="31.38"/><circle class="cls-3" cx="954.44" cy="1290.2" r="31.38"/><circle class="cls-3" cx="1019.76" cy="1290.2" r="31.38"/><circle class="cls-3" cx="105.24" cy="1224.87" r="31.38"/><circle class="cls-3" cx="170.56" cy="1224.87" r="31.38"/><circle class="cls-3" cx="235.89" cy="1224.87" r="31.38"/><circle class="cls-3" cx="301.21" cy="1224.87" r="31.38"/><circle class="cls-3" cx="366.53" cy="1224.87" r="31.38"/><circle class="cls-3" cx="431.85" cy="1224.87" r="31.38"/><circle class="cls-3" cx="497.18" cy="1224.87" r="31.38"/><circle class="cls-3" cx="562.5" cy="1224.87" r="31.38"/><circle class="cls-3" cx="627.82" cy="1224.87" r="31.38"/><circle class="cls-3" cx="693.15" cy="1224.87" r="31.38"/><circle class="cls-3" cx="758.47" cy="1224.87" r="31.38"/><circle class="cls-3" cx="823.79" cy="1224.87" r="31.38"/><circle class="cls-3" cx="889.11" cy="1224.87" r="31.38"/><circle class="cls-3" cx="954.44" cy="1224.87" r="31.38"/><circle class="cls-3" cx="1019.76" cy="1224.87" r="31.38"/><circle class="cls-3" cx="105.24" cy="1159.55" r="31.38"/><circle class="cls-3" cx="170.56" cy="1159.55" r="31.38"/><circle class="cls-3" cx="235.89" cy="1159.55" r="31.38"/><circle class="cls-3" cx="301.21" cy="1159.55" r="31.38"/><circle class="cls-3" cx="366.53" cy="1159.55" r="31.38"/><circle class="cls-3" cx="431.85" cy="1159.55" r="31.38"/><circle class="cls-3" cx="497.18" cy="1159.55" r="31.38"/><circle class="cls-3" cx="562.5" cy="1159.55" r="31.38"/><circle class="cls-3" cx="627.82" cy="1159.55" r="31.38"/><circle class="cls-3" cx="693.15" cy="1159.55" r="31.38"/><circle class="cls-3" cx="758.47" cy="1159.55" r="31.38"/><circle class="cls-3" cx="823.79" cy="1159.55" r="31.38"/><circle class="cls-3" cx="889.11" cy="1159.55" r="31.38"/><circle class="cls-3" cx="954.44" cy="1159.55" r="31.38"/><circle class="cls-3" cx="1019.76" cy="1159.55" r="31.38"/><circle class="cls-3" cx="105.24" cy="1094.23" r="31.38"/><circle class="cls-3" cx="170.56" cy="1094.23" r="31.38"/><circle class="cls-3" cx="235.89" cy="1094.23" r="31.38"/><circle class="cls-3" cx="301.21" cy="1094.23" r="31.38"/><circle class="cls-3" cx="366.53" cy="1094.23" r="31.38"/><circle class="cls-3" cx="431.85" cy="1094.23" r="31.38"/><circle class="cls-3" cx="497.18" cy="1094.23" r="31.38"/><circle class="cls-3" cx="562.5" cy="1094.23" r="31.38"/><circle class="cls-3" cx="627.82" cy="1094.23" r="31.38"/><circle class="cls-3" cx="693.15" cy="1094.23" r="31.38"/><circle class="cls-3" cx="758.47" cy="1094.23" r="31.38"/><circle class="cls-3" cx="823.79" cy="1094.23" r="31.38"/><circle class="cls-3" cx="889.11" cy="1094.23" r="31.38"/><circle class="cls-3" cx="954.44" cy="1094.23" r="31.38"/><circle class="cls-3" cx="1019.76" cy="1094.23" r="31.38"/><circle class="cls-3" cx="105.24" cy="1028.9" r="31.38"/><circle class="cls-3" cx="170.56" cy="1028.9" r="31.38"/><circle class="cls-3" cx="235.89" cy="1028.9" r="31.38"/><circle class="cls-3" cx="301.21" cy="1028.9" r="31.38"/><circle class="cls-3" cx="366.53" cy="1028.9" r="31.38"/><circle class="cls-3" cx="431.85" cy="1028.9" r="31.38"/><circle class="cls-3" cx="497.18" cy="1028.9" r="31.38"/><circle class="cls-3" cx="562.5" cy="1028.9" r="31.38"/><circle class="cls-3" cx="627.82" cy="1028.9" r="31.38"/><circle class="cls-3" cx="693.15" cy="1028.9" r="31.38"/><circle class="cls-3" cx="758.47" cy="1028.9" r="31.38"/><circle class="cls-3" cx="823.79" cy="1028.9" r="31.38"/><circle class="cls-3" cx="889.11" cy="1028.9" r="31.38"/><circle class="cls-3" cx="954.44" cy="1028.9" r="31.38"/><circle class="cls-3" cx="1019.76" cy="1028.9" r="31.38"/><circle class="cls-3" cx="105.24" cy="963.58" r="31.38"/><circle class="cls-3" cx="170.56" cy="963.58" r="31.38"/><circle class="cls-3" cx="235.89" cy="963.58" r="31.38"/><circle class="cls-3" cx="301.21" cy="963.58" r="31.38"/><circle class="cls-3" cx="366.53" cy="963.58" r="31.38"/><circle class="cls-3" cx="431.85" cy="963.58" r="31.38"/><circle class="cls-3" cx="497.18" cy="963.58" r="31.38"/><circle class="cls-3" cx="562.5" cy="963.58" r="31.38"/><circle class="cls-3" cx="627.82" cy="963.58" r="31.38"/><circle class="cls-3" cx="693.15" cy="963.58" r="31.38"/><circle class="cls-3" cx="758.47" cy="963.58" r="31.38"/><circle class="cls-3" cx="823.79" cy="963.58" r="31.38"/><circle class="cls-3" cx="889.11" cy="963.58" r="31.38"/><circle class="cls-3" cx="954.44" cy="963.58" r="31.38"/><circle class="cls-3" cx="1019.76" cy="963.58" r="31.38"/><circle class="cls-3" cx="105.24" cy="898.26" r="31.38"/><circle class="cls-3" cx="170.56" cy="898.26" r="31.38"/><circle class="cls-3" cx="235.89" cy="898.26" r="31.38"/><circle class="cls-3" cx="301.21" cy="898.26" r="31.38"/><circle class="cls-3" cx="366.53" cy="898.26" r="31.38"/><circle class="cls-3" cx="431.85" cy="898.26" r="31.38"/><circle class="cls-3" cx="497.18" cy="898.26" r="31.38"/><circle class="cls-3" cx="562.5" cy="898.26" r="31.38"/><circle class="cls-3" cx="627.82" cy="898.26" r="31.38"/><circle class="cls-3" cx="693.15" cy="898.26" r="31.38"/><circle class="cls-3" cx="758.47" cy="898.26" r="31.38"/><circle class="cls-3" cx="823.79" cy="898.26" r="31.38"/><circle class="cls-3" cx="889.11" cy="898.26" r="31.38"/><circle class="cls-3" cx="954.44" cy="898.26" r="31.38"/><circle class="cls-3" cx="1019.76" cy="898.26" r="31.38"/><circle class="cls-2" cx="105.24" cy="832.94" r="31.38"/><circle class="cls-2" cx="170.56" cy="832.94" r="31.38"/><circle class="cls-2" cx="235.89" cy="832.94" r="31.38"/><circle class="cls-2" cx="301.21" cy="832.94" r="31.38"/><circle class="cls-2" cx="366.53" cy="832.94" r="31.38"/><circle class="cls-2" cx="431.85" cy="832.94" r="31.38"/><circle class="cls-2" cx="497.18" cy="832.94" r="31.38"/><circle class="cls-2" cx="562.5" cy="832.94" r="31.38"/><circle class="cls-2" cx="627.82" cy="832.94" r="31.38"/><circle class="cls-2" cx="693.15" cy="832.94" r="31.38"/><circle class="cls-2" cx="758.47" cy="832.94" r="31.38"/><circle class="cls-2" cx="823.79" cy="832.94" r="31.38"/><circle class="cls-2" cx="889.11" cy="832.94" r="31.38"/><circle class="cls-2" cx="954.44" cy="832.94" r="31.38"/><circle class="cls-3" cx="1019.76" cy="832.94" r="31.38"/><circle class="cls-2" cx="105.24" cy="770.61" r="31.38"/><circle class="cls-2" cx="170.56" cy="770.61" r="31.38"/><circle class="cls-2" cx="235.89" cy="770.61" r="31.38"/><circle class="cls-2" cx="301.21" cy="770.61" r="31.38"/><circle class="cls-2" cx="366.53" cy="770.61" r="31.38"/><circle class="cls-2" cx="431.85" cy="770.61" r="31.38"/><circle class="cls-2" cx="497.18" cy="770.61" r="31.38"/><circle class="cls-2" cx="562.5" cy="770.61" r="31.38"/><circle class="cls-2" cx="627.82" cy="770.61" r="31.38"/><circle class="cls-2" cx="693.15" cy="770.61" r="31.38"/><circle class="cls-2" cx="758.47" cy="770.61" r="31.38"/><circle class="cls-2" cx="823.79" cy="770.61" r="31.38"/><circle class="cls-2" cx="889.11" cy="770.61" r="31.38"/><circle class="cls-2" cx="954.44" cy="770.61" r="31.38"/><circle class="cls-2" cx="1019.76" cy="770.61" r="31.38"/><circle class="cls-2" cx="105.24" cy="705.29" r="31.38"/><circle class="cls-2" cx="170.56" cy="705.29" r="31.38"/><circle class="cls-2" cx="235.89" cy="705.29" r="31.38"/><circle class="cls-2" cx="301.21" cy="705.29" r="31.38"/><circle class="cls-2" cx="366.53" cy="705.29" r="31.38"/><circle class="cls-2" cx="431.85" cy="705.29" r="31.38"/><circle class="cls-2" cx="497.18" cy="705.29" r="31.38"/><circle class="cls-2" cx="562.5" cy="705.29" r="31.38"/><circle class="cls-2" cx="627.82" cy="705.29" r="31.38"/><circle class="cls-2" cx="693.15" cy="705.29" r="31.38"/><circle class="cls-2" cx="758.47" cy="705.29" r="31.38"/><circle class="cls-2" cx="823.79" cy="705.29" r="31.38"/><circle class="cls-2" cx="889.11" cy="705.29" r="31.38"/><circle class="cls-2" cx="954.44" cy="705.29" r="31.38"/><circle class="cls-2" cx="1019.76" cy="705.29" r="31.38"/><circle class="cls-2" cx="105.24" cy="639.97" r="31.38"/><circle class="cls-2" cx="170.56" cy="639.97" r="31.38"/><circle class="cls-2" cx="235.89" cy="639.97" r="31.38"/><circle class="cls-2" cx="301.21" cy="639.97" r="31.38"/><circle class="cls-2" cx="366.53" cy="639.97" r="31.38"/><circle class="cls-2" cx="431.85" cy="639.97" r="31.38"/><circle class="cls-2" cx="497.18" cy="639.97" r="31.38"/><circle class="cls-2" cx="562.5" cy="639.97" r="31.38"/><circle class="cls-2" cx="627.82" cy="639.97" r="31.38"/><circle class="cls-2" cx="693.15" cy="639.97" r="31.38"/><circle class="cls-2" cx="758.47" cy="639.97" r="31.38"/><circle class="cls-2" cx="823.79" cy="639.97" r="31.38"/><circle class="cls-2" cx="889.11" cy="639.97" r="31.38"/><circle class="cls-2" cx="954.44" cy="639.97" r="31.38"/><circle class="cls-2" cx="1019.76" cy="639.97" r="31.38"/><circle class="cls-2" cx="105.24" cy="574.64" r="31.38"/><circle class="cls-2" cx="170.56" cy="574.64" r="31.38"/><circle class="cls-2" cx="235.89" cy="574.64" r="31.38"/><circle class="cls-2" cx="301.21" cy="574.64" r="31.38"/><circle class="cls-2" cx="366.53" cy="574.64" r="31.38"/><circle class="cls-2" cx="431.85" cy="574.64" r="31.38"/><circle class="cls-2" cx="497.18" cy="574.64" r="31.38"/><circle class="cls-2" cx="562.5" cy="574.64" r="31.38"/><circle class="cls-2" cx="627.82" cy="574.64" r="31.38"/><circle class="cls-2" cx="693.15" cy="574.64" r="31.38"/><circle class="cls-2" cx="758.47" cy="574.64" r="31.38"/><circle class="cls-2" cx="823.79" cy="574.64" r="31.38"/><circle class="cls-2" cx="889.11" cy="574.64" r="31.38"/><circle class="cls-2" cx="954.44" cy="574.64" r="31.38"/><circle class="cls-2" cx="1019.76" cy="574.64" r="31.38"/><circle class="cls-2" cx="105.24" cy="509.32" r="31.38"/><circle class="cls-2" cx="170.56" cy="509.32" r="31.38"/><circle class="cls-2" cx="235.89" cy="509.32" r="31.38"/><circle class="cls-2" cx="301.21" cy="509.32" r="31.38"/><circle class="cls-2" cx="366.53" cy="509.32" r="31.38"/><circle class="cls-2" cx="431.85" cy="509.32" r="31.38"/><circle class="cls-2" cx="497.18" cy="509.32" r="31.38"/><circle class="cls-2" cx="562.5" cy="509.32" r="31.38"/><circle class="cls-2" cx="627.82" cy="509.32" r="31.38"/><circle class="cls-2" cx="693.15" cy="509.32" r="31.38"/><circle class="cls-2" cx="758.47" cy="509.32" r="31.38"/><circle class="cls-2" cx="823.79" cy="509.32" r="31.38"/><circle class="cls-2" cx="889.11" cy="509.32" r="31.38"/><circle class="cls-2" cx="954.44" cy="509.32" r="31.38"/><circle class="cls-2" cx="1019.76" cy="509.32" r="31.38"/><circle class="cls-2" cx="105.24" cy="444" r="31.38"/><circle class="cls-2" cx="170.56" cy="444" r="31.38"/><circle class="cls-2" cx="235.89" cy="444" r="31.38"/><circle class="cls-2" cx="301.21" cy="444" r="31.38"/><circle class="cls-2" cx="366.53" cy="444" r="31.38"/><circle class="cls-2" cx="431.85" cy="444" r="31.38"/><circle class="cls-2" cx="497.18" cy="444" r="31.38"/><circle class="cls-2" cx="562.5" cy="444" r="31.38"/><circle class="cls-2" cx="627.82" cy="444" r="31.38"/><circle class="cls-2" cx="693.15" cy="444" r="31.38"/><circle class="cls-2" cx="758.47" cy="444" r="31.38"/><circle class="cls-2" cx="823.79" cy="444" r="31.38"/><circle class="cls-2" cx="889.11" cy="444" r="31.38"/><circle class="cls-2" cx="954.44" cy="444" r="31.38"/><circle class="cls-2" cx="1019.76" cy="444" r="31.38"/><circle class="cls-2" cx="105.24" cy="378.68" r="31.38"/><circle class="cls-2" cx="170.56" cy="378.68" r="31.38"/><circle class="cls-2" cx="235.89" cy="378.68" r="31.38"/><circle class="cls-2" cx="301.21" cy="378.68" r="31.38"/><circle class="cls-2" cx="366.53" cy="378.68" r="31.38"/><circle class="cls-2" cx="431.85" cy="378.68" r="31.38"/><path d="M426.44,390.71,422.63,388l3.29-4.65,1.68-1.42-.77-2.45-2.26-.25-5.36-1.75,1.42-4.38,5.35,1.67,1.88,1.17,2.06-1.49-.45-2.26v-5.54h4.77v5.54l-.45,2.26,2.07,1.49,1.86-1.17,5.36-1.67,1.42,4.38-5.36,1.75-2.25.25-.78,2.45,1.68,1.42,3.29,4.65-3.8,2.71-3.3-4.45-.84-2.07h-2.58l-.83,2.07Z"/><path class="cls-3" d="M518.67,379.36,515.29,377l2.93-4.12,1.49-1.27-.69-2.18-2-.22-4.76-1.55,1.26-3.9,4.76,1.49,1.67,1,1.83-1.32-.4-2V358h4.24v4.93l-.4,2,1.84,1.32,1.66-1,4.76-1.49,1.26,3.9L530,369.16l-2,.22-.69,2.18,1.49,1.27L531.7,377l-3.39,2.41-2.92-3.95-.75-1.84h-2.29l-.75,1.84Z"/><path class="cls-3" d="M549.42,399.72a9.35,9.35,0,0,1-6.86-2.64,8.78,8.78,0,0,1-2.66-6.53,7.42,7.42,0,0,1,3.15-6.14,13.18,13.18,0,0,1,8.2-2.41h8.6v-2.69c0-2.49-.46-4.15-1.4-5s-2.72-1.27-5.36-1.27-4.63.42-5.62,1.24-1.55,2.49-1.67,5h-5.16a12.13,12.13,0,0,1,4.19-7.86,12.72,12.72,0,0,1,8.43-2.87,12.08,12.08,0,0,1,8.49,2.9q3.15,2.89,3.15,8.11v19.56h-5v-3.79h-2.29A9.26,9.26,0,0,1,549.42,399.72Zm.86-4.47q5.16,0,5.68-4.13h3.89v-4.88h-9.92q-4.59,0-4.59,3.39v1.61a3.82,3.82,0,0,0,1.12,3.06A5.92,5.92,0,0,0,550.28,395.25Z"/><path class="cls-3" d="M573.05,399.15v-30h5v5.62h2.24a11.41,11.41,0,0,1,3.93-4.59,9.53,9.53,0,0,1,5.36-1.61,9.31,9.31,0,0,1,7,2.84,10,10,0,0,1,2.76,7.25v20.48h-5V378.67a6.1,6.1,0,0,0-1.26-4.3,5.52,5.52,0,0,0-4.13-1.32,5.89,5.89,0,0,0-4.3,1.41c-1,.94-1.43,2.46-1.43,4.56h-5.11v20.13Z"/><path class="cls-3" d="M607.51,399.15v-30h5v5.62h2.23a11.57,11.57,0,0,1,3.93-4.59,9.59,9.59,0,0,1,5.37-1.61,9.33,9.33,0,0,1,7,2.84,10,10,0,0,1,2.76,7.25v20.48h-5.05V378.67a6.1,6.1,0,0,0-1.26-4.3,5.52,5.52,0,0,0-4.13-1.32,5.89,5.89,0,0,0-4.3,1.41q-1.44,1.41-1.44,4.56h-5.1v20.13Z"/><path class="cls-3" d="M664.32,395.22a13.64,13.64,0,0,1-20.25,0,17,17,0,0,1,0-22.17,13.7,13.7,0,0,1,20.25,0,17,17,0,0,1,0,22.17Zm-16.69-2.06c1.35,1.39,3.55,2.09,6.57,2.09s5.21-.7,6.56-2.09,2-3.65,2-6.74v-4.59c0-3.06-.68-5.28-2-6.68s-3.55-2.1-6.56-2.1-5.22.7-6.57,2.1-2,3.62-2,6.68v4.59Q645.59,391.05,647.63,393.16Z"/><path class="cls-3" d="M719.4,399.67a10.44,10.44,0,0,1-5.65-1.73,11.07,11.07,0,0,1-4.1-4.47h-2.29v5.68h-5.05V358h5.05v16.81h2.29a11.16,11.16,0,0,1,4.1-4.48,10.51,10.51,0,0,1,5.65-1.72,11.28,11.28,0,0,1,9.09,4.7,17.73,17.73,0,0,1,0,21.68A11.27,11.27,0,0,1,719.4,399.67Zm0-4.48c2.53,0,4.35-.7,5.48-2.09s1.69-3.64,1.69-6.74v-4.47c0-3.1-.56-5.34-1.69-6.74s-3-2.1-5.48-2.1q-6.42,0-7,6h-5v10.21h5Q713,395.2,719.4,395.19Z"/><path class="cls-3" d="M744.06,364.31a3.69,3.69,0,0,1-2.75,1.12,3.8,3.8,0,0,1-2.78-1.12,3.76,3.76,0,0,1-1.12-2.78,3.72,3.72,0,0,1,1.12-2.81,3.82,3.82,0,0,1,2.78-1.09,3.7,3.7,0,0,1,2.75,1.09,3.77,3.77,0,0,1,1.09,2.81A3.82,3.82,0,0,1,744.06,364.31Zm-5.27,34.84v-30h5.05v30Z"/><path class="cls-3" d="M763.39,399.72a14.09,14.09,0,0,1-8.69-2.64,9.57,9.57,0,0,1-4-6.88h5.34c.11,1.92.7,3.23,1.75,4s2.87,1.09,5.48,1.09c4.62,0,6.94-1.3,6.94-3.9v-1.26a2.71,2.71,0,0,0-1-2.32,7.35,7.35,0,0,0-3.44-1.07l-5.62-.57a9.86,9.86,0,0,1-6.19-2.58,7.58,7.58,0,0,1-2.18-5.62,8.34,8.34,0,0,1,3.38-6.54,12,12,0,0,1,7.86-2.81,12.73,12.73,0,0,1,8,2.58,10.1,10.1,0,0,1,3.9,6.94h-5.33a5,5,0,0,0-1.55-3.93c-1-.74-2.61-1.12-4.94-1.12a9.71,9.71,0,0,0-4.76.89,3.13,3.13,0,0,0-1.49,2.9V378a2.91,2.91,0,0,0,1,2.41,6.29,6.29,0,0,0,3.24,1l5.5.57a10.36,10.36,0,0,1,6.37,2.61,7.43,7.43,0,0,1,2.29,5.59,8.43,8.43,0,0,1-3.44,6.68A12.76,12.76,0,0,1,763.39,399.72Z"/><path class="cls-3" d="M794.13,399.72a13.59,13.59,0,0,1-10.24-4.21,14.93,14.93,0,0,1-4-10.75,16.87,16.87,0,0,1,4.1-11.51,13,13,0,0,1,10.18-4.67,12.41,12.41,0,0,1,9.58,4.33,15.34,15.34,0,0,1,3.9,10.64v2.12H785.47V387q0,4.36,2,6.31t6.63,1.95a9.36,9.36,0,0,0,5.39-1.26,5.51,5.51,0,0,0,2.12-4.08h5.85a14.48,14.48,0,0,1-5.3,7A13.41,13.41,0,0,1,794.13,399.72Zm-8.66-18.29H802v-.75c0-2.71-.6-4.66-1.78-5.85s-3.19-1.78-6-1.78c-3,0-5.18.63-6.6,1.87s-2.12,3.2-2.12,5.88Z"/><path class="cls-3" d="M825.16,399.72a14.09,14.09,0,0,1-8.69-2.64,9.57,9.57,0,0,1-4-6.88h5.33c.12,1.92.7,3.23,1.75,4s2.88,1.09,5.48,1.09q6.94,0,6.94-3.9v-1.26a2.7,2.7,0,0,0-1-2.32,7.39,7.39,0,0,0-3.44-1.07l-5.62-.57a9.89,9.89,0,0,1-6.2-2.58,7.61,7.61,0,0,1-2.17-5.62,8.31,8.31,0,0,1,3.38-6.54,11.93,11.93,0,0,1,7.86-2.81,12.73,12.73,0,0,1,8,2.58,10.14,10.14,0,0,1,3.9,6.94h-5.34c-.08-1.87-.59-3.18-1.55-3.93s-2.6-1.12-4.93-1.12a9.68,9.68,0,0,0-4.76.89,3.13,3.13,0,0,0-1.49,2.9V378a2.9,2.9,0,0,0,1,2.41,6.29,6.29,0,0,0,3.24,1l5.51.57a10.41,10.41,0,0,1,6.37,2.61A7.46,7.46,0,0,1,837,390.2a8.46,8.46,0,0,1-3.44,6.68A12.79,12.79,0,0,1,825.16,399.72Z"/><path class="cls-3" d="M855.49,399.44a9.16,9.16,0,0,1-6.56-2.36,8.11,8.11,0,0,1-2.5-6.19V373.4H839.9v-4.24h6.53V358h5.05v11.19h8.6v4.24h-8.6v18.06q0,3.45,3.44,3.45h4.59v4.53Z"/><path class="cls-3" d="M872,364.31a3.69,3.69,0,0,1-2.75,1.12,3.83,3.83,0,0,1-3.9-3.9,3.76,3.76,0,0,1,1.12-2.81,3.82,3.82,0,0,1,2.78-1.09,3.7,3.7,0,0,1,2.75,1.09,3.78,3.78,0,0,1,1.1,2.81A3.82,3.82,0,0,1,872,364.31Zm-5.27,34.84v-30h5.05v30Z"/><path class="cls-3" d="M880.33,399.15V358h5v41.18Z"/><path class="cls-3" d="M906.25,399.72A13.59,13.59,0,0,1,896,395.51a14.93,14.93,0,0,1-4-10.75,16.87,16.87,0,0,1,4.1-11.51,13,13,0,0,1,10.18-4.67,12.41,12.41,0,0,1,9.58,4.33,15.34,15.34,0,0,1,3.9,10.64v2.12H897.59V387q0,4.36,2,6.31t6.62,1.95a9.36,9.36,0,0,0,5.39-1.26,5.48,5.48,0,0,0,2.12-4.08h5.85a14.48,14.48,0,0,1-5.3,7A13.41,13.41,0,0,1,906.25,399.72Zm-8.66-18.29h16.52v-.75q0-4.06-1.78-5.85c-1.19-1.18-3.19-1.78-6-1.78s-5.18.63-6.6,1.87-2.12,3.2-2.12,5.88Z"/><path class="cls-3" d="M84,2373.52v-31.2l48.41-37.8q13-10.18,18.39-17t5.41-14v-7.2q0-12.2-5.91-17.5t-20.89-5.3q-15.62,0-22.91,6.5t-7.29,20.5h-19q3-19.39,16.2-31t33-11.6q20.79,0,33.39,11.81a38.14,38.14,0,0,1,12.61,29q0,23.39-29.8,46.19l-44,33.6v8h76.6v17Z"/><path class="cls-3" d="M254,2375.52q-19.4,0-33.3-9.89t-16.5-26.11h19.4q1.6,11.61,8.4,15.8t22.6,4.2q16.6,0,24-5.79t7.4-19.21v-17c0-8.39-1.8-14.5-5.4-18.29s-9.4-5.71-17.4-5.71q-21.6,0-22,20H205v-83.6h93.6v17h-77v53.21h8a41.69,41.69,0,0,1,13.5-16.21q8.7-6.2,21.1-6.19,18.19,0,29.5,12.79t11.3,34q0,22.61-13.1,36.8T254,2375.52Z"/><path class="cls-3" d="M403.36,2373.52v-48H338v-95.6h17.6v80.81h47.8v-48H421v48h26v14.79H421v48Z"/></svg>