<svg id="Livello_1" data-name="Livello 1" xmlns="http://www.w3.org/2000/svg" viewBox="0 0 1125 2436"><defs><style>.cls-1{fill:#fff;}.cls-2{fill:#ff3a00;}.cls-3{fill:#d3d3d3;}</style></defs><rect width="1125" height="2436"/><path class="cls-1" d="M228.77,295.13V250.67l69-53.87q18.52-14.53,26.22-24.22t7.69-20V142.37q0-17.39-8.4-24.94t-29.79-7.55q-22.23,0-32.63,9.26t-10.4,29.21H223.35q4.28-27.65,23.09-44.17t47-16.53q29.64,0,47.6,16.81T359,145.79q0,33.35-42.46,65.83l-62.7,47.88v11.4H363v24.23Z"/><path class="cls-1" d="M534.43,268.76q-21,29.22-56,29.22t-56-29.22q-20.94-29.2-20.95-75.66,0-46.74,21.09-76.1t55.86-29.35q34.77,0,55.86,29.35t21.09,76.1Q555.37,239.56,534.43,268.76Zm-93.2-7.41q11.55,14.11,37.19,14.11t37.2-14.11q11.53-14.1,11.54-45.17V170q0-31.63-11.54-45.88t-37.2-14.25q-25.65,0-37.19,14.25T429.69,170v46.17Q429.69,247.24,441.23,261.35Z"/><path class="cls-1" d="M664.81,298Q634,298,614.65,281.3T593,237.84h27.36q0,20.24,9.69,28.93t34.77,8.69q43.32,0,43.32-27.36V236.42q0-21.37-36.76-21.38h-3.71V200.51H631.47V179.42h36.19V163.74h6q17.1,0,22.51-4.27t5.42-14.54v-8.55q0-12-8-19.24t-29.36-7.26q-21.94,0-30.35,8.12t-8.41,26.93H598.69q2.56-24.21,21.09-40.75t44.46-16.53q29.93,0,47.45,15.1T729.22,139q0,16-11.4,28.64T693.31,182v14.25A52.62,52.62,0,0,1,723,210.62q12.82,12.12,12.83,29.22,0,24.79-20.95,41.46T664.81,298Z"/><path class="cls-1" d="M796.77,295.13l79.8-169v-11.4H757.72V90.5H901.65v34.2L825.27,295.13Z"/><path class="cls-2" d="M73.86,2173.35v-17h42v-109.6H78.46v-17h55v126.6h42v17Z"/><path class="cls-2" d="M195.86,2173.35v-17h42v-109.6h-37.4v-17h55v126.6h42v17Z"/><path class="cls-2" d="M406.36,2154.85q-14.7,20.51-39.3,20.5t-39.3-20.5q-14.7-20.49-14.7-53.1,0-32.79,14.8-53.4t39.2-20.6q24.4,0,39.2,20.6t14.8,53.4Q421.06,2134.36,406.36,2154.85Zm-65.4-5.2q8.1,9.9,26.1,9.9t26.1-9.9q8.1-9.9,8.1-31.7v-32.4q0-22.2-8.1-32.2t-26.1-10q-18,0-26.1,10t-8.1,32.2V2118Q332.86,2139.76,341,2149.65Z"/><path class="cls-3" d="M83.86,2373.35v-31.2l48.4-37.8q13-10.2,18.4-17t5.4-14v-7.2q0-12.2-5.9-17.5t-20.9-5.3q-15.6,0-22.9,6.5t-7.3,20.5h-19q3-19.39,16.2-31t33-11.6q20.81,0,33.4,11.8a38.19,38.19,0,0,1,12.6,29q0,23.4-29.8,46.2l-44,33.6v8h76.6v17Z"/><path class="cls-3" d="M253.86,2375.35q-19.4,0-33.3-9.9t-16.5-26.1h19.4q1.6,11.61,8.4,15.8t22.6,4.2q16.6,0,24-5.8t7.4-19.2v-17q0-12.6-5.4-18.3t-17.4-5.7q-21.6,0-22,20h-36.2v-83.6h93.6v17h-77V2300h8a41.73,41.73,0,0,1,13.5-16.2q8.7-6.2,21.1-6.2,18.19,0,29.5,12.8t11.3,34q0,22.61-13.1,36.8T253.86,2375.35Z"/><path class="cls-3" d="M385.86,2375.35q-19.39,0-33.3-9.9t-16.5-26.1h19.4q1.6,11.61,8.4,15.8t22.6,4.2q16.6,0,24-5.8t7.4-19.2v-17q0-12.6-5.4-18.3t-17.4-5.7q-21.6,0-22,20h-36.2v-83.6h93.6v17h-77V2300h8a41.73,41.73,0,0,1,13.5-16.2q8.7-6.2,21.1-6.2,18.19,0,29.5,12.8t11.3,34q0,22.61-13.1,36.8T385.86,2375.35Z"/><path class="cls-2" d="M503.66,2111.5a14.79,14.79,0,0,1-10-3.31,11.38,11.38,0,0,1-3.93-9.06h5.13q0,4.78,1.65,6.36c1.06,1,3.44,1.56,7.12,1.56,3.42,0,5.72-.6,6.9-1.82s1.77-3.53,1.77-6.95v-5.93h-2.28a10.64,10.64,0,0,1-3.79,4.44,9.31,9.31,0,0,1-5.28,1.71,10.63,10.63,0,0,1-8.92-4.41,18.36,18.36,0,0,1,0-20.92,10.62,10.62,0,0,1,8.92-4.42,9.31,9.31,0,0,1,5.28,1.71,10.61,10.61,0,0,1,3.79,4.45h2.28v-5.59h5v29.53a11.94,11.94,0,0,1-3.84,9A13.69,13.69,0,0,1,503.66,2111.5Zm-2.73-17.44q5.93,0,6.44-5.93h5v-9h-5q-.51-5.92-6.44-5.92-3.48,0-5,1.93c-1,1.3-1.54,3.39-1.54,6.27v4.45c0,2.89.52,5,1.54,6.27S498.61,2094.06,500.93,2094.06Z"/><path class="cls-2" d="M531.14,2064.5a3.67,3.67,0,0,1-2.74,1.11,3.88,3.88,0,1,1,0-7.75,3.69,3.69,0,0,1,2.74,1.09,4.11,4.11,0,0,1,0,5.55Zm-5.25,34.63v-29.81h5v29.81Z"/><path class="cls-2" d="M561.66,2095.23a13.56,13.56,0,0,1-20.12,0,16.91,16.91,0,0,1,0-22,13.6,13.6,0,0,1,20.12,0,16.91,16.91,0,0,1,0,22Zm-16.59-2.06q2,2.09,6.53,2.08t6.53-2.08c1.34-1.38,2-3.62,2-6.69v-4.56c0-3-.68-5.26-2-6.64s-3.53-2.08-6.53-2.08-5.18.69-6.53,2.08-2,3.6-2,6.64v4.56C543.05,2089.55,543.72,2091.79,545.07,2093.17Z"/><path class="cls-2" d="M572.29,2099.13v-29.81h5v7.41h2.28a10.48,10.48,0,0,1,1-2.39,12.68,12.68,0,0,1,2-2.54,9.72,9.72,0,0,1,3.59-2.2,14.69,14.69,0,0,1,5.18-.85v6.33h-3.47a5,5,0,0,0-3.82,1.25Q583,2077.59,583,2081h-5.64v18.18Z"/><path class="cls-2" d="M596.34,2099.13v-29.81h5v5.59h2.22a11.35,11.35,0,0,1,3.91-4.56,9.43,9.43,0,0,1,5.33-1.6,9.26,9.26,0,0,1,6.95,2.82,10,10,0,0,1,2.74,7.21v20.35h-5v-20.35a6.07,6.07,0,0,0-1.25-4.27,5.48,5.48,0,0,0-4.11-1.31,5.87,5.87,0,0,0-4.27,1.39c-1,.93-1.43,2.44-1.43,4.53h-5.07v20Z"/><path class="cls-2" d="M635.84,2064.5a3.65,3.65,0,0,1-2.73,1.11,3.79,3.79,0,0,1-2.77-1.11,4,4,0,0,1,0-5.55,3.81,3.81,0,0,1,2.77-1.09,3.67,3.67,0,0,1,2.73,1.09,4.08,4.08,0,0,1,0,5.55Zm-5.24,34.63v-29.81h5v29.81Z"/><path class="cls-2" d="M661.09,2099.13v-25.59H654.6v-4.22h6.49v-3.48a7.56,7.56,0,0,1,2.31-5.73,8.54,8.54,0,0,1,6.13-2.19h4.56v4.5H669a2.52,2.52,0,0,0-2.85,2.85v4.05h8.55v4.22h-8.55v25.59Z"/><path class="cls-2" d="M687,2099.7a9.27,9.27,0,0,1-6.81-2.62,8.76,8.76,0,0,1-2.65-6.5,7.35,7.35,0,0,1,3.14-6.1,13,13,0,0,1,8.15-2.39h8.55v-2.68q0-3.7-1.4-5c-.93-.84-2.71-1.25-5.33-1.25s-4.6.4-5.59,1.22-1.53,2.48-1.65,5h-5.13a12.09,12.09,0,0,1,4.16-7.81,12.67,12.67,0,0,1,8.38-2.85,12,12,0,0,1,8.44,2.88q3.13,2.88,3.13,8.06v19.44h-5v-3.76h-2.28A9.22,9.22,0,0,1,687,2099.7Zm.86-4.45c3.42,0,5.3-1.36,5.64-4.1h3.88v-4.85h-9.86c-3,0-4.56,1.13-4.56,3.37v1.59a3.78,3.78,0,0,0,1.11,3A5.89,5.89,0,0,0,687.83,2095.25Z"/><path class="cls-2" d="M716.16,2099.13l-8.55-29.81h5.47l6.67,25.59H722l6.61-25.59h5.47l-8.44,29.81Z"/><path class="cls-2" d="M762.3,2095.23a13.56,13.56,0,0,1-20.12,0,16.91,16.91,0,0,1,0-22,13.6,13.6,0,0,1,20.12,0,16.94,16.94,0,0,1,0,22Zm-16.59-2.06c1.35,1.39,3.52,2.08,6.53,2.08s5.17-.69,6.52-2.08,2-3.62,2-6.69v-4.56c0-3-.68-5.26-2-6.64s-3.52-2.08-6.52-2.08-5.18.69-6.53,2.08-2,3.6-2,6.64v4.56C743.69,2089.55,744.36,2091.79,745.71,2093.17Z"/><path class="cls-2" d="M772.93,2099.13v-29.81h5v7.41h2.28a10.53,10.53,0,0,1,1-2.39,12.59,12.59,0,0,1,2-2.54,9.8,9.8,0,0,1,3.59-2.2,14.71,14.71,0,0,1,5.19-.85v6.33h-3.48a5,5,0,0,0-3.81,1.25c-.77.84-1.14,2.38-1.14,4.62h-5.65v18.18Z"/><path class="cls-2" d="M808.32,2099.7a13.51,13.51,0,0,1-10.17-4.19,14.79,14.79,0,0,1-4-10.69,16.71,16.71,0,0,1,4.08-11.43,12.92,12.92,0,0,1,10.11-4.64,12.29,12.29,0,0,1,9.52,4.3,15.22,15.22,0,0,1,3.88,10.58v2.11h-22v1.31c0,2.88.67,5,2,6.27s3.54,1.93,6.58,1.93a9.26,9.26,0,0,0,5.36-1.25,5.47,5.47,0,0,0,2.11-4.05h5.81a14.36,14.36,0,0,1-5.27,7A13.38,13.38,0,0,1,808.32,2099.7Zm-8.6-18.18h16.41v-.74q0-4.05-1.76-5.82t-6-1.76c-3,0-5.15.61-6.55,1.85s-2.11,3.18-2.11,5.84Z"/><path class="cls-2" d="M834.26,2099.13l-8.55-29.81h5.47l6.67,25.59h2.28l6.61-25.59h5.47l-8.43,29.81Z"/><path class="cls-2" d="M880.4,2095.23a13.56,13.56,0,0,1-20.12,0,16.91,16.91,0,0,1,0-22,13.6,13.6,0,0,1,20.12,0,16.94,16.94,0,0,1,0,22Zm-16.59-2.06q2,2.09,6.53,2.08t6.53-2.08c1.34-1.38,2-3.62,2-6.69v-4.56c0-3-.68-5.26-2-6.64s-3.53-2.08-6.53-2.08-5.18.69-6.53,2.08-2,3.6-2,6.64v4.56C861.79,2089.55,862.46,2091.79,863.81,2093.17Z"/><path class="cls-2" d="M891,2099.13v-40.92h5v40.92Z"/><path class="cls-2" d="M909.84,2064.5a3.67,3.67,0,0,1-2.74,1.11,3.88,3.88,0,1,1,0-7.75,3.69,3.69,0,0,1,2.74,1.09,4.11,4.11,0,0,1,0,5.55Zm-5.25,34.63v-29.81h5v29.81Z"/><path class="cls-2" d="M498.25,2168.1a9.24,9.24,0,0,1-6.81-2.62,8.78,8.78,0,0,1-2.65-6.5,7.36,7.36,0,0,1,3.13-6.1,13.11,13.11,0,0,1,8.15-2.39h8.55v-2.68q0-3.7-1.39-5c-.93-.84-2.71-1.25-5.33-1.25s-4.6.4-5.59,1.22-1.54,2.48-1.65,5h-5.13a12,12,0,0,1,4.16-7.81,12.65,12.65,0,0,1,8.38-2.85,12,12,0,0,1,8.43,2.88q3.13,2.88,3.14,8.06v19.44h-5v-3.76h-2.28A9.21,9.21,0,0,1,498.25,2168.1Zm.85-4.45c3.42,0,5.3-1.36,5.65-4.1h3.87v-4.84h-9.86q-4.56,0-4.56,3.36v1.59a3.78,3.78,0,0,0,1.11,3.05A5.91,5.91,0,0,0,499.1,2163.65Z"/><path class="cls-2" d="M521.73,2167.53V2126.6h5v40.93Z"/><path class="cls-2" d="M535.3,2167.53V2126.6h5v40.93Z"/><path class="cls-2" d="M549.09,2141.94l1.37-8.38v-7h5.64v7l-2.51,8.38Z"/><path class="cls-2" d="M572.46,2168.1a9.27,9.27,0,0,1-6.81-2.62A8.78,8.78,0,0,1,563,2159a7.36,7.36,0,0,1,3.13-6.1,13.11,13.11,0,0,1,8.15-2.39h8.56v-2.68q0-3.7-1.4-5c-.93-.84-2.71-1.25-5.33-1.25s-4.6.4-5.59,1.22-1.54,2.48-1.65,5h-5.13a12,12,0,0,1,4.16-7.81,12.65,12.65,0,0,1,8.38-2.85,12,12,0,0,1,8.44,2.88,10.43,10.43,0,0,1,3.13,8.06v19.44h-5v-3.76h-2.29A9.2,9.2,0,0,1,572.46,2168.1Zm.86-4.45c3.42,0,5.3-1.36,5.64-4.1h3.88v-4.84H573q-4.56,0-4.56,3.36v1.59a3.75,3.75,0,0,0,1.12,3.05A5.89,5.89,0,0,0,573.32,2163.65Z"/><path class="cls-2" d="M607.63,2168.1a12.49,12.49,0,0,1-9.72-4.47,17.35,17.35,0,0,1,0-22,12.75,12.75,0,0,1,18.3-1.09,13.54,13.54,0,0,1,4.5,8.38h-5.36q-.23-3.93-2.05-5.61t-5.76-1.68q-4.15,0-6.07,2.08c-1.27,1.38-1.9,3.6-1.9,6.64v4.56c0,3.07.62,5.31,1.88,6.69s3.28,2.08,6.09,2.08q3.94,0,5.76-1.68t2.05-5.61h5.36a13.54,13.54,0,0,1-4.5,8.38A12.49,12.49,0,0,1,607.63,2168.1Z"/><path class="cls-2" d="M639.21,2168.1a12.49,12.49,0,0,1-9.72-4.47,17.35,17.35,0,0,1,0-22,12.75,12.75,0,0,1,18.3-1.09,13.64,13.64,0,0,1,4.5,8.38H646.9c-.15-2.62-.84-4.49-2-5.61s-3.14-1.68-5.76-1.68-4.8.69-6.07,2.08-1.91,3.6-1.91,6.64v4.56c0,3.07.63,5.31,1.88,6.69s3.29,2.08,6.1,2.08q3.93,0,5.76-1.68c1.21-1.12,1.9-3,2-5.61h5.36a13.64,13.64,0,0,1-4.5,8.38A12.49,12.49,0,0,1,639.21,2168.1Z"/><path class="cls-2" d="M667.65,2168.1a8.49,8.49,0,0,1-6.67-3,11.12,11.12,0,0,1-2.62-7.61v-19.78h5v19.78a7.52,7.52,0,0,0,1.17,4.7,4.59,4.59,0,0,0,3.79,1.45,5.15,5.15,0,0,0,4-1.39c.85-.93,1.28-2.44,1.28-4.53h5.07v-20h5v29.81h-5v-5.59h-2.17Q673.47,2168.11,667.65,2168.1Z"/><path class="cls-2" d="M692.22,2167.53v-29.81h5v5h2.23q2.89-5.59,8.66-5.59a9.17,9.17,0,0,1,5.22,1.51,8.39,8.39,0,0,1,3.22,4.08h2.33q2.91-5.59,8.67-5.59a8.68,8.68,0,0,1,6.52,2.68,9.36,9.36,0,0,1,2.6,6.78v20.92h-5v-20.92a5.4,5.4,0,0,0-1.14-3.82,4.84,4.84,0,0,0-3.65-1.19,5.16,5.16,0,0,0-3.87,1.28,5.62,5.62,0,0,0-1.26,4.07h-4.5v20.58h-5v-20.92a5.4,5.4,0,0,0-1.14-3.82,4.82,4.82,0,0,0-3.64-1.19,5.19,5.19,0,0,0-3.88,1.28,5.62,5.62,0,0,0-1.25,4.07h-5.08v20.58Z"/><path class="cls-2" d="M753.61,2168.1a8.48,8.48,0,0,1-6.67-3,11.13,11.13,0,0,1-2.63-7.61v-19.78h5v19.78a7.52,7.52,0,0,0,1.17,4.7,4.57,4.57,0,0,0,3.79,1.45,5.11,5.11,0,0,0,4-1.39c.86-.93,1.28-2.44,1.28-4.53h5.08v-20h5v29.81h-5v-5.59h-2.17Q759.43,2168.11,753.61,2168.1Z"/><path class="cls-2" d="M778.17,2167.53V2126.6h5v40.93Z"/><path class="cls-2" d="M813.94,2163.63a13.56,13.56,0,0,1-20.12,0,16.91,16.91,0,0,1,0-22,13.6,13.6,0,0,1,20.12,0,16.94,16.94,0,0,1,0,22Zm-16.59-2.06q2,2.08,6.53,2.08t6.53-2.08c1.34-1.38,2-3.62,2-6.69v-4.56c0-3-.68-5.26-2-6.64s-3.53-2.08-6.53-2.08-5.18.69-6.53,2.08-2,3.6-2,6.64v4.56C795.33,2158,796,2160.19,797.35,2161.57Z"/><path class="cls-2" d="M848.91,2168a11.28,11.28,0,0,1-9.07-4.67,17.54,17.54,0,0,1,0-21.55,11.31,11.31,0,0,1,9.07-4.67,10.19,10.19,0,0,1,5.58,1.71,11.07,11.07,0,0,1,4,4.44h2.28v-16.7h5v40.93h-5v-5.64h-2.28a11.07,11.07,0,0,1-4,4.44A10.19,10.19,0,0,1,848.91,2168Zm-.06-4.44q6.39,0,7-5.93h5v-10.15h-5q-.63-5.92-7-5.92-3.76,0-5.44,2.08t-1.68,6.69v4.45q0,4.62,1.68,6.7C844.53,2162.9,846.34,2163.6,848.85,2163.6Z"/><path class="cls-2" d="M879.63,2132.9a3.65,3.65,0,0,1-2.74,1.11,3.88,3.88,0,1,1,0-7.75,3.68,3.68,0,0,1,2.74,1.09,4.11,4.11,0,0,1,0,5.55Zm-5.24,34.63v-29.81h5v29.81Z"/><path class="cls-2" d="M901.92,2167.53V2126.6h13.33a13.23,13.23,0,0,1,9.55,3.85,12.91,12.91,0,0,1,0,18.58,13,13,0,0,1-9.41,3.85h-8.37v14.65Zm5.13-19.21h8q8.21,0,8.2-6.78V2138q0-6.78-8.32-6.79h-7.86Z"/><path class="cls-2" d="M935.71,2167.53V2126.6h11.23l8.33,36.37h2.05l8.32-36.37h11.23v40.93h-4.79v-36.37h-2.56l-8.67,36.37H951.5L943,2131.16h-2.56v36.37Z"/><path class="cls-2" d="M985.19,2167.53v-4.84h12v-31.24H986.5v-4.85h15.68v36.09h12v4.84Z"/><path class="cls-2" d="M1045.18,2162.26a13.66,13.66,0,0,1-22.4,0q-4.18-5.85-4.19-15.14t4.22-15.21a13.55,13.55,0,0,1,22.34,0q4.23,5.87,4.22,15.21T1045.18,2162.26Zm-18.64-1.48q2.31,2.82,7.44,2.82t7.44-2.82q2.31-2.84,2.31-9v-9.23q0-6.33-2.31-9.18t-7.44-2.85q-5.13,0-7.44,2.85c-1.54,1.9-2.3,5-2.3,9.18v9.23C1024.24,2155.88,1025,2158.89,1026.54,2160.78Z"/><path class="cls-3" d="M504.66,2378.9a14.79,14.79,0,0,1-10-3.31,11.38,11.38,0,0,1-3.93-9.06h5.13q0,4.78,1.65,6.36c1.06,1,3.44,1.56,7.12,1.56,3.42,0,5.72-.6,6.9-1.82s1.77-3.53,1.77-7v-5.93h-2.28a10.64,10.64,0,0,1-3.79,4.44,9.31,9.31,0,0,1-5.28,1.71,10.63,10.63,0,0,1-8.92-4.41,18.36,18.36,0,0,1,0-20.92,10.62,10.62,0,0,1,8.92-4.42,9.31,9.31,0,0,1,5.28,1.71,10.64,10.64,0,0,1,3.79,4.44h2.28v-5.58h5v29.53a11.94,11.94,0,0,1-3.84,9A13.69,13.69,0,0,1,504.66,2378.9Zm-2.73-17.44q5.93,0,6.44-5.93h5v-9h-5q-.51-5.92-6.44-5.92-3.48,0-5,1.93c-1,1.3-1.54,3.39-1.54,6.27v4.45c0,2.89.52,5,1.54,6.27S499.61,2361.46,501.93,2361.46Z"/><path class="cls-3" d="M532.14,2331.9a3.67,3.67,0,0,1-2.74,1.11,3.88,3.88,0,1,1,0-7.75,3.69,3.69,0,0,1,2.74,1.09,4.11,4.11,0,0,1,0,5.55Zm-5.25,34.63v-29.81h5v29.81Z"/><path class="cls-3" d="M562.66,2362.63a13.56,13.56,0,0,1-20.12,0,16.91,16.91,0,0,1,0-22,13.6,13.6,0,0,1,20.12,0,16.91,16.91,0,0,1,0,22Zm-16.59-2.06q2,2.08,6.53,2.08t6.53-2.08c1.34-1.38,2-3.62,2-6.69v-4.56c0-3-.68-5.26-2-6.64s-3.53-2.08-6.53-2.08-5.18.69-6.53,2.08-2,3.6-2,6.64v4.56C544.05,2357,544.72,2359.19,546.07,2360.57Z"/><path class="cls-3" d="M573.29,2366.53v-29.81h5v7.41h2.28a10.48,10.48,0,0,1,1-2.39,12.68,12.68,0,0,1,2-2.54,9.72,9.72,0,0,1,3.59-2.2,14.69,14.69,0,0,1,5.18-.85v6.33h-3.47a4.94,4.94,0,0,0-3.82,1.25Q584,2345,584,2348.35h-5.64v18.18Z"/><path class="cls-3" d="M597.34,2366.53v-29.81h5v5.58h2.22a11.39,11.39,0,0,1,3.91-4.55,9.43,9.43,0,0,1,5.33-1.6,9.26,9.26,0,0,1,6.95,2.82,10,10,0,0,1,2.74,7.21v20.35h-5v-20.35a6.07,6.07,0,0,0-1.25-4.27,5.48,5.48,0,0,0-4.11-1.31,5.87,5.87,0,0,0-4.27,1.39c-1,.93-1.43,2.44-1.43,4.53h-5.07v20Z"/><path class="cls-3" d="M636.84,2331.9a3.65,3.65,0,0,1-2.73,1.11,3.79,3.79,0,0,1-2.77-1.11,4,4,0,0,1,0-5.55,3.81,3.81,0,0,1,2.77-1.09,3.67,3.67,0,0,1,2.73,1.09,4.08,4.08,0,0,1,0,5.55Zm-5.24,34.63v-29.81h5v29.81Z"/><path class="cls-3" d="M658.73,2366.53v-29.81h5v7.41H666a10.48,10.48,0,0,1,1-2.39,12.68,12.68,0,0,1,2-2.54,9.72,9.72,0,0,1,3.59-2.2,14.71,14.71,0,0,1,5.19-.85v6.33h-3.48a4.94,4.94,0,0,0-3.82,1.25q-1.14,1.26-1.14,4.62h-5.64v18.18Z"/><path class="cls-3" d="M694.13,2367.1a13.51,13.51,0,0,1-10.18-4.19,14.8,14.8,0,0,1-4-10.69,16.71,16.71,0,0,1,4.07-11.43,12.94,12.94,0,0,1,10.12-4.64,12.32,12.32,0,0,1,9.52,4.3,15.26,15.26,0,0,1,3.87,10.58v2.1h-22v1.32q0,4.32,2,6.27c1.34,1.29,3.54,1.93,6.58,1.93a9.28,9.28,0,0,0,5.36-1.25,5.54,5.54,0,0,0,2.11-4.05h5.81a14.48,14.48,0,0,1-5.27,7A13.4,13.4,0,0,1,694.13,2367.1Zm-8.61-18.18h16.42v-.74q0-4-1.77-5.82t-6-1.76c-3,0-5.15.61-6.56,1.85s-2.11,3.18-2.11,5.84Z"/><path class="cls-3" d="M725,2367.1a14,14,0,0,1-8.63-2.62,9.5,9.5,0,0,1-4-6.84h5.3q.17,2.85,1.74,3.93c1,.72,2.86,1.08,5.44,1.08q6.9,0,6.9-3.87v-1.26a2.68,2.68,0,0,0-1-2.3,7.19,7.19,0,0,0-3.42-1.06l-5.58-.57a9.76,9.76,0,0,1-6.16-2.56,7.6,7.6,0,0,1-2.17-5.59,8.25,8.25,0,0,1,3.37-6.5,11.85,11.85,0,0,1,7.81-2.79,12.65,12.65,0,0,1,8,2.56,10,10,0,0,1,3.87,6.9h-5.3c-.08-1.86-.59-3.16-1.54-3.9s-2.58-1.11-4.9-1.11a9.59,9.59,0,0,0-4.73.88,3.09,3.09,0,0,0-1.48,2.88v1.14a2.89,2.89,0,0,0,1,2.39,6.25,6.25,0,0,0,3.22,1l5.48.57a10.25,10.25,0,0,1,6.32,2.59,7.39,7.39,0,0,1,2.28,5.56,8.41,8.41,0,0,1-3.42,6.64A12.73,12.73,0,0,1,725,2367.1Z"/><path class="cls-3" d="M755.12,2366.82a9.12,9.12,0,0,1-6.53-2.34,8.08,8.08,0,0,1-2.48-6.16v-17.38h-6.5v-4.22h6.5V2325.6h5v11.12h8.55v4.22h-8.55v17.95q0,3.42,3.42,3.42h4.56v4.51Z"/><path class="cls-3" d="M773.7,2367.1a9.27,9.27,0,0,1-6.81-2.62,8.78,8.78,0,0,1-2.65-6.5,7.36,7.36,0,0,1,3.13-6.1,13.11,13.11,0,0,1,8.15-2.39h8.55v-2.68q0-3.7-1.39-5c-.93-.84-2.71-1.25-5.33-1.25s-4.6.4-5.59,1.22-1.54,2.48-1.65,5H765a12,12,0,0,1,4.16-7.81,12.65,12.65,0,0,1,8.38-2.85A12,12,0,0,1,786,2339a10.43,10.43,0,0,1,3.13,8.06v19.44h-5v-3.76h-2.28A9.2,9.2,0,0,1,773.7,2367.1Zm.85-4.45c3.42,0,5.31-1.36,5.65-4.1h3.87v-4.84h-9.86q-4.56,0-4.56,3.36v1.59a3.78,3.78,0,0,0,1.11,3.05A5.91,5.91,0,0,0,774.55,2362.65Z"/><path class="cls-3" d="M797.18,2366.53v-29.81h5v5.58h2.22a11.39,11.39,0,0,1,3.91-4.55,9.43,9.43,0,0,1,5.33-1.6,9.26,9.26,0,0,1,7,2.82,10,10,0,0,1,2.74,7.21v20.35h-5v-20.35a6.07,6.07,0,0,0-1.25-4.27,5.48,5.48,0,0,0-4.11-1.31,5.87,5.87,0,0,0-4.27,1.39c-1,.93-1.43,2.44-1.43,4.53H802.2v20Z"/><path class="cls-3" d="M843,2366.82a9.12,9.12,0,0,1-6.53-2.34,8.08,8.08,0,0,1-2.48-6.16v-17.38h-6.5v-4.22H834V2325.6h5v11.12h8.55v4.22H839v17.95q0,3.42,3.42,3.42h4.56v4.51Z"/><path class="cls-3" d="M859.31,2331.9a3.65,3.65,0,0,1-2.73,1.11,3.79,3.79,0,0,1-3.88-3.87,3.72,3.72,0,0,1,1.11-2.79,3.79,3.79,0,0,1,2.77-1.09,3.67,3.67,0,0,1,2.73,1.09,4.08,4.08,0,0,1,0,5.55Zm-5.24,34.63v-29.81h5v29.81Z"/><circle class="cls-3" cx="105.24" cy="1946.42" r="31.38"/><circle class="cls-3" cx="170.56" cy="1946.42" r="31.38"/><circle class="cls-3" cx="235.89" cy="1946.42" r="31.38"/><circle class="cls-3" cx="301.21" cy="1946.42" r="31.38"/><circle class="cls-3" cx="366.53" cy="1946.42" r="31.38"/><circle class="cls-3" cx="431.85" cy="1946.42" r="31.38"/><circle class="cls-3" cx="497.18" cy="1946.42" r="31.38"/><circle class="cls-3" cx="562.5" cy="1946.42" r="31.38"/><circle class="cls-3" cx="627.82" cy="1946.42" r="31.38"/><circle class="cls-3" cx="693.15" cy="1946.42" r="31.38"/><circle class="cls-3" cx="758.47" cy="1946.42" r="31.38"/><circle class="cls-3" cx="823.79" cy="1946.42" r="31.38"/><circle class="cls-3" cx="889.11" cy="1946.42" r="31.38"/><circle class="cls-3" cx="954.44" cy="1946.42" r="31.38"/><circle class="cls-3" cx="1019.76" cy="1946.42" r="31.38"/><circle class="cls-3" cx="105.24" cy="1881.1" r="31.38"/><circle class="cls-3" cx="170.56" cy="1881.1" r="31.38"/><circle class="cls-3" cx="235.89" cy="1881.1" r="31.38"/><circle class="cls-3" cx="301.21" cy="1881.1" r="31.38"/><circle class="cls-3" cx="366.53" cy="1881.1" r="31.38"/><circle class="cls-3" cx="431.85" cy="1881.1" r="31.38"/><circle class="cls-3" cx="497.18" cy="1881.1" r="31.38"/><circle class="cls-3" cx="562.5" cy="1881.1" r="31.38"/><circle class="cls-3" cx="627.82" cy="1881.1" r="31.38"/><circle class="cls-3" cx="693.15" cy="1881.1" r="31.38"/><circle class="cls-3" cx="758.47" cy="1881.1" r="31.38"/><circle class="cls-3" cx="823.79" cy="1881.1" r="31.38"/><circle class="cls-3" cx="889.11" cy="1881.1" r="31.38"/><circle class="cls-3" cx="954.44" cy="1881.1" r="31.38"/><circle class="cls-3" cx="1019.76" cy="1881.1" r="31.38"/><circle class="cls-3" cx="105.24" cy="1815.78" r="31.38"/><circle class="cls-3" cx="170.56" cy="1815.78" r="31.38"/><circle class="cls-3" cx="235.89" cy="1815.78" r="31.38"/><circle class="cls-3" cx="301.21" cy="1815.78" r="31.38"/><circle class="cls-3" cx="366.53" cy="1815.78" r="31.38"/><circle class="cls-3" cx="431.85" cy="1815.78" r="31.38"/><circle class="cls-3" cx="497.18" cy="1815.78" r="31.38"/><circle class="cls-3" cx="562.5" cy="1815.78" r="31.38"/><circle class="cls-3" cx="627.82" cy="1815.78" r="31.38"/><circle class="cls-3" cx="693.15" cy="1815.78" r="31.38"/><circle class="cls-3" cx="758.47" cy="1815.78" r="31.38"/><circle class="cls-3" cx="823.79" cy="1815.78" r="31.38"/><circle class="cls-3" cx="889.11" cy="1815.78" r="31.38"/><circle class="cls-3" cx="954.44" cy="1815.78" r="31.38"/><circle class="cls-3" cx="1019.76" cy="1815.78" r="31.38"/><circle class="cls-3" cx="105.24" cy="1750.46" r="31.38"/><circle class="cls-3" cx="170.56" cy="1750.46" r="31.38"/><circle class="cls-3" cx="235.89" cy="1750.46" r="31.38"/><circle class="cls-3" cx="301.21" cy="1750.46" r="31.38"/><circle class="cls-3" cx="366.53" cy="1750.46" r="31.38"/><circle class="cls-3" cx="431.85" cy="1750.46" r="31.38"/><circle class="cls-3" cx="497.18" cy="1750.46" r="31.38"/><circle class="cls-3" cx="562.5" cy="1750.46" r="31.38"/><circle class="cls-3" cx="627.82" cy="1750.46" r="31.38"/><circle class="cls-3" cx="693.15" cy="1750.46" r="31.38"/><circle class="cls-3" cx="758.47" cy="1750.46" r="31.38"/><circle class="cls-3" cx="823.79" cy="1750.46" r="31.38"/><circle class="cls-3" cx="889.11" cy="1750.46" r="31.38"/><circle class="cls-3" cx="954.44" cy="1750.46" r="31.38"/><circle class="cls-3" cx="1019.76" cy="1750.46" r="31.38"/><circle class="cls-3" cx="105.24" cy="1685.13" r="31.38"/><circle class="cls-3" cx="170.56" cy="1685.13" r="31.38"/><circle class="cls-3" cx="235.89" cy="1685.13" r="31.38"/><circle class="cls-3" cx="301.21" cy="1685.13" r="31.38"/><circle class="cls-3" cx="366.53" cy="1685.13" r="31.38"/><circle class="cls-3" cx="431.85" cy="1685.13" r="31.38"/><circle class="cls-3" cx="497.18" cy="1685.13" r="31.38"/><circle class="cls-3" cx="562.5" cy="1685.13" r="31.38"/><circle class="cls-3" cx="627.82" cy="1685.13" r="31.38"/><circle class="cls-3" cx="693.15" cy="1685.13" r="31.38"/><circle class="cls-3" cx="758.47" cy="1685.13" r="31.38"/><circle class="cls-3" cx="823.79" cy="1685.13" r="31.38"/><circle class="cls-3" cx="889.11" cy="1685.13" r="31.38"/><circle class="cls-3" cx="954.44" cy="1685.13" r="31.38"/><circle class="cls-3" cx="1019.76" cy="1685.13" r="31.38"/><circle class="cls-3" cx="105.24" cy="1619.81" r="31.38"/><circle class="cls-3" cx="170.56" cy="1619.81" r="31.38"/><circle class="cls-3" cx="235.89" cy="1619.81" r="31.38"/><circle class="cls-3" cx="301.21" cy="1619.81" r="31.38"/><circle class="cls-3" cx="366.53" cy="1619.81" r="31.38"/><circle class="cls-3" cx="431.85" cy="1619.81" r="31.38"/><circle class="cls-3" cx="497.18" cy="1619.81" r="31.38"/><circle class="cls-3" cx="562.5" cy="1619.81" r="31.38"/><circle class="cls-3" cx="627.82" cy="1619.81" r="31.38"/><circle class="cls-3" cx="693.15" cy="1619.81" r="31.38"/><circle class="cls-3" cx="758.47" cy="1619.81" r="31.38"/><circle class="cls-3" cx="823.79" cy="1619.81" r="31.38"/><circle class="cls-3" cx="889.11" cy="1619.81" r="31.38"/><circle class="cls-3" cx="954.44" cy="1619.81" r="31.38"/><circle class="cls-3" cx="1019.76" cy="1619.81" r="31.38"/><circle class="cls-3" cx="105.24" cy="1554.49" r="31.38"/><circle class="cls-3" cx="170.56" cy="1554.49" r="31.38"/><circle class="cls-3" cx="235.89" cy="1554.49" r="31.38"/><circle class="cls-3" cx="301.21" cy="1554.49" r="31.38"/><circle class="cls-3" cx="366.53" cy="1554.49" r="31.38"/><circle class="cls-3" cx="431.85" cy="1554.49" r="31.38"/><circle class="cls-3" cx="497.18" cy="1554.49" r="31.38"/><circle class="cls-3" cx="562.5" cy="1554.49" r="31.38"/><circle class="cls-3" cx="627.82" cy="1554.49" r="31.38"/><circle class="cls-3" cx="693.15" cy="1554.49" r="31.38"/><circle class="cls-3" cx="758.47" cy="1554.49" r="31.38"/><circle class="cls-3" cx="823.79" cy="1554.49" r="31.38"/><circle class="cls-3" cx="889.11" cy="1554.49" r="31.38"/><circle class="cls-3" cx="954.44" cy="1554.49" r="31.38"/><circle class="cls-3" cx="1019.76" cy="1554.49" r="31.38"/><circle class="cls-3" cx="105.24" cy="1489.16" r="31.38"/><circle class="cls-3" cx="170.56" cy="1489.16" r="31.38"/><circle class="cls-3" cx="235.89" cy="1489.16" r="31.38"/><circle class="cls-3" cx="301.21" cy="1489.16" r="31.38"/><circle class="cls-3" cx="366.53" cy="1489.16" r="31.38"/><circle class="cls-3" cx="431.85" cy="1489.16" r="31.38"/><circle class="cls-3" cx="497.18" cy="1489.16" r="31.38"/><circle class="cls-3" cx="562.5" cy="1489.16" r="31.38"/><circle class="cls-3" cx="627.82" cy="1489.16" r="31.38"/><circle class="cls-3" cx="693.15" cy="1489.16" r="31.38"/><circle class="cls-3" cx="758.47" cy="1489.16" r="31.38"/><circle class="cls-3" cx="823.79" cy="1489.16" r="31.38"/><circle class="cls-3" cx="889.11" cy="1489.16" r="31.38"/><circle class="cls-3" cx="954.44" cy="1489.16" r="31.38"/><circle class="cls-3" cx="1019.76" cy="1489.16" r="31.38"/><circle class="cls-3" cx="105.24" cy="1423.84" r="31.38"/><circle class="cls-3" cx="170.56" cy="1423.84" r="31.38"/><circle class="cls-3" cx="235.89" cy="1423.84" r="31.38"/><circle class="cls-3" cx="301.21" cy="1423.84" r="31.38"/><circle class="cls-3" cx="366.53" cy="1423.84" r="31.38"/><circle class="cls-3" cx="431.85" cy="1423.84" r="31.38"/><circle class="cls-3" cx="497.18" cy="1423.84" r="31.38"/><circle class="cls-3" cx="562.5" cy="1423.84" r="31.38"/><circle class="cls-3" cx="627.82" cy="1423.84" r="31.38"/><circle class="cls-3" cx="693.15" cy="1423.84" r="31.38"/><circle class="cls-3" cx="758.47" cy="1423.84" r="31.38"/><circle class="cls-3" cx="823.79" cy="1423.84" r="31.38"/><circle class="cls-3" cx="889.11" cy="1423.84" r="31.38"/><circle class="cls-3" cx="954.44" cy="1423.84" r="31.38"/><circle class="cls-3" cx="1019.76" cy="1423.84" r="31.38"/><circle class="cls-3" cx="105.24" cy="1358.52" r="31.38"/><circle class="cls-3" cx="170.56" cy="1358.52" r="31.38"/><circle class="cls-3" cx="235.89" cy="1358.52" r="31.38"/><circle class="cls-3" cx="301.21" cy="1358.52" r="31.38"/><circle class="cls-3" cx="366.53" cy="1358.52" r="31.38"/><circle class="cls-3" cx="431.85" cy="1358.52" r="31.38"/><circle class="cls-3" cx="497.18" cy="1358.52" r="31.38"/><circle class="cls-3" cx="562.5" cy="1358.52" r="31.38"/><circle class="cls-3" cx="627.82" cy="1358.52" r="31.38"/><circle class="cls-3" cx="693.15" cy="1358.52" r="31.38"/><circle class="cls-3" cx="758.47" cy="1358.52" r="31.38"/><circle class="cls-3" cx="823.79" cy="1358.52" r="31.38"/><circle class="cls-3" cx="889.11" cy="1358.52" r="31.38"/><circle class="cls-3" cx="954.44" cy="1358.52" r="31.38"/><circle class="cls-3" cx="1019.76" cy="1358.52" r="31.38"/><circle class="cls-3" cx="105.24" cy="1293.2" r="31.38"/><circle class="cls-3" cx="170.56" cy="1293.2" r="31.38"/><circle class="cls-3" cx="235.89" cy="1293.2" r="31.38"/><circle class="cls-3" cx="301.21" cy="1293.2" r="31.38"/><circle class="cls-3" cx="366.53" cy="1293.2" r="31.38"/><circle class="cls-3" cx="431.85" cy="1293.2" r="31.38"/><circle class="cls-3" cx="497.18" cy="1293.2" r="31.38"/><circle class="cls-3" cx="562.5" cy="1293.2" r="31.38"/><circle class="cls-3" cx="627.82" cy="1293.2" r="31.38"/><circle class="cls-3" cx="693.15" cy="1293.2" r="31.38"/><circle class="cls-3" cx="758.47" cy="1293.2" r="31.38"/><circle class="cls-3" cx="823.79" cy="1293.2" r="31.38"/><circle class="cls-3" cx="889.11" cy="1293.2" r="31.38"/><circle class="cls-3" cx="954.44" cy="1293.2" r="31.38"/><circle class="cls-3" cx="1019.76" cy="1293.2" r="31.38"/><circle class="cls-3" cx="105.24" cy="1227.87" r="31.38"/><circle class="cls-3" cx="170.56" cy="1227.87" r="31.38"/><circle class="cls-3" cx="235.89" cy="1227.87" r="31.38"/><circle class="cls-3" cx="301.21" cy="1227.87" r="31.38"/><circle class="cls-3" cx="366.53" cy="1227.87" r="31.38"/><circle class="cls-3" cx="431.85" cy="1227.87" r="31.38"/><circle class="cls-3" cx="497.18" cy="1227.87" r="31.38"/><circle class="cls-3" cx="562.5" cy="1227.87" r="31.38"/><circle class="cls-3" cx="627.82" cy="1227.87" r="31.38"/><circle class="cls-3" cx="693.15" cy="1227.87" r="31.38"/><circle class="cls-3" cx="758.47" cy="1227.87" r="31.38"/><circle class="cls-3" cx="823.79" cy="1227.87" r="31.38"/><circle class="cls-3" cx="889.11" cy="1227.87" r="31.38"/><circle class="cls-3" cx="954.44" cy="1227.87" r="31.38"/><circle class="cls-3" cx="1019.76" cy="1227.87" r="31.38"/><circle class="cls-3" cx="105.24" cy="1162.55" r="31.38"/><circle class="cls-3" cx="170.56" cy="1162.55" r="31.38"/><circle class="cls-3" cx="235.89" cy="1162.55" r="31.38"/><circle class="cls-3" cx="301.21" cy="1162.55" r="31.38"/><circle class="cls-3" cx="366.53" cy="1162.55" r="31.38"/><circle class="cls-3" cx="431.85" cy="1162.55" r="31.38"/><circle class="cls-3" cx="497.18" cy="1162.55" r="31.38"/><circle class="cls-3" cx="562.5" cy="1162.55" r="31.38"/><circle class="cls-3" cx="627.82" cy="1162.55" r="31.38"/><circle class="cls-3" cx="693.15" cy="1162.55" r="31.38"/><circle class="cls-3" cx="758.47" cy="1162.55" r="31.38"/><circle class="cls-3" cx="823.79" cy="1162.55" r="31.38"/><circle class="cls-3" cx="889.11" cy="1162.55" r="31.38"/><circle class="cls-3" cx="954.44" cy="1162.55" r="31.38"/><circle class="cls-3" cx="1019.76" cy="1162.55" r="31.38"/><circle class="cls-3" cx="105.24" cy="1097.23" r="31.38"/><circle class="cls-3" cx="170.56" cy="1097.23" r="31.38"/><circle class="cls-3" cx="235.89" cy="1097.23" r="31.38"/><circle class="cls-3" cx="301.21" cy="1097.23" r="31.38"/><circle class="cls-3" cx="366.53" cy="1097.23" r="31.38"/><circle class="cls-3" cx="431.85" cy="1097.23" r="31.38"/><circle class="cls-3" cx="497.18" cy="1097.23" r="31.38"/><circle class="cls-3" cx="562.5" cy="1097.23" r="31.38"/><circle class="cls-3" cx="627.82" cy="1097.23" r="31.38"/><circle class="cls-3" cx="693.15" cy="1097.23" r="31.38"/><circle class="cls-3" cx="758.47" cy="1097.23" r="31.38"/><circle class="cls-3" cx="823.79" cy="1097.23" r="31.38"/><circle class="cls-3" cx="889.11" cy="1097.23" r="31.38"/><circle class="cls-3" cx="954.44" cy="1097.23" r="31.38"/><circle class="cls-3" cx="1019.76" cy="1097.23" r="31.38"/><circle class="cls-3" cx="105.24" cy="1031.9" r="31.38"/><circle class="cls-3" cx="170.56" cy="1031.9" r="31.38"/><circle class="cls-3" cx="235.89" cy="1031.9" r="31.38"/><circle class="cls-3" cx="301.21" cy="1031.9" r="31.38"/><circle class="cls-3" cx="366.53" cy="1031.9" r="31.38"/><circle class="cls-3" cx="431.85" cy="1031.9" r="31.38"/><circle class="cls-3" cx="497.18" cy="1031.9" r="31.38"/><circle class="cls-3" cx="562.5" cy="1031.9" r="31.38"/><circle class="cls-3" cx="627.82" cy="1031.9" r="31.38"/><circle class="cls-3" cx="693.15" cy="1031.9" r="31.38"/><circle class="cls-3" cx="758.47" cy="1031.9" r="31.38"/><circle class="cls-3" cx="823.79" cy="1031.9" r="31.38"/><circle class="cls-3" cx="889.11" cy="1031.9" r="31.38"/><circle class="cls-3" cx="954.44" cy="1031.9" r="31.38"/><circle class="cls-3" cx="1019.76" cy="1031.9" r="31.38"/><circle class="cls-3" cx="105.24" cy="966.58" r="31.38"/><circle class="cls-3" cx="170.56" cy="966.58" r="31.38"/><circle class="cls-3" cx="235.89" cy="966.58" r="31.38"/><circle class="cls-3" cx="301.21" cy="966.58" r="31.38"/><circle class="cls-3" cx="366.53" cy="966.58" r="31.38"/><circle class="cls-3" cx="431.85" cy="966.58" r="31.38"/><circle class="cls-3" cx="497.18" cy="966.58" r="31.38"/><circle class="cls-3" cx="562.5" cy="966.58" r="31.38"/><circle class="cls-3" cx="627.82" cy="966.58" r="31.38"/><circle class="cls-3" cx="693.15" cy="966.58" r="31.38"/><circle class="cls-3" cx="758.47" cy="966.58" r="31.38"/><circle class="cls-3" cx="823.79" cy="966.58" r="31.38"/><circle class="cls-3" cx="889.11" cy="966.58" r="31.38"/><circle class="cls-3" cx="954.44" cy="966.58" r="31.38"/><circle class="cls-3" cx="1019.76" cy="966.58" r="31.38"/><circle class="cls-3" cx="105.24" cy="901.26" r="31.38"/><circle class="cls-3" cx="170.56" cy="901.26" r="31.38"/><circle class="cls-3" cx="235.89" cy="901.26" r="31.38"/><circle class="cls-3" cx="301.21" cy="901.26" r="31.38"/><circle class="cls-3" cx="366.53" cy="901.26" r="31.38"/><circle class="cls-3" cx="431.85" cy="901.26" r="31.38"/><circle class="cls-3" cx="497.18" cy="901.26" r="31.38"/><circle class="cls-3" cx="562.5" cy="901.26" r="31.38"/><circle class="cls-3" cx="627.82" cy="901.26" r="31.38"/><circle class="cls-3" cx="693.15" cy="901.26" r="31.38"/><circle class="cls-3" cx="758.47" cy="901.26" r="31.38"/><circle class="cls-3" cx="823.79" cy="901.26" r="31.38"/><circle class="cls-3" cx="889.11" cy="901.26" r="31.38"/><circle class="cls-3" cx="954.44" cy="901.26" r="31.38"/><circle class="cls-3" cx="1019.76" cy="901.26" r="31.38"/><circle class="cls-2" cx="105.24" cy="835.94" r="31.38"/><circle class="cls-2" cx="170.56" cy="835.94" r="31.38"/><circle class="cls-2" cx="235.89" cy="835.94" r="31.38"/><circle class="cls-2" cx="301.21" cy="835.94" r="31.38"/><circle class="cls-2" cx="366.53" cy="835.94" r="31.38"/><circle class="cls-2" cx="431.85" cy="835.94" r="31.38"/><circle class="cls-2" cx="497.18" cy="835.94" r="31.38"/><circle class="cls-2" cx="562.5" cy="835.94" r="31.38"/><circle class="cls-2" cx="627.82" cy="835.94" r="31.38"/><circle class="cls-2" cx="693.15" cy="835.94" r="31.38"/><circle class="cls-2" cx="758.47" cy="835.94" r="31.38"/><circle class="cls-2" cx="823.79" cy="835.94" r="31.38"/><circle class="cls-2" cx="889.11" cy="835.94" r="31.38"/><circle class="cls-3" cx="954.44" cy="835.94" r="31.38"/><circle class="cls-3" cx="1019.76" cy="835.94" r="31.38"/><circle class="cls-2" cx="105.24" cy="770.61" r="31.38"/><circle class="cls-2" cx="170.56" cy="770.61" r="31.38"/><circle class="cls-2" cx="235.89" cy="770.61" r="31.38"/><circle class="cls-2" cx="301.21" cy="770.61" r="31.38"/><circle class="cls-2" cx="366.53" cy="770.61" r="31.38"/><circle class="cls-2" cx="431.85" cy="770.61" r="31.38"/><circle class="cls-2" cx="497.18" cy="770.61" r="31.38"/><circle class="cls-2" cx="562.5" cy="770.61" r="31.38"/><circle class="cls-2" cx="627.82" cy="770.61" r="31.38"/><circle class="cls-2" cx="693.15" cy="770.61" r="31.38"/><circle class="cls-2" cx="758.47" cy="770.61" r="31.38"/><circle class="cls-2" cx="823.79" cy="770.61" r="31.38"/><circle class="cls-2" cx="889.11" cy="770.61" r="31.38"/><circle class="cls-2" cx="954.44" cy="770.61" r="31.38"/><circle class="cls-2" cx="1019.76" cy="770.61" r="31.38"/><circle class="cls-2" cx="105.24" cy="705.29" r="31.38"/><circle class="cls-2" cx="170.56" cy="705.29" r="31.38"/><circle class="cls-2" cx="235.89" cy="705.29" r="31.38"/><circle class="cls-2" cx="301.21" cy="705.29" r="31.38"/><circle class="cls-2" cx="366.53" cy="705.29" r="31.38"/><circle class="cls-2" cx="431.85" cy="705.29" r="31.38"/><circle class="cls-2" cx="497.18" cy="705.29" r="31.38"/><circle class="cls-2" cx="562.5" cy="705.29" r="31.38"/><circle class="cls-2" cx="627.82" cy="705.29" r="31.38"/><circle class="cls-2" cx="693.15" cy="705.29" r="31.38"/><circle class="cls-2" cx="758.47" cy="705.29" r="31.38"/><circle class="cls-2" cx="823.79" cy="705.29" r="31.38"/><circle class="cls-2" cx="889.11" cy="705.29" r="31.38"/><circle class="cls-2" cx="954.44" cy="705.29" r="31.38"/><circle class="cls-2" cx="1019.76" cy="705.29" r="31.38"/><circle class="cls-2" cx="105.24" cy="639.97" r="31.38"/><circle class="cls-2" cx="170.56" cy="639.97" r="31.38"/><circle class="cls-2" cx="235.89" cy="639.97" r="31.38"/><circle class="cls-2" cx="301.21" cy="639.97" r="31.38"/><circle class="cls-2" cx="366.53" cy="639.97" r="31.38"/><circle class="cls-2" cx="431.85" cy="639.97" r="31.38"/><circle class="cls-2" cx="497.18" cy="639.97" r="31.38"/><circle class="cls-2" cx="562.5" cy="639.97" r="31.38"/><circle class="cls-2" cx="627.82" cy="639.97" r="31.38"/><circle class="cls-2" cx="693.15" cy="639.97" r="31.38"/><circle class="cls-2" cx="758.47" cy="639.97" r="31.38"/><circle class="cls-2" cx="823.79" cy="639.97" r="31.38"/><circle class="cls-2" cx="889.11" cy="639.97" r="31.38"/><circle class="cls-2" cx="954.44" cy="639.97" r="31.38"/><circle class="cls-2" cx="1019.76" cy="639.97" r="31.38"/><circle class="cls-2" cx="105.24" cy="574.64" r="31.38"/><circle class="cls-2" cx="170.56" cy="574.64" r="31.38"/><circle class="cls-2" cx="235.89" cy="574.64" r="31.38"/><circle class="cls-2" cx="301.21" cy="574.64" r="31.38"/><circle class="cls-2" cx="366.53" cy="574.64" r="31.38"/><circle class="cls-2" cx="431.85" cy="574.64" r="31.38"/><circle class="cls-2" cx="497.18" cy="574.64" r="31.38"/><circle class="cls-2" cx="562.5" cy="574.64" r="31.38"/><circle class="cls-2" cx="627.82" cy="574.64" r="31.38"/><circle class="cls-2" cx="693.15" cy="574.64" r="31.38"/><circle class="cls-2" cx="758.47" cy="574.64" r="31.38"/><circle class="cls-2" cx="823.79" cy="574.64" r="31.38"/><circle class="cls-2" cx="889.11" cy="574.64" r="31.38"/><circle class="cls-2" cx="954.44" cy="574.64" r="31.38"/><circle class="cls-2" cx="1019.76" cy="574.64" r="31.38"/><circle class="cls-2" cx="105.24" cy="509.32" r="31.38"/><circle class="cls-2" cx="170.56" cy="509.32" r="31.38"/><circle class="cls-2" cx="235.89" cy="509.32" r="31.38"/><circle class="cls-2" cx="301.21" cy="509.32" r="31.38"/><circle class="cls-2" cx="366.53" cy="509.32" r="31.38"/><circle class="cls-2" cx="431.85" cy="509.32" r="31.38"/><circle class="cls-2" cx="497.18" cy="509.32" r="31.38"/><circle class="cls-2" cx="562.5" cy="509.32" r="31.38"/><circle class="cls-2" cx="627.82" cy="509.32" r="31.38"/><circle class="cls-2" cx="693.15" cy="509.32" r="31.38"/><circle class="cls-2" cx="758.47" cy="509.32" r="31.38"/><circle class="cls-2" cx="823.79" cy="509.32" r="31.38"/><circle class="cls-2" cx="889.11" cy="509.32" r="31.38"/><circle class="cls-2" cx="954.44" cy="509.32" r="31.38"/><circle class="cls-2" cx="1019.76" cy="509.32" r="31.38"/><circle class="cls-2" cx="105.24" cy="444" r="31.38"/><circle class="cls-2" cx="170.56" cy="444" r="31.38"/><circle class="cls-2" cx="235.89" cy="444" r="31.38"/><circle class="cls-2" cx="301.21" cy="444" r="31.38"/><circle class="cls-2" cx="366.53" cy="444" r="31.38"/><circle class="cls-2" cx="431.85" cy="444" r="31.38"/><circle class="cls-2" cx="497.18" cy="444" r="31.38"/><circle class="cls-2" cx="562.5" cy="444" r="31.38"/><circle class="cls-2" cx="627.82" cy="444" r="31.38"/><circle class="cls-2" cx="693.15" cy="444" r="31.38"/><circle class="cls-2" cx="758.47" cy="444" r="31.38"/><circle class="cls-2" cx="823.79" cy="444" r="31.38"/><circle class="cls-2" cx="889.11" cy="444" r="31.38"/><circle class="cls-2" cx="954.44" cy="444" r="31.38"/><circle class="cls-2" cx="1019.76" cy="444" r="31.38"/><circle class="cls-2" cx="105.24" cy="378.68" r="31.38"/><circle class="cls-2" cx="170.56" cy="378.68" r="31.38"/><circle class="cls-2" cx="235.89" cy="378.68" r="31.38"/><circle class="cls-2" cx="301.21" cy="378.68" r="31.38"/><circle class="cls-2" cx="366.53" cy="378.68" r="31.38"/></svg>