<svg id="Livello_1" data-name="Livello 1" xmlns="http://www.w3.org/2000/svg" viewBox="0 0 1125 2436"><defs><style>.cls-1{fill:#d3d3d3;}.cls-2{fill:#ff3a00;}.cls-3{fill:#fff;}</style></defs><rect width="1125" height="2436"/><circle class="cls-1" cx="104.79" cy="1946.42" r="31.38"/><circle class="cls-1" cx="170.11" cy="1946.42" r="31.38"/><circle class="cls-1" cx="235.44" cy="1946.42" r="31.38"/><circle class="cls-1" cx="300.76" cy="1946.42" r="31.38"/><circle class="cls-1" cx="366.08" cy="1946.42" r="31.38"/><circle class="cls-1" cx="431.4" cy="1946.42" r="31.38"/><circle class="cls-1" cx="496.73" cy="1946.42" r="31.38"/><circle class="cls-1" cx="562.05" cy="1946.42" r="31.38"/><circle class="cls-1" cx="627.37" cy="1946.42" r="31.38"/><circle class="cls-1" cx="692.7" cy="1946.42" r="31.38"/><circle class="cls-1" cx="758.02" cy="1946.42" r="31.38"/><circle class="cls-1" cx="823.34" cy="1946.42" r="31.38"/><circle class="cls-1" cx="888.67" cy="1946.42" r="31.38"/><circle class="cls-1" cx="953.99" cy="1946.42" r="31.38"/><circle class="cls-1" cx="1019.31" cy="1946.42" r="31.38"/><circle class="cls-1" cx="104.79" cy="1881.1" r="31.38"/><circle class="cls-1" cx="170.11" cy="1881.1" r="31.38"/><circle class="cls-1" cx="235.44" cy="1881.1" r="31.38"/><circle class="cls-1" cx="300.76" cy="1881.1" r="31.38"/><circle class="cls-1" cx="366.08" cy="1881.1" r="31.38"/><circle class="cls-1" cx="431.4" cy="1881.1" r="31.38"/><circle class="cls-1" cx="496.73" cy="1881.1" r="31.38"/><circle class="cls-1" cx="562.05" cy="1881.1" r="31.38"/><circle class="cls-1" cx="627.37" cy="1881.1" r="31.38"/><circle class="cls-1" cx="692.7" cy="1881.1" r="31.38"/><circle class="cls-1" cx="758.02" cy="1881.1" r="31.38"/><circle class="cls-1" cx="823.34" cy="1881.1" r="31.38"/><circle class="cls-1" cx="888.67" cy="1881.1" r="31.38"/><circle class="cls-1" cx="953.99" cy="1881.1" r="31.38"/><circle class="cls-1" cx="1019.31" cy="1881.1" r="31.38"/><circle class="cls-1" cx="104.79" cy="1815.78" r="31.38"/><circle class="cls-1" cx="170.11" cy="1815.78" r="31.38"/><circle class="cls-1" cx="235.44" cy="1815.78" r="31.38"/><circle class="cls-1" cx="300.76" cy="1815.78" r="31.38"/><circle class="cls-1" cx="366.08" cy="1815.78" r="31.38"/><circle class="cls-1" cx="431.4" cy="1815.78" r="31.38"/><circle class="cls-1" cx="496.73" cy="1815.78" r="31.38"/><circle class="cls-1" cx="562.05" cy="1815.78" r="31.38"/><circle class="cls-1" cx="627.37" cy="1815.78" r="31.38"/><circle class="cls-1" cx="692.7" cy="1815.78" r="31.38"/><circle class="cls-1" cx="758.02" cy="1815.78" r="31.38"/><circle class="cls-1" cx="823.34" cy="1815.78" r="31.38"/><circle class="cls-1" cx="888.67" cy="1815.78" r="31.38"/><circle class="cls-1" cx="953.99" cy="1815.78" r="31.38"/><circle class="cls-1" cx="1019.31" cy="1815.78" r="31.38"/><circle class="cls-1" cx="104.79" cy="1750.46" r="31.38"/><circle class="cls-1" cx="170.11" cy="1750.46" r="31.38"/><circle class="cls-1" cx="235.44" cy="1750.46" r="31.38"/><circle class="cls-1" cx="300.76" cy="1750.46" r="31.38"/><circle class="cls-1" cx="366.08" cy="1750.46" r="31.38"/><circle class="cls-1" cx="431.4" cy="1750.46" r="31.38"/><circle class="cls-1" cx="496.73" cy="1750.46" r="31.38"/><circle class="cls-1" cx="562.05" cy="1750.46" r="31.38"/><circle class="cls-1" cx="627.37" cy="1750.46" r="31.38"/><circle class="cls-1" cx="692.7" cy="1750.46" r="31.38"/><circle class="cls-1" cx="758.02" cy="1750.46" r="31.38"/><circle class="cls-1" cx="823.34" cy="1750.46" r="31.38"/><circle class="cls-1" cx="888.67" cy="1750.46" r="31.38"/><circle class="cls-1" cx="953.99" cy="1750.46" r="31.38"/><circle class="cls-1" cx="1019.31" cy="1750.46" r="31.38"/><circle class="cls-1" cx="104.79" cy="1685.13" r="31.38"/><circle class="cls-1" cx="170.11" cy="1685.13" r="31.38"/><circle class="cls-1" cx="235.44" cy="1685.13" r="31.38"/><circle class="cls-1" cx="300.76" cy="1685.13" r="31.38"/><circle class="cls-1" cx="366.08" cy="1685.13" r="31.38"/><circle class="cls-1" cx="431.4" cy="1685.13" r="31.38"/><circle class="cls-1" cx="496.73" cy="1685.13" r="31.38"/><circle class="cls-1" cx="562.05" cy="1685.13" r="31.38"/><circle class="cls-1" cx="627.37" cy="1685.13" r="31.38"/><circle class="cls-1" cx="692.7" cy="1685.13" r="31.38"/><circle class="cls-1" cx="758.02" cy="1685.13" r="31.38"/><circle class="cls-1" cx="823.34" cy="1685.13" r="31.38"/><circle class="cls-1" cx="888.67" cy="1685.13" r="31.38"/><circle class="cls-1" cx="953.99" cy="1685.13" r="31.38"/><circle class="cls-1" cx="1019.31" cy="1685.13" r="31.38"/><circle class="cls-1" cx="104.79" cy="1619.81" r="31.38"/><circle class="cls-1" cx="170.11" cy="1619.81" r="31.38"/><circle class="cls-1" cx="235.44" cy="1619.81" r="31.38"/><circle class="cls-1" cx="300.76" cy="1619.81" r="31.38"/><circle class="cls-1" cx="366.08" cy="1619.81" r="31.38"/><circle class="cls-1" cx="431.4" cy="1619.81" r="31.38"/><circle class="cls-1" cx="496.73" cy="1619.81" r="31.38"/><circle class="cls-1" cx="562.05" cy="1619.81" r="31.38"/><circle class="cls-1" cx="627.37" cy="1619.81" r="31.38"/><circle class="cls-1" cx="692.7" cy="1619.81" r="31.38"/><circle class="cls-1" cx="758.02" cy="1619.81" r="31.38"/><circle class="cls-1" cx="823.34" cy="1619.81" r="31.38"/><circle class="cls-1" cx="888.67" cy="1619.81" r="31.38"/><circle class="cls-1" cx="953.99" cy="1619.81" r="31.38"/><circle class="cls-1" cx="1019.31" cy="1619.81" r="31.38"/><circle class="cls-1" cx="104.79" cy="1554.49" r="31.38"/><circle class="cls-1" cx="170.11" cy="1554.49" r="31.38"/><circle class="cls-1" cx="235.44" cy="1554.49" r="31.38"/><circle class="cls-1" cx="300.76" cy="1554.49" r="31.38"/><circle class="cls-1" cx="366.08" cy="1554.49" r="31.38"/><circle class="cls-1" cx="431.4" cy="1554.49" r="31.38"/><circle class="cls-1" cx="496.73" cy="1554.49" r="31.38"/><circle class="cls-1" cx="562.05" cy="1554.49" r="31.38"/><circle class="cls-1" cx="627.37" cy="1554.49" r="31.38"/><circle class="cls-1" cx="692.7" cy="1554.49" r="31.38"/><circle class="cls-1" cx="758.02" cy="1554.49" r="31.38"/><circle class="cls-1" cx="823.34" cy="1554.49" r="31.38"/><circle class="cls-1" cx="888.67" cy="1554.49" r="31.38"/><circle class="cls-1" cx="953.99" cy="1554.49" r="31.38"/><circle class="cls-1" cx="1019.31" cy="1554.49" r="31.38"/><circle class="cls-1" cx="104.79" cy="1489.16" r="31.38"/><circle class="cls-1" cx="170.11" cy="1489.16" r="31.38"/><circle class="cls-1" cx="235.44" cy="1489.16" r="31.38"/><circle class="cls-1" cx="300.76" cy="1489.16" r="31.38"/><circle class="cls-1" cx="366.08" cy="1489.16" r="31.38"/><circle class="cls-1" cx="431.4" cy="1489.16" r="31.38"/><circle class="cls-1" cx="496.73" cy="1489.16" r="31.38"/><circle class="cls-1" cx="562.05" cy="1489.16" r="31.38"/><circle class="cls-1" cx="627.37" cy="1489.16" r="31.38"/><circle class="cls-1" cx="692.7" cy="1489.16" r="31.38"/><circle class="cls-1" cx="758.02" cy="1489.16" r="31.38"/><circle class="cls-1" cx="823.34" cy="1489.16" r="31.38"/><circle class="cls-1" cx="888.67" cy="1489.16" r="31.38"/><circle class="cls-1" cx="953.99" cy="1489.16" r="31.38"/><circle class="cls-1" cx="1019.31" cy="1489.16" r="31.38"/><circle class="cls-1" cx="104.79" cy="1423.84" r="31.38"/><circle class="cls-1" cx="170.11" cy="1423.84" r="31.38"/><circle class="cls-1" cx="235.44" cy="1423.84" r="31.38"/><circle class="cls-1" cx="300.76" cy="1423.84" r="31.38"/><circle class="cls-1" cx="366.08" cy="1423.84" r="31.38"/><circle class="cls-1" cx="431.4" cy="1423.84" r="31.38"/><circle class="cls-1" cx="496.73" cy="1423.84" r="31.38"/><circle class="cls-1" cx="562.05" cy="1423.84" r="31.38"/><circle class="cls-1" cx="627.37" cy="1423.84" r="31.38"/><circle class="cls-1" cx="692.7" cy="1423.84" r="31.38"/><circle class="cls-1" cx="758.02" cy="1423.84" r="31.38"/><circle class="cls-1" cx="823.34" cy="1423.84" r="31.38"/><circle class="cls-1" cx="888.67" cy="1423.84" r="31.38"/><circle class="cls-1" cx="953.99" cy="1423.84" r="31.38"/><circle class="cls-1" cx="1019.31" cy="1423.84" r="31.38"/><circle class="cls-1" cx="104.79" cy="1355.52" r="31.38"/><circle class="cls-1" cx="170.11" cy="1355.52" r="31.38"/><circle class="cls-1" cx="235.44" cy="1355.52" r="31.38"/><circle class="cls-1" cx="300.76" cy="1355.52" r="31.38"/><circle class="cls-1" cx="366.08" cy="1355.52" r="31.38"/><circle class="cls-1" cx="431.4" cy="1355.52" r="31.38"/><circle class="cls-1" cx="496.73" cy="1355.52" r="31.38"/><circle class="cls-1" cx="562.05" cy="1355.52" r="31.38"/><circle class="cls-1" cx="627.37" cy="1355.52" r="31.38"/><circle class="cls-1" cx="692.7" cy="1355.52" r="31.38"/><circle class="cls-1" cx="758.02" cy="1355.52" r="31.38"/><circle class="cls-1" cx="823.34" cy="1355.52" r="31.38"/><circle class="cls-1" cx="888.67" cy="1355.52" r="31.38"/><circle class="cls-1" cx="953.99" cy="1355.52" r="31.38"/><circle class="cls-1" cx="1019.31" cy="1355.52" r="31.38"/><circle class="cls-1" cx="104.79" cy="1290.2" r="31.38"/><circle class="cls-1" cx="170.11" cy="1290.2" r="31.38"/><circle class="cls-1" cx="235.44" cy="1290.2" r="31.38"/><circle class="cls-1" cx="300.76" cy="1290.2" r="31.38"/><circle class="cls-1" cx="366.08" cy="1290.2" r="31.38"/><circle class="cls-1" cx="431.4" cy="1290.2" r="31.38"/><circle class="cls-1" cx="496.73" cy="1290.2" r="31.38"/><circle class="cls-1" cx="562.05" cy="1290.2" r="31.38"/><circle class="cls-1" cx="627.37" cy="1290.2" r="31.38"/><circle class="cls-1" cx="692.7" cy="1290.2" r="31.38"/><circle class="cls-1" cx="758.02" cy="1290.2" r="31.38"/><circle class="cls-1" cx="823.34" cy="1290.2" r="31.38"/><circle class="cls-1" cx="888.67" cy="1290.2" r="31.38"/><circle class="cls-1" cx="953.99" cy="1290.2" r="31.38"/><circle class="cls-1" cx="1019.31" cy="1290.2" r="31.38"/><circle class="cls-1" cx="104.79" cy="1224.87" r="31.38"/><circle class="cls-1" cx="170.11" cy="1224.87" r="31.38"/><circle class="cls-1" cx="235.44" cy="1224.87" r="31.38"/><circle class="cls-1" cx="300.76" cy="1224.87" r="31.38"/><circle class="cls-1" cx="366.08" cy="1224.87" r="31.38"/><circle class="cls-1" cx="431.4" cy="1224.87" r="31.38"/><circle class="cls-1" cx="496.73" cy="1224.87" r="31.38"/><circle class="cls-1" cx="562.05" cy="1224.87" r="31.38"/><circle class="cls-1" cx="627.37" cy="1224.87" r="31.38"/><circle class="cls-1" cx="692.7" cy="1224.87" r="31.38"/><circle class="cls-1" cx="758.02" cy="1224.87" r="31.38"/><circle class="cls-1" cx="823.34" cy="1224.87" r="31.38"/><circle class="cls-1" cx="888.67" cy="1224.87" r="31.38"/><circle class="cls-1" cx="953.99" cy="1224.87" r="31.38"/><circle class="cls-1" cx="1019.31" cy="1224.87" r="31.38"/><circle class="cls-1" cx="104.79" cy="1159.55" r="31.38"/><circle class="cls-1" cx="170.11" cy="1159.55" r="31.38"/><circle class="cls-1" cx="235.44" cy="1159.55" r="31.38"/><circle class="cls-1" cx="300.76" cy="1159.55" r="31.38"/><circle class="cls-1" cx="366.08" cy="1159.55" r="31.38"/><circle class="cls-1" cx="431.4" cy="1159.55" r="31.38"/><circle class="cls-1" cx="496.73" cy="1159.55" r="31.38"/><circle class="cls-1" cx="562.05" cy="1159.55" r="31.38"/><circle class="cls-1" cx="627.37" cy="1159.55" r="31.38"/><circle class="cls-1" cx="692.7" cy="1159.55" r="31.38"/><circle class="cls-1" cx="758.02" cy="1159.55" r="31.38"/><circle class="cls-1" cx="823.34" cy="1159.55" r="31.38"/><circle class="cls-1" cx="888.67" cy="1159.55" r="31.38"/><circle class="cls-1" cx="953.99" cy="1159.55" r="31.38"/><circle class="cls-1" cx="1019.31" cy="1159.55" r="31.38"/><circle class="cls-1" cx="104.79" cy="1094.23" r="31.38"/><circle class="cls-1" cx="170.11" cy="1094.23" r="31.38"/><circle class="cls-1" cx="235.44" cy="1094.23" r="31.38"/><circle class="cls-1" cx="300.76" cy="1094.23" r="31.38"/><circle class="cls-1" cx="366.08" cy="1094.23" r="31.38"/><circle class="cls-1" cx="431.4" cy="1094.23" r="31.38"/><circle class="cls-1" cx="496.73" cy="1094.23" r="31.38"/><circle class="cls-1" cx="562.05" cy="1094.23" r="31.38"/><circle class="cls-1" cx="627.37" cy="1094.23" r="31.38"/><circle class="cls-1" cx="692.7" cy="1094.23" r="31.38"/><circle class="cls-1" cx="758.02" cy="1094.23" r="31.38"/><circle class="cls-1" cx="823.34" cy="1094.23" r="31.38"/><circle class="cls-1" cx="888.67" cy="1094.23" r="31.38"/><circle class="cls-1" cx="953.99" cy="1094.23" r="31.38"/><circle class="cls-1" cx="1019.31" cy="1094.23" r="31.38"/><circle class="cls-1" cx="104.79" cy="1028.9" r="31.38"/><circle class="cls-1" cx="170.11" cy="1028.9" r="31.38"/><circle class="cls-1" cx="235.44" cy="1028.9" r="31.38"/><circle class="cls-1" cx="300.76" cy="1028.9" r="31.38"/><circle class="cls-1" cx="366.08" cy="1028.9" r="31.38"/><circle class="cls-1" cx="431.4" cy="1028.9" r="31.38"/><circle class="cls-1" cx="496.73" cy="1028.9" r="31.38"/><circle class="cls-1" cx="562.05" cy="1028.9" r="31.38"/><circle class="cls-1" cx="627.37" cy="1028.9" r="31.38"/><circle class="cls-1" cx="692.7" cy="1028.9" r="31.38"/><circle class="cls-1" cx="758.02" cy="1028.9" r="31.38"/><circle class="cls-1" cx="823.34" cy="1028.9" r="31.38"/><circle class="cls-1" cx="888.67" cy="1028.9" r="31.38"/><circle class="cls-1" cx="953.99" cy="1028.9" r="31.38"/><circle class="cls-1" cx="1019.31" cy="1028.9" r="31.38"/><circle class="cls-1" cx="104.79" cy="963.58" r="31.38"/><circle class="cls-1" cx="170.11" cy="963.58" r="31.38"/><circle class="cls-1" cx="235.44" cy="963.58" r="31.38"/><circle class="cls-1" cx="300.76" cy="963.58" r="31.38"/><circle class="cls-1" cx="366.08" cy="963.58" r="31.38"/><circle class="cls-1" cx="431.4" cy="963.58" r="31.38"/><circle class="cls-1" cx="496.73" cy="963.58" r="31.38"/><circle class="cls-1" cx="562.05" cy="963.58" r="31.38"/><circle class="cls-1" cx="627.37" cy="963.58" r="31.38"/><circle class="cls-1" cx="692.7" cy="963.58" r="31.38"/><circle class="cls-1" cx="758.02" cy="963.58" r="31.38"/><circle class="cls-1" cx="823.34" cy="963.58" r="31.38"/><circle class="cls-1" cx="888.67" cy="963.58" r="31.38"/><circle class="cls-1" cx="953.99" cy="963.58" r="31.38"/><circle class="cls-1" cx="1019.31" cy="963.58" r="31.38"/><circle class="cls-1" cx="104.79" cy="898.26" r="31.38"/><circle class="cls-1" cx="170.11" cy="898.26" r="31.38"/><circle class="cls-1" cx="235.44" cy="898.26" r="31.38"/><circle class="cls-1" cx="300.76" cy="898.26" r="31.38"/><circle class="cls-1" cx="366.08" cy="898.26" r="31.38"/><circle class="cls-1" cx="431.4" cy="898.26" r="31.38"/><circle class="cls-1" cx="496.73" cy="898.26" r="31.38"/><circle class="cls-1" cx="562.05" cy="898.26" r="31.38"/><circle class="cls-1" cx="627.37" cy="898.26" r="31.38"/><circle class="cls-1" cx="692.7" cy="898.26" r="31.38"/><circle class="cls-1" cx="758.02" cy="898.26" r="31.38"/><circle class="cls-1" cx="823.34" cy="898.26" r="31.38"/><circle class="cls-1" cx="888.67" cy="898.26" r="31.38"/><circle class="cls-1" cx="953.99" cy="898.26" r="31.38"/><circle class="cls-1" cx="1019.31" cy="898.26" r="31.38"/><circle class="cls-1" cx="104.79" cy="832.94" r="31.38"/><circle class="cls-1" cx="170.11" cy="832.94" r="31.38"/><circle class="cls-1" cx="235.44" cy="832.94" r="31.38"/><circle class="cls-1" cx="300.76" cy="832.94" r="31.38"/><circle class="cls-1" cx="366.08" cy="832.94" r="31.38"/><circle class="cls-1" cx="431.4" cy="832.94" r="31.38"/><circle class="cls-1" cx="496.73" cy="832.94" r="31.38"/><circle class="cls-1" cx="562.05" cy="832.94" r="31.38"/><circle class="cls-1" cx="627.37" cy="832.94" r="31.38"/><circle class="cls-1" cx="692.7" cy="832.94" r="31.38"/><circle class="cls-1" cx="758.02" cy="832.94" r="31.38"/><circle class="cls-1" cx="823.34" cy="832.94" r="31.38"/><circle class="cls-1" cx="888.67" cy="832.94" r="31.38"/><circle class="cls-1" cx="953.99" cy="832.94" r="31.38"/><circle class="cls-1" cx="1019.31" cy="832.94" r="31.38"/><circle class="cls-2" cx="104.79" cy="770.61" r="31.38"/><circle class="cls-2" cx="170.11" cy="770.61" r="31.38"/><circle class="cls-2" cx="235.44" cy="770.61" r="31.38"/><circle class="cls-2" cx="300.76" cy="770.61" r="31.38"/><circle class="cls-2" cx="366.08" cy="770.61" r="31.38"/><circle class="cls-2" cx="431.4" cy="770.61" r="31.38"/><circle class="cls-2" cx="496.73" cy="770.61" r="31.38"/><circle class="cls-2" cx="562.05" cy="770.61" r="31.38"/><circle class="cls-2" cx="627.37" cy="770.61" r="31.38"/><circle class="cls-2" cx="692.7" cy="770.61" r="31.38"/><circle class="cls-2" cx="758.02" cy="770.61" r="31.38"/><circle class="cls-2" cx="823.34" cy="770.61" r="31.38"/><circle class="cls-2" cx="888.67" cy="770.61" r="31.38"/><circle class="cls-2" cx="953.99" cy="770.61" r="31.38"/><circle class="cls-1" cx="1019.31" cy="770.61" r="31.38"/><circle class="cls-2" cx="104.79" cy="705.29" r="31.38"/><circle class="cls-2" cx="170.11" cy="705.29" r="31.38"/><circle class="cls-2" cx="235.44" cy="705.29" r="31.38"/><circle class="cls-2" cx="300.76" cy="705.29" r="31.38"/><circle class="cls-2" cx="366.08" cy="705.29" r="31.38"/><circle class="cls-2" cx="431.4" cy="705.29" r="31.38"/><circle class="cls-2" cx="496.73" cy="705.29" r="31.38"/><circle class="cls-2" cx="562.05" cy="705.29" r="31.38"/><circle class="cls-2" cx="627.37" cy="705.29" r="31.38"/><circle class="cls-2" cx="692.7" cy="705.29" r="31.38"/><circle class="cls-2" cx="758.02" cy="705.29" r="31.38"/><circle class="cls-2" cx="823.34" cy="705.29" r="31.38"/><circle class="cls-2" cx="888.67" cy="705.29" r="31.38"/><circle class="cls-2" cx="953.99" cy="705.29" r="31.38"/><circle class="cls-2" cx="1019.31" cy="705.29" r="31.38"/><circle class="cls-2" cx="104.79" cy="639.97" r="31.38"/><circle class="cls-2" cx="170.11" cy="639.97" r="31.38"/><circle class="cls-2" cx="235.44" cy="639.97" r="31.38"/><circle class="cls-2" cx="300.76" cy="639.97" r="31.38"/><circle class="cls-2" cx="366.08" cy="639.97" r="31.38"/><circle class="cls-2" cx="431.4" cy="639.97" r="31.38"/><circle class="cls-2" cx="496.73" cy="639.97" r="31.38"/><circle class="cls-2" cx="562.05" cy="639.97" r="31.38"/><circle class="cls-2" cx="627.37" cy="639.97" r="31.38"/><circle class="cls-2" cx="692.7" cy="639.97" r="31.38"/><circle class="cls-2" cx="758.02" cy="639.97" r="31.38"/><circle class="cls-2" cx="823.34" cy="639.97" r="31.38"/><circle class="cls-2" cx="888.67" cy="639.97" r="31.38"/><circle class="cls-2" cx="953.99" cy="639.97" r="31.38"/><circle class="cls-2" cx="1019.31" cy="639.97" r="31.38"/><circle class="cls-2" cx="104.79" cy="574.64" r="31.38"/><circle class="cls-2" cx="170.11" cy="574.64" r="31.38"/><circle class="cls-2" cx="235.44" cy="574.64" r="31.38"/><circle class="cls-2" cx="300.76" cy="574.64" r="31.38"/><circle class="cls-2" cx="366.08" cy="574.64" r="31.38"/><circle class="cls-2" cx="431.4" cy="574.64" r="31.38"/><circle class="cls-2" cx="496.73" cy="574.64" r="31.38"/><circle class="cls-2" cx="562.05" cy="574.64" r="31.38"/><circle class="cls-2" cx="627.37" cy="574.64" r="31.38"/><circle class="cls-2" cx="692.7" cy="574.64" r="31.38"/><circle class="cls-2" cx="758.02" cy="574.64" r="31.38"/><circle class="cls-2" cx="823.34" cy="574.64" r="31.38"/><circle class="cls-2" cx="888.67" cy="574.64" r="31.38"/><circle class="cls-2" cx="953.99" cy="574.64" r="31.38"/><circle class="cls-2" cx="1019.31" cy="574.64" r="31.38"/><circle class="cls-2" cx="104.79" cy="509.32" r="31.38"/><circle class="cls-2" cx="170.11" cy="509.32" r="31.38"/><circle class="cls-2" cx="235.44" cy="509.32" r="31.38"/><circle class="cls-2" cx="300.76" cy="509.32" r="31.38"/><circle class="cls-2" cx="366.08" cy="509.32" r="31.38"/><circle class="cls-2" cx="431.4" cy="509.32" r="31.38"/><circle class="cls-2" cx="496.73" cy="509.32" r="31.38"/><circle class="cls-2" cx="562.05" cy="509.32" r="31.38"/><circle class="cls-2" cx="627.37" cy="509.32" r="31.38"/><circle class="cls-2" cx="692.7" cy="509.32" r="31.38"/><circle class="cls-2" cx="758.02" cy="509.32" r="31.38"/><circle class="cls-2" cx="823.34" cy="509.32" r="31.38"/><circle class="cls-2" cx="888.67" cy="509.32" r="31.38"/><circle class="cls-2" cx="953.99" cy="509.32" r="31.38"/><circle class="cls-2" cx="1019.31" cy="509.32" r="31.38"/><circle class="cls-2" cx="104.79" cy="444" r="31.38"/><circle class="cls-2" cx="170.11" cy="444" r="31.38"/><circle class="cls-2" cx="235.44" cy="444" r="31.38"/><circle class="cls-2" cx="300.76" cy="444" r="31.38"/><circle class="cls-2" cx="366.08" cy="444" r="31.38"/><circle class="cls-2" cx="431.4" cy="444" r="31.38"/><circle class="cls-2" cx="496.73" cy="444" r="31.38"/><circle class="cls-2" cx="562.05" cy="444" r="31.38"/><circle class="cls-2" cx="627.37" cy="444" r="31.38"/><circle class="cls-2" cx="692.7" cy="444" r="31.38"/><circle class="cls-2" cx="758.02" cy="444" r="31.38"/><circle class="cls-2" cx="823.34" cy="444" r="31.38"/><circle class="cls-2" cx="888.67" cy="444" r="31.38"/><circle class="cls-2" cx="953.99" cy="444" r="31.38"/><circle class="cls-2" cx="1019.31" cy="444" r="31.38"/><circle class="cls-2" cx="104.79" cy="378.68" r="31.38"/><circle class="cls-2" cx="170.11" cy="378.68" r="31.38"/><circle class="cls-2" cx="235.44" cy="378.68" r="31.38"/><circle class="cls-2" cx="300.76" cy="378.68" r="31.38"/><circle class="cls-2" cx="366.08" cy="378.68" r="31.38"/><path class="cls-3" d="M217.66,295.13V250.67l69-53.87q18.53-14.53,26.22-24.22t7.7-20V142.37q0-17.39-8.41-24.94t-29.78-7.55q-22.23,0-32.63,9.26t-10.4,29.21H212.24q4.27-27.65,23.09-44.17t47-16.53q29.64,0,47.6,16.81t17.95,41.33q0,33.35-42.47,65.83L242.74,259.5v11.4H351.89v24.23Z"/><path class="cls-3" d="M523.31,268.76Q502.37,298,467.31,298t-56-29.22q-21-29.2-20.95-75.66,0-46.74,21.09-76.1t55.86-29.35q34.77,0,55.86,29.35t21.09,76.1Q544.26,239.56,523.31,268.76Zm-93.19-7.41q11.53,14.11,37.19,14.11t37.19-14.11q11.55-14.1,11.55-45.17V170q0-31.63-11.55-45.88t-37.19-14.25q-25.65,0-37.19,14.25T418.58,170v46.17Q418.58,247.24,430.12,261.35Z"/><path class="cls-3" d="M654,298q-32.78,0-53.86-19.81T579,227.87a70.86,70.86,0,0,1,6.7-31.07q6.69-14,20.09-29.92L670.51,90.5h31.64l-80.37,94.05H640.3a62.88,62.88,0,0,1,17.82-18,38.62,38.62,0,0,1,21.51-6.84q22.8,0,35.91,19.1t13.11,49q0,30.5-21.09,50.3T654,298ZM617.5,265.77q11.12,9.69,36.48,9.69t36.48-10.4q11.12-10.41,11.12-33.77V215.9q0-18.24-5-27.36t-18.67-9.12A20.33,20.33,0,0,0,662.39,186q-6.14,6.56-6.13,19.67h-47q-2.85,6.27-2.85,16v12.54Q606.39,256.09,617.5,265.77Z"/><path class="cls-3" d="M841.79,298Q811,298,791.63,281.3T770,237.84h27.36q0,20.24,9.7,28.93t34.76,8.69q43.32,0,43.33-27.36V236.42q0-21.37-36.77-21.38h-3.7V200.51h-36.2V179.42h36.2V163.74h6q17.1,0,22.52-4.27t5.41-14.54v-8.55q0-12-8-19.24t-29.36-7.26q-21.94,0-30.35,8.12t-8.41,26.93H775.67q2.57-24.21,21.09-40.75t44.46-16.53q29.92,0,47.46,15.1T906.21,139q0,16-11.41,28.64T870.29,182v14.25a52.67,52.67,0,0,1,29.65,14.39q12.82,12.12,12.82,29.22,0,24.79-21,41.46T841.79,298Z"/><path class="cls-2" d="M166.71,2155q-14.69,20.51-39.29,20.5T88.12,2155q-14.7-20.49-14.7-53.1,0-32.79,14.79-53.4t39.21-20.6q24.39,0,39.2,20.6t14.8,53.4Q181.42,2134.53,166.71,2155Zm-65.39-5.2q8.09,9.9,26.1,9.9t26.09-9.9q8.12-9.9,8.11-31.7v-32.4q0-22.2-8.11-32.2t-26.09-10q-18,0-26.1,10t-8.11,32.2v32.4Q93.21,2139.93,101.32,2149.82Z"/><path class="cls-2" d="M224.21,2173.52l57.4-68.8h-14.8a42.9,42.9,0,0,1-12.1,12.6,25.89,25.89,0,0,1-14.7,4.8q-15.4,0-24.3-13t-8.9-33q0-21,14.5-34.6t36.9-13.6q22.4,0,37,13.9t14.6,35.3a43,43,0,0,1-5,20.7q-5,9.3-15.4,22.1l-43.2,53.6Zm17.2-65.2a13.16,13.16,0,0,0,10.2-4.7q4.2-4.7,4-13.7h33.2a31.14,31.14,0,0,0,2-11.6v-6.8q0-14.79-7.6-21.4t-24.8-6.6q-17.21,0-24.9,7.7t-7.7,24.7v10.4q0,11,3.3,16.5T241.41,2108.32Z"/><path class="cls-2" d="M382.41,2175.52q-23,0-37.8-13.9t-14.8-35.3a49.83,49.83,0,0,1,4.7-21.8,102.21,102.21,0,0,1,14.1-21l45.4-53.6h22.2l-56.4,66h13a44.14,44.14,0,0,1,12.5-12.6,27.14,27.14,0,0,1,15.1-4.8q16,0,25.2,13.4t9.2,34.4q0,21.41-14.8,35.3T382.41,2175.52Zm-25.6-22.6q7.8,6.81,25.6,6.8t25.6-7.3q7.8-7.29,7.8-23.7v-10.8q0-12.8-3.5-19.2t-13.1-6.4a14.3,14.3,0,0,0-10.9,4.6q-4.31,4.6-4.3,13.8H351a27.25,27.25,0,0,0-2,11.2v8.8Q349,2146.13,356.81,2152.92Z"/><path class="cls-1" d="M74.32,2373.52v-17h42v-109.6H78.92v-17h55v126.6h42v17Z"/><path class="cls-1" d="M246.31,2375.52q-19.4,0-33.3-9.9t-16.5-26.1h19.41q1.59,11.61,8.39,15.8t22.61,4.2q16.59,0,24-5.8t7.39-19.2v-17q0-12.6-5.39-18.3t-17.41-5.7q-21.6,0-22,20h-36.2v-83.6h93.61v17h-77v53.2h8a41.56,41.56,0,0,1,13.5-16.2q8.69-6.2,21.09-6.2,18.21,0,29.5,12.8t11.3,34q0,22.61-13.1,36.8T246.31,2375.52Z"/><path class="cls-1" d="M344.92,2373.52l56-118.6v-8H317.51v-17h101v24l-53.59,119.6Z"/><path class="cls-2" d="M504,2111.33a14.82,14.82,0,0,1-10-3.31,11.44,11.44,0,0,1-3.93-9.06h5.13q.06,4.78,1.65,6.36c1.07,1,3.44,1.56,7.13,1.56,3.42,0,5.72-.6,6.89-1.82s1.77-3.53,1.77-6.95v-5.93h-2.28a10.64,10.64,0,0,1-3.79,4.44,9.3,9.3,0,0,1-5.27,1.71,10.61,10.61,0,0,1-8.92-4.41,18.32,18.32,0,0,1,0-20.92,10.59,10.59,0,0,1,8.92-4.42,9.3,9.3,0,0,1,5.27,1.71,10.61,10.61,0,0,1,3.79,4.45h2.28v-5.59h5v29.52a12,12,0,0,1-3.85,9A13.65,13.65,0,0,1,504,2111.33Zm-2.74-17.44q5.92,0,6.44-5.93h5v-9h-5q-.51-5.92-6.44-5.92-3.48,0-5,1.93t-1.54,6.27v4.45q0,4.34,1.54,6.27T501.24,2093.89Z"/><path class="cls-2" d="M531.45,2064.33a3.65,3.65,0,0,1-2.74,1.11,3.88,3.88,0,1,1,0-7.75,3.68,3.68,0,0,1,2.74,1.09,4.11,4.11,0,0,1,0,5.55ZM526.21,2099v-29.81h5V2099Z"/><path class="cls-2" d="M562,2095.06a13.56,13.56,0,0,1-20.12,0,16.94,16.94,0,0,1,0-22,13.6,13.6,0,0,1,20.12,0,16.91,16.91,0,0,1,0,22ZM545.39,2093q2,2.09,6.52,2.08t6.53-2.08c1.35-1.38,2-3.62,2-6.69v-4.56c0-3-.67-5.26-2-6.64s-3.53-2.08-6.53-2.08-5.17.69-6.52,2.08-2,3.6-2,6.64v4.56C543.36,2089.38,544,2091.62,545.39,2093Z"/><path class="cls-2" d="M572.6,2099v-29.81h5v7.41h2.28a11,11,0,0,1,1-2.39,13.05,13.05,0,0,1,2-2.54,9.72,9.72,0,0,1,3.59-2.2,14.71,14.71,0,0,1,5.19-.85v6.33h-3.48a5,5,0,0,0-3.82,1.25q-1.14,1.26-1.14,4.62h-5.64V2099Z"/><path class="cls-2" d="M596.66,2099v-29.81h5v5.59h2.23a11.35,11.35,0,0,1,3.9-4.57,9.52,9.52,0,0,1,5.33-1.59,9.26,9.26,0,0,1,7,2.82,9.91,9.91,0,0,1,2.74,7.21V2099h-5v-20.35a6.07,6.07,0,0,0-1.25-4.27,5.46,5.46,0,0,0-4.1-1.31,5.88,5.88,0,0,0-4.28,1.39c-.95.93-1.42,2.44-1.42,4.53h-5.08v20Z"/><path class="cls-2" d="M636.16,2064.33a3.67,3.67,0,0,1-2.74,1.11,3.88,3.88,0,1,1,0-7.75,3.69,3.69,0,0,1,2.74,1.09,4.11,4.11,0,0,1,0,5.55ZM630.91,2099v-29.81h5V2099Z"/><path class="cls-2" d="M661.41,2099v-25.59h-6.5v-4.22h6.5v-3.48a7.56,7.56,0,0,1,2.31-5.73,8.51,8.51,0,0,1,6.12-2.19h4.56v4.5h-5.13a2.52,2.52,0,0,0-2.85,2.85v4.05H675v4.22h-8.55V2099Z"/><path class="cls-2" d="M687.29,2099.53a9.28,9.28,0,0,1-6.82-2.62,8.8,8.8,0,0,1-2.65-6.5,7.37,7.37,0,0,1,3.14-6.1,13.11,13.11,0,0,1,8.15-2.39h8.55v-2.68q0-3.7-1.4-5c-.93-.84-2.7-1.25-5.33-1.25s-4.59.4-5.58,1.22-1.54,2.48-1.66,5h-5.13a12.1,12.1,0,0,1,4.17-7.81,12.64,12.64,0,0,1,8.37-2.85,12,12,0,0,1,8.44,2.88q3.13,2.88,3.14,8.06V2099h-5v-3.76h-2.28A9.22,9.22,0,0,1,687.29,2099.53Zm.85-4.45c3.42,0,5.3-1.36,5.64-4.1h3.88v-4.84H687.8q-4.56,0-4.56,3.36v1.59a3.78,3.78,0,0,0,1.11,3A5.89,5.89,0,0,0,688.14,2095.08Z"/><path class="cls-2" d="M716.47,2099l-8.55-29.81h5.47l6.67,25.59h2.28l6.61-25.59h5.47L726,2099Z"/><path class="cls-2" d="M762.61,2095.06a13.56,13.56,0,0,1-20.12,0,16.91,16.91,0,0,1,0-22,13.6,13.6,0,0,1,20.12,0,16.91,16.91,0,0,1,0,22ZM746,2093q2,2.09,6.53,2.08t6.53-2.08c1.34-1.38,2-3.62,2-6.69v-4.56c0-3-.68-5.26-2-6.64s-3.53-2.08-6.53-2.08-5.18.69-6.53,2.08-2,3.6-2,6.64v4.56C744,2089.38,744.67,2091.62,746,2093Z"/><path class="cls-2" d="M773.24,2099v-29.81h5v7.41h2.28a10.48,10.48,0,0,1,1-2.39,12.68,12.68,0,0,1,2-2.54,9.72,9.72,0,0,1,3.59-2.2,14.69,14.69,0,0,1,5.18-.85v6.33h-3.47a5,5,0,0,0-3.82,1.25q-1.14,1.26-1.14,4.62h-5.64V2099Z"/><path class="cls-2" d="M808.64,2099.53a13.51,13.51,0,0,1-10.18-4.19,14.79,14.79,0,0,1-4-10.69,16.67,16.67,0,0,1,4.08-11.42,12.92,12.92,0,0,1,10.12-4.65,12.32,12.32,0,0,1,9.52,4.3,15.26,15.26,0,0,1,3.87,10.58v2.11H800v1.31q0,4.32,2,6.27t6.59,1.93a9.28,9.28,0,0,0,5.36-1.25,5.46,5.46,0,0,0,2.1-4h5.82a14.48,14.48,0,0,1-5.27,7A13.4,13.4,0,0,1,808.64,2099.53ZM800,2081.35h16.42v-.74q0-4.05-1.77-5.82c-1.18-1.17-3.17-1.76-6-1.76s-5.15.61-6.55,1.85-2.11,3.18-2.11,5.84Z"/><path class="cls-2" d="M834.57,2099,826,2069.15h5.47l6.67,25.59h2.28l6.61-25.59h5.48L844.09,2099Z"/><path class="cls-2" d="M880.71,2095.06a13.56,13.56,0,0,1-20.12,0,16.94,16.94,0,0,1,0-22,13.6,13.6,0,0,1,20.12,0,16.91,16.91,0,0,1,0,22ZM864.13,2093c1.34,1.39,3.52,2.08,6.52,2.08s5.18-.69,6.53-2.08,2-3.62,2-6.69v-4.56c0-3-.67-5.26-2-6.64s-3.53-2.08-6.53-2.08-5.18.69-6.52,2.08-2,3.6-2,6.64v4.56C862.1,2089.38,862.78,2091.62,864.13,2093Z"/><path class="cls-2" d="M891.34,2099V2058h5V2099Z"/><path class="cls-2" d="M910.15,2064.33a3.65,3.65,0,0,1-2.73,1.11,3.88,3.88,0,1,1,0-7.75,3.67,3.67,0,0,1,2.73,1.09,4.11,4.11,0,0,1,0,5.55ZM904.91,2099v-29.81h5V2099Z"/><path class="cls-2" d="M498.6,2167.93a9.28,9.28,0,0,1-6.82-2.62,8.8,8.8,0,0,1-2.65-6.5,7.37,7.37,0,0,1,3.14-6.1,13.11,13.11,0,0,1,8.15-2.39H509v-2.68q0-3.7-1.4-5c-.93-.84-2.7-1.26-5.33-1.26s-4.59.41-5.58,1.23-1.54,2.48-1.66,5h-5.13a12.06,12.06,0,0,1,4.17-7.81,12.64,12.64,0,0,1,8.37-2.85,12,12,0,0,1,8.44,2.88q3.14,2.88,3.14,8.06v19.44h-5v-3.76h-2.28A9.22,9.22,0,0,1,498.6,2167.93Zm.85-4.45c3.42,0,5.3-1.36,5.64-4.1H509v-4.84h-9.86q-4.56,0-4.56,3.36v1.59a3.78,3.78,0,0,0,1.11,3.05A5.89,5.89,0,0,0,499.45,2163.48Z"/><path class="cls-2" d="M522.08,2167.36v-40.93h5v40.93Z"/><path class="cls-2" d="M535.64,2167.36v-40.93h5v40.93Z"/><path class="cls-2" d="M549.44,2141.77l1.37-8.38v-7h5.64v7l-2.51,8.38Z"/><path class="cls-2" d="M572.81,2167.93a9.24,9.24,0,0,1-6.81-2.62,8.76,8.76,0,0,1-2.65-6.5,7.36,7.36,0,0,1,3.13-6.1,13.11,13.11,0,0,1,8.15-2.39h8.55v-2.68q0-3.7-1.39-5c-.94-.84-2.71-1.26-5.33-1.26s-4.6.41-5.59,1.23-1.54,2.48-1.65,5h-5.13a12,12,0,0,1,4.16-7.81,12.65,12.65,0,0,1,8.38-2.85,12,12,0,0,1,8.43,2.88q3.13,2.88,3.14,8.06v19.44h-5v-3.76H580.9A9.22,9.22,0,0,1,572.81,2167.93Zm.85-4.45c3.42,0,5.3-1.36,5.65-4.1h3.87v-4.84h-9.86q-4.56,0-4.56,3.36v1.59a3.78,3.78,0,0,0,1.11,3.05A5.91,5.91,0,0,0,573.66,2163.48Z"/><path class="cls-2" d="M608,2167.93a12.49,12.49,0,0,1-9.72-4.47,17.36,17.36,0,0,1,0-22,12.76,12.76,0,0,1,18.3-1.08,13.64,13.64,0,0,1,4.5,8.38h-5.36c-.15-2.62-.84-4.49-2-5.61s-3.14-1.69-5.76-1.69-4.8.7-6.07,2.09-1.91,3.6-1.91,6.64v4.56c0,3.07.63,5.31,1.88,6.69s3.29,2.08,6.1,2.08q3.93,0,5.76-1.68c1.21-1.12,1.9-3,2-5.61H621a13.64,13.64,0,0,1-4.5,8.38A12.49,12.49,0,0,1,608,2167.93Z"/><path class="cls-2" d="M639.55,2167.93a12.49,12.49,0,0,1-9.72-4.47,17.35,17.35,0,0,1,0-22,12.74,12.74,0,0,1,18.29-1.08,13.6,13.6,0,0,1,4.51,8.38h-5.36c-.15-2.62-.84-4.49-2-5.61s-3.14-1.69-5.76-1.69q-4.17,0-6.07,2.09c-1.28,1.38-1.91,3.6-1.91,6.64v4.56c0,3.07.63,5.31,1.88,6.69s3.29,2.08,6.1,2.08q3.93,0,5.76-1.68c1.21-1.12,1.9-3,2-5.61h5.36a13.6,13.6,0,0,1-4.51,8.38A12.47,12.47,0,0,1,639.55,2167.93Z"/><path class="cls-2" d="M668,2167.93a8.48,8.48,0,0,1-6.67-3,11.12,11.12,0,0,1-2.62-7.61v-19.78h5v19.78a7.52,7.52,0,0,0,1.17,4.7,4.57,4.57,0,0,0,3.79,1.45,5.11,5.11,0,0,0,4-1.39c.86-.93,1.28-2.44,1.28-4.53H679v-20h5v29.81h-5v-5.59h-2.17Q673.82,2167.94,668,2167.93Z"/><path class="cls-2" d="M692.56,2167.36v-29.81h5v5h2.22q2.91-5.59,8.67-5.59a9.11,9.11,0,0,1,5.21,1.51,8.33,8.33,0,0,1,3.22,4.08h2.34q2.91-5.59,8.66-5.59a8.69,8.69,0,0,1,6.53,2.68,9.34,9.34,0,0,1,2.59,6.78v20.92h-5v-20.92a5.4,5.4,0,0,0-1.14-3.82,4.85,4.85,0,0,0-3.65-1.2,5.2,5.2,0,0,0-3.88,1.29,5.67,5.67,0,0,0-1.25,4.07h-4.5v20.58h-5v-20.92a5.4,5.4,0,0,0-1.14-3.82,4.85,4.85,0,0,0-3.65-1.2,5.16,5.16,0,0,0-3.87,1.29,5.62,5.62,0,0,0-1.26,4.07h-5.07v20.58Z"/><path class="cls-2" d="M754,2167.93a8.49,8.49,0,0,1-6.67-3,11.12,11.12,0,0,1-2.62-7.61v-19.78h5v19.78a7.52,7.52,0,0,0,1.17,4.7,4.56,4.56,0,0,0,3.79,1.45,5.14,5.14,0,0,0,4-1.39c.85-.93,1.28-2.44,1.28-4.53H765v-20h5v29.81h-5v-5.59h-2.16Q759.76,2167.94,754,2167.93Z"/><path class="cls-2" d="M778.52,2167.36v-40.93h5v40.93Z"/><path class="cls-2" d="M814.29,2163.46a13.56,13.56,0,0,1-20.12,0,16.92,16.92,0,0,1,0-22,13.62,13.62,0,0,1,20.12,0,17,17,0,0,1,0,22Zm-16.59-2.06c1.35,1.39,3.52,2.08,6.53,2.08s5.17-.69,6.52-2.08,2-3.62,2-6.69v-4.56c0-3-.68-5.26-2-6.64s-3.52-2.09-6.52-2.09-5.18.7-6.53,2.09-2,3.6-2,6.64v4.56C795.68,2157.78,796.35,2160,797.7,2161.4Z"/><path class="cls-2" d="M849.25,2167.87a11.28,11.28,0,0,1-9.06-4.67,17.54,17.54,0,0,1,0-21.55,11.31,11.31,0,0,1,9.06-4.67,10.25,10.25,0,0,1,5.59,1.71,11.1,11.1,0,0,1,4,4.45h2.28v-16.71h5v40.93h-5v-5.64h-2.28a11.14,11.14,0,0,1-4,4.44A10.25,10.25,0,0,1,849.25,2167.87Zm0-4.44q6.38,0,7-5.93h5v-10.15h-5q-.63-5.92-7-5.93-3.76,0-5.45,2.09c-1.12,1.38-1.68,3.62-1.68,6.69v4.45q0,4.62,1.68,6.7C844.87,2162.73,846.69,2163.43,849.2,2163.43Z"/><path class="cls-2" d="M880,2132.73a3.69,3.69,0,0,1-2.74,1.11,3.92,3.92,0,0,1-2.76-6.67,3.8,3.8,0,0,1,2.76-1.08,3.74,3.74,0,0,1,2.74,1.08,4.12,4.12,0,0,1,0,5.56Zm-5.25,34.63v-29.81h5v29.81Z"/><path class="cls-2" d="M902.26,2167.36v-40.93H915.6a13.24,13.24,0,0,1,9.55,3.85,12.91,12.91,0,0,1,0,18.58,13,13,0,0,1-9.41,3.85h-8.38v14.65Zm5.13-19.21h8q8.21,0,8.21-6.78v-3.59q0-6.78-8.32-6.79h-7.87Z"/><path class="cls-2" d="M936.06,2167.36v-40.93h11.23l8.32,36.37h2.06l8.32-36.37h11.23v40.93h-4.79V2131h-2.57l-8.66,36.37h-9.35L943.3,2131h-2.56v36.37Z"/><path class="cls-2" d="M985.54,2167.36v-4.85h12v-31.23H986.85v-4.85h15.67v36.08h12v4.85Z"/><path class="cls-2" d="M1045.53,2162.09a13.66,13.66,0,0,1-22.4,0q-4.2-5.85-4.19-15.14t4.22-15.21a13.55,13.55,0,0,1,22.34,0q4.21,5.87,4.22,15.21T1045.53,2162.09Zm-18.64-1.48q2.31,2.82,7.44,2.82t7.44-2.82q2.31-2.84,2.31-9v-9.23q0-6.33-2.31-9.18t-7.44-2.85q-5.13,0-7.44,2.85t-2.31,9.18v9.23Q1024.58,2157.78,1026.89,2160.61Z"/><path class="cls-1" d="M505.11,2378.73a14.78,14.78,0,0,1-10-3.31,11.42,11.42,0,0,1-3.94-9.06h5.13q.06,4.79,1.66,6.35t7.12,1.57q5.13,0,6.9-1.82t1.77-7v-5.92H511.5a10.67,10.67,0,0,1-3.8,4.44,9.28,9.28,0,0,1-5.27,1.71,10.62,10.62,0,0,1-8.92-4.41,18.32,18.32,0,0,1,0-20.92,10.6,10.6,0,0,1,8.92-4.42,9.28,9.28,0,0,1,5.27,1.71,10.67,10.67,0,0,1,3.8,4.44h2.28v-5.58h5v29.52a11.92,11.92,0,0,1-3.85,9A13.65,13.65,0,0,1,505.11,2378.73Zm-2.74-17.44c4,0,6.1-2,6.45-5.93h5v-9h-5c-.35-3.95-2.49-5.93-6.45-5.93-2.31,0-4,.65-5,1.94s-1.54,3.39-1.54,6.27v4.45q0,4.34,1.54,6.27C498.38,2360.64,500.06,2361.29,502.37,2361.29Z"/><path class="cls-1" d="M532.58,2331.73a3.65,3.65,0,0,1-2.73,1.11,3.79,3.79,0,0,1-2.77-1.11,4,4,0,0,1,0-5.56,3.84,3.84,0,0,1,2.77-1.08,3.7,3.7,0,0,1,2.73,1.08,4.09,4.09,0,0,1,0,5.56Zm-5.24,34.63v-29.81h5v29.81Z"/><path class="cls-1" d="M563.11,2362.46a13.56,13.56,0,0,1-20.12,0,16.92,16.92,0,0,1,0-22,13.62,13.62,0,0,1,20.12,0,17,17,0,0,1,0,22Zm-16.59-2.06c1.35,1.39,3.52,2.08,6.53,2.08s5.17-.69,6.52-2.08,2-3.62,2-6.69v-4.56q0-4.56-2-6.65c-1.35-1.38-3.52-2.08-6.52-2.08s-5.18.7-6.53,2.08-2,3.61-2,6.65v4.56C544.5,2356.78,545.17,2359,546.52,2360.4Z"/><path class="cls-1" d="M573.74,2366.36v-29.81h5V2344H581a10.79,10.79,0,0,1,1-2.4,12.84,12.84,0,0,1,2-2.53,9.8,9.8,0,0,1,3.59-2.2,14.71,14.71,0,0,1,5.19-.85v6.33h-3.48a4.93,4.93,0,0,0-3.81,1.25c-.76.84-1.14,2.37-1.14,4.62h-5.65v18.18Z"/><path class="cls-1" d="M597.79,2366.36v-29.81h5v5.58H605a11.55,11.55,0,0,1,3.9-4.56,9.54,9.54,0,0,1,5.33-1.59,9.28,9.28,0,0,1,7,2.82A9.93,9.93,0,0,1,624,2346v20.35h-5V2346a6,6,0,0,0-1.26-4.27,5.44,5.44,0,0,0-4.1-1.32,5.9,5.9,0,0,0-4.28,1.4c-.95.93-1.42,2.44-1.42,4.53h-5.07v20Z"/><path class="cls-1" d="M637.29,2331.73a3.65,3.65,0,0,1-2.73,1.11,3.93,3.93,0,0,1-2.77-6.67,3.81,3.81,0,0,1,2.77-1.08,3.7,3.7,0,0,1,2.73,1.08,4.12,4.12,0,0,1,0,5.56Zm-5.24,34.63v-29.81h5v29.81Z"/><path class="cls-1" d="M659.18,2366.36v-29.81h5V2344h2.28a10.79,10.79,0,0,1,1-2.4,12.93,12.93,0,0,1,2-2.53,9.72,9.72,0,0,1,3.59-2.2,14.66,14.66,0,0,1,5.18-.85v6.33H674.8a4.94,4.94,0,0,0-3.82,1.25c-.76.84-1.14,2.37-1.14,4.62h-5.65v18.18Z"/><path class="cls-1" d="M694.58,2366.93a13.51,13.51,0,0,1-10.18-4.19,14.81,14.81,0,0,1-4-10.69,16.71,16.71,0,0,1,4.08-11.43,12.93,12.93,0,0,1,10.12-4.64,12.29,12.29,0,0,1,9.51,4.3,15.22,15.22,0,0,1,3.88,10.58v2.1H686v1.32q0,4.32,2,6.27t6.59,1.93a9.25,9.25,0,0,0,5.35-1.25,5.51,5.51,0,0,0,2.11-4.05h5.82a14.44,14.44,0,0,1-5.28,7A13.35,13.35,0,0,1,694.58,2366.93ZM686,2348.75h16.41V2348q0-4-1.76-5.81t-6-1.77c-3,0-5.15.62-6.55,1.86s-2.11,3.18-2.11,5.84Z"/><path class="cls-1" d="M725.41,2366.93a14,14,0,0,1-8.63-2.62,9.5,9.5,0,0,1-4-6.84h5.3c.11,1.9.69,3.21,1.73,3.93s2.86,1.08,5.45,1.08q6.9,0,6.9-3.87v-1.26a2.73,2.73,0,0,0-1-2.31,7.36,7.36,0,0,0-3.42-1.05l-5.59-.57a9.73,9.73,0,0,1-6.15-2.56,7.56,7.56,0,0,1-2.17-5.59,8.27,8.27,0,0,1,3.36-6.5A11.89,11.89,0,0,1,725,2336a12.61,12.61,0,0,1,8,2.56,10,10,0,0,1,3.88,6.9h-5.3c-.08-1.86-.59-3.16-1.54-3.9s-2.59-1.12-4.9-1.12a9.55,9.55,0,0,0-4.73.89,3.1,3.1,0,0,0-1.49,2.88v1.14a2.89,2.89,0,0,0,1,2.39,6.34,6.34,0,0,0,3.22,1l5.47.57a10.26,10.26,0,0,1,6.33,2.59,7.39,7.39,0,0,1,2.28,5.56,8.41,8.41,0,0,1-3.42,6.64A12.73,12.73,0,0,1,725.41,2366.93Z"/><path class="cls-1" d="M755.56,2366.64a9.11,9.11,0,0,1-6.52-2.33,8,8,0,0,1-2.48-6.16v-17.38h-6.5v-4.22h6.5v-11.12h5v11.12h8.55v4.22h-8.55v17.95q0,3.42,3.42,3.42h4.56v4.5Z"/><path class="cls-1" d="M774.15,2366.93a9.24,9.24,0,0,1-6.81-2.62,8.78,8.78,0,0,1-2.65-6.5,7.36,7.36,0,0,1,3.13-6.1,13,13,0,0,1,8.15-2.39h8.55v-2.68c0-2.47-.46-4.13-1.4-5s-2.7-1.26-5.33-1.26-4.59.41-5.58,1.23-1.54,2.48-1.65,5h-5.13a12,12,0,0,1,4.16-7.81A12.65,12.65,0,0,1,778,2336a12,12,0,0,1,8.43,2.88c2.09,1.92,3.14,4.6,3.14,8.06v19.44h-5v-3.76h-2.28A9.22,9.22,0,0,1,774.15,2366.93Zm.85-4.45c3.42,0,5.3-1.36,5.65-4.1h3.87v-4.85h-9.86c-3,0-4.56,1.13-4.56,3.37v1.59a3.78,3.78,0,0,0,1.11,3.05A5.91,5.91,0,0,0,775,2362.48Z"/><path class="cls-1" d="M797.63,2366.36v-29.81h5v5.58h2.22a11.55,11.55,0,0,1,3.9-4.56,9.54,9.54,0,0,1,5.33-1.59,9.28,9.28,0,0,1,7,2.82,9.93,9.93,0,0,1,2.73,7.21v20.35h-5V2346a6,6,0,0,0-1.26-4.27,5.44,5.44,0,0,0-4.1-1.32,5.9,5.9,0,0,0-4.28,1.4c-.95.93-1.42,2.44-1.42,4.53h-5.07v20Z"/><path class="cls-1" d="M843.4,2366.64a9.13,9.13,0,0,1-6.53-2.33,8.08,8.08,0,0,1-2.47-6.16v-17.38h-6.5v-4.22h6.5v-11.12h5v11.12H848v4.22h-8.55v17.95q0,3.42,3.42,3.42h4.56v4.5Z"/><path class="cls-1" d="M859.76,2331.73a3.65,3.65,0,0,1-2.73,1.11,3.93,3.93,0,0,1-2.77-6.67,3.81,3.81,0,0,1,2.77-1.08,3.7,3.7,0,0,1,2.73,1.08,4.12,4.12,0,0,1,0,5.56Zm-5.24,34.63v-29.81h5v29.81Z"/></svg>