<svg xmlns="http://www.w3.org/2000/svg" viewBox="0 0 720 900"><defs><style>.cls-1{fill:#fff;}.cls-2{fill:#b8b8b8;}</style></defs><g id="margine"><rect x="28" y="67" width="664" height="777"/></g><g id="Livello_2" data-name="Livello 2"><circle class="cls-1" cx="314.3" cy="186.87" r="22.87"/><circle class="cls-2" cx="380.36" cy="469.47" r="6.85"/><circle class="cls-2" cx="346.6" cy="433.73" r="5.06"/><circle class="cls-1" cx="278.46" cy="236.39" r="9.61"/><circle class="cls-2" cx="402.21" cy="509.19" r="8.34"/><circle class="cls-2" cx="242.4" cy="579.78" r="142.83"/><circle class="cls-2" cx="505.53" cy="684.13" r="109.47"/><path class="cls-1" d="M103.2,135.2V117h10.9v2h-8.7v6.14h7.89v2H105.4v8.13Z"/><path class="cls-1" d="M133.21,126.11a11.14,11.14,0,0,1-1,5,7.75,7.75,0,0,1-2.85,3.23,8.07,8.07,0,0,1-8.27,0,7.75,7.75,0,0,1-2.85-3.23,12.4,12.4,0,0,1,0-9.94,7.78,7.78,0,0,1,2.85-3.24,8.13,8.13,0,0,1,8.27,0,7.78,7.78,0,0,1,2.85,3.24A11.08,11.08,0,0,1,133.21,126.11Zm-2.13,0a9,9,0,0,0-.79-4,5.78,5.78,0,0,0-2.12-2.46,5.78,5.78,0,0,0-6,0,5.8,5.8,0,0,0-2.13,2.46,10.57,10.57,0,0,0,0,8,5.69,5.69,0,0,0,2.13,2.46,5.72,5.72,0,0,0,6,0,5.67,5.67,0,0,0,2.12-2.46A9,9,0,0,0,131.08,126.11Z"/><path class="cls-1" d="M151.32,117V135.2h-2.13l-9.91-14.28h-.18V135.2h-2.2V117H139L149,131.33h.18V117Z"/><path class="cls-1" d="M154.73,119v-2h13.63v2h-5.71V135.2h-2.2V119Z"/><path class="cls-1" d="M174,117V135.2h-2.2V117Z"/><path class="cls-1" d="M195.35,121.56a2.76,2.76,0,0,0-1.29-2.09,5,5,0,0,0-2.79-.75,5.26,5.26,0,0,0-2.11.39,3.28,3.28,0,0,0-1.4,1.08,2.5,2.5,0,0,0-.5,1.55,2.16,2.16,0,0,0,.35,1.25,3,3,0,0,0,.9.86,6.43,6.43,0,0,0,1.15.56c.4.14.77.26,1.11.35l1.85.49c.47.13,1,.3,1.58.52a7.75,7.75,0,0,1,1.68.89,4.7,4.7,0,0,1,1.33,1.44,4.16,4.16,0,0,1,.52,2.16,4.79,4.79,0,0,1-.77,2.67,5.29,5.29,0,0,1-2.23,1.89,9.42,9.42,0,0,1-6.95.07,5.33,5.33,0,0,1-2.23-1.76,5,5,0,0,1-.92-2.62h2.27a2.79,2.79,0,0,0,.7,1.7,3.65,3.65,0,0,0,1.54,1,6.33,6.33,0,0,0,2,.32,6,6,0,0,0,2.27-.41A4,4,0,0,0,195,132a2.7,2.7,0,0,0,.58-1.73,2.13,2.13,0,0,0-.51-1.48,3.67,3.67,0,0,0-1.33-.92,13.74,13.74,0,0,0-1.78-.62l-2.24-.64a8.32,8.32,0,0,1-3.37-1.75,3.84,3.84,0,0,1-1.25-3,4.38,4.38,0,0,1,.84-2.67,5.5,5.5,0,0,1,2.23-1.78,7.64,7.64,0,0,1,3.15-.63,7.52,7.52,0,0,1,3.12.62,5.52,5.52,0,0,1,2.18,1.71,4.29,4.29,0,0,1,.84,2.46Z"/><path class="cls-1" d="M201.35,135.2V117h11v2h-8.77v6.14h8.2v2h-8.2v6.18h8.91v1.95Z"/><path class="cls-1" d="M230.93,122.7h-2.2a4.46,4.46,0,0,0-.68-1.67,4.65,4.65,0,0,0-1.17-1.21,4.88,4.88,0,0,0-1.52-.74,6,6,0,0,0-1.74-.25,5.58,5.58,0,0,0-3,.83,5.78,5.78,0,0,0-2.12,2.46,10.45,10.45,0,0,0,0,8,5.67,5.67,0,0,0,2.12,2.46,5.51,5.51,0,0,0,3,.84,6.31,6.31,0,0,0,1.74-.25,5.11,5.11,0,0,0,1.52-.74,4.69,4.69,0,0,0,1.17-1.22,4.55,4.55,0,0,0,.68-1.66h2.2A7.11,7.11,0,0,1,230,132a6.69,6.69,0,0,1-1.63,1.87,7.45,7.45,0,0,1-2.19,1.17,8.41,8.41,0,0,1-2.59.4,7.62,7.62,0,0,1-4.14-1.14,7.82,7.82,0,0,1-2.85-3.23,12.4,12.4,0,0,1,0-9.94,7.85,7.85,0,0,1,2.85-3.24,7.7,7.7,0,0,1,4.14-1.13,8.12,8.12,0,0,1,2.59.4,7.2,7.2,0,0,1,2.19,1.16A7,7,0,0,1,230,120.2,7.09,7.09,0,0,1,230.93,122.7Z"/><path class="cls-1" d="M249.83,126.11a11.14,11.14,0,0,1-1,5,7.75,7.75,0,0,1-2.85,3.23,8.09,8.09,0,0,1-8.28,0,7.89,7.89,0,0,1-2.85-3.23,12.51,12.51,0,0,1,0-9.94,7.92,7.92,0,0,1,2.85-3.24,8.15,8.15,0,0,1,8.28,0,7.78,7.78,0,0,1,2.85,3.24A11.08,11.08,0,0,1,249.83,126.11Zm-2.13,0a9.15,9.15,0,0,0-.79-4,5.78,5.78,0,0,0-2.12-2.46,5.8,5.8,0,0,0-6,0,5.85,5.85,0,0,0-2.12,2.46,10.57,10.57,0,0,0,0,8,5.73,5.73,0,0,0,2.12,2.46,5.74,5.74,0,0,0,6,0,5.67,5.67,0,0,0,2.12-2.46A9.13,9.13,0,0,0,247.7,126.11Z"/><path class="cls-1" d="M267.94,117V135.2h-2.13l-9.91-14.28h-.18V135.2h-2.2V117h2.13l9.94,14.31h.18V117Z"/><path class="cls-1" d="M278,135.2h-5.61V117h5.86a9,9,0,0,1,4.53,1.08,7.26,7.26,0,0,1,2.88,3.12,12.19,12.19,0,0,1,0,9.74,7.15,7.15,0,0,1-2.94,3.14A9.43,9.43,0,0,1,278,135.2Zm-3.41-1.95h3.27a7.31,7.31,0,0,0,3.74-.87,5.44,5.44,0,0,0,2.21-2.48,9.31,9.31,0,0,0,.73-3.83,9.12,9.12,0,0,0-.72-3.79,5.31,5.31,0,0,0-2.15-2.45,6.85,6.85,0,0,0-3.56-.86h-3.52Z"/><path class="cls-1" d="M290.2,135.2h-2.31L294.57,117h2.27l6.68,18.18h-2.31l-5.43-15.31h-.14Zm.85-7.1h9.31v2h-9.31Z"/><path class="cls-1" d="M306.36,135.2V117h6.14a7.48,7.48,0,0,1,3.5.72,4.68,4.68,0,0,1,2,2,6.22,6.22,0,0,1,.65,2.87,6.11,6.11,0,0,1-.65,2.85,4.6,4.6,0,0,1-2,2,7.51,7.51,0,0,1-3.47.71h-5v-2h4.9a5.42,5.42,0,0,0,2.35-.43,2.72,2.72,0,0,0,1.29-1.21,4,4,0,0,0,.41-1.88,4.26,4.26,0,0,0-.41-1.91,2.81,2.81,0,0,0-1.31-1.26,5.27,5.27,0,0,0-2.37-.45h-3.87V135.2Zm8.56-8.17,4.47,8.17h-2.55L312.43,127Z"/><path class="cls-1" d="M324.54,117V135.2h-2.2V117Z"/><path class="cls-1" d="M329,135.2V117h11v2h-8.77v6.14h8.2v2h-8.2v6.18h8.91v1.95Z"/><path class="cls-2" d="M103.2,400.41V382.23h10.9v1.95h-8.7v6.14h7.89v2H105.4v8.13Z"/><path class="cls-2" d="M133.21,391.32a11.11,11.11,0,0,1-1,5,7.75,7.75,0,0,1-2.85,3.23,8.07,8.07,0,0,1-8.27,0,7.75,7.75,0,0,1-2.85-3.23,12.4,12.4,0,0,1,0-9.94,7.78,7.78,0,0,1,2.85-3.24,8.13,8.13,0,0,1,8.27,0,7.78,7.78,0,0,1,2.85,3.24A11.08,11.08,0,0,1,133.21,391.32Zm-2.13,0a9,9,0,0,0-.79-4,5.78,5.78,0,0,0-2.12-2.46,5.78,5.78,0,0,0-6,0,5.8,5.8,0,0,0-2.13,2.46,10.57,10.57,0,0,0,0,8,5.69,5.69,0,0,0,2.13,2.46,5.72,5.72,0,0,0,6,0,5.67,5.67,0,0,0,2.12-2.46A9,9,0,0,0,131.08,391.32Z"/><path class="cls-2" d="M151.32,382.23v18.18h-2.13l-9.91-14.28h-.18v14.28h-2.2V382.23H139L149,396.54h.18V382.23Z"/><path class="cls-2" d="M154.73,384.18v-1.95h13.63v1.95h-5.71v16.23h-2.2V384.18Z"/><path class="cls-2" d="M174,382.23v18.18h-2.2V382.23Z"/><path class="cls-2" d="M185.41,400.41V382.23h6.14a7.13,7.13,0,0,1,3.51.76,5,5,0,0,1,2,2.08,6.48,6.48,0,0,1,.65,2.91,6.55,6.55,0,0,1-.65,2.92,4.93,4.93,0,0,1-2,2.09,7,7,0,0,1-3.48.78h-4.41v-2h4.34a4.71,4.71,0,0,0,2.35-.5,3.09,3.09,0,0,0,1.29-1.37,4.58,4.58,0,0,0,.41-2,4.5,4.5,0,0,0-.41-2,2.94,2.94,0,0,0-1.3-1.36,4.93,4.93,0,0,0-2.38-.49h-3.87v16.23Z"/><path class="cls-2" d="M201.28,400.41V382.23h6.15a7.44,7.44,0,0,1,3.49.72,4.63,4.63,0,0,1,2,2,6.1,6.1,0,0,1,.66,2.87,6,6,0,0,1-.66,2.85,4.6,4.6,0,0,1-2,2,7.48,7.48,0,0,1-3.47.71h-5v-2h4.9a5.42,5.42,0,0,0,2.35-.43,2.74,2.74,0,0,0,1.3-1.21,4.17,4.17,0,0,0,.4-1.88,4.26,4.26,0,0,0-.41-1.91,2.84,2.84,0,0,0-1.3-1.26,5.32,5.32,0,0,0-2.37-.45h-3.88v16.23Zm8.56-8.17,4.48,8.17h-2.56l-4.4-8.17Z"/><path class="cls-2" d="M219.46,382.23v18.18h-2.2V382.23Z"/><path class="cls-2" d="M223.87,382.23h2.63l6.17,15.09h.22l6.18-15.09h2.62v18.18h-2.06V386.59h-.17l-5.68,13.82h-2l-5.68-13.82h-.18v13.82h-2.06Z"/><path class="cls-2" d="M246.84,400.41h-2.3l6.67-18.18h2.27l6.68,18.18h-2.31l-5.43-15.31h-.14Zm.86-7.1H257v1.95h-9.3Z"/><path class="cls-2" d="M263,400.41V382.23h6.14a7.46,7.46,0,0,1,3.5.72,4.68,4.68,0,0,1,2,2,6.22,6.22,0,0,1,.65,2.87,6.11,6.11,0,0,1-.65,2.85,4.6,4.6,0,0,1-2,2,7.48,7.48,0,0,1-3.47.71h-5v-2h4.9a5.42,5.42,0,0,0,2.35-.43,2.72,2.72,0,0,0,1.29-1.21,4,4,0,0,0,.41-1.88,4.26,4.26,0,0,0-.41-1.91,2.81,2.81,0,0,0-1.31-1.26,5.27,5.27,0,0,0-2.37-.45H265.2v16.23Zm8.56-8.17,4.47,8.17h-2.55l-4.41-8.17Z"/><path class="cls-2" d="M281.18,382.23v18.18H279V382.23Z"/><path class="cls-2" d="M285.59,400.41V382.23h11v1.95h-8.77v6.14H296v2h-8.2v6.18h8.91v2Z"/><path class="cls-1" d="M101,196.22v-15h1.23v2.08h.15a5.24,5.24,0,0,1,.62-1,3.16,3.16,0,0,1,1.06-.87,3.43,3.43,0,0,1,1.66-.36,4,4,0,0,1,2.36.71,4.63,4.63,0,0,1,1.57,2,7.94,7.94,0,0,1,0,5.91,4.69,4.69,0,0,1-1.57,2,4,4,0,0,1-2.35.71,3.41,3.41,0,0,1-1.65-.36,3.35,3.35,0,0,1-1.07-.88,4,4,0,0,1-.63-1h-.12v6.12Zm1.25-9.54a6.52,6.52,0,0,0,.39,2.34,3.76,3.76,0,0,0,1.14,1.6,3.1,3.1,0,0,0,3.64,0,3.72,3.72,0,0,0,1.14-1.62,6.45,6.45,0,0,0,.4-2.3,6.19,6.19,0,0,0-.39-2.26,3.69,3.69,0,0,0-1.14-1.61,3.18,3.18,0,0,0-3.66,0,3.52,3.52,0,0,0-1.13,1.58A6.35,6.35,0,0,0,102.25,186.68Z"/><path class="cls-1" d="M113,192.13V181.22h1.22v1.68h.1a2.79,2.79,0,0,1,1.14-1.34,3.45,3.45,0,0,1,1.84-.5h.35l.32,0v1.28l-.3,0a3.33,3.33,0,0,0-.46,0,3.13,3.13,0,0,0-1.52.36,2.67,2.67,0,0,0-1.43,2.43v7Z"/><path class="cls-1" d="M124,192.36a4.39,4.39,0,0,1-2.5-.72,4.88,4.88,0,0,1-1.7-2,6.75,6.75,0,0,1-.61-2.93,6.88,6.88,0,0,1,.61-2.95,4.88,4.88,0,0,1,1.7-2,4.47,4.47,0,0,1,2.5-.71,4.38,4.38,0,0,1,2.49.72,4.86,4.86,0,0,1,1.69,2,6.66,6.66,0,0,1,.62,2.94,6.75,6.75,0,0,1-.61,2.93,4.88,4.88,0,0,1-1.7,2A4.38,4.38,0,0,1,124,192.36Zm0-1.16a3.1,3.1,0,0,0,1.92-.61,3.76,3.76,0,0,0,1.2-1.63,6.32,6.32,0,0,0,0-4.48,3.79,3.79,0,0,0-1.2-1.64,3.3,3.3,0,0,0-3.85,0,4,4,0,0,0-1.2,1.64,6.47,6.47,0,0,0,0,4.48,3.93,3.93,0,0,0,1.2,1.63A3.11,3.11,0,0,0,124,191.2Z"/><path class="cls-1" d="M135.86,192.36a4.42,4.42,0,0,1-2.54-.74,4.8,4.8,0,0,1-1.68-2,6.71,6.71,0,0,1-.6-2.9,6.84,6.84,0,0,1,.61-2.92,4.82,4.82,0,0,1,1.69-2,4.33,4.33,0,0,1,2.5-.73,4.64,4.64,0,0,1,2,.42,3.86,3.86,0,0,1,1.46,1.19,3.77,3.77,0,0,1,.73,1.78h-1.28a2.83,2.83,0,0,0-2.88-2.24,3.09,3.09,0,0,0-1.84.57,3.74,3.74,0,0,0-1.26,1.57,5.62,5.62,0,0,0-.45,2.32,5.93,5.93,0,0,0,.44,2.35,3.77,3.77,0,0,0,1.24,1.59,3.1,3.1,0,0,0,1.87.58,3,3,0,0,0,1.33-.28,2.75,2.75,0,0,0,1-.77,2.88,2.88,0,0,0,.55-1.2H140a3.92,3.92,0,0,1-.7,1.75,4,4,0,0,1-1.44,1.22A4.56,4.56,0,0,1,135.86,192.36Z"/><path class="cls-1" d="M147.14,192.36a4.74,4.74,0,0,1-2.64-.72,4.63,4.63,0,0,1-1.72-2,6.6,6.6,0,0,1-.61-2.92,6.67,6.67,0,0,1,.61-2.93,4.84,4.84,0,0,1,1.68-2,4.32,4.32,0,0,1,2.49-.73,4.76,4.76,0,0,1,1.71.32,4.28,4.28,0,0,1,1.48,1,4.61,4.61,0,0,1,1,1.67,6.56,6.56,0,0,1,.39,2.38v.62H143v-1.11h7.24a4.18,4.18,0,0,0-.43-1.9,3.36,3.36,0,0,0-1.17-1.33,3.27,3.27,0,0,0-3.55.07,3.69,3.69,0,0,0-1.24,1.46,4.69,4.69,0,0,0-.45,2v.66a5.31,5.31,0,0,0,.45,2.27,3.48,3.48,0,0,0,1.29,1.51,3.59,3.59,0,0,0,2,.53,3.55,3.55,0,0,0,1.36-.24,3,3,0,0,0,1-.65,3.05,3.05,0,0,0,.61-.9l1.2.39a3.7,3.7,0,0,1-.81,1.27,4.13,4.13,0,0,1-1.41.93A4.9,4.9,0,0,1,147.14,192.36Z"/><path class="cls-1" d="M161.67,183.61l-1.15.33a3.21,3.21,0,0,0-.49-.89,2.24,2.24,0,0,0-.81-.63,2.86,2.86,0,0,0-1.24-.23,3,3,0,0,0-1.82.52,1.62,1.62,0,0,0-.71,1.36,1.44,1.44,0,0,0,.49,1.14,3.5,3.5,0,0,0,1.5.69l1.65.4a4.14,4.14,0,0,1,2,1.06,2.55,2.55,0,0,1,.69,1.82,2.75,2.75,0,0,1-.51,1.64,3.39,3.39,0,0,1-1.43,1.13,5.12,5.12,0,0,1-2.11.41,4.44,4.44,0,0,1-2.63-.73,3.23,3.23,0,0,1-1.33-2.08l1.21-.3a2.48,2.48,0,0,0,.92,1.47,3,3,0,0,0,1.81.5,3.24,3.24,0,0,0,2-.57,1.69,1.69,0,0,0,.75-1.41,1.5,1.5,0,0,0-.44-1.11,2.69,2.69,0,0,0-1.33-.67L157,187a4.17,4.17,0,0,1-2.1-1.08,2.65,2.65,0,0,1-.68-1.84,2.6,2.6,0,0,1,.49-1.58,3.31,3.31,0,0,1,1.35-1.08,4.7,4.7,0,0,1,2-.39,3.91,3.91,0,0,1,2.4.68A3.7,3.7,0,0,1,161.67,183.61Z"/><path class="cls-1" d="M171.93,183.61l-1.16.33a3,3,0,0,0-.48-.89,2.33,2.33,0,0,0-.81-.63,2.89,2.89,0,0,0-1.24-.23,3,3,0,0,0-1.82.52,1.6,1.6,0,0,0-.71,1.36,1.47,1.47,0,0,0,.48,1.14,3.6,3.6,0,0,0,1.51.69l1.64.4a4.18,4.18,0,0,1,2.06,1.06,2.55,2.55,0,0,1,.69,1.82,2.69,2.69,0,0,1-.52,1.64,3.36,3.36,0,0,1-1.42,1.13,5.16,5.16,0,0,1-2.11.41,4.45,4.45,0,0,1-2.64-.73,3.27,3.27,0,0,1-1.33-2.08l1.22-.3a2.44,2.44,0,0,0,.92,1.47,3,3,0,0,0,1.81.5,3.28,3.28,0,0,0,2-.57,1.69,1.69,0,0,0,.75-1.41,1.54,1.54,0,0,0-.44-1.11,2.73,2.73,0,0,0-1.34-.67l-1.78-.42a4.09,4.09,0,0,1-2.1-1.08,2.81,2.81,0,0,1-.19-3.42,3.18,3.18,0,0,1,1.35-1.08,4.66,4.66,0,0,1,2-.39,3.87,3.87,0,0,1,2.39.68A3.77,3.77,0,0,1,171.93,183.61Z"/><path class="cls-1" d="M175.52,179.34a.91.91,0,0,1-.67-.26.88.88,0,0,1,0-1.29.91.91,0,0,1,.67-.26.89.89,0,0,1,.66.26.88.88,0,0,1,0,1.29A.89.89,0,0,1,175.52,179.34Zm-.65,12.79V181.22h1.27v10.91Z"/><path class="cls-1" d="M185.78,179.34a.93.93,0,0,1-.67-.26.88.88,0,0,1,0-1.29,1,1,0,0,1,1.34,0,.91.91,0,0,1,0,1.29A.93.93,0,0,1,185.78,179.34Zm-.65,12.79V181.22h1.27v10.91Z"/><path class="cls-1" d="M191,185.31v6.82h-1.26V181.22H191v1.71h.12a3,3,0,0,1,1.19-1.34,3.76,3.76,0,0,1,2-.51,3.88,3.88,0,0,1,1.93.46,3.12,3.12,0,0,1,1.3,1.34,4.65,4.65,0,0,1,.47,2.18v7.07h-1.27v-7A3,3,0,0,0,196,183a2.67,2.67,0,0,0-2-.79,3.21,3.21,0,0,0-1.53.37,2.7,2.7,0,0,0-1.05,1.07A3.29,3.29,0,0,0,191,185.31Z"/><path class="cls-1" d="M205.27,192.36a4,4,0,0,1-2.35-.71,4.77,4.77,0,0,1-1.57-2,8.08,8.08,0,0,1,0-5.91,4.65,4.65,0,0,1,1.58-2,4.06,4.06,0,0,1,2.36-.71,3.55,3.55,0,0,1,1.66.35,3.42,3.42,0,0,1,1.06.87,5.62,5.62,0,0,1,.62,1h.11v-5.72H210v14.55h-1.23v-2h-.15a4.7,4.7,0,0,1-.63,1,3.24,3.24,0,0,1-1.07.88A3.43,3.43,0,0,1,205.27,192.36Zm.15-1.16a2.84,2.84,0,0,0,1.81-.58,3.76,3.76,0,0,0,1.14-1.6,6.52,6.52,0,0,0,.39-2.34,6.35,6.35,0,0,0-.39-2.31,3.54,3.54,0,0,0-1.14-1.58,3.16,3.16,0,0,0-3.65,0,3.69,3.69,0,0,0-1.14,1.61,6.94,6.94,0,0,0,0,4.56,3.72,3.72,0,0,0,1.14,1.62A2.84,2.84,0,0,0,205.42,191.2Z"/><path class="cls-1" d="M220.54,188v-6.74h1.27v10.91h-1.27v-1.81h-.1a3.29,3.29,0,0,1-1.21,1.39,3.56,3.56,0,0,1-2,.56,3.67,3.67,0,0,1-1.86-.46,3.23,3.23,0,0,1-1.27-1.34,4.81,4.81,0,0,1-.46-2.18v-7.07h1.27v7a2.81,2.81,0,0,0,.75,2,2.57,2.57,0,0,0,1.93.78,3.1,3.1,0,0,0,1.42-.35,2.94,2.94,0,0,0,1.12-1A3,3,0,0,0,220.54,188Z"/><path class="cls-1" d="M232.48,183.61l-1.16.33a3.21,3.21,0,0,0-.49-.89,2.16,2.16,0,0,0-.81-.63,2.86,2.86,0,0,0-1.24-.23,3,3,0,0,0-1.82.52,1.62,1.62,0,0,0-.71,1.36,1.47,1.47,0,0,0,.49,1.14,3.56,3.56,0,0,0,1.5.69l1.65.4a4.22,4.22,0,0,1,2.06,1.06,2.58,2.58,0,0,1,.68,1.82,2.75,2.75,0,0,1-.51,1.64A3.42,3.42,0,0,1,230.7,192a5.21,5.21,0,0,1-2.12.41,4.44,4.44,0,0,1-2.63-.73,3.23,3.23,0,0,1-1.33-2.08l1.21-.3a2.48,2.48,0,0,0,.92,1.47,3,3,0,0,0,1.81.5,3.24,3.24,0,0,0,2-.57,1.7,1.7,0,0,0,.76-1.41,1.51,1.51,0,0,0-.45-1.11,2.64,2.64,0,0,0-1.33-.67l-1.78-.42a4.16,4.16,0,0,1-2.11-1.08,2.81,2.81,0,0,1-.19-3.42,3.31,3.31,0,0,1,1.35-1.08,4.7,4.7,0,0,1,2-.39,3.91,3.91,0,0,1,2.4.68A3.77,3.77,0,0,1,232.48,183.61Z"/><path class="cls-1" d="M239.7,181.22v1.1h-5.21v-1.1Zm-3.58-2.61h1.27v10.67a2.15,2.15,0,0,0,.23,1.07,1.32,1.32,0,0,0,.62.55,2.11,2.11,0,0,0,.8.16,1.71,1.71,0,0,0,.42,0l.32-.06.27,1.14a3.27,3.27,0,0,1-.46.13,3.32,3.32,0,0,1-2-.24,2.71,2.71,0,0,1-1.05-.91,2.65,2.65,0,0,1-.41-1.5Z"/><path class="cls-1" d="M242.57,192.13V181.22h1.23v1.68h.09a2.79,2.79,0,0,1,1.14-1.34,3.45,3.45,0,0,1,1.84-.5h.35l.32,0v1.28l-.3,0a3.33,3.33,0,0,0-.46,0,3.16,3.16,0,0,0-1.52.36,2.67,2.67,0,0,0-1.43,2.43v7Z"/><path class="cls-1" d="M250.36,179.34a.93.93,0,0,1-.67-.26.88.88,0,0,1,0-1.29,1,1,0,0,1,1.34,0,.91.91,0,0,1,0,1.29A.93.93,0,0,1,250.36,179.34Zm-.65,12.79V181.22H251v10.91Z"/><path class="cls-1" d="M257.38,192.38a4.1,4.1,0,0,1-1.8-.39,3.09,3.09,0,0,1-1.3-1.12,3.21,3.21,0,0,1-.48-1.79,2.82,2.82,0,0,1,.3-1.36,2.44,2.44,0,0,1,.87-.91,4.63,4.63,0,0,1,1.33-.56,11,11,0,0,1,1.69-.32l1.55-.2a3.08,3.08,0,0,0,1-.27.63.63,0,0,0,.33-.6v-.25a2.34,2.34,0,0,0-.66-1.76,2.64,2.64,0,0,0-1.91-.64,3.23,3.23,0,0,0-1.92.52,2.79,2.79,0,0,0-1,1.22l-1.2-.44a3.62,3.62,0,0,1,1-1.43,4.1,4.1,0,0,1,1.46-.77,5.76,5.76,0,0,1,1.64-.24,5.52,5.52,0,0,1,1.31.16,3.77,3.77,0,0,1,1.26.57,2.94,2.94,0,0,1,.94,1.11,4,4,0,0,1,.37,1.81v7.41h-1.27V190.4h-.08a3.34,3.34,0,0,1-.67.94,3.66,3.66,0,0,1-1.12.75A4.07,4.07,0,0,1,257.38,192.38Zm.17-1.16a3.3,3.3,0,0,0,1.75-.45,3.1,3.1,0,0,0,1.14-1.19,3.34,3.34,0,0,0,.4-1.63v-1.58a1.19,1.19,0,0,1-.47.24,7.64,7.64,0,0,1-.76.19l-.86.14-.76.1a6.75,6.75,0,0,0-1.58.35,2.18,2.18,0,0,0-1,.67,1.65,1.65,0,0,0-.35,1.08,1.85,1.85,0,0,0,.71,1.54A2.86,2.86,0,0,0,257.55,191.22Z"/><path class="cls-1" d="M266.73,177.58v14.55h-1.27V177.58Z"/><path class="cls-1" d="M270.73,179.34a.91.91,0,0,1-.67-.26.88.88,0,0,1,0-1.29.91.91,0,0,1,.67-.26.89.89,0,0,1,.66.26.88.88,0,0,1,0,1.29A.89.89,0,0,1,270.73,179.34Zm-.65,12.79V181.22h1.27v10.91Z"/><path class="cls-1" d="M213,243.78a4.31,4.31,0,0,1-1.81-.38,3.23,3.23,0,0,1-1.3-1.13,3.18,3.18,0,0,1-.48-1.78,2.75,2.75,0,0,1,.31-1.37,2.47,2.47,0,0,1,.86-.9,4.89,4.89,0,0,1,1.33-.57,14.55,14.55,0,0,1,1.69-.32l1.55-.19a2.93,2.93,0,0,0,1-.27.66.66,0,0,0,.34-.6V236a2.32,2.32,0,0,0-.67-1.75,2.63,2.63,0,0,0-1.91-.65,3.35,3.35,0,0,0-1.92.52,2.92,2.92,0,0,0-1,1.22l-1.2-.43a3.57,3.57,0,0,1,1-1.43,4,4,0,0,1,1.46-.78,6.13,6.13,0,0,1,1.64-.23,5.44,5.44,0,0,1,1.3.16,3.6,3.6,0,0,1,1.26.57,2.81,2.81,0,0,1,1,1.11,4,4,0,0,1,.36,1.81v7.41h-1.26v-1.73h-.08a3.54,3.54,0,0,1-.68.94,3.37,3.37,0,0,1-1.12.74A3.88,3.88,0,0,1,213,243.78Zm.17-1.15a3.27,3.27,0,0,0,1.74-.45,3,3,0,0,0,1.14-1.19,3.38,3.38,0,0,0,.41-1.64v-1.57a1.33,1.33,0,0,1-.48.24,7.64,7.64,0,0,1-.76.19c-.28,0-.57.1-.85.13l-.77.1a7.55,7.55,0,0,0-1.58.36,2.31,2.31,0,0,0-1,.66,1.67,1.67,0,0,0-.35,1.08,1.82,1.82,0,0,0,.71,1.54A2.89,2.89,0,0,0,213.18,242.63Z"/><path class="cls-1" d="M222.35,229v14.55h-1.26V229Z"/><path class="cls-1" d="M230,232.63v1.1h-5.21v-1.1ZM226.41,230h1.27v10.68a2.15,2.15,0,0,0,.23,1.07,1.29,1.29,0,0,0,.62.54,1.94,1.94,0,0,0,.8.16,2.5,2.5,0,0,0,.42,0,2.21,2.21,0,0,0,.32-.07l.27,1.15c-.13,0-.28.09-.46.13a3.13,3.13,0,0,1-.67.06,3,3,0,0,1-1.33-.31,2.52,2.52,0,0,1-1.06-.91,2.61,2.61,0,0,1-.41-1.49Z"/><path class="cls-1" d="M232.86,243.54V232.63h1.23v1.67h.09a2.76,2.76,0,0,1,1.14-1.33,3.37,3.37,0,0,1,1.84-.51h.67v1.29l-.3,0a3.33,3.33,0,0,0-.46,0,3.16,3.16,0,0,0-1.52.36,2.67,2.67,0,0,0-1.43,2.43v7Z"/><path class="cls-1" d="M243.89,243.76a4.39,4.39,0,0,1-2.5-.72,4.7,4.7,0,0,1-1.69-2,7.39,7.39,0,0,1,0-5.88,4.79,4.79,0,0,1,1.69-2,4.39,4.39,0,0,1,2.5-.71,4.46,4.46,0,0,1,2.49.71,4.93,4.93,0,0,1,1.69,2,6.7,6.7,0,0,1,.62,2.95,6.79,6.79,0,0,1-.61,2.93,4.72,4.72,0,0,1-1.7,2A4.38,4.38,0,0,1,243.89,243.76Zm0-1.15a3,3,0,0,0,1.92-.62,3.73,3.73,0,0,0,1.2-1.62,6.32,6.32,0,0,0,0-4.48,3.74,3.74,0,0,0-1.2-1.64,3.28,3.28,0,0,0-3.84,0,3.74,3.74,0,0,0-1.2,1.64,6.32,6.32,0,0,0,0,4.48A3.79,3.79,0,0,0,242,242,3.06,3.06,0,0,0,243.89,242.61Z"/><path class="cls-2" d="M375,439.12a4.17,4.17,0,0,1-1.81-.39,3,3,0,0,1-1.78-2.91,2.71,2.71,0,0,1,.31-1.36,2.49,2.49,0,0,1,.86-.91,4.89,4.89,0,0,1,1.33-.56,11.29,11.29,0,0,1,1.69-.32l1.55-.2a2.93,2.93,0,0,0,1-.27.64.64,0,0,0,.34-.6v-.25a2.34,2.34,0,0,0-.67-1.76,2.63,2.63,0,0,0-1.91-.64,3.27,3.27,0,0,0-1.92.52,2.86,2.86,0,0,0-1,1.22l-1.2-.44a3.64,3.64,0,0,1,1-1.43,4.18,4.18,0,0,1,1.46-.77,5.76,5.76,0,0,1,1.64-.24,6,6,0,0,1,1.3.16,3.6,3.6,0,0,1,1.26.57,3,3,0,0,1,.95,1.11,4,4,0,0,1,.36,1.81v7.41h-1.26v-1.73h-.08a3.25,3.25,0,0,1-.68.94,3.54,3.54,0,0,1-1.12.75A4,4,0,0,1,375,439.12Zm.17-1.16a3.27,3.27,0,0,0,1.74-.45,3,3,0,0,0,1.14-1.19,3.34,3.34,0,0,0,.41-1.63v-1.58a1.33,1.33,0,0,1-.48.24,7.64,7.64,0,0,1-.76.19l-.85.14-.77.1a7,7,0,0,0-1.58.35,2.24,2.24,0,0,0-1,.67,1.65,1.65,0,0,0-.35,1.08,1.85,1.85,0,0,0,.71,1.54A2.89,2.89,0,0,0,375.18,438Z"/><path class="cls-2" d="M387.25,443.19a6.06,6.06,0,0,1-1.95-.29,4.15,4.15,0,0,1-1.42-.79A3.73,3.73,0,0,1,383,441l1-.68a3.71,3.71,0,0,0,.63.81,3.15,3.15,0,0,0,1,.66,4.17,4.17,0,0,0,1.56.26,3.59,3.59,0,0,0,2.34-.72,2.73,2.73,0,0,0,.89-2.25v-2.46h-.11a4.55,4.55,0,0,1-.63,1,3.36,3.36,0,0,1-1.08.82,3.66,3.66,0,0,1-1.64.33,4.22,4.22,0,0,1-2.32-.65,4.32,4.32,0,0,1-1.59-1.85,6.5,6.5,0,0,1-.58-2.87,7.17,7.17,0,0,1,.56-2.92,4.76,4.76,0,0,1,1.58-2,4.14,4.14,0,0,1,2.37-.7,3.55,3.55,0,0,1,1.66.35,3.42,3.42,0,0,1,1.06.87,5.18,5.18,0,0,1,.63,1h.13V428h1.23v11.19a4,4,0,0,1-.59,2.28,3.48,3.48,0,0,1-1.6,1.33A6,6,0,0,1,387.25,443.19Zm-.08-5.59a3.07,3.07,0,0,0,1.79-.51,3.21,3.21,0,0,0,1.15-1.46,6,6,0,0,0,.39-2.27,6.12,6.12,0,0,0-.39-2.26,3.54,3.54,0,0,0-1.13-1.57,2.88,2.88,0,0,0-1.81-.57,2.93,2.93,0,0,0-1.85.59,3.63,3.63,0,0,0-1.14,1.59,6.27,6.27,0,0,0-.38,2.22,5.81,5.81,0,0,0,.39,2.21,3.32,3.32,0,0,0,1.14,1.49A3.08,3.08,0,0,0,387.17,437.6Z"/><path class="cls-2" d="M395.11,438.87V428h1.22v1.68h.1a2.79,2.79,0,0,1,1.14-1.34,3.45,3.45,0,0,1,1.84-.5h.35l.32,0v1.28l-.3,0a3.33,3.33,0,0,0-.46,0,3.13,3.13,0,0,0-1.52.36,2.67,2.67,0,0,0-1.43,2.43v7.05Z"/><path class="cls-2" d="M402.9,426.09a.92.92,0,0,1-.67-.27.88.88,0,0,1,0-1.29,1,1,0,0,1,.67-.26.93.93,0,0,1,.66.26.88.88,0,0,1,0,1.29A.9.9,0,0,1,402.9,426.09Zm-.65,12.78V428h1.27v10.91Z"/><path class="cls-2" d="M411.14,439.1a4.43,4.43,0,0,1-2.55-.74,4.8,4.8,0,0,1-1.68-2,7.28,7.28,0,0,1,0-5.81,4.86,4.86,0,0,1,1.69-2,4.33,4.33,0,0,1,2.5-.73,4.64,4.64,0,0,1,2,.42,4,4,0,0,1,1.46,1.19,3.77,3.77,0,0,1,.73,1.78H414a2.83,2.83,0,0,0-2.87-2.24,3.1,3.1,0,0,0-1.85.57A3.65,3.65,0,0,0,408,431.1a5.46,5.46,0,0,0-.46,2.32,5.76,5.76,0,0,0,.45,2.35,3.67,3.67,0,0,0,1.23,1.59,3.11,3.11,0,0,0,1.88.58,3.18,3.18,0,0,0,1.32-.27,2.71,2.71,0,0,0,1.56-2h1.28a4,4,0,0,1-.7,1.76,4,4,0,0,1-1.44,1.21A4.54,4.54,0,0,1,411.14,439.1Z"/><path class="cls-2" d="M422.24,439.1a4.38,4.38,0,0,1-2.49-.72,4.81,4.81,0,0,1-1.7-2,6.75,6.75,0,0,1-.61-2.93,6.88,6.88,0,0,1,.61-2.95,4.81,4.81,0,0,1,1.7-2,4.46,4.46,0,0,1,2.49-.71,4.39,4.39,0,0,1,2.5.72,4.86,4.86,0,0,1,1.69,2,7.37,7.37,0,0,1,0,5.87,4.79,4.79,0,0,1-1.69,2A4.39,4.39,0,0,1,422.24,439.1Zm0-1.16a3,3,0,0,0,1.93-.61,3.93,3.93,0,0,0,1.2-1.63,6.47,6.47,0,0,0,0-4.48,4,4,0,0,0-1.2-1.64,3.3,3.3,0,0,0-3.85,0,3.79,3.79,0,0,0-1.2,1.64,6.32,6.32,0,0,0,0,4.48,3.76,3.76,0,0,0,1.2,1.63A3,3,0,0,0,422.24,437.94Z"/><path class="cls-2" d="M431.08,424.32v14.55h-1.26V424.32Z"/><path class="cls-2" d="M438.72,428v1.1h-5.21V428Zm-3.58-2.61h1.27V436a2,2,0,0,0,.24,1.07,1.29,1.29,0,0,0,.61.55,2.15,2.15,0,0,0,.8.16,1.8,1.8,0,0,0,.43,0l.31-.06.27,1.14a2.92,2.92,0,0,1-.46.13,3.29,3.29,0,0,1-2-.24,2.74,2.74,0,0,1-1.06-.91,2.62,2.62,0,0,1-.41-1.5Z"/><path class="cls-2" d="M448.52,434.7V428h1.27v10.91h-1.27v-1.81h-.1a3.29,3.29,0,0,1-1.21,1.39,3.51,3.51,0,0,1-2,.56,3.67,3.67,0,0,1-1.86-.46,3.17,3.17,0,0,1-1.27-1.34,4.66,4.66,0,0,1-.46-2.18V428h1.26v7a2.78,2.78,0,0,0,.76,2.05,2.55,2.55,0,0,0,1.93.78,3.14,3.14,0,0,0,1.42-.35,3,3,0,0,0,1.12-1A3.1,3.1,0,0,0,448.52,434.7Z"/><path class="cls-2" d="M453.12,438.87V428h1.23v1.68h.09a2.79,2.79,0,0,1,1.14-1.34,3.51,3.51,0,0,1,1.85-.5h.34l.32,0v1.28l-.29,0a3.48,3.48,0,0,0-.47,0,3.12,3.12,0,0,0-1.51.36,2.78,2.78,0,0,0-1.05,1,2.67,2.67,0,0,0-.38,1.44v7.05Z"/><path class="cls-2" d="M463.3,439.12a4.1,4.1,0,0,1-1.8-.39,3.09,3.09,0,0,1-1.3-1.12,3.14,3.14,0,0,1-.49-1.79,2.82,2.82,0,0,1,.31-1.36,2.44,2.44,0,0,1,.87-.91,4.69,4.69,0,0,1,1.32-.56,11.29,11.29,0,0,1,1.69-.32l1.56-.2a2.93,2.93,0,0,0,1-.27.62.62,0,0,0,.34-.6v-.25a2.31,2.31,0,0,0-.67-1.76,2.6,2.6,0,0,0-1.9-.64,3.23,3.23,0,0,0-1.92.52,2.73,2.73,0,0,0-1,1.22l-1.2-.44a3.52,3.52,0,0,1,1-1.43,4.18,4.18,0,0,1,1.46-.77,5.76,5.76,0,0,1,1.64-.24,6.16,6.16,0,0,1,1.31.16,3.77,3.77,0,0,1,1.26.57,3,3,0,0,1,.94,1.11,4,4,0,0,1,.36,1.81v7.41h-1.26v-1.73h-.08a3.4,3.4,0,0,1-.67.94,3.71,3.71,0,0,1-1.13.75A4,4,0,0,1,463.3,439.12Zm.17-1.16a3.3,3.3,0,0,0,1.75-.45,3.1,3.1,0,0,0,1.14-1.19,3.45,3.45,0,0,0,.4-1.63v-1.58a1.27,1.27,0,0,1-.47.24c-.22.07-.48.13-.76.19l-.86.14-.77.1a6.78,6.78,0,0,0-1.57.35,2.18,2.18,0,0,0-1,.67,1.6,1.6,0,0,0-.35,1.08,1.82,1.82,0,0,0,.71,1.54A2.86,2.86,0,0,0,463.47,438Z"/><path class="cls-2" d="M414.29,467.14l-1.16.33a3,3,0,0,0-.48-.89,2.33,2.33,0,0,0-.81-.63,3,3,0,0,0-1.24-.23,3,3,0,0,0-1.82.52,1.61,1.61,0,0,0-.71,1.36,1.47,1.47,0,0,0,.48,1.14,3.6,3.6,0,0,0,1.51.69l1.65.41a4.1,4.1,0,0,1,2.05,1.05,2.55,2.55,0,0,1,.69,1.82,2.67,2.67,0,0,1-.52,1.64,3.36,3.36,0,0,1-1.42,1.13,5.16,5.16,0,0,1-2.11.41,4.52,4.52,0,0,1-2.64-.72,3.29,3.29,0,0,1-1.33-2.09l1.22-.3a2.44,2.44,0,0,0,.92,1.47,3,3,0,0,0,1.81.5,3.35,3.35,0,0,0,2-.56,1.72,1.72,0,0,0,.75-1.42,1.54,1.54,0,0,0-.44-1.11,2.76,2.76,0,0,0-1.34-.67l-1.78-.42a4.09,4.09,0,0,1-2.1-1.08,2.56,2.56,0,0,1-.68-1.83,2.63,2.63,0,0,1,.49-1.59,3.18,3.18,0,0,1,1.35-1.08,4.66,4.66,0,0,1,2-.39,3.87,3.87,0,0,1,2.39.68A3.77,3.77,0,0,1,414.29,467.14Z"/><path class="cls-2" d="M421.46,475.89a4.39,4.39,0,0,1-2.5-.72,4.82,4.82,0,0,1-1.69-2,6.68,6.68,0,0,1-.62-2.93,6.75,6.75,0,0,1,.62-3,4.7,4.7,0,0,1,1.69-2,4.68,4.68,0,0,1,5,0,4.86,4.86,0,0,1,1.69,2,6.7,6.7,0,0,1,.62,2.95,6.82,6.82,0,0,1-.61,2.93,4.92,4.92,0,0,1-1.7,2A4.38,4.38,0,0,1,421.46,475.89Zm0-1.16a3,3,0,0,0,1.92-.61,3.84,3.84,0,0,0,1.2-1.63,5.94,5.94,0,0,0,.41-2.23,6,6,0,0,0-.41-2.25,3.88,3.88,0,0,0-1.2-1.64,3.3,3.3,0,0,0-3.85,0,4,4,0,0,0-1.2,1.64,6,6,0,0,0-.4,2.25,5.94,5.94,0,0,0,.4,2.23,3.93,3.93,0,0,0,1.2,1.63A3,3,0,0,0,421.46,474.73Z"/><path class="cls-2" d="M430.3,461.11v14.55H429V461.11Z"/><path class="cls-2" d="M442.08,464.75l-4,10.91h-1.35l-4-10.91h1.37l3.24,9.24h.1l3.24-9.24Z"/><path class="cls-2" d="M448.56,475.89a4.74,4.74,0,0,1-2.64-.72,4.65,4.65,0,0,1-1.73-2,6.74,6.74,0,0,1-.6-2.92,6.82,6.82,0,0,1,.6-2.93,5,5,0,0,1,1.69-2,4.27,4.27,0,0,1,2.49-.73,4.56,4.56,0,0,1,1.71.33,4.21,4.21,0,0,1,1.48,1,4.84,4.84,0,0,1,1,1.67A6.79,6.79,0,0,1,453,470v.62h-8.52v-1.11h7.23a4.24,4.24,0,0,0-.42-1.9,3.38,3.38,0,0,0-1.18-1.33,3.27,3.27,0,0,0-3.55.07,3.66,3.66,0,0,0-1.23,1.46,4.44,4.44,0,0,0-.45,2v.67a5.3,5.3,0,0,0,.45,2.26,3.52,3.52,0,0,0,1.28,1.51,3.94,3.94,0,0,0,3.33.29,2.85,2.85,0,0,0,1-.65,2.81,2.81,0,0,0,.61-.9l1.2.39a3.43,3.43,0,0,1-.81,1.27,4.3,4.3,0,0,1-1.41.94A5,5,0,0,1,448.56,475.89Z"/><path class="cls-2" d="M457,468.84v6.82h-1.26V464.75H457v1.71h.11a3.1,3.1,0,0,1,1.2-1.34,3.7,3.7,0,0,1,2-.51,4,4,0,0,1,1.94.46,3.17,3.17,0,0,1,1.3,1.34,4.68,4.68,0,0,1,.46,2.18v7.07h-1.26v-7a2.94,2.94,0,0,0-.75-2.12,2.66,2.66,0,0,0-2-.78,3.09,3.09,0,0,0-1.53.37,2.68,2.68,0,0,0-1,1.06A3.29,3.29,0,0,0,457,468.84Z"/><path class="cls-2" d="M471.65,464.75v1.1h-5.21v-1.1Zm-3.58-2.61h1.27v10.67a2.13,2.13,0,0,0,.23,1.07,1.34,1.34,0,0,0,.61.55,2.17,2.17,0,0,0,.81.16,2.58,2.58,0,0,0,.42,0l.31-.07.27,1.14a2.77,2.77,0,0,1-.45.13,3.32,3.32,0,0,1-2-.24,2.64,2.64,0,0,1-1-.91,2.55,2.55,0,0,1-.41-1.5Z"/><path class="cls-2" d="M475.18,462.88a.92.92,0,0,1-.67-.27.84.84,0,0,1-.28-.64.86.86,0,0,1,.28-.65,1,1,0,0,1,.67-.26.93.93,0,0,1,.66.26.86.86,0,0,1,.28.65.84.84,0,0,1-.28.64A.9.9,0,0,1,475.18,462.88Zm-.65,12.78V464.75h1.27v10.91Z"/><path class="cls-2" d="M435.22,516.59a4.41,4.41,0,0,1-2.54-.73,4.66,4.66,0,0,1-1.68-2,7.3,7.3,0,0,1,0-5.82,4.8,4.8,0,0,1,1.68-2,4.36,4.36,0,0,1,2.51-.73,4.56,4.56,0,0,1,2,.42,4,4,0,0,1,1.47,1.19,3.87,3.87,0,0,1,.73,1.78H438.1a2.77,2.77,0,0,0-1-1.58,2.8,2.8,0,0,0-1.92-.66,3.15,3.15,0,0,0-1.84.56,3.73,3.73,0,0,0-1.26,1.57,5.66,5.66,0,0,0-.45,2.33,6,6,0,0,0,.44,2.35,3.69,3.69,0,0,0,1.24,1.59,3.15,3.15,0,0,0,1.87.58,3,3,0,0,0,1.33-.28,2.72,2.72,0,0,0,1-.77,2.77,2.77,0,0,0,.56-1.2h1.27a3.87,3.87,0,0,1-2.14,3A4.38,4.38,0,0,1,435.22,516.59Z"/><path class="cls-2" d="M446.33,516.59a4.41,4.41,0,0,1-2.5-.71,4.86,4.86,0,0,1-1.69-2,6.61,6.61,0,0,1-.61-2.93,6.7,6.7,0,0,1,.61-2.95,4.86,4.86,0,0,1,1.69-2,4.49,4.49,0,0,1,2.5-.71,4.38,4.38,0,0,1,2.49.72,4.85,4.85,0,0,1,1.7,2,6.7,6.7,0,0,1,.61,2.95,6.61,6.61,0,0,1-.61,2.93,4.86,4.86,0,0,1-1.69,2A4.43,4.43,0,0,1,446.33,516.59Zm0-1.15a3.06,3.06,0,0,0,1.92-.61,3.76,3.76,0,0,0,1.2-1.63,6.32,6.32,0,0,0,0-4.48,3.79,3.79,0,0,0-1.2-1.64,3,3,0,0,0-1.92-.62,3,3,0,0,0-1.92.62,3.79,3.79,0,0,0-1.2,1.64,6.32,6.32,0,0,0,0,4.48,3.82,3.82,0,0,0,1.19,1.63A3.11,3.11,0,0,0,446.33,515.44Z"/><path class="cls-2" d="M453.91,516.37V505.46h1.23v1.67h.11a2.73,2.73,0,0,1,1.09-1.33,3.38,3.38,0,0,1,1.84-.48,3.07,3.07,0,0,1,1.85.52,3.17,3.17,0,0,1,1.09,1.46h.09a3.06,3.06,0,0,1,1.21-1.45,3.66,3.66,0,0,1,2-.53,3.1,3.1,0,0,1,2.4.95,4,4,0,0,1,.88,2.79v7.31h-1.27v-7.31a2.6,2.6,0,0,0-.66-1.94,2.39,2.39,0,0,0-1.74-.65,2.43,2.43,0,0,0-1.92.77,2.84,2.84,0,0,0-.68,1.95v7.18h-1.29v-7.43a2.55,2.55,0,0,0-.62-1.78,2.21,2.21,0,0,0-1.74-.69,2.51,2.51,0,0,0-2.29,1.4,3.2,3.2,0,0,0-.35,1.51v7Z"/><path class="cls-2" d="M471.33,516.37V501.82h1.27v5.72h.11a5.1,5.1,0,0,1,.62-1,3.16,3.16,0,0,1,1.06-.87,3.51,3.51,0,0,1,1.65-.35,4,4,0,0,1,2.36.71,4.61,4.61,0,0,1,1.59,2,8.08,8.08,0,0,1,0,5.91,4.62,4.62,0,0,1-1.58,2,3.91,3.91,0,0,1-2.34.71,3.43,3.43,0,0,1-1.66-.35,3.24,3.24,0,0,1-1.07-.88,5.24,5.24,0,0,1-.63-1h-.15v2Zm1.25-5.45a6.52,6.52,0,0,0,.39,2.34,3.68,3.68,0,0,0,1.14,1.6,3.1,3.1,0,0,0,3.64,0,3.7,3.7,0,0,0,1.14-1.63,6.36,6.36,0,0,0,.39-2.29,6.51,6.51,0,0,0-.38-2.27,3.72,3.72,0,0,0-1.14-1.6,3,3,0,0,0-1.85-.59,2.9,2.9,0,0,0-1.81.57,3.6,3.6,0,0,0-1.13,1.58A6.35,6.35,0,0,0,472.58,510.92Z"/><path class="cls-2" d="M490.26,512.2v-6.74h1.27v10.91h-1.27v-1.81h-.1A3.35,3.35,0,0,1,489,516a3.56,3.56,0,0,1-2,.56,3.67,3.67,0,0,1-1.86-.46,3.14,3.14,0,0,1-1.27-1.35,4.75,4.75,0,0,1-.46-2.18v-7.06h1.27v7a2.83,2.83,0,0,0,.75,2,2.55,2.55,0,0,0,1.93.78,3,3,0,0,0,1.42-.36,2.79,2.79,0,0,0,1.12-1A3,3,0,0,0,490.26,512.2Z"/><path class="cls-2" d="M502.19,507.85l-1.15.33a3.21,3.21,0,0,0-.49-.89,2,2,0,0,0-.81-.63,2.86,2.86,0,0,0-1.24-.24,3,3,0,0,0-1.82.53,1.62,1.62,0,0,0-.71,1.36,1.47,1.47,0,0,0,.49,1.14,3.5,3.5,0,0,0,1.5.69l1.65.4a4.22,4.22,0,0,1,2.06,1.06,2.57,2.57,0,0,1,.68,1.82,2.77,2.77,0,0,1-.51,1.64,3.5,3.5,0,0,1-1.42,1.13,5.21,5.21,0,0,1-2.12.4,4.51,4.51,0,0,1-2.63-.72,3.23,3.23,0,0,1-1.33-2.08l1.21-.3a2.48,2.48,0,0,0,.92,1.47,3,3,0,0,0,1.81.5,3.24,3.24,0,0,0,2-.57,1.7,1.7,0,0,0,.75-1.41,1.54,1.54,0,0,0-.44-1.12,2.64,2.64,0,0,0-1.33-.66l-1.78-.43a4,4,0,0,1-2.11-1.08,2.61,2.61,0,0,1-.68-1.83,2.72,2.72,0,0,1,.49-1.59,3.37,3.37,0,0,1,1.35-1.07,4.7,4.7,0,0,1,2-.39,3.84,3.84,0,0,1,2.4.68A3.7,3.7,0,0,1,502.19,507.85Z"/><path class="cls-2" d="M509.42,505.46v1.1h-5.21v-1.1Zm-3.58-2.62h1.27v10.68a2.15,2.15,0,0,0,.23,1.07,1.26,1.26,0,0,0,.61.54,2,2,0,0,0,.81.16,2.58,2.58,0,0,0,.42,0,2.21,2.21,0,0,0,.32-.07l.27,1.15a3.27,3.27,0,0,1-.46.13,3.13,3.13,0,0,1-.67.06,3,3,0,0,1-1.34-.31,2.5,2.5,0,0,1-1.46-2.4Z"/><path class="cls-2" d="M513,503.58a1,1,0,0,1-.67-.26.86.86,0,0,1-.28-.65.84.84,0,0,1,.28-.64.92.92,0,0,1,.67-.27.9.9,0,0,1,.66.27.84.84,0,0,1,.28.64.86.86,0,0,1-.28.65A.93.93,0,0,1,513,503.58Zm-.65,12.79V505.46h1.27v10.91Z"/><path class="cls-2" d="M521.16,516.59a4.38,4.38,0,0,1-2.49-.71,4.88,4.88,0,0,1-1.7-2,6.75,6.75,0,0,1-.61-2.93A6.85,6.85,0,0,1,517,508a4.88,4.88,0,0,1,1.7-2,4.46,4.46,0,0,1,2.49-.71,4.39,4.39,0,0,1,2.5.72,4.83,4.83,0,0,1,1.69,2A6.7,6.7,0,0,1,526,511a6.61,6.61,0,0,1-.62,2.93,4.79,4.79,0,0,1-1.69,2A4.39,4.39,0,0,1,521.16,516.59Zm0-1.15a3.11,3.11,0,0,0,1.93-.61,3.93,3.93,0,0,0,1.2-1.63,6.47,6.47,0,0,0,0-4.48,4,4,0,0,0-1.2-1.64,3.3,3.3,0,0,0-3.85,0,3.88,3.88,0,0,0-1.2,1.64,6.32,6.32,0,0,0,0,4.48,3.84,3.84,0,0,0,1.2,1.63A3.08,3.08,0,0,0,521.16,515.44Z"/><path class="cls-2" d="M530,509.55v6.82h-1.27V505.46H530v1.71h.11a3.13,3.13,0,0,1,1.2-1.35,3.7,3.7,0,0,1,2-.5,4,4,0,0,1,1.94.45,3.2,3.2,0,0,1,1.3,1.35,4.65,4.65,0,0,1,.47,2.18v7.07h-1.27v-7a3,3,0,0,0-.75-2.13,2.66,2.66,0,0,0-2-.78,3.14,3.14,0,0,0-1.52.37,2.7,2.7,0,0,0-1.06,1.06A3.33,3.33,0,0,0,530,509.55Z"/><path class="cls-2" d="M544.74,516.59a4.58,4.58,0,0,1-4.36-2.69,7.32,7.32,0,0,1,0-5.85,4.76,4.76,0,0,1,1.68-2,4.32,4.32,0,0,1,2.49-.73,4.76,4.76,0,0,1,1.71.32,4.28,4.28,0,0,1,1.48,1,4.61,4.61,0,0,1,1,1.67,6.54,6.54,0,0,1,.39,2.37v.63h-8.52v-1.12h7.23a4.17,4.17,0,0,0-.43-1.89,3.36,3.36,0,0,0-1.17-1.33,3.29,3.29,0,0,0-3.55.06,3.79,3.79,0,0,0-1.24,1.47,4.68,4.68,0,0,0-.45,2v.67a5.31,5.31,0,0,0,.45,2.27,3.39,3.39,0,0,0,1.29,1.5,3.51,3.51,0,0,0,2,.54,3.37,3.37,0,0,0,1.36-.25,2.84,2.84,0,0,0,1-.65,2.89,2.89,0,0,0,.61-.89l1.2.39a3.59,3.59,0,0,1-.82,1.27,4,4,0,0,1-1.4.93A4.9,4.9,0,0,1,544.74,516.59Z"/><path class="cls-2" d="M431.62,527.58a1,1,0,0,1-.67-.26.89.89,0,0,1-.27-.65A.87.87,0,0,1,431,526a1,1,0,0,1,1.34,0,.88.88,0,0,1,.28.64.9.9,0,0,1-.28.65A1,1,0,0,1,431.62,527.58ZM431,540.37V529.46h1.28v10.91Z"/><path class="cls-2" d="M436.86,533.55v6.82H435.6V529.46h1.23v1.71h.11a3.06,3.06,0,0,1,1.2-1.35,3.7,3.7,0,0,1,2-.5,4.05,4.05,0,0,1,1.94.45,3.26,3.26,0,0,1,1.3,1.35,4.66,4.66,0,0,1,.46,2.18v7.07h-1.26v-7a3,3,0,0,0-.75-2.13,2.66,2.66,0,0,0-2-.78,3.21,3.21,0,0,0-1.53.37,2.74,2.74,0,0,0-1.05,1.06A3.33,3.33,0,0,0,436.86,533.55Z"/><path class="cls-2" d="M451.12,540.59a3.92,3.92,0,0,1-2.35-.71,4.62,4.62,0,0,1-1.58-2,8.08,8.08,0,0,1,0-5.91,4.66,4.66,0,0,1,1.58-2,4,4,0,0,1,2.37-.71,3.54,3.54,0,0,1,1.65.35,3.06,3.06,0,0,1,1.06.87,5.1,5.1,0,0,1,.62,1h.11v-5.72h1.27v14.55h-1.23v-2h-.15a5.24,5.24,0,0,1-.63,1,3.24,3.24,0,0,1-1.07.88A3.42,3.42,0,0,1,451.12,540.59Zm.15-1.15a2.9,2.9,0,0,0,1.8-.58,3.6,3.6,0,0,0,1.14-1.6,6.52,6.52,0,0,0,.39-2.34,6.35,6.35,0,0,0-.39-2.31,3.6,3.6,0,0,0-1.13-1.58,3.18,3.18,0,0,0-3.66,0,3.62,3.62,0,0,0-1.13,1.6,6.29,6.29,0,0,0-.39,2.27,6.36,6.36,0,0,0,.39,2.29,3.7,3.7,0,0,0,1.14,1.63A2.85,2.85,0,0,0,451.27,539.44Z"/><path class="cls-2" d="M466.39,536.2v-6.74h1.26v10.91h-1.26v-1.81h-.1a3.37,3.37,0,0,1-1.22,1.39,3.56,3.56,0,0,1-2,.56,3.63,3.63,0,0,1-1.85-.46,3.08,3.08,0,0,1-1.27-1.35,4.62,4.62,0,0,1-.47-2.18v-7.06h1.27v7a2.83,2.83,0,0,0,.75,2,2.57,2.57,0,0,0,1.93.78,3,3,0,0,0,1.42-.36,2.88,2.88,0,0,0,1.13-1A3,3,0,0,0,466.39,536.2Z"/><path class="cls-2" d="M478.32,531.85l-1.16.33a3,3,0,0,0-.48-.89,2.08,2.08,0,0,0-.82-.63,2.83,2.83,0,0,0-1.24-.24,3,3,0,0,0-1.81.53,1.6,1.6,0,0,0-.71,1.36,1.5,1.5,0,0,0,.48,1.14,3.62,3.62,0,0,0,1.5.69l1.65.4a4.18,4.18,0,0,1,2.06,1.06,2.52,2.52,0,0,1,.68,1.82,2.77,2.77,0,0,1-.51,1.64,3.44,3.44,0,0,1-1.42,1.13,5.16,5.16,0,0,1-2.11.4,4.52,4.52,0,0,1-2.64-.72,3.27,3.27,0,0,1-1.33-2.08l1.22-.3a2.39,2.39,0,0,0,.92,1.47,3,3,0,0,0,1.8.5,3.24,3.24,0,0,0,2-.57,1.69,1.69,0,0,0,.76-1.41,1.58,1.58,0,0,0-.44-1.12,2.72,2.72,0,0,0-1.34-.66l-1.78-.43a3.94,3.94,0,0,1-2.1-1.08,2.56,2.56,0,0,1-.68-1.83,2.72,2.72,0,0,1,.48-1.59,3.37,3.37,0,0,1,1.35-1.07,4.73,4.73,0,0,1,2-.39,3.84,3.84,0,0,1,2.4.68A3.77,3.77,0,0,1,478.32,531.85Z"/><path class="cls-2" d="M485.54,529.46v1.1h-5.21v-1.1ZM482,526.84h1.27v10.68a2,2,0,0,0,.24,1.07,1.22,1.22,0,0,0,.61.54,2,2,0,0,0,.8.16,2.63,2.63,0,0,0,.43,0l.31-.07.27,1.15a2.92,2.92,0,0,1-.46.13,3.1,3.1,0,0,1-.66.06,3,3,0,0,1-1.34-.31,2.63,2.63,0,0,1-1.06-.9,2.67,2.67,0,0,1-.41-1.5Z"/><path class="cls-2" d="M488.41,540.37V529.46h1.23v1.67h.09a2.76,2.76,0,0,1,1.14-1.33,3.4,3.4,0,0,1,1.84-.51h.35l.32,0v1.28l-.3,0a3.23,3.23,0,0,0-.46,0,3.16,3.16,0,0,0-1.52.36,2.72,2.72,0,0,0-1.43,2.43v7Z"/><path class="cls-2" d="M496.2,527.58a1,1,0,0,1-.67-.26.89.89,0,0,1-.27-.65.87.87,0,0,1,.27-.64,1,1,0,0,1,1.34,0,.87.87,0,0,1,.27.64.89.89,0,0,1-.27.65A1,1,0,0,1,496.2,527.58Zm-.65,12.79V529.46h1.28v10.91Z"/><path class="cls-2" d="M503.22,540.62a4.13,4.13,0,0,1-1.8-.39,3.15,3.15,0,0,1-1.3-1.12,3.21,3.21,0,0,1-.48-1.79,2.82,2.82,0,0,1,.3-1.36,2.53,2.53,0,0,1,.87-.91,4.48,4.48,0,0,1,1.33-.56,11,11,0,0,1,1.69-.32l1.55-.2a3,3,0,0,0,1-.27.64.64,0,0,0,.33-.6v-.25a2.34,2.34,0,0,0-.66-1.76,2.63,2.63,0,0,0-1.91-.65,3.35,3.35,0,0,0-1.92.52,2.94,2.94,0,0,0-1,1.23l-1.2-.44a3.72,3.72,0,0,1,1-1.43,4.15,4.15,0,0,1,1.47-.77,5.71,5.71,0,0,1,1.64-.24,5.5,5.5,0,0,1,1.3.16,3.77,3.77,0,0,1,1.26.57,2.86,2.86,0,0,1,.94,1.11A3.89,3.89,0,0,1,508,533v7.41h-1.27v-1.73h-.07a3.6,3.6,0,0,1-.68.94,3.47,3.47,0,0,1-1.12.74A3.89,3.89,0,0,1,503.22,540.62Zm.17-1.16a3.28,3.28,0,0,0,1.75-.45,3.1,3.1,0,0,0,1.14-1.19,3.35,3.35,0,0,0,.4-1.64v-1.57a1.19,1.19,0,0,1-.47.24,7.64,7.64,0,0,1-.76.19c-.29.05-.57.1-.86.13s-.53.08-.76.1a7.4,7.4,0,0,0-1.58.36,2.31,2.31,0,0,0-1,.66,1.7,1.7,0,0,0-.35,1.09,1.82,1.82,0,0,0,.71,1.53A2.82,2.82,0,0,0,503.39,539.46Z"/><path class="cls-2" d="M512.57,525.82v14.55h-1.26V525.82Z"/><path class="cls-2" d="M520.32,540.59a4.74,4.74,0,0,1-2.64-.71,4.68,4.68,0,0,1-1.72-2,7.32,7.32,0,0,1,0-5.85,4.76,4.76,0,0,1,1.68-2,4.32,4.32,0,0,1,2.49-.73,4.76,4.76,0,0,1,1.71.32,4.38,4.38,0,0,1,1.48,1,4.61,4.61,0,0,1,1,1.67,6.55,6.55,0,0,1,.38,2.37v.63h-8.52v-1.12h7.23a4.17,4.17,0,0,0-.42-1.89,3.36,3.36,0,0,0-1.17-1.33,3.07,3.07,0,0,0-1.73-.49,3.11,3.11,0,0,0-1.83.55,3.85,3.85,0,0,0-1.23,1.47,4.39,4.39,0,0,0-.45,2v.67a5.31,5.31,0,0,0,.45,2.27,3.44,3.44,0,0,0,1.28,1.5,3.55,3.55,0,0,0,2,.54,3.37,3.37,0,0,0,1.36-.25,2.86,2.86,0,0,0,1.59-1.54l1.2.39a3.43,3.43,0,0,1-.81,1.27,3.94,3.94,0,0,1-1.41.93A4.85,4.85,0,0,1,520.32,540.59Z"/><path d="M468.58,667.86V669h-5.21v-1.1ZM465,665.24h1.27v10.68a2,2,0,0,0,.24,1.07,1.22,1.22,0,0,0,.61.54,2,2,0,0,0,.8.16,2.63,2.63,0,0,0,.43,0l.31-.07.27,1.15a2.92,2.92,0,0,1-.46.13,3.1,3.1,0,0,1-.66.06,3,3,0,0,1-1.34-.31,2.63,2.63,0,0,1-1.06-.9,2.67,2.67,0,0,1-.41-1.5Z"/><path d="M471.45,678.77V667.86h1.23v1.67h.09a2.76,2.76,0,0,1,1.14-1.33,3.4,3.4,0,0,1,1.84-.51h.35l.32,0V669l-.3,0a3.23,3.23,0,0,0-.46,0,3.16,3.16,0,0,0-1.52.36,2.72,2.72,0,0,0-1.43,2.43v7Z"/><path d="M481.63,679a4.17,4.17,0,0,1-1.81-.39,3,3,0,0,1-1.78-2.91,2.71,2.71,0,0,1,.31-1.36,2.42,2.42,0,0,1,.86-.91,4.59,4.59,0,0,1,1.33-.56,11.29,11.29,0,0,1,1.69-.32l1.55-.2a2.93,2.93,0,0,0,1-.27.65.65,0,0,0,.34-.6v-.25a2.34,2.34,0,0,0-.67-1.76,2.63,2.63,0,0,0-1.91-.65,3.35,3.35,0,0,0-1.92.52,3,3,0,0,0-1,1.22l-1.2-.43a3.64,3.64,0,0,1,1-1.43,3.88,3.88,0,0,1,1.46-.77,5.76,5.76,0,0,1,1.64-.24,5.44,5.44,0,0,1,1.3.16,3.77,3.77,0,0,1,1.26.57,2.88,2.88,0,0,1,.95,1.11,4,4,0,0,1,.36,1.81v7.41h-1.26V677H485a3.38,3.38,0,0,1-.68.94,3.47,3.47,0,0,1-1.12.74A3.87,3.87,0,0,1,481.63,679Zm.17-1.16a3.27,3.27,0,0,0,1.74-.45,3,3,0,0,0,1.14-1.19,3.35,3.35,0,0,0,.41-1.64V673a1.33,1.33,0,0,1-.48.24,7.64,7.64,0,0,1-.76.19c-.28,0-.57.1-.85.13l-.77.1a7.55,7.55,0,0,0-1.58.36,2.37,2.37,0,0,0-1,.66,1.68,1.68,0,0,0-.35,1.09,1.82,1.82,0,0,0,.71,1.53A2.83,2.83,0,0,0,481.8,677.86Z"/><path d="M497,670.25l-1.16.33a2.83,2.83,0,0,0-.48-.89,2.12,2.12,0,0,0-.81-.63,2.89,2.89,0,0,0-1.24-.24,3,3,0,0,0-1.82.53,1.6,1.6,0,0,0-.71,1.36,1.5,1.5,0,0,0,.48,1.14,3.6,3.6,0,0,0,1.51.69l1.64.4a4.18,4.18,0,0,1,2.06,1.06,2.53,2.53,0,0,1,.69,1.82,2.78,2.78,0,0,1-.52,1.64,3.44,3.44,0,0,1-1.42,1.13,5.16,5.16,0,0,1-2.11.4,4.52,4.52,0,0,1-2.64-.72,3.27,3.27,0,0,1-1.33-2.08l1.22-.3a2.39,2.39,0,0,0,.92,1.47,3,3,0,0,0,1.81.5,3.28,3.28,0,0,0,2-.57,1.7,1.7,0,0,0,.75-1.41,1.58,1.58,0,0,0-.44-1.12,2.72,2.72,0,0,0-1.34-.66l-1.78-.43a3.94,3.94,0,0,1-2.1-1.08,2.56,2.56,0,0,1-.68-1.83,2.65,2.65,0,0,1,.49-1.59,3.24,3.24,0,0,1,1.35-1.07,4.66,4.66,0,0,1,2-.39,3.55,3.55,0,0,1,3.69,2.54Z"/><path d="M500,682.86v-15h1.22v2.08h.15a5.18,5.18,0,0,1,.63-1,3.26,3.26,0,0,1,1-.87,3.55,3.55,0,0,1,1.66-.35,4,4,0,0,1,2.36.7,4.68,4.68,0,0,1,1.58,2,8.08,8.08,0,0,1,0,5.91,4.62,4.62,0,0,1-1.58,2,3.92,3.92,0,0,1-2.35.71,3.47,3.47,0,0,1-1.65-.35,3.35,3.35,0,0,1-1.07-.88,5.24,5.24,0,0,1-.63-1h-.11v6.12Zm1.25-9.54a6.52,6.52,0,0,0,.39,2.34,3.6,3.6,0,0,0,1.14,1.6,3.09,3.09,0,0,0,3.63,0,3.86,3.86,0,0,0,1.15-1.63,6.36,6.36,0,0,0,.39-2.29,6.29,6.29,0,0,0-.39-2.27,3.72,3.72,0,0,0-1.14-1.6,3.18,3.18,0,0,0-3.66,0A3.6,3.6,0,0,0,501.6,671,6.36,6.36,0,0,0,501.22,673.32Z"/><path d="M516.2,679a4.51,4.51,0,0,1-2.5-.71,4.86,4.86,0,0,1-1.69-2,6.61,6.61,0,0,1-.61-2.93,6.7,6.7,0,0,1,.61-3,4.86,4.86,0,0,1,1.69-2,4.51,4.51,0,0,1,2.5-.71,4.38,4.38,0,0,1,2.49.72,4.85,4.85,0,0,1,1.7,2,6.7,6.7,0,0,1,.61,3,6.61,6.61,0,0,1-.61,2.93,4.86,4.86,0,0,1-1.69,2A4.51,4.51,0,0,1,516.2,679Zm0-1.15a3.11,3.11,0,0,0,1.93-.61,3.82,3.82,0,0,0,1.19-1.63,6.32,6.32,0,0,0,0-4.48,3.86,3.86,0,0,0-1.19-1.64,3.3,3.3,0,0,0-3.85,0,3.79,3.79,0,0,0-1.2,1.64,6.32,6.32,0,0,0,0,4.48,3.76,3.76,0,0,0,1.2,1.63A3.06,3.06,0,0,0,516.2,677.84Z"/><path d="M523.78,678.77V667.86H525v1.67h.09a2.76,2.76,0,0,1,1.14-1.33,3.4,3.4,0,0,1,1.84-.51h.35l.32,0V669l-.3,0a3.23,3.23,0,0,0-.46,0,3.16,3.16,0,0,0-1.52.36,2.72,2.72,0,0,0-1.43,2.43v7Z"/><path d="M535.89,667.86V669h-5.21v-1.1Zm-3.58-2.62h1.27v10.68a2.15,2.15,0,0,0,.23,1.07,1.26,1.26,0,0,0,.61.54,2,2,0,0,0,.81.16,2.58,2.58,0,0,0,.42,0,2.21,2.21,0,0,0,.32-.07l.27,1.15a3.27,3.27,0,0,1-.46.13,3.13,3.13,0,0,1-.67.06,3,3,0,0,1-1.34-.31,2.5,2.5,0,0,1-1.46-2.4Z"/><path d="M542.88,679a4.46,4.46,0,0,1-2.49-.71,4.81,4.81,0,0,1-1.7-2,6.75,6.75,0,0,1-.61-2.93,6.85,6.85,0,0,1,.61-3,4.81,4.81,0,0,1,1.7-2,4.46,4.46,0,0,1,2.49-.71,4.39,4.39,0,0,1,2.5.72,4.83,4.83,0,0,1,1.69,2,6.7,6.7,0,0,1,.61,3,6.61,6.61,0,0,1-.61,2.93,4.79,4.79,0,0,1-1.69,2A4.47,4.47,0,0,1,542.88,679Zm0-1.15a3.11,3.11,0,0,0,1.93-.61,3.93,3.93,0,0,0,1.2-1.63,6.47,6.47,0,0,0,0-4.48,4,4,0,0,0-1.2-1.64,3.3,3.3,0,0,0-3.85,0,3.79,3.79,0,0,0-1.2,1.64,6.32,6.32,0,0,0,0,4.48,3.76,3.76,0,0,0,1.2,1.63A3.08,3.08,0,0,0,542.88,677.84Z"/><path d="M471.46,694.25l-1.16.33a3.05,3.05,0,0,0-.48-.89,2.08,2.08,0,0,0-.82-.63,2.83,2.83,0,0,0-1.24-.24,3,3,0,0,0-1.81.53,1.6,1.6,0,0,0-.71,1.36,1.5,1.5,0,0,0,.48,1.14,3.62,3.62,0,0,0,1.5.69l1.65.4a4.18,4.18,0,0,1,2.06,1.06,2.52,2.52,0,0,1,.68,1.82,2.77,2.77,0,0,1-.51,1.64,3.44,3.44,0,0,1-1.42,1.13,5.17,5.17,0,0,1-2.12.4,4.51,4.51,0,0,1-2.63-.72,3.27,3.27,0,0,1-1.33-2.08l1.22-.3a2.39,2.39,0,0,0,.92,1.47,3,3,0,0,0,1.8.5,3.24,3.24,0,0,0,2-.57,1.69,1.69,0,0,0,.76-1.41,1.58,1.58,0,0,0-.44-1.12,2.72,2.72,0,0,0-1.34-.66l-1.78-.43a3.94,3.94,0,0,1-2.1-1.08,2.57,2.57,0,0,1-.69-1.83,2.72,2.72,0,0,1,.49-1.59,3.37,3.37,0,0,1,1.35-1.07,4.73,4.73,0,0,1,2-.39,3.84,3.84,0,0,1,2.4.68A3.77,3.77,0,0,1,471.46,694.25Z"/><path d="M481.31,698.6v-6.74h1.27v10.91h-1.27V701h-.09a3.45,3.45,0,0,1-1.22,1.39,3.56,3.56,0,0,1-2,.56,3.63,3.63,0,0,1-1.85-.46,3.13,3.13,0,0,1-1.27-1.35,4.62,4.62,0,0,1-.47-2.18v-7.06h1.27v7a2.83,2.83,0,0,0,.75,2,2.57,2.57,0,0,0,1.93.78,3,3,0,0,0,1.42-.36,2.79,2.79,0,0,0,1.12-1A3,3,0,0,0,481.31,698.6Z"/><path d="M498.87,694.25l-1.16.33a2.83,2.83,0,0,0-.48-.89,2.12,2.12,0,0,0-.81-.63,2.89,2.89,0,0,0-1.24-.24,3,3,0,0,0-1.82.53,1.62,1.62,0,0,0-.71,1.36,1.47,1.47,0,0,0,.49,1.14,3.5,3.5,0,0,0,1.5.69l1.65.4a4.14,4.14,0,0,1,2,1.06,2.53,2.53,0,0,1,.69,1.82,2.77,2.77,0,0,1-.51,1.64,3.47,3.47,0,0,1-1.43,1.13,5.16,5.16,0,0,1-2.11.4,4.54,4.54,0,0,1-2.64-.72,3.22,3.22,0,0,1-1.32-2.08l1.21-.3a2.44,2.44,0,0,0,.92,1.47,3,3,0,0,0,1.81.5,3.24,3.24,0,0,0,2-.57,1.7,1.7,0,0,0,.75-1.41,1.58,1.58,0,0,0-.44-1.12,2.68,2.68,0,0,0-1.34-.66l-1.78-.43a4,4,0,0,1-2.1-1.08,2.61,2.61,0,0,1-.68-1.83,2.65,2.65,0,0,1,.49-1.59,3.24,3.24,0,0,1,1.35-1.07,4.66,4.66,0,0,1,2-.39,3.84,3.84,0,0,1,2.4.68A3.76,3.76,0,0,1,498.87,694.25Z"/><path d="M506.09,691.86V693h-5.2v-1.1Zm-3.58-2.62h1.28v10.68A2,2,0,0,0,504,701a1.26,1.26,0,0,0,.61.54,2,2,0,0,0,.8.16,2.63,2.63,0,0,0,.43,0l.31-.07.27,1.15a2.77,2.77,0,0,1-.45.13,3.13,3.13,0,0,1-.67.06,3,3,0,0,1-1.34-.31,2.54,2.54,0,0,1-1.05-.9,2.6,2.6,0,0,1-.42-1.5Z"/><path d="M509,702.77V691.86h1.23v1.67h.09a2.76,2.76,0,0,1,1.14-1.33,3.43,3.43,0,0,1,1.85-.51h.34l.32,0V693l-.29,0a3.44,3.44,0,0,0-.46,0,3.13,3.13,0,0,0-1.52.36,2.78,2.78,0,0,0-1.05,1,2.67,2.67,0,0,0-.38,1.44v7Z"/><path d="M519.14,703a4.1,4.1,0,0,1-1.8-.39,3.09,3.09,0,0,1-1.3-1.12,3.14,3.14,0,0,1-.49-1.79,2.82,2.82,0,0,1,.31-1.36,2.37,2.37,0,0,1,.87-.91,4.42,4.42,0,0,1,1.32-.56,11.29,11.29,0,0,1,1.69-.32l1.56-.2a2.93,2.93,0,0,0,1-.27.63.63,0,0,0,.34-.6v-.25a2.31,2.31,0,0,0-.67-1.76,2.6,2.6,0,0,0-1.9-.65,3.3,3.3,0,0,0-1.92.52,2.84,2.84,0,0,0-1,1.22l-1.2-.43a3.52,3.52,0,0,1,1-1.43,3.88,3.88,0,0,1,1.46-.77,5.76,5.76,0,0,1,1.64-.24,5.58,5.58,0,0,1,1.31.16,3.77,3.77,0,0,1,1.26.57,3,3,0,0,1,.94,1.11,4,4,0,0,1,.36,1.81v7.41H522.6V701h-.08a3.39,3.39,0,0,1-1.8,1.68A3.84,3.84,0,0,1,519.14,703Zm.17-1.16a3.3,3.3,0,0,0,1.75-.45,3.1,3.1,0,0,0,1.14-1.19,3.35,3.35,0,0,0,.4-1.64V697a1.27,1.27,0,0,1-.47.24c-.22.07-.48.13-.76.19s-.57.1-.86.13l-.77.1a7.3,7.3,0,0,0-1.57.36,2.25,2.25,0,0,0-1,.66,1.62,1.62,0,0,0-.35,1.09,1.79,1.79,0,0,0,.71,1.53A2.8,2.8,0,0,0,519.31,701.86Z"/><path d="M531.15,703a3.94,3.94,0,0,1-2.35-.71,4.6,4.6,0,0,1-1.57-2,7.94,7.94,0,0,1,0-5.91,4.61,4.61,0,0,1,1.58-2,4,4,0,0,1,2.36-.7,3.58,3.58,0,0,1,1.66.35,3,3,0,0,1,1,.87,4.67,4.67,0,0,1,.62,1h.12v-5.72h1.27v14.55h-1.24v-2h-.15a4.72,4.72,0,0,1-.62,1,3.35,3.35,0,0,1-1.07.88A3.46,3.46,0,0,1,531.15,703Zm.15-1.15a2.87,2.87,0,0,0,1.8-.58,3.6,3.6,0,0,0,1.14-1.6,7,7,0,0,0,0-4.65,3.54,3.54,0,0,0-1.14-1.58,3.16,3.16,0,0,0-3.65,0,3.72,3.72,0,0,0-1.14,1.6,6.29,6.29,0,0,0-.39,2.27,6.36,6.36,0,0,0,.39,2.29,3.76,3.76,0,0,0,1.14,1.63A2.85,2.85,0,0,0,531.3,701.84Z"/><path d="M542.53,703a4.16,4.16,0,0,1-1.8-.39,3.15,3.15,0,0,1-1.3-1.12,3.21,3.21,0,0,1-.48-1.79,2.82,2.82,0,0,1,.3-1.36,2.53,2.53,0,0,1,.87-.91,4.48,4.48,0,0,1,1.33-.56,11,11,0,0,1,1.69-.32l1.55-.2a3,3,0,0,0,1-.27.64.64,0,0,0,.33-.6v-.25a2.34,2.34,0,0,0-.66-1.76,2.63,2.63,0,0,0-1.91-.65,3.35,3.35,0,0,0-1.92.52,3,3,0,0,0-1,1.22l-1.2-.43a3.72,3.72,0,0,1,1-1.43,4,4,0,0,1,1.47-.77,5.71,5.71,0,0,1,1.64-.24,5.5,5.5,0,0,1,1.3.16,3.77,3.77,0,0,1,1.26.57,3,3,0,0,1,.95,1.11,4,4,0,0,1,.36,1.81v7.41H546V701h-.07a3.6,3.6,0,0,1-.68.94,3.47,3.47,0,0,1-1.12.74A3.89,3.89,0,0,1,542.53,703Zm.18-1.16a3.27,3.27,0,0,0,1.74-.45,3.1,3.1,0,0,0,1.14-1.19,3.35,3.35,0,0,0,.4-1.64V697a1.19,1.19,0,0,1-.47.24,7.64,7.64,0,0,1-.76.19c-.29,0-.57.1-.85.13l-.77.1a7.4,7.4,0,0,0-1.58.36,2.31,2.31,0,0,0-1,.66,1.68,1.68,0,0,0-.35,1.09,1.82,1.82,0,0,0,.71,1.53A2.83,2.83,0,0,0,542.71,701.86Z"/><path d="M187.56,575.18a4.46,4.46,0,0,1-2.55-.73,4.76,4.76,0,0,1-1.67-2,7.3,7.3,0,0,1,0-5.82,4.8,4.8,0,0,1,1.68-2,4.36,4.36,0,0,1,2.51-.73,4.56,4.56,0,0,1,2,.42,4,4,0,0,1,1.47,1.19,3.87,3.87,0,0,1,.73,1.78h-1.28a2.85,2.85,0,0,0-2.88-2.24,3.21,3.21,0,0,0-1.85.56,3.79,3.79,0,0,0-1.25,1.57,5.66,5.66,0,0,0-.45,2.33,6,6,0,0,0,.44,2.35,3.69,3.69,0,0,0,1.24,1.59,3.15,3.15,0,0,0,1.87.58,3.08,3.08,0,0,0,1.33-.28,2.72,2.72,0,0,0,1-.77,2.64,2.64,0,0,0,.55-1.21h1.28a3.86,3.86,0,0,1-2.14,3A4.38,4.38,0,0,1,187.56,575.18Z"/><path d="M198.67,575.18a4.49,4.49,0,0,1-2.5-.71,4.86,4.86,0,0,1-1.69-2,6.61,6.61,0,0,1-.61-2.93,6.7,6.7,0,0,1,.61-2.95,4.86,4.86,0,0,1,1.69-2,4.49,4.49,0,0,1,2.5-.71,4.38,4.38,0,0,1,2.49.72,4.85,4.85,0,0,1,1.7,2,6.7,6.7,0,0,1,.61,2.95,6.61,6.61,0,0,1-.61,2.93,4.86,4.86,0,0,1-1.69,2A4.51,4.51,0,0,1,198.67,575.18Zm0-1.15a3.06,3.06,0,0,0,1.92-.61,3.76,3.76,0,0,0,1.2-1.63,6.32,6.32,0,0,0,0-4.48,3.79,3.79,0,0,0-1.2-1.64,3,3,0,0,0-1.92-.62,3,3,0,0,0-1.92.62,3.79,3.79,0,0,0-1.2,1.64,6.32,6.32,0,0,0,0,4.48,3.82,3.82,0,0,0,1.19,1.63A3.11,3.11,0,0,0,198.67,574Z"/><path d="M206.25,575V564.05h1.23v1.67h.11a2.73,2.73,0,0,1,1.09-1.33,3.38,3.38,0,0,1,1.84-.48,3.07,3.07,0,0,1,1.85.52,3.17,3.17,0,0,1,1.09,1.46h.09a3.06,3.06,0,0,1,1.21-1.45,3.66,3.66,0,0,1,2-.53,3.1,3.1,0,0,1,2.4,1,4,4,0,0,1,.88,2.79V575H218.8v-7.31a2.6,2.6,0,0,0-.66-1.94,2.39,2.39,0,0,0-1.74-.65,2.43,2.43,0,0,0-1.92.77,2.84,2.84,0,0,0-.68,1.95V575h-1.29v-7.43a2.55,2.55,0,0,0-.62-1.78,2.21,2.21,0,0,0-1.74-.69,2.51,2.51,0,0,0-2.29,1.4,3.2,3.2,0,0,0-.35,1.51v7Z"/><path d="M223.67,575V560.41h1.27v5.72h.11a5.1,5.1,0,0,1,.62-1,3.16,3.16,0,0,1,1.06-.87,3.51,3.51,0,0,1,1.65-.35,4,4,0,0,1,2.36.71,4.61,4.61,0,0,1,1.59,2,8.08,8.08,0,0,1,0,5.91,4.62,4.62,0,0,1-1.58,2,3.91,3.91,0,0,1-2.34.71,3.43,3.43,0,0,1-1.66-.35,3.24,3.24,0,0,1-1.07-.88,5.24,5.24,0,0,1-.63-1h-.15v2Zm1.25-5.45a6.52,6.52,0,0,0,.39,2.34,3.68,3.68,0,0,0,1.14,1.6,3.1,3.1,0,0,0,3.64,0,3.76,3.76,0,0,0,1.14-1.63,6.36,6.36,0,0,0,.39-2.29,6.51,6.51,0,0,0-.38-2.27,3.72,3.72,0,0,0-1.14-1.6,3,3,0,0,0-1.85-.59,2.9,2.9,0,0,0-1.81.57,3.6,3.6,0,0,0-1.13,1.58A6.35,6.35,0,0,0,224.92,569.51Z"/><path d="M242.6,570.79v-6.74h1.27V575H242.6v-1.81h-.1a3.35,3.35,0,0,1-1.21,1.39,3.56,3.56,0,0,1-2,.56,3.67,3.67,0,0,1-1.86-.46,3.14,3.14,0,0,1-1.27-1.35,4.75,4.75,0,0,1-.46-2.18v-7.06h1.27v7a2.83,2.83,0,0,0,.75,2.05,2.55,2.55,0,0,0,1.93.78,3,3,0,0,0,1.42-.36,2.79,2.79,0,0,0,1.12-1A3,3,0,0,0,242.6,570.79Z"/><path d="M254.53,566.44l-1.15.33a3.21,3.21,0,0,0-.49-.89,2,2,0,0,0-.81-.63,2.86,2.86,0,0,0-1.24-.24,3,3,0,0,0-1.82.53,1.62,1.62,0,0,0-.71,1.36,1.47,1.47,0,0,0,.49,1.14,3.5,3.5,0,0,0,1.5.69l1.65.4a4.22,4.22,0,0,1,2.06,1.06,2.57,2.57,0,0,1,.68,1.82,2.77,2.77,0,0,1-.51,1.64,3.5,3.5,0,0,1-1.42,1.13,5.21,5.21,0,0,1-2.12.4,4.51,4.51,0,0,1-2.63-.72,3.23,3.23,0,0,1-1.33-2.08l1.21-.3a2.48,2.48,0,0,0,.92,1.47,3,3,0,0,0,1.81.5,3.24,3.24,0,0,0,2-.57,1.7,1.7,0,0,0,.75-1.41,1.54,1.54,0,0,0-.44-1.12,2.64,2.64,0,0,0-1.33-.66l-1.78-.43a4,4,0,0,1-2.11-1.08A2.61,2.61,0,0,1,247,567a2.72,2.72,0,0,1,.49-1.59,3.37,3.37,0,0,1,1.35-1.07,4.7,4.7,0,0,1,2-.39,3.84,3.84,0,0,1,2.4.68A3.7,3.7,0,0,1,254.53,566.44Z"/><path d="M261.76,564.05v1.1h-5.21v-1.1Zm-3.58-2.62h1.27v10.68a2.15,2.15,0,0,0,.23,1.07,1.26,1.26,0,0,0,.61.54,2,2,0,0,0,.81.16,2.58,2.58,0,0,0,.42,0,2.21,2.21,0,0,0,.32-.07l.27,1.15a3.27,3.27,0,0,1-.46.13,3.13,3.13,0,0,1-.67.06,3,3,0,0,1-1.34-.31,2.5,2.5,0,0,1-1.46-2.4Z"/><path d="M265.29,562.17a1,1,0,0,1-.67-.26.86.86,0,0,1-.28-.65.84.84,0,0,1,.28-.64.92.92,0,0,1,.67-.27.9.9,0,0,1,.66.27.84.84,0,0,1,.28.64.86.86,0,0,1-.28.65A.93.93,0,0,1,265.29,562.17ZM264.64,575V564.05h1.27V575Z"/><path d="M273.5,575.18a4.46,4.46,0,0,1-2.49-.71,4.88,4.88,0,0,1-1.7-2,6.75,6.75,0,0,1-.61-2.93,6.85,6.85,0,0,1,.61-2.95,4.88,4.88,0,0,1,1.7-2,4.46,4.46,0,0,1,2.49-.71,4.39,4.39,0,0,1,2.5.72,4.83,4.83,0,0,1,1.69,2,6.7,6.7,0,0,1,.62,2.95,6.61,6.61,0,0,1-.62,2.93,4.79,4.79,0,0,1-1.69,2A4.47,4.47,0,0,1,273.5,575.18Zm0-1.15a3.11,3.11,0,0,0,1.93-.61,3.93,3.93,0,0,0,1.2-1.63,6.47,6.47,0,0,0,0-4.48,4,4,0,0,0-1.2-1.64,3.3,3.3,0,0,0-3.85,0,3.88,3.88,0,0,0-1.2,1.64,6.32,6.32,0,0,0,0,4.48,3.84,3.84,0,0,0,1.2,1.63A3.08,3.08,0,0,0,273.5,574Z"/><path d="M282.35,568.14V575h-1.27V564.05h1.23v1.71h.11a3.13,3.13,0,0,1,1.2-1.35,3.7,3.7,0,0,1,2-.5,4,4,0,0,1,1.94.45,3.2,3.2,0,0,1,1.3,1.35,4.65,4.65,0,0,1,.47,2.18V575h-1.27v-7a3,3,0,0,0-.75-2.13,2.66,2.66,0,0,0-2-.78,3.14,3.14,0,0,0-1.52.37,2.7,2.7,0,0,0-1.06,1.06A3.33,3.33,0,0,0,282.35,568.14Z"/><path d="M297.08,575.18a4.58,4.58,0,0,1-4.36-2.69,7.32,7.32,0,0,1,0-5.85,4.76,4.76,0,0,1,1.68-2,4.32,4.32,0,0,1,2.49-.73,4.76,4.76,0,0,1,1.71.32,4.28,4.28,0,0,1,1.48,1,4.61,4.61,0,0,1,1,1.67,6.54,6.54,0,0,1,.39,2.37v.63H293v-1.12h7.22a4.17,4.17,0,0,0-.42-1.89,3.36,3.36,0,0,0-1.17-1.33,3.29,3.29,0,0,0-3.55.06,3.79,3.79,0,0,0-1.24,1.47,4.68,4.68,0,0,0-.45,2v.67a5.31,5.31,0,0,0,.45,2.27,3.39,3.39,0,0,0,1.29,1.5,3.51,3.51,0,0,0,2,.54,3.37,3.37,0,0,0,1.36-.25,2.84,2.84,0,0,0,1-.65,2.89,2.89,0,0,0,.61-.89l1.2.39a3.59,3.59,0,0,1-.82,1.27,4,4,0,0,1-1.4.93A4.9,4.9,0,0,1,297.08,575.18Z"/><path d="M176.46,592.14V599H175.2V588.05h1.23v1.71h.11a3.13,3.13,0,0,1,1.2-1.35,3.7,3.7,0,0,1,2-.5,4,4,0,0,1,1.94.45,3.26,3.26,0,0,1,1.3,1.35,4.66,4.66,0,0,1,.46,2.18V599h-1.26v-7a3,3,0,0,0-.75-2.13,2.66,2.66,0,0,0-2-.78,3.14,3.14,0,0,0-1.52.37,2.7,2.7,0,0,0-1.06,1.06A3.33,3.33,0,0,0,176.46,592.14Z"/><path d="M191,599.18a4.51,4.51,0,0,1-2.5-.71,4.86,4.86,0,0,1-1.69-2,6.61,6.61,0,0,1-.61-2.93,6.7,6.7,0,0,1,.61-2.95,4.86,4.86,0,0,1,1.69-2,4.51,4.51,0,0,1,2.5-.71,4.38,4.38,0,0,1,2.49.72,4.85,4.85,0,0,1,1.7,2,6.7,6.7,0,0,1,.61,2.95,6.61,6.61,0,0,1-.61,2.93,4.86,4.86,0,0,1-1.69,2A4.51,4.51,0,0,1,191,599.18Zm0-1.15a3.11,3.11,0,0,0,1.93-.61,3.82,3.82,0,0,0,1.19-1.63,6.32,6.32,0,0,0,0-4.48,3.86,3.86,0,0,0-1.19-1.64,3.3,3.3,0,0,0-3.85,0,3.79,3.79,0,0,0-1.2,1.64,6.32,6.32,0,0,0,0,4.48,3.76,3.76,0,0,0,1.2,1.63A3.06,3.06,0,0,0,191,598Z"/><path d="M199.87,592.14V599h-1.26V588.05h1.23v1.71H200a3.13,3.13,0,0,1,1.2-1.35,3.7,3.7,0,0,1,2-.5,4.05,4.05,0,0,1,1.94.45,3.26,3.26,0,0,1,1.3,1.35,4.66,4.66,0,0,1,.46,2.18V599H205.6v-7a3,3,0,0,0-.75-2.13,2.66,2.66,0,0,0-2-.78,3.21,3.21,0,0,0-1.53.37,2.74,2.74,0,0,0-1.05,1.06A3.33,3.33,0,0,0,199.87,592.14Z"/><path d="M216.48,586.17a.93.93,0,0,1-.66-.26.86.86,0,0,1-.28-.65.84.84,0,0,1,.28-.64,1,1,0,0,1,1.33,0,.84.84,0,0,1,.28.64.86.86,0,0,1-.28.65A.94.94,0,0,1,216.48,586.17ZM215.84,599V588.05h1.27V599Z"/><path d="M221.73,592.14V599h-1.27V588.05h1.23v1.71h.11a3.13,3.13,0,0,1,1.2-1.35,3.7,3.7,0,0,1,2-.5,4,4,0,0,1,1.94.45,3.2,3.2,0,0,1,1.3,1.35,4.66,4.66,0,0,1,.46,2.18V599h-1.26v-7a3,3,0,0,0-.75-2.13,2.66,2.66,0,0,0-2-.78,3.14,3.14,0,0,0-1.52.37,2.7,2.7,0,0,0-1.06,1.06A3.33,3.33,0,0,0,221.73,592.14Z"/><path d="M236,599.18a3.94,3.94,0,0,1-2.35-.71,4.6,4.6,0,0,1-1.57-2,7.94,7.94,0,0,1,0-5.91,4.52,4.52,0,0,1,1.58-2,4,4,0,0,1,2.36-.71,3.58,3.58,0,0,1,1.66.35,3,3,0,0,1,1.05.87,4.67,4.67,0,0,1,.62,1h.12v-5.72h1.27V599h-1.24v-2h-.15a4.72,4.72,0,0,1-.62,1,3.35,3.35,0,0,1-1.07.88A3.46,3.46,0,0,1,236,599.18Zm.15-1.15a2.85,2.85,0,0,0,1.8-.58,3.6,3.6,0,0,0,1.14-1.6,7,7,0,0,0,0-4.65,3.54,3.54,0,0,0-1.14-1.58,3.16,3.16,0,0,0-3.65,0,3.72,3.72,0,0,0-1.14,1.6,6.29,6.29,0,0,0-.39,2.27,6.36,6.36,0,0,0,.39,2.29,3.76,3.76,0,0,0,1.14,1.63A2.87,2.87,0,0,0,236.13,598Z"/><path d="M251.25,594.79v-6.74h1.26V599h-1.26v-1.81h-.1a3.42,3.42,0,0,1-1.21,1.39,3.59,3.59,0,0,1-2,.56,3.67,3.67,0,0,1-1.86-.46,3.14,3.14,0,0,1-1.27-1.35,4.63,4.63,0,0,1-.46-2.18v-7.06h1.26v7a2.79,2.79,0,0,0,.76,2.05,2.55,2.55,0,0,0,1.93.78,3,3,0,0,0,1.42-.36,2.86,2.86,0,0,0,1.12-1A3,3,0,0,0,251.25,594.79Z"/><path d="M263.18,590.44l-1.16.33a3,3,0,0,0-.48-.89,2.12,2.12,0,0,0-.81-.63,2.89,2.89,0,0,0-1.24-.24,3,3,0,0,0-1.82.53,1.62,1.62,0,0,0-.71,1.36,1.47,1.47,0,0,0,.49,1.14,3.5,3.5,0,0,0,1.5.69l1.65.4a4.14,4.14,0,0,1,2,1.06,2.53,2.53,0,0,1,.69,1.82,2.77,2.77,0,0,1-.51,1.64,3.47,3.47,0,0,1-1.43,1.13,5.16,5.16,0,0,1-2.11.4,4.54,4.54,0,0,1-2.64-.72,3.22,3.22,0,0,1-1.32-2.08l1.21-.3a2.44,2.44,0,0,0,.92,1.47,3,3,0,0,0,1.81.5,3.24,3.24,0,0,0,2-.57,1.7,1.7,0,0,0,.75-1.41,1.58,1.58,0,0,0-.44-1.12,2.68,2.68,0,0,0-1.33-.66l-1.79-.43a4,4,0,0,1-2.1-1.08,2.61,2.61,0,0,1-.68-1.83,2.65,2.65,0,0,1,.49-1.59,3.37,3.37,0,0,1,1.35-1.07,4.66,4.66,0,0,1,2-.39,3.84,3.84,0,0,1,2.4.68A3.76,3.76,0,0,1,263.18,590.44Z"/><path d="M270.4,588.05v1.1h-5.2v-1.1Zm-3.58-2.62h1.28v10.68a2,2,0,0,0,.23,1.07,1.26,1.26,0,0,0,.61.54,2,2,0,0,0,.8.16,2.63,2.63,0,0,0,.43,0l.31-.07.27,1.15a2.77,2.77,0,0,1-.45.13,3.13,3.13,0,0,1-.67.06,3,3,0,0,1-1.34-.31,2.54,2.54,0,0,1-1.05-.9,2.6,2.6,0,0,1-.42-1.5Z"/><path d="M273.27,599V588.05h1.23v1.67h.09a2.76,2.76,0,0,1,1.14-1.33,3.43,3.43,0,0,1,1.85-.51h.34l.33,0v1.28l-.3,0a3.44,3.44,0,0,0-.46,0,3.13,3.13,0,0,0-1.52.36,2.67,2.67,0,0,0-1.43,2.43V599Z"/><path d="M281.06,586.17a.93.93,0,0,1-.66-.26.86.86,0,0,1-.28-.65.84.84,0,0,1,.28-.64.9.9,0,0,1,.66-.27.92.92,0,0,1,.67.27.84.84,0,0,1,.28.64.86.86,0,0,1-.28.65A1,1,0,0,1,281.06,586.17ZM280.42,599V588.05h1.27V599Z"/><path d="M288.09,599.21a4.17,4.17,0,0,1-1.81-.39,3,3,0,0,1-1.78-2.91,2.71,2.71,0,0,1,.31-1.36,2.42,2.42,0,0,1,.86-.91,4.59,4.59,0,0,1,1.33-.56,11.29,11.29,0,0,1,1.69-.32l1.55-.2a2.93,2.93,0,0,0,1-.27.63.63,0,0,0,.34-.6v-.25a2.31,2.31,0,0,0-.67-1.76A2.62,2.62,0,0,0,289,589a3.36,3.36,0,0,0-1.93.52,3,3,0,0,0-1,1.22l-1.2-.43a3.64,3.64,0,0,1,1-1.43,3.88,3.88,0,0,1,1.46-.77,5.76,5.76,0,0,1,1.64-.24,5.44,5.44,0,0,1,1.3.16,3.73,3.73,0,0,1,1.27.57,3,3,0,0,1,.94,1.11,4,4,0,0,1,.36,1.81V599h-1.26v-1.73h-.08a3.49,3.49,0,0,1-1.8,1.68A3.87,3.87,0,0,1,288.09,599.21Zm.17-1.16a3.33,3.33,0,0,0,1.75-.45,3.1,3.1,0,0,0,1.14-1.19,3.46,3.46,0,0,0,.4-1.64V593.2a1.27,1.27,0,0,1-.47.24c-.23.07-.48.13-.77.19s-.57.1-.85.13l-.77.1a7.3,7.3,0,0,0-1.57.36,2.34,2.34,0,0,0-1,.66,1.69,1.69,0,0,0-.34,1.09,1.79,1.79,0,0,0,.71,1.53A2.78,2.78,0,0,0,288.26,598.05Z"/><path d="M297.43,584.41V599h-1.26V584.41Z"/><path d="M305.18,599.18a4.58,4.58,0,0,1-4.36-2.69,7.32,7.32,0,0,1,0-5.85,4.76,4.76,0,0,1,1.68-2,4.32,4.32,0,0,1,2.49-.73,4.76,4.76,0,0,1,1.71.32,4.28,4.28,0,0,1,1.48,1,4.61,4.61,0,0,1,1,1.67,6.54,6.54,0,0,1,.39,2.37v.63h-8.52v-1.12h7.22a4.17,4.17,0,0,0-.42-1.89,3.36,3.36,0,0,0-1.17-1.33,3.29,3.29,0,0,0-3.55.06,3.79,3.79,0,0,0-1.24,1.47,4.68,4.68,0,0,0-.45,2v.67a5.31,5.31,0,0,0,.45,2.27,3.39,3.39,0,0,0,1.29,1.5,3.49,3.49,0,0,0,2,.54,3.37,3.37,0,0,0,1.36-.25,2.84,2.84,0,0,0,1-.65,2.89,2.89,0,0,0,.61-.89l1.2.39a3.59,3.59,0,0,1-.82,1.27,4,4,0,0,1-1.4.93A4.9,4.9,0,0,1,305.18,599.18Z"/></g></svg>