<svg xmlns="http://www.w3.org/2000/svg" viewBox="0 0 720 900"><defs><style>.cls-1{fill:#fff;}.cls-2{fill:#b8b8b8;}</style></defs><g id="Livello_2" data-name="Livello 2"><circle class="cls-1" cx="298.3" cy="186.87" r="22.87"/><circle class="cls-2" cx="389.36" cy="482.47" r="6.85"/><circle class="cls-2" cx="355.6" cy="446.73" r="5.06"/><circle class="cls-1" cx="278.46" cy="236.39" r="9.61"/><circle class="cls-2" cx="410.21" cy="522.19" r="8.34"/><circle class="cls-2" cx="242.4" cy="579.78" r="142.83"/><circle class="cls-2" cx="505.53" cy="684.13" r="109.47"/><path class="cls-1" d="M102.47,196.87h-1V182h.94v2.21h0a3.91,3.91,0,0,1,3.78-2.42c2.52,0,4.43,2,4.43,5.25s-2,5.42-4.49,5.42a3.81,3.81,0,0,1-3.72-2.42h0c0,.65.06,3.82.06,4.18Zm3.57-14.2c-2,0-3.5,1.6-3.57,4.24v.21c0,2.78,1.56,4.46,3.57,4.46s3.57-1.79,3.57-4.54S108,182.67,106,182.67Z"/><path class="cls-1" d="M113.29,182h.94v1.89h.07a3,3,0,0,1,2.83-2.1,2.73,2.73,0,0,1,1.45.4l-.34.9a2.55,2.55,0,0,0-1.3-.33c-1.7,0-2.64,1.8-2.64,3.84v5.65h-1Z"/><path class="cls-1" d="M123.85,181.79c2.81,0,4.7,2.12,4.7,5.33s-2.05,5.34-4.7,5.34c-2.81,0-4.7-2.12-4.7-5.34S121.2,181.79,123.85,181.79Zm0,9.79c2.06,0,3.65-1.81,3.65-4.46s-1.53-4.45-3.65-4.45-3.65,1.81-3.65,4.45S121.71,191.58,123.85,191.58Z"/><path class="cls-1" d="M135.17,181.79a4,4,0,0,1,4.16,3.53h-1a3.1,3.1,0,0,0-3.15-2.65c-2,0-3.57,1.81-3.57,4.45s1.49,4.46,3.57,4.46a3.1,3.1,0,0,0,3.15-2.65h1a4,4,0,0,1-4.16,3.53c-2.79,0-4.62-2.12-4.62-5.34S132.59,181.79,135.17,181.79Z"/><path class="cls-1" d="M145.86,181.79c2.45,0,4.28,1.81,4.28,4.87v.44h-7.81v0c0,2.65,1.36,4.46,3.61,4.46a2.94,2.94,0,0,0,3.11-2.44h1a3.94,3.94,0,0,1-4.1,3.32c-3,0-4.66-2.12-4.66-5.34S143.27,181.79,145.86,181.79Zm-3.49,4.54h6.74c-.1-2.4-1.42-3.66-3.25-3.66S142.65,184.1,142.37,186.33Z"/><path class="cls-1" d="M153,189.39c0,1.62,1.49,2.27,3,2.27,1.77,0,3-.73,3-2.18,0-1.16-.68-1.62-2.06-1.85l-1.93-.34c-1.43-.25-2.8-.77-2.8-2.56s1.66-2.94,3.8-2.94c2,0,3.76.88,3.76,2.94h-.94c0-1.47-1.3-2.14-2.82-2.14s-2.81.73-2.81,2.06c0,1.13.82,1.55,2.1,1.78l1.93.34c1.7.29,2.77.9,2.77,2.62,0,2-1.76,3.07-4,3.07s-4-1-4-3.07Z"/><path class="cls-1" d="M162.68,189.39c0,1.62,1.49,2.27,3,2.27,1.77,0,3-.73,3-2.18,0-1.16-.67-1.62-2.06-1.85l-1.93-.34c-1.43-.25-2.8-.77-2.8-2.56s1.66-2.94,3.81-2.94c2,0,3.75.88,3.75,2.94h-.94c0-1.47-1.3-2.14-2.81-2.14s-2.82.73-2.82,2.06c0,1.13.82,1.55,2.1,1.78l1.93.34c1.7.29,2.77.9,2.77,2.62,0,2-1.76,3.07-4,3.07s-4-1-4-3.07Z"/><path class="cls-1" d="M172.36,176.88h1.09v1.93h-1.09Zm0,5.12h1v10.25h-1Z"/><path class="cls-1" d="M181.14,176.88h1.09v1.93h-1.09Zm0,5.12h1v10.25h-1Z"/><path class="cls-1" d="M185.61,182h.95v2h.06a3.6,3.6,0,0,1,3.53-2.21c2,0,3.65,1.14,3.65,4.12v6.34h-1V186c0-2.43-1.15-3.36-2.81-3.36-1.83,0-3.36,1.39-3.36,4.18v5.4h-1Z"/><path class="cls-1" d="M200.82,181.79a3.76,3.76,0,0,1,3.67,2.42h.06c0-.68-.06-3.61-.06-4v-3.36h1v15.37h-.95V190h-.06a3.89,3.89,0,0,1-3.76,2.44c-2.52,0-4.43-2-4.43-5.25S198.3,181.79,200.82,181.79Zm.08,9.79c2,0,3.51-1.6,3.59-4.25v-.42c-.08-2.64-1.62-4.24-3.57-4.24s-3.57,1.79-3.57,4.54S198.93,191.58,200.9,191.58Z"/><path class="cls-1" d="M208.75,182h1v6.22c0,2.43,1.16,3.36,2.79,3.36,1.83,0,3.3-1.45,3.3-4.2V182h1v10.25h-1v-2h0a3.59,3.59,0,0,1-3.48,2.21c-2,0-3.62-1.14-3.62-4.12Z"/><path class="cls-1" d="M220.3,189.39c0,1.62,1.49,2.27,3,2.27,1.76,0,3-.73,3-2.18,0-1.16-.67-1.62-2.06-1.85l-1.93-.34c-1.43-.25-2.79-.77-2.79-2.56s1.66-2.94,3.8-2.94c2,0,3.76.88,3.76,2.94h-.95c0-1.47-1.3-2.14-2.81-2.14s-2.81.73-2.81,2.06c0,1.13.81,1.55,2.1,1.78l1.93.34c1.7.29,2.77.9,2.77,2.62,0,2-1.76,3.07-4,3.07s-4-1-4-3.07Z"/><path class="cls-1" d="M230.28,182.82h-2.1V182h2.1v-3.11h1V182h2.92v.82h-2.92v6.53c0,1.51.59,2,1.85,2h1.07v.86H233c-1.81,0-2.73-.84-2.73-2.86Z"/><path class="cls-1" d="M236.37,182h.94v1.89h.07a3,3,0,0,1,2.83-2.1,2.71,2.71,0,0,1,1.45.4l-.34.9a2.55,2.55,0,0,0-1.3-.33c-1.7,0-2.64,1.8-2.64,3.84v5.65h-1Z"/><path class="cls-1" d="M243.36,176.88h1.09v1.93h-1.09Zm0,5.12h1v10.25h-1Z"/><path class="cls-1" d="M250.29,186.73l2.44-.4c1-.15,1.4-.34,1.4-.93a2.49,2.49,0,0,0-2.7-2.77,2.64,2.64,0,0,0-2.92,2.56h-1a3.55,3.55,0,0,1,3.89-3.4,3.35,3.35,0,0,1,3.71,3.7v6.76h-.94V190.3h-.07a3.78,3.78,0,0,1-3.69,2.16c-2.1,0-3.28-1.11-3.28-2.77S248.17,187.08,250.29,186.73Zm3.84-.21a2,2,0,0,1-1.28.56l-2.37.38c-1.57.25-2.31,1-2.31,2.14s.84,2,2.42,2a3.37,3.37,0,0,0,3.54-3.74Z"/><path class="cls-1" d="M258.44,176.88h1v15.37h-1Z"/><path class="cls-1" d="M262.81,176.88h1.09v1.93h-1.09Zm0,5.12h1v10.25h-1Z"/><path class="cls-1" d="M224.31,236.44l2.43-.39c1-.15,1.41-.34,1.41-.93a2.49,2.49,0,0,0-2.71-2.77,2.65,2.65,0,0,0-2.92,2.56h-1a3.55,3.55,0,0,1,3.89-3.4,3.36,3.36,0,0,1,3.72,3.7V242h-.95v-2h-.06a3.78,3.78,0,0,1-3.7,2.17c-2.1,0-3.27-1.12-3.27-2.78S222.18,236.8,224.31,236.44Zm3.84-.21a1.94,1.94,0,0,1-1.28.57l-2.38.38c-1.57.25-2.31,1-2.31,2.14s.84,2,2.42,2a3.38,3.38,0,0,0,3.55-3.74Z"/><path class="cls-1" d="M232.45,226.6h1V242h-1Z"/><path class="cls-1" d="M237.12,232.54H235v-.82h2.1v-3.11h1v3.11H241v.82h-2.92v6.53c0,1.51.59,2,1.85,2H241V242h-1.2c-1.8,0-2.72-.84-2.72-2.86Z"/><path class="cls-1" d="M243.21,231.72h.94v1.89h.06a3,3,0,0,1,2.84-2.1,2.64,2.64,0,0,1,1.45.4l-.34.9a2.55,2.55,0,0,0-1.3-.33c-1.7,0-2.65,1.8-2.65,3.84V242h-1Z"/><path class="cls-1" d="M253.77,231.51c2.81,0,4.7,2.12,4.7,5.33s-2.06,5.34-4.7,5.34c-2.82,0-4.71-2.12-4.71-5.34S251.12,231.51,253.77,231.51Zm0,9.78c2.06,0,3.65-1.8,3.65-4.45s-1.53-4.45-3.65-4.45-3.66,1.81-3.66,4.45S251.63,241.29,253.77,241.29Z"/><path class="cls-2" d="M375,446.06l2.44-.4c1-.14,1.4-.33,1.4-.92a2.48,2.48,0,0,0-2.7-2.77,2.64,2.64,0,0,0-2.92,2.56h-1a3.55,3.55,0,0,1,3.89-3.4,3.35,3.35,0,0,1,3.71,3.69v6.76h-.94v-1.95h-.07a3.76,3.76,0,0,1-3.69,2.16c-2.1,0-3.28-1.11-3.28-2.77S372.9,446.42,375,446.06Zm3.84-.21a1.92,1.92,0,0,1-1.28.57l-2.37.38c-1.57.25-2.31,1-2.31,2.14s.84,2,2.42,2a3.37,3.37,0,0,0,3.54-3.73Z"/><path class="cls-2" d="M383.59,452.84c0,1.68,1.34,2.69,3.32,2.69s3.69-1.09,3.69-4.32l0-1.83h-.06a3.9,3.9,0,0,1-3.76,2.41c-2.52,0-4.43-2-4.43-5.24s2-5.42,4.52-5.42a3.77,3.77,0,0,1,3.67,2.41h.06v-2.2h.95v9.87c0,3.8-2,5.14-4.66,5.14s-4.29-1.24-4.29-3.51Zm3.38-1.93c2,0,3.59-1.68,3.59-4.45v-.21c-.08-2.64-1.62-4.24-3.57-4.24s-3.57,1.79-3.57,4.54S385,450.91,387,450.91Z"/><path class="cls-2" d="M395,441.34h.95v1.89H396a3,3,0,0,1,2.84-2.1,2.59,2.59,0,0,1,1.44.4l-.33.9a2.62,2.62,0,0,0-1.3-.34c-1.7,0-2.65,1.81-2.65,3.85v5.64h-1Z"/><path class="cls-2" d="M402,436.22h1.09v1.93H402Zm0,5.12h1v10.24h-1Z"/><path class="cls-2" d="M410.28,441.13a4,4,0,0,1,4.16,3.53h-1a3.1,3.1,0,0,0-3.15-2.65c-2,0-3.57,1.81-3.57,4.45s1.49,4.45,3.57,4.45a3.1,3.1,0,0,0,3.15-2.64h1a4,4,0,0,1-4.16,3.52c-2.79,0-4.62-2.12-4.62-5.33S407.7,441.13,410.28,441.13Z"/><path class="cls-2" d="M421.09,441.13c2.82,0,4.71,2.12,4.71,5.33s-2.06,5.33-4.71,5.33c-2.81,0-4.7-2.12-4.7-5.33S418.45,441.13,421.09,441.13Zm0,9.78c2.06,0,3.66-1.8,3.66-4.45s-1.54-4.45-3.66-4.45-3.65,1.81-3.65,4.45S419,450.91,421.09,450.91Z"/><path class="cls-2" d="M428.42,436.22h1v15.36h-1Z"/><path class="cls-2" d="M433.09,442.16H431v-.82h2.1v-3.11h1v3.11H437v.82h-2.92v6.53c0,1.51.59,2,1.85,2H437v.86h-1.19c-1.81,0-2.73-.83-2.73-2.85Z"/><path class="cls-2" d="M439,441.34h1v6.21c0,2.44,1.15,3.36,2.79,3.36,1.83,0,3.3-1.45,3.3-4.2v-5.37h1v10.24h-1v-2h0a3.61,3.61,0,0,1-3.49,2.2c-2,0-3.61-1.13-3.61-4.11Z"/><path class="cls-2" d="M450.52,441.34h.94v1.89h.06a3,3,0,0,1,2.84-2.1,2.64,2.64,0,0,1,1.45.4l-.34.9a2.57,2.57,0,0,0-1.3-.34c-1.7,0-2.65,1.81-2.65,3.85v5.64h-1Z"/><path class="cls-2" d="M459.71,446.06l2.44-.4c1-.14,1.41-.33,1.41-.92a2.5,2.5,0,0,0-2.71-2.77,2.65,2.65,0,0,0-2.92,2.56h-1a3.55,3.55,0,0,1,3.89-3.4,3.35,3.35,0,0,1,3.71,3.69v6.76h-.94v-1.95h-.06a3.78,3.78,0,0,1-3.7,2.16c-2.1,0-3.27-1.11-3.27-2.77S457.59,446.42,459.71,446.06Zm3.85-.21a1.94,1.94,0,0,1-1.28.57l-2.38.38c-1.57.25-2.31,1-2.31,2.14s.84,2,2.42,2a3.38,3.38,0,0,0,3.55-3.73Z"/><path d="M466.93,668.67h-2.1v-.81h2.1v-3.11h1v3.11h2.92v.81h-2.92v6.53c0,1.52.59,2,1.85,2h1.07v.86h-1.2c-1.8,0-2.73-.84-2.73-2.85Z"/><path d="M473,667.86h1v1.88H474a3,3,0,0,1,2.84-2.09,2.66,2.66,0,0,1,1.44.39L478,669a2.52,2.52,0,0,0-1.3-.34c-1.71,0-2.65,1.81-2.65,3.84v5.65h-1Z"/><path d="M482.22,672.58l2.44-.4c1-.15,1.4-.34,1.4-.92a2.49,2.49,0,0,0-2.71-2.77,2.64,2.64,0,0,0-2.91,2.56h-1a3.54,3.54,0,0,1,3.88-3.4,3.36,3.36,0,0,1,3.72,3.69v6.76h-.95v-2h-.06a3.79,3.79,0,0,1-3.69,2.16c-2.1,0-3.28-1.11-3.28-2.77S480.1,672.94,482.22,672.58Zm3.84-.21a2,2,0,0,1-1.28.57l-2.37.37c-1.58.26-2.31,1-2.31,2.15s.84,2,2.41,2a3.38,3.38,0,0,0,3.55-3.74Z"/><path d="M490.41,675.25c0,1.61,1.49,2.26,3,2.26,1.77,0,3-.73,3-2.18,0-1.16-.68-1.62-2.06-1.85l-1.93-.33c-1.43-.26-2.79-.78-2.79-2.57s1.65-2.93,3.8-2.93c2,0,3.75.88,3.75,2.93h-.94c0-1.47-1.3-2.14-2.81-2.14s-2.82.74-2.82,2.06c0,1.13.82,1.55,2.1,1.79l1.93.33c1.7.3,2.77.9,2.77,2.63,0,2-1.76,3.06-4,3.06s-4-1-4-3.06Z"/><path d="M501.14,682.72h-1V667.86h.95v2.2h0a3.91,3.91,0,0,1,3.78-2.41c2.52,0,4.43,2,4.43,5.24s-2,5.42-4.49,5.42a3.8,3.8,0,0,1-3.72-2.41h0c0,.65.06,3.82.06,4.17Zm3.57-14.19c-2,0-3.51,1.59-3.57,4.24V673c0,2.77,1.56,4.45,3.57,4.45s3.57-1.79,3.57-4.54S506.7,668.53,504.71,668.53Z"/><path d="M516,667.65c2.81,0,4.7,2.12,4.7,5.33s-2.06,5.33-4.7,5.33c-2.81,0-4.7-2.12-4.7-5.33S513.38,667.65,516,667.65Zm0,9.78c2.06,0,3.65-1.81,3.65-4.45s-1.53-4.45-3.65-4.45-3.65,1.8-3.65,4.45S513.89,677.43,516,677.43Z"/><path d="M523.36,667.86h.94v1.88h.07a3,3,0,0,1,2.83-2.09,2.69,2.69,0,0,1,1.45.39l-.34.91a2.48,2.48,0,0,0-1.3-.34c-1.7,0-2.64,1.81-2.64,3.84v5.65h-1Z"/><path d="M531.65,668.67h-2.1v-.81h2.1v-3.11h1v3.11h2.92v.81h-2.92v6.53c0,1.52.59,2,1.85,2h1.07v.86h-1.2c-1.8,0-2.73-.84-2.73-2.85Z"/><path d="M541.52,667.65c2.82,0,4.71,2.12,4.71,5.33s-2.06,5.33-4.71,5.33c-2.81,0-4.7-2.12-4.7-5.33S538.88,667.65,541.52,667.65Zm0,9.78c2.06,0,3.66-1.81,3.66-4.45s-1.54-4.45-3.66-4.45-3.65,1.8-3.65,4.45S539.38,677.43,541.52,677.43Z"/><path d="M467.14,700.45c0,1.61,1.49,2.26,3,2.26,1.76,0,3-.73,3-2.18,0-1.16-.67-1.62-2.06-1.85l-1.93-.33c-1.43-.26-2.79-.78-2.79-2.57s1.66-2.94,3.8-2.94c2,0,3.76.89,3.76,2.94h-1c0-1.47-1.3-2.14-2.81-2.14s-2.82.74-2.82,2.06c0,1.13.82,1.55,2.1,1.79l1.94.33c1.7.29,2.77.9,2.77,2.63,0,2-1.77,3.06-4,3.06s-4-1-4-3.06Z"/><path d="M476.7,693.05h1v6.22c0,2.44,1.16,3.36,2.8,3.36,1.82,0,3.29-1.45,3.29-4.2v-5.38h1V703.3h-1v-2h0a3.6,3.6,0,0,1-3.48,2.2c-2,0-3.61-1.13-3.61-4.11Z"/><path d="M492.59,700.45c0,1.61,1.5,2.26,3,2.26,1.76,0,3-.73,3-2.18,0-1.16-.67-1.62-2.06-1.85l-1.93-.33c-1.43-.26-2.79-.78-2.79-2.57s1.66-2.94,3.8-2.94c2,0,3.76.89,3.76,2.94h-.95c0-1.47-1.3-2.14-2.81-2.14s-2.81.74-2.81,2.06c0,1.13.82,1.55,2.1,1.79l1.93.33c1.7.29,2.77.9,2.77,2.63,0,2-1.76,3.06-4,3.06s-4-1-4-3.06Z"/><path d="M502.57,693.87h-2.1v-.82h2.1V690h1v3.1h2.92v.82h-2.92v6.53c0,1.52.59,2,1.85,2h1.07v.86h-1.2c-1.81,0-2.73-.84-2.73-2.85Z"/><path d="M508.66,693.05h.95v1.89h.06a3,3,0,0,1,2.83-2.1,2.71,2.71,0,0,1,1.45.4l-.33.91a2.53,2.53,0,0,0-1.31-.34c-1.7,0-2.64,1.81-2.64,3.84v5.65h-1Z"/><path d="M517.86,697.78l2.43-.4c1-.15,1.41-.34,1.41-.92a2.5,2.5,0,0,0-2.71-2.78,2.66,2.66,0,0,0-2.92,2.57h-1a3.54,3.54,0,0,1,3.88-3.41,3.37,3.37,0,0,1,3.72,3.7v6.76h-1v-1.95h-.06a3.79,3.79,0,0,1-3.7,2.16c-2.09,0-3.27-1.11-3.27-2.77S515.74,698.14,517.86,697.78Zm3.84-.21a2,2,0,0,1-1.28.57l-2.37.37c-1.58.26-2.31,1-2.31,2.15s.84,2,2.41,2a3.38,3.38,0,0,0,3.55-3.74Z"/><path d="M529.72,692.84a3.79,3.79,0,0,1,3.68,2.42h.06c0-.67-.06-3.61-.06-4v-3.36h1V703.3h-.94v-2.22h-.06a3.89,3.89,0,0,1-3.76,2.43c-2.52,0-4.43-2-4.43-5.25S527.2,692.84,529.72,692.84Zm.09,9.79c2,0,3.5-1.6,3.59-4.24V698c-.09-2.65-1.62-4.24-3.57-4.24s-3.57,1.78-3.57,4.53S527.83,702.63,529.81,702.63Z"/><path d="M540.28,697.78l2.44-.4c1-.15,1.41-.34,1.41-.92a2.5,2.5,0,0,0-2.71-2.78,2.66,2.66,0,0,0-2.92,2.57h-1a3.55,3.55,0,0,1,3.89-3.41,3.37,3.37,0,0,1,3.72,3.7v6.76h-.95v-1.95h-.06a3.79,3.79,0,0,1-3.7,2.16c-2.1,0-3.27-1.11-3.27-2.77S538.16,698.14,540.28,697.78Zm3.85-.21a2,2,0,0,1-1.28.57l-2.38.37c-1.57.26-2.31,1-2.31,2.15s.84,2,2.42,2a3.38,3.38,0,0,0,3.55-3.74Z"/><path d="M189,564.3a4,4,0,0,1,4.16,3.53h-1a3.1,3.1,0,0,0-3.15-2.64c-2,0-3.57,1.8-3.57,4.45s1.49,4.45,3.57,4.45a3.1,3.1,0,0,0,3.15-2.65h1A4,4,0,0,1,189,575c-2.79,0-4.62-2.12-4.62-5.33S186.43,564.3,189,564.3Z"/><path d="M199.83,564.3c2.81,0,4.7,2.12,4.7,5.34s-2.06,5.33-4.7,5.33c-2.82,0-4.71-2.12-4.71-5.33S197.18,564.3,199.83,564.3Zm0,9.79c2,0,3.65-1.81,3.65-4.45s-1.53-4.45-3.65-4.45-3.66,1.8-3.66,4.45S197.68,574.09,199.83,574.09Z"/><path d="M207.16,564.51h.94v2h.06a3.56,3.56,0,0,1,3.4-2.21,3.15,3.15,0,0,1,3.26,2.46,3.65,3.65,0,0,1,3.59-2.46c1.89,0,3.44,1.14,3.44,4v6.43h-1v-6.3c0-2.35-1-3.27-2.62-3.27s-3.21,1.38-3.21,4.19v5.38h-1v-6.3c0-2.35-1.09-3.27-2.62-3.27-1.68,0-3.22,1.38-3.22,4.19v5.38h-1Z"/><path d="M225.15,559.39h1v3.15c0,.34,0,3.53-.06,4.18h0a3.91,3.91,0,0,1,3.78-2.42c2.52,0,4.43,2,4.43,5.25s-2,5.42-4.5,5.42a3.79,3.79,0,0,1-3.71-2.42h0l0,2.21h-1Zm4.58,14.7c2,0,3.57-1.79,3.57-4.54s-1.58-4.36-3.57-4.36-3.51,1.59-3.57,4.24v.21C226.16,572.41,227.71,574.09,229.73,574.09Z"/><path d="M236.79,564.51h1v6.22c0,2.43,1.16,3.36,2.8,3.36,1.82,0,3.29-1.45,3.29-4.2v-5.38h1v10.25h-1v-2h0A3.59,3.59,0,0,1,240.4,575c-2,0-3.61-1.13-3.61-4.12Z"/><path d="M248.34,571.9c0,1.62,1.49,2.27,3,2.27,1.76,0,3-.73,3-2.18,0-1.16-.67-1.62-2.06-1.85l-1.93-.34c-1.43-.25-2.79-.77-2.79-2.56s1.66-2.94,3.8-2.94c2,0,3.76.89,3.76,2.94h-.95c0-1.47-1.3-2.14-2.81-2.14s-2.81.74-2.81,2.06c0,1.13.82,1.55,2.1,1.78l1.93.34c1.7.29,2.77.9,2.77,2.62,0,2-1.76,3.07-4,3.07s-4-1-4-3.07Z"/><path d="M258.31,565.33h-2.1v-.82h2.1v-3.1h1v3.1h2.92v.82h-2.92v6.53c0,1.51.59,2,1.85,2h1.07v.86H261c-1.81,0-2.73-.84-2.73-2.86Z"/><path d="M264.36,559.39h1.09v1.93h-1.09Zm0,5.12h1v10.25h-1Z"/><path d="M272.74,564.3c2.81,0,4.7,2.12,4.7,5.34s-2.06,5.33-4.7,5.33c-2.82,0-4.71-2.12-4.71-5.33S270.09,564.3,272.74,564.3Zm0,9.79c2.06,0,3.65-1.81,3.65-4.45s-1.53-4.45-3.65-4.45-3.66,1.8-3.66,4.45S270.6,574.09,272.74,574.09Z"/><path d="M280.07,564.51H281v2h.06a3.62,3.62,0,0,1,3.53-2.21c2,0,3.66,1.14,3.66,4.12v6.34h-1v-6.22c0-2.43-1.16-3.35-2.82-3.35-1.82,0-3.36,1.38-3.36,4.17v5.4h-1Z"/><path d="M295.33,564.3c2.46,0,4.29,1.81,4.29,4.87v.45h-7.81v0c0,2.64,1.36,4.45,3.61,4.45a2.93,2.93,0,0,0,3.1-2.44h1a3.93,3.93,0,0,1-4.09,3.32c-3,0-4.66-2.12-4.66-5.33S292.75,564.3,295.33,564.3Zm-3.48,4.54h6.74c-.11-2.39-1.43-3.65-3.26-3.65S292.12,566.61,291.85,568.84Z"/><path d="M178.26,589.71h.94v2h.07a3.61,3.61,0,0,1,3.53-2.21c2,0,3.65,1.14,3.65,4.12V600h-1v-6.22c0-2.43-1.15-3.35-2.81-3.35-1.83,0-3.36,1.38-3.36,4.17V600h-1Z"/><path d="M193.65,589.5c2.81,0,4.7,2.12,4.7,5.34s-2,5.33-4.7,5.33c-2.81,0-4.7-2.12-4.7-5.33S191,589.5,193.65,589.5Zm0,9.79c2.06,0,3.65-1.81,3.65-4.45s-1.53-4.45-3.65-4.45-3.65,1.8-3.65,4.45S191.51,599.29,193.65,599.29Z"/><path d="M201,589.71h1v2H202a3.62,3.62,0,0,1,3.53-2.21c2,0,3.65,1.14,3.65,4.12V600h-1v-6.22c0-2.43-1.15-3.35-2.81-3.35-1.83,0-3.36,1.38-3.36,4.17V600h-1Z"/><path d="M216.77,584.59h1.1v1.93h-1.1Zm0,5.12h1V600h-1Z"/><path d="M221.25,589.71h.94v2h.06a3.62,3.62,0,0,1,3.53-2.21c2,0,3.65,1.14,3.65,4.12V600h-1v-6.22c0-2.43-1.16-3.35-2.82-3.35-1.82,0-3.36,1.38-3.36,4.17V600h-1Z"/><path d="M236.45,589.5a3.76,3.76,0,0,1,3.67,2.42h.07c0-.67-.07-3.61-.07-4v-3.36h1V600h-.94v-2.23h-.07a3.87,3.87,0,0,1-3.75,2.44c-2.52,0-4.43-2-4.43-5.25S233.93,589.5,236.45,589.5Zm.08,9.79c2,0,3.51-1.6,3.59-4.24v-.42c-.08-2.65-1.61-4.24-3.57-4.24s-3.56,1.78-3.56,4.53S234.56,599.29,236.53,599.29Z"/><path d="M244.39,589.71h1v6.22c0,2.43,1.15,3.36,2.79,3.36,1.82,0,3.29-1.45,3.29-4.2v-5.38h1V600h-1v-2h-.05a3.59,3.59,0,0,1-3.48,2.21c-2,0-3.61-1.13-3.61-4.12Z"/><path d="M255.94,597.1c0,1.62,1.49,2.27,3,2.27,1.77,0,3-.73,3-2.18,0-1.16-.68-1.62-2.06-1.85L258,595c-1.43-.25-2.8-.77-2.8-2.56s1.66-2.94,3.8-2.94c2,0,3.76.89,3.76,2.94h-.94c0-1.47-1.3-2.14-2.82-2.14s-2.81.74-2.81,2.06c0,1.13.82,1.55,2.1,1.78l1.93.34c1.7.29,2.77.9,2.77,2.62,0,2-1.76,3.07-4,3.07s-4-1-4-3.07Z"/><path d="M265.91,590.53h-2.1v-.82h2.1v-3.1h1v3.1h2.92v.82h-2.92v6.53c0,1.51.59,2,1.85,2h1.07V600h-1.2c-1.8,0-2.73-.84-2.73-2.86Z"/><path d="M272,589.71H273v1.89H273a3,3,0,0,1,2.84-2.1,2.73,2.73,0,0,1,1.45.4l-.34.9a2.55,2.55,0,0,0-1.3-.33c-1.7,0-2.65,1.8-2.65,3.84V600h-1Z"/><path d="M279,584.59h1.09v1.93H279Zm0,5.12h1V600h-1Z"/><path d="M285.93,594.44l2.43-.4c1-.15,1.41-.34,1.41-.93a2.5,2.5,0,0,0-2.71-2.77,2.66,2.66,0,0,0-2.92,2.56h-1a3.53,3.53,0,0,1,3.88-3.4,3.36,3.36,0,0,1,3.72,3.7V600h-.95v-2h-.06a3.79,3.79,0,0,1-3.7,2.16c-2.1,0-3.27-1.11-3.27-2.77S283.81,594.79,285.93,594.44Zm3.84-.21a2,2,0,0,1-1.28.56l-2.37.38c-1.58.25-2.31,1-2.31,2.14s.84,2,2.41,2a3.38,3.38,0,0,0,3.55-3.74Z"/><path d="M294.07,584.59h1V600h-1Z"/><path d="M302.26,589.5c2.46,0,4.29,1.81,4.29,4.87v.45h-7.81v0c0,2.64,1.36,4.45,3.61,4.45a3,3,0,0,0,3.11-2.44h1a3.93,3.93,0,0,1-4.09,3.32c-3,0-4.66-2.12-4.66-5.33S299.68,589.5,302.26,589.5ZM298.78,594h6.74c-.11-2.4-1.43-3.65-3.26-3.65S299.05,591.81,298.78,594Z"/><path class="cls-2" d="M434.58,517.76a4,4,0,0,1,4.16,3.52h-1a3.09,3.09,0,0,0-3.15-2.64c-2,0-3.56,1.8-3.56,4.45s1.49,4.45,3.56,4.45a3.09,3.09,0,0,0,3.15-2.64h1a4,4,0,0,1-4.16,3.52c-2.79,0-4.61-2.12-4.61-5.33S432,517.76,434.58,517.76Z"/><path class="cls-2" d="M445.4,517.76c2.81,0,4.7,2.12,4.7,5.33s-2.06,5.33-4.7,5.33c-2.81,0-4.7-2.12-4.7-5.33S442.75,517.76,445.4,517.76Zm0,9.78c2.06,0,3.65-1.8,3.65-4.45s-1.53-4.45-3.65-4.45-3.65,1.8-3.65,4.45S443.26,527.54,445.4,527.54Z"/><path class="cls-2" d="M452.73,518h.94v2h.07a3.55,3.55,0,0,1,3.4-2.2,3.13,3.13,0,0,1,3.25,2.45,3.65,3.65,0,0,1,3.59-2.45c1.89,0,3.45,1.13,3.45,4v6.42h-1v-6.3c0-2.35-1.05-3.27-2.63-3.27s-3.21,1.38-3.21,4.2v5.37h-1v-6.3c0-2.35-1.09-3.27-2.62-3.27s-3.21,1.38-3.21,4.2v5.37h-1Z"/><path class="cls-2" d="M470.73,512.84h1V516c0,.34,0,3.53-.06,4.18h0a3.91,3.91,0,0,1,3.78-2.41c2.52,0,4.43,2,4.43,5.25s-2,5.41-4.49,5.41a3.81,3.81,0,0,1-3.72-2.41h0l0,2.2h-1Zm4.57,14.7c2,0,3.57-1.78,3.57-4.53s-1.57-4.37-3.57-4.37-3.5,1.59-3.57,4.24v.21C471.73,525.86,473.29,527.54,475.3,527.54Z"/><path class="cls-2" d="M482.36,518h1v6.21c0,2.44,1.15,3.36,2.79,3.36,1.83,0,3.3-1.45,3.3-4.2V518h1v10.24h-1v-2h0a3.61,3.61,0,0,1-3.49,2.2c-2,0-3.61-1.13-3.61-4.11Z"/><path class="cls-2" d="M493.91,525.36c0,1.61,1.49,2.26,3,2.26,1.77,0,3-.73,3-2.18,0-1.15-.68-1.62-2.06-1.85l-1.93-.33c-1.43-.25-2.8-.78-2.8-2.56s1.66-2.94,3.8-2.94c2,0,3.76.88,3.76,2.94h-.94c0-1.47-1.3-2.15-2.82-2.15s-2.81.74-2.81,2.06c0,1.14.82,1.56,2.1,1.79l1.93.33c1.7.3,2.77.91,2.77,2.63,0,2-1.76,3.06-4,3.06s-4-1-4-3.06Z"/><path class="cls-2" d="M503.88,518.79h-2.09V518h2.09v-3.11h1V518h2.92v.82h-2.92v6.53c0,1.51.59,2,1.85,2h1.07v.86h-1.2c-1.8,0-2.73-.84-2.73-2.85Z"/><path class="cls-2" d="M509.93,512.84H511v1.94h-1.09Zm0,5.13h1v10.24h-1Z"/><path class="cls-2" d="M518.31,517.76c2.81,0,4.7,2.12,4.7,5.33s-2,5.33-4.7,5.33c-2.81,0-4.7-2.12-4.7-5.33S515.67,517.76,518.31,517.76Zm0,9.78c2.06,0,3.65-1.8,3.65-4.45s-1.53-4.45-3.65-4.45-3.65,1.8-3.65,4.45S516.17,527.54,518.31,527.54Z"/><path class="cls-2" d="M525.64,518h.94v2h.07a3.6,3.6,0,0,1,3.53-2.2c2,0,3.65,1.13,3.65,4.11v6.34h-1V522c0-2.44-1.15-3.36-2.81-3.36-1.83,0-3.36,1.38-3.36,4.18v5.39h-1Z"/><path class="cls-2" d="M540.91,517.76c2.45,0,4.28,1.8,4.28,4.87v.44h-7.81v0c0,2.65,1.37,4.45,3.61,4.45a2.94,2.94,0,0,0,3.11-2.43h1a3.92,3.92,0,0,1-4.09,3.31c-3,0-4.66-2.12-4.66-5.33S538.33,517.76,540.91,517.76Zm-3.49,4.53h6.74c-.1-2.39-1.43-3.65-3.25-3.65S537.69,520.07,537.42,522.29Z"/><path class="cls-2" d="M430.72,538h1.09V540h-1.09Zm0,5.13h1v10.24h-1Z"/><path class="cls-2" d="M435.19,543.17h.95v2h.06a3.61,3.61,0,0,1,3.53-2.2c2,0,3.65,1.13,3.65,4.11v6.34h-1V547.2c0-2.44-1.16-3.36-2.82-3.36-1.82,0-3.36,1.38-3.36,4.18v5.39h-1Z"/><path class="cls-2" d="M450.4,543a3.77,3.77,0,0,1,3.67,2.41h.07c-.05-.67-.07-3.61-.07-4V538h1v15.37h-.94v-2.22h-.07a3.89,3.89,0,0,1-3.76,2.43c-2.52,0-4.43-2-4.43-5.25S447.88,543,450.4,543Zm.08,9.78c2,0,3.51-1.59,3.59-4.24v-.42c-.08-2.65-1.61-4.24-3.57-4.24s-3.57,1.78-3.57,4.53S448.51,552.74,450.48,552.74Z"/><path class="cls-2" d="M458.34,543.17h1v6.21c0,2.44,1.16,3.36,2.8,3.36,1.82,0,3.29-1.45,3.29-4.2v-5.37h1v10.24h-1v-2h0a3.6,3.6,0,0,1-3.48,2.2c-2,0-3.61-1.13-3.61-4.11Z"/><path class="cls-2" d="M469.89,550.56c0,1.61,1.49,2.26,3,2.26,1.76,0,3-.73,3-2.18,0-1.15-.67-1.62-2.05-1.85l-1.94-.33c-1.42-.25-2.79-.78-2.79-2.56S470.81,543,473,543c2,0,3.76.88,3.76,2.94h-.94c0-1.47-1.31-2.15-2.82-2.15s-2.81.74-2.81,2.06c0,1.14.82,1.56,2.1,1.79l1.93.33c1.7.3,2.77.91,2.77,2.63,0,2-1.76,3.06-4,3.06s-4-1-4-3.06Z"/><path class="cls-2" d="M479.86,544h-2.1v-.82h2.1v-3.11h1v3.11h2.92V544h-2.92v6.53c0,1.51.59,2,1.85,2h1.07v.86h-1.2c-1.8,0-2.73-.84-2.73-2.85Z"/><path class="cls-2" d="M486,543.17h.95v1.89H487a3,3,0,0,1,2.83-2.1,2.6,2.6,0,0,1,1.45.4l-.33.9a2.62,2.62,0,0,0-1.3-.34c-1.7,0-2.65,1.81-2.65,3.84v5.65h-1Z"/><path class="cls-2" d="M492.94,538H494V540h-1.1Zm.05,5.13h1v10.24h-1Z"/><path class="cls-2" d="M499.87,547.89l2.44-.4c1-.15,1.41-.33,1.41-.92A2.5,2.5,0,0,0,501,543.8a2.65,2.65,0,0,0-2.92,2.56h-1A3.55,3.55,0,0,1,501,543a3.35,3.35,0,0,1,3.71,3.69v6.76h-.94v-1.95h-.06a3.79,3.79,0,0,1-3.7,2.16c-2.1,0-3.27-1.11-3.27-2.77S497.75,548.25,499.87,547.89Zm3.85-.21a2,2,0,0,1-1.28.57l-2.38.38c-1.57.25-2.31,1-2.31,2.14s.84,2,2.42,2a3.37,3.37,0,0,0,3.55-3.73Z"/><path class="cls-2" d="M508,538h1v15.37h-1Z"/><path class="cls-2" d="M516.21,543c2.46,0,4.29,1.8,4.29,4.87v.44h-7.82v0c0,2.65,1.37,4.45,3.62,4.45a2.93,2.93,0,0,0,3.1-2.43h1a3.92,3.92,0,0,1-4.09,3.31c-3,0-4.67-2.12-4.67-5.33S513.63,543,516.21,543Zm-3.48,4.53h6.74c-.11-2.39-1.43-3.65-3.26-3.65S513,545.27,512.73,547.49Z"/><path class="cls-2" d="M407.73,485.36c0,1.61,1.49,2.26,3,2.26,1.76,0,3-.73,3-2.18,0-1.15-.67-1.62-2-1.85l-1.94-.33c-1.42-.25-2.79-.78-2.79-2.56s1.66-2.94,3.8-2.94c2,0,3.76.88,3.76,2.94h-.94c0-1.47-1.31-2.15-2.82-2.15s-2.81.74-2.81,2.06c0,1.14.82,1.56,2.1,1.79l1.93.33c1.7.3,2.77.91,2.77,2.63,0,2-1.76,3.06-4,3.06s-4-1-4-3.06Z"/><path class="cls-2" d="M421.44,477.76c2.81,0,4.7,2.12,4.7,5.33s-2.06,5.33-4.7,5.33c-2.82,0-4.7-2.12-4.7-5.33S418.79,477.76,421.44,477.76Zm0,9.78c2.06,0,3.65-1.8,3.65-4.45s-1.53-4.45-3.65-4.45-3.65,1.8-3.65,4.45S419.3,487.54,421.44,487.54Z"/><path class="cls-2" d="M428.77,472.84h1v15.37h-1Z"/><path class="cls-2" d="M431.69,478h1.07l3.42,9.15h0l3.42-9.15h1l-3.92,10.24h-1.1Z"/><path class="cls-2" d="M446.18,477.76c2.45,0,4.28,1.8,4.28,4.87v.44h-7.81v0c0,2.65,1.36,4.45,3.61,4.45a2.94,2.94,0,0,0,3.11-2.43h1a3.92,3.92,0,0,1-4.09,3.31c-3,0-4.66-2.12-4.66-5.33S443.59,477.76,446.18,477.76Zm-3.49,4.53h6.74c-.1-2.39-1.43-3.65-3.25-3.65S443,480.07,442.69,482.29Z"/><path class="cls-2" d="M453.09,478H454v2h.06a3.61,3.61,0,0,1,3.53-2.2c2,0,3.65,1.13,3.65,4.11v6.34h-1V482c0-2.44-1.16-3.36-2.82-3.36-1.82,0-3.36,1.38-3.36,4.18v5.39h-1Z"/><path class="cls-2" d="M464.74,478.79h-2.1V478h2.1v-3.11h1V478h2.92v.82h-2.92v6.53c0,1.51.59,2,1.85,2h1.07v.86h-1.2c-1.8,0-2.73-.84-2.73-2.85Z"/><path class="cls-2" d="M470.79,472.84h1.09v1.94h-1.09Zm0,5.13h1v10.24h-1Z"/><path class="cls-1" d="M101,116.9h11V118h-9.75v7.27h7.85v1.07h-7.85v7.78H101Z"/><path class="cls-1" d="M121.45,116.65c4.7,0,8.1,3.78,8.1,8.85s-3.4,8.85-8.1,8.85-8.1-3.8-8.1-8.85S116.65,116.65,121.45,116.65Zm0,16.55c4,0,6.8-3.3,6.8-7.7s-2.8-7.7-6.8-7.7-6.8,3.3-6.8,7.7S117.4,133.2,121.45,133.2Z"/><path class="cls-1" d="M133.15,116.9h1.2L145,132H145L145,116.9h1.25v17.2H145l-10.6-15h-.05l.05,15h-1.25Z"/><path class="cls-1" d="M148.75,116.9H162.6v1h-6.3V134.1h-1.25V118h-6.3Z"/><path class="cls-1" d="M165.15,116.9h1.25v17.2h-1.25Z"/><path class="cls-1" d="M176.85,129.4c0,2.52,2,3.9,5.05,3.9s4.95-1.48,4.95-3.85c0-5.67-11-1.5-11-8.15,0-2.67,2.38-4.65,6-4.65s5.92,1.6,5.92,4.6H186.5c0-2.35-2-3.55-4.7-3.55s-4.7,1.38-4.7,3.5c0,5.5,11.05,1.28,11.05,8.2,0,2.95-2.28,4.95-6.25,4.95s-6.27-1.75-6.27-4.95Z"/><path class="cls-1" d="M192.1,116.9h11.2V118h-10v6.8h8.05v1.07h-8.05V133H203.5v1.08H192.1Z"/><path class="cls-1" d="M213.35,116.65a6.9,6.9,0,0,1,7.15,5.45h-1.28a5.66,5.66,0,0,0-5.87-4.3c-4.1,0-6.75,3.4-6.75,7.7s2.65,7.7,6.7,7.7a5.68,5.68,0,0,0,5.92-4.3h1.28a7,7,0,0,1-7.2,5.45c-4.8,0-8-3.9-8-8.85S208.5,116.65,213.35,116.65Z"/><path class="cls-1" d="M231.1,116.65c4.7,0,8.1,3.78,8.1,8.85s-3.4,8.85-8.1,8.85-8.1-3.8-8.1-8.85S226.3,116.65,231.1,116.65Zm0,16.55c4,0,6.8-3.3,6.8-7.7s-2.8-7.7-6.8-7.7-6.8,3.3-6.8,7.7S227.05,133.2,231.1,133.2Z"/><path class="cls-1" d="M242.8,116.9H244L254.6,132h.05l-.05-15.1h1.25v17.2h-1.2l-10.6-15H244l.05,15H242.8Z"/><path class="cls-1" d="M260.55,116.9h4.55c6,0,9,3.6,9,8.6s-3,8.6-9,8.6h-4.55ZM261.8,118v15h3.3c5.4,0,7.75-3.32,7.75-7.52S270.5,118,265.1,118Z"/><path class="cls-1" d="M282.17,116.9h1.45l6.55,17.2h-1.3l-2-5.38h-8l-2,5.38h-1.25Zm.68,1.3-3.55,9.45h7.15l-3.55-9.45Z"/><path class="cls-1" d="M293,116.9h6.4c3.63,0,5.55,1.8,5.55,4.8a4.74,4.74,0,0,1-4.37,5l4.77,7.43H304l-4.77-7.35h-5v7.35H293Zm1.25,1.08v7.7h5.2c2.78,0,4.25-1.68,4.25-4S302.2,118,299.42,118Z"/><path class="cls-1" d="M308.92,116.9h1.25v17.2h-1.25Z"/><path class="cls-1" d="M314.87,116.9h11.2V118h-9.95v6.8h8.05v1.07h-8.05V133h10.15v1.08h-11.4Z"/><path class="cls-1" d="M101,383.12h11v1.08h-9.75v7.27h7.85v1.07h-7.85v7.78H101Z"/><path class="cls-1" d="M121.45,382.87c4.7,0,8.1,3.77,8.1,8.85s-3.4,8.85-8.1,8.85-8.1-3.8-8.1-8.85S116.65,382.87,121.45,382.87Zm0,16.55c4,0,6.8-3.3,6.8-7.7s-2.8-7.7-6.8-7.7-6.8,3.3-6.8,7.7S117.4,399.42,121.45,399.42Z"/><path class="cls-1" d="M133.15,383.12h1.2l10.6,15.1H145l-.05-15.1h1.25v17.2H145l-10.6-15.05h-.05l.05,15.05h-1.25Z"/><path class="cls-1" d="M148.75,383.12H162.6v1.05h-6.3v16.15h-1.25V384.17h-6.3Z"/><path class="cls-1" d="M165.15,383.12h1.25v17.2h-1.25Z"/><path class="cls-1" d="M176.4,383.12h6.25c3.62,0,5.65,2.2,5.65,5.3s-2,5.4-5.65,5.4h-5v6.5H176.4Zm1.25,1.08v8.54h5a4,4,0,0,0,4.35-4.32,4,4,0,0,0-4.35-4.22Z"/><path class="cls-1" d="M191.8,383.12h6.4c3.62,0,5.55,1.8,5.55,4.8a4.74,4.74,0,0,1-4.38,5l4.78,7.43H202.8L198,393h-5v7.35H191.8Zm1.25,1.08v7.69h5.2c2.77,0,4.25-1.67,4.25-4s-1.48-3.72-4.25-3.72Z"/><path class="cls-1" d="M207.75,383.12H209v17.2h-1.25Z"/><path class="cls-1" d="M213.7,383.12h1.5l7,15.52h.05l7-15.52h1.5v17.2H229.5l.09-15.17h-.05l-6.84,15.17h-1l-6.82-15h-.05l.1,15H213.7Z"/><path class="cls-1" d="M240.1,383.12h1.45l6.55,17.2h-1.3l-2-5.38h-8l-2,5.38h-1.25Zm.67,1.3-3.55,9.45h7.15l-3.55-9.45Z"/><path class="cls-1" d="M250.9,383.12h6.4c3.62,0,5.55,1.8,5.55,4.8a4.74,4.74,0,0,1-4.38,5l4.78,7.43H261.9L257.12,393h-5v7.35H250.9Zm1.25,1.08v7.69h5.2c2.77,0,4.25-1.67,4.25-4s-1.48-3.72-4.25-3.72Z"/><path class="cls-1" d="M266.85,383.12h1.25v17.2h-1.25Z"/><path class="cls-1" d="M272.8,383.12H284v1.08h-9.95V391h8.05v1.08h-8.05v7.17H284.2v1.08H272.8Z"/></g></svg>