<svg xmlns="http://www.w3.org/2000/svg" viewBox="0 0 720 900"><defs><style>.cls-1{fill:#fe5000;}.cls-2{fill:#d3d3d3;}</style></defs><g id="Livello_2" data-name="Livello 2"><path class="cls-1" d="M271.5,574.89a3.29,3.29,0,0,0,3.51,3.66c2.07,0,3.51-1.14,3.51-3.27A3.25,3.25,0,0,0,275,572h-1.62V569H275a3,3,0,0,0,3.06-3,2.83,2.83,0,0,0-3.06-2.85,2.9,2.9,0,0,0-3.06,3.18h-3.51c0-3.93,2.85-6.12,6.57-6.12,3.93,0,6.75,2.19,6.75,5.61a5.12,5.12,0,0,1-3,4.59v.12a5.16,5.16,0,0,1,3.66,5.1c0,3.81-3.18,5.94-7.41,5.94s-7.29-2-7.29-6.6Z"/><path class="cls-1" d="M295.44,582.93c.06,1.41,1.41,2.34,3.39,2.34,2.61,0,4.08-1.38,4.08-4.92V579h-.12c-.84,1.62-2.55,2.46-4.8,2.46-3.66,0-6.6-2.64-6.6-7.56s3.06-7.8,6.84-7.8a4.73,4.73,0,0,1,4.56,2.46h.12v-2.1h3.69v13.86c0,5.49-3.09,7.62-7.77,7.62-4.11,0-6.9-1.62-7-5Zm3.6-4.38c2.16,0,3.69-1.8,3.69-4.74v-.21c-.09-2.82-1.59-4.53-3.69-4.53s-3.66,1.92-3.66,4.86S296.85,578.55,299,578.55Z"/><path class="cls-1" d="M310.68,559.17h4.11v3.6h-4.11Zm.12,7.32h3.87v14.64H310.8Z"/><path class="cls-1" d="M325.68,566.13c4.65,0,7.74,2.82,7.74,7.68s-3.27,7.68-7.74,7.68c-4.68,0-7.77-2.82-7.77-7.68S321.18,566.13,325.68,566.13Zm0,12.42c2.28,0,3.75-1.83,3.75-4.74s-1.47-4.71-3.75-4.71-3.78,1.8-3.78,4.71S323.4,578.55,325.68,578.55Z"/><path class="cls-1" d="M336.66,566.49h3.69v2.22h.06a4.11,4.11,0,0,1,3.9-2.58,3.42,3.42,0,0,1,2,.6l-.78,3.33a4,4,0,0,0-1.8-.48c-2.19,0-3.24,2-3.24,4.56v7h-3.87Z"/><path class="cls-1" d="M348.51,566.49h3.69v2.1h.12a4.76,4.76,0,0,1,4.5-2.46c3,0,5.64,1.56,5.64,6.12v8.88h-3.87v-8.4c0-2.7-1.14-3.6-2.85-3.6-1.92,0-3.36,1.59-3.36,4.29v7.71h-3.87Z"/><path class="cls-1" d="M366.36,559.17h4.11v3.6h-4.11Zm.12,7.32h3.87v14.64h-3.87Z"/><path class="cls-1" d="M383.7,576.93c0,1.5,1.56,2,3.06,2,2,0,3.09-.66,3.09-1.83s-.75-1.41-2.16-1.65L385,575c-2.52-.39-4.56-1.38-4.56-4.14,0-3.09,2.76-4.77,6.45-4.77s6.39,1.44,6.39,4.44h-3.57c0-1.35-1.29-1.89-2.85-1.89s-2.7.63-2.7,1.71.6,1.38,2.31,1.65l2.64.42c2.37.39,4.56,1.32,4.56,4.14,0,3.3-2.88,4.89-6.93,4.89-3.9,0-6.69-1.44-6.69-4.56Z"/><path class="cls-1" d="M396.72,566.49h3.87v8.4c0,2.7,1.14,3.6,2.85,3.6,1.89,0,3.3-1.56,3.3-4.26v-7.74h3.84v14.64h-3.66V579h-.12a4.67,4.67,0,0,1-4.44,2.46c-3,0-5.64-1.56-5.64-6.12Z"/><path class="cls-1" d="M420.9,565.23l6.93-4.74h2.52V578H435v3.12H421.56V578h4.95V565.23l-4,2.73Z"/><path class="cls-1" d="M437.34,570.81c0-6,2.13-10.68,7.53-10.68s7.53,4.68,7.53,10.68-2.13,10.68-7.53,10.68S437.34,576.81,437.34,570.81Zm11.1,0c0-5-1.14-7.5-3.57-7.5s-3.57,2.52-3.57,7.5,1.14,7.5,3.57,7.5S448.44,575.79,448.44,570.81Z"/><path class="cls-1" d="M127.14,613.05c0,2.31,2.13,3.24,4.32,3.24,2.52,0,4.32-1,4.32-3.12,0-1.65-1-2.31-2.94-2.64l-2.76-.48c-2-.36-4-1.11-4-3.66s2.37-4.2,5.43-4.2c2.82,0,5.37,1.26,5.37,4.2h-1.35c0-2.1-1.86-3.06-4-3.06s-4,1-4,2.94c0,1.62,1.17,2.22,3,2.55l2.76.48c2.43.42,4,1.29,4,3.75,0,2.91-2.52,4.38-5.76,4.38s-5.67-1.38-5.67-4.38Z"/><path class="cls-1" d="M146.88,602.19c4,0,6.72,3,6.72,7.62s-2.94,7.62-6.72,7.62c-4,0-6.72-3-6.72-7.62S143.1,602.19,146.88,602.19Zm0,14c2.94,0,5.22-2.58,5.22-6.36s-2.19-6.36-5.22-6.36-5.22,2.58-5.22,6.36S143.82,616.17,146.88,616.17Z"/><path class="cls-1" d="M157.5,602.49h1.35v2.85h.09a5.15,5.15,0,0,1,5-3.15c2.91,0,5.22,1.62,5.22,5.88v9.06h-1.44v-8.88c0-3.48-1.65-4.8-4-4.8-2.61,0-4.8,2-4.8,6v7.71H157.5Z"/><path class="cls-1" d="M179.64,602.19c4,0,6.72,3,6.72,7.62s-2.94,7.62-6.72,7.62c-4,0-6.72-3-6.72-7.62S175.86,602.19,179.64,602.19Zm0,14c2.94,0,5.22-2.58,5.22-6.36s-2.19-6.36-5.22-6.36-5.22,2.58-5.22,6.36S176.58,616.17,179.64,616.17Z"/><path class="cls-1" d="M197.22,603.66h-3.06v-1.17h3.06v-2.76c0-3.12,1.56-4.56,4.38-4.56H203v1.23h-1.26c-2.1,0-3.06,1.05-3.06,3.39v2.7h3.84v1.17h-3.84v13.47h-1.44Z"/><path class="cls-1" d="M208.17,609.24l3.48-.57c1.41-.21,2-.48,2-1.32-.06-2.64-1.47-4-3.87-4s-4,1.29-4.17,3.66h-1.38c.18-3,2.34-4.86,5.55-4.86,3.36,0,5.31,1.86,5.31,5.28v9.66h-1.35v-2.79h-.09a5.41,5.41,0,0,1-5.28,3.09c-3,0-4.68-1.59-4.68-4S205.14,609.75,208.17,609.24Zm5.49-.3a2.82,2.82,0,0,1-1.83.81l-3.39.54c-2.25.36-3.3,1.38-3.3,3.06s1.2,2.88,3.45,2.88c2.61,0,5.07-1.53,5.07-5.34Z"/><path class="cls-1" d="M217.47,602.49H219l4.89,13.08H224l4.89-13.08h1.44l-5.61,14.64h-1.56Z"/><path class="cls-1" d="M238.5,602.19c4,0,6.72,3,6.72,7.62s-2.94,7.62-6.72,7.62c-4,0-6.72-3-6.72-7.62S234.72,602.19,238.5,602.19Zm0,14c2.94,0,5.22-2.58,5.22-6.36s-2.19-6.36-5.22-6.36-5.22,2.58-5.22,6.36S235.44,616.17,238.5,616.17Z"/><path class="cls-1" d="M249.12,602.49h1.35v2.7h.09a4.32,4.32,0,0,1,4.05-3,3.81,3.81,0,0,1,2.07.57l-.48,1.29a3.65,3.65,0,0,0-1.86-.48c-2.43,0-3.78,2.58-3.78,5.49v8.07h-1.44Z"/><path class="cls-1" d="M264.18,602.19c3.51,0,6.12,2.58,6.12,7v.63H259.14v0c0,3.78,1.95,6.36,5.16,6.36a4.19,4.19,0,0,0,4.44-3.48h1.41a5.61,5.61,0,0,1-5.85,4.74c-4.23,0-6.66-3-6.66-7.62S260.49,602.19,264.18,602.19Zm-5,6.48h9.63c-.15-3.42-2-5.22-4.65-5.22S259.59,605.49,259.2,608.67Z"/><path class="cls-1" d="M272.07,602.49h1.53l4.89,13.08h.06l4.89-13.08h1.44l-5.61,14.64h-1.56Z"/><path class="cls-1" d="M293.1,602.19c4,0,6.72,3,6.72,7.62s-2.94,7.62-6.72,7.62c-4,0-6.72-3-6.72-7.62S289.32,602.19,293.1,602.19Zm0,14c2.94,0,5.22-2.58,5.22-6.36s-2.19-6.36-5.22-6.36-5.22,2.58-5.22,6.36S290,616.17,293.1,616.17Z"/><path class="cls-1" d="M303.72,595.17h1.44v22h-1.44Z"/><path class="cls-1" d="M310.11,595.17h1.56v2.76h-1.56Zm.06,7.32h1.44v14.64h-1.44Z"/><path class="cls-1" d="M326.52,609.24l3.48-.57c1.41-.21,2-.48,2-1.32-.06-2.64-1.47-4-3.87-4s-4,1.29-4.17,3.66h-1.38c.18-3,2.34-4.86,5.55-4.86,3.36,0,5.31,1.86,5.31,5.28v9.66H332.1v-2.79H332a5.41,5.41,0,0,1-5.28,3.09c-3,0-4.68-1.59-4.68-4S323.49,609.75,326.52,609.24Zm5.49-.3a2.82,2.82,0,0,1-1.83.81l-3.39.54c-2.25.36-3.3,1.38-3.3,3.06s1.2,2.88,3.45,2.88c2.61,0,5.07-1.53,5.07-5.34Z"/><path class="cls-1" d="M338.31,595.17h1.44v22h-1.44Z"/><path class="cls-1" d="M344.76,595.17h1.44v22h-1.44Z"/><path class="cls-1" d="M351.69,599.61H351v-3.12h1.65v3l-1.08,4.56h-.81Z"/><path class="cls-1" d="M359.4,609.24l3.48-.57c1.41-.21,2-.48,2-1.32-.06-2.64-1.47-4-3.87-4s-4,1.29-4.17,3.66h-1.38c.18-3,2.34-4.86,5.55-4.86,3.36,0,5.31,1.86,5.31,5.28v9.66H365v-2.79h-.09a5.41,5.41,0,0,1-5.28,3.09c-3,0-4.68-1.59-4.68-4S356.37,609.75,359.4,609.24Zm5.49-.3a2.82,2.82,0,0,1-1.83.81l-3.39.54c-2.25.36-3.3,1.38-3.3,3.06s1.2,2.88,3.45,2.88c2.61,0,5.07-1.53,5.07-5.34Z"/><path class="cls-1" d="M376.65,602.19a5.77,5.77,0,0,1,5.94,5h-1.44a4.42,4.42,0,0,0-4.5-3.78c-2.85,0-5.1,2.58-5.1,6.36s2.13,6.36,5.1,6.36a4.42,4.42,0,0,0,4.5-3.78h1.44a5.77,5.77,0,0,1-5.94,5c-4,0-6.6-3-6.6-7.62S373,602.19,376.65,602.19Z"/><path class="cls-1" d="M392.13,602.19a5.77,5.77,0,0,1,5.94,5h-1.44a4.42,4.42,0,0,0-4.5-3.78c-2.85,0-5.1,2.58-5.1,6.36s2.13,6.36,5.1,6.36a4.42,4.42,0,0,0,4.5-3.78h1.44a5.77,5.77,0,0,1-5.94,5c-4,0-6.6-3-6.6-7.62S388.44,602.19,392.13,602.19Z"/><path class="cls-1" d="M401.61,602.49h1.44v8.88c0,3.48,1.65,4.8,4,4.8,2.61,0,4.71-2.07,4.71-6v-7.68h1.44v14.64h-1.38v-2.85h-.06a5.15,5.15,0,0,1-5,3.15c-2.85,0-5.16-1.62-5.16-5.88Z"/><path class="cls-1" d="M418.2,602.49h1.35v2.85h.09a5.08,5.08,0,0,1,4.86-3.15,4.49,4.49,0,0,1,4.65,3.51,5.21,5.21,0,0,1,5.13-3.51c2.7,0,4.92,1.62,4.92,5.76v9.18h-1.44v-9c0-3.36-1.5-4.68-3.75-4.68s-4.59,2-4.59,6v7.68H428v-9c0-3.36-1.56-4.68-3.75-4.68-2.4,0-4.59,2-4.59,6v7.68H418.2Z"/><path class="cls-1" d="M443.82,602.49h1.44v8.88c0,3.48,1.65,4.8,4,4.8,2.61,0,4.71-2.07,4.71-6v-7.68h1.44v14.64H454v-2.85H454a5.15,5.15,0,0,1-5,3.15c-2.85,0-5.16-1.62-5.16-5.88Z"/><path class="cls-1" d="M460.41,595.17h1.44v22h-1.44Z"/><path class="cls-1" d="M472.44,602.19c4,0,6.72,3,6.72,7.62s-2.94,7.62-6.72,7.62c-4,0-6.72-3-6.72-7.62S468.66,602.19,472.44,602.19Zm0,14c2.94,0,5.22-2.58,5.22-6.36s-2.19-6.36-5.22-6.36-5.22,2.58-5.22,6.36S469.38,616.17,472.44,616.17Z"/><path class="cls-1" d="M494.73,602.19a5.39,5.39,0,0,1,5.25,3.45h.09c-.06-1-.09-5.16-.09-5.67v-4.8h1.44v22h-1.35V614H500a5.55,5.55,0,0,1-5.37,3.48c-3.6,0-6.33-2.85-6.33-7.5S491.13,602.19,494.73,602.19Zm.12,14c2.82,0,5-2.28,5.13-6.06v-.6c-.12-3.78-2.31-6.06-5.1-6.06s-5.1,2.55-5.1,6.48S492,616.17,494.85,616.17Z"/><path class="cls-1" d="M506.4,595.17H508v2.76H506.4Zm.06,7.32h1.44v14.64h-1.44Z"/><path class="cls-1" d="M519.6,596.49h7.5c4.35,0,6.78,2.64,6.78,6.36s-2.43,6.48-6.78,6.48h-6v7.8h-1.5Zm1.5,1.29V608h6.06a4.86,4.86,0,0,0,5.22-5.19c0-2.94-1.8-5.07-5.22-5.07Z"/><path class="cls-1" d="M538.08,596.49h1.8l8.43,18.63h.06l8.37-18.63h1.8v20.64H557l.12-18.21h-.06l-8.22,18.21h-1.17l-8.19-18h-.06l.12,18h-1.5Z"/><path class="cls-1" d="M563.52,601.08l6.6-4.59h1.08V615.9h5.58v1.23h-12.9V615.9h5.88V598.26l-5.61,3.9Z"/><path class="cls-1" d="M579.9,606.81c0-6,2.1-10.62,7-10.62s7,4.62,7,10.62-2.1,10.62-7,10.62S579.9,612.81,579.9,606.81Zm12.54,0c0-5.52-1.74-9.3-5.52-9.3s-5.52,3.78-5.52,9.3,1.74,9.3,5.52,9.3S592.44,612.33,592.44,606.81Z"/><circle class="cls-1" cx="91.22" cy="303.82" r="63.72"/><circle class="cls-1" cx="225.36" cy="303.82" r="63.72"/><circle class="cls-1" cx="359.5" cy="303.82" r="63.72"/><circle class="cls-2" cx="493.64" cy="303.82" r="63.72"/><circle class="cls-2" cx="627.78" cy="303.82" r="63.72"/><circle class="cls-2" cx="91.22" cy="437.96" r="63.72"/><circle class="cls-2" cx="225.36" cy="437.96" r="63.72"/><circle class="cls-2" cx="359.5" cy="437.96" r="63.72"/><circle class="cls-2" cx="493.64" cy="437.96" r="63.72"/><circle class="cls-2" cx="627.78" cy="437.96" r="63.72"/></g></svg>