<svg xmlns="http://www.w3.org/2000/svg" viewBox="0 0 720 900"><defs><style>.cls-1{fill:#fe5000;}.cls-2{fill:#d3d3d3;}</style></defs><g id="Livello_2" data-name="Livello 2"><circle class="cls-1" cx="91.22" cy="303.82" r="63.72"/><circle class="cls-1" cx="225.36" cy="303.82" r="63.72"/><circle class="cls-1" cx="359.5" cy="303.82" r="63.72"/><circle class="cls-2" cx="493.64" cy="303.82" r="63.72"/><circle class="cls-2" cx="627.78" cy="303.82" r="63.72"/><circle class="cls-2" cx="91.22" cy="437.96" r="63.72"/><circle class="cls-2" cx="225.36" cy="437.96" r="63.72"/><circle class="cls-2" cx="359.5" cy="437.96" r="63.72"/><circle class="cls-2" cx="493.64" cy="437.96" r="63.72"/><circle class="cls-2" cx="627.78" cy="437.96" r="63.72"/><path class="cls-1" d="M287,583.1a8.6,8.6,0,0,1-3.54-.69,5.87,5.87,0,0,1-2.44-1.9,4.65,4.65,0,0,1-.92-2.8H284a2,2,0,0,0,.44,1.17,2.63,2.63,0,0,0,1.08.77,3.83,3.83,0,0,0,1.51.28,3.65,3.65,0,0,0,1.56-.31,2.57,2.57,0,0,0,1-.86,2.25,2.25,0,0,0,0-2.56,2.68,2.68,0,0,0-1.15-.89,4.6,4.6,0,0,0-1.78-.32h-1.7v-2.82h1.7a3.74,3.74,0,0,0,1.54-.3,2.49,2.49,0,0,0,1-.84,2.15,2.15,0,0,0,.37-1.26,2.2,2.2,0,0,0-.32-1.2,2.17,2.17,0,0,0-.91-.81,2.86,2.86,0,0,0-1.35-.3,3.68,3.68,0,0,0-1.43.28,2.62,2.62,0,0,0-1,.8,2.08,2.08,0,0,0-.42,1.21h-3.68a4.73,4.73,0,0,1,.9-2.77,5.8,5.8,0,0,1,2.35-1.88,7.94,7.94,0,0,1,3.34-.68,7.55,7.55,0,0,1,3.29.68,5.5,5.5,0,0,1,2.2,1.84,4.57,4.57,0,0,1,.78,2.6,3.57,3.57,0,0,1-.95,2.55,4.39,4.39,0,0,1-2.48,1.3v.14a4.82,4.82,0,0,1,3.06,1.39,3.92,3.92,0,0,1,1,2.82,4.46,4.46,0,0,1-.89,2.77,6.17,6.17,0,0,1-2.48,1.9A9,9,0,0,1,287,583.1Z"/><path class="cls-1" d="M308.72,588.25a8.9,8.9,0,0,1-3.15-.5,5.25,5.25,0,0,1-2.08-1.37,4.19,4.19,0,0,1-1-1.93L306,584a2.37,2.37,0,0,0,1.43,1.33,3.81,3.81,0,0,0,1.4.22,3.28,3.28,0,0,0,2-.6,2.33,2.33,0,0,0,.81-2v-2.49h-.16a3.86,3.86,0,0,1-.75,1.07,3.67,3.67,0,0,1-1.28.82,4.76,4.76,0,0,1-1.86.32,5.46,5.46,0,0,1-2.79-.71,5,5,0,0,1-2-2.19,8.3,8.3,0,0,1-.74-3.75,8.9,8.9,0,0,1,.75-3.87,5.43,5.43,0,0,1,2-2.32,5.13,5.13,0,0,1,2.76-.77,4.27,4.27,0,0,1,1.92.38,3.81,3.81,0,0,1,1.24,1,5.68,5.68,0,0,1,.74,1.12h.14v-2.29h3.75V583a4.8,4.8,0,0,1-.85,2.91,5.14,5.14,0,0,1-2.36,1.77A9.45,9.45,0,0,1,308.72,588.25Zm.08-8.44a2.63,2.63,0,0,0,1.55-.45,3,3,0,0,0,1-1.32,5.47,5.47,0,0,0,.34-2,5.9,5.9,0,0,0-.33-2.08,3.1,3.1,0,0,0-1-1.38,2.51,2.51,0,0,0-1.55-.48,2.42,2.42,0,0,0-1.57.5,3,3,0,0,0-1,1.39,5.84,5.84,0,0,0-.33,2,5.65,5.65,0,0,0,.33,2,2.87,2.87,0,0,0,1,1.33A2.58,2.58,0,0,0,308.8,579.81Z"/><path class="cls-1" d="M320.3,567.46a2,2,0,0,1-1.44-.57,1.82,1.82,0,0,1,0-2.7,2.13,2.13,0,0,1,2.88,0,1.82,1.82,0,0,1,0,2.7A2,2,0,0,1,320.3,567.46Zm-1.9,15.39V569.21h3.78v13.64Z"/><path class="cls-1" d="M331.36,583.12a6.9,6.9,0,0,1-3.57-.89,6,6,0,0,1-2.32-2.47,8.69,8.69,0,0,1,0-7.37,6,6,0,0,1,2.32-2.47,7.7,7.7,0,0,1,7.15,0,6,6,0,0,1,2.32,2.47,8.69,8.69,0,0,1,0,7.37,6,6,0,0,1-2.32,2.47A7,7,0,0,1,331.36,583.12Zm0-2.93a2.32,2.32,0,0,0,1.57-.54,3.37,3.37,0,0,0,1-1.47,7.18,7.18,0,0,0,0-4.24,3.35,3.35,0,0,0-1-1.48,2.32,2.32,0,0,0-1.57-.54,2.39,2.39,0,0,0-1.59.54,3.28,3.28,0,0,0-1,1.48,7.18,7.18,0,0,0,0,4.24,3.3,3.3,0,0,0,1,1.47A2.39,2.39,0,0,0,331.38,580.19Z"/><path class="cls-1" d="M340.54,582.85V569.21h3.67v2.38h.14a3.62,3.62,0,0,1,1.25-1.92,3.35,3.35,0,0,1,2-.65l.61,0c.22,0,.41.06.58.1v3.36a5.26,5.26,0,0,0-.74-.15,6.79,6.79,0,0,0-.86-.06,3,3,0,0,0-1.49.36,2.67,2.67,0,0,0-1,1,2.87,2.87,0,0,0-.37,1.47v7.72Z"/><path class="cls-1" d="M354.54,575v7.88h-3.78V569.21h3.61v2.41h.16a3.85,3.85,0,0,1,1.51-1.89,5.22,5.22,0,0,1,5.06-.07,4.16,4.16,0,0,1,1.65,1.77,6,6,0,0,1,.58,2.74v8.68h-3.78v-8a2.76,2.76,0,0,0-.64-2,2.3,2.3,0,0,0-1.78-.7,2.7,2.7,0,0,0-1.35.33,2.18,2.18,0,0,0-.9,1A3.33,3.33,0,0,0,354.54,575Z"/><path class="cls-1" d="M368.21,567.46a2,2,0,0,1-1.45-.57,1.82,1.82,0,0,1,0-2.7,2.14,2.14,0,0,1,2.89,0,1.82,1.82,0,0,1,0,2.7A2,2,0,0,1,368.21,567.46Zm-1.9,15.39V569.21h3.78v13.64Z"/><path class="cls-1" d="M390.25,573.1l-3.46.21a1.91,1.91,0,0,0-.38-.8,2.27,2.27,0,0,0-.77-.58,3.17,3.17,0,0,0-2.62.16,1.1,1.1,0,0,0-.6,1,1,1,0,0,0,.39.82,3,3,0,0,0,1.34.54l2.47.5a6.13,6.13,0,0,1,3,1.31,3.08,3.08,0,0,1,1,2.38,3.76,3.76,0,0,1-.78,2.36,5.15,5.15,0,0,1-2.15,1.57,8.1,8.1,0,0,1-3.14.57,7.29,7.29,0,0,1-4.31-1.14,4.34,4.34,0,0,1-1.88-3.08l3.72-.2a1.91,1.91,0,0,0,.82,1.26,2.9,2.9,0,0,0,1.66.43,2.94,2.94,0,0,0,1.6-.39,1.18,1.18,0,0,0,.62-1,1,1,0,0,0-.44-.85,3.18,3.18,0,0,0-1.31-.51l-2.36-.47a5.58,5.58,0,0,1-3-1.39,3.42,3.42,0,0,1-1-2.51,3.61,3.61,0,0,1,.72-2.26,4.51,4.51,0,0,1,2-1.47,8.37,8.37,0,0,1,3.05-.51,6.71,6.71,0,0,1,4.07,1.09A4.22,4.22,0,0,1,390.25,573.1Z"/><path class="cls-1" d="M401.69,577v-7.83h3.79v13.64h-3.64v-2.48h-.14a4.09,4.09,0,0,1-1.53,1.93,4.56,4.56,0,0,1-2.61.73,4.61,4.61,0,0,1-2.4-.62,4.34,4.34,0,0,1-1.62-1.77,6,6,0,0,1-.59-2.74v-8.69h3.78v8a2.76,2.76,0,0,0,.65,1.91,2.19,2.19,0,0,0,1.71.7,2.69,2.69,0,0,0,1.28-.31,2.41,2.41,0,0,0,1-.94A2.84,2.84,0,0,0,401.69,577Z"/><path class="cls-1" d="M422.17,564.67v18.18h-3.85V568.32h-.11l-4.16,2.61v-3.41l4.5-2.85Z"/><path class="cls-1" d="M433.62,583.25a6.89,6.89,0,0,1-3.94-1.13,7,7,0,0,1-2.53-3.24,15.21,15.21,0,0,1,0-10.17,7.18,7.18,0,0,1,10.39-3.19,7,7,0,0,1,2.53,3.19,12.82,12.82,0,0,1,.88,5.07,13.25,13.25,0,0,1-.88,5.11,7.11,7.11,0,0,1-2.53,3.24A6.78,6.78,0,0,1,433.62,583.25Zm0-3.19a2.8,2.8,0,0,0,2.49-1.57,9.46,9.46,0,0,0,.93-4.71,11.66,11.66,0,0,0-.43-3.45,4.45,4.45,0,0,0-1.19-2.07,2.6,2.6,0,0,0-1.8-.69,2.82,2.82,0,0,0-2.49,1.55,9.37,9.37,0,0,0-.94,4.66,12.33,12.33,0,0,0,.42,3.49,4.52,4.52,0,0,0,1.2,2.1A2.62,2.62,0,0,0,433.62,580.06Z"/><path class="cls-1" d="M157.57,602.27l-1.88.53a3.71,3.71,0,0,0-.52-.92,2.57,2.57,0,0,0-.93-.74,3.29,3.29,0,0,0-1.5-.29,3.59,3.59,0,0,0-2.08.57,1.72,1.72,0,0,0-.83,1.45,1.48,1.48,0,0,0,.57,1.23,4.61,4.61,0,0,0,1.77.76l2,.5a5.47,5.47,0,0,1,2.72,1.35,3.2,3.2,0,0,1,.9,2.34,3.48,3.48,0,0,1-.67,2.1,4.52,4.52,0,0,1-1.87,1.45,6.74,6.74,0,0,1-2.79.53,6.15,6.15,0,0,1-3.45-.9,4,4,0,0,1-1.73-2.65l2-.49a2.78,2.78,0,0,0,1.08,1.65,3.63,3.63,0,0,0,2.08.55,3.88,3.88,0,0,0,2.33-.63,1.81,1.81,0,0,0,.86-1.5,1.61,1.61,0,0,0-.49-1.2,3.21,3.21,0,0,0-1.53-.72l-2.27-.53a5.43,5.43,0,0,1-2.75-1.38,3.57,3.57,0,0,1-.22-4.39,4.32,4.32,0,0,1,1.78-1.4,6.2,6.2,0,0,1,2.57-.5,5.16,5.16,0,0,1,3.19.88A4.82,4.82,0,0,1,157.57,602.27Z"/><path class="cls-1" d="M166.52,613.13a5.76,5.76,0,0,1-5.4-3.33,9.21,9.21,0,0,1,0-7.42,6.17,6.17,0,0,1,8.64-2.47,5.92,5.92,0,0,1,2.16,2.47,9.21,9.21,0,0,1,0,7.42,5.76,5.76,0,0,1-5.4,3.33Zm0-1.88a3.58,3.58,0,0,0,2.31-.72,4.27,4.27,0,0,0,1.34-1.89,7.24,7.24,0,0,0,.43-2.54,7.34,7.34,0,0,0-.43-2.55,4.31,4.31,0,0,0-1.34-1.9,3.53,3.53,0,0,0-2.31-.73,3.57,3.57,0,0,0-2.31.73,4.31,4.31,0,0,0-1.34,1.9,7.34,7.34,0,0,0-.43,2.55,7.24,7.24,0,0,0,.43,2.54,4.27,4.27,0,0,0,1.34,1.89A3.62,3.62,0,0,0,166.52,611.25Z"/><path class="cls-1" d="M178,604.65v8.2H175.9V599.21h2v2.13h.18a3.91,3.91,0,0,1,1.45-1.67,4.57,4.57,0,0,1,2.52-.63,5,5,0,0,1,2.43.56,3.85,3.85,0,0,1,1.61,1.7,6.3,6.3,0,0,1,.58,2.89v8.66H184.6v-8.52a3.54,3.54,0,0,0-.84-2.51,3,3,0,0,0-2.29-.9,3.65,3.65,0,0,0-1.79.43,3.23,3.23,0,0,0-1.24,1.27A4.23,4.23,0,0,0,178,604.65Z"/><path class="cls-1" d="M196.07,613.13a5.79,5.79,0,0,1-5.41-3.33,9.32,9.32,0,0,1,0-7.42,6,6,0,0,1,10.81,0,9.32,9.32,0,0,1,0,7.42,5.79,5.79,0,0,1-5.4,3.33Zm0-1.88a3.57,3.57,0,0,0,2.3-.72,4.2,4.2,0,0,0,1.34-1.89,7.25,7.25,0,0,0,.44-2.54,7.34,7.34,0,0,0-.44-2.55,4.23,4.23,0,0,0-1.34-1.9,4,4,0,0,0-4.61,0,4.23,4.23,0,0,0-1.34,1.9,7.34,7.34,0,0,0-.44,2.55,7.25,7.25,0,0,0,.44,2.54,4.2,4.2,0,0,0,1.34,1.89A3.58,3.58,0,0,0,196.07,611.25Z"/><path class="cls-1" d="M218.54,599.21V601h-7.35v-1.78Zm-5.14,13.64V597.33a3.28,3.28,0,0,1,.55-2,3.35,3.35,0,0,1,1.43-1.17,4.48,4.48,0,0,1,1.85-.39,5.36,5.36,0,0,1,1.26.12,4.58,4.58,0,0,1,.73.23l-.6,1.81-.44-.13a2.92,2.92,0,0,0-.74-.08,1.87,1.87,0,0,0-1.49.52,2.25,2.25,0,0,0-.46,1.54v15Z"/><path class="cls-1" d="M225.11,613.17a5.65,5.65,0,0,1-2.35-.49,4.11,4.11,0,0,1-1.68-1.43,4.06,4.06,0,0,1-.62-2.27,3.62,3.62,0,0,1,.46-1.91,3.35,3.35,0,0,1,1.24-1.15,6.79,6.79,0,0,1,1.71-.62c.62-.14,1.25-.25,1.88-.33l2-.25a2.91,2.91,0,0,0,1.14-.29.74.74,0,0,0,.36-.71v-.07a2.79,2.79,0,0,0-.72-2,2.87,2.87,0,0,0-2.16-.73,3.75,3.75,0,0,0-2.35.66,3.85,3.85,0,0,0-1.2,1.4l-2-.71a4.83,4.83,0,0,1,1.43-1.94,5.26,5.26,0,0,1,1.95-1,8,8,0,0,1,2.09-.28,8.83,8.83,0,0,1,1.51.15,4.89,4.89,0,0,1,1.67.64,3.73,3.73,0,0,1,1.33,1.44,5.36,5.36,0,0,1,.53,2.6v9h-2.09V611h-.11a3.49,3.49,0,0,1-.71,1,3.92,3.92,0,0,1-1.32.86A5,5,0,0,1,225.11,613.17Zm.32-1.88a4.23,4.23,0,0,0,2.1-.49,3.43,3.43,0,0,0,1.3-1.26,3.3,3.3,0,0,0,.44-1.63V606a1.23,1.23,0,0,1-.58.28,10,10,0,0,1-1,.23l-1.13.16-.88.11a7.8,7.8,0,0,0-1.53.34,2.63,2.63,0,0,0-1.13.7,1.78,1.78,0,0,0-.43,1.27,1.86,1.86,0,0,0,.81,1.64A3.57,3.57,0,0,0,225.43,611.29Z"/><path class="cls-1" d="M245.85,599.21l-5,13.64h-2.13l-5-13.64h2.27l3.76,10.87h.15l3.76-10.87Z"/><path class="cls-1" d="M253.67,613.13a5.79,5.79,0,0,1-5.41-3.33,9.32,9.32,0,0,1,0-7.42,6,6,0,0,1,10.81,0,9.32,9.32,0,0,1,0,7.42,5.79,5.79,0,0,1-5.4,3.33Zm0-1.88a3.57,3.57,0,0,0,2.3-.72,4.2,4.2,0,0,0,1.34-1.89,7.25,7.25,0,0,0,.44-2.54,7.34,7.34,0,0,0-.44-2.55,4.23,4.23,0,0,0-1.34-1.9,4,4,0,0,0-4.61,0,4.23,4.23,0,0,0-1.34,1.9,7.34,7.34,0,0,0-.44,2.55,7.25,7.25,0,0,0,.44,2.54,4.2,4.2,0,0,0,1.34,1.89A3.58,3.58,0,0,0,253.67,611.25Z"/><path class="cls-1" d="M263,612.85V599.21h2v2.06h.15a3.25,3.25,0,0,1,1.35-1.64,4,4,0,0,1,2.2-.63h.57c.24,0,.41,0,.53,0v2.13l-.49-.09a5,5,0,0,0-.79-.06,3.67,3.67,0,0,0-1.77.42,3.12,3.12,0,0,0-1.23,1.13,3.07,3.07,0,0,0-.44,1.65v8.63Z"/><path class="cls-1" d="M277.63,613.13a6.38,6.38,0,0,1-3.39-.87,5.73,5.73,0,0,1-2.19-2.45,8.19,8.19,0,0,1-.77-3.67,8.35,8.35,0,0,1,.77-3.7,6,6,0,0,1,2.14-2.5,5.81,5.81,0,0,1,3.23-.9,6.44,6.44,0,0,1,2.11.35,5.32,5.32,0,0,1,1.89,1.15,5.7,5.7,0,0,1,1.36,2.1,9.09,9.09,0,0,1,.5,3.21v.89H272.77v-1.81h8.38a4.43,4.43,0,0,0-.46-2.06,3.5,3.5,0,0,0-1.29-1.43,3.66,3.66,0,0,0-2-.52,3.78,3.78,0,0,0-2.16.61,4.18,4.18,0,0,0-1.4,1.61,4.74,4.74,0,0,0-.49,2.11v1.21a5.73,5.73,0,0,0,.54,2.61,3.77,3.77,0,0,0,1.5,1.63,4.35,4.35,0,0,0,2.22.55,4.68,4.68,0,0,0,1.5-.23,3.27,3.27,0,0,0,1.16-.71,3.22,3.22,0,0,0,.75-1.19l2,.57A4.47,4.47,0,0,1,282,611.5a5.11,5.11,0,0,1-1.86,1.2A6.79,6.79,0,0,1,277.63,613.13Z"/><path class="cls-1" d="M297.2,599.21l-5,13.64H290l-5-13.64h2.27L291,610.08h.15l3.76-10.87Z"/><path class="cls-1" d="M305,613.13a5.79,5.79,0,0,1-5.4-3.33,9.32,9.32,0,0,1,0-7.42,6,6,0,0,1,10.81,0,9.32,9.32,0,0,1,0,7.42,5.79,5.79,0,0,1-5.41,3.33Zm0-1.88a3.58,3.58,0,0,0,2.31-.72,4.2,4.2,0,0,0,1.34-1.89,7.25,7.25,0,0,0,.44-2.54,7.34,7.34,0,0,0-.44-2.55,4.23,4.23,0,0,0-1.34-1.9,4,4,0,0,0-4.61,0,4.23,4.23,0,0,0-1.34,1.9,7.34,7.34,0,0,0-.44,2.55,7.25,7.25,0,0,0,.44,2.54,4.2,4.2,0,0,0,1.34,1.89A3.57,3.57,0,0,0,305,611.25Z"/><path class="cls-1" d="M316.48,594.67v18.18h-2.09V594.67Z"/><path class="cls-1" d="M321.38,596.94a1.49,1.49,0,0,1-1.05-.42,1.36,1.36,0,0,1,0-2,1.54,1.54,0,0,1,2.11,0,1.36,1.36,0,0,1,0,2A1.5,1.5,0,0,1,321.38,596.94Zm-1.06,15.91V599.21h2.09v13.64Z"/><path class="cls-1" d="M337.29,613.17a5.65,5.65,0,0,1-2.35-.49,4.11,4.11,0,0,1-1.68-1.43,4.06,4.06,0,0,1-.62-2.27,3.62,3.62,0,0,1,.46-1.91,3.35,3.35,0,0,1,1.24-1.15,6.79,6.79,0,0,1,1.71-.62c.62-.14,1.25-.25,1.88-.33l2-.25a2.91,2.91,0,0,0,1.14-.29.74.74,0,0,0,.36-.71v-.07a2.79,2.79,0,0,0-.72-2,2.87,2.87,0,0,0-2.16-.73,3.75,3.75,0,0,0-2.35.66,3.85,3.85,0,0,0-1.2,1.4l-2-.71a4.83,4.83,0,0,1,1.43-1.94,5.26,5.26,0,0,1,2-1,8,8,0,0,1,2.09-.28,8.83,8.83,0,0,1,1.51.15,4.77,4.77,0,0,1,1.66.64,3.67,3.67,0,0,1,1.34,1.44,5.36,5.36,0,0,1,.53,2.6v9h-2.09V611h-.11a3.49,3.49,0,0,1-.71,1,3.92,3.92,0,0,1-1.32.86A5,5,0,0,1,337.29,613.17Zm.32-1.88a4.23,4.23,0,0,0,2.1-.49,3.43,3.43,0,0,0,1.3-1.26,3.3,3.3,0,0,0,.44-1.63V606a1.23,1.23,0,0,1-.58.28,10,10,0,0,1-1,.23l-1.13.16-.88.11a7.8,7.8,0,0,0-1.53.34,2.63,2.63,0,0,0-1.13.7,1.78,1.78,0,0,0-.43,1.27,1.86,1.86,0,0,0,.81,1.64A3.57,3.57,0,0,0,337.61,611.29Z"/><path class="cls-1" d="M349.47,594.67v18.18h-2.09V594.67Z"/><path class="cls-1" d="M355.4,594.67v18.18h-2.09V594.67Z"/><path class="cls-1" d="M361.09,594.67v1.6a4.9,4.9,0,0,1-.27,1.54,6.1,6.1,0,0,1-.76,1.59,5.53,5.53,0,0,1-1.21,1.34l-1.14-.92a10.81,10.81,0,0,0,1-1.67,4.15,4.15,0,0,0,.42-1.85v-1.63Z"/><path class="cls-1" d="M366.45,613.17a5.58,5.58,0,0,1-2.35-.49,3.86,3.86,0,0,1-2.3-3.7,3.53,3.53,0,0,1,.46-1.91,3.4,3.4,0,0,1,1.23-1.15,7.08,7.08,0,0,1,1.71-.62c.63-.14,1.25-.25,1.89-.33l2-.25a2.9,2.9,0,0,0,1.13-.29.74.74,0,0,0,.36-.71v-.07a2.83,2.83,0,0,0-.71-2,2.9,2.9,0,0,0-2.16-.73,3.78,3.78,0,0,0-2.36.66,3.91,3.91,0,0,0-1.19,1.4l-2-.71a4.81,4.81,0,0,1,1.42-1.94,5.41,5.41,0,0,1,1.95-1,8.09,8.09,0,0,1,2.1-.28,8.93,8.93,0,0,1,1.51.15,4.92,4.92,0,0,1,1.66.64,3.82,3.82,0,0,1,1.34,1.44,5.47,5.47,0,0,1,.53,2.6v9h-2.1V611h-.1a3.71,3.71,0,0,1-.71,1,4.08,4.08,0,0,1-1.33.86A5,5,0,0,1,366.45,613.17Zm.32-1.88a4.23,4.23,0,0,0,2.1-.49,3.4,3.4,0,0,0,1.29-1.26,3.2,3.2,0,0,0,.44-1.63V606a1.23,1.23,0,0,1-.58.28,9.46,9.46,0,0,1-1,.23l-1.13.16-.88.11a7.86,7.86,0,0,0-1.52.34,2.72,2.72,0,0,0-1.14.7,1.78,1.78,0,0,0-.43,1.27,1.86,1.86,0,0,0,.81,1.64A3.61,3.61,0,0,0,366.77,611.29Z"/><path class="cls-1" d="M382.07,613.13a5.91,5.91,0,0,1-3.3-.9,6,6,0,0,1-2.13-2.5,9.15,9.15,0,0,1,0-7.3,6,6,0,0,1,2.15-2.49A5.79,5.79,0,0,1,382,599a6,6,0,0,1,2.59.53,4.89,4.89,0,0,1,1.89,1.49,4.67,4.67,0,0,1,.92,2.24h-2.1a3.27,3.27,0,0,0-1.06-1.66,3.23,3.23,0,0,0-2.21-.72,3.7,3.7,0,0,0-2.14.63,4.21,4.21,0,0,0-1.43,1.79A6.55,6.55,0,0,0,378,606a7,7,0,0,0,.5,2.75,4.22,4.22,0,0,0,1.42,1.82,3.59,3.59,0,0,0,2.16.65,3.77,3.77,0,0,0,1.49-.28,3,3,0,0,0,1.12-.82,3.06,3.06,0,0,0,.66-1.28h2.1a4.78,4.78,0,0,1-.88,2.17,4.85,4.85,0,0,1-1.84,1.53A5.84,5.84,0,0,1,382.07,613.13Z"/><path class="cls-1" d="M396,613.13a5.68,5.68,0,0,1-5.43-3.4,9.15,9.15,0,0,1,0-7.3,6,6,0,0,1,2.15-2.49A5.75,5.75,0,0,1,396,599a6.07,6.07,0,0,1,2.6.53,5,5,0,0,1,1.89,1.49,4.66,4.66,0,0,1,.91,2.24H399.3a3.29,3.29,0,0,0-1.07-1.66,3.2,3.2,0,0,0-2.2-.72,3.73,3.73,0,0,0-2.15.63,4.19,4.19,0,0,0-1.42,1.79,6.39,6.39,0,0,0-.52,2.69,6.85,6.85,0,0,0,.51,2.75,4.08,4.08,0,0,0,1.42,1.82,3.59,3.59,0,0,0,2.16.65,3.72,3.72,0,0,0,1.48-.28,3,3,0,0,0,1.13-.82,3.06,3.06,0,0,0,.66-1.28h2.09a4.88,4.88,0,0,1-.87,2.17,4.93,4.93,0,0,1-1.84,1.53A5.87,5.87,0,0,1,396,613.13Z"/><path class="cls-1" d="M413,607.27v-8.06h2.09v13.64H413v-2.31h-.14a4.42,4.42,0,0,1-1.5,1.76,4.21,4.21,0,0,1-2.55.73,4.48,4.48,0,0,1-2.27-.57,3.82,3.82,0,0,1-1.57-1.7,6.42,6.42,0,0,1-.57-2.88v-8.67h2.1v8.53a3.34,3.34,0,0,0,.84,2.38,2.81,2.81,0,0,0,2.14.88,3.6,3.6,0,0,0,1.6-.4,3.44,3.44,0,0,0,1.36-1.22A3.7,3.7,0,0,0,413,607.27Z"/><path class="cls-1" d="M419,612.85V599.21h2v2.13h.18a3.45,3.45,0,0,1,1.38-1.7,4.17,4.17,0,0,1,2.28-.6,4,4,0,0,1,2.25.6,4.16,4.16,0,0,1,1.41,1.7h.14a4,4,0,0,1,1.57-1.68,4.77,4.77,0,0,1,2.51-.62,4.08,4.08,0,0,1,3,1.14,4.75,4.75,0,0,1,1.17,3.54v9.13h-2.1v-9.13a2.57,2.57,0,0,0-.82-2.15,3,3,0,0,0-1.95-.65,2.89,2.89,0,0,0-2.23.86A3.16,3.16,0,0,0,429,604v8.88h-2.13v-9.34a2.48,2.48,0,0,0-.75-1.88,2.75,2.75,0,0,0-2-.71,2.85,2.85,0,0,0-1.52.43,3.24,3.24,0,0,0-1.14,1.21,3.62,3.62,0,0,0-.43,1.77v8.52Z"/><path class="cls-1" d="M449.29,607.27v-8.06h2.1v13.64h-2.1v-2.31h-.14a4.39,4.39,0,0,1-1.49,1.76,4.24,4.24,0,0,1-2.56.73,4.48,4.48,0,0,1-2.27-.57,3.86,3.86,0,0,1-1.56-1.7,6.42,6.42,0,0,1-.57-2.88v-8.67h2.1v8.53a3.34,3.34,0,0,0,.84,2.38,2.8,2.8,0,0,0,2.14.88,3.53,3.53,0,0,0,1.59-.4,3.46,3.46,0,0,0,1.37-1.22A3.7,3.7,0,0,0,449.29,607.27Z"/><path class="cls-1" d="M457.32,594.67v18.18h-2.09V594.67Z"/><path class="cls-1" d="M466.7,613.13a5.79,5.79,0,0,1-5.41-3.33,9.32,9.32,0,0,1,0-7.42,6,6,0,0,1,10.81,0,9.32,9.32,0,0,1,0,7.42,5.79,5.79,0,0,1-5.4,3.33Zm0-1.88a3.57,3.57,0,0,0,2.3-.72,4.2,4.2,0,0,0,1.34-1.89,7.25,7.25,0,0,0,.44-2.54,7.34,7.34,0,0,0-.44-2.55,4.23,4.23,0,0,0-1.34-1.9,4,4,0,0,0-4.61,0,4.23,4.23,0,0,0-1.34,1.9,7.34,7.34,0,0,0-.44,2.55,7.25,7.25,0,0,0,.44,2.54,4.2,4.2,0,0,0,1.34,1.89A3.58,3.58,0,0,0,466.7,611.25Z"/><path class="cls-1" d="M488.25,613.13a5.29,5.29,0,0,1-3-.86,5.82,5.82,0,0,1-2-2.45,8.86,8.86,0,0,1-.74-3.75,8.74,8.74,0,0,1,.74-3.73,5.63,5.63,0,0,1,2.05-2.44,5.38,5.38,0,0,1,3-.86,4.18,4.18,0,0,1,2.1.44,3.63,3.63,0,0,1,1.19,1c.28.37.49.67.65.91h.18v-6.71h2.09v18.18h-2v-2.1h-.25c-.16.25-.38.57-.66.94a3.66,3.66,0,0,1-1.22,1A4.2,4.2,0,0,1,488.25,613.13Zm.28-1.88a3.45,3.45,0,0,0,2.14-.66,4,4,0,0,0,1.32-1.84,8.41,8.41,0,0,0,0-5.4,4,4,0,0,0-1.32-1.79,3.93,3.93,0,0,0-4.36,0,4,4,0,0,0-1.32,1.83,7.17,7.17,0,0,0-.44,2.6,7.39,7.39,0,0,0,.45,2.64,4.14,4.14,0,0,0,1.33,1.88A3.4,3.4,0,0,0,488.53,611.25Z"/><path class="cls-1" d="M499.68,596.94a1.49,1.49,0,0,1-1.05-.42,1.36,1.36,0,0,1,0-2,1.54,1.54,0,0,1,2.11,0,1.36,1.36,0,0,1,0,2A1.5,1.5,0,0,1,499.68,596.94Zm-1.06,15.91V599.21h2.09v13.64Z"/><path class="cls-1" d="M511.86,612.85V594.67H518a7,7,0,0,1,3.5.77,4.85,4.85,0,0,1,2,2.07,6.77,6.77,0,0,1,0,5.83,4.82,4.82,0,0,1-2,2.09,6.9,6.9,0,0,1-3.48.78h-4.4v-2H518a4.75,4.75,0,0,0,2.36-.51,3,3,0,0,0,1.29-1.37,4.58,4.58,0,0,0,.4-2,4.5,4.5,0,0,0-.4-1.95,3,3,0,0,0-1.3-1.36,5,5,0,0,0-2.38-.49h-3.87v16.23Z"/><path class="cls-1" d="M527.74,594.67h2.63l6.17,15.09h.22l6.18-15.09h2.62v18.18h-2V599h-.18l-5.68,13.81h-2L530,599h-.18v13.81h-2.06Z"/><path class="cls-1" d="M556,594.67v18.18h-2.2V597h-.11l-4.44,2.94v-2.23l4.55-3Z"/><path class="cls-1" d="M567.19,613.1a5.41,5.41,0,0,1-3.42-1.1,6.72,6.72,0,0,1-2.15-3.19,17.34,17.34,0,0,1,0-10.09,6.88,6.88,0,0,1,2.17-3.2,5.82,5.82,0,0,1,6.81,0,6.94,6.94,0,0,1,2.16,3.2,15,15,0,0,1,.75,5,15.25,15.25,0,0,1-.74,5,6.8,6.8,0,0,1-2.16,3.19A5.41,5.41,0,0,1,567.19,613.1Zm0-2a3.4,3.4,0,0,0,3.09-1.92,11.16,11.16,0,0,0,1.1-5.47,14.13,14.13,0,0,0-.5-4,5.47,5.47,0,0,0-1.44-2.53,3.17,3.17,0,0,0-2.25-.87,3.4,3.4,0,0,0-3.08,1.94,11.13,11.13,0,0,0-1.11,5.48,14.1,14.1,0,0,0,.5,4,5.47,5.47,0,0,0,1.43,2.51A3.22,3.22,0,0,0,567.19,611.15Z"/></g></svg>