<svg xmlns="http://www.w3.org/2000/svg" viewBox="0 0 720 900"><defs><style>.cls-1,.cls-2{fill:none;stroke:#fe5000;stroke-linecap:square;stroke-miterlimit:10;}.cls-1{stroke-width:2.07px;}.cls-2{stroke-width:2px;}.cls-3{isolation:isolate;}.cls-4{fill:#fff;}</style></defs><g id="Livello_2" data-name="Livello 2"><rect class="cls-1" x="29.38" y="166.99" width="662.62" height="567.02"/><line class="cls-2" x1="30.73" y1="336.44" x2="692" y2="336.44"/><line class="cls-2" x1="29.38" y1="393.23" x2="692" y2="393.23"/><line class="cls-2" x1="29.38" y1="450.03" x2="692" y2="450.03"/><line class="cls-2" x1="29.38" y1="506.82" x2="692" y2="506.82"/><line class="cls-2" x1="29.38" y1="563.62" x2="692" y2="563.62"/><line class="cls-2" x1="29.38" y1="620.42" x2="692" y2="620.42"/><line class="cls-2" x1="29.38" y1="279.64" x2="692" y2="279.64"/><line class="cls-2" x1="362" y1="222.44" x2="692" y2="222.44"/><line class="cls-2" x1="361.5" y1="167.99" x2="361.5" y2="277.99"/><line class="cls-2" x1="29.38" y1="677.21" x2="692" y2="677.21"/><g class="cls-3"><path class="cls-4" d="M61.44,299.68h2.92L70,314.82H67.38l-1.3-3.68H59.61l-1.3,3.68H55.8Zm1.38,2.46-2.46,6.94h5l-2.44-6.94Z"/><path class="cls-4" d="M71.78,304.08h2.37v6.21c0,2.13.93,2.86,2.29,2.86,1.52,0,2.62-1.3,2.62-3.52v-5.55h2.37v10.74H79.17v-1.56h-.09a3.37,3.37,0,0,1-3.26,1.82c-2.15,0-4-1.14-4-4.49Z"/><path class="cls-4" d="M86.12,311.74c0,1.19,1.21,1.67,2.38,1.67,1.65,0,2.46-.57,2.46-1.56,0-.79-.55-1.12-1.63-1.3l-2-.35c-1.65-.27-3.23-.93-3.23-2.95,0-2.2,2-3.43,4.49-3.43s4.44,1,4.44,3.25H90.83c0-1.05-1-1.58-2.22-1.58s-2.2.53-2.2,1.47c0,.73.5,1.1,1.78,1.32l2,.33c1.69.29,3.17.95,3.17,2.95,0,2.36-2,3.52-4.84,3.52-2.69,0-4.65-1.1-4.65-3.34Z"/><path class="cls-4" d="M96.17,305.93h-2v-1.85h2v-3.26h2.38v3.26h2.75v1.85H98.55v5.32c0,1.15.4,1.59,1.49,1.59h1.26v2H99.65c-2.47,0-3.48-1-3.48-3.43Z"/><path class="cls-4" d="M103.43,304.08h2.29v1.56h.07a2.93,2.93,0,0,1,2.83-1.82,2.46,2.46,0,0,1,1.5.44l-.62,2.11a2.89,2.89,0,0,0-1.31-.35c-1.61,0-2.38,1.56-2.38,3.43v5.37h-2.38Z"/><path class="cls-4" d="M114.39,308.79l2.09-.35c1.06-.18,1.39-.31,1.39-.73a1.88,1.88,0,0,0-2.12-2.11,2,2,0,0,0-2.26,1.89h-2.27c.13-2.22,1.85-3.67,4.53-3.67,3,0,4.49,1.43,4.49,3.94v7.06H118v-1.34h-.11a3.85,3.85,0,0,1-3.44,1.6c-2.35,0-3.63-1.21-3.63-3S111.86,309.21,114.39,308.79Zm3.48.64a1.77,1.77,0,0,1-1.1.5l-1.85.31c-1.26.2-1.74.75-1.74,1.59s.61,1.47,1.82,1.47a2.71,2.71,0,0,0,2.87-2.88Z"/><path class="cls-4" d="M123.32,298.71h2.38v16.11h-2.38Z"/><path class="cls-4" d="M128.84,298.71h2.55v2.42h-2.55Zm.09,5.37h2.38v10.74h-2.38Z"/><path class="cls-4" d="M137.51,308.79l2.09-.35c1.06-.18,1.39-.31,1.39-.73a1.88,1.88,0,0,0-2.12-2.11,2,2,0,0,0-2.26,1.89h-2.27c.13-2.22,1.85-3.67,4.53-3.67,3,0,4.49,1.43,4.49,3.94v7.06H141.1v-1.34H141a3.85,3.85,0,0,1-3.44,1.6c-2.35,0-3.63-1.21-3.63-3S135,309.21,137.51,308.79Zm3.48.64a1.77,1.77,0,0,1-1.1.5l-1.85.31c-1.26.2-1.74.75-1.74,1.59s.62,1.47,1.83,1.47a2.71,2.71,0,0,0,2.86-2.88Z"/></g><g class="cls-3"><path class="cls-4" d="M386,189h6.14c3.52,0,5.47,2,5.47,4.92S395.7,199,392.18,199h-3.66v5.12H386Zm2.48,2.06V197h3.55a2.84,2.84,0,0,0,3.08-3,2.74,2.74,0,0,0-3.08-2.89Z"/><path class="cls-4" d="M400.45,189h3.21l5.08,11.77h.07l5-11.77H417v15.13h-2.48l.2-11.53h-.09l-4.93,11.53h-1.92l-4.92-11.33h-.09l.17,11.33h-2.48Z"/><path class="cls-4" d="M420.09,192.43l5-3.41h1.67v13.15h3.52v2H420.6v-2h3.76V192l-3.23,2.23Z"/><path class="cls-4" d="M432.19,196.58c0-4.4,1.54-7.83,5.42-7.83s5.41,3.43,5.41,7.83-1.54,7.84-5.41,7.84S432.19,201,432.19,196.58Zm8.34,0c0-3.76-.94-5.78-2.92-5.78s-2.93,2-2.93,5.78.94,5.79,2.93,5.79S440.53,200.35,440.53,196.58Z"/><path class="cls-4" d="M452.72,187.78h2.18a19.36,19.36,0,0,0-3.52,10.65,20.44,20.44,0,0,0,3.52,10.74h-2.18a18.72,18.72,0,0,1-3.61-10.74A18.43,18.43,0,0,1,452.72,187.78Z"/><path class="cls-4" d="M459.19,207.48V209h-2.4V193.42h2.4v6.2c0,2.14.83,2.86,2.26,2.86s2.62-1.36,2.62-3.47v-5.59h2.38v10.73h-2.27v-1.56h-.09a3.31,3.31,0,0,1-3.23,1.83,3.67,3.67,0,0,1-1.87-.51h-.07A26.2,26.2,0,0,1,459.19,207.48Z"/><path class="cls-4" d="M471.42,205.47c0,1.19,1.14,1.92,2.7,1.92,1.92,0,3.22-1,3.22-3.79v-1h-.09a3.71,3.71,0,0,1-3.57,1.87c-2.7,0-4.79-2-4.79-5.55s2.22-5.72,5-5.72a3.49,3.49,0,0,1,3.39,1.87h.09v-1.6h2.26V203.6c0,4.05-2.33,5.57-5.48,5.57-2.86,0-4.9-1.23-4.95-3.7Zm2.86-3c1.69,0,3-1.36,3-3.71v-.18c-.07-2.24-1.3-3.54-3-3.54s-2.93,1.45-2.93,3.8S472.61,202.5,474.28,202.5Z"/><path class="cls-4" d="M488.14,188.75h2l-6.77,15.67h-2.05Z"/><path class="cls-4" d="M490.36,193.42h2.29V195h.09a3.79,3.79,0,0,1,6.66.31,3.69,3.69,0,0,1,3.61-2.14c2.09,0,3.81,1.15,3.81,4.36v6.64h-2.38V197.8c0-2-.7-2.71-2.07-2.71s-2.59,1.28-2.59,3.41v5.65H497.4V197.8c0-2-.77-2.71-2.07-2.71s-2.59,1.28-2.59,3.43v5.63h-2.38Z"/><path class="cls-4" d="M511.52,199.58a2.66,2.66,0,0,0,2.91,2.92c1.69,0,2.9-.92,2.9-2.59a2.67,2.67,0,0,0-2.9-2.6h-1.17v-2h1.17a2.37,2.37,0,0,0,2.48-2.42,2.26,2.26,0,0,0-2.48-2.26,2.33,2.33,0,0,0-2.49,2.53h-2.15c0-2.78,1.93-4.45,4.64-4.45s4.75,1.67,4.75,4.09a3.79,3.79,0,0,1-2.2,3.39v.09a3.84,3.84,0,0,1,2.77,3.76c0,2.75-2.33,4.34-5.32,4.34s-5.24-1.52-5.24-4.84Z"/><path class="cls-4" d="M524.61,198.43a19.36,19.36,0,0,0-3.52-10.65h2.16a18.43,18.43,0,0,1,3.61,10.65,18.72,18.72,0,0,1-3.61,10.74h-2.16A20.44,20.44,0,0,0,524.61,198.43Z"/></g><g class="cls-3"><path class="cls-4" d="M59.21,224c0,1.56,1.35,2.64,3.52,2.64s3.61-.95,3.61-2.55c0-3.74-9.35-.77-9.35-6.69,0-2.6,2.25-4.49,5.77-4.49s5.67,1.65,5.67,4.34H66c0-1.54-1.39-2.4-3.23-2.4s-3.28.79-3.28,2.31c0,3.72,9.41.7,9.41,6.73,0,2.79-2.24,4.69-6.16,4.69s-6-1.81-6-4.58Z"/><path class="cls-4" d="M72,219.44H70V217.6h2v-3.26h2.37v3.26h2.75v1.84H74.37v5.33c0,1.14.4,1.58,1.5,1.58h1.25v2H75.47c-2.46,0-3.47-1-3.47-3.43Z"/><path class="cls-4" d="M82.44,222.3l2.1-.35c1-.17,1.38-.31,1.38-.72a1.89,1.89,0,0,0-2.11-2.12,2,2,0,0,0-2.27,1.9H79.28c.13-2.23,1.84-3.68,4.53-3.68,3,0,4.49,1.43,4.49,3.94v7.06H86V227h-.11a3.85,3.85,0,0,1-3.43,1.61c-2.36,0-3.63-1.21-3.63-3S79.91,222.72,82.44,222.3Zm3.48.64a1.75,1.75,0,0,1-1.1.51l-1.85.31c-1.25.19-1.74.74-1.74,1.58s.62,1.47,1.83,1.47a2.7,2.7,0,0,0,2.86-2.88Z"/><path class="cls-4" d="M91.6,219.44h-2V217.6h2v-3.26H94v3.26h2.75v1.84H94v5.33c0,1.14.4,1.58,1.5,1.58h1.25v2H95.07c-2.46,0-3.47-1-3.47-3.43Z"/><path class="cls-4" d="M103.59,217.33c3.34,0,5.48,2.14,5.48,5.63a5.26,5.26,0,0,1-5.48,5.64c-3.33,0-5.48-2.14-5.48-5.64A5.26,5.26,0,0,1,103.59,217.33Zm0,9.35c1.8,0,3-1.47,3-3.72s-1.21-3.71-3-3.71-3,1.47-3,3.71S101.78,226.68,103.59,226.68Z"/></g><g class="cls-3"><path class="cls-4" d="M385.79,232.9h2.38V249h-2.38Z"/><path class="cls-4" d="M391.21,232.9h2.55v2.42h-2.55Zm.08,5.37h2.38V249h-2.38Z"/><path class="cls-4" d="M396.79,238.27h2.29v1.56h.09a3.81,3.81,0,0,1,6.67.31,3.67,3.67,0,0,1,3.61-2.13c2.09,0,3.8,1.14,3.8,4.35V249h-2.37v-6.36c0-2-.71-2.71-2.07-2.71s-2.6,1.28-2.6,3.41V249h-2.37v-6.36c0-2-.77-2.71-2.07-2.71s-2.6,1.28-2.6,3.44V249h-2.38Z"/><path class="cls-4" d="M416.11,232.9h2.55v2.42h-2.55Zm.09,5.37h2.37V249H416.2Z"/><path class="cls-4" d="M422,240.12h-2v-1.85h2V235h2.37v3.26h2.76v1.85H424.4v5.32c0,1.15.4,1.59,1.5,1.59h1.26v2H425.5c-2.46,0-3.47-1-3.47-3.43Z"/><path class="cls-4" d="M433.73,238c3,0,5,1.91,5,5.23v.8h-7.9c.13,2.09,1.25,3.36,3,3.36a2.32,2.32,0,0,0,2.49-1.65h2.33c-.31,1.92-2.14,3.52-4.84,3.52-3.43,0-5.39-2.09-5.39-5.61S430.65,238,433.73,238ZM431,242.43h5.37c-.2-1.78-1.1-2.58-2.6-2.58A2.85,2.85,0,0,0,431,242.43Z"/><path class="cls-4" d="M388.77,264l2.09-.35c1.05-.18,1.38-.31,1.38-.73a1.88,1.88,0,0,0-2.11-2.11,2,2,0,0,0-2.27,1.89H385.6c.13-2.22,1.85-3.67,4.53-3.67,3,0,4.49,1.43,4.49,3.94V270h-2.27v-1.34h-.11a3.84,3.84,0,0,1-3.43,1.6c-2.35,0-3.63-1.21-3.63-3S386.23,264.4,388.77,264Zm3.47.64a1.75,1.75,0,0,1-1.1.5l-1.85.31c-1.25.2-1.74.75-1.74,1.59s.62,1.47,1.83,1.47a2.7,2.7,0,0,0,2.86-2.88Z"/><path class="cls-4" d="M397.59,259.27h2.29v1.56H400a3.44,3.44,0,0,1,3.33-1.82c2.13,0,4,1.14,4,4.49V270h-2.37V263.8c0-2.13-.91-2.86-2.29-2.86s-2.69,1.3-2.69,3.46V270h-2.37Z"/><path class="cls-4" d="M410.26,259.27h2.29v1.56h.08A3.45,3.45,0,0,1,416,259c2.13,0,4,1.14,4,4.49V270h-2.37V263.8c0-2.13-.9-2.86-2.29-2.86s-2.69,1.3-2.69,3.46V270h-2.37Z"/><path class="cls-4" d="M422.67,259.27H425v6.21c0,2.13.93,2.86,2.29,2.86,1.52,0,2.62-1.3,2.62-3.52v-5.55h2.38V270h-2.27v-1.56H430a3.36,3.36,0,0,1-3.26,1.82c-2.15,0-4-1.14-4-4.49Z"/><path class="cls-4" d="M438.4,264l2.09-.35c1.05-.18,1.38-.31,1.38-.73a1.88,1.88,0,0,0-2.11-2.11,2,2,0,0,0-2.26,1.89h-2.27c.13-2.22,1.85-3.67,4.53-3.67,3,0,4.49,1.43,4.49,3.94V270H442v-1.34h-.11a3.83,3.83,0,0,1-3.43,1.6c-2.35,0-3.63-1.21-3.63-3S435.87,264.4,438.4,264Zm3.47.64a1.75,1.75,0,0,1-1.1.5l-1.85.31c-1.25.2-1.73.75-1.73,1.59s.61,1.47,1.82,1.47a2.7,2.7,0,0,0,2.86-2.88Z"/><path class="cls-4" d="M447.22,253.9h2.37V270h-2.37Z"/><path class="cls-4" d="M457.27,259c3,0,5,1.91,5,5.23v.8h-7.9c.13,2.09,1.25,3.36,3,3.36a2.32,2.32,0,0,0,2.49-1.65h2.33c-.31,1.92-2.14,3.52-4.84,3.52-3.43,0-5.39-2.09-5.39-5.61S454.19,259,457.27,259Zm-2.77,4.42h5.37c-.2-1.78-1.1-2.58-2.6-2.58A2.85,2.85,0,0,0,454.5,263.43Z"/></g><g class="cls-3"><path class="cls-4" d="M544,232.9h2.38V249H544Z"/><path class="cls-4" d="M549.42,232.9H552v2.42h-2.56Zm.09,5.37h2.38V249h-2.38Z"/><path class="cls-4" d="M555,238.27h2.29v1.56h.09a3.8,3.8,0,0,1,6.66.31,3.68,3.68,0,0,1,3.61-2.13c2.09,0,3.81,1.14,3.81,4.35V249h-2.38v-6.36c0-2-.7-2.71-2.06-2.71s-2.6,1.28-2.6,3.41V249h-2.38v-6.36c0-2-.77-2.71-2.07-2.71s-2.59,1.28-2.59,3.44V249H555Z"/><path class="cls-4" d="M574.33,232.9h2.55v2.42h-2.55Zm.09,5.37h2.37V249h-2.37Z"/><path class="cls-4" d="M580.25,240.12h-2v-1.85h2V235h2.37v3.26h2.75v1.85h-2.75v5.32c0,1.15.4,1.59,1.5,1.59h1.25v2h-1.65c-2.46,0-3.47-1-3.47-3.43Z"/><path class="cls-4" d="M592,238c3,0,5,1.91,5,5.23v.8h-7.9c.13,2.09,1.25,3.36,3,3.36a2.31,2.31,0,0,0,2.48-1.65h2.34c-.31,1.92-2.14,3.52-4.85,3.52-3.43,0-5.39-2.09-5.39-5.61S588.87,238,592,238Zm-2.77,4.42h5.36c-.19-1.78-1.09-2.58-2.59-2.58A2.84,2.84,0,0,0,589.18,242.43Z"/><path class="cls-4" d="M545.79,271.33c0,1.19,1.15,1.91,2.71,1.91,1.91,0,3.21-1,3.21-3.78V268.4h-.09a3.71,3.71,0,0,1-3.56,1.87c-2.71,0-4.8-2-4.8-5.54s2.23-5.72,5-5.72a3.47,3.47,0,0,1,3.38,1.87h.09v-1.61H554v10.19c0,4.05-2.33,5.56-5.48,5.56-2.86,0-4.91-1.23-5-3.69Zm2.86-3c1.7,0,3-1.37,3-3.72v-.18c-.06-2.24-1.3-3.54-3-3.54s-2.92,1.45-2.92,3.81S547,268.36,548.65,268.36Z"/><path class="cls-4" d="M557,253.9h2.56v2.42H557Zm.09,5.37h2.38V270H557.1Z"/><path class="cls-4" d="M567.33,259c3.35,0,5.48,2.13,5.48,5.63a5.25,5.25,0,0,1-5.48,5.63c-3.32,0-5.48-2.13-5.48-5.63A5.26,5.26,0,0,1,567.33,259Zm0,9.35c1.81,0,3-1.48,3-3.72s-1.21-3.72-3-3.72-3,1.48-3,3.72S565.53,268.36,567.33,268.36Z"/><path class="cls-4" d="M575.19,259.27h2.28v1.56h.07a3,3,0,0,1,2.84-1.82,2.45,2.45,0,0,1,1.49.44l-.61,2.11a2.93,2.93,0,0,0-1.32-.35c-1.61,0-2.38,1.56-2.38,3.43V270h-2.37Z"/><path class="cls-4" d="M583.37,259.27h2.29v1.56h.09a3.43,3.43,0,0,1,3.32-1.82c2.13,0,4,1.14,4,4.49V270h-2.37V263.8c0-2.13-.9-2.86-2.29-2.86s-2.68,1.3-2.68,3.46V270h-2.38Z"/><path class="cls-4" d="M599,264l2.09-.35c1.06-.18,1.39-.31,1.39-.73a1.88,1.88,0,0,0-2.11-2.11,2,2,0,0,0-2.27,1.89h-2.27c.13-2.22,1.85-3.67,4.54-3.67,3,0,4.48,1.43,4.48,3.94V270H602.6v-1.34h-.11a3.84,3.84,0,0,1-3.43,1.6c-2.36,0-3.64-1.21-3.64-3S596.48,264.4,599,264Zm3.48.64a1.77,1.77,0,0,1-1.1.5l-1.85.31c-1.25.2-1.74.75-1.74,1.59s.62,1.47,1.83,1.47a2.7,2.7,0,0,0,2.86-2.88Z"/><path class="cls-4" d="M607.83,253.9h2.38V270h-2.38Z"/><path class="cls-4" d="M613.24,253.9h2.56v2.42h-2.56Zm.09,5.37h2.38V270h-2.38Z"/><path class="cls-4" d="M623.39,259c3,0,5,1.91,5,5.23v.8h-7.9c.14,2.09,1.26,3.36,3,3.36a2.32,2.32,0,0,0,2.49-1.65h2.33c-.3,1.92-2.13,3.52-4.84,3.52-3.43,0-5.39-2.09-5.39-5.61S620.31,259,623.39,259Zm-2.78,4.42H626c-.19-1.78-1.1-2.58-2.59-2.58A2.85,2.85,0,0,0,620.61,263.43Z"/><path class="cls-4" d="M630.69,259.27H633v1.56H633a3,3,0,0,1,2.84-1.82,2.48,2.48,0,0,1,1.5.44l-.62,2.11a2.9,2.9,0,0,0-1.32-.35c-1.6,0-2.37,1.56-2.37,3.43V270h-2.38Z"/><path class="cls-4" d="M643.3,259c3.34,0,5.48,2.13,5.48,5.63a5.25,5.25,0,0,1-5.48,5.63c-3.33,0-5.48-2.13-5.48-5.63A5.26,5.26,0,0,1,643.3,259Zm0,9.35c1.8,0,3-1.48,3-3.72s-1.21-3.72-3-3.72-3,1.48-3,3.72S641.49,268.36,643.3,268.36Z"/></g><g class="cls-3"><path class="cls-4" d="M64,355.54c3.63,0,6,2,6.55,5.14H68a3.77,3.77,0,0,0-4-2.94c-3,0-4.86,2.31-4.86,5.63S61.06,369,63.92,369c2.33,0,3.57-1,4.09-2.95h2.53c-.59,3.11-3,5.15-6.64,5.15-4.44,0-7.35-3.28-7.35-7.83S59.52,355.54,64,355.54Z"/><path class="cls-4" d="M73.21,354.83h2.37v3.32c0,.73,0,2.2-.09,3.61h.09a3.44,3.44,0,0,1,3.32-1.82c2.14,0,4,1.14,4,4.48v6.52H80.55v-6.21c0-2.13-.9-2.86-2.28-2.86-1.54,0-2.69,1.37-2.69,3.48v5.59H73.21Z"/><path class="cls-4" d="M85.9,354.83h2.55v2.42H85.9ZM86,360.2h2.37v10.74H86Z"/><path class="cls-4" d="M91.6,360.2h2.28v1.56H94a3.44,3.44,0,0,1,3.32-1.82c2.14,0,4,1.14,4,4.48v6.52H99v-6.21c0-2.13-.91-2.86-2.29-2.86S94,363.17,94,365.33v5.61H91.6Z"/><path class="cls-4" d="M107.35,364.91l2.09-.35c1.06-.18,1.39-.31,1.39-.73a1.88,1.88,0,0,0-2.12-2.11,2,2,0,0,0-2.26,1.89h-2.27c.13-2.22,1.85-3.67,4.53-3.67,3,0,4.49,1.43,4.49,3.94v7.06h-2.26V369.6h-.11a3.85,3.85,0,0,1-3.44,1.6c-2.35,0-3.63-1.21-3.63-3S104.82,365.33,107.35,364.91Zm3.48.64a1.77,1.77,0,0,1-1.1.5l-1.85.31c-1.26.2-1.74.75-1.74,1.59s.61,1.47,1.82,1.47a2.71,2.71,0,0,0,2.87-2.88Z"/></g><g class="cls-3"><path class="cls-4" d="M57.43,412.6H68v2.11H59.92V419h6.51v2H59.92v4.58h8.31v2.11H57.43Z"/><path class="cls-4" d="M70.79,417h2.37v6.2c0,2.14.92,2.86,2.29,2.86s2.62-1.3,2.62-3.52V417h2.37v10.73H78.18v-1.56h-.09A3.37,3.37,0,0,1,74.83,428c-2.15,0-4-1.15-4-4.49Z"/><path class="cls-4" d="M83.66,417h2.28v1.56H86a2.94,2.94,0,0,1,2.84-1.83,2.52,2.52,0,0,1,1.49.44l-.61,2.11a2.93,2.93,0,0,0-1.32-.35c-1.61,0-2.38,1.56-2.38,3.44v5.36H83.66Z"/><path class="cls-4" d="M96.37,416.73c3.35,0,5.48,2.14,5.48,5.64A5.25,5.25,0,0,1,96.37,428c-3.32,0-5.48-2.14-5.48-5.63A5.27,5.27,0,0,1,96.37,416.73Zm0,9.35c1.81,0,3-1.47,3-3.71s-1.21-3.72-3-3.72-3,1.47-3,3.72S94.57,426.08,96.37,426.08Z"/><path class="cls-4" d="M106.71,432.57h-2.38V417h2.29v1.6h.09a3.71,3.71,0,0,1,3.57-1.87c2.7,0,4.79,2,4.79,5.55s-2.22,5.72-5,5.72a3.49,3.49,0,0,1-3.39-1.87h-.09c.09,1.41.09,2.88.09,3.61Zm3-13.92c-1.63,0-2.88,1.29-3,3.54v.18c0,2.35,1.28,3.71,3,3.71s2.93-1.45,2.93-3.8S111.35,418.65,109.66,418.65Z"/><path class="cls-4" d="M122.24,416.73c3,0,5,1.92,5,5.24v.79h-7.9c.13,2.09,1.25,3.37,3,3.37a2.33,2.33,0,0,0,2.49-1.65h2.33c-.31,1.91-2.13,3.52-4.84,3.52-3.43,0-5.39-2.09-5.39-5.61S119.16,416.73,122.24,416.73Zm-2.77,4.42h5.37c-.2-1.78-1.1-2.57-2.6-2.57A2.85,2.85,0,0,0,119.47,421.15Z"/><path class="cls-4" d="M132.63,421.71l2.09-.36c1.05-.17,1.38-.31,1.38-.72a1.89,1.89,0,0,0-2.11-2.12,2,2,0,0,0-2.27,1.9h-2.26c.13-2.23,1.85-3.68,4.53-3.68,3,0,4.49,1.43,4.49,3.94v7.06h-2.27v-1.34h-.11a3.82,3.82,0,0,1-3.43,1.61c-2.35,0-3.63-1.21-3.63-3S130.1,422.12,132.63,421.71Zm3.47.63a1.75,1.75,0,0,1-1.1.51l-1.85.31c-1.25.2-1.73.75-1.73,1.58s.61,1.48,1.82,1.48a2.71,2.71,0,0,0,2.86-2.89Z"/><path class="cls-4" d="M141.56,417h2.29v1.56h.08a3.46,3.46,0,0,1,3.33-1.83c2.13,0,4,1.15,4,4.49v6.51h-2.37v-6.2c0-2.14-.91-2.86-2.29-2.86s-2.69,1.3-2.69,3.45v5.61h-2.37Z"/><path class="cls-4" d="M159.11,412.6h2.49v9.08c0,2.62,1.25,4.12,3.81,4.12s3.8-1.5,3.8-4.12V412.6h2.49v9.11c0,4.59-2.58,6.29-6.29,6.29s-6.3-1.7-6.3-6.29Z"/><path class="cls-4" d="M174.87,417h2.28v1.56h.09a3.44,3.44,0,0,1,3.32-1.83c2.14,0,4,1.15,4,4.49v6.51h-2.38v-6.2c0-2.14-.9-2.86-2.28-2.86s-2.69,1.3-2.69,3.45v5.61h-2.37Z"/><path class="cls-4" d="M187.56,411.63h2.55v2.42h-2.55Zm.09,5.37H190v10.73h-2.37Z"/><path class="cls-4" d="M198,416.73c3.34,0,5.48,2.14,5.48,5.64A5.25,5.25,0,0,1,198,428c-3.32,0-5.48-2.14-5.48-5.63A5.27,5.27,0,0,1,198,416.73Zm0,9.35c1.8,0,3-1.47,3-3.71s-1.21-3.72-3-3.72-3,1.47-3,3.72S196.18,426.08,198,426.08Z"/><path class="cls-4" d="M206,417h2.29v1.56h.09a3.43,3.43,0,0,1,3.32-1.83c2.13,0,4,1.15,4,4.49v6.51H213.3v-6.2c0-2.14-.9-2.86-2.29-2.86s-2.68,1.3-2.68,3.45v5.61H206Z"/></g><g class="cls-3"><path class="cls-4" d="M57.43,469.39h2.49v6.43h7.61v-6.43H70v15.14H67.53v-6.6H59.92v6.6H57.43Z"/><path class="cls-4" d="M78.22,473.53c3.35,0,5.48,2.13,5.48,5.63a5.25,5.25,0,0,1-5.48,5.63c-3.32,0-5.48-2.13-5.48-5.63A5.26,5.26,0,0,1,78.22,473.53Zm0,9.35c1.81,0,3-1.47,3-3.72s-1.21-3.72-3-3.72-3,1.48-3,3.72S76.42,482.88,78.22,482.88Z"/><path class="cls-4" d="M86.19,473.79h2.28v1.56h.09a3.44,3.44,0,0,1,3.32-1.82c2.14,0,4,1.14,4,4.49v6.51H93.53v-6.21c0-2.13-.9-2.86-2.28-2.86s-2.69,1.3-2.69,3.46v5.61H86.19Z"/><path class="cls-4" d="M100.75,485.85c0,1.19,1.14,1.91,2.71,1.91,1.91,0,3.21-1,3.21-3.78v-1.06h-.09a3.71,3.71,0,0,1-3.56,1.87c-2.71,0-4.8-2-4.8-5.54s2.22-5.72,5-5.72a3.49,3.49,0,0,1,3.39,1.87h.09v-1.61h2.26V484c0,4-2.33,5.57-5.47,5.57-2.87,0-4.91-1.24-5-3.7Zm2.86-3c1.69,0,3-1.36,3-3.72V479c-.07-2.24-1.3-3.54-3-3.54s-2.93,1.45-2.93,3.81S101.94,482.88,103.61,482.88Z"/><path class="cls-4" d="M117.25,469.39h2.49v7.66l7.1-7.66h2.91L123.56,476l6.49,8.58h-2.83L122,477.64,119.74,480v4.53h-2.49Z"/><path class="cls-4" d="M136,473.53c3.35,0,5.48,2.13,5.48,5.63a5.25,5.25,0,0,1-5.48,5.63c-3.32,0-5.48-2.13-5.48-5.63A5.26,5.26,0,0,1,136,473.53Zm0,9.35c1.81,0,3-1.47,3-3.72s-1.21-3.72-3-3.72-3,1.48-3,3.72S134.17,482.88,136,482.88Z"/><path class="cls-4" d="M143.93,473.79h2.29v1.56h.09a3.44,3.44,0,0,1,3.32-1.82c2.14,0,4,1.14,4,4.49v6.51h-2.38v-6.21c0-2.13-.9-2.86-2.28-2.86s-2.69,1.3-2.69,3.46v5.61h-2.38Z"/><path class="cls-4" d="M158.5,485.85c0,1.19,1.14,1.91,2.71,1.91,1.91,0,3.21-1,3.21-3.78v-1.06h-.09a3.71,3.71,0,0,1-3.56,1.87c-2.71,0-4.8-2-4.8-5.54s2.22-5.72,5-5.72a3.49,3.49,0,0,1,3.39,1.87h.09v-1.61h2.26V484c0,4-2.33,5.57-5.47,5.57-2.87,0-4.91-1.24-5-3.7Zm2.86-3c1.69,0,2.95-1.36,2.95-3.72V479c-.07-2.24-1.3-3.54-2.95-3.54s-2.93,1.45-2.93,3.81S159.69,482.88,161.36,482.88Z"/></g><g class="cls-3"><path class="cls-4" d="M56.38,536.2h2.46v.57c0,2,.92,2.71,2.2,2.71s2.2-.75,2.2-2.77V526.19h2.49v10.6c0,3.46-1.9,4.8-4.69,4.8s-4.66-1.32-4.66-4.69Z"/><path class="cls-4" d="M71.75,535.3l2.09-.36c1.06-.17,1.39-.3,1.39-.72a1.88,1.88,0,0,0-2.11-2.11A2,2,0,0,0,70.85,534H68.58c.14-2.22,1.85-3.68,4.54-3.68,3,0,4.49,1.43,4.49,3.94v7.07H75.34V540h-.11a3.82,3.82,0,0,1-3.43,1.61c-2.36,0-3.63-1.21-3.63-3S69.22,535.71,71.75,535.3Zm3.48.64a1.8,1.8,0,0,1-1.1.5l-1.85.31c-1.25.2-1.74.75-1.74,1.58s.62,1.48,1.83,1.48a2.71,2.71,0,0,0,2.86-2.89Z"/><path class="cls-4" d="M83.06,546.17H80.69V530.59H83v1.6h.09a3.73,3.73,0,0,1,3.57-1.87c2.7,0,4.79,2,4.79,5.55s-2.22,5.72-5,5.72a3.49,3.49,0,0,1-3.39-1.87H83c.09,1.41.09,2.88.09,3.61Zm3-13.93c-1.63,0-2.88,1.3-3,3.54V536c0,2.35,1.28,3.72,3,3.72s2.93-1.46,2.93-3.81S87.7,532.24,86,532.24Z"/><path class="cls-4" d="M96.86,535.3l2.09-.36c1-.17,1.38-.3,1.38-.72a1.88,1.88,0,0,0-2.11-2.11A2,2,0,0,0,96,534H93.69c.13-2.22,1.85-3.68,4.53-3.68,3,0,4.49,1.43,4.49,3.94v7.07h-2.27V540h-.11a3.82,3.82,0,0,1-3.43,1.61c-2.36,0-3.63-1.21-3.63-3S94.32,535.71,96.86,535.3Zm3.47.64a1.8,1.8,0,0,1-1.1.5l-1.85.31c-1.25.2-1.74.75-1.74,1.58s.62,1.48,1.83,1.48a2.71,2.71,0,0,0,2.86-2.89Z"/><path class="cls-4" d="M105.79,530.59h2.29v1.56h.08a3.45,3.45,0,0,1,3.33-1.83c2.13,0,4,1.15,4,4.49v6.52h-2.37v-6.21c0-2.13-.91-2.86-2.29-2.86s-2.69,1.3-2.69,3.45v5.62h-2.37Z"/></g><g class="cls-3"><path class="cls-4" d="M59.21,593.81c0,1.56,1.35,2.64,3.52,2.64s3.61-1,3.61-2.55c0-3.74-9.35-.77-9.35-6.69,0-2.6,2.25-4.49,5.77-4.49s5.67,1.65,5.67,4.33H66c0-1.54-1.39-2.39-3.23-2.39s-3.28.79-3.28,2.31c0,3.71,9.41.7,9.41,6.73,0,2.79-2.24,4.69-6.16,4.69s-6-1.81-6-4.58Z"/><path class="cls-4" d="M76.4,587.12c3.34,0,5.47,2.13,5.47,5.63a5.25,5.25,0,0,1-5.47,5.64c-3.33,0-5.48-2.14-5.48-5.64A5.26,5.26,0,0,1,76.4,587.12Zm0,9.35c1.8,0,3-1.47,3-3.72S78.2,589,76.4,589s-3,1.48-3,3.72S74.59,596.47,76.4,596.47Z"/><path class="cls-4" d="M84.18,587.38h2.38v6.21c0,2.13.92,2.86,2.29,2.86,1.52,0,2.62-1.3,2.62-3.52v-5.55h2.37v10.74H91.58v-1.56h-.09a3.37,3.37,0,0,1-3.26,1.83c-2.15,0-4-1.15-4-4.49Z"/><path class="cls-4" d="M97.38,589.23h-2v-1.85h2v-3.25h2.38v3.25h2.75v1.85H99.76v5.33c0,1.14.4,1.58,1.49,1.58h1.26v2h-1.65c-2.47,0-3.48-1-3.48-3.43Z"/><path class="cls-4" d="M104.64,582H107v3.33c0,.72,0,2.2-.09,3.61H107a3.43,3.43,0,0,1,3.32-1.83c2.14,0,4,1.14,4,4.49v6.51H112v-6.2c0-2.14-.9-2.86-2.29-2.86-1.54,0-2.68,1.36-2.68,3.47v5.59h-2.38Z"/><path class="cls-4" d="M122.51,583H125v7.66L132.1,583H135l-6.18,6.56,6.49,8.58h-2.84l-5.26-6.89L125,593.59v4.53h-2.48Z"/><path class="cls-4" d="M141.23,587.12c3.34,0,5.48,2.13,5.48,5.63a5.26,5.26,0,0,1-5.48,5.64c-3.32,0-5.48-2.14-5.48-5.64A5.26,5.26,0,0,1,141.23,587.12Zm0,9.35c1.8,0,3-1.47,3-3.72s-1.21-3.72-3-3.72-3,1.48-3,3.72S139.42,596.47,141.23,596.47Z"/><path class="cls-4" d="M149.19,587.38h2.29V589h.07a2.93,2.93,0,0,1,2.83-1.83,2.53,2.53,0,0,1,1.5.44l-.62,2.11a2.89,2.89,0,0,0-1.31-.35c-1.61,0-2.38,1.56-2.38,3.43v5.37h-2.38Z"/><path class="cls-4" d="M161.73,587.12c3,0,5,1.91,5,5.24v.79h-7.9c.13,2.09,1.25,3.36,3,3.36a2.32,2.32,0,0,0,2.49-1.65h2.33c-.31,1.92-2.13,3.53-4.84,3.53-3.43,0-5.39-2.1-5.39-5.62S158.65,587.12,161.73,587.12ZM159,591.54h5.37c-.2-1.78-1.1-2.57-2.6-2.57A2.84,2.84,0,0,0,159,591.54Z"/><path class="cls-4" d="M172.12,592.09l2.09-.35c1-.18,1.38-.31,1.38-.73a1.88,1.88,0,0,0-2.11-2.11,2,2,0,0,0-2.27,1.89H169c.13-2.22,1.85-3.67,4.53-3.67,3,0,4.49,1.43,4.49,3.94v7.06H175.7v-1.34h-.11a3.83,3.83,0,0,1-3.43,1.61c-2.35,0-3.63-1.22-3.63-3S169.59,592.51,172.12,592.09Zm3.47.64a1.8,1.8,0,0,1-1.1.51l-1.85.3c-1.25.2-1.73.75-1.73,1.59s.61,1.47,1.82,1.47a2.7,2.7,0,0,0,2.86-2.88Z"/></g><g class="cls-3"><path class="cls-4" d="M55.76,639.78H68.65v2.09H63.44v13H61v-13H55.76Z"/><path class="cls-4" d="M70.87,648.89l2.09-.35c1.06-.18,1.39-.31,1.39-.73a1.88,1.88,0,0,0-2.11-2.11A2,2,0,0,0,70,647.59H67.71c.13-2.22,1.84-3.67,4.53-3.67,3,0,4.49,1.43,4.49,3.93v7.07H74.46v-1.35h-.11a3.82,3.82,0,0,1-3.43,1.61c-2.36,0-3.63-1.21-3.63-3S68.34,649.31,70.87,648.89Zm3.48.64a1.8,1.8,0,0,1-1.1.5l-1.85.31c-1.25.2-1.74.75-1.74,1.58s.62,1.48,1.83,1.48a2.7,2.7,0,0,0,2.86-2.88Z"/><path class="cls-4" d="M79.72,638.81h2.55v2.42H79.72Zm.08,5.37h2.38v10.74H79.8Z"/><path class="cls-4" d="M83.92,644.18h2.42l2.09,8.34h.09l2.31-8.34h2.53l2.33,8.34h.09l2.07-8.34h2.35l-3.1,10.74H94.33L92.1,646.6H92l-2.23,8.32H87Z"/><path class="cls-4" d="M104.88,648.89l2.1-.35c1-.18,1.38-.31,1.38-.73a1.88,1.88,0,0,0-2.11-2.11,2,2,0,0,0-2.27,1.89h-2.26c.13-2.22,1.85-3.67,4.53-3.67,3,0,4.49,1.43,4.49,3.93v7.07h-2.27v-1.35h-.11a3.82,3.82,0,0,1-3.43,1.61c-2.35,0-3.63-1.21-3.63-3S102.35,649.31,104.88,648.89Zm3.48.64a1.8,1.8,0,0,1-1.1.5l-1.85.31c-1.25.2-1.74.75-1.74,1.58s.62,1.48,1.83,1.48a2.7,2.7,0,0,0,2.86-2.88Z"/><path class="cls-4" d="M113.82,644.18h2.28v1.56h.09a3.44,3.44,0,0,1,3.32-1.82c2.14,0,4,1.14,4,4.48v6.52h-2.37v-6.21c0-2.13-.91-2.86-2.29-2.86s-2.69,1.3-2.69,3.46v5.61h-2.37Z"/></g><g class="cls-3"><path class="cls-4" d="M57.12,696.57h2.49v9.09c0,2.62,1.25,4.12,3.81,4.12s3.8-1.5,3.8-4.12v-9.09h2.49v9.11c0,4.6-2.58,6.3-6.29,6.3s-6.3-1.7-6.3-6.3Z"/><path class="cls-4" d="M72.88,701h2.28v1.56h.09a3.44,3.44,0,0,1,3.32-1.83c2.14,0,4,1.15,4,4.49v6.51H80.22v-6.2c0-2.14-.9-2.86-2.28-2.86s-2.69,1.3-2.69,3.45v5.61H72.88Z"/><path class="cls-4" d="M85.57,695.61h2.55V698H85.57Zm.09,5.37H88v10.73H85.66Z"/><path class="cls-4" d="M91.6,702.82h-2V701h2v-3.26H94V701h2.75v1.84H94v5.33c0,1.14.4,1.58,1.5,1.58h1.25v2H95.07c-2.46,0-3.47-1-3.47-3.43Z"/><path class="cls-4" d="M103.41,700.71c3,0,5,1.92,5,5.24v.79h-7.9c.13,2.09,1.25,3.37,3,3.37a2.33,2.33,0,0,0,2.49-1.65h2.33c-.31,1.91-2.14,3.52-4.84,3.52-3.44,0-5.39-2.09-5.39-5.61S100.33,700.71,103.41,700.71Zm-2.77,4.42H106c-.2-1.78-1.1-2.57-2.6-2.57A2.84,2.84,0,0,0,100.64,705.13Z"/><path class="cls-4" d="M115.29,700.71a3.49,3.49,0,0,1,3.39,1.87h.09c-.11-1.41-.11-2.88-.11-3.61v-3.36H121v16.1h-2.26v-1.6h-.09a3.72,3.72,0,0,1-3.56,1.87c-2.71,0-4.8-2-4.8-5.55S112.54,700.71,115.29,700.71Zm.42,9.35c1.69,0,3-1.36,3-3.72s-1.26-3.71-3-3.71-2.93,1.45-2.93,3.8S114,710.06,115.71,710.06Z"/><path class="cls-4" d="M131.13,707.4c0,1.56,1.34,2.64,3.52,2.64s3.61-.95,3.61-2.55c0-3.74-9.35-.77-9.35-6.69,0-2.6,2.24-4.49,5.76-4.49s5.68,1.65,5.68,4.34h-2.44c0-1.55-1.39-2.4-3.24-2.4s-3.28.79-3.28,2.31c0,3.72,9.42.7,9.42,6.73,0,2.79-2.24,4.69-6.16,4.69s-6-1.81-6-4.58Z"/><path class="cls-4" d="M143.91,702.82h-2V701h2v-3.26h2.38V701H149v1.84h-2.75v5.33c0,1.14.39,1.58,1.49,1.58H149v2h-1.65c-2.47,0-3.48-1-3.48-3.43Z"/><path class="cls-4" d="M154.36,705.68l2.09-.35c1.06-.17,1.39-.31,1.39-.72a1.89,1.89,0,0,0-2.12-2.12,2,2,0,0,0-2.26,1.9h-2.27c.13-2.23,1.85-3.68,4.53-3.68,3,0,4.49,1.43,4.49,3.94v7.06H158v-1.34h-.11a3.85,3.85,0,0,1-3.43,1.61c-2.36,0-3.64-1.21-3.64-3S151.83,706.1,154.36,705.68Zm3.48.64a1.78,1.78,0,0,1-1.1.51l-1.85.31c-1.26.19-1.74.74-1.74,1.58s.62,1.47,1.83,1.47a2.7,2.7,0,0,0,2.86-2.88Z"/><path class="cls-4" d="M163.51,702.82h-2V701h2v-3.26h2.38V701h2.75v1.84h-2.75v5.33c0,1.14.4,1.58,1.49,1.58h1.26v2H167c-2.47,0-3.48-1-3.48-3.43Z"/><path class="cls-4" d="M175.33,700.71c3,0,5,1.92,5,5.24v.79h-7.9c.14,2.09,1.26,3.37,3,3.37a2.33,2.33,0,0,0,2.48-1.65h2.33c-.3,1.91-2.13,3.52-4.84,3.52-3.43,0-5.39-2.09-5.39-5.61S172.25,700.71,175.33,700.71Zm-2.78,4.42h5.37c-.19-1.78-1.1-2.57-2.59-2.57A2.85,2.85,0,0,0,172.55,705.13Z"/><path class="cls-4" d="M184.35,708.63c0,1.19,1.21,1.67,2.37,1.67,1.65,0,2.47-.57,2.47-1.56,0-.79-.55-1.12-1.63-1.3l-2-.35c-1.65-.26-3.24-.92-3.24-3,0-2.2,2-3.43,4.49-3.43s4.45,1,4.45,3.26h-2.23c0-1.06-.94-1.59-2.22-1.59s-2.2.53-2.2,1.48c0,.72.51,1.1,1.78,1.32l2,.33c1.7.28,3.17.94,3.17,3,0,2.35-2,3.52-4.84,3.52-2.68,0-4.64-1.1-4.64-3.35Z"/></g><path class="cls-4" d="M389.66,483.9a5.09,5.09,0,0,1-3-.89,3.45,3.45,0,0,1-1.48-2.35h1.74a1.85,1.85,0,0,0,.76,1.42,4.09,4.09,0,0,0,2,.38,3.5,3.5,0,0,0,2.16-.52,2.06,2.06,0,0,0,.67-1.73v-1.53a2.33,2.33,0,0,0-.49-1.65,2.06,2.06,0,0,0-1.56-.51q-2,0-2,1.8h-3.26V470.8h8.42v1.53h-6.93v4.78h.72a3.75,3.75,0,0,1,1.22-1.45,3.12,3.12,0,0,1,1.9-.56,3.35,3.35,0,0,1,2.65,1.15,4.45,4.45,0,0,1,1,3.06,4.66,4.66,0,0,1-1.18,3.31A4.37,4.37,0,0,1,389.66,483.9Z"/><path class="cls-4" d="M404.92,482.06a4.33,4.33,0,0,1-7.08,0,9.34,9.34,0,0,1,0-9.59,4.29,4.29,0,0,1,7.06,0,9.34,9.34,0,0,1,0,9.59Zm-5.89-.47a3.55,3.55,0,0,0,4.7,0,4.56,4.56,0,0,0,.73-2.86v-2.91a4.66,4.66,0,0,0-.73-2.9,3.52,3.52,0,0,0-4.7,0,4.59,4.59,0,0,0-.73,2.9v2.91A4.5,4.5,0,0,0,399,481.59Z"/><path class="cls-4" d="M389.66,597.49a5.09,5.09,0,0,1-3-.89,3.45,3.45,0,0,1-1.48-2.35h1.74a1.85,1.85,0,0,0,.76,1.42,4,4,0,0,0,2,.38,3.5,3.5,0,0,0,2.16-.52,2,2,0,0,0,.67-1.73v-1.53a2.34,2.34,0,0,0-.49-1.65,2.06,2.06,0,0,0-1.56-.51q-2,0-2,1.8h-3.26v-7.52h8.42v1.53h-6.93v4.79h.72a3.78,3.78,0,0,1,1.22-1.46,3.19,3.19,0,0,1,1.9-.56,3.35,3.35,0,0,1,2.65,1.15,4.45,4.45,0,0,1,1,3.06,4.66,4.66,0,0,1-1.18,3.31A4.37,4.37,0,0,1,389.66,597.49Z"/><path class="cls-4" d="M404.92,595.65a4.33,4.33,0,0,1-7.08,0,9.34,9.34,0,0,1,0-9.59,4.29,4.29,0,0,1,7.06,0,9.34,9.34,0,0,1,0,9.59Zm-5.89-.47a3.55,3.55,0,0,0,4.7,0,4.55,4.55,0,0,0,.73-2.85v-2.92a4.66,4.66,0,0,0-.73-2.9,3.52,3.52,0,0,0-4.7,0,4.59,4.59,0,0,0-.73,2.9v2.92A4.49,4.49,0,0,0,399,595.18Z"/><path class="cls-4" d="M389.66,654.29a5.09,5.09,0,0,1-3-.89,3.47,3.47,0,0,1-1.48-2.35h1.74a1.87,1.87,0,0,0,.76,1.42,4.09,4.09,0,0,0,2,.38,3.57,3.57,0,0,0,2.16-.52,2.06,2.06,0,0,0,.67-1.73v-1.53a2.31,2.31,0,0,0-.49-1.65,2.06,2.06,0,0,0-1.56-.51q-2,0-2,1.8h-3.26v-7.53h8.42v1.53h-6.93v4.79h.72a3.86,3.86,0,0,1,1.22-1.46,3.18,3.18,0,0,1,1.9-.55,3.35,3.35,0,0,1,2.65,1.15,4.45,4.45,0,0,1,1,3.06,4.68,4.68,0,0,1-1.18,3.31A4.4,4.4,0,0,1,389.66,654.29Z"/><path class="cls-4" d="M404.92,652.44a4.31,4.31,0,0,1-7.08,0,9.32,9.32,0,0,1,0-9.58,4.28,4.28,0,0,1,7.06,0,9.32,9.32,0,0,1,0,9.58ZM399,652a3.55,3.55,0,0,0,4.7,0,4.56,4.56,0,0,0,.73-2.86v-2.91a4.64,4.64,0,0,0-.73-2.9,3.52,3.52,0,0,0-4.7,0,4.57,4.57,0,0,0-.73,2.9v2.91A4.5,4.5,0,0,0,399,652Z"/><path class="cls-4" d="M387.64,370.13l5-10.67v-.73h-7.5v-1.52h9.09v2.15l-4.83,10.77Z"/><path class="cls-4" d="M405.19,368.46a4.31,4.31,0,0,1-7.08,0,9.32,9.32,0,0,1,0-9.58,4.28,4.28,0,0,1,7.06,0,8.12,8.12,0,0,1,1.33,4.81A8,8,0,0,1,405.19,368.46ZM399.3,368a3.55,3.55,0,0,0,4.7,0,4.56,4.56,0,0,0,.73-2.86v-2.91a4.66,4.66,0,0,0-.73-2.9,3.52,3.52,0,0,0-4.7,0,4.59,4.59,0,0,0-.73,2.9v2.91A4.5,4.5,0,0,0,399.3,368Z"/><path class="cls-4" d="M391.06,426.92V422.6h-5.88V414h1.58v7.27h4.3V417h1.59v4.32H395v1.33h-2.34v4.32Z"/><path class="cls-4" d="M405.2,425.26a4.32,4.32,0,0,1-7.07,0,9.34,9.34,0,0,1,0-9.59,4.28,4.28,0,0,1,7.05,0,8.05,8.05,0,0,1,1.34,4.81A8,8,0,0,1,405.2,425.26Zm-5.88-.47a3.55,3.55,0,0,0,4.7,0,4.52,4.52,0,0,0,.72-2.85V419a4.68,4.68,0,0,0-.72-2.9,3.52,3.52,0,0,0-4.7,0,4.61,4.61,0,0,0-.73,2.9v2.92A4.45,4.45,0,0,0,399.32,424.79Z"/><path class="cls-4" d="M385.18,540.56v-9.41h1.58v1.76h.7a3.74,3.74,0,0,1,1.24-1.44,3,3,0,0,1,1.68-.5,3,3,0,0,1,2.2.89,3.15,3.15,0,0,1,.86,2.28v6.42h-1.58v-6.42a1.91,1.91,0,0,0-.4-1.35,1.71,1.71,0,0,0-1.29-.42,1.86,1.86,0,0,0-1.35.44,1.9,1.9,0,0,0-.45,1.43h-1.61v6.32Z"/><path class="cls-4" d="M402.92,539.33a4.29,4.29,0,0,1-6.36,0,5.37,5.37,0,0,1,0-7,4.31,4.31,0,0,1,6.36,0,5.34,5.34,0,0,1,0,7Zm-5.24-.65a3.54,3.54,0,0,0,4.12,0,2.93,2.93,0,0,0,.64-2.11v-1.44a2.92,2.92,0,0,0-.64-2.1,3.54,3.54,0,0,0-4.12,0,2.92,2.92,0,0,0-.64,2.1v1.44A2.93,2.93,0,0,0,397.68,538.68Z"/><path class="cls-4" d="M406.19,540.56v-9.41h1.58v1.76h.7a3.58,3.58,0,0,1,1.24-1.44,3,3,0,0,1,1.68-.5,2.92,2.92,0,0,1,2.19.89,3.11,3.11,0,0,1,.87,2.28v6.42h-1.59v-6.42a1.91,1.91,0,0,0-.39-1.35,1.74,1.74,0,0,0-1.3-.42,1.87,1.87,0,0,0-1.35.44,2,2,0,0,0-.45,1.43h-1.6v6.32Z"/><path class="cls-4" d="M420.77,540.74a4.28,4.28,0,0,1-3.22-1.32,4.71,4.71,0,0,1-1.27-3.38,5.25,5.25,0,0,1,1.29-3.6,4.08,4.08,0,0,1,3.2-1.47,3.87,3.87,0,0,1,3,1.36,4.79,4.79,0,0,1,1.23,3.34v.66h-6.95v.42a2.63,2.63,0,0,0,.64,2,3,3,0,0,0,2.08.61,2.89,2.89,0,0,0,1.69-.4,1.72,1.72,0,0,0,.66-1.28H425a4.57,4.57,0,0,1-1.66,2.21A4.26,4.26,0,0,1,420.77,540.74ZM418.05,535h5.18v-.23a2.49,2.49,0,0,0-.56-1.84,2.62,2.62,0,0,0-1.89-.56,3.1,3.1,0,0,0-2.07.59,2.33,2.33,0,0,0-.66,1.84Z"/><path class="cls-4" d="M385.18,711v-9.41h1.58v1.76h.7a3.74,3.74,0,0,1,1.24-1.44,3,3,0,0,1,1.68-.51,2.92,2.92,0,0,1,2.2.9,3.14,3.14,0,0,1,.86,2.27V711h-1.58v-6.43a1.94,1.94,0,0,0-.4-1.35,1.75,1.75,0,0,0-1.29-.41,1.86,1.86,0,0,0-1.35.44,1.89,1.89,0,0,0-.45,1.43h-1.61V711Z"/><path class="cls-4" d="M402.92,709.72a4.29,4.29,0,0,1-6.36,0,5,5,0,0,1-1.28-3.49,5,5,0,0,1,1.28-3.47,4.29,4.29,0,0,1,6.36,0,4.94,4.94,0,0,1,1.29,3.47A5,5,0,0,1,402.92,709.72Zm-5.24-.65a3.54,3.54,0,0,0,4.12,0,2.94,2.94,0,0,0,.64-2.12v-1.44a2.87,2.87,0,0,0-.64-2.09,3.54,3.54,0,0,0-4.12,0,2.87,2.87,0,0,0-.64,2.09V707A2.94,2.94,0,0,0,397.68,709.07Z"/><path class="cls-4" d="M406.19,711v-9.41h1.58v1.76h.7a3.58,3.58,0,0,1,1.24-1.44,2.94,2.94,0,0,1,1.68-.51,2.89,2.89,0,0,1,2.19.9,3.11,3.11,0,0,1,.87,2.27V711h-1.59v-6.43a1.94,1.94,0,0,0-.39-1.35,1.78,1.78,0,0,0-1.3-.41,1.87,1.87,0,0,0-1.35.44,1.93,1.93,0,0,0-.45,1.43h-1.6V711Z"/><path class="cls-4" d="M420.77,711.13a4.28,4.28,0,0,1-3.22-1.32,4.72,4.72,0,0,1-1.27-3.38,5.27,5.27,0,0,1,1.29-3.61,4.08,4.08,0,0,1,3.2-1.47,3.9,3.9,0,0,1,3,1.36,4.8,4.8,0,0,1,1.23,3.34v.67h-6.95v.41a2.6,2.6,0,0,0,.64,2,2.92,2.92,0,0,0,2.08.62,3,3,0,0,0,1.69-.4,1.72,1.72,0,0,0,.66-1.28H425a4.62,4.62,0,0,1-1.66,2.21A4.26,4.26,0,0,1,420.77,711.13Zm-2.72-5.74h5.18v-.24a2.48,2.48,0,0,0-.56-1.83,2.62,2.62,0,0,0-1.89-.56,3.1,3.1,0,0,0-2.07.58,2.36,2.36,0,0,0-.66,1.85Z"/><path class="cls-4" d="M385.52,314V311.2l4.36-3.4a9.94,9.94,0,0,0,1.65-1.53A2,2,0,0,0,392,305v-.65a2,2,0,0,0-.53-1.57,2.83,2.83,0,0,0-1.88-.48,3,3,0,0,0-2.06.58,2.36,2.36,0,0,0-.66,1.85h-1.71a4.47,4.47,0,0,1,1.46-2.79,4.31,4.31,0,0,1,3-1,4.2,4.2,0,0,1,3,1.06,3.43,3.43,0,0,1,1.14,2.61q0,2.1-2.69,4.16l-4,3v.72H394V314Z"/><path class="cls-4" d="M400.73,314.19a5.09,5.09,0,0,1-3-.89,3.47,3.47,0,0,1-1.48-2.35H398a1.81,1.81,0,0,0,.75,1.42,4.11,4.11,0,0,0,2,.38,3.48,3.48,0,0,0,2.15-.52,2.06,2.06,0,0,0,.67-1.73V309a2.31,2.31,0,0,0-.49-1.65,2.06,2.06,0,0,0-1.56-.51q-1.95,0-2,1.8h-3.26v-7.52h8.43v1.53h-6.94v4.78h.73a3.65,3.65,0,0,1,1.21-1.45,3.12,3.12,0,0,1,1.9-.56,3.35,3.35,0,0,1,2.65,1.15,4.45,4.45,0,0,1,1,3.06,4.66,4.66,0,0,1-1.18,3.31A4.4,4.4,0,0,1,400.73,314.19Z"/><path class="cls-4" d="M543.26,710.9v-1.53H547v-9.86h-3.36V698h5v11.39h3.78v1.53Z"/><path class="cls-4" d="M558.65,711.08a5,5,0,0,1-3-.89,3.44,3.44,0,0,1-1.49-2.35h1.75a1.88,1.88,0,0,0,.75,1.43,4.12,4.12,0,0,0,2,.37,3.54,3.54,0,0,0,2.16-.52,2.07,2.07,0,0,0,.66-1.73v-1.53a2.35,2.35,0,0,0-.48-1.64,2.1,2.1,0,0,0-1.57-.52q-1.93,0-2,1.8h-3.26V698h8.43v1.53h-6.93v4.79h.72a3.76,3.76,0,0,1,1.21-1.46,3.21,3.21,0,0,1,1.9-.56,3.41,3.41,0,0,1,2.66,1.15,4.5,4.5,0,0,1,1,3.06,4.7,4.7,0,0,1-1.18,3.32A4.4,4.4,0,0,1,558.65,711.08Z"/><path class="cls-4" d="M573.91,709.24a4.33,4.33,0,0,1-7.08,0,8,8,0,0,1-1.32-4.78,8.12,8.12,0,0,1,1.33-4.81,4.29,4.29,0,0,1,7.06,0,9.34,9.34,0,0,1,0,9.59Zm-5.89-.47a3.55,3.55,0,0,0,4.7,0,4.45,4.45,0,0,0,.73-2.85V703a4.59,4.59,0,0,0-.73-2.9,3.52,3.52,0,0,0-4.7,0,4.66,4.66,0,0,0-.73,2.9v2.92A4.51,4.51,0,0,0,568,708.77Z"/><path class="cls-4" d="M543.26,370.13V368.6H547v-9.87h-3.36v-1.52h5V368.6h3.78v1.53Z"/><path class="cls-4" d="M558.65,370.31a5,5,0,0,1-3-.89,3.49,3.49,0,0,1-1.49-2.35h1.75a1.84,1.84,0,0,0,.75,1.42,4.11,4.11,0,0,0,2,.38,3.54,3.54,0,0,0,2.16-.52,2.09,2.09,0,0,0,.66-1.73v-1.53a2.36,2.36,0,0,0-.48-1.65,2.1,2.1,0,0,0-1.57-.51q-1.93,0-2,1.8h-3.26v-7.52h8.43v1.52h-6.93v4.79h.72a3.83,3.83,0,0,1,1.21-1.46,3.2,3.2,0,0,1,1.9-.55,3.38,3.38,0,0,1,2.66,1.15,4.5,4.5,0,0,1,1,3.06,4.66,4.66,0,0,1-1.18,3.31A4.4,4.4,0,0,1,558.65,370.31Z"/><path class="cls-4" d="M573.91,368.46a4.31,4.31,0,0,1-7.08,0,8,8,0,0,1-1.32-4.77,8.12,8.12,0,0,1,1.33-4.81,4.28,4.28,0,0,1,7.06,0,9.32,9.32,0,0,1,0,9.58ZM568,368a3.55,3.55,0,0,0,4.7,0,4.5,4.5,0,0,0,.73-2.86v-2.91a4.59,4.59,0,0,0-.73-2.9,3.52,3.52,0,0,0-4.7,0,4.66,4.66,0,0,0-.73,2.9v2.91A4.56,4.56,0,0,0,568,368Z"/><path class="cls-4" d="M547.75,427.1a5,5,0,0,1-3-.89,3.44,3.44,0,0,1-1.49-2.35H545a1.89,1.89,0,0,0,.76,1.43,4,4,0,0,0,2,.38,3.51,3.51,0,0,0,2.16-.53,2.06,2.06,0,0,0,.66-1.72v-1.54a2.35,2.35,0,0,0-.48-1.64,2.09,2.09,0,0,0-1.57-.52c-1.29,0-2,.61-2,1.8h-3.26V414h8.43v1.53h-6.93v4.79h.72a3.76,3.76,0,0,1,1.21-1.46,3.23,3.23,0,0,1,1.9-.56,3.41,3.41,0,0,1,2.66,1.15,4.45,4.45,0,0,1,1,3.06,4.72,4.72,0,0,1-1.17,3.32A4.43,4.43,0,0,1,547.75,427.1Z"/><path class="cls-4" d="M563,425.26a4.32,4.32,0,0,1-7.07,0,8,8,0,0,1-1.33-4.78,8.05,8.05,0,0,1,1.34-4.81,4.28,4.28,0,0,1,7,0,9.34,9.34,0,0,1,0,9.59Zm-5.89-.47a3.55,3.55,0,0,0,4.7,0,4.45,4.45,0,0,0,.73-2.85V419a4.61,4.61,0,0,0-.73-2.9,3.52,3.52,0,0,0-4.7,0,4.68,4.68,0,0,0-.72,2.9v2.92A4.52,4.52,0,0,0,557.11,424.79Z"/><path class="cls-4" d="M547.75,314.19a5,5,0,0,1-3-.89,3.49,3.49,0,0,1-1.49-2.35H545a1.85,1.85,0,0,0,.76,1.42,4,4,0,0,0,2,.38,3.52,3.52,0,0,0,2.16-.52,2.09,2.09,0,0,0,.66-1.73V309a2.36,2.36,0,0,0-.48-1.65,2.09,2.09,0,0,0-1.57-.51q-1.94,0-2,1.8h-3.26v-7.52h8.43v1.53h-6.93v4.78h.72a3.73,3.73,0,0,1,1.21-1.45,3.16,3.16,0,0,1,1.9-.56,3.38,3.38,0,0,1,2.66,1.15,4.45,4.45,0,0,1,1,3.06,4.7,4.7,0,0,1-1.17,3.31A4.43,4.43,0,0,1,547.75,314.19Z"/><path class="cls-4" d="M563,312.34a4.3,4.3,0,0,1-7.07,0,7.94,7.94,0,0,1-1.33-4.77,8.05,8.05,0,0,1,1.34-4.81,4.28,4.28,0,0,1,7,0,9.32,9.32,0,0,1,0,9.58Zm-5.89-.46a3.55,3.55,0,0,0,4.7,0,4.5,4.5,0,0,0,.73-2.86v-2.91a4.59,4.59,0,0,0-.73-2.9,3.52,3.52,0,0,0-4.7,0,4.66,4.66,0,0,0-.72,2.9V309A4.57,4.57,0,0,0,557.11,311.88Z"/><path class="cls-4" d="M543.26,654.11v-1.53H547v-9.87h-3.36v-1.53h5v11.4h3.78v1.53Z"/><path class="cls-4" d="M562.12,652.44a4.31,4.31,0,0,1-7.08,0,9.32,9.32,0,0,1,0-9.58,4.28,4.28,0,0,1,7.06,0,9.32,9.32,0,0,1,0,9.58Zm-5.89-.46a3.55,3.55,0,0,0,4.7,0,4.5,4.5,0,0,0,.73-2.86v-2.91a4.57,4.57,0,0,0-.73-2.9,3.52,3.52,0,0,0-4.7,0,4.64,4.64,0,0,0-.73,2.9v2.91A4.56,4.56,0,0,0,556.23,652Z"/><path class="cls-4" d="M573.91,652.44a4.31,4.31,0,0,1-7.08,0,9.32,9.32,0,0,1,0-9.58,4.28,4.28,0,0,1,7.06,0,9.32,9.32,0,0,1,0,9.58ZM568,652a3.55,3.55,0,0,0,4.7,0,4.5,4.5,0,0,0,.73-2.86v-2.91a4.57,4.57,0,0,0-.73-2.9,3.52,3.52,0,0,0-4.7,0,4.64,4.64,0,0,0-.73,2.9v2.91A4.56,4.56,0,0,0,568,652Z"/><path class="cls-4" d="M543.26,597.31v-1.53H547v-9.86h-3.36v-1.53h5v11.39h3.78v1.53Z"/><path class="cls-4" d="M562.12,595.65a4.33,4.33,0,0,1-7.08,0,9.34,9.34,0,0,1,0-9.59,4.29,4.29,0,0,1,7.06,0,9.34,9.34,0,0,1,0,9.59Zm-5.89-.47a3.55,3.55,0,0,0,4.7,0,4.49,4.49,0,0,0,.73-2.85v-2.92a4.59,4.59,0,0,0-.73-2.9,3.52,3.52,0,0,0-4.7,0,4.66,4.66,0,0,0-.73,2.9v2.92A4.55,4.55,0,0,0,556.23,595.18Z"/><path class="cls-4" d="M573.91,595.65a4.33,4.33,0,0,1-7.08,0,9.34,9.34,0,0,1,0-9.59,4.29,4.29,0,0,1,7.06,0,9.34,9.34,0,0,1,0,9.59Zm-5.89-.47a3.55,3.55,0,0,0,4.7,0,4.49,4.49,0,0,0,.73-2.85v-2.92a4.59,4.59,0,0,0-.73-2.9,3.52,3.52,0,0,0-4.7,0,4.66,4.66,0,0,0-.73,2.9v2.92A4.55,4.55,0,0,0,568,595.18Z"/><path class="cls-4" d="M543.26,540.52V539H547v-9.87h-3.36v-1.53h5V539h3.78v1.53Z"/><path class="cls-4" d="M562.12,538.85a4.31,4.31,0,0,1-7.08,0,9.32,9.32,0,0,1,0-9.58,4.28,4.28,0,0,1,7.06,0,9.32,9.32,0,0,1,0,9.58Zm-5.89-.47a3.55,3.55,0,0,0,4.7,0,4.45,4.45,0,0,0,.73-2.85v-2.91a4.57,4.57,0,0,0-.73-2.9,3.52,3.52,0,0,0-4.7,0,4.64,4.64,0,0,0-.73,2.9v2.91A4.51,4.51,0,0,0,556.23,538.38Z"/><path class="cls-4" d="M573.91,538.85a4.31,4.31,0,0,1-7.08,0,9.32,9.32,0,0,1,0-9.58,4.28,4.28,0,0,1,7.06,0,9.32,9.32,0,0,1,0,9.58Zm-5.89-.47a3.55,3.55,0,0,0,4.7,0,4.45,4.45,0,0,0,.73-2.85v-2.91a4.57,4.57,0,0,0-.73-2.9,3.52,3.52,0,0,0-4.7,0,4.64,4.64,0,0,0-.73,2.9v2.91A4.51,4.51,0,0,0,568,538.38Z"/><path class="cls-4" d="M543.26,483.72v-1.53H547v-9.86h-3.36V470.8h5v11.39h3.78v1.53Z"/><path class="cls-4" d="M562.12,482.06a4.33,4.33,0,0,1-7.08,0,9.34,9.34,0,0,1,0-9.59,4.29,4.29,0,0,1,7.06,0,9.34,9.34,0,0,1,0,9.59Zm-5.89-.47a3.55,3.55,0,0,0,4.7,0,4.5,4.5,0,0,0,.73-2.86v-2.91a4.59,4.59,0,0,0-.73-2.9,3.52,3.52,0,0,0-4.7,0,4.66,4.66,0,0,0-.73,2.9v2.91A4.56,4.56,0,0,0,556.23,481.59Z"/><path class="cls-4" d="M573.91,482.06a4.33,4.33,0,0,1-7.08,0,9.34,9.34,0,0,1,0-9.59,4.29,4.29,0,0,1,7.06,0,9.34,9.34,0,0,1,0,9.59Zm-5.89-.47a3.55,3.55,0,0,0,4.7,0,4.5,4.5,0,0,0,.73-2.86v-2.91a4.59,4.59,0,0,0-.73-2.9,3.52,3.52,0,0,0-4.7,0,4.66,4.66,0,0,0-.73,2.9v2.91A4.56,4.56,0,0,0,568,481.59Z"/></g></svg>