<svg xmlns="http://www.w3.org/2000/svg" viewBox="0 0 720 900"><defs><style>.cls-1,.cls-2{fill:none;stroke:#fe5000;stroke-linecap:square;stroke-miterlimit:10;}.cls-1{stroke-width:2.07px;}.cls-2{stroke-width:2px;}.cls-3{fill:#fff;}</style></defs><g id="margine"><rect x="28" y="164" width="664" height="574"/></g><g id="Livello_2" data-name="Livello 2"><rect x="43.03" y="178" width="635.94" height="544"/><rect class="cls-1" x="43.39" y="178.95" width="634.62" height="543.06"/><line class="cls-2" x1="44.69" y1="341.24" x2="678.01" y2="341.24"/><line class="cls-2" x1="43.39" y1="395.63" x2="678.01" y2="395.63"/><line class="cls-2" x1="43.39" y1="450.03" x2="678.01" y2="450.03"/><line class="cls-2" x1="43.39" y1="504.42" x2="678.01" y2="504.42"/><line class="cls-2" x1="43.39" y1="558.82" x2="678.01" y2="558.82"/><line class="cls-2" x1="43.39" y1="613.22" x2="678.01" y2="613.22"/><line class="cls-2" x1="43.39" y1="286.84" x2="678.01" y2="286.84"/><line class="cls-2" x1="361.96" y1="232.05" x2="678.01" y2="232.05"/><line class="cls-2" x1="361.48" y1="179.91" x2="361.48" y2="285.26"/><line class="cls-2" x1="43.39" y1="667.61" x2="678.01" y2="667.61"/><path class="cls-3" d="M388.45,482.47a4.87,4.87,0,0,1-2.87-.85,3.32,3.32,0,0,1-1.42-2.25h1.67a1.78,1.78,0,0,0,.72,1.36,3.91,3.91,0,0,0,1.95.36,3.42,3.42,0,0,0,2.07-.5,2,2,0,0,0,.64-1.66v-1.46a2.26,2.26,0,0,0-.47-1.58,2,2,0,0,0-1.5-.49c-1.24,0-1.87.58-1.89,1.72h-3.12v-7.2h8.06v1.46h-6.63V476h.69a3.53,3.53,0,0,1,1.16-1.4,3.1,3.1,0,0,1,1.82-.53,3.25,3.25,0,0,1,2.54,1.1,4.27,4.27,0,0,1,1,2.93,4.49,4.49,0,0,1-1.13,3.17A4.24,4.24,0,0,1,388.45,482.47Z"/><path class="cls-3" d="M403.06,480.7a4.12,4.12,0,0,1-6.77,0,7.64,7.64,0,0,1-1.27-4.58,7.72,7.72,0,0,1,1.27-4.6,4.11,4.11,0,0,1,6.76,0,7.72,7.72,0,0,1,1.28,4.6A7.64,7.64,0,0,1,403.06,480.7Zm-5.64-.45a3.37,3.37,0,0,0,4.5,0,4.28,4.28,0,0,0,.7-2.73v-2.79a4.4,4.4,0,0,0-.7-2.78,3.37,3.37,0,0,0-4.5,0,4.46,4.46,0,0,0-.7,2.78v2.79A4.34,4.34,0,0,0,397.42,480.25Z"/><path class="cls-3" d="M388.45,591.26a4.8,4.8,0,0,1-2.87-.85,3.32,3.32,0,0,1-1.42-2.25h1.67a1.78,1.78,0,0,0,.72,1.36,3.91,3.91,0,0,0,1.95.36,3.42,3.42,0,0,0,2.07-.5,2,2,0,0,0,.64-1.65v-1.47a2.26,2.26,0,0,0-.47-1.58,2,2,0,0,0-1.5-.49c-1.24,0-1.87.58-1.89,1.73h-3.12v-7.21h8.06v1.47h-6.63v4.58h.69a3.6,3.6,0,0,1,1.16-1.4,3.1,3.1,0,0,1,1.82-.53,3.25,3.25,0,0,1,2.54,1.1,4.29,4.29,0,0,1,1,2.93,4.53,4.53,0,0,1-1.13,3.18A4.27,4.27,0,0,1,388.45,591.26Z"/><path class="cls-3" d="M403.06,589.49a4.12,4.12,0,0,1-6.77,0,7.6,7.6,0,0,1-1.27-4.57,7.73,7.73,0,0,1,1.27-4.61,4.11,4.11,0,0,1,6.76,0,7.74,7.74,0,0,1,1.28,4.61A7.6,7.6,0,0,1,403.06,589.49Zm-5.64-.44a3.4,3.4,0,0,0,4.5,0,4.29,4.29,0,0,0,.7-2.74v-2.79a4.4,4.4,0,0,0-.7-2.78,3.37,3.37,0,0,0-4.5,0,4.46,4.46,0,0,0-.7,2.78v2.79A4.35,4.35,0,0,0,397.42,589.05Z"/><path class="cls-3" d="M388.45,645.66a4.8,4.8,0,0,1-2.87-.86,3.32,3.32,0,0,1-1.42-2.25h1.67a1.76,1.76,0,0,0,.72,1.36,3.78,3.78,0,0,0,1.95.37,3.42,3.42,0,0,0,2.07-.5,2,2,0,0,0,.64-1.66v-1.46a2.24,2.24,0,0,0-.47-1.58,2,2,0,0,0-1.5-.49c-1.24,0-1.87.57-1.89,1.72h-3.12v-7.2h8.06v1.46h-6.63v4.59h.69a3.53,3.53,0,0,1,1.16-1.4,3,3,0,0,1,1.82-.53,3.22,3.22,0,0,1,2.54,1.1,4.25,4.25,0,0,1,1,2.93,4.49,4.49,0,0,1-1.13,3.17A4.24,4.24,0,0,1,388.45,645.66Z"/><path class="cls-3" d="M403.06,643.89a4.12,4.12,0,0,1-6.77,0,8.93,8.93,0,0,1,0-9.18,4.1,4.1,0,0,1,6.76,0,8.9,8.9,0,0,1,0,9.18Zm-5.64-.45a3.4,3.4,0,0,0,4.5,0,4.28,4.28,0,0,0,.7-2.73v-2.79a4.4,4.4,0,0,0-.7-2.78,3.37,3.37,0,0,0-4.5,0,4.46,4.46,0,0,0-.7,2.78v2.79A4.34,4.34,0,0,0,397.42,643.44Z"/><path class="cls-3" d="M386.52,373.5l4.83-10.22v-.69h-7.19v-1.46h8.7v2.06l-4.62,10.31Z"/><path class="cls-3" d="M403.32,371.91a4.13,4.13,0,0,1-6.78,0,9,9,0,0,1,0-9.18,4.1,4.1,0,0,1,6.76,0,8.9,8.9,0,0,1,0,9.18Zm-5.64-.45a3.4,3.4,0,0,0,4.5,0,4.28,4.28,0,0,0,.7-2.73v-2.79a4.4,4.4,0,0,0-.7-2.78,3.37,3.37,0,0,0-4.5,0,4.46,4.46,0,0,0-.7,2.78v2.79A4.34,4.34,0,0,0,397.68,371.46Z"/><path class="cls-3" d="M389.79,427.9v-4.14h-5.63v-8.24h1.51v7h4.12v-4.14h1.52v4.14h2.24v1.27h-2.24v4.14Z"/><path class="cls-3" d="M403.34,426.31a4.14,4.14,0,0,1-6.78,0,8.9,8.9,0,0,1,0-9.18,4.1,4.1,0,0,1,6.76,0,9,9,0,0,1,0,9.18Zm-5.64-.45a3.4,3.4,0,0,0,4.5,0,4.35,4.35,0,0,0,.7-2.74v-2.79a4.43,4.43,0,0,0-.7-2.77,3.34,3.34,0,0,0-4.5,0,4.37,4.37,0,0,0-.7,2.77v2.79A4.29,4.29,0,0,0,397.7,425.86Z"/><path class="cls-3" d="M384.48,319.76v-2.69l4.18-3.26a10.37,10.37,0,0,0,1.58-1.47,1.92,1.92,0,0,0,.47-1.2v-.62a1.92,1.92,0,0,0-.51-1.51,2.69,2.69,0,0,0-1.8-.46,2.94,2.94,0,0,0-2,.56,2.24,2.24,0,0,0-.63,1.77h-1.63a4.29,4.29,0,0,1,1.39-2.68,4.19,4.19,0,0,1,2.85-1,4.05,4.05,0,0,1,2.88,1,3.3,3.3,0,0,1,1.08,2.5c0,1.35-.85,2.67-2.57,4L386,317.6v.69h6.6v1.47Z"/><path class="cls-3" d="M399.05,319.93a4.83,4.83,0,0,1-2.87-.86,3.28,3.28,0,0,1-1.42-2.25h1.67a1.76,1.76,0,0,0,.73,1.37,3.89,3.89,0,0,0,1.94.36,3.38,3.38,0,0,0,2.07-.5,2,2,0,0,0,.64-1.66v-1.46a2.24,2.24,0,0,0-.46-1.58,2,2,0,0,0-1.51-.49c-1.24,0-1.87.57-1.89,1.72h-3.12v-7.2h8.07v1.46h-6.64v4.59H397a3.53,3.53,0,0,1,1.16-1.4,3.1,3.1,0,0,1,1.82-.53,3.24,3.24,0,0,1,2.54,1.1,4.27,4.27,0,0,1,1,2.93,4.49,4.49,0,0,1-1.13,3.17A4.21,4.21,0,0,1,399.05,319.93Z"/><path class="cls-3" d="M535.56,699.88v-1.47h3.62V689H536V687.5h4.74v10.91h3.62v1.47Z"/><path class="cls-3" d="M550.3,700.05a4.82,4.82,0,0,1-2.87-.85A3.32,3.32,0,0,1,546,697h1.67a1.77,1.77,0,0,0,.73,1.36,3.89,3.89,0,0,0,1.94.36,3.31,3.31,0,0,0,2.07-.5,2,2,0,0,0,.64-1.65v-1.47a2.22,2.22,0,0,0-.46-1.57,2,2,0,0,0-1.5-.5c-1.25,0-1.88.58-1.9,1.73h-3.12V687.5h8.07V689h-6.64v4.58h.69a3.5,3.5,0,0,1,1.16-1.39,3,3,0,0,1,1.82-.54,3.2,3.2,0,0,1,2.54,1.11,4.25,4.25,0,0,1,1,2.93,4.51,4.51,0,0,1-1.13,3.17A4.24,4.24,0,0,1,550.3,700.05Z"/><path class="cls-3" d="M564.91,698.29a4.14,4.14,0,0,1-6.77,0,8.9,8.9,0,0,1,0-9.18,4.09,4.09,0,0,1,6.75,0,8.9,8.9,0,0,1,0,9.18Zm-5.63-.45a3.39,3.39,0,0,0,4.49,0,4.29,4.29,0,0,0,.7-2.74v-2.79a4.37,4.37,0,0,0-.7-2.77,3.33,3.33,0,0,0-4.49,0,4.37,4.37,0,0,0-.7,2.77v2.79A4.29,4.29,0,0,0,559.28,697.84Z"/><path class="cls-3" d="M535.56,373.5V372h3.62v-9.45H536v-1.46h4.74V372h3.62v1.46Z"/><path class="cls-3" d="M550.3,373.68a4.83,4.83,0,0,1-2.87-.86,3.32,3.32,0,0,1-1.42-2.25h1.67a1.77,1.77,0,0,0,.73,1.36,3.77,3.77,0,0,0,1.94.37,3.38,3.38,0,0,0,2.07-.5,2,2,0,0,0,.64-1.66v-1.46a2.24,2.24,0,0,0-.46-1.58,2,2,0,0,0-1.5-.49c-1.25,0-1.88.57-1.9,1.72h-3.12v-7.2h8.07v1.46h-6.64v4.59h.69a3.53,3.53,0,0,1,1.16-1.4,3,3,0,0,1,1.82-.53,3.19,3.19,0,0,1,2.54,1.1,4.25,4.25,0,0,1,1,2.93,4.49,4.49,0,0,1-1.13,3.17A4.21,4.21,0,0,1,550.3,373.68Z"/><path class="cls-3" d="M564.91,371.91a4.12,4.12,0,0,1-6.77,0,8.9,8.9,0,0,1,0-9.18,4.09,4.09,0,0,1,6.75,0,8.9,8.9,0,0,1,0,9.18Zm-5.63-.45a3.39,3.39,0,0,0,4.49,0,4.28,4.28,0,0,0,.7-2.73v-2.79a4.4,4.4,0,0,0-.7-2.78,3.36,3.36,0,0,0-4.49,0,4.4,4.4,0,0,0-.7,2.78v2.79A4.28,4.28,0,0,0,559.28,371.46Z"/><path class="cls-3" d="M539.85,428.07a4.82,4.82,0,0,1-2.87-.85,3.35,3.35,0,0,1-1.42-2.25h1.67a1.8,1.8,0,0,0,.73,1.36,3.91,3.91,0,0,0,1.95.36,3.3,3.3,0,0,0,2.06-.5,2,2,0,0,0,.64-1.65v-1.47a2.22,2.22,0,0,0-.46-1.57,2,2,0,0,0-1.5-.5c-1.24,0-1.88.58-1.9,1.73h-3.12v-7.21h8.07V417h-6.64v4.58h.69a3.61,3.61,0,0,1,1.17-1.39,3,3,0,0,1,1.81-.54,3.23,3.23,0,0,1,2.55,1.11,4.25,4.25,0,0,1,1,2.93,4.51,4.51,0,0,1-1.13,3.17A4.24,4.24,0,0,1,539.85,428.07Z"/><path class="cls-3" d="M554.46,426.31a4.14,4.14,0,0,1-6.77,0,8.9,8.9,0,0,1,0-9.18,4.1,4.1,0,0,1,6.76,0,8.93,8.93,0,0,1,0,9.18Zm-5.63-.45a3.4,3.4,0,0,0,4.5,0,4.35,4.35,0,0,0,.7-2.74v-2.79a4.43,4.43,0,0,0-.7-2.77,3.34,3.34,0,0,0-4.5,0,4.37,4.37,0,0,0-.7,2.77v2.79A4.29,4.29,0,0,0,548.83,425.86Z"/><path class="cls-3" d="M539.85,319.93a4.83,4.83,0,0,1-2.87-.86,3.31,3.31,0,0,1-1.42-2.25h1.67a1.82,1.82,0,0,0,.73,1.37,3.91,3.91,0,0,0,1.95.36,3.37,3.37,0,0,0,2.06-.5,2,2,0,0,0,.64-1.66v-1.46a2.24,2.24,0,0,0-.46-1.58,2,2,0,0,0-1.5-.49c-1.24,0-1.88.57-1.9,1.72h-3.12v-7.2h8.07v1.46h-6.64v4.59h.69a3.64,3.64,0,0,1,1.17-1.4,3.05,3.05,0,0,1,1.81-.53,3.26,3.26,0,0,1,2.55,1.1,4.26,4.26,0,0,1,1,2.93,4.49,4.49,0,0,1-1.13,3.17A4.21,4.21,0,0,1,539.85,319.93Z"/><path class="cls-3" d="M554.46,318.16a4.12,4.12,0,0,1-6.77,0,8.9,8.9,0,0,1,0-9.18,4.11,4.11,0,0,1,6.76,0,8.93,8.93,0,0,1,0,9.18Zm-5.63-.45a3.37,3.37,0,0,0,4.5,0A4.34,4.34,0,0,0,554,315v-2.79a4.46,4.46,0,0,0-.7-2.78,3.37,3.37,0,0,0-4.5,0,4.4,4.4,0,0,0-.7,2.78V315A4.28,4.28,0,0,0,548.83,317.71Z"/><path class="cls-3" d="M535.56,645.48V644h3.62v-9.45H536v-1.46h4.74V644h3.62v1.46Z"/><path class="cls-3" d="M553.62,643.89a4.12,4.12,0,0,1-6.77,0,8.93,8.93,0,0,1,0-9.18,4.1,4.1,0,0,1,6.76,0,8.9,8.9,0,0,1,0,9.18Zm-5.64-.45a3.4,3.4,0,0,0,4.5,0,4.28,4.28,0,0,0,.7-2.73v-2.79a4.4,4.4,0,0,0-.7-2.78,3.37,3.37,0,0,0-4.5,0,4.47,4.47,0,0,0-.69,2.78v2.79A4.34,4.34,0,0,0,548,643.44Z"/><path class="cls-3" d="M564.91,643.89a4.12,4.12,0,0,1-6.77,0,8.9,8.9,0,0,1,0-9.18,4.09,4.09,0,0,1,6.75,0,8.9,8.9,0,0,1,0,9.18Zm-5.63-.45a3.39,3.39,0,0,0,4.49,0,4.28,4.28,0,0,0,.7-2.73v-2.79a4.4,4.4,0,0,0-.7-2.78,3.36,3.36,0,0,0-4.49,0,4.4,4.4,0,0,0-.7,2.78v2.79A4.28,4.28,0,0,0,559.28,643.44Z"/><path class="cls-3" d="M535.56,591.09v-1.47h3.62v-9.44H536v-1.47h4.74v10.91h3.62v1.47Z"/><path class="cls-3" d="M553.62,589.49a4.12,4.12,0,0,1-6.77,0,7.6,7.6,0,0,1-1.27-4.57,7.73,7.73,0,0,1,1.27-4.61,4.11,4.11,0,0,1,6.76,0,7.74,7.74,0,0,1,1.28,4.61A7.6,7.6,0,0,1,553.62,589.49Zm-5.64-.44a3.4,3.4,0,0,0,4.5,0,4.29,4.29,0,0,0,.7-2.74v-2.79a4.4,4.4,0,0,0-.7-2.78,3.37,3.37,0,0,0-4.5,0,4.47,4.47,0,0,0-.69,2.78v2.79A4.36,4.36,0,0,0,548,589.05Z"/><path class="cls-3" d="M564.91,589.49a4.12,4.12,0,0,1-6.77,0,7.6,7.6,0,0,1-1.27-4.57,7.74,7.74,0,0,1,1.28-4.61,4.1,4.1,0,0,1,6.75,0,7.74,7.74,0,0,1,1.28,4.61A7.6,7.6,0,0,1,564.91,589.49Zm-5.63-.44a3.39,3.39,0,0,0,4.49,0,4.29,4.29,0,0,0,.7-2.74v-2.79a4.4,4.4,0,0,0-.7-2.78,3.36,3.36,0,0,0-4.49,0,4.4,4.4,0,0,0-.7,2.78v2.79A4.29,4.29,0,0,0,559.28,589.05Z"/><path class="cls-3" d="M535.56,536.69v-1.46h3.62v-9.45H536v-1.47h4.74v10.92h3.62v1.46Z"/><path class="cls-3" d="M553.62,535.1a4.12,4.12,0,0,1-6.77,0,8.93,8.93,0,0,1,0-9.18,4.1,4.1,0,0,1,6.76,0,8.9,8.9,0,0,1,0,9.18Zm-5.64-.45a3.4,3.4,0,0,0,4.5,0,4.28,4.28,0,0,0,.7-2.73v-2.8a4.37,4.37,0,0,0-.7-2.77,3.37,3.37,0,0,0-4.5,0,4.44,4.44,0,0,0-.69,2.77v2.8A4.34,4.34,0,0,0,548,534.65Z"/><path class="cls-3" d="M564.91,535.1a4.12,4.12,0,0,1-6.77,0,8.9,8.9,0,0,1,0-9.18,4.09,4.09,0,0,1,6.75,0,8.9,8.9,0,0,1,0,9.18Zm-5.63-.45a3.39,3.39,0,0,0,4.49,0,4.28,4.28,0,0,0,.7-2.73v-2.8a4.37,4.37,0,0,0-.7-2.77,3.36,3.36,0,0,0-4.49,0,4.37,4.37,0,0,0-.7,2.77v2.8A4.28,4.28,0,0,0,559.28,534.65Z"/><path class="cls-3" d="M535.56,482.3v-1.47h3.62v-9.45H536v-1.46h4.74v10.91h3.62v1.47Z"/><path class="cls-3" d="M553.62,480.7a4.12,4.12,0,0,1-6.77,0,7.64,7.64,0,0,1-1.27-4.58,7.72,7.72,0,0,1,1.27-4.6,4.11,4.11,0,0,1,6.76,0,7.72,7.72,0,0,1,1.28,4.6A7.64,7.64,0,0,1,553.62,480.7Zm-5.64-.45a3.37,3.37,0,0,0,4.5,0,4.28,4.28,0,0,0,.7-2.73v-2.79a4.4,4.4,0,0,0-.7-2.78,3.37,3.37,0,0,0-4.5,0,4.47,4.47,0,0,0-.69,2.78v2.79A4.34,4.34,0,0,0,548,480.25Z"/><path class="cls-3" d="M564.91,480.7a4.12,4.12,0,0,1-6.77,0,7.64,7.64,0,0,1-1.27-4.58,7.72,7.72,0,0,1,1.28-4.6,4.1,4.1,0,0,1,6.75,0,7.72,7.72,0,0,1,1.28,4.6A7.64,7.64,0,0,1,564.91,480.7Zm-5.63-.45a3.36,3.36,0,0,0,4.49,0,4.28,4.28,0,0,0,.7-2.73v-2.79a4.4,4.4,0,0,0-.7-2.78,3.36,3.36,0,0,0-4.49,0,4.4,4.4,0,0,0-.7,2.78v2.79A4.28,4.28,0,0,0,559.28,480.25Z"/><path class="cls-3" d="M384.16,214.89V196.71h6.48a7.24,7.24,0,0,1,3.51.77,5.06,5.06,0,0,1,2.09,2.11,6.91,6.91,0,0,1,0,6,5.14,5.14,0,0,1-2.1,2.11,7.12,7.12,0,0,1-3.51.78h-4.46v-2.33h4.21a4.49,4.49,0,0,0,2.18-.46,2.9,2.9,0,0,0,1.22-1.28,4.18,4.18,0,0,0,.39-1.84,4.09,4.09,0,0,0-.39-1.82,2.82,2.82,0,0,0-1.23-1.26,4.66,4.66,0,0,0-2.21-.45H386.9v15.83Z"/><path class="cls-3" d="M400.14,196.71h3.33l5.78,14.13h.22l5.79-14.13h3.32v18.18H416V201.73h-.16l-5.37,13.13h-2.16l-5.37-13.14h-.16v13.17h-2.61Z"/><path class="cls-3" d="M429.23,196.71v18.18h-2.75V199.46h-.11L422,202.3v-2.63l4.54-3Z"/><path class="cls-3" d="M440.48,215.19a5.88,5.88,0,0,1-3.6-1.11,6.87,6.87,0,0,1-2.28-3.2,16.6,16.6,0,0,1,0-10.12,6.83,6.83,0,0,1,2.3-3.2,6.35,6.35,0,0,1,7.16,0,6.89,6.89,0,0,1,2.28,3.19,14.27,14.27,0,0,1,.8,5.05,14.59,14.59,0,0,1-.79,5.07,6.89,6.89,0,0,1-2.29,3.21A5.88,5.88,0,0,1,440.48,215.19Zm0-2.37a3.21,3.21,0,0,0,2.89-1.8,10.61,10.61,0,0,0,1-5.21,13.19,13.19,0,0,0-.48-3.83,5.19,5.19,0,0,0-1.35-2.38,3,3,0,0,0-2.1-.81,3.21,3.21,0,0,0-2.89,1.81,10.49,10.49,0,0,0-1,5.21,13.34,13.34,0,0,0,.47,3.84,5.29,5.29,0,0,0,1.35,2.37A3.07,3.07,0,0,0,440.48,212.82Z"/><path class="cls-3" d="M451.1,207.34a20.66,20.66,0,0,1,.88-6.14,18.25,18.25,0,0,1,2.57-5.17H457a10.49,10.49,0,0,0-1.22,2.15,21.27,21.27,0,0,0-1,2.8,26.38,26.38,0,0,0-.66,3.16,21.85,21.85,0,0,0-.24,3.2,22.39,22.39,0,0,0,.41,4.28,24,24,0,0,0,1.13,4,12.53,12.53,0,0,0,1.58,3h-2.43A18.25,18.25,0,0,1,452,213.5,20.69,20.69,0,0,1,451.1,207.34Z"/><path class="cls-3" d="M459.78,220v-18.7h2.65v8a3.59,3.59,0,0,0,.44,1.78,3.05,3.05,0,0,0,1.24,1.2,4.19,4.19,0,0,0,3.7,0A3.09,3.09,0,0,0,469,211a3.59,3.59,0,0,0,.44-1.78v-8h2.66v13.64h-2.61v-2h-.11a3.53,3.53,0,0,1-1.43,1.55,4.09,4.09,0,0,1-4.06,0,3.61,3.61,0,0,1-1.44-1.55h-.11V220Z"/><path class="cls-3" d="M481.42,220.29a8,8,0,0,1-2.79-.43,5.27,5.27,0,0,1-1.9-1.13,4.71,4.71,0,0,1-1.11-1.53l2.29-.94a5.82,5.82,0,0,0,.64.83,3.43,3.43,0,0,0,1.1.75,4.41,4.41,0,0,0,1.8.31,4.11,4.11,0,0,0,2.49-.73,2.71,2.71,0,0,0,1-2.33V212.4h-.17a5.93,5.93,0,0,1-.69,1,3.76,3.76,0,0,1-1.23.93,4.56,4.56,0,0,1-2,.39,5.69,5.69,0,0,1-2.91-.76,5.33,5.33,0,0,1-2-2.25,8.06,8.06,0,0,1-.75-3.66,8.68,8.68,0,0,1,.74-3.73,5.5,5.5,0,0,1,2-2.38,5.26,5.26,0,0,1,2.94-.83,4.34,4.34,0,0,1,2.05.42,3.84,3.84,0,0,1,1.22,1,8.48,8.48,0,0,1,.68,1H485v-2.21h2.6v13.94a4.52,4.52,0,0,1-3,4.56A8.6,8.6,0,0,1,481.42,220.29Zm0-7.81a3.15,3.15,0,0,0,3.14-2.08A6.29,6.29,0,0,0,485,208a6.71,6.71,0,0,0-.4-2.42,3.78,3.78,0,0,0-1.2-1.64,3.53,3.53,0,0,0-4,0,3.72,3.72,0,0,0-1.21,1.67,6.57,6.57,0,0,0-.4,2.36,6.34,6.34,0,0,0,.41,2.36,3.45,3.45,0,0,0,1.21,1.58A3.36,3.36,0,0,0,481.4,212.48Z"/><path class="cls-3" d="M498.06,195.86l-5.86,21.76h-2.37l5.86-21.76Z"/><path class="cls-3" d="M500.32,214.89V201.25h2.55v2.22H503a3.53,3.53,0,0,1,1.39-1.76,4.17,4.17,0,0,1,2.32-.63,3.89,3.89,0,0,1,2.29.64,3.77,3.77,0,0,1,1.38,1.75h.14a3.83,3.83,0,0,1,1.55-1.74,4.73,4.73,0,0,1,2.54-.65,4.09,4.09,0,0,1,3,1.16,4.7,4.7,0,0,1,1.18,3.51v9.14H516.2V206a2.45,2.45,0,0,0-.75-2,2.7,2.7,0,0,0-1.8-.62,2.58,2.58,0,0,0-2,.79,2.92,2.92,0,0,0-.72,2v8.69h-2.64v-9.06a2.4,2.4,0,0,0-.69-1.79,2.5,2.5,0,0,0-1.81-.67,2.63,2.63,0,0,0-1.39.39,3,3,0,0,0-1,1.1,3.4,3.4,0,0,0-.38,1.62v8.41Z"/><path class="cls-3" d="M525.34,206.71a4.62,4.62,0,0,1-1.91-.37,3.22,3.22,0,0,1-1.32-1,2.75,2.75,0,0,1-.52-1.52h1.63a1.39,1.39,0,0,0,.32.82,1.89,1.89,0,0,0,.75.53,2.87,2.87,0,0,0,1,.18,2.82,2.82,0,0,0,1.11-.21,1.82,1.82,0,0,0,.75-.61,1.49,1.49,0,0,0,.28-.91,1.64,1.64,0,0,0-.27-.93,1.74,1.74,0,0,0-.79-.64,3,3,0,0,0-1.26-.24h-.9v-1.3h.9a2.44,2.44,0,0,0,1-.21,1.64,1.64,0,0,0,.7-.6,1.55,1.55,0,0,0,.25-.89,1.62,1.62,0,0,0-.22-.86,1.49,1.49,0,0,0-.62-.57,2,2,0,0,0-.94-.2,2.58,2.58,0,0,0-1,.18,1.91,1.91,0,0,0-.73.54,1.5,1.5,0,0,0-.3.84h-1.54a2.5,2.5,0,0,1,.51-1.51,3.16,3.16,0,0,1,1.28-1,4.1,4.1,0,0,1,1.77-.37,3.63,3.63,0,0,1,1.76.4,2.93,2.93,0,0,1,1.15,1.05,2.7,2.7,0,0,1,.4,1.44,2.34,2.34,0,0,1-.49,1.51,2.47,2.47,0,0,1-1.33.83v.09a2.57,2.57,0,0,1,1.64.83,2.51,2.51,0,0,1,.57,1.69,2.6,2.6,0,0,1-.48,1.56,3.25,3.25,0,0,1-1.33,1.09A4.44,4.44,0,0,1,525.34,206.71Z"/><path class="cls-3" d="M536.9,207.34a20.38,20.38,0,0,1-.88,6.16,18.22,18.22,0,0,1-2.56,5.17H531a11.3,11.3,0,0,0,1.22-2.16,20.77,20.77,0,0,0,1-2.8,25.82,25.82,0,0,0,.66-3.15,22.12,22.12,0,0,0,.24-3.22,22.46,22.46,0,0,0-.42-4.27,23.6,23.6,0,0,0-1.12-4,13,13,0,0,0-1.58-3h2.43A18.22,18.22,0,0,1,536,201.2,20.34,20.34,0,0,1,536.9,207.34Z"/><path class="cls-3" d="M78.88,229.52a2.49,2.49,0,0,0-1.12-1.88,4.36,4.36,0,0,0-2.48-.66,4.74,4.74,0,0,0-1.85.33,2.9,2.9,0,0,0-1.22.92,2.22,2.22,0,0,0-.43,1.32,1.92,1.92,0,0,0,.3,1.08,2.4,2.4,0,0,0,.77.75,5.45,5.45,0,0,0,1,.5c.37.13.73.24,1.07.33l1.7.44a13,13,0,0,1,1.71.55,6.84,6.84,0,0,1,1.62.92,4.45,4.45,0,0,1,1.21,1.41,4.1,4.1,0,0,1,.47,2,4.68,4.68,0,0,1-.76,2.62A5.13,5.13,0,0,1,78.69,242a8.15,8.15,0,0,1-3.48.67,8.5,8.5,0,0,1-3.38-.62,5.17,5.17,0,0,1-2.24-1.77,5.06,5.06,0,0,1-.89-2.71h2.63a2.73,2.73,0,0,0,.62,1.57,3.23,3.23,0,0,0,1.39.92,5.48,5.48,0,0,0,1.85.3,5.16,5.16,0,0,0,2-.35,3.14,3.14,0,0,0,1.37-1,2.27,2.27,0,0,0,.5-1.48,1.86,1.86,0,0,0-.43-1.27,3.33,3.33,0,0,0-1.19-.81,10.51,10.51,0,0,0-1.67-.57l-2.06-.56a7.88,7.88,0,0,1-3.31-1.68,3.73,3.73,0,0,1-1.22-2.92,4.37,4.37,0,0,1,.81-2.63,5.45,5.45,0,0,1,2.21-1.75,7.73,7.73,0,0,1,3.15-.62,7.3,7.3,0,0,1,3.12.62A5.22,5.22,0,0,1,80.6,227a4.34,4.34,0,0,1,.82,2.49Z"/><path class="cls-3" d="M90.69,229.3v2H83.55v-2Zm-5.22-3.13H88v12.35a2.15,2.15,0,0,0,.22,1.11,1.16,1.16,0,0,0,.57.51,2.39,2.39,0,0,0,.77.13,2.84,2.84,0,0,0,.54-.05l.36-.06.45,2.1a5.45,5.45,0,0,1-.62.17,5.69,5.69,0,0,1-1,.1,4.52,4.52,0,0,1-1.87-.36A3.26,3.26,0,0,1,86,241a3.41,3.41,0,0,1-.53-2Z"/><path class="cls-3" d="M97.29,242.65a5.25,5.25,0,0,1-2.24-.47,3.66,3.66,0,0,1-1.59-1.34,3.86,3.86,0,0,1-.58-2.17,3.45,3.45,0,0,1,.43-1.82,3.09,3.09,0,0,1,1.14-1.13,5.82,5.82,0,0,1,1.62-.63,15.37,15.37,0,0,1,1.82-.32l1.9-.23a2.85,2.85,0,0,0,1.06-.29.72.72,0,0,0,.34-.67v-.06a2.29,2.29,0,0,0-.63-1.72,2.53,2.53,0,0,0-1.86-.61,3.2,3.2,0,0,0-2,.56,3.05,3.05,0,0,0-1,1.26l-2.39-.55a4.63,4.63,0,0,1,1.24-1.92,5.19,5.19,0,0,1,1.9-1.08,7.56,7.56,0,0,1,2.25-.33,8.25,8.25,0,0,1,1.66.18A5,5,0,0,1,102,230a3.52,3.52,0,0,1,1.26,1.38,4.79,4.79,0,0,1,.5,2.33v8.67h-2.48v-1.79h-.11a3.39,3.39,0,0,1-.74,1,3.93,3.93,0,0,1-1.26.79A5,5,0,0,1,97.29,242.65Zm.55-2a3.64,3.64,0,0,0,1.81-.42,3,3,0,0,0,1.15-1.09,2.88,2.88,0,0,0,.4-1.45V236a1.29,1.29,0,0,1-.53.26,7.86,7.86,0,0,1-.88.19l-1,.15-.78.1a6.07,6.07,0,0,0-1.35.32,2.31,2.31,0,0,0-1,.63,1.82,1.82,0,0,0,.34,2.52A3,3,0,0,0,97.84,240.61Z"/><path class="cls-3" d="M113.22,229.3v2h-7.14v-2ZM108,226.17h2.54v12.35a2.15,2.15,0,0,0,.22,1.11,1.16,1.16,0,0,0,.57.51,2.44,2.44,0,0,0,.77.13,2.76,2.76,0,0,0,.54-.05l.36-.06.46,2.1a6.45,6.45,0,0,1-.63.17,5.57,5.57,0,0,1-1,.1,4.46,4.46,0,0,1-1.87-.36,3.23,3.23,0,0,1-1.41-1.15,3.49,3.49,0,0,1-.53-2Z"/><path class="cls-3" d="M121.39,242.62a6,6,0,0,1-3.21-.84,5.68,5.68,0,0,1-2.12-2.35,7.76,7.76,0,0,1-.76-3.54,7.84,7.84,0,0,1,.76-3.56,5.65,5.65,0,0,1,2.12-2.36,6.53,6.53,0,0,1,6.41,0,5.61,5.61,0,0,1,2.13,2.36,8,8,0,0,1,.76,3.56,7.89,7.89,0,0,1-.76,3.54,5.64,5.64,0,0,1-2.13,2.35A6,6,0,0,1,121.39,242.62Zm0-2.13a3,3,0,0,0,2-.63,3.71,3.71,0,0,0,1.16-1.68,6.72,6.72,0,0,0,.38-2.3,6.81,6.81,0,0,0-.38-2.3,3.8,3.8,0,0,0-1.16-1.69,3,3,0,0,0-2-.64,3.1,3.1,0,0,0-2,.64,3.8,3.8,0,0,0-1.16,1.69,6.81,6.81,0,0,0-.38,2.3,6.72,6.72,0,0,0,.38,2.3,3.71,3.71,0,0,0,1.16,1.68A3.1,3.1,0,0,0,121.4,240.49Z"/><path class="cls-3" d="M389.66,538.91l7.44-16.82h1.72l-7.43,16.82Z"/><path class="cls-3" d="M389.66,702.1l7.44-16.82h1.72l-7.43,16.82Z"/><path class="cls-3" d="M386.25,243.88v13.93h-1.6V243.88Z"/><path class="cls-3" d="M390,245.62a1.12,1.12,0,0,1-.81-.31,1.05,1.05,0,0,1-.34-.77,1,1,0,0,1,.34-.77,1.17,1.17,0,0,1,1.61,0,1,1,0,0,1,.34.77,1,1,0,0,1-.34.77A1.12,1.12,0,0,1,390,245.62Zm-.82,12.19V247.37h1.61v10.44Z"/><path class="cls-3" d="M393.73,257.81V247.37h1.55V249h.14a2.66,2.66,0,0,1,1.05-1.3,3.2,3.2,0,0,1,1.75-.47,3,3,0,0,1,1.73.47A3.09,3.09,0,0,1,401,249h.1a3.07,3.07,0,0,1,1.21-1.29,3.65,3.65,0,0,1,1.92-.48,3.16,3.16,0,0,1,2.3.87,3.69,3.69,0,0,1,.89,2.72v7h-1.61v-7a2,2,0,0,0-.63-1.65,2.35,2.35,0,0,0-1.49-.5,2.18,2.18,0,0,0-1.71.67,2.39,2.39,0,0,0-.6,1.67v6.8h-1.64v-7.15a1.89,1.89,0,0,0-.57-1.44,2.08,2.08,0,0,0-1.49-.55,2.13,2.13,0,0,0-1.17.34,2.49,2.49,0,0,0-.87.92,2.7,2.7,0,0,0-.33,1.35v6.53Z"/><path class="cls-3" d="M411.2,245.62a1.12,1.12,0,0,1-.8-.31,1,1,0,0,1-.34-.77,1,1,0,0,1,.34-.77,1.09,1.09,0,0,1,.8-.32,1.12,1.12,0,0,1,.81.32,1,1,0,0,1,.33.77,1,1,0,0,1-.33.77A1.16,1.16,0,0,1,411.2,245.62Zm-.82,12.19V247.37H412v10.44Z"/><path class="cls-3" d="M419.47,247.37v1.36h-5.41v-1.36Zm-3.83-2.51h1.6v10a2.11,2.11,0,0,0,.2,1,1.07,1.07,0,0,0,.52.45,2.09,2.09,0,0,0,.67.11,2.46,2.46,0,0,0,.43,0l.28-.05.32,1.44-.45.13a3.8,3.8,0,0,1-.74.06,3.25,3.25,0,0,1-1.33-.29,2.47,2.47,0,0,1-1.5-2.4Z"/><path class="cls-3" d="M426.17,258a4.87,4.87,0,0,1-2.61-.67,4.46,4.46,0,0,1-1.68-1.88,6.35,6.35,0,0,1-.58-2.81,6.5,6.5,0,0,1,.58-2.83,4.63,4.63,0,0,1,1.65-1.92,4.41,4.41,0,0,1,2.47-.69,5,5,0,0,1,1.61.27,4,4,0,0,1,1.45.88,4.2,4.2,0,0,1,1,1.61,6.82,6.82,0,0,1,.39,2.46v.68h-8.05v-1.38h6.42a3.5,3.5,0,0,0-.35-1.58,2.77,2.77,0,0,0-1-1.1,3.11,3.11,0,0,0-3.17.07,3.09,3.09,0,0,0-1.07,1.23,3.64,3.64,0,0,0-.38,1.62v.93a4.48,4.48,0,0,0,.41,2,2.89,2.89,0,0,0,1.15,1.24,3.29,3.29,0,0,0,1.71.43,3.41,3.41,0,0,0,1.14-.18,2.45,2.45,0,0,0,.89-.54,2.58,2.58,0,0,0,.58-.91l1.55.43a3.45,3.45,0,0,1-.82,1.39,4.14,4.14,0,0,1-1.43.92A5.28,5.28,0,0,1,426.17,258Z"/><path class="cls-3" d="M387.72,277.21a4.23,4.23,0,0,1-1.8-.37,3,3,0,0,1-1.76-2.84,2.68,2.68,0,0,1,.35-1.46,2.6,2.6,0,0,1,.95-.88,5.29,5.29,0,0,1,1.3-.48c.48-.1,1-.19,1.45-.25l1.55-.19a2.22,2.22,0,0,0,.87-.22.56.56,0,0,0,.27-.54v-.06a2.14,2.14,0,0,0-.54-1.56,2.25,2.25,0,0,0-1.66-.56,2.9,2.9,0,0,0-1.8.5,3,3,0,0,0-.92,1.08l-1.52-.55a3.58,3.58,0,0,1,1.09-1.48,4,4,0,0,1,1.49-.75,6.5,6.5,0,0,1,1.61-.22,6.62,6.62,0,0,1,1.16.12,4,4,0,0,1,1.27.49,2.9,2.9,0,0,1,1,1.11,4.15,4.15,0,0,1,.41,2V277H390.9v-1.42h-.08a2.9,2.9,0,0,1-.54.73,3.1,3.1,0,0,1-1,.66A3.9,3.9,0,0,1,387.72,277.21Zm.25-1.44a3.16,3.16,0,0,0,1.6-.37,2.59,2.59,0,0,0,1-1,2.5,2.5,0,0,0,.33-1.24v-1.47a.92.92,0,0,1-.44.22c-.23.06-.49.12-.79.17l-.86.12-.68.09a5.9,5.9,0,0,0-1.17.26,2,2,0,0,0-.87.54,1.36,1.36,0,0,0-.33,1,1.45,1.45,0,0,0,.62,1.26A2.81,2.81,0,0,0,388,275.77Z"/><path class="cls-3" d="M397.05,270.68V277h-1.6V266.52H397v1.63h.14a3,3,0,0,1,1.11-1.28,3.52,3.52,0,0,1,1.93-.49,3.82,3.82,0,0,1,1.86.44,3,3,0,0,1,1.24,1.3,5,5,0,0,1,.44,2.21V277h-1.61v-6.53a2.74,2.74,0,0,0-.63-1.92,2.3,2.3,0,0,0-1.76-.69,2.8,2.8,0,0,0-1.37.33,2.4,2.4,0,0,0-1,1A3.25,3.25,0,0,0,397.05,270.68Z"/><path class="cls-3" d="M408.26,270.68V277h-1.6V266.52h1.55v1.63h.13a3.07,3.07,0,0,1,1.12-1.28,3.52,3.52,0,0,1,1.93-.49,3.82,3.82,0,0,1,1.86.44,3,3,0,0,1,1.24,1.3,5,5,0,0,1,.44,2.21V277h-1.61v-6.53a2.7,2.7,0,0,0-.64-1.92,2.26,2.26,0,0,0-1.75-.69,2.8,2.8,0,0,0-1.37.33,2.4,2.4,0,0,0-.95,1A3.25,3.25,0,0,0,408.26,270.68Z"/><path class="cls-3" d="M424.45,272.7v-6.18h1.61V277h-1.61V275.2h-.11a3.34,3.34,0,0,1-1.14,1.35,3.29,3.29,0,0,1-2,.56,3.46,3.46,0,0,1-1.74-.44,2.92,2.92,0,0,1-1.2-1.3,5,5,0,0,1-.43-2.21v-6.64h1.6v6.53a2.53,2.53,0,0,0,.65,1.82,2.11,2.11,0,0,0,1.64.68,2.81,2.81,0,0,0,1.22-.3,2.66,2.66,0,0,0,1.47-2.55Z"/><path class="cls-3" d="M432.07,277.21a4.23,4.23,0,0,1-1.8-.37,3,3,0,0,1-1.76-2.84,2.68,2.68,0,0,1,.35-1.46,2.6,2.6,0,0,1,.95-.88,5.29,5.29,0,0,1,1.3-.48c.48-.1,1-.19,1.45-.25l1.55-.19a2.22,2.22,0,0,0,.87-.22.56.56,0,0,0,.27-.54v-.06a2.14,2.14,0,0,0-.54-1.56,2.25,2.25,0,0,0-1.66-.56,2.9,2.9,0,0,0-1.8.5,3,3,0,0,0-.92,1.08l-1.52-.55a3.58,3.58,0,0,1,1.09-1.48,4,4,0,0,1,1.49-.75,6.5,6.5,0,0,1,1.61-.22,6.62,6.62,0,0,1,1.16.12,4,4,0,0,1,1.27.49,2.9,2.9,0,0,1,1,1.11,4.15,4.15,0,0,1,.41,2V277h-1.61v-1.42h-.08a2.9,2.9,0,0,1-.54.73,3.1,3.1,0,0,1-1,.66A3.9,3.9,0,0,1,432.07,277.21Zm.25-1.44a3.16,3.16,0,0,0,1.6-.37,2.59,2.59,0,0,0,1-1,2.5,2.5,0,0,0,.33-1.24v-1.47a.92.92,0,0,1-.44.22c-.23.06-.49.12-.79.17l-.86.12-.68.09a5.9,5.9,0,0,0-1.17.26,2,2,0,0,0-.87.54,1.36,1.36,0,0,0-.33,1,1.45,1.45,0,0,0,.62,1.26A2.81,2.81,0,0,0,432.32,275.77Z"/><path class="cls-3" d="M441.4,263V277h-1.6V263Z"/><path class="cls-3" d="M448.72,277.19a5,5,0,0,1-2.6-.67,4.44,4.44,0,0,1-1.68-1.88,6.38,6.38,0,0,1-.59-2.81,6.55,6.55,0,0,1,.59-2.84,4.6,4.6,0,0,1,1.65-1.91,4.42,4.42,0,0,1,2.47-.7,5,5,0,0,1,1.61.28,4,4,0,0,1,1.45.88,4.16,4.16,0,0,1,1,1.61,6.75,6.75,0,0,1,.39,2.46v.68H445V270.9h6.43a3.53,3.53,0,0,0-.35-1.58,2.71,2.71,0,0,0-2.51-1.49,2.86,2.86,0,0,0-1.66.47,3.18,3.18,0,0,0-1.07,1.23,3.57,3.57,0,0,0-.37,1.62v.92a4.32,4.32,0,0,0,.41,2,2.83,2.83,0,0,0,1.14,1.25,3.39,3.39,0,0,0,1.71.42,3.47,3.47,0,0,0,1.15-.18,2.45,2.45,0,0,0,.89-.54,2.4,2.4,0,0,0,.57-.91l1.55.44a3.36,3.36,0,0,1-.82,1.38,3.86,3.86,0,0,1-1.43.93A5.2,5.2,0,0,1,448.72,277.19Z"/><path class="cls-3" d="M537.66,241.94v13.93h-1.61V241.94Z"/><path class="cls-3" d="M541.41,243.68a1.13,1.13,0,0,1-.8-.32,1,1,0,0,1-.34-.77,1,1,0,0,1,.34-.77,1.13,1.13,0,0,1,.8-.32,1.17,1.17,0,0,1,.81.32,1,1,0,0,1,.33.77,1,1,0,0,1-.33.77A1.17,1.17,0,0,1,541.41,243.68Zm-.81,12.19V245.42h1.6v10.45Z"/><path class="cls-3" d="M545.14,255.87V245.42h1.55v1.63h.14a2.59,2.59,0,0,1,1-1.3,3.18,3.18,0,0,1,1.75-.47,3,3,0,0,1,1.72.47,3.16,3.16,0,0,1,1.08,1.3h.11a3.1,3.1,0,0,1,1.2-1.29,3.71,3.71,0,0,1,1.93-.48,3.15,3.15,0,0,1,2.29.88,3.68,3.68,0,0,1,.89,2.72v7h-1.6v-7a2,2,0,0,0-.64-1.66,2.31,2.31,0,0,0-1.48-.49,2.19,2.19,0,0,0-1.71.66,2.36,2.36,0,0,0-.61,1.68v6.8h-1.63v-7.16a1.89,1.89,0,0,0-.58-1.44,2.08,2.08,0,0,0-1.49-.54,2.23,2.23,0,0,0-1.17.33,2.49,2.49,0,0,0-.87.92,2.74,2.74,0,0,0-.33,1.36v6.53Z"/><path class="cls-3" d="M562.61,243.68a1.15,1.15,0,0,1-.81-.32,1,1,0,0,1-.34-.77,1.05,1.05,0,0,1,.34-.77,1.15,1.15,0,0,1,.81-.32,1.13,1.13,0,0,1,.8.32,1,1,0,0,1,.34.77,1,1,0,0,1-.34.77A1.13,1.13,0,0,1,562.61,243.68Zm-.82,12.19V245.42h1.61v10.45Z"/><path class="cls-3" d="M570.88,245.42v1.36h-5.42v-1.36Zm-3.84-2.5h1.61v10a1.94,1.94,0,0,0,.2,1,.92.92,0,0,0,.51.45,1.92,1.92,0,0,0,.67.11,2.59,2.59,0,0,0,.44,0l.27,0,.33,1.44a2.2,2.2,0,0,1-.46.13,3.73,3.73,0,0,1-.74.06,3.16,3.16,0,0,1-1.33-.29,2.56,2.56,0,0,1-1.07-.89,2.5,2.5,0,0,1-.43-1.51Z"/><path class="cls-3" d="M577.57,256.09a4.93,4.93,0,0,1-2.6-.67,4.44,4.44,0,0,1-1.68-1.88,6.38,6.38,0,0,1-.59-2.81,6.55,6.55,0,0,1,.59-2.84,4.58,4.58,0,0,1,1.64-1.91,4.47,4.47,0,0,1,2.48-.7,5,5,0,0,1,1.61.28,4,4,0,0,1,1.45.88,4.28,4.28,0,0,1,1,1.61,6.75,6.75,0,0,1,.39,2.46v.68h-8.06V249.8h6.42a3.4,3.4,0,0,0-.35-1.58,2.67,2.67,0,0,0-1-1.09,2.77,2.77,0,0,0-1.51-.4,2.86,2.86,0,0,0-1.66.47,3.11,3.11,0,0,0-1.07,1.23,3.57,3.57,0,0,0-.37,1.62V251a4.32,4.32,0,0,0,.41,2,2.83,2.83,0,0,0,1.14,1.25,3.39,3.39,0,0,0,1.71.42,3.51,3.51,0,0,0,1.15-.18,2.33,2.33,0,0,0,.88-.54,2.37,2.37,0,0,0,.58-.91l1.55.44a3.36,3.36,0,0,1-.82,1.38,3.86,3.86,0,0,1-1.43.93A5.2,5.2,0,0,1,577.57,256.09Z"/><path class="cls-3" d="M540.27,279.16a5.93,5.93,0,0,1-2-.3,4.12,4.12,0,0,1-1.39-.77,4.2,4.2,0,0,1-.88-1l1.28-.89a8.35,8.35,0,0,0,.55.65,2.69,2.69,0,0,0,.91.65,3.68,3.68,0,0,0,1.53.27,3.41,3.41,0,0,0,2.09-.61,2.23,2.23,0,0,0,.82-1.92v-2.12H543a6.51,6.51,0,0,1-.5.71,3,3,0,0,1-.92.74,3.5,3.5,0,0,1-1.62.32,4.33,4.33,0,0,1-2.27-.6,4.2,4.2,0,0,1-1.59-1.74,6.16,6.16,0,0,1-.58-2.77,6.39,6.39,0,0,1,.57-2.8,4.28,4.28,0,0,1,1.57-1.85,4.12,4.12,0,0,1,2.32-.66,3.29,3.29,0,0,1,1.63.34,2.73,2.73,0,0,1,.92.76,8.38,8.38,0,0,1,.5.7h.16v-1.66h1.56v10.74a3.74,3.74,0,0,1-.61,2.2,3.53,3.53,0,0,1-1.64,1.24A6.11,6.11,0,0,1,540.27,279.16Zm-.06-5.74a3,3,0,0,0,1.64-.44,2.78,2.78,0,0,0,1-1.28,5.12,5.12,0,0,0,.35-2,5.53,5.53,0,0,0-.34-2,3,3,0,0,0-1-1.36,3,3,0,0,0-3.34,0,3.16,3.16,0,0,0-1,1.39,5.39,5.39,0,0,0-.33,1.93,5,5,0,0,0,.34,1.92,2.72,2.72,0,0,0,2.7,1.78Z"/><path class="cls-3" d="M548.54,262.83a1.12,1.12,0,0,1-.81-.32,1,1,0,0,1-.33-.76,1,1,0,0,1,.33-.77,1.19,1.19,0,0,1,1.62,0,1,1,0,0,1,.33.77,1,1,0,0,1-.33.76A1.12,1.12,0,0,1,548.54,262.83ZM547.72,275V264.58h1.61V275Z"/><path class="cls-3" d="M556.51,275.24a4.4,4.4,0,0,1-4.14-2.56,6.41,6.41,0,0,1-.59-2.83,6.57,6.57,0,0,1,.59-2.85,4.4,4.4,0,0,1,4.14-2.56,4.51,4.51,0,0,1,2.48.67,4.57,4.57,0,0,1,1.66,1.89,6.43,6.43,0,0,1,.6,2.85,6.28,6.28,0,0,1-.6,2.83,4.57,4.57,0,0,1-1.66,1.89A4.51,4.51,0,0,1,556.51,275.24Zm0-1.44a2.73,2.73,0,0,0,1.77-.55,3.27,3.27,0,0,0,1-1.45,5.62,5.62,0,0,0,.33-1.95,5.7,5.7,0,0,0-.33-2,3.3,3.3,0,0,0-1-1.46,2.74,2.74,0,0,0-1.77-.56,2.78,2.78,0,0,0-1.77.56,3.28,3.28,0,0,0-1,1.46,5.48,5.48,0,0,0-.34,2,5.4,5.4,0,0,0,.34,1.95,3.25,3.25,0,0,0,1,1.45A2.77,2.77,0,0,0,556.51,273.8Z"/><path class="cls-3" d="M563.7,275V264.58h1.55v1.57h.11a2.49,2.49,0,0,1,1-1.25,3,3,0,0,1,1.69-.49h.44l.4,0v1.63l-.37-.06a4,4,0,0,0-.61-.05,2.87,2.87,0,0,0-1.36.32,2.46,2.46,0,0,0-.94.87,2.42,2.42,0,0,0-.34,1.26V275Z"/><path class="cls-3" d="M572.43,268.74V275h-1.61V264.58h1.55v1.63h.14a3,3,0,0,1,1.12-1.28,3.41,3.41,0,0,1,1.93-.49,3.87,3.87,0,0,1,1.86.43,3,3,0,0,1,1.23,1.31,4.8,4.8,0,0,1,.45,2.21V275h-1.61v-6.53a2.7,2.7,0,0,0-.64-1.92,2.27,2.27,0,0,0-1.75-.69,2.74,2.74,0,0,0-1.38.34,2.32,2.32,0,0,0-.94,1A3.09,3.09,0,0,0,572.43,268.74Z"/><path class="cls-3" d="M585.11,275.27a4.24,4.24,0,0,1-1.8-.38A3.12,3.12,0,0,1,582,273.8a3.06,3.06,0,0,1-.48-1.74,2.65,2.65,0,0,1,.36-1.46,2.41,2.41,0,0,1,.94-.88,5.36,5.36,0,0,1,1.31-.48c.48-.11,1-.19,1.45-.26l1.55-.18a2.71,2.71,0,0,0,.87-.22.59.59,0,0,0,.27-.55v0a2.13,2.13,0,0,0-.55-1.57,2.21,2.21,0,0,0-1.65-.56,2.85,2.85,0,0,0-2.72,1.58l-1.53-.54a3.73,3.73,0,0,1,1.1-1.49,4.27,4.27,0,0,1,1.49-.75,6,6,0,0,1,2.76-.09,3.6,3.6,0,0,1,1.27.49,2.75,2.75,0,0,1,1,1.1,4.18,4.18,0,0,1,.41,2V275h-1.61v-1.41h-.08a2.9,2.9,0,0,1-.54.73,3.21,3.21,0,0,1-1,.66A3.9,3.9,0,0,1,585.11,275.27Zm.24-1.44a3.2,3.2,0,0,0,1.61-.38,2.64,2.64,0,0,0,1-1,2.54,2.54,0,0,0,.33-1.25v-1.47a.93.93,0,0,1-.44.22,5.18,5.18,0,0,1-.79.17l-.87.13-.67.08a6.7,6.7,0,0,0-1.17.26,2,2,0,0,0-.87.54,1.37,1.37,0,0,0-.33,1,1.43,1.43,0,0,0,.62,1.26A2.78,2.78,0,0,0,585.35,273.83Z"/><path class="cls-3" d="M594.44,261.09V275h-1.6V261.09Z"/><path class="cls-3" d="M598.2,262.83a1.09,1.09,0,0,1-.81-.32,1,1,0,0,1-.34-.76,1,1,0,0,1,.34-.77,1.17,1.17,0,0,1,1.61,0,1,1,0,0,1,.34.77,1,1,0,0,1-.34.76A1.09,1.09,0,0,1,598.2,262.83ZM597.38,275V264.58H599V275Z"/><path class="cls-3" d="M606.3,275.24a4.86,4.86,0,0,1-2.6-.67,4.39,4.39,0,0,1-1.68-1.88,6.35,6.35,0,0,1-.59-2.81,6.51,6.51,0,0,1,.59-2.83,4.56,4.56,0,0,1,1.65-1.92,4.41,4.41,0,0,1,2.47-.69,5,5,0,0,1,1.61.27,4,4,0,0,1,1.45.88,4.24,4.24,0,0,1,1,1.61,6.82,6.82,0,0,1,.39,2.46v.68h-8V269H609a3.5,3.5,0,0,0-.35-1.58,2.79,2.79,0,0,0-1-1.1,2.83,2.83,0,0,0-1.51-.4,2.94,2.94,0,0,0-1.66.47,3.26,3.26,0,0,0-1.07,1.23,3.63,3.63,0,0,0-.37,1.62v.93a4.48,4.48,0,0,0,.41,2,2.83,2.83,0,0,0,1.15,1.24,3.26,3.26,0,0,0,1.7.43,3.43,3.43,0,0,0,1.15-.18,2.45,2.45,0,0,0,.89-.54,2.58,2.58,0,0,0,.58-.91l1.55.43a3.47,3.47,0,0,1-.83,1.39,4,4,0,0,1-1.43.92A5.2,5.2,0,0,1,606.3,275.24Z"/><path class="cls-3" d="M613.08,275V264.58h1.55v1.57h.11a2.49,2.49,0,0,1,1-1.25,3,3,0,0,1,1.69-.49h.44l.4,0v1.63l-.37-.06a3.86,3.86,0,0,0-.61-.05,2.81,2.81,0,0,0-1.35.32,2.39,2.39,0,0,0-.94.87,2.34,2.34,0,0,0-.35,1.26V275Z"/><path class="cls-3" d="M624.12,275.24a4.4,4.4,0,0,1-4.13-2.56,6.28,6.28,0,0,1-.6-2.83A6.43,6.43,0,0,1,620,267a4.58,4.58,0,0,1,8.27,0,6.43,6.43,0,0,1,.6,2.85,6.28,6.28,0,0,1-.6,2.83,4.4,4.4,0,0,1-4.14,2.56Zm0-1.44a2.73,2.73,0,0,0,1.77-.55,3.19,3.19,0,0,0,1-1.45,5.62,5.62,0,0,0,.33-1.95,5.7,5.7,0,0,0-.33-2,3.22,3.22,0,0,0-1-1.46,3.06,3.06,0,0,0-3.53,0,3.22,3.22,0,0,0-1,1.46,5.7,5.7,0,0,0-.33,2,5.62,5.62,0,0,0,.33,1.95,3.19,3.19,0,0,0,1,1.45A2.72,2.72,0,0,0,624.12,273.8Z"/><path class="cls-3" d="M70.47,320.63H68.7l5.11-13.93h1.74l5.12,13.93H78.9L74.74,308.9h-.11Zm.65-5.44h7.13v1.49H71.12Z"/><path class="cls-3" d="M89.21,316.36v-6.18h1.61v10.45H89.21v-1.77H89.1A3.34,3.34,0,0,1,88,320.21a3.29,3.29,0,0,1-2,.55,3.45,3.45,0,0,1-1.74-.43,3,3,0,0,1-1.2-1.3,5,5,0,0,1-.43-2.21v-6.64h1.6v6.53a2.53,2.53,0,0,0,.65,1.82,2.13,2.13,0,0,0,1.64.68A2.75,2.75,0,0,0,88.79,318,2.85,2.85,0,0,0,89.21,316.36Z"/><path class="cls-3" d="M101.16,312.52l-1.44.41a3.37,3.37,0,0,0-.4-.71,1.91,1.91,0,0,0-.71-.56,2.59,2.59,0,0,0-1.15-.23,2.79,2.79,0,0,0-1.6.44,1.3,1.3,0,0,0-.63,1.11,1.15,1.15,0,0,0,.43.95,3.8,3.8,0,0,0,1.36.58l1.55.38a4.27,4.27,0,0,1,2.09,1,2.47,2.47,0,0,1,.69,1.8,2.62,2.62,0,0,1-.52,1.6,3.53,3.53,0,0,1-1.43,1.12,5.22,5.22,0,0,1-2.13.4,4.72,4.72,0,0,1-2.65-.69,3.09,3.09,0,0,1-1.33-2l1.53-.38a2.09,2.09,0,0,0,.82,1.27,2.78,2.78,0,0,0,1.6.42A3,3,0,0,0,99,319a1.38,1.38,0,0,0,.67-1.15,1.24,1.24,0,0,0-.38-.92,2.55,2.55,0,0,0-1.17-.55l-1.74-.41a4.15,4.15,0,0,1-2.11-1.06,2.53,2.53,0,0,1-.67-1.8,2.57,2.57,0,0,1,.5-1.56,3.37,3.37,0,0,1,1.37-1.07,4.74,4.74,0,0,1,2-.39,4,4,0,0,1,2.44.68A3.75,3.75,0,0,1,101.16,312.52Z"/><path class="cls-3" d="M108.31,310.18v1.36H102.9v-1.36Zm-3.83-2.5h1.6v9.95a2.06,2.06,0,0,0,.2,1,1,1,0,0,0,.52.45,1.85,1.85,0,0,0,.67.11,2.68,2.68,0,0,0,.44,0l.27-.05.32,1.44a2.88,2.88,0,0,1-.45.13,3.8,3.8,0,0,1-.74.06,3.1,3.1,0,0,1-1.33-.29,2.47,2.47,0,0,1-1.5-2.4Z"/><path class="cls-3" d="M110.73,320.63V310.18h1.56v1.58h.1a2.5,2.5,0,0,1,1-1.26,3.06,3.06,0,0,1,1.69-.48h.44l.4,0v1.64l-.37-.07a4,4,0,0,0-.61,0,2.87,2.87,0,0,0-1.36.31,2.46,2.46,0,0,0-.94.87,2.34,2.34,0,0,0-.34,1.27v6.61Z"/><path class="cls-3" d="M120.94,320.87a4.06,4.06,0,0,1-1.8-.38,3,3,0,0,1-1.77-2.83,2.68,2.68,0,0,1,.36-1.46,2.49,2.49,0,0,1,.94-.88,5.36,5.36,0,0,1,1.31-.48c.48-.1,1-.19,1.45-.25l1.55-.19a2.47,2.47,0,0,0,.87-.22.59.59,0,0,0,.27-.55v-.05a2.11,2.11,0,0,0-.55-1.56,2.17,2.17,0,0,0-1.65-.56,3,3,0,0,0-1.81.5,3,3,0,0,0-.91,1.08l-1.53-.55a3.67,3.67,0,0,1,1.09-1.48,4.07,4.07,0,0,1,1.5-.75,6,6,0,0,1,1.6-.22,6.52,6.52,0,0,1,1.16.12,3.68,3.68,0,0,1,1.27.49,2.78,2.78,0,0,1,1,1.11,4.11,4.11,0,0,1,.41,2v6.89h-1.61v-1.42H124a2.9,2.9,0,0,1-.54.73,3.21,3.21,0,0,1-1,.66A3.9,3.9,0,0,1,120.94,320.87Zm.24-1.44a3.2,3.2,0,0,0,1.61-.37,2.57,2.57,0,0,0,1-1,2.41,2.41,0,0,0,.34-1.24v-1.47a1,1,0,0,1-.44.22c-.23.06-.5.12-.79.17l-.87.12-.67.08a6.69,6.69,0,0,0-1.17.27,2.1,2.1,0,0,0-.87.53,1.37,1.37,0,0,0-.33,1,1.43,1.43,0,0,0,.62,1.26A2.7,2.7,0,0,0,121.18,319.43Z"/><path class="cls-3" d="M130.27,306.7v13.93h-1.61V306.7Z"/><path class="cls-3" d="M134,308.44a1.13,1.13,0,0,1-.81-.32,1,1,0,0,1-.34-.77,1,1,0,0,1,.34-.77,1.17,1.17,0,0,1,1.61,0,1,1,0,0,1,.34.77,1,1,0,0,1-.34.77A1.13,1.13,0,0,1,134,308.44Zm-.82,12.19V310.18h1.6v10.45Z"/><path class="cls-3" d="M140.83,320.87a4.1,4.1,0,0,1-1.81-.38,3,3,0,0,1-1.28-1.09,3.06,3.06,0,0,1-.48-1.74,2.68,2.68,0,0,1,.36-1.46,2.49,2.49,0,0,1,.94-.88,5.36,5.36,0,0,1,1.31-.48c.48-.1,1-.19,1.45-.25l1.54-.19a2.47,2.47,0,0,0,.88-.22.59.59,0,0,0,.27-.55v-.05a2.11,2.11,0,0,0-.55-1.56,2.17,2.17,0,0,0-1.65-.56,3,3,0,0,0-1.81.5,3,3,0,0,0-.91,1.08l-1.53-.55a3.67,3.67,0,0,1,1.09-1.48,4.07,4.07,0,0,1,1.5-.75,6,6,0,0,1,1.6-.22,6.52,6.52,0,0,1,1.16.12,3.68,3.68,0,0,1,1.27.49,2.78,2.78,0,0,1,1,1.11,4.11,4.11,0,0,1,.41,2v6.89H144v-1.42h-.08a2.73,2.73,0,0,1-.55.73,3.05,3.05,0,0,1-1,.66A3.93,3.93,0,0,1,140.83,320.87Zm.24-1.44a3.2,3.2,0,0,0,1.61-.37,2.57,2.57,0,0,0,1-1,2.41,2.41,0,0,0,.34-1.24v-1.47a1,1,0,0,1-.44.22c-.23.06-.5.12-.79.17l-.87.12-.68.08a6.79,6.79,0,0,0-1.16.27,2.1,2.1,0,0,0-.87.53,1.37,1.37,0,0,0-.33,1,1.43,1.43,0,0,0,.62,1.26A2.68,2.68,0,0,0,141.07,319.43Z"/><path class="cls-3" d="M80.45,364.8H78.77a3.5,3.5,0,0,0-.53-1.28,3.43,3.43,0,0,0-.89-.93,4,4,0,0,0-1.17-.57,4.91,4.91,0,0,0-1.33-.19,4.27,4.27,0,0,0-2.29.64,4.47,4.47,0,0,0-1.63,1.89,8.05,8.05,0,0,0,0,6.1,4.47,4.47,0,0,0,1.63,1.89,4.27,4.27,0,0,0,2.29.64,4.91,4.91,0,0,0,1.33-.19,4,4,0,0,0,1.17-.57,3.43,3.43,0,0,0,.89-.93,3.57,3.57,0,0,0,.53-1.28h1.68a5.58,5.58,0,0,1-.69,1.91,5.26,5.26,0,0,1-1.25,1.44,5.42,5.42,0,0,1-1.68.89,6.41,6.41,0,0,1-2,.31,5.83,5.83,0,0,1-3.17-.87,6,6,0,0,1-2.19-2.48,9.58,9.58,0,0,1,0-7.62,6,6,0,0,1,2.19-2.48,5.83,5.83,0,0,1,3.17-.87,6.41,6.41,0,0,1,2,.31,5.23,5.23,0,0,1,2.93,2.32A5.55,5.55,0,0,1,80.45,364.8Z"/><path class="cls-3" d="M83.77,362.19a1.13,1.13,0,0,1-.8-.32,1,1,0,0,1-.34-.77,1,1,0,0,1,.34-.77,1.13,1.13,0,0,1,.8-.32,1.17,1.17,0,0,1,.81.32,1,1,0,0,1,.33.77,1,1,0,0,1-.33.77A1.17,1.17,0,0,1,83.77,362.19ZM83,374.38V363.93h1.6v10.45Z"/><path class="cls-3" d="M89.1,368.09v6.29H87.5V363.93h1.55v1.63h.14a2.93,2.93,0,0,1,1.11-1.28,3.43,3.43,0,0,1,1.93-.49,3.93,3.93,0,0,1,1.86.43,3,3,0,0,1,1.24,1.31,4.94,4.94,0,0,1,.44,2.21v6.64H94.16v-6.53a2.75,2.75,0,0,0-.63-1.93,2.3,2.3,0,0,0-1.76-.69,2.7,2.7,0,0,0-1.37.34,2.34,2.34,0,0,0-1,1A3.23,3.23,0,0,0,89.1,368.09Z"/><path class="cls-3" d="M101.78,374.62a4.24,4.24,0,0,1-1.8-.38,3,3,0,0,1-1.28-1.09,3.06,3.06,0,0,1-.48-1.74,2.74,2.74,0,0,1,.35-1.46,2.51,2.51,0,0,1,1-.88,5.22,5.22,0,0,1,1.31-.48,14.46,14.46,0,0,1,1.44-.25c.64-.09,1.15-.15,1.55-.19a2.35,2.35,0,0,0,.87-.22.58.58,0,0,0,.28-.55v-.05a2.19,2.19,0,0,0-.55-1.57,2.25,2.25,0,0,0-1.66-.55,2.87,2.87,0,0,0-1.8.5,3,3,0,0,0-.92,1.07l-1.52-.54a3.78,3.78,0,0,1,1.09-1.49,4.13,4.13,0,0,1,1.5-.74,5.93,5.93,0,0,1,1.6-.22,6.62,6.62,0,0,1,1.16.12,3.68,3.68,0,0,1,1.27.49,2.76,2.76,0,0,1,1,1.11,4,4,0,0,1,.41,2v6.89H105V373h-.09a2.48,2.48,0,0,1-.54.73,3.05,3.05,0,0,1-1,.66A4,4,0,0,1,101.78,374.62Zm.25-1.44a3.22,3.22,0,0,0,1.61-.38,2.54,2.54,0,0,0,1-1,2.45,2.45,0,0,0,.34-1.25v-1.47a.92.92,0,0,1-.45.23c-.23.06-.49.12-.79.17l-.86.12-.68.08A6.58,6.58,0,0,0,101,370a2,2,0,0,0-.88.54,1.37,1.37,0,0,0-.33,1,1.41,1.41,0,0,0,.63,1.26A2.68,2.68,0,0,0,102,373.18Z"/><path class="cls-3" d="M77.84,413h1.69v9.23a5,5,0,0,1-.67,2.55A4.8,4.8,0,0,1,77,426.54a6.69,6.69,0,0,1-5.71,0,4.67,4.67,0,0,1-1.89-1.76,4.86,4.86,0,0,1-.67-2.55V413h1.69v9.09a3.67,3.67,0,0,0,.44,1.81,3.17,3.17,0,0,0,1.29,1.25,4.65,4.65,0,0,0,4,0,3.09,3.09,0,0,0,1.28-1.25,3.57,3.57,0,0,0,.45-1.81Z"/><path class="cls-3" d="M84.29,420.65v6.29H82.68V416.49h1.55v1.63h.14a3,3,0,0,1,1.12-1.28,3.41,3.41,0,0,1,1.93-.49,3.8,3.8,0,0,1,1.85.43,2.92,2.92,0,0,1,1.24,1.31A4.81,4.81,0,0,1,91,420.3v6.64h-1.6V420.4a2.7,2.7,0,0,0-.64-1.92,2.27,2.27,0,0,0-1.75-.69,2.74,2.74,0,0,0-1.38.34,2.32,2.32,0,0,0-.94,1A3.12,3.12,0,0,0,84.29,420.65Z"/><path class="cls-3" d="M94.71,414.75a1.17,1.17,0,0,1-.81-.32,1,1,0,0,1-.33-.77,1,1,0,0,1,.33-.77,1.19,1.19,0,0,1,1.62,0,1,1,0,0,1,.33.77,1,1,0,0,1-.33.77A1.17,1.17,0,0,1,94.71,414.75Zm-.82,12.19V416.49H95.5v10.45Z"/><path class="cls-3" d="M102.68,427.15a4.54,4.54,0,0,1-2.48-.67,4.6,4.6,0,0,1-1.66-1.88,7.13,7.13,0,0,1,0-5.68,4.54,4.54,0,0,1,1.66-1.9,4.92,4.92,0,0,1,5,0,4.54,4.54,0,0,1,1.66,1.9,7,7,0,0,1,0,5.68,4.6,4.6,0,0,1-1.66,1.88A4.54,4.54,0,0,1,102.68,427.15Zm0-1.44a2.73,2.73,0,0,0,1.77-.55,3.27,3.27,0,0,0,1-1.45,5.61,5.61,0,0,0,.33-1.94,5.72,5.72,0,0,0-.33-2,3.3,3.3,0,0,0-1-1.46,3.08,3.08,0,0,0-3.54,0,3.28,3.28,0,0,0-1,1.46,5.49,5.49,0,0,0-.34,2,5.38,5.38,0,0,0,.34,1.94,3.25,3.25,0,0,0,1,1.45A2.75,2.75,0,0,0,102.68,425.71Z"/><path class="cls-3" d="M111.47,420.65v6.29h-1.61V416.49h1.56v1.63h.13a3,3,0,0,1,1.12-1.28,3.43,3.43,0,0,1,1.93-.49,3.81,3.81,0,0,1,1.86.43,3,3,0,0,1,1.23,1.31,4.8,4.8,0,0,1,.45,2.21v6.64h-1.61V420.4a2.7,2.7,0,0,0-.64-1.92,2.26,2.26,0,0,0-1.75-.69,2.68,2.68,0,0,0-1.37.34,2.28,2.28,0,0,0-1,1A3.23,3.23,0,0,0,111.47,420.65Z"/><path class="cls-3" d="M125.46,427.15a4.87,4.87,0,0,1-2.61-.67,4.49,4.49,0,0,1-1.68-1.87,6.43,6.43,0,0,1-.59-2.82,6.51,6.51,0,0,1,.59-2.83,4.63,4.63,0,0,1,1.65-1.92,4.41,4.41,0,0,1,2.47-.69,5,5,0,0,1,1.61.27,4,4,0,0,1,1.45.88,4.2,4.2,0,0,1,1,1.61,6.84,6.84,0,0,1,.39,2.47v.68h-8v-1.39h6.42a3.5,3.5,0,0,0-.35-1.58,2.79,2.79,0,0,0-1-1.1,3.06,3.06,0,0,0-3.16.08,3.1,3.1,0,0,0-1.08,1.22,3.77,3.77,0,0,0-.37,1.62V422a4.48,4.48,0,0,0,.41,2,3,3,0,0,0,1.15,1.25,3.69,3.69,0,0,0,2.85.24,2.45,2.45,0,0,0,.89-.54,2.58,2.58,0,0,0,.58-.91l1.55.43a3.36,3.36,0,0,1-.83,1.39,4,4,0,0,1-1.42.92A5.28,5.28,0,0,1,125.46,427.15Z"/><path class="cls-3" d="M137.83,426.94V413h8.41v1.5h-6.72v4.71h6.29v1.49h-6.29v4.74h6.83v1.5Z"/><path class="cls-3" d="M155.66,422.66v-6.17h1.6v10.45h-1.6v-1.77h-.11a3.45,3.45,0,0,1-1.15,1.35,3.27,3.27,0,0,1-2,.55,3.45,3.45,0,0,1-1.74-.43,3,3,0,0,1-1.19-1.31,4.92,4.92,0,0,1-.44-2.2v-6.64h1.61V423a2.53,2.53,0,0,0,.64,1.82,2.18,2.18,0,0,0,1.64.68,2.66,2.66,0,0,0,1.22-.31,2.59,2.59,0,0,0,1-.93A2.89,2.89,0,0,0,155.66,422.66Z"/><path class="cls-3" d="M160.2,426.94V416.49h1.55v1.58h.11a2.48,2.48,0,0,1,1-1.26,3,3,0,0,1,1.69-.49H165l.4,0V418l-.37-.06a3.86,3.86,0,0,0-.61-.05,2.83,2.83,0,0,0-1.35.32,2.39,2.39,0,0,0-.94.87,2.33,2.33,0,0,0-.34,1.26v6.62Z"/><path class="cls-3" d="M171.25,427.15a4.41,4.41,0,0,1-4.14-2.55,7,7,0,0,1,0-5.68,4.47,4.47,0,0,1,1.66-1.9,4.92,4.92,0,0,1,5,0,4.54,4.54,0,0,1,1.66,1.9,7.13,7.13,0,0,1,0,5.68,4.6,4.6,0,0,1-1.66,1.88A4.54,4.54,0,0,1,171.25,427.15Zm0-1.44a2.77,2.77,0,0,0,1.77-.55,3.25,3.25,0,0,0,1-1.45,5.61,5.61,0,0,0,.34-1.94,5.72,5.72,0,0,0-.34-2,3.28,3.28,0,0,0-1-1.46,2.78,2.78,0,0,0-1.77-.56,2.74,2.74,0,0,0-1.77.56,3.22,3.22,0,0,0-1,1.46,5.72,5.72,0,0,0-.33,2,5.61,5.61,0,0,0,.33,1.94,3.19,3.19,0,0,0,1,1.45A2.73,2.73,0,0,0,171.25,425.71Z"/><path class="cls-3" d="M178.43,430.85V416.49H180v1.66h.19c.12-.18.28-.42.49-.7a2.86,2.86,0,0,1,.92-.76,3.19,3.19,0,0,1,1.61-.34,4.16,4.16,0,0,1,2.33.66,4.4,4.4,0,0,1,1.57,1.87,7.61,7.61,0,0,1,0,5.73,4.43,4.43,0,0,1-1.57,1.88,4.06,4.06,0,0,1-2.3.66,3.36,3.36,0,0,1-1.61-.33,3,3,0,0,1-.94-.77c-.21-.29-.38-.53-.5-.72H180v5.52Zm1.58-9.14a5.87,5.87,0,0,0,.34,2.09,3.1,3.1,0,0,0,1,1.4,2.6,2.6,0,0,0,1.63.51,2.66,2.66,0,0,0,1.68-.53,3.14,3.14,0,0,0,1-1.45,5.59,5.59,0,0,0,.35-2,5.47,5.47,0,0,0-.34-2,3.13,3.13,0,0,0-1-1.41,2.75,2.75,0,0,0-1.7-.52,2.72,2.72,0,0,0-1.65.5,3,3,0,0,0-1,1.37A5.61,5.61,0,0,0,180,421.71Z"/><path class="cls-3" d="M194.48,427.15a4.86,4.86,0,0,1-2.6-.67,4.36,4.36,0,0,1-1.68-1.87,6.43,6.43,0,0,1-.59-2.82,6.51,6.51,0,0,1,.59-2.83,4.56,4.56,0,0,1,1.65-1.92,4.41,4.41,0,0,1,2.47-.69,5,5,0,0,1,1.61.27,4.13,4.13,0,0,1,1.45.88,4.31,4.31,0,0,1,1,1.61,6.84,6.84,0,0,1,.39,2.47v.68h-8.06v-1.39h6.43a3.5,3.5,0,0,0-.35-1.58,2.79,2.79,0,0,0-1-1.1,3.08,3.08,0,0,0-3.17.08,3.15,3.15,0,0,0-1.07,1.22,3.63,3.63,0,0,0-.37,1.62V422a4.35,4.35,0,0,0,.41,2,2.85,2.85,0,0,0,1.15,1.25,3.35,3.35,0,0,0,1.7.42,3.47,3.47,0,0,0,1.15-.18,2.29,2.29,0,0,0,1.46-1.45l1.56.43a3.47,3.47,0,0,1-.83,1.39,4,4,0,0,1-1.43.92A5.2,5.2,0,0,1,194.48,427.15Z"/><path class="cls-3" d="M204.33,427.18a4.24,4.24,0,0,1-1.8-.38,3.05,3.05,0,0,1-1.29-1.09,3.14,3.14,0,0,1-.47-1.74,2.74,2.74,0,0,1,.35-1.46,2.51,2.51,0,0,1,.95-.88,5.22,5.22,0,0,1,1.31-.48,14,14,0,0,1,1.44-.25c.64-.09,1.15-.15,1.55-.19a2.57,2.57,0,0,0,.87-.22.6.6,0,0,0,.28-.55v-.05a2.19,2.19,0,0,0-.55-1.57,2.25,2.25,0,0,0-1.66-.55,2.83,2.83,0,0,0-1.8.5,2.92,2.92,0,0,0-.92,1.07l-1.52-.54a3.62,3.62,0,0,1,1.09-1.49,4.09,4.09,0,0,1,1.49-.74,6.06,6.06,0,0,1,1.61-.22,6.62,6.62,0,0,1,1.16.12,3.75,3.75,0,0,1,1.27.49,2.76,2.76,0,0,1,1,1.11,4.11,4.11,0,0,1,.41,2v6.89h-1.6v-1.42h-.09a2.9,2.9,0,0,1-.54.73,3.05,3.05,0,0,1-1,.66A4,4,0,0,1,204.33,427.18Zm.25-1.44a3.22,3.22,0,0,0,1.61-.38,2.69,2.69,0,0,0,1-1,2.55,2.55,0,0,0,.34-1.25v-1.47a.92.92,0,0,1-.45.23,6.45,6.45,0,0,1-.79.16l-.86.13-.68.08a6.7,6.7,0,0,0-1.17.26,2,2,0,0,0-.87.54,1.37,1.37,0,0,0-.33,1,1.41,1.41,0,0,0,.63,1.26A2.68,2.68,0,0,0,204.58,425.74Z"/><path class="cls-3" d="M68.7,481V467.07h1.69v6.21h7.42v-6.21H79.5V481H77.81v-6.23H70.39V481Z"/><path class="cls-3" d="M86.9,481.22a4.4,4.4,0,0,1-4.14-2.56,6.28,6.28,0,0,1-.59-2.83,6.42,6.42,0,0,1,.59-2.85A4.58,4.58,0,0,1,91,473a6.42,6.42,0,0,1,.59,2.85,6.28,6.28,0,0,1-.59,2.83,4.4,4.4,0,0,1-4.14,2.56Zm0-1.44a2.73,2.73,0,0,0,1.77-.55,3.35,3.35,0,0,0,1-1.45,5.62,5.62,0,0,0,.33-1.95,5.7,5.7,0,0,0-.33-1.95,3.38,3.38,0,0,0-1-1.46,3.08,3.08,0,0,0-3.54,0,3.38,3.38,0,0,0-1,1.46,5.7,5.7,0,0,0-.33,1.95,5.62,5.62,0,0,0,.33,1.95,3.35,3.35,0,0,0,1,1.45A2.73,2.73,0,0,0,86.9,479.78Z"/><path class="cls-3" d="M95.69,474.72V481H94.08V470.56h1.55v1.63h.14a3,3,0,0,1,1.12-1.28,3.41,3.41,0,0,1,1.93-.49,3.8,3.8,0,0,1,1.85.43,2.92,2.92,0,0,1,1.24,1.31,4.81,4.81,0,0,1,.44,2.21V481h-1.6v-6.53a2.7,2.7,0,0,0-.64-1.92,2.28,2.28,0,0,0-1.76-.69,2.73,2.73,0,0,0-1.37.34,2.32,2.32,0,0,0-.94,1A3.09,3.09,0,0,0,95.69,474.72Z"/><path class="cls-3" d="M109.51,485.14a5.93,5.93,0,0,1-2-.3,4.12,4.12,0,0,1-1.39-.77,4.35,4.35,0,0,1-.88-1l1.28-.9a8.35,8.35,0,0,0,.55.65,2.8,2.8,0,0,0,.91.65,3.67,3.67,0,0,0,1.53.28,3.41,3.41,0,0,0,2.09-.62,2.21,2.21,0,0,0,.82-1.92v-2.12h-.13c-.12.19-.29.43-.5.71a3,3,0,0,1-.93.74,3.5,3.5,0,0,1-1.62.32,4.35,4.35,0,0,1-2.27-.6,4.2,4.2,0,0,1-1.59-1.74,6.16,6.16,0,0,1-.58-2.77,6.42,6.42,0,0,1,.57-2.8,4.28,4.28,0,0,1,1.57-1.85,4.16,4.16,0,0,1,2.33-.66,3.25,3.25,0,0,1,1.62.34,2.86,2.86,0,0,1,.92.76,7.74,7.74,0,0,1,.5.7h.17v-1.66H114V481.3a3.74,3.74,0,0,1-.61,2.2,3.55,3.55,0,0,1-1.63,1.24A6.17,6.17,0,0,1,109.51,485.14Zm-.05-5.74a2.94,2.94,0,0,0,1.63-.44,2.8,2.8,0,0,0,1-1.27,5.21,5.21,0,0,0,.35-2,5.32,5.32,0,0,0-.34-2,3,3,0,0,0-1-1.36,3,3,0,0,0-3.34,0,3.07,3.07,0,0,0-1,1.39,5.18,5.18,0,0,0-.34,1.93,5,5,0,0,0,.34,1.92,2.72,2.72,0,0,0,2.71,1.78Z"/><path class="cls-3" d="M122.57,481V467.07h1.69V474h.16l6.26-6.91h2.2L127,473.36l5.85,7.64h-2L126,474.53l-1.74,2V481Z"/><path class="cls-3" d="M138.32,481.22a4.4,4.4,0,0,1-4.13-2.56,6.28,6.28,0,0,1-.6-2.83,6.43,6.43,0,0,1,.6-2.85,4.58,4.58,0,0,1,8.27,0,6.43,6.43,0,0,1,.6,2.85,6.28,6.28,0,0,1-.6,2.83,4.4,4.4,0,0,1-4.14,2.56Zm0-1.44a2.73,2.73,0,0,0,1.77-.55,3.19,3.19,0,0,0,1-1.45,5.62,5.62,0,0,0,.33-1.95,5.7,5.7,0,0,0-.33-1.95,3.22,3.22,0,0,0-1-1.46,3.06,3.06,0,0,0-3.53,0,3.22,3.22,0,0,0-1,1.46,5.7,5.7,0,0,0-.33,1.95,5.62,5.62,0,0,0,.33,1.95,3.19,3.19,0,0,0,1,1.45A2.72,2.72,0,0,0,138.32,479.78Z"/><path class="cls-3" d="M147.11,474.72V481h-1.6V470.56h1.55v1.63h.13a3,3,0,0,1,1.12-1.28,3.43,3.43,0,0,1,1.93-.49,3.81,3.81,0,0,1,1.86.43,3,3,0,0,1,1.24,1.31,4.94,4.94,0,0,1,.44,2.21V481h-1.61v-6.53a2.7,2.7,0,0,0-.64-1.92,2.26,2.26,0,0,0-1.75-.69,2.7,2.7,0,0,0-1.37.34,2.34,2.34,0,0,0-.95,1A3.2,3.2,0,0,0,147.11,474.72Z"/><path class="cls-3" d="M160.93,485.14a5.87,5.87,0,0,1-2-.3,4.17,4.17,0,0,1-1.4-.77,4.35,4.35,0,0,1-.88-1l1.28-.9c.15.19.33.41.55.65a2.85,2.85,0,0,0,.92.65,3.62,3.62,0,0,0,1.52.28,3.39,3.39,0,0,0,2.09-.62,2.22,2.22,0,0,0,.83-1.92v-2.12h-.14a8.29,8.29,0,0,1-.5.71,2.76,2.76,0,0,1-.93.74,3.5,3.5,0,0,1-1.62.32,4.35,4.35,0,0,1-2.27-.6,4.25,4.25,0,0,1-1.58-1.74,6,6,0,0,1-.58-2.77,6.57,6.57,0,0,1,.56-2.8,4.34,4.34,0,0,1,1.57-1.85,4.18,4.18,0,0,1,2.33-.66,3.25,3.25,0,0,1,1.62.34,3,3,0,0,1,.93.76c.21.28.38.52.5.7h.16v-1.66h1.55V481.3a3.67,3.67,0,0,1-.61,2.2,3.5,3.5,0,0,1-1.63,1.24A6.13,6.13,0,0,1,160.93,485.14Zm-.05-5.74a2.92,2.92,0,0,0,1.63-.44,2.82,2.82,0,0,0,1-1.27,5.21,5.21,0,0,0,.34-2,5.32,5.32,0,0,0-.34-2,3,3,0,0,0-1-1.36,3,3,0,0,0-3.35,0,3.07,3.07,0,0,0-1,1.39,5.18,5.18,0,0,0-.34,1.93,5,5,0,0,0,.35,1.92,2.85,2.85,0,0,0,1,1.31A2.89,2.89,0,0,0,160.88,479.4Z"/><path class="cls-3" d="M78.77,527.87a5.38,5.38,0,0,0-.59-1.23,4.11,4.11,0,0,0-.87-.94,3.92,3.92,0,0,0-1.13-.59,4.67,4.67,0,0,0-1.39-.2,4.12,4.12,0,0,0-2.25.64,4.41,4.41,0,0,0-1.61,1.88,7,7,0,0,0-.6,3.06,6.85,6.85,0,0,0,.61,3,4.34,4.34,0,0,0,1.64,1.88,4.57,4.57,0,0,0,4.43.13,3.63,3.63,0,0,0,1.43-1.45,4.62,4.62,0,0,0,.52-2.23l.51.11H75.28v-1.49h5.31V532a6,6,0,0,1-.73,3,5.17,5.17,0,0,1-2,2,6.55,6.55,0,0,1-6.19-.18,5.82,5.82,0,0,1-2.17-2.47,8.63,8.63,0,0,1-.78-3.81,9.48,9.48,0,0,1,.44-3,6.5,6.5,0,0,1,1.27-2.25,5.32,5.32,0,0,1,1.93-1.43,6,6,0,0,1,2.45-.5,6.27,6.27,0,0,1,2.06.33,5.65,5.65,0,0,1,1.71.93A5.24,5.24,0,0,1,79.81,526a5.45,5.45,0,0,1,.7,1.84Z"/><path class="cls-3" d="M84.72,525.26a1.09,1.09,0,0,1-.8-.32,1,1,0,0,1-.34-.77,1,1,0,0,1,.34-.76,1.17,1.17,0,0,1,1.61,0,1,1,0,0,1,.34.76,1,1,0,0,1-.34.77A1.09,1.09,0,0,1,84.72,525.26Zm-.81,12.19V527h1.6v10.45Z"/><path class="cls-3" d="M91.53,537.7a4.25,4.25,0,0,1-1.81-.38A3,3,0,0,1,88,534.49a2.65,2.65,0,0,1,.36-1.46,2.41,2.41,0,0,1,.94-.88,4.54,4.54,0,0,1,1.31-.48c.48-.11,1-.19,1.45-.26l1.54-.19a2.17,2.17,0,0,0,.87-.22.55.55,0,0,0,.28-.54v-.05a2.12,2.12,0,0,0-.55-1.57,2.22,2.22,0,0,0-1.65-.56,2.88,2.88,0,0,0-1.81.51,3,3,0,0,0-.92,1.07l-1.52-.54a3.71,3.71,0,0,1,1.09-1.49,4.23,4.23,0,0,1,1.5-.75,6.4,6.4,0,0,1,1.6-.21,6.52,6.52,0,0,1,1.16.12,3.86,3.86,0,0,1,1.27.48,3,3,0,0,1,1,1.11,4.19,4.19,0,0,1,.4,2v6.88h-1.6V536h-.08a2.9,2.9,0,0,1-.55.73,3.2,3.2,0,0,1-1,.65A3.75,3.75,0,0,1,91.53,537.7Zm.24-1.45a3.2,3.2,0,0,0,1.61-.37,2.54,2.54,0,0,0,1-1,2.45,2.45,0,0,0,.34-1.25V532.2a.93.93,0,0,1-.45.22,6.33,6.33,0,0,1-.79.17l-.86.12-.68.09a6,6,0,0,0-1.16.26,2,2,0,0,0-.87.54,1.37,1.37,0,0,0-.33,1,1.41,1.41,0,0,0,.62,1.26A2.75,2.75,0,0,0,91.77,536.25Z"/><path class="cls-3" d="M99.25,541.37V527h1.55v1.66H101c.12-.18.29-.41.5-.69a2.83,2.83,0,0,1,.91-.77,3.34,3.34,0,0,1,1.62-.33,4.15,4.15,0,0,1,2.32.66,4.33,4.33,0,0,1,1.57,1.87,7.49,7.49,0,0,1,0,5.73,4.47,4.47,0,0,1-1.56,1.88,4.11,4.11,0,0,1-2.31.66,3.24,3.24,0,0,1-1.61-.34,2.9,2.9,0,0,1-.93-.77c-.22-.28-.39-.52-.51-.71h-.13v5.52Zm1.58-9.14a5.77,5.77,0,0,0,.35,2.08,3.17,3.17,0,0,0,1,1.41,2.89,2.89,0,0,0,3.32,0,3.21,3.21,0,0,0,1-1.44,5.63,5.63,0,0,0,.34-2,5.43,5.43,0,0,0-.34-2,3.13,3.13,0,0,0-1-1.41,2.69,2.69,0,0,0-1.7-.52,2.66,2.66,0,0,0-1.64.49,3,3,0,0,0-1,1.38A5.57,5.57,0,0,0,100.83,532.23Z"/><path class="cls-3" d="M110.93,541.37V527h1.55v1.66h.19c.11-.18.28-.41.49-.69a2.83,2.83,0,0,1,.91-.77,3.37,3.37,0,0,1,1.62-.33,4.12,4.12,0,0,1,2.32.66,4.33,4.33,0,0,1,1.57,1.87,7.49,7.49,0,0,1,0,5.73A4.4,4.4,0,0,1,118,537a4.09,4.09,0,0,1-2.31.66,3.26,3.26,0,0,1-1.61-.34,2.9,2.9,0,0,1-.93-.77,6.51,6.51,0,0,1-.5-.71h-.14v5.52Zm1.57-9.14a5.77,5.77,0,0,0,.35,2.08,3.17,3.17,0,0,0,1,1.41,2.89,2.89,0,0,0,3.32,0,3.21,3.21,0,0,0,1-1.44,6.17,6.17,0,0,0,0-4,3.22,3.22,0,0,0-1-1.41,2.66,2.66,0,0,0-1.69-.52,2.69,2.69,0,0,0-1.65.49,3.07,3.07,0,0,0-1,1.38A5.79,5.79,0,0,0,112.5,532.23Z"/><path class="cls-3" d="M126.84,537.67a4.4,4.4,0,0,1-4.14-2.56,7.13,7.13,0,0,1,0-5.68,4.4,4.4,0,0,1,4.14-2.56,4.4,4.4,0,0,1,4.14,2.56,7,7,0,0,1,0,5.68,4.4,4.4,0,0,1-4.14,2.56Zm0-1.44a2.79,2.79,0,0,0,1.77-.55,3.27,3.27,0,0,0,1-1.45,5.93,5.93,0,0,0,0-3.9,3.3,3.3,0,0,0-1-1.46,2.74,2.74,0,0,0-1.77-.56,2.78,2.78,0,0,0-1.77.56,3.28,3.28,0,0,0-1,1.46,5.76,5.76,0,0,0,0,3.9,3.25,3.25,0,0,0,1,1.45A2.83,2.83,0,0,0,126.84,536.23Z"/><path class="cls-3" d="M135.63,531.17v6.28H134V527h1.55v1.64h.13a3.1,3.1,0,0,1,1.12-1.29,3.52,3.52,0,0,1,1.93-.48,3.81,3.81,0,0,1,1.86.43,3,3,0,0,1,1.24,1.31,4.89,4.89,0,0,1,.44,2.2v6.64h-1.61v-6.53a2.7,2.7,0,0,0-.64-1.92,2.26,2.26,0,0,0-1.75-.69,2.8,2.8,0,0,0-1.37.33,2.43,2.43,0,0,0-1,1A3.2,3.2,0,0,0,135.63,531.17Z"/><path class="cls-3" d="M149.62,537.67A4.87,4.87,0,0,1,147,537a4.52,4.52,0,0,1-1.68-1.88,6.35,6.35,0,0,1-.58-2.81,6.5,6.5,0,0,1,.58-2.83,4.71,4.71,0,0,1,1.65-1.92,4.43,4.43,0,0,1,2.47-.69,4.9,4.9,0,0,1,1.61.27,4,4,0,0,1,1.45.88,4.12,4.12,0,0,1,1,1.61,6.82,6.82,0,0,1,.39,2.46v.68h-8.05v-1.39h6.42a3.49,3.49,0,0,0-.35-1.57,2.64,2.64,0,0,0-1-1.1,2.8,2.8,0,0,0-1.52-.4,2.88,2.88,0,0,0-1.65.47,3.2,3.2,0,0,0-1.08,1.23,3.7,3.7,0,0,0-.37,1.62v.92a4.53,4.53,0,0,0,.41,2,2.94,2.94,0,0,0,1.15,1.24,3.29,3.29,0,0,0,1.71.43,3.41,3.41,0,0,0,1.14-.18,2.34,2.34,0,0,0,.89-.55,2.45,2.45,0,0,0,.58-.9l1.55.43a3.34,3.34,0,0,1-.82,1.38,4,4,0,0,1-1.43.93A5.28,5.28,0,0,1,149.62,537.67Z"/><path class="cls-3" d="M80.45,582.26H78.77a3.5,3.5,0,0,0-.53-1.28,3.43,3.43,0,0,0-.89-.93,4,4,0,0,0-1.17-.57,4.91,4.91,0,0,0-1.33-.19,4.27,4.27,0,0,0-2.29.64,4.47,4.47,0,0,0-1.63,1.89,8.08,8.08,0,0,0,0,6.11,4.44,4.44,0,0,0,1.63,1.88,4.18,4.18,0,0,0,2.29.64,4.55,4.55,0,0,0,1.33-.19,4,4,0,0,0,1.17-.57,3.43,3.43,0,0,0,.89-.93,3.57,3.57,0,0,0,.53-1.28h1.68a5.5,5.5,0,0,1-.69,1.91,5.26,5.26,0,0,1-1.25,1.44,5.42,5.42,0,0,1-1.68.89,6.13,6.13,0,0,1-2,.31,5.83,5.83,0,0,1-3.17-.87,6,6,0,0,1-2.19-2.48,9.58,9.58,0,0,1,0-7.62,5.93,5.93,0,0,1,2.19-2.47,5.83,5.83,0,0,1,3.17-.87,6.41,6.41,0,0,1,2,.3,5.44,5.44,0,0,1,1.68.9,5.18,5.18,0,0,1,1.25,1.42A5.55,5.55,0,0,1,80.45,582.26Z"/><path class="cls-3" d="M87.2,592.05a4.54,4.54,0,0,1-2.48-.67,4.6,4.6,0,0,1-1.66-1.88,7.13,7.13,0,0,1,0-5.68,4.58,4.58,0,0,1,8.28,0,7.13,7.13,0,0,1,0,5.68,4.6,4.6,0,0,1-1.66,1.88A4.54,4.54,0,0,1,87.2,592.05Zm0-1.44a2.73,2.73,0,0,0,1.77-.55,3.25,3.25,0,0,0,1-1.45,5.35,5.35,0,0,0,.34-1.94,5.4,5.4,0,0,0-.34-1.95,3.26,3.26,0,0,0-1-1.47,3.08,3.08,0,0,0-3.54,0,3.35,3.35,0,0,0-1,1.47,5.62,5.62,0,0,0-.33,1.95,5.57,5.57,0,0,0,.33,1.94,3.35,3.35,0,0,0,1,1.45A2.73,2.73,0,0,0,87.2,590.61Z"/><path class="cls-3" d="M94.38,591.84V581.39h1.55V583H96a2.5,2.5,0,0,1,1-1.26,3,3,0,0,1,1.68-.48h.45l.4,0v1.64l-.37-.07a4.08,4.08,0,0,0-.61,0,2.87,2.87,0,0,0-1.36.31,2.39,2.39,0,0,0-.94.87,2.34,2.34,0,0,0-.34,1.27v6.61Z"/><path class="cls-3" d="M105.57,592.05a4.87,4.87,0,0,1-2.61-.67,4.49,4.49,0,0,1-1.68-1.87,6.43,6.43,0,0,1-.59-2.82,6.51,6.51,0,0,1,.59-2.83,4.63,4.63,0,0,1,1.65-1.92,4.41,4.41,0,0,1,2.47-.69,5,5,0,0,1,1.61.27A4.1,4.1,0,0,1,109.5,584a6.84,6.84,0,0,1,.39,2.47v.68h-8v-1.39h6.42a3.5,3.5,0,0,0-.35-1.58,2.75,2.75,0,0,0-1-1.09,3.05,3.05,0,0,0-3.17.07,3.06,3.06,0,0,0-1.08,1.23,3.69,3.69,0,0,0-.37,1.61v.93a4.45,4.45,0,0,0,.41,2,3,3,0,0,0,1.15,1.25,3.69,3.69,0,0,0,2.85.24,2.45,2.45,0,0,0,.89-.54,2.5,2.5,0,0,0,.58-.91l1.55.44a3.39,3.39,0,0,1-.83,1.38,3.88,3.88,0,0,1-1.42.92A5.28,5.28,0,0,1,105.57,592.05Z"/><path class="cls-3" d="M115.41,592.08a4.09,4.09,0,0,1-1.8-.38,3,3,0,0,1-1.28-1.09,3.06,3.06,0,0,1-.48-1.74,2.77,2.77,0,0,1,.35-1.46,2.51,2.51,0,0,1,1-.88,5.22,5.22,0,0,1,1.31-.48c.48-.1,1-.19,1.44-.25.64-.09,1.16-.15,1.55-.19a2.35,2.35,0,0,0,.87-.22.58.58,0,0,0,.28-.55v-.05a2.11,2.11,0,0,0-.55-1.56,2.19,2.19,0,0,0-1.66-.56,2.94,2.94,0,0,0-1.8.5,3,3,0,0,0-.92,1.08l-1.52-.55a3.67,3.67,0,0,1,1.09-1.48,4.07,4.07,0,0,1,1.5-.75,5.93,5.93,0,0,1,1.6-.22,6.52,6.52,0,0,1,1.16.12,3.68,3.68,0,0,1,1.27.49,2.85,2.85,0,0,1,1,1.11,4.12,4.12,0,0,1,.4,2v6.89h-1.6v-1.42h-.08a2.73,2.73,0,0,1-.55.73,3.05,3.05,0,0,1-1,.66A4,4,0,0,1,115.41,592.08Zm.25-1.44a3.33,3.33,0,0,0,1.61-.37,2.57,2.57,0,0,0,1-1,2.41,2.41,0,0,0,.34-1.24v-1.47a1,1,0,0,1-.45.22c-.23.06-.49.12-.79.17l-.86.12-.68.08a6.79,6.79,0,0,0-1.16.27,2.1,2.1,0,0,0-.87.53,1.37,1.37,0,0,0-.33,1,1.41,1.41,0,0,0,.62,1.26A2.68,2.68,0,0,0,115.66,590.64Z"/><path class="cls-3" d="M132.47,592.05a4.08,4.08,0,0,1-2.3-.66,4.43,4.43,0,0,1-1.57-1.88,7.61,7.61,0,0,1,0-5.73,4.41,4.41,0,0,1,1.58-1.87,4.12,4.12,0,0,1,2.32-.66,3.25,3.25,0,0,1,1.62.34,2.92,2.92,0,0,1,.91.76c.21.28.37.52.49.7h.14v-5.14h1.6v13.93h-1.55v-1.61h-.19c-.12.19-.28.43-.5.72a3,3,0,0,1-.93.77A3.4,3.4,0,0,1,132.47,592.05Zm.22-1.44a2.64,2.64,0,0,0,1.63-.5,3.11,3.11,0,0,0,1-1.41,5.83,5.83,0,0,0,.35-2.09,5.61,5.61,0,0,0-.35-2.05,3,3,0,0,0-1-1.37,3,3,0,0,0-3.35,0,3.12,3.12,0,0,0-1,1.4,6,6,0,0,0,0,4,3.32,3.32,0,0,0,1,1.44A2.66,2.66,0,0,0,132.69,590.61Z"/><path class="cls-3" d="M144.8,592.05a4.84,4.84,0,0,1-2.6-.67,4.36,4.36,0,0,1-1.68-1.87,6.43,6.43,0,0,1-.59-2.82,6.51,6.51,0,0,1,.59-2.83,4.61,4.61,0,0,1,1.64-1.92,4.44,4.44,0,0,1,2.48-.69,5,5,0,0,1,1.61.27,4.16,4.16,0,0,1,1.45.89,4.31,4.31,0,0,1,1,1.6,6.84,6.84,0,0,1,.39,2.47v.68h-8.06v-1.39h6.42a3.37,3.37,0,0,0-.35-1.58,2.61,2.61,0,0,0-1-1.09,2.77,2.77,0,0,0-1.51-.41,2.87,2.87,0,0,0-1.66.48,3.11,3.11,0,0,0-1.07,1.23,3.57,3.57,0,0,0-.38,1.61v.93a4.32,4.32,0,0,0,.42,2,2.89,2.89,0,0,0,1.14,1.25,3.39,3.39,0,0,0,1.71.42,3.51,3.51,0,0,0,1.15-.18,2.41,2.41,0,0,0,.88-.54,2.37,2.37,0,0,0,.58-.91l1.55.44a3.36,3.36,0,0,1-.82,1.38,3.92,3.92,0,0,1-1.43.92A5.24,5.24,0,0,1,144.8,592.05Z"/><path class="cls-3" d="M153.18,577.91v13.93h-1.6V577.91Z"/><path class="cls-3" d="M169.34,581.39a2.13,2.13,0,0,0-1-1.61,3.81,3.81,0,0,0-2.14-.57,4,4,0,0,0-1.61.3,2.68,2.68,0,0,0-1.08.82,2,2,0,0,0-.38,1.19,1.65,1.65,0,0,0,.27,1,2.18,2.18,0,0,0,.69.66,4.22,4.22,0,0,0,.88.43c.31.11.59.2.85.27l1.42.38c.36.09.76.23,1.21.39a5.74,5.74,0,0,1,1.29.69,3.34,3.34,0,0,1,1,1.1,3.17,3.17,0,0,1,.4,1.66,3.7,3.7,0,0,1-.58,2,4.1,4.1,0,0,1-1.72,1.44,6.27,6.27,0,0,1-2.73.54,6.4,6.4,0,0,1-2.59-.48,4.07,4.07,0,0,1-1.71-1.35,3.8,3.8,0,0,1-.71-2h1.75a2.12,2.12,0,0,0,.53,1.3,2.84,2.84,0,0,0,1.18.76,4.62,4.62,0,0,0,1.55.25,4.57,4.57,0,0,0,1.74-.32,2.9,2.9,0,0,0,1.21-.88,2.08,2.08,0,0,0,.45-1.33,1.63,1.63,0,0,0-.39-1.13,2.7,2.7,0,0,0-1-.71,11.37,11.37,0,0,0-1.36-.48l-1.72-.48a6.41,6.41,0,0,1-2.58-1.34,2.94,2.94,0,0,1-1-2.28,3.44,3.44,0,0,1,.63-2.05,4.26,4.26,0,0,1,1.72-1.36,5.83,5.83,0,0,1,2.41-.48,5.7,5.7,0,0,1,2.39.48,4.18,4.18,0,0,1,1.66,1.3,3.22,3.22,0,0,1,.65,1.89Z"/><path class="cls-3" d="M180.31,587.57v-6.18h1.6v10.45h-1.6v-1.77h-.11a3.45,3.45,0,0,1-1.15,1.35,3.24,3.24,0,0,1-2,.55,3.47,3.47,0,0,1-1.75-.43,3,3,0,0,1-1.19-1.3,5,5,0,0,1-.44-2.21v-6.64h1.61v6.53a2.53,2.53,0,0,0,.64,1.82,2.14,2.14,0,0,0,1.64.68,2.78,2.78,0,0,0,1.22-.3,2.7,2.7,0,0,0,1-.94A2.78,2.78,0,0,0,180.31,587.57Z"/><path class="cls-3" d="M188.8,592.05a4.09,4.09,0,0,1-2.31-.66,4.34,4.34,0,0,1-1.56-1.88,7.49,7.49,0,0,1,0-5.73,4.39,4.39,0,0,1,1.57-1.87,4.12,4.12,0,0,1,2.32-.66,3.25,3.25,0,0,1,1.62.34,2.81,2.81,0,0,1,.91.76c.21.28.37.52.49.7H192v-5.14h1.6v13.93H192v-1.61h-.19c-.12.19-.28.43-.5.72a3,3,0,0,1-.93.77A3.38,3.38,0,0,1,188.8,592.05Zm.21-1.44a2.69,2.69,0,0,0,1.64-.5,3.17,3.17,0,0,0,1-1.41,6.38,6.38,0,0,0,0-4.14,3,3,0,0,0-1-1.37,2.7,2.7,0,0,0-1.65-.5,2.67,2.67,0,0,0-1.69.53,3.06,3.06,0,0,0-1,1.4,6.2,6.2,0,0,0,0,4,3.32,3.32,0,0,0,1,1.44A2.66,2.66,0,0,0,189,590.61Z"/><path class="cls-3" d="M68.7,633.92v-1.5H79.15v1.5H74.77v12.44H73.08V633.92Z"/><path class="cls-3" d="M83.2,646.6a4.24,4.24,0,0,1-1.8-.38,3.05,3.05,0,0,1-1.29-1.09,3.14,3.14,0,0,1-.47-1.74,2.65,2.65,0,0,1,.35-1.46,2.51,2.51,0,0,1,1-.88,5.22,5.22,0,0,1,1.31-.48,14,14,0,0,1,1.44-.25c.64-.09,1.15-.15,1.55-.19a2.41,2.41,0,0,0,.87-.22.59.59,0,0,0,.27-.55v-.05a2.19,2.19,0,0,0-.54-1.57,2.25,2.25,0,0,0-1.66-.55,2.83,2.83,0,0,0-1.8.5,3,3,0,0,0-.92,1.07l-1.52-.54A3.68,3.68,0,0,1,81,636.73a4.09,4.09,0,0,1,1.49-.74,6.06,6.06,0,0,1,1.61-.22,6.62,6.62,0,0,1,1.16.12,3.75,3.75,0,0,1,1.27.49,2.76,2.76,0,0,1,1,1.11,4.11,4.11,0,0,1,.41,2v6.89H86.38v-1.42H86.3a2.9,2.9,0,0,1-.54.73,3.16,3.16,0,0,1-1,.66A4,4,0,0,1,83.2,646.6Zm.25-1.44a3.16,3.16,0,0,0,1.6-.38,2.57,2.57,0,0,0,1-1,2.54,2.54,0,0,0,.33-1.25V641.1a.83.83,0,0,1-.44.23c-.23.06-.49.12-.79.17l-.87.12-.67.08a6.7,6.7,0,0,0-1.17.26,2.12,2.12,0,0,0-.87.54,1.37,1.37,0,0,0-.33,1,1.43,1.43,0,0,0,.62,1.26A2.73,2.73,0,0,0,83.45,645.16Z"/><path class="cls-3" d="M91.74,634.17a1.13,1.13,0,0,1-.8-.32,1,1,0,0,1-.34-.77,1,1,0,0,1,.34-.77,1.17,1.17,0,0,1,1.61,0,1,1,0,0,1,.34.77,1.05,1.05,0,0,1-.34.77A1.13,1.13,0,0,1,91.74,634.17Zm-.81,12.19V635.91h1.6v10.45Z"/><path class="cls-3" d="M97.84,646.36l-3.18-10.45h1.68l2.26,8h.11l2.23-8h1.71l2.21,8H105l2.26-8h1.68l-3.18,10.45h-1.58l-2.28-8h-.17l-2.28,8Z"/><path class="cls-3" d="M114.11,646.6a4.24,4.24,0,0,1-1.8-.38,2.93,2.93,0,0,1-1.76-2.83,2.65,2.65,0,0,1,.35-1.46,2.49,2.49,0,0,1,.94-.88,5.52,5.52,0,0,1,1.31-.48,14.17,14.17,0,0,1,1.45-.25c.63-.09,1.15-.15,1.55-.19a2.47,2.47,0,0,0,.87-.22.59.59,0,0,0,.27-.55v-.05a2.19,2.19,0,0,0-.54-1.57,2.25,2.25,0,0,0-1.66-.55,2.83,2.83,0,0,0-1.8.5,3,3,0,0,0-.92,1.07l-1.53-.54a3.8,3.8,0,0,1,1.1-1.49,4.09,4.09,0,0,1,1.49-.74,6,6,0,0,1,1.6-.22,6.44,6.44,0,0,1,1.16.12,3.73,3.73,0,0,1,1.28.49,2.76,2.76,0,0,1,1,1.11,4.11,4.11,0,0,1,.41,2v6.89h-1.61v-1.42h-.08a2.9,2.9,0,0,1-.54.73,3.1,3.1,0,0,1-1,.66A3.9,3.9,0,0,1,114.11,646.6Zm.24-1.44a3.17,3.17,0,0,0,1.61-.38,2.57,2.57,0,0,0,1-1,2.54,2.54,0,0,0,.33-1.25V641.1a.88.88,0,0,1-.44.23c-.23.06-.49.12-.79.17l-.87.12-.67.08a6.7,6.7,0,0,0-1.17.26,2.12,2.12,0,0,0-.87.54,1.37,1.37,0,0,0-.33,1,1.43,1.43,0,0,0,.62,1.26A2.72,2.72,0,0,0,114.35,645.16Z"/><path class="cls-3" d="M123.44,640.07v6.29h-1.6V635.91h1.55v1.63h.13a3,3,0,0,1,1.12-1.28,3.43,3.43,0,0,1,1.93-.49,3.93,3.93,0,0,1,1.86.43,3,3,0,0,1,1.24,1.31,4.94,4.94,0,0,1,.44,2.21v6.64H128.5v-6.53a2.71,2.71,0,0,0-.64-1.93,2.26,2.26,0,0,0-1.75-.69,2.7,2.7,0,0,0-1.37.34,2.34,2.34,0,0,0-.95,1A3.23,3.23,0,0,0,123.44,640.07Z"/><path class="cls-3" d="M76.91,692a2.13,2.13,0,0,0-1-1.61,3.8,3.8,0,0,0-2.13-.57,4,4,0,0,0-1.62.3,2.5,2.5,0,0,0-1.07.82,2,2,0,0,0-.39,1.19,1.67,1.67,0,0,0,.27,1,2.42,2.42,0,0,0,.69.66,4.87,4.87,0,0,0,.89.43c.3.11.59.2.84.27l1.42.38a10.41,10.41,0,0,1,1.21.39,5.74,5.74,0,0,1,1.29.69,3.48,3.48,0,0,1,1,1.1,3.25,3.25,0,0,1,.4,1.65,3.66,3.66,0,0,1-.59,2,4,4,0,0,1-1.71,1.45,7.2,7.2,0,0,1-5.32.06,4.1,4.1,0,0,1-1.72-1.35,3.8,3.8,0,0,1-.7-2h1.74a2.15,2.15,0,0,0,.53,1.31,2.87,2.87,0,0,0,1.19.76,4.83,4.83,0,0,0,1.54.25,4.54,4.54,0,0,0,1.74-.32,2.94,2.94,0,0,0,1.22-.88,2.09,2.09,0,0,0,.44-1.33,1.61,1.61,0,0,0-.38-1.13,2.86,2.86,0,0,0-1-.71,11.54,11.54,0,0,0-1.37-.48l-1.71-.49A6.4,6.4,0,0,1,70,694.52a3,3,0,0,1-1-2.27,3.42,3.42,0,0,1,.63-2,4.33,4.33,0,0,1,1.72-1.36,5.86,5.86,0,0,1,2.41-.49,5.63,5.63,0,0,1,2.39.48,4.24,4.24,0,0,1,1.67,1.31,3.34,3.34,0,0,1,.65,1.89Z"/><path class="cls-3" d="M85.84,692v1.36H80.43V692ZM82,689.52h1.61v10a2,2,0,0,0,.2,1,1,1,0,0,0,.52.45,2.09,2.09,0,0,0,.67.11,2.54,2.54,0,0,0,.43,0l.27,0,.33,1.44-.46.13a3.73,3.73,0,0,1-.74.06,3.32,3.32,0,0,1-1.33-.29,2.63,2.63,0,0,1-1.07-.89,2.5,2.5,0,0,1-.43-1.51Z"/><path class="cls-3" d="M91.33,702.72a4.09,4.09,0,0,1-1.8-.38,3,3,0,0,1-1.28-1.09,3.06,3.06,0,0,1-.48-1.74,2.77,2.77,0,0,1,.35-1.46,2.59,2.59,0,0,1,.95-.88,5.22,5.22,0,0,1,1.31-.48,14.46,14.46,0,0,1,1.44-.25c.64-.09,1.15-.15,1.55-.19a2.35,2.35,0,0,0,.87-.22.58.58,0,0,0,.28-.55v-.05a2.15,2.15,0,0,0-.55-1.57,2.23,2.23,0,0,0-1.66-.55,2.87,2.87,0,0,0-1.8.5,3.1,3.1,0,0,0-.92,1.07l-1.52-.54a3.78,3.78,0,0,1,1.09-1.49,4.21,4.21,0,0,1,1.5-.74,5.93,5.93,0,0,1,1.6-.22,6.52,6.52,0,0,1,1.16.12,3.68,3.68,0,0,1,1.27.49,2.85,2.85,0,0,1,1,1.11,4.12,4.12,0,0,1,.4,2v6.89h-1.6v-1.42h-.08a2.73,2.73,0,0,1-.55.73,3.05,3.05,0,0,1-1,.66A4,4,0,0,1,91.33,702.72Zm.25-1.44a3.2,3.2,0,0,0,1.61-.38,2.48,2.48,0,0,0,1-1,2.45,2.45,0,0,0,.34-1.25v-1.47a.92.92,0,0,1-.45.23c-.23.06-.49.12-.79.17l-.86.12-.68.08a6.79,6.79,0,0,0-1.16.27,2,2,0,0,0-.87.53,1.37,1.37,0,0,0-.33,1,1.41,1.41,0,0,0,.62,1.26A2.68,2.68,0,0,0,91.58,701.28Z"/><path class="cls-3" d="M103.61,692v1.36H98.19V692Zm-3.84-2.51h1.6v10a1.94,1.94,0,0,0,.21,1,1,1,0,0,0,.51.45,2.14,2.14,0,0,0,.67.11,2.68,2.68,0,0,0,.44,0l.27,0,.33,1.44-.46.13a3.73,3.73,0,0,1-.74.06,3.29,3.29,0,0,1-1.33-.29,2.63,2.63,0,0,1-1.07-.89,2.5,2.5,0,0,1-.43-1.51Z"/><path class="cls-3" d="M106.84,690.29a1.13,1.13,0,0,1-.8-.32,1,1,0,0,1-.34-.77,1,1,0,0,1,.34-.77,1.17,1.17,0,0,1,1.61,0,1,1,0,0,1,.34.77,1.05,1.05,0,0,1-.34.77A1.13,1.13,0,0,1,106.84,690.29ZM106,702.48V692h1.6v10.45Z"/><path class="cls-3" d="M125.32,688.55H127v9.22a4.94,4.94,0,0,1-.66,2.55,4.8,4.8,0,0,1-1.89,1.76,6.71,6.71,0,0,1-5.72,0,4.7,4.7,0,0,1-1.88-1.76,4.86,4.86,0,0,1-.67-2.55v-9.22h1.68v9.08a3.64,3.64,0,0,0,.45,1.82,3.25,3.25,0,0,0,1.28,1.24,4.67,4.67,0,0,0,4,0,3.19,3.19,0,0,0,1.28-1.24,3.64,3.64,0,0,0,.45-1.82Z"/><path class="cls-3" d="M131.77,696.19v6.29h-1.61V692h1.55v1.63h.14a3,3,0,0,1,1.11-1.28,3.46,3.46,0,0,1,1.93-.49,3.93,3.93,0,0,1,1.86.43,3,3,0,0,1,1.24,1.31,4.81,4.81,0,0,1,.44,2.21v6.64h-1.6V696a2.76,2.76,0,0,0-.64-1.93,2.28,2.28,0,0,0-1.76-.69,2.81,2.81,0,0,0-1.37.34,2.4,2.4,0,0,0-.95,1A3.23,3.23,0,0,0,131.77,696.19Z"/><path class="cls-3" d="M142.19,690.29a1.15,1.15,0,0,1-.81-.32,1,1,0,0,1-.33-.77,1,1,0,0,1,.33-.77,1.15,1.15,0,0,1,.81-.32,1.13,1.13,0,0,1,.8.32,1,1,0,0,1,.34.77,1,1,0,0,1-.34.77A1.13,1.13,0,0,1,142.19,690.29Zm-.82,12.19V692H143v10.45Z"/><path class="cls-3" d="M150.46,692v1.36H145V692Zm-3.84-2.51h1.61v10a2,2,0,0,0,.2,1,1,1,0,0,0,.52.45,2.09,2.09,0,0,0,.67.11,2.54,2.54,0,0,0,.43,0l.27,0,.33,1.44-.46.13a3.73,3.73,0,0,1-.74.06,3.32,3.32,0,0,1-1.33-.29,2.63,2.63,0,0,1-1.07-.89,2.5,2.5,0,0,1-.43-1.51Z"/><path class="cls-3" d="M153.7,690.29a1.13,1.13,0,0,1-.81-.32,1.05,1.05,0,0,1-.34-.77,1,1,0,0,1,.34-.77,1.17,1.17,0,0,1,1.61,0,1,1,0,0,1,.34.77,1,1,0,0,1-.34.77A1.13,1.13,0,0,1,153.7,690.29Zm-.82,12.19V692h1.61v10.45Z"/></g></svg>