<svg xmlns="http://www.w3.org/2000/svg" viewBox="0 0 720 900"><defs><style>.cls-1{fill:#fff;}.cls-2{fill:#b8b8b8;}</style></defs><g id="margine"><rect x="28" y="67" width="664" height="734"/></g><g id="Livello_2" data-name="Livello 2"><circle class="cls-1" cx="173.3" cy="239.04" r="71.03"/><circle class="cls-2" cx="173.3" cy="506.57" r="71.03"/><circle class="cls-2" cx="359.25" cy="506.57" r="71.03"/><circle class="cls-2" cx="547.51" cy="506.57" r="71.03"/><circle class="cls-2" cx="359.25" cy="679.81" r="71.03"/><circle class="cls-2" cx="173.3" cy="679.81" r="71.03"/><path class="cls-1" d="M102.2,135.2V117h10.9v2h-8.7v6.14h7.89v2H104.4v8.13Z"/><path class="cls-1" d="M132.21,126.11a11.14,11.14,0,0,1-1,5,7.75,7.75,0,0,1-2.85,3.23,8.07,8.07,0,0,1-8.27,0,7.75,7.75,0,0,1-2.85-3.23,12.4,12.4,0,0,1,0-9.94,7.78,7.78,0,0,1,2.85-3.24,8.13,8.13,0,0,1,8.27,0,7.78,7.78,0,0,1,2.85,3.24A11.08,11.08,0,0,1,132.21,126.11Zm-2.13,0a9,9,0,0,0-.79-4,5.78,5.78,0,0,0-2.12-2.46,5.78,5.78,0,0,0-6,0,5.8,5.8,0,0,0-2.13,2.46,10.57,10.57,0,0,0,0,8,5.69,5.69,0,0,0,2.13,2.46,5.72,5.72,0,0,0,6,0,5.67,5.67,0,0,0,2.12-2.46A9,9,0,0,0,130.08,126.11Z"/><path class="cls-1" d="M150.32,117V135.2h-2.13l-9.91-14.28h-.18V135.2h-2.2V117H138L148,131.33h.18V117Z"/><path class="cls-1" d="M153.73,119v-2h13.63v2h-5.71V135.2h-2.2V119Z"/><path class="cls-1" d="M173,117V135.2h-2.2V117Z"/><path class="cls-1" d="M194.35,121.56a2.76,2.76,0,0,0-1.29-2.09,5,5,0,0,0-2.79-.75,5.26,5.26,0,0,0-2.11.39,3.28,3.28,0,0,0-1.4,1.08,2.5,2.5,0,0,0-.5,1.55,2.16,2.16,0,0,0,.35,1.25,3,3,0,0,0,.9.86,6.43,6.43,0,0,0,1.15.56c.4.14.77.26,1.11.35l1.85.49c.47.13,1,.3,1.58.52a7.75,7.75,0,0,1,1.68.89,4.7,4.7,0,0,1,1.33,1.44,4.16,4.16,0,0,1,.52,2.16,4.79,4.79,0,0,1-.77,2.67,5.29,5.29,0,0,1-2.23,1.89,9.42,9.42,0,0,1-6.95.07,5.33,5.33,0,0,1-2.23-1.76,5,5,0,0,1-.92-2.62h2.27a2.79,2.79,0,0,0,.7,1.7,3.65,3.65,0,0,0,1.54,1,6.33,6.33,0,0,0,2,.32,6,6,0,0,0,2.27-.41A4,4,0,0,0,194,132a2.7,2.7,0,0,0,.58-1.73,2.13,2.13,0,0,0-.51-1.48,3.67,3.67,0,0,0-1.33-.92,13.74,13.74,0,0,0-1.78-.62l-2.24-.64a8.32,8.32,0,0,1-3.37-1.75,3.84,3.84,0,0,1-1.25-3,4.38,4.38,0,0,1,.84-2.67,5.5,5.5,0,0,1,2.23-1.78,7.64,7.64,0,0,1,3.15-.63,7.52,7.52,0,0,1,3.12.62,5.52,5.52,0,0,1,2.18,1.71,4.29,4.29,0,0,1,.84,2.46Z"/><path class="cls-1" d="M200.35,135.2V117h11v2h-8.77v6.14h8.2v2h-8.2v6.18h8.91v1.95Z"/><path class="cls-1" d="M229.93,122.7h-2.2a4.46,4.46,0,0,0-.68-1.67,4.65,4.65,0,0,0-1.17-1.21,4.88,4.88,0,0,0-1.52-.74,6,6,0,0,0-1.74-.25,5.58,5.58,0,0,0-3,.83,5.78,5.78,0,0,0-2.12,2.46,10.45,10.45,0,0,0,0,8,5.67,5.67,0,0,0,2.12,2.46,5.51,5.51,0,0,0,3,.84,6.31,6.31,0,0,0,1.74-.25,5.11,5.11,0,0,0,1.52-.74,4.69,4.69,0,0,0,1.17-1.22,4.55,4.55,0,0,0,.68-1.66h2.2A7.11,7.11,0,0,1,229,132a6.69,6.69,0,0,1-1.63,1.87,7.45,7.45,0,0,1-2.19,1.17,8.41,8.41,0,0,1-2.59.4,7.62,7.62,0,0,1-4.14-1.14,7.82,7.82,0,0,1-2.85-3.23,12.4,12.4,0,0,1,0-9.94,7.85,7.85,0,0,1,2.85-3.24,7.7,7.7,0,0,1,4.14-1.13,8.12,8.12,0,0,1,2.59.4,7.2,7.2,0,0,1,2.19,1.16A7,7,0,0,1,229,120.2,7.09,7.09,0,0,1,229.93,122.7Z"/><path class="cls-1" d="M248.83,126.11a11.14,11.14,0,0,1-1,5,7.75,7.75,0,0,1-2.85,3.23,8.09,8.09,0,0,1-8.28,0,7.89,7.89,0,0,1-2.85-3.23,12.51,12.51,0,0,1,0-9.94,7.92,7.92,0,0,1,2.85-3.24,8.15,8.15,0,0,1,8.28,0,7.78,7.78,0,0,1,2.85,3.24A11.08,11.08,0,0,1,248.83,126.11Zm-2.13,0a9.15,9.15,0,0,0-.79-4,5.78,5.78,0,0,0-2.12-2.46,5.8,5.8,0,0,0-6,0,5.85,5.85,0,0,0-2.12,2.46,10.57,10.57,0,0,0,0,8,5.73,5.73,0,0,0,2.12,2.46,5.74,5.74,0,0,0,6,0,5.67,5.67,0,0,0,2.12-2.46A9.13,9.13,0,0,0,246.7,126.11Z"/><path class="cls-1" d="M266.94,117V135.2h-2.13l-9.91-14.28h-.18V135.2h-2.2V117h2.13l9.94,14.31h.18V117Z"/><path class="cls-1" d="M277,135.2h-5.61V117h5.86a9,9,0,0,1,4.53,1.08,7.26,7.26,0,0,1,2.88,3.12,12.19,12.19,0,0,1,0,9.74,7.15,7.15,0,0,1-2.94,3.14A9.43,9.43,0,0,1,277,135.2Zm-3.41-1.95h3.27a7.31,7.31,0,0,0,3.74-.87,5.44,5.44,0,0,0,2.21-2.48,9.31,9.31,0,0,0,.73-3.83,9.12,9.12,0,0,0-.72-3.79,5.31,5.31,0,0,0-2.15-2.45,6.85,6.85,0,0,0-3.56-.86h-3.52Z"/><path class="cls-1" d="M289.2,135.2h-2.31L293.57,117h2.27l6.68,18.18h-2.31l-5.43-15.31h-.14Zm.85-7.1h9.31v2h-9.31Z"/><path class="cls-1" d="M305.36,135.2V117h6.14a7.48,7.48,0,0,1,3.5.72,4.68,4.68,0,0,1,2,2,6.22,6.22,0,0,1,.65,2.87,6.11,6.11,0,0,1-.65,2.85,4.6,4.6,0,0,1-2,2,7.51,7.51,0,0,1-3.47.71h-5v-2h4.9a5.42,5.42,0,0,0,2.35-.43,2.72,2.72,0,0,0,1.29-1.21,4,4,0,0,0,.41-1.88,4.26,4.26,0,0,0-.41-1.91,2.81,2.81,0,0,0-1.31-1.26,5.27,5.27,0,0,0-2.37-.45h-3.87V135.2Zm8.56-8.17,4.47,8.17h-2.55L311.43,127Z"/><path class="cls-1" d="M323.54,117V135.2h-2.2V117Z"/><path class="cls-1" d="M328,135.2V117h11v2h-8.77v6.14h8.2v2h-8.2v6.18h8.91v1.95Z"/><path class="cls-2" d="M102.2,400.41V382.23h10.9v1.95h-8.7v6.14h7.89v2H104.4v8.13Z"/><path class="cls-2" d="M132.21,391.32a11.11,11.11,0,0,1-1,5,7.75,7.75,0,0,1-2.85,3.23,8.07,8.07,0,0,1-8.27,0,7.75,7.75,0,0,1-2.85-3.23,12.4,12.4,0,0,1,0-9.94,7.78,7.78,0,0,1,2.85-3.24,8.13,8.13,0,0,1,8.27,0,7.78,7.78,0,0,1,2.85,3.24A11.08,11.08,0,0,1,132.21,391.32Zm-2.13,0a9,9,0,0,0-.79-4,5.78,5.78,0,0,0-2.12-2.46,5.78,5.78,0,0,0-6,0,5.8,5.8,0,0,0-2.13,2.46,10.57,10.57,0,0,0,0,8,5.69,5.69,0,0,0,2.13,2.46,5.72,5.72,0,0,0,6,0,5.67,5.67,0,0,0,2.12-2.46A9,9,0,0,0,130.08,391.32Z"/><path class="cls-2" d="M150.32,382.23v18.18h-2.13l-9.91-14.28h-.18v14.28h-2.2V382.23H138L148,396.54h.18V382.23Z"/><path class="cls-2" d="M153.73,384.18v-1.95h13.63v1.95h-5.71v16.23h-2.2V384.18Z"/><path class="cls-2" d="M173,382.23v18.18h-2.2V382.23Z"/><path class="cls-2" d="M184.41,400.41V382.23h6.14a7.13,7.13,0,0,1,3.51.76,5,5,0,0,1,2,2.08,6.48,6.48,0,0,1,.65,2.91,6.55,6.55,0,0,1-.65,2.92,4.93,4.93,0,0,1-2,2.09,7,7,0,0,1-3.48.78h-4.41v-2h4.34a4.71,4.71,0,0,0,2.35-.5,3.09,3.09,0,0,0,1.29-1.37,4.58,4.58,0,0,0,.41-2,4.5,4.5,0,0,0-.41-2,2.94,2.94,0,0,0-1.3-1.36,4.93,4.93,0,0,0-2.38-.49h-3.87v16.23Z"/><path class="cls-2" d="M200.28,400.41V382.23h6.15a7.44,7.44,0,0,1,3.49.72,4.63,4.63,0,0,1,2,2,6.1,6.1,0,0,1,.66,2.87,6,6,0,0,1-.66,2.85,4.6,4.6,0,0,1-2,2,7.48,7.48,0,0,1-3.47.71h-5v-2h4.9a5.42,5.42,0,0,0,2.35-.43,2.74,2.74,0,0,0,1.3-1.21,4.17,4.17,0,0,0,.4-1.88,4.26,4.26,0,0,0-.41-1.91,2.84,2.84,0,0,0-1.3-1.26,5.32,5.32,0,0,0-2.37-.45h-3.88v16.23Zm8.56-8.17,4.48,8.17h-2.56l-4.4-8.17Z"/><path class="cls-2" d="M218.46,382.23v18.18h-2.2V382.23Z"/><path class="cls-2" d="M222.87,382.23h2.63l6.17,15.09h.22l6.18-15.09h2.62v18.18h-2.06V386.59h-.17l-5.68,13.82h-2l-5.68-13.82h-.18v13.82h-2.06Z"/><path class="cls-2" d="M245.84,400.41h-2.3l6.67-18.18h2.27l6.68,18.18h-2.31l-5.43-15.31h-.14Zm.86-7.1H256v1.95h-9.3Z"/><path class="cls-2" d="M262,400.41V382.23h6.14a7.46,7.46,0,0,1,3.5.72,4.68,4.68,0,0,1,2,2,6.22,6.22,0,0,1,.65,2.87,6.11,6.11,0,0,1-.65,2.85,4.6,4.6,0,0,1-2,2,7.48,7.48,0,0,1-3.47.71h-5v-2h4.9a5.42,5.42,0,0,0,2.35-.43,2.72,2.72,0,0,0,1.29-1.21,4,4,0,0,0,.41-1.88,4.26,4.26,0,0,0-.41-1.91,2.81,2.81,0,0,0-1.31-1.26,5.27,5.27,0,0,0-2.37-.45H264.2v16.23Zm8.56-8.17,4.47,8.17h-2.55l-4.41-8.17Z"/><path class="cls-2" d="M280.18,382.23v18.18H278V382.23Z"/><path class="cls-2" d="M284.59,400.41V382.23h11v1.95h-8.77v6.14H295v2h-8.2v6.18h8.91v2Z"/><path d="M155.78,222l-1.15.32a3.36,3.36,0,0,0-.49-.89,2.33,2.33,0,0,0-.81-.63,3.45,3.45,0,0,0-3.06.29,1.64,1.64,0,0,0-.71,1.36,1.44,1.44,0,0,0,.49,1.14,3.5,3.5,0,0,0,1.5.69l1.65.41a4,4,0,0,1,2.05,1.06,2.51,2.51,0,0,1,.69,1.81,2.73,2.73,0,0,1-.51,1.64,3.39,3.39,0,0,1-1.43,1.13,5.12,5.12,0,0,1-2.11.41,4.51,4.51,0,0,1-2.63-.72,3.22,3.22,0,0,1-1.33-2.09l1.21-.3a2.54,2.54,0,0,0,.92,1.48,3,3,0,0,0,1.81.49,3.3,3.3,0,0,0,2-.56,1.72,1.72,0,0,0,.75-1.42,1.5,1.5,0,0,0-.44-1.11,2.68,2.68,0,0,0-1.33-.66l-1.79-.43a4.17,4.17,0,0,1-2.1-1.08,2.61,2.61,0,0,1-.68-1.83,2.65,2.65,0,0,1,.49-1.59,3.31,3.31,0,0,1,1.35-1.08,4.7,4.7,0,0,1,2-.39,3.91,3.91,0,0,1,2.4.68A3.72,3.72,0,0,1,155.78,222Z"/><path d="M158.71,234.62v-15h1.23v2.08h.15a5.57,5.57,0,0,1,.62-1,3.28,3.28,0,0,1,1.06-.87,3.4,3.4,0,0,1,1.66-.36,4.06,4.06,0,0,1,2.36.71,4.63,4.63,0,0,1,1.57,2,8,8,0,0,1,0,5.92,4.72,4.72,0,0,1-1.57,2,4,4,0,0,1-2.35.71,3.41,3.41,0,0,1-1.65-.36,3.32,3.32,0,0,1-1.07-.87,4.42,4.42,0,0,1-.63-1H160v6.11Zm1.25-9.54a6.52,6.52,0,0,0,.39,2.34,3.62,3.62,0,0,0,1.14,1.6,2.8,2.8,0,0,0,1.8.58,2.85,2.85,0,0,0,1.84-.6,3.72,3.72,0,0,0,1.14-1.62,6.94,6.94,0,0,0,0-4.56,3.66,3.66,0,0,0-1.14-1.6,2.87,2.87,0,0,0-1.85-.6,2.84,2.84,0,0,0-1.81.58,3.42,3.42,0,0,0-1.13,1.57A6.35,6.35,0,0,0,160,225.08Z"/><path d="M174.94,230.76a4.38,4.38,0,0,1-2.49-.72,4.92,4.92,0,0,1-1.7-2,7.39,7.39,0,0,1,0-5.88,4.82,4.82,0,0,1,1.7-2,4.68,4.68,0,0,1,5,0,4.86,4.86,0,0,1,1.69,2,6.7,6.7,0,0,1,.62,2.95,6.82,6.82,0,0,1-.61,2.93,4.92,4.92,0,0,1-1.7,2A4.39,4.39,0,0,1,174.94,230.76Zm0-1.16a3,3,0,0,0,1.93-.61,3.93,3.93,0,0,0,1.2-1.63,5.94,5.94,0,0,0,.41-2.23,6,6,0,0,0-.41-2.25,4,4,0,0,0-1.2-1.64,3.3,3.3,0,0,0-3.85,0,4,4,0,0,0-1.2,1.64,6,6,0,0,0-.4,2.25,5.94,5.94,0,0,0,.4,2.23A3.84,3.84,0,0,0,173,229,3,3,0,0,0,174.94,229.6Z"/><path d="M182.52,230.53V219.62h1.23v1.68h.09A2.76,2.76,0,0,1,185,220a3.43,3.43,0,0,1,1.85-.51h.66v1.29l-.29-.05a3.48,3.48,0,0,0-.47,0,3.12,3.12,0,0,0-1.51.36,2.67,2.67,0,0,0-1.43,2.44v7Z"/><path d="M193.72,230.76a4.74,4.74,0,0,1-2.64-.72,4.63,4.63,0,0,1-1.72-2,6.6,6.6,0,0,1-.61-2.92,6.71,6.71,0,0,1,.61-2.93,4.89,4.89,0,0,1,1.68-2,4.39,4.39,0,0,1,2.49-.73,4.56,4.56,0,0,1,1.71.33,4.12,4.12,0,0,1,1.48,1,4.7,4.7,0,0,1,1,1.67,6.56,6.56,0,0,1,.39,2.38v.62h-8.53v-1.11h7.23a4.17,4.17,0,0,0-.42-1.89,3.32,3.32,0,0,0-1.17-1.34,3.15,3.15,0,0,0-1.73-.49,3.07,3.07,0,0,0-1.82.56,3.76,3.76,0,0,0-1.24,1.46,4.72,4.72,0,0,0-.45,2v.67a5.38,5.38,0,0,0,.45,2.27,3.51,3.51,0,0,0,1.29,1.5,3.59,3.59,0,0,0,2,.53,3.55,3.55,0,0,0,1.36-.24,3,3,0,0,0,1-.65,2.81,2.81,0,0,0,.61-.9l1.2.39a3.59,3.59,0,0,1-.82,1.27,4.15,4.15,0,0,1-1.4.94A5.09,5.09,0,0,1,193.72,230.76Z"/><path d="M145.68,258.62v-15h1.23v2.08h.15a5.57,5.57,0,0,1,.62-1,3.28,3.28,0,0,1,1.06-.87,3.43,3.43,0,0,1,1.66-.36,4,4,0,0,1,2.36.71,4.63,4.63,0,0,1,1.57,2,8,8,0,0,1,0,5.92,4.72,4.72,0,0,1-1.57,2,4,4,0,0,1-2.35.71,3.41,3.41,0,0,1-1.65-.36,3.32,3.32,0,0,1-1.07-.87,4.42,4.42,0,0,1-.63-1h-.12v6.11Zm1.25-9.54a6.52,6.52,0,0,0,.39,2.34,3.7,3.7,0,0,0,1.14,1.6,3.1,3.1,0,0,0,3.64,0,3.72,3.72,0,0,0,1.14-1.62,6.41,6.41,0,0,0,.4-2.3,6.23,6.23,0,0,0-.39-2.26,3.66,3.66,0,0,0-1.14-1.6,2.87,2.87,0,0,0-1.85-.6,2.84,2.84,0,0,0-1.81.58,3.49,3.49,0,0,0-1.13,1.57A6.35,6.35,0,0,0,146.93,249.08Z"/><path d="M158.34,241.75a.92.92,0,0,1-.67-.27.84.84,0,0,1-.28-.64.83.83,0,0,1,.28-.64.92.92,0,0,1,.67-.27.9.9,0,0,1,.66.27.83.83,0,0,1,.28.64.84.84,0,0,1-.28.64A.9.9,0,0,1,158.34,241.75Zm-.65,12.78V243.62H159v10.91Z"/><path d="M165.36,254.78a4.1,4.1,0,0,1-1.8-.39,3.06,3.06,0,0,1-1.79-2.91,2.82,2.82,0,0,1,.31-1.36,2.44,2.44,0,0,1,.87-.91,5,5,0,0,1,1.32-.56,13,13,0,0,1,1.69-.32l1.56-.2a2.63,2.63,0,0,0,1-.27.62.62,0,0,0,.33-.59V247a2.35,2.35,0,0,0-.66-1.76,2.64,2.64,0,0,0-1.91-.64,3.23,3.23,0,0,0-1.92.52,2.79,2.79,0,0,0-1,1.22l-1.2-.43a3.49,3.49,0,0,1,1-1.44,4.18,4.18,0,0,1,1.46-.77,5.76,5.76,0,0,1,1.64-.24,5.61,5.61,0,0,1,1.31.17,3.75,3.75,0,0,1,1.26.56,2.9,2.9,0,0,1,.94,1.12,4,4,0,0,1,.36,1.8v7.41h-1.26v-1.72h-.08a3.49,3.49,0,0,1-1.8,1.68A4,4,0,0,1,165.36,254.78Zm.17-1.16a3.3,3.3,0,0,0,1.75-.45,3,3,0,0,0,1.14-1.19,3.34,3.34,0,0,0,.4-1.63v-1.58a1.19,1.19,0,0,1-.47.24,6,6,0,0,1-.76.19c-.29.06-.57.1-.86.14l-.77.1a6.78,6.78,0,0,0-1.57.35,2.35,2.35,0,0,0-1,.67,1.6,1.6,0,0,0-.35,1.08,1.81,1.81,0,0,0,.71,1.54A2.86,2.86,0,0,0,165.53,253.62Z"/><path d="M174.71,247.71v6.82h-1.27V243.62h1.23v1.71h.12A3.07,3.07,0,0,1,176,244a3.74,3.74,0,0,1,2-.51,3.91,3.91,0,0,1,1.93.46,3.12,3.12,0,0,1,1.3,1.34,4.68,4.68,0,0,1,.47,2.18v7.07h-1.27v-7a2.94,2.94,0,0,0-.75-2.12,2.65,2.65,0,0,0-2-.78,3,3,0,0,0-1.53.37,2.64,2.64,0,0,0-1.06,1.06A3.4,3.4,0,0,0,174.71,247.71Z"/><path d="M189.33,243.62v1.1h-5.21v-1.1ZM185.75,241H187v10.67a2,2,0,0,0,.24,1.07,1.29,1.29,0,0,0,.61.55,2,2,0,0,0,.8.16,2.63,2.63,0,0,0,.43,0l.31-.07.27,1.14a2.92,2.92,0,0,1-.46.13,3.29,3.29,0,0,1-2-.24,2.65,2.65,0,0,1-1.06-.91,2.62,2.62,0,0,1-.41-1.5Z"/><path d="M196.5,254.76a4.8,4.8,0,0,1-2.65-.72,4.69,4.69,0,0,1-1.72-2,6.74,6.74,0,0,1-.6-2.92,6.85,6.85,0,0,1,.6-2.93,5,5,0,0,1,1.69-2,4.35,4.35,0,0,1,2.49-.73,4.56,4.56,0,0,1,1.71.33,4.21,4.21,0,0,1,1.48,1,4.84,4.84,0,0,1,1,1.67,6.79,6.79,0,0,1,.38,2.38v.62H192.4v-1.11h7.23a4.17,4.17,0,0,0-.42-1.89,3.34,3.34,0,0,0-1.18-1.34,3.27,3.27,0,0,0-3.55.07,3.66,3.66,0,0,0-1.23,1.46,4.44,4.44,0,0,0-.45,2v.67a5.38,5.38,0,0,0,.45,2.27,3.55,3.55,0,0,0,1.28,1.5,3.94,3.94,0,0,0,3.33.29,2.85,2.85,0,0,0,1-.65,2.81,2.81,0,0,0,.61-.9l1.2.39a3.43,3.43,0,0,1-.81,1.27,4.3,4.3,0,0,1-1.41.94A5,5,0,0,1,196.5,254.76Z"/><path d="M327.56,489a.9.9,0,0,1-.66-.27.83.83,0,0,1-.28-.64.84.84,0,0,1,.28-.64.9.9,0,0,1,.66-.27.92.92,0,0,1,.67.27.88.88,0,0,1,.28.64.86.86,0,0,1-.28.64A.92.92,0,0,1,327.56,489Zm-.64,12.78V490.84h1.27v10.91Z"/><path d="M332.8,494.94v6.81h-1.26V490.84h1.23v1.72h.11a3.13,3.13,0,0,1,1.2-1.35,3.7,3.7,0,0,1,2-.51,4,4,0,0,1,1.94.46,3.2,3.2,0,0,1,1.3,1.35,4.66,4.66,0,0,1,.46,2.18v7.06h-1.26v-7a2.94,2.94,0,0,0-.75-2.13,2.66,2.66,0,0,0-2-.78,3,3,0,0,0-1.52.37,2.7,2.7,0,0,0-1.06,1.06A3.3,3.3,0,0,0,332.8,494.94Z"/><path d="M347.39,502a4.41,4.41,0,0,1-2.54-.73,4.77,4.77,0,0,1-1.68-2,6.74,6.74,0,0,1-.6-2.9,6.66,6.66,0,0,1,.61-2.92,4.89,4.89,0,0,1,1.68-2,4.43,4.43,0,0,1,2.51-.72,4.56,4.56,0,0,1,2,.42,4,4,0,0,1,1.47,1.18,3.92,3.92,0,0,1,.73,1.78h-1.28a2.83,2.83,0,0,0-2.88-2.23,3.08,3.08,0,0,0-1.84.56,3.73,3.73,0,0,0-1.26,1.57,5.66,5.66,0,0,0-.45,2.33,5.92,5.92,0,0,0,.44,2.34,3.78,3.78,0,0,0,1.24,1.6,3.14,3.14,0,0,0,1.87.57,3.23,3.23,0,0,0,1.33-.27,2.71,2.71,0,0,0,1.56-2h1.27a3.74,3.74,0,0,1-.7,1.76,3.86,3.86,0,0,1-1.44,1.21A4.51,4.51,0,0,1,347.39,502Z"/><path d="M358.67,502a4.82,4.82,0,0,1-2.64-.71,4.68,4.68,0,0,1-1.72-2,7.34,7.34,0,0,1,0-5.86,4.89,4.89,0,0,1,1.68-2,4.38,4.38,0,0,1,2.49-.72,4.55,4.55,0,0,1,1.71.32,4.1,4.1,0,0,1,1.48,1,4.52,4.52,0,0,1,1,1.67,6.54,6.54,0,0,1,.39,2.37v.63h-8.53v-1.12h7.23a4.17,4.17,0,0,0-.42-1.89,3.29,3.29,0,0,0-1.17-1.33,3.07,3.07,0,0,0-1.73-.49,3.11,3.11,0,0,0-1.83.55,3.9,3.9,0,0,0-1.23,1.46,4.44,4.44,0,0,0-.45,2v.67a5.35,5.35,0,0,0,.45,2.27,3.49,3.49,0,0,0,1.28,1.5,3.94,3.94,0,0,0,3.33.29,3,3,0,0,0,1-.65,2.78,2.78,0,0,0,.6-.9l1.2.39a3.46,3.46,0,0,1-.81,1.28,4.28,4.28,0,0,1-1.4.93A5.12,5.12,0,0,1,358.67,502Z"/><path d="M367.14,494.94v6.81h-1.27V490.84h1.23v1.72h.11a3.13,3.13,0,0,1,1.2-1.35,3.7,3.7,0,0,1,2-.51,4,4,0,0,1,1.94.46,3.14,3.14,0,0,1,1.3,1.35,4.66,4.66,0,0,1,.46,2.18v7.06h-1.26v-7a2.94,2.94,0,0,0-.75-2.13,2.66,2.66,0,0,0-2-.78,3,3,0,0,0-1.52.37,2.7,2.7,0,0,0-1.06,1.06A3.3,3.3,0,0,0,367.14,494.94Z"/><path d="M381.39,502a4,4,0,0,1-2.35-.71,4.6,4.6,0,0,1-1.57-2,7.2,7.2,0,0,1-.57-3,7.12,7.12,0,0,1,.57-2.95,4.55,4.55,0,0,1,1.58-2,4,4,0,0,1,2.36-.7,3.46,3.46,0,0,1,1.66.35,3,3,0,0,1,1.05.87,4.44,4.44,0,0,1,.62,1h.12v-5.72h1.27v14.54h-1.24v-2h-.15a4.72,4.72,0,0,1-.62,1,3.35,3.35,0,0,1-1.07.88A3.58,3.58,0,0,1,381.39,502Zm.15-1.16a2.82,2.82,0,0,0,1.8-.58,3.51,3.51,0,0,0,1.14-1.59,6.31,6.31,0,0,0,.4-2.34,6.41,6.41,0,0,0-.39-2.32,3.51,3.51,0,0,0-1.14-1.57,2.9,2.9,0,0,0-1.81-.57,2.84,2.84,0,0,0-1.84.59,3.66,3.66,0,0,0-1.14,1.6,6.25,6.25,0,0,0-.39,2.27,6.4,6.4,0,0,0,.39,2.29,3.72,3.72,0,0,0,1.14,1.62A2.87,2.87,0,0,0,381.54,500.82Z"/><path d="M390.39,489a.94.94,0,0,1-.67-.27.86.86,0,0,1-.28-.64.88.88,0,0,1,.28-.64,1,1,0,0,1,1.34,0,.87.87,0,0,1,.27.64.85.85,0,0,1-.27.64A.94.94,0,0,1,390.39,489Zm-.65,12.78V490.84H391v10.91Z"/><path d="M322.24,525.75V511.21h1.27v5.72h.11a4.77,4.77,0,0,1,.61-1,3.26,3.26,0,0,1,1.06-.87,3.43,3.43,0,0,1,1.66-.35,4,4,0,0,1,2.36.7,4.62,4.62,0,0,1,1.58,2,7.12,7.12,0,0,1,.57,3,7.37,7.37,0,0,1-.56,3,4.69,4.69,0,0,1-1.58,2A4,4,0,0,1,327,526a3.54,3.54,0,0,1-1.65-.35,3.24,3.24,0,0,1-1.07-.88,5.24,5.24,0,0,1-.63-1h-.16v2Zm1.25-5.44a6.52,6.52,0,0,0,.39,2.34,3.51,3.51,0,0,0,1.14,1.59,2.8,2.8,0,0,0,1.8.58,2.88,2.88,0,0,0,1.84-.6,3.72,3.72,0,0,0,1.14-1.62,6.4,6.4,0,0,0,.39-2.29,6.25,6.25,0,0,0-.39-2.27,3.51,3.51,0,0,0-1.14-1.6,2.84,2.84,0,0,0-1.84-.59,2.88,2.88,0,0,0-1.81.57,3.49,3.49,0,0,0-1.13,1.57A6.41,6.41,0,0,0,323.49,520.31Z"/><path d="M338.48,526a4.42,4.42,0,0,1-2.5-.72,4.83,4.83,0,0,1-1.69-2,7.39,7.39,0,0,1,0-5.88,4.86,4.86,0,0,1,1.69-2,4.74,4.74,0,0,1,5,0,4.88,4.88,0,0,1,1.7,2,6.85,6.85,0,0,1,.61,3,6.64,6.64,0,0,1-.61,2.93,4.83,4.83,0,0,1-1.69,2A4.44,4.44,0,0,1,338.48,526Zm0-1.16a3,3,0,0,0,1.92-.61,3.73,3.73,0,0,0,1.2-1.62,6.35,6.35,0,0,0,0-4.49,3.85,3.85,0,0,0-1.2-1.64,3,3,0,0,0-1.92-.61,3,3,0,0,0-1.92.61,3.85,3.85,0,0,0-1.2,1.64,6.35,6.35,0,0,0,0,4.49,3.79,3.79,0,0,0,1.19,1.62A3,3,0,0,0,338.48,524.82Z"/><path d="M353.39,517.24l-1.16.32a3.4,3.4,0,0,0-.48-.88,2.19,2.19,0,0,0-.82-.64,3.42,3.42,0,0,0-3.06.3,1.62,1.62,0,0,0-.71,1.35,1.47,1.47,0,0,0,.49,1.14,3.75,3.75,0,0,0,1.5.7l1.65.4a4.14,4.14,0,0,1,2.06,1.06,2.57,2.57,0,0,1,.68,1.82,2.77,2.77,0,0,1-.51,1.64,3.34,3.34,0,0,1-1.42,1.12,5,5,0,0,1-2.12.41,4.51,4.51,0,0,1-2.63-.72,3.3,3.3,0,0,1-1.33-2.08l1.22-.3a2.39,2.39,0,0,0,.92,1.47,3,3,0,0,0,1.8.49,3.24,3.24,0,0,0,2-.56,1.73,1.73,0,0,0,.76-1.42,1.54,1.54,0,0,0-.44-1.11,2.72,2.72,0,0,0-1.34-.66l-1.78-.43a4.16,4.16,0,0,1-2.11-1.08,2.61,2.61,0,0,1-.68-1.83,2.72,2.72,0,0,1,.49-1.59,3.37,3.37,0,0,1,1.35-1.07,4.73,4.73,0,0,1,2-.39,3.9,3.9,0,0,1,2.4.67A3.85,3.85,0,0,1,353.39,517.24Z"/><path d="M360.57,526a4.41,4.41,0,0,1-2.54-.73,4.85,4.85,0,0,1-1.68-2,6.74,6.74,0,0,1-.6-2.9,6.66,6.66,0,0,1,.61-2.92,4.89,4.89,0,0,1,1.68-2,4.43,4.43,0,0,1,2.51-.72,4.56,4.56,0,0,1,2,.42A4,4,0,0,1,364,516.3a3.81,3.81,0,0,1,.73,1.78h-1.28a2.83,2.83,0,0,0-2.88-2.23,3.08,3.08,0,0,0-1.84.56,3.73,3.73,0,0,0-1.26,1.57,5.66,5.66,0,0,0-.45,2.33,5.92,5.92,0,0,0,.44,2.34,3.86,3.86,0,0,0,1.24,1.6,3.14,3.14,0,0,0,1.87.57,3.19,3.19,0,0,0,1.33-.27,2.71,2.71,0,0,0,1.56-2h1.27a3.83,3.83,0,0,1-.69,1.76,4,4,0,0,1-1.45,1.21A4.51,4.51,0,0,1,360.57,526Z"/><path d="M368.71,518.94v6.81h-1.27V511.21h1.27v5.35h.11a2.94,2.94,0,0,1,1.19-1.35,3.76,3.76,0,0,1,2-.51,4,4,0,0,1,1.95.46,3.12,3.12,0,0,1,1.3,1.34,4.55,4.55,0,0,1,.47,2.19v7.06H374.5v-7a2.94,2.94,0,0,0-.75-2.13,2.67,2.67,0,0,0-2-.78,3.14,3.14,0,0,0-1.55.37,2.69,2.69,0,0,0-1.08,1.06A3.3,3.3,0,0,0,368.71,518.94Z"/><path d="M379.77,513a.94.94,0,0,1-.67-.27.85.85,0,0,1-.27-.64.87.87,0,0,1,.27-.64,1,1,0,0,1,1.34,0,.88.88,0,0,1,.28.64.86.86,0,0,1-.28.64A.94.94,0,0,1,379.77,513Zm-.65,12.78V514.84h1.28v10.91Z"/><path d="M392.19,514.84l-4,10.91h-1.35l-4-10.91h1.37l3.24,9.24h.1l3.24-9.24Z"/><path d="M395.32,513a.92.92,0,0,1-.67-.27.83.83,0,0,1-.28-.64.84.84,0,0,1,.28-.64.92.92,0,0,1,.67-.27.9.9,0,0,1,.66.27.84.84,0,0,1,.28.64.83.83,0,0,1-.28.64A.9.9,0,0,1,395.32,513Zm-.65,12.78V514.84h1.27v10.91Z"/><path d="M309.85,675.22a4.39,4.39,0,0,1-2.5-.71,4.79,4.79,0,0,1-1.69-2,6.61,6.61,0,0,1-.61-2.93,6.7,6.7,0,0,1,.61-3,4.79,4.79,0,0,1,1.69-2,4.47,4.47,0,0,1,2.5-.71,4.38,4.38,0,0,1,2.49.72,4.83,4.83,0,0,1,1.69,2,7.33,7.33,0,0,1,0,5.88,4.88,4.88,0,0,1-1.7,2A4.38,4.38,0,0,1,309.85,675.22Zm0-1.15a3.08,3.08,0,0,0,1.92-.61,3.76,3.76,0,0,0,1.2-1.63,6.32,6.32,0,0,0,0-4.48,3.79,3.79,0,0,0-1.2-1.64,3.3,3.3,0,0,0-3.85,0,4,4,0,0,0-1.2,1.64,6.47,6.47,0,0,0,0,4.48,3.93,3.93,0,0,0,1.2,1.63A3.11,3.11,0,0,0,309.85,674.07Z"/><path d="M324.75,666.48l-1.15.33a3.21,3.21,0,0,0-.49-.89,2.22,2.22,0,0,0-.81-.63,2.86,2.86,0,0,0-1.24-.24,3,3,0,0,0-1.82.53,1.62,1.62,0,0,0-.71,1.36,1.47,1.47,0,0,0,.49,1.14,3.5,3.5,0,0,0,1.5.69l1.65.4a4.14,4.14,0,0,1,2.05,1.06,2.53,2.53,0,0,1,.69,1.82,2.77,2.77,0,0,1-.51,1.64,3.47,3.47,0,0,1-1.43,1.13,5.13,5.13,0,0,1-2.11.4,4.51,4.51,0,0,1-2.63-.72,3.23,3.23,0,0,1-1.33-2.08l1.21-.3a2.48,2.48,0,0,0,.92,1.47,3,3,0,0,0,1.81.5,3.24,3.24,0,0,0,2-.57,1.7,1.7,0,0,0,.75-1.41,1.54,1.54,0,0,0-.44-1.12,2.68,2.68,0,0,0-1.33-.66L320,669.9a4,4,0,0,1-2.1-1.08,2.8,2.8,0,0,1-.19-3.41,3.31,3.31,0,0,1,1.35-1.08,4.7,4.7,0,0,1,2-.39,3.84,3.84,0,0,1,2.4.68A3.7,3.7,0,0,1,324.75,666.48Z"/><path d="M335,666.48l-1.16.33a3,3,0,0,0-.48-.89,2.17,2.17,0,0,0-.82-.63,2.81,2.81,0,0,0-1.23-.24,3,3,0,0,0-1.82.53,1.6,1.6,0,0,0-.71,1.36,1.5,1.5,0,0,0,.48,1.14,3.6,3.6,0,0,0,1.51.69l1.64.4a4.18,4.18,0,0,1,2.06,1.06,2.53,2.53,0,0,1,.69,1.82,2.78,2.78,0,0,1-.52,1.64,3.44,3.44,0,0,1-1.42,1.13,5.16,5.16,0,0,1-2.11.4,4.52,4.52,0,0,1-2.64-.72,3.27,3.27,0,0,1-1.33-2.08l1.22-.3a2.39,2.39,0,0,0,.92,1.47,3,3,0,0,0,1.81.5,3.28,3.28,0,0,0,2-.57,1.7,1.7,0,0,0,.75-1.41,1.58,1.58,0,0,0-.44-1.12,2.72,2.72,0,0,0-1.34-.66l-1.78-.43a3.94,3.94,0,0,1-2.1-1.08,2.56,2.56,0,0,1-.68-1.83,2.6,2.6,0,0,1,.49-1.58,3.18,3.18,0,0,1,1.35-1.08,4.66,4.66,0,0,1,2-.39,3.83,3.83,0,0,1,2.39.68A3.77,3.77,0,0,1,335,666.48Z"/><path d="M338.59,662.21a1,1,0,0,1-.66-.26.86.86,0,0,1-.28-.65.84.84,0,0,1,.28-.64.91.91,0,0,1,.66-.27.9.9,0,0,1,.67.27.84.84,0,0,1,.28.64.86.86,0,0,1-.28.65A.94.94,0,0,1,338.59,662.21ZM338,675V664.09h1.27V675Z"/><path d="M346.5,675.22a3.92,3.92,0,0,1-2.35-.71,4.6,4.6,0,0,1-1.57-2,7.94,7.94,0,0,1,0-5.91,4.52,4.52,0,0,1,1.58-2,4,4,0,0,1,2.36-.71,3.58,3.58,0,0,1,1.66.35,3,3,0,0,1,1.05.87,4.67,4.67,0,0,1,.62,1H350v-5.72h1.27V675H350v-2h-.15a4.72,4.72,0,0,1-.62,1,3.35,3.35,0,0,1-1.07.88A3.49,3.49,0,0,1,346.5,675.22Zm.15-1.15a2.87,2.87,0,0,0,1.8-.58,3.6,3.6,0,0,0,1.14-1.6,7,7,0,0,0,0-4.65,3.54,3.54,0,0,0-1.14-1.58,3.16,3.16,0,0,0-3.65,0,3.72,3.72,0,0,0-1.14,1.6,6.29,6.29,0,0,0-.39,2.27,6.36,6.36,0,0,0,.39,2.29,3.7,3.7,0,0,0,1.14,1.63A2.85,2.85,0,0,0,346.65,674.07Z"/><path d="M357.88,675.25a4.16,4.16,0,0,1-1.8-.39,3.15,3.15,0,0,1-1.3-1.12,3.21,3.21,0,0,1-.48-1.79,2.82,2.82,0,0,1,.3-1.36,2.53,2.53,0,0,1,.87-.91,4.48,4.48,0,0,1,1.33-.56,11,11,0,0,1,1.69-.32l1.55-.2a3,3,0,0,0,1-.27.64.64,0,0,0,.33-.6v-.25a2.34,2.34,0,0,0-.66-1.76,2.63,2.63,0,0,0-1.91-.65,3.35,3.35,0,0,0-1.92.52,2.94,2.94,0,0,0-1,1.23l-1.2-.44a3.72,3.72,0,0,1,1-1.43,4.15,4.15,0,0,1,1.47-.77,5.71,5.71,0,0,1,1.64-.24,5.5,5.5,0,0,1,1.3.16,3.77,3.77,0,0,1,1.26.57,3,3,0,0,1,.95,1.11,4,4,0,0,1,.36,1.81V675h-1.27v-1.73h-.07a3.6,3.6,0,0,1-.68.94,3.47,3.47,0,0,1-1.12.74A3.89,3.89,0,0,1,357.88,675.25Zm.17-1.16a3.28,3.28,0,0,0,1.75-.45,3,3,0,0,0,1.14-1.19,3.35,3.35,0,0,0,.4-1.64v-1.57a1.19,1.19,0,0,1-.47.24,7.64,7.64,0,0,1-.76.19c-.29.05-.57.1-.85.13l-.77.1a7.4,7.4,0,0,0-1.58.36,2.31,2.31,0,0,0-1,.66,1.7,1.7,0,0,0-.35,1.09,1.82,1.82,0,0,0,.71,1.53A2.82,2.82,0,0,0,358.05,674.09Z"/><path d="M365.63,675v-1l6.3-8.63v-.09h-6v-1.19h7.66v1l-6.19,8.58v.09h6.42V675Z"/><path d="M377.23,662.21a1,1,0,0,1-.67-.26.89.89,0,0,1-.27-.65.87.87,0,0,1,.27-.64,1,1,0,0,1,1.34,0,.88.88,0,0,1,.28.64.9.9,0,0,1-.28.65A1,1,0,0,1,377.23,662.21ZM376.59,675V664.09h1.27V675Z"/><path d="M385.45,675.22a4.41,4.41,0,0,1-2.5-.71,4.86,4.86,0,0,1-1.69-2,6.61,6.61,0,0,1-.61-2.93,6.7,6.7,0,0,1,.61-3,4.86,4.86,0,0,1,1.69-2,4.49,4.49,0,0,1,2.5-.71,4.38,4.38,0,0,1,2.49.72,4.76,4.76,0,0,1,1.69,2,7.33,7.33,0,0,1,0,5.88,4.86,4.86,0,0,1-1.69,2A4.43,4.43,0,0,1,385.45,675.22Zm0-1.15a3.06,3.06,0,0,0,1.92-.61,3.76,3.76,0,0,0,1.2-1.63,6.32,6.32,0,0,0,0-4.48,3.79,3.79,0,0,0-1.2-1.64,3.28,3.28,0,0,0-3.84,0,3.79,3.79,0,0,0-1.2,1.64,6.32,6.32,0,0,0,0,4.48,3.82,3.82,0,0,0,1.19,1.63A3.11,3.11,0,0,0,385.45,674.07Z"/><path d="M394.29,668.18V675H393V664.09h1.23v1.71h.11a3,3,0,0,1,1.2-1.35,3.7,3.7,0,0,1,2-.5,4,4,0,0,1,1.93.45,3.2,3.2,0,0,1,1.3,1.35,4.65,4.65,0,0,1,.47,2.18V675H400v-7a3,3,0,0,0-.74-2.13,2.66,2.66,0,0,0-2-.78,3.21,3.21,0,0,0-1.53.37,2.74,2.74,0,0,0-1.05,1.06A3.33,3.33,0,0,0,394.29,668.18Z"/><path d="M409,675.22a4.61,4.61,0,0,1-4.37-2.69,7.43,7.43,0,0,1,0-5.85,4.86,4.86,0,0,1,1.69-2,4.27,4.27,0,0,1,2.49-.73,4.76,4.76,0,0,1,1.71.32,4.38,4.38,0,0,1,1.48,1,4.75,4.75,0,0,1,1,1.67,6.77,6.77,0,0,1,.38,2.37v.63h-8.52V668.8h7.23a4.17,4.17,0,0,0-.42-1.89,3.44,3.44,0,0,0-1.17-1.33,3.31,3.31,0,0,0-3.56.06,3.77,3.77,0,0,0-1.23,1.47,4.39,4.39,0,0,0-.45,2v.67a5.31,5.31,0,0,0,.45,2.27,3.44,3.44,0,0,0,1.28,1.5,3.52,3.52,0,0,0,2,.54,3.4,3.4,0,0,0,1.36-.25,3,3,0,0,0,1-.64,3.22,3.22,0,0,0,.6-.9l1.2.39a3.43,3.43,0,0,1-.81,1.27,4.13,4.13,0,0,1-1.41.93A4.85,4.85,0,0,1,409,675.22Z"/><path d="M326.65,699.22a3.92,3.92,0,0,1-2.35-.71,4.62,4.62,0,0,1-1.58-2,8.08,8.08,0,0,1,0-5.91,4.66,4.66,0,0,1,1.58-2,4,4,0,0,1,2.37-.71,3.54,3.54,0,0,1,1.65.35,3.06,3.06,0,0,1,1.06.87,5.1,5.1,0,0,1,.62,1h.11v-5.72h1.27V699h-1.23v-2H330a5.24,5.24,0,0,1-.63,1,3.24,3.24,0,0,1-1.07.88A3.42,3.42,0,0,1,326.65,699.22Zm.15-1.15a2.9,2.9,0,0,0,1.8-.58,3.6,3.6,0,0,0,1.14-1.6,6.52,6.52,0,0,0,.39-2.34,6.35,6.35,0,0,0-.39-2.31,3.6,3.6,0,0,0-1.13-1.58,3.18,3.18,0,0,0-3.66,0,3.62,3.62,0,0,0-1.13,1.6,6.29,6.29,0,0,0-.39,2.27,6.36,6.36,0,0,0,.39,2.29,3.7,3.7,0,0,0,1.14,1.63A2.85,2.85,0,0,0,326.8,698.07Z"/><path d="M335.64,686.21A.93.93,0,0,1,335,686a.86.86,0,0,1-.28-.65.84.84,0,0,1,.28-.64.9.9,0,0,1,.66-.27.92.92,0,0,1,.67.27.84.84,0,0,1,.28.64.86.86,0,0,1-.28.65A1,1,0,0,1,335.64,686.21ZM335,699V688.09h1.27V699Z"/><path d="M349.49,699.22a4.39,4.39,0,0,1-2.5-.71,4.79,4.79,0,0,1-1.69-2,6.61,6.61,0,0,1-.61-2.93,6.7,6.7,0,0,1,.61-3,4.79,4.79,0,0,1,1.69-2,4.47,4.47,0,0,1,2.5-.71,4.38,4.38,0,0,1,2.49.72,4.83,4.83,0,0,1,1.69,2,7.33,7.33,0,0,1,0,5.88,4.81,4.81,0,0,1-1.7,2A4.38,4.38,0,0,1,349.49,699.22Zm0-1.15a3.08,3.08,0,0,0,1.92-.61,3.76,3.76,0,0,0,1.2-1.63,6.32,6.32,0,0,0,0-4.48,3.79,3.79,0,0,0-1.2-1.64,3.28,3.28,0,0,0-3.84,0,3.79,3.79,0,0,0-1.2,1.64,6.32,6.32,0,0,0,0,4.48,3.82,3.82,0,0,0,1.19,1.63A3.11,3.11,0,0,0,349.49,698.07Z"/><path d="M364.39,690.48l-1.15.33a3.21,3.21,0,0,0-.49-.89,2.14,2.14,0,0,0-.81-.63,2.86,2.86,0,0,0-1.24-.24,3,3,0,0,0-1.82.53,1.62,1.62,0,0,0-.71,1.36,1.47,1.47,0,0,0,.49,1.14,3.5,3.5,0,0,0,1.5.69l1.65.4a4.14,4.14,0,0,1,2.05,1.06,2.53,2.53,0,0,1,.69,1.82,2.77,2.77,0,0,1-.51,1.64,3.47,3.47,0,0,1-1.43,1.13,5.13,5.13,0,0,1-2.11.4,4.51,4.51,0,0,1-2.63-.72,3.23,3.23,0,0,1-1.33-2.08l1.21-.3a2.48,2.48,0,0,0,.92,1.47,3,3,0,0,0,1.81.5,3.24,3.24,0,0,0,2-.57,1.7,1.7,0,0,0,.75-1.41,1.54,1.54,0,0,0-.44-1.12,2.68,2.68,0,0,0-1.33-.66l-1.79-.43a4,4,0,0,1-2.1-1.08,2.8,2.8,0,0,1-.19-3.41,3.31,3.31,0,0,1,1.35-1.08,4.7,4.7,0,0,1,2-.39,3.84,3.84,0,0,1,2.4.68A3.7,3.7,0,0,1,364.39,690.48Z"/><path d="M374.65,690.48l-1.16.33a3,3,0,0,0-.48-.89,2.22,2.22,0,0,0-.81-.63,2.89,2.89,0,0,0-1.24-.24,3,3,0,0,0-1.82.53,1.6,1.6,0,0,0-.71,1.36,1.5,1.5,0,0,0,.48,1.14,3.6,3.6,0,0,0,1.51.69l1.64.4a4.18,4.18,0,0,1,2.06,1.06,2.53,2.53,0,0,1,.69,1.82,2.78,2.78,0,0,1-.52,1.64,3.44,3.44,0,0,1-1.42,1.13,5.16,5.16,0,0,1-2.11.4,4.52,4.52,0,0,1-2.64-.72,3.27,3.27,0,0,1-1.33-2.08l1.22-.3a2.44,2.44,0,0,0,.92,1.47,3,3,0,0,0,1.81.5,3.28,3.28,0,0,0,2-.57,1.7,1.7,0,0,0,.75-1.41,1.58,1.58,0,0,0-.44-1.12,2.72,2.72,0,0,0-1.34-.66l-1.78-.43a3.94,3.94,0,0,1-2.1-1.08,2.56,2.56,0,0,1-.68-1.83,2.6,2.6,0,0,1,.49-1.58,3.18,3.18,0,0,1,1.35-1.08,4.66,4.66,0,0,1,2-.39,3.55,3.55,0,0,1,3.69,2.54Z"/><path d="M378.24,686.21a1,1,0,0,1-.67-.26.86.86,0,0,1-.28-.65.84.84,0,0,1,.28-.64.92.92,0,0,1,.67-.27.9.9,0,0,1,.66.27.84.84,0,0,1,.28.64.86.86,0,0,1-.28.65A.93.93,0,0,1,378.24,686.21ZM377.59,699V688.09h1.27V699Z"/><path d="M386.14,699.22a3.94,3.94,0,0,1-2.35-.71,4.6,4.6,0,0,1-1.57-2,7.94,7.94,0,0,1,0-5.91,4.52,4.52,0,0,1,1.58-2,4,4,0,0,1,2.36-.71,3.58,3.58,0,0,1,1.66.35,3.16,3.16,0,0,1,1.06.87,5,5,0,0,1,.61,1h.12v-5.72h1.27V699h-1.24v-2h-.15a4.72,4.72,0,0,1-.62,1,3.35,3.35,0,0,1-1.07.88A3.46,3.46,0,0,1,386.14,699.22Zm.15-1.15a2.85,2.85,0,0,0,1.8-.58,3.6,3.6,0,0,0,1.14-1.6,7,7,0,0,0,0-4.65,3.54,3.54,0,0,0-1.14-1.58,3.16,3.16,0,0,0-3.65,0,3.72,3.72,0,0,0-1.14,1.6,6.29,6.29,0,0,0-.39,2.27,6.36,6.36,0,0,0,.39,2.29,3.7,3.7,0,0,0,1.14,1.63A2.87,2.87,0,0,0,386.29,698.07Z"/><path d="M395.14,686.21a1,1,0,0,1-.67-.26.9.9,0,0,1-.28-.65.88.88,0,0,1,.28-.64,1,1,0,0,1,1.34,0,.87.87,0,0,1,.27.64.89.89,0,0,1-.27.65A1,1,0,0,1,395.14,686.21ZM394.49,699V688.09h1.27V699Z"/><path d="M124,675.21a4.47,4.47,0,0,1-2.5-.71,4.79,4.79,0,0,1-1.69-2,6.61,6.61,0,0,1-.61-2.93,6.7,6.7,0,0,1,.61-3,4.79,4.79,0,0,1,1.69-2,4.47,4.47,0,0,1,2.5-.71,4.38,4.38,0,0,1,2.49.72,4.83,4.83,0,0,1,1.69,2,7.33,7.33,0,0,1,0,5.88,4.81,4.81,0,0,1-1.7,2A4.46,4.46,0,0,1,124,675.21Zm0-1.15a3.06,3.06,0,0,0,1.92-.61,3.76,3.76,0,0,0,1.2-1.63,6.32,6.32,0,0,0,0-4.48,3.79,3.79,0,0,0-1.2-1.64,3.28,3.28,0,0,0-3.84,0,3.79,3.79,0,0,0-1.2,1.64,6.32,6.32,0,0,0,0,4.48,3.82,3.82,0,0,0,1.19,1.63A3.11,3.11,0,0,0,124,674.06Z"/><path d="M138.93,666.47l-1.15.33a3.08,3.08,0,0,0-.49-.89,2,2,0,0,0-.81-.63,2.86,2.86,0,0,0-1.24-.24,3,3,0,0,0-1.82.53,1.62,1.62,0,0,0-.71,1.36,1.43,1.43,0,0,0,.49,1.13,3.38,3.38,0,0,0,1.5.7l1.65.4a4.14,4.14,0,0,1,2.06,1.06,2.57,2.57,0,0,1,.68,1.82,2.77,2.77,0,0,1-.51,1.64,3.4,3.4,0,0,1-1.42,1.12,5,5,0,0,1-2.12.41,4.51,4.51,0,0,1-2.63-.72,3.23,3.23,0,0,1-1.33-2.08l1.21-.3a2.48,2.48,0,0,0,.92,1.47,3,3,0,0,0,1.81.5,3.24,3.24,0,0,0,2-.57,1.7,1.7,0,0,0,.75-1.41,1.52,1.52,0,0,0-.44-1.12,2.64,2.64,0,0,0-1.33-.66l-1.78-.43a4,4,0,0,1-2.11-1.08,2.61,2.61,0,0,1-.68-1.83,2.72,2.72,0,0,1,.49-1.59,3.37,3.37,0,0,1,1.35-1.07,4.7,4.7,0,0,1,2-.39,3.84,3.84,0,0,1,2.4.68A3.7,3.7,0,0,1,138.93,666.47Z"/><path d="M149.19,666.47l-1.16.33a2.83,2.83,0,0,0-.48-.89,2.12,2.12,0,0,0-.81-.63,2.89,2.89,0,0,0-1.24-.24,3,3,0,0,0-1.82.53,1.62,1.62,0,0,0-.71,1.36,1.43,1.43,0,0,0,.49,1.13,3.38,3.38,0,0,0,1.5.7l1.65.4a4.11,4.11,0,0,1,2,1.06,2.53,2.53,0,0,1,.69,1.82,2.72,2.72,0,0,1-.52,1.64,3.34,3.34,0,0,1-1.42,1.12,5,5,0,0,1-2.11.41,4.52,4.52,0,0,1-2.64-.72,3.27,3.27,0,0,1-1.33-2.08l1.22-.3a2.44,2.44,0,0,0,.92,1.47,3,3,0,0,0,1.81.5,3.24,3.24,0,0,0,2-.57,1.7,1.7,0,0,0,.75-1.41,1.56,1.56,0,0,0-.44-1.12,2.68,2.68,0,0,0-1.34-.66l-1.78-.43a3.94,3.94,0,0,1-2.1-1.08,2.56,2.56,0,0,1-.68-1.83,2.65,2.65,0,0,1,.49-1.59,3.24,3.24,0,0,1,1.35-1.07,4.66,4.66,0,0,1,2-.39,3.55,3.55,0,0,1,3.69,2.54Z"/><path d="M152.78,662.2a1,1,0,0,1-.67-.26.86.86,0,0,1-.28-.65.84.84,0,0,1,.28-.64.92.92,0,0,1,.67-.27.9.9,0,0,1,.66.27.84.84,0,0,1,.28.64.86.86,0,0,1-.28.65A.93.93,0,0,1,152.78,662.2ZM152.13,675V664.08h1.27V675Z"/><path d="M160.68,675.21a3.94,3.94,0,0,1-2.35-.71,4.6,4.6,0,0,1-1.57-2,7.94,7.94,0,0,1,0-5.91,4.61,4.61,0,0,1,1.58-2,4,4,0,0,1,2.36-.7,3.55,3.55,0,0,1,1.66.35,3.16,3.16,0,0,1,1.06.87,4.77,4.77,0,0,1,.61,1h.12v-5.72h1.27V675h-1.24v-2H164a4.72,4.72,0,0,1-.62,1,3.35,3.35,0,0,1-1.07.88A3.58,3.58,0,0,1,160.68,675.21Zm.15-1.15a2.85,2.85,0,0,0,1.8-.58,3.6,3.6,0,0,0,1.14-1.6,7,7,0,0,0,0-4.65,3.54,3.54,0,0,0-1.14-1.58,3.16,3.16,0,0,0-3.65,0,3.72,3.72,0,0,0-1.14,1.6,6.29,6.29,0,0,0-.39,2.27,6.36,6.36,0,0,0,.39,2.29,3.93,3.93,0,0,0,1.14,1.63A2.87,2.87,0,0,0,160.83,674.06Z"/><path d="M172.07,675.23a4.17,4.17,0,0,1-1.81-.38,3.15,3.15,0,0,1-1.3-1.12,3.21,3.21,0,0,1-.48-1.79,2.71,2.71,0,0,1,.31-1.36,2.42,2.42,0,0,1,.86-.91,4.59,4.59,0,0,1,1.33-.56,11,11,0,0,1,1.69-.32l1.55-.2a2.93,2.93,0,0,0,1-.27.66.66,0,0,0,.34-.6v-.26a2.34,2.34,0,0,0-.67-1.75,2.63,2.63,0,0,0-1.91-.65,3.35,3.35,0,0,0-1.92.52,3,3,0,0,0-1,1.22l-1.2-.43a3.65,3.65,0,0,1,1-1.43,4,4,0,0,1,1.47-.77,5.71,5.71,0,0,1,1.64-.24,5.5,5.5,0,0,1,1.3.16,3.77,3.77,0,0,1,1.26.57,2.88,2.88,0,0,1,1,1.11,4,4,0,0,1,.36,1.81V675h-1.26v-1.73h-.08a3.77,3.77,0,0,1-.68.94,3.47,3.47,0,0,1-1.12.74A3.88,3.88,0,0,1,172.07,675.23Zm.17-1.15a3.27,3.27,0,0,0,1.74-.45,3,3,0,0,0,1.14-1.19,3.35,3.35,0,0,0,.41-1.64v-1.57a1.33,1.33,0,0,1-.48.24,7.64,7.64,0,0,1-.76.19c-.28.05-.57.1-.85.13l-.77.1a7.4,7.4,0,0,0-1.58.36,2.31,2.31,0,0,0-1,.66,1.68,1.68,0,0,0-.35,1.09,1.82,1.82,0,0,0,.71,1.53A2.83,2.83,0,0,0,172.24,674.08Z"/><path d="M179.81,675v-1l6.3-8.62v-.09h-6v-1.19h7.66v1l-6.19,8.58v.09H188V675Z"/><path d="M191.41,662.2a.93.93,0,0,1-.66-.26.86.86,0,0,1-.28-.65.84.84,0,0,1,.28-.64.9.9,0,0,1,.66-.27.92.92,0,0,1,.67.27.88.88,0,0,1,.28.64.9.9,0,0,1-.28.65A1,1,0,0,1,191.41,662.2ZM190.77,675V664.08H192V675Z"/><path d="M199.63,675.21a4.51,4.51,0,0,1-2.5-.71,4.86,4.86,0,0,1-1.69-2,6.61,6.61,0,0,1-.61-2.93,6.7,6.7,0,0,1,.61-3,4.86,4.86,0,0,1,1.69-2,4.51,4.51,0,0,1,2.5-.71,4.38,4.38,0,0,1,2.49.72,4.85,4.85,0,0,1,1.7,2,6.7,6.7,0,0,1,.61,3,6.61,6.61,0,0,1-.61,2.93,4.86,4.86,0,0,1-1.69,2A4.51,4.51,0,0,1,199.63,675.21Zm0-1.15a3.06,3.06,0,0,0,1.92-.61,3.76,3.76,0,0,0,1.2-1.63,6.32,6.32,0,0,0,0-4.48,3.79,3.79,0,0,0-1.2-1.64,3,3,0,0,0-1.92-.62,3,3,0,0,0-1.92.62,3.79,3.79,0,0,0-1.2,1.64,6.32,6.32,0,0,0,0,4.48,3.76,3.76,0,0,0,1.2,1.63A3.06,3.06,0,0,0,199.63,674.06Z"/><path d="M208.47,668.17V675h-1.26V664.08h1.23v1.71h.11a3.13,3.13,0,0,1,1.2-1.35,3.7,3.7,0,0,1,2-.51,4.06,4.06,0,0,1,1.94.46,3.26,3.26,0,0,1,1.3,1.35,4.66,4.66,0,0,1,.46,2.18V675H214.2v-7a2.94,2.94,0,0,0-.75-2.13,2.66,2.66,0,0,0-2-.78,3.21,3.21,0,0,0-1.53.37,2.74,2.74,0,0,0-1,1.06A3.33,3.33,0,0,0,208.47,668.17Z"/><path d="M223.21,675.21a4.61,4.61,0,0,1-4.37-2.69,7.43,7.43,0,0,1,0-5.85,4.86,4.86,0,0,1,1.69-2,4.32,4.32,0,0,1,2.49-.73,4.76,4.76,0,0,1,1.71.32,4.38,4.38,0,0,1,1.48,1,4.61,4.61,0,0,1,1,1.67,6.55,6.55,0,0,1,.38,2.37v.63h-8.52v-1.12h7.23a4.17,4.17,0,0,0-.42-1.89,3.36,3.36,0,0,0-1.17-1.33,3.07,3.07,0,0,0-1.73-.49,3.11,3.11,0,0,0-1.83.55A3.85,3.85,0,0,0,220,667.1a4.36,4.36,0,0,0-.45,2v.67A5.35,5.35,0,0,0,220,672a3.44,3.44,0,0,0,1.28,1.5,3.55,3.55,0,0,0,2,.54,3.37,3.37,0,0,0,1.36-.25,2.86,2.86,0,0,0,1.59-1.54l1.2.39a3.43,3.43,0,0,1-.81,1.27,4,4,0,0,1-1.41.93A4.85,4.85,0,0,1,223.21,675.21Z"/><path d="M117.53,699.21a3.92,3.92,0,0,1-2.35-.71,4.62,4.62,0,0,1-1.58-2,8.08,8.08,0,0,1,0-5.91,4.76,4.76,0,0,1,1.58-2,4.06,4.06,0,0,1,2.37-.7,3.61,3.61,0,0,1,1.66.35,3.12,3.12,0,0,1,1.05.87,4.83,4.83,0,0,1,.62,1H121v-5.72h1.28V699H121v-2h-.15a5.16,5.16,0,0,1-.62,1,3.35,3.35,0,0,1-1.07.88A3.61,3.61,0,0,1,117.53,699.21Zm.15-1.15a2.9,2.9,0,0,0,1.8-.58,3.6,3.6,0,0,0,1.14-1.6,6.52,6.52,0,0,0,.4-2.34,6.15,6.15,0,0,0-.4-2.31,3.52,3.52,0,0,0-1.13-1.58,3.18,3.18,0,0,0-3.66,0,3.7,3.7,0,0,0-1.13,1.6,6.29,6.29,0,0,0-.39,2.27,6.36,6.36,0,0,0,.39,2.29,3.76,3.76,0,0,0,1.14,1.63A2.85,2.85,0,0,0,117.68,698.06Z"/><path d="M126.53,686.2a1,1,0,0,1-.67-.26.86.86,0,0,1-.28-.65.84.84,0,0,1,.28-.64.92.92,0,0,1,.67-.27.9.9,0,0,1,.66.27.84.84,0,0,1,.28.64.86.86,0,0,1-.28.65A.93.93,0,0,1,126.53,686.2ZM125.88,699V688.08h1.27V699Z"/><path d="M136.79,686.2a1,1,0,0,1-.67-.26.9.9,0,0,1-.28-.65.88.88,0,0,1,.28-.64,1,1,0,0,1,1.34,0,.87.87,0,0,1,.27.64.89.89,0,0,1-.27.65A1,1,0,0,1,136.79,686.2ZM136.14,699V688.08h1.27V699Z"/><path d="M144.69,699.21a4,4,0,0,1-2.35-.71,4.68,4.68,0,0,1-1.57-2,8.08,8.08,0,0,1,0-5.91,4.68,4.68,0,0,1,1.58-2,4.06,4.06,0,0,1,2.37-.7,3.54,3.54,0,0,1,1.65.35,3.16,3.16,0,0,1,1.06.87,5.3,5.3,0,0,1,.62,1h.11v-5.72h1.27V699H148.2v-2h-.15a5.24,5.24,0,0,1-.63,1,3.24,3.24,0,0,1-1.07.88A3.55,3.55,0,0,1,144.69,699.21Zm.15-1.15a2.9,2.9,0,0,0,1.81-.58,3.76,3.76,0,0,0,1.14-1.6,6.52,6.52,0,0,0,.39-2.34,6.35,6.35,0,0,0-.39-2.31,3.54,3.54,0,0,0-1.14-1.58,3.16,3.16,0,0,0-3.65,0,3.72,3.72,0,0,0-1.14,1.6,6.51,6.51,0,0,0-.38,2.27,6.36,6.36,0,0,0,.39,2.29,3.76,3.76,0,0,0,1.14,1.63A2.84,2.84,0,0,0,144.84,698.06Z"/><path d="M153,699V688.08h1.23v1.67h.09a2.76,2.76,0,0,1,1.14-1.33,3.43,3.43,0,0,1,1.85-.51H158v1.29l-.29,0a3.48,3.48,0,0,0-.47,0,3.12,3.12,0,0,0-1.51.36,2.78,2.78,0,0,0-1,1,2.67,2.67,0,0,0-.38,1.44v7Z"/><path d="M164.06,699.21a4.46,4.46,0,0,1-2.49-.71,4.81,4.81,0,0,1-1.7-2,6.61,6.61,0,0,1-.61-2.93,6.7,6.7,0,0,1,.61-3,4.81,4.81,0,0,1,1.7-2,4.46,4.46,0,0,1,2.49-.71,4.38,4.38,0,0,1,2.49.72,4.85,4.85,0,0,1,1.7,2,6.7,6.7,0,0,1,.61,3,6.61,6.61,0,0,1-.61,2.93,4.79,4.79,0,0,1-1.69,2A4.49,4.49,0,0,1,164.06,699.21Zm0-1.15a3.11,3.11,0,0,0,1.93-.61,3.82,3.82,0,0,0,1.19-1.63,6.32,6.32,0,0,0,0-4.48A3.86,3.86,0,0,0,166,689.7a3.3,3.3,0,0,0-3.85,0,3.79,3.79,0,0,0-1.2,1.64,6.32,6.32,0,0,0,0,4.48,3.76,3.76,0,0,0,1.2,1.63A3.06,3.06,0,0,0,164.06,698.06Z"/><path d="M175.9,699.21a4.41,4.41,0,0,1-2.54-.73,4.71,4.71,0,0,1-1.68-2,7.3,7.3,0,0,1,0-5.82,4.8,4.8,0,0,1,1.68-2,4.36,4.36,0,0,1,2.51-.73,4.56,4.56,0,0,1,2,.42,4,4,0,0,1,1.47,1.19,3.87,3.87,0,0,1,.73,1.78h-1.28a2.77,2.77,0,0,0-1-1.58,2.8,2.8,0,0,0-1.92-.66,3.21,3.21,0,0,0-1.85.56,3.79,3.79,0,0,0-1.25,1.57,5.66,5.66,0,0,0-.45,2.33,6,6,0,0,0,.44,2.35,3.69,3.69,0,0,0,1.24,1.59,3.15,3.15,0,0,0,1.87.58,3.23,3.23,0,0,0,1.33-.28,2.64,2.64,0,0,0,1-.78,2.67,2.67,0,0,0,.56-1.2h1.27a3.86,3.86,0,0,1-2.14,3A4.38,4.38,0,0,1,175.9,699.21Z"/><path d="M185.82,699.23a4.17,4.17,0,0,1-1.81-.38,3.15,3.15,0,0,1-1.3-1.12,3.21,3.21,0,0,1-.48-1.79,2.82,2.82,0,0,1,.3-1.36,2.53,2.53,0,0,1,.87-.91,4.59,4.59,0,0,1,1.33-.56,11,11,0,0,1,1.69-.32l1.55-.2a3,3,0,0,0,1-.27.65.65,0,0,0,.33-.6v-.26a2.33,2.33,0,0,0-.66-1.75,2.63,2.63,0,0,0-1.91-.65,3.35,3.35,0,0,0-1.92.52,3,3,0,0,0-1,1.22l-1.2-.43a3.65,3.65,0,0,1,1-1.43,4,4,0,0,1,1.47-.77,5.71,5.71,0,0,1,1.64-.24,5.5,5.5,0,0,1,1.3.16,3.77,3.77,0,0,1,1.26.57,2.88,2.88,0,0,1,1,1.11,4,4,0,0,1,.36,1.81V699h-1.27v-1.73h-.07a3.77,3.77,0,0,1-.68.94,3.47,3.47,0,0,1-1.12.74A3.88,3.88,0,0,1,185.82,699.23Zm.17-1.15a3.27,3.27,0,0,0,1.74-.45,3,3,0,0,0,1.14-1.19,3.35,3.35,0,0,0,.4-1.64v-1.57a1.19,1.19,0,0,1-.47.24,7.64,7.64,0,0,1-.76.19c-.28.05-.57.1-.85.13l-.77.1a7.4,7.4,0,0,0-1.58.36,2.31,2.31,0,0,0-1,.66,1.68,1.68,0,0,0-.35,1.09,1.82,1.82,0,0,0,.71,1.53A2.83,2.83,0,0,0,186,698.08Z"/><path d="M193.9,699V688.08h1.23v1.67h.09a2.76,2.76,0,0,1,1.14-1.33,3.4,3.4,0,0,1,1.84-.51h.67v1.29l-.3,0a3.23,3.23,0,0,0-.46,0,3.16,3.16,0,0,0-1.52.36,2.72,2.72,0,0,0-1.43,2.43v7Z"/><path d="M201.29,699V684.44h1.27v5.72h.12a4.38,4.38,0,0,1,.61-1,3.16,3.16,0,0,1,1.06-.87,3.55,3.55,0,0,1,1.66-.35,4.05,4.05,0,0,1,2.36.7,4.76,4.76,0,0,1,1.58,2,7.94,7.94,0,0,1,0,5.91,4.55,4.55,0,0,1-1.58,2,3.91,3.91,0,0,1-2.34.71,3.58,3.58,0,0,1-1.66-.35,3.35,3.35,0,0,1-1.07-.88,4.72,4.72,0,0,1-.62-1h-.16v2Zm1.25-5.45a6.31,6.31,0,0,0,.4,2.34,3.66,3.66,0,0,0,1.13,1.6,2.9,2.9,0,0,0,1.8.58,2.85,2.85,0,0,0,1.84-.6,3.76,3.76,0,0,0,1.14-1.63,6.15,6.15,0,0,0,.4-2.29,6.29,6.29,0,0,0-.39-2.27,3.72,3.72,0,0,0-1.14-1.6,3.18,3.18,0,0,0-3.66,0,3.6,3.6,0,0,0-1.13,1.58A6.35,6.35,0,0,0,202.54,693.54Z"/><path d="M220.23,694.82v-6.74h1.26V699h-1.26v-1.81h-.1a3.37,3.37,0,0,1-1.22,1.39,3.56,3.56,0,0,1-2,.56,3.63,3.63,0,0,1-1.85-.46,3.13,3.13,0,0,1-1.27-1.35,4.62,4.62,0,0,1-.47-2.18v-7.06h1.27v7a2.83,2.83,0,0,0,.75,2,2.57,2.57,0,0,0,1.93.78,3,3,0,0,0,1.42-.36,2.88,2.88,0,0,0,1.13-1A3.07,3.07,0,0,0,220.23,694.82Z"/><path d="M224.83,699V688.08h1.23v1.67h.09a2.76,2.76,0,0,1,1.14-1.33,3.4,3.4,0,0,1,1.84-.51h.67v1.29l-.3,0a3.23,3.23,0,0,0-.46,0,3.16,3.16,0,0,0-1.52.36,2.72,2.72,0,0,0-1.43,2.43v7Z"/><path d="M232.62,686.2a1,1,0,0,1-.67-.26.9.9,0,0,1-.28-.65.88.88,0,0,1,.28-.64,1,1,0,0,1,1.34,0,.87.87,0,0,1,.27.64.89.89,0,0,1-.27.65A1,1,0,0,1,232.62,686.2ZM232,699V688.08h1.27V699Z"/><path d="M154.73,501.75V490.84H156v1.68h.09a2.76,2.76,0,0,1,1.14-1.33,3.4,3.4,0,0,1,1.84-.51h.67V492l-.3,0a3.23,3.23,0,0,0-.46,0,3.16,3.16,0,0,0-1.52.36,2.72,2.72,0,0,0-1.43,2.43v7Z"/><path d="M165.93,502a4.82,4.82,0,0,1-2.64-.71,4.68,4.68,0,0,1-1.72-2,7.34,7.34,0,0,1,0-5.86,4.89,4.89,0,0,1,1.68-2,4.38,4.38,0,0,1,2.49-.72,4.55,4.55,0,0,1,1.71.32,4.1,4.1,0,0,1,1.48,1,4.52,4.52,0,0,1,1,1.67,6.55,6.55,0,0,1,.38,2.37v.63h-8.52v-1.12h7.23a4.17,4.17,0,0,0-.42-1.89,3.29,3.29,0,0,0-1.17-1.33,3.07,3.07,0,0,0-1.73-.49,3.11,3.11,0,0,0-1.83.55,3.9,3.9,0,0,0-1.23,1.46,4.44,4.44,0,0,0-.45,2v.67a5.35,5.35,0,0,0,.45,2.27,3.49,3.49,0,0,0,1.28,1.5,3.94,3.94,0,0,0,3.33.29,3,3,0,0,0,1-.65,2.78,2.78,0,0,0,.6-.9l1.2.39a3.46,3.46,0,0,1-.81,1.28,4.28,4.28,0,0,1-1.4.93A5.12,5.12,0,0,1,165.93,502Z"/><path d="M180.46,493.24l-1.16.32a2.9,2.9,0,0,0-.48-.88A2.24,2.24,0,0,0,178,492a3,3,0,0,0-1.24-.23,3,3,0,0,0-1.82.53,1.62,1.62,0,0,0-.71,1.35,1.44,1.44,0,0,0,.49,1.14,3.62,3.62,0,0,0,1.5.7l1.65.4a4.11,4.11,0,0,1,2.05,1.06,2.53,2.53,0,0,1,.69,1.82,2.77,2.77,0,0,1-.51,1.64,3.44,3.44,0,0,1-1.43,1.12,5,5,0,0,1-2.11.41,4.52,4.52,0,0,1-2.64-.72,3.24,3.24,0,0,1-1.32-2.08l1.21-.3a2.44,2.44,0,0,0,.92,1.47,3,3,0,0,0,1.81.49,3.24,3.24,0,0,0,2-.56,1.72,1.72,0,0,0,.75-1.42,1.54,1.54,0,0,0-.44-1.11,2.68,2.68,0,0,0-1.34-.66l-1.78-.43a4.09,4.09,0,0,1-2.1-1.08,2.61,2.61,0,0,1-.68-1.83,2.65,2.65,0,0,1,.49-1.59,3.24,3.24,0,0,1,1.35-1.07,4.66,4.66,0,0,1,2-.39,3.85,3.85,0,0,1,2.39.67A3.78,3.78,0,0,1,180.46,493.24Z"/><path d="M187.68,490.84V492h-5.2v-1.11Zm-3.58-2.61h1.27v10.68a2,2,0,0,0,.24,1.06,1.34,1.34,0,0,0,.61.55,2,2,0,0,0,.8.16,2.63,2.63,0,0,0,.43,0l.31-.07.27,1.15a4.36,4.36,0,0,1-.45.13,3.2,3.2,0,0,1-.67.06,3,3,0,0,1-1.34-.31,2.49,2.49,0,0,1-1-.91,2.55,2.55,0,0,1-.42-1.5Z"/><path d="M191.21,489a.9.9,0,0,1-.66-.27.83.83,0,0,1-.28-.64.84.84,0,0,1,.28-.64.9.9,0,0,1,.66-.27.92.92,0,0,1,.67.27.84.84,0,0,1,.28.64.83.83,0,0,1-.28.64A.92.92,0,0,1,191.21,489Zm-.64,12.78V490.84h1.27v10.91Z"/><path d="M147.09,513a.92.92,0,0,1-.67-.27.86.86,0,0,1-.28-.64.88.88,0,0,1,.28-.64.92.92,0,0,1,.67-.27.9.9,0,0,1,.66.27.84.84,0,0,1,.28.64.83.83,0,0,1-.28.64A.9.9,0,0,1,147.09,513Zm-.65,12.78V514.84h1.27v10.91Z"/><path d="M152.33,518.94v6.81h-1.27V514.84h1.23v1.72h.12a3,3,0,0,1,1.19-1.35,3.76,3.76,0,0,1,2-.51,4,4,0,0,1,1.93.46,3.14,3.14,0,0,1,1.3,1.35,4.65,4.65,0,0,1,.47,2.18v7.06h-1.27v-7a2.94,2.94,0,0,0-.75-2.13,2.64,2.64,0,0,0-2-.78,3.07,3.07,0,0,0-1.53.37,2.68,2.68,0,0,0-1.05,1.06A3.3,3.3,0,0,0,152.33,518.94Z"/><path d="M170,517.24l-1.16.32a3.16,3.16,0,0,0-.49-.88,2.08,2.08,0,0,0-.81-.64,3.42,3.42,0,0,0-3.06.3,1.62,1.62,0,0,0-.71,1.35,1.47,1.47,0,0,0,.49,1.14,3.68,3.68,0,0,0,1.5.7l1.65.4a4.14,4.14,0,0,1,2.06,1.06,2.57,2.57,0,0,1,.68,1.82,2.77,2.77,0,0,1-.51,1.64,3.4,3.4,0,0,1-1.42,1.12,5,5,0,0,1-2.12.41,4.51,4.51,0,0,1-2.63-.72,3.26,3.26,0,0,1-1.33-2.08l1.21-.3a2.48,2.48,0,0,0,.92,1.47,3,3,0,0,0,1.81.49,3.24,3.24,0,0,0,2-.56,1.72,1.72,0,0,0,.75-1.42,1.5,1.5,0,0,0-.44-1.11,2.64,2.64,0,0,0-1.33-.66l-1.78-.43a4.16,4.16,0,0,1-2.11-1.08,2.61,2.61,0,0,1-.68-1.83,2.72,2.72,0,0,1,.49-1.59,3.37,3.37,0,0,1,1.35-1.07,4.7,4.7,0,0,1,2-.39,3.9,3.9,0,0,1,2.4.67A3.85,3.85,0,0,1,170,517.24Z"/><path d="M177.32,526a4.82,4.82,0,0,1-2.64-.71,4.74,4.74,0,0,1-1.72-2,7.34,7.34,0,0,1,0-5.86,4.89,4.89,0,0,1,1.68-2,4.38,4.38,0,0,1,2.49-.72,4.55,4.55,0,0,1,1.71.32,4.1,4.1,0,0,1,1.48,1,4.52,4.52,0,0,1,1,1.67,6.54,6.54,0,0,1,.39,2.37v.63h-8.53v-1.12h7.23a4.17,4.17,0,0,0-.42-1.89,3.29,3.29,0,0,0-1.17-1.33,3.07,3.07,0,0,0-1.73-.49,3.11,3.11,0,0,0-1.83.55,3.9,3.9,0,0,0-1.23,1.46,4.72,4.72,0,0,0-.45,2v.67a5.35,5.35,0,0,0,.45,2.27,3.49,3.49,0,0,0,1.28,1.5,3.94,3.94,0,0,0,3.33.29,3,3,0,0,0,1-.65,2.81,2.81,0,0,0,.61-.9l1.2.39a3.63,3.63,0,0,1-.82,1.28,4.28,4.28,0,0,1-1.4.93A5.09,5.09,0,0,1,177.32,526Z"/><path d="M188.82,514.84V516h-5.21v-1.11Zm-3.58-2.61h1.27v10.68a2,2,0,0,0,.24,1.06,1.29,1.29,0,0,0,.61.55,1.94,1.94,0,0,0,.8.16,2.42,2.42,0,0,0,.42,0,2.21,2.21,0,0,0,.32-.07l.27,1.15c-.13,0-.28.09-.46.13a3.1,3.1,0,0,1-.66.06,3,3,0,0,1-1.34-.31,2.58,2.58,0,0,1-1.06-.91,2.62,2.62,0,0,1-.41-1.5Z"/><path d="M196,514.84V516h-5.21v-1.11Zm-3.58-2.61h1.27v10.68a2.08,2.08,0,0,0,.23,1.06,1.34,1.34,0,0,0,.61.55,2,2,0,0,0,.81.16,2.58,2.58,0,0,0,.42,0l.31-.07.27,1.15a4.36,4.36,0,0,1-.45.13,3.13,3.13,0,0,1-.67.06,3,3,0,0,1-1.34-.31,2.49,2.49,0,0,1-1.05-.91,2.55,2.55,0,0,1-.41-1.5Z"/><path d="M199.52,513a.9.9,0,0,1-.67-.27.83.83,0,0,1-.28-.64.84.84,0,0,1,.28-.64,1,1,0,0,1,1.33,0,.84.84,0,0,1,.28.64.83.83,0,0,1-.28.64A.9.9,0,0,1,199.52,513Zm-.65,12.78V514.84h1.27v10.91Z"/><path d="M518.48,502a4.24,4.24,0,0,1-1.8-.38,3.09,3.09,0,0,1-1.79-2.91,2.75,2.75,0,0,1,.31-1.37,2.44,2.44,0,0,1,.87-.91,5,5,0,0,1,1.32-.56,14.55,14.55,0,0,1,1.69-.32l1.56-.19a3.08,3.08,0,0,0,1-.27.65.65,0,0,0,.33-.6v-.26a2.31,2.31,0,0,0-.66-1.75,2.65,2.65,0,0,0-1.91-.65,3.3,3.3,0,0,0-1.92.52,2.85,2.85,0,0,0-1,1.22l-1.2-.43a3.46,3.46,0,0,1,1-1.43,4,4,0,0,1,1.46-.78,6.13,6.13,0,0,1,1.64-.23,5.58,5.58,0,0,1,1.31.16,4,4,0,0,1,1.26.56,3,3,0,0,1,.94,1.12,4,4,0,0,1,.36,1.81v7.4h-1.26V500h-.08a3.72,3.72,0,0,1-.67.94,3.52,3.52,0,0,1-1.13.74A3.84,3.84,0,0,1,518.48,502Zm.17-1.15a3.33,3.33,0,0,0,1.75-.45,3.17,3.17,0,0,0,1.14-1.19,3.37,3.37,0,0,0,.4-1.64V496a1.44,1.44,0,0,1-.47.24,6.1,6.1,0,0,1-.76.18c-.29.06-.58.11-.86.14l-.77.1a7.3,7.3,0,0,0-1.57.36,2.25,2.25,0,0,0-1,.66,1.6,1.6,0,0,0-.35,1.08,1.8,1.8,0,0,0,.71,1.54A2.86,2.86,0,0,0,518.65,500.81Z"/><path d="M531,501.94a4.82,4.82,0,0,1-2.64-.71,4.74,4.74,0,0,1-1.72-2,6.64,6.64,0,0,1-.61-2.93,6.74,6.74,0,0,1,.61-2.93,4.89,4.89,0,0,1,1.68-2,4.38,4.38,0,0,1,2.49-.72,4.55,4.55,0,0,1,1.71.32,4.15,4.15,0,0,1,1.48,1,4.61,4.61,0,0,1,1,1.67,6.54,6.54,0,0,1,.39,2.37v.63h-8.53v-1.12h7.24a4.17,4.17,0,0,0-.43-1.89,3.29,3.29,0,0,0-1.17-1.33,3.29,3.29,0,0,0-3.55.06,3.83,3.83,0,0,0-1.24,1.46,4.72,4.72,0,0,0-.45,2v.67a5.35,5.35,0,0,0,.45,2.27,3.39,3.39,0,0,0,1.29,1.5,3.51,3.51,0,0,0,2,.53,3.55,3.55,0,0,0,1.36-.24,2.84,2.84,0,0,0,1-.65,2.81,2.81,0,0,0,.61-.9l1.2.4a3.8,3.8,0,0,1-.81,1.27,4.28,4.28,0,0,1-1.41.93A5.09,5.09,0,0,1,531,501.94Z"/><path d="M538.17,501.71v-10.9h1.23v1.67h.1a2.66,2.66,0,0,1,1.14-1.33,3.37,3.37,0,0,1,1.84-.51h.67V492l-.3,0a3.33,3.33,0,0,0-.46,0,3.13,3.13,0,0,0-1.52.36,2.67,2.67,0,0,0-1.43,2.43v7Z"/><path d="M549.2,501.94a4.38,4.38,0,0,1-2.49-.72,4.85,4.85,0,0,1-1.7-2,7.39,7.39,0,0,1,0-5.88,4.88,4.88,0,0,1,1.7-2,4.38,4.38,0,0,1,2.49-.71,4.47,4.47,0,0,1,2.5.71,4.93,4.93,0,0,1,1.69,2,7.28,7.28,0,0,1,0,5.88,4.76,4.76,0,0,1-1.69,2A4.39,4.39,0,0,1,549.2,501.94Zm0-1.16a3,3,0,0,0,1.93-.61,3.9,3.9,0,0,0,1.2-1.62,6.47,6.47,0,0,0,0-4.48,3.9,3.9,0,0,0-1.2-1.64,3.3,3.3,0,0,0-3.85,0,3.82,3.82,0,0,0-1.2,1.64,6.32,6.32,0,0,0,0,4.48,3.81,3.81,0,0,0,1.2,1.62A3,3,0,0,0,549.2,500.78Z"/><path d="M564.11,493.2l-1.16.33a2.83,2.83,0,0,0-.48-.89,2.12,2.12,0,0,0-.81-.63,2.89,2.89,0,0,0-1.24-.24,3,3,0,0,0-1.82.53,1.62,1.62,0,0,0-.71,1.35,1.44,1.44,0,0,0,.49,1.14,3.5,3.5,0,0,0,1.5.7l1.65.4a4.06,4.06,0,0,1,2.05,1.06,2.53,2.53,0,0,1,.69,1.82,2.77,2.77,0,0,1-.51,1.64,3.37,3.37,0,0,1-1.43,1.12,5,5,0,0,1-2.11.41,4.54,4.54,0,0,1-2.64-.72,3.22,3.22,0,0,1-1.32-2.08l1.21-.3a2.44,2.44,0,0,0,.92,1.47,3,3,0,0,0,1.81.5,3.24,3.24,0,0,0,2-.57,1.72,1.72,0,0,0,.75-1.42,1.54,1.54,0,0,0-.44-1.11,2.68,2.68,0,0,0-1.33-.66l-1.79-.43a4.05,4.05,0,0,1-2.1-1.08,2.61,2.61,0,0,1-.68-1.83,2.65,2.65,0,0,1,.49-1.59,3.37,3.37,0,0,1,1.35-1.07,4.66,4.66,0,0,1,2-.39,3.9,3.9,0,0,1,2.4.67A3.83,3.83,0,0,1,564.11,493.2Z"/><path d="M571.28,501.94a4.39,4.39,0,0,1-2.5-.72,4.76,4.76,0,0,1-1.69-2,7.39,7.39,0,0,1,0-5.88,4.79,4.79,0,0,1,1.69-2,4.39,4.39,0,0,1,2.5-.71,4.46,4.46,0,0,1,2.49.71,4.93,4.93,0,0,1,1.69,2,6.7,6.7,0,0,1,.62,2.95,6.79,6.79,0,0,1-.61,2.93,4.78,4.78,0,0,1-1.7,2A4.38,4.38,0,0,1,571.28,501.94Zm0-1.16a3,3,0,0,0,1.92-.61,3.73,3.73,0,0,0,1.2-1.62,6.32,6.32,0,0,0,0-4.48,3.74,3.74,0,0,0-1.2-1.64,3.28,3.28,0,0,0-3.84,0,3.74,3.74,0,0,0-1.2,1.64,6.32,6.32,0,0,0,0,4.48,3.79,3.79,0,0,0,1.19,1.62A3,3,0,0,0,571.28,500.78Z"/><path d="M580.12,487.17v14.54h-1.26V487.17Z"/><path d="M517.71,525.71v-10.9h1.23v1.67h.12a2.64,2.64,0,0,1,1.09-1.33,3.35,3.35,0,0,1,1.83-.49,3.12,3.12,0,0,1,1.86.53,3.27,3.27,0,0,1,1.09,1.45H525a3.08,3.08,0,0,1,1.21-1.44,3.62,3.62,0,0,1,2-.54,3.08,3.08,0,0,1,2.4,1,4,4,0,0,1,.88,2.79v7.3h-1.26v-7.3a2.59,2.59,0,0,0-.66-1.94,2.39,2.39,0,0,0-1.74-.65,2.45,2.45,0,0,0-1.93.77,2.83,2.83,0,0,0-.67,1.94v7.18H524v-7.42a2.58,2.58,0,0,0-.62-1.79,2.24,2.24,0,0,0-1.74-.68,2.49,2.49,0,0,0-1.35.37,2.63,2.63,0,0,0-.95,1,3.17,3.17,0,0,0-.34,1.51v7Z"/><path d="M537.92,526a4.31,4.31,0,0,1-1.81-.38,3.14,3.14,0,0,1-1.29-1.13,3.1,3.1,0,0,1-.49-1.78,2.75,2.75,0,0,1,.31-1.37,2.49,2.49,0,0,1,.86-.91,5.22,5.22,0,0,1,1.33-.56,14.55,14.55,0,0,1,1.69-.32l1.55-.19a2.93,2.93,0,0,0,1-.27.64.64,0,0,0,.34-.6v-.26a2.28,2.28,0,0,0-.67-1.75,2.62,2.62,0,0,0-1.9-.65,3.3,3.3,0,0,0-1.92.52,2.88,2.88,0,0,0-1,1.22l-1.2-.43a3.57,3.57,0,0,1,1-1.43,4,4,0,0,1,1.46-.78,6.13,6.13,0,0,1,1.64-.23,5.44,5.44,0,0,1,1.3.16,3.77,3.77,0,0,1,1.26.56,2.92,2.92,0,0,1,.95,1.12,4,4,0,0,1,.36,1.81v7.4h-1.26V524h-.08a3.54,3.54,0,0,1-.68.94,3.37,3.37,0,0,1-1.12.74A3.88,3.88,0,0,1,537.92,526Zm.17-1.15a3.33,3.33,0,0,0,1.75-.45,3.17,3.17,0,0,0,1.14-1.19,3.49,3.49,0,0,0,.4-1.64V520a1.51,1.51,0,0,1-.48.24,5.53,5.53,0,0,1-.75.18c-.29.06-.58.11-.86.14l-.77.1a7.55,7.55,0,0,0-1.58.36,2.37,2.37,0,0,0-1,.66,1.64,1.64,0,0,0-.34,1.08,1.8,1.8,0,0,0,.71,1.54A2.84,2.84,0,0,0,538.09,524.81Z"/><path d="M546,525.71v-10.9h1.23v1.67h.09a2.76,2.76,0,0,1,1.14-1.33,3.41,3.41,0,0,1,1.85-.51H551V516l-.3,0a3.23,3.23,0,0,0-.46,0,3.09,3.09,0,0,0-1.51.36,2.64,2.64,0,0,0-1.05,1,2.67,2.67,0,0,0-.38,1.44v7Z"/><path d="M553.79,512.93a.94.94,0,0,1-.67-.27.85.85,0,0,1-.27-.64.87.87,0,0,1,.27-.64.94.94,0,0,1,.67-.27.92.92,0,0,1,.67.27.88.88,0,0,1,.28.64.86.86,0,0,1-.28.64A.92.92,0,0,1,553.79,512.93Zm-.64,12.78v-10.9h1.27v10.9Z"/><path d="M559,518.9v6.81h-1.26v-10.9H559v1.71h.11a3.13,3.13,0,0,1,1.2-1.35,3.7,3.7,0,0,1,2-.51,4,4,0,0,1,1.94.46,3.26,3.26,0,0,1,1.3,1.35,4.66,4.66,0,0,1,.46,2.18v7.06h-1.26v-7a2.94,2.94,0,0,0-.75-2.13,2.66,2.66,0,0,0-2-.78,3,3,0,0,0-1.52.37,2.7,2.7,0,0,0-1.06,1.06A3.3,3.3,0,0,0,559,518.9Z"/><path d="M573.6,525.94a4.44,4.44,0,0,1-2.5-.72,4.83,4.83,0,0,1-1.69-2,7.39,7.39,0,0,1,0-5.88,4.86,4.86,0,0,1,1.69-2,4.74,4.74,0,0,1,5,0,5,5,0,0,1,1.7,2,7.39,7.39,0,0,1,0,5.88,4.83,4.83,0,0,1-1.69,2A4.44,4.44,0,0,1,573.6,525.94Zm0-1.16a3,3,0,0,0,1.93-.61,3.79,3.79,0,0,0,1.19-1.62,6.32,6.32,0,0,0,0-4.48,3.8,3.8,0,0,0-1.19-1.64,3.3,3.3,0,0,0-3.85,0,3.74,3.74,0,0,0-1.2,1.64,6.32,6.32,0,0,0,0,4.48,3.73,3.73,0,0,0,1.2,1.62A3,3,0,0,0,573.6,524.78Z"/></g></svg>