<svg xmlns="http://www.w3.org/2000/svg" viewBox="0 0 720 900"><defs><style>.cls-1{fill:#fff;}.cls-2{fill:#b8b8b8;}</style></defs><g id="Livello_2" data-name="Livello 2"><circle class="cls-1" cx="173.3" cy="239.04" r="71.03"/><path d="M149.91,230.84c0,1.6,1.48,2.24,3,2.24,1.74,0,3-.73,3-2.16,0-1.14-.67-1.6-2-1.83l-1.91-.33c-1.41-.25-2.76-.77-2.76-2.54s1.64-2.91,3.76-2.91c2,0,3.72.88,3.72,2.91h-.94c0-1.45-1.29-2.12-2.78-2.12s-2.79.73-2.79,2c0,1.12.81,1.54,2.08,1.77l1.91.33c1.69.29,2.75.89,2.75,2.6,0,2-1.75,3-4,3s-3.93-1-3.93-3Z"/><path d="M160.64,238.23h-1V223.52h.94v2.18h0a3.87,3.87,0,0,1,3.74-2.39c2.49,0,4.38,2,4.38,5.2s-2,5.36-4.44,5.36a3.76,3.76,0,0,1-3.68-2.39h0c0,.64.06,3.78.06,4.14Zm3.53-14c-1.95,0-3.47,1.58-3.53,4.19v.21c0,2.74,1.54,4.41,3.53,4.41s3.54-1.77,3.54-4.49S166.15,224.19,164.17,224.19Z"/><path d="M175.48,223.31c2.79,0,4.66,2.1,4.66,5.28s-2,5.28-4.66,5.28c-2.78,0-4.65-2.1-4.65-5.28S172.86,223.31,175.48,223.31Zm0,9.69c2,0,3.62-1.79,3.62-4.41s-1.52-4.4-3.62-4.4-3.62,1.78-3.62,4.4S173.36,233,175.48,233Z"/><path d="M182.84,223.52h.94v1.87h.06a3,3,0,0,1,2.8-2.08,2.67,2.67,0,0,1,1.44.4l-.33.89a2.54,2.54,0,0,0-1.29-.33c-1.69,0-2.62,1.79-2.62,3.8v5.59h-1Z"/><path d="M193.28,223.31c2.43,0,4.24,1.79,4.24,4.82v.44h-7.74v0c0,2.62,1.36,4.41,3.58,4.41a2.91,2.91,0,0,0,3.08-2.41h1a3.89,3.89,0,0,1-4,3.28c-2.93,0-4.61-2.1-4.61-5.28S190.72,223.31,193.28,223.31Zm-3.45,4.49h6.67c-.11-2.37-1.42-3.61-3.22-3.61S190.1,225.6,189.83,227.8Z"/><path d="M148.43,263.18h-1V248.47h.93v2.18h0a3.86,3.86,0,0,1,3.74-2.39c2.49,0,4.38,2,4.38,5.2s-2,5.36-4.45,5.36a3.75,3.75,0,0,1-3.67-2.39h0c0,.64.07,3.78.07,4.13ZM152,249.13c-2,0-3.47,1.58-3.53,4.2v.21c0,2.74,1.53,4.4,3.53,4.4s3.53-1.76,3.53-4.48S153.93,249.13,152,249.13Z"/><path d="M159.19,243.4h1.09v1.91h-1.09Zm.05,5.07h1v10.14h-1Z"/><path d="M166.16,253.14l2.41-.39c1-.15,1.39-.33,1.39-.92a2.47,2.47,0,0,0-2.68-2.74,2.63,2.63,0,0,0-2.89,2.54h-.95a3.5,3.5,0,0,1,3.84-3.37,3.32,3.32,0,0,1,3.68,3.66v6.69H170v-1.93H170a3.74,3.74,0,0,1-3.66,2.14c-2.07,0-3.24-1.1-3.24-2.75S164.06,253.5,166.16,253.14Zm3.8-.2a2,2,0,0,1-1.27.56l-2.34.37c-1.56.25-2.29,1-2.29,2.12s.83,2,2.39,2a3.34,3.34,0,0,0,3.51-3.7Z"/><path d="M174.33,248.47h.93v2h.07a3.57,3.57,0,0,1,3.49-2.18c2,0,3.61,1.12,3.61,4.07v6.28h-1v-6.15c0-2.41-1.15-3.33-2.79-3.33-1.81,0-3.32,1.37-3.32,4.14v5.34h-1Z"/><path d="M186,249.28h-2.08v-.81H186v-3.08h1v3.08h2.89v.81H187v6.46c0,1.5.58,2,1.83,2h1.06v.85h-1.19c-1.78,0-2.7-.83-2.7-2.83Z"/><path d="M195.72,248.26c2.43,0,4.24,1.79,4.24,4.82v.44h-7.73v0c0,2.62,1.35,4.4,3.57,4.4a2.9,2.9,0,0,0,3.08-2.41h1a3.89,3.89,0,0,1-4,3.29c-2.93,0-4.61-2.1-4.61-5.28S193.16,248.26,195.72,248.26Zm-3.45,4.49h6.67c-.1-2.37-1.41-3.62-3.22-3.62S192.54,250.55,192.27,252.75Z"/><circle class="cls-2" cx="173.3" cy="506.57" r="71.03"/><path d="M155.93,490.47h.94v1.87h.06a3,3,0,0,1,2.8-2.08,2.59,2.59,0,0,1,1.44.4l-.33.89a2.54,2.54,0,0,0-1.29-.33c-1.69,0-2.62,1.78-2.62,3.8v5.59h-1Z"/><path d="M166.37,490.26c2.43,0,4.24,1.79,4.24,4.82v.44h-7.73v0c0,2.62,1.35,4.41,3.57,4.41a2.91,2.91,0,0,0,3.08-2.41h1a3.89,3.89,0,0,1-4.05,3.28c-2.93,0-4.61-2.1-4.61-5.28S163.81,490.26,166.37,490.26Zm-3.45,4.49h6.67c-.11-2.37-1.41-3.62-3.22-3.62S163.19,492.55,162.92,494.75Z"/><path d="M173.56,497.79c0,1.6,1.48,2.24,3,2.24,1.75,0,3-.73,3-2.16,0-1.14-.67-1.6-2-1.83l-1.91-.33c-1.41-.25-2.77-.77-2.77-2.54s1.65-2.91,3.77-2.91c2,0,3.72.87,3.72,2.91h-.94c0-1.45-1.29-2.12-2.78-2.12s-2.79.73-2.79,2c0,1.12.81,1.54,2.08,1.76l1.91.34c1.68.29,2.74.89,2.74,2.6,0,2-1.74,3-4,3s-3.92-1-3.92-3Z"/><path d="M183.54,491.28h-2.08v-.81h2.08v-3.08h1v3.08h2.89v.81h-2.89v6.46c0,1.5.58,2,1.83,2h1.06v.85h-1.19c-1.79,0-2.7-.83-2.7-2.82Z"/><path d="M189.63,485.4h1.08v1.91h-1.08Zm0,5.07h1v10.14h-1Z"/><path d="M148.08,510.35h1.09v1.91h-1.09Zm0,5.07h1v10.14h-1Z"/><path d="M152.62,515.42h.93v2h.06a3.57,3.57,0,0,1,3.49-2.18c2,0,3.62,1.12,3.62,4.07v6.28h-1v-6.15c0-2.41-1.14-3.33-2.78-3.33-1.81,0-3.33,1.37-3.33,4.14v5.34h-1Z"/><path d="M164.13,522.73c0,1.6,1.48,2.25,3,2.25,1.74,0,3-.73,3-2.17,0-1.14-.67-1.6-2-1.82l-1.91-.34c-1.41-.25-2.76-.77-2.76-2.53s1.64-2.91,3.76-2.91c2,0,3.72.87,3.72,2.91H170c0-1.46-1.29-2.12-2.78-2.12s-2.79.73-2.79,2c0,1.13.81,1.54,2.08,1.77l1.91.33c1.69.29,2.75.9,2.75,2.6,0,2-1.75,3-4,3s-3.93-1-3.93-3Z"/><path d="M177.69,515.21c2.43,0,4.24,1.79,4.24,4.82v.44h-7.74v0c0,2.62,1.36,4.4,3.58,4.4a2.91,2.91,0,0,0,3.08-2.41h1a3.89,3.89,0,0,1-4,3.29c-2.93,0-4.61-2.1-4.61-5.28S175.13,515.21,177.69,515.21Zm-3.45,4.49h6.67c-.11-2.37-1.42-3.62-3.22-3.62S174.51,517.49,174.24,519.7Z"/><path d="M185,516.23h-2.07v-.81H185v-3.08h1v3.08h2.89v.81H186v6.46c0,1.5.58,2,1.83,2h1.06v.85h-1.18c-1.79,0-2.71-.83-2.71-2.83Z"/><path d="M191.35,516.23h-2.08v-.81h2.08v-3.08h1v3.08h2.89v.81h-2.89v6.46c0,1.5.58,2,1.83,2h1.06v.85h-1.18c-1.79,0-2.7-.83-2.7-2.83Z"/><path d="M197.44,510.35h1.08v1.91h-1.08Zm0,5.07h1v10.14h-1Z"/><circle class="cls-2" cx="359.25" cy="506.57" r="71.03"/><path d="M328.38,486h1.08v1.91h-1.08Zm0,5.07h1v10.14h-1Z"/><path d="M332.91,491.05h.93v2h.07a3.55,3.55,0,0,1,3.49-2.18c2,0,3.61,1.12,3.61,4.07v6.28h-1V495c0-2.41-1.15-3.33-2.79-3.33-1.81,0-3.32,1.37-3.32,4.14v5.34h-1Z"/><path d="M348.17,490.84a4,4,0,0,1,4.11,3.49h-1a3.06,3.06,0,0,0-3.11-2.62c-2,0-3.54,1.79-3.54,4.41s1.48,4.4,3.54,4.4a3.06,3.06,0,0,0,3.11-2.61h1a4,4,0,0,1-4.11,3.49c-2.77,0-4.58-2.1-4.58-5.28S345.61,490.84,348.17,490.84Z"/><path d="M358.85,490.84c2.43,0,4.24,1.79,4.24,4.82v.44h-7.73v0c0,2.62,1.35,4.4,3.58,4.4a2.9,2.9,0,0,0,3.07-2.41h1a3.89,3.89,0,0,1-4.05,3.29c-2.93,0-4.62-2.1-4.62-5.28S356.3,490.84,358.85,490.84Zm-3.45,4.49h6.67c-.1-2.37-1.41-3.62-3.22-3.62S355.67,493.13,355.4,495.33Z"/><path d="M365.8,491.05h.93v2h.06a3.58,3.58,0,0,1,3.5-2.18c2,0,3.61,1.12,3.61,4.07v6.28h-1V495c0-2.41-1.14-3.33-2.78-3.33-1.81,0-3.33,1.37-3.33,4.14v5.34h-1Z"/><path d="M381,490.84a3.74,3.74,0,0,1,3.64,2.39h.06c0-.67-.06-3.58-.06-3.93V486h1v15.21h-.94V499h-.06a3.87,3.87,0,0,1-3.72,2.41c-2.5,0-4.39-2-4.39-5.2S378.46,490.84,381,490.84Zm.08,9.68c2,0,3.47-1.58,3.56-4.19v-.42c-.09-2.62-1.6-4.2-3.53-4.2s-3.54,1.77-3.54,4.49S379.08,500.52,381,500.52Z"/><path d="M389,486h1.08v1.91H389Zm0,5.07h1v10.14h-1Z"/><path d="M324.25,510.92h1V514c0,.33,0,3.49-.06,4.14h0a3.86,3.86,0,0,1,3.74-2.39c2.49,0,4.38,2,4.38,5.19s-2,5.36-4.44,5.36a3.76,3.76,0,0,1-3.68-2.39h0l0,2.19h-1Zm4.53,14.55c2,0,3.53-1.77,3.53-4.49s-1.55-4.32-3.53-4.32-3.47,1.58-3.53,4.2v.2C325.25,523.81,326.79,525.47,328.78,525.47Z"/><path d="M340.07,515.79c2.78,0,4.65,2.1,4.65,5.27s-2,5.28-4.65,5.28c-2.79,0-4.66-2.1-4.66-5.28S337.45,515.79,340.07,515.79Zm0,9.68c2,0,3.62-1.79,3.62-4.41s-1.52-4.4-3.62-4.4-3.62,1.79-3.62,4.4S338,525.47,340.07,525.47Z"/><path d="M347.55,523.31c0,1.6,1.48,2.24,3,2.24,1.74,0,3-.72,3-2.16,0-1.14-.67-1.6-2-1.83l-1.91-.33c-1.41-.25-2.76-.77-2.76-2.53s1.64-2.91,3.76-2.91c2,0,3.72.87,3.72,2.91h-.94c0-1.46-1.29-2.12-2.78-2.12s-2.79.72-2.79,2c0,1.12.81,1.54,2.08,1.77l1.91.33c1.69.29,2.75.89,2.75,2.6,0,2-1.75,3-4,3s-3.93-1-3.93-3Z"/><path d="M361.15,515.79a4,4,0,0,1,4.11,3.49h-1a3.07,3.07,0,0,0-3.12-2.62c-2,0-3.54,1.79-3.54,4.4s1.48,4.41,3.54,4.41a3.07,3.07,0,0,0,3.12-2.62h1a4,4,0,0,1-4.11,3.49c-2.77,0-4.57-2.1-4.57-5.28S358.59,515.79,361.15,515.79Z"/><path d="M367.89,510.92h1V514c0,.33,0,3.34-.06,4h.06a3.56,3.56,0,0,1,3.49-2.18c2,0,3.62,1.12,3.62,4.07v6.28h-1V520c0-2.41-1.14-3.32-2.78-3.32-1.81,0-3.33,1.37-3.33,4.11v5.37h-1Z"/><path d="M379.32,510.92h1.08v1.91h-1.08Zm0,5.07h1v10.15h-1Z"/><path d="M382.38,516h1.06l3.38,9.07h0l3.39-9.07h1l-3.89,10.15h-1.08Z"/><path d="M393.21,510.92h1.08v1.91h-1.08Zm0,5.07h1v10.15h-1Z"/><circle class="cls-2" cx="547.51" cy="506.57" r="71.03"/><path d="M519.26,495.72l2.41-.39c1-.15,1.4-.33,1.4-.92a2.47,2.47,0,0,0-2.68-2.74,2.62,2.62,0,0,0-2.89,2.54h-1a3.51,3.51,0,0,1,3.85-3.37,3.32,3.32,0,0,1,3.67,3.66v6.69h-.93v-1.93h-.06a3.76,3.76,0,0,1-3.66,2.14c-2.08,0-3.24-1.1-3.24-2.75S517.16,496.08,519.26,495.72Zm3.81-.2a2,2,0,0,1-1.27.56l-2.35.37c-1.56.25-2.29,1-2.29,2.12s.83,2,2.39,2a3.35,3.35,0,0,0,3.52-3.7Z"/><path d="M531.17,490.84c2.44,0,4.24,1.79,4.24,4.82v.44h-7.73v0c0,2.62,1.35,4.4,3.58,4.4a2.9,2.9,0,0,0,3.07-2.41h1a3.89,3.89,0,0,1-4,3.29c-2.93,0-4.62-2.1-4.62-5.28S528.62,490.84,531.17,490.84Zm-3.44,4.49h6.67c-.11-2.37-1.42-3.62-3.23-3.62S528,493.13,527.73,495.33Z"/><path d="M538.12,491.05h.93v1.87h.07a3,3,0,0,1,2.8-2.08,2.66,2.66,0,0,1,1.44.39l-.34.9a2.49,2.49,0,0,0-1.28-.33c-1.69,0-2.62,1.78-2.62,3.8v5.59h-1Z"/><path d="M548.68,490.84c2.78,0,4.65,2.1,4.65,5.28s-2,5.28-4.65,5.28c-2.79,0-4.66-2.1-4.66-5.28S546.06,490.84,548.68,490.84Zm0,9.68c2,0,3.62-1.78,3.62-4.4s-1.52-4.41-3.62-4.41-3.62,1.79-3.62,4.41S546.56,500.52,548.68,500.52Z"/><path d="M556.16,498.36c0,1.6,1.48,2.25,3,2.25,1.74,0,3-.73,3-2.16,0-1.15-.67-1.6-2-1.83l-1.91-.34c-1.41-.24-2.76-.76-2.76-2.53s1.64-2.91,3.76-2.91c1.95,0,3.72.87,3.72,2.91H562c0-1.46-1.29-2.12-2.78-2.12s-2.79.73-2.79,2c0,1.12.81,1.53,2.08,1.76l1.91.33c1.69.3,2.75.9,2.75,2.6,0,2-1.75,3-4,3s-3.93-1-3.93-3Z"/><path d="M569.84,490.84c2.79,0,4.66,2.1,4.66,5.28s-2,5.28-4.66,5.28c-2.78,0-4.65-2.1-4.65-5.28S567.22,490.84,569.84,490.84Zm0,9.68c2,0,3.62-1.78,3.62-4.4s-1.52-4.41-3.62-4.41-3.61,1.79-3.61,4.41S567.72,500.52,569.84,500.52Z"/><path d="M577.2,486h1v15.21h-1Z"/><path d="M517.86,516h.94v2h.06a3.5,3.5,0,0,1,3.37-2.18,3.11,3.11,0,0,1,3.22,2.43,3.6,3.6,0,0,1,3.55-2.43c1.87,0,3.41,1.12,3.41,4v6.36h-1V519.9c0-2.33-1-3.24-2.6-3.24s-3.18,1.37-3.18,4.16v5.32h-1V519.9c0-2.33-1.08-3.24-2.6-3.24s-3.18,1.37-3.18,4.16v5.32h-1Z"/><path d="M538.21,520.67l2.41-.4c1-.14,1.4-.33,1.4-.91a2.47,2.47,0,0,0-2.69-2.74,2.61,2.61,0,0,0-2.88,2.53h-1a3.49,3.49,0,0,1,3.84-3.36,3.32,3.32,0,0,1,3.68,3.65v6.7h-.93V524.2H542a3.76,3.76,0,0,1-3.66,2.14c-2.08,0-3.24-1.1-3.24-2.74S536.11,521,538.21,520.67Zm3.81-.21a2,2,0,0,1-1.27.56l-2.35.38c-1.56.25-2.29,1-2.29,2.12s.83,2,2.39,2a3.35,3.35,0,0,0,3.52-3.7Z"/><path d="M546.38,516h.94v1.87h.06a3,3,0,0,1,2.81-2.07,2.65,2.65,0,0,1,1.43.39l-.33.89a2.54,2.54,0,0,0-1.29-.33c-1.68,0-2.62,1.79-2.62,3.81v5.59h-1Z"/><path d="M553.41,510.92h1.08v1.91h-1.08Zm0,5.07h1v10.15h-1Z"/><path d="M557.94,516h.94v2h.06a3.55,3.55,0,0,1,3.49-2.18c2,0,3.62,1.12,3.62,4.07v6.28h-1V520c0-2.41-1.14-3.32-2.79-3.32s-3.32,1.37-3.32,4.13v5.35h-1Z"/><path d="M573.28,515.79c2.79,0,4.66,2.1,4.66,5.27s-2,5.28-4.66,5.28c-2.78,0-4.65-2.1-4.65-5.28S570.66,515.79,573.28,515.79Zm0,9.68c2,0,3.62-1.79,3.62-4.41s-1.52-4.4-3.62-4.4-3.61,1.79-3.61,4.4S571.16,525.47,573.28,525.47Z"/><circle class="cls-2" cx="359.25" cy="679.81" r="71.03"/><path d="M312.71,663.7c2.79,0,4.66,2.1,4.66,5.28s-2,5.27-4.66,5.27c-2.78,0-4.65-2.1-4.65-5.27S310.09,663.7,312.71,663.7Zm0,9.68c2,0,3.62-1.79,3.62-4.4s-1.52-4.41-3.62-4.41-3.61,1.79-3.61,4.41S310.59,673.38,312.71,673.38Z"/><path d="M320.2,671.22c0,1.6,1.47,2.24,3,2.24,1.74,0,3-.72,3-2.16,0-1.14-.66-1.6-2-1.83l-1.92-.33c-1.41-.25-2.76-.77-2.76-2.53s1.64-2.91,3.76-2.91c1.95,0,3.72.87,3.72,2.91H326c0-1.46-1.29-2.12-2.79-2.12s-2.78.72-2.78,2c0,1.13.81,1.54,2.07,1.77l1.92.33c1.68.29,2.74.9,2.74,2.6,0,2-1.75,3-4,3s-3.93-1-3.93-3Z"/><path d="M329.86,671.22c0,1.6,1.48,2.24,3,2.24,1.74,0,3-.72,3-2.16,0-1.14-.67-1.6-2-1.83l-1.91-.33c-1.41-.25-2.76-.77-2.76-2.53s1.64-2.91,3.76-2.91c2,0,3.72.87,3.72,2.91h-.94c0-1.46-1.29-2.12-2.78-2.12s-2.79.72-2.79,2c0,1.13.81,1.54,2.08,1.77l1.91.33c1.69.29,2.75.9,2.75,2.6,0,2-1.75,3-4,3s-3.93-1-3.93-3Z"/><path d="M339.55,658.83h1.08v1.92h-1.08Zm0,5.07h1v10.15h-1Z"/><path d="M347.76,663.7a3.74,3.74,0,0,1,3.64,2.39h.06c0-.67-.06-3.58-.06-3.93v-3.33h1v15.22h-.94v-2.21h-.06a3.85,3.85,0,0,1-3.72,2.41c-2.5,0-4.39-2-4.39-5.19S345.27,663.7,347.76,663.7Zm.08,9.68c2,0,3.47-1.58,3.56-4.2v-.41c-.09-2.62-1.6-4.2-3.54-4.2s-3.53,1.77-3.53,4.49S345.89,673.38,347.84,673.38Z"/><path d="M358.32,668.58l2.41-.39c1-.15,1.39-.34,1.39-.92a2.46,2.46,0,0,0-2.68-2.74,2.61,2.61,0,0,0-2.88,2.53h-1a3.49,3.49,0,0,1,3.84-3.36,3.32,3.32,0,0,1,3.68,3.65v6.7h-.93v-1.94h-.07a3.74,3.74,0,0,1-3.65,2.14c-2.08,0-3.24-1.1-3.24-2.74S356.22,668.93,358.32,668.58Zm3.8-.21a1.91,1.91,0,0,1-1.26.56l-2.35.38c-1.56.25-2.29,1-2.29,2.12s.83,2,2.39,2a3.34,3.34,0,0,0,3.51-3.7Z"/><path d="M365.37,663.9h7.44v.67l-6.11,8.67h6.19v.81h-7.44v-.59l6.15-8.75h-6.23Z"/><path d="M375.22,658.83h1.08v1.92h-1.08Zm0,5.07h1v10.15h-1Z"/><path d="M383.62,663.7c2.79,0,4.66,2.1,4.66,5.28s-2,5.27-4.66,5.27c-2.78,0-4.65-2.1-4.65-5.27S381,663.7,383.62,663.7Zm0,9.68c2,0,3.62-1.79,3.62-4.4s-1.52-4.41-3.62-4.41S380,666.36,380,669,381.5,673.38,383.62,673.38Z"/><path d="M391,663.9h.94v2H392a3.55,3.55,0,0,1,3.49-2.18c2,0,3.62,1.12,3.62,4.07v6.28h-1v-6.16c0-2.41-1.15-3.32-2.79-3.32-1.8,0-3.32,1.37-3.32,4.13v5.35h-1Z"/><path d="M406.2,663.7c2.43,0,4.24,1.78,4.24,4.82V669h-7.73v0c0,2.61,1.35,4.4,3.57,4.4a2.91,2.91,0,0,0,3.08-2.41h1a3.89,3.89,0,0,1-4.05,3.28c-2.93,0-4.61-2.1-4.61-5.27S403.64,663.7,406.2,663.7Zm-3.45,4.49h6.67c-.11-2.37-1.41-3.62-3.22-3.62S403,666,402.75,668.19Z"/><path d="M328.55,688.64a3.74,3.74,0,0,1,3.64,2.39h.06c0-.66-.06-3.57-.06-3.93v-3.32h1V699h-.94v-2.2h-.06a3.84,3.84,0,0,1-3.72,2.41c-2.49,0-4.39-2-4.39-5.2S326.06,688.64,328.55,688.64Zm.09,9.69c1.95,0,3.47-1.58,3.55-4.2v-.42c-.08-2.61-1.6-4.19-3.53-4.19s-3.54,1.76-3.54,4.48S326.68,698.33,328.64,698.33Z"/><path d="M336.64,683.78h1.08v1.91h-1.08Zm0,5.07h1V699h-1Z"/><path d="M349.44,688.64c2.79,0,4.66,2.1,4.66,5.28s-2,5.28-4.66,5.28c-2.78,0-4.65-2.1-4.65-5.28S346.83,688.64,349.44,688.64Zm0,9.69c2,0,3.62-1.79,3.62-4.41s-1.52-4.4-3.62-4.4-3.61,1.78-3.61,4.4S347.32,698.33,349.44,698.33Z"/><path d="M356.93,696.17c0,1.6,1.47,2.24,3,2.24,1.75,0,3-.73,3-2.16,0-1.14-.66-1.6-2-1.83l-1.91-.33c-1.42-.25-2.77-.77-2.77-2.54s1.64-2.91,3.76-2.91c2,0,3.72.88,3.72,2.91h-.93c0-1.45-1.29-2.12-2.79-2.12s-2.78.73-2.78,2c0,1.12.81,1.54,2.08,1.77l1.91.33c1.68.29,2.74.89,2.74,2.6,0,2-1.74,3-4,3s-3.93-1-3.93-3Z"/><path d="M366.6,696.17c0,1.6,1.47,2.24,3,2.24,1.74,0,3-.73,3-2.16,0-1.14-.66-1.6-2-1.83l-1.92-.33c-1.41-.25-2.76-.77-2.76-2.54s1.64-2.91,3.76-2.91c1.95,0,3.72.88,3.72,2.91h-.93c0-1.45-1.29-2.12-2.79-2.12s-2.78.73-2.78,2c0,1.12.81,1.54,2.07,1.77l1.92.33c1.68.29,2.74.89,2.74,2.6,0,2-1.75,3-4,3s-3.93-1-3.93-3Z"/><path d="M376.28,683.78h1.08v1.91h-1.08Zm.05,5.07h1V699h-1Z"/><path d="M384.49,688.64a3.74,3.74,0,0,1,3.64,2.39h.06c0-.66-.06-3.57-.06-3.93v-3.32h1V699h-.94v-2.2h-.06a3.84,3.84,0,0,1-3.72,2.41c-2.49,0-4.38-2-4.38-5.2S382,688.64,384.49,688.64Zm.09,9.69c1.95,0,3.47-1.58,3.55-4.2v-.42c-.08-2.61-1.6-4.19-3.53-4.19s-3.54,1.76-3.54,4.48S382.62,698.33,384.58,698.33Z"/><path d="M392.58,683.78h1.08v1.91h-1.08Zm0,5.07h1V699h-1Z"/><circle class="cls-2" cx="173.3" cy="679.81" r="71.03"/><path d="M126.76,664c2.79,0,4.66,2.09,4.66,5.27s-2,5.28-4.66,5.28c-2.78,0-4.65-2.1-4.65-5.28S124.15,664,126.76,664Zm0,9.68c2,0,3.62-1.79,3.62-4.41s-1.52-4.4-3.62-4.4-3.61,1.79-3.61,4.4S124.64,673.67,126.76,673.67Z"/><path d="M134.25,671.51c0,1.6,1.47,2.24,3,2.24,1.75,0,3-.72,3-2.16,0-1.14-.66-1.6-2-1.83l-1.92-.33c-1.41-.25-2.76-.77-2.76-2.53s1.64-2.91,3.76-2.91c2,0,3.72.87,3.72,2.91h-.93c0-1.46-1.29-2.13-2.79-2.13s-2.78.73-2.78,2c0,1.12.81,1.54,2.08,1.77l1.91.33c1.68.29,2.74.89,2.74,2.6,0,2-1.75,3-4,3s-3.93-.95-3.93-3Z"/><path d="M143.91,671.51c0,1.6,1.48,2.24,3,2.24,1.74,0,3-.72,3-2.16,0-1.14-.67-1.6-2-1.83l-1.91-.33c-1.41-.25-2.76-.77-2.76-2.53S144.83,664,147,664c2,0,3.72.87,3.72,2.91h-.94c0-1.46-1.28-2.13-2.78-2.13s-2.79.73-2.79,2c0,1.12.82,1.54,2.08,1.77l1.91.33c1.69.29,2.75.89,2.75,2.6,0,2-1.75,3-4,3s-3.93-.95-3.93-3Z"/><path d="M153.6,659.12h1.08V661H153.6Zm0,5.07h1v10.14h-1Z"/><path d="M161.81,664a3.72,3.72,0,0,1,3.64,2.39h.06c0-.67-.06-3.58-.06-3.93v-3.33h1v15.21h-.94v-2.2h-.06a3.84,3.84,0,0,1-3.72,2.41c-2.49,0-4.39-2-4.39-5.19S159.32,664,161.81,664Zm.09,9.68c1.95,0,3.47-1.58,3.55-4.2v-.41c-.08-2.62-1.6-4.2-3.53-4.2s-3.54,1.76-3.54,4.49S159.94,673.67,161.9,673.67Z"/><path d="M172.37,668.87l2.41-.4c1-.14,1.4-.33,1.4-.91a2.47,2.47,0,0,0-2.68-2.74,2.61,2.61,0,0,0-2.89,2.53h-1c.12-2.08,1.62-3.36,3.85-3.36a3.31,3.31,0,0,1,3.67,3.65v6.69h-.93V672.4h-.06a3.76,3.76,0,0,1-3.66,2.14c-2.08,0-3.24-1.1-3.24-2.74S170.27,669.22,172.37,668.87Zm3.81-.21a2,2,0,0,1-1.27.56l-2.35.38c-1.56.25-2.29.95-2.29,2.12s.83,2,2.39,2a3.35,3.35,0,0,0,3.52-3.7Z"/><path d="M179.42,664.19h7.44v.67l-6.11,8.66h6.19v.81h-7.43v-.58l6.15-8.75h-6.24Z"/><path d="M189.28,659.12h1.08V661h-1.08Zm0,5.07h1v10.14h-1Z"/><path d="M197.67,664c2.79,0,4.66,2.09,4.66,5.27s-2,5.28-4.66,5.28c-2.78,0-4.65-2.1-4.65-5.28S195.06,664,197.67,664Zm0,9.68c2,0,3.62-1.79,3.62-4.41s-1.52-4.4-3.62-4.4-3.61,1.79-3.61,4.4S195.55,673.67,197.67,673.67Z"/><path d="M205,664.19H206v2H206a3.56,3.56,0,0,1,3.49-2.18c2,0,3.62,1.12,3.62,4.07v6.27h-1v-6.15c0-2.41-1.14-3.32-2.78-3.32-1.81,0-3.33,1.37-3.33,4.13v5.34h-1Z"/><path d="M220.25,664c2.43,0,4.24,1.78,4.24,4.82v.43h-7.73v0c0,2.62,1.35,4.41,3.57,4.41a2.91,2.91,0,0,0,3.08-2.41h1a3.9,3.9,0,0,1-4.06,3.28c-2.93,0-4.61-2.1-4.61-5.28S217.69,664,220.25,664Zm-3.45,4.48h6.67c-.1-2.37-1.41-3.61-3.22-3.61S217.07,666.27,216.8,668.47Z"/><path d="M119.68,688.93a3.72,3.72,0,0,1,3.64,2.39h.06c0-.66-.06-3.57-.06-3.93v-3.32h1v15.21h-.94v-2.2h-.06a3.84,3.84,0,0,1-3.72,2.41c-2.49,0-4.38-2-4.38-5.2S117.19,688.93,119.68,688.93Zm.09,9.69c2,0,3.47-1.58,3.55-4.2V694c-.08-2.62-1.6-4.2-3.53-4.2s-3.53,1.77-3.53,4.49S117.81,698.62,119.77,698.62Z"/><path d="M127.77,684.07h1.08V686h-1.08Zm0,5.07h1v10.14h-1Z"/><path d="M136.67,684.07h1.08V686h-1.08Zm0,5.07h1v10.14h-1Z"/><path d="M144.88,688.93a3.74,3.74,0,0,1,3.64,2.39h.06c0-.66-.06-3.57-.06-3.93v-3.32h1v15.21h-.93v-2.2h-.06a3.85,3.85,0,0,1-3.72,2.41c-2.5,0-4.39-2-4.39-5.2S142.39,688.93,144.88,688.93Zm.08,9.69c2,0,3.47-1.58,3.56-4.2V694c-.09-2.62-1.6-4.2-3.54-4.2s-3.53,1.77-3.53,4.49S143,698.62,145,698.62Z"/><path d="M153,689.14h.93V691H154a3,3,0,0,1,2.8-2.08,2.67,2.67,0,0,1,1.44.4l-.34.89a2.49,2.49,0,0,0-1.28-.33c-1.69,0-2.62,1.79-2.62,3.8v5.59h-1Z"/><path d="M163.57,688.93c2.78,0,4.65,2.1,4.65,5.28s-2,5.28-4.65,5.28c-2.79,0-4.66-2.1-4.66-5.28S161,688.93,163.57,688.93Zm0,9.69c2,0,3.62-1.79,3.62-4.41s-1.52-4.41-3.62-4.41-3.62,1.79-3.62,4.41S161.45,698.62,163.57,698.62Z"/><path d="M174.88,688.93a4,4,0,0,1,4.11,3.49h-1a3.06,3.06,0,0,0-3.11-2.62c-2,0-3.54,1.79-3.54,4.41s1.48,4.41,3.54,4.41A3.06,3.06,0,0,0,178,696h1a4,4,0,0,1-4.11,3.49c-2.77,0-4.57-2.1-4.57-5.28S172.32,688.93,174.88,688.93Z"/><path d="M184.17,693.82l2.41-.4c1-.14,1.39-.33,1.39-.91a2.47,2.47,0,0,0-2.68-2.75,2.63,2.63,0,0,0-2.89,2.54h-1a3.5,3.5,0,0,1,3.84-3.37,3.32,3.32,0,0,1,3.68,3.66v6.69H188v-1.93H188a3.74,3.74,0,0,1-3.65,2.14c-2.08,0-3.25-1.1-3.25-2.74S182.07,694.17,184.17,693.82Zm3.8-.21a1.91,1.91,0,0,1-1.26.56l-2.35.37c-1.56.25-2.29,1-2.29,2.12s.83,2,2.39,2A3.34,3.34,0,0,0,188,695Z"/><path d="M192.34,689.14h.94V691h.06a3,3,0,0,1,2.81-2.08,2.67,2.67,0,0,1,1.43.4l-.33.89a2.54,2.54,0,0,0-1.29-.33c-1.69,0-2.62,1.79-2.62,3.8v5.59h-1Z"/><path d="M199.41,684.07h1v3.12c0,.33,0,3.49-.06,4.13h0a3.86,3.86,0,0,1,3.74-2.39c2.49,0,4.38,2,4.38,5.2s-2,5.36-4.44,5.36a3.76,3.76,0,0,1-3.68-2.39h0l0,2.18h-1Zm4.53,14.55c2,0,3.53-1.77,3.53-4.49s-1.55-4.33-3.53-4.33-3.47,1.58-3.53,4.2v.21C200.41,697,202,698.62,203.94,698.62Z"/><path d="M211,689.14h1v6.15c0,2.41,1.14,3.33,2.76,3.33,1.81,0,3.27-1.44,3.27-4.16v-5.32h1v10.14h-1v-2h0a3.59,3.59,0,0,1-3.45,2.18c-2,0-3.58-1.12-3.58-4.07Z"/><path d="M222.53,689.14h.93V691h.06a3,3,0,0,1,2.81-2.08,2.62,2.62,0,0,1,1.43.4l-.33.89a2.52,2.52,0,0,0-1.29-.33c-1.68,0-2.62,1.79-2.62,3.8v5.59h-1Z"/><path d="M229.55,684.07h1.09V686h-1.09Zm0,5.07h1v10.14h-1Z"/><path class="cls-1" d="M101,116.9h11V118h-9.75v7.27h7.85v1.07h-7.85v7.78H101Z"/><path class="cls-1" d="M121.45,116.65c4.7,0,8.1,3.78,8.1,8.85s-3.4,8.85-8.1,8.85-8.1-3.8-8.1-8.85S116.65,116.65,121.45,116.65Zm0,16.55c4,0,6.8-3.3,6.8-7.7s-2.8-7.7-6.8-7.7-6.8,3.3-6.8,7.7S117.4,133.2,121.45,133.2Z"/><path class="cls-1" d="M133.15,116.9h1.2L145,132H145L145,116.9h1.25v17.2H145l-10.6-15h-.05l.05,15h-1.25Z"/><path class="cls-1" d="M148.75,116.9H162.6v1h-6.3V134.1h-1.25V118h-6.3Z"/><path class="cls-1" d="M165.15,116.9h1.25v17.2h-1.25Z"/><path class="cls-1" d="M176.85,129.4c0,2.52,2,3.9,5.05,3.9s4.95-1.48,4.95-3.85c0-5.67-11-1.5-11-8.15,0-2.67,2.38-4.65,6-4.65s5.92,1.6,5.92,4.6H186.5c0-2.35-2-3.55-4.7-3.55s-4.7,1.38-4.7,3.5c0,5.5,11.05,1.28,11.05,8.2,0,2.95-2.28,4.95-6.25,4.95s-6.27-1.75-6.27-4.95Z"/><path class="cls-1" d="M192.1,116.9h11.2V118h-10v6.8h8.05v1.07h-8.05V133H203.5v1.08H192.1Z"/><path class="cls-1" d="M213.35,116.65a6.9,6.9,0,0,1,7.15,5.45h-1.28a5.66,5.66,0,0,0-5.87-4.3c-4.1,0-6.75,3.4-6.75,7.7s2.65,7.7,6.7,7.7a5.68,5.68,0,0,0,5.92-4.3h1.28a7,7,0,0,1-7.2,5.45c-4.8,0-8-3.9-8-8.85S208.5,116.65,213.35,116.65Z"/><path class="cls-1" d="M231.1,116.65c4.7,0,8.1,3.78,8.1,8.85s-3.4,8.85-8.1,8.85-8.1-3.8-8.1-8.85S226.3,116.65,231.1,116.65Zm0,16.55c4,0,6.8-3.3,6.8-7.7s-2.8-7.7-6.8-7.7-6.8,3.3-6.8,7.7S227.05,133.2,231.1,133.2Z"/><path class="cls-1" d="M242.8,116.9H244L254.6,132h.05l-.05-15.1h1.25v17.2h-1.2l-10.6-15H244l.05,15H242.8Z"/><path class="cls-1" d="M260.55,116.9h4.55c6,0,9,3.6,9,8.6s-3,8.6-9,8.6h-4.55ZM261.8,118v15h3.3c5.4,0,7.75-3.32,7.75-7.52S270.5,118,265.1,118Z"/><path class="cls-1" d="M282.17,116.9h1.45l6.55,17.2h-1.3l-2-5.38h-8l-2,5.38h-1.25Zm.68,1.3-3.55,9.45h7.15l-3.55-9.45Z"/><path class="cls-1" d="M293,116.9h6.4c3.63,0,5.55,1.8,5.55,4.8a4.74,4.74,0,0,1-4.37,5l4.77,7.43H304l-4.77-7.35h-5v7.35H293Zm1.25,1.08v7.7h5.2c2.78,0,4.25-1.68,4.25-4S302.2,118,299.42,118Z"/><path class="cls-1" d="M308.92,116.9h1.25v17.2h-1.25Z"/><path class="cls-1" d="M314.87,116.9h11.2V118h-9.95v6.8h8.05v1.07h-8.05V133h10.15v1.08h-11.4Z"/><path class="cls-1" d="M101,383.12h11v1.08h-9.75v7.27h7.85v1.07h-7.85v7.78H101Z"/><path class="cls-1" d="M121.45,382.87c4.7,0,8.1,3.77,8.1,8.85s-3.4,8.85-8.1,8.85-8.1-3.8-8.1-8.85S116.65,382.87,121.45,382.87Zm0,16.55c4,0,6.8-3.3,6.8-7.7s-2.8-7.7-6.8-7.7-6.8,3.3-6.8,7.7S117.4,399.42,121.45,399.42Z"/><path class="cls-1" d="M133.15,383.12h1.2l10.6,15.1H145l-.05-15.1h1.25v17.2H145l-10.6-15.05h-.05l.05,15.05h-1.25Z"/><path class="cls-1" d="M148.75,383.12H162.6v1.05h-6.3v16.15h-1.25V384.17h-6.3Z"/><path class="cls-1" d="M165.15,383.12h1.25v17.2h-1.25Z"/><path class="cls-1" d="M176.4,383.12h6.25c3.62,0,5.65,2.2,5.65,5.3s-2,5.4-5.65,5.4h-5v6.5H176.4Zm1.25,1.08v8.54h5a4,4,0,0,0,4.35-4.32,4,4,0,0,0-4.35-4.22Z"/><path class="cls-1" d="M191.8,383.12h6.4c3.62,0,5.55,1.8,5.55,4.8a4.74,4.74,0,0,1-4.38,5l4.78,7.43H202.8L198,393h-5v7.35H191.8Zm1.25,1.08v7.69h5.2c2.77,0,4.25-1.67,4.25-4s-1.48-3.72-4.25-3.72Z"/><path class="cls-1" d="M207.75,383.12H209v17.2h-1.25Z"/><path class="cls-1" d="M213.7,383.12h1.5l7,15.52h.05l7-15.52h1.5v17.2H229.5l.09-15.17h-.05l-6.84,15.17h-1l-6.82-15h-.05l.1,15H213.7Z"/><path class="cls-1" d="M240.1,383.12h1.45l6.55,17.2h-1.3l-2-5.38h-8l-2,5.38h-1.25Zm.67,1.3-3.55,9.45h7.15l-3.55-9.45Z"/><path class="cls-1" d="M250.9,383.12h6.4c3.62,0,5.55,1.8,5.55,4.8a4.74,4.74,0,0,1-4.38,5l4.78,7.43H261.9L257.12,393h-5v7.35H250.9Zm1.25,1.08v7.69h5.2c2.77,0,4.25-1.67,4.25-4s-1.48-3.72-4.25-3.72Z"/><path class="cls-1" d="M266.85,383.12h1.25v17.2h-1.25Z"/><path class="cls-1" d="M272.8,383.12H284v1.08h-9.95V391h8.05v1.08h-8.05v7.17H284.2v1.08H272.8Z"/></g></svg>