<svg xmlns="http://www.w3.org/2000/svg" viewBox="0 0 720 900"><defs><style>.cls-1{fill:#fe5000;}.cls-2,.cls-3,.cls-6{fill:#fff;}.cls-3{font-size:30px;}.cls-3,.cls-6{font-family:Inter-Regular, Inter;}.cls-4{letter-spacing:0.03em;}.cls-5{letter-spacing:-0.01em;}.cls-6{font-size:17px;}</style></defs><g id="Livello_2" data-name="Livello 2"><rect class="cls-1" x="28" y="608.67" width="664" height="235.33"/><rect class="cls-1" x="28" y="38.87" width="664" height="552.5"/><path class="cls-2" d="M90.46,538.8l39.2-83v-5.6H71.28v-11.9H142v16.8L104.46,538.8Z"/><path class="cls-2" d="M227.59,525.85Q217.3,540.2,200.08,540.2t-27.51-14.35q-10.29-14.36-10.29-37.17,0-23,10.36-37.38t27.44-14.42q17.08,0,27.44,14.42t10.36,37.38Q237.88,511.5,227.59,525.85Zm-45.78-3.64q5.67,6.93,18.27,6.93t18.27-6.93Q224,515.28,224,500V477.34q0-15.54-5.67-22.54t-18.27-7q-12.6,0-18.27,7t-5.67,22.54V500Q176.14,515.28,181.81,522.21Z"/><path class="cls-2" d="M272.78,513.42a13.7,13.7,0,0,1-19.95,0,16,16,0,0,1,0-21.21,13.72,13.72,0,0,1,19.95,0,16,16,0,0,1,0,21.21Zm-15.72-2.52q1.83,1.79,5.74,1.79t5.74-1.79c1.22-1.19,1.82-3.09,1.82-5.7v-4.76c0-2.62-.6-4.52-1.82-5.71S265.42,493,262.8,493s-4.52.59-5.74,1.78-1.82,3.09-1.82,5.71v4.76Q255.24,509.12,257.06,510.9Zm14.84,27.9,20.23-50.26h6.09L278,538.8Zm45.4-3.75a13.7,13.7,0,0,1-19.95,0,16,16,0,0,1,0-21.21,13.72,13.72,0,0,1,19.95,0,16,16,0,0,1,0,21.21Zm-15.72-2.52q1.83,1.79,5.74,1.79t5.74-1.79c1.22-1.19,1.82-3.09,1.82-5.7v-4.76c0-2.62-.6-4.52-1.82-5.71s-3.12-1.78-5.74-1.78-4.52.59-5.74,1.78-1.82,3.09-1.82,5.71v4.76Q299.76,530.75,301.58,532.53Z"/><path class="cls-2" d="M109.64,776.2Q94.52,776.2,85,768a30.48,30.48,0,0,1-10.64-21.35H87.8q0,9.95,4.76,14.21t17.08,4.27q21.29,0,21.28-13.44V746q0-10.5-18.06-10.5H111v-7.14H93.26V718H111v-7.7H114q8.4,0,11.06-2.1c1.78-1.4,2.66-3.78,2.66-7.14v-4.2a12.15,12.15,0,0,0-3.92-9.45q-3.91-3.57-14.42-3.57-10.77,0-14.91,4T90.32,701H77.16a30.3,30.3,0,0,1,10.36-20,31.66,31.66,0,0,1,21.84-8.12q14.7,0,23.31,7.42t8.61,17.78a20.45,20.45,0,0,1-5.6,14.07q-5.6,6.23-12,7.07v7a25.76,25.76,0,0,1,14.56,7.07,19,19,0,0,1,6.3,14.35q0,12.18-10.29,20.37T109.64,776.2Z"/><path class="cls-2" d="M229,761.85q-10.29,14.35-27.51,14.35T174,761.85q-10.29-14.36-10.29-37.17T174,687.3q10.36-14.41,27.44-14.42t27.44,14.42q10.37,14.41,10.36,37.38T229,761.85Zm-45.78-3.64q5.67,6.93,18.27,6.93t18.27-6.93q5.67-6.93,5.67-22.19V713.34q0-15.54-5.67-22.54t-18.27-7q-12.6,0-18.27,7t-5.67,22.54V736Q177.54,751.28,183.21,758.21Z"/><path class="cls-2" d="M274.18,749.42a13.7,13.7,0,0,1-20,0,16,16,0,0,1,0-21.21,13.72,13.72,0,0,1,20,0,16,16,0,0,1,0,21.21Zm-15.72-2.52c1.21,1.19,3.13,1.79,5.74,1.79s4.53-.6,5.74-1.79,1.82-3.09,1.82-5.7v-4.76q0-3.93-1.82-5.71c-1.21-1.19-3.13-1.78-5.74-1.78s-4.53.59-5.74,1.78-1.82,3.09-1.82,5.71v4.76Q256.64,745.11,258.46,746.9Zm14.84,27.9,20.23-50.26h6.09L279.39,774.8Zm45.4-3.75a13.7,13.7,0,0,1-19.95,0,16,16,0,0,1,0-21.21,13.72,13.72,0,0,1,19.95,0,16,16,0,0,1,0,21.21ZM303,768.53q1.83,1.79,5.74,1.79c2.61,0,4.53-.6,5.74-1.79s1.82-3.09,1.82-5.7v-4.76q0-3.93-1.82-5.71c-1.21-1.19-3.13-1.78-5.74-1.78s-4.52.59-5.74,1.78-1.82,3.09-1.82,5.71v4.76Q301.16,766.75,303,768.53Z"/><text class="cls-3" transform="translate(348.28 503.99)">pa<tspan class="cls-4" x="35.2" y="0">r</tspan><tspan x="47.39" y="0">ticola</tspan><tspan class="cls-5" x="124.09" y="0">t</tspan><tspan x="134.83" y="0">o </tspan><tspan x="0" y="35">secondario</tspan></text><text class="cls-3" transform="translate(348.28 739.99)">pa<tspan class="cls-4" x="35.2" y="0">r</tspan><tspan x="47.39" y="0">ticola</tspan><tspan class="cls-5" x="124.09" y="0">t</tspan><tspan x="134.83" y="0">o </tspan><tspan x="0" y="35">primario</tspan></text><text class="cls-6" transform="translate(-190.71 47.76)">indice di <tspan x="0" y="20.4">rischio in %</tspan></text></g></svg>