<svg xmlns="http://www.w3.org/2000/svg" viewBox="0 0 720 900"><defs><style>.cls-1{fill:#fe5000;}.cls-2,.cls-3{fill:#fff;}.cls-3{font-size:17px;font-family:Inter-Regular, Inter;}</style></defs><g id="Livello_2" data-name="Livello 2"><rect class="cls-1" x="28" y="608.67" width="664" height="235.33"/><rect class="cls-1" x="28" y="38.87" width="664" height="552.5"/><path class="cls-2" d="M90.46,538.8l39.2-83v-5.6H71.28v-11.9H142v16.8L104.46,538.8Z"/><path class="cls-2" d="M227.59,525.85Q217.3,540.2,200.08,540.2t-27.51-14.35q-10.29-14.36-10.29-37.17,0-23,10.36-37.38t27.44-14.42q17.08,0,27.44,14.42t10.36,37.38Q237.88,511.5,227.59,525.85Zm-45.78-3.64q5.67,6.93,18.27,6.93t18.27-6.93Q224,515.28,224,500V477.34q0-15.54-5.67-22.54t-18.27-7q-12.6,0-18.27,7t-5.67,22.54V500Q176.14,515.28,181.81,522.21Z"/><path class="cls-2" d="M272.78,513.42a13.7,13.7,0,0,1-19.95,0,16,16,0,0,1,0-21.21,13.72,13.72,0,0,1,19.95,0,16,16,0,0,1,0,21.21Zm-15.72-2.52q1.83,1.79,5.74,1.79t5.74-1.79c1.22-1.19,1.82-3.09,1.82-5.7v-4.76c0-2.62-.6-4.52-1.82-5.71S265.42,493,262.8,493s-4.52.59-5.74,1.78-1.82,3.09-1.82,5.71v4.76Q255.24,509.12,257.06,510.9Zm14.84,27.9,20.23-50.26h6.09L278,538.8Zm45.4-3.75a13.7,13.7,0,0,1-19.95,0,16,16,0,0,1,0-21.21,13.72,13.72,0,0,1,19.95,0,16,16,0,0,1,0,21.21Zm-15.72-2.52q1.83,1.79,5.74,1.79t5.74-1.79c1.22-1.19,1.82-3.09,1.82-5.7v-4.76c0-2.62-.6-4.52-1.82-5.71s-3.12-1.78-5.74-1.78-4.52.59-5.74,1.78-1.82,3.09-1.82,5.71v4.76Q299.76,530.75,301.58,532.53Z"/><path class="cls-2" d="M109.64,776.2Q94.52,776.2,85,768a30.48,30.48,0,0,1-10.64-21.35H87.8q0,9.95,4.76,14.21t17.08,4.27q21.29,0,21.28-13.44V746q0-10.5-18.06-10.5H111v-7.14H93.26V718H111v-7.7H114q8.4,0,11.06-2.1c1.78-1.4,2.66-3.78,2.66-7.14v-4.2a12.15,12.15,0,0,0-3.92-9.45q-3.91-3.57-14.42-3.57-10.77,0-14.91,4T90.32,701H77.16a30.3,30.3,0,0,1,10.36-20,31.66,31.66,0,0,1,21.84-8.12q14.7,0,23.31,7.42t8.61,17.78a20.45,20.45,0,0,1-5.6,14.07q-5.6,6.23-12,7.07v7a25.76,25.76,0,0,1,14.56,7.07,19,19,0,0,1,6.3,14.35q0,12.18-10.29,20.37T109.64,776.2Z"/><path class="cls-2" d="M229,761.85q-10.29,14.35-27.51,14.35T174,761.85q-10.29-14.36-10.29-37.17T174,687.3q10.36-14.41,27.44-14.42t27.44,14.42q10.37,14.41,10.36,37.38T229,761.85Zm-45.78-3.64q5.67,6.93,18.27,6.93t18.27-6.93q5.67-6.93,5.67-22.19V713.34q0-15.54-5.67-22.54t-18.27-7q-12.6,0-18.27,7t-5.67,22.54V736Q177.54,751.28,183.21,758.21Z"/><path class="cls-2" d="M274.18,749.42a13.7,13.7,0,0,1-20,0,16,16,0,0,1,0-21.21,13.72,13.72,0,0,1,20,0,16,16,0,0,1,0,21.21Zm-15.72-2.52c1.21,1.19,3.13,1.79,5.74,1.79s4.53-.6,5.74-1.79,1.82-3.09,1.82-5.7v-4.76q0-3.93-1.82-5.71c-1.21-1.19-3.13-1.78-5.74-1.78s-4.53.59-5.74,1.78-1.82,3.09-1.82,5.71v4.76Q256.64,745.11,258.46,746.9Zm14.84,27.9,20.23-50.26h6.09L279.39,774.8Zm45.4-3.75a13.7,13.7,0,0,1-19.95,0,16,16,0,0,1,0-21.21,13.72,13.72,0,0,1,19.95,0,16,16,0,0,1,0,21.21ZM303,768.53q1.83,1.79,5.74,1.79c2.61,0,4.53-.6,5.74-1.79s1.82-3.09,1.82-5.7v-4.76q0-3.93-1.82-5.71c-1.21-1.19-3.13-1.78-5.74-1.78s-4.52.59-5.74,1.78-1.82,3.09-1.82,5.71v4.76Q301.16,766.75,303,768.53Z"/><path class="cls-2" d="M350.59,510.13v-22.5H353v2.6h.3c.19-.29.44-.65.77-1.1a4.67,4.67,0,0,1,1.43-1.19,5.17,5.17,0,0,1,2.53-.53,6.53,6.53,0,0,1,3.65,1,6.86,6.86,0,0,1,2.46,2.93,10.45,10.45,0,0,1,.88,4.47,10.6,10.6,0,0,1-.88,4.5,6.94,6.94,0,0,1-2.45,2.94,6.34,6.34,0,0,1-3.61,1,5.09,5.09,0,0,1-2.53-.53,4.59,4.59,0,0,1-1.46-1.2c-.34-.45-.6-.83-.79-1.12h-.21v8.65Zm2.47-14.32a9.09,9.09,0,0,0,.54,3.26,4.83,4.83,0,0,0,1.59,2.21,4.09,4.09,0,0,0,2.56.79,4.16,4.16,0,0,0,2.63-.83A5.09,5.09,0,0,0,362,499a8.9,8.9,0,0,0,.54-3.17,8.8,8.8,0,0,0-.53-3.12,4.87,4.87,0,0,0-1.59-2.2,4.17,4.17,0,0,0-2.65-.82,4.22,4.22,0,0,0-2.58.77,4.77,4.77,0,0,0-1.58,2.16A8.78,8.78,0,0,0,353.06,495.81Z"/><path class="cls-2" d="M373.68,504.37a6.5,6.5,0,0,1-2.82-.59,4.67,4.67,0,0,1-2-1.71,4.8,4.8,0,0,1-.75-2.72,4.24,4.24,0,0,1,.55-2.29,4,4,0,0,1,1.48-1.38,8.26,8.26,0,0,1,2.06-.75c.74-.17,1.5-.3,2.26-.4,1-.13,1.8-.22,2.42-.29a3.88,3.88,0,0,0,1.37-.35.91.91,0,0,0,.43-.85V493a3.37,3.37,0,0,0-.86-2.45,3.49,3.49,0,0,0-2.59-.87A4.4,4.4,0,0,0,371,492.1l-2.39-.85a5.72,5.72,0,0,1,1.71-2.33,6.29,6.29,0,0,1,2.34-1.17,10,10,0,0,1,2.51-.34,10.83,10.83,0,0,1,1.82.19,5.93,5.93,0,0,1,2,.76,4.44,4.44,0,0,1,1.6,1.74,6.4,6.4,0,0,1,.64,3.11V504h-2.51v-2.22h-.13a4.2,4.2,0,0,1-.85,1.14,5,5,0,0,1-1.59,1A6.21,6.21,0,0,1,373.68,504.37Zm.39-2.25a5,5,0,0,0,2.51-.59,4.05,4.05,0,0,0,1.56-1.51,3.92,3.92,0,0,0,.53-1.95v-2.3a1.54,1.54,0,0,1-.7.34,10.16,10.16,0,0,1-1.24.27c-.46.07-.91.14-1.35.19l-1.06.13a11.15,11.15,0,0,0-1.83.41,3.13,3.13,0,0,0-1.36.85,2.14,2.14,0,0,0-.52,1.51,2.24,2.24,0,0,0,1,2A4.32,4.32,0,0,0,374.07,502.12Z"/><path class="cls-2" d="M385.78,504V487.63h2.43v2.47h.17a3.93,3.93,0,0,1,1.62-2,4.75,4.75,0,0,1,2.65-.76h.69l.63,0V490l-.58-.1a5.94,5.94,0,0,0-1-.07,4.45,4.45,0,0,0-2.12.5,3.78,3.78,0,0,0-1.47,1.36,3.68,3.68,0,0,0-.54,2V504Z"/><path class="cls-2" d="M405.09,487.63v2.13h-8.48v-2.13Zm-6-3.92h2.51V499.3a3.22,3.22,0,0,0,.32,1.6,1.56,1.56,0,0,0,.81.7,3,3,0,0,0,1,.17,4.36,4.36,0,0,0,.68,0l.43-.08.51,2.26a5.09,5.09,0,0,1-.72.19,5.31,5.31,0,0,1-1.16.1,5.09,5.09,0,0,1-2.08-.45,4.07,4.07,0,0,1-1.68-1.4,3.93,3.93,0,0,1-.67-2.37Z"/><path class="cls-2" d="M410.16,484.9a1.78,1.78,0,0,1-1.26-.5,1.57,1.57,0,0,1-.53-1.2,1.59,1.59,0,0,1,.53-1.21,1.84,1.84,0,0,1,2.52,0,1.63,1.63,0,0,1,.53,1.21,1.61,1.61,0,0,1-.53,1.2A1.78,1.78,0,0,1,410.16,484.9ZM408.88,504V487.63h2.51V504Z"/><path class="cls-2" d="M422.64,504.33a6.83,6.83,0,0,1-6.52-4.08,10.23,10.23,0,0,1-.89-4.36,10.06,10.06,0,0,1,.92-4.4,7.19,7.19,0,0,1,2.58-3,6.83,6.83,0,0,1,3.87-1.09,7.42,7.42,0,0,1,3.11.64,6,6,0,0,1,2.27,1.79,5.56,5.56,0,0,1,1.1,2.69h-2.52a3.83,3.83,0,0,0-3.92-2.86,4.47,4.47,0,0,0-2.57.76,5,5,0,0,0-1.71,2.15,7.85,7.85,0,0,0-.62,3.23,8.2,8.2,0,0,0,.61,3.3,5,5,0,0,0,1.7,2.19,4.78,4.78,0,0,0,4.37.43,3.61,3.61,0,0,0,2.14-2.51h2.52a5.78,5.78,0,0,1-1.05,2.6,6,6,0,0,1-2.21,1.84A7.09,7.09,0,0,1,422.64,504.33Z"/><path class="cls-2" d="M439.39,504.33a7.11,7.11,0,0,1-3.88-1.05,7.18,7.18,0,0,1-2.6-2.95,11.11,11.11,0,0,1,0-8.9,7.17,7.17,0,0,1,13,0,11,11,0,0,1,0,8.9,6.9,6.9,0,0,1-6.48,4Zm0-2.26a4.28,4.28,0,0,0,2.77-.86,5.08,5.08,0,0,0,1.61-2.27,9.2,9.2,0,0,0,0-6.1,5.08,5.08,0,0,0-1.61-2.29,4.8,4.8,0,0,0-5.54,0,5.16,5.16,0,0,0-1.61,2.29,9.2,9.2,0,0,0,0,6.1,5.15,5.15,0,0,0,1.61,2.27A4.3,4.3,0,0,0,439.39,502.07Z"/><path class="cls-2" d="M453.16,482.17V504h-2.52V482.17Z"/><path class="cls-2" d="M462.57,504.37a6.5,6.5,0,0,1-2.82-.59,4.67,4.67,0,0,1-2-1.71,4.8,4.8,0,0,1-.75-2.72,4.24,4.24,0,0,1,.55-2.29,4,4,0,0,1,1.49-1.38,8,8,0,0,1,2.05-.75c.75-.17,1.5-.3,2.26-.4,1-.13,1.8-.22,2.42-.29a3.88,3.88,0,0,0,1.37-.35.89.89,0,0,0,.43-.85V493a3.37,3.37,0,0,0-.86-2.45,3.49,3.49,0,0,0-2.59-.87,4.4,4.4,0,0,0-4.26,2.47l-2.39-.85a5.81,5.81,0,0,1,1.71-2.33,6.29,6.29,0,0,1,2.34-1.17,10,10,0,0,1,2.51-.34,10.83,10.83,0,0,1,1.82.19,5.93,5.93,0,0,1,2,.76,4.44,4.44,0,0,1,1.6,1.74,6.4,6.4,0,0,1,.64,3.11V504h-2.51v-2.22h-.13a4.2,4.2,0,0,1-.85,1.14,5,5,0,0,1-1.59,1A6.21,6.21,0,0,1,462.57,504.37Zm.39-2.25a5,5,0,0,0,2.52-.59A4.09,4.09,0,0,0,467,500a3.92,3.92,0,0,0,.53-1.95v-2.3a1.54,1.54,0,0,1-.7.34,10.16,10.16,0,0,1-1.24.27c-.46.07-.91.14-1.35.19l-1.06.13a11.15,11.15,0,0,0-1.83.41A3.19,3.19,0,0,0,460,498a2.14,2.14,0,0,0-.52,1.51,2.24,2.24,0,0,0,1,2A4.34,4.34,0,0,0,463,502.12Z"/><path class="cls-2" d="M481.79,487.63v2.13h-8.48v-2.13Zm-6-3.92h2.52V499.3a3.24,3.24,0,0,0,.31,1.6,1.56,1.56,0,0,0,.81.7,3,3,0,0,0,1.05.17,4.27,4.27,0,0,0,.68,0l.43-.08.51,2.26a5.28,5.28,0,0,1-.71.19,5.48,5.48,0,0,1-1.17.1,5.09,5.09,0,0,1-2.08-.45,4.07,4.07,0,0,1-1.68-1.4,3.93,3.93,0,0,1-.67-2.37Z"/><path class="cls-2" d="M492.06,504.33a7.11,7.11,0,0,1-3.88-1.05,7.18,7.18,0,0,1-2.6-2.95,11.11,11.11,0,0,1,0-8.9,6.92,6.92,0,0,1,6.48-4,7.18,7.18,0,0,1,3.89,1.06,7.07,7.07,0,0,1,2.59,3,11,11,0,0,1,0,8.9,6.88,6.88,0,0,1-6.48,4Zm0-2.26a4.28,4.28,0,0,0,2.77-.86,5.08,5.08,0,0,0,1.61-2.27,9.2,9.2,0,0,0,0-6.1,5.08,5.08,0,0,0-1.61-2.29,4.8,4.8,0,0,0-5.54,0,5.16,5.16,0,0,0-1.61,2.29,9.2,9.2,0,0,0,0,6.1,5.15,5.15,0,0,0,1.61,2.27A4.3,4.3,0,0,0,492.06,502.07Z"/><path class="cls-2" d="M362.18,526.29l-2.26.64a4.1,4.1,0,0,0-.63-1.1,3,3,0,0,0-1.11-.89,4,4,0,0,0-1.8-.35,4.38,4.38,0,0,0-2.5.68,2.06,2.06,0,0,0-1,1.75,1.79,1.79,0,0,0,.68,1.48,5.64,5.64,0,0,0,2.13.9l2.43.6a6.78,6.78,0,0,1,3.27,1.62,3.83,3.83,0,0,1,1.07,2.81,4.16,4.16,0,0,1-.8,2.52,5.42,5.42,0,0,1-2.24,1.74,8.14,8.14,0,0,1-3.35.64,7.37,7.37,0,0,1-4.14-1.08,4.82,4.82,0,0,1-2.08-3.18l2.39-.6a3.32,3.32,0,0,0,1.29,2,4.32,4.32,0,0,0,2.5.66,4.65,4.65,0,0,0,2.8-.76,2.19,2.19,0,0,0,1-1.8,1.89,1.89,0,0,0-.6-1.43,3.82,3.82,0,0,0-1.83-.87l-2.73-.64a6.48,6.48,0,0,1-3.3-1.66,4.26,4.26,0,0,1-.26-5.27A5.24,5.24,0,0,1,353.3,523a7.52,7.52,0,0,1,3.08-.61,6.15,6.15,0,0,1,3.82,1.07A5.75,5.75,0,0,1,362.18,526.29Z"/><path class="cls-2" d="M373.13,539.33a7.65,7.65,0,0,1-4.08-1.05,7,7,0,0,1-2.63-2.94,10,10,0,0,1-.92-4.4,10.21,10.21,0,0,1,.92-4.44,7.29,7.29,0,0,1,2.58-3,6.83,6.83,0,0,1,3.87-1.09,7.91,7.91,0,0,1,2.53.43,6.25,6.25,0,0,1,2.27,1.38,6.83,6.83,0,0,1,1.63,2.52,10.83,10.83,0,0,1,.6,3.86v1.06H367.29v-2.17h10.06a5.44,5.44,0,0,0-.55-2.47,4.26,4.26,0,0,0-1.56-1.72,4.37,4.37,0,0,0-2.37-.63,4.53,4.53,0,0,0-2.59.74,5,5,0,0,0-1.68,1.93,5.6,5.6,0,0,0-.59,2.53v1.45a6.94,6.94,0,0,0,.65,3.14,4.64,4.64,0,0,0,1.79,1.95,5.81,5.81,0,0,0,4.47.38,3.73,3.73,0,0,0,1.39-.85,3.86,3.86,0,0,0,.91-1.42l2.43.68a5.53,5.53,0,0,1-1.29,2.17,6.18,6.18,0,0,1-2.24,1.44A8.09,8.09,0,0,1,373.13,539.33Z"/><path class="cls-2" d="M390.39,539.33a6.8,6.8,0,0,1-6.52-4.08,11,11,0,0,1,0-8.76,7.26,7.26,0,0,1,2.58-3,6.88,6.88,0,0,1,3.87-1.09,7.5,7.5,0,0,1,3.12.64,6.06,6.06,0,0,1,2.26,1.79,5.56,5.56,0,0,1,1.1,2.69h-2.51a3.92,3.92,0,0,0-1.28-2,3.84,3.84,0,0,0-2.64-.87,4.5,4.5,0,0,0-2.58.76,5.06,5.06,0,0,0-1.71,2.15,7.86,7.86,0,0,0-.61,3.23,8.38,8.38,0,0,0,.6,3.3,5,5,0,0,0,1.7,2.19,4.8,4.8,0,0,0,4.38.43,3.67,3.67,0,0,0,1.35-1,3.78,3.78,0,0,0,.79-1.53h2.51a5.78,5.78,0,0,1-1.05,2.6,6,6,0,0,1-2.2,1.84A7.15,7.15,0,0,1,390.39,539.33Z"/><path class="cls-2" d="M407.13,539.33a6.9,6.9,0,0,1-6.48-4,11.11,11.11,0,0,1,0-8.9,7.18,7.18,0,0,1,13,0,11.11,11.11,0,0,1,0,8.9,6.91,6.91,0,0,1-6.49,4Zm0-2.26a4.27,4.27,0,0,0,2.77-.86,5.08,5.08,0,0,0,1.61-2.27,9.2,9.2,0,0,0,0-6.1,5.08,5.08,0,0,0-1.61-2.29,4.8,4.8,0,0,0-5.54,0,5.16,5.16,0,0,0-1.61,2.29,9.2,9.2,0,0,0,0,6.1,5.15,5.15,0,0,0,1.61,2.27A4.3,4.3,0,0,0,407.13,537.07Z"/><path class="cls-2" d="M420.9,529.15V539h-2.52V522.63h2.43v2.55H421a4.62,4.62,0,0,1,1.74-2,5.45,5.45,0,0,1,3-.77,6,6,0,0,1,2.91.68,4.65,4.65,0,0,1,1.94,2,7.62,7.62,0,0,1,.69,3.45V539h-2.52V528.76a4.26,4.26,0,0,0-1-3,3.56,3.56,0,0,0-2.75-1.08,4.43,4.43,0,0,0-2.14.52,3.73,3.73,0,0,0-1.49,1.53A5.07,5.07,0,0,0,420.9,529.15Z"/><path class="cls-2" d="M442.12,539.33a6.32,6.32,0,0,1-3.61-1,6.87,6.87,0,0,1-2.45-2.94,10.59,10.59,0,0,1-.89-4.5,10.45,10.45,0,0,1,.89-4.47,6.86,6.86,0,0,1,2.46-2.93,6.47,6.47,0,0,1,3.64-1,5.15,5.15,0,0,1,2.53.53,4.56,4.56,0,0,1,1.43,1.19c.33.45.59.81.77,1.1h.21v-8.06h2.52V539h-2.43v-2.51h-.3c-.18.29-.45.67-.79,1.12a4.48,4.48,0,0,1-1.46,1.2A5.07,5.07,0,0,1,442.12,539.33Zm.34-2.26a4.11,4.11,0,0,0,2.56-.79,4.89,4.89,0,0,0,1.58-2.21,8.87,8.87,0,0,0,.55-3.26,9,9,0,0,0-.53-3.21,4.84,4.84,0,0,0-1.58-2.16,4.27,4.27,0,0,0-2.58-.77,4.2,4.2,0,0,0-2.66.82,4.94,4.94,0,0,0-1.59,2.2,8.8,8.8,0,0,0-.52,3.12,8.9,8.9,0,0,0,.54,3.17,5.08,5.08,0,0,0,1.59,2.26A4.18,4.18,0,0,0,442.46,537.07Z"/><path class="cls-2" d="M459.38,539.37a6.55,6.55,0,0,1-2.83-.59,4.64,4.64,0,0,1-2.76-4.43,4.24,4.24,0,0,1,.56-2.29,3.93,3.93,0,0,1,1.48-1.38,8.18,8.18,0,0,1,2.05-.75c.75-.17,1.5-.3,2.26-.4,1-.13,1.81-.22,2.43-.29a3.82,3.82,0,0,0,1.36-.35.89.89,0,0,0,.43-.85V528a3.37,3.37,0,0,0-.85-2.45,3.52,3.52,0,0,0-2.6-.87,4.48,4.48,0,0,0-2.82.79,4.63,4.63,0,0,0-1.44,1.68l-2.39-.85a5.81,5.81,0,0,1,1.71-2.33,6.41,6.41,0,0,1,2.35-1.17,10,10,0,0,1,2.51-.34,10.72,10.72,0,0,1,1.81.19,5.85,5.85,0,0,1,2,.76,4.47,4.47,0,0,1,1.61,1.74,6.52,6.52,0,0,1,.64,3.11V539h-2.52v-2.22h-.12a4.26,4.26,0,0,1-.86,1.14,4.82,4.82,0,0,1-1.58,1A6.21,6.21,0,0,1,459.38,539.37Zm.38-2.25a5,5,0,0,0,2.52-.59,4.12,4.12,0,0,0,1.56-1.51,3.9,3.9,0,0,0,.52-1.95v-2.3a1.49,1.49,0,0,1-.69.34,10.59,10.59,0,0,1-1.24.27c-.47.07-.92.14-1.35.19l-1.06.13a10.7,10.7,0,0,0-1.83.41,3.08,3.08,0,0,0-1.36.85,2.1,2.1,0,0,0-.52,1.51,2.23,2.23,0,0,0,1,2A4.34,4.34,0,0,0,459.76,537.12Z"/><path class="cls-2" d="M471.48,539V522.63h2.43v2.47h.17a3.93,3.93,0,0,1,1.62-2,4.71,4.71,0,0,1,2.64-.76H479l.63,0V525l-.58-.1a5.82,5.82,0,0,0-.95-.07,4.47,4.47,0,0,0-2.13.5,3.78,3.78,0,0,0-1.47,1.36,3.68,3.68,0,0,0-.54,2V539Z"/><path class="cls-2" d="M483.92,519.9a1.78,1.78,0,0,1-1.26-.5,1.61,1.61,0,0,1-.53-1.2,1.63,1.63,0,0,1,.53-1.21,1.84,1.84,0,0,1,2.52,0,1.59,1.59,0,0,1,.53,1.21,1.57,1.57,0,0,1-.53,1.2A1.78,1.78,0,0,1,483.92,519.9ZM482.64,539V522.63h2.52V539Z"/><path class="cls-2" d="M496.41,539.33a6.9,6.9,0,0,1-6.48-4,11,11,0,0,1,0-8.9,7,7,0,0,1,2.6-3,7.17,7.17,0,0,1,10.36,3,11.11,11.11,0,0,1,0,8.9,6.9,6.9,0,0,1-6.48,4Zm0-2.26a4.3,4.3,0,0,0,2.77-.86,5.15,5.15,0,0,0,1.61-2.27,9.2,9.2,0,0,0,0-6.1,5.16,5.16,0,0,0-1.61-2.29,4.8,4.8,0,0,0-5.54,0,5.08,5.08,0,0,0-1.61,2.29,9.2,9.2,0,0,0,0,6.1,5.08,5.08,0,0,0,1.61,2.27A4.28,4.28,0,0,0,496.41,537.07Z"/><path class="cls-2" d="M350.59,746.13v-22.5H353v2.6h.3c.19-.29.44-.65.77-1.1a4.67,4.67,0,0,1,1.43-1.19,5.17,5.17,0,0,1,2.53-.53,6.53,6.53,0,0,1,3.65,1,6.86,6.86,0,0,1,2.46,2.93,10.45,10.45,0,0,1,.88,4.47,10.6,10.6,0,0,1-.88,4.5,6.94,6.94,0,0,1-2.45,2.94,6.34,6.34,0,0,1-3.61,1,5.09,5.09,0,0,1-2.53-.53,4.59,4.59,0,0,1-1.46-1.2c-.34-.45-.6-.83-.79-1.12h-.21v8.65Zm2.47-14.32a9.09,9.09,0,0,0,.54,3.26,4.83,4.83,0,0,0,1.59,2.21,4.09,4.09,0,0,0,2.56.79,4.16,4.16,0,0,0,2.63-.83A5.09,5.09,0,0,0,362,735a8.9,8.9,0,0,0,.54-3.17,8.8,8.8,0,0,0-.53-3.12,4.87,4.87,0,0,0-1.59-2.2,4.17,4.17,0,0,0-2.65-.82,4.22,4.22,0,0,0-2.58.77,4.77,4.77,0,0,0-1.58,2.16A8.78,8.78,0,0,0,353.06,731.81Z"/><path class="cls-2" d="M373.68,740.37a6.5,6.5,0,0,1-2.82-.59,4.67,4.67,0,0,1-2-1.71,4.8,4.8,0,0,1-.75-2.72,4.24,4.24,0,0,1,.55-2.29,4,4,0,0,1,1.48-1.38,8.26,8.26,0,0,1,2.06-.75c.74-.17,1.5-.3,2.26-.4,1-.13,1.8-.22,2.42-.29a3.88,3.88,0,0,0,1.37-.35.91.91,0,0,0,.43-.85V729a3.37,3.37,0,0,0-.86-2.45,3.49,3.49,0,0,0-2.59-.87A4.4,4.4,0,0,0,371,728.1l-2.39-.85a5.72,5.72,0,0,1,1.71-2.33,6.29,6.29,0,0,1,2.34-1.17,10,10,0,0,1,2.51-.34,10.83,10.83,0,0,1,1.82.19,5.93,5.93,0,0,1,2,.76,4.44,4.44,0,0,1,1.6,1.74,6.4,6.4,0,0,1,.64,3.11V740h-2.51v-2.22h-.13a4.2,4.2,0,0,1-.85,1.14,5,5,0,0,1-1.59,1A6.21,6.21,0,0,1,373.68,740.37Zm.39-2.25a5,5,0,0,0,2.51-.59,4.05,4.05,0,0,0,1.56-1.51,3.92,3.92,0,0,0,.53-1.95v-2.3a1.54,1.54,0,0,1-.7.34,10.16,10.16,0,0,1-1.24.27c-.46.07-.91.14-1.35.19l-1.06.13a11.15,11.15,0,0,0-1.83.41,3.13,3.13,0,0,0-1.36.85,2.14,2.14,0,0,0-.52,1.51,2.24,2.24,0,0,0,1,2A4.32,4.32,0,0,0,374.07,738.12Z"/><path class="cls-2" d="M385.78,740V723.63h2.43v2.47h.17a3.93,3.93,0,0,1,1.62-2,4.75,4.75,0,0,1,2.65-.76h.69l.63,0V726l-.58-.1a5.94,5.94,0,0,0-1-.07,4.45,4.45,0,0,0-2.12.5,3.78,3.78,0,0,0-1.47,1.36,3.68,3.68,0,0,0-.54,2V740Z"/><path class="cls-2" d="M405.09,723.63v2.13h-8.48v-2.13Zm-6-3.92h2.51V735.3a3.22,3.22,0,0,0,.32,1.6,1.56,1.56,0,0,0,.81.7,3,3,0,0,0,1,.17,4.36,4.36,0,0,0,.68,0l.43-.08.51,2.26a5.09,5.09,0,0,1-.72.19,5.31,5.31,0,0,1-1.16.1,5.09,5.09,0,0,1-2.08-.45,4.07,4.07,0,0,1-1.68-1.4,3.93,3.93,0,0,1-.67-2.37Z"/><path class="cls-2" d="M410.16,720.9a1.78,1.78,0,0,1-1.26-.5,1.57,1.57,0,0,1-.53-1.2,1.59,1.59,0,0,1,.53-1.21,1.84,1.84,0,0,1,2.52,0,1.63,1.63,0,0,1,.53,1.21,1.61,1.61,0,0,1-.53,1.2A1.78,1.78,0,0,1,410.16,720.9ZM408.88,740V723.63h2.51V740Z"/><path class="cls-2" d="M422.64,740.33a6.83,6.83,0,0,1-6.52-4.08,10.23,10.23,0,0,1-.89-4.36,10.06,10.06,0,0,1,.92-4.4,7.19,7.19,0,0,1,2.58-3,6.83,6.83,0,0,1,3.87-1.09,7.42,7.42,0,0,1,3.11.64,6,6,0,0,1,2.27,1.79,5.56,5.56,0,0,1,1.1,2.69h-2.52a3.83,3.83,0,0,0-3.92-2.86,4.47,4.47,0,0,0-2.57.76,5,5,0,0,0-1.71,2.15,7.85,7.85,0,0,0-.62,3.23,8.2,8.2,0,0,0,.61,3.3,5,5,0,0,0,1.7,2.19,4.78,4.78,0,0,0,4.37.43,3.61,3.61,0,0,0,2.14-2.51h2.52a5.78,5.78,0,0,1-1.05,2.6,6,6,0,0,1-2.21,1.84A7.09,7.09,0,0,1,422.64,740.33Z"/><path class="cls-2" d="M439.39,740.33a7.11,7.11,0,0,1-3.88-1.05,7.18,7.18,0,0,1-2.6-2.95,11.11,11.11,0,0,1,0-8.9,7.17,7.17,0,0,1,13,0,11,11,0,0,1,0,8.9,6.9,6.9,0,0,1-6.48,4Zm0-2.26a4.28,4.28,0,0,0,2.77-.86,5.08,5.08,0,0,0,1.61-2.27,9.2,9.2,0,0,0,0-6.1,5.08,5.08,0,0,0-1.61-2.29,4.8,4.8,0,0,0-5.54,0,5.16,5.16,0,0,0-1.61,2.29,9.2,9.2,0,0,0,0,6.1,5.15,5.15,0,0,0,1.61,2.27A4.3,4.3,0,0,0,439.39,738.07Z"/><path class="cls-2" d="M453.16,718.17V740h-2.52V718.17Z"/><path class="cls-2" d="M462.57,740.37a6.5,6.5,0,0,1-2.82-.59,4.67,4.67,0,0,1-2-1.71,4.8,4.8,0,0,1-.75-2.72,4.24,4.24,0,0,1,.55-2.29,4,4,0,0,1,1.49-1.38,8,8,0,0,1,2.05-.75c.75-.17,1.5-.3,2.26-.4,1-.13,1.8-.22,2.42-.29a3.88,3.88,0,0,0,1.37-.35.89.89,0,0,0,.43-.85V729a3.37,3.37,0,0,0-.86-2.45,3.49,3.49,0,0,0-2.59-.87,4.4,4.4,0,0,0-4.26,2.47l-2.39-.85a5.81,5.81,0,0,1,1.71-2.33,6.29,6.29,0,0,1,2.34-1.17,10,10,0,0,1,2.51-.34,10.83,10.83,0,0,1,1.82.19,5.93,5.93,0,0,1,2,.76,4.44,4.44,0,0,1,1.6,1.74,6.4,6.4,0,0,1,.64,3.11V740h-2.51v-2.22h-.13a4.2,4.2,0,0,1-.85,1.14,5,5,0,0,1-1.59,1A6.21,6.21,0,0,1,462.57,740.37Zm.39-2.25a5,5,0,0,0,2.52-.59A4.09,4.09,0,0,0,467,736a3.92,3.92,0,0,0,.53-1.95v-2.3a1.54,1.54,0,0,1-.7.34,10.16,10.16,0,0,1-1.24.27c-.46.07-.91.14-1.35.19l-1.06.13a11.15,11.15,0,0,0-1.83.41A3.19,3.19,0,0,0,460,734a2.14,2.14,0,0,0-.52,1.51,2.24,2.24,0,0,0,1,2A4.34,4.34,0,0,0,463,738.12Z"/><path class="cls-2" d="M481.79,723.63v2.13h-8.48v-2.13Zm-6-3.92h2.52V735.3a3.24,3.24,0,0,0,.31,1.6,1.56,1.56,0,0,0,.81.7,3,3,0,0,0,1.05.17,4.27,4.27,0,0,0,.68,0l.43-.08.51,2.26a5.28,5.28,0,0,1-.71.19,5.48,5.48,0,0,1-1.17.1,5.09,5.09,0,0,1-2.08-.45,4.07,4.07,0,0,1-1.68-1.4,3.93,3.93,0,0,1-.67-2.37Z"/><path class="cls-2" d="M492.06,740.33a7.11,7.11,0,0,1-3.88-1.05,7.18,7.18,0,0,1-2.6-2.95,11.11,11.11,0,0,1,0-8.9,6.92,6.92,0,0,1,6.48-4,7.18,7.18,0,0,1,3.89,1.06,7.07,7.07,0,0,1,2.59,3,11,11,0,0,1,0,8.9,6.88,6.88,0,0,1-6.48,4Zm0-2.26a4.28,4.28,0,0,0,2.77-.86,5.08,5.08,0,0,0,1.61-2.27,9.2,9.2,0,0,0,0-6.1,5.08,5.08,0,0,0-1.61-2.29,4.8,4.8,0,0,0-5.54,0,5.16,5.16,0,0,0-1.61,2.29,9.2,9.2,0,0,0,0,6.1,5.15,5.15,0,0,0,1.61,2.27A4.3,4.3,0,0,0,492.06,738.07Z"/><path class="cls-2" d="M350.59,781.13v-22.5H353v2.6h.3c.19-.29.44-.65.77-1.1a4.67,4.67,0,0,1,1.43-1.19,5.17,5.17,0,0,1,2.53-.53,6.53,6.53,0,0,1,3.65,1,6.86,6.86,0,0,1,2.46,2.93,10.45,10.45,0,0,1,.88,4.47,10.6,10.6,0,0,1-.88,4.5,6.94,6.94,0,0,1-2.45,2.94,6.34,6.34,0,0,1-3.61,1,5.09,5.09,0,0,1-2.53-.53,4.59,4.59,0,0,1-1.46-1.2c-.34-.45-.6-.83-.79-1.12h-.21v8.65Zm2.47-14.32a9.09,9.09,0,0,0,.54,3.26,4.83,4.83,0,0,0,1.59,2.21,4.09,4.09,0,0,0,2.56.79,4.16,4.16,0,0,0,2.63-.83A5.09,5.09,0,0,0,362,770a8.9,8.9,0,0,0,.54-3.17,8.8,8.8,0,0,0-.53-3.12,4.87,4.87,0,0,0-1.59-2.2,4.17,4.17,0,0,0-2.65-.82,4.22,4.22,0,0,0-2.58.77,4.77,4.77,0,0,0-1.58,2.16A8.78,8.78,0,0,0,353.06,766.81Z"/><path class="cls-2" d="M368.87,775V758.63h2.43v2.47h.17a3.83,3.83,0,0,1,1.62-2,4.71,4.71,0,0,1,2.64-.76h.69l.63,0V761l-.58-.1a5.86,5.86,0,0,0-1-.07,4.45,4.45,0,0,0-2.12.5,3.78,3.78,0,0,0-1.47,1.36,3.68,3.68,0,0,0-.54,2V775Z"/><path class="cls-2" d="M381.31,755.9a1.78,1.78,0,0,1-1.26-.5,1.61,1.61,0,0,1-.53-1.2,1.63,1.63,0,0,1,.53-1.21,1.84,1.84,0,0,1,2.52,0,1.63,1.63,0,0,1,.53,1.21,1.61,1.61,0,0,1-.53,1.2A1.78,1.78,0,0,1,381.31,755.9ZM380,775V758.63h2.52V775Z"/><path class="cls-2" d="M387.15,775V758.63h2.43v2.55h.21a4.16,4.16,0,0,1,1.65-2,5,5,0,0,1,2.74-.73,4.77,4.77,0,0,1,2.7.73,5,5,0,0,1,1.69,2h.17a4.85,4.85,0,0,1,1.88-2,5.72,5.72,0,0,1,3-.76,4.93,4.93,0,0,1,3.59,1.37,5.75,5.75,0,0,1,1.39,4.26v11h-2.51V764a3.1,3.1,0,0,0-1-2.59,3.66,3.66,0,0,0-2.33-.78,3.47,3.47,0,0,0-2.68,1,3.75,3.75,0,0,0-.94,2.63V775h-2.56V763.78a2.93,2.93,0,0,0-.91-2.25,3.25,3.25,0,0,0-2.33-.86,3.52,3.52,0,0,0-1.83.52,3.88,3.88,0,0,0-1.36,1.45,4.19,4.19,0,0,0-.52,2.12V775Z"/><path class="cls-2" d="M418,775.37a6.47,6.47,0,0,1-2.82-.59,4.67,4.67,0,0,1-2-1.71,4.8,4.8,0,0,1-.75-2.72,4.24,4.24,0,0,1,.55-2.29,4,4,0,0,1,1.48-1.38,8.33,8.33,0,0,1,2.05-.75c.75-.17,1.51-.3,2.27-.4,1-.13,1.8-.22,2.42-.29a3.88,3.88,0,0,0,1.37-.35A.91.91,0,0,0,423,764V764a3.37,3.37,0,0,0-.86-2.45,3.49,3.49,0,0,0-2.59-.87,4.51,4.51,0,0,0-2.83.79,4.63,4.63,0,0,0-1.44,1.68l-2.38-.85a5.63,5.63,0,0,1,1.71-2.33,6.29,6.29,0,0,1,2.34-1.17,10,10,0,0,1,2.51-.34,10.83,10.83,0,0,1,1.82.19,5.93,5.93,0,0,1,2,.76,4.44,4.44,0,0,1,1.6,1.74,6.4,6.4,0,0,1,.64,3.11V775H423v-2.22h-.13a4.2,4.2,0,0,1-.85,1.14,5,5,0,0,1-1.59,1A6.21,6.21,0,0,1,418,775.37Zm.39-2.25a5,5,0,0,0,2.52-.59A4.09,4.09,0,0,0,422.5,771a3.92,3.92,0,0,0,.53-1.95v-2.3a1.54,1.54,0,0,1-.7.34,10.16,10.16,0,0,1-1.24.27c-.46.07-.91.14-1.35.19l-1.06.13a11.15,11.15,0,0,0-1.83.41,3.13,3.13,0,0,0-1.36.85,2.14,2.14,0,0,0-.52,1.51,2.24,2.24,0,0,0,1,2A4.32,4.32,0,0,0,418.43,773.12Z"/><path class="cls-2" d="M430.14,775V758.63h2.43v2.47h.17a3.93,3.93,0,0,1,1.62-2,4.71,4.71,0,0,1,2.64-.76h.7l.63,0V761l-.58-.1a5.94,5.94,0,0,0-1-.07,4.45,4.45,0,0,0-2.12.5,3.68,3.68,0,0,0-2,3.34V775Z"/><path class="cls-2" d="M442.59,755.9a1.82,1.82,0,0,1-1.27-.5,1.6,1.6,0,0,1-.52-1.2,1.62,1.62,0,0,1,.52-1.21,1.82,1.82,0,0,1,1.27-.5,1.78,1.78,0,0,1,1.26.5,1.63,1.63,0,0,1,.53,1.21,1.61,1.61,0,0,1-.53,1.2A1.78,1.78,0,0,1,442.59,755.9ZM441.31,775V758.63h2.51V775Z"/><path class="cls-2" d="M455.07,775.33a6.9,6.9,0,0,1-6.48-4,11.11,11.11,0,0,1,0-8.9,6.92,6.92,0,0,1,6.48-4,6.92,6.92,0,0,1,6.49,4,11.11,11.11,0,0,1,0,8.9,7.25,7.25,0,0,1-2.6,2.95A7.17,7.17,0,0,1,455.07,775.33Zm0-2.26a4.28,4.28,0,0,0,2.77-.86,5.08,5.08,0,0,0,1.61-2.27,9.2,9.2,0,0,0,0-6.1,5.08,5.08,0,0,0-1.61-2.29,4.8,4.8,0,0,0-5.54,0,5.16,5.16,0,0,0-1.61,2.29,9.2,9.2,0,0,0,0,6.1,5.15,5.15,0,0,0,1.61,2.27A4.3,4.3,0,0,0,455.07,773.07Z"/><text class="cls-3" transform="translate(-190.71 47.76)">indice di <tspan x="0" y="20.4">rischio in %</tspan></text></g></svg>