<svg xmlns="http://www.w3.org/2000/svg" viewBox="0 0 720 900"><defs><style>.cls-1{fill:#fe5000;}.cls-2,.cls-3,.cls-4{fill:#fff;stroke:#fff;stroke-miterlimit:10;}.cls-2{stroke-width:4px;}.cls-4{font-size:35px;font-family:FaktPro-Light, Fakt Pro;font-weight:300;}.cls-5{letter-spacing:0.05em;}.cls-6{letter-spacing:0.01em;}.cls-7{letter-spacing:0em;}.cls-8{letter-spacing:-0.01em;}</style></defs><g id="Livello_2" data-name="Livello 2"><rect class="cls-1" x="28" y="608.67" width="664" height="235.33"/><rect class="cls-1" x="28" y="38.87" width="664" height="552.5"/><path class="cls-2" d="M90.46,538.8l39.2-83v-5.6H71.28v-11.9H142v16.8L104.46,538.8Z"/><path class="cls-2" d="M227.59,525.85Q217.3,540.2,200.08,540.2t-27.51-14.35q-10.29-14.36-10.29-37.17,0-23,10.36-37.38t27.44-14.42q17.08,0,27.44,14.42t10.36,37.38Q237.88,511.5,227.59,525.85Zm-45.78-3.64q5.67,6.93,18.27,6.93t18.27-6.93Q224,515.28,224,500V477.34q0-15.54-5.67-22.54t-18.27-7q-12.6,0-18.27,7t-5.67,22.54V500Q176.14,515.28,181.81,522.21Z"/><path class="cls-3" d="M272.78,513.42a13.7,13.7,0,0,1-19.95,0,16,16,0,0,1,0-21.21,13.72,13.72,0,0,1,19.95,0,16,16,0,0,1,0,21.21Zm-15.72-2.52q1.83,1.79,5.74,1.79t5.74-1.79c1.22-1.19,1.82-3.09,1.82-5.7v-4.76c0-2.62-.6-4.52-1.82-5.71S265.42,493,262.8,493s-4.52.59-5.74,1.78-1.82,3.09-1.82,5.71v4.76Q255.24,509.12,257.06,510.9Zm14.84,27.9,20.23-50.26h6.09L278,538.8Zm45.4-3.75a13.7,13.7,0,0,1-19.95,0,16,16,0,0,1,0-21.21,13.72,13.72,0,0,1,19.95,0,16,16,0,0,1,0,21.21Zm-15.72-2.52q1.83,1.79,5.74,1.79t5.74-1.79c1.22-1.19,1.82-3.09,1.82-5.7v-4.76c0-2.62-.6-4.52-1.82-5.71s-3.12-1.78-5.74-1.78-4.52.59-5.74,1.78-1.82,3.09-1.82,5.71v4.76Q299.76,530.75,301.58,532.53Z"/><path class="cls-2" d="M109.64,776.2Q94.52,776.2,85,768a30.48,30.48,0,0,1-10.64-21.35H87.8q0,9.95,4.76,14.21t17.08,4.27q21.29,0,21.28-13.44V746q0-10.5-18.06-10.5H111v-7.14H93.26V718H111v-7.7H114q8.4,0,11.06-2.1c1.78-1.4,2.66-3.78,2.66-7.14v-4.2a12.15,12.15,0,0,0-3.92-9.45q-3.91-3.57-14.42-3.57-10.77,0-14.91,4T90.32,701H77.16a30.3,30.3,0,0,1,10.36-20,31.66,31.66,0,0,1,21.84-8.12q14.7,0,23.31,7.42t8.61,17.78a20.45,20.45,0,0,1-5.6,14.07q-5.6,6.23-12,7.07v7a25.76,25.76,0,0,1,14.56,7.07,19,19,0,0,1,6.3,14.35q0,12.18-10.29,20.37T109.64,776.2Z"/><path class="cls-2" d="M229,761.85q-10.29,14.35-27.51,14.35T174,761.85q-10.29-14.36-10.29-37.17T174,687.3q10.36-14.41,27.44-14.42t27.44,14.42q10.37,14.41,10.36,37.38T229,761.85Zm-45.78-3.64q5.67,6.93,18.27,6.93t18.27-6.93q5.67-6.93,5.67-22.19V713.34q0-15.54-5.67-22.54t-18.27-7q-12.6,0-18.27,7t-5.67,22.54V736Q177.54,751.28,183.21,758.21Z"/><path class="cls-3" d="M274.18,749.42a13.7,13.7,0,0,1-20,0,16,16,0,0,1,0-21.21,13.72,13.72,0,0,1,20,0,16,16,0,0,1,0,21.21Zm-15.72-2.52c1.21,1.19,3.13,1.79,5.74,1.79s4.53-.6,5.74-1.79,1.82-3.09,1.82-5.7v-4.76q0-3.93-1.82-5.71c-1.21-1.19-3.13-1.78-5.74-1.78s-4.53.59-5.74,1.78-1.82,3.09-1.82,5.71v4.76Q256.64,745.11,258.46,746.9Zm14.84,27.9,20.23-50.26h6.09L279.39,774.8Zm45.4-3.75a13.7,13.7,0,0,1-19.95,0,16,16,0,0,1,0-21.21,13.72,13.72,0,0,1,19.95,0,16,16,0,0,1,0,21.21ZM303,768.53q1.83,1.79,5.74,1.79c2.61,0,4.53-.6,5.74-1.79s1.82-3.09,1.82-5.7v-4.76q0-3.93-1.82-5.71c-1.21-1.19-3.13-1.78-5.74-1.78s-4.52.59-5.74,1.78-1.82,3.09-1.82,5.71v4.76Q301.16,766.75,303,768.53Z"/><path class="cls-3" d="M351.47,514.6h-1.68V489.82h1.58v3.67h.06a6.53,6.53,0,0,1,6.31-4c4.2,0,7.38,3.32,7.38,8.75s-3.32,9-7.49,9a6.36,6.36,0,0,1-6.2-4h-.06c.06,1.09.1,6.37.1,7Zm5.95-23.66c-3.29,0-5.84,2.66-5.95,7.07v.35c0,4.62,2.59,7.42,5.95,7.42s5.95-3,5.95-7.56S360.75,490.94,357.42,490.94Z"/><path class="cls-3" d="M373.76,497.69l4.07-.66c1.64-.25,2.34-.56,2.34-1.54-.07-3.08-1.71-4.62-4.51-4.62s-4.66,1.5-4.87,4.27h-1.61c.21-3.5,2.73-5.67,6.48-5.67,3.92,0,6.19,2.17,6.19,6.16V506.9h-1.57v-3.26h-.11c-1,2.24-3.18,3.61-6.16,3.61-3.5,0-5.46-1.86-5.46-4.62S370.23,498.29,373.76,497.69Zm6.41-.35a3.27,3.27,0,0,1-2.13,1l-4,.63c-2.62.42-3.85,1.61-3.85,3.57s1.4,3.36,4,3.36c3,0,5.91-1.79,5.91-6.23Z"/><path class="cls-3" d="M387.52,489.82h1.57V493h.11a5,5,0,0,1,4.72-3.5,4.48,4.48,0,0,1,2.42.66l-.56,1.51a4.2,4.2,0,0,0-2.17-.56c-2.84,0-4.41,3-4.41,6.4v9.42h-1.68Z"/><path class="cls-3" d="M401.52,491.18H398v-1.36h3.5v-5.18h1.68v5.18h4.87v1.36H403.2v10.89c0,2.52,1,3.39,3.08,3.39h1.79v1.44h-2c-3,0-4.55-1.4-4.55-4.76Z"/><path class="cls-3" d="M411.77,481.28h1.82v3.22h-1.82Zm.07,8.54h1.68V506.9h-1.68Z"/><path class="cls-3" d="M425.77,489.47a6.72,6.72,0,0,1,6.93,5.88H431a5.16,5.16,0,0,0-5.25-4.41c-3.32,0-5.95,3-5.95,7.42s2.49,7.42,5.95,7.42a5.16,5.16,0,0,0,5.25-4.41h1.68a6.72,6.72,0,0,1-6.93,5.88c-4.65,0-7.7-3.54-7.7-8.89S421.47,489.47,425.77,489.47Z"/><path class="cls-3" d="M444,489.47c4.69,0,7.84,3.53,7.84,8.89s-3.43,8.89-7.84,8.89c-4.69,0-7.84-3.54-7.84-8.89S439.56,489.47,444,489.47Zm0,16.31c3.43,0,6.09-3,6.09-7.42s-2.55-7.42-6.09-7.42-6.09,3-6.09,7.42S440.4,505.78,444,505.78Z"/><path class="cls-3" d="M456.36,481.28H458V506.9h-1.68Z"/><path class="cls-3" d="M468,497.69,472,497c1.65-.25,2.35-.56,2.35-1.54-.07-3.08-1.72-4.62-4.52-4.62s-4.65,1.5-4.86,4.27H463.4c.21-3.5,2.73-5.67,6.47-5.67,3.92,0,6.2,2.17,6.2,6.16V506.9h-1.58v-3.26h-.1c-1,2.24-3.19,3.61-6.16,3.61-3.5,0-5.46-1.86-5.46-4.62S464.45,498.29,468,497.69Zm6.41-.35a3.32,3.32,0,0,1-2.14,1l-3.95.63c-2.63.42-3.85,1.61-3.85,3.57s1.4,3.36,4,3.36c3,0,5.92-1.79,5.92-6.23Z"/><path class="cls-3" d="M482,491.18h-3.5v-1.36H482v-5.18h1.68v5.18h4.86v1.36H483.7v10.89c0,2.52,1,3.39,3.08,3.39h1.78v1.44h-2c-3,0-4.55-1.4-4.55-4.76Z"/><path class="cls-3" d="M498.64,489.47c4.69,0,7.84,3.53,7.84,8.89s-3.43,8.89-7.84,8.89c-4.69,0-7.84-3.54-7.84-8.89S494.23,489.47,498.64,489.47Zm0,16.31c3.43,0,6.09-3,6.09-7.42s-2.55-7.42-6.09-7.42-6.09,3-6.09,7.42S495.07,505.78,498.64,505.78Z"/><path class="cls-3" d="M349.86,535.14c0,2.69,2.48,3.78,5,3.78,2.94,0,5-1.23,5-3.64,0-1.93-1.12-2.7-3.43-3.08l-3.22-.56c-2.38-.42-4.66-1.3-4.66-4.27s2.77-4.9,6.34-4.9c3.29,0,6.27,1.47,6.27,4.9h-1.58c0-2.45-2.17-3.57-4.69-3.57s-4.69,1.22-4.69,3.43c0,1.89,1.37,2.59,3.5,3l3.22.56c2.84.49,4.62,1.51,4.62,4.38,0,3.39-2.94,5.11-6.72,5.11s-6.62-1.61-6.62-5.11Z"/><path class="cls-3" d="M372.68,522.47c4.1,0,7.14,3,7.14,8.12v.73h-13v0c0,4.41,2.28,7.42,6,7.42a4.89,4.89,0,0,0,5.18-4.06h1.65a6.56,6.56,0,0,1-6.83,5.53c-4.94,0-7.77-3.54-7.77-8.89S368.38,522.47,372.68,522.47ZM366.87,530h11.24c-.18-4-2.38-6.09-5.43-6.09S367.33,526.32,366.87,530Z"/><path class="cls-3" d="M391.09,522.47a6.73,6.73,0,0,1,6.93,5.88h-1.68a5.16,5.16,0,0,0-5.25-4.41c-3.33,0-5.95,3-5.95,7.42s2.48,7.42,5.95,7.42a5.16,5.16,0,0,0,5.25-4.41H398a6.73,6.73,0,0,1-6.93,5.88c-4.66,0-7.7-3.54-7.7-8.89S386.78,522.47,391.09,522.47Z"/><path class="cls-3" d="M409.29,522.47c4.69,0,7.84,3.53,7.84,8.89s-3.43,8.89-7.84,8.89c-4.69,0-7.84-3.54-7.84-8.89S404.88,522.47,409.29,522.47Zm0,16.31c3.43,0,6.09-3,6.09-7.42s-2.55-7.42-6.09-7.42-6.09,3-6.09,7.42S405.72,538.78,409.29,538.78Z"/><path class="cls-3" d="M421.68,522.82h1.57v3.32h.11a6,6,0,0,1,5.88-3.67c3.39,0,6.09,1.89,6.09,6.86V539.9h-1.68V529.54c0-4.06-1.93-5.6-4.69-5.6-3,0-5.6,2.31-5.6,7v9h-1.68Z"/><path class="cls-3" d="M447.19,522.47a6.28,6.28,0,0,1,6.13,4h.1c-.07-1.12-.1-6-.1-6.61v-5.6H455V539.9h-1.58v-3.71h-.1a6.49,6.49,0,0,1-6.27,4.06c-4.2,0-7.38-3.33-7.38-8.75S443,522.47,447.19,522.47Zm.14,16.31c3.29,0,5.85-2.66,6-7.07V531c-.14-4.41-2.7-7.07-5.95-7.07s-5.95,3-5.95,7.56S444,538.78,447.33,538.78Z"/><path class="cls-3" d="M465,530.69,469,530c1.65-.25,2.35-.56,2.35-1.54-.07-3.08-1.72-4.62-4.52-4.62s-4.65,1.5-4.86,4.27h-1.61c.21-3.5,2.73-5.67,6.47-5.67,3.92,0,6.2,2.17,6.2,6.16V539.9h-1.58v-3.26h-.1c-1,2.24-3.19,3.61-6.16,3.61-3.5,0-5.46-1.86-5.46-4.62S461.44,531.29,465,530.69Zm6.41-.35a3.32,3.32,0,0,1-2.14.95l-3.95.63c-2.63.42-3.85,1.61-3.85,3.57s1.4,3.36,4,3.36c3.05,0,5.92-1.79,5.92-6.23Z"/><path class="cls-3" d="M478.73,522.82h1.57V526h.11a5,5,0,0,1,4.72-3.5,4.48,4.48,0,0,1,2.42.66l-.56,1.51a4.22,4.22,0,0,0-2.17-.56c-2.84,0-4.41,3-4.41,6.4v9.42h-1.68Z"/><path class="cls-3" d="M490.56,514.28h1.82v3.22h-1.82Zm.07,8.54h1.68V539.9h-1.68Z"/><path class="cls-3" d="M504.7,522.47c4.69,0,7.84,3.53,7.84,8.89s-3.43,8.89-7.84,8.89c-4.69,0-7.84-3.54-7.84-8.89S500.29,522.47,504.7,522.47Zm0,16.31c3.43,0,6.09-3,6.09-7.42s-2.56-7.42-6.09-7.42-6.09,3-6.09,7.42S501.13,538.78,504.7,538.78Z"/><text class="cls-4" transform="translate(348.28 741.9)">pa<tspan class="cls-5" x="37.73" y="0">r</tspan><tspan x="51.31" y="0">ti</tspan><tspan class="cls-6" x="69.61" y="0">c</tspan><tspan x="87.67" y="0">ol</tspan><tspan class="cls-7" x="114.1" y="0">a</tspan><tspan class="cls-8" x="131.81" y="0">t</tspan><tspan x="142.34" y="0">o</tspan><tspan x="0" y="33">primario</tspan></text></g></svg>