<svg xmlns="http://www.w3.org/2000/svg" viewBox="0 0 720 900"><defs><style>.cls-1{fill:#fe5000;}.cls-2{fill:#fff;}.cls-3{isolation:isolate;}</style></defs><g id="Livello_2" data-name="Livello 2"><rect class="cls-1" x="115.42" y="313.09" width="568.2" height="72.54"/><rect class="cls-1" x="115.42" y="415.85" width="241.79" height="72.54"/><rect class="cls-1" x="115.42" y="514.37" width="304.65" height="72.54"/><rect class="cls-1" x="115.42" y="617.13" width="45.94" height="72.54"/><rect class="cls-1" x="115.42" y="210.33" width="7.25" height="72.54"/><path class="cls-2" d="M128.46,658.94a3.88,3.88,0,0,1-2.64-.88,3.26,3.26,0,0,1-1.14-2.29h1.44a2,2,0,0,0,.51,1.53,2.81,2.81,0,0,0,1.83.45q2.28,0,2.28-1.44v-.61c0-.75-.64-1.13-1.93-1.13h-.2v-.76h-1.9V652.7h1.9v-.83h.32a2.11,2.11,0,0,0,1.18-.22.93.93,0,0,0,.28-.77v-.45a1.27,1.27,0,0,0-.42-1,2.35,2.35,0,0,0-1.54-.38,2.29,2.29,0,0,0-1.6.43,1.9,1.9,0,0,0-.44,1.41H125a3.23,3.23,0,0,1,1.11-2.14,3.39,3.39,0,0,1,2.34-.87,3.71,3.71,0,0,1,2.5.79,2.46,2.46,0,0,1,.92,1.91,2.21,2.21,0,0,1-.6,1.51,2.13,2.13,0,0,1-1.29.75v.75a2.8,2.8,0,0,1,1.56.76,2,2,0,0,1,.67,1.54,2.66,2.66,0,0,1-1.1,2.18A4.06,4.06,0,0,1,128.46,658.94Z"/><path class="cls-2" d="M138.22,658.94a4.43,4.43,0,0,1-2.74-.81,2.48,2.48,0,0,1-1.08-2.06,2.39,2.39,0,0,1,.52-1.54,2.81,2.81,0,0,1,1.35-.95v-.75a2.63,2.63,0,0,1-1.11-.92,2.28,2.28,0,0,1-.43-1.37,2.3,2.3,0,0,1,1-1.91,4.51,4.51,0,0,1,5,0,2.34,2.34,0,0,1,.55,3.28,2.72,2.72,0,0,1-1.12.92v.75a2.83,2.83,0,0,1,1.36,1,2.39,2.39,0,0,1,.53,1.53,2.49,2.49,0,0,1-1.07,2.06A4.46,4.46,0,0,1,138.22,658.94Zm-1.81-1.5a5.47,5.47,0,0,0,3.63,0,1.08,1.08,0,0,0,.57-1v-.53q0-1.17-1.77-1.32v-.76H137.6v.76c-1.17.09-1.76.53-1.76,1.32v.53A1.08,1.08,0,0,0,136.41,657.44Zm1.19-4.74h1.24v-.84c.95-.11,1.42-.46,1.42-1v-.48a1.08,1.08,0,0,0-.48-1,3,3,0,0,0-1.56-.31,3,3,0,0,0-1.55.31,1.08,1.08,0,0,0-.49,1v.48c0,.61.47,1,1.42,1Z"/><path class="cls-2" d="M151,657.4a3.6,3.6,0,0,1-5.9,0,7.77,7.77,0,0,1,0-8,3.58,3.58,0,0,1,5.88,0,7.77,7.77,0,0,1,0,8Zm-4.91-.39a3,3,0,0,0,3.92,0,3.78,3.78,0,0,0,.6-2.38V652.2a3.86,3.86,0,0,0-.6-2.41,2.94,2.94,0,0,0-3.92,0,3.85,3.85,0,0,0-.61,2.41v2.43A3.77,3.77,0,0,0,146.09,657Z"/><path d="M37.92,647.14c0,.81.83,1.14,1.62,1.14,1.13,0,1.68-.39,1.68-1.06s-.37-.77-1.11-.89l-1.35-.24c-1.12-.18-2.2-.63-2.2-2s1.33-2.34,3.06-2.34,3,.69,3,2.22H41.13c0-.72-.64-1.08-1.51-1.08s-1.5.36-1.5,1,.34.75,1.21.91l1.35.22c1.16.2,2.16.64,2.16,2,0,1.61-1.35,2.4-3.3,2.4s-3.16-.75-3.16-2.28Z"/><path d="M44.78,643.18H43.4v-1.26h1.38V639.7H46.4v2.22h1.87v1.26H46.4v3.63c0,.78.27,1.08,1,1.08h.85v1.35H47.15c-1.68,0-2.37-.71-2.37-2.34Z"/><path d="M49.68,641.92H51.3v4.23c0,1.46.63,2,1.56,2s1.79-.88,1.79-2.4v-3.78h1.62v7.32H54.72v-1.07h-.06a2.29,2.29,0,0,1-2.22,1.25c-1.47,0-2.76-.78-2.76-3.06Z"/><path d="M58.79,643.18H57.41v-1.26h1.38v-1c0-1.76.81-2.63,2.64-2.63h1v1.32h-.76c-.93,0-1.23.42-1.23,1.31v1h1.75v1.26H60.41v6.06H58.79Z"/><path d="M65.1,645.13l1.43-.24c.72-.12.94-.21.94-.49A1.28,1.28,0,0,0,66,643a1.36,1.36,0,0,0-1.54,1.29H62.94c.09-1.52,1.26-2.51,3.09-2.51,2.06,0,3.06,1,3.06,2.68v4.82H67.55v-.92h-.08a2.59,2.59,0,0,1-2.34,1.1c-1.6,0-2.47-.83-2.47-2.06S63.38,645.42,65.1,645.13Zm2.37.44a1.2,1.2,0,0,1-.75.34l-1.26.21c-.85.14-1.18.51-1.18,1.08s.42,1,1.24,1a1.84,1.84,0,0,0,2-2Z"/><path d="M38.94,661.13l1.43-.24c.72-.12.94-.21.94-.49A1.28,1.28,0,0,0,39.87,659a1.36,1.36,0,0,0-1.54,1.29H36.78c.09-1.52,1.26-2.51,3.09-2.51,2.06,0,3.06,1,3.06,2.68v4.82H41.39v-.92h-.08a2.59,2.59,0,0,1-2.34,1.1c-1.6,0-2.47-.83-2.47-2.06S37.22,661.42,38.94,661.13Zm2.37.44a1.2,1.2,0,0,1-.75.34l-1.26.21c-.85.14-1.18.51-1.18,1.08s.42,1,1.24,1a1.84,1.84,0,0,0,2-2Z"/><path d="M50,668.54H48.33V657.92h1.56V659H50a2.53,2.53,0,0,1,2.43-1.28c1.85,0,3.27,1.35,3.27,3.78s-1.51,3.9-3.39,3.9A2.38,2.38,0,0,1,50,664.15h-.06c.06,1,.06,2,.06,2.45Zm2-9.49c-1.11,0-2,.88-2,2.41v.12c0,1.61.87,2.53,2,2.53s2-1,2-2.59S53.12,659.05,52,659.05Z"/><path d="M60.54,657.74A3.24,3.24,0,0,1,64,661.31v.54H58.58c.09,1.43.85,2.3,2,2.3A1.59,1.59,0,0,0,62.3,663h1.59a3.12,3.12,0,0,1-3.3,2.4c-2.34,0-3.68-1.43-3.68-3.83A3.57,3.57,0,0,1,60.54,657.74Zm-1.89,3h3.66c-.13-1.22-.75-1.76-1.77-1.76A2,2,0,0,0,58.65,660.76Z"/><path d="M65.6,654.26h1.62v11H65.6Z"/><path d="M69.42,654.26H71v11H69.42Z"/><path d="M76.35,657.74a3.24,3.24,0,0,1,3.42,3.57v.54H74.39c.09,1.43.85,2.3,2,2.3a1.59,1.59,0,0,0,1.7-1.13H79.7a3.12,3.12,0,0,1-3.3,2.4c-2.34,0-3.68-1.43-3.68-3.83A3.57,3.57,0,0,1,76.35,657.74Zm-1.89,3h3.66c-.13-1.22-.75-1.76-1.77-1.76A2,2,0,0,0,74.46,660.76Z"/><path d="M81.74,659.18H80.36v-1.26h1.38V655.7h1.62v2.22h1.87v1.26H83.36v3.63c0,.78.27,1.08,1,1.08h.85v1.35H84.11c-1.68,0-2.37-.71-2.37-2.34Z"/><path d="M37.92,544.32c0,.81.83,1.14,1.62,1.14,1.13,0,1.68-.39,1.68-1.07s-.37-.76-1.11-.88l-1.35-.24c-1.12-.18-2.2-.63-2.2-2s1.33-2.34,3.06-2.34,3,.69,3,2.22H41.13c0-.72-.64-1.08-1.51-1.08s-1.5.36-1.5,1,.34.75,1.21.91l1.35.22c1.16.2,2.16.64,2.16,2,0,1.61-1.35,2.4-3.3,2.4s-3.16-.75-3.16-2.28Z"/><path d="M44.78,540.36H43.4V539.1h1.38v-2.22H46.4v2.22h1.87v1.26H46.4V544c0,.78.27,1.08,1,1.08h.85v1.35H47.15c-1.68,0-2.37-.71-2.37-2.34Z"/><path d="M49.68,539.1H51.3v4.23c0,1.46.63,1.95,1.56,1.95s1.79-.89,1.79-2.4V539.1h1.62v7.32H54.72v-1.07h-.06a2.29,2.29,0,0,1-2.22,1.25c-1.47,0-2.76-.78-2.76-3.06Z"/><path d="M58.79,540.36H57.41V539.1h1.38v-1c0-1.76.81-2.63,2.64-2.63h1v1.32h-.76c-.93,0-1.23.42-1.23,1.31v1h1.75v1.26H60.41v6.06H58.79Z"/><path d="M65.1,542.31l1.43-.24c.72-.12.94-.21.94-.49A1.28,1.28,0,0,0,66,540.14a1.36,1.36,0,0,0-1.54,1.29H62.94c.09-1.52,1.26-2.51,3.09-2.51,2.06,0,3.06,1,3.06,2.68v4.82H67.55v-.92h-.08a2.59,2.59,0,0,1-2.34,1.1c-1.6,0-2.47-.83-2.47-2.06S63.38,542.6,65.1,542.31Zm2.37.44a1.2,1.2,0,0,1-.75.34l-1.26.21c-.85.13-1.18.51-1.18,1.08s.42,1,1.24,1a1.84,1.84,0,0,0,2-2Z"/><path d="M38.94,558.31l1.43-.24c.72-.12.94-.21.94-.49a1.28,1.28,0,0,0-1.44-1.44,1.36,1.36,0,0,0-1.54,1.29H36.78c.09-1.52,1.26-2.51,3.09-2.51,2.06,0,3.06,1,3.06,2.68v4.82H41.39v-.92h-.08A2.59,2.59,0,0,1,39,562.6c-1.6,0-2.47-.83-2.47-2.06S37.22,558.6,38.94,558.31Zm2.37.44a1.2,1.2,0,0,1-.75.34l-1.26.21c-.85.13-1.18.51-1.18,1.08s.42,1,1.24,1a1.84,1.84,0,0,0,2-2Z"/><path d="M48.33,551.44H50v11H48.33Z"/><path d="M55.26,554.92a3.24,3.24,0,0,1,3.42,3.57V559H53.3c.09,1.42.85,2.3,2,2.3A1.59,1.59,0,0,0,57,560.2h1.59a3.12,3.12,0,0,1-3.3,2.4c-2.34,0-3.68-1.43-3.68-3.83A3.57,3.57,0,0,1,55.26,554.92Zm-1.89,3H57c-.13-1.21-.75-1.75-1.77-1.75A2,2,0,0,0,53.37,557.93Z"/><path d="M61.7,563.32c0,.81.78,1.3,1.84,1.3,1.31,0,2.19-.66,2.19-2.58v-.71h-.06a2.54,2.54,0,0,1-2.43,1.27c-1.84,0-3.27-1.35-3.27-3.78s1.52-3.9,3.39-3.9a2.37,2.37,0,0,1,2.31,1.28h.06v-1.1h1.55V562c0,2.76-1.59,3.8-3.74,3.8-1.95,0-3.34-.84-3.37-2.52Zm1.95-2c1.15,0,2-.92,2-2.53v-.12c0-1.53-.89-2.41-2-2.41s-2,1-2,2.59S62.51,561.29,63.65,561.29Z"/><path d="M69.48,555.1H71v1.06h.06a2.35,2.35,0,0,1,2.27-1.24c1.45,0,2.74.78,2.74,3.06v4.44H74.49v-4.23c0-1.45-.61-2-1.56-2s-1.83.88-1.83,2.36v3.82H69.48Z"/><path d="M80.22,558.31l1.43-.24c.72-.12.94-.21.94-.49a1.28,1.28,0,0,0-1.44-1.44,1.36,1.36,0,0,0-1.54,1.29H78.06c.09-1.52,1.26-2.51,3.09-2.51,2.06,0,3.06,1,3.06,2.68v4.82H82.67v-.92h-.08a2.59,2.59,0,0,1-2.34,1.1c-1.6,0-2.47-.83-2.47-2.06S78.5,558.6,80.22,558.31Zm2.37.44a1.2,1.2,0,0,1-.75.34l-1.26.21c-.85.13-1.18.51-1.18,1.08s.42,1,1.24,1a1.84,1.84,0,0,0,2-2Z"/><g class="cls-3"><path d="M577.23,673.55v-1.08h7.66v1.08Zm0,2.72V675.2h7.66v1.07Z"/></g><rect class="cls-1" x="493.06" y="673.42" width="72.54" height="2.06"/><path d="M525.87,669.16v-1.28H529v-8.22h-2.81v-1.27h4.13v9.49h3.15v1.28Z"/><path d="M606.69,662.87a3,3,0,0,1,3.33,2.68h-1.61a1.6,1.6,0,0,0-1.72-1.38c-1.14,0-2,1-2,2.54s.83,2.53,2,2.53a1.59,1.59,0,0,0,1.72-1.38H610a3,3,0,0,1-3.33,2.69c-2.25,0-3.65-1.44-3.65-3.84A3.54,3.54,0,0,1,606.69,662.87Z"/><path d="M613.72,666.26l1.43-.24c.72-.12.94-.21.94-.5a1.28,1.28,0,0,0-1.44-1.44,1.37,1.37,0,0,0-1.54,1.29h-1.55c.09-1.51,1.26-2.5,3.09-2.5,2.06,0,3.06,1,3.06,2.68v4.82h-1.54v-.92h-.08a2.59,2.59,0,0,1-2.34,1.1c-1.6,0-2.47-.83-2.47-2.06S612,666.54,613.72,666.26Zm2.37.43a1.2,1.2,0,0,1-.75.35l-1.26.21c-.85.13-1.18.51-1.18,1.08s.42,1,1.24,1a1.84,1.84,0,0,0,2-2Z"/><path d="M619.81,659.39h1.62v11h-1.62Z"/><path d="M626.52,662.87a2.38,2.38,0,0,1,2.31,1.27h.06c-.08-1-.08-2-.08-2.46v-2.29h1.62v11h-1.54v-1.1h-.06a2.53,2.53,0,0,1-2.43,1.28c-1.85,0-3.27-1.35-3.27-3.78S624.64,662.87,626.52,662.87Zm.28,6.37c1.16,0,2-.93,2-2.53s-.85-2.54-2-2.54-2,1-2,2.6S625.66,669.24,626.8,669.24Z"/><path d="M634.66,666.26l1.43-.24c.72-.12.94-.21.94-.5a1.28,1.28,0,0,0-1.44-1.44,1.37,1.37,0,0,0-1.54,1.29H632.5c.09-1.51,1.26-2.5,3.09-2.5,2.06,0,3.06,1,3.06,2.68v4.82h-1.54v-.92H637a2.59,2.59,0,0,1-2.34,1.1c-1.6,0-2.47-.83-2.47-2.06S632.94,666.54,634.66,666.26Zm2.37.43a1.2,1.2,0,0,1-.75.35l-1.26.21c-.85.13-1.18.51-1.18,1.08s.42,1,1.24,1a1.84,1.84,0,0,0,1.95-2Z"/><path d="M640.69,659.39h1.74V661h-1.74Zm.06,3.66h1.62v7.32h-1.62Z"/><path d="M646.6,666.26,648,666c.72-.12.94-.21.94-.5a1.28,1.28,0,0,0-1.44-1.44,1.37,1.37,0,0,0-1.54,1.29h-1.55c.09-1.51,1.26-2.5,3.09-2.5,2.06,0,3.06,1,3.06,2.68v4.82h-1.54v-.92H649a2.59,2.59,0,0,1-2.34,1.1c-1.6,0-2.47-.83-2.47-2.06S644.88,666.54,646.6,666.26Zm2.37.43a1.2,1.2,0,0,1-.75.35l-1.26.21c-.85.13-1.18.51-1.18,1.08s.42,1,1.24,1a1.84,1.84,0,0,0,2-2Z"/><path d="M658,666.26l1.42-.24c.72-.12.95-.21.95-.5a1.29,1.29,0,0,0-1.44-1.44,1.37,1.37,0,0,0-1.55,1.29h-1.54c.09-1.51,1.26-2.5,3.09-2.5,2,0,3.06,1,3.06,2.68v4.82h-1.55v-.92h-.07a2.62,2.62,0,0,1-2.34,1.1c-1.61,0-2.48-.83-2.48-2.06S656.29,666.54,658,666.26Zm2.37.43a1.23,1.23,0,0,1-.75.35l-1.26.21c-.86.13-1.19.51-1.19,1.08s.42,1,1.25,1a1.84,1.84,0,0,0,1.95-2Z"/><path d="M603.57,679.05h1.56v1.06h.06a2.32,2.32,0,0,1,2.22-1.24,2.29,2.29,0,0,1,2.32,1.45,2.5,2.5,0,0,1,2.46-1.45c1.43,0,2.6.78,2.6,3v4.53h-1.62V682c0-1.36-.48-1.84-1.41-1.84s-1.77.87-1.77,2.32v3.86h-1.62V682c0-1.36-.53-1.84-1.41-1.84s-1.77.87-1.77,2.34v3.84h-1.62Z"/><path d="M620,678.87a3.24,3.24,0,0,1,3.42,3.57V683H618c.09,1.42.86,2.29,2,2.29a1.58,1.58,0,0,0,1.69-1.12h1.59a3.11,3.11,0,0,1-3.3,2.4c-2.34,0-3.67-1.43-3.67-3.83A3.57,3.57,0,0,1,620,678.87Zm-1.89,3h3.66c-.14-1.21-.75-1.75-1.77-1.75A1.93,1.93,0,0,0,618.09,681.88Z"/><path d="M625.36,680.31H624v-1.26h1.38v-2.22H627v2.22h1.88v1.26H627v3.63c0,.78.27,1.08,1,1.08h.86v1.35h-1.13c-1.68,0-2.37-.71-2.37-2.34Z"/><path d="M632.49,682.26l1.42-.24c.72-.12,1-.21,1-.5a1.29,1.29,0,0,0-1.44-1.44,1.37,1.37,0,0,0-1.55,1.29h-1.54c.09-1.51,1.26-2.5,3.09-2.5,2.05,0,3.06,1,3.06,2.68v4.82h-1.55v-.92h-.07a2.62,2.62,0,0,1-2.34,1.1c-1.61,0-2.48-.83-2.48-2.06S630.76,682.54,632.49,682.26Zm2.37.43a1.23,1.23,0,0,1-.75.35l-1.26.21c-.86.13-1.19.51-1.19,1.08s.42,1,1.25,1a1.84,1.84,0,0,0,2-2Z"/><path d="M638.58,679.05h1.56v1.06h.06a2.35,2.35,0,0,1,2.26-1.24c1.46,0,2.75.78,2.75,3.06v4.44h-1.62v-4.23c0-1.46-.62-1.95-1.56-1.95s-1.83.88-1.83,2.35v3.83h-1.62Z"/><path d="M650.52,678.87a3.51,3.51,0,0,1,3.73,3.84,3.58,3.58,0,0,1-3.73,3.84,3.53,3.53,0,0,1-3.74-3.84A3.59,3.59,0,0,1,650.52,678.87Zm0,6.37c1.23,0,2.05-1,2.05-2.53s-.82-2.54-2.05-2.54-2.06,1-2.06,2.54S649.29,685.24,650.52,685.24Z"/><path d="M659.56,675.87H661l-4.62,10.68h-1.4Z"/><path d="M669.48,685h-.05a3.59,3.59,0,0,1-3.27,1.55,5.34,5.34,0,0,1,.09-10.68,4.32,4.32,0,0,1,4.56,3.28h-1.72a2.7,2.7,0,0,0-2.84-1.78c-2.08,0-3.43,1.59-3.43,3.84s1.38,3.84,3.39,3.84c1.68,0,3.07-1,3.07-2.66v-.18h-3v-1.36h4.55v5.52h-1.1Z"/><path d="M674.62,689.67H673V679.05h1.56v1.09h.06a2.54,2.54,0,0,1,2.43-1.27c1.85,0,3.27,1.35,3.27,3.78s-1.51,3.9-3.39,3.9a2.37,2.37,0,0,1-2.31-1.28h-.06c.06,1,.06,2,.06,2.46Zm2-9.5c-1.11,0-2,.89-2,2.42v.12c0,1.6.87,2.53,2,2.53s2-1,2-2.59S677.79,680.17,676.63,680.17Z"/><path d="M682,675.39h1.62v11H682Z"/><path d="M40,442a3,3,0,0,1,3.33,2.68h-1.6A1.61,1.61,0,0,0,40,443.32c-1.14,0-2,1-2,2.54s.82,2.53,2,2.53A1.6,1.6,0,0,0,41.75,447h1.6A3,3,0,0,1,40,449.7c-2.25,0-3.64-1.44-3.64-3.84A3.54,3.54,0,0,1,40,442Z"/><path d="M47.06,445.41l1.42-.24c.72-.12,1-.21,1-.5A1.29,1.29,0,0,0,48,443.23a1.37,1.37,0,0,0-1.55,1.3H44.9C45,443,46.16,442,48,442c2,0,3.06,1,3.06,2.68v4.82H49.5v-.92h-.07a2.62,2.62,0,0,1-2.34,1.1c-1.61,0-2.48-.83-2.48-2.06S45.33,445.69,47.06,445.41Zm2.37.43a1.18,1.18,0,0,1-.75.35l-1.26.21c-.86.13-1.19.51-1.19,1.08s.42,1,1.25,1a1.84,1.84,0,0,0,2-2Z"/><path d="M53.15,442.2h1.56v1.06h.06A2.32,2.32,0,0,1,57,442a2.29,2.29,0,0,1,2.32,1.45A2.5,2.5,0,0,1,61.77,442c1.43,0,2.6.78,2.6,3v4.53H62.75v-4.34c0-1.36-.48-1.84-1.41-1.84s-1.77.87-1.77,2.32v3.86H58v-4.34c0-1.36-.53-1.84-1.41-1.84s-1.77.87-1.77,2.34v3.84H53.15Z"/><path d="M66.39,438.54h1.74v1.65H66.39Zm.06,3.66h1.62v7.32H66.45Z"/><path d="M70.28,442.2h1.56v1.06h.06A2.35,2.35,0,0,1,74.16,442c1.46,0,2.75.78,2.75,3.06v4.44H75.29v-4.23c0-1.45-.62-2-1.56-2s-1.83.88-1.83,2.35v3.83H70.28Z"/><path d="M82.1,442a3.24,3.24,0,0,1,3.42,3.57v.54H80.13c.09,1.42.86,2.29,2,2.29a1.58,1.58,0,0,0,1.69-1.12h1.59a3.11,3.11,0,0,1-3.3,2.4c-2.34,0-3.67-1.43-3.67-3.83A3.57,3.57,0,0,1,82.1,442Zm-1.89,3h3.66c-.14-1.21-.75-1.75-1.77-1.75A1.93,1.93,0,0,0,80.21,445Z"/><path d="M87.48,443.46H86.1V442.2h1.38V440H89.1v2.22H91v1.26H89.1v3.63c0,.78.27,1.08,1,1.08H91v1.35H89.85c-1.68,0-2.37-.71-2.37-2.34Z"/><path d="M92.66,443.46H91.28V442.2h1.38V440h1.62v2.22h1.87v1.26H94.28v3.63c0,.78.27,1.08,1,1.08h.85v1.35H95c-1.68,0-2.37-.71-2.37-2.34Z"/><path d="M100.83,442a3.52,3.52,0,0,1,3.74,3.84,3.58,3.58,0,0,1-3.74,3.84,3.53,3.53,0,0,1-3.73-3.84A3.58,3.58,0,0,1,100.83,442Zm0,6.37c1.23,0,2.06-1,2.06-2.53s-.83-2.54-2.06-2.54-2,1-2,2.54S99.6,448.39,100.83,448.39Z"/><path d="M40,458a3,3,0,0,1,3.33,2.68h-1.6A1.61,1.61,0,0,0,40,459.32c-1.14,0-2,1-2,2.54s.82,2.53,2,2.53A1.6,1.6,0,0,0,41.75,463h1.6A3,3,0,0,1,40,465.7c-2.25,0-3.64-1.44-3.64-3.84A3.54,3.54,0,0,1,40,458Z"/><path d="M44.91,454.54h1.62v2.26c0,.5,0,1.5-.06,2.46h.06A2.35,2.35,0,0,1,48.8,458c1.45,0,2.74.78,2.74,3.06v4.44H49.92v-4.23c0-1.45-.61-2-1.56-2s-1.83.93-1.83,2.37v3.81H44.91Z"/><path d="M53.57,454.54h1.74v1.65H53.57Zm.06,3.66h1.62v7.32H53.63Z"/><path d="M57.33,458.2H59v4.23c0,1.45.63,1.95,1.56,1.95s1.79-.89,1.79-2.4V458.2h1.62v7.32H62.37v-1.07h-.06a2.29,2.29,0,0,1-2.22,1.25c-1.47,0-2.76-.78-2.76-3.06Z"/><path d="M67.11,463.42c0,.81.83,1.14,1.62,1.14,1.13,0,1.68-.39,1.68-1.07s-.37-.76-1.11-.88L68,462.37c-1.12-.18-2.2-.63-2.2-2S67.08,458,68.81,458s3,.69,3,2.22H70.32c0-.72-.64-1.08-1.51-1.08s-1.5.36-1.5,1,.34.75,1.21.91l1.35.22c1.16.19,2.16.64,2.16,2,0,1.6-1.35,2.4-3.3,2.4s-3.16-.75-3.16-2.28Z"/><path d="M77,458a3.51,3.51,0,0,1,3.73,3.84A3.58,3.58,0,0,1,77,465.7a3.53,3.53,0,0,1-3.74-3.84A3.59,3.59,0,0,1,77,458Zm0,6.37c1.23,0,2-1,2-2.53s-.82-2.54-2-2.54-2.06,1-2.06,2.54S75.74,464.39,77,464.39Z"/><path d="M40,337.7a3,3,0,0,1,3.33,2.68h-1.6A1.61,1.61,0,0,0,40,339c-1.14,0-2,1-2,2.54s.82,2.53,2,2.53a1.6,1.6,0,0,0,1.73-1.38h1.6A3,3,0,0,1,40,345.38c-2.25,0-3.64-1.44-3.64-3.84A3.54,3.54,0,0,1,40,337.7Z"/><path d="M47.06,341.09l1.42-.24c.72-.12,1-.21,1-.49A1.28,1.28,0,0,0,48,338.92a1.36,1.36,0,0,0-1.55,1.29H44.9c.09-1.52,1.26-2.51,3.09-2.51,2,0,3.06,1,3.06,2.68v4.82H49.5v-.92h-.07a2.62,2.62,0,0,1-2.34,1.1c-1.61,0-2.48-.83-2.48-2.06S45.33,341.38,47.06,341.09Zm2.37.43a1.18,1.18,0,0,1-.75.35l-1.26.21c-.86.13-1.19.51-1.19,1.08s.42,1,1.25,1a1.84,1.84,0,0,0,2-2Z"/><path d="M53.15,337.88h1.56v1.06h.06a2.59,2.59,0,0,1,4.54.21,2.52,2.52,0,0,1,2.46-1.45c1.43,0,2.6.78,2.6,3v4.53H62.75v-4.34c0-1.36-.48-1.84-1.41-1.84s-1.77.87-1.77,2.32v3.86H58v-4.34c0-1.36-.53-1.84-1.41-1.84s-1.77.87-1.77,2.34v3.84H53.15Z"/><path d="M66.39,334.22h1.74v1.65H66.39Zm.06,3.66h1.62v7.32H66.45Z"/><path d="M70.28,337.88h1.56v1.06h.06a2.35,2.35,0,0,1,2.26-1.24c1.46,0,2.75.78,2.75,3.06v4.44H75.29V341c0-1.45-.62-2-1.56-2s-1.83.88-1.83,2.36v3.82H70.28Z"/><path d="M82.1,337.7a3.24,3.24,0,0,1,3.42,3.57v.54H80.13c.09,1.42.86,2.3,2,2.3A1.59,1.59,0,0,0,83.85,343h1.59a3.11,3.11,0,0,1-3.3,2.4c-2.34,0-3.67-1.43-3.67-3.83A3.57,3.57,0,0,1,82.1,337.7Zm-1.89,3h3.66c-.14-1.21-.75-1.75-1.77-1.75A1.94,1.94,0,0,0,80.21,340.71Z"/><path d="M87.48,339.14H86.1v-1.26h1.38v-2.22H89.1v2.22H91v1.26H89.1v3.63c0,.78.27,1.08,1,1.08H91v1.35H89.85c-1.68,0-2.37-.71-2.37-2.34Z"/><path d="M92.66,339.14H91.28v-1.26h1.38v-2.22h1.62v2.22h1.87v1.26H94.28v3.63c0,.78.27,1.08,1,1.08h.85v1.35H95c-1.68,0-2.37-.71-2.37-2.34Z"/><path d="M100.83,337.7a3.52,3.52,0,0,1,3.74,3.84,3.58,3.58,0,0,1-3.74,3.84,3.53,3.53,0,0,1-3.73-3.84A3.58,3.58,0,0,1,100.83,337.7Zm0,6.37c1.23,0,2.06-1,2.06-2.53s-.83-2.54-2.06-2.54-2,1-2,2.54S99.6,344.07,100.83,344.07Z"/><path d="M38.93,357.09l1.42-.24c.72-.12.95-.21.95-.49a1.28,1.28,0,0,0-1.44-1.44,1.36,1.36,0,0,0-1.55,1.29H36.77c.09-1.52,1.26-2.51,3.09-2.51,2,0,3.06,1,3.06,2.68v4.82H41.37v-.92H41.3a2.62,2.62,0,0,1-2.34,1.1c-1.61,0-2.48-.83-2.48-2.06S37.2,357.38,38.93,357.09Zm2.37.43a1.18,1.18,0,0,1-.75.35l-1.26.21c-.86.13-1.19.51-1.19,1.08s.42,1,1.25,1a1.84,1.84,0,0,0,1.95-2Z"/><path d="M46.64,364.5H45V353.88h1.56V355h.06a2.53,2.53,0,0,1,2.43-1.28c1.84,0,3.27,1.35,3.27,3.78s-1.52,3.9-3.39,3.9a2.38,2.38,0,0,1-2.31-1.27h-.06c.06,1,.06,2,.06,2.45Zm2-9.5c-1.11,0-2,.89-2,2.42v.12c0,1.61.87,2.53,2,2.53s2-1,2-2.59S49.8,355,48.65,355Z"/><path d="M57.23,353.7a3.24,3.24,0,0,1,3.42,3.57v.54H55.26c.09,1.42.86,2.3,2,2.3A1.59,1.59,0,0,0,59,359h1.59a3.11,3.11,0,0,1-3.3,2.4c-2.34,0-3.67-1.43-3.67-3.83A3.57,3.57,0,0,1,57.23,353.7Zm-1.89,3H59c-.14-1.21-.75-1.75-1.77-1.75A1.94,1.94,0,0,0,55.34,356.71Z"/><path d="M62.28,353.88h1.56v1.06h0a2,2,0,0,1,1.93-1.24,1.74,1.74,0,0,1,1,.3l-.42,1.44a1.9,1.9,0,0,0-.9-.24c-1.09,0-1.62,1.07-1.62,2.34v3.66H62.28Z"/><path d="M68.81,355.14H67.43v-1.26h1.38v-2.22h1.62v2.22H72.3v1.26H70.43v3.63c0,.78.27,1.08,1,1.08h.85v1.35H71.18c-1.68,0-2.37-.71-2.37-2.34Z"/><path d="M77,353.7a3.52,3.52,0,0,1,3.74,3.84A3.58,3.58,0,0,1,77,361.38a3.53,3.53,0,0,1-3.73-3.84A3.58,3.58,0,0,1,77,353.7Zm0,6.37c1.23,0,2.06-1,2.06-2.53S78.21,355,77,355s-2,1-2,2.54S75.75,360.07,77,360.07Z"/><path d="M40,234.88a3,3,0,0,1,3.33,2.68h-1.6A1.61,1.61,0,0,0,40,236.18c-1.14,0-2,1-2,2.54s.82,2.53,2,2.53a1.6,1.6,0,0,0,1.73-1.38h1.6A3,3,0,0,1,40,242.56c-2.25,0-3.64-1.44-3.64-3.84A3.54,3.54,0,0,1,40,234.88Z"/><path d="M47.06,238.27l1.42-.24c.72-.12,1-.21,1-.5A1.28,1.28,0,0,0,48,236.1a1.36,1.36,0,0,0-1.55,1.29H44.9c.09-1.52,1.26-2.51,3.09-2.51,2,0,3.06,1,3.06,2.68v4.82H49.5v-.92h-.07a2.62,2.62,0,0,1-2.34,1.1c-1.61,0-2.48-.83-2.48-2.06S45.33,238.56,47.06,238.27Zm2.37.43a1.18,1.18,0,0,1-.75.35l-1.26.21c-.86.13-1.19.51-1.19,1.08s.42,1,1.25,1a1.84,1.84,0,0,0,2-2Z"/><path d="M53.15,231.4h1.62v11H53.15Z"/><path d="M59.85,234.88a2.37,2.37,0,0,1,2.31,1.28h.06c-.07-1-.07-2-.07-2.46v-2.3h1.62v11H62.22v-1.1h-.06a2.53,2.53,0,0,1-2.43,1.28c-1.84,0-3.27-1.35-3.27-3.78S58,234.88,59.85,234.88Zm.29,6.37c1.15,0,2-.92,2-2.53s-.86-2.54-2-2.54-2,1-2,2.6S59,241.25,60.14,241.25Z"/><path d="M68,238.27l1.42-.24c.72-.12,1-.21,1-.5a1.28,1.28,0,0,0-1.44-1.43,1.36,1.36,0,0,0-1.55,1.29H65.84c.09-1.52,1.26-2.51,3.09-2.51,2,0,3.06,1,3.06,2.68v4.82H70.44v-.92h-.07a2.62,2.62,0,0,1-2.34,1.1c-1.61,0-2.48-.83-2.48-2.06S66.27,238.56,68,238.27Zm2.37.43a1.18,1.18,0,0,1-.75.35l-1.26.21c-.86.13-1.19.51-1.19,1.08s.42,1,1.25,1a1.84,1.84,0,0,0,2-2Z"/><path d="M74,231.4h1.74v1.65H74Zm.06,3.66h1.62v7.32H74.09Z"/><path d="M79.94,238.27l1.42-.24c.72-.12,1-.21,1-.5a1.28,1.28,0,0,0-1.44-1.43,1.36,1.36,0,0,0-1.55,1.29H77.78c.09-1.52,1.26-2.51,3.09-2.51,2,0,3.06,1,3.06,2.68v4.82H82.38v-.92h-.07a2.62,2.62,0,0,1-2.34,1.1c-1.61,0-2.48-.83-2.48-2.06S78.21,238.56,79.94,238.27Zm2.37.43a1.18,1.18,0,0,1-.75.35l-1.26.21c-.86.13-1.19.51-1.19,1.08s.42,1,1.25,1a1.84,1.84,0,0,0,2-2Z"/><path d="M38.93,254.27l1.42-.24c.72-.12.95-.21.95-.5a1.28,1.28,0,0,0-1.44-1.43,1.36,1.36,0,0,0-1.55,1.29H36.77c.09-1.52,1.26-2.51,3.09-2.51,2,0,3.06,1,3.06,2.68v4.82H41.37v-.92H41.3a2.62,2.62,0,0,1-2.34,1.1c-1.61,0-2.48-.83-2.48-2.06S37.2,254.56,38.93,254.27Zm2.37.43a1.18,1.18,0,0,1-.75.35l-1.26.21c-.86.13-1.19.51-1.19,1.08s.42,1,1.25,1a1.84,1.84,0,0,0,1.95-2Z"/><path d="M49.53,259.28c0,.81.78,1.3,1.85,1.3,1.3,0,2.19-.66,2.19-2.58v-.72h-.06a2.53,2.53,0,0,1-2.43,1.28c-1.85,0-3.27-1.35-3.27-3.78s1.51-3.9,3.39-3.9a2.37,2.37,0,0,1,2.31,1.28h.06v-1.1h1.54V258c0,2.76-1.59,3.8-3.73,3.8-2,0-3.35-.84-3.38-2.52Zm1.95-2c1.16,0,2-.92,2-2.53v-.12c0-1.53-.88-2.42-2-2.42s-2,1-2,2.6S50.34,257.25,51.48,257.25Z"/><path d="M59.34,254.27l1.43-.24c.72-.12.94-.21.94-.5a1.28,1.28,0,0,0-1.44-1.43,1.36,1.36,0,0,0-1.54,1.29H57.18c.09-1.52,1.26-2.51,3.09-2.51,2.06,0,3.06,1,3.06,2.68v4.82H61.79v-.92h-.08a2.59,2.59,0,0,1-2.34,1.1c-1.6,0-2.47-.83-2.47-2.06S57.62,254.56,59.34,254.27Zm2.37.43a1.15,1.15,0,0,1-.75.35l-1.26.21c-.85.13-1.18.51-1.18,1.08s.42,1,1.24,1a1.84,1.84,0,0,0,2-2Z"/><path d="M66.44,256.28c0,.81.82,1.14,1.62,1.14,1.12,0,1.68-.39,1.68-1.07s-.38-.76-1.11-.88l-1.35-.24c-1.13-.18-2.21-.63-2.21-2s1.34-2.34,3.06-2.34,3,.69,3,2.22H69.65c0-.72-.65-1.08-1.52-1.08s-1.5.36-1.5,1,.35.75,1.22.91l1.35.22c1.15.2,2.16.64,2.16,2,0,1.6-1.35,2.4-3.3,2.4s-3.17-.75-3.17-2.28Z"/><path d="M76.29,250.88A3.52,3.52,0,0,1,80,254.72a3.58,3.58,0,0,1-3.74,3.84,3.53,3.53,0,0,1-3.73-3.84A3.58,3.58,0,0,1,76.29,250.88Zm0,6.37c1.23,0,2.06-1,2.06-2.53s-.83-2.54-2.06-2.54-2.05,1-2.05,2.54S75.06,257.25,76.29,257.25Z"/><path d="M81.72,247.4h1.62v11H81.72Z"/><path d="M85.49,247.4h1.74v1.65H85.49Zm.06,3.66h1.62v7.32H85.55Z"/><path d="M92.6,250.88a3.51,3.51,0,0,1,3.73,3.84,3.58,3.58,0,0,1-3.73,3.84,3.53,3.53,0,0,1-3.74-3.84A3.59,3.59,0,0,1,92.6,250.88Zm0,6.37c1.23,0,2.05-1,2.05-2.53s-.82-2.54-2.05-2.54-2.06,1-2.06,2.54S91.37,257.25,92.6,257.25Z"/><path class="cls-2" d="M370.8,558.29V556l3.63-2.84a8.67,8.67,0,0,0,1.38-1.27,1.67,1.67,0,0,0,.4-1.05v-.54a1.7,1.7,0,0,0-.44-1.32,2.37,2.37,0,0,0-1.56-.39,2.54,2.54,0,0,0-1.72.48,2,2,0,0,0-.55,1.54h-1.43a3.78,3.78,0,0,1,1.22-2.32,3.61,3.61,0,0,1,2.48-.87,3.5,3.5,0,0,1,2.5.88,2.88,2.88,0,0,1,1,2.18c0,1.17-.75,2.32-2.24,3.46l-3.3,2.52v.6h5.75v1.28Z"/><path class="cls-2" d="M385.23,558.29v-3.6h-4.91v-7.17h1.32v6.06h3.59V550h1.32v3.6h1.95v1.11h-1.95v3.6Z"/><path class="cls-2" d="M397,556.9a3.59,3.59,0,0,1-5.89,0,6.65,6.65,0,0,1-1.11-4,6.72,6.72,0,0,1,1.11-4,3.58,3.58,0,0,1,5.88,0,6.72,6.72,0,0,1,1.11,4A6.64,6.64,0,0,1,397,556.9Zm-4.9-.39a3,3,0,0,0,3.91,0,3.71,3.71,0,0,0,.61-2.38V551.7a3.79,3.79,0,0,0-.61-2.41,2.92,2.92,0,0,0-3.91,0,3.79,3.79,0,0,0-.61,2.41v2.43A3.71,3.71,0,0,0,392.11,556.51Z"/><path class="cls-2" d="M406.84,556.9a3.6,3.6,0,0,1-5.9,0,7.77,7.77,0,0,1,0-8,3.58,3.58,0,0,1,5.88,0,7.77,7.77,0,0,1,0,8Zm-4.91-.39a3,3,0,0,0,3.92,0,3.78,3.78,0,0,0,.6-2.38V551.7a3.86,3.86,0,0,0-.6-2.41,2.94,2.94,0,0,0-3.92,0,3.85,3.85,0,0,0-.61,2.41v2.43A3.77,3.77,0,0,0,401.93,556.51Z"/><path d="M130.12,248.26v-2.34l3.63-2.83a8.64,8.64,0,0,0,1.38-1.28,1.68,1.68,0,0,0,.41-1.05v-.54a1.67,1.67,0,0,0-.45-1.31,2.36,2.36,0,0,0-1.56-.4,2.56,2.56,0,0,0-1.72.49,2,2,0,0,0-.55,1.54h-1.42a3.75,3.75,0,0,1,1.21-2.33,3.63,3.63,0,0,1,2.48-.87,3.51,3.51,0,0,1,2.5.89,2.86,2.86,0,0,1,.95,2.17c0,1.17-.75,2.33-2.24,3.47l-3.3,2.52v.6h5.75v1.27Z"/><path d="M142.79,248.41a4.12,4.12,0,0,1-2.49-.74,2.87,2.87,0,0,1-1.24-2h1.45a1.56,1.56,0,0,0,.63,1.19,3.41,3.41,0,0,0,1.7.31,2.94,2.94,0,0,0,1.8-.43,1.72,1.72,0,0,0,.55-1.44v-1.28a2,2,0,0,0-.4-1.37,1.76,1.76,0,0,0-1.31-.43q-1.62,0-1.65,1.5h-2.71v-6.27h7v1.28h-5.78v4h.6a3.11,3.11,0,0,1,1-1.22,2.63,2.63,0,0,1,1.58-.46,2.8,2.8,0,0,1,2.21,1,3.69,3.69,0,0,1,.85,2.55,3.93,3.93,0,0,1-1,2.76A3.7,3.7,0,0,1,142.79,248.41Z"/><path class="cls-2" d="M312.79,457.53v-1.27h3.15V448h-2.81v-1.28h4.13v9.5h3.15v1.27Z"/><path class="cls-2" d="M322.61,457.53l4.31-5.16h-1.11a3.18,3.18,0,0,1-.91.95,1.92,1.92,0,0,1-1.1.36,2.09,2.09,0,0,1-1.82-1,4.23,4.23,0,0,1-.67-2.47,3.4,3.4,0,0,1,1.09-2.6,4.22,4.22,0,0,1,5.54,0A3.47,3.47,0,0,1,329,450.3a3.27,3.27,0,0,1-.37,1.56,11.43,11.43,0,0,1-1.16,1.65l-3.24,4Zm1.29-4.89a1,1,0,0,0,.77-.35,1.44,1.44,0,0,0,.3-1h2.49a2.33,2.33,0,0,0,.15-.87v-.51a2,2,0,0,0-.57-1.6,2.82,2.82,0,0,0-1.86-.5,2.6,2.6,0,0,0-1.87.58,2.56,2.56,0,0,0-.58,1.85V451a2.5,2.5,0,0,0,.25,1.24A1,1,0,0,0,323.9,452.64Z"/><path class="cls-2" d="M338,456.15a3.61,3.61,0,0,1-5.9,0,7.77,7.77,0,0,1,0-8,3.56,3.56,0,0,1,5.88,0,7.77,7.77,0,0,1,0,8Zm-4.91-.39a3,3,0,0,0,3.92,0,3.8,3.8,0,0,0,.6-2.38V451a3.89,3.89,0,0,0-.6-2.42,2.94,2.94,0,0,0-3.92,0,3.89,3.89,0,0,0-.61,2.42v2.43A3.79,3.79,0,0,0,333.12,455.76Z"/><path class="cls-2" d="M347.85,456.15a3.6,3.6,0,0,1-5.89,0,7.74,7.74,0,0,1,0-8,3.56,3.56,0,0,1,5.88,0,7.77,7.77,0,0,1,0,8Zm-4.9-.39a3,3,0,0,0,3.91,0,3.73,3.73,0,0,0,.61-2.38V451a3.82,3.82,0,0,0-.61-2.42,2.92,2.92,0,0,0-3.91,0,3.82,3.82,0,0,0-.61,2.42v2.43A3.73,3.73,0,0,0,343,455.76Z"/><path class="cls-2" d="M639.21,354.74v-3.6H634.3V344h1.32V350h3.59v-3.61h1.32V350h2v1.1h-2v3.6Z"/><path class="cls-2" d="M647.8,354.89a4.17,4.17,0,0,1-2.5-.74,2.89,2.89,0,0,1-1.23-1.95h1.45a1.54,1.54,0,0,0,.63,1.18,3.4,3.4,0,0,0,1.7.32,2.94,2.94,0,0,0,1.8-.44,1.72,1.72,0,0,0,.55-1.44v-1.28a2,2,0,0,0-.4-1.37,1.76,1.76,0,0,0-1.31-.43q-1.62,0-1.65,1.5h-2.71V344h7v1.28h-5.78v4h.6a3.18,3.18,0,0,1,1-1.22,2.76,2.76,0,0,1,1.59-.46,2.81,2.81,0,0,1,2.21,1,3.74,3.74,0,0,1,.85,2.55,3.89,3.89,0,0,1-1,2.76A3.66,3.66,0,0,1,647.8,354.89Z"/><path class="cls-2" d="M660.51,353.36a3.6,3.6,0,0,1-5.89,0,7.77,7.77,0,0,1,0-8,3.58,3.58,0,0,1,5.88,0,7.74,7.74,0,0,1,0,8Zm-4.9-.39a3,3,0,0,0,3.91,0,3.73,3.73,0,0,0,.61-2.38v-2.43a3.82,3.82,0,0,0-.61-2.42,2.92,2.92,0,0,0-3.91,0,3.82,3.82,0,0,0-.61,2.42v2.43A3.73,3.73,0,0,0,655.61,353Z"/><path class="cls-2" d="M670.34,353.36a3.61,3.61,0,0,1-5.9,0,7.77,7.77,0,0,1,0-8,3.58,3.58,0,0,1,5.88,0,7.77,7.77,0,0,1,0,8Zm-4.91-.39a3,3,0,0,0,3.92,0,3.79,3.79,0,0,0,.61-2.38v-2.43a3.89,3.89,0,0,0-.61-2.42,2.94,2.94,0,0,0-3.92,0,3.89,3.89,0,0,0-.6,2.42v2.43A3.8,3.8,0,0,0,665.43,353Z"/></g></svg>