<svg xmlns="http://www.w3.org/2000/svg" viewBox="0 0 720 900"><defs><style>.cls-1{fill:#fe5000;}.cls-2{fill:#fff;}.cls-3{isolation:isolate;}</style></defs><g id="Livello_2" data-name="Livello 2"><rect class="cls-1" x="223.09" y="212.26" width="72.54" height="568.2"/><rect class="cls-1" x="325.85" y="538.67" width="72.54" height="241.79"/><rect class="cls-1" x="424.37" y="475.81" width="72.54" height="304.65"/><rect class="cls-1" x="527.13" y="734.52" width="72.54" height="45.94"/><rect class="cls-1" x="120.33" y="773.21" width="72.54" height="7.25"/><path class="cls-2" d="M553.48,757.19a4,4,0,0,1-2.65-.88,3.32,3.32,0,0,1-1.14-2.29h1.44a1.91,1.91,0,0,0,.52,1.52,2.73,2.73,0,0,0,1.83.46c1.51,0,2.27-.48,2.27-1.44V754c0-.75-.64-1.13-1.93-1.13h-.2v-.76h-1.9V751h1.9v-.83h.32a2.06,2.06,0,0,0,1.18-.22.9.9,0,0,0,.29-.77v-.45a1.31,1.31,0,0,0-.42-1,2.32,2.32,0,0,0-1.55-.38,2.24,2.24,0,0,0-1.59.43,1.86,1.86,0,0,0-.45,1.41H550a3.2,3.2,0,0,1,1.12-2.14,3.35,3.35,0,0,1,2.33-.87,3.69,3.69,0,0,1,2.5.79,2.43,2.43,0,0,1,.92,1.91,2.25,2.25,0,0,1-.59,1.51,2.15,2.15,0,0,1-1.29.75v.75a2.71,2.71,0,0,1,1.55.76,2,2,0,0,1,.68,1.54,2.7,2.7,0,0,1-1.1,2.18A4.15,4.15,0,0,1,553.48,757.19Z"/><path class="cls-2" d="M563.24,757.19a4.46,4.46,0,0,1-2.75-.81,2.5,2.5,0,0,1-1.08-2.06,2.45,2.45,0,0,1,.52-1.54,2.88,2.88,0,0,1,1.36-.95v-.75a2.8,2.8,0,0,1-1.12-.92,2.37,2.37,0,0,1-.43-1.37,2.32,2.32,0,0,1,1-1.92,4.54,4.54,0,0,1,5,0,2.35,2.35,0,0,1,1,1.92,2.31,2.31,0,0,1-.44,1.37,2.83,2.83,0,0,1-1.13.92v.75a2.86,2.86,0,0,1,1.37.95,2.44,2.44,0,0,1,.53,1.54,2.48,2.48,0,0,1-1.08,2.06A4.42,4.42,0,0,1,563.24,757.19Zm-1.82-1.5a4,4,0,0,0,1.82.31,3.92,3.92,0,0,0,1.81-.31,1.08,1.08,0,0,0,.57-1v-.53c0-.78-.59-1.22-1.76-1.32v-.76h-1.25v.76c-1.17.09-1.75.53-1.75,1.32v.53A1.07,1.07,0,0,0,561.42,755.69Zm1.19-4.74h1.25v-.84c.94-.11,1.42-.46,1.42-1v-.48a1.06,1.06,0,0,0-.49-1,4,4,0,0,0-3.1,0,1.06,1.06,0,0,0-.49,1v.48q0,.91,1.41,1Z"/><path class="cls-2" d="M576,755.65a3.59,3.59,0,0,1-5.89,0,6.65,6.65,0,0,1-1.11-4,6.72,6.72,0,0,1,1.11-4,3.58,3.58,0,0,1,5.88,0,6.72,6.72,0,0,1,1.11,4A6.64,6.64,0,0,1,576,755.65Zm-4.9-.39a3,3,0,0,0,3.91,0,3.73,3.73,0,0,0,.61-2.38v-2.43A3.79,3.79,0,0,0,575,748a2.92,2.92,0,0,0-3.91,0,3.79,3.79,0,0,0-.61,2.41v2.43A3.73,3.73,0,0,0,571.11,755.26Z"/><path d="M529.23,815.15c0,.81.83,1.14,1.62,1.14,1.13,0,1.68-.39,1.68-1.07s-.37-.76-1.11-.88l-1.35-.24c-1.12-.18-2.2-.63-2.2-2s1.33-2.34,3.06-2.34,3,.69,3,2.22h-1.52c0-.72-.64-1.08-1.51-1.08s-1.5.36-1.5,1,.34.75,1.21.9L532,813c1.16.19,2.16.64,2.16,2,0,1.6-1.35,2.4-3.3,2.4s-3.16-.75-3.16-2.28Z"/><path d="M536.09,811.19h-1.38v-1.26h1.38v-2.22h1.62v2.22h1.87v1.26h-1.87v3.63c0,.78.27,1.08,1,1.08h.85v1.35h-1.12c-1.68,0-2.37-.71-2.37-2.34Z"/><path d="M541,809.93h1.62v4.23c0,1.45.63,2,1.56,2s1.79-.89,1.79-2.4v-3.78h1.62v7.32H546v-1.07H546a2.29,2.29,0,0,1-2.22,1.25c-1.47,0-2.76-.78-2.76-3.06Z"/><path d="M550.1,811.19h-1.38v-1.26h1.38v-1c0-1.75.81-2.62,2.64-2.62h1v1.32H553c-.93,0-1.23.42-1.23,1.3v1h1.75v1.26h-1.75v6.06H550.1Z"/><path d="M556.41,813.14l1.43-.24c.72-.12.94-.21.94-.5a1.28,1.28,0,0,0-1.44-1.44,1.37,1.37,0,0,0-1.54,1.29h-1.55c.09-1.51,1.26-2.5,3.09-2.5,2.06,0,3.06,1,3.06,2.68v4.82h-1.54v-.92h-.08a2.59,2.59,0,0,1-2.34,1.1c-1.6,0-2.47-.83-2.47-2.06S554.69,813.42,556.41,813.14Zm2.37.43a1.2,1.2,0,0,1-.75.35l-1.26.21c-.85.13-1.18.51-1.18,1.08s.42,1,1.24,1a1.84,1.84,0,0,0,1.95-2Z"/><path d="M530.25,829.14l1.43-.24c.72-.12.94-.21.94-.5a1.28,1.28,0,0,0-1.44-1.44,1.37,1.37,0,0,0-1.54,1.29h-1.55c.09-1.51,1.26-2.5,3.09-2.5,2.06,0,3.06,1,3.06,2.68v4.82H532.7v-.92h-.08a2.59,2.59,0,0,1-2.34,1.1c-1.6,0-2.47-.83-2.47-2.06S528.53,829.42,530.25,829.14Zm2.37.43a1.2,1.2,0,0,1-.75.35l-1.26.21c-.85.13-1.18.51-1.18,1.08s.42,1,1.24,1a1.84,1.84,0,0,0,2-2Z"/><path d="M541.26,836.55h-1.62V825.93h1.56V827h.06a2.54,2.54,0,0,1,2.43-1.27c1.85,0,3.27,1.35,3.27,3.78s-1.51,3.9-3.39,3.9a2.37,2.37,0,0,1-2.31-1.28h-.06c.06,1,.06,2,.06,2.46Zm2-9.5c-1.11,0-2,.89-2,2.42v.12c0,1.6.87,2.53,2,2.53s2-1,2-2.59S544.43,827.05,543.27,827.05Z"/><path d="M551.85,825.75a3.24,3.24,0,0,1,3.42,3.57v.54h-5.38c.09,1.42.85,2.29,2,2.29a1.58,1.58,0,0,0,1.7-1.12h1.59a3.12,3.12,0,0,1-3.3,2.4c-2.34,0-3.68-1.43-3.68-3.83A3.57,3.57,0,0,1,551.85,825.75Zm-1.89,3h3.66c-.13-1.21-.75-1.75-1.77-1.75A1.94,1.94,0,0,0,550,828.76Z"/><path d="M556.91,822.27h1.62v11h-1.62Z"/><path d="M560.73,822.27h1.62v11h-1.62Z"/><path d="M567.66,825.75a3.24,3.24,0,0,1,3.42,3.57v.54H565.7c.09,1.42.85,2.29,2,2.29a1.58,1.58,0,0,0,1.7-1.12H571a3.12,3.12,0,0,1-3.3,2.4c-2.34,0-3.68-1.43-3.68-3.83A3.57,3.57,0,0,1,567.66,825.75Zm-1.89,3h3.66c-.13-1.21-.75-1.75-1.77-1.75A1.94,1.94,0,0,0,565.77,828.76Z"/><path d="M573.05,827.19h-1.38v-1.26h1.38v-2.22h1.62v2.22h1.87v1.26h-1.87v3.63c0,.78.27,1.08,1,1.08h.85v1.35h-1.12c-1.68,0-2.37-.71-2.37-2.34Z"/><path d="M426.47,815.15c0,.81.83,1.14,1.62,1.14,1.13,0,1.68-.39,1.68-1.07s-.37-.76-1.11-.88l-1.35-.24c-1.12-.18-2.2-.63-2.2-2s1.33-2.34,3.06-2.34,3,.69,3,2.22h-1.52c0-.72-.64-1.08-1.51-1.08s-1.5.36-1.5,1,.34.75,1.21.9l1.35.23c1.16.19,2.16.64,2.16,2,0,1.6-1.35,2.4-3.3,2.4s-3.16-.75-3.16-2.28Z"/><path d="M433.33,811.19H432v-1.26h1.38v-2.22H435v2.22h1.87v1.26H435v3.63c0,.78.27,1.08,1,1.08h.85v1.35H435.7c-1.68,0-2.37-.71-2.37-2.34Z"/><path d="M438.23,809.93h1.62v4.23c0,1.45.63,2,1.56,2s1.79-.89,1.79-2.4v-3.78h1.62v7.32h-1.55v-1.07h-.06a2.29,2.29,0,0,1-2.22,1.25c-1.47,0-2.76-.78-2.76-3.06Z"/><path d="M447.34,811.19H446v-1.26h1.38v-1c0-1.75.81-2.62,2.64-2.62h1v1.32h-.76c-.93,0-1.23.42-1.23,1.3v1h1.75v1.26H449v6.06h-1.62Z"/><path d="M453.65,813.14l1.43-.24c.72-.12.94-.21.94-.5a1.28,1.28,0,0,0-1.44-1.44,1.37,1.37,0,0,0-1.54,1.29h-1.55c.09-1.51,1.26-2.5,3.09-2.5,2.06,0,3.06,1,3.06,2.68v4.82H456.1v-.92H456a2.59,2.59,0,0,1-2.34,1.1c-1.6,0-2.47-.83-2.47-2.06S451.93,813.42,453.65,813.14Zm2.37.43a1.2,1.2,0,0,1-.75.35l-1.26.21c-.85.13-1.18.51-1.18,1.08s.42,1,1.24,1a1.84,1.84,0,0,0,1.95-2Z"/><path d="M427.49,829.14l1.43-.24c.72-.12.94-.21.94-.5a1.28,1.28,0,0,0-1.44-1.44,1.37,1.37,0,0,0-1.54,1.29h-1.55c.09-1.51,1.26-2.5,3.09-2.5,2.06,0,3.06,1,3.06,2.68v4.82h-1.54v-.92h-.08a2.59,2.59,0,0,1-2.34,1.1c-1.6,0-2.47-.83-2.47-2.06S425.77,829.42,427.49,829.14Zm2.37.43a1.2,1.2,0,0,1-.75.35l-1.26.21c-.85.13-1.18.51-1.18,1.08s.42,1,1.24,1a1.84,1.84,0,0,0,1.95-2Z"/><path d="M436.88,822.27h1.62v11h-1.62Z"/><path d="M443.81,825.75a3.24,3.24,0,0,1,3.42,3.57v.54h-5.38c.09,1.42.85,2.29,2,2.29a1.58,1.58,0,0,0,1.7-1.12h1.59a3.12,3.12,0,0,1-3.3,2.4c-2.34,0-3.68-1.43-3.68-3.83A3.57,3.57,0,0,1,443.81,825.75Zm-1.89,3h3.66c-.13-1.21-.75-1.75-1.77-1.75A1.94,1.94,0,0,0,441.92,828.76Z"/><path d="M450.25,834.15c0,.81.78,1.3,1.84,1.3,1.31,0,2.19-.66,2.19-2.58v-.72h-.06a2.53,2.53,0,0,1-2.43,1.28c-1.84,0-3.27-1.35-3.27-3.78s1.52-3.9,3.39-3.9a2.38,2.38,0,0,1,2.31,1.27h.06v-1.09h1.55v6.94c0,2.76-1.59,3.8-3.74,3.8-1.95,0-3.34-.84-3.37-2.52Zm1.95-2c1.15,0,2-.93,2-2.53v-.12c0-1.53-.89-2.42-2-2.42s-2,1-2,2.6S451.06,832.12,452.2,832.12Z"/><path d="M458,825.93h1.56V827h.06a2.35,2.35,0,0,1,2.27-1.24c1.45,0,2.74.78,2.74,3.06v4.44H463V829c0-1.46-.61-1.95-1.56-1.95s-1.83.88-1.83,2.35v3.83H458Z"/><path d="M468.77,829.14l1.43-.24c.72-.12.94-.21.94-.5A1.28,1.28,0,0,0,469.7,827a1.37,1.37,0,0,0-1.54,1.29h-1.55c.09-1.51,1.26-2.5,3.09-2.5,2.06,0,3.06,1,3.06,2.68v4.82h-1.54v-.92h-.08a2.59,2.59,0,0,1-2.34,1.1c-1.6,0-2.47-.83-2.47-2.06S467.05,829.42,468.77,829.14Zm2.37.43a1.2,1.2,0,0,1-.75.35l-1.26.21c-.85.13-1.18.51-1.18,1.08s.42,1,1.24,1a1.84,1.84,0,0,0,1.95-2Z"/><g class="cls-3"><path d="M493.27,118.43v-1.08h7.66v1.08Zm0,2.72v-1.07h7.66v1.07Z"/></g><rect class="cls-1" x="409.11" y="118.3" width="72.54" height="2.06"/><path d="M441.91,114v-1.28h3.15v-8.22h-2.8v-1.27h4.12v9.49h3.15V114Z"/><path d="M522.73,107.75a3,3,0,0,1,3.33,2.68h-1.6a1.61,1.61,0,0,0-1.73-1.38c-1.14,0-2,1-2,2.54s.82,2.53,2,2.53a1.6,1.6,0,0,0,1.73-1.38h1.6a3,3,0,0,1-3.33,2.69c-2.25,0-3.64-1.44-3.64-3.84A3.54,3.54,0,0,1,522.73,107.75Z"/><path d="M529.77,111.14l1.42-.24c.72-.12.95-.21.95-.5A1.29,1.29,0,0,0,530.7,109a1.37,1.37,0,0,0-1.55,1.29h-1.54c.09-1.51,1.26-2.5,3.09-2.5,2,0,3.06,1,3.06,2.68v4.82h-1.55v-.92h-.07a2.62,2.62,0,0,1-2.34,1.1c-1.61,0-2.48-.83-2.48-2.06S528,111.42,529.77,111.14Zm2.37.43a1.23,1.23,0,0,1-.75.35l-1.26.21c-.86.13-1.19.51-1.19,1.08s.42,1,1.25,1a1.84,1.84,0,0,0,1.95-2Z"/><path d="M535.86,104.27h1.62v11h-1.62Z"/><path d="M542.56,107.75a2.38,2.38,0,0,1,2.31,1.27h.06c-.07-1-.07-2-.07-2.46v-2.29h1.62v11h-1.55v-1.1h-.06a2.53,2.53,0,0,1-2.43,1.28c-1.84,0-3.27-1.35-3.27-3.78S540.69,107.75,542.56,107.75Zm.29,6.37c1.15,0,2-.93,2-2.53s-.86-2.54-2-2.54-2,1-2,2.6S541.71,114.12,542.85,114.12Z"/><path d="M550.71,111.14l1.42-.24c.72-.12,1-.21,1-.5a1.29,1.29,0,0,0-1.44-1.44,1.37,1.37,0,0,0-1.55,1.29h-1.54c.09-1.51,1.26-2.5,3.09-2.5,2.05,0,3.06,1,3.06,2.68v4.82h-1.55v-.92h-.07a2.62,2.62,0,0,1-2.34,1.1c-1.61,0-2.48-.83-2.48-2.06S549,111.42,550.71,111.14Zm2.37.43a1.23,1.23,0,0,1-.75.35l-1.26.21c-.86.13-1.19.51-1.19,1.08s.42,1,1.25,1a1.84,1.84,0,0,0,2-2Z"/><path d="M556.74,104.27h1.74v1.65h-1.74Zm.06,3.66h1.62v7.32H556.8Z"/><path d="M562.65,111.14l1.42-.24c.72-.12.95-.21.95-.5a1.29,1.29,0,0,0-1.44-1.44,1.37,1.37,0,0,0-1.55,1.29h-1.54c.09-1.51,1.26-2.5,3.09-2.5,2,0,3.06,1,3.06,2.68v4.82h-1.55v-.92H565a2.62,2.62,0,0,1-2.34,1.1c-1.61,0-2.48-.83-2.48-2.06S560.92,111.42,562.65,111.14Zm2.37.43a1.23,1.23,0,0,1-.75.35l-1.26.21c-.86.13-1.19.51-1.19,1.08s.42,1,1.25,1a1.84,1.84,0,0,0,1.95-2Z"/><path d="M574.06,111.14l1.43-.24c.72-.12.94-.21.94-.5A1.28,1.28,0,0,0,575,109a1.37,1.37,0,0,0-1.54,1.29H571.9c.09-1.51,1.26-2.5,3.09-2.5,2.06,0,3.06,1,3.06,2.68v4.82h-1.54v-.92h-.08a2.59,2.59,0,0,1-2.34,1.1c-1.6,0-2.47-.83-2.47-2.06S572.34,111.42,574.06,111.14Zm2.37.43a1.2,1.2,0,0,1-.75.35l-1.26.21c-.85.13-1.18.51-1.18,1.08s.42,1,1.24,1a1.84,1.84,0,0,0,1.95-2Z"/><path d="M519.61,123.93h1.56V125h.06a2.6,2.6,0,0,1,4.55.21,2.5,2.5,0,0,1,2.46-1.45c1.42,0,2.59.78,2.59,3v4.53h-1.62v-4.34c0-1.36-.48-1.84-1.41-1.84s-1.77.87-1.77,2.32v3.86h-1.62v-4.34c0-1.36-.52-1.84-1.41-1.84s-1.77.87-1.77,2.34v3.84h-1.62Z"/><path d="M536,123.75a3.24,3.24,0,0,1,3.42,3.57v.54h-5.38c.09,1.42.85,2.29,2,2.29a1.58,1.58,0,0,0,1.7-1.12h1.59a3.12,3.12,0,0,1-3.3,2.4c-2.34,0-3.68-1.43-3.68-3.83A3.57,3.57,0,0,1,536,123.75Zm-1.89,3h3.66c-.13-1.21-.75-1.75-1.77-1.75A1.94,1.94,0,0,0,534.13,126.76Z"/><path d="M541.41,125.19H540v-1.26h1.38v-2.22H543v2.22h1.87v1.26H543v3.63c0,.78.27,1.08,1,1.08h.85v1.35h-1.12c-1.68,0-2.37-.71-2.37-2.34Z"/><path d="M548.53,127.14l1.43-.24c.72-.12.94-.21.94-.5a1.28,1.28,0,0,0-1.44-1.44,1.37,1.37,0,0,0-1.54,1.29h-1.55c.09-1.51,1.26-2.5,3.09-2.5,2.06,0,3.06,1,3.06,2.68v4.82H551v-.92h-.08a2.59,2.59,0,0,1-2.34,1.1c-1.6,0-2.47-.83-2.47-2.06S546.81,127.42,548.53,127.14Zm2.37.43a1.2,1.2,0,0,1-.75.35l-1.26.21c-.85.13-1.18.51-1.18,1.08s.42,1,1.24,1a1.84,1.84,0,0,0,1.95-2Z"/><path d="M554.62,123.93h1.56V125h.06a2.35,2.35,0,0,1,2.27-1.24c1.45,0,2.74.78,2.74,3.06v4.44h-1.62V127c0-1.46-.61-2-1.56-2s-1.83.88-1.83,2.35v3.83h-1.62Z"/><path d="M566.56,123.75a3.52,3.52,0,0,1,3.74,3.84,3.58,3.58,0,0,1-3.74,3.84,3.53,3.53,0,0,1-3.73-3.84A3.58,3.58,0,0,1,566.56,123.75Zm0,6.37c1.23,0,2.06-1,2.06-2.53s-.83-2.54-2.06-2.54-2,1-2,2.54S565.33,130.12,566.56,130.12Z"/><path d="M575.61,120.75H577l-4.62,10.68H571Z"/><path d="M585.52,129.88h0a3.59,3.59,0,0,1-3.27,1.55,5.34,5.34,0,0,1,.09-10.68,4.33,4.33,0,0,1,4.56,3.28h-1.73a2.7,2.7,0,0,0-2.83-1.78c-2.09,0-3.44,1.59-3.44,3.84s1.38,3.84,3.39,3.84c1.68,0,3.08-1,3.08-2.66v-.18h-3v-1.36h4.54v5.52h-1.09Z"/><path d="M590.67,134.55h-1.62V123.93h1.56V125h.06a2.54,2.54,0,0,1,2.43-1.27c1.84,0,3.27,1.35,3.27,3.78s-1.52,3.9-3.39,3.9a2.37,2.37,0,0,1-2.31-1.28h-.06c.06,1,.06,2,.06,2.46Zm2-9.5c-1.11,0-2,.89-2,2.42v.12c0,1.6.87,2.53,2,2.53s2-1,2-2.59S593.83,125.05,592.68,125.05Z"/><path d="M598.05,120.27h1.62v11h-1.62Z"/><path d="M330.07,809.75a3,3,0,0,1,3.33,2.68h-1.61a1.6,1.6,0,0,0-1.72-1.38c-1.14,0-2,1-2,2.54s.83,2.53,2,2.53a1.59,1.59,0,0,0,1.72-1.38h1.61a3,3,0,0,1-3.33,2.69c-2.25,0-3.65-1.44-3.65-3.84A3.54,3.54,0,0,1,330.07,809.75Z"/><path d="M337.1,813.14l1.43-.24c.72-.12.94-.21.94-.5A1.28,1.28,0,0,0,338,811a1.37,1.37,0,0,0-1.54,1.29h-1.55c.09-1.51,1.26-2.5,3.09-2.5,2.06,0,3.06,1,3.06,2.68v4.82h-1.54v-.92h-.08a2.59,2.59,0,0,1-2.34,1.1c-1.6,0-2.47-.83-2.47-2.06S335.38,813.42,337.1,813.14Zm2.37.43a1.2,1.2,0,0,1-.75.35l-1.26.21c-.85.13-1.18.51-1.18,1.08s.42,1,1.24,1a1.84,1.84,0,0,0,2-2Z"/><path d="M343.19,809.93h1.56V811h.06a2.6,2.6,0,0,1,4.55.21,2.5,2.5,0,0,1,2.46-1.45c1.42,0,2.59.78,2.59,3v4.53h-1.62v-4.34c0-1.36-.48-1.84-1.41-1.84s-1.77.87-1.77,2.32v3.86H348v-4.34c0-1.36-.52-1.84-1.41-1.84s-1.77.87-1.77,2.34v3.84h-1.62Z"/><path d="M356.44,806.27h1.74v1.65h-1.74Zm.06,3.66h1.62v7.32H356.5Z"/><path d="M360.32,809.93h1.56V811h.06a2.35,2.35,0,0,1,2.27-1.24c1.45,0,2.74.78,2.74,3.06v4.44h-1.62V813c0-1.46-.61-1.95-1.56-1.95s-1.83.88-1.83,2.35v3.83h-1.62Z"/><path d="M372.14,809.75a3.24,3.24,0,0,1,3.42,3.57v.54h-5.38c.09,1.42.85,2.29,2,2.29a1.58,1.58,0,0,0,1.7-1.12h1.59a3.12,3.12,0,0,1-3.3,2.4c-2.34,0-3.68-1.43-3.68-3.83A3.57,3.57,0,0,1,372.14,809.75Zm-1.89,3h3.66c-.13-1.21-.75-1.75-1.77-1.75A1.94,1.94,0,0,0,370.25,812.76Z"/><path d="M377.53,811.19h-1.38v-1.26h1.38v-2.22h1.62v2.22H381v1.26h-1.87v3.63c0,.78.27,1.08,1,1.08H381v1.35H379.9c-1.68,0-2.37-.71-2.37-2.34Z"/><path d="M382.7,811.19h-1.38v-1.26h1.38v-2.22h1.62v2.22h1.88v1.26h-1.88v3.63c0,.78.27,1.08,1,1.08h.86v1.35h-1.13c-1.68,0-2.37-.71-2.37-2.34Z"/><path d="M390.88,809.75a3.52,3.52,0,0,1,3.73,3.84,3.58,3.58,0,0,1-3.73,3.84,3.53,3.53,0,0,1-3.74-3.84A3.59,3.59,0,0,1,390.88,809.75Zm0,6.37c1.23,0,2.05-1,2.05-2.53s-.82-2.54-2.05-2.54-2.06,1-2.06,2.54S389.65,816.12,390.88,816.12Z"/><path d="M330.07,825.75a3,3,0,0,1,3.33,2.68h-1.61a1.6,1.6,0,0,0-1.72-1.38c-1.14,0-2,1-2,2.54s.83,2.53,2,2.53a1.59,1.59,0,0,0,1.72-1.38h1.61a3,3,0,0,1-3.33,2.69c-2.25,0-3.65-1.44-3.65-3.84A3.54,3.54,0,0,1,330.07,825.75Z"/><path d="M335,822.27h1.62v2.26c0,.5,0,1.5-.06,2.46h.06a2.35,2.35,0,0,1,2.26-1.24c1.46,0,2.75.78,2.75,3.06v4.44H340V829c0-1.46-.62-1.95-1.56-1.95s-1.83.93-1.83,2.37v3.81H335Z"/><path d="M343.61,822.27h1.74v1.65h-1.74Zm.06,3.66h1.62v7.32h-1.62Z"/><path d="M347.38,825.93H349v4.23c0,1.45.63,2,1.56,2s1.78-.89,1.78-2.4v-3.78H354v7.32h-1.54v-1.07h-.06a2.29,2.29,0,0,1-2.22,1.25c-1.47,0-2.76-.78-2.76-3.06Z"/><path d="M357.16,831.15c0,.81.82,1.14,1.62,1.14,1.12,0,1.68-.39,1.68-1.07s-.38-.76-1.11-.88L358,830.1c-1.13-.18-2.21-.63-2.21-2s1.34-2.34,3.06-2.34,3,.69,3,2.22h-1.51c0-.72-.65-1.08-1.52-1.08s-1.5.36-1.5,1,.35.75,1.22.9l1.35.23c1.15.19,2.16.64,2.16,2,0,1.6-1.35,2.4-3.3,2.4s-3.17-.75-3.17-2.28Z"/><path d="M367,825.75a3.52,3.52,0,0,1,3.74,3.84,3.58,3.58,0,0,1-3.74,3.84,3.53,3.53,0,0,1-3.73-3.84A3.58,3.58,0,0,1,367,825.75Zm0,6.37c1.23,0,2.06-1,2.06-2.53s-.83-2.54-2.06-2.54-2.05,1-2.05,2.54S365.78,832.12,367,832.12Z"/><path d="M227.31,809.75a3,3,0,0,1,3.33,2.68H229a1.6,1.6,0,0,0-1.72-1.38c-1.14,0-2,1-2,2.54s.83,2.53,2,2.53a1.59,1.59,0,0,0,1.72-1.38h1.61a3,3,0,0,1-3.33,2.69c-2.25,0-3.65-1.44-3.65-3.84A3.54,3.54,0,0,1,227.31,809.75Z"/><path d="M234.34,813.14l1.43-.24c.72-.12.94-.21.94-.5a1.28,1.28,0,0,0-1.44-1.44,1.37,1.37,0,0,0-1.54,1.29h-1.55c.09-1.51,1.26-2.5,3.09-2.5,2.06,0,3.06,1,3.06,2.68v4.82h-1.54v-.92h-.08a2.59,2.59,0,0,1-2.34,1.1c-1.6,0-2.47-.83-2.47-2.06S232.62,813.42,234.34,813.14Zm2.37.43a1.2,1.2,0,0,1-.75.35l-1.26.21c-.85.13-1.18.51-1.18,1.08s.42,1,1.24,1a1.84,1.84,0,0,0,2-2Z"/><path d="M240.43,809.93H242V811h.06a2.6,2.6,0,0,1,4.55.21,2.5,2.5,0,0,1,2.46-1.45c1.42,0,2.59.78,2.59,3v4.53H250v-4.34c0-1.36-.48-1.84-1.41-1.84s-1.77.87-1.77,2.32v3.86h-1.62v-4.34c0-1.36-.52-1.84-1.41-1.84s-1.77.87-1.77,2.34v3.84h-1.62Z"/><path d="M253.68,806.27h1.74v1.65h-1.74Zm.06,3.66h1.62v7.32h-1.62Z"/><path d="M257.56,809.93h1.56V811h.06a2.35,2.35,0,0,1,2.27-1.24c1.45,0,2.74.78,2.74,3.06v4.44h-1.62V813c0-1.46-.61-1.95-1.56-1.95s-1.83.88-1.83,2.35v3.83h-1.62Z"/><path d="M269.38,809.75a3.24,3.24,0,0,1,3.42,3.57v.54h-5.38c.09,1.42.85,2.29,2,2.29a1.58,1.58,0,0,0,1.7-1.12h1.59a3.12,3.12,0,0,1-3.3,2.4c-2.34,0-3.68-1.43-3.68-3.83A3.57,3.57,0,0,1,269.38,809.75Zm-1.89,3h3.66c-.13-1.21-.75-1.75-1.77-1.75A1.94,1.94,0,0,0,267.49,812.76Z"/><path d="M274.77,811.19h-1.38v-1.26h1.38v-2.22h1.62v2.22h1.87v1.26h-1.87v3.63c0,.78.27,1.08,1,1.08h.85v1.35h-1.12c-1.68,0-2.37-.71-2.37-2.34Z"/><path d="M279.94,811.19h-1.38v-1.26h1.38v-2.22h1.62v2.22h1.88v1.26h-1.88v3.63c0,.78.27,1.08,1,1.08h.86v1.35h-1.13c-1.68,0-2.37-.71-2.37-2.34Z"/><path d="M288.11,809.75a3.52,3.52,0,0,1,3.74,3.84,3.58,3.58,0,0,1-3.74,3.84,3.53,3.53,0,0,1-3.73-3.84A3.59,3.59,0,0,1,288.11,809.75Zm0,6.37c1.24,0,2.06-1,2.06-2.53s-.82-2.54-2.06-2.54-2.05,1-2.05,2.54S286.89,816.12,288.11,816.12Z"/><path d="M226.21,829.14l1.43-.24c.72-.12.94-.21.94-.5a1.28,1.28,0,0,0-1.44-1.44,1.37,1.37,0,0,0-1.54,1.29h-1.55c.09-1.51,1.26-2.5,3.09-2.5,2.06,0,3.06,1,3.06,2.68v4.82h-1.54v-.92h-.08a2.59,2.59,0,0,1-2.34,1.1c-1.6,0-2.47-.83-2.47-2.06S224.49,829.42,226.21,829.14Zm2.37.43a1.2,1.2,0,0,1-.75.35l-1.26.21c-.85.13-1.18.51-1.18,1.08s.42,1,1.24,1a1.84,1.84,0,0,0,2-2Z"/><path d="M233.92,836.55H232.3V825.93h1.56V827h.06a2.54,2.54,0,0,1,2.43-1.27c1.85,0,3.27,1.35,3.27,3.78s-1.51,3.9-3.39,3.9a2.37,2.37,0,0,1-2.31-1.28h-.06c.06,1,.06,2,.06,2.46Zm2-9.5c-1.11,0-2,.89-2,2.42v.12c0,1.6.87,2.53,2,2.53s2-1,2-2.59S237.09,827.05,235.93,827.05Z"/><path d="M244.51,825.75a3.24,3.24,0,0,1,3.42,3.57v.54h-5.38c.09,1.42.85,2.29,2,2.29a1.58,1.58,0,0,0,1.7-1.12h1.59a3.12,3.12,0,0,1-3.3,2.4c-2.34,0-3.68-1.43-3.68-3.83A3.57,3.57,0,0,1,244.51,825.75Zm-1.89,3h3.66c-.13-1.21-.75-1.75-1.77-1.75A1.94,1.94,0,0,0,242.62,828.76Z"/><path d="M249.57,825.93h1.56V827h0a2,2,0,0,1,1.94-1.24,1.69,1.69,0,0,1,1,.3l-.42,1.44a1.93,1.93,0,0,0-.9-.24c-1.1,0-1.62,1.06-1.62,2.34v3.66h-1.62Z"/><path d="M256.09,827.19h-1.38v-1.26h1.38v-2.22h1.62v2.22h1.88v1.26h-1.88v3.63c0,.78.27,1.08,1,1.08h.86v1.35h-1.13c-1.68,0-2.37-.71-2.37-2.34Z"/><path d="M264.27,825.75a3.51,3.51,0,0,1,3.73,3.84,3.58,3.58,0,0,1-3.73,3.84,3.53,3.53,0,0,1-3.74-3.84A3.59,3.59,0,0,1,264.27,825.75Zm0,6.37c1.23,0,2.05-1,2.05-2.53s-.82-2.54-2.05-2.54-2.06,1-2.06,2.54S263,832.12,264.27,832.12Z"/><path d="M124.55,809.75a3,3,0,0,1,3.33,2.68h-1.61a1.6,1.6,0,0,0-1.72-1.38c-1.14,0-2,1-2,2.54s.83,2.53,2,2.53a1.59,1.59,0,0,0,1.72-1.38h1.61a3,3,0,0,1-3.33,2.69c-2.25,0-3.65-1.44-3.65-3.84A3.54,3.54,0,0,1,124.55,809.75Z"/><path d="M131.58,813.14l1.43-.24c.72-.12.94-.21.94-.5a1.28,1.28,0,0,0-1.44-1.44,1.37,1.37,0,0,0-1.54,1.29h-1.55c.09-1.51,1.26-2.5,3.09-2.5,2.06,0,3.06,1,3.06,2.68v4.82H134v-.92H134a2.59,2.59,0,0,1-2.34,1.1c-1.6,0-2.47-.83-2.47-2.06S129.86,813.42,131.58,813.14Zm2.37.43a1.2,1.2,0,0,1-.75.35l-1.26.21c-.85.13-1.18.51-1.18,1.08s.42,1,1.24,1a1.84,1.84,0,0,0,1.95-2Z"/><path d="M137.67,806.27h1.62v11h-1.62Z"/><path d="M144.38,809.75a2.38,2.38,0,0,1,2.31,1.27h.06c-.08-1-.08-2-.08-2.46v-2.29h1.62v11h-1.54v-1.1h-.06a2.53,2.53,0,0,1-2.43,1.28c-1.85,0-3.27-1.35-3.27-3.78S142.5,809.75,144.38,809.75Zm.28,6.37c1.16,0,2-.93,2-2.53s-.85-2.54-2-2.54-2,1-2,2.6S143.52,816.12,144.66,816.12Z"/><path d="M152.52,813.14l1.43-.24c.72-.12.94-.21.94-.5a1.28,1.28,0,0,0-1.44-1.44,1.37,1.37,0,0,0-1.54,1.29h-1.55c.09-1.51,1.26-2.5,3.09-2.5,2.06,0,3.06,1,3.06,2.68v4.82H155v-.92h-.08a2.59,2.59,0,0,1-2.34,1.1c-1.6,0-2.47-.83-2.47-2.06S150.8,813.42,152.52,813.14Zm2.37.43a1.2,1.2,0,0,1-.75.35l-1.26.21c-.85.13-1.18.51-1.18,1.08s.42,1,1.24,1a1.84,1.84,0,0,0,1.95-2Z"/><path d="M158.55,806.27h1.74v1.65h-1.74Zm.06,3.66h1.62v7.32h-1.62Z"/><path d="M164.46,813.14l1.43-.24c.72-.12.94-.21.94-.5a1.28,1.28,0,0,0-1.44-1.44,1.37,1.37,0,0,0-1.54,1.29H162.3c.09-1.51,1.26-2.5,3.09-2.5,2.06,0,3.06,1,3.06,2.68v4.82h-1.54v-.92h-.08a2.59,2.59,0,0,1-2.34,1.1c-1.6,0-2.47-.83-2.47-2.06S162.74,813.42,164.46,813.14Zm2.37.43a1.2,1.2,0,0,1-.75.35l-1.26.21c-.85.13-1.18.51-1.18,1.08s.42,1,1.24,1a1.84,1.84,0,0,0,2-2Z"/><path d="M123.45,829.14l1.43-.24c.72-.12.94-.21.94-.5a1.28,1.28,0,0,0-1.44-1.44,1.37,1.37,0,0,0-1.54,1.29h-1.55c.09-1.51,1.26-2.5,3.09-2.5,2.06,0,3.06,1,3.06,2.68v4.82H125.9v-.92h-.08a2.59,2.59,0,0,1-2.34,1.1c-1.6,0-2.47-.83-2.47-2.06S121.73,829.42,123.45,829.14Zm2.37.43a1.2,1.2,0,0,1-.75.35l-1.26.21c-.85.13-1.18.51-1.18,1.08s.42,1,1.24,1a1.84,1.84,0,0,0,1.95-2Z"/><path d="M134.06,834.15c0,.81.78,1.3,1.84,1.3,1.31,0,2.19-.66,2.19-2.58v-.72H138a2.53,2.53,0,0,1-2.43,1.28c-1.84,0-3.27-1.35-3.27-3.78s1.52-3.9,3.39-3.9A2.38,2.38,0,0,1,138,827h.06v-1.09h1.55v6.94c0,2.76-1.59,3.8-3.74,3.8-2,0-3.34-.84-3.37-2.52Zm1.95-2c1.15,0,2-.93,2-2.53v-.12c-.05-1.53-.89-2.42-2-2.42s-2,1-2,2.6S134.87,832.12,136,832.12Z"/><path d="M143.87,829.14l1.42-.24c.72-.12,1-.21,1-.5A1.29,1.29,0,0,0,144.8,827a1.37,1.37,0,0,0-1.55,1.29h-1.54c.09-1.51,1.26-2.5,3.09-2.5,2,0,3.06,1,3.06,2.68v4.82h-1.55v-.92h-.07a2.62,2.62,0,0,1-2.34,1.1c-1.61,0-2.48-.83-2.48-2.06S142.14,829.42,143.87,829.14Zm2.37.43a1.23,1.23,0,0,1-.75.35l-1.26.21c-.86.13-1.19.51-1.19,1.08s.42,1,1.25,1a1.84,1.84,0,0,0,2-2Z"/><path d="M151,831.15c0,.81.83,1.14,1.62,1.14,1.13,0,1.68-.39,1.68-1.07s-.37-.76-1.11-.88l-1.35-.24c-1.12-.18-2.2-.63-2.2-2s1.33-2.34,3.06-2.34,3,.69,3,2.22h-1.52c0-.72-.64-1.08-1.51-1.08s-1.5.36-1.5,1,.34.75,1.21.9l1.35.23c1.16.19,2.16.64,2.16,2,0,1.6-1.35,2.4-3.3,2.4s-3.16-.75-3.16-2.28Z"/><path d="M160.82,825.75a3.51,3.51,0,0,1,3.73,3.84,3.58,3.58,0,0,1-3.73,3.84,3.53,3.53,0,0,1-3.74-3.84A3.59,3.59,0,0,1,160.82,825.75Zm0,6.37c1.23,0,2.05-1,2.05-2.53s-.82-2.54-2.05-2.54-2.06,1-2.06,2.54S159.59,832.12,160.82,832.12Z"/><path d="M166.25,822.27h1.62v11h-1.62Z"/><path d="M170,822.27h1.74v1.65H170Zm.06,3.66h1.62v7.32h-1.62Z"/><path d="M177.12,825.75a3.52,3.52,0,0,1,3.74,3.84,3.58,3.58,0,0,1-3.74,3.84,3.53,3.53,0,0,1-3.73-3.84A3.58,3.58,0,0,1,177.12,825.75Zm0,6.37c1.23,0,2.06-1,2.06-2.53s-.83-2.54-2.06-2.54-2.05,1-2.05,2.54S175.89,832.12,177.12,832.12Z"/><path class="cls-2" d="M442.48,498V495.7l3.63-2.84a8.67,8.67,0,0,0,1.38-1.27,1.67,1.67,0,0,0,.4-1V490a1.73,1.73,0,0,0-.44-1.32,2.42,2.42,0,0,0-1.57-.39,2.58,2.58,0,0,0-1.72.48,2,2,0,0,0-.55,1.54h-1.42A3.77,3.77,0,0,1,443.4,488a3.64,3.64,0,0,1,2.48-.87,3.53,3.53,0,0,1,2.51.88,2.87,2.87,0,0,1,.94,2.18c0,1.17-.74,2.32-2.23,3.46l-3.3,2.52v.6h5.74V498Z"/><path class="cls-2" d="M456.9,498v-3.6H452v-7.17h1.32v6.06h3.58v-3.6h1.32v3.6h1.95v1.11h-1.95V498Z"/><path class="cls-2" d="M468.69,496.65a3.6,3.6,0,0,1-5.9,0,7.77,7.77,0,0,1,0-8,3.58,3.58,0,0,1,5.88,0,7.77,7.77,0,0,1,0,8Zm-4.91-.39a3,3,0,0,0,3.92,0,3.8,3.8,0,0,0,.6-2.38v-2.43a3.86,3.86,0,0,0-.6-2.41,2.94,2.94,0,0,0-3.92,0,3.85,3.85,0,0,0-.61,2.41v2.43A3.79,3.79,0,0,0,463.78,496.26Z"/><path class="cls-2" d="M478.51,496.65a3.59,3.59,0,0,1-5.89,0,6.64,6.64,0,0,1-1.1-4,6.72,6.72,0,0,1,1.1-4,3.58,3.58,0,0,1,5.88,0,6.72,6.72,0,0,1,1.11,4A6.64,6.64,0,0,1,478.51,496.65Zm-4.9-.39a3,3,0,0,0,3.91,0,3.73,3.73,0,0,0,.61-2.38v-2.43a3.79,3.79,0,0,0-.61-2.41,2.92,2.92,0,0,0-3.91,0,3.79,3.79,0,0,0-.61,2.41v2.43A3.73,3.73,0,0,0,473.61,496.26Z"/><path d="M148.67,763V760.7l3.63-2.84a8.67,8.67,0,0,0,1.38-1.27,1.68,1.68,0,0,0,.41-1.05V755a1.73,1.73,0,0,0-.44-1.32,2.42,2.42,0,0,0-1.57-.39,2.58,2.58,0,0,0-1.72.48,2,2,0,0,0-.55,1.54h-1.42A3.72,3.72,0,0,1,149.6,753a3.63,3.63,0,0,1,2.48-.87,3.5,3.5,0,0,1,2.5.88,2.88,2.88,0,0,1,.95,2.18c0,1.17-.75,2.32-2.24,3.46l-3.3,2.52v.6h5.75V763Z"/><path d="M161.35,763.19a4.22,4.22,0,0,1-2.5-.74,2.89,2.89,0,0,1-1.24-2h1.46a1.54,1.54,0,0,0,.63,1.18,3.35,3.35,0,0,0,1.69.32,2.94,2.94,0,0,0,1.8-.44,1.72,1.72,0,0,0,.56-1.44v-1.27a1.93,1.93,0,0,0-.41-1.37A1.7,1.7,0,0,0,162,757q-1.62,0-1.65,1.5h-2.72v-6.27h7v1.27h-5.77v4h.6a3.06,3.06,0,0,1,1-1.21,2.64,2.64,0,0,1,1.58-.47,2.8,2.8,0,0,1,2.21,1,3.69,3.69,0,0,1,.85,2.55,3.93,3.93,0,0,1-1,2.76A3.68,3.68,0,0,1,161.35,763.19Z"/><path class="cls-2" d="M344.07,560.39v-1.27h3.15V550.9h-2.81v-1.28h4.13v9.5h3.15v1.27Z"/><path class="cls-2" d="M353.89,560.39l4.31-5.16h-1.11a3.31,3.31,0,0,1-.91.95,2,2,0,0,1-1.1.36,2.12,2.12,0,0,1-1.83-1,4.31,4.31,0,0,1-.66-2.47,3.42,3.42,0,0,1,1.08-2.6,3.9,3.9,0,0,1,2.77-1,3.86,3.86,0,0,1,2.78,1,3.47,3.47,0,0,1,1.09,2.64,3.27,3.27,0,0,1-.37,1.56,11.43,11.43,0,0,1-1.16,1.65l-3.24,4Zm1.29-4.89a1,1,0,0,0,.77-.35,1.44,1.44,0,0,0,.3-1h2.49a2.33,2.33,0,0,0,.15-.87v-.51a2,2,0,0,0-.57-1.6,2.82,2.82,0,0,0-1.86-.5,2.58,2.58,0,0,0-1.87.58,2.52,2.52,0,0,0-.58,1.85v.78a2.4,2.4,0,0,0,.25,1.24A1,1,0,0,0,355.18,555.5Z"/><path class="cls-2" d="M369.3,559a3.6,3.6,0,0,1-5.89,0,7.77,7.77,0,0,1,0-8,3.56,3.56,0,0,1,5.88,0,7.74,7.74,0,0,1,0,8Zm-4.9-.39a3,3,0,0,0,3.91,0,3.73,3.73,0,0,0,.61-2.38v-2.43a3.82,3.82,0,0,0-.61-2.42,2.92,2.92,0,0,0-3.91,0,3.82,3.82,0,0,0-.61,2.42v2.43A3.73,3.73,0,0,0,364.4,558.62Z"/><path class="cls-2" d="M379.13,559a3.61,3.61,0,0,1-5.9,0,7.77,7.77,0,0,1,0-8,3.56,3.56,0,0,1,5.88,0,7.77,7.77,0,0,1,0,8Zm-4.91-.39a3,3,0,0,0,3.92,0,3.79,3.79,0,0,0,.61-2.38v-2.43a3.89,3.89,0,0,0-.61-2.42,2.94,2.94,0,0,0-3.92,0,3.89,3.89,0,0,0-.6,2.42v2.43A3.8,3.8,0,0,0,374.22,558.62Z"/><path class="cls-2" d="M246,234.39v-3.6h-4.9v-7.17h1.32v6.06H246v-3.6h1.32v3.6h1.95v1.11h-1.95v3.6Z"/><path class="cls-2" d="M254.55,234.54a4.15,4.15,0,0,1-2.5-.74,2.87,2.87,0,0,1-1.24-2h1.46a1.56,1.56,0,0,0,.63,1.19,3.37,3.37,0,0,0,1.69.31,2.94,2.94,0,0,0,1.8-.43,1.72,1.72,0,0,0,.56-1.44v-1.28a2,2,0,0,0-.41-1.37,1.74,1.74,0,0,0-1.3-.43q-1.62,0-1.65,1.5h-2.72v-6.27h7v1.28h-5.77v4h.6a3.09,3.09,0,0,1,1-1.22,2.63,2.63,0,0,1,1.58-.46,2.8,2.8,0,0,1,2.21,1,3.69,3.69,0,0,1,.85,2.55,3.93,3.93,0,0,1-1,2.76A3.67,3.67,0,0,1,254.55,234.54Z"/><path class="cls-2" d="M267.26,233a3.61,3.61,0,0,1-5.9,0,7.77,7.77,0,0,1,0-8,3.56,3.56,0,0,1,5.88,0,7.77,7.77,0,0,1,0,8Zm-4.91-.39a3,3,0,0,0,3.92,0,3.8,3.8,0,0,0,.6-2.38v-2.43a3.89,3.89,0,0,0-.6-2.42,2.94,2.94,0,0,0-3.92,0,3.89,3.89,0,0,0-.61,2.42v2.43A3.79,3.79,0,0,0,262.35,232.62Z"/><path class="cls-2" d="M277.08,233a3.6,3.6,0,0,1-5.89,0,7.8,7.8,0,0,1,0-8,3.56,3.56,0,0,1,5.88,0,7.71,7.71,0,0,1,0,8Zm-4.9-.39a3,3,0,0,0,3.91,0,3.73,3.73,0,0,0,.61-2.38v-2.43a3.82,3.82,0,0,0-.61-2.42,2.92,2.92,0,0,0-3.91,0,3.82,3.82,0,0,0-.61,2.42v2.43A3.73,3.73,0,0,0,272.18,232.62Z"/></g></svg>