<svg xmlns="http://www.w3.org/2000/svg" viewBox="0 0 720 900"><defs><style>.cls-1{fill:#fff;}.cls-2{fill:#fe5000;}</style></defs><g id="Livello_2" data-name="Livello 2"><rect class="cls-1" x="28" y="61.5" width="664" height="777"/><circle class="cls-2" cx="278.82" cy="304.89" r="243"/><path class="cls-1" d="M204.58,310.37a4.44,4.44,0,0,1-2.55-.73,4.86,4.86,0,0,1-1.68-2,7.41,7.41,0,0,1,0-5.82,4.89,4.89,0,0,1,1.69-2,4.36,4.36,0,0,1,2.51-.73,4.56,4.56,0,0,1,2,.42A4,4,0,0,1,208,300.7a3.76,3.76,0,0,1,.72,1.78h-1.27a2.88,2.88,0,0,0-1-1.58,2.8,2.8,0,0,0-1.92-.66,3.18,3.18,0,0,0-1.85.56,3.79,3.79,0,0,0-1.25,1.57,5.66,5.66,0,0,0-.45,2.33,5.8,5.8,0,0,0,.44,2.35,3.69,3.69,0,0,0,1.24,1.59,3.12,3.12,0,0,0,1.87.58,3.18,3.18,0,0,0,1.32-.28,2.71,2.71,0,0,0,1.56-2h1.28a3.85,3.85,0,0,1-.7,1.76,3.77,3.77,0,0,1-1.44,1.21A4.38,4.38,0,0,1,204.58,310.37Z"/><path class="cls-1" d="M214.49,310.39a4.12,4.12,0,0,1-1.8-.38,3.15,3.15,0,0,1-1.3-1.12,3.21,3.21,0,0,1-.48-1.79,2.82,2.82,0,0,1,.3-1.36,2.53,2.53,0,0,1,.87-.91,4.48,4.48,0,0,1,1.33-.56,11,11,0,0,1,1.69-.32l1.55-.2a3,3,0,0,0,1-.27.64.64,0,0,0,.33-.6v-.26a2.33,2.33,0,0,0-.66-1.75,2.63,2.63,0,0,0-1.91-.65,3.35,3.35,0,0,0-1.92.52,3,3,0,0,0-1,1.22l-1.2-.43a3.65,3.65,0,0,1,1-1.43,4,4,0,0,1,1.47-.77,5.66,5.66,0,0,1,1.64-.24,5.5,5.5,0,0,1,1.3.16,3.77,3.77,0,0,1,1.26.57,2.86,2.86,0,0,1,.94,1.11,3.89,3.89,0,0,1,.37,1.81v7.41H218v-1.73h-.08a3.34,3.34,0,0,1-.67.94,3.47,3.47,0,0,1-1.12.74A3.89,3.89,0,0,1,214.49,310.39Zm.17-1.15a3.28,3.28,0,0,0,1.75-.45,3.1,3.1,0,0,0,1.14-1.19A3.35,3.35,0,0,0,218,306v-1.57a1.19,1.19,0,0,1-.47.24,7.64,7.64,0,0,1-.76.19c-.29.05-.57.1-.86.13l-.76.1a7.4,7.4,0,0,0-1.58.36,2.25,2.25,0,0,0-1,.66,1.68,1.68,0,0,0-.35,1.09,1.82,1.82,0,0,0,.71,1.53A2.82,2.82,0,0,0,214.66,309.24Z"/><path class="cls-1" d="M222.58,310.15V299.24h1.23v1.67h.11a2.73,2.73,0,0,1,1.09-1.33,3.37,3.37,0,0,1,1.83-.48,3.08,3.08,0,0,1,1.86.52,3.17,3.17,0,0,1,1.09,1.46h.09a3.06,3.06,0,0,1,1.21-1.45,3.63,3.63,0,0,1,2-.53,3.1,3.1,0,0,1,2.4.95,4,4,0,0,1,.88,2.79v7.31h-1.27v-7.31a2.6,2.6,0,0,0-.66-1.94,2.39,2.39,0,0,0-1.74-.65,2.43,2.43,0,0,0-1.92.77,2.84,2.84,0,0,0-.68,2v7.18h-1.29v-7.43a2.6,2.6,0,0,0-.62-1.79,2.24,2.24,0,0,0-1.74-.68,2.58,2.58,0,0,0-1.35.37,2.63,2.63,0,0,0-.95,1,3.2,3.2,0,0,0-.34,1.51v7Z"/><path class="cls-1" d="M240.4,297.36a1,1,0,0,1-.67-.26.86.86,0,0,1-.28-.65.84.84,0,0,1,.28-.64,1,1,0,0,1,1.33,0,.84.84,0,0,1,.28.64.86.86,0,0,1-.28.65A1,1,0,0,1,240.4,297.36Zm-.65,12.79V299.24H241v10.91Z"/><path class="cls-1" d="M245.64,303.33v6.82h-1.27V299.24h1.23V301h.11a3.13,3.13,0,0,1,1.2-1.35,3.7,3.7,0,0,1,2-.5,4,4,0,0,1,1.94.45,3.2,3.2,0,0,1,1.3,1.35,4.65,4.65,0,0,1,.47,2.18v7.07h-1.27v-7a3,3,0,0,0-.75-2.13,2.65,2.65,0,0,0-2-.78,3.15,3.15,0,0,0-1.53.37,2.7,2.7,0,0,0-1.06,1.06A3.44,3.44,0,0,0,245.64,303.33Z"/><path class="cls-1" d="M260.37,310.37a4.58,4.58,0,0,1-4.36-2.69,7.32,7.32,0,0,1,0-5.85,4.84,4.84,0,0,1,1.68-2,4.32,4.32,0,0,1,2.49-.73,4.76,4.76,0,0,1,1.71.32,4.28,4.28,0,0,1,1.48,1,4.61,4.61,0,0,1,1,1.67,6.54,6.54,0,0,1,.39,2.37v.63h-8.52V304h7.23a4.17,4.17,0,0,0-.43-1.89,3.36,3.36,0,0,0-1.17-1.33,3.29,3.29,0,0,0-3.55.06,3.79,3.79,0,0,0-1.24,1.47,4.64,4.64,0,0,0-.45,2v.67a5.31,5.31,0,0,0,.45,2.27,3.39,3.39,0,0,0,1.29,1.5,3.51,3.51,0,0,0,2,.54,3.37,3.37,0,0,0,1.36-.25,2.84,2.84,0,0,0,1-.65,2.89,2.89,0,0,0,.61-.89l1.2.39a3.7,3.7,0,0,1-.81,1.27,4.13,4.13,0,0,1-1.41.93A4.9,4.9,0,0,1,260.37,310.37Z"/><path class="cls-1" d="M271.87,299.24v1.1h-5.2v-1.1Zm-3.58-2.62h1.27V307.3a2,2,0,0,0,.24,1.07,1.22,1.22,0,0,0,.61.54,2,2,0,0,0,.8.16,2.63,2.63,0,0,0,.43,0L272,309l.27,1.15a3.1,3.1,0,0,1-.45.13,3.26,3.26,0,0,1-.67.06,3,3,0,0,1-1.34-.31,2.63,2.63,0,0,1-1.06-.9,2.67,2.67,0,0,1-.41-1.5Z"/><path class="cls-1" d="M279,299.24v1.1h-5.21v-1.1Zm-3.58-2.62h1.27V307.3a2.15,2.15,0,0,0,.23,1.07,1.26,1.26,0,0,0,.61.54,2,2,0,0,0,.81.16,2.5,2.5,0,0,0,.42,0,2.21,2.21,0,0,0,.32-.07l.27,1.15a3.27,3.27,0,0,1-.46.13,3.13,3.13,0,0,1-.67.06,3,3,0,0,1-1.34-.31,2.5,2.5,0,0,1-1.46-2.4Z"/><path class="cls-1" d="M286,310.37a4.46,4.46,0,0,1-2.49-.71,4.88,4.88,0,0,1-1.7-2,6.75,6.75,0,0,1-.61-2.93,6.85,6.85,0,0,1,.61-2.95,4.88,4.88,0,0,1,1.7-2,4.46,4.46,0,0,1,2.49-.71,4.39,4.39,0,0,1,2.5.72,4.83,4.83,0,0,1,1.69,2,6.7,6.7,0,0,1,.61,2.95,6.61,6.61,0,0,1-.61,2.93,4.79,4.79,0,0,1-1.69,2A4.47,4.47,0,0,1,286,310.37Zm0-1.15a3.11,3.11,0,0,0,1.93-.61,3.82,3.82,0,0,0,1.19-1.63,6.32,6.32,0,0,0,0-4.48,3.86,3.86,0,0,0-1.19-1.64,3.3,3.3,0,0,0-3.85,0,3.79,3.79,0,0,0-1.2,1.64,6.32,6.32,0,0,0,0,4.48,3.76,3.76,0,0,0,1.2,1.63A3.08,3.08,0,0,0,286,309.22Z"/><path class="cls-1" d="M302.28,310.39a4.09,4.09,0,0,1-1.8-.38,3.09,3.09,0,0,1-1.3-1.12,3.21,3.21,0,0,1-.48-1.79,2.82,2.82,0,0,1,.3-1.36,2.45,2.45,0,0,1,.87-.91,4.37,4.37,0,0,1,1.33-.56,11,11,0,0,1,1.69-.32l1.55-.2a3,3,0,0,0,1-.27.64.64,0,0,0,.33-.6v-.26a2.33,2.33,0,0,0-.66-1.75,2.63,2.63,0,0,0-1.91-.65,3.32,3.32,0,0,0-1.92.52,2.91,2.91,0,0,0-1,1.22l-1.2-.43a3.55,3.55,0,0,1,1-1.43,4,4,0,0,1,1.46-.77,5.78,5.78,0,0,1,1.65-.24,5.5,5.5,0,0,1,1.3.16,3.77,3.77,0,0,1,1.26.57,2.86,2.86,0,0,1,.94,1.11,3.89,3.89,0,0,1,.37,1.81v7.41h-1.27v-1.73h-.08a3.34,3.34,0,0,1-.67.94,3.47,3.47,0,0,1-1.12.74A3.89,3.89,0,0,1,302.28,310.39Zm.17-1.15a3.28,3.28,0,0,0,1.75-.45,3.1,3.1,0,0,0,1.14-1.19,3.35,3.35,0,0,0,.4-1.64v-1.57a1.19,1.19,0,0,1-.47.24,7.64,7.64,0,0,1-.76.19c-.29.05-.57.1-.86.13l-.76.1a7.4,7.4,0,0,0-1.58.36,2.25,2.25,0,0,0-1,.66,1.68,1.68,0,0,0-.35,1.09,1.82,1.82,0,0,0,.71,1.53A2.8,2.8,0,0,0,302.45,309.24Z"/><path class="cls-1" d="M310.37,314.24v-15h1.22v2.08h.15a5.71,5.71,0,0,1,.63-1,3.26,3.26,0,0,1,1.05-.87,3.55,3.55,0,0,1,1.66-.35,4,4,0,0,1,2.36.7,4.68,4.68,0,0,1,1.58,2,8.08,8.08,0,0,1,0,5.91,4.62,4.62,0,0,1-1.58,2,3.91,3.91,0,0,1-2.34.71,3.24,3.24,0,0,1-2.73-1.23,5.24,5.24,0,0,1-.63-1h-.11v6.12Zm1.25-9.54A6.52,6.52,0,0,0,312,307a3.6,3.6,0,0,0,1.14,1.6,3.09,3.09,0,0,0,3.63,0,3.86,3.86,0,0,0,1.15-1.63,6.36,6.36,0,0,0,.39-2.29,6.29,6.29,0,0,0-.39-2.27,3.56,3.56,0,0,0-1.14-1.6,3.16,3.16,0,0,0-3.65,0,3.54,3.54,0,0,0-1.14,1.58A6.36,6.36,0,0,0,311.62,304.7Z"/><path class="cls-1" d="M326.77,310.37a4.58,4.58,0,0,1-4.36-2.69,7.32,7.32,0,0,1,0-5.85,4.76,4.76,0,0,1,1.68-2,4.32,4.32,0,0,1,2.49-.73,4.76,4.76,0,0,1,1.71.32,4.38,4.38,0,0,1,1.48,1,4.61,4.61,0,0,1,1,1.67,6.54,6.54,0,0,1,.39,2.37v.63h-8.53V304h7.23a4.17,4.17,0,0,0-.42-1.89,3.36,3.36,0,0,0-1.17-1.33,3.07,3.07,0,0,0-1.73-.49,3.11,3.11,0,0,0-1.83.55,3.85,3.85,0,0,0-1.23,1.47,4.64,4.64,0,0,0-.45,2v.67a5.31,5.31,0,0,0,.45,2.27,3.44,3.44,0,0,0,1.28,1.5,3.55,3.55,0,0,0,2,.54,3.37,3.37,0,0,0,1.36-.25,2.84,2.84,0,0,0,1-.65,2.89,2.89,0,0,0,.61-.89l1.2.39a3.59,3.59,0,0,1-.82,1.27,4,4,0,0,1-1.4.93A4.9,4.9,0,0,1,326.77,310.37Z"/><path class="cls-1" d="M334,310.15V299.24h1.23v1.67h.09a2.76,2.76,0,0,1,1.14-1.33,3.43,3.43,0,0,1,1.85-.51h.35l.31,0v1.28l-.29,0a3.44,3.44,0,0,0-.46,0,3.13,3.13,0,0,0-1.52.36,2.67,2.67,0,0,0-1.43,2.43v7Z"/><path class="cls-1" d="M346.08,299.24v1.1h-5.2v-1.1Zm-3.58-2.62h1.27V307.3a2,2,0,0,0,.24,1.07,1.22,1.22,0,0,0,.61.54,2,2,0,0,0,.8.16,2.63,2.63,0,0,0,.43,0l.31-.07.27,1.15a3.1,3.1,0,0,1-.45.13,3.2,3.2,0,0,1-.67.06A3,3,0,0,1,344,310a2.63,2.63,0,0,1-1.06-.9,2.67,2.67,0,0,1-.41-1.5Z"/><path class="cls-1" d="M353.08,310.37a4.49,4.49,0,0,1-2.5-.71,4.79,4.79,0,0,1-1.69-2,6.61,6.61,0,0,1-.61-2.93,6.7,6.7,0,0,1,.61-2.95,4.79,4.79,0,0,1,1.69-2,4.49,4.49,0,0,1,2.5-.71,4.38,4.38,0,0,1,2.49.72,4.76,4.76,0,0,1,1.69,2,6.7,6.7,0,0,1,.62,2.95,6.61,6.61,0,0,1-.61,2.93,4.81,4.81,0,0,1-1.7,2A4.46,4.46,0,0,1,353.08,310.37Zm0-1.15a3.08,3.08,0,0,0,1.92-.61,3.76,3.76,0,0,0,1.2-1.63,6.32,6.32,0,0,0,0-4.48,3.79,3.79,0,0,0-1.2-1.64,3.28,3.28,0,0,0-3.84,0,3.79,3.79,0,0,0-1.2,1.64,6.32,6.32,0,0,0,0,4.48,3.82,3.82,0,0,0,1.19,1.63A3.11,3.11,0,0,0,353.08,309.22Z"/><circle class="cls-2" cx="576.81" cy="538.53" r="107.37"/><path class="cls-1" d="M536.09,533a4.41,4.41,0,0,1-2.54-.73,4.77,4.77,0,0,1-1.68-2,6.74,6.74,0,0,1-.6-2.9,6.63,6.63,0,0,1,.61-2.92,4.89,4.89,0,0,1,1.68-2,4.43,4.43,0,0,1,2.51-.72,4.56,4.56,0,0,1,2,.42,3.81,3.81,0,0,1,2.2,3H539a2.83,2.83,0,0,0-1-1.58,2.79,2.79,0,0,0-1.92-.65,3.13,3.13,0,0,0-1.85.56A3.79,3.79,0,0,0,533,525a5.66,5.66,0,0,0-.45,2.33,5.92,5.92,0,0,0,.44,2.34,3.78,3.78,0,0,0,1.24,1.6,3.14,3.14,0,0,0,1.87.57,3.23,3.23,0,0,0,1.33-.27,2.64,2.64,0,0,0,1-.78,2.67,2.67,0,0,0,.56-1.2h1.27a3.74,3.74,0,0,1-.7,1.76,3.86,3.86,0,0,1-1.44,1.21A4.51,4.51,0,0,1,536.09,533Z"/><path class="cls-1" d="M546,533a4.17,4.17,0,0,1-1.81-.39,3.14,3.14,0,0,1-1.3-1.12,3.18,3.18,0,0,1-.48-1.78,2.75,2.75,0,0,1,.31-1.37,2.49,2.49,0,0,1,.86-.91,5.22,5.22,0,0,1,1.33-.56,14.16,14.16,0,0,1,1.69-.32l1.55-.2a2.51,2.51,0,0,0,1-.27.63.63,0,0,0,.34-.59v-.26a2.36,2.36,0,0,0-.67-1.76,2.67,2.67,0,0,0-1.91-.64,3.27,3.27,0,0,0-1.92.52,2.92,2.92,0,0,0-1,1.22l-1.2-.43a3.57,3.57,0,0,1,1-1.43,4.17,4.17,0,0,1,1.47-.78,5.75,5.75,0,0,1,1.64-.23,5.44,5.44,0,0,1,1.3.16,4,4,0,0,1,1.26.56,2.92,2.92,0,0,1,1,1.12,4,4,0,0,1,.36,1.81v7.4h-1.26V531h-.08a3.56,3.56,0,0,1-.68.93,3.34,3.34,0,0,1-1.12.75A4,4,0,0,1,546,533Zm.17-1.16a3.26,3.26,0,0,0,1.74-.44,3,3,0,0,0,1.14-1.19,3.38,3.38,0,0,0,.41-1.64V527a1.33,1.33,0,0,1-.48.24,4.43,4.43,0,0,1-.76.19c-.28.06-.57.1-.85.14l-.77.1A7.4,7.4,0,0,0,545,528a2.31,2.31,0,0,0-1,.66,1.65,1.65,0,0,0-.35,1.08,1.82,1.82,0,0,0,.71,1.54A2.89,2.89,0,0,0,546.18,531.82Z"/><path class="cls-1" d="M554.09,532.73V521.82h1.23v1.68h.11a2.69,2.69,0,0,1,1.09-1.33,3.3,3.3,0,0,1,1.84-.49,3.07,3.07,0,0,1,1.85.53,3.15,3.15,0,0,1,1.09,1.45h.1a3,3,0,0,1,1.2-1.44,3.66,3.66,0,0,1,2-.54,3.1,3.1,0,0,1,2.4,1,3.94,3.94,0,0,1,.88,2.79v7.3h-1.26v-7.3a2.55,2.55,0,0,0-.67-1.94,2.39,2.39,0,0,0-1.74-.65,2.43,2.43,0,0,0-1.92.77,2.83,2.83,0,0,0-.67,1.94v7.18h-1.3v-7.42a2.53,2.53,0,0,0-.62-1.79,2.24,2.24,0,0,0-1.74-.68,2.49,2.49,0,0,0-1.35.37,2.6,2.6,0,0,0-.94,1,3.16,3.16,0,0,0-.35,1.5v7Z"/><path class="cls-1" d="M571.91,520a.92.92,0,0,1-.67-.27A.86.86,0,0,1,571,519a.88.88,0,0,1,.28-.64.92.92,0,0,1,.67-.27.9.9,0,0,1,.66.27.84.84,0,0,1,.28.64.83.83,0,0,1-.28.64A.9.9,0,0,1,571.91,520Zm-.65,12.78V521.82h1.27v10.91Z"/><path class="cls-1" d="M577.15,525.91v6.82h-1.26V521.82h1.22v1.72h.12a3,3,0,0,1,1.19-1.35,3.76,3.76,0,0,1,2-.51,3.88,3.88,0,0,1,1.93.46,3.14,3.14,0,0,1,1.3,1.35,4.62,4.62,0,0,1,.47,2.18v7.06h-1.27v-7a2.94,2.94,0,0,0-.75-2.12,2.64,2.64,0,0,0-2-.78,3.09,3.09,0,0,0-1.53.37,2.68,2.68,0,0,0-1.05,1.06A3.29,3.29,0,0,0,577.15,525.91Z"/><path class="cls-1" d="M591.89,533a4.88,4.88,0,0,1-2.65-.71,4.82,4.82,0,0,1-1.72-2,7.34,7.34,0,0,1,0-5.86,5,5,0,0,1,1.69-2,4.33,4.33,0,0,1,2.48-.72,4.57,4.57,0,0,1,1.72.32,4.1,4.1,0,0,1,1.48,1,4.85,4.85,0,0,1,1,1.66,6.83,6.83,0,0,1,.38,2.38v.63h-8.52v-1.12H595a4.17,4.17,0,0,0-.42-1.89,3.39,3.39,0,0,0-1.18-1.33,3,3,0,0,0-1.73-.49,3.08,3.08,0,0,0-1.82.55,3.72,3.72,0,0,0-1.23,1.46,4.44,4.44,0,0,0-.45,2v.67a5.35,5.35,0,0,0,.45,2.27,3.39,3.39,0,0,0,3.25,2,3.59,3.59,0,0,0,1.36-.24,2.85,2.85,0,0,0,1-.65,2.81,2.81,0,0,0,.61-.9l1.2.39a3.6,3.6,0,0,1-.81,1.28,4.44,4.44,0,0,1-1.41.93A5,5,0,0,1,591.89,533Z"/><path class="cls-1" d="M603.38,521.82v1.11h-5.2v-1.11Zm-3.57-2.61h1.27v10.68a2,2,0,0,0,.23,1.06,1.34,1.34,0,0,0,.61.55,2,2,0,0,0,.8.16,2.63,2.63,0,0,0,.43,0l.31-.07.27,1.15a4.36,4.36,0,0,1-.45.13,3.13,3.13,0,0,1-.67.06,3.17,3.17,0,0,1-1.34-.31,2.53,2.53,0,0,1-1.46-2.41Z"/><path class="cls-1" d="M610.55,521.82v1.11h-5.21v-1.11ZM607,519.21h1.27v10.68a2,2,0,0,0,.24,1.06,1.29,1.29,0,0,0,.61.55,2,2,0,0,0,.8.16,2.63,2.63,0,0,0,.43,0l.31-.07.27,1.15a4.63,4.63,0,0,1-.46.13,3.1,3.1,0,0,1-.66.06,3.13,3.13,0,0,1-1.34-.31,2.65,2.65,0,0,1-1.06-.91,2.62,2.62,0,0,1-.41-1.5Z"/><path class="cls-1" d="M617.55,533a4.39,4.39,0,0,1-2.5-.72,4.76,4.76,0,0,1-1.69-2,7.28,7.28,0,0,1,0-5.88,4.73,4.73,0,0,1,1.69-2,4.74,4.74,0,0,1,5,0,4.86,4.86,0,0,1,1.69,2,6.7,6.7,0,0,1,.62,3,6.79,6.79,0,0,1-.61,2.93,4.85,4.85,0,0,1-1.7,2A4.38,4.38,0,0,1,617.55,533Zm0-1.16a3,3,0,0,0,1.92-.61,3.73,3.73,0,0,0,1.2-1.62,6.35,6.35,0,0,0,0-4.49,3.85,3.85,0,0,0-1.2-1.64,3.33,3.33,0,0,0-3.84,0,4,4,0,0,0-1.21,1.64,6.5,6.5,0,0,0,0,4.49,3.9,3.9,0,0,0,1.2,1.62A3,3,0,0,0,617.55,531.8Z"/><path class="cls-1" d="M516.37,557a4.41,4.41,0,0,1-2.54-.73,4.77,4.77,0,0,1-1.68-2,6.74,6.74,0,0,1-.6-2.9,6.63,6.63,0,0,1,.61-2.92,4.89,4.89,0,0,1,1.68-2,4.43,4.43,0,0,1,2.51-.72,4.56,4.56,0,0,1,2,.42,4,4,0,0,1,1.47,1.18,3.81,3.81,0,0,1,.73,1.78h-1.28a2.83,2.83,0,0,0-1-1.58,2.79,2.79,0,0,0-1.92-.65,3.08,3.08,0,0,0-1.84.56,3.73,3.73,0,0,0-1.26,1.57,5.66,5.66,0,0,0-.45,2.33,5.92,5.92,0,0,0,.44,2.34,3.86,3.86,0,0,0,1.24,1.6,3.14,3.14,0,0,0,1.87.57,3.19,3.19,0,0,0,1.33-.27,2.71,2.71,0,0,0,1.56-2h1.27a3.74,3.74,0,0,1-.7,1.76,3.86,3.86,0,0,1-1.44,1.21A4.51,4.51,0,0,1,516.37,557Z"/><path class="cls-1" d="M524.5,549.91v6.82h-1.26V542.19h1.26v5.35h.12a2.94,2.94,0,0,1,1.19-1.35,3.74,3.74,0,0,1,2-.51,4,4,0,0,1,1.95.46,3.17,3.17,0,0,1,1.3,1.34,4.67,4.67,0,0,1,.47,2.19v7.06H530.3v-7a2.94,2.94,0,0,0-.75-2.12,2.67,2.67,0,0,0-2-.78,3.21,3.21,0,0,0-1.56.37,2.73,2.73,0,0,0-1.07,1.06A3.29,3.29,0,0,0,524.5,549.91Z"/><path class="cls-1" d="M535.57,544a.94.94,0,0,1-.67-.27.86.86,0,0,1-.28-.64.88.88,0,0,1,.28-.64,1,1,0,0,1,1.34,0,.87.87,0,0,1,.27.64.85.85,0,0,1-.27.64A.94.94,0,0,1,535.57,544Zm-.65,12.78V545.82h1.27v10.91Z"/><path class="cls-1" d="M546.48,552.56v-6.74h1.26v10.91h-1.26v-1.81h-.1a3.34,3.34,0,0,1-1.22,1.4,3.56,3.56,0,0,1-2,.56,3.76,3.76,0,0,1-1.85-.46,3.25,3.25,0,0,1-1.27-1.35,4.66,4.66,0,0,1-.46-2.18v-7.07h1.26v7a2.85,2.85,0,0,0,.75,2.06,2.58,2.58,0,0,0,1.93.78,3,3,0,0,0,2.55-1.4A3.1,3.1,0,0,0,546.48,552.56Z"/><path class="cls-1" d="M558.41,548.22l-1.16.32a2.9,2.9,0,0,0-.48-.88A2.24,2.24,0,0,0,556,547a3,3,0,0,0-1.24-.23,3,3,0,0,0-1.82.53,1.59,1.59,0,0,0-.71,1.35,1.47,1.47,0,0,0,.48,1.14,3.6,3.6,0,0,0,1.51.69l1.64.41a4,4,0,0,1,2.06,1.06,2.53,2.53,0,0,1,.69,1.82,2.77,2.77,0,0,1-.51,1.64,3.52,3.52,0,0,1-1.43,1.12,5.16,5.16,0,0,1-2.11.41,4.52,4.52,0,0,1-2.64-.72,3.24,3.24,0,0,1-1.32-2.08l1.21-.3a2.44,2.44,0,0,0,.92,1.47,3,3,0,0,0,1.81.49,3.28,3.28,0,0,0,2-.56,1.72,1.72,0,0,0,.75-1.42,1.54,1.54,0,0,0-.44-1.11,2.68,2.68,0,0,0-1.34-.66l-1.78-.43a4.09,4.09,0,0,1-2.1-1.08,2.56,2.56,0,0,1-.68-1.83,2.65,2.65,0,0,1,.49-1.59,3.16,3.16,0,0,1,1.35-1.07,4.66,4.66,0,0,1,2-.39,3.87,3.87,0,0,1,2.39.67A3.78,3.78,0,0,1,558.41,548.22Z"/><path class="cls-1" d="M565.58,557a4.39,4.39,0,0,1-2.5-.72,4.76,4.76,0,0,1-1.69-2,7.28,7.28,0,0,1,0-5.88,4.73,4.73,0,0,1,1.69-2,4.74,4.74,0,0,1,5,0,4.86,4.86,0,0,1,1.69,2,6.7,6.7,0,0,1,.62,3,6.79,6.79,0,0,1-.61,2.93,4.85,4.85,0,0,1-1.7,2A4.38,4.38,0,0,1,565.58,557Zm0-1.16a3,3,0,0,0,1.92-.61,3.81,3.81,0,0,0,1.2-1.62,6.35,6.35,0,0,0,0-4.49,3.94,3.94,0,0,0-1.2-1.64,3.34,3.34,0,0,0-3.85,0,4,4,0,0,0-1.2,1.64,6.5,6.5,0,0,0,0,4.49,3.9,3.9,0,0,0,1.2,1.62A3,3,0,0,0,565.58,555.8Z"/><path class="cls-1" d="M577.88,541.51l-4.69,17.41H572l4.69-17.41Z"/><path class="cls-1" d="M580.73,544a.9.9,0,0,1-.67-.27.83.83,0,0,1-.28-.64.84.84,0,0,1,.28-.64.9.9,0,0,1,.67-.27.91.91,0,0,1,.66.27.84.84,0,0,1,.28.64.83.83,0,0,1-.28.64A.91.91,0,0,1,580.73,544Zm-.65,12.78V545.82h1.27v10.91Z"/><path class="cls-1" d="M586,549.91v6.82H584.7V545.82h1.23v1.72H586a3.13,3.13,0,0,1,1.2-1.35,3.7,3.7,0,0,1,2-.51,3.92,3.92,0,0,1,1.94.46,3.14,3.14,0,0,1,1.3,1.35,4.63,4.63,0,0,1,.46,2.18v7.06h-1.26v-7a2.94,2.94,0,0,0-.75-2.12,2.66,2.66,0,0,0-2-.78,3,3,0,0,0-1.52.37,2.7,2.7,0,0,0-1.06,1.06A3.29,3.29,0,0,0,586,549.91Z"/><path class="cls-1" d="M603.62,548.22l-1.16.32a2.9,2.9,0,0,0-.48-.88,2.24,2.24,0,0,0-.81-.64,3,3,0,0,0-1.24-.23,3,3,0,0,0-1.82.53,1.62,1.62,0,0,0-.71,1.35,1.44,1.44,0,0,0,.49,1.14,3.5,3.5,0,0,0,1.5.69l1.65.41a4,4,0,0,1,2.05,1.06,2.53,2.53,0,0,1,.69,1.82,2.77,2.77,0,0,1-.51,1.64,3.45,3.45,0,0,1-1.43,1.12,5.16,5.16,0,0,1-2.11.41,4.49,4.49,0,0,1-2.63-.72,3.22,3.22,0,0,1-1.33-2.08l1.21-.3a2.44,2.44,0,0,0,.92,1.47,3,3,0,0,0,1.81.49,3.24,3.24,0,0,0,2-.56,1.72,1.72,0,0,0,.75-1.42,1.54,1.54,0,0,0-.44-1.11,2.68,2.68,0,0,0-1.33-.66l-1.79-.43a4.17,4.17,0,0,1-2.1-1.08,2.61,2.61,0,0,1-.68-1.83,2.65,2.65,0,0,1,.49-1.59,3.29,3.29,0,0,1,1.35-1.07,4.66,4.66,0,0,1,2-.39,3.9,3.9,0,0,1,2.4.67A3.83,3.83,0,0,1,603.62,548.22Z"/><path class="cls-1" d="M611,557a4.82,4.82,0,0,1-2.64-.71,4.77,4.77,0,0,1-1.73-2,7.45,7.45,0,0,1,0-5.86,5,5,0,0,1,1.69-2,4.34,4.34,0,0,1,2.49-.72,4.55,4.55,0,0,1,1.71.32,4.1,4.1,0,0,1,1.48,1,4.7,4.7,0,0,1,1,1.66,6.6,6.6,0,0,1,.38,2.38v.63h-8.52v-1.12h7.23a4.17,4.17,0,0,0-.42-1.89,3.29,3.29,0,0,0-1.17-1.33,3.31,3.31,0,0,0-3.56.06,3.81,3.81,0,0,0-1.23,1.46,4.44,4.44,0,0,0-.45,2v.67a5.35,5.35,0,0,0,.45,2.27,3.7,3.7,0,0,0,4.61,1.79,3,3,0,0,0,1-.65,2.78,2.78,0,0,0,.6-.9l1.2.39a3.46,3.46,0,0,1-.81,1.28,4.33,4.33,0,0,1-1.41.93A5,5,0,0,1,611,557Z"/><path class="cls-1" d="M618.16,556.73V545.82h1.23v1.68h.09a2.76,2.76,0,0,1,1.14-1.33,3.4,3.4,0,0,1,1.84-.51h.67V547l-.3,0a3.23,3.23,0,0,0-.46,0,3.09,3.09,0,0,0-1.51.36,2.51,2.51,0,0,0-1.05,1,2.68,2.68,0,0,0-.39,1.44v7Z"/><path class="cls-1" d="M630.27,545.82v1.11h-5.21v-1.11Zm-3.58-2.61H628v10.68a2.08,2.08,0,0,0,.23,1.06,1.36,1.36,0,0,0,.62.55,1.94,1.94,0,0,0,.8.16,2.5,2.5,0,0,0,.42,0,2.21,2.21,0,0,0,.32-.07l.27,1.15c-.13,0-.28.09-.46.13a3.13,3.13,0,0,1-.67.06,3.09,3.09,0,0,1-1.33-.31,2.65,2.65,0,0,1-1.06-.91,2.62,2.62,0,0,1-.41-1.5Z"/><path class="cls-1" d="M637.26,557a4.38,4.38,0,0,1-2.49-.72,4.85,4.85,0,0,1-1.7-2,7.39,7.39,0,0,1,0-5.88,4.82,4.82,0,0,1,1.7-2,4.74,4.74,0,0,1,5,0,4.86,4.86,0,0,1,1.69,2,6.7,6.7,0,0,1,.62,3,6.79,6.79,0,0,1-.61,2.93,4.85,4.85,0,0,1-1.7,2A4.39,4.39,0,0,1,637.26,557Zm0-1.16a3,3,0,0,0,1.93-.61,3.81,3.81,0,0,0,1.2-1.62,6.5,6.5,0,0,0,0-4.49,3.94,3.94,0,0,0-1.2-1.64,3.34,3.34,0,0,0-3.85,0,4,4,0,0,0-1.2,1.64,6.35,6.35,0,0,0,0,4.49,3.9,3.9,0,0,0,1.2,1.62A3,3,0,0,0,637.26,555.8Z"/><circle class="cls-2" cx="363.12" cy="703.16" r="135.63"/><path class="cls-1" d="M349,688.1l-1.16.32a3.4,3.4,0,0,0-.48-.88,2.19,2.19,0,0,0-.82-.64,3,3,0,0,0-1.24-.23,2.94,2.94,0,0,0-1.81.52,1.62,1.62,0,0,0-.72,1.36,1.47,1.47,0,0,0,.49,1.14,3.62,3.62,0,0,0,1.5.69l1.65.41a4,4,0,0,1,2.06,1.06,2.56,2.56,0,0,1,.68,1.81,2.78,2.78,0,0,1-.51,1.65,3.42,3.42,0,0,1-1.42,1.12,5.21,5.21,0,0,1-2.12.41,4.51,4.51,0,0,1-2.63-.72,3.29,3.29,0,0,1-1.33-2.09l1.22-.29a2.45,2.45,0,0,0,.92,1.47,3,3,0,0,0,1.8.49,3.3,3.3,0,0,0,2-.56,1.7,1.7,0,0,0,.76-1.42,1.54,1.54,0,0,0-.44-1.11,2.72,2.72,0,0,0-1.34-.66l-1.78-.43a4.16,4.16,0,0,1-2.11-1.08,2.61,2.61,0,0,1-.68-1.83A2.72,2.72,0,0,1,342,687a3.31,3.31,0,0,1,1.35-1.08,4.73,4.73,0,0,1,2-.39,3.91,3.91,0,0,1,2.4.68A3.8,3.8,0,0,1,349,688.1Z"/><path class="cls-1" d="M356.21,685.7v1.1H351v-1.1Zm-3.58-2.61h1.27v10.67a2,2,0,0,0,.24,1.07,1.29,1.29,0,0,0,.61.55,1.94,1.94,0,0,0,.8.16,2.5,2.5,0,0,0,.42,0l.32-.07.27,1.14c-.13,0-.28.09-.46.14a3.13,3.13,0,0,1-.67.06,3.09,3.09,0,0,1-1.33-.31,2.65,2.65,0,0,1-1.06-.91,2.62,2.62,0,0,1-.41-1.5Z"/><path class="cls-1" d="M366,692.44V685.7h1.26v10.91H366V694.8h-.1a3.37,3.37,0,0,1-1.21,1.4,3.61,3.61,0,0,1-2,.55,3.77,3.77,0,0,1-1.86-.45,3.25,3.25,0,0,1-1.27-1.35,4.66,4.66,0,0,1-.46-2.18V685.7h1.26v7a2.85,2.85,0,0,0,.75,2.06,2.59,2.59,0,0,0,1.94.78,3,3,0,0,0,1.42-.36,2.93,2.93,0,0,0,1.12-1A3.1,3.1,0,0,0,366,692.44Z"/><path class="cls-1" d="M375.1,685.7v1.1h-5.36v-1.1Zm-3.68,10.91V684.1a2.6,2.6,0,0,1,.4-1.48,2.65,2.65,0,0,1,1.07-.92,3.36,3.36,0,0,1,1.4-.31,3.82,3.82,0,0,1,.83.08l.52.16-.37,1.11-.35-.1a1.9,1.9,0,0,0-.52,0,1.68,1.68,0,0,0-1.27.46,1.83,1.83,0,0,0-.44,1.32v12.24Z"/><path class="cls-1" d="M380.39,696.86a4.1,4.1,0,0,1-1.8-.39,3,3,0,0,1-1.3-1.12,3.18,3.18,0,0,1-.48-1.78,2.86,2.86,0,0,1,.3-1.37,2.44,2.44,0,0,1,.87-.91,4.93,4.93,0,0,1,1.33-.56,12.41,12.41,0,0,1,1.69-.32l1.55-.2a2.63,2.63,0,0,0,1-.27.62.62,0,0,0,.33-.59v-.26a2.35,2.35,0,0,0-.66-1.76,2.64,2.64,0,0,0-1.91-.64,3.23,3.23,0,0,0-1.92.52,2.79,2.79,0,0,0-1,1.22l-1.2-.43a3.48,3.48,0,0,1,1-1.43,4.13,4.13,0,0,1,1.46-.78,5.78,5.78,0,0,1,1.65-.24,5.53,5.53,0,0,1,1.3.17,3.75,3.75,0,0,1,1.26.56,2.9,2.9,0,0,1,.94,1.12,3.84,3.84,0,0,1,.37,1.8v7.41h-1.27v-1.72h-.08a3.3,3.3,0,0,1-.67.93,3.34,3.34,0,0,1-1.12.75A4.07,4.07,0,0,1,380.39,696.86Zm.17-1.16a3.37,3.37,0,0,0,1.75-.44,3.17,3.17,0,0,0,1.14-1.19,3.37,3.37,0,0,0,.4-1.64v-1.58a1.19,1.19,0,0,1-.47.24,5.61,5.61,0,0,1-.76.19c-.29.06-.57.1-.86.14l-.76.1a7.3,7.3,0,0,0-1.58.35,2.35,2.35,0,0,0-1,.67,1.65,1.65,0,0,0-.35,1.08,1.84,1.84,0,0,0,.71,1.54A2.86,2.86,0,0,0,380.56,695.7Z"/><path class="cls-1" d="M334.26,720.86a4.1,4.1,0,0,1-1.8-.39,3,3,0,0,1-1.3-1.12,3.1,3.1,0,0,1-.49-1.78,2.75,2.75,0,0,1,.31-1.37,2.49,2.49,0,0,1,.86-.91,5.22,5.22,0,0,1,1.33-.56,12.71,12.71,0,0,1,1.69-.32l1.56-.2a2.51,2.51,0,0,0,1-.27.62.62,0,0,0,.34-.59v-.26a2.32,2.32,0,0,0-.67-1.76,2.6,2.6,0,0,0-1.9-.64,3.23,3.23,0,0,0-1.92.52,2.73,2.73,0,0,0-1,1.22L331,712a3.39,3.39,0,0,1,1-1.43,4,4,0,0,1,1.46-.78,5.76,5.76,0,0,1,1.64-.24,5.61,5.61,0,0,1,1.31.17,3.75,3.75,0,0,1,1.26.56,3,3,0,0,1,.94,1.12,4,4,0,0,1,.36,1.8v7.41h-1.26v-1.72h-.08a3.51,3.51,0,0,1-.67.93,3.38,3.38,0,0,1-1.13.75A4,4,0,0,1,334.26,720.86Zm.17-1.16a3.42,3.42,0,0,0,1.75-.44,3.17,3.17,0,0,0,1.14-1.19,3.37,3.37,0,0,0,.4-1.64v-1.58a1.27,1.27,0,0,1-.47.24,6,6,0,0,1-.76.19c-.29.06-.57.1-.86.14l-.77.1a7.34,7.34,0,0,0-1.57.35,2.35,2.35,0,0,0-1,.67,1.6,1.6,0,0,0-.35,1.08,1.81,1.81,0,0,0,.71,1.54A2.86,2.86,0,0,0,334.43,719.7Z"/><path class="cls-1" d="M349.23,706.07v14.54H348V706.07Z"/><path class="cls-1" d="M357,720.84a4.82,4.82,0,0,1-2.64-.71,4.65,4.65,0,0,1-1.72-2,6.6,6.6,0,0,1-.61-2.92,6.71,6.71,0,0,1,.61-2.93,4.89,4.89,0,0,1,1.68-2,4.37,4.37,0,0,1,2.49-.73,4.56,4.56,0,0,1,1.71.33,4.21,4.21,0,0,1,1.48,1,4.84,4.84,0,0,1,1,1.67,6.6,6.6,0,0,1,.38,2.38v.62h-8.52v-1.11h7.23a4.17,4.17,0,0,0-.42-1.89,3.39,3.39,0,0,0-1.17-1.34,3.15,3.15,0,0,0-1.73-.49,3.12,3.12,0,0,0-1.83.56,3.9,3.9,0,0,0-1.23,1.46,4.44,4.44,0,0,0-.45,2v.67a5.38,5.38,0,0,0,.45,2.27,3.55,3.55,0,0,0,1.28,1.5,3.63,3.63,0,0,0,2,.53,3.55,3.55,0,0,0,1.36-.24,3,3,0,0,0,1-.65,2.78,2.78,0,0,0,.6-.9l1.2.39a3.35,3.35,0,0,1-.81,1.27,4.25,4.25,0,0,1-1.4.94A5.12,5.12,0,0,1,357,720.84Z"/><path class="cls-1" d="M368.34,724.93a6.06,6.06,0,0,1-1.95-.29,4.16,4.16,0,0,1-1.41-.78,3.65,3.65,0,0,1-.9-1.12l1-.68a3.29,3.29,0,0,0,.63.81,2.86,2.86,0,0,0,1,.66,4,4,0,0,0,1.56.26,3.59,3.59,0,0,0,2.34-.72,2.7,2.7,0,0,0,.89-2.25v-2.46h-.11a4.55,4.55,0,0,1-.63,1,3.25,3.25,0,0,1-1.08.82,3.66,3.66,0,0,1-1.64.33,4.22,4.22,0,0,1-2.32-.65A4.38,4.38,0,0,1,364.2,718a6.5,6.5,0,0,1-.58-2.87,7.16,7.16,0,0,1,.56-2.91,4.69,4.69,0,0,1,1.58-2,4.07,4.07,0,0,1,2.37-.71,3.43,3.43,0,0,1,1.66.36,3.06,3.06,0,0,1,1.06.87,5.13,5.13,0,0,1,.63,1h.13V709.7h1.24v11.2a4.11,4.11,0,0,1-.59,2.28,3.6,3.6,0,0,1-1.61,1.32A5.84,5.84,0,0,1,368.34,724.93Zm-.08-5.59a3.07,3.07,0,0,0,1.79-.51,3.21,3.21,0,0,0,1.15-1.46,5.93,5.93,0,0,0,.4-2.26,6.17,6.17,0,0,0-.39-2.27,3.61,3.61,0,0,0-1.14-1.56,2.88,2.88,0,0,0-1.81-.58,2.93,2.93,0,0,0-1.85.59,3.74,3.74,0,0,0-1.14,1.59,6.32,6.32,0,0,0-.38,2.23,5.76,5.76,0,0,0,.39,2.2,3.26,3.26,0,0,0,1.14,1.49A3.1,3.1,0,0,0,368.26,719.34Z"/><path class="cls-1" d="M377.46,713.79v6.82H376.2V709.7h1.23v1.71h.11a3.09,3.09,0,0,1,1.2-1.34,3.7,3.7,0,0,1,2-.51,4,4,0,0,1,1.94.46,3.2,3.2,0,0,1,1.3,1.35,4.63,4.63,0,0,1,.46,2.18v7.06h-1.26v-7a2.94,2.94,0,0,0-.75-2.12,2.66,2.66,0,0,0-2-.78,3.09,3.09,0,0,0-1.53.37,2.68,2.68,0,0,0-1,1.06A3.29,3.29,0,0,0,377.46,713.79Z"/><path class="cls-1" d="M390.84,720.86a4.17,4.17,0,0,1-1.81-.39,3.08,3.08,0,0,1-1.3-1.12,3.18,3.18,0,0,1-.48-1.78,2.86,2.86,0,0,1,.3-1.37,2.61,2.61,0,0,1,.87-.91,5.22,5.22,0,0,1,1.33-.56,12.41,12.41,0,0,1,1.69-.32l1.55-.2a2.51,2.51,0,0,0,1-.27.62.62,0,0,0,.33-.59v-.26a2.35,2.35,0,0,0-.66-1.76,2.63,2.63,0,0,0-1.91-.64,3.27,3.27,0,0,0-1.92.52,2.86,2.86,0,0,0-1,1.22l-1.2-.43a3.57,3.57,0,0,1,1-1.43,4.17,4.17,0,0,1,1.47-.78,5.71,5.71,0,0,1,1.64-.24,5.53,5.53,0,0,1,1.3.17,3.75,3.75,0,0,1,1.26.56,2.92,2.92,0,0,1,.95,1.12,4,4,0,0,1,.36,1.8v7.41h-1.27v-1.72h-.07a3.56,3.56,0,0,1-.68.93,3.34,3.34,0,0,1-1.12.75A4,4,0,0,1,390.84,720.86Zm.17-1.16a3.36,3.36,0,0,0,1.74-.44,3,3,0,0,0,1.14-1.19,3.37,3.37,0,0,0,.4-1.64v-1.58a1.19,1.19,0,0,1-.47.24,5.61,5.61,0,0,1-.76.19c-.28.06-.57.1-.85.14l-.77.1a7.44,7.44,0,0,0-1.58.35,2.41,2.41,0,0,0-1,.67,1.65,1.65,0,0,0-.35,1.08,1.84,1.84,0,0,0,.71,1.54A2.89,2.89,0,0,0,391,719.7Z"/><path d="M509.13,79.74l-1.15.32a3.16,3.16,0,0,0-.49-.88,2.24,2.24,0,0,0-.81-.64,3.45,3.45,0,0,0-3.06.29,1.64,1.64,0,0,0-.71,1.36,1.44,1.44,0,0,0,.49,1.14,3.5,3.5,0,0,0,1.5.69l1.65.41a4,4,0,0,1,2.05,1.06,2.52,2.52,0,0,1,.69,1.81,2.78,2.78,0,0,1-.51,1.65,3.45,3.45,0,0,1-1.43,1.12,5.12,5.12,0,0,1-2.11.41,4.51,4.51,0,0,1-2.63-.72,3.25,3.25,0,0,1-1.33-2.09l1.21-.29a2.55,2.55,0,0,0,.92,1.47,3,3,0,0,0,1.81.49,3.3,3.3,0,0,0,2-.56,1.72,1.72,0,0,0,.75-1.42,1.5,1.5,0,0,0-.44-1.11,2.68,2.68,0,0,0-1.33-.66l-1.79-.43a4.17,4.17,0,0,1-2.1-1.08,2.61,2.61,0,0,1-.68-1.83,2.65,2.65,0,0,1,.49-1.59,3.31,3.31,0,0,1,1.35-1.08,4.7,4.7,0,0,1,2-.39,3.91,3.91,0,0,1,2.4.68A3.72,3.72,0,0,1,509.13,79.74Z"/><path d="M516.36,77.34v1.1h-5.21v-1.1Zm-3.58-2.61h1.27V85.4a2.13,2.13,0,0,0,.23,1.07,1.34,1.34,0,0,0,.61.55,2,2,0,0,0,.81.16,2.58,2.58,0,0,0,.42,0l.31-.07.27,1.14a2.77,2.77,0,0,1-.45.13,2.55,2.55,0,0,1-.67.07,3.17,3.17,0,0,1-1.34-.31,2.53,2.53,0,0,1-1.46-2.41Z"/><path d="M526.16,84.08V77.34h1.26V88.25h-1.26V86.44h-.1a3.4,3.4,0,0,1-1.22,1.4,3.56,3.56,0,0,1-2,.55,3.75,3.75,0,0,1-1.85-.45,3.19,3.19,0,0,1-1.27-1.35,4.65,4.65,0,0,1-.47-2.18V77.34h1.27v7a2.85,2.85,0,0,0,.75,2.06,2.57,2.57,0,0,0,1.93.78,3.06,3.06,0,0,0,2.55-1.4A3.1,3.1,0,0,0,526.16,84.08Z"/><path d="M535.25,77.34v1.1h-5.36v-1.1Zm-3.69,10.91V75.74a2.6,2.6,0,0,1,.41-1.48,2.65,2.65,0,0,1,1.07-.92,3.36,3.36,0,0,1,1.4-.31,3.82,3.82,0,0,1,.83.08l.52.16-.37,1.11-.35-.1a2,2,0,0,0-.52,0,1.68,1.68,0,0,0-1.27.46,1.79,1.79,0,0,0-.45,1.32V88.25Z"/><path d="M540.54,88.5a4.1,4.1,0,0,1-1.8-.39,3,3,0,0,1-1.3-1.12,3.1,3.1,0,0,1-.49-1.78,2.75,2.75,0,0,1,.31-1.37,2.44,2.44,0,0,1,.87-.91,5,5,0,0,1,1.32-.56,12.71,12.71,0,0,1,1.69-.32l1.56-.2a2.51,2.51,0,0,0,1-.27A.62.62,0,0,0,544,81v-.26a2.32,2.32,0,0,0-.67-1.76,2.6,2.6,0,0,0-1.9-.64,3.23,3.23,0,0,0-1.92.52,2.73,2.73,0,0,0-1,1.22l-1.2-.43a3.39,3.39,0,0,1,1-1.43,4,4,0,0,1,1.46-.78,5.76,5.76,0,0,1,1.64-.24,5.61,5.61,0,0,1,1.31.17,3.75,3.75,0,0,1,1.26.56A3,3,0,0,1,544.9,79a4,4,0,0,1,.36,1.8v7.41H544V86.53h-.08a3.51,3.51,0,0,1-.67.93,3.38,3.38,0,0,1-1.13.75A4,4,0,0,1,540.54,88.5Zm.17-1.16a3.39,3.39,0,0,0,1.75-.44,3.17,3.17,0,0,0,1.14-1.19,3.49,3.49,0,0,0,.4-1.64V82.49a1.27,1.27,0,0,1-.47.24,6,6,0,0,1-.76.19c-.29.06-.58.1-.86.14l-.77.1a7.34,7.34,0,0,0-1.57.35,2.45,2.45,0,0,0-1,.67,1.64,1.64,0,0,0-.34,1.08,1.81,1.81,0,0,0,.71,1.54A2.84,2.84,0,0,0,540.71,87.34Z"/><path d="M557.29,88.5a4.13,4.13,0,0,1-1.8-.39,3.08,3.08,0,0,1-1.3-1.12,3.18,3.18,0,0,1-.48-1.78,2.86,2.86,0,0,1,.3-1.37,2.61,2.61,0,0,1,.87-.91,5.07,5.07,0,0,1,1.33-.56,12.41,12.41,0,0,1,1.69-.32l1.55-.2a2.57,2.57,0,0,0,1-.27.62.62,0,0,0,.33-.59v-.26a2.35,2.35,0,0,0-.66-1.76,2.63,2.63,0,0,0-1.91-.64,3.27,3.27,0,0,0-1.92.52,2.86,2.86,0,0,0-1,1.22l-1.2-.43a3.57,3.57,0,0,1,1-1.43,4.17,4.17,0,0,1,1.47-.78,5.71,5.71,0,0,1,1.64-.24,5.53,5.53,0,0,1,1.3.17,3.75,3.75,0,0,1,1.26.56,2.9,2.9,0,0,1,.94,1.12,3.84,3.84,0,0,1,.37,1.8v7.41h-1.27V86.53h-.08a3.3,3.3,0,0,1-.67.93,3.34,3.34,0,0,1-1.12.75A4.07,4.07,0,0,1,557.29,88.5Zm.17-1.16a3.37,3.37,0,0,0,1.75-.44,3.17,3.17,0,0,0,1.14-1.19,3.37,3.37,0,0,0,.4-1.64V82.49a1.19,1.19,0,0,1-.47.24,5.61,5.61,0,0,1-.76.19c-.29.06-.57.1-.86.14l-.76.1a7.44,7.44,0,0,0-1.58.35,2.41,2.41,0,0,0-1,.67,1.65,1.65,0,0,0-.35,1.08,1.84,1.84,0,0,0,.71,1.54A2.86,2.86,0,0,0,557.46,87.34Z"/><path d="M571,92.34v-15h1.23v2.08h.15a5.57,5.57,0,0,1,.62-1,3.27,3.27,0,0,1,2.72-1.23,4,4,0,0,1,2.36.71,4.63,4.63,0,0,1,1.57,2,8,8,0,0,1,0,5.92,4.6,4.6,0,0,1-1.57,2,4,4,0,0,1-2.35.71,3.41,3.41,0,0,1-1.65-.36,3.2,3.2,0,0,1-1.07-.87,4.79,4.79,0,0,1-.63-1h-.12v6.11Zm1.25-9.54a6.45,6.45,0,0,0,.39,2.34,3.7,3.7,0,0,0,1.14,1.6,3.1,3.1,0,0,0,3.64,0,3.72,3.72,0,0,0,1.14-1.62,6.41,6.41,0,0,0,.4-2.3,6.23,6.23,0,0,0-.39-2.26,3.66,3.66,0,0,0-1.14-1.6,2.87,2.87,0,0,0-1.85-.6,2.9,2.9,0,0,0-1.81.58,3.49,3.49,0,0,0-1.13,1.57A6.35,6.35,0,0,0,572.25,82.8Z"/><path d="M587.41,88.48a4.88,4.88,0,0,1-2.65-.71,4.78,4.78,0,0,1-1.72-2,6.74,6.74,0,0,1-.6-2.92,6.85,6.85,0,0,1,.6-2.93,5,5,0,0,1,1.69-2,4.35,4.35,0,0,1,2.49-.73,4.56,4.56,0,0,1,1.71.33,4.21,4.21,0,0,1,1.48,1,4.84,4.84,0,0,1,1,1.67,6.83,6.83,0,0,1,.38,2.38v.62h-8.52V82.06h7.23a4.17,4.17,0,0,0-.42-1.89,3.42,3.42,0,0,0-1.18-1.34,3.27,3.27,0,0,0-3.55.07,3.72,3.72,0,0,0-1.23,1.46,4.44,4.44,0,0,0-.45,2V83a5.38,5.38,0,0,0,.45,2.27,3.55,3.55,0,0,0,1.28,1.5,3.94,3.94,0,0,0,3.33.29,2.85,2.85,0,0,0,1-.65,2.81,2.81,0,0,0,.61-.9l1.2.39a3.35,3.35,0,0,1-.81,1.27,4.3,4.3,0,0,1-1.41.94A5,5,0,0,1,587.41,88.48Z"/><path d="M595.87,73.71V88.25h-1.26V73.71Z"/><path d="M600.47,73.71V88.25h-1.26V73.71Z"/><path d="M608.22,88.48a4.85,4.85,0,0,1-2.64-.71,4.71,4.71,0,0,1-1.72-2,6.6,6.6,0,0,1-.61-2.92,6.71,6.71,0,0,1,.61-2.93,4.89,4.89,0,0,1,1.68-2,4.39,4.39,0,0,1,2.49-.73,4.56,4.56,0,0,1,1.71.33,4.12,4.12,0,0,1,1.48,1,4.7,4.7,0,0,1,1,1.67,6.6,6.6,0,0,1,.39,2.38v.62h-8.52V82.06h7.22a4.17,4.17,0,0,0-.42-1.89,3.32,3.32,0,0,0-1.17-1.34,3.15,3.15,0,0,0-1.73-.49,3.07,3.07,0,0,0-1.82.56A3.83,3.83,0,0,0,605,80.36a4.72,4.72,0,0,0-.45,2V83a5.38,5.38,0,0,0,.45,2.27,3.51,3.51,0,0,0,1.29,1.5,3.59,3.59,0,0,0,2,.53,3.55,3.55,0,0,0,1.36-.24,3,3,0,0,0,1-.65,2.81,2.81,0,0,0,.61-.9l1.2.39a3.5,3.5,0,0,1-.82,1.27,4.15,4.15,0,0,1-1.4.94A5.09,5.09,0,0,1,608.22,88.48Z"/><path d="M619.72,77.34v1.1h-5.21v-1.1Zm-3.58-2.61h1.27V85.4a2,2,0,0,0,.24,1.07,1.29,1.29,0,0,0,.61.55,2,2,0,0,0,.8.16,2.63,2.63,0,0,0,.43,0l.31-.07.27,1.14a2.92,2.92,0,0,1-.46.13,2.52,2.52,0,0,1-.66.07,3.13,3.13,0,0,1-1.34-.31,2.65,2.65,0,0,1-1.06-.91,2.62,2.62,0,0,1-.41-1.5Z"/><path d="M520.06,154.21a4.49,4.49,0,0,1-2.54-.73,4.89,4.89,0,0,1-1.68-2,6.67,6.67,0,0,1-.6-2.89,6.77,6.77,0,0,1,.61-2.92,4.92,4.92,0,0,1,1.69-2,4.4,4.4,0,0,1,2.5-.73,4.5,4.5,0,0,1,2,.43,3.84,3.84,0,0,1,1.46,1.18,3.77,3.77,0,0,1,.73,1.78h-1.28a2.87,2.87,0,0,0-1-1.58,2.84,2.84,0,0,0-1.93-.66,3.09,3.09,0,0,0-1.84.57,3.65,3.65,0,0,0-1.25,1.57,5.46,5.46,0,0,0-.46,2.32,5.76,5.76,0,0,0,.45,2.35,3.76,3.76,0,0,0,1.23,1.6,3.16,3.16,0,0,0,1.87.57,3.19,3.19,0,0,0,1.33-.27,2.78,2.78,0,0,0,1-.78,2.88,2.88,0,0,0,.55-1.2h1.28a4,4,0,0,1-.7,1.76,4,4,0,0,1-1.44,1.21A4.56,4.56,0,0,1,520.06,154.21Z"/><path d="M530,154.23a4.1,4.1,0,0,1-1.8-.39,3.09,3.09,0,0,1-1.3-1.12,3.14,3.14,0,0,1-.49-1.79,2.71,2.71,0,0,1,.31-1.36,2.49,2.49,0,0,1,.86-.91,5.22,5.22,0,0,1,1.33-.56,12.71,12.71,0,0,1,1.69-.32l1.56-.2a2.51,2.51,0,0,0,1-.27.62.62,0,0,0,.34-.59v-.26a2.32,2.32,0,0,0-.67-1.76,2.6,2.6,0,0,0-1.9-.64,3.23,3.23,0,0,0-1.92.52,2.73,2.73,0,0,0-1,1.22l-1.2-.43a3.49,3.49,0,0,1,1-1.44,4.18,4.18,0,0,1,1.46-.77,5.76,5.76,0,0,1,1.64-.24,5.61,5.61,0,0,1,1.31.17,3.75,3.75,0,0,1,1.26.56,3,3,0,0,1,.94,1.12,4,4,0,0,1,.36,1.8V154h-1.26v-1.72h-.08a3.49,3.49,0,0,1-1.8,1.68A4,4,0,0,1,530,154.23Zm.17-1.16a3.33,3.33,0,0,0,1.75-.45,3,3,0,0,0,1.14-1.19,3.45,3.45,0,0,0,.4-1.63v-1.58a1.27,1.27,0,0,1-.47.24,6,6,0,0,1-.76.19c-.29.06-.57.1-.86.14l-.77.1a6.78,6.78,0,0,0-1.57.35,2.26,2.26,0,0,0-1,.67,1.6,1.6,0,0,0-.35,1.08,1.81,1.81,0,0,0,.71,1.54A2.86,2.86,0,0,0,530.15,153.07Z"/><path d="M539.33,139.44V154h-1.27V139.44Z"/><path d="M546.59,154.21a4,4,0,0,1-2.35-.71,4.72,4.72,0,0,1-1.57-2,8,8,0,0,1,0-5.92,4.58,4.58,0,0,1,1.58-2,4,4,0,0,1,2.36-.71,3.55,3.55,0,0,1,1.66.35,3.42,3.42,0,0,1,1.06.87,5.32,5.32,0,0,1,.61,1h.12v-5.71h1.27V154h-1.24v-2h-.15a4.72,4.72,0,0,1-.62,1,3.32,3.32,0,0,1-1.07.87A3.46,3.46,0,0,1,546.59,154.21Zm.15-1.16a2.84,2.84,0,0,0,1.81-.58,3.6,3.6,0,0,0,1.13-1.6,7,7,0,0,0,0-4.65,3.51,3.51,0,0,0-1.14-1.57,3.12,3.12,0,0,0-3.65,0,3.66,3.66,0,0,0-1.14,1.6,6.23,6.23,0,0,0-.39,2.26,6.41,6.41,0,0,0,.39,2.3,3.81,3.81,0,0,0,1.14,1.62A2.87,2.87,0,0,0,546.74,153.05Z"/><path d="M558,154.23a4.17,4.17,0,0,1-1.81-.39,3.15,3.15,0,0,1-1.3-1.12,3.21,3.21,0,0,1-.48-1.79,2.71,2.71,0,0,1,.31-1.36,2.49,2.49,0,0,1,.86-.91,5.22,5.22,0,0,1,1.33-.56,12.71,12.71,0,0,1,1.69-.32l1.55-.2a2.57,2.57,0,0,0,1-.27.63.63,0,0,0,.34-.59v-.26a2.36,2.36,0,0,0-.67-1.76,2.63,2.63,0,0,0-1.91-.64,3.27,3.27,0,0,0-1.92.52,2.86,2.86,0,0,0-1,1.22l-1.2-.43a3.68,3.68,0,0,1,1-1.44,4.32,4.32,0,0,1,1.47-.77,5.71,5.71,0,0,1,1.64-.24,5.46,5.46,0,0,1,1.3.17,3.75,3.75,0,0,1,1.26.56,2.92,2.92,0,0,1,1,1.12,4,4,0,0,1,.36,1.8V154h-1.26v-1.72h-.08a3.35,3.35,0,0,1-.68.93,3.49,3.49,0,0,1-1.12.75A4,4,0,0,1,558,154.23Zm.17-1.16a3.27,3.27,0,0,0,1.74-.45,2.9,2.9,0,0,0,1.14-1.19,3.34,3.34,0,0,0,.41-1.63v-1.58a1.33,1.33,0,0,1-.48.24,5.61,5.61,0,0,1-.76.19c-.28.06-.57.1-.85.14l-.77.1a7,7,0,0,0-1.58.35,2.32,2.32,0,0,0-1,.67,1.65,1.65,0,0,0-.35,1.08,1.84,1.84,0,0,0,.71,1.54A2.89,2.89,0,0,0,558.15,153.07Z"/><path d="M566.72,141.2a.94.94,0,0,1-.67-.27.88.88,0,0,1-.28-.64.86.86,0,0,1,.28-.64,1,1,0,0,1,1.34,0,.85.85,0,0,1,.27.64.87.87,0,0,1-.27.64A.94.94,0,0,1,566.72,141.2ZM566.07,154V143.07h1.27V154Z"/><path d="M573.74,154.23a4.13,4.13,0,0,1-1.8-.39,3.09,3.09,0,0,1-1.3-1.12,3.21,3.21,0,0,1-.48-1.79,2.82,2.82,0,0,1,.3-1.36,2.61,2.61,0,0,1,.87-.91,4.93,4.93,0,0,1,1.33-.56,12.41,12.41,0,0,1,1.69-.32l1.55-.2a2.57,2.57,0,0,0,1-.27.62.62,0,0,0,.33-.59v-.26a2.35,2.35,0,0,0-.66-1.76,2.63,2.63,0,0,0-1.91-.64,3.27,3.27,0,0,0-1.92.52,2.86,2.86,0,0,0-1,1.22l-1.2-.43a3.68,3.68,0,0,1,1-1.44,4.32,4.32,0,0,1,1.47-.77,5.66,5.66,0,0,1,1.64-.24,5.53,5.53,0,0,1,1.3.17,3.75,3.75,0,0,1,1.26.56,2.9,2.9,0,0,1,.94,1.12,3.82,3.82,0,0,1,.37,1.8V154H577.2v-1.72h-.08a3.3,3.3,0,0,1-.67.93,3.49,3.49,0,0,1-1.12.75A4.07,4.07,0,0,1,573.74,154.23Zm.17-1.16a3.28,3.28,0,0,0,1.75-.45,3,3,0,0,0,1.14-1.19,3.34,3.34,0,0,0,.4-1.63v-1.58a1.19,1.19,0,0,1-.47.24,5.61,5.61,0,0,1-.76.19c-.29.06-.57.1-.86.14l-.76.1a6.87,6.87,0,0,0-1.58.35,2.26,2.26,0,0,0-1,.67,1.65,1.65,0,0,0-.35,1.08,1.84,1.84,0,0,0,.71,1.54A2.86,2.86,0,0,0,573.91,153.07Z"/><path d="M590.5,154.23a4.17,4.17,0,0,1-1.81-.39,3,3,0,0,1-1.78-2.91,2.71,2.71,0,0,1,.31-1.36,2.49,2.49,0,0,1,.86-.91,5.22,5.22,0,0,1,1.33-.56,12.71,12.71,0,0,1,1.69-.32l1.55-.2a2.51,2.51,0,0,0,1-.27.63.63,0,0,0,.34-.59v-.26a2.36,2.36,0,0,0-.67-1.76,2.62,2.62,0,0,0-1.9-.64,3.28,3.28,0,0,0-1.93.52,2.86,2.86,0,0,0-1,1.22l-1.2-.43a3.6,3.6,0,0,1,1-1.44,4.18,4.18,0,0,1,1.46-.77,5.76,5.76,0,0,1,1.64-.24,5.46,5.46,0,0,1,1.3.17,3.58,3.58,0,0,1,1.26.56,2.92,2.92,0,0,1,1,1.12,4,4,0,0,1,.36,1.8V154H594v-1.72h-.08a3.35,3.35,0,0,1-.68.93,3.49,3.49,0,0,1-1.12.75A4,4,0,0,1,590.5,154.23Zm.17-1.16a3.27,3.27,0,0,0,1.74-.45,2.9,2.9,0,0,0,1.14-1.19,3.34,3.34,0,0,0,.41-1.63v-1.58a1.33,1.33,0,0,1-.48.24,5.61,5.61,0,0,1-.76.19c-.28.06-.57.1-.85.14l-.77.1a7,7,0,0,0-1.58.35,2.38,2.38,0,0,0-1,.67,1.64,1.64,0,0,0-.34,1.08,1.81,1.81,0,0,0,.71,1.54A2.84,2.84,0,0,0,590.67,153.07Z"/><path d="M608.37,158.3a6.08,6.08,0,0,1-2-.29,4.16,4.16,0,0,1-1.41-.78,3.76,3.76,0,0,1-.89-1.12l1-.68a4.45,4.45,0,0,0,.63.81,3.26,3.26,0,0,0,1,.66,4,4,0,0,0,1.57.26,3.63,3.63,0,0,0,2.34-.72,2.73,2.73,0,0,0,.89-2.25v-2.46h-.12a3.9,3.9,0,0,1-.63,1,3.21,3.21,0,0,1-1.07.82,3.7,3.7,0,0,1-1.65.33,4.24,4.24,0,0,1-2.32-.65,4.45,4.45,0,0,1-1.59-1.85,6.65,6.65,0,0,1-.58-2.87,7,7,0,0,1,.57-2.91,4.49,4.49,0,0,1,1.58-2,4,4,0,0,1,2.36-.71,3.52,3.52,0,0,1,1.66.35,3.35,3.35,0,0,1,1.07.87,6.84,6.84,0,0,1,.63,1h.12v-2.08h1.24v11.2a4.11,4.11,0,0,1-.59,2.28,3.55,3.55,0,0,1-1.61,1.32A5.75,5.75,0,0,1,608.37,158.3Zm-.09-5.59a3.12,3.12,0,0,0,1.8-.51,3.19,3.19,0,0,0,1.14-1.46,5.74,5.74,0,0,0,.4-2.26,6.13,6.13,0,0,0-.39-2.27,3.59,3.59,0,0,0-1.13-1.56,2.85,2.85,0,0,0-1.82-.58,3,3,0,0,0-1.85.59,3.64,3.64,0,0,0-1.13,1.59,6.1,6.1,0,0,0-.39,2.23,6,6,0,0,0,.39,2.2,3.35,3.35,0,0,0,1.15,1.49A3,3,0,0,0,608.28,152.71Z"/><path d="M619.27,154.23a4.1,4.1,0,0,1-1.8-.39,3.18,3.18,0,0,1-1.31-1.12,3.21,3.21,0,0,1-.48-1.79,2.71,2.71,0,0,1,.31-1.36,2.49,2.49,0,0,1,.86-.91,5.22,5.22,0,0,1,1.33-.56,12.71,12.71,0,0,1,1.69-.32l1.55-.2a2.51,2.51,0,0,0,1-.27.62.62,0,0,0,.34-.59v-.26a2.32,2.32,0,0,0-.67-1.76,2.62,2.62,0,0,0-1.9-.64,3.28,3.28,0,0,0-1.93.52,2.86,2.86,0,0,0-1,1.22l-1.2-.43a3.6,3.6,0,0,1,1-1.44,4.18,4.18,0,0,1,1.46-.77,5.76,5.76,0,0,1,1.64-.24,5.46,5.46,0,0,1,1.3.17,3.58,3.58,0,0,1,1.26.56,2.92,2.92,0,0,1,1,1.12,4,4,0,0,1,.36,1.8V154h-1.26v-1.72h-.08a3.35,3.35,0,0,1-.68.93,3.39,3.39,0,0,1-1.12.75A4,4,0,0,1,619.27,154.23Zm.17-1.16a3.33,3.33,0,0,0,1.75-.45,3,3,0,0,0,1.14-1.19,3.45,3.45,0,0,0,.4-1.63v-1.58a1.36,1.36,0,0,1-.47.24,5.78,5.78,0,0,1-.77.19c-.28.06-.57.1-.85.14l-.77.1a6.78,6.78,0,0,0-1.57.35,2.36,2.36,0,0,0-1,.67A1.64,1.64,0,0,0,617,151a1.81,1.81,0,0,0,.71,1.54A2.84,2.84,0,0,0,619.44,153.07Z"/><path d="M634.68,145.47l-1.16.32a3.07,3.07,0,0,0-.48-.89,2.33,2.33,0,0,0-.81-.63A3,3,0,0,0,631,144a3,3,0,0,0-1.82.52,1.64,1.64,0,0,0-.71,1.36,1.44,1.44,0,0,0,.49,1.14,3.5,3.5,0,0,0,1.5.69l1.65.41a4,4,0,0,1,2,1.06,2.51,2.51,0,0,1,.69,1.81,2.73,2.73,0,0,1-.51,1.64,3.45,3.45,0,0,1-1.43,1.13,5.16,5.16,0,0,1-2.11.41,4.52,4.52,0,0,1-2.64-.72,3.24,3.24,0,0,1-1.32-2.09l1.21-.3a2.44,2.44,0,0,0,.92,1.47,3,3,0,0,0,1.81.5,3.3,3.3,0,0,0,2-.56,1.72,1.72,0,0,0,.75-1.42,1.54,1.54,0,0,0-.44-1.11,2.68,2.68,0,0,0-1.34-.66l-1.78-.43a4.09,4.09,0,0,1-2.1-1.08,2.56,2.56,0,0,1-.68-1.83,2.65,2.65,0,0,1,.49-1.59,3.18,3.18,0,0,1,1.35-1.08,4.66,4.66,0,0,1,2-.39,3.91,3.91,0,0,1,2.4.68A3.79,3.79,0,0,1,634.68,145.47Z"/><path d="M641.85,154.21a4.39,4.39,0,0,1-2.5-.72,4.82,4.82,0,0,1-1.69-2,7.39,7.39,0,0,1,0-5.88,4.73,4.73,0,0,1,1.69-2,4.68,4.68,0,0,1,5,0,4.86,4.86,0,0,1,1.69,2,6.7,6.7,0,0,1,.62,3,6.82,6.82,0,0,1-.61,2.93,4.92,4.92,0,0,1-1.7,2A4.38,4.38,0,0,1,641.85,154.21Zm0-1.16a3,3,0,0,0,1.92-.61,3.76,3.76,0,0,0,1.2-1.63,5.94,5.94,0,0,0,.41-2.23,6,6,0,0,0-.41-2.25,3.79,3.79,0,0,0-1.2-1.64,3.28,3.28,0,0,0-3.84,0,3.9,3.9,0,0,0-1.21,1.64,6,6,0,0,0-.4,2.25,5.94,5.94,0,0,0,.4,2.23,3.93,3.93,0,0,0,1.2,1.63A3,3,0,0,0,641.85,153.05Z"/><path d="M650.69,139.44V154h-1.27V139.44Z"/><path d="M654.69,141.2a.92.92,0,0,1-.67-.27.84.84,0,0,1-.28-.64.83.83,0,0,1,.28-.64.92.92,0,0,1,.67-.27.9.9,0,0,1,.66.27.83.83,0,0,1,.28.64.84.84,0,0,1-.28.64A.9.9,0,0,1,654.69,141.2ZM654,154V143.07h1.27V154Z"/><path d="M662.9,154.21a4.38,4.38,0,0,1-2.49-.72,4.92,4.92,0,0,1-1.7-2,7.39,7.39,0,0,1,0-5.88,4.82,4.82,0,0,1,1.7-2,4.68,4.68,0,0,1,5,0,4.86,4.86,0,0,1,1.69,2,7.28,7.28,0,0,1,0,5.88,4.82,4.82,0,0,1-1.69,2A4.39,4.39,0,0,1,662.9,154.21Zm0-1.16a3,3,0,0,0,1.93-.61,3.93,3.93,0,0,0,1.2-1.63,5.94,5.94,0,0,0,.4-2.23,6,6,0,0,0-.4-2.25,4,4,0,0,0-1.2-1.64,3.3,3.3,0,0,0-3.85,0,3.88,3.88,0,0,0-1.2,1.64,6,6,0,0,0-.41,2.25,5.94,5.94,0,0,0,.41,2.23,3.76,3.76,0,0,0,1.2,1.63A3,3,0,0,0,662.9,153.05Z"/><path d="M672.58,152l-.12.76c-.08.51-.2,1.08-.34,1.69s-.3,1.2-.46,1.76-.29,1-.4,1.33h-1q.09-.48.24-1.23t.3-1.65c.11-.6.2-1.22.29-1.86l.1-.8Z"/><path d="M515.8,178V167.07H517v1.68h.12a2.6,2.6,0,0,1,1.09-1.33,3.29,3.29,0,0,1,1.83-.49,3.1,3.1,0,0,1,1.86.53,3.15,3.15,0,0,1,1.09,1.45h.09a3,3,0,0,1,1.21-1.44,3.62,3.62,0,0,1,2-.54,3.08,3.08,0,0,1,2.4,1,3.93,3.93,0,0,1,.89,2.78V178h-1.27v-7.31a2.6,2.6,0,0,0-.66-1.94,2.38,2.38,0,0,0-1.74-.64,2.42,2.42,0,0,0-1.92.76,2.86,2.86,0,0,0-.68,2V178h-1.29v-7.42a2.56,2.56,0,0,0-.62-1.79,2.24,2.24,0,0,0-1.74-.68,2.49,2.49,0,0,0-1.35.37,2.6,2.6,0,0,0-1,1,3.2,3.2,0,0,0-.34,1.51v7Z"/><path d="M537.37,178.21a4.77,4.77,0,0,1-2.64-.72,4.63,4.63,0,0,1-1.72-2,6.6,6.6,0,0,1-.61-2.92,6.71,6.71,0,0,1,.61-2.93,4.89,4.89,0,0,1,1.68-2,4.39,4.39,0,0,1,2.49-.73,4.56,4.56,0,0,1,1.71.33,4.12,4.12,0,0,1,1.48,1,4.7,4.7,0,0,1,1,1.67,6.56,6.56,0,0,1,.39,2.38v.62h-8.52v-1.11h7.23a4.17,4.17,0,0,0-.43-1.89,3.32,3.32,0,0,0-1.17-1.34,3.15,3.15,0,0,0-1.73-.49,3.07,3.07,0,0,0-1.82.56,3.76,3.76,0,0,0-1.24,1.46,4.72,4.72,0,0,0-.45,2v.67a5.38,5.38,0,0,0,.45,2.27,3.51,3.51,0,0,0,1.29,1.5,3.59,3.59,0,0,0,2,.53,3.55,3.55,0,0,0,1.36-.24,3,3,0,0,0,1-.65,2.81,2.81,0,0,0,.61-.9l1.2.39a3.7,3.7,0,0,1-.81,1.27,4.3,4.3,0,0,1-1.41.94A5.09,5.09,0,0,1,537.37,178.21Z"/><path d="M548.87,167.07v1.1h-5.2v-1.1Zm-3.58-2.61h1.27v10.67a2,2,0,0,0,.24,1.07,1.29,1.29,0,0,0,.61.55,2,2,0,0,0,.8.16,2.63,2.63,0,0,0,.43,0l.31-.07.27,1.14a2.92,2.92,0,0,1-.46.13,3.29,3.29,0,0,1-2-.24,2.65,2.65,0,0,1-1.06-.91,2.62,2.62,0,0,1-.41-1.5Z"/><path d="M554.79,178.23a4.17,4.17,0,0,1-1.81-.39,3,3,0,0,1-1.78-2.91,2.71,2.71,0,0,1,.31-1.36,2.49,2.49,0,0,1,.86-.91,5.22,5.22,0,0,1,1.33-.56,12.71,12.71,0,0,1,1.69-.32l1.55-.2a2.51,2.51,0,0,0,1-.27.62.62,0,0,0,.34-.59v-.26a2.36,2.36,0,0,0-.67-1.76,2.62,2.62,0,0,0-1.9-.64,3.28,3.28,0,0,0-1.93.52,2.86,2.86,0,0,0-1,1.22l-1.2-.43a3.6,3.6,0,0,1,1-1.44,4.18,4.18,0,0,1,1.46-.77,5.76,5.76,0,0,1,1.64-.24,5.46,5.46,0,0,1,1.3.17,3.75,3.75,0,0,1,1.26.56,2.92,2.92,0,0,1,.95,1.12,4,4,0,0,1,.36,1.8V178h-1.26v-1.72h-.08a3.35,3.35,0,0,1-.68.93,3.39,3.39,0,0,1-1.12.75A4,4,0,0,1,554.79,178.23Zm.17-1.16a3.33,3.33,0,0,0,1.75-.45,2.94,2.94,0,0,0,1.13-1.19,3.34,3.34,0,0,0,.41-1.63v-1.58a1.33,1.33,0,0,1-.48.24,5.61,5.61,0,0,1-.76.19c-.28.06-.57.1-.85.14l-.77.1a7,7,0,0,0-1.58.35,2.38,2.38,0,0,0-1,.67,1.64,1.64,0,0,0-.34,1.08,1.81,1.81,0,0,0,.71,1.54A2.84,2.84,0,0,0,555,177.07Z"/><path d="M564.13,171.16V178h-1.26V167.07h1.23v1.71h.11a3.16,3.16,0,0,1,1.2-1.34,3.7,3.7,0,0,1,2-.51,3.92,3.92,0,0,1,1.94.46,3.17,3.17,0,0,1,1.3,1.34,4.68,4.68,0,0,1,.46,2.18V178h-1.26v-7a2.94,2.94,0,0,0-.75-2.12,2.66,2.66,0,0,0-2-.78,3,3,0,0,0-1.52.37,2.64,2.64,0,0,0-1.06,1.06A3.29,3.29,0,0,0,564.13,171.16Z"/><path d="M578.7,178.21a4.44,4.44,0,0,1-2.5-.72,4.9,4.9,0,0,1-1.69-2,7.39,7.39,0,0,1,0-5.88,4.8,4.8,0,0,1,1.69-2,4.44,4.44,0,0,1,2.5-.72,4.38,4.38,0,0,1,2.49.72,4.88,4.88,0,0,1,1.7,2,7.39,7.39,0,0,1,0,5.88,4.9,4.9,0,0,1-1.69,2A4.44,4.44,0,0,1,578.7,178.21Zm0-1.16a3,3,0,0,0,1.93-.61,3.82,3.82,0,0,0,1.19-1.63,5.94,5.94,0,0,0,.41-2.23,6,6,0,0,0-.41-2.25,3.86,3.86,0,0,0-1.19-1.64,3.3,3.3,0,0,0-3.85,0,3.79,3.79,0,0,0-1.2,1.64,6,6,0,0,0-.41,2.25,5.94,5.94,0,0,0,.41,2.23,3.76,3.76,0,0,0,1.2,1.63A3,3,0,0,0,578.7,177.05Z"/><path d="M596.31,178.21a4.77,4.77,0,0,1-2.64-.72,4.63,4.63,0,0,1-1.72-2,6.74,6.74,0,0,1-.61-2.92,6.85,6.85,0,0,1,.61-2.93,5,5,0,0,1,1.68-2,4.39,4.39,0,0,1,2.49-.73,4.56,4.56,0,0,1,1.71.33,4.12,4.12,0,0,1,1.48,1,4.7,4.7,0,0,1,1,1.67,6.56,6.56,0,0,1,.39,2.38v.62h-8.52v-1.11h7.23a4.17,4.17,0,0,0-.43-1.89,3.32,3.32,0,0,0-1.17-1.34,3.13,3.13,0,0,0-1.73-.49,3.07,3.07,0,0,0-1.82.56,3.76,3.76,0,0,0-1.24,1.46,4.72,4.72,0,0,0-.45,2v.67a5.38,5.38,0,0,0,.45,2.27,3.7,3.7,0,0,0,4.61,1.79,3,3,0,0,0,1-.65,2.81,2.81,0,0,0,.61-.9l1.2.39a3.7,3.7,0,0,1-.81,1.27,4.3,4.3,0,0,1-1.41.94A5.09,5.09,0,0,1,596.31,178.21Z"/><path d="M619.47,168a5.87,5.87,0,0,0-.58-1.36,4.82,4.82,0,0,0-.95-1.11,4.29,4.29,0,0,0-1.3-.75,4.74,4.74,0,0,0-1.64-.27,4.45,4.45,0,0,0-2.54.74,5,5,0,0,0-1.78,2.13,7.88,7.88,0,0,0-.64,3.35,7.71,7.71,0,0,0,.65,3.34,5,5,0,0,0,1.79,2.14,4.71,4.71,0,0,0,2.61.74,4.59,4.59,0,0,0,2.37-.6,4,4,0,0,0,1.61-1.7,5.47,5.47,0,0,0,.57-2.64l.42.14H615.4v-1.19h5.53v1.19a6.58,6.58,0,0,1-.75,3.22,5.27,5.27,0,0,1-2.07,2.09,6.07,6.07,0,0,1-8.57-2.78,9.16,9.16,0,0,1-.79-3.95,9.94,9.94,0,0,1,.45-3.09,7.15,7.15,0,0,1,1.29-2.36,5.78,5.78,0,0,1,2-1.5,6,6,0,0,1,2.53-.52,6.08,6.08,0,0,1,2.18.37,5.78,5.78,0,0,1,3,2.55,5.46,5.46,0,0,1,.66,1.82Z"/><path d="M624,182.07v-15h1.23v2.08h.15a5.57,5.57,0,0,1,.62-1,3.16,3.16,0,0,1,1.06-.87,3.43,3.43,0,0,1,1.66-.36,4,4,0,0,1,2.36.71,4.63,4.63,0,0,1,1.57,2,8,8,0,0,1,0,5.92,4.72,4.72,0,0,1-1.57,2,4,4,0,0,1-2.35.71,3.41,3.41,0,0,1-1.65-.36A3.32,3.32,0,0,1,626,177a4.42,4.42,0,0,1-.63-1h-.12v6.11Zm1.25-9.54a6.52,6.52,0,0,0,.39,2.34,3.7,3.7,0,0,0,1.14,1.6,2.8,2.8,0,0,0,1.8.58,2.85,2.85,0,0,0,1.84-.6,3.72,3.72,0,0,0,1.14-1.62,6.41,6.41,0,0,0,.39-2.3,6.23,6.23,0,0,0-.38-2.26,3.66,3.66,0,0,0-1.14-1.6,2.89,2.89,0,0,0-1.85-.6,2.84,2.84,0,0,0-1.81.58,3.42,3.42,0,0,0-1.13,1.57A6.35,6.35,0,0,0,625.22,172.53Z"/><path d="M637.23,163.44V178H636V163.44Z"/><circle class="cls-2" cx="469.04" cy="82.69" r="21.47"/><circle class="cls-2" cx="502.48" cy="148.62" r="1.47"/></g></svg>