<svg xmlns="http://www.w3.org/2000/svg" viewBox="0 0 720 900"><defs><style>.cls-1{fill:#fe5000;}.cls-2,.cls-4{fill:none;}.cls-2{stroke:#000;stroke-miterlimit:10;stroke-width:0.37px;}.cls-3{fill:#fff;}</style></defs><g id="Livello_2" data-name="Livello 2"><rect class="cls-1" x="28" y="35" width="664" height="281.27"/><line class="cls-2" x1="607.54" y1="541.24" x2="607.54" y2="552.82"/><rect class="cls-1" x="28" y="325.94" width="664" height="219.53"/><rect class="cls-1" x="28" y="555.14" width="664" height="132.04"/><rect class="cls-1" x="28" y="696.85" width="664" height="89.51"/><rect class="cls-1" x="28" y="796.03" width="664" height="79.47"/><path class="cls-3" d="M271.65,426.15V408h6.82a7.64,7.64,0,0,1,3.52.73,4.89,4.89,0,0,1,2.15,2,6.08,6.08,0,0,1,.74,3,5.93,5.93,0,0,1-.75,3,5,5,0,0,1-2.17,2,8.15,8.15,0,0,1-3.54.69h-4.85v-2.73H278a5.17,5.17,0,0,0,2-.34,2.41,2.41,0,0,0,1.16-1,3.25,3.25,0,0,0,.38-1.63,3.41,3.41,0,0,0-.38-1.65,2.46,2.46,0,0,0-1.17-1.05,4.79,4.79,0,0,0-2-.36h-3v15.43Zm9.39-8.24,4.5,8.24h-3.67l-4.42-8.24Z"/><path class="cls-3" d="M287.91,426.15V408h11.83v2.76h-8.53v4.94h7.91v2.76h-7.91v5h8.6v2.76Z"/><path class="cls-3" d="M313,413a2.41,2.41,0,0,0-1-1.81,4,4,0,0,0-2.38-.65,4.49,4.49,0,0,0-1.77.31,2.69,2.69,0,0,0-1.13.84,2.1,2.1,0,0,0-.4,1.22,1.81,1.81,0,0,0,.26,1,2.32,2.32,0,0,0,.72.71,5.14,5.14,0,0,0,1,.48q.56.19,1.11.33l1.71.43a11.47,11.47,0,0,1,2,.65,6.65,6.65,0,0,1,1.71,1,4.35,4.35,0,0,1,1.65,3.56,4.89,4.89,0,0,1-.82,2.81,5.46,5.46,0,0,1-2.35,1.89,9.27,9.27,0,0,1-3.73.68,9.41,9.41,0,0,1-3.68-.66,5.45,5.45,0,0,1-2.43-1.92,5.61,5.61,0,0,1-.94-3.07h3.24a2.73,2.73,0,0,0,.58,1.58,3.08,3.08,0,0,0,1.35.94,5.71,5.71,0,0,0,3.74,0,3.07,3.07,0,0,0,1.28-.91,2.22,2.22,0,0,0,.47-1.36,1.8,1.8,0,0,0-.42-1.18,3.1,3.1,0,0,0-1.14-.78,11.07,11.07,0,0,0-1.71-.56l-2.07-.53a8.28,8.28,0,0,1-3.55-1.76,4,4,0,0,1-1.3-3.13,4.67,4.67,0,0,1,.88-2.81,5.75,5.75,0,0,1,2.38-1.88,8.32,8.32,0,0,1,3.42-.67,8.06,8.06,0,0,1,3.4.67,5.65,5.65,0,0,1,2.29,1.86,4.73,4.73,0,0,1,.86,2.72Z"/><path class="cls-3" d="M319.33,426.15V408h6.82a7.27,7.27,0,0,1,3.52.78,5.26,5.26,0,0,1,2.16,2.15,6.9,6.9,0,0,1,0,6.2,5.24,5.24,0,0,1-2.17,2.13,7.37,7.37,0,0,1-3.55.78h-4.51V417.3h4.07a4.1,4.1,0,0,0,2-.43,2.73,2.73,0,0,0,1.16-1.17,4.14,4.14,0,0,0,0-3.42,2.71,2.71,0,0,0-1.17-1.15,4.4,4.4,0,0,0-2-.41h-3v15.43Z"/><path class="cls-3" d="M338.71,408v18.18h-3.29V408Z"/><path class="cls-3" d="M342.29,426.15V408h6.82a7.64,7.64,0,0,1,3.52.73,4.89,4.89,0,0,1,2.15,2,6.61,6.61,0,0,1,0,6.08,5.06,5.06,0,0,1-2.18,2,8.15,8.15,0,0,1-3.54.69h-4.85v-2.73h4.41a5.14,5.14,0,0,0,2-.34,2.37,2.37,0,0,0,1.16-1,3.15,3.15,0,0,0,.38-1.63,3.41,3.41,0,0,0-.38-1.65,2.48,2.48,0,0,0-1.16-1.05,4.87,4.87,0,0,0-2-.36h-3v15.43Zm9.39-8.24,4.5,8.24h-3.67l-4.42-8.24Z"/><path class="cls-3" d="M360.89,426.15h-3.52l6.4-18.18h4.07l6.41,18.18h-3.52l-4.85-14.45h-.15ZM361,419h9.59v2.65H361Z"/><path class="cls-3" d="M373.64,410.73V408h14.51v2.76h-5.62v15.42h-3.27V410.73Z"/><path class="cls-3" d="M406.39,417.06a10.71,10.71,0,0,1-1.09,5,7.89,7.89,0,0,1-3,3.2,8.79,8.79,0,0,1-8.55,0,7.94,7.94,0,0,1-3-3.21,12.13,12.13,0,0,1,0-10.05,7.85,7.85,0,0,1,3-3.2,8.79,8.79,0,0,1,8.55,0,7.89,7.89,0,0,1,3,3.2A10.73,10.73,0,0,1,406.39,417.06Zm-3.31,0a8.43,8.43,0,0,0-.64-3.49,4.87,4.87,0,0,0-1.78-2.16,5.07,5.07,0,0,0-5.24,0,4.87,4.87,0,0,0-1.78,2.16,9.84,9.84,0,0,0,0,7,4.87,4.87,0,0,0,1.78,2.16,5.07,5.07,0,0,0,5.24,0,4.87,4.87,0,0,0,1.78-2.16A8.43,8.43,0,0,0,403.08,417.06Z"/><path class="cls-3" d="M409.52,426.15V408h6.82a7.64,7.64,0,0,1,3.52.73,5,5,0,0,1,2.16,2,6.19,6.19,0,0,1,.73,3,6,6,0,0,1-.74,3,5,5,0,0,1-2.18,2,8.15,8.15,0,0,1-3.54.69h-4.85v-2.73h4.41a5.19,5.19,0,0,0,2-.34,2.39,2.39,0,0,0,1.15-1,3.15,3.15,0,0,0,.38-1.63,3.41,3.41,0,0,0-.38-1.65,2.43,2.43,0,0,0-1.16-1.05,4.87,4.87,0,0,0-2-.36h-3v15.43Zm9.39-8.24,4.5,8.24h-3.67l-4.42-8.24Z"/><path class="cls-3" d="M429.08,408v18.18h-3.3V408Z"/><path class="cls-3" d="M435,426.15h-3.52L437.88,408h4.06l6.41,18.18h-3.51L440,411.7h-.14Zm.12-7.13h9.58v2.65h-9.58Z"/><path class="cls-3" d="M336.38,461.15a5.19,5.19,0,0,1-3.52-1.17,4.32,4.32,0,0,1-1.52-3.05h1.92a2.59,2.59,0,0,0,.68,2,3.66,3.66,0,0,0,2.44.61c2,0,3-.64,3-1.92v-.82q0-1.5-2.58-1.5h-.26v-1H334v-1.48h2.54v-1.1H337a2.81,2.81,0,0,0,1.58-.3,1.24,1.24,0,0,0,.38-1v-.6a1.75,1.75,0,0,0-.56-1.35,3.12,3.12,0,0,0-2.06-.51,3.05,3.05,0,0,0-2.13.57,2.52,2.52,0,0,0-.59,1.89h-1.88a4.31,4.31,0,0,1,1.48-2.86,4.52,4.52,0,0,1,3.12-1.16,4.91,4.91,0,0,1,3.33,1.06A3.25,3.25,0,0,1,340.9,450a2.93,2.93,0,0,1-.8,2,2.82,2.82,0,0,1-1.72,1v1a3.71,3.71,0,0,1,2.08,1,2.72,2.72,0,0,1,.9,2.05,3.58,3.58,0,0,1-1.47,2.91A5.46,5.46,0,0,1,336.38,461.15Z"/><path class="cls-3" d="M344.48,463.69l.48-2.94v-2.44h2v2.44l-.88,2.94Z"/><path class="cls-3" d="M354.94,461.15a5.56,5.56,0,0,1-3.33-1,3.83,3.83,0,0,1-1.65-2.61h1.94a2,2,0,0,0,.84,1.58,4.49,4.49,0,0,0,2.26.42,3.92,3.92,0,0,0,2.4-.58,2.3,2.3,0,0,0,.74-1.92v-1.7a2.6,2.6,0,0,0-.54-1.83,2.31,2.31,0,0,0-1.74-.57c-1.44,0-2.18.67-2.2,2H350v-8.36h9.36v1.7h-7.7v5.32h.8a4.26,4.26,0,0,1,1.35-1.62,3.56,3.56,0,0,1,2.11-.62,3.77,3.77,0,0,1,3,1.28,5,5,0,0,1,1.13,3.4,5.23,5.23,0,0,1-1.31,3.68A4.9,4.9,0,0,1,354.94,461.15Z"/><path class="cls-3" d="M369.88,461v-4.8h-6.54v-9.56h1.76v8.08h4.78v-4.8h1.76v4.8h2.6v1.48h-2.6V461Z"/><path class="cls-3" d="M382.53,453.7a3.92,3.92,0,0,1-5.7,0,4.57,4.57,0,0,1,0-6.06,3.92,3.92,0,0,1,5.7,0,4.57,4.57,0,0,1,0,6.06ZM378,453a2.25,2.25,0,0,0,1.64.51,2.29,2.29,0,0,0,1.64-.51,2.23,2.23,0,0,0,.52-1.63V450a2.23,2.23,0,0,0-.52-1.63,2.29,2.29,0,0,0-1.64-.51,2.25,2.25,0,0,0-1.64.51,2.19,2.19,0,0,0-.52,1.63v1.36A2.19,2.19,0,0,0,378,453Zm4.24,8,5.78-14.36h1.74L384,461Zm13-1.07a3.92,3.92,0,0,1-5.7,0,4.57,4.57,0,0,1,0-6.06,3.92,3.92,0,0,1,5.7,0,4.57,4.57,0,0,1,0,6.06Zm-4.49-.72a2.25,2.25,0,0,0,1.64.51,2.29,2.29,0,0,0,1.64-.51,2.23,2.23,0,0,0,.52-1.63v-1.36a2.24,2.24,0,0,0-.52-1.63,2.29,2.29,0,0,0-1.64-.51,2.25,2.25,0,0,0-1.64.51,2.2,2.2,0,0,0-.52,1.63v1.36A2.19,2.19,0,0,0,390.76,459.16Z"/><path class="cls-3" d="M316.13,147.9v18.18H313.2l-8.57-12.38h-.15v12.38h-3.3V147.9h2.95l8.56,12.39h.16V147.9Z"/><path class="cls-3" d="M319.7,166.08V147.9h11.83v2.76H323v4.94h7.92v2.76H323v5h8.6v2.76Z"/><path class="cls-3" d="M334.89,166.08V147.9h6.82a7.61,7.61,0,0,1,3.52.73,5,5,0,0,1,2.16,2,6.65,6.65,0,0,1,0,6.08,5,5,0,0,1-2.18,2,8.14,8.14,0,0,1-3.53.69h-4.86v-2.73h4.41a5.19,5.19,0,0,0,2-.34,2.41,2.41,0,0,0,1.16-1,3.25,3.25,0,0,0,.38-1.63,3.3,3.3,0,0,0-.39-1.65,2.43,2.43,0,0,0-1.16-1.05,4.82,4.82,0,0,0-2-.36h-3v15.43Zm9.4-8.24,4.5,8.24h-3.68l-4.42-8.24Z"/><path class="cls-3" d="M353.11,147.9l4.73,14.31H358l4.72-14.31h3.62L360,166.08H355.9l-6.4-18.18Z"/><path class="cls-3" d="M384.05,157a10.59,10.59,0,0,1-1.1,5,7.82,7.82,0,0,1-3,3.2,8.79,8.79,0,0,1-8.55,0,7.91,7.91,0,0,1-3-3.21,12,12,0,0,1,0-10,7.82,7.82,0,0,1,3-3.2,8.79,8.79,0,0,1,8.55,0,7.82,7.82,0,0,1,3,3.2A10.59,10.59,0,0,1,384.05,157Zm-3.31,0a8.6,8.6,0,0,0-.64-3.49,4.89,4.89,0,0,0-1.79-2.16,5,5,0,0,0-5.23,0,4.87,4.87,0,0,0-1.78,2.16,9.69,9.69,0,0,0,0,7,4.87,4.87,0,0,0,1.78,2.16,5,5,0,0,0,5.23,0,4.89,4.89,0,0,0,1.79-2.16A8.6,8.6,0,0,0,380.74,157Z"/><path class="cls-3" d="M397.06,152.9a2.42,2.42,0,0,0-1.05-1.81,4,4,0,0,0-2.38-.65,4.49,4.49,0,0,0-1.77.31,2.75,2.75,0,0,0-1.13.84,2.09,2.09,0,0,0-.39,1.22,1.73,1.73,0,0,0,.26,1,2.19,2.19,0,0,0,.71.71,5.14,5.14,0,0,0,1,.48,11,11,0,0,0,1.12.33l1.7.43a10.93,10.93,0,0,1,2,.65,6.89,6.89,0,0,1,1.72,1,4.63,4.63,0,0,1,1.2,1.5,4.44,4.44,0,0,1,.44,2.06,5,5,0,0,1-.81,2.81,5.49,5.49,0,0,1-2.36,1.89,9.26,9.26,0,0,1-3.72.68,9.38,9.38,0,0,1-3.68-.66,5.53,5.53,0,0,1-2.44-1.92,5.61,5.61,0,0,1-.94-3.07h3.24a2.8,2.8,0,0,0,.58,1.58,3.2,3.2,0,0,0,1.35.94,5.74,5.74,0,0,0,3.75,0,3,3,0,0,0,1.27-.91,2.16,2.16,0,0,0,.47-1.36,1.75,1.75,0,0,0-.42-1.18,3.1,3.1,0,0,0-1.14-.78,11.07,11.07,0,0,0-1.71-.56l-2.07-.53a8.23,8.23,0,0,1-3.54-1.76A4,4,0,0,1,387,153a4.67,4.67,0,0,1,.87-2.81,5.78,5.78,0,0,1,2.39-1.88,8.24,8.24,0,0,1,3.41-.67,8,8,0,0,1,3.4.67,5.58,5.58,0,0,1,2.29,1.86,4.74,4.74,0,0,1,.87,2.72Z"/><path class="cls-3" d="M405.46,166.08h-3.52l6.4-18.18h4.07l6.41,18.18H415.3l-4.86-14.45h-.14Zm.11-7.13h9.59v2.65h-9.59Z"/><path class="cls-3" d="M338.32,200.88v-4.8h-6.54v-9.56h1.76v8.08h4.78v-4.8h1.76v4.8h2.6v1.48h-2.6v4.8Z"/><path class="cls-3" d="M345.18,203.62l.48-2.94v-2.44h2v2.44l-.88,2.94Z"/><path class="cls-3" d="M355.64,201.08a5.58,5.58,0,0,1-3.33-1,3.83,3.83,0,0,1-1.65-2.61h1.94a2.06,2.06,0,0,0,.84,1.58,4.51,4.51,0,0,0,2.26.42,3.9,3.9,0,0,0,2.4-.58,2.3,2.3,0,0,0,.74-1.92v-1.7a2.6,2.6,0,0,0-.54-1.83,2.31,2.31,0,0,0-1.74-.57c-1.44,0-2.17.67-2.2,2h-3.62v-8.36h9.36v1.7h-7.7v5.32h.8a4.19,4.19,0,0,1,1.35-1.62,3.56,3.56,0,0,1,2.11-.62,3.77,3.77,0,0,1,2.95,1.28,5,5,0,0,1,1.13,3.4,5.23,5.23,0,0,1-1.31,3.68A4.89,4.89,0,0,1,355.64,201.08Z"/><path class="cls-3" d="M368.84,201.08a5.58,5.58,0,0,1-3.33-1,3.83,3.83,0,0,1-1.65-2.61h1.94a2,2,0,0,0,.84,1.58,4.49,4.49,0,0,0,2.26.42,3.9,3.9,0,0,0,2.4-.58A2.3,2.3,0,0,0,372,197v-1.7a2.6,2.6,0,0,0-.54-1.83,2.31,2.31,0,0,0-1.74-.57c-1.44,0-2.18.67-2.2,2h-3.62v-8.36h9.36v1.7h-7.7v5.32h.8a4.19,4.19,0,0,1,1.35-1.62,3.56,3.56,0,0,1,2.11-.62,3.76,3.76,0,0,1,2.95,1.28,5,5,0,0,1,1.13,3.4,5.23,5.23,0,0,1-1.31,3.68A4.9,4.9,0,0,1,368.84,201.08Z"/><path class="cls-3" d="M382.93,193.63a3.92,3.92,0,0,1-5.7,0,4.57,4.57,0,0,1,0-6.06,3.92,3.92,0,0,1,5.7,0,4.57,4.57,0,0,1,0,6.06Zm-4.49-.72a2.25,2.25,0,0,0,1.64.51,2.29,2.29,0,0,0,1.64-.51,2.23,2.23,0,0,0,.52-1.63v-1.36a2.23,2.23,0,0,0-.52-1.63,2.29,2.29,0,0,0-1.64-.51,2.25,2.25,0,0,0-1.64.51,2.19,2.19,0,0,0-.52,1.63v1.36A2.19,2.19,0,0,0,378.44,192.91Zm4.24,8,5.78-14.36h1.74l-5.78,14.36Zm13-1.07a3.92,3.92,0,0,1-5.7,0,4.57,4.57,0,0,1,0-6.06,3.92,3.92,0,0,1,5.7,0,4.57,4.57,0,0,1,0,6.06Zm-4.49-.72a2.25,2.25,0,0,0,1.64.51,2.29,2.29,0,0,0,1.64-.51,2.23,2.23,0,0,0,.52-1.63V196.1a2.23,2.23,0,0,0-.52-1.63,2.29,2.29,0,0,0-1.64-.51,2.25,2.25,0,0,0-1.64.51,2.19,2.19,0,0,0-.52,1.63v1.36A2.19,2.19,0,0,0,391.16,199.09Z"/><path class="cls-3" d="M311.3,725H308a4.18,4.18,0,0,0-.53-1.45,3.93,3.93,0,0,0-.95-1.08,4.17,4.17,0,0,0-1.29-.67,5.21,5.21,0,0,0-1.56-.22,4.7,4.7,0,0,0-2.63.74,4.89,4.89,0,0,0-1.79,2.16,9.72,9.72,0,0,0,0,7,4.89,4.89,0,0,0,1.8,2.15,4.78,4.78,0,0,0,2.61.72,5,5,0,0,0,1.53-.22,4.1,4.1,0,0,0,1.29-.64,3.75,3.75,0,0,0,1-1.05A4,4,0,0,0,308,731l3.32,0a7.34,7.34,0,0,1-.81,2.43,7.24,7.24,0,0,1-1.61,2,7.39,7.39,0,0,1-2.32,1.34,8.47,8.47,0,0,1-3,.49,8.25,8.25,0,0,1-4.28-1.11,7.77,7.77,0,0,1-3-3.21,12.18,12.18,0,0,1,0-10.05,7.82,7.82,0,0,1,3-3.2,8.2,8.2,0,0,1,4.26-1.11,8.86,8.86,0,0,1,2.82.43,7.34,7.34,0,0,1,2.33,1.24,6.83,6.83,0,0,1,1.68,2A7.66,7.66,0,0,1,311.3,725Z"/><path class="cls-3" d="M316.43,737.05h-3.52l6.4-18.18h4.07l6.41,18.18h-3.52l-4.85-14.45h-.15Zm.11-7.13h9.59v2.65h-9.59Z"/><path class="cls-3" d="M332.19,737.05V718.87H339a7.61,7.61,0,0,1,3.52.73,5,5,0,0,1,2.16,2,6.15,6.15,0,0,1,.73,3,5.87,5.87,0,0,1-.74,3,4.84,4.84,0,0,1-2.18,2,8,8,0,0,1-3.53.7H334.1v-2.73h4.42a5.17,5.17,0,0,0,2-.34,2.41,2.41,0,0,0,1.16-1,3.25,3.25,0,0,0,.38-1.63,3.41,3.41,0,0,0-.38-1.65,2.5,2.5,0,0,0-1.17-1,4.82,4.82,0,0,0-2-.36h-3v15.43Zm9.39-8.24,4.5,8.24H342.4L338,728.81Z"/><path class="cls-3" d="M354.61,737.05h-6.16V718.87h6.28a9.36,9.36,0,0,1,4.66,1.09,7.29,7.29,0,0,1,3,3.12,10.44,10.44,0,0,1,1.05,4.86,10.55,10.55,0,0,1-1.06,4.88,7.33,7.33,0,0,1-3,3.14A9.67,9.67,0,0,1,354.61,737.05Zm-2.87-2.85h2.71a6.46,6.46,0,0,0,3.17-.7,4.4,4.4,0,0,0,1.91-2.08,9.75,9.75,0,0,0,0-6.95,4.37,4.37,0,0,0-1.89-2.06,6.3,6.3,0,0,0-3.09-.69h-2.81Z"/><path class="cls-3" d="M369.85,718.87v18.18h-3.29V718.87Z"/><path class="cls-3" d="M375.77,737.05h-3.52l6.4-18.18h4.07l6.41,18.18h-3.52l-4.85-14.45h-.15Zm.11-7.13h9.59v2.65h-9.59Z"/><path class="cls-3" d="M406.23,725h-3.32a4,4,0,0,0-.52-1.45,3.93,3.93,0,0,0-.95-1.08,4.17,4.17,0,0,0-1.29-.67,5.21,5.21,0,0,0-1.56-.22,4.7,4.7,0,0,0-2.63.74,4.89,4.89,0,0,0-1.79,2.16,9.72,9.72,0,0,0,0,7,4.89,4.89,0,0,0,1.8,2.15,4.78,4.78,0,0,0,2.61.72,5,5,0,0,0,1.53-.22,4.1,4.1,0,0,0,1.29-.64,3.75,3.75,0,0,0,1-1.05,4,4,0,0,0,.54-1.42l3.32,0a7.1,7.1,0,0,1-.8,2.43,7.24,7.24,0,0,1-1.61,2,7.33,7.33,0,0,1-2.33,1.34,8.38,8.38,0,0,1-2.95.49,8.25,8.25,0,0,1-4.28-1.11,7.77,7.77,0,0,1-3-3.21,10.82,10.82,0,0,1-1.08-5,10.71,10.71,0,0,1,1.09-5,7.82,7.82,0,0,1,3-3.2,8.2,8.2,0,0,1,4.26-1.11,8.86,8.86,0,0,1,2.82.43,7.34,7.34,0,0,1,2.33,1.24,6.83,6.83,0,0,1,1.68,2A7.45,7.45,0,0,1,406.23,725Z"/><path class="cls-3" d="M411.37,737.05h-3.52l6.4-18.18h4.07l6.41,18.18h-3.52l-4.85-14.45h-.15Zm.11-7.13h9.59v2.65h-9.59Z"/><path class="cls-3" d="M334.69,761.85v-1.7h4.2v-11h-3.74v-1.7h5.5v12.66h4.2v1.7Z"/><path class="cls-3" d="M347.79,764.59l.48-2.94v-2.44h2v2.44l-.88,2.94Z"/><path class="cls-3" d="M358.39,761.85v-4.8h-6.54v-9.56h1.76v8.08h4.78v-4.8h1.76v4.8h2.6v1.48h-2.6v4.8Z"/><path class="cls-3" d="M374.2,760a4.79,4.79,0,0,1-7.86,0,10.35,10.35,0,0,1,0-10.65,4.76,4.76,0,0,1,7.84,0,10.35,10.35,0,0,1,0,10.65Zm-6.54-.52a3.94,3.94,0,0,0,5.22,0,5,5,0,0,0,.81-3.17v-3.24a5.12,5.12,0,0,0-.81-3.22,3.91,3.91,0,0,0-5.22,0,5.12,5.12,0,0,0-.81,3.22v3.24A5,5,0,0,0,367.66,759.48Z"/><path class="cls-3" d="M384.64,754.6a3.92,3.92,0,0,1-5.7,0,4.57,4.57,0,0,1,0-6.06,3.92,3.92,0,0,1,5.7,0,4.57,4.57,0,0,1,0,6.06Zm-4.49-.72a2.25,2.25,0,0,0,1.64.51,2.29,2.29,0,0,0,1.64-.51,2.23,2.23,0,0,0,.52-1.63v-1.36a2.23,2.23,0,0,0-.52-1.63,2.29,2.29,0,0,0-1.64-.51,2.25,2.25,0,0,0-1.64.51,2.19,2.19,0,0,0-.52,1.63v1.36A2.19,2.19,0,0,0,380.15,753.88Zm4.24,8,5.78-14.36h1.74l-5.78,14.36Zm13-1.07a3.92,3.92,0,0,1-5.7,0,4.57,4.57,0,0,1,0-6.06,3.92,3.92,0,0,1,5.7,0,4.57,4.57,0,0,1,0,6.06Zm-4.49-.72a2.25,2.25,0,0,0,1.64.51,2.29,2.29,0,0,0,1.64-.51,2.23,2.23,0,0,0,.52-1.63v-1.36a2.23,2.23,0,0,0-.52-1.63,2.29,2.29,0,0,0-1.64-.51,2.25,2.25,0,0,0-1.64.51,2.19,2.19,0,0,0-.52,1.63v1.36A2.19,2.19,0,0,0,392.87,760.06Z"/><rect class="cls-4" x="311.79" y="620.49" width="96.13" height="14.69"/><path class="cls-3" d="M302.6,593.3h4l5.4,13.17h.21l5.4-13.17h4v18.18h-3.16V599h-.17l-5,12.44H311l-5-12.47h-.17v12.52H302.6Z"/><path class="cls-3" d="M325.26,611.48V593.3h11.82v2.76h-8.53V601h7.92v2.76h-7.92v5h8.6v2.76Z"/><path class="cls-3" d="M355.39,593.3v18.18h-2.93l-8.57-12.38h-.15v12.38h-3.29V593.3h2.94L352,605.69h.16V593.3Z"/><path class="cls-3" d="M358.17,596.06V593.3h14.5v2.76h-5.62v15.42h-3.26V596.06Z"/><path class="cls-3" d="M375.59,611.48h-3.51l6.4-18.18h4.06L389,611.48h-3.52L380.58,597h-.14Zm.12-7.13h9.59V607h-9.59Z"/><path class="cls-3" d="M391.35,611.48V593.3h3.3v15.42h8v2.76Z"/><path class="cls-3" d="M405.5,611.48V593.3h11.83v2.76H408.8V601h7.91v2.76H408.8v5h8.6v2.76Z"/><path class="cls-3" d="M335.06,646.28v-3.12l4.84-3.78a11.52,11.52,0,0,0,1.84-1.7,2.22,2.22,0,0,0,.54-1.4v-.72a2.28,2.28,0,0,0-.59-1.75,3.19,3.19,0,0,0-2.09-.53,3.39,3.39,0,0,0-2.29.65,2.61,2.61,0,0,0-.73,2.05h-1.9a5,5,0,0,1,1.62-3.1,4.83,4.83,0,0,1,3.3-1.16,4.73,4.73,0,0,1,3.34,1.18,3.83,3.83,0,0,1,1.26,2.9c0,1.56-1,3.1-3,4.62l-4.4,3.36v.8h7.66v1.7Z"/><path class="cls-3" d="M347.56,649l.48-2.94v-2.44h2v2.44l-.88,2.94Z"/><path class="cls-3" d="M362,644.43a4.79,4.79,0,0,1-7.86,0,10.35,10.35,0,0,1,0-10.65,4.76,4.76,0,0,1,7.84,0,9,9,0,0,1,1.48,5.34A8.87,8.87,0,0,1,362,644.43Zm-6.54-.52a3.94,3.94,0,0,0,5.22,0,5,5,0,0,0,.81-3.17V637.5a5.12,5.12,0,0,0-.81-3.22,3.91,3.91,0,0,0-5.22,0,5.12,5.12,0,0,0-.81,3.22v3.24A5,5,0,0,0,355.43,643.91Z"/><path class="cls-3" d="M367.72,646.28l5.74-6.88H372a4.42,4.42,0,0,1-1.21,1.26,2.62,2.62,0,0,1-1.47.48,2.78,2.78,0,0,1-2.43-1.3,5.64,5.64,0,0,1-.89-3.3,4.53,4.53,0,0,1,1.45-3.46,5.65,5.65,0,0,1,7.39,0,4.69,4.69,0,0,1,1.46,3.53,4.34,4.34,0,0,1-.5,2.07,15.38,15.38,0,0,1-1.54,2.21l-4.32,5.36Zm1.72-6.52a1.3,1.3,0,0,0,1-.47,1.94,1.94,0,0,0,.4-1.37h3.32a3.16,3.16,0,0,0,.2-1.16v-.68a2.73,2.73,0,0,0-.76-2.14,3.77,3.77,0,0,0-2.48-.66,3.42,3.42,0,0,0-2.49.77,3.37,3.37,0,0,0-.77,2.47v1a3.24,3.24,0,0,0,.33,1.65A1.31,1.31,0,0,0,369.44,639.76Z"/><path class="cls-3" d="M385.8,639a3.91,3.91,0,0,1-5.69,0,4.57,4.57,0,0,1,0-6.06,3.91,3.91,0,0,1,5.69,0,4.54,4.54,0,0,1,0,6.06Zm-4.48-.72a2.25,2.25,0,0,0,1.64.51,2.29,2.29,0,0,0,1.64-.51,2.23,2.23,0,0,0,.52-1.63v-1.36a2.24,2.24,0,0,0-.52-1.63,2.29,2.29,0,0,0-1.64-.51,2.25,2.25,0,0,0-1.64.51,2.2,2.2,0,0,0-.53,1.63v1.36A2.19,2.19,0,0,0,381.32,638.31Zm4.23,8,5.79-14.36h1.74l-5.79,14.36Zm13-1.07a3.92,3.92,0,0,1-5.7,0,4.57,4.57,0,0,1,0-6.06,3.92,3.92,0,0,1,5.7,0,4.57,4.57,0,0,1,0,6.06Zm-4.49-.72a2.25,2.25,0,0,0,1.64.51,2.29,2.29,0,0,0,1.64-.51,2.23,2.23,0,0,0,.52-1.63V641.5a2.24,2.24,0,0,0-.52-1.63,2.29,2.29,0,0,0-1.64-.51,2.25,2.25,0,0,0-1.64.51,2.2,2.2,0,0,0-.52,1.63v1.36A2.19,2.19,0,0,0,394,644.49Z"/><path class="cls-3" d="M310.12,812.9v18.18h-2.93l-8.57-12.38h-.15v12.38h-3.29V812.9h2.94l8.56,12.4h.16V812.9Z"/><path class="cls-3" d="M316,831.08h-3.52l6.4-18.18H323l6.41,18.18h-3.52L321,816.63h-.14Zm.11-7.12h9.59v2.64h-9.59Z"/><path class="cls-3" d="M328.79,815.66V812.9h14.5v2.76h-5.62v15.42h-3.26V815.66Z"/><path class="cls-3" d="M357.54,812.9h3.29v11.88a6.43,6.43,0,0,1-.91,3.44,6.29,6.29,0,0,1-2.58,2.31,9.51,9.51,0,0,1-7.77,0,6.17,6.17,0,0,1-2.58-2.31,6.43,6.43,0,0,1-.91-3.44V812.9h3.29v11.61a4.09,4.09,0,0,0,.5,2,3.58,3.58,0,0,0,1.42,1.39,5,5,0,0,0,4.34,0,3.49,3.49,0,0,0,1.41-1.39,4.09,4.09,0,0,0,.5-2Z"/><path class="cls-3" d="M364.42,831.08V812.9h6.82a7.74,7.74,0,0,1,3.52.73,5,5,0,0,1,2.16,2,6.23,6.23,0,0,1,.73,3.05,6,6,0,0,1-.74,3,5,5,0,0,1-2.18,2,8.15,8.15,0,0,1-3.54.7h-4.85v-2.74h4.41a5,5,0,0,0,2-.34,2.44,2.44,0,0,0,1.16-1,3.27,3.27,0,0,0,.37-1.63,3.31,3.31,0,0,0-.38-1.66,2.43,2.43,0,0,0-1.16-1,4.84,4.84,0,0,0-2-.36h-3v15.43Zm9.39-8.23,4.5,8.23h-3.67l-4.42-8.23Z"/><path class="cls-3" d="M383,831.08H379.5l6.41-18.18H390l6.41,18.18h-3.52L388,816.63h-.14Zm.12-7.12h9.58v2.64h-9.58Z"/><path class="cls-3" d="M398.78,831.08V812.9h3.29v15.42h8v2.76Z"/><path class="cls-3" d="M412.93,831.08V812.9h11.82v2.76h-8.53v4.94h7.92v2.76h-7.92v5h8.6v2.76Z"/><path class="cls-3" d="M332,855.88v-1.7h4.2v-11h-3.74v-1.7H338v12.66h4.2v1.7Z"/><path class="cls-3" d="M345.11,858.62l.48-2.94v-2.44h2v2.44l-.88,2.94Z"/><path class="cls-3" d="M351.37,855.88v-3.12l4.84-3.78a11.52,11.52,0,0,0,1.84-1.7,2.28,2.28,0,0,0,.54-1.4v-.72a2.28,2.28,0,0,0-.59-1.75,3.22,3.22,0,0,0-2.1-.53,3.37,3.37,0,0,0-2.28.65,2.61,2.61,0,0,0-.73,2.05H351a5.08,5.08,0,0,1,1.63-3.1,4.81,4.81,0,0,1,3.29-1.16,4.75,4.75,0,0,1,3.35,1.18,3.83,3.83,0,0,1,1.26,2.9c0,1.56-1,3.1-3,4.62l-4.4,3.36v.8h7.66v1.7Z"/><path class="cls-3" d="M368.39,856.08a5.26,5.26,0,0,1-3.78-1.39,4.61,4.61,0,0,1-1.48-3.53,4.9,4.9,0,0,1,.47-2.18,10.14,10.14,0,0,1,1.41-2.1l4.54-5.36h2.22l-5.64,6.6h1.3a4.29,4.29,0,0,1,1.25-1.26,2.7,2.7,0,0,1,1.51-.48,2.92,2.92,0,0,1,2.52,1.34,6,6,0,0,1,.92,3.44,4.64,4.64,0,0,1-1.48,3.53A5.27,5.27,0,0,1,368.39,856.08Zm-2.56-2.26a3.83,3.83,0,0,0,2.56.68,3.68,3.68,0,0,0,2.56-.73,3.1,3.1,0,0,0,.78-2.37v-1.08a4.18,4.18,0,0,0-.35-1.92,1.38,1.38,0,0,0-1.31-.64,1.44,1.44,0,0,0-1.09.46,2,2,0,0,0-.43,1.38h-3.3a2.64,2.64,0,0,0-.2,1.12v.88A2.8,2.8,0,0,0,365.83,853.82Z"/><path class="cls-3" d="M382.26,848.63a3.92,3.92,0,0,1-5.7,0,4.57,4.57,0,0,1,0-6.06,3.92,3.92,0,0,1,5.7,0,4.57,4.57,0,0,1,0,6.06Zm-4.49-.72a2.25,2.25,0,0,0,1.64.51,2.29,2.29,0,0,0,1.64-.51,2.23,2.23,0,0,0,.51-1.63v-1.36a2.24,2.24,0,0,0-.51-1.63,2.29,2.29,0,0,0-1.64-.51,2.25,2.25,0,0,0-1.64.51,2.2,2.2,0,0,0-.52,1.63v1.36A2.19,2.19,0,0,0,377.77,847.91Zm4.24,8,5.78-14.36h1.74l-5.78,14.36Zm13-1.07a3.92,3.92,0,0,1-5.7,0,4.57,4.57,0,0,1,0-6.06,3.92,3.92,0,0,1,5.7,0,4.57,4.57,0,0,1,0,6.06Zm-4.5-.72a2.91,2.91,0,0,0,3.29,0,2.23,2.23,0,0,0,.52-1.63V851.1a2.24,2.24,0,0,0-.52-1.63,2.91,2.91,0,0,0-3.29,0,2.24,2.24,0,0,0-.51,1.63v1.36A2.23,2.23,0,0,0,390.48,854.09Z"/></g></svg>