<svg xmlns="http://www.w3.org/2000/svg" viewBox="0 0 720 900"><defs><style>.cls-1{fill:#fff;}.cls-2,.cls-5{fill:none;}.cls-2{stroke:#000;stroke-miterlimit:10;stroke-width:0.37px;}.cls-3{isolation:isolate;}.cls-4{fill:#fe5000;}</style></defs><g id="Livello_2" data-name="Livello 2"><path class="cls-1" d="M606,40.07h1.72v1.79H606Zm.07,4.37h1.58v8.74h-1.58Z"/><path class="cls-1" d="M610.37,44.44h1.51v1.29H612a2.78,2.78,0,0,1,2.72-1.51c1.72,0,3.22.93,3.22,3.66v5.3h-1.57V48.09c0-1.86-.79-2.51-2-2.51S612,46.75,612,48.65v4.53h-1.58Z"/><path class="cls-1" d="M623.84,44.22a2.86,2.86,0,0,1,2.8,1.58h.07c-.07-1.15-.07-2.35-.07-2.94V40.07h1.57V53.18h-1.5V51.82h-.07a3.08,3.08,0,0,1-2.94,1.57c-2.22,0-3.87-1.65-3.87-4.51S621.62,44.22,623.84,44.22Zm.22,7.81c1.43,0,2.58-1.15,2.58-3.22s-1.15-3.23-2.58-3.23-2.58,1.22-2.58,3.3S622.62,52,624.06,52Z"/><path class="cls-1" d="M630.87,40.07h1.72v1.79h-1.72Zm.07,4.37h1.57v8.74h-1.57Z"/><path class="cls-1" d="M638.75,44.22a3.53,3.53,0,0,1,3.8,3.15H641a2.06,2.06,0,0,0-2.22-1.79c-1.43,0-2.51,1.29-2.51,3.23S637.32,52,638.75,52A2.06,2.06,0,0,0,641,50.24h1.58a3.52,3.52,0,0,1-3.8,3.15c-2.58,0-4.16-1.79-4.16-4.58S636.38,44.22,638.75,44.22Z"/><path class="cls-1" d="M648.21,44.22c2.29,0,3.87,1.54,3.87,4.16V49H645.7c.07,1.83,1.06,3,2.58,3a2,2,0,0,0,2.15-1.5H652a3.58,3.58,0,0,1-3.73,2.86c-2.72,0-4.23-1.79-4.23-4.58S645.84,44.22,648.21,44.22Zm-2.42,3.62h4.67c-.14-1.58-.94-2.26-2.25-2.26A2.53,2.53,0,0,0,645.79,47.84Z"/><path class="cls-1" d="M661.39,44.22a2.86,2.86,0,0,1,2.8,1.58h.07c-.07-1.15-.07-2.35-.07-2.94V40.07h1.57V53.18h-1.5V51.82h-.07a3.08,3.08,0,0,1-2.94,1.57c-2.22,0-3.87-1.65-3.87-4.51S659.17,44.22,661.39,44.22Zm.22,7.81c1.43,0,2.58-1.15,2.58-3.22s-1.15-3.23-2.58-3.23S659,46.8,659,48.88,660.18,52,661.61,52Z"/><path class="cls-1" d="M668.42,40.07h1.72v1.79h-1.72Zm.07,4.37h1.58v8.74h-1.58Z"/><path class="cls-1" d="M606.07,65.94h1.51v1.27h0a2.41,2.41,0,0,1,2.31-1.49,2,2,0,0,1,1.22.36l-.5,1.43a2.35,2.35,0,0,0-1.08-.28c-1.31,0-1.93,1.36-1.93,2.88v4.57h-1.58Z"/><path class="cls-1" d="M612.45,61.57h1.72v1.79h-1.72Zm.07,4.37h1.58v8.74h-1.58Z"/><path class="cls-1" d="M617.68,72.17c0,1,1.06,1.5,2.08,1.5,1.45,0,2.15-.53,2.15-1.43,0-.68-.47-1-1.36-1.15l-1.65-.28c-1.18-.2-2.55-.68-2.55-2.37s1.55-2.72,3.48-2.72,3.44.79,3.44,2.65h-1.51c0-.93-.78-1.43-1.93-1.43s-1.93.46-1.93,1.36c0,.64.46,1,1.5,1.16l1.65.29c1.32.23,2.43.77,2.43,2.35,0,1.84-1.5,2.79-3.72,2.79s-3.58-.93-3.58-2.72Z"/><path class="cls-1" d="M629.15,65.72a3.51,3.51,0,0,1,3.79,3.15h-1.57a2.06,2.06,0,0,0-2.22-1.79c-1.44,0-2.51,1.29-2.51,3.23s1.07,3.22,2.51,3.22a2.06,2.06,0,0,0,2.22-1.79h1.57a3.51,3.51,0,0,1-3.79,3.15c-2.58,0-4.16-1.79-4.16-4.58S626.78,65.72,629.15,65.72Z"/><path class="cls-1" d="M634.88,61.57h1.58v2.72c0,.59,0,1.79-.08,2.94h.08a2.78,2.78,0,0,1,2.72-1.51c1.72,0,3.22.93,3.22,3.65v5.31h-1.57V69.59c0-1.86-.79-2.51-2-2.51s-2.36,1.17-2.36,3v4.57h-1.58Z"/><path class="cls-1" d="M644.91,61.57h1.72v1.79h-1.72Zm.07,4.37h1.58v8.74H645Z"/><path class="cls-1" d="M652.94,65.72c2.65,0,4.3,1.79,4.3,4.59a4.22,4.22,0,0,1-4.3,4.58c-2.65,0-4.3-1.79-4.3-4.58S650.43,65.72,652.94,65.72Zm0,7.81c1.57,0,2.65-1.29,2.65-3.22s-1.08-3.23-2.65-3.23-2.65,1.29-2.65,3.23S651.36,73.53,652.94,73.53Z"/><path class="cls-1" d="M663.19,61.57h1.71v1.79h-1.71Zm.07,4.37h1.57v8.74h-1.57Z"/><path class="cls-1" d="M667.56,65.94h1.5v1.29h.07a2.79,2.79,0,0,1,2.73-1.51c1.71,0,3.22.93,3.22,3.65v5.31H673.5V69.59c0-1.86-.78-2.51-2-2.51s-2.37,1.17-2.37,3.07v4.53h-1.57Z"/><path class="cls-1" d="M680.74,65.43c0-1.79.81-3.22,2.65-3.22S686,63.64,686,65.43s-.78,3.23-2.65,3.23S680.74,67.23,680.74,65.43Zm3.94,0c0-1.39-.43-2.15-1.29-2.15s-1.29.76-1.29,2.15.47,2.15,1.29,2.15S684.68,66.83,684.68,65.43Zm5-3.29h1.22l-6.24,12.75h-1.22Zm-1.36,9.46c0-1.8.8-3.23,2.65-3.23s2.65,1.43,2.65,3.23-.79,3.22-2.65,3.22S688.34,73.39,688.34,71.6Zm3.94,0c0-1.4-.43-2.15-1.29-2.15s-1.29.75-1.29,2.15.46,2.15,1.29,2.15S692.28,73,692.28,71.6Z"/><line class="cls-2" x1="607.54" y1="541.24" x2="607.54" y2="552.82"/><g class="cls-3"><path class="cls-1" d="M623.1,842.23c0-3.22,1.09-5.73,3.86-5.73s3.86,2.51,3.86,5.73S629.73,848,627,848,623.1,845.45,623.1,842.23Zm6.24,0c0-2.83-.77-4.44-2.38-4.44s-2.38,1.61-2.38,4.44.77,4.44,2.38,4.44S629.34,845.06,629.34,842.23Z"/></g><g class="cls-3"><path class="cls-1" d="M623.35,691.05l3.54-2.45H628v9.85h2.64v1.23h-6.89v-1.23h2.83v-8.09L624,692.14Z"/></g><g class="cls-3"><path class="cls-1" d="M626,546.82l1.23-.83c1.14-.79,1.86-1.23,1.86-2.52a1.89,1.89,0,0,0-2.06-1.93c-1.41,0-2.12.77-2.25,2.26h-1.29a3.27,3.27,0,0,1,3.54-3.48c2,0,3.48,1.17,3.48,3.15s-1.24,2.63-2.38,3.42l-1.23.83c-1.67,1.15-1.93,1.95-2,2.64h5.73v1.23h-7.34A5.26,5.26,0,0,1,626,546.82Z"/></g><g class="cls-3"><path class="cls-1" d="M624.51,400.15a2.16,2.16,0,0,0,2.38,2.32c1.39,0,2.39-.74,2.39-2.05a2.16,2.16,0,0,0-2.39-2h-.83v-1.22h.83a1.91,1.91,0,0,0,2-1.92,1.81,1.81,0,0,0-2-1.79,1.85,1.85,0,0,0-2,2h-1.29a3.06,3.06,0,0,1,3.28-3.22c2,0,3.35,1.25,3.35,3a2.81,2.81,0,0,1-1.61,2.48v.07a2.84,2.84,0,0,1,2.06,2.77c0,2-1.69,3.15-3.8,3.15s-3.73-1.16-3.73-3.54Z"/></g><g class="cls-3"><path class="cls-1" d="M622.9,251.61l5.35-7.28h1.16v7.09H631v1.22h-1.61v2.77H628v-2.77H622.9Zm5.09-.19v-4.88l-3.64,4.88Z"/></g><g class="cls-3"><path class="cls-1" d="M624.58,104.36a2.21,2.21,0,0,0,2.38,1.93,2.42,2.42,0,0,0,0-4.83,2.73,2.73,0,0,0-2.13,1.09l-1.28-.06.32-6.25h6.24v1.29h-5L625,101H625a2.92,2.92,0,0,1,2.12-.77,3.42,3.42,0,0,1,3.61,3.54,3.59,3.59,0,0,1-3.8,3.73c-2.25,0-3.62-1.25-3.8-3.15Z"/></g><rect class="cls-1" x="607.54" y="695.22" width="10.2" height="0.93"/><rect class="cls-1" x="607.54" y="842.94" width="10.2" height="0.93"/><rect class="cls-1" x="607.54" y="547.15" width="10.2" height="0.93"/><rect class="cls-1" x="607.54" y="399.08" width="10.2" height="0.93"/><rect class="cls-1" x="607.54" y="251" width="10.2" height="0.93"/><rect class="cls-1" x="607.07" y="102.93" width="10.74" height="0.93"/><rect class="cls-4" x="92.26" y="176.48" width="515.07" height="141.17"/><rect class="cls-4" x="92.26" y="322.96" width="515.07" height="202.35"/><rect class="cls-4" x="92.26" y="530.52" width="515.07" height="95.6"/><rect class="cls-4" x="92.26" y="631.43" width="515.07" height="18.48"/><rect class="cls-4" x="92.26" y="655.22" width="515.07" height="188.54"/><rect class="cls-1" x="607.07" y="103.4" width="0.93" height="740.47"/><g class="cls-3"><path class="cls-1" d="M304,238.07h2.1l7.24,9.92h.08l-.08-9.92h2.28v13.76h-2.08L306.3,242h-.08l.08,9.88H304Z"/><path class="cls-1" d="M319,238.07h9.64V240h-7.38v3.9h5.92v1.86h-5.92v4.16h7.56v1.92H319Z"/><path class="cls-1" d="M331.54,238.07h5.56c3.22,0,4.94,1.56,4.94,4.18a4.06,4.06,0,0,1-3,4.14l3.46,5.44h-2.46l-3.3-5.18h-3v5.18h-2.26ZM333.8,240v4.84h3.28a2.42,2.42,0,0,0,2.68-2.52c0-1.42-1-2.32-2.68-2.32Z"/><path class="cls-1" d="M343.3,238.07h2.38l3.9,11.52h.08l3.94-11.52h2.28l-5,13.76h-2.6Z"/><path class="cls-1" d="M363.34,237.83a7.12,7.12,0,0,1,0,14.24c-4.14,0-6.86-3-6.86-7.12S359.2,237.83,363.34,237.83Zm0,12.24c2.74,0,4.54-2.18,4.54-5.12s-1.8-5.12-4.54-5.12-4.52,2.16-4.52,5.12S360.62,250.07,363.34,250.07Z"/><path class="cls-1" d="M374.18,247.91c0,1.42,1.22,2.4,3.2,2.4s3.28-.86,3.28-2.32c0-3.4-8.5-.7-8.5-6.08,0-2.36,2-4.08,5.24-4.08s5.16,1.5,5.16,3.94h-2.22c0-1.4-1.26-2.18-2.94-2.18s-3,.72-3,2.1c0,3.38,8.56.64,8.56,6.12,0,2.54-2,4.26-5.6,4.26s-5.44-1.64-5.44-4.16Z"/><path class="cls-1" d="M385.72,238.07h9.64V240H388v3.9h5.92v1.86H388v4.16h7.56v1.92h-9.82Z"/></g><g class="cls-3"><path class="cls-1" d="M308.1,569.39H311l4.62,10.7h.06l4.56-10.7h2.88v13.76h-2.26l.18-10.48H321l-4.48,10.48h-1.74l-4.48-10.3h-.08l.16,10.3H308.1Z"/><path class="cls-1" d="M326.52,569.39h9.64v1.92h-7.38v3.9h5.92v1.86h-5.92v4.16h7.56v1.92h-9.82Z"/><path class="cls-1" d="M339,569.39h2.1l7.24,9.92h.08l-.08-9.92h2.28v13.76h-2.08l-7.28-9.88h-.08l.08,9.88H339Z"/><path class="cls-1" d="M352.5,569.39h11.72v1.9h-4.74v11.86h-2.26V571.29H352.5Z"/><path class="cls-1" d="M368.34,569.39H371l5.12,13.76h-2.38l-1.18-3.34h-5.88l-1.18,3.34h-2.28Zm1.26,2.24-2.24,6.3h4.54l-2.22-6.3Z"/><path class="cls-1" d="M378,569.39h2.26v11.82h6.66v1.94H378Z"/><path class="cls-1" d="M389.22,569.39h2.26v13.76h-2.26Z"/></g><g class="cls-3"><path class="cls-1" d="M280.23,415.13h5.56c3.22,0,4.94,1.56,4.94,4.18a4.06,4.06,0,0,1-3,4.14l3.46,5.44h-2.46l-3.3-5.18h-3v5.18h-2.26Zm2.26,1.88v4.84h3.28a2.42,2.42,0,0,0,2.68-2.52c0-1.42-1-2.32-2.68-2.32Z"/><path class="cls-1" d="M293.69,415.13h9.64v1.92H296V421h5.92v1.86H296V427h7.56v1.92h-9.82Z"/><path class="cls-1" d="M307.83,425c0,1.42,1.22,2.4,3.2,2.4s3.28-.86,3.28-2.32c0-3.4-8.5-.7-8.5-6.08,0-2.36,2-4.08,5.24-4.08s5.16,1.5,5.16,3.94H314c0-1.4-1.26-2.18-2.94-2.18s-3,.72-3,2.1c0,3.38,8.56.64,8.56,6.12,0,2.54-2,4.26-5.6,4.26s-5.44-1.64-5.44-4.16Z"/><path class="cls-1" d="M319.37,415.13H325c3.2,0,5,1.84,5,4.48s-1.78,4.62-5,4.62h-3.32v4.66h-2.26Zm2.26,1.88v5.36h3.22a2.58,2.58,0,0,0,2.8-2.74,2.48,2.48,0,0,0-2.8-2.62Z"/><path class="cls-1" d="M332.47,415.13h2.26v13.76h-2.26Z"/><path class="cls-1" d="M338.11,415.13h5.56c3.22,0,4.94,1.56,4.94,4.18a4.06,4.06,0,0,1-3,4.14l3.46,5.44h-2.46l-3.3-5.18h-3v5.18h-2.26Zm2.26,1.88v4.84h3.28a2.42,2.42,0,0,0,2.68-2.52c0-1.42-1-2.32-2.68-2.32Z"/><path class="cls-1" d="M355.21,415.13h2.66L363,428.89h-2.38l-1.18-3.34h-5.88l-1.18,3.34h-2.28Zm1.26,2.24-2.24,6.3h4.54l-2.22-6.3Z"/><path class="cls-1" d="M362,415.13h11.72V417H369v11.86h-2.26V417H362Z"/><path class="cls-1" d="M381,414.89a7.12,7.12,0,0,1,0,14.24c-4.14,0-6.86-3-6.86-7.12S376.85,414.89,381,414.89Zm0,12.24c2.74,0,4.54-2.18,4.54-5.12s-1.8-5.12-4.54-5.12-4.52,2.16-4.52,5.12S378.27,427.13,381,427.13Z"/><path class="cls-1" d="M390.43,415.13H396c3.22,0,4.94,1.56,4.94,4.18a4.06,4.06,0,0,1-3,4.14l3.46,5.44H399l-3.3-5.18h-3v5.18h-2.26Zm2.26,1.88v4.84H396a2.42,2.42,0,0,0,2.68-2.52c0-1.42-1-2.32-2.68-2.32Z"/><path class="cls-1" d="M403.89,415.13h2.26v13.76h-2.26Z"/><path class="cls-1" d="M409.53,415.13h9.64v1.92h-7.38V421h5.92v1.86h-5.92V427h7.56v1.92h-9.82Z"/></g><rect class="cls-5" x="301.73" y="631.96" width="96.13" height="15.4"/><g class="cls-3"><path class="cls-1" d="M303.06,740.55h2.1l7.24,9.93h.08l-.08-9.93h2.28v13.77H312.6l-7.28-9.88h-.08l.08,9.88h-2.26Z"/><path class="cls-1" d="M321.68,740.55h2.66l5.12,13.77h-2.38L325.9,751H320l-1.18,3.34h-2.28Zm1.26,2.24-2.24,6.31h4.54L323,742.79Z"/><path class="cls-1" d="M328.46,740.55h11.72v1.91h-4.74v11.86h-2.26V742.46h-4.72Z"/><path class="cls-1" d="M341.74,740.55H344v8.27c0,2.38,1.14,3.74,3.46,3.74s3.46-1.36,3.46-3.74v-8.27h2.26v8.29c0,4.18-2.34,5.72-5.72,5.72s-5.72-1.54-5.72-5.72Z"/><path class="cls-1" d="M356.28,740.55h5.56c3.22,0,4.94,1.56,4.94,4.19a4.06,4.06,0,0,1-3,4.14l3.46,5.44h-2.46l-3.3-5.18h-3v5.18h-2.26Zm2.26,1.89v4.84h3.28a2.42,2.42,0,0,0,2.68-2.52c0-1.43-1-2.32-2.68-2.32Z"/><path class="cls-1" d="M373.38,740.55H376l5.12,13.77h-2.38L377.6,751h-5.88l-1.18,3.34h-2.28Zm1.26,2.24-2.24,6.31h4.54l-2.22-6.31Z"/><path class="cls-1" d="M383,740.55h2.26v11.83H392v1.94H383Z"/><path class="cls-1" d="M394.26,740.55h2.26v13.77h-2.26Z"/></g><g class="cls-3"><path class="cls-1" d="M299.56,633.31c3.3,0,5.42,1.86,6,4.69h-2.3a3.43,3.43,0,0,0-3.66-2.69c-2.68,0-4.42,2.11-4.42,5.13s1.76,5.12,4.36,5.12a3.39,3.39,0,0,0,3.72-2.68h2.3c-.54,2.82-2.72,4.68-6,4.68-4,0-6.68-3-6.68-7.12S295.5,633.31,299.56,633.31Z"/><path class="cls-1" d="M311.68,633.55h2.66l5.12,13.77h-2.38L315.9,644H310l-1.18,3.34h-2.28Zm1.26,2.24-2.24,6.31h4.54L313,635.79Z"/><path class="cls-1" d="M321.34,633.55h5.56c3.22,0,4.94,1.56,4.94,4.19a4.06,4.06,0,0,1-3,4.14l3.46,5.44h-2.46l-3.3-5.18h-3v5.18h-2.26Zm2.26,1.89v4.84h3.28a2.42,2.42,0,0,0,2.68-2.52c0-1.43-1-2.32-2.68-2.32Z"/><path class="cls-1" d="M334.8,633.55h4.58c4.78,0,7.26,2.89,7.26,6.89s-2.48,6.88-7.26,6.88H334.8Zm2.26,1.92v9.93h2.22c3.66,0,5-2.3,5-5s-1.34-5-5-5Z"/><path class="cls-1" d="M349.2,633.55h2.26v13.77H349.2Z"/><path class="cls-1" d="M358.48,633.55h2.66l5.12,13.77h-2.38L362.7,644h-5.88l-1.18,3.34h-2.28Zm1.26,2.24-2.24,6.31H362l-2.22-6.31Z"/><path class="cls-1" d="M373.66,633.31c3.3,0,5.42,1.86,6,4.69h-2.3a3.43,3.43,0,0,0-3.66-2.69c-2.68,0-4.42,2.11-4.42,5.13s1.76,5.12,4.36,5.12a3.39,3.39,0,0,0,3.72-2.68h2.3c-.54,2.82-2.72,4.68-6,4.68-4,0-6.68-3-6.68-7.12S369.6,633.31,373.66,633.31Z"/><path class="cls-1" d="M382.14,633.55h2.26v5.85h6.92v-5.85h2.28v13.77h-2.28v-6H384.4v6h-2.26Z"/><path class="cls-1" d="M397,633.55h9.64v1.92h-7.38v3.91h5.92v1.86h-5.92v4.16h7.56v1.92H397Z"/></g></g></svg>